<?xml version="1.0" encoding="UTF-8"?><svg id="Layer_1" xmlns="http://www.w3.org/2000/svg" viewBox="0 0 209.3956 264.1085"><defs><style>.cls-1{fill:#fff;}.cls-2{fill:#4c9bd5;}.cls-3{stroke:#fff;}.cls-3,.cls-4{fill:none;stroke-width:13px;}.cls-4{stroke:#4c9bd5;stroke-miterlimit:10;}</style></defs><g><path class="cls-2" d="m50.4127,179.7746c34.6825-8.4844,87.0943-21.3065,89.5249-96.4722.2773-8.5726-2.909-16.743-8.9726-23.0041-6.2358-6.4365-14.948-10.1262-24.116-10.1262-9.0552,0-17.8133,3.8167-24.0279,10.4723-5.9606,6.3868-7.5628,14.8323-8.7256,20.9985-4.7653,25.1267-20.9961,37.5015-49.6135,37.8215-4.1897.0476-7.5509,3.4851-7.5029,7.6776.0473,4.1879,3.4361,7.5957,7.6722,7.5008,35.4417-.4004,58.2948-18.2186,64.357-50.1755,1.1049-5.8318,2.1647-10.5259,4.9079-13.4628,3.4036-3.6474,7.9954-5.654,13.1403-5.654,4.8712,0,9.6126,2.0066,13.0034,5.509,3.1764,3.2837,4.8543,7.5269,4.7117,11.9543-2.0574,63.6493-44.1483,73.9441-77.9658,82.2175-6.4432,1.5769-12.5293,3.0642-17.7801,4.8458-3.9709,1.3455-6.0981,5.6508-4.754,9.6217,1.0738,3.1623,4.0238,5.1562,7.1903,5.1562.8064,0,1.6256-.1306,2.4349-.4029,4.6263-1.5677,10.4007-2.9817,16.5158-4.4775Z"/><path class="cls-2" d="m189.051,145.0381c-13.4706-4.0775-25.5484-9.5039-25.3663-30.8993.0423-4.753.3146-7.9062.6117-11.2487.4085-4.6313.872-9.8824.7345-19.7801-.4446-32.0253-26.4987-58.0792-58.0817-58.0792-28.8461,0-51.4085,19.6411-57.489,50.0334-3.6237,18.1036-13.1149,18.708-21.7383,17.8334-4.1783-.4293-7.8909,2.6254-8.31,6.7953-.4177,4.1691,2.6247,7.891,6.7974,8.3094,26.0133,2.5957,35.1101-14.8524,38.1341-29.957,4.6708-23.3392,20.9946-37.836,42.6059-37.836,23.3279,0,42.5778,19.3387,42.9051,43.1084.1228,9.1271-.2794,13.7619-.6773,18.2391-.309,3.4883-.6223,7.0976-.6689,12.452-.2963,34.5347,25.2477,42.2546,36.1529,45.556.7296.2194,1.469.3259,2.1992.3259,3.2576,0,6.2689-2.1131,7.2595-5.3933,1.2136-4.0125-1.0555-8.2473-5.0687-9.4591Z"/><path class="cls-2" d="m191.7434,119.832c-.6703-.454-3.6929-2.8804-2.9697-9.6309,1.0499-9.773,1.6002-25.7872,1.6234-26.4662l.0057-.2548C190.4029,37.4473,152.9644,0,106.9492,0,72.8918,0,41.656,21.3682,29.2205,53.1767c-1.4669,3.7549-2.5845,8.212-3.573,12.1441-.539,2.1512-1.15,4.5872-1.5007,5.4822-1.5276,3.9031.3972,8.3065,4.3004,9.8354,3.8976,1.5258,8.3059-.4004,9.8327-4.3.7028-1.7985,1.3152-4.2376,2.0884-7.322.8778-3.4943,1.874-7.4535,2.9874-10.316,10.1791-26.0327,35.7338-43.5225,63.5935-43.5225,37.605,0,68.2051,30.5701,68.2756,68.1716-.0522,1.5409-.5969,16.4406-1.5409,25.2333-1.8012,16.7161,8.962,24.7796,14.1416,25.894.5383.1126,1.0731.1683,1.6002.1683,3.5032,0,6.6499-2.4384,7.4147-5.9976.8234-3.8492-1.4224-7.6399-5.097-8.8156Z"/><path class="cls-2" d="m28.6744,159.7303c1.5007-.3139,3.0586-.6279,4.6708-.9517,29.4811-5.9408,78.8252-15.8832,81.1902-75.6328.1665-4.1879-3.0931-7.7167-7.2827-7.8825-4.1826-.122-7.7182,3.0963-7.8839,7.2838-1.8895,47.825-40.6911,55.6458-69.0207,61.3534-1.6425.3316-3.2343.6519-4.7597.9684-4.1049.8534-6.7381,4.8751-5.8843,8.9765.745,3.5821,3.9003,6.0452,7.4196,6.0452.5151,0,1.0329-.0508,1.5508-.1602Z"/><path class="cls-2" d="m184.1982,169.6519c-7.5622-1.663-14.4259-4.2736-22.3959-7.6815-6.1539-2.631-12.9914-7.7555-17.8577-13.3795-2.7502-3.1708-7.5396-3.5172-10.704-.7733-3.1715,2.7442-3.5201,7.5354-.7768,10.704,6.3769,7.3668,15.1145,13.8741,23.3696,17.4062,7.5862,3.2385,15.8716,6.5193,25.1052,8.5464.5504.1214,1.0957.1806,1.6355.1806,3.4855,0,6.6266-2.418,7.402-5.9648.901-4.0929-1.6828-8.1372-5.7778-9.0382Z"/><path class="cls-2" d="m176.5478,193.8978c-14.1055-2.9986-23.8444-8.1726-32.4311-12.7397-8.4936-4.5191-15.8313-8.4187-24.4604-8.4187-6.8799,0-14.9084,2.5605-27.0582,6.4333-12.8906,4.1106-30.5459,9.7431-54.9392,14.7103-4.1021.8389-6.755,4.845-5.9154,8.9521.834,4.1077,4.8402,6.7592,8.9508,5.921,25.1899-5.1322,43.2953-10.9052,56.5168-15.1223,10.4028-3.3154,17.9227-5.7157,22.4453-5.7157,4.8416,0,10.3548,2.9302,17.3349,6.64,9.0036,4.7887,20.2051,10.745,36.409,14.186.5263.1129,1.0611.1658,1.5833.1658,3.508,0,6.6548-2.4448,7.4126-6.0156.8707-4.0986-1.7469-8.1288-5.8484-8.9966Z"/><path class="cls-2" d="m162.4232,215.2699c-5.6134-1.5057-12.0905-4.5403-18.3544-7.4775-9.5603-4.4747-18.5859-8.7003-26.522-8.7003-5.8208,0-15.7601,2.8011-31.5018,7.3703-11.3962,3.3069-24.3122,7.0556-33.6397,8.6558-4.1304.7083-6.9032,4.632-6.1976,8.763.7112,4.1282,4.6158,6.9046,8.7644,6.1955,10.1707-1.7421,23.5248-5.6184,35.3062-9.0369,10.9263-3.1743,23.3146-6.7691,27.2685-6.7691,4.5565,0,12.451,3.6957,20.0795,7.2694,6.863,3.2145,13.9638,6.537,20.874,8.3863.6569.1778,1.3152.2639,1.9671.2639,3.35,0,6.4178-2.2402,7.3251-5.6276,1.0837-4.0513-1.3152-8.212-5.3693-9.2929Z"/><path class="cls-2" d="m142.7888,233.6427c-1.8147-.6639-3.7169-1.5-5.732-2.3826-6.4248-2.8272-13.7076-6.0276-23.0951-6.0276-4.2623,0-10.4021,1.4139-20.0696,3.7281-7.0274,1.6771-14.9932,3.5821-20.814,4.2729-4.1656.4918-7.1361,4.2672-6.6435,8.4314.4939,4.1628,4.2785,7.1318,8.4314,6.6429,6.6986-.7994,15.1244-2.8096,22.5539-4.5876,6.4954-1.5529,13.8558-3.3097,16.5418-3.3097,6.1976,0,11.4364,2.3022,16.9906,4.7442,2.1407.9434,4.3561,1.9149,6.621,2.7418.8593.314,1.7413.4657,2.6077.4657,3.0918,0,6.0029-1.9086,7.1226-4.9855,1.4415-3.9356-.5792-8.2939-4.5149-9.7339Z"/></g><rect class="cls-1" x="88.7316" y="127.4469" width="32.8385" height="22.6956"/><g><g><g><rect class="cls-4" x="6.5" y="198.2664" width="196.3956" height="59.342" rx="10" ry="10"/><rect class="cls-1" x="6.5" y="198.2664" width="196.3956" height="59.342" rx="10" ry="10"/></g><path class="cls-2" d="m39.3304,209.0016l-1.039,9.281,6.7159-5.9255,3.2958,5.3737-8.9131,3.5394,8.8535,3.604-3.2362,5.3141-6.7159-5.9852,1.039,9.3407h-5.8609l1.0365-9.281-6.6538,5.9255-3.2362-5.3141,8.7914-3.6637-8.8535-3.4798,3.2983-5.493,6.5941,6.0448-.9768-9.281h5.8609Z"/><rect class="cls-2" x="22.1493" y="240.4305" width="28.5584" height="5.6049" rx=".5" ry=".5"/><path class="cls-2" d="m81.9012,209.0016l-1.039,9.281,6.7159-5.9255,3.2958,5.3737-8.9131,3.5394,8.8535,3.604-3.2362,5.3141-6.7159-5.9852,1.039,9.3407h-5.8609l1.0365-9.281-6.6538,5.9255-3.2362-5.3141,8.7914-3.6637-8.8535-3.4798,3.2983-5.493,6.5941,6.0448-.9768-9.281h5.8609Z"/><rect class="cls-2" x="64.7201" y="240.4305" width="28.5584" height="5.6049" rx=".5" ry=".5"/><path class="cls-2" d="m124.472,209.0016l-1.039,9.281,6.7159-5.9255,3.2958,5.3737-8.9131,3.5394,8.8535,3.604-3.2362,5.3141-6.7159-5.9852,1.039,9.3407h-5.8609l1.0365-9.281-6.6538,5.9255-3.2362-5.3141,8.7914-3.6637-8.8535-3.4798,3.2983-5.493,6.5941,6.0448-.9768-9.281h5.8609Z"/><rect class="cls-2" x="107.2909" y="240.4305" width="28.5584" height="5.6049" rx=".5" ry=".5"/><rect class="cls-2" x="149.8616" y="240.4305" width="28.5584" height="5.6049" rx=".5" ry=".5"/></g><g><path class="cls-3" d="m138.3584,154.1362v41.2197c-.0418.1019-.1077.2006-.122.3063-.3364,2.4876-1.5211,4.318-3.9805,5.1668h-59.144c-1.0706-.4153-2.0498-.9473-2.7466-1.9149-1.0125-1.4061-1.3258-3.0002-1.3262-4.6836-.0028-12.9966-.0035-25.9932.0044-38.9898.0004-.6246.046-1.2556.1415-1.8727.4672-3.0204,2.4368-4.7098,5.4776-4.7289.2701-.0017.5403-.0002.8543-.0002,0-2.5315-.0733-4.9271.0222-7.316.0828-2.0718.1533-4.1792.5824-6.1957,1.6513-7.7606,5.8235-13.8509,12.6149-18.0022,6.3911-3.9066,13.3169-4.7731,20.5508-3.0601,5.8216,1.3786,10.5864,4.5348,14.3465,9.1622,3.6174,4.4519,5.718,9.5623,6.0655,15.3045.184,3.0397.1099,6.0951.1513,9.1434.0041.3005.0005.6011.0005.9641.4905,0,.8566.0124,1.2216-.002,2.1812-.0864,3.6246,1.028,4.5061,2.9019.3805.8089.5269,1.7281.7797,2.5972Zm-49.6268-5.5608h31.8541c0-2.7685.0536-5.4752-.0236-8.1782-.0362-1.27-.2117-2.5605-.5163-3.7942-1.7293-7.0031-8.1936-12.0427-15.3613-12.0432-7.167-.0005-13.6159,5.044-15.3799,12.0377-.993,3.9367-.309,7.9427-.573,11.9779Zm10.534,32.3291c0,1.7948-.0064,3.5895.0017,5.3843.0093,2.0534,1.0035,3.0531,3.0352,3.06,1.5659.0053,3.1319.0037,4.6978.0004,2.1061-.0044,3.095-.981,3.1001-3.0808.0073-2.9912.0174-5.9826-.0048-8.9737-.0107-1.4448.1109-2.7181,1.0055-4.0549,1.8311-2.7365,1.392-6.0912-.7322-8.6319-1.8013-2.1545-5.3752-3.0558-8.2186-2.0729-4.8583,1.6794-6.5583,7.6117-3.3469,11.6012.258.3206.4313.8019.4417,1.2137.0467,1.8505.0204,3.7029.0206,5.5547Z"/><path class="cls-2" d="m138.3584,154.1362v41.2197c-.0418.1019-.1077.2006-.122.3063-.3364,2.4876-1.5211,4.318-3.9805,5.1668h-59.144c-1.0706-.4153-2.0498-.9473-2.7466-1.9149-1.0125-1.4061-1.3258-3.0002-1.3262-4.6836-.0028-12.9966-.0035-25.9932.0044-38.9898.0004-.6246.046-1.2556.1415-1.8727.4672-3.0204,2.4368-4.7098,5.4776-4.7289.2701-.0017.5403-.0002.8543-.0002,0-2.5315-.0733-4.9271.0222-7.316.0828-2.0718.1533-4.1792.5824-6.1957,1.6513-7.7606,5.8235-13.8509,12.6149-18.0022,6.3911-3.9066,13.3169-4.7731,20.5508-3.0601,5.8216,1.3786,10.5864,4.5348,14.3465,9.1622,3.6174,4.4519,5.718,9.5623,6.0655,15.3045.184,3.0397.1099,6.0951.1513,9.1434.0041.3005.0005.6011.0005.9641.4905,0,.8566.0124,1.2216-.002,2.1812-.0864,3.6246,1.028,4.5061,2.9019.3805.8089.5269,1.7281.7797,2.5972Zm-49.6268-5.5608h31.8541c0-2.7685.0536-5.4752-.0236-8.1782-.0362-1.27-.2117-2.5605-.5163-3.7942-1.7293-7.0031-8.1936-12.0427-15.3613-12.0432-7.167-.0005-13.6159,5.044-15.3799,12.0377-.993,3.9367-.309,7.9427-.573,11.9779Zm10.534,32.3291c0,1.7948-.0064,3.5895.0017,5.3843.0093,2.0534,1.0035,3.0531,3.0352,3.06,1.5659.0053,3.1319.0037,4.6978.0004,2.1061-.0044,3.095-.981,3.1001-3.0808.0073-2.9912.0174-5.9826-.0048-8.9737-.0107-1.4448.1109-2.7181,1.0055-4.0549,1.8311-2.7365,1.392-6.0912-.7322-8.6319-1.8013-2.1545-5.3752-3.0558-8.2186-2.0729-4.8583,1.6794-6.5583,7.6117-3.3469,11.6012.258.3206.4313.8019.4417,1.2137.0467,1.8505.0204,3.7029.0206,5.5547Z"/></g></g></svg>