<?xml version="1.0" encoding="UTF-8"?><svg id="Layer_1" xmlns="http://www.w3.org/2000/svg" viewBox="0 0 242.7585 228.9809"><defs><style>.cls-1{fill:#4a9cd5;}.cls-2{fill:#4f9dd6;}</style></defs><path class="cls-2" d="m49.282,155.692c-1.0878,3.5679-1.7042,6.3028-5.7929,7.3333-6.7217,1.6943-13.2384,4.3219-19.7335,6.8496-1.9076.7423-3.6251,2.2923-5.1227,3.7957-2.8873,2.8983-3.0642,6.3291-.0174,8.9986,2.7231,2.3859,5.8526,4.7737,9.1991,5.8208,9.555,2.9898,19.2041,5.9209,29.0169,7.7133,11.9303,2.1792,24.0653,3.1728,36.612,4.7418v-13.7446c8.5755,7.3071,16.4717,14.0354,24.6191,20.9777-8.1278,6.9239-16.0192,13.6464-24.4199,20.8027v-15.2751c-5.3391-.4903-10.4447-.9073-15.5392-1.4366-18.0605-1.8764-35.97-4.6516-53.2065-10.7437-5.0443-1.7829-9.9178-4.1877-14.6582-6.7253-2.5514-1.3659-4.8969-3.3761-6.9105-5.5181-4.3582-4.6359-4.5165-10.2-.0004-14.6904,3.0742-3.0568,6.708-5.8791,10.5924-7.6336,6.8937-3.1138,14.1362-5.4345,21.2966-7.89,3.4446-1.1812,7.0287-1.9387,10.5627-2.8333,1.0328-.2614,2.1107-.3336,3.5022-.5428h0Z"/><path class="cls-2" d="m124.8233,214.3279v-13.1492c1.3021,0,2.5684.0208,3.8339-.003,24.6486-.4637,49.2015-2.0383,73.2028-8.2892,6.2245-1.6211,12.2512-4.2447,18.1458-6.9262,3.1897-1.451,6.4928-3.8141,6.136-8.1153-.3491-4.2078-3.6341-6.5046-7.063-7.8551-8.463-3.3334-17.0654-6.2922-25.9392-9.5208.0835.5035-.0183.2838.0265.1024,1.2526-5.07,1.3181-5.2872,6.1703-3.8001,8.9739,2.7503,18.0028,5.4154,26.7347,8.8525,4.4357,1.746,8.6513,4.639,12.2984,7.8228,5.9242,5.1715,5.7536,11.442.0774,16.9587-5.424,5.2717-12.1898,8.1408-19.0877,10.6359-17.4066,6.2964-35.4872,9.3563-53.7635,11.0817-12.1918,1.151-24.4549,1.5048-36.6872,2.1952-1.2931.073-2.5936.0098-4.0852.0098h0Z"/><path class="cls-2" d="m119.232,179.8378c-15.5706,0-16.3604-.1912-36.3956-1.7107-3.1415-.4689-6.1519-.8537-9.1384-1.3769-7.4743-1.3096-14.8655-2.965-21.8074-6.142-2.0368-.9321-4.029-2.0316-5.8752-3.2972-5.9392-4.0716-8.241-9.8977-6.6978-16.7684,2.1011-9.3545,6.0128-17.955,12.4296-25.2724,6.0828-6.9367,14.1043-9.5278,22.9137-10.3531,4.886-.4577,9.7854-.7727,14.6497-1.1499,5.7122,10.6346,14.3526,19.0255,22.4804,28.3968,1.2239-4.8463,2.3667-9.2537,3.4088-13.6849.1023-.435-.3014-1.1188-.6619-1.511-1.9413-2.1122-2.4054-4.6319-2.3364-7.488h13.9619c.1784,2.8691-.338,5.4179-2.3474,7.5528-.3385.3597-.8498.9193-.766,1.2594,1.1063,4.4861,2.3049,8.9493,3.5961,13.8577,8.0739-9.3351,16.6767-17.6749,22.5706-28.6063h.0003c6.8149.783,13.7385,1.4374,20.6178,2.4062,7.695,1.0837,13.6986,5.1951,18.4339,11.2134,5.5447,7.0472,9.1209,15.0879,10.9061,23.8039,1.3455,6.569-.8976,12.1263-6.4442,16.1334-4.952,3.5775-10.5894,5.6919-16.4486,7.0854-6.0994,1.4505-12.2971,2.4898-18.4569,3.6823-.6509.1261-1.3362.0741-2.208.1141,0,0-20.8146,1.8555-36.3852,1.8555Z"/><path class="cls-2" d="m148.7511,95.3131c-2.6462,3.0878-4.8915,5.9954-7.4358,8.6123-4.3424,4.4664-9.3887,7.9473-15.4935,9.5834-8.7412,2.3425-16.4831-.0968-23.4921-5.3297-8.6764-6.4778-14.3129-15.2732-18.5746-25.0454-.26-.5963-.0864-1.4299.0252-2.1309.33-2.0719.993-4.1253,1.0518-6.1995.1529-5.3935.0178-10.7944.0647-16.1918.0336-3.8662-1.1817-7.2107-3.7182-10.1392-.4417-.51-.668-1.4632-.5672-2.1489,2.9991-20.4026,22.6798-35.1545,43.2609-32.4766,17.5673,2.2858,31.5649,15.6134,33.9263,32.3937.1111.7888-.2424,1.8578-.7588,2.4827-2.272,2.749-3.4798,5.8354-3.4845,9.3974-.0072,5.466-.0478,10.9323.0028,16.3977.0112,1.2111-.3516,1.9469-1.5204,2.2917-3.3942,1.0013-6.7756,2.047-10.182,3.0041-.4582.1287-1.1247-.0055-1.5361-.2673-2.2992-1.4636-4.8211-1.7773-7.466-1.6906-1.9111.0627-3.8277-.0344-5.7383.0358-5.671.2083-10.1973,4.8194-10.3048,10.4436-.1071,5.6027,4.2586,10.4781,9.9104,10.8422,2.8572.1841,5.7529.2088,8.5991-.0483,1.6371-.1479,3.3205-.7979,4.7875-1.586,2.4075-1.2932,4.8287-2.1208,8.6434-2.2307h.0003Z"/><path class="cls-2" d="m61.5724,66.8216c0-2.5957.0132-5.1916-.0033-7.7874-.0218-3.4305,1.1068-6.2445,4.0577-8.2502.552-.3752.9716-1.2974,1.0271-2.0007C68.9231,20.041,93.4142-1.429,122.2722.0743c25.9832,1.3536,47.7186,22.6622,49.5137,48.4738.0563.8094.5506,1.8428,1.1823,2.3133,2.5579,1.9051,3.8597,4.3782,3.8772,7.5233.0312,5.6012.0963,11.2043-.0042,16.804-.1229,6.8504-6.2118,10.8109-12.6231,8.4099-.7227-.2706-1.8751-.1637-2.5204.2492-6.0524,3.8717-12.7223,5.8862-19.7765,6.7749-1.5775.1987-2.8998.4659-4.1145,1.7929-2.0053,2.1908-11.6441,1.9847-13.8119-.0513-1.6148-1.5167-1.9986-3.4278-1.3901-5.4518.5976-1.9875,2.0651-3.334,4.1434-3.4802,2.7852-.196,5.5943-.1245,8.39-.05.7063.0188,1.6448.2838,2.0569.7825,1.4929,1.8063,3.323,1.432,5.205,1.1208,5.4995-.9096,10.7405-2.5402,15.5744-5.3918,1.1534-.6805,1.3708-1.3694,1.256-2.7741-.3049-3.733-.2043-7.4999-.2394-11.2537-.0235-2.5273-.0175-5.0551.0013-7.5824.0223-2.9954,1.2662-5.3499,3.6051-7.2433.6002-.4859,1.1618-1.5445,1.0828-2.2681-2.2307-20.4047-16.0021-35.6607-35.8717-39.8516-23.8406-5.0284-48.2355,11.4797-52.4647,35.5031-.1301.7391-.2592,1.4784-.3912,2.2172-.3785,2.1204-.4825,3.9051,1.8262,5.3756,1.9284,1.2283,2.6415,3.5983,2.6511,5.9647.024,5.9429.072,11.8868-.0136,17.8286-.0669,4.6382-3.6733,8.1699-8.3701,8.4132-4.8758.2526-8.8658-2.8401-9.2834-7.5775-.2865-3.2509-.0549-6.5473-.0549-9.8234-.0451,0-.0902-.0003-.1354-.0004h-.0002Z"/><polygon class="cls-1" points="214.0835 36.7758 220.0419 48.8489 233.3653 50.7849 223.7244 60.1825 226.0003 73.452 214.0835 67.187 202.1666 73.452 204.4425 60.1825 194.8016 50.7849 208.125 48.8489 214.0835 36.7758"/><polygon class="cls-1" points="195.4251 5.1146 200.0595 14.5047 210.4221 16.0105 202.9236 23.3197 204.6938 33.6405 195.4251 28.7677 186.1565 33.6405 187.9267 23.3197 180.4282 16.0105 190.7908 14.5047 195.4251 5.1146"/><polygon class="cls-1" points="194.8016 76.5874 199.3336 85.77 209.4672 87.2425 202.1344 94.3903 203.8655 104.483 194.8016 99.7179 185.7378 104.483 187.4688 94.3903 180.136 87.2425 190.2697 85.77 194.8016 76.5874"/></svg>