<?xml version="1.0" encoding="UTF-8"?><svg id="Layer_1" xmlns="http://www.w3.org/2000/svg" viewBox="0 0 269.2985 269.2624"><defs><style>.cls-1{fill:#4c9bd5;}</style></defs><path class="cls-1" d="m132.9986,269.2624c-.6314-.1662-1.2563-.3649-1.8952-.4936-8.2076-1.6527-14.4651-8.7835-14.9061-16.9998-.4638-8.6424,4.7603-16.3273,12.8916-18.9615.4143-.1342.8326-.2558,1.3739-.4215,0-.4783,0-.9518,0-1.4253,0-4.6424-.0041-9.2848.0055-13.9272.0012-.5665.0224-1.1429.1259-1.6977.3993-2.1402,2.2425-3.535,4.4653-3.42,2.0797.1077,3.7892,1.7572,3.9743,3.8534.0384.435.0235.8752.0236,1.313.0014,4.5986.0009,9.1972.0009,13.7958,0,.4784,0,.9568,0,1.4788.4715.1523.8793.2863,1.2884.4158,8.008,2.5363,13.431,10.3397,13.032,18.4899-.4417,9.0229-7.0514,15.9908-14.9547,17.5098-.5914.1137-1.1642.3244-1.7457.49h-3.6798Zm1.9621-28.7273c-5.5693-.0945-10.0921,4.2637-10.181,9.8106-.0889,5.5478,4.3008,10.1198,9.8083,10.2156,5.501.0957,10.1252-4.361,10.2117-9.8417.0874-5.5337-4.3151-10.0907-9.839-10.1845Z"/><path class="cls-1" d="m0,132.584c.1678-.4371.4124-.8606.4918-1.3132,1.3919-7.9281,8.0691-14.52,16.6954-15.2328,9.7361-.8045,17.1218,5.5954,19.3722,12.9825.1134.3722.2404.7402.4017,1.2345.4624,0,.9356,0,1.4088,0,4.6857,0,9.3713-.0034,14.057.005.5224.0009,1.0566.0115,1.5649.1166,2.1547.4456,3.6277,2.3679,3.4603,4.4622-.1733,2.1682-1.8117,3.8211-3.9946,4.0137-.3914.0346-.7876.0197-1.1816.0198-4.5981.0011-9.1962.0008-13.7942.0008-.4782,0-.9564,0-1.5,0-.1536.4511-.3012.8499-.4257,1.2558-2.3012,7.4973-9.7829,13.7633-19.3864,12.9638-8.4106-.7002-15.2608-7.139-16.6801-15.248-.0795-.454-.3226-.8794-.4895-1.3182,0-1.3142,0-2.6284,0-3.9426Zm8.7853,1.7956c-.1531,5.4501,4.2972,10.0745,9.8359,10.2207,5.4439.1437,10.0734-4.3146,10.2236-9.8455.1478-5.4423-4.3001-10.0546-9.8487-10.2129-5.4511-.1554-10.0548,4.28-10.2109,9.8377Z"/><path class="cls-1" d="m139.0585,36.8271c0,.4499,0,.927,0,1.4041-.0001,4.7303.0111,9.4607-.013,14.1909-.0035.6892-.0672,1.415-.2899,2.0593-.6407,1.8538-2.4449,2.9097-4.4613,2.7191-1.8432-.1743-3.3504-1.5313-3.6971-3.3818-.1039-.5547-.1275-1.131-.1287-1.6975-.0098-4.6427-.0056-9.2854-.0057-13.9282,0-.4745,0-.9491,0-1.384-10.6249-2.9257-15.7468-12.8167-13.9592-21.768C118.4234,5.4277,126.9084.057,134.6101.0005c8.3433-.0612,16.4343,5.7769,18.3651,14.7208,1.9072,8.835-2.968,19.1041-13.9167,22.1058Zm-14.2809-18.2001c.0127,5.5534,4.4725,9.996,10.023,9.9842,5.5222-.0117,10.0119-4.5183,9.9996-10.0371-.0122-5.4956-4.5567-10.0203-10.0513-10.0076-5.5092.0128-9.9839,4.5275-9.9712,10.0604Z"/><path class="cls-1" d="m232.5414,130.255c2.7204-10.1625,12.3174-15.8428,21.9082-13.9264,8.6942,1.7372,14.889,9.7282,14.8487,18.3632-.039,8.3488-6.1712,16.4373-14.9654,18.1324-9.456,1.8227-19.0196-3.732-21.7894-13.9509-.4207,0-.8868,0-1.3529,0-4.6418,0-9.2837.0007-13.9255-.0012-.4376-.0002-.8793.0178-1.3122-.0319-2.1272-.2446-3.7395-1.9324-3.8476-4.0026-.1144-2.1909,1.2767-4.0131,3.4478-4.4609.5084-.1049,1.0426-.1156,1.565-.1166,4.6418-.0084,9.2836-.0049,13.9255-.0049.4788,0,.9576,0,1.4977,0Zm8.1946,4.2542c-.021,5.5435,4.4168,10.0483,9.9432,10.0933,5.4931.0447,10.0489-4.4699,10.0685-9.9773.0197-5.5409-4.416-10.0352-9.9529-10.0846-5.5062-.0491-10.0378,4.4419-10.0588,9.9686Z"/><path class="cls-1" d="m201.008,206.5498c-.387-.2799-.8242-.517-1.1628-.8534-3.4168-3.3944-6.8144-6.808-10.2243-10.2094-1.2108-1.2077-1.7279-2.6297-1.2842-4.3041.7993-3.0162,4.3736-4.1851,6.8248-2.2489.3419.2701.6445.5919.954.901,3.2835,3.2801,6.5644,6.5627,9.847,9.8437.3366.3365.6797.6665,1.0005.9806,9.4892-5.4276,19.9329-2.1231,25.0693,5.2463,5.1886,7.4442,4.2639,17.5497-2.2148,23.9306-6.463,6.3654-16.6173,7.117-23.9604,1.8063-7.0933-5.13-10.3753-15.347-4.8492-25.0926Zm5.7709,10.0201c.0028,5.5478,4.4759,10.0353,9.9992,10.0315,5.5084-.0038,10.025-4.5273,10.0237-10.039-.0012-5.513-4.5166-10.0268-10.031-10.0276-5.527-.0008-9.9947,4.4862-9.9919,10.0351Z"/><path class="cls-1" d="m62.6055,200.6763c2.337-2.3408,4.6246-4.6334,6.9137-6.9245,1.4855-1.4868,2.9695-2.975,4.461-4.4558,1.2287-1.2198,2.7098-1.5954,4.3479-1.1115,2.7639.8164,3.9059,4.1095,2.2767,6.4912-.2937.4293-.6739.8047-1.0437,1.1756-3.3081,3.3176-6.6203,6.6311-9.9395,9.9376-.3084.3073-.6732.558-1.0457.8626,2.9429,5.156,3.6207,10.4356,1.7915,15.9281-1.4071,4.2251-4.0742,7.5162-7.869,9.8502-7.6214,4.6875-17.4214,3.28-23.4869-3.3418-5.9828-6.5316-6.4721-16.4582-1.2009-23.5916,5.2213-7.0659,15.4197-10.1597,24.7949-4.82Zm-19.8265,15.946c.0241,5.5381,4.5358,10.0177,10.0503,9.9788,5.5199-.0389,9.9921-4.5669,9.9666-10.091-.0254-5.5144-4.5834-10.0257-10.0786-9.9755-5.5491.0507-9.9626,4.5304-9.9384,10.0877Z"/><path class="cls-1" d="m206.9692,68.4721c-.32.3123-.6627.6401-.998.9752-3.3756,3.3737-6.7568,6.7417-10.1203,10.1275-.9342.9404-1.9835,1.566-3.3488,1.5544-1.7376-.0147-3.0354-.7874-3.8267-2.3178-.8214-1.5888-.6301-3.1356.4174-4.5682.2563-.3505.5867-.6487.8959-.9581,3.3107-3.3147,6.6245-6.6263,9.9356-9.9406.3065-.3068.6002-.6264.9608-1.004-2.8714-5.0669-3.5634-10.3765-1.6613-15.9162,1.4488-4.2196,4.1451-7.4719,7.942-9.7915,7.5441-4.6088,17.4064-3.1563,23.3713,3.4138,5.9732,6.5793,6.4602,16.4892,1.1968,23.6-5.2672,7.1159-15.5209,10.1207-24.7646,4.8254Zm-.1892-15.8737c.0162,5.5458,4.509,10.0304,10.0247,10.0065,5.5116-.0239,10.0123-4.5549,9.998-10.0653-.0143-5.5159-4.546-10.0187-10.0573-9.9932-5.5563.0257-9.9816,4.4895-9.9654,10.052Z"/><path class="cls-1" d="m62.5789,68.491c-9.7421,5.5002-20.1703,1.9463-25.214-5.4708-5.0923-7.4886-4.0281-17.5659,2.5484-23.8912,6.4948-6.2468,16.6197-6.9068,23.8723-1.571,7.4008,5.4449,10.0457,15.8391,4.8787,24.7632.2975.3162.6103.6663.9414.9979,3.4034,3.4081,6.8025,6.8205,10.2195,10.2149,1.1289,1.1214,1.7128,2.4104,1.4553,4.0187-.5011,3.1295-4.0913,4.6455-6.6745,2.8042-.4242-.3023-.7949-.6854-1.1659-1.0556-3.2858-3.278-6.5654-6.5621-9.8491-9.8422-.3359-.3356-.6862-.6568-1.0123-.9681Zm-19.7987-15.8892c.0172,5.5423,4.5148,10.0288,10.0273,10.0025,5.516-.0263,10.0041-4.5504,9.9889-10.0687-.0153-5.5226-4.5492-10.0268-10.0557-9.9899-5.5623.0373-9.9776,4.4951-9.9604,10.0562Z"/><path class="cls-1" d="m164.4887,121.7327h-59.4443c-9.0085,0-16.3098,5.8056-16.3098,12.9624v47.2271c0,7.1568,7.3014,12.9613,16.3098,12.9613h59.4443c9.0085,0,16.3098-5.8045,16.3098-12.9613v-47.2271c0-7.1568-7.3014-12.9624-16.3098-12.9624Zm-20.7443,58.5349h-17.9515l5.7738-27.7074c-3.888-1.126-6.6974-4.2-6.6974-7.8628,0-4.6093,4.4299-8.3476,9.9016-8.3476,5.4629,0,9.8929,3.7383,9.8929,8.3476,0,3.735-2.923,6.856-6.9273,7.9231l6.008,27.6472Z"/><path class="cls-1" d="m177.0165,116.4911c0-23.3336-18.9143-42.2479-42.2501-42.2479s-42.2499,18.9143-42.2499,42.2479h13.2239c0-16.0299,12.9962-29.0239,29.0259-29.0239s29.0262,12.994,29.0262,29.0239h13.2239Z"/></svg>