<?xml version="1.0" encoding="UTF-8"?><svg id="Layer_1" xmlns="http://www.w3.org/2000/svg" xmlns:xlink="http://www.w3.org/1999/xlink" viewBox="0 0 262.809 291.4793"><defs><style>.cls-1{fill:none;}.cls-2{clip-path:url(#clippath);}.cls-3,.cls-4{fill:#4a9cd5;}.cls-4{opacity:.4;}</style><clipPath id="clippath"><path class="cls-1" d="m58.9314,187.8001c0-9.8944.0002-19.7889.0003-29.6833,0-.283-.0042-.5662.0067-.8489.1712-4.4705,3.4275-7.7392,7.9027-7.8857,1.6558-.0542,3.3148-.0132,4.9724-.0137,2.823-.0009,5.6459-.0002,8.6182-.0002,0,0,97.4831.5264,97.4831.0753,4.583,0,9.0239-.0433,13.4627.0365.8877.016,1.8131.4023,2.6413.7888,2.5005,1.1667,3.7352,3.3285,4.3995,5.8926v41.2669l28.6221-44.6173,10.6157-45.669-7.5376-64.5782-39.4093-31.1937-37.0729-6.2074L124.7181,0l-35.5971,5.1629-43.452,22.1694s-29.707,62.4872-28.3768,63.3893,10.6413,53.4444,11.5281,55.3284,30.1112,41.7502,30.1112,41.7502Z"/></clipPath></defs><path class="cls-3" d="m0,288.8318c7.2943-22.3007,14.6068-44.5955,21.8726-66.9056,2.3557-7.2333,4.5889-14.5064,7.0357-22.2604,8.2525,0,16.297-.705,24.1089.3354,3.278.4366,9.5979-.0647,9.0727,7.0208.5252,4.7139-2.9757,6.7885-9.4589,6.2699-13.5648-1.0852-15.1001,6.9343-17.7965,16.8851-4.1573,15.3429-9.1746,30.453-14.0039,46.2398h221.7896c-6.5771-19.8605-12.7065-39.1154-19.6005-58.0927-.7322-2.0157-5.8816-3.1119-9.0909-3.3935-5.5921-.4908-11.6283-.5828-11.5245-7.8442.102-7.132,6.1136-7.5152,11.7235-7.6707,18.2786-.5065,18.3125-.5604,24.0038,16.307,7.3286,21.7199,14.6113,43.4554,21.8669,65.1999,1.0105,3.0282,1.7536,6.1455,2.8105,9.8955-3.7463.2778-6.3526.639-8.959.6399-81.966.0291-163.932.0292-245.898-.0049-2.6508-.0011-5.3014-.4058-7.952-.6224,0-.6664,0-1.3327,0-1.9991Z"/><path class="cls-3" d="m128.0081,42.564c.4388,0,.8776,0,1.3163,0,.0715.0268.1415.0592.2148.0794.4959.1367,1.0094.2278,1.4851.4153.825.3252,1.5235.8651,2.1707,1.4631.6213.5741,1.2341,1.1584,1.8331,1.7557,3.7503,3.7401,7.4956,7.4853,11.243,11.2283.1144.1143.2346.2227.4324.41,0-.2798,0-.4321,0-.5844.0003-.9246-.0069-1.8492.0022-2.7737.0321-3.2886,2.6732-5.9418,5.958-5.9689,2.0369-.0168,4.0743-.0204,6.1111.0021,1.8053.0199,3.3142.7311,4.5022,2.0905,1.024,1.1718,1.48,2.557,1.4795,4.1051-.0018,6.8952.0014,13.7904-.0069,20.6855-.0004.3521.0905.6077.3474.8626,2.725,2.7044,5.4418,5.4171,8.1487,8.1395.6623.666,1.2965,1.3619,1.9153,2.0688,1.1566,1.3214,1.7044,2.8468,1.5766,4.6255-.0656.9129-.2716,1.7667-.727,2.5479-1.1346,1.9464-2.8605,2.9457-5.0961,3.0017-1.8792.0471-3.7605.0103-5.6408.0118-.1658.0001-.3315.0095-.518.0152v.6648c0,11.6905.0016,23.3809-.0055,35.0714-.0003.5141-.0279,1.0391-.1319,1.5405-.5914,2.8532-3.0251,4.8443-5.9481,4.8507-5.8604.0128-11.7208.0041-17.5813.003-.1203,0-.2407-.0166-.4031-.0286v-.6287c0-9.6376,0-19.2752,0-28.9127,0-.2037.0025-.4075-.0024-.6111-.0786-3.3212-2.723-5.9334-6.0455-5.9437-4.0114-.0124-8.0228-.0112-12.0342.0004-2.4419.0071-4.616,1.49-5.5471,3.7443-.3343.8094-.4461,1.6528-.4455,2.5258.0063,9.7316.004,19.4632.0039,29.1948v.6608h-.5952c-5.7194,0-11.4388,0-17.1582-.0002-.1567,0-.3141.0063-.4699-.0058-2.5349-.1976-4.3603-1.4234-5.4015-3.7606-.3563-.7997-.4494-1.6512-.4489-2.5243.0059-11.7375.004-23.4749.0039-35.2124,0-.1995,0-.3989,0-.6441-.222,0-.3902,0-.5584,0-1.8803-.0008-3.7609.0167-5.641-.0065-2.8495-.0352-5.2089-2.0396-5.7353-4.8312-.0339-.1797-.1182-.3498-.179-.5244,0-.4388,0-.8776,0-1.3165.0532-.1295.1344-.2546.1553-.3891.1928-1.2354.7997-2.2662,1.5983-3.191.5727-.6632,1.1678-1.3098,1.7874-1.9293,12.8028-12.8014,25.6097-25.5987,38.4195-38.3931.6423-.6415,1.3031-1.2665,1.9824-1.8686.854-.757,1.8166-1.3304,2.9504-1.5719.2276-.0485.4554-.0956.6831-.1434Z"/><g><path class="cls-3" d="m172.8983,226.4704c-.2181,1.4079-.8402,2.532-2.2789,2.9721-1.5013.4592-2.6974-.0484-3.7966-1.1569-2.0096-2.0265-4.1134-3.9594-6.3637-6.1088v5.1385h-18.1208v-4.8341c-.1649-.1104-.3299-.2207-.4948-.3311-.2583.4152-.4526.8928-.7855,1.2352-1.7051,1.7533-3.4212,3.4974-5.1817,5.1946-1.4763,1.4233-3.4295,1.3942-4.7898.0116-1.2835-1.3045-1.2938-3.3295.137-4.7163,3.9725-3.85,7.9628-7.6841,12.0469-11.4136.6846-.6251,1.8519-.841,2.8344-.9855,1.1213-.1649,2.2854-.0382,3.1526-.0382-1.1743-.695-2.7627-1.2965-3.8725-2.3867-1.1215-1.1018-2.1074-2.592-2.5299-4.0884-.4342-1.5381-.4533-3.3749-.0615-4.9313,1.09-4.3309,4.9244-6.8133,9.5073-6.495,3.9374.2735,7.4687,3.6587,7.9493,7.7585.4597,3.9217-1.4012,8.2625-6.683,10.0753.2931.0223.5944.1003.878.0581,2.7934-.4158,4.8568.779,6.8042,2.6943,3.2039,3.1512,6.5895,6.1172,9.9044,9.1547.887.8127,1.6556,1.6846,1.7447,2.9635v.2296Z"/><path class="cls-3" d="m145.6293,252.1803c-2.9325-1.7535-4.4877-4.7656-6.5862-7.2759-1.0717-1.282-2.0975-2.6317-2.923-4.0774-.3548-.6214-.477-1.7608-.14-2.328,1.5853-2.6683,3.3667-5.2197,5.1841-7.9736,1.8706,2.921,4.1538,5.0544,7.0901,6.7101-1.2879,1.1616-2.4966,2.2517-3.7211,3.3562,1.2157,2.1662,2.2914,4.0829,3.3671,5.9997.1864.3321.3824.6593.5566.9977,1.0804,2.099.7839,3.2049-1.2235,4.5912h-1.6041Z"/><path class="cls-3" d="m155.4828,252.1803c-2.0704-1.4299-2.3411-2.5229-1.1058-4.7873,1.1845-2.1714,2.4153-4.3174,3.6494-6.5167-1.1876-1.1447-2.3613-2.2761-3.679-3.5462,2.9908-1.7421,5.3352-3.8511,7.2014-6.8096,1.8207,2.7588,3.5824,5.3212,5.2001,7.9716.3144.5152.3657,1.5973.0346,2.0382-2.7155,3.6152-5.5384,7.1502-8.3649,10.6803-.3313.4137-.8824.6508-1.3316.9698h-1.6041Z"/></g><path class="cls-3" d="m190.7091,163.0202v98.508c-1.5969,5.3844-5.0953,6.7077-9.944,6.6974-35.0111-.0742-70.0225-.0374-105.0337-.0511-1.0831-.0004-2.2053-.0158-3.2421-.284-3.8875-1.0055-6.0091-4.0431-6.0093-8.436-.0018-31.493-.001-62.986-.0007-94.479,0-.283-.0042-.5662.0067-.8489.1712-4.4705,3.4275-7.7392,7.9027-7.8857,1.6558-.0542,3.3148-.0132,4.9724-.0137,2.823-.0009,5.6459-.0002,8.6182-.0002,0,.5319,0,.9654,0,1.399.0001,3.8002-.0796,7.6029.0401,11.3993.0473,1.4998.2601,3.1153.8822,4.4527,1.6688,3.5875,4.7036,5.1163,8.6237,5.1035,6.3342-.0207,9.9534-3.582,9.9556-9.8879.0013-3.7193.0003-7.4387.0003-11.158,0-.4228,0-.8457,0-1.2462h43.205c0,.4948,0,.9288,0,1.3628,0,3.8406-.0265,7.6815.0077,11.5218.0349,3.9105,1.739,6.863,5.3302,8.5106,2.4353,1.1173,5.0669,1.0111,7.6253.5211,4.384-.8396,6.5221-3.5009,6.5503-7.9686.0265-4.2043.0061-8.4089.0063-12.6133,0-.4351,0-.8703,0-1.3214,4.583,0,9.0239-.0433,13.4627.0365.8877.016,1.8131.4023,2.6413.7888,2.5005,1.1667,3.7352,3.3285,4.3995,5.8926Zm-8.0346,24.7799h-108.1551v72.398h108.1551v-72.398Z"/><path class="cls-3" d="m103.5152,160.4979c0,2.9902.0538,5.9817-.0151,8.9703-.0692,2.9989-1.8643,4.8806-4.7364,5.1379-3.6393.3259-6.0117-1.0133-6.6614-3.7999-.1266-.5428-.143-1.1203-.144-1.6819-.0099-5.7784.0168-11.5569-.0174-17.3351-.0137-2.3227.7656-4.2433,2.9992-5.0416,2.3819-.8512,4.8596-.9401,6.977.8654,1.2637,1.0776,1.6027,2.5637,1.6019,4.1568-.0016,2.9094-.0004,5.8188-.0039,8.7282Z"/><path class="cls-3" d="m166.2189,160.3061c0,2.9902.0162,5.9805-.0044,8.9706-.0219,3.1703-1.9707,5.146-5.1322,5.1718-.9997.0082-2.0449.0089-2.9918-.26-1.9185-.5447-3.0192-1.9271-3.3202-3.9063-.0786-.5167-.1024-1.046-.103-1.5695-.0071-5.5763.0147-11.1527-.0141-16.7289-.0111-2.1546.4655-4.1021,2.5138-5.1311,2.1647-1.0874,4.4864-1.0662,6.6435.0402,1.6271.8346,2.3915,2.3581,2.4007,4.2002.0152,3.0709.0042,6.142.0078,9.213Z"/><path class="cls-4" d="m93.2402,252.5225c-2.182,0-4.3643-.024-6.5457.01-1.1149.0173-1.6182-.4134-1.6079-1.5717.0339-3.7978.0282-7.5962.0029-11.3941-.0068-1.0225.4237-1.4921,1.4363-1.4908,4.4851.006,8.9702.0038,13.4553.0022,1.0081-.0004,1.4438.4854,1.4377,1.5024-.0228,3.798-.028,7.5963.0023,11.3941.0093,1.1704-.5388,1.5716-1.6351,1.5565-2.1815-.0299-4.3638-.0088-6.5457-.0087Z"/><path class="cls-4" d="m115.6981,252.5224c-2.182,0-4.3641-.0175-6.5458.0075-1.0581.0121-1.5449-.4095-1.5363-1.5114.0299-3.8383.0251-7.677.0027-11.5154-.0057-.9736.4233-1.4232,1.3709-1.4233,4.5255-.0005,9.0511-.0028,13.5766.0025.9453.0011,1.3781.4808,1.374,1.4404-.0162,3.8385-.0195,7.6771.0015,11.5155.0061,1.1096-.5396,1.5006-1.5766,1.4906-2.2222-.0214-4.4447-.0066-6.6671-.0064Z"/><path class="cls-4" d="m93.2402,211.8751c-2.182,0-4.3643-.024-6.5457.01-1.1149.0173-1.6182-.4134-1.6079-1.5717.0339-3.7978.0282-7.5962.0029-11.3941-.0068-1.0225.4237-1.4921,1.4363-1.4908,4.4851.006,8.9702.0038,13.4553.0022,1.0081-.0004,1.4438.4854,1.4377,1.5024-.0228,3.798-.028,7.5963.0023,11.3941.0093,1.1704-.5388,1.5716-1.6351,1.5565-2.1815-.0299-4.3638-.0088-6.5457-.0087Z"/><path class="cls-4" d="m115.6981,211.875c-2.182,0-4.3641-.0175-6.5458.0075-1.0581.0121-1.5449-.4095-1.5363-1.5114.0299-3.8383.0251-7.677.0027-11.5154-.0057-.9736.4233-1.4232,1.3709-1.4233,4.5255-.0005,9.0511-.0028,13.5766.0025.9453.0011,1.3781.4808,1.374,1.4404-.0162,3.8385-.0195,7.6771.0015,11.5155.0061,1.1096-.5396,1.5006-1.5766,1.4906-2.2222-.0214-4.4447-.0066-6.6671-.0064Z"/><path class="cls-4" d="m93.21,232.2517c-2.1813,0-4.3631-.0287-6.5437.0118-1.1359.021-1.5927-.4351-1.5813-1.5819.0373-3.7562.0343-7.5131.0022-11.2694-.0098-1.1464.462-1.5788,1.5966-1.5702,4.3623.0331,8.7251.0086,13.0877.0162,1.3631.0024,1.6322.2707,1.6354,1.6325.0087,3.7161.0091,7.4323-.0001,11.1485-.0034,1.3676-.2435,1.6005-1.653,1.6092-2.1812.0134-4.3626.0035-6.5439.0035Z"/><path class="cls-3" d="m116.5137,232.2517c-2.1813,0-4.3631-.0283-6.5437.0117-1.1288.0207-1.5969-.4158-1.5844-1.5732.0405-3.7562.0371-7.5132.0022-11.2695-.0106-1.1425.44-1.5875,1.5824-1.5789,4.4028.0333,8.806.0271,13.2089.0039,1.0737-.0057,1.5438.4296,1.5372,1.5148-.023,3.7968-.0256,7.594.0018,11.3908.0079,1.0978-.4778,1.5214-1.5394,1.5081-2.2214-.0278-4.4433-.0084-6.665-.0078Z"/><g class="cls-2"><path class="cls-3" d="m122.5998,5.1629c5.2616,0,10.5231,0,15.7847,0,.6672.1751,1.3252.4465,2.0029.5111,17.0491,1.6249,32.811,7.0221,46.7817,16.9338,26.2953,18.6556,40.2361,43.9428,39.8639,76.5667-.1926,16.8798-3.7898,33.1416-9.8479,48.8099-15.9541,41.2628-43.0967,74.5072-75.2894,103.9963-6.7662,6.198-16.685,5.4963-23.4177-.9009-16.0256-15.2271-30.8046-31.5737-43.8301-49.4584-15.4549-21.2205-28.3131-43.81-35.5144-69.2615-4.5303-16.0116-7.1758-32.3819-4.1645-48.8971,7.1203-39.0507,31.163-63.0404,68.3863-74.5298,6.2113-1.9172,12.8196-2.5459,19.2444-3.7701Zm85.0287,90.3471c-.2248-42.6718-34.9192-77.2388-77.3178-77.0338-42.5792.2059-77.1663,34.9903-76.9597,77.3987.2076,42.6079,34.9806,77.2554,77.3261,77.047,42.5871-.2096,77.1748-35.0042,76.9514-77.4118Z"/></g></svg>