<?xml version="1.0" encoding="UTF-8"?><svg id="Layer_1" xmlns="http://www.w3.org/2000/svg" viewBox="0 0 262.809 286.3164"><defs><style>.cls-1{fill:#4a9cd5;}</style></defs><path class="cls-1" d="m0,283.6689c7.2943-22.3007,14.6068-44.5955,21.8726-66.9056,2.3557-7.2333,4.5889-14.5064,7.0357-22.2604,8.2525,0,16.297-.705,24.1089.3354,3.278.4366,9.5979-.0647,9.0727,7.0208.5252,4.7139-2.9757,6.7885-9.4589,6.2699-13.5648-1.0852-15.1001,6.9343-17.7965,16.8851-4.1573,15.3429-9.1746,30.453-14.0039,46.2398h221.7896c-6.5771-19.8605-12.7065-39.1154-19.6005-58.0927-.7322-2.0157-5.8816-3.1119-9.0909-3.3935-5.5921-.4908-11.6283-.5828-11.5245-7.8442.102-7.132,6.1136-7.5152,11.7235-7.6707,18.2786-.5065,18.3125-.5604,24.0038,16.307,7.3286,21.7199,14.6113,43.4554,21.8669,65.1999,1.0105,3.0282,1.7536,6.1455,2.8105,9.8955-3.7463.2778-6.3526.639-8.959.6399-81.966.0291-163.932.0292-245.898-.0049-2.6508-.0011-5.3014-.4058-7.952-.6224,0-.6664,0-1.3327,0-1.9991Z"/><path class="cls-1" d="m122.5998,0c5.2616,0,10.5231,0,15.7847,0,.6672.1751,1.3252.4465,2.0029.5111,17.0491,1.6249,32.811,7.0221,46.7817,16.9338,26.2953,18.6556,40.2361,43.9428,39.8639,76.5667-.1926,16.8798-3.7898,33.1416-9.8479,48.8099-15.9541,41.2628-43.0967,74.5072-75.2894,103.9963-6.7662,6.198-16.685,5.4963-23.4177-.9009-16.0256-15.2271-30.8046-31.5737-43.8301-49.4584-15.4549-21.2205-28.3131-43.81-35.5144-69.2615-4.5303-16.0116-7.1758-32.3819-4.1645-48.8971C42.0894,39.2492,66.1321,15.2594,103.3554,3.7701,109.5667,1.8529,116.175,1.2241,122.5998,0Zm85.0287,90.3471c-.2248-42.6718-34.9192-77.2388-77.3178-77.0338-42.5792.2059-77.1663,34.9903-76.9597,77.3987.2076,42.6079,34.9806,77.2554,77.3261,77.047,42.5871-.2096,77.1748-35.0042,76.9514-77.4118Z"/><path class="cls-1" d="m128.0081,37.4011c.4388,0,.8776,0,1.3163,0,.0715.0268.1415.0592.2148.0794.4959.1367,1.0094.2278,1.4851.4153.825.3252,1.5235.8651,2.1707,1.4631.6213.5741,1.2341,1.1584,1.8331,1.7557,3.7503,3.7401,7.4956,7.4853,11.243,11.2283.1144.1143.2346.2227.4324.41,0-.2798,0-.4321,0-.5844.0003-.9246-.0069-1.8492.0022-2.7737.0321-3.2886,2.6732-5.9418,5.958-5.9689,2.0369-.0168,4.0743-.0204,6.1111.0021,1.8053.0199,3.3142.7311,4.5022,2.0905,1.024,1.1718,1.48,2.557,1.4795,4.1051-.0018,6.8952.0014,13.7904-.0069,20.6855-.0004.3521.0905.6077.3474.8626,2.725,2.7044,5.4418,5.4171,8.1487,8.1395.6623.666,1.2965,1.3619,1.9153,2.0688,1.1566,1.3214,1.7044,2.8468,1.5766,4.6255-.0656.9129-.2716,1.7667-.727,2.5479-1.1346,1.9464-2.8605,2.9457-5.0961,3.0017-1.8792.0471-3.7605.0103-5.6408.0118-.1658.0001-.3315.0095-.518.0152v.6648c0,11.6905.0016,23.3809-.0055,35.0714-.0003.5141-.0279,1.0391-.1319,1.5405-.5914,2.8532-3.0251,4.8443-5.9481,4.8507-5.8604.0128-11.7208.0041-17.5813.003-.1203,0-.2407-.0166-.4031-.0286v-.6287c0-9.6376,0-19.2752,0-28.9127,0-.2037.0025-.4075-.0024-.6111-.0786-3.3212-2.723-5.9334-6.0455-5.9437-4.0114-.0124-8.0228-.0112-12.0342.0004-2.4419.0071-4.616,1.49-5.5471,3.7443-.3343.8094-.4461,1.6528-.4455,2.5258.0063,9.7316.004,19.4632.0039,29.1948v.6608h-.5952c-5.7194,0-11.4388,0-17.1582-.0002-.1567,0-.3141.0063-.4699-.0058-2.5349-.1976-4.3603-1.4234-5.4015-3.7606-.3563-.7997-.4494-1.6512-.4489-2.5243.0059-11.7375.004-23.4749.0039-35.2124,0-.1995,0-.3989,0-.6441-.222,0-.3902,0-.5584,0-1.8803-.0008-3.7609.0167-5.641-.0065-2.8495-.0352-5.2089-2.0396-5.7353-4.8312-.0339-.1797-.1182-.3498-.179-.5244,0-.4388,0-.8776,0-1.3165.0532-.1295.1344-.2546.1553-.3891.1928-1.2354.7997-2.2662,1.5983-3.191.5727-.6632,1.1678-1.3098,1.7874-1.9293,12.8028-12.8014,25.6097-25.5987,38.4195-38.3931.6423-.6415,1.3031-1.2665,1.9824-1.8686.854-.757,1.8166-1.3304,2.9504-1.5719.2276-.0485.4554-.0956.6831-.1434Z"/></svg>