<?xml version="1.0" encoding="UTF-8"?>
<svg id="Layer_1" data-name="Layer 1" xmlns="http://www.w3.org/2000/svg" viewBox="0 0 196.9113 196.9113">
  <defs>
    <style>
      .cls-1 {
        stroke-linecap: round;
        stroke-linejoin: round;
      }

      .cls-1, .cls-2 {
        fill: none;
        stroke: #4a9cd5;
        stroke-width: 7px;
      }

      .cls-3 {
        fill: #4a9cd5;
        stroke-width: 0px;
      }
    </style>
  </defs>
  <g>
    <path class="cls-3" d="M194.9425,157.8925h-7.8768c-1.0888,0-1.9687.8804-1.9687,1.9692v17.3584c0,4.269-3.6088,7.8764-7.8768,7.8764h-17.6848c-1.0878,0-1.9687.8823-1.9687,1.9692v7.8764c0,1.0869.8809,1.9692,1.9687,1.9692h17.6848c10.8299,0,19.6911-8.8612,19.6911-19.6911v-17.3584c0-1.0888-.8809-1.9692-1.9687-1.9692h0Z"/>
    <path class="cls-3" d="M37.69,0h-17.9989C8.8612,0,0,8.861,0,19.6911v18.3235c0,1.0885.88,1.9692,1.9692,1.9692h7.8764c1.086,0,1.9692-.8807,1.9692-1.9692v-18.3235c0-4.269,3.6055-7.8764,7.8764-7.8764h17.9989c1.0878,0,1.9692-.883,1.9692-1.9692V1.9692c0-1.0869-.8814-1.9692-1.9692-1.9692h-.0001Z"/>
    <path class="cls-3" d="M177.2201,0h-17.6848c-1.0878,0-1.9687.8823-1.9687,1.9692v7.8764c0,1.0862.8809,1.9692,1.9687,1.9692h17.6848c4.2681,0,7.8768,3.6074,7.8768,7.8764v18.3235c0,1.0885.88,1.9692,1.9687,1.9692h7.8768c1.0878,0,1.9687-.8807,1.9687-1.9692v-18.3235C196.9111,8.861,188.0499.0001,177.22.0001h0Z"/>
    <path class="cls-3" d="M37.69,185.0964h-17.9989c-4.2708,0-7.8764-3.6074-7.8764-7.8764v-17.3584c0-1.0888-.8832-1.9692-1.9692-1.9692H1.9692c-1.0892,0-1.9692.8804-1.9692,1.9692v17.3584c0,10.8299,8.8612,19.6911,19.6911,19.6911h17.9989c1.0878,0,1.9692-.8823,1.9692-1.9692v-7.8764c0-1.0869-.8814-1.9692-1.9692-1.9692h0Z"/>
  </g>
  <g>
    <path class="cls-1" d="M98.4544,123.5899h.0566"/>
    <path class="cls-1" d="M98.4557,104.7392v-31.4178"/>
    <path class="cls-2" d="M125.5271,50.5997c-3.7136,0-5.571,0-7.2625-.6277-.235-.0872-.4662-.1831-.6943-.2876-1.64-.7523-2.9526-2.0653-5.5792-4.6914-6.0442-6.0442-9.0659-9.0662-12.7845-9.3449-.4995-.0375-1.0022-.0375-1.5018,0-3.7186.2787-6.741,3.3008-12.7848,9.3448-2.626,2.6261-3.939,3.9391-5.579,4.6914-.2278.1045-.4594.2004-.6943.2876-1.6917.6277-3.5486.6277-7.2623.6277h-.685c-9.475,0-14.2125,0-17.156,2.9435-2.9435,2.9435-2.9435,7.681-2.9435,17.156v.685c0,3.7137,0,5.5706-.6277,7.2623-.0872.2349-.1831.4665-.2876.6943-.7523,1.64-2.0653,2.953-4.6914,5.579-6.0441,6.0438-9.0662,9.0662-9.3448,12.7848-.0375.4995-.0375,1.0022,0,1.5018.2787,3.7186,3.3008,6.7404,9.3448,12.7845,2.6261,2.6265,3.9391,3.9392,4.6914,5.5792.1045.2281.2004.4593.2876.6943.6277,1.6915.6277,3.549.6277,7.2625v.6849c0,9.475,0,14.2128,2.9435,17.156,2.9435,2.9438,7.681,2.9438,17.156,2.9438h.685c3.7137,0,5.5706,0,7.2623.6271.2349.0873.4665.1835.6943.2878,1.64.7528,2.953,2.0654,5.579,4.6913,6.0438,6.0441,9.0662,9.0665,12.7848,9.3449.4995.0377,1.0022.0377,1.5018,0,3.7186-.2784,6.7404-3.3008,12.7845-9.3449,2.6265-2.6259,3.9392-3.9385,5.5792-4.6913.2281-.1043.4593-.2004.6943-.2878,1.6915-.6271,3.549-.6271,7.2625-.6271h.6849c9.475,0,14.2128,0,17.156-2.9438,2.9438-2.9432,2.9438-7.681,2.9438-17.156v-.6849c0-3.7136,0-5.571.6271-7.2625.0873-.235.1835-.4662.2878-.6943.7528-1.64,2.0654-2.9526,4.6913-5.5792,6.0441-6.0442,9.0665-9.0659,9.3449-12.7845.0377-.4995.0377-1.0022,0-1.5018-.2784-3.7186-3.3008-6.741-9.3449-12.7848-2.6259-2.626-3.9385-3.939-4.6913-5.579-.1043-.2278-.2004-.4594-.2878-.6943-.6271-1.6917-.6271-3.5486-.6271-7.2623v-.685c0-9.475,0-14.2125-2.9438-17.156-2.9432-2.9435-7.681-2.9435-17.156-2.9435h-.6849Z"/>
  </g>
</svg>