<?xml version="1.0" encoding="UTF-8"?><svg id="Layer_1" xmlns="http://www.w3.org/2000/svg" xmlns:xlink="http://www.w3.org/1999/xlink" viewBox="0 0 284.6048 291.3059"><defs><style>.cls-1{fill:none;}.cls-2{clip-path:url(#clippath);}.cls-3{fill:#4a9cd5;}</style><clipPath id="clippath"><path class="cls-1" d="m200.0234,193.0401c.8314-2.3851,2.8266-8.1473,6.9834-11.9715s-16.1282-.8314-16.1282-.8314c0,0-9.9762,2.6603-9.81,3.3254s-.0021,11.3064-.0021,11.3064l18.9569-1.829Z"/></clipPath></defs><path class="cls-3" d="m139.7081,221.5859V65.5882h14.6497v-11.6471h-15.8134c-5.7783,0-10.4835,4.7052-10.4835,10.4834v158.3251c0,5.7833,4.7052,10.4835,10.4835,10.4835h67.3289c-2.4131-3.5667-4.3526-7.481-5.738-11.6472h-60.4273Z"/><path class="cls-3" d="m256.8851,160.4382c4.1208,1.0277,8.0301,2.5944,11.6471,4.6297v-100.6433c0-5.7782-4.7052-10.4834-10.4834-10.4834h-15.8134v11.6471h14.6497v94.85Z"/><path class="cls-3" d="m175.3801,70.8677h45.8331c7.3198,0,13.2593-5.9395,13.2593-13.2643v-4.9924c0-2.0252-1.6574-3.6826-3.6775-3.6826h-15.2945c0-9.5011-7.7027-17.2038-17.2038-17.2038s-17.2038,7.7026-17.2038,17.2038h-15.2945c-2.0202,0-3.6776,1.6574-3.6776,3.6826v4.9924c0,7.3248,5.9395,13.2643,13.2593,13.2643Zm22.9165-28.997c3.8992,0,7.0578,3.1637,7.0578,7.0578,0,3.8992-3.1587,7.0629-7.0578,7.0629s-7.0578-3.1637-7.0578-7.0629c0-3.8941,3.1587-7.0578,7.0578-7.0578Z"/><path class="cls-3" d="m242.6628,95.302c0-2.139-2.25-3.8891-5-3.8891h-48.6334c-2.75,0-4.9318,1.7501-4.8483,3.8891s2.4017,3.8891,5.1517,3.8891h48.3301c2.75,0,5-1.7501,5-3.8891Z"/><path class="cls-3" d="m149.4185,256.2589c-12.1254,7.0395-25.8811,13.2507-41.7012,18.2567V20.3434c7.1548,3.4688,18.115,8.7053,31.1574,14.7037h30.7587c-7.0439-3.0922-13.8487-6.1447-20.2149-9.0464V0l-9.1394,4.5675c-.2259.1152-7.0705,3.5264-18.0263,8.754-7.4161,3.5397-16.7062,7.9079-27.1658,12.6792-26.3507,12.0146-59.9358,26.5057-88.6521,36.2742l-3.4999,1.1873-.6778,3.6327c-.2924,1.5594-24.5121,140.6978,92.8298,203.6018v20.6092l8.0186-2.2417c6.6984-1.8784,13.0557-3.9694,19.1472-6.2155,9.8039-3.6195,18.8459-7.6908,27.1658-12.152,14.5221-7.7838,26.8601-16.7416,37.3596-26.457h-19.4042c-5.5289,4.2175-11.4741,8.2534-17.9555,12.0191Z"/><path class="cls-3" d="m161.5077,98.5113c-1.4696-1.4715-2.9403-2.942-4.4111-4.4125-.6213-.6211-1.4593-.6312-2.0861-.0145-.6352.625-1.2666,1.2542-1.89,1.891-.6231.6366-.625,1.4541.008,2.0893,2.5027,2.5114,5.0094,5.0189,7.5214,7.521.6399.6374,1.4758.6456,2.1136.009,4.7964-4.787,9.5877-9.579,14.3751-14.3751.549-.55.594-1.3396.0687-1.916-.661-.7251-1.3574-1.4224-2.0833-2.0825-.6439-.5856-1.3809-.531-1.9887.0761-2.7799,2.7764-5.5572,5.5553-8.3351,8.3338-1.0228,1.023-2.0444,2.0471-3.1039,3.1081-.0783-.0953-.1279-.167-.1886-.2277Z"/><path class="cls-3" d="m242.6628,125.7899c0-2.139-2.25-3.8891-5-3.8891h-48.6334c-2.75,0-4.9318,1.7501-4.8483,3.8891s2.4017,3.8891,5.1517,3.8891h48.3301c2.75,0,5-1.7501,5-3.8891Z"/><path class="cls-3" d="m161.5077,128.9992c-1.4696-1.4715-2.9403-2.942-4.4111-4.4125-.6213-.6211-1.4593-.6312-2.0861-.0145-.6352.625-1.2666,1.2542-1.89,1.891-.6231.6366-.625,1.4541.008,2.0893,2.5027,2.5114,5.0094,5.0189,7.5214,7.521.6399.6374,1.4758.6456,2.1136.009,4.7964-4.787,9.5877-9.579,14.3751-14.3751.549-.55.594-1.3396.0687-1.916-.661-.7251-1.3574-1.4224-2.0833-2.0825-.6439-.5856-1.3809-.531-1.9887.0761-2.7799,2.7764-5.5572,5.5553-8.3351,8.3338-1.0228,1.023-2.0444,2.0471-3.1039,3.1081-.0783-.0953-.1279-.167-.1886-.2277Z"/><path class="cls-3" d="m242.6628,156.2779c0-2.139-2.25-3.8891-5-3.8891h-48.6334c-2.75,0-4.9318,1.7501-4.8483,3.8891s2.4017,3.8891,5.1517,3.8891h48.3301c2.75,0,5-1.7501,5-3.8891Z"/><path class="cls-3" d="m161.5077,159.4872c-1.4696-1.4715-2.9403-2.942-4.4111-4.4125-.6213-.6211-1.4593-.6312-2.0861-.0145-.6352.625-1.2666,1.2542-1.89,1.891-.6231.6366-.625,1.4541.008,2.0893,2.5027,2.5114,5.0094,5.0189,7.5214,7.521.6399.6374,1.4758.6456,2.1136.009,4.7964-4.787,9.5877-9.579,14.3751-14.3751.549-.55.594-1.3396.0687-1.916-.661-.7251-1.3574-1.4224-2.0833-2.0825-.6439-.5856-1.3809-.531-1.9887.0761-2.7799,2.7764-5.5572,5.5553-8.3351,8.3338-1.0228,1.023-2.0444,2.0471-3.1039,3.1081-.0783-.0953-.1279-.167-.1886-.2277Z"/><path class="cls-3" d="m161.5077,189.9751c-1.4696-1.4715-2.9403-2.942-4.4111-4.4125-.6213-.6211-1.4593-.6312-2.0861-.0145-.6352.625-1.2666,1.2542-1.89,1.891-.6231.6366-.625,1.4541.008,2.0893,2.5027,2.5114,5.0094,5.0189,7.5214,7.521.6399.6374,1.4758.6456,2.1136.009,4.7964-4.787,9.5877-9.579,14.3751-14.3751.549-.55.594-1.3396.0687-1.916-.661-.7251-1.3574-1.4224-2.0833-2.0825-.6439-.5856-1.3809-.531-1.9887.0761-2.7799,2.7764-5.5572,5.5553-8.3351,8.3338-1.0228,1.023-2.0444,2.0471-3.1039,3.1081-.0783-.0953-.1279-.167-.1886-.2277Z"/><path class="cls-3" d="m284.6048,206.6264c0,21.6375-17.5407,39.1782-39.1782,39.1782s-39.1782-17.5407-39.1782-39.1782,17.5407-39.1782,39.1782-39.1782,39.1782,17.5407,39.1782,39.1782Zm-46.8141,4.2123c-2.955-2.9589-5.9122-5.9156-8.8695-8.8722-1.2492-1.2489-2.9343-1.2692-4.1946-.0292-1.2773,1.2568-2.5468,2.5218-3.8002,3.8024-1.2529,1.28-1.2567,2.9238.016,4.2009,5.0323,5.0498,10.0725,10.0917,15.1234,15.1228,1.2867,1.2816,2.9674,1.2981,4.2499.0182,9.6442-9.6254,19.2783-19.2608,28.9044-28.9044,1.1039-1.106,1.1945-2.6936.138-3.8525-1.3291-1.458-2.7295-2.86-4.189-4.1873-1.2947-1.1774-2.7767-1.0676-3.9988.1529-5.5896,5.5826-11.1741,11.1702-16.7596,16.7569-2.0566,2.057-4.1108,4.1162-6.241,6.2495-.1575-.1916-.2572-.3358-.3791-.4579Z"/><g class="cls-2"><path class="cls-3" d="m242.6628,186.7658c0-2.139-2.25-3.8891-5-3.8891h-48.6334c-2.75,0-4.9318,1.7501-4.8483,3.8891s2.4017,3.8891,5.1517,3.8891h48.3301c2.75,0,5-1.7501,5-3.8891Z"/></g></svg>