<?xml version="1.0" encoding="UTF-8"?><svg id="Layer_6" xmlns="http://www.w3.org/2000/svg" viewBox="0 0 261.7741 287.4366"><defs><style>.cls-1{fill:#4a9cd5;}.cls-2{fill:#4c9bd5;}.cls-3{fill:none;stroke:#4a9cd5;stroke-miterlimit:10;stroke-width:5px;}</style></defs><path class="cls-1" d="m191.4857,221.8379c3.7478.5981,7.5753-.319,10.6454-2.5716,3.0301-2.1929,5.1432-5.5818,5.7014-9.3496l3.369-22.3871c.6778-4.5053,3.4886-8.3329,7.5554-10.3862l20.274-10.127c3.4289-1.7344,6.0005-4.7047,7.1567-8.3129,1.1961-3.6481.8173-7.5554-.8971-10.9444l-10.446-20.1943c-2.0533-3.9472-2.0533-8.7515,0-12.7385l10.446-20.1743c1.7144-3.389,2.0733-7.2963.8971-10.9444-1.1762-3.6282-3.7478-6.5786-7.1567-8.3129l-20.274-10.127c-4.0668-2.0533-6.8776-5.8809-7.5554-10.3862l-3.369-22.3871c-.5582-3.7677-2.6713-7.1368-5.7014-9.3296-3.07-2.2726-6.8976-3.1896-10.6454-2.5716l-22.427,3.7478c-4.4455.7376-8.9509-.7376-12.1405-3.9472l-15.9282-16.1873c-2.6912-2.6912-6.2995-4.2063-10.127-4.2063-3.7677,0-7.4557,1.535-10.127,4.2063l-15.9282,16.1873c-3.1697,3.2295-7.6949,4.6847-12.1405,3.9472l-22.3871-3.688c-3.7478-.618-7.5753.299-10.6653,2.5716-3.0501,2.1929-5.1433,5.5619-5.7014,9.3296l-3.3491,22.3871c-.6977,4.5053-3.4886,8.3329-7.5554,10.3862l-20.2939,10.127c-3.369,1.7344-5.9805,4.6847-7.1368,8.3129-1.1762,3.6481-.8373,7.5554.8771,10.9444l10.446,20.1743c2.0733,3.9671,2.0733,8.7715,0,12.7385l-10.446,20.1943c-1.7144,3.389-2.0533,7.2962-.8771,10.9444,1.1762,3.6083,3.7478,6.5786,7.1368,8.3129l20.2939,10.127c4.0668,2.0533,6.8577,5.8809,7.5554,10.3862l3.3491,22.3871c.5582,3.7478,2.6514,7.1368,5.7014,9.3496,3.07,2.2527,6.8975,3.1697,10.6653,2.5716l22.3871-3.688c4.4455-.7775,8.9708.7177,12.1405,3.9272l15.9282,16.1474c2.6912,2.7511,6.3394,4.2661,10.127,4.2661,3.8076,0,7.4557-1.5151,10.127-4.2661l15.9282-16.1474c3.1896-3.2095,7.7149-4.7047,12.1405-3.9272l22.427,3.6282Zm-60.6426-16.3468c-47.6449,0-86.3788-38.7339-86.3788-86.3589s38.7539-86.3988,86.3788-86.3988,86.3788,38.7937,86.3788,86.3988-38.714,86.3589-86.3788,86.3589Z"/><path class="cls-3" d="m130.863,45.1929c-40.6876,0-73.8197,33.0923-73.8197,73.7998s33.1521,73.7998,73.8197,73.7998c40.7274,0,73.8197-33.0923,73.8197-73.7998s-33.0923-73.7998-73.8197-73.7998Z"/><path class="cls-1" d="m259.5043,238.0053l-40.1692-40.1892-2.0334,13.5559c-.9569,6.2397-4.4256,12.0009-9.5489,15.6889-5.0834,3.7079-11.4427,5.2828-17.7821,4.2462l-22.4469-3.6681c-1.854-.1196-2.9703.3987-3.7877,1.236l-3.8275,3.8475,52.4692,52.4493c2.0334,2.0334,4.9639,2.7511,7.675,1.9337,2.7112-.8572,4.7047-3.1099,5.2629-5.9207l4.7246-25.4571,25.5369-4.7844c2.7909-.5183,5.0436-2.5318,5.8609-5.2629.8372-2.7311.0797-5.7015-1.9337-7.675Z"/><path class="cls-1" d="m94.92,227.5394l-23.1247,3.7677c-6.4789.9967-12.7585-.5582-17.8619-4.306-5.0835-3.6681-8.5522-9.4094-9.5091-15.6889l-2.0334-13.4961L2.2416,238.0053c-1.9935,1.9935-2.7311,4.9439-1.9138,7.6551.8572,2.7311,3.1298,4.7047,5.8809,5.2629l25.5169,4.7645,4.7844,25.497c.5183,2.8109,2.5318,5.0635,5.2429,5.9207,2.6912.8173,5.6416.0997,7.6352-1.9138l52.4493-52.4692-3.8275-3.8674c-.8373-.8572-1.9536-1.3157-3.0899-1.3157Z"/><path class="cls-2" d="m154.2368,104.4586h-46.7058c-7.078,0-12.8148,4.5615-12.8148,10.1847v37.1067c0,5.6232,5.7367,10.1838,12.8148,10.1838h46.7058c7.078,0,12.8148-4.5606,12.8148-10.1838v-37.1067c0-5.6232-5.7367-10.1847-12.8148-10.1847Zm-16.2989,45.9913h-14.1046l4.5365-21.7699c-3.0548-.8847-5.2622-3.3-5.2622-6.1778,0-3.6215,3.4806-6.5588,7.7798-6.5588,4.2923,0,7.7729,2.9372,7.7729,6.5588,0,2.9346-2.2966,5.3868-5.4428,6.2252l4.7205,21.7226Z"/><path class="cls-2" d="m164.08,100.3402c0-18.3333-14.8611-33.1945-33.1962-33.1945s-33.196,14.8611-33.196,33.1945h10.3902c0-12.5948,10.2112-22.8043,22.8059-22.8043s22.8061,10.2095,22.8061,22.8043h10.3902Z"/></svg>