<?xml version="1.0" encoding="UTF-8"?><svg id="Layer_1" xmlns="http://www.w3.org/2000/svg" xmlns:xlink="http://www.w3.org/1999/xlink" viewBox="0 0 279.6339 248.7435"><defs><style>.cls-1,.cls-2,.cls-3{fill:none;}.cls-4{clip-path:url(#clippath);}.cls-2{stroke-width:17px;}.cls-2,.cls-3{stroke:#fff;}.cls-5{fill:#fff;}.cls-6{fill:#4a9cd5;}.cls-3{stroke-width:15px;}</style><clipPath id="clippath"><rect class="cls-1" x="147.2719" y="84.0585" width="132.3621" height="152.7382"/></clipPath></defs><path class="cls-6" d="m131.5311,0c11.0103,5.0334,21.9716,10.1774,33.0407,15.0781,25.8435,11.4419,51.7091,22.8355,77.6489,34.0565,3.4041,1.4725,4.8113,3.1487,4.6596,6.966-.3186,8.0211-.0968,16.0637-.0968,24.4489H14.9089c0-7.4275.3944-14.9632-.1342-22.4336-.3724-5.2624,1.4556-7.6514,6.2645-9.729C56.2609,33.1695,91.339,17.6199,126.4542,2.1566c1.4177-.6243,2.7539-1.4335,4.1281-2.1566.3162,0,.6325,0,.9487,0Z"/><path class="cls-6" d="m262.4566,244.7237c-1.954,3.0962-4.697,4.024-8.3794,4.0198-82.0235-.0944-164.047-.075-246.0706-.0611-3.0471.0005-6.8557.3647-7.6145-3.1416-.7897-3.6493-.2444-7.7036.387-11.4686.1752-1.0447,2.6635-1.8702,4.2192-2.4535.9737-.3651,2.1874-.1008,3.2935-.1008,81.7075-.0017,163.415.0206,245.1223-.0724,3.755-.0043,6.7296.8491,9.0424,3.7928v9.4854Z"/><path class="cls-6" d="m39.5148,100.7908c-1.1175-.1325-2.2076-.1153-3.2075-.407-3.3482-.9764-4.9501-3.3043-4.6112-6.7574.3205-3.2654,2.2583-5.366,5.5344-5.3979,12.6404-.123,25.2839-.1426,37.9236.0136,3.5206.0435,5.3624,2.4557,5.5395,5.9113.2001,3.905-2.1624,5.9041-7.8373,6.6277v88.1218c.0843.0711.3101.4297.5541.4425,4.3465.2277,7.4091,1.8951,7.2705,6.7965-.1099,3.8876-2.8785,5.8087-8.1429,5.8188-10.5876.0204-21.1757-.0453-31.7627.0318-4.1792.0305-8.1685-.1239-9.0592-5.3521-.7051-4.139,1.5974-6.3489,7.7986-7.6383v-88.2114Z"/><path class="cls-6" d="m114.3209,189.3086v-88.5433c-1.1828-.1224-2.2862-.0756-3.2896-.3699-3.3148-.9724-5.0655-3.314-4.7121-6.7166.3262-3.1413,2.2231-5.4204,5.5434-5.4523,12.6387-.1213,25.2798-.1197,37.9186-.0038,3.2753.03,5.2326,2.0883,5.5685,5.3598.3537,3.4457-1.214,5.7958-4.5592,6.7941-1.0291.3071-2.1509.3036-3.3881.4625v88.3025c1.2547.1984,2.3359.2708,3.3609.5495,3.4225.9309,4.9072,3.307,4.5858,6.7404-.3086,3.2964-2.3677,5.3891-5.545,5.4312-12.6375.1676-25.2802.186-37.9169-.0052-3.4341-.0519-5.4784-2.5147-5.5885-5.9378-.1096-3.4063,1.6846-5.6633,5.1736-6.3011.8904-.1628,1.8036-.2001,2.8489-.31Z"/><path class="cls-6" d="m223.4093,188.8142c2.1558.7948,4.6851.9742,5.7589,2.317,1.2922,1.6158,2.3218,4.5882,1.6767,6.2995-.7163,1.9002-3.4117,4.2565-5.31,4.3148-12.4701.383-24.9584.2753-37.4389.1502-3.4696-.0348-5.623-2.2627-5.8726-5.6684-.2652-3.6187,1.5659-6.0053,5.3093-6.6223.7644-.126,1.5442-.1588,2.5988-.2622v-88.4611c-.5534-.0976-1.2505-.2686-1.9576-.3372-3.9812-.3861-6.1408-2.7169-5.9451-6.5566.1979-3.881,2.6615-5.8507,6.6432-5.8425,11.376.0234,22.7521-.0036,34.1282.0084,5.5797.0059,7.9678,1.6385,8.2786,5.5894.3255,4.1374-1.9528,6.2807-7.8695,7.1291v87.9421Z"/><path class="cls-6" d="m131.0774,224.5132c-35.8731-.0003-71.7462.0069-107.6192-.0066-7.0093-.0026-8.9667-2.1935-8.5593-9.2113.2321-3.9991,2.3198-6.0321,6.2368-6.2984.9442-.0642,1.8957-.0258,2.8438-.0258,71.2721-.0009,142.5441-.003,213.8162.0023,7.4444.0005,9.2774,1.805,8.9843,8.7403-.2064,4.8843-2.0195,6.7172-7.1353,6.7732-8.2167.09-16.435.0265-24.6526.0266-27.9715.0003-55.9431.0001-83.9146-.0002Z"/><g class="cls-4"><polygon class="cls-5" points="147.2719 105.1441 178.3465 117.9393 221.1443 117.8658 225.7036 119.9248 227.9832 124.6311 227.6155 138.0146 231.7335 140.2207 233.866 143.3092 233.4983 148.089 229.1597 157.2074 227.2478 175.2237 226.5124 185.151 222.9092 189.0484 205.3342 189.3425 145.6967 189.1219 147.2719 105.1441"/><g><g><path class="cls-2" d="m115.4743,182.1658c.0031-.7554-.055-1.5169.0193-2.2652.3477-3.5026.0295-6.1412-4.0143-7.9473-4.4753-1.9987-5.7594-7.7202-3.7923-12.6572,2.3162-5.8131,4.7858-11.5653,7.0848-17.385.5119-1.2958.804-2.7591.83-4.1522.1111-5.966.0667-11.9347.1133-17.9022.0566-7.2462,3.9235-11.2659,11.1162-11.4051,1.4283-.0276,1.9632-.6095,2.4262-1.7914,1.3765-3.5136,2.8435-6.9919,4.2886-10.4784,2.6643-6.4282,8.2877-8.7483,14.7816-6.0893,14.3191,5.863,28.6229,11.7636,42.9676,17.563,1.5568.6294,3.3392.9657,5.0208.9802,15.2584.1315,30.5178.1558,45.7768.2228,7.8396.0344,11.799,4.0513,11.7756,11.9156-.0106,3.5504.0144,7.1015-.0565,10.6507-.0253,1.2663.2677,2.0189,1.568,2.5878,6.5916,2.8838,8.6671,8.125,5.9634,14.783-2.2403,5.517-4.5638,11.001-6.7357,16.5446-.5352,1.3661-.8493,2.9027-.8783,4.3685-.1178,5.9658-.0767,11.9346-.1105,17.9022-.0399,7.0509-3.9689,11.1535-11,11.3054-1.4928.0323-2.1073.5991-2.5984,1.8872-1.2636,3.3145-2.6526,6.5813-4.0004,9.8634-2.9263,7.1261-8.3549,9.3422-15.5446,6.3898-14.1731-5.8202-28.3428-11.6487-42.5468-17.3924-1.4899-.6025-3.198-.9172-4.8085-.9305-15.2585-.1258-30.5178-.1465-45.7768-.2204-7.998-.0387-11.9134-4.0275-11.8859-12.0418.0049-1.4353.0111-2.8705.0168-4.3058Zm68.9585,12.3437c19.1864.0747,38.3729.1505,57.5593.2234,5.0336.0191,7.4106-2.2819,7.4203-7.2632.0174-8.9839-.0377-17.9679.0007-26.9516.0568-13.2894.1764-26.5786.2536-39.868.0308-5.3061-2.2237-7.5587-7.5596-7.5799-38.2218-.1522-76.4436-.3012-114.6654-.4463-5.1832-.0197-7.5131,2.2566-7.5228,7.3897-.0192,10.1184.0243,20.2369-.0178,30.3551-.0505,12.1507-.1724,24.3011-.2447,36.4517-.0307,5.1527,2.2678,7.4406,7.4437,7.4615,19.1109.0773,38.2218.15,57.3327.2276Zm51.7385,4.5745c-16.1955-.0631-32.039-.1248-47.9939-.1869.1818.2693.2332.4443.3386.4876,11.6512,4.7794,23.2928,9.5827,34.9703,14.2973,3.2608,1.3165,6.5581-.0055,7.9682-3.1606,1.6288-3.6446,3.0547-7.3799,4.7168-11.4374Zm-103.0187-90.7942c16.1974.0631,32.0416.1248,47.9257.1866-.0581-.2083-.0585-.3204-.0983-.3368-11.9195-4.9012-23.8172-9.8573-35.7818-14.6458-2.8736-1.1501-6.0258.4118-7.3224,3.3359-1.6188,3.6508-3.0535,7.3832-4.7232,11.4601Zm120.8922,29.8786c-.0213,5.4676-.0418,10.7415-.0624,16.0154,1.5911-2.7626,2.9447-5.529,3.9656-8.4133,1.1522-3.255-.4818-6.2805-3.9033-7.6022Zm-138.5216,31.1471c.0218-5.6107.0447-10.9323.0543-16.2539.0003-.1836-.132-.3674-.4254-1.1322-1.4361,3.9753-2.9009,7.409-3.8922,10.9743-.7641,2.7484.8948,5.0417,4.2633,6.4118Z"/><path class="cls-2" d="m242.3127,170.4571c-.0064,1.9635.1026,3.9384-.087,5.8841-.0636.6524-.7763,1.6085-1.3813,1.7876-16.4401,4.8662-32.8854,4.7694-49.3273-.0732-1.1909-.3508-1.5115-.9361-1.4886-2.0862.0693-3.4728.1186-6.9489.0447-10.4209-.1364-6.4092,5.2309-10.7753,11.2875-10.7334,3.2257.0223,6.497,1.05,9.6513,1.9586,4.4137,1.2713,8.5461.784,12.7973-.7913,6.135-2.2734,13.5672-1.6011,17.0959,4.3919.7995,1.3579,1.1707,3.0613,1.3737,4.6523.2274,1.7825.0397,3.618.0339,5.4305Z"/><path class="cls-2" d="m202.5078,140.8236c.0544-8.308,5.5699-14.8203,12.6412-15.3541,8.6501-.6531,15.9044,7.1769,14.9135,16.2304-.6714,6.1339-3.4172,10.896-9.5458,13.0673-8.1068,2.8722-16.8292-3.0585-17.8889-12.119-.0874-.7471-.0998-1.5029-.12-1.8245Z"/><g><rect class="cls-2" x="152.6002" y="104.8569" width="6.0498" height="52.0542" rx=".5" ry=".5" transform="translate(24.136 285.9983) rotate(-89.7769)"/><rect class="cls-2" x="152.6002" y="104.8569" width="6.0498" height="52.0542" rx=".5" ry=".5" transform="translate(24.136 285.9983) rotate(-89.7769)"/></g><g><rect class="cls-2" x="152.5419" y="119.8093" width="6.0498" height="52.0542" rx=".5" ry=".5" transform="translate(9.1258 300.8342) rotate(-89.7769)"/><rect class="cls-2" x="152.5419" y="119.8093" width="6.0498" height="52.0542" rx=".5" ry=".5" transform="translate(9.1258 300.8342) rotate(-89.7769)"/></g><g><rect class="cls-2" x="152.4837" y="134.7616" width="6.0498" height="52.0542" rx=".5" ry=".5" transform="translate(-5.8844 315.6701) rotate(-89.7769)"/><rect class="cls-2" x="152.4837" y="134.7616" width="6.0498" height="52.0542" rx=".5" ry=".5" transform="translate(-5.8844 315.6701) rotate(-89.7769)"/></g><g><rect class="cls-2" x="152.4255" y="149.7139" width="6.0498" height="52.0542" rx=".5" ry=".5" transform="translate(-20.8946 330.506) rotate(-89.7769)"/><rect class="cls-2" x="152.4255" y="149.7139" width="6.0498" height="52.0542" rx=".5" ry=".5" transform="translate(-20.8946 330.506) rotate(-89.7769)"/></g></g><g><path class="cls-6" d="m115.4743,182.1658c.0031-.7554-.055-1.5169.0193-2.2652.3477-3.5026.0295-6.1412-4.0143-7.9473-4.4753-1.9987-5.7594-7.7202-3.7923-12.6572,2.3162-5.8131,4.7858-11.5653,7.0848-17.385.5119-1.2958.804-2.7591.83-4.1522.1111-5.966.0667-11.9347.1133-17.9022.0566-7.2462,3.9235-11.2659,11.1162-11.4051,1.4283-.0276,1.9632-.6095,2.4262-1.7914,1.3765-3.5136,2.8435-6.9919,4.2886-10.4784,2.6643-6.4282,8.2877-8.7483,14.7816-6.0893,14.3191,5.863,28.6229,11.7636,42.9676,17.563,1.5568.6294,3.3392.9657,5.0208.9802,15.2584.1315,30.5178.1558,45.7768.2228,7.8396.0344,11.799,4.0513,11.7756,11.9156-.0106,3.5504.0144,7.1015-.0565,10.6507-.0253,1.2663.2677,2.0189,1.568,2.5878,6.5916,2.8838,8.6671,8.125,5.9634,14.783-2.2403,5.517-4.5638,11.001-6.7357,16.5446-.5352,1.3661-.8493,2.9027-.8783,4.3685-.1178,5.9658-.0767,11.9346-.1105,17.9022-.0399,7.0509-3.9689,11.1535-11,11.3054-1.4928.0323-2.1073.5991-2.5984,1.8872-1.2636,3.3145-2.6526,6.5813-4.0004,9.8634-2.9263,7.1261-8.3549,9.3422-15.5446,6.3898-14.1731-5.8202-28.3428-11.6487-42.5468-17.3924-1.4899-.6025-3.198-.9172-4.8085-.9305-15.2585-.1258-30.5178-.1465-45.7768-.2204-7.998-.0387-11.9134-4.0275-11.8859-12.0418.0049-1.4353.0111-2.8705.0168-4.3058Zm68.9585,12.3437c19.1864.0747,38.3729.1505,57.5593.2234,5.0336.0191,7.4106-2.2819,7.4203-7.2632.0174-8.9839-.0377-17.9679.0007-26.9516.0568-13.2894.1764-26.5786.2536-39.868.0308-5.3061-2.2237-7.5587-7.5596-7.5799-38.2218-.1522-76.4436-.3012-114.6654-.4463-5.1832-.0197-7.5131,2.2566-7.5228,7.3897-.0192,10.1184.0243,20.2369-.0178,30.3551-.0505,12.1507-.1724,24.3011-.2447,36.4517-.0307,5.1527,2.2678,7.4406,7.4437,7.4615,19.1109.0773,38.2218.15,57.3327.2276Zm51.7385,4.5745c-16.1955-.0631-32.039-.1248-47.9939-.1869.1818.2693.2332.4443.3386.4876,11.6512,4.7794,23.2928,9.5827,34.9703,14.2973,3.2608,1.3165,6.5581-.0055,7.9682-3.1606,1.6288-3.6446,3.0547-7.3799,4.7168-11.4374Zm-103.0187-90.7942c16.1974.0631,32.0416.1248,47.9257.1866-.0581-.2083-.0585-.3204-.0983-.3368-11.9195-4.9012-23.8172-9.8573-35.7818-14.6458-2.8736-1.1501-6.0258.4118-7.3224,3.3359-1.6188,3.6508-3.0535,7.3832-4.7232,11.4601Zm120.8922,29.8786c-.0213,5.4676-.0418,10.7415-.0624,16.0154,1.5911-2.7626,2.9447-5.529,3.9656-8.4133,1.1522-3.255-.4818-6.2805-3.9033-7.6022Zm-138.5216,31.1471c.0218-5.6107.0447-10.9323.0543-16.2539.0003-.1836-.132-.3674-.4254-1.1322-1.4361,3.9753-2.9009,7.409-3.8922,10.9743-.7641,2.7484.8948,5.0417,4.2633,6.4118Z"/><path class="cls-6" d="m242.3127,170.4571c-.0064,1.9635.1026,3.9384-.087,5.8841-.0636.6524-.7763,1.6085-1.3813,1.7876-16.4401,4.8662-32.8854,4.7694-49.3273-.0732-1.1909-.3508-1.5115-.9361-1.4886-2.0862.0693-3.4728.1186-6.9489.0447-10.4209-.1364-6.4092,5.2309-10.7753,11.2875-10.7334,3.2257.0223,6.497,1.05,9.6513,1.9586,4.4137,1.2713,8.5461.784,12.7973-.7913,6.135-2.2734,13.5672-1.6011,17.0959,4.3919.7995,1.3579,1.1707,3.0613,1.3737,4.6523.2274,1.7825.0397,3.618.0339,5.4305Z"/><path class="cls-6" d="m202.5078,140.8236c.0544-8.308,5.5699-14.8203,12.6412-15.3541,8.6501-.6531,15.9044,7.1769,14.9135,16.2304-.6714,6.1339-3.4172,10.896-9.5458,13.0673-8.1068,2.8722-16.8292-3.0585-17.8889-12.119-.0874-.7471-.0998-1.5029-.12-1.8245Z"/><rect class="cls-6" x="152.6002" y="104.8569" width="6.0498" height="52.0542" rx=".5" ry=".5" transform="translate(24.136 285.9983) rotate(-89.7769)"/><rect class="cls-6" x="152.5419" y="119.8093" width="6.0498" height="52.0542" rx=".5" ry=".5" transform="translate(9.1258 300.8342) rotate(-89.7769)"/><rect class="cls-6" x="152.4837" y="134.7616" width="6.0498" height="52.0542" rx=".5" ry=".5" transform="translate(-5.8844 315.6701) rotate(-89.7769)"/><rect class="cls-6" x="152.4255" y="149.7139" width="6.0498" height="52.0542" rx=".5" ry=".5" transform="translate(-20.8946 330.506) rotate(-89.7769)"/></g></g></g><g><g><path class="cls-3" d="m50.8556,49.2869h-5.9532l-2.4142,9.7712h-5.56l2.4142-9.7712h-4.266v-6.063h5.7841l1.6826-6.7397h-4.6593v-6.0081h6.1773l2.245-8.9847h5.3908l-2.1902,8.9847h6.0081l2.2473-8.9847h5.3908l-2.1902,8.9847h3.93l-.0549,6.0081h-5.336l-1.6278,6.7397h4.4352v6.063h-5.951l-2.3593,9.7712h-5.56l2.4165-9.7712Zm3.2007-12.8027h-6.0081l-1.6849,6.7397h6.0081l1.6849-6.7397Z"/><path class="cls-3" d="m91.1189,49.2869h-5.9532l-2.4142,9.7712h-5.56l2.4142-9.7712h-4.266v-6.063h5.7818l1.6849-6.7397h-4.6593v-6.0081h6.1773l2.245-8.9847h5.3908l-2.1902,8.9847h6.0081l2.2473-8.9847h5.3908l-2.1902,8.9847h3.93l-.0549,6.0081h-5.336l-1.6278,6.7397h4.4352v6.063h-5.951l-2.3593,9.7712h-5.56l2.4165-9.7712Zm3.2007-12.8027h-6.0104l-1.6826,6.7397h6.0081l1.6849-6.7397Z"/><path class="cls-3" d="m131.3822,49.2869h-5.9532l-2.4142,9.7712h-5.56l2.4142-9.7712h-4.266v-6.063h5.7841l1.6826-6.7397h-4.6593v-6.0081h6.1773l2.245-8.9847h5.3908l-2.1902,8.9847h6.0081l2.2473-8.9847h5.3908l-2.1902,8.9847h3.93l-.0549,6.0081h-5.336l-1.6278,6.7397h4.4352v6.063h-5.951l-2.3593,9.7712h-5.56l2.4165-9.7712Zm3.2007-12.8027h-6.0081l-1.6849,6.7397h6.0081l1.6849-6.7397Z"/><path class="cls-3" d="m171.6455,49.2869h-5.9532l-2.4142,9.7712h-5.56l2.4142-9.7712h-4.266v-6.063h5.7818l1.6849-6.7397h-4.6593v-6.0081h6.1773l2.245-8.9847h5.3908l-2.1902,8.9847h6.0081l2.2473-8.9847h5.3908l-2.1902,8.9847h3.93l-.0549,6.0081h-5.336l-1.6278,6.7397h4.4352v6.063h-5.951l-2.3593,9.7712h-5.56l2.4165-9.7712Zm3.2007-12.8027h-6.0104l-1.6826,6.7397h6.0081l1.6849-6.7397Z"/><path class="cls-3" d="m211.9087,49.2869h-5.9532l-2.4142,9.7712h-5.56l2.4142-9.7712h-4.266v-6.063h5.7841l1.6826-6.7397h-4.6593v-6.0081h6.1773l2.245-8.9847h5.3908l-2.1902,8.9847h6.0081l2.2473-8.9847h5.3908l-2.1902,8.9847h3.93l-.0549,6.0081h-5.336l-1.6278,6.7397h4.4352v6.063h-5.951l-2.3593,9.7712h-5.56l2.4165-9.7712Zm3.2007-12.8027h-6.0081l-1.6849,6.7397h6.0081l1.6849-6.7397Z"/></g><g><path class="cls-6" d="m50.8556,49.2869h-5.9532l-2.4142,9.7712h-5.56l2.4142-9.7712h-4.266v-6.063h5.7841l1.6826-6.7397h-4.6593v-6.0081h6.1773l2.245-8.9847h5.3908l-2.1902,8.9847h6.0081l2.2473-8.9847h5.3908l-2.1902,8.9847h3.93l-.0549,6.0081h-5.336l-1.6278,6.7397h4.4352v6.063h-5.951l-2.3593,9.7712h-5.56l2.4165-9.7712Zm3.2007-12.8027h-6.0081l-1.6849,6.7397h6.0081l1.6849-6.7397Z"/><path class="cls-6" d="m91.1189,49.2869h-5.9532l-2.4142,9.7712h-5.56l2.4142-9.7712h-4.266v-6.063h5.7818l1.6849-6.7397h-4.6593v-6.0081h6.1773l2.245-8.9847h5.3908l-2.1902,8.9847h6.0081l2.2473-8.9847h5.3908l-2.1902,8.9847h3.93l-.0549,6.0081h-5.336l-1.6278,6.7397h4.4352v6.063h-5.951l-2.3593,9.7712h-5.56l2.4165-9.7712Zm3.2007-12.8027h-6.0104l-1.6826,6.7397h6.0081l1.6849-6.7397Z"/><path class="cls-6" d="m131.3822,49.2869h-5.9532l-2.4142,9.7712h-5.56l2.4142-9.7712h-4.266v-6.063h5.7841l1.6826-6.7397h-4.6593v-6.0081h6.1773l2.245-8.9847h5.3908l-2.1902,8.9847h6.0081l2.2473-8.9847h5.3908l-2.1902,8.9847h3.93l-.0549,6.0081h-5.336l-1.6278,6.7397h4.4352v6.063h-5.951l-2.3593,9.7712h-5.56l2.4165-9.7712Zm3.2007-12.8027h-6.0081l-1.6849,6.7397h6.0081l1.6849-6.7397Z"/><path class="cls-6" d="m171.6455,49.2869h-5.9532l-2.4142,9.7712h-5.56l2.4142-9.7712h-4.266v-6.063h5.7818l1.6849-6.7397h-4.6593v-6.0081h6.1773l2.245-8.9847h5.3908l-2.1902,8.9847h6.0081l2.2473-8.9847h5.3908l-2.1902,8.9847h3.93l-.0549,6.0081h-5.336l-1.6278,6.7397h4.4352v6.063h-5.951l-2.3593,9.7712h-5.56l2.4165-9.7712Zm3.2007-12.8027h-6.0104l-1.6826,6.7397h6.0081l1.6849-6.7397Z"/><path class="cls-6" d="m211.9087,49.2869h-5.9532l-2.4142,9.7712h-5.56l2.4142-9.7712h-4.266v-6.063h5.7841l1.6826-6.7397h-4.6593v-6.0081h6.1773l2.245-8.9847h5.3908l-2.1902,8.9847h6.0081l2.2473-8.9847h5.3908l-2.1902,8.9847h3.93l-.0549,6.0081h-5.336l-1.6278,6.7397h4.4352v6.063h-5.951l-2.3593,9.7712h-5.56l2.4165-9.7712Zm3.2007-12.8027h-6.0081l-1.6849,6.7397h6.0081l1.6849-6.7397Z"/></g></g></svg>