<?xml version="1.0" encoding="UTF-8"?><svg id="Layer_4" xmlns="http://www.w3.org/2000/svg" xmlns:xlink="http://www.w3.org/1999/xlink" viewBox="0 0 227.3659 178.9344"><defs><style>.cls-1{fill:none;}.cls-2{clip-path:url(#clippath);}.cls-3,.cls-4{fill:#4a9cd5;}.cls-5{fill:#4f9dd6;}.cls-4{fill-rule:evenodd;}</style><clipPath id="clippath"><path class="cls-1" d="m129.1359,15.7214c7.9375,12.189,17.767,23.8323,15.9986,44.4771s-6.8516,28.0723-8.4075,30.7975.5126,7.4082.5126,7.4082c0,0,12.8583,5.3101,17.8339,11.4355s5.912,10.8083,5.912,10.8083l1.9904,20.7368-4.9584,14.3851v14.8209l68.1778-1.6502,1.1707-116.6774-3.3369-30.5418-94.8931-6Z"/></clipPath></defs><g><path class="cls-3" d="m78.501,134.8374c-7.201-.0012-14.4023-.03-21.6029.0267-1.2178.0096-1.7324-.2763-1.9373-1.5604-1.6608-10.4074-5.9896-19.6293-12.5438-27.8451-2.5888-3.2451-5.092-6.5592-7.7127-9.7779-14.1722-17.4061-18.1124-36.9287-10.2838-57.9158C32.2928,16.6607,48.0428,4.002,70.3878.6507c31.2233-4.6828,60.0359,16.3931,65.2712,47.574,3.1408,18.7064-2.3202,34.9949-14.7467,49.364-7.4072,8.5651-14.3905,17.6394-17.1673,29.0584-.5526,2.2725-1.146,4.5408-1.5531,6.8406-.2011,1.1364-.6866,1.377-1.7382,1.3714-7.3174-.0389-14.6351-.0205-21.9527-.0218Zm48.7294-75.6068c.0516-26.8469-21.6982-48.6026-48.5851-48.5981-26.7404.0045-48.4956,21.746-48.5496,48.5191-.0535,26.5413,21.7254,48.5452,48.1156,48.6126,27.2017.0694,48.967-21.4803,49.019-48.5336Z"/><path class="cls-3" d="m99.216,167.8987c1.3055-2.4677,2.8233-5.1958,4.1997-7.9934.7781-1.5816.6917-3.2326.1008-4.9491-.2146-.6235.3721-1.5229.6772-2.5902,4.3292,3.8,8.9191,5.5818,14.201,5.2834,3.971-.2243,7.5195-1.6318,10.6211-4.1361,6.1985-5.0049,8.5597-13.5269,5.7413-20.9309-1.7625-4.63-4.8875-8.0785-9.3374-10.2739-4.3858-2.1637-8.9783-2.35-13.716-1.1039.6078-3.0355,8.2776-14.691,12.5136-19.0722.3373,1.5648.5669,3.0403,1.0042,4.4516.1687.5444.7219,1.1329,1.2494,1.374,2.069.9452,4.1765,1.8187,6.3177,2.5848.5932.2122,1.481.1857,2.011-.1189,1.6709-.9602,3.2819-2.0432,4.8259-3.199,1.0274-.7691,1.6895-.5875,2.5274.2884,2.2258,2.3267,4.511,4.5987,6.828,6.8349.7633.7366.9262,1.3034.2641,2.2244-1.3314,1.8519-3.318,3.6926-3.5754,5.7229-.2407,1.8981,1.6684,3.9756,2.1503,6.084.509,2.227,1.7306,3.0358,3.8074,3.2371,1.3912.1349,2.752.5575,4.1393.7664.9677.1457,1.4348.5342,1.4209,1.5864-.0451,3.3959-.0445,6.793-.0037,10.189.0127,1.0555-.4629,1.4072-1.4334,1.5668-1.9617.3226-3.925.685-5.8415,1.2019-.5839.1575-1.2154.7812-1.4834,1.3518-.9423,2.0071-1.6369,4.1336-2.6288,6.1129-.4808.9594-.3506,1.5706.2067,2.3575,1.1159,1.5756,2.1151,3.2343,3.2397,4.8033.5796.8085.5964,1.3627-.1586,2.0915-2.4434,2.3585-4.8493,4.7578-7.2054,7.2032-.7437.7719-1.3073.6923-2.101.1402-1.8731-1.3029-3.6962-3.3163-5.7246-3.5715-1.9006-.2391-3.9816,1.6461-6.0893,2.1666-2.091.5164-2.9881,1.5781-3.1644,3.6482-.1283,1.5057-.4866,3.0117-.9314,4.4594-.1513.4925-.8694,1.1371-1.3454,1.1514-3.4514.1041-6.9089.1185-10.3598.0123-.5159-.0158-1.3112-.728-1.4562-1.26-.5217-1.9144-.7309-3.914-1.2534-5.8281-.173-.6336-.8352-1.3127-1.4488-1.6113-1.4658-.7133-3.074-1.1304-4.5531-1.8207-1.5517-.7242-2.9941-2.012-4.2354-.4349Z"/><path class="cls-3" d="m33,101.8352c4.5963,6.4806,9.5134,12.194,12.8867,19.4893-6.1465-1.656-11.5608-.9823-16.5,2.3712-3.3438,2.2703-5.6972,5.3507-7.055,9.1644-2.7177,7.6334-.1448,16.1529,6.3375,21.0447,7.1235,5.3757,15.2907,4.9999,23.9358-1.102,1.3411.6705,1.4144,1.5601.9145,2.9535-.3628,1.0111-.3696,2.4183.0536,3.3932,1.338,3.0822,2.9528,6.0443,4.4606,9.0528l.4148-.1988c-.8677-.2454-1.7651-.756-2.5951-.6634-.8708.0972-1.6622.8064-2.5156,1.1866-.9601.4277-1.9202.9504-2.9349,1.1405-1.9443.3643-2.8726,1.3779-3.013,3.3709-.1019,1.4474-.5999,2.8626-.7931,4.3093-.1508,1.1288-.5837,1.6131-1.794,1.5858-3.2766-.0739-6.5561-.0551-9.834-.0211-1.0405.0108-1.5947-.2817-1.7678-1.4162-.2997-1.9637-.6761-3.9278-1.2177-5.8357-.1758-.619-.8769-1.2561-1.4967-1.5509-1.9478-.9263-3.947-1.7618-5.9796-2.4825-.637-.2259-1.58-.2201-2.1449.0998-1.7263.9779-3.3593,2.1285-4.983,3.2765-.8062.57-1.3676.5779-2.0959-.1777-2.3152-2.4017-4.6784-4.7591-7.0806-7.074-.7797-.7513-.8669-1.3599-.2404-2.2407,1.1524-1.6204,2.287-3.2624,3.2807-4.9812.303-.5242.3334-1.4071.1208-1.9921-.7568-2.083-1.7838-4.0715-2.4795-6.1716-.3393-1.0244-.8877-1.3742-1.8126-1.5453-1.8977-.3511-3.7788-.7995-5.6836-1.1016-1.0046-.1593-1.3996-.584-1.3879-1.6056.0387-3.3949-.0398-6.7922.0698-10.1839.0167-.516.7085-1.3107,1.2322-1.4556,1.8548-.5134,3.7658-.838,5.6682-1.1591,1.0159-.1715,1.579-.5625,1.9384-1.6409.6995-2.0988,1.7208-4.0883,2.4932-6.1661.2009-.5404.1895-1.3665-.0929-1.8429-1.0728-1.8096-2.356-3.4948-3.4202-5.3089-.2488-.424-.1825-1.3941.1392-1.734,2.3733-2.5072,4.8128-4.956,7.329-7.3193.3777-.3548,1.4234-.4476,1.8864-.1829,1.7735,1.0142,3.3954,2.2924,5.1633,3.3179.5241.304,1.4166.3086,2.0116.0939,2.0839-.7522,4.1423-1.5956,6.1422-2.5475.6134-.292,1.2412-.9652,1.4546-1.6007.4423-1.3175.6112-2.7268.9848-4.5483Z"/><path class="cls-3" d="m98.3427,157.5112c-1.4754,6.2767-7.5367,11.4047-14.1386,12.0796-2.6545-4.0095-9.5069-4.0858-11.7857-.1311-6.346-.7644-12.233-5.9074-13.562-11.9485h39.4863Z"/><path class="cls-3" d="m57.4699,149.5118c-.2123-2.3256-.4129-4.523-.6235-6.8298h43.4871c-.2079,2.2876-.4072,4.481-.6206,6.8298h-42.243Z"/><path class="cls-4" d="m63.3813,70.8626c.2744-.8111.3887-1.6801.3201-2.5373-.08-.8571-.3316-1.6915-.7312-2.4456-.4-.7431-.9603-1.4176-1.6345-1.9546-.6858-.6855.1942-1.92,1.0628-1.3373.8686.686,1.5774,1.5317,2.0802,2.4802.5143.9487.8343,2.0114.9257,3.1202.0915,1.0974-.0457,2.1945-.3885,3.212-.0686.1827-.1256.354-.2056.5256,1.8058-.4914,3.7261-.6059,5.6232-.3201,1.2344.286.9714,1.7943-.2517,1.6915-2.0226-.3085-4.0571-.0797-5.92.6061-1.8634.6856-3.5549,1.8401-4.8807,3.3828-1.3485,1.5545-2.24,3.3945-2.64,5.3262-.4115,1.9429-.3316,3.9887.274,5.9433h-.0111c.3312.9714.8112,1.8857,1.4173,2.6972,1.143,1.5547,2.7429,2.7777,4.6403,3.4632,1.577.5603,3.2458.7088,4.8346.4685,1.6116-.2511,3.1544-.8914,4.4801-1.8856.2401-.1828.4804-.3773.6974-.5829.1484-.1374.2973-.2744.4228-.4001v-7.7722c-.7084.5718-1.5541.9832-2.4687,1.1887-.9258.2172-1.8743.2059-2.7658-.0115-.9028-.2054-1.7487-.6284-2.4803-1.2344-.6974-.8686.3087-1.7943,1.0975-1.3143.5257.4228,1.1311.7315,1.7829.8801.6399.1602,1.3258.1602,1.9889.0114.6627-.1484,1.2797-.4571,1.7944-.8687.4228-.3544.7768-.7772,1.0512-1.2572v-48.6325c-.0684-.5941-.2515-1.1654-.5371-1.6686-.343-.5943-.8115-1.1084-1.3942-1.4857-.5831-.3773-1.246-.6061-1.9204-.6745-.6854-.0686-1.3715.0228-2.0117.2858-1.1084.3773-1.657-1.1198-.6399-1.5884.9143-.3662,1.8858-.4918,2.8228-.4001.9376.0913,1.8519.4112,2.6749.9482.3658.2288.7084.5032,1.0056.8119v-4.4691c-.9258-.7545-1.9769-1.3028-3.0973-1.6231-1.2344-.3544-2.5487-.4341-3.8517-.2283-1.3258.217-2.5487.7317-3.6234,1.4857-1.0627.7545-1.9656,1.7487-2.6059,2.9146l-.2626.4571-.5146-.0229c-1.6683-.0571-3.3028.3087-4.7547,1.0286-1.4512.7088-2.7314,1.7829-3.7027,3.1319-.9718,1.36-1.5774,2.9146-1.7834,4.5148-.1713,1.2341-.1027,2.5028.206,3.7372.137.457.3201.9143.5257,1.3604.7658,1.6227,1.9203,2.9831,3.3374,3.9887.1713.1142.343.2397.5257.3426.5827.3543,1.6802.8575,2.309,1.0517.6513.2059,1.3373.3429,2.0341.4114,1.2687.0457.9833,1.84-.1711,1.703-1.5889-.1484-3.0974-.617-4.4578-1.3486.0461.8111-.057,1.6112-.274,2.3885-.4116,1.4403-1.246,2.7661-2.4689,3.749-.8687.5374-1.8628-.5372-1.0861-1.3258.9376-.766,1.5888-1.7831,1.9089-2.8919.2973-1.0398.2973-2.1602-.0342-3.2343-1.166-.9718-2.1488-2.149-2.8804-3.5202-1.4171,1.177-2.6058,2.5831-3.5087,4.1601-1.0627,1.8518-1.7258,3.9205-1.9317,6.0808-.2056,2.1711.0688,4.3313.7658,6.3544.5489,1.6002,1.3828,3.1091,2.4574,4.4462.1256-.2174.2744-.4343.4343-.6402.5942-.7773,1.3487-1.3828,2.2058-1.783.8571-.4001,1.8176-.6055,2.789-.5712,1.1198.1141,1.0971,1.703-.0689,1.7144-.6855-.0228-1.3714.1142-1.9885.4115-.6174.2854-1.166.7198-1.5888,1.2686-.2285.2969-.423.6286-.56.9829h0l-.1713.4914c-1.3262,3.7717-1.0745,7.7377.4339,11.1551,1.3376,3.0287,3.6577,5.6232,6.7434,7.2691.0343-.7431.126-1.4856.2746-2.2059.4685-2.2171,1.4855-4.3317,3.0173-6.1031,1.1659-1.3486,2.5716-2.4347,4.1148-3.2232.537-.6172.9371-1.3258,1.1883-2.0803h0Zm3.7718-16.7097c-1.2344,1.9888-2.9603,3.7147-5.1089,4.9832-.8573.5486-1.6574-.9602-.8687-1.4746,2.9946-1.7711,5.0519-4.5487,5.9776-7.6687.9375-3.2006.7544-10.0924-2.8342-11.6698-.6403-.2744-1.3258-.3887-2.0002-.3544-.686.0461-1.3487.2515-1.9432.6059-1.0286.5486-1.8058-.8458-.88-1.4746.8458-.5028,1.7715-.7769,2.7204-.8343.9372-.0571,1.8971.1031,2.7885.4913,4.5263,1.9889,5.0063,9.5782,3.7833,13.7154-.1942.6972-.4571,1.3717-.7545,2.0348.8344.9712,1.4975,2.0913,1.9432,3.2914.5142,1.3715.7545,2.8461.6855,4.3431-.2511,1.1318-1.6341.8572-1.7143-.08.0575-1.2572-.1372-2.5145-.5714-3.669-.3087-.8001-.7084-1.5541-1.2231-2.2399h0Z"/><path class="cls-4" d="m110.7935,59.1984c0,3.2716-2.6522,5.9238-5.9238,5.9238s-5.9238-2.6522-5.9238-5.9238,2.6522-5.9238,5.9238-5.9238,5.9238,2.6522,5.9238,5.9238Zm-5.9238-4.0552c-2.2396,0-4.0552,1.8156-4.0552,4.0552s1.8156,4.0552,4.0552,4.0552,4.0552-1.8156,4.0552-4.0552-1.8156-4.0552-4.0552-4.0552Z"/><path class="cls-4" d="m96.5925,82.4828c0,3.2716-2.6522,5.9238-5.9238,5.9238s-5.9238-2.6522-5.9238-5.9238,2.6522-5.9238,5.9238-5.9238,5.9238,2.6522,5.9238,5.9238Zm-5.9238-4.0552c-2.2396,0-4.0552,1.8156-4.0552,4.0552s1.8156,4.0552,4.0552,4.0552,4.0552-1.8156,4.0552-4.0552-1.8156-4.0552-4.0552-4.0552Z"/><path class="cls-4" d="m96.5925,35.5719c0,3.2716-2.6522,5.9238-5.9238,5.9238s-5.9238-2.6522-5.9238-5.9238,2.6522-5.9238,5.9238-5.9238,5.9238,2.6522,5.9238,5.9238Zm-5.9238-4.0552c-2.2396,0-4.0552,1.8156-4.0552,4.0552s1.8156,4.0552,4.0552,4.0552,4.0552-1.8156,4.0552-4.0552-1.8156-4.0552-4.0552-4.0552Z"/><rect class="cls-3" x="89.5559" y="41.0098" width="2.1868" height="10.2533"/><rect class="cls-3" x="80.9217" y="40.4421" width="2.1868" height="19.4552" transform="translate(132.1848 -31.8453) rotate(90)"/><rect class="cls-3" x="84.9857" y="45.4068" width="2.1868" height="27.5833" transform="translate(145.2775 -26.8807) rotate(90)"/><rect class="cls-3" x="89.5559" y="67.4322" width="2.1868" height="10.0622"/><rect class="cls-3" x="80.942" y="58.7776" width="2.146" height="19.4552" transform="translate(13.5099 150.5203) rotate(-90)"/></g><g class="cls-2"><path class="cls-5" d="m215.1309,26.9104c4.4489,0,8.0683,3.6194,8.0683,8.0683v122.4487c0,4.4489-3.6194,8.0683-8.0683,8.0683h-99.1929c-4.4489,0-8.0683-3.6194-8.0683-8.0683V34.9787c0-4.4489,3.6194-8.0683,8.0683-8.0683h99.1929Zm0,5.2207h-99.1929c-1.5727,0-2.8477,1.2749-2.8477,2.8477v122.4487c0,1.5727,1.2749,2.8477,2.8477,2.8477h99.1929c1.5728,0,2.8477-1.2749,2.8477-2.8477V34.9787c0-1.5727-1.2749-2.8477-2.8477-2.8477"/><g><path class="cls-5" d="m163.4006,88.0523h-40.7439c-.7711,0-1.3962-.6252-1.3962-1.3962v-40.7438c0-.7711.6251-1.3962,1.3962-1.3962s1.3962.6251,1.3962,1.3962v39.3476h39.3477c.771,0,1.3962.6251,1.3962,1.3962s-.6252,1.3962-1.3962,1.3962Z"/><path class="cls-5" d="m160.108,75.5993c-.0039,1.1943.0624,2.3955-.0529,3.579-.0387.3968-.4722.9784-.8401,1.0873-9.9995,2.9598-20.0022,2.9009-30.0028-.0445-.7243-.2133-.9194-.5694-.9054-1.2689.0421-2.1123.0721-4.2266.0272-6.3384-.083-3.8983,3.1816-6.554,6.8655-6.5285,1.962.0136,3.9517.6387,5.8703,1.1913,2.6846.7733,5.1981.4769,7.7838-.4813,3.7315-1.3828,8.2521-.9739,10.3984,2.6713.4863.8259.7121,1.862.8355,2.8297.1383,1.0842.0242,2.2006.0206,3.303Z"/><path class="cls-5" d="m135.8972,57.575c.0331-5.0533,3.3878-9.0142,7.6888-9.339,5.2613-.3972,9.6737,4.3652,9.071,9.8719-.4083,3.7309-2.0785,6.6274-5.8061,7.948-4.9309,1.747-10.2362-1.8603-10.8807-7.3712-.0531-.4544-.0607-.9141-.073-1.1097Z"/></g><g><path class="cls-5" d="m187.5228,131.3649l-9.7373,20.3373c-7.5754-3.6336-12.8066-11.3742-12.8066-20.3373h22.5438Z"/><path class="cls-5" d="m190.845,107.8718c12.4507,0,22.5439,10.0932,22.5439,22.5439s-10.0932,22.5438-22.5439,22.5438c-3.4875,0-6.7897-.7928-9.7372-2.2066l9.7372-20.3373v-22.5439Z"/><path class="cls-5" d="m165.9282,128.0426h22.5438v-22.5438c-12.4507,0-22.5438,10.0932-22.5438,22.5438Zm21.12-1.4238h-19.6487c.7031-10.5139,9.1349-18.9456,19.6487-19.6487v19.6487Z"/></g><g><path class="cls-5" d="m208.4864,49.2169h-32.9253c-1.8348,0-3.3222-1.4874-3.3222-3.3223h0c0-1.8348,1.4874-3.3222,3.3222-3.3222h32.9253c1.8348,0,3.3223,1.4874,3.3223,3.3222h0c0,1.8348-1.4874,3.3223-3.3223,3.3223Z"/><path class="cls-5" d="m208.4864,69.6064h-32.9253c-1.8348,0-3.3222-1.4874-3.3222-3.3223h0c0-1.8348,1.4874-3.3222,3.3222-3.3222h32.9253c1.8348,0,3.3223,1.4874,3.3223,3.3222h0c0,1.8348-1.4874,3.3223-3.3223,3.3223Z"/><rect class="cls-5" x="172.2389" y="83.3514" width="39.5698" height="6.6445" rx=".5567" ry=".5567"/></g><path class="cls-5" d="m156.7819,112.1619h-32.9253c-1.8348,0-3.3223-1.4874-3.3223-3.3223h0c0-1.8348,1.4874-3.3222,3.3223-3.3222h32.9253c1.8348,0,3.3222,1.4874,3.3222,3.3222h0c0,1.8348-1.4874,3.3223-3.3222,3.3223Z"/></g></svg>