<?xml version="1.0" encoding="UTF-8"?><svg id="Layer_1" xmlns="http://www.w3.org/2000/svg" xmlns:xlink="http://www.w3.org/1999/xlink" viewBox="0 0 291.2253 276.0091"><defs><style>.cls-1{fill:none;}.cls-2{clip-path:url(#clippath);}.cls-3{fill:#4a9cd5;}.cls-4{fill:#4f9dd6;}.cls-5{clip-path:url(#clippath-1);}</style><clipPath id="clippath"><path class="cls-1" d="m146.1256,108.9232s11.7746,10.0545,10.6973,31.4202-11.6748,29.8043-11.6748,29.8043c0,0,19.7543,10.3238,24.7815,23.8793s5.4761,25.3157,5.4761,25.3157h79.2731l6.7583-94.859s-14.6029-25.6149-15.3211-26.3331-65.1146-2.6333-65.1146-2.6333l-32.9595,5.4117-1.9164,7.9942Z"/></clipPath><clipPath id="clippath-1"><path class="cls-1" d="m180.762,127.7155l65.2343,16.9968-2.3939-37.8239-10.4135-5.2666-66.4312,1.9151-23.9392,3.1121s5.0816,27.4886,5.2235,26.8119,19.4339-7.7802,19.4339-7.7802l13.2862,2.0348Z"/></clipPath></defs><path class="cls-3" d="m291.2253,271.5486c-2.1682,3.4356-5.2119,4.4651-9.2979,4.4604-91.0143-.1048-182.0287-.0832-273.0431-.0678-3.3811.0006-7.6072.4047-8.4491-3.4859-.8762-4.0493-.2711-8.5481.4295-12.7257.1944-1.1593,2.9555-2.0752,4.6816-2.7225,1.0804-.4051,2.4272-.1118,3.6545-.1118,90.6637-.0019,181.3274.0229,271.9909-.0803,4.1666-.0047,7.4673.9421,10.0336,4.2085v10.5251Z"/><path class="cls-3" d="m145.4452,249.1228c-39.8052-.0004-79.6105.0077-119.4157-.0074-7.7776-.0029-9.9495-2.4339-9.4975-10.221.2576-4.4375,2.5741-6.6933,6.9204-6.9888,1.0477-.0712,2.1035-.0287,3.1556-.0287,79.0844-.001,158.1688-.0033,237.2533.0025,8.2604.0006,10.2944,2.0029,9.969,9.6983-.2291,5.4197-2.2409,7.4535-7.9174,7.5157-9.1173.0998-18.2365.0294-27.3549.0295-31.0376.0004-62.0751.0002-93.1127-.0002Z"/><path class="cls-3" d="m108.4087,52.4869v8.5661h8.5602v-8.5661h-8.5602Z"/><path class="cls-3" d="m145.9486,0c12.2172,5.5852,24.38,11.2929,36.6624,16.7308,28.6763,12.6961,57.377,25.3386,86.1602,37.7895,3.7772,1.6339,5.3387,3.4939,5.1704,7.7296-.3536,8.9003-.1074,17.8245-.1074,27.1288H16.5431c0-8.2417.4376-16.6034-.1489-24.8926-.4132-5.8393,1.6151-8.4901,6.9512-10.7955C62.4278,36.8053,101.3509,19.5513,140.3153,2.393c1.5731-.6927,3.0558-1.5907,4.5806-2.393.3509,0,.7018,0,1.0527,0Zm-37.1992,43.6054c-.002-2.0522.0039-4.1045-.014-6.1566-.0028-.3249-.0574-.6728-.1845-.9687-.3664-.8534-1.0944-1.1747-1.9756-1.1824-1.4254-.0124-2.8511-.0076-4.2765.0004-.2193.0012-.4452.0335-.6562.0933-.9397.2664-1.468.9985-1.4705,2.0398-.005,2.0426-.0015,4.0852-.0016,6.1278,0,.1061,0,.2121,0,.3387-.1589,0-.2688,0-.3786,0-2.0021,0-4.0043-.0015-6.0064.0005-1.3915.0014-2.2193.8332-2.2201,2.228-.0008,1.3649-.0011,2.7298.0022,4.0946.0036,1.4441.8102,2.2484,2.2548,2.2496,1.9002.0016,3.8003.0004,5.7005.0004.208,0,.4159,0,.619,0v8.5974h-.2392c-1.7996,0-3.5993-.0016-5.3989.0013-.404.0007-.8143-.025-1.2108.0344-1.0874.163-1.7183.9718-1.7244,2.1736-.007,1.3749-.0059,2.7499-.0018,4.1249.0043,1.4364.8219,2.2444,2.2641,2.2445,2.0115.0002,4.0229-.0017,6.0344-.0016.0961,0,.1921.0106.3052.0172,0,.1452,0,.2553,0,.3654.0017,2.0628-.0117,4.1257.011,6.1882.0129,1.1714.7785,1.973,1.9501,2.0062,1.5353.0435,3.0732.0471,4.6088.0126,1.225-.0275,2.0029-.893,2.0032-2.1241.0004-2.0221-.0002-4.0442.0008-6.0663,0-.1266.0106-.2533.0162-.3796h8.5863c0,.1485,0,.2769,0,.4053,0,1.9817,0,3.9633,0,5.945,0,1.4061.7957,2.2206,2.2084,2.2327,1.3852.0119,2.771.02,4.1557-.0087.3828-.008.7954-.0852,1.1374-.2494.7964-.3825,1.0743-1.0967,1.0727-1.948-.0037-2.0122-.0011-4.0245-.0011-6.0367,0-.108,0-.2159,0-.3579.1432,0,.2513,0,.3594,0,2.0115,0,4.023.0051,6.0345-.0019,1.3801-.0048,2.1892-.7961,2.2056-2.1759.0171-1.4357.0174-2.8719-.0002-4.3075-.0156-1.2704-.8692-2.0874-2.1389-2.0877-2.012-.0004-4.024-.0001-6.036-.0001-.1282,0-.2564,0-.4031,0v-8.6033h.4085c1.9811,0,3.9621,0,5.9432,0,1.3996,0,2.2225-.8119,2.229-2.214.0065-1.4055.0181-2.8114-.01-4.2164-.0073-.3624-.0918-.7534-.2515-1.0765-.3908-.7907-1.1002-1.0701-1.9525-1.0678-2.0021.0053-4.0043.0017-6.0064.0016-.1176,0-.2352,0-.3816,0,0-.1523,0-.2609,0-.3695,0-2.0021.0012-4.0043-.0004-6.0064-.0012-1.4-.8148-2.2214-2.2198-2.2285-1.3749-.0069-2.7499-.005-4.1248.0053-.2594.0019-.5268.0308-.776.0999-.886.2456-1.4425.9727-1.4468,1.897-.0091,1.9614-.0043,3.9228-.0052,5.8842-.0001.2287,0,.4574,0,.7011h-8.5975c0-.1159,0-.1956,0-.2753Zm60.4333,0c-.002-2.0522.0039-4.1045-.014-6.1566-.0028-.3249-.0574-.6728-.1845-.9687-.3664-.8534-1.0944-1.1747-1.9756-1.1824-1.4254-.0124-2.8511-.0076-4.2765.0004-.2193.0012-.4452.0335-.6562.0933-.9397.2664-1.468.9985-1.4705,2.0398-.005,2.0426-.0015,4.0852-.0016,6.1278,0,.1061,0,.2121,0,.3387-.1589,0-.2688,0-.3786,0-2.0021,0-4.0043-.0015-6.0064.0005-1.3915.0014-2.2193.8332-2.2201,2.228-.0008,1.3649-.0011,2.7298.0022,4.0946.0036,1.4441.8102,2.2484,2.2548,2.2496,1.9002.0016,3.8003.0004,5.7005.0004.208,0,.4159,0,.619,0v8.5974h-.2392c-1.7996,0-3.5993-.0016-5.3989.0013-.404.0007-.8143-.025-1.2108.0344-1.0874.163-1.7183.9718-1.7244,2.1736-.007,1.3749-.0059,2.7499-.0018,4.1249.0043,1.4364.8219,2.2444,2.2641,2.2445,2.0115.0002,4.0229-.0017,6.0344-.0016.0961,0,.1921.0106.3052.0172,0,.1452,0,.2553,0,.3654.0017,2.0628-.0117,4.1257.011,6.1882.0129,1.1714.7785,1.973,1.9501,2.0062,1.5353.0435,3.0732.0471,4.6088.0126,1.225-.0275,2.0029-.893,2.0032-2.1241.0004-2.0221-.0002-4.0442.0008-6.0663,0-.1266.0106-.2533.0162-.3796h8.5863c0,.1485,0,.2769,0,.4053,0,1.9817,0,3.9633,0,5.945,0,1.4061.7957,2.2206,2.2084,2.2327,1.3852.0119,2.771.02,4.1557-.0087.3828-.008.7954-.0852,1.1374-.2494.7964-.3825,1.0743-1.0967,1.0727-1.948-.0037-2.0122-.0011-4.0245-.0011-6.0367,0-.108,0-.2159,0-.3579.1432,0,.2513,0,.3594,0,2.0115,0,4.023.0051,6.0345-.0019,1.3801-.0048,2.1892-.7961,2.2056-2.1759.0171-1.4357.0174-2.8719-.0002-4.3075-.0156-1.2704-.8692-2.0874-2.1389-2.0877-2.012-.0004-4.024-.0001-6.036-.0001-.1282,0-.2564,0-.4031,0v-8.6033h.4085c1.9811,0,3.9621,0,5.9432,0,1.3996,0,2.2225-.8119,2.229-2.214.0065-1.4055.0181-2.8114-.01-4.2164-.0073-.3624-.0918-.7534-.2515-1.0765-.3908-.7907-1.1002-1.0701-1.9525-1.0678-2.0021.0053-4.0043.0017-6.0064.0016-.1176,0-.2352,0-.3816,0,0-.1523,0-.2609,0-.3695,0-2.0021.0012-4.0043-.0004-6.0064-.0012-1.4-.8148-2.2214-2.2198-2.2285-1.3749-.0069-2.7499-.005-4.1248.0053-.2594.0019-.5268.0308-.776.0999-.886.2456-1.4425.9727-1.4468,1.897-.0091,1.9614-.0043,3.9228-.0052,5.8842-.0001.2287,0,.4574,0,.7011h-8.5975c0-.1159,0-.1956,0-.2753Z"/><path class="cls-3" d="m168.842,52.4869v8.5661h8.5602v-8.5661h-8.5602Z"/><path class="cls-3" d="m164.5529,219.915c-.1222-1.3806-.0278-2.7807-.0241-4.1721.0105-3.8984-.6189-7.7006-1.9434-11.3566-4.0124-11.0753-11.5388-19.0125-21.9628-24.2966-2.8596-1.4496-5.8786-2.4819-9.1252-3.1005-4.5217,12.2304-9.0263,24.4144-13.5308,36.5983-.0689-.0157-.1378-.0314-.2067-.0471-1.3975-7.1489-2.7949-14.2978-4.1874-21.4212h-10.3737c-1.4041,7.1826-2.7972,14.3088-4.1903,21.4351-.0718-.0039-.1437-.0079-.2155-.0119-4.4931-12.1553-8.9862-24.3106-13.512-36.5545-.3331.0634-.5369.0935-.7364.1415-10.3904,2.4983-18.5781,8.2949-24.8645,16.8201-4.7954,6.5031-7.4132,18.7435-7.4198,26.8893l112.2926-.9239Z"/><path class="cls-3" d="m70.6331,138.701c-.007-20.838,16.9301-37.7706,37.7821-37.7719,20.9076-.0014,37.7808,16.9531,37.7102,38.0331-.0707,21.1052-17.6608,37.6999-38.2858,37.4898-20.3084-.2068-37.1996-17.1688-37.2065-37.751Z"/><path class="cls-3" d="m114.9784,179.5299v9.2884h-13.1183v-9.2884h13.1183Z"/><g class="cls-2"><path class="cls-4" d="m207.1199,140.632c13.7574,3.6483,27.515,7.2958,41.2721,10.9451,5.0721,1.3455,7.2383,5.0606,5.8983,10.1146-4.1423,15.6233-8.284,31.2467-12.4303,46.8689-1.267,4.7735-5.0919,6.9788-9.884,5.7081-27.6482-7.3312-55.2963-14.663-82.944-21.9963-4.8636-1.29-7.0796-5.0792-5.7962-9.9216,4.1586-15.6902,8.32-31.3796,12.4857-47.0679,1.2501-4.708,5.0954-6.9271,9.8259-5.6739,13.8583,3.6713,27.715,7.3482,41.5724,11.023Zm23.9441,31.8464l.0013-.0048c-1.1326-.3003-2.2648-.6022-3.398-.9006-1.1664-.3072-2.3261-.6449-3.5021-.9098-2.9113-.6558-5.4074.8384-6.2046,3.7025-.4528,1.6268-.8802,3.2609-1.2995,4.8967-.7764,3.0288.7064,5.6113,3.7466,6.4366,4.4568,1.2098,8.9207,2.3941,13.3913,3.5516,3.0284.7841,5.6075-.7305,6.4551-3.7469.4288-1.5261.8244-3.0617,1.2218-4.5964.8387-3.2388-.6092-5.7866-3.8174-6.6751-2.192-.607-4.3959-1.1706-6.5946-1.7537Zm4.6619,29.7797c.3178-1.1982.6033-2.2751.8866-3.3434-5.4901-1.4559-10.8955-2.8893-16.307-4.3243-.3082,1.1621-.594,2.24-.8866,3.3434,5.4701,1.4506,10.8561,2.8788,16.307,4.3243Zm-21.6507-9.3571c-5.5115-1.4615-10.8993-2.8903-16.3328-4.3311-.3058,1.1534-.5989,2.2586-.8838,3.3328,5.4904,1.4559,10.8975,2.8898,16.3328,4.3311.3018-1.1382.5808-2.1904.8838-3.3328Zm-45.1741-11.9668c-5.4619-1.4484-10.863-2.8807-16.3223-4.3284-.301,1.1349-.5865,2.2118-.8878,3.3479,5.4582,1.4474,10.859,2.8796,16.3223,4.3284.301-1.1352.5866-2.2122.8878-3.3479Zm5.3666,5.005c5.4659,1.4494,10.8692,2.8823,16.3332,4.3313.3014-1.1366.587-2.2137.8869-3.3445-5.468-1.45-10.8726-2.8832-16.3332-4.3313-.3015,1.1371-.5871,2.2139-.8869,3.3445Z"/><g class="cls-5"><path class="cls-3" d="m136.2645,179.7607c-5.6072.7991-10.0483-2.6536-10.4149-8.0387-.8305-12.1999-1.6151-24.4028-2.4173-36.6046-.0126-.1923-.0124-.3855-.0218-.6976,39.0947-2.5811,78.1413-5.159,117.3656-7.7487.6362,9.6119,1.2687,19.1688,1.9097,28.8537-.6156-.1221-1.1149-.2212-1.6143-.3203-27.5975-5.4757-55.1946-10.9531-82.7926-16.4262-8.0247-1.5914-14.393,2.6537-15.9966,10.6779-1.9236,9.6254-3.825,19.2553-5.736,28.8833-.0922.4644-.1843.9288-.282,1.4212Z"/><path class="cls-3" d="m239.8681,116.6842c-33.9714,2.2427-67.8552,4.4795-102.0146,6.7346-.0143-2.4421-.3017-4.8327.0229-7.1371.4745-3.3687,3.4297-5.6452,7.0412-5.8857,10.3818-.6911,20.7644-1.3704,31.1466-2.0562,18.2556-1.2058,36.5112-2.4116,54.7667-3.6204,5.1544-.3413,8.4322,2.5159,8.765,7.6554.0908,1.4019.1772,2.8041.2722,4.3094Z"/></g></g></svg>