<?xml version="1.0" encoding="UTF-8"?><svg id="Layer_1" xmlns="http://www.w3.org/2000/svg" viewBox="0 0 254.4155 291.6628"><defs><style>.cls-1{fill:#fff;}.cls-2,.cls-3{fill:#4a9cd5;}.cls-4{fill:none;stroke:#4a9cd5;stroke-miterlimit:10;stroke-width:4px;}.cls-5{opacity:.2;}.cls-3{opacity:.3;}</style></defs><path class="cls-2" d="m207.3344,147.4951c-1.669,7.9761-4.6386,15.4998-8.6251,22.5812-3.878,6.8887-7.9839,13.6498-12.0313,20.4422-2.4191,4.0598-4.888,8.0908-7.4003,12.0934-.7107,1.1322-1.6535,2.1188-2.6234,3.3405.3041,2.8652,1.0325,5.8633,1.7561,8.856,3.2451,13.4213,6.5812,26.8208,9.7625,40.2571,1.6111,6.8046,2.9912,13.6647,4.4133,20.5126.3847,1.8523.6922,3.737.7206,5.816-.8164.3075-1.5478.635-2.3092.8618-7.1479,2.1288-14.4086,3.784-21.7461,5.1045-8.145,1.4658-16.3573,2.4259-24.5942,3.1826-2.3531.2162-4.712.407-7.0724.4993-9.3545.3657-18.7064.9152-28.0756.4286-3.0865-.1603-6.1785-.2137-9.2676-.326-1.352-.0491-2.6979-.1581-4.2993-.5379.4167-.5001.6198-.892.9415-1.1044,1.44-.9509,2.8787-1.9132,4.382-2.7572,4.6754-2.6252,9.3812-5.1959,14.0717-7.7941.8671-.4803,1.7177-.9904,2.4972-1.4413,1.185-11.53-2.2515-35.6932-5.8503-45.1995-1.6397.2203-3.3359.408-5.0184.681-7.2735,1.1801-14.5924,1.9605-21.9433,2.4025-3.719.2236-7.4417.2176-11.1593-.3031-3.7263-.522-6.6288-2.4198-9.0244-5.151-1.6466-1.8772-2.2792-4.1367-1.5779-6.611.5192-1.8317,1.0779-3.6602,1.7625-5.4347.5294-1.3722.4583-2.6397-.0506-3.9687-.3704-.9671-.9091-1.6955-1.8293-2.2628-2.182-1.3453-2.62-3.0166-1.4346-5.3187,1.3817-2.6835,3.6389-4.4919,6.2312-5.9199.7055-.3887,1.4413-.7224,2.4264-1.212-.914-.3499-1.5585-.6054-2.2092-.8442-2.5686-.9425-5.0501-2.0538-7.2664-3.6909-1.4015-1.0353-2.6597-2.209-3.5504-3.7248-1.0129-1.7239-.956-2.3722.2803-3.9281.0565-.0711.1172-.1391.1795-.2053,2.1678-2.3037,2.0431-4.2194-.5232-6.5236-.941-.8448-2.0448-1.5066-3.0604-2.2703-1.1604-.8726-2.3977-1.6695-3.4389-2.6688-2.7877-2.6755-3.2807-5.5306-1.3785-8.8654.9802-1.7184,2.2806-3.2772,3.5787-4.7856,1.7777-2.0656,3.744-3.9686,5.5289-6.0283,1.4263-1.6458,2.7745-3.3709,4.0295-5.151,2.1547-3.056,3.2237-6.4496,3.099-10.2439-.1567-4.7687-.8181-9.4233-2.8001-13.7952-.6446-1.4218-.6738-2.8237-.4067-4.255.3327-1.7834.4039-2.3472.9081-4.0895,1.2356-4.2695-.2156-1.9188,1.8553-5.8273l142.1422,35.18Z"/><path class="cls-3" d="m199.0318,4.4435c3.2148-.9877,6.4419-1.9568,9.8051-2.323,1.3528-.1473,2.7103-.3153,4.0681-.3402,4.3468-.0797,8.207,1.2533,11.5883,4.029,4.0051,3.2877,6.9396,7.4014,9.4225,11.8865,2.2932,4.1423,4.0907,8.5143,5.982,12.8432,2.0735,4.7459,4.1888,9.474,6.2104,14.2419,1.667,3.9314,3.3624,7.8598,4.8024,11.8765,3.7694,10.5142,4.4732,21.2775,2.2326,32.2253-2.2778,11.1291-6.0547,21.7058-11.8018,31.5288-3.7498,6.4092-8.3737,12.1033-14.2773,16.6807-6.0622,4.7003-12.8435,7.8255-20.3752,9.3507"/><circle class="cls-2" cx="233.3498" cy="108.5735" r="9.5689"/><circle class="cls-2" cx="246.1083" cy="44.7808" r="6.3793"/><circle class="cls-2" cx="182.3157" cy="19.2638" r="6.3793"/><circle class="cls-2" cx="12.7585" cy="102.0682" r="12.7585"/><g class="cls-5"><rect class="cls-2" x="103.4466" y="25.1042" width="15.951" height="37.304" transform="translate(30.7121 132.1608) rotate(-69.0454)"/></g><line class="cls-4" x1="171.576" y1="66.7934" x2="94.0042" y2="37.0868"/><line class="cls-4" x1="26.2137" y1="81.8858" x2="43.2591" y2="56.3177"/><line class="cls-4" x1="233.3498" y1="39.6774" x2="195.0742" y2="24.3672"/><line class="cls-4" x1="169.2224" y1="87.1646" x2="31.896" y2="100.2453"/><path class="cls-2" d="m89.1942,23.1318c-.0577-.6022-.5598-1.0644-1.1645-1.0644h-2.5699c-2.056,0-3.9325-1.2369-4.6782-3.1533-.0622-.1604-.1273-.3199-.1942-.4781-.7894-1.8701-.3282-4.0346,1.1071-5.4699l1.8895-1.8899c.4255-.4252.4536-1.1011.0759-1.5696-1.0842-1.3432-2.3016-2.5737-3.6327-3.6725-.4673-.3863-1.1505-.3611-1.5789.0679l-1.8277,1.8277c-1.4526,1.4522-3.6493,1.9039-5.5311,1.0813-.1853-.0813-.3722-.1592-.5607-.2348-1.8879-.7512-3.0908-2.6219-3.0908-4.654V1.2972c-.0003-.6032-.4599-1.1027-1.0602-1.1639-.85-.0871-1.7122-.1333-2.5849-.1333-.8733,0-1.7355.0462-2.5855.1333-.6003.0612-1.0602.5607-1.0602,1.1639v2.6251c0,2.0321-1.2025,3.9028-3.0908,4.6543-.1885.0753-.3754.1531-.5607.2341-1.8816.8229-4.0786.3713-5.5308-1.081l-1.8277-1.8277c-.4287-.429-1.1116-.4542-1.5792-.0679-1.331,1.0988-2.5485,2.3294-3.6324,3.6725-.378.4682-.3496,1.1444.0759,1.5696l1.8899,1.8899c1.435,1.4353,1.8959,3.5998,1.1065,5.4699-.067.1582-.1314.3177-.1942.4781-.7451,1.9163-2.6219,3.1533-4.6782,3.1533h-2.5692c-.6051,0-1.1074.4622-1.1649,1.0644-.0753.7853-.1158,1.5805-.1158,2.3852,0,.9409.0517,1.8701.1512,2.7845.0651.5981.5614,1.0564,1.1629,1.0564h2.6905c2.0235,0,3.8776,1.1964,4.6441,3.0691.0498.1218.1008.243.1534.3636.8226,1.8915.3875,4.0942-1.0708,5.5525l-1.8296,1.8296c-.4287.4284-.4539,1.1116-.0676,1.5789,1.0985,1.331,2.3294,2.5485,3.6725,3.6327.4682.3777,1.1444.3496,1.5699-.0759l1.8873-1.8873c1.4404-1.4404,3.6056-1.8739,5.4897-1.0988l.1837.0753c1.9572.8051,3.2343,2.7118,3.2343,4.8278v2.5115c0,.6035.4599,1.1027,1.0602,1.1639.85.0871,1.7122.1333,2.5852.1333s1.7352-.0462,2.5852-.1333c.6003-.0612,1.0602-.5604,1.0599-1.1639l.0003-2.6276c0-2.0458,1.235-3.8894,3.1271-4.6674l.1722-.0711c1.9562-.8044,4.2039-.3544,5.6992,1.1412l1.7964,1.7964c.4258.4255,1.102.4536,1.5696.0759,1.3435-1.0842,2.5744-2.3016,3.6732-3.6327.3859-.4673.3607-1.1505-.0679-1.5792l-1.8296-1.8293c-1.4583-1.4583-1.8934-3.6611-1.0704-5.5525.0523-.1206.1037-.2418.1534-.3636.7665-1.8726,2.6206-3.0694,4.6435-3.0691h2.6908c.6019,0,1.0982-.4583,1.1633-1.0564.0995-.9145.1509-1.8436.1509-2.7842,0-.8054-.0405-1.6002-.1155-2.3855Zm-25.4016,11.9544c-5.2849,0-9.5689-4.2843-9.5686-9.5692-.0003-5.2849,4.2837-9.5689,9.5686-9.5689s9.5692,4.284,9.5692,9.5692-4.2843,9.5689-9.5692,9.5689Z"/><path class="cls-2" d="m83.1461,102.0522c-1.2745,1.5061-2.4977,3.0578-3.6878,4.6371l109.2367-10.6091-.3995-4.2403-105.1493,10.2124Z"/><g><circle class="cls-2" cx="171.576" cy="80.329" r="45.9275"/><path class="cls-1" d="m209.679,76.0105c-.0847-.884-.8217-1.5624-1.7094-1.5624h-3.7722c-3.018,0-5.7724-1.8157-6.867-4.6286-.0913-.2355-.1868-.4696-.2851-.7018-1.1588-2.745-.4818-5.9222,1.6251-8.0291l2.7736-2.7741c.6246-.6241.6658-1.6162.1114-2.304-1.5914-1.9716-3.3785-3.7779-5.3323-5.3908-.6859-.567-1.6888-.53-2.3176.0997l-2.6828,2.6828c-2.1322,2.1317-5.3566,2.7947-8.119,1.5872-.272-.1194-.5464-.2336-.8231-.3446-2.7712-1.1026-4.5368-3.8486-4.5368-6.8314v-3.8532c-.0005-.8854-.6751-1.6185-1.5563-1.7084-1.2477-.1278-2.5133-.1957-3.7942-.1957-1.2819,0-2.5474.0679-3.7952.1957-.8811.0899-1.5563.8231-1.5563,1.7084v3.8532c0,2.9829-1.7651,5.7288-4.5368,6.8319-.2767.1105-.5511.2247-.8231.3437-2.7619,1.2079-5.9868.545-8.1185-1.5867l-2.6828-2.6828c-.6293-.6297-1.6317-.6667-2.318-.0997-1.9538,1.6129-3.7409,3.4192-5.3318,5.3908-.5548.6873-.5131,1.6799.1114,2.304l2.7741,2.7741c2.1064,2.1069,2.7829,5.284,1.6242,8.0291-.0983.2322-.1929.4663-.2851.7018-1.0937,2.8129-3.8486,4.6286-6.867,4.6286h-3.7713c-.8882,0-1.6256.6784-1.7098,1.5624-.1105,1.1527-.17,2.3199-.17,3.5012,0,1.3812.0758,2.745.2219,4.0873.0955.8779.824,1.5507,1.707,1.5507h3.9492c2.9702,0,5.6918,1.7562,6.8169,4.505.073.1789.1479.3568.2252.5337,1.2075,2.7764.5689,6.0097-1.5717,8.1503l-2.6856,2.6856c-.6293.6288-.6662,1.6317-.0993,2.3176,1.6125,1.9538,3.4192,3.7409,5.3908,5.3323.6873.5543,1.6799.5131,2.3045-.1114l2.7703-2.7703c2.1144-2.1144,5.2925-2.7506,8.0581-1.6129l.2697.1105c2.8728,1.1817,4.7475,3.9806,4.7475,7.0866v3.6866c0,.8858.6751,1.6185,1.5563,1.7084,1.2477.1278,2.5133.1957,3.7947.1957s2.547-.0679,3.7947-.1957c.8811-.0899,1.5563-.8226,1.5558-1.7084l.0005-3.857c0-3.003,1.8128-5.7092,4.5902-6.8511l.2528-.1044c2.8714-1.1808,6.1708-.5202,8.3657,1.6752l2.6369,2.6369c.625.6246,1.6176.6658,2.304.1114,1.972-1.5914,3.7788-3.3785,5.3917-5.3323.5665-.6859.5295-1.6888-.0997-2.318l-2.6856-2.6851c-2.1406-2.1406-2.7792-5.3739-1.5713-8.1503.0768-.177.1522-.3549.2252-.5337,1.1251-2.7488,3.8467-4.5054,6.816-4.505h3.9497c.8835,0,1.612-.6728,1.7075-1.5507.1461-1.3423.2215-2.7062.2215-4.0869,0-1.1822-.0595-2.3489-.1695-3.5016Zm-37.2861,17.5475c-7.7575,0-14.0458-6.2888-14.0454-14.0463-.0005-7.7575,6.2879-14.0458,14.0454-14.0458s14.0463,6.2883,14.0463,14.0463-6.2888,14.0458-14.0463,14.0458Z"/></g><line class="cls-4" x1="245.8615" y1="57.3663" x2="237.5032" y2="93.705"/></svg>