<?xml version="1.0" encoding="UTF-8"?><svg id="Layer_1" xmlns="http://www.w3.org/2000/svg" viewBox="0 0 285.9577 285.9577"><defs><style>.cls-1{fill:#4a9cd5;}.cls-2{opacity:.2;}</style></defs><g class="cls-2"><circle class="cls-1" cx="142.9789" cy="142.9789" r="142.9789"/></g><path class="cls-1" d="m164.4654,162.6668c13.117-.0016,26.2385-.203,39.3493.0824,6.8779.1498,11.7407-4.6119,11.389-11.4939-.3008-5.8873-.0631-11.8021-.0618-17.7048.0014-6.0571-4.2473-10.2652-10.3493-10.2634-13.4432.0039-26.8864.0021-40.3296-.0013-.5769-.0002-1.1538-.0393-2.0373-.0714.0945-.7172.2282-1.2609.2287-1.8046.0118-13.4449.0066-26.8899.0111-40.3348.002-5.9834-4.2359-10.2625-10.1843-10.2636-6.0666-.0011-12.1332-.0017-18.1999.0005-7.0783.0025-10.9919,3.8846-10.9941,10.9183-.0041,13.2263,0,26.4527-.0028,39.679-.0001.5856-.0331,1.1713-.0652,2.2371-.6936-.1322-1.2852-.3427-1.8772-.3435-13.3356-.0186-26.6713-.0251-40.0069-.0092-6.4913.0077-10.506,4.0524-10.5207,10.5639-.0141,6.2305-.0103,12.4612-.0036,18.6917.0063,5.835,4.3253,10.1197,10.179,10.1191,13.4996-.0014,26.9992-.0019,40.4988.0014.5758.0001,1.1517.0415,2.0276.0753-.089.8293-.2197,1.482-.2203,2.135-.0125,13.3903-.013,26.7806-.0093,40.1709.0016,5.7421,4.319,10.083,10.0418,10.0915,6.1759.0092,12.3519.004,18.5278-.0014,6.8374-.0059,10.8021-3.9536,10.8053-10.7754.0064-13.2263.0046-26.4527-.0069-39.679-.0005-.5985-.1287-1.1968-.218-1.974.9509-.0222,1.4898-.0456,2.0287-.0457Z"/></svg>