<?xml version="1.0" encoding="UTF-8"?><svg id="Layer_4" xmlns="http://www.w3.org/2000/svg" xmlns:xlink="http://www.w3.org/1999/xlink" viewBox="0 0 235.7891 210.9158"><defs><style>.cls-1,.cls-2,.cls-3,.cls-4,.cls-5{fill:none;}.cls-6{clip-path:url(#clippath);}.cls-7{fill:#fff;}.cls-8{fill:#4a9cd5;}.cls-2{stroke:#fff;stroke-width:15px;}.cls-3{stroke:#fbfbfb;}.cls-3,.cls-4{stroke-width:2px;}.cls-9{clip-path:url(#clippath-1);}.cls-10{clip-path:url(#clippath-4);}.cls-11{clip-path:url(#clippath-3);}.cls-12{clip-path:url(#clippath-2);}.cls-4,.cls-5{stroke:#4a9cd5;stroke-miterlimit:10;}.cls-5{stroke-width:4px;}</style><clipPath id="clippath"><circle class="cls-1" cx="34.4676" cy="175.3347" r="34.4676"/></clipPath><clipPath id="clippath-1"><circle class="cls-1" cx="117.7983" cy="175.3347" r="34.4676"/></clipPath><clipPath id="clippath-2"><circle class="cls-1" cx="201.1289" cy="175.3347" r="34.4676"/></clipPath><clipPath id="clippath-3"><path class="cls-1" d="m73.8795,69.7229c-3.6952-7.1002-5.7838-15.1702-5.7838-23.728,0-8.3478,1.9873-16.2315,5.5147-23.2037l-18.5166-11.3935-31.317,1.7561L7.6793,34.5757l2.3415,38.4029,21.9512,11.8823,24.2926-1.8145,17.6149-13.3237Z"/></clipPath><clipPath id="clippath-4"><path class="cls-1" d="m163.4029,72.9787c4.8397-7.8458,7.632-17.0887,7.632-26.9838,0-10.1323-2.9278-19.5808-7.9836-27.5456l15.5544-7.0516h30.1463l18.0089,22.062-1.9674,28.6103-12.2856,20.9765-25.7071,1.8145-14.3414-4.6829-9.0565-7.1994Z"/></clipPath></defs><g class="cls-6"><g><g><path class="cls-3" d="m62.6787,198.7292c-.0069,2.122.1109,4.2563-.094,6.3592-.0687.705-.839,1.7384-1.4928,1.9319-17.7674,5.2591-35.5405,5.1545-53.31-.0791-1.287-.3791-1.6335-1.0117-1.6087-2.2546.0749-3.7532.1281-7.5099.0483-11.2623-.1474-6.9267,5.6532-11.6453,12.1988-11.6,3.4861.0241,7.0215,1.1348,10.4305,2.1168,4.77,1.374,9.2361.8473,13.8305-.8552,6.6303-2.457,14.6626-1.7304,18.4762,4.7465.8641,1.4675,1.2652,3.3085,1.4846,5.0279.2457,1.9265.0429,3.9101.0367,5.8689Z"/><path class="cls-3" d="m19.66,166.7031c.0588-8.9788,6.0196-16.0168,13.6618-16.5938,9.3485-.7058,17.1885,7.7563,16.1176,17.5408-.7256,6.6292-3.6931,11.7757-10.3165,14.1223-8.7613,3.1041-18.188-3.3054-19.3332-13.0975-.0944-.8074-.1079-1.6242-.1297-1.9718Z"/></g><g><path class="cls-8" d="m62.6787,198.7292c-.0069,2.122.1109,4.2563-.094,6.3592-.0687.705-.839,1.7384-1.4928,1.9319-17.7674,5.2591-35.5405,5.1545-53.31-.0791-1.287-.3791-1.6335-1.0117-1.6087-2.2546.0749-3.7532.1281-7.5099.0483-11.2623-.1474-6.9267,5.6532-11.6453,12.1988-11.6,3.4861.0241,7.0215,1.1348,10.4305,2.1168,4.77,1.374,9.2361.8473,13.8305-.8552,6.6303-2.457,14.6626-1.7304,18.4762,4.7465.8641,1.4675,1.2652,3.3085,1.4846,5.0279.2457,1.9265.0429,3.9101.0367,5.8689Z"/><path class="cls-8" d="m19.66,166.7031c.0588-8.9788,6.0196-16.0168,13.6618-16.5938,9.3485-.7058,17.1885,7.7563,16.1176,17.5408-.7256,6.6292-3.6931,11.7757-10.3165,14.1223-8.7613,3.1041-18.188-3.3054-19.3332-13.0975-.0944-.8074-.1079-1.6242-.1297-1.9718Z"/></g></g></g><path class="cls-8" d="m69.1278,175.4798c0,19.0359-15.4317,34.4676-34.4676,34.4676S.1926,194.5157.1926,175.4798s15.4317-34.4676,34.4676-34.4676,34.4676,15.4317,34.4676,34.4676Zm-34.4676-31.8767c-17.605,0-31.8767,14.2717-31.8767,31.8767s14.2717,31.8767,31.8767,31.8767,31.8767-14.2717,31.8767-31.8767-14.2717-31.8767-31.8767-31.8767Z"/><g class="cls-9"><g><g><path class="cls-3" d="m146.0093,198.7292c-.0069,2.122.1109,4.2563-.094,6.3592-.0687.705-.839,1.7384-1.4928,1.9319-17.7674,5.2591-35.5405,5.1545-53.31-.0791-1.287-.3791-1.6335-1.0117-1.6087-2.2546.0749-3.7532.1281-7.5099.0483-11.2623-.1474-6.9267,5.6532-11.6453,12.1988-11.6,3.4861.0241,7.0215,1.1348,10.4305,2.1168,4.77,1.374,9.2361.8473,13.8305-.8552,6.6303-2.457,14.6626-1.7304,18.4762,4.7465.8641,1.4675,1.2652,3.3085,1.4846,5.0279.2457,1.9265.0429,3.9101.0367,5.8689Z"/><path class="cls-3" d="m102.9907,166.7031c.0588-8.9788,6.0196-16.0168,13.6618-16.5938,9.3485-.7058,17.1885,7.7563,16.1176,17.5408-.7256,6.6292-3.6931,11.7757-10.3165,14.1223-8.7613,3.1041-18.188-3.3054-19.3332-13.0975-.0944-.8074-.1079-1.6242-.1297-1.9718Z"/></g><g><path class="cls-8" d="m146.0093,198.7292c-.0069,2.122.1109,4.2563-.094,6.3592-.0687.705-.839,1.7384-1.4928,1.9319-17.7674,5.2591-35.5405,5.1545-53.31-.0791-1.287-.3791-1.6335-1.0117-1.6087-2.2546.0749-3.7532.1281-7.5099.0483-11.2623-.1474-6.9267,5.6532-11.6453,12.1988-11.6,3.4861.0241,7.0215,1.1348,10.4305,2.1168,4.77,1.374,9.2361.8473,13.8305-.8552,6.6303-2.457,14.6626-1.7304,18.4762,4.7465.8641,1.4675,1.2652,3.3085,1.4846,5.0279.2457,1.9265.0429,3.9101.0367,5.8689Z"/><path class="cls-8" d="m102.9907,166.7031c.0588-8.9788,6.0196-16.0168,13.6618-16.5938,9.3485-.7058,17.1885,7.7563,16.1176,17.5408-.7256,6.6292-3.6931,11.7757-10.3165,14.1223-8.7613,3.1041-18.188-3.3054-19.3332-13.0975-.0944-.8074-.1079-1.6242-.1297-1.9718Z"/></g></g></g><path class="cls-8" d="m152.4584,175.4798c0,19.0359-15.4317,34.4676-34.4676,34.4676s-34.4676-15.4317-34.4676-34.4676,15.4317-34.4676,34.4676-34.4676,34.4676,15.4317,34.4676,34.4676Zm-34.4676-31.8767c-17.605,0-31.8767,14.2717-31.8767,31.8767s14.2717,31.8767,31.8767,31.8767,31.8767-14.2717,31.8767-31.8767-14.2717-31.8767-31.8767-31.8767Z"/><g class="cls-12"><g><g><path class="cls-3" d="m229.34,198.7292c-.0069,2.122.1109,4.2563-.094,6.3592-.0687.705-.839,1.7384-1.4928,1.9319-17.7674,5.2591-35.5405,5.1545-53.31-.0791-1.287-.3791-1.6335-1.0117-1.6087-2.2546.0749-3.7532.1281-7.5099.0483-11.2623-.1474-6.9267,5.6532-11.6453,12.1988-11.6,3.4861.0241,7.0215,1.1348,10.4305,2.1168,4.77,1.374,9.2361.8473,13.8305-.8552,6.6303-2.457,14.6626-1.7304,18.4762,4.7465.8641,1.4675,1.2652,3.3085,1.4846,5.0279.2457,1.9265.0429,3.9101.0367,5.8689Z"/><path class="cls-3" d="m186.3213,166.7031c.0588-8.9788,6.0196-16.0168,13.6618-16.5938,9.3485-.7058,17.1885,7.7563,16.1176,17.5408-.7256,6.6292-3.6931,11.7757-10.3165,14.1223-8.7613,3.1041-18.188-3.3054-19.3332-13.0975-.0944-.8074-.1079-1.6242-.1297-1.9718Z"/></g><g><path class="cls-8" d="m229.34,198.7292c-.0069,2.122.1109,4.2563-.094,6.3592-.0687.705-.839,1.7384-1.4928,1.9319-17.7674,5.2591-35.5405,5.1545-53.31-.0791-1.287-.3791-1.6335-1.0117-1.6087-2.2546.0749-3.7532.1281-7.5099.0483-11.2623-.1474-6.9267,5.6532-11.6453,12.1988-11.6,3.4861.0241,7.0215,1.1348,10.4305,2.1168,4.77,1.374,9.2361.8473,13.8305-.8552,6.6303-2.457,14.6626-1.7304,18.4762,4.7465.8641,1.4675,1.2652,3.3085,1.4846,5.0279.2457,1.9265.0429,3.9101.0367,5.8689Z"/><path class="cls-8" d="m186.3213,166.7031c.0588-8.9788,6.0196-16.0168,13.6618-16.5938,9.3485-.7058,17.1885,7.7563,16.1176,17.5408-.7256,6.6292-3.6931,11.7757-10.3165,14.1223-8.7613,3.1041-18.188-3.3054-19.3332-13.0975-.0944-.8074-.1079-1.6242-.1297-1.9718Z"/></g></g></g><path class="cls-8" d="m235.7891,175.4798c0,19.0359-15.4317,34.4676-34.4676,34.4676s-34.4676-15.4317-34.4676-34.4676,15.4317-34.4676,34.4676-34.4676,34.4676,15.4317,34.4676,34.4676Zm-34.4676-31.8767c-17.605,0-31.8767,14.2717-31.8767,31.8767s14.2717,31.8767,31.8767,31.8767,31.8767-14.2717,31.8767-31.8767-14.2717-31.8767-31.8767-31.8767Z"/><g><circle class="cls-2" cx="119.6108" cy="45.9949" r="45.9949"/><circle class="cls-8" cx="119.6108" cy="45.9949" r="45.9949"/></g><path class="cls-5" d="m99.5313,83.0465v12.0218c0,2.75-2.25,5-5,5h-54.8712c-2.75,0-5,2.25-5,5v35.9438"/><path class="cls-5" d="m138.4871,83.0465v8.5109c0,4.681,4.5,8.5109,10,8.5109h41.8145c5.5,0,10,4.5,10,10v30.9438"/><line class="cls-5" x1="117.9827" y1="91.9898" x2="117.9827" y2="141.493"/><path class="cls-4" d="m45.238,78.9179v35.5843c0,2.75,2.25,5,5,5h134.1694c2.75,0,5,2.25,5,5v19.1008"/><path class="cls-4" d="m175.6913,68.0072v37.5454c0,2.75-2.25,5-5,5h-99.1544c-2.75,0-5,2.25-5,5v31.191c0,2.75-2.0228,5-4.4951,5h-4.4951"/><path class="cls-4" d="m201.3215,77.3976v12.5922c0,1.1.9,2,2,2h7.1865c1.1,0,2,.9,2,2v49.6133"/><path class="cls-7" d="m111.556,52.8475c-3.2814-3.2856-6.5651-6.5689-9.849-9.8521-1.3871-1.3868-3.2584-1.4093-4.6578-.0324-1.4183,1.3956-2.828,2.8003-4.2199,4.2223-1.3912,1.4214-1.3955,3.2467.0178,4.6648,5.588,5.6075,11.1848,11.2062,16.7936,16.7929,1.4288,1.4232,3.2951,1.4414,4.7192.0202,10.7093-10.6884,21.4074-21.3879,32.0965-32.0964,1.2259-1.2281,1.3264-2.9911.1533-4.278-1.4758-1.619-3.0309-3.1758-4.6516-4.6497-1.4377-1.3075-3.0833-1.1855-4.4404.1698-6.2069,6.1991-12.4081,12.4038-18.6105,18.6075-2.2837,2.2841-4.5648,4.5708-6.9303,6.9396-.1749-.2128-.2856-.3729-.421-.5085Z"/><g class="cls-11"><circle class="cls-8" cx="45.238" cy="47.0612" r="31.8567"/><g><path class="cls-7" d="m44.7792,59.7072c-4.3723,0-8.7447.0189-13.1169-.0056-4.0248-.0225-5.7753-3.1042-3.7266-6.5575,4.334-7.3055,8.6792-14.6044,13.0376-21.8954,1.9921-3.3326,5.5373-3.3334,7.5391-.0016,4.3748,7.2813,8.738,14.5696,13.086,21.8669,2.0518,3.4435.2956,6.5652-3.7023,6.5876-4.3722.0246-8.7446.0056-13.1169.0056Z"/><path class="cls-8" d="m42.5405,38.842c.243,2.8495.4587,5.3333.6646,7.8179.0757.9131.4807,1.7414,1.4238,1.6265.5799-.0707,1.4788-.7807,1.5429-1.2907.3765-2.993.603-6.0087.7637-9.023.0613-1.1492-.7077-1.858-1.8556-2.0102-1.1335-.1502-2.0108.3288-2.3966,1.3983-.2023.5607-.1228,1.223-.1429,1.4811Z"/><path class="cls-8" d="m47.1763,52.6948c.038-1.2654-1.0453-2.4161-2.3305-2.4754-1.2813-.0591-2.4344.9877-2.5102,2.2787-.0797,1.3591,1.009,2.513,2.384,2.5269,1.3048.0132,2.4179-1.0427,2.4566-2.3302Z"/></g></g><g class="cls-10"><circle class="cls-8" cx="191.5879" cy="47.0612" r="31.8567"/><path class="cls-7" d="m192.4069,52.7404c-.0997.1255-.1678.2308-.2544.3176-1.9145,1.9178-3.8303,3.8342-5.7474,5.7494-.9888.9878-2.135.9854-3.1264-.0043-.8955-.8939-1.791-1.7879-2.6843-2.6839-.8278-.8303-.8244-2.0846.0072-2.9167,1.9393-1.9404,3.8793-3.8802,5.821-5.8183.0947-.0945.2082-.1701.3412-.2774-.122-.1318-.1994-.2212-.2828-.3046-1.9552-1.9562-3.911-3.9118-5.8669-5.8673-.8481-.8479-.8531-2.0944-.0087-2.9406.9017-.9036,1.8037-1.8068,2.7084-2.7074.9455-.9412,2.113-.9455,3.0546-.0063,1.9343,1.9296,3.8653,3.8626,5.7945,5.7972.0856.0859.1409.2021.2222.3217.1591-.1498.2487-.2298.3335-.3146,1.9165-1.9157,3.832-3.8324,5.7487-5.748,1.0193-1.0187,2.1487-1.0141,3.1745.011.8792.8786,1.758,1.7575,2.6367,2.6366.8616.8619.8556,2.0958-.0115,2.9623-1.9484,1.9471-3.8955,3.8957-5.845,5.8418-.0788.0787-.177.1381-.2946.2283.1233.1327.2013.2219.2848.3055,1.9471,1.948,3.8943,3.8958,5.8424,5.8428.8843.8837.8901,2.1089.0124,2.9862-.8553.8549-1.7466,1.6774-2.556,2.5739-.9461,1.0479-2.3404,1.0333-3.3151.0152-1.858-1.9407-3.7881-3.8125-5.6886-5.7125-.0781-.0781-.1595-.1527-.3005-.2873Z"/></g></svg>