<?xml version="1.0" encoding="UTF-8"?><svg id="Layer_4" xmlns="http://www.w3.org/2000/svg" xmlns:xlink="http://www.w3.org/1999/xlink" viewBox="0 0 231.6174 212.4077"><defs><style>.cls-1{fill:none;}.cls-2{clip-path:url(#clippath);}.cls-3{fill:#4a9cd5;}</style><clipPath id="clippath"><path class="cls-1" d="m55.6105,74.13c6.6819.762,9.4253.3048,13.2354,6.4011s3.2006,8.5348,3.2006,10.2113-.1524,4.5722-2.7433,9.1445-12.1926,21.4041-12.1926,21.4041l-3.5054,11.3635s29.4147,39.4736,30.3291,39.1688,47.2464,11.2782,47.2464,11.2782l38.7116-11.2782,20.1178-24.0804,13.7167-41.5391-10.3637-38.9322-24.6901-21.9467-30.7864-11.8878-34.4441,1.5241-28.9575,14.936-18.8745,24.2328Z"/></clipPath></defs><path class="cls-3" d="m44.6908,80.1332c.4417.0429.8941.1226,1.347.125,2.4187.0129,4.8375-.0023,7.2561.0119.7654.0045,1.5307.0661,2.2957.1079,4.3561.2378,9.8536,4.311,9.2108,11.3537-.1462,1.6014-.7657,3.0692-1.5927,4.4622-2.2278,3.7525-4.413,7.5303-6.6168,11.2971-4.9733,8.5005-9.9548,16.9962-14.9155,25.504-1.0033,1.7207-2.286,3.1479-4.0263,4.126-5.1825,2.9129-11.3985,1.0662-14.2215-3.6836-1.7476-2.9404-3.4623-5.9003-5.1892-8.853-5.4784-9.3672-10.9408-18.7438-16.4449-28.0959-1.2008-2.0403-1.9095-4.1632-1.778-6.5487.2727-4.9468,4.1481-9.0392,9.0799-9.5388.8783-.089,1.765-.1252,2.6482-.13,2.8906-.0157,5.7813-.0022,8.672-.0083.6416-.0014,1.2831-.0373,1.9321-.0575.1414-.2928.279-.488.334-.7043,3.0076-11.8382,7.9818-22.7933,14.8419-32.8865,8.7548-12.8808,19.8342-23.3121,33.1747-31.3509,10.5049-6.3302,21.7643-10.7145,33.7771-13.1587,4.0458-.8232,8.1278-1.3848,12.2476-1.7465,4.6556-.4088,9.3105-.4371,13.9636-.238,7.6839.3289,15.2418,1.558,22.6616,3.5862,11.7092,3.2007,22.5746,8.2291,32.5493,15.1571,8.3889,5.8266,15.7807,12.7238,22.1778,20.6914,7.4146,9.235,13.15,19.4144,17.1892,30.5427,2.8278,7.7908,4.7068,15.8052,5.6655,24.0475.6632,5.7027.8214,11.4144.5823,17.1349-.3015,7.2104-1.4036,14.3157-3.2024,21.3056-2.4093,9.3624-5.9978,18.2537-10.8385,26.6237-7.4879,12.9469-17.2873,23.8265-29.3612,32.655-9.754,7.1321-20.4258,12.4341-31.9747,15.9601-4.7391,1.4469-9.5647,2.5264-14.4677,3.2963-5.198.8162-10.4221,1.2331-15.6727,1.2831-3.6542.0348-7.3022-.1744-10.9466-.5369-3.9967-.3975-7.9538-1.0038-11.874-1.8477-13.2355-2.8494-25.4944-8.023-36.7549-15.5465-5.7555-3.8455-11.0842-8.2091-15.9822-13.1071-2.3102-2.3102-3.4174-5.0424-3.2589-8.289.2945-6.0354,5.4699-9.8,9.9508-9.89,3.3337-.0669,6.0799,1.043,8.4253,3.3874,7.08,7.0771,15.1993,12.6761,24.2806,16.876,6.3431,2.9336,12.9568,5.0326,19.821,6.3508,6.9283,1.3306,13.9185,1.8083,20.9523,1.3692,14.5278-.9069,27.992-5.2013,40.2889-13.0109,14.5438-9.2366,25.3269-21.7507,32.3377-37.4949,3.4545-7.7579,5.6853-15.871,6.685-24.2971.4093-3.45.6975-6.9392.6826-10.4091-.0248-5.7844-.6138-11.5343-1.8249-17.2107-3.2765-15.3574-10.2038-28.8322-20.8466-40.3699-9.2882-10.0693-20.421-17.4013-33.2778-22.1143-5.9446-2.1791-12.0642-3.6773-18.3395-4.4923-5.272-.6846-10.5644-.8893-15.8838-.5742-9.0842.5382-17.8562,2.4524-26.301,5.8213-13.8776,5.5362-25.5427,14.104-34.9416,25.7276-6.1402,7.5935-10.7775,16.0324-14.0164,25.2397-.2289.6507-.6067,1.2878-.48,2.1477Z"/><g class="cls-2"><path class="cls-3" d="m195.5949,106.809c0,38.6556-31.3366,69.9922-69.9922,69.9922s-69.9922-31.3366-69.9922-69.9922,31.3366-69.9922,69.9922-69.9922,69.9922,31.3366,69.9922,69.9922Zm-38.1497,16.1901c0-18.7025-15.9439-22.5817-28.6417-25.7474-8.7332-2.1707-15.9439-3.8591-15.9439-9.7482,0-5.1053,5.8891-7.4268,11.7582-7.4268,6.7182,0,12.5873,3.3064,12.5873,10.2809h17.7981c0-14.3008-8.1704-23.7978-22.7576-26.069v-8.0297h-14.3158v7.9895c-14.2354,2.0501-22.9888,10.512-22.9888,24.049,0,18.0091,15.2706,21.6471,27.8227,24.6821,8.9794,2.1406,16.4414,3.839,16.4414,10.2407,0,5.8489-6.6328,9.2659-13.4013,9.2659-7.2459,0-13.8988-3.7084-13.8988-11.4466h-18.1448c0,15.356,9.8739,25.3957,25.1545,27.6971v8.6227h14.2505v-8.6528c13.9641-2.1406,24.2801-10.7231,24.2801-25.7072Z"/></g></svg>