<?xml version="1.0" encoding="UTF-8"?><svg id="Layer_1" xmlns="http://www.w3.org/2000/svg" viewBox="0 0 276.8775 254.2371"><defs><style>.cls-1{fill:#add8ea;}.cls-2{fill:#4f9dd6;}</style></defs><path class="cls-2" d="m38.8217,122.9923c5.5948-4.0384,10.6607-8.0543,16.0759-11.5251,9.7264-6.2342,19.6611-3.993,28.0588,6.0501,9.8067,11.7281,19.5532,23.5066,29.4835,35.4529,17.9884-13.4536,35.8953-26.8215,53.7754-40.2249,24.2946-18.2119,48.5282-36.5055,72.874-54.6486,8.3213-6.2012,20.3162-5.3014,27.3018,2.1724,3.8016,4.0673,6.8601,8.829,10.4864,13.5824-9.3382,7.22-18.2089,14.1296-27.1334,20.9691-26.7393,20.4922-53.4892,40.9705-80.2554,61.4276-16.8807,12.9017-33.7209,25.8587-50.7377,38.5789-6.6161,4.9456-16.1594,3.6405-21.5816-2.739-14.9618-17.6034-29.7726-35.3351-44.6577-53.0038-4.3832-5.2028-8.8151-10.3645-13.69-16.0918Z"/><path class="cls-2" d="m252.2004,107.9171c8.3087,40.7048-9.1871,94.6657-54.516,124.822-45.4874,30.2617-105.3038,28.3727-147.7106-4.3878C7.3175,195.3982-4.476,146.5098,1.4166,110.9023c6.7983,5.4415,13.0038,11.2409,20.0281,15.7705,5.7397,3.7013,5.8814,9.0271,6.5959,14.4577,5.4213,41.2057,37.5483,75.7734,78.2586,83.9295,28.8616,5.7823,55.6449.3573,79.2863-17.0684,24.081-17.7497,38.0541-41.8301,40.7657-71.9426.4888-5.4274,1.4758-9.9904,6.6253-13.3927,5.9296-3.9178,11.1293-8.9365,16.6843-13.4299.7064-.5714,1.6434-.8577,2.5396-1.3094Z"/><path class="cls-1" d="m27.2318,115.947c-7.812-5.914-15.3229-11.5201-22.6905-17.3085-.6912-.543-.8892-2.3395-.6261-3.3794,5.9698-23.5957,18.0025-43.7238,35.6104-60.3876C58.0238,17.3652,79.8797,6.2766,105.0998,1.9655c33.4103-5.7112,64.194,1.1023,92.4985,19.4226,12.5121,8.0985,22.9667,18.4352,31.9792,30.8798-7.2358,5.4166-14.2053,10.6339-21.3377,15.973-28.2123-33.7693-63.6618-49.0325-106.7261-37.5444-42.6973,11.3902-66.7233,41.3443-74.2819,85.2505Z"/><path class="cls-1" d="m190.3211,81.6724c-6.9431,5.2157-13.9067,10.4467-21.3044,16.0039-11.5015-14.632-26.3722-22.4655-44.869-21.4752-18.3217.981-32.1929,10.0471-41.5532,25.387-4.7293-1.3375-9.2106-3.2603-13.8392-3.7294-4.6208-.4682-9.389.5195-13.9682.8596,3.1728-16.0656,24.9121-40.5483,51.9199-47.264,32.5403-8.0914,65.3986,3.6043,83.6141,30.2181Z"/></svg>