<?xml version="1.0" encoding="UTF-8"?><svg id="Layer_1" xmlns="http://www.w3.org/2000/svg" viewBox="0 0 294.6171 238.335"><defs><style>.cls-1{fill:#4a9cd5;}</style></defs><path class="cls-1" d="m93.1811,82.4404c3.0401-1.8841,6.0649-3.6386,8.9494-5.5994,1.3486-.9167,2.4143-2.2451,3.631-3.3621.7809-.7169.7667-1.3603.2081-2.2806-3.2562-5.3648-5.4262-11.1696-6.2252-17.3867-1.8698-14.5495,1.809-27.5442,11.7478-38.4346C121.9297,3.9401,135.1313-1.0149,150.4965.1716c20.8566,1.6106,38.3882,17.7984,42.0281,38.4875,4.531,25.754-12.4633,50.1158-38.2399,54.6141-11.1424,1.9445-21.69-.0249-31.5817-5.5526-.8952-.5003-2.0268-.7789-3.0572-.8037-7.7718-.1874-15.4845-.7616-22.9562-3.1123-1.2528-.3941-2.4546-.9503-3.5085-1.3642Zm53.501-26.7653c4.7787.0108,8.7479-3.8762,8.7998-8.6177.052-4.7472-4.0551-8.8781-8.7797-8.8305-4.7348.0477-8.7103,4.0331-8.7109,8.7326-.0006,4.7374,3.9556,8.7048,8.6908,8.7156Zm-38.8047-10.0823c-.0282,4.6845,3.9874,8.7517,8.6728,8.7844,4.7242.033,8.8265-4.0651,8.8238-8.8147-.0026-4.6613-4.0509-8.6639-8.777-8.6778-4.6988-.0139-8.6912,3.9733-8.7196,8.7081Zm77.5018,1.4612c.0101-4.8858-3.8721-8.8292-8.6931-8.8305-4.7087-.0012-8.6427,3.9756-8.6429,8.737-.0002,4.812,3.8341,8.6849,8.6271,8.7139,4.7855.0289,8.6991-3.8449,8.7089-8.6204Z"/><path class="cls-1" d="m135.6916,147.0431c-.8213,0-1.4285,0-2.0356,0-13.5044-.0002-27.0089.0207-40.5132-.0124-4.4837-.011-8.1782-1.7237-10.62-5.601-5.0946-8.0898.424-18.3325,10.0153-18.6589.0517-.0018.1035-.0024.1552-.0024,36.8397.0004,73.6794-.018,110.519.0195,6.2246.0063,11.3334,4.6447,12.018,10.6314.6884,6.0197-2.9612,11.5249-8.7933,13.1093-1.2787.3474-2.65.4906-3.9792.4941-13.1939.0342-26.3879.02-39.5819.0176-2.4564-.0005-2.4686-.0045-2.4689,2.4237-.003,26.4401-.0015,52.8803-.0032,79.3204,0,.8276.0199,1.6582-.0403,2.4822-.1882,2.5741-2.1848,4.5942-4.7496,4.6259-5.0181.062-10.0379.0632-15.056.0038-2.652-.0314-4.6364-2.1223-4.8513-4.9174-.0435-.566-.0135-1.1378-.0136-1.707-.0007-26.6989-.001-53.3977-.0014-80.0966,0-.6539,0-1.3078,0-2.1322Z"/><path class="cls-1" d="m229.0602,164.4994c0-.8457,0-1.4618,0-2.0778,0-13.7091.3095-27.4275-.1001-41.1243-.3167-10.5942,7.0786-19.0754,18.6468-18.5004,6.9086.3434,13.0583,4.1892,15.3584,10.6049.7007,1.9545,1.0829,4.1306,1.094,6.2079.0868,16.347.1034,32.6949.0301,49.042-.0556,12.4099-9.2824,21.4337-21.7201,21.4324-13.8641-.0014-27.7282.0146-41.5921-.0286-1.2041-.0038-1.6599.3485-1.9702,1.5317-3.4476,13.1473-6.9634,26.2767-10.4664,39.4094-1.2076,4.5273-4.1739,7.4392-8.0804,7.3355-7.5632-.2007-12.0938-4.2872-10.4123-12.2979,1.8473-8.8005,3.9206-17.5535,5.8924-26.3279,1.8357-8.1692,3.7256-16.3268,5.4816-24.5131,1.3024-6.0717,6.1485-10.9321,13.3461-10.7609,10.8058.2569,21.6222.0668,32.4341.0668h2.0581Z"/><path class="cls-1" d="m65.5325,162.3335c.8892,0,1.5069,0,2.1245,0,11.0698.0003,22.1397-.0038,33.2095.0028,6.0398.0036,11.0018,3.9349,12.3254,9.8112,3.8951,17.294,7.7825,34.5897,11.6383,51.8925.7438,3.3379.4614,6.6091-2.0918,9.1182-2.7695,2.7216-6.3459,3.4947-10.0542,2.7469-3.4979-.7054-5.3526-3.362-6.2571-6.6433-1.6203-5.8784-3.1446-11.7833-4.7136-17.6759-1.9545-7.3404-3.913-14.6798-5.8723-22.019-.1319-.494-.2853-.9824-.4655-1.5994-.803,0-1.5712,0-2.3394,0-13.4493.0007-26.8987.0139-40.348-.0019-10.3468-.0121-18.4976-5.7677-21.2143-15.1067-.5694-1.9573-.8572-4.0656-.8657-6.106-.068-16.5013-.0548-33.003-.032-49.5046.0127-9.1877,6.86-16.1826,16.0412-16.5592,5.2712-.2162,10.091.8064,13.9817,4.6499,3.3319,3.2916,4.9498,7.2875,4.9425,11.983-.0223,14.3289-.0089,28.6579-.0093,42.9869,0,.6103,0,1.2206,0,2.0246Z"/><path class="cls-1" d="m279.9962,141.3931c-.2332-3.4012-.3418-6.8168-.7316-10.1999-.4737-4.111,2.2259-7.7306,6.4818-8.3623,3.7236-.5527,7.5208,2.255,8.0604,6.1035,1.0088,7.1953.9926,14.418.4063,21.6504-.7054,8.7022-2.4212,17.1837-5.6701,25.3027-8.4562,21.1316-24.0299,33.7087-46.2199,38.2794-10.5836,2.18-21.248,2.2185-31.9463,1.1747-4.3325-.4228-7.0276-3.7217-6.7497-8.1065.245-3.8639,3.5864-6.728,7.7766-6.5723,4.3368.1611,8.6716.5962,13.0053.5715,9.2745-.0529,18.3301-1.4431,26.8613-5.3188,11.3775-5.1688,18.9691-13.8717,23.502-25.3803,3.2349-8.213,4.7107-16.7763,4.9766-25.5719.0359-1.1883.1059-2.3757.1601-3.5635.0291-.0022.0582-.0045.0872-.0067Z"/><path class="cls-1" d="m73.1914,213.8775c-13.6659-.1317-25.1707-1.7224-35.9967-6.6843-15.7821-7.2333-26.0544-19.452-31.9048-35.5955-2.9777-8.2166-4.4681-16.7324-5.0393-25.4387-.4279-6.5222-.3656-13.0222.6413-19.4824.5848-3.7521,4.0863-6.4271,7.6367-6.0555,4.09.428,6.9393,3.4363,6.8336,7.4351-.1118,4.2335-.6169,8.466-.5537,12.693.1534,10.2563,1.7489,20.2696,5.9384,29.7347,6.4347,14.5376,17.643,23.2222,33,26.741,9.3165,2.1347,18.7406,2.3379,28.2079,1.3112,6.1019-.6617,10.3716,3.8643,8.8205,9.412-.7951,2.8437-3.3667,4.991-6.46,5.2235-4.3274.3252-8.6622.5528-11.124.7058Z"/><path class="cls-1" d="m63.2495,72.3761c-.0018,9.7851-7.8642,17.6711-17.6302,17.6831-9.8681.0121-17.7684-7.8636-17.7672-17.712.0012-9.7563,7.8929-17.6747,17.6418-17.7015,9.8384-.027,17.7574,7.8808,17.7556,17.7304Z"/><path class="cls-1" d="m231.3775,74.5589c-.0237-9.7624,7.8382-17.6942,17.5921-17.7483,9.8136-.0544,17.8254,7.8835,17.8409,17.6764.0155,9.8098-7.9422,17.7561-17.7685,17.7428-9.7639-.0132-17.6407-7.8928-17.6644-17.671Z"/></svg>