<?xml version="1.0" encoding="UTF-8"?><svg id="Layer_1" xmlns="http://www.w3.org/2000/svg" viewBox="0 0 264.0572 228.5908"><defs><style>.cls-1{fill:#4a9cd5;}.cls-2{fill:#4f9dd6;}</style></defs><path class="cls-2" d="m173.7129,194.3451c2.8355,3.3701,5.6762,6.7465,8.5194,10.1258-32.7704,26.3675-88.8468,34.3072-134.2465,2.2034C2.7675,174.6988-12.8575,114.1494,11.3166,64.3696,35.88,13.7882,93.0313-11.4335,146.9607,4.9907c54.1539,16.4925,82.0437,66.9041,80.4708,110.011h-13.0508c-1.7302-42.2788-20.6846-73.9244-59.2808-92.261-25.9511-12.3291-52.9037-12.4007-79.4627-1.4447C21.9722,43.4334-1.7709,106.5569,23.9434,158.0613c28.8,57.685,101.3101,72.9824,149.7695,36.2838Z"/><path class="cls-2" d="m264.0572,174.7421c-14.5724,18.3058-28.6205,35.9529-42.8666,53.8488-14.2453-17.901-28.2907-35.5509-42.694-53.6506h21.4905v-14.3763h42.2965v14.1782h21.7736Z"/><path class="cls-2" d="m242.2389,140.1886v16.306h-42.0257v-16.306h42.0257Z"/><path class="cls-2" d="m242.2543,128.6605v7.4666h-42.0269v-7.4666h42.0269Z"/><path class="cls-1" d="m186.7921,113.8313c0,40.3416-32.7033,73.0449-73.0449,73.0449s-73.0449-32.7033-73.0449-73.0449S73.4057,40.7864,113.7473,40.7864s73.0449,32.7033,73.0449,73.0449Zm-39.8135,16.8962c0-19.5182-16.6393-23.5666-29.8909-26.8704-9.1141-2.2654-16.6393-4.0274-16.6393-10.1734,0-5.3279,6.146-7.7507,12.271-7.7507,7.0113,0,13.1363,3.4506,13.1363,10.7293h18.5743c0-14.9245-8.5268-24.8357-23.7502-27.206v-8.3799h-14.9402v8.338c-14.8563,2.1396-23.9914,10.9705-23.9914,25.0979,0,18.7946,15.9366,22.5912,29.0361,25.7586,9.3711,2.234,17.1584,4.0064,17.1584,10.6873,0,6.104-6.9221,9.67-13.9858,9.67-7.5619,0-14.505-3.8701-14.505-11.9459h-18.9362c0,16.0257,10.3045,26.5033,26.2516,28.905v8.9987h14.872v-9.0302c14.5731-2.234,25.3391-11.1907,25.3391-26.8284Z"/></svg>