<?xml version="1.0" encoding="UTF-8"?><svg id="Layer_1" xmlns="http://www.w3.org/2000/svg" viewBox="0 0 231.4486 231.4486"><defs><style>.cls-1{fill:#4a9cd5;}</style></defs><path class="cls-1" d="m231.4486,115.7243c0,63.9128-51.8115,115.7243-115.7243,115.7243S0,179.637,0,115.7243,51.8115,0,115.7243,0s115.7243,51.8115,115.7243,115.7243Zm-116.9205,36.1331c10.0773-11.2805,19.8139-22.2133,26.8242-32.6314,7.5111-10.7589,12.129-21.184,12.129-31.0875,0-13.1583-9.3958-29.0428-35.0238-29.0428-12.6367,0-25.4542,1.3701-41.6795,6.8365l5.1256,20.1547c10.7589-4.1033,21.5248-5.981,30.9206-5.981,10.0773,0,14.6883,4.2702,14.6883,11.9621,0,5.8072-4.1033,13.3182-10.2512,21.8655-10.4181,14.1737-25.9619,30.9136-40.4833,45.9496l2.0516,12.4698h75.8409v-20.4955h-40.1425Z"/></svg>