<?xml version="1.0" encoding="UTF-8"?><svg id="Layer_1" xmlns="http://www.w3.org/2000/svg" viewBox="0 0 231.4486 231.4486"><defs><style>.cls-1{fill:#4a9cd5;}</style></defs><path class="cls-1" d="m231.4486,115.7243c0,63.9128-51.8115,115.7243-115.7243,115.7243S0,179.637,0,115.7243,51.8115,0,115.7243,0s115.7243,51.8115,115.7243,115.7243Zm-97.7881-5.1256c9.3958-6.1479,16.0584-15.203,16.0584-26.9912,0-16.3992-13.1583-25.6211-35.7054-25.6211-9.5627,0-23.9172,1.8778-31.6021,3.9294l3.5886,21.5248c5.981-1.8778,16.3992-3.7555,24.258-3.7555,11.6143,0,14.0067,3.9224,14.0067,9.3888,0,7.1772-6.6626,14.8622-30.9206,14.8622v18.6247c20.3286-.6885,34.3353,5.8072,34.3353,15.203,0,8.3665-8.0257,13.1513-18.1031,13.1513-9.3958,0-18.7916-1.8778-27.8466-4.9517l-3.9294,21.5248c8.5404,2.5593,18.7916,5.9741,31.776,5.9741,30.0582,0,44.0719-15.203,44.0719-33.8207,0-12.6436-6.8365-22.721-19.9878-29.0428Z"/></svg>