<?xml version="1.0" encoding="UTF-8"?><svg id="Layer_1" xmlns="http://www.w3.org/2000/svg" viewBox="0 0 233.2334 278.9192"><defs><style>.cls-1{stroke-width:14px;}.cls-1,.cls-2{fill:none;stroke:#fff;stroke-miterlimit:10;}.cls-3{fill:#fff;}.cls-4{fill:#4a9cd5;}.cls-2{stroke-width:17px;}</style></defs><path class="cls-4" d="m78.4332,61.5954c-4.898-3.7668-11.0314-6.0064-17.6879-6.0064-16.0386,0-29.0405,13.0019-29.0405,29.0405s13.0019,29.0405,29.0405,29.0405c6.5222,0,12.8402-2.3607,17.6879-5.9908v-46.0838Z"/><path class="cls-4" d="m78.4332,187.2602c-4.898-3.7668-11.0314-6.0064-17.6879-6.0064-16.0386,0-29.0405,13.0019-29.0405,29.0405s13.0019,29.0405,29.0405,29.0405c6.5222,0,12.8402-2.3607,17.6879-5.9908v-46.0838Z"/><g><path class="cls-1" d="m79.8295,112.5422c-7.6338-5.8708-17.1932-9.3613-27.5679-9.3613-24.9973,0-45.2616,20.2643-45.2616,45.2616s20.2643,45.2616,45.2616,45.2616c10.1654,0,20.0124-3.6793,27.5679-9.3371v-71.8249Z"/><path class="cls-4" d="m79.8295,112.5422c-7.6338-5.8708-17.1932-9.3613-27.5679-9.3613-24.9973,0-45.2616,20.2643-45.2616,45.2616s20.2643,45.2616,45.2616,45.2616c10.1654,0,20.0124-3.6793,27.5679-9.3371v-71.8249Z"/></g><path class="cls-3" d="m71.864,150.5375c-1.5815-1.9135-3.7833-3.2126-6.223-3.6715,3.4745-1.6114,5.3945-5.3916,4.6465-9.1477-.0918-1.4656-.5328-2.8881-1.2861-4.1486-.7296-1.1619-1.7434-2.1185-2.9455-2.7796-1.2594-.7042-2.6052-1.2411-4.0034-1.5972-1.6186-.3508-3.2625-.5728-4.9161-.6638v-9.0025h-5.4555v8.7121h-4.3353v-8.7121h-5.4762v9.0025h-10.9732v5.8081h3.9412c1.5575-.194,2.9773.9114,3.1712,2.4688.0009.0068.0017.0136.0025.0204v10.1849h.5601-.5601v14.2713c-.0532,1.0526-.9496,1.8628-2.0022,1.8097-.0241-.0012-.0481-.0029-.0721-.005h-3.9412l-1.0994,6.4926h10.9732v9.0648h5.4762v-8.9611h4.3353v8.9196h5.4555v-9.0648c1.7306-.0675,3.4555-.2406,5.1651-.5186,1.4784-.2603,2.9247-.6775,4.3146-1.2446,1.2659-.4731,2.4334-1.1764,3.4434-2.0743.9766-.8811,1.7605-1.9545,2.3025-3.153.6392-1.4008,1.0255-2.9036,1.1409-4.439.4698-2.642-.1027-5.3633-1.5972-7.592l-.0415.0207Zm-24.4147-15.7856h3.3189c.6907-.0466,1.3837-.0466,2.0743,0,.7385.0483,1.473.1453,2.1988.2904.6663.1338,1.319.3282,1.9499.5808.6239.2233,1.2008.5609,1.7009.9957.4468.4286.8123.9346,1.0786,1.4935.3088.6474.4649,1.3571.4564,2.0743.0017.6169-.1109,1.2287-.3319,1.8047-.2047.5257-.5318.9951-.9542,1.3691-.4101.3516-.847.6706-1.3068.9542-.5385.3039-1.1185.5276-1.7217.6638l-1.8461.3941c-.6463.0959-1.2971.1582-1.9499.1867h-4.6672v-10.8072Zm14.9351,24.1866c-.2109.5149-.5053.9914-.8712,1.4105-.3989.4443-.8773.8101-1.4105,1.0786-.5395.2928-1.1013.5425-1.6802.7468-.678.2175-1.3714.3839-2.0743.4978-.7675.1452-1.452.2282-2.0743.2904s-1.2653.1037-2.0743.1452h-4.7502v-12.0103h6.3474c.8765.0531,1.7492.157,2.6136.3112.7949.17,1.5779.3917,2.344.6638.7477.2391,1.4492.6038,2.0743,1.0786.5378.4563.9817,1.0129,1.3068,1.6387.6569,1.2902.7324,2.7993.2074,4.1486h.0415Z"/><path class="cls-3" d="m59.0334,231.0557c3.5242-4.9873,7.0483-9.9747,10.5725-14.962-.1428.0083-.2349.0572-.3248.1098-3.3359,1.9529-6.6696,3.9095-10.0112,5.8526-.2393.1392-.3058.2877-.3052.5496.0068,2.8167.0009,5.6333-.0015,8.45h.0702Z"/><path class="cls-3" d="m58.2616,231.0557c-.0005-2.8272-.0047-5.6545.005-8.4816.0009-.2566-.081-.388-.3007-.5159-3.349-1.9503-6.6919-3.911-10.0367-5.8685-.0844-.0494-.1739-.0899-.3394-.1746.1126.1715.1719.268.2372.3603,1.9281,2.7271,3.8583,5.4527,5.7849,8.1808,1.5288,2.1649,3.0532,4.3329,4.5795,6.4995h.0702Z"/><path class="cls-3" d="m58.9805,195.2933c-.0032.0347-.0093.0693-.0093.104-.0005,4.1618.0019,8.3235-.007,12.4853-.0005.2419.1173.3124.3004.3923,3.3058,1.4432,6.6095,2.8913,9.9139,4.3377.1014.0444.2058.0816.3893.1538-3.5376-5.8839-7.0302-11.6929-10.5228-17.5019-.0215.0096-.0429.0192-.0644.0287Z"/><path class="cls-3" d="m48.1314,212.5846c3.2918-1.4417,6.5818-2.8878,9.8783-4.3189.242-.105.2528-.251.2527-.458-.0028-4.078-.0019-8.1559-.0029-12.2339,0-.0959-.0127-.1919-.0256-.373-3.4846,5.8535-6.9228,11.629-10.4188,17.5017.1707-.0633.2452-.0868.3163-.118Z"/><path class="cls-3" d="m59.0004,219.9764c3.6024-2.1076,7.166-4.1925,10.7936-6.3148-3.6342-1.5917-7.1994-3.1531-10.7936-4.7273v11.0421Z"/><path class="cls-3" d="m47.4492,213.6586c3.6329,2.1276,7.1943,4.2134,10.792,6.3204v-11.0469c-3.5971,1.5754-7.1597,3.1357-10.792,4.7265Z"/><path class="cls-3" d="m51.7851,91.3657c.1114-.2078.3008-.3628.5265-.4309l20.822-6.291c.2351-.071.4832.0619.5543.297.0341.113.022.2349-.0338.3388l-2.8723,5.3542c-.1114.2078-.3008.3628-.5265.431l-20.822,6.291c-.2351.071-.4833-.062-.5543-.2971-.0341-.113-.0219-.2348.0338-.3388l2.8723-5.3542Z"/><path class="cls-3" d="m47.1448,76.0068c.1114-.2077.3008-.3627.5265-.4309l20.822-6.291c.2351-.071.4832.062.5543.2971.0341.113.022.2348-.0338.3388l-2.8723,5.3542c-.1115.2077-.3008.3627-.5265.4309l-20.822,6.291c-.2351.071-.4832-.0619-.5542-.297-.0341-.113-.022-.2349.0338-.3388l2.8723-5.3542Z"/><path class="cls-3" d="m67.0604,78.3167c-.2078-.1113-.4514-.1355-.677-.0673l-20.822,6.291c-.2351.071-.3681.3192-.297.5542.0341.1129.1117.2077.2158.2634l5.3565,2.8681c.2078.1113.4514.1355.677.0673l20.822-6.291c.2351-.071.3681-.3192.297-.5543-.0341-.1129-.1117-.2077-.2158-.2634l-5.3565-2.868Z"/><g><path class="cls-2" d="m87.7095,82.5005c.0272-4.4409-1.0032-6.8564-5.3422-8.9748-14.9062-7.2773-21.9759-23.0233-18.1982-38.8622,3.6511-15.3086,17.4171-26.1031,33.3654-26.1633,15.8797-.0599,29.4422,10.5565,33.3771,26.1268,3.9359,15.5741-3.1582,31.4674-18.1134,38.8924-4.3329,2.1512-5.4662,4.6184-5.3443,9.0326l.1453,43.9554c-.0088,5.2848-.0612,10.6702-.0612,16.2658,16.2724,0,31.7147.1743,47.1407-.2452,1.7136-.0466,3.7767-3.2393,4.9279-5.3767,7.6227-14.153,23.1334-21.3937,38.6333-17.797,14.9357,3.4658,25.9384,16.9839,26.4618,32.5113.5202,15.4331-9.5427,29.3322-24.5425,33.8988-15.9563,4.8578-32.8477-2.1929-40.4313-17.4768-2.092-4.2162-4.4253-5.5437-8.9581-5.4496-13.9944.2904-27.9987.106-42.4476.106,0,15.9598-.8693,30.9787.2587,45.8461,1.0109,13.3243,6.5153,17.0902,19.8952,17.0891,7.1354-.0007,14.2865-.2859,21.401.1007,5.0227.2729,7.7683-1.2193,10.1844-5.998,7.0295-13.9032,22.4885-20.8995,37.164-17.7098,15.0551,3.2722,26.0428,15.6939,27.3812,30.9546,1.3182,15.0311-7.7528,29.3657-22.073,34.8814-16.0263,6.1728-34.5289-.3346-42.2629-15.773-2.6995-5.3886-5.8143-6.763-11.2982-6.5037-8.5924.4063-17.2193.0191-25.8298.1199-13.8139.1617-24.0975-6.2292-29.2641-18.5357-3.5227-8.3908-5.7496-17.9112-5.9785-26.9914-.5893-23.3753-.4731-46.7702-.3112-70.1623l.1205-47.7616Zm116.85,70.38c.0091-7.6809-6.2991-14.2494-13.8863-14.4595-7.8426-.2171-14.6522,6.4762-14.6695,14.4189-.0174,8.0194,6.6658,14.6056,14.6177,14.4057,7.6757-.193,13.9289-6.6378,13.9381-14.365ZM111.765,43.1284c.159-8.0684-6.3402-14.7749-14.2817-14.7371-7.546.0359-14.0638,6.4786-14.2729,14.1085-.2189,7.9882,6.2966,14.6145,14.3744,14.6187,7.7893.0041,14.0255-6.1486,14.1801-13.9901Zm78.6148,178.6322c-8.1424-.0423-14.5148,6.388-14.3818,14.5123.1261,7.698,6.4927,14.0163,14.1716,14.064,7.6924.0478,14.1651-6.1855,14.3854-13.8533.2339-8.1375-6.0661-14.6809-14.1752-14.723Z"/><path class="cls-4" d="m87.7095,82.5005c.0272-4.4409-1.0032-6.8564-5.3422-8.9748-14.9062-7.2773-21.9759-23.0233-18.1982-38.8622,3.6511-15.3086,17.4171-26.1031,33.3654-26.1633,15.8797-.0599,29.4422,10.5565,33.3771,26.1268,3.9359,15.5741-3.1582,31.4674-18.1134,38.8924-4.3329,2.1512-5.4662,4.6184-5.3443,9.0326l.1453,43.9554c-.0088,5.2848-.0612,10.6702-.0612,16.2658,16.2724,0,31.7147.1743,47.1407-.2452,1.7136-.0466,3.7767-3.2393,4.9279-5.3767,7.6227-14.153,23.1334-21.3937,38.6333-17.797,14.9357,3.4658,25.9384,16.9839,26.4618,32.5113.5202,15.4331-9.5427,29.3322-24.5425,33.8988-15.9563,4.8578-32.8477-2.1929-40.4313-17.4768-2.092-4.2162-4.4253-5.5437-8.9581-5.4496-13.9944.2904-27.9987.106-42.4476.106,0,15.9598-.8693,30.9787.2587,45.8461,1.0109,13.3243,6.5153,17.0902,19.8952,17.0891,7.1354-.0007,14.2865-.2859,21.401.1007,5.0227.2729,7.7683-1.2193,10.1844-5.998,7.0295-13.9032,22.4885-20.8995,37.164-17.7098,15.0551,3.2722,26.0428,15.6939,27.3812,30.9546,1.3182,15.0311-7.7528,29.3657-22.073,34.8814-16.0263,6.1728-34.5289-.3346-42.2629-15.773-2.6995-5.3886-5.8143-6.763-11.2982-6.5037-8.5924.4063-17.2193.0191-25.8298.1199-13.8139.1617-24.0975-6.2292-29.2641-18.5357-3.5227-8.3908-5.7496-17.9112-5.9785-26.9914-.5893-23.3753-.4731-46.7702-.3112-70.1623l.1205-47.7616Zm116.85,70.38c.0091-7.6809-6.2991-14.2494-13.8863-14.4595-7.8426-.2171-14.6522,6.4762-14.6695,14.4189-.0174,8.0194,6.6658,14.6056,14.6177,14.4057,7.6757-.193,13.9289-6.6378,13.9381-14.365ZM111.765,43.1284c.159-8.0684-6.3402-14.7749-14.2817-14.7371-7.546.0359-14.0638,6.4786-14.2729,14.1085-.2189,7.9882,6.2966,14.6145,14.3744,14.6187,7.7893.0041,14.0255-6.1486,14.1801-13.9901Zm78.6148,178.6322c-8.1424-.0423-14.5148,6.388-14.3818,14.5123.1261,7.698,6.4927,14.0163,14.1716,14.064,7.6924.0478,14.1651-6.1855,14.3854-13.8533.2339-8.1375-6.0661-14.6809-14.1752-14.723Z"/></g></svg>