<?xml version="1.0" encoding="UTF-8"?><svg id="Layer_1" xmlns="http://www.w3.org/2000/svg" xmlns:xlink="http://www.w3.org/1999/xlink" viewBox="0 0 274.3718 243.7754"><defs><style>.cls-1{fill:none;}.cls-2{clip-path:url(#clippath);}.cls-3{fill:#fff;}.cls-4{fill:#4a9cd5;}.cls-5{clip-path:url(#clippath-1);}</style><clipPath id="clippath"><path class="cls-1" d="m176.2284,80.237l-18.4527,22.2446c13.0238,16.2199,21.0474,36.6716,21.6599,59.0721.2951,10.6462-1.1136,20.9417-3.97,30.6357l41.449,12.7343,49.0996-16.6598s3.7306-5.5291,8.3577-12.5394v-96.5176c-10.9023-4.6271-22.974-9.3043-23.6979-9.3043-1.3196,0-42.9635-3.0068-42.9635-3.0068l-31.4821,13.3412Z"/></clipPath><clipPath id="clippath-1"><path class="cls-1" d="m78.3856.0006c1.3141,3.7028,7.478,39.2162,8.341,42.2842.8686,3.068,10.7131,24.611,10.7131,24.611,20.7635,3.5469,39.3777,13.5973,53.6097,28.0243-.7517,1.2751-1.4533,2.578-2.1159,3.9032l5.1839-.6403c-.9967-1.1136-2.0212-2.1994-3.068-3.2629,12.1608-20.9361,34.5223-35.2127,60.2859-36.0201l-3.6248-35.9032L195.2824.0006h-116.8969Z"/></clipPath></defs><g class="cls-2"><path class="cls-4" d="m274.3713,131.2075c0,32.7739-26.571,59.3393-59.3449,59.3393s-59.3449-26.5654-59.3449-59.3393,26.571-59.3449,59.3449-59.3449,59.3449,26.571,59.3449,59.3449m-61.4552,16.1085l3.6304-15.7633,7.1717-2.7117v-7.7675l-5.2173,1.9767,5.7185-24.8393h-21.092l-7.6728,33.5646-7.1773,2.7172v7.7619l5.234-1.9823-4.3877,19.1933h49.6119l3.0346-12.1496h-28.8539Z"/></g><g class="cls-5"><path class="cls-4" d="m192.2695,45.5471c0,25.1567-20.3904,45.5471-45.5416,45.5471s-45.5471-20.3904-45.5471-45.5471S121.5713,0,146.728,0s45.5416,20.396,45.5416,45.5471m-48.4592-18.8481c-.9744,3.2574-.3564,6.3087,1.3586,9.2097,1.3698,2.3219.7294,4.9278-1.4366,6.1917-2.2606,1.3196-4.9667.5624-6.3309-1.7762-2.8342-4.8498-8.2575-6.9434-13.7532-5.312-5.1561,1.5312-8.5972,6.7987-7.9179,12.1329.6682,5.2841,5.2563,9.5604,10.5015,9.8723,5.0224.2951,8.7364-1.7929,11.3757-6.0024,1.5424-2.45,4.254-3.068,6.5815-1.5869,1.9377,1.2361,2.6449,3.9923,1.1136,6.2641-1.2417,1.8375-1.7818,3.9868-1.5702,6.1806.6682,7.0102,6.3644,11.4759,13.3635,10.5961,4.7218-.5958,8.6139-4.2485,9.6384-9.0537.9577-4.4879-1.2305-9.3099-5.3064-11.7376-2.0602-1.225-4.2874-1.6983-6.6706-1.715-3.185-.0223-5.3955-2.7952-4.616-5.6739.5512-2.0157,2.3664-3.2796,4.7663-3.2406,3.4021.0557,6.3142-1.1359,8.5804-3.6081,3.2239-3.519,4.0258-7.6561,2.127-12.0327-1.9822-4.5714-5.7463-6.6984-9.5437-6.8877-6.3477,0-10.7799,3.2184-12.261,8.1795"/></g><path class="cls-4" d="m162.2502,181.3355c-11.0026,44.1273-55.6922,70.9767-99.8251,59.9741C18.3146,230.3126-8.5404,185.6174,2.4677,141.4957c10.997-44.1328,55.6867-70.9878,99.8028-59.9852,44.1273,10.997,70.9822,55.6978,59.9797,99.8251Z"/><path class="cls-3" d="m118.6786,149.6747c1.637-10.958-6.7096-16.8547-18.1186-20.7802l3.7028-14.8501-9.037-2.2495-3.6081,14.4548c-2.372-.5958-4.8164-1.1526-7.2385-1.7038l3.6304-14.555-9.0315-2.2495-3.7084,14.8446c-1.9655-.451-3.8977-.8909-5.7686-1.3586l.0111-.0501-12.467-3.107-2.3999,9.6495s6.704,1.5368,6.5592,1.6315c3.6638.9132,4.3264,3.3353,4.2151,5.2563l-4.2151,16.9159c.2506.0668.5735.1559.9354.3007-.3007-.0724-.6236-.1559-.9521-.2339l-5.9133,23.6979c-.4454,1.1081-1.5813,2.7785-4.1427,2.1437.0947.1336-6.5648-1.637-6.5648-1.637l-4.4879,10.3455,11.7598,2.9288c2.1883.5512,4.332,1.1248,6.4423,1.6649l-3.7362,15.0172,9.0259,2.2551,3.7028-14.8613c2.4667.6682,4.861,1.2862,7.2051,1.8709l-3.6917,14.7889,9.037,2.2495,3.7418-14.9894c15.4125,2.9177,26.9998,1.7428,31.8774-12.1997,3.9311-11.2253-.1949-17.6954-8.3021-21.9161,5.9022-1.3642,10.3511-5.2507,11.5371-13.2744Zm-20.6521,28.9597c-2.7952,11.2197-21.6933,5.1561-27.8183,3.636l4.9668-19.9004c6.1249,1.5312,25.7692,4.5603,22.8515,16.2644Zm2.7952-29.1212c-2.5502,10.2119-18.2745,5.0224-23.3805,3.7529l4.499-18.0462c5.106,1.2695,21.5374,3.6471,18.8815,14.2933Z"/></svg>