<?xml version="1.0" encoding="utf-8"?>
<!-- Generator: Adobe Illustrator 27.2.0, SVG Export Plug-In . SVG Version: 6.00 Build 0)  -->
<svg version="1.1" id="Layer_1" xmlns="http://www.w3.org/2000/svg" xmlns:xlink="http://www.w3.org/1999/xlink" x="0px" y="0px"
	 viewBox="0 0 274.4 244.2" style="enable-background:new 0 0 274.4 244.2;" xml:space="preserve">
<style type="text/css">
	.st0{clip-path:url(#SVGID_00000133498333009289563640000009632001374851106218_);}
	.st1{fill:#FFFFFF;}
	.st2{clip-path:url(#SVGID_00000007388180601119520020000015070756970622738090_);}
</style>
<g>
	<defs>
		<path id="SVGID_1_" d="M175.6,80.9l-17.9,21.5c12.6,15.7,20.4,35.5,21,57.2c0.3,10.3-1.1,20.3-3.8,29.7l40.2,12.3l47.6-16.1
			c0,0,3.6-5.4,8.1-12.1V79.9c-10.6-4.5-22.3-9-23-9c-1.3,0-41.6-2.9-41.6-2.9L175.6,80.9L175.6,80.9L175.6,80.9z"/>
	</defs>
	<clipPath id="SVGID_00000127752584677754476820000006683804801161329575_">
		<use xlink:href="#SVGID_1_"  style="overflow:visible;"/>
	</clipPath>
	<g style="clip-path:url(#SVGID_00000127752584677754476820000006683804801161329575_);">
		<path class="st1" d="M270.7,130.3c0,31.7-25.7,57.5-57.5,57.5s-57.5-25.7-57.5-57.5s25.7-57.5,57.5-57.5S270.7,98.6,270.7,130.3
			 M211.2,145.9l3.5-15.3l6.9-2.6v-7.5l-5.1,1.9l5.5-24.1h-20.4l-7.4,32.5l-7,2.6v7.5l5.1-1.9l-4.3,18.6h48.1l2.9-11.8L211.2,145.9
			L211.2,145.9z"/>
	</g>
</g>
<g>
	<defs>
		<path id="SVGID_00000141442493291664793580000009509763013010883234_" d="M80.8,3.2c1.3,3.6,7.2,38,8.1,41
			c0.8,3,10.4,23.8,10.4,23.8c20.1,3.4,38.1,13.2,51.9,27.1c-0.7,1.2-1.4,2.5-2,3.8l5-0.6c-1-1.1-2-2.1-3-3.2
			c11.8-20.3,33.4-34.1,58.4-34.9l-3.5-34.8l-12-22.3H80.8L80.8,3.2L80.8,3.2z"/>
	</defs>
	<clipPath id="SVGID_00000157988096325716874180000017687126839574078880_">
		<use xlink:href="#SVGID_00000141442493291664793580000009509763013010883234_"  style="overflow:visible;"/>
	</clipPath>
	<g style="clip-path:url(#SVGID_00000157988096325716874180000017687126839574078880_);">
		<path class="st1" d="M191.2,47.3c0,24.4-19.8,44.1-44.1,44.1s-44.1-19.8-44.1-44.1S122.7,3.2,147,3.2S191.2,23,191.2,47.3
			 M144.2,29.1c-0.9,3.2-0.3,6.1,1.3,8.9c1.3,2.2,0.7,4.8-1.4,6c-2.2,1.3-4.8,0.5-6.1-1.7c-2.7-4.7-8-6.7-13.3-5.1
			c-5,1.5-8.3,6.6-7.7,11.8c0.6,5.1,5.1,9.3,10.2,9.6c4.9,0.3,8.5-1.7,11-5.8c1.5-2.4,4.1-3,6.4-1.5c1.9,1.2,2.6,3.9,1.1,6.1
			c-1.2,1.8-1.7,3.9-1.5,6c0.6,6.8,6.2,11.1,12.9,10.3c4.6-0.6,8.3-4.1,9.3-8.8c0.9-4.3-1.2-9-5.1-11.4c-2-1.2-4.2-1.6-6.5-1.7
			c-3.1,0-5.2-2.7-4.5-5.5c0.5-2,2.3-3.2,4.6-3.1c3.3,0.1,6.1-1.1,8.3-3.5c3.1-3.4,3.9-7.4,2.1-11.7c-1.9-4.4-5.6-6.5-9.2-6.7
			C149.9,21.2,145.6,24.3,144.2,29.1"/>
	</g>
</g>
<path class="st1" d="M97.8,175.9c-3.1,12.3-23.7,5.6-30.4,4l5.4-21.8C79.5,159.8,101,163.2,97.8,175.9z"/>
<path class="st1" d="M100.9,144.1c-2.8,11.2-20,5.5-25.6,4.1l4.9-19.7C85.8,129.9,103.8,132.5,100.9,144.1z"/>
<path class="st1" d="M164.9,160.4c0,44.5-36.1,80.6-80.6,80.6S3.7,204.9,3.7,160.4s36.1-80.6,80.6-80.6S164.9,115.9,164.9,160.4z
	 M123.6,144.7L123.6,144.7c1.8-12-7.3-18.4-19.8-22.7l4-16.2l-9.9-2.5l-3.9,15.8c-2.6-0.7-5.3-1.3-7.9-1.9l4-15.9l-9.9-2.5l-4,16.2
	c-2.1-0.5-4.3-1-6.3-1.5l0-0.1l-13.6-3.4l-2.6,10.5c0,0,7.3,1.7,7.2,1.8c4,1,4.7,3.6,4.6,5.7l-4.6,18.5c0.3,0.1,0.6,0.2,1,0.3
	c-0.3-0.1-0.7-0.2-1-0.3l-6.5,25.9c-0.5,1.2-1.7,3-4.5,2.3c0.1,0.1-7.2-1.8-7.2-1.8l-4.9,11.3l12.8,3.2c2.4,0.6,4.7,1.2,7,1.8
	l-4.1,16.4l9.8,2.5l4-16.2c2.7,0.7,5.3,1.4,7.9,2l-4,16.1l9.9,2.5l4.1-16.4c16.8,3.2,29.5,1.9,34.8-13.3c4.3-12.2-0.2-19.3-9.1-23.9
	C117.4,157.7,122.3,153.4,123.6,144.7L123.6,144.7z"/>
</svg>
