<?xml version="1.0" encoding="UTF-8"?><svg id="Layer_1" xmlns="http://www.w3.org/2000/svg" xmlns:xlink="http://www.w3.org/1999/xlink" viewBox="0 0 294.0208 257.4034"><defs><style>.cls-1,.cls-2{fill:none;}.cls-3{clip-path:url(#clippath);}.cls-4{fill:#4a9cd5;}.cls-5,.cls-6{fill:#4f9dd6;}.cls-7{opacity:.3;}.cls-8{opacity:.9;}.cls-6{fill-rule:evenodd;}.cls-2{stroke:#fff;stroke-miterlimit:10;stroke-width:7px;}</style><clipPath id="clippath"><rect class="cls-1" y="69.1706" width="85.0256" height="156.4115"/></clipPath></defs><g class="cls-7"><path class="cls-6" d="m75.0385,143.5288c38.499,0,69.7087-6.6645,69.7087-14.8858v-22.0546c0-8.2213-31.2096-14.8858-69.7087-14.8858S5.3298,98.3671,5.3298,106.5884v22.0546c0,8.2213,31.2096,14.8858,69.7087,14.8858Zm-32.5258-10.8732c-2.0301,0-3.6759-1.6458-3.6759-3.676s1.6457-3.6761,3.6759-3.6761,3.676,1.6458,3.676,3.6761-1.6457,3.676-3.676,3.676Zm20.6629,1.7504c-2.0302,0-3.676-1.6458-3.676-3.676s1.6457-3.676,3.676-3.676,3.676,1.6457,3.676,3.676-1.6458,3.676-3.676,3.676Zm11.8629-36.9352c30.4345,0,55.1066,2.5864,55.1066,5.777s-24.6721,5.777-55.1066,5.777-55.1067-2.5864-55.1067-5.777,24.6721-5.777,55.1067-5.777Zm-51.4307,22.2313c2.0301,0,3.676,1.6458,3.676,3.676s-1.6458,3.6761-3.676,3.6761-3.676-1.6458-3.676-3.6761,1.6457-3.676,3.676-3.676Z"/><path class="cls-6" d="m144.7472,172.9516c-4.0611,2.1992-11.831,4.9948-19.2109,6.5706-13.5508,2.8936-31.4845,4.4872-50.4977,4.4872s-36.9472-1.5936-50.498-4.4872c-7.3799-1.5759-13.0498-3.4334-17.1108-5.6327-1.3692,1.1642-2.1,2.3825-2.1,3.6375v20.6933c0,8.2213,31.2096,14.8858,69.7087,14.8858s69.7087-6.6645,69.7087-14.8858v-25.2687Zm-81.5715,24.449c2.0301,0,3.676,1.6457,3.676,3.676s-1.6458,3.676-3.676,3.676-3.676-1.6458-3.676-3.676,1.6457-3.676,3.676-3.676Zm-20.6629-1.7505c2.0302,0,3.676,1.6458,3.676,3.6761s-1.6457,3.676-3.676,3.676-3.6759-1.6458-3.6759-3.676,1.6457-3.6761,3.6759-3.6761Zm-18.905-5.6015c2.0301,0,3.676,1.6458,3.676,3.676s-1.6458,3.6761-3.676,3.6761-3.676-1.6458-3.676-3.6761,1.6457-3.676,3.676-3.676Z"/><path class="cls-6" d="m144.7472,138.811c-4.0611,2.1992-11.831,4.9948-19.2109,6.5706-13.5508,2.8936-31.4845,4.4872-50.4977,4.4872s-36.9472-1.5936-50.498-4.4872c-7.3799-1.5759-13.0498-3.4334-17.1108-5.6327-1.3692,1.1642-2.1,2.3825-2.1,3.6375v20.6933c0,8.2213,31.2096,14.8858,69.7087,14.8858s69.7087-6.6645,69.7087-14.8858v-25.2687Zm-81.5715,24.449c2.0301,0,3.676,1.6457,3.676,3.676s-1.6458,3.676-3.676,3.676-3.676-1.6458-3.676-3.676,1.6457-3.676,3.676-3.676Zm-20.6629-1.7505c2.0302,0,3.676,1.6458,3.676,3.6761s-1.6457,3.676-3.676,3.676-3.6759-1.6458-3.6759-3.676,1.6457-3.6761,3.6759-3.6761Zm-18.905-5.6015c2.0301,0,3.676,1.6458,3.676,3.676s-1.6458,3.6761-3.676,3.6761-3.676-1.6458-3.676-3.6761,1.6457-3.676,3.676-3.676Z"/></g><g class="cls-3"><g class="cls-8"><path class="cls-6" d="m75.1253,143.5655c38.499,0,69.7087-6.6645,69.7087-14.8858v-22.0546c0-8.2213-31.2096-14.8858-69.7087-14.8858S5.4167,98.4037,5.4167,106.625v22.0546c0,8.2213,31.2096,14.8858,69.7087,14.8858Zm-32.5258-10.8732c-2.0301,0-3.6759-1.6458-3.6759-3.676s1.6457-3.6761,3.6759-3.6761,3.676,1.6458,3.676,3.6761-1.6457,3.676-3.676,3.676Zm20.6629,1.7504c-2.0302,0-3.676-1.6458-3.676-3.676s1.6457-3.676,3.676-3.676,3.676,1.6457,3.676,3.676-1.6458,3.676-3.676,3.676Zm11.8629-36.9352c30.4345,0,55.1066,2.5864,55.1066,5.777s-24.6721,5.777-55.1066,5.777-55.1067-2.5864-55.1067-5.777,24.6721-5.777,55.1067-5.777Zm-51.4307,22.2313c2.0301,0,3.676,1.6458,3.676,3.676s-1.6458,3.6761-3.676,3.6761-3.676-1.6458-3.676-3.6761,1.6457-3.676,3.676-3.676Z"/><path class="cls-6" d="m144.834,172.9882c-4.0611,2.1992-11.831,4.9948-19.2109,6.5706-13.5508,2.8936-31.4845,4.4872-50.4977,4.4872s-36.9472-1.5936-50.498-4.4872c-7.3799-1.5759-13.0498-3.4334-17.1108-5.6327-1.3692,1.1642-2.1,2.3825-2.1,3.6375v20.6933c0,8.2213,31.2096,14.8858,69.7087,14.8858s69.7087-6.6645,69.7087-14.8858v-25.2687Zm-81.5715,24.449c2.0301,0,3.676,1.6457,3.676,3.676s-1.6458,3.676-3.676,3.676-3.676-1.6458-3.676-3.676,1.6457-3.676,3.676-3.676Zm-20.6629-1.7505c2.0302,0,3.676,1.6458,3.676,3.6761s-1.6457,3.676-3.676,3.676-3.6759-1.6458-3.6759-3.676,1.6457-3.6761,3.6759-3.6761Zm-18.905-5.6015c2.0301,0,3.676,1.6458,3.676,3.676s-1.6458,3.6761-3.676,3.6761-3.676-1.6458-3.676-3.6761,1.6457-3.676,3.676-3.676Z"/><path class="cls-6" d="m144.834,138.8477c-4.0611,2.1992-11.831,4.9948-19.2109,6.5706-13.5508,2.8936-31.4845,4.4872-50.4977,4.4872s-36.9472-1.5936-50.498-4.4872c-7.3799-1.5759-13.0498-3.4334-17.1108-5.6327-1.3692,1.1642-2.1,2.3825-2.1,3.6375v20.6933c0,8.2213,31.2096,14.8858,69.7087,14.8858s69.7087-6.6645,69.7087-14.8858v-25.2687Zm-81.5715,24.449c2.0301,0,3.676,1.6457,3.676,3.676s-1.6458,3.676-3.676,3.676-3.676-1.6458-3.676-3.676,1.6457-3.676,3.676-3.676Zm-20.6629-1.7505c2.0302,0,3.676,1.6458,3.676,3.6761s-1.6457,3.676-3.676,3.676-3.6759-1.6458-3.6759-3.676,1.6457-3.6761,3.6759-3.6761Zm-18.905-5.6015c2.0301,0,3.676,1.6458,3.676,3.676s-1.6458,3.6761-3.676,3.6761-3.676-1.6458-3.676-3.6761,1.6457-3.676,3.676-3.676Z"/></g></g><rect class="cls-5" x="81.0639" y="80.8427" width="6.2119" height="143.8637" rx="2" ry="2"/><g><path class="cls-2" d="m159.5214,74.2469c.026-4.2457-.9591-6.5549-5.1073-8.5802-14.2508-6.9574-21.0096-22.0111-17.3981-37.1535,3.4906-14.6355,16.6513-24.9554,31.8984-25.013,15.1815-.0573,28.1477,10.0923,31.9096,24.9781,3.7628,14.8894-3.0194,30.0839-17.317,37.1824-4.1424,2.0566-5.2258,4.4154-5.1093,8.6354l.139,42.0229c-.0084,5.0525-.0585,10.2011-.0585,15.5507,15.557,0,30.3203.1667,45.0681-.2344,1.6383-.0446,3.6106-3.0969,4.7112-5.1403,7.2876-13.5307,22.1163-20.453,36.9347-17.0145,14.279,3.3134,24.798,16.2372,25.2983,31.0818.4973,14.7546-9.1231,28.0426-23.4635,32.4084-15.2547,4.6442-31.4035-2.0965-38.6537-16.7084-2.0001-4.0308-4.2307-5.3-8.5642-5.21-13.3791.2776-26.7677.1014-40.5813.1014,0,15.2581-.8311,29.6167.2473,43.8304.9665,12.7384,6.2288,16.3388,19.0205,16.3377,6.8217-.0006,13.6584-.2734,20.46.0963,4.8019.2609,7.4268-1.1657,9.7367-5.7343,6.7204-13.2919,21.4997-19.9806,35.53-16.9311,14.3931,3.1283,24.8978,15.0039,26.1773,29.5936,1.2602,14.3702-7.4119,28.0746-21.1025,33.3478-15.3217,5.9014-33.0107-.3199-40.4048-15.0795-2.5808-5.1517-5.5586-6.4656-10.8014-6.2177-8.2146.3885-16.4622.0183-24.6941.1146-13.2065.1546-23.038-5.9553-27.9775-17.7208-3.3678-8.0219-5.4968-17.1237-5.7156-25.8047-.5634-22.3476-.4523-44.7139-.2975-67.0774l.1152-45.6617Zm111.7125,67.2856c.0087-7.3432-6.0221-13.6229-13.2758-13.8237-7.4978-.2076-14.008,6.1914-14.0245,13.7849-.0167,7.6668,6.3727,13.9635,13.975,13.7723,7.3382-.1845,13.3165-6.3459,13.3253-13.7335Zm-88.7146-104.9266c.152-7.7137-6.0615-14.1253-13.6537-14.0891-7.2143.0343-13.4454,6.1938-13.6453,13.4882-.2093,7.637,6.0198,13.9719,13.7424,13.976,7.4468.0039,13.4089-5.8783,13.5566-13.375Zm75.1584,170.7783c-7.7844-.0404-13.8766,6.1071-13.7494,13.8742.1205,7.3595,6.2072,13.4001,13.5485,13.4456,7.3542.0457,13.5423-5.9135,13.7529-13.2442.2236-7.7797-5.7994-14.0354-13.552-14.0756Z"/><path class="cls-4" d="m159.5214,74.2469c.026-4.2457-.9591-6.5549-5.1073-8.5802-14.2508-6.9574-21.0096-22.0111-17.3981-37.1535,3.4906-14.6355,16.6513-24.9554,31.8984-25.013,15.1815-.0573,28.1477,10.0923,31.9096,24.9781,3.7628,14.8894-3.0194,30.0839-17.317,37.1824-4.1424,2.0566-5.2258,4.4154-5.1093,8.6354l.139,42.0229c-.0084,5.0525-.0585,10.2011-.0585,15.5507,15.557,0,30.3203.1667,45.0681-.2344,1.6383-.0446,3.6106-3.0969,4.7112-5.1403,7.2876-13.5307,22.1163-20.453,36.9347-17.0145,14.279,3.3134,24.798,16.2372,25.2983,31.0818.4973,14.7546-9.1231,28.0426-23.4635,32.4084-15.2547,4.6442-31.4035-2.0965-38.6537-16.7084-2.0001-4.0308-4.2307-5.3-8.5642-5.21-13.3791.2776-26.7677.1014-40.5813.1014,0,15.2581-.8311,29.6167.2473,43.8304.9665,12.7384,6.2288,16.3388,19.0205,16.3377,6.8217-.0006,13.6584-.2734,20.46.0963,4.8019.2609,7.4268-1.1657,9.7367-5.7343,6.7204-13.2919,21.4997-19.9806,35.53-16.9311,14.3931,3.1283,24.8978,15.0039,26.1773,29.5936,1.2602,14.3702-7.4119,28.0746-21.1025,33.3478-15.3217,5.9014-33.0107-.3199-40.4048-15.0795-2.5808-5.1517-5.5586-6.4656-10.8014-6.2177-8.2146.3885-16.4622.0183-24.6941.1146-13.2065.1546-23.038-5.9553-27.9775-17.7208-3.3678-8.0219-5.4968-17.1237-5.7156-25.8047-.5634-22.3476-.4523-44.7139-.2975-67.0774l.1152-45.6617Zm111.7125,67.2856c.0087-7.3432-6.0221-13.6229-13.2758-13.8237-7.4978-.2076-14.008,6.1914-14.0245,13.7849-.0167,7.6668,6.3727,13.9635,13.975,13.7723,7.3382-.1845,13.3165-6.3459,13.3253-13.7335Zm-88.7146-104.9266c.152-7.7137-6.0615-14.1253-13.6537-14.0891-7.2143.0343-13.4454,6.1938-13.6453,13.4882-.2093,7.637,6.0198,13.9719,13.7424,13.976,7.4468.0039,13.4089-5.8783,13.5566-13.375Zm75.1584,170.7783c-7.7844-.0404-13.8766,6.1071-13.7494,13.8742.1205,7.3595,6.2072,13.4001,13.5485,13.4456,7.3542.0457,13.5423-5.9135,13.7529-13.2442.2236-7.7797-5.7994-14.0354-13.552-14.0756Z"/></g></svg>