<?xml version="1.0" encoding="UTF-8"?><svg id="Layer_1" xmlns="http://www.w3.org/2000/svg" xmlns:xlink="http://www.w3.org/1999/xlink" viewBox="0 0 265.3677 289.5917"><defs><style>.cls-1{fill:none;}.cls-2{clip-path:url(#clippath);}.cls-3,.cls-4{fill:#4f9dd6;}.cls-5{clip-path:url(#clippath-1);}.cls-6{clip-path:url(#clippath-2);}.cls-4{fill-rule:evenodd;}</style><clipPath id="clippath"><path class="cls-1" d="m255.2821,3.8068l-7.4363,7.4515-27.0523,1.4579-2.4299,6.8846.648,12.3112,7.8565,10.1244,12.3922,1.3769,9.6384-4.7715,1.7009-6.9728,8.8285-8.6665,3.8068,24.5415-11.0153,9.2334-37.5817-1.9439s-9.1524-5.1837-9.1524-5.5077.9719-44.7903.9719-44.7903l6.8036-4.5357h14.9031l26.9713.9719.1467,2.8348Z"/></clipPath><clipPath id="clippath-1"><path class="cls-1" d="m255.2821,67.3129l-7.4363,7.4515-27.0523,1.4579-2.4299,6.8846.648,12.3112,7.8565,10.1244,12.3922,1.3769,9.6384-4.7715,1.7009-6.9728,8.8285-8.6665,3.8068,24.5415-11.0153,9.2334-37.5817-1.9439s-9.1524-5.1837-9.1524-5.5077.9719-44.7903.9719-44.7903l6.8036-4.5357h14.9031l26.9713.9719.1467,2.8348Z"/></clipPath><clipPath id="clippath-2"><path class="cls-1" d="m255.2821,130.819l-7.4363,7.4515-27.0523,1.4579-2.4299,6.8846.648,12.3112,7.8565,10.1244,12.3922,1.3769,9.6384-4.7715,1.7009-6.9728,8.8285-8.6665,3.8068,24.5415-11.0153,9.2334-37.5817-1.9439s-9.1524-5.1837-9.1524-5.5077.9719-44.7903.9719-44.7903l6.8036-4.5357h14.9031l26.9713.9719.1467,2.8348Z"/></clipPath></defs><path class="cls-3" d="m237.6611,25.6127c-2.5339-2.5372-5.0697-5.0727-7.6056-7.608-1.0712-1.0709-2.5162-1.0883-3.5968-.025-1.0953,1.0777-2.1839,2.1625-3.2587,3.2605-1.0744,1.0976-1.0776,2.5072.0137,3.6023,4.3152,4.3302,8.6372,8.6537,12.9684,12.9678,1.1034,1.099,2.5446,1.1131,3.6443.0156,8.2699-8.2538,16.5312-16.5162,24.7856-24.7856.9466-.9484,1.0243-2.3098.1184-3.3036-1.1397-1.2502-2.3405-2.4524-3.592-3.5906-1.1102-1.0097-2.381-.9155-3.429.1311-4.7931,4.7871-9.5818,9.5785-14.3714,14.3691-1.7635,1.7639-3.525,3.5297-5.3517,5.3589-.135-.1643-.2206-.288-.3251-.3927Z"/><g><path class="cls-4" d="m89.5809,68.7884c49.4742,0,89.5809-8.5644,89.5809-19.1294v-28.3419c0-10.565-40.1067-19.1294-89.5809-19.1294S0,10.7521,0,21.3171v28.3419c0,10.565,40.1067,19.1294,89.5809,19.1294Zm-41.798-13.9729c-2.6089,0-4.7238-2.115-4.7238-4.7239s2.1149-4.724,4.7238-4.724,4.7239,2.115,4.7239,4.724-2.1149,4.7239-4.7239,4.7239Zm26.5534,2.2494c-2.609,0-4.7239-2.115-4.7239-4.7239s2.1149-4.7239,4.7239-4.7239,4.7239,2.1149,4.7239,4.7239-2.115,4.7239-4.7239,4.7239Zm15.2447-47.4645c39.1106,0,70.8161,3.3237,70.8161,7.4239s-31.7054,7.4239-70.8161,7.4239-70.8162-3.3238-70.8162-7.4239,31.7054-7.4239,70.8162-7.4239ZM23.4886,38.1692c2.6089,0,4.7239,2.115,4.7239,4.7239s-2.115,4.724-4.7239,4.724-4.7239-2.115-4.7239-4.724,2.1149-4.7239,4.7239-4.7239Z"/><path class="cls-4" d="m89.5809,204.279c7.2559,0,14.3017-.1889,21.0576-.5366l-2.179-5.0844,21.4887-21.4895,14.2769,6.1185,5.7689-14.4212h29.1677v-12.0579c0-1.6127-.9391-3.1784-2.6988-4.6744-5.2188,2.8261-12.505,5.2133-21.9887,7.2384-17.4138,3.7185-40.4599,5.7664-64.8933,5.7664s-47.4799-2.0478-64.8937-5.7664c-9.4837-2.0251-16.7699-4.4122-21.9887-7.2384-1.7596,1.4961-2.6986,3.0618-2.6986,4.6744v28.3419c0,10.5649,40.1067,19.1294,89.5809,19.1294Zm-15.2447-20.3839c2.6089,0,4.7239,2.1149,4.7239,4.7239s-2.115,4.7239-4.7239,4.7239-4.7239-2.115-4.7239-4.7239,2.1149-4.7239,4.7239-4.7239Zm-26.5534-2.2496c2.609,0,4.7239,2.115,4.7239,4.724s-2.1149,4.7239-4.7239,4.7239-4.7238-2.115-4.7238-4.7239,2.1149-4.724,4.7238-4.724Zm-24.2943-7.1983c2.6089,0,4.7239,2.115,4.7239,4.7239s-2.115,4.724-4.7239,4.724-4.7239-2.115-4.7239-4.724,2.1149-4.7239,4.7239-4.7239Z"/><path class="cls-4" d="m179.1617,106.5988c-5.2188,2.8261-15.2038,6.4186-24.6874,8.4438-17.4138,3.7185-40.4599,5.7664-64.8933,5.7664s-47.4799-2.0478-64.8937-5.7664c-9.4837-2.0251-16.7699-4.4122-21.9887-7.2384-1.7596,1.4961-2.6986,3.0618-2.6986,4.6744v26.5924c0,10.565,40.1067,19.1294,89.5809,19.1294s89.5809-8.5644,89.5809-19.1294v-32.4722Zm-104.8255,31.4187c2.6089,0,4.7239,2.1149,4.7239,4.7239s-2.115,4.7239-4.7239,4.7239-4.7239-2.115-4.7239-4.7239,2.1149-4.7239,4.7239-4.7239Zm-26.5534-2.2496c2.609,0,4.7239,2.115,4.7239,4.724s-2.1149,4.7239-4.7239,4.7239-4.7238-2.115-4.7238-4.7239,2.1149-4.724,4.7238-4.724Zm-24.2943-7.1983c2.6089,0,4.7239,2.115,4.7239,4.7239s-2.115,4.724-4.7239,4.724-4.7239-2.115-4.7239-4.724,2.1149-4.7239,4.7239-4.7239Z"/><path class="cls-4" d="m179.1617,62.7257c-5.2188,2.8261-15.2038,6.4186-24.6874,8.4438-17.4138,3.7185-40.4599,5.7664-64.8933,5.7664s-47.4799-2.0478-64.8937-5.7664c-9.4837-2.0251-16.7699-4.4122-21.9887-7.2384-1.7596,1.4961-2.6986,3.0618-2.6986,4.6744v26.5924c0,10.565,40.1067,19.1294,89.5809,19.1294s89.5809-8.5644,89.5809-19.1294v-32.4722Zm-104.8255,31.4187c2.6089,0,4.7239,2.1149,4.7239,4.7239s-2.115,4.7239-4.7239,4.7239-4.7239-2.115-4.7239-4.7239,2.1149-4.7239,4.7239-4.7239Zm-26.5534-2.2496c2.609,0,4.7239,2.115,4.7239,4.724s-2.1149,4.7239-4.7239,4.7239-4.7238-2.115-4.7238-4.7239,2.1149-4.724,4.7238-4.724Zm-24.2943-7.1983c2.6089,0,4.7239,2.115,4.7239,4.7239s-2.115,4.724-4.7239,4.724-4.7239-2.115-4.7239-4.724,2.1149-4.7239,4.7239-4.7239Z"/><path class="cls-4" d="m100.1562,218.7043l14.4214-5.7699-.826-1.9273c-7.7906.4549-15.897.6952-24.1706.6952-24.4334,0-47.4799-2.048-64.8937-5.7665-8.3823-1.79-15.0453-3.8632-20.0847-6.2719-2.9835,1.9065-4.6026,3.9462-4.6026,6.067v28.3419c0,10.5649,40.1067,19.1294,89.5809,19.1294,6.7621,0,13.3398-.1652,19.6734-.4684l-9.0981-3.6401v-30.3893Zm-77.7972,11.7548c-2.6089,0-4.7238-2.115-4.7238-4.7239s2.1149-4.7239,4.7238-4.7239,4.7239,2.115,4.7239,4.7239-2.1149,4.7239-4.7239,4.7239Zm24.2944,7.1983c-2.609,0-4.7239-2.115-4.7239-4.7239s2.1149-4.7239,4.7239-4.7239,4.7239,2.115,4.7239,4.7239-2.115,4.7239-4.7239,4.7239Zm26.5532,2.2494c-2.6089,0-4.7239-2.1149-4.7239-4.7238s2.115-4.724,4.7239-4.724,4.7239,2.115,4.7239,4.724-2.1149,4.7238-4.7239,4.7238Z"/><path class="cls-4" d="m206.5432,219.2914c-.5216-1.4719-1.1129-2.9107-1.7826-4.3062l6.0825-14.1939-6.273-6.2731-6.2731-6.273-14.1939,6.0825c-1.3953-.6696-2.8343-1.261-4.3062-1.7826l-5.7362-14.3388h-17.7427l-5.7361,14.3387c-1.472.5216-2.911,1.1131-4.3064,1.7828l-14.1938-6.0825-6.2731,6.273-6.273,6.2731,6.0826,14.194c-.6697,1.3955-1.261,2.8343-1.7825,4.3061l-14.3391,5.7362v17.7428l14.3389,5.7362c.5215,1.4719,1.1129,2.9107,1.7826,4.3062l-6.0826,14.1939,6.273,6.273,6.2731,6.2731,14.1939-6.0826c1.3954.6697,2.8343,1.2612,4.3063,1.7826l5.7361,14.3389h17.7428l5.7362-14.3392c1.4718-.5214,2.9107-1.1128,4.3061-1.7824l14.194,6.0826,6.273-6.2731,6.2731-6.273-6.0825-14.1938c.6697-1.3956,1.2612-2.8345,1.7826-4.3066l14.3388-5.7361v-17.7427l-14.3389-5.7362Zm-41.3541,37.7717c-12.7728,0-23.1639-10.391-23.1639-23.1638s10.3911-23.1647,23.1639-23.1647,23.1647,10.3918,23.1647,23.1647-10.3918,23.1638-23.1647,23.1638Z"/></g><g class="cls-2"><path class="cls-3" d="m233.4992,2.1668c5.5136.0002,11.0272-.0208,16.5407.0068,4.4821.0224,7.7972,2.8358,8.529,7.1891.0887.5274.0927,1.0734.0929,1.6108.0046,10.9054.007,21.8107.0007,32.7161-.003,5.2176-3.5892,8.8352-8.7927,8.8415-10.9372.0131-21.8745.0143-32.8117-.0006-5.1511-.0071-8.7537-3.6335-8.757-8.7845-.0071-10.9353-.0066-21.8707-.0002-32.806.003-5.1794,3.5578-8.7506,8.7475-8.769,5.4835-.0194,10.9672-.0044,16.4508-.0042Zm-18.179,25.1198c0,4.9243-.0036,9.8487.0016,14.773.0024,2.2501,1.205,3.4559,3.4604,3.457,9.7824.0049,19.5649.0043,29.3473.0005,2.3225-.0009,3.5121-1.1905,3.5129-3.509.0033-9.7807.003-19.5615.0001-29.3422-.0007-2.3002-1.1368-3.4818-3.4108-3.4843-9.8504-.0108-19.7007-.0115-29.5511.0011-2.2106.0028-3.3566,1.1991-3.3589,3.4326-.0049,4.8904-.0015,9.7808-.0016,14.6712Z"/></g><path class="cls-3" d="m237.6611,89.1188c-2.5339-2.5372-5.0697-5.0727-7.6056-7.608-1.0712-1.0709-2.5162-1.0883-3.5968-.025-1.0953,1.0777-2.1839,2.1625-3.2587,3.2605-1.0744,1.0976-1.0776,2.5072.0137,3.6023,4.3152,4.3302,8.6372,8.6537,12.9684,12.9678,1.1034,1.099,2.5446,1.1131,3.6443.0156,8.2699-8.2538,16.5312-16.5162,24.7856-24.7856.9466-.9484,1.0243-2.3098.1184-3.3036-1.1397-1.2502-2.3405-2.4524-3.592-3.5906-1.1102-1.0097-2.381-.9155-3.429.1311-4.7931,4.7871-9.5818,9.5785-14.3714,14.3691-1.7635,1.7639-3.525,3.5297-5.3517,5.3589-.135-.1643-.2206-.288-.3251-.3927Z"/><g class="cls-5"><path class="cls-3" d="m233.4992,65.6729c5.5136.0002,11.0272-.0208,16.5407.0068,4.4821.0224,7.7972,2.8358,8.529,7.1891.0887.5274.0927,1.0734.0929,1.6108.0046,10.9054.007,21.8107.0007,32.7161-.003,5.2176-3.5892,8.8352-8.7927,8.8415-10.9372.0131-21.8745.0143-32.8117-.0006-5.1511-.0071-8.7537-3.6335-8.757-8.7845-.0071-10.9353-.0066-21.8707-.0002-32.806.003-5.1794,3.5578-8.7506,8.7475-8.769,5.4835-.0194,10.9672-.0044,16.4508-.0042Zm-18.179,25.1198c0,4.9243-.0036,9.8487.0016,14.773.0024,2.2501,1.205,3.4559,3.4604,3.457,9.7824.0049,19.5649.0043,29.3473.0005,2.3225-.0009,3.5121-1.1905,3.5129-3.509.0033-9.7807.003-19.5615.0001-29.3422-.0007-2.3002-1.1368-3.4818-3.4108-3.4843-9.8504-.0108-19.7007-.0115-29.5511.0011-2.2106.0028-3.3566,1.1991-3.3589,3.4326-.0049,4.8904-.0015,9.7808-.0016,14.6712Z"/></g><path class="cls-3" d="m237.6611,152.6249c-2.5339-2.5372-5.0697-5.0727-7.6056-7.608-1.0712-1.0709-2.5162-1.0883-3.5968-.025-1.0953,1.0777-2.1839,2.1625-3.2587,3.2605-1.0744,1.0976-1.0776,2.5072.0137,3.6023,4.3152,4.3302,8.6372,8.6537,12.9684,12.9678,1.1034,1.099,2.5446,1.1131,3.6443.0156,8.2699-8.2538,16.5312-16.5162,24.7856-24.7856.9466-.9484,1.0243-2.3098.1184-3.3036-1.1397-1.2502-2.3405-2.4524-3.592-3.5906-1.1102-1.0097-2.381-.9155-3.429.1311-4.7931,4.7871-9.5818,9.5785-14.3714,14.3691-1.7635,1.7639-3.525,3.5297-5.3517,5.3589-.135-.1643-.2206-.288-.3251-.3927Z"/><g class="cls-6"><path class="cls-3" d="m233.4992,129.1791c5.5136.0002,11.0272-.0208,16.5407.0068,4.4821.0224,7.7972,2.8358,8.529,7.1891.0887.5274.0927,1.0734.0929,1.6108.0046,10.9054.007,21.8107.0007,32.7161-.003,5.2176-3.5892,8.8352-8.7927,8.8415-10.9372.0131-21.8745.0143-32.8117-.0006-5.1511-.0071-8.7537-3.6335-8.757-8.7845-.0071-10.9353-.0066-21.8707-.0002-32.806.003-5.1794,3.5578-8.7506,8.7475-8.769,5.4835-.0194,10.9672-.0044,16.4508-.0042Zm-18.179,25.1198c0,4.9243-.0036,9.8487.0016,14.773.0024,2.2501,1.205,3.4559,3.4604,3.457,9.7824.0049,19.5649.0043,29.3473.0005,2.3225-.0009,3.5121-1.1905,3.5129-3.509.0033-9.7807.003-19.5615.0001-29.3422-.0007-2.3002-1.1368-3.4818-3.4108-3.4843-9.8504-.0108-19.7007-.0115-29.5511.0011-2.2106.0028-3.3566,1.1991-3.3589,3.4326-.0049,4.8904-.0015,9.7808-.0016,14.6712Z"/></g></svg>