<?xml version="1.0" encoding="UTF-8"?><svg id="Layer_1" xmlns="http://www.w3.org/2000/svg" viewBox="0 0 297.2917 255.062"><defs><style>.cls-1{fill:#4a9cd5;}</style></defs><g><g><rect class="cls-1" x="23.2808" y="249.973" width="218.3186" height="5.089"/><path class="cls-1" d="m219.9881,218.7927v-16.2245h-7.7624v14.2376H53.06v-94.3718h5.3501l-3.6464-7.7622h-4.6147c-2.68,0-4.8521,2.1718-4.8521,4.8512v98.8958h-.1167l-21.8995,28.4879h80.8933l5.4014-7.0266h45.7288l5.4016,7.0266h80.8936l-21.6113-28.114Z"/></g><path class="cls-1" d="m32.3561,0h-15.4517C7.6072,0,0,7.6069,0,16.9044v15.7304c0,.9345.7554,1.6905,1.6905,1.6905h6.7617c.9323,0,1.6905-.756,1.6905-1.6905v-15.7304c0-3.6648,3.0953-6.7617,6.7617-6.7617h15.4517c.9339,0,1.6905-.758,1.6905-1.6905V1.6905c0-.9331-.7566-1.6905-1.6905-1.6905Z"/><path class="cls-1" d="m200.1295,0h-15.1821c-.9339,0-1.6901.7574-1.6901,1.6905v6.7617c0,.9325.7562,1.6905,1.6901,1.6905h15.1821c3.664,0,6.7621,3.0968,6.7621,6.7617v15.7304c0,.9345.7554,1.6905,1.6901,1.6905h6.7621c.9339,0,1.6901-.756,1.6901-1.6905v-15.7304c0-9.2975-7.6072-16.9044-16.9044-16.9044Z"/><path class="cls-1" d="m32.3561,158.9015h-15.4517c-3.6664,0-6.7617-3.0968-6.7617-6.7617v-14.9018c0-.9347-.7582-1.6905-1.6905-1.6905H1.6905c-.9351,0-1.6905.7558-1.6905,1.6905v14.9018c0,9.2973,7.6072,16.9044,16.9044,16.9044h15.4517c.9339,0,1.6905-.7574,1.6905-1.6905v-6.7617c0-.9331-.7566-1.6905-1.6905-1.6905Z"/><g><circle class="cls-1" cx="271.9018" cy="125.9187" r="2.4259"/><path class="cls-1" d="m292.4396,41.9872h-41.0762c-2.6794,0-4.8515,2.1721-4.8515,4.8515v81.1821c0,2.6794,2.1721,4.8515,4.8515,4.8515h41.0762c2.6794,0,4.8521-2.1721,4.8521-4.8515V46.8387c0-2.6794-2.1727-4.8515-4.8521-4.8515Zm-25.753,3.7198h10.4305c.4686,0,.8491.3805.8491.8491s-.3805.8494-.8491.8494h-10.4305c-.4698,0-.8496-.3805-.8496-.8494s.3798-.8491.8496-.8491Zm5.2152,84.0931c-2.1441,0-3.8809-1.7374-3.8809-3.8815s1.7368-3.881,3.8809-3.881,3.8816,1.7369,3.8816,3.881-1.7374,3.8815-3.8816,3.8815Zm21.0237-10.1885h-42.0473V50.7202h42.0473v68.8914Z"/></g><path class="cls-1" d="m257.0087,139.2417v39.4191h-83.4462v-103.6601h66.9215v-7.763h-69.8326c-2.6788,0-4.8515,2.1727-4.8515,4.8521v115.4666c0,2.6788,2.1727,4.8515,4.8515,4.8515h89.2682c2.6794,0,4.8515-2.1726,4.8515-4.8515v-48.3146h-7.7624Zm-41.7228,50.4159c-2.1441,0-3.8816-1.7374-3.8816-3.8816s1.7374-3.8809,3.8816-3.8809,3.8809,1.7374,3.8809,3.8809-1.7374,3.8816-3.8809,3.8816Z"/></g><g><path class="cls-1" d="m75.7878,115.4915c19.3209-4.7265,48.5185-11.8694,49.8725-53.7427.1545-4.7756-1.6205-9.3272-4.9984-12.8151-3.4738-3.5856-8.3272-5.6411-13.4345-5.6411-5.0444,0-9.9234,2.1262-13.3854,5.8339-3.3205,3.5579-4.2131,8.2628-4.8609,11.6979-2.6547,13.9976-11.6965,20.8913-27.6387,21.0696-2.334.0265-4.2065,1.9415-4.1797,4.277.0263,2.333,1.9142,4.2314,4.274,4.1785,19.7438-.2231,32.4748-10.1492,35.8519-27.9517.6155-3.2488,1.2059-5.8638,2.7341-7.4998,1.8961-2.0319,4.4541-3.1497,7.3202-3.1497,2.7136,0,5.355,1.1178,7.2439,3.069,1.7695,1.8293,2.7042,4.1931,2.6248,6.6595-1.1461,35.4577-24.5941,41.1927-43.4331,45.8017-3.5894.8785-6.9798,1.707-9.9049,2.6995-2.2121.7496-3.3971,3.148-2.6484,5.3601.5982,1.7616,2.2416,2.8724,4.0056,2.8724.4493,0,.9056-.0727,1.3564-.2244,2.5772-.8734,5.794-1.6611,9.2006-2.4943Z"/><path class="cls-1" d="m153.0204,96.1406c-7.5042-2.2715-14.2325-5.2944-14.1311-17.2134.0236-2.6478.1753-4.4044.3408-6.2664.2276-2.58.4858-5.5053.4092-11.0191-.2476-17.8406-14.7619-32.3547-32.3561-32.3547-16.0695,0-28.6386,10.9416-32.026,27.8726-2.0187,10.0851-7.3061,10.4218-12.11,9.9346-2.3277-.2392-4.3959,1.4626-4.6294,3.7855-.2327,2.3225,1.4622,4.3959,3.7867,4.629,14.4915,1.446,19.5591-8.274,21.2437-16.6884,2.602-13.0018,11.6957-21.0777,23.7349-21.0777,12.9955,0,23.7192,10.7732,23.9016,24.0148.0684,5.0845-.1556,7.6665-.3773,10.1606-.1721,1.9432-.3467,3.9539-.3726,6.9368-.1651,19.2386,14.065,23.5392,20.14,25.3783.4064.1222.8183.1816,1.2251.1816,1.8147,0,3.4923-1.1772,4.0441-3.0045.6761-2.2353-.588-4.5944-2.8237-5.2695Z"/><path class="cls-1" d="m154.5203,82.0987c-.3734-.2529-2.0572-1.6046-1.6543-5.3652.5849-5.4444.8914-14.3655.9044-14.7438l.0032-.1419c0-25.6439-20.8562-46.505-46.4903-46.505-18.9726,0-36.3735,11.9038-43.301,29.6236-.8172,2.0918-1.4398,4.5747-1.9905,6.7652-.3003,1.1984-.6406,2.5554-.836,3.054-.851,2.1744.2213,4.6274,2.3956,5.4791,2.1713.85,4.627-.2231,5.4776-2.3954.3915-1.0019.7326-2.3607,1.1634-4.0789.489-1.9466,1.044-4.1522,1.6642-5.7468,5.6706-14.5023,19.9066-24.2455,35.4266-24.2455,20.949,0,37.9957,17.03,38.0349,37.977-.0291.8584-.3325,9.1587-.8584,14.057-1.0034,9.3122,4.9926,13.8042,7.878,14.425.2999.0627.5978.0937.8914.0937,1.9515,0,3.7045-1.3584,4.1306-3.3411.4587-2.1443-.7924-4.256-2.8394-4.911Z"/><path class="cls-1" d="m63.6779,104.3253c.836-.1749,1.7039-.3498,2.602-.5302,16.4233-3.3095,43.9119-8.8482,45.2294-42.1335.0928-2.333-1.7231-4.2988-4.0571-4.3912-2.33-.068-4.2996,1.7249-4.392,4.0577-1.0526,26.6423-22.6682,30.9991-38.45,34.1787-.915.1847-1.8018.3632-2.6515.5395-2.2868.4754-3.7537,2.7158-3.278,5.0006.415,1.9955,2.1728,3.3677,4.1333,3.3677.2869,0,.5754-.0283.8639-.0892Z"/><path class="cls-1" d="m150.317,109.8524c-4.2127-.9264-8.0364-2.3807-12.4763-4.2792-3.4282-1.4657-7.2373-4.3204-9.9482-7.4534-1.5321-1.7664-4.2001-1.9594-5.963-.4308-1.7668,1.5288-1.961,4.1978-.4328,5.963,3.5524,4.1039,8.42,7.729,13.0187,9.6966,4.2261,1.8041,8.8417,3.6318,13.9856,4.761.3066.0676.6104.1006.9111.1006,1.9417,0,3.6916-1.347,4.1235-3.3229.5019-2.2801-.9374-4.5331-3.2187-5.035Z"/><path class="cls-1" d="m146.0551,123.3593c-7.8579-1.6705-13.2832-4.5528-18.0667-7.097-4.7316-2.5175-8.8193-4.6899-13.6264-4.6899-3.8326,0-8.3052,1.4264-15.0736,3.5839-7.1811,2.2899-17.0165,5.4277-30.6055,8.1948-2.2852.4673-3.7631,2.6991-3.2954,4.987.4646,2.2883,2.6964,3.7654,4.9863,3.2985,14.0328-2.8591,24.1189-6.075,31.4843-8.4243,5.7952-1.8469,9.9844-3.1841,12.5038-3.1841,2.6971,0,5.7685,1.6324,9.6569,3.699,5.0157,2.6677,11.2558,5.9858,20.2827,7.9027.2932.0629.5911.0924.882.0924,1.9542,0,3.7073-1.3619,4.1294-3.3512.485-2.2832-.9732-4.5284-3.258-5.0118Z"/><path class="cls-1" d="m138.1866,135.2652c-3.1271-.8388-6.7354-2.5293-10.2249-4.1656-5.3259-2.4928-10.3538-4.8467-14.7749-4.8467-3.2427,0-8.7796,1.5604-17.549,4.1058-6.3486,1.8422-13.5438,3.9305-18.74,4.822-2.3009.3946-3.8456,2.5804-3.4526,4.8817.3962,2.2997,2.5714,3.8464,4.8825,3.4514,5.6659-.9705,13.1052-3.1299,19.6684-5.0343,6.0868-1.7683,12.9881-3.7709,15.1907-3.7709,2.5384,0,6.9362,2.0588,11.1859,4.0496,3.8232,1.7907,7.7789,3.6417,11.6285,4.6718.3659.0991.7326.147,1.0958.147,1.8662,0,3.5752-1.2479,4.0806-3.135.6037-2.2569-.7326-4.5747-2.9911-5.1769Z"/><path class="cls-1" d="m127.2487,145.5003c-1.0109-.3698-2.0706-.8356-3.1932-1.3273-3.5791-1.575-7.6362-3.3579-12.8658-3.3579-2.3744,0-5.7948.7877-11.1804,2.0769-3.9148.9343-8.3524,1.9955-11.5951,2.3803-2.3206.274-3.9754,2.3772-3.701,4.697.2751,2.319,2.3834,3.973,4.697,3.7006,3.7317-.4454,8.4255-1.5651,12.5643-2.5557,3.6184-.8651,7.7188-1.8438,9.2151-1.8438,3.4526,0,6.371,1.2825,9.4651,2.6429,1.1925.5255,2.4267,1.0667,3.6884,1.5274.4787.1749.97.2594,1.4527.2594,1.7224,0,3.3441-1.0632,3.9679-2.7773.803-2.1925-.3227-4.6203-2.5151-5.4226Z"/></g></svg>