<?xml version="1.0" encoding="UTF-8"?><svg id="Layer_1" xmlns="http://www.w3.org/2000/svg" viewBox="0 0 271.4311 271.1743"><defs><style>.cls-1{fill:#4a9cd5;}.cls-2{fill:#4c9bd5;}.cls-3{fill:none;stroke:#fff;stroke-miterlimit:10;stroke-width:11px;}</style></defs><path class="cls-2" d="m51.9019,0h-24.7893C12.206,0,0,12.206,0,27.1126v25.2375c0,1.4977,1.2147,2.7124,2.7124,2.7124h10.8498c1.4859,0,2.7124-1.2147,2.7124-2.7124v-25.2375c0-5.873,4.9649-10.838,10.838-10.838h24.7893c1.4977,0,2.7124-1.2265,2.7124-2.7124V2.7125c0-1.4977-1.2147-2.7125-2.7124-2.7125"/><path class="cls-2" d="m51.9019,254.8997h-24.7893c-5.873,0-10.838-4.9649-10.838-10.8498v-23.9048c0-1.4977-1.2265-2.7124-2.7124-2.7124H2.7124c-1.4977,0-2.7124,1.2147-2.7124,2.7124v23.9048c0,14.9184,12.206,27.1244,27.1126,27.1244h24.7893c1.4977,0,2.7124-1.2147,2.7124-2.7124v-10.8498c0-1.4977-1.2147-2.7124-2.7124-2.7124"/><path class="cls-2" d="m219.5292,271.1743h24.7893c14.9066,0,27.1126-12.206,27.1126-27.1126v-25.2375c0-1.4977-1.2147-2.7124-2.7124-2.7124h-10.8498c-1.4859,0-2.7124,1.2147-2.7124,2.7124v25.2375c0,5.873-4.9649,10.838-10.838,10.838h-24.7893c-1.4977,0-2.7124,1.2265-2.7124,2.7124v10.8498c0,1.4977,1.2147,2.7125,2.7124,2.7125"/><path class="cls-2" d="m219.5292,16.2746h24.7893c5.873,0,10.838,4.9649,10.838,10.8498v23.9048c0,1.4977,1.2265,2.7124,2.7124,2.7124h10.8498c1.4977,0,2.7124-1.2147,2.7124-2.7124v-23.9048c0-14.9184-12.206-27.1244-27.1126-27.1244h-24.7893c-1.4977,0-2.7124,1.2147-2.7124,2.7124v10.8498c0,1.4977,1.2147,2.7124,2.7124,2.7124"/><path class="cls-2" d="m133.755,155.1855c.2367,2.2298.8035,4.563,1.3666,6.8921,2.5254,10.4449,5.1218,20.8729,7.5975,31.3296,1.2538,5.2956,2.3279,10.6344,3.4346,15.9637.2994,1.4415.5387,2.9083.5608,4.5262-.6354.2393-1.2046.4942-1.7971.6707-5.5628,1.6567-11.2133,2.9449-16.9236,3.9725-6.3388,1.1408-12.7299,1.8879-19.1401,2.4768-1.8313.1683-3.667.3167-5.504.3885-7.28.2846-14.558.7122-21.8495.3336-2.402-.1248-4.8083-.1663-7.2124-.2537-1.0522-.0382-2.0996-.123-3.3459-.4186.3243-.3892.4823-.6942.7327-.8595,1.1207-.74,2.2403-1.4889,3.4103-2.1458,3.6385-2.043,7.3008-4.0436,10.9511-6.0657.6748-.3738,1.3367-.7708,1.9434-1.1217.9222-8.9731-1.7522-27.7778-4.5529-35.1759-1.2761.1714-2.5961.3175-3.9055.53-5.6605.9184-11.3563,1.5257-17.0771,1.8697-2.8943.174-5.7914.1694-8.6846-.2359-2.8999-.4062-5.1588-1.8831-7.0232-4.0087-1.2815-1.4609-1.7738-3.2193-1.228-5.1449.4041-1.4255.8388-2.8485,1.3716-4.2295.412-1.0679.3567-2.0543-.0394-3.0886-.2882-.7527-.7075-1.3195-1.4236-1.761-1.6981-1.0469-2.039-2.3476-1.1165-4.1392,1.0753-2.0884,2.8319-3.4958,4.8493-4.6071.5491-.3025,1.1217-.5622,1.8883-.9433-.7113-.2723-1.2129-.4711-1.7193-.657-1.999-.7335-3.9301-1.5983-5.6549-2.8724-1.0907-.8057-2.0699-1.7191-2.7631-2.8988-.7883-1.3416-.744-1.8462.2182-3.057.044-.0553.0912-.1082.1397-.1598,1.6871-1.7928,1.5901-3.2837-.4072-5.0769-.7323-.6574-1.5913-1.1725-2.3817-1.7668-.9031-.6791-1.866-1.2993-2.6763-2.077-2.1695-2.0821-2.5532-4.3041-1.0728-6.8994.7628-1.3373,1.7748-2.5504,2.7851-3.7243,1.3834-1.6076,2.9137-3.0885,4.3028-4.6914,1.11-1.2808,2.1592-2.6234,3.1359-4.0087,1.6768-2.3783,2.5088-5.0193,2.4117-7.9721-.122-3.7112-.6367-7.3336-2.1791-10.7359-.5016-1.1065-.5244-2.1975-.3165-3.3114.259-1.3879.5733-2.7715.9657-4.1274,1.2049-4.1636,2.92-8.1183,5.1459-11.8348.6831-1.1406.9934-2.2901.9765-3.6032-.0335-2.617-.0504-5.2393.4127-7.831.1863-1.0425.3581-2.0931.6369-3.1125.8925-3.2636,2.7335-5.8543,5.5469-7.7715,3.3324-2.2708,7.0471-3.5613,10.9403-4.4332,3.5957-.8053,7.2543-1.19,10.9012-1.6543,3.9983-.509,7.9925-1.0531,11.9958-1.5185,3.301-.3838,6.606-.7895,9.921-.9851,8.6774-.5121,16.8694,1.3197,24.5542,5.3908,7.8121,4.1385,4.176,18.004,10.2529,24.4473,3.965,4.204,17.9119.1758,20.0372,5.5871,2.1824,5.5566-3.4239,3.687-3.9345,9.6455-.3992,4.6578.5771,5.58-.379,10.1493-1.2989,6.2073-11.9848.9011-15.0872,6.4121-3.018,5.361,6.9585,33.0966,3.8087,38.3828-1.8827,3.1594-3.804,6.2966-5.7592,9.4115-.5531.8812-1.2868,1.6489-2.0417,2.5997Z"/><g><path class="cls-3" d="m138.5425,95.3504c.0192-3.1371-.7087-4.8435-3.7738-6.3399-10.53-5.1408-15.5241-16.264-12.8555-27.4528,2.5792-10.8142,12.3037-18.4396,23.5698-18.4821,11.2176-.0423,20.7984,7.4572,23.5781,18.4564,2.7804,11.0018-2.231,22.229-12.7956,27.4742-3.0608,1.5197-3.8614,3.2625-3.7753,6.3807l.1027,31.0508c-.0062,3.7333-.0432,7.5376-.0432,11.4904,11.4951,0,22.4037.1232,33.3009-.1732,1.2105-.0329,2.6679-2.2883,3.4811-3.7982,5.3848-9.9979,16.3418-15.1128,27.2911-12.5721,10.5508,2.4483,18.3233,11.9977,18.693,22.9664.3675,10.9022-6.7411,20.7207-17.3372,23.9466-11.2718,3.4316-23.2041-1.5491-28.5613-12.3458-1.4778-2.9784-3.1261-3.9162-6.3281-3.8497-9.8859.2051-19.7787.0749-29.9856.0749,0,11.2742-.6141,21.8838.1827,32.3864.7141,9.4125,4.6025,12.0728,14.0543,12.072,5.0406-.0005,10.0922-.202,15.1179.0712,3.5481.1928,5.4877-.8613,7.1944-4.2371,4.9657-9.8214,15.8862-14.7637,26.2532-12.5105,10.6351,2.3115,18.397,11.0864,19.3424,21.8668.9312,10.6182-5.4767,20.7444-15.5927,24.6407-11.3212,4.3606-24.3917-.2364-29.8552-11.1423-1.907-3.8066-4.1073-4.7775-7.9812-4.5943-6.0698.287-12.1639.0135-18.2465.0847-9.7583.1142-17.0228-4.4004-20.6726-13.0939-2.4885-5.9274-4.0616-12.6527-4.2233-19.0671-.4163-16.5127-.3342-33.0392-.2198-49.5636l.0851-33.7395Zm82.5446,49.7174c.0064-5.4259-4.4498-10.066-9.8095-10.2144-5.5401-.1534-10.3505,4.5749-10.3627,10.1857-.0123,5.665,4.7088,10.3176,10.3262,10.1764,5.4222-.1364,9.8396-4.689,9.8461-10.1477Zm-65.5514-77.5304c.1123-5.6996-4.4788-10.4372-10.0888-10.4105-5.3306.0254-9.9349,4.5766-10.0826,9.9664-.1546,5.643,4.448,10.3239,10.1543,10.3269,5.5025.0029,9.9078-4.3435,10.017-9.8828Zm55.5347,126.1884c-5.7519-.0299-10.2535,4.5125-10.1595,10.2517.0891,5.438,4.5865,9.9013,10.011,9.935,5.434.0338,10.0064-4.3695,10.1621-9.7862.1652-5.7484-4.2852-10.3708-10.0136-10.4005Z"/><path class="cls-1" d="m138.5425,95.3504c.0192-3.1371-.7087-4.8435-3.7738-6.3399-10.53-5.1408-15.5241-16.264-12.8555-27.4528,2.5792-10.8142,12.3037-18.4396,23.5698-18.4821,11.2176-.0423,20.7984,7.4572,23.5781,18.4564,2.7804,11.0018-2.231,22.229-12.7956,27.4742-3.0608,1.5197-3.8614,3.2625-3.7753,6.3807l.1027,31.0508c-.0062,3.7333-.0432,7.5376-.0432,11.4904,11.4951,0,22.4037.1232,33.3009-.1732,1.2105-.0329,2.6679-2.2883,3.4811-3.7982,5.3848-9.9979,16.3418-15.1128,27.2911-12.5721,10.5508,2.4483,18.3233,11.9977,18.693,22.9664.3675,10.9022-6.7411,20.7207-17.3372,23.9466-11.2718,3.4316-23.2041-1.5491-28.5613-12.3458-1.4778-2.9784-3.1261-3.9162-6.3281-3.8497-9.8859.2051-19.7787.0749-29.9856.0749,0,11.2742-.6141,21.8838.1827,32.3864.7141,9.4125,4.6025,12.0728,14.0543,12.072,5.0406-.0005,10.0922-.202,15.1179.0712,3.5481.1928,5.4877-.8613,7.1944-4.2371,4.9657-9.8214,15.8862-14.7637,26.2532-12.5105,10.6351,2.3115,18.397,11.0864,19.3424,21.8668.9312,10.6182-5.4767,20.7444-15.5927,24.6407-11.3212,4.3606-24.3917-.2364-29.8552-11.1423-1.907-3.8066-4.1073-4.7775-7.9812-4.5943-6.0698.287-12.1639.0135-18.2465.0847-9.7583.1142-17.0228-4.4004-20.6726-13.0939-2.4885-5.9274-4.0616-12.6527-4.2233-19.0671-.4163-16.5127-.3342-33.0392-.2198-49.5636l.0851-33.7395Zm82.5446,49.7174c.0064-5.4259-4.4498-10.066-9.8095-10.2144-5.5401-.1534-10.3505,4.5749-10.3627,10.1857-.0123,5.665,4.7088,10.3176,10.3262,10.1764,5.4222-.1364,9.8396-4.689,9.8461-10.1477Zm-65.5514-77.5304c.1123-5.6996-4.4788-10.4372-10.0888-10.4105-5.3306.0254-9.9349,4.5766-10.0826,9.9664-.1546,5.643,4.448,10.3239,10.1543,10.3269,5.5025.0029,9.9078-4.3435,10.017-9.8828Zm55.5347,126.1884c-5.7519-.0299-10.2535,4.5125-10.1595,10.2517.0891,5.438,4.5865,9.9013,10.011,9.935,5.434.0338,10.0064-4.3695,10.1621-9.7862.1652-5.7484-4.2852-10.3708-10.0136-10.4005Z"/></g></svg>