<?xml version="1.0" encoding="UTF-8"?><svg id="Layer_1" xmlns="http://www.w3.org/2000/svg" xmlns:xlink="http://www.w3.org/1999/xlink" viewBox="0 0 291.1781 240.4001"><defs><style>.cls-1{fill:none;}.cls-2{clip-path:url(#clippath);}.cls-3{fill:#4a9cd5;}</style><clipPath id="clippath"><rect class="cls-1" x="151.7873" y="37.1843" width="139.3908" height="203.2158"/></clipPath></defs><g class="cls-2"><g><path class="cls-3" d="m100.7788,160.6998c.0039-.9639-.0701-1.9355.0247-2.8903.4437-4.4692.0377-7.8361-5.1221-10.1405-5.7103-2.5504-7.3488-9.8508-4.8389-16.1503,2.9554-7.4174,6.1066-14.757,9.04-22.1828.6531-1.6534,1.0259-3.5206,1.059-5.2981.1418-7.6125.0852-15.2284.1446-22.8428.0722-9.246,5.0063-14.3751,14.184-14.5526,1.8224-.0353,2.505-.7778,3.0958-2.2858,1.7563-4.4833,3.6283-8.9215,5.4721-13.3702,3.3996-8.2022,10.5749-11.1627,18.861-7.7698,18.2708,7.4811,36.5221,15.0101,54.8257,22.41,1.9865.8031,4.2607,1.2322,6.4064,1.2507,19.4694.1678,38.9399.1988,58.4101.2842,10.0032.0439,15.0552,5.1694,15.0253,15.2041-.0135,4.5302.0184,9.0614-.0721,13.5901-.0323,1.6157.3415,2.576,2.0007,3.3019,8.4107,3.6797,11.059,10.3672,7.6091,18.8628-2.8586,7.0396-5.8233,14.037-8.5946,21.1105-.683,1.7431-1.0837,3.7038-1.1207,5.5742-.1504,7.6122-.0979,15.2282-.1411,22.8427-.051,8.9967-5.0642,14.2316-14.0357,14.4254-1.9048.0412-2.6888.7644-3.3154,2.408-1.6123,4.2292-3.3846,8.3975-5.1044,12.5855-3.7339,9.0927-10.6606,11.9204-19.8345,8.1532-18.0845-7.4264-36.1648-14.8635-54.2888-22.1924-1.9011-.7688-4.0806-1.1703-6.1355-1.1873-19.4695-.1605-38.94-.1869-58.4101-.2812-10.2053-.0494-15.2013-5.139-15.1662-15.365.0063-1.8314.0141-3.6627.0214-5.4941Zm87.9895,15.7503c24.4815.0953,48.9629.192,73.4444.285,6.4228.0244,9.4557-2.9117,9.4681-9.2677.0222-11.4632-.0481-22.9267.0009-34.3897.0725-16.957.2251-33.9137.3235-50.8706.0393-6.7705-2.8374-9.6447-9.6459-9.6718-48.7701-.1943-97.5403-.3844-146.3104-.5694-6.6137-.0251-9.5865,2.8793-9.5989,9.4291-.0245,12.9108.031,25.8218-.0227,38.7325-.0645,15.504-.2199,31.0076-.3122,46.5115-.0391,6.5747,2.8937,9.494,9.498,9.5207,24.3851.0986,48.7701.1914,73.1552.2904Zm66.0171,5.837c-20.6651-.0805-40.881-.1592-61.2391-.2384.2319.3436.2975.567.4321.6221,14.8667,6.0984,29.7211,12.2273,44.6213,18.2431,4.1607,1.6798,8.368-.007,10.1672-4.0329,2.0783-4.6504,3.8977-9.4165,6.0185-14.5939ZM123.336,66.4357c20.6675.0805,40.8843.1592,61.1521.2381-.0742-.2658-.0747-.4088-.1254-.4297-15.209-6.2538-30.3901-12.5777-45.6568-18.6877-3.6666-1.4675-7.6888.5255-9.3432,4.2565-2.0656,4.6583-3.8962,9.4208-6.0267,14.6228Zm154.2556,38.1244c-.0272,6.9765-.0534,13.7059-.0796,20.4353,2.0302-3.525,3.7574-7.0549,5.06-10.7351,1.4701-4.1534-.6148-8.0138-4.9805-9.7002Zm-176.7503,39.743c.0279-7.1592.057-13.9494.0693-20.7396.0004-.2342-.1684-.4688-.5428-1.4447-1.8325,5.0724-3.7015,9.4537-4.9663,14.0029-.975,3.5069,1.1417,6.4331,5.4399,8.1813Z"/><path class="cls-3" d="m262.6216,145.7597c-.0081,2.5054.131,5.0253-.111,7.508-.0811.8324-.9906,2.0525-1.7625,2.2809-20.9771,6.2092-41.961,6.0856-62.9405-.0934-1.5195-.4476-1.9286-1.1945-1.8994-2.6619.0884-4.4312.1513-8.8666.057-13.2969-.174-8.178,6.6745-13.749,14.4025-13.6956,4.1159.0284,8.29,1.3398,12.3148,2.4991,5.6317,1.6222,10.9047,1.0004,16.329-1.0097,7.8281-2.9008,17.3114-2.043,21.8139,5.604,1.0202,1.7326,1.4938,3.9061,1.7528,5.9362.2901,2.2745.0507,4.6165.0433,6.9292Z"/><path class="cls-3" d="m211.8315,107.948c.0694-10.6009,7.1071-18.9103,16.1298-19.5915,11.0373-.8333,20.2937,9.1575,19.0293,20.7096-.8566,7.8267-4.3603,13.9031-12.1802,16.6735-10.3441,3.6649-21.4737-3.9026-22.8258-15.4635-.1115-.9532-.1274-1.9176-.1532-2.3281Z"/><rect class="cls-3" x="148.1505" y="62.0555" width="7.7194" height="66.42" rx=".5" ry=".5" transform="translate(56.1535 246.9036) rotate(-89.7769)"/><rect class="cls-3" x="148.0762" y="81.1343" width="7.7194" height="66.42" rx=".5" ry=".5" transform="translate(37.0009 265.8338) rotate(-89.7769)"/><rect class="cls-3" x="148.0019" y="100.2131" width="7.7194" height="66.42" rx=".5" ry=".5" transform="translate(17.8482 284.7641) rotate(-89.7769)"/><rect class="cls-3" x="147.9276" y="119.2919" width="7.7194" height="66.42" rx=".5" ry=".5" transform="translate(-1.3045 303.6943) rotate(-89.7769)"/></g></g><g><path class="cls-3" d="m108.3768,82.6332h8.3238c-.7456-.8621-1.5175-1.6941-2.3223-2.498-3.4774-3.4811-7.535-6.3894-12.0248-8.5709,1.001,1.358,1.9496,2.8238,2.8332,4.3855,1.1663,2.0622,2.2369,4.2971,3.19,6.6833Z"/><path class="cls-3" d="m99.1269,79.3858c-3.4829-6.1321-7.8928-10.3767-12.7168-11.7777v15.0251h14.3884c-.5324-1.1307-1.0856-2.2162-1.6716-3.2473Z"/><path class="cls-3" d="m130.3124,187.4368c-.4264-.4226-1.0227-.6875-1.6781-.6875H37.203c-.6546,0-1.2461.2648-1.6772.6875l-.016.0168c-.4207.4301-.6874,1.0264-.6874,1.6763v18.8705c0,.6593.2667,1.2556.6874,1.681l.016.0132c.4254.4225,1.0227.6874,1.6772.6874h91.4313c.6554,0,1.2517-.2611,1.6781-.6874l.0207-.0132c.4207-.4292.6874-1.0255.6874-1.681v-18.8705c0-.6499-.2667-1.2461-.6874-1.6763l-.0207-.0168Z"/><path class="cls-3" d="m106.5559,115.0939h-20.1458v18.4893h17.0619c1.7147-5.5406,2.8012-11.806,3.0839-18.4893Z"/><path class="cls-3" d="m103.472,89.6142h-17.0619v18.494h20.1458c-.2826-6.6833-1.3691-12.9526-3.0839-18.494Z"/><path class="cls-3" d="m113.5426,108.1082h13.7394c-.5221-6.6871-2.5138-12.9619-5.6719-18.494h-10.8847c1.5766,5.6691,2.5617,11.9149,2.8172,18.494Z"/><path class="cls-3" d="m99.1269,143.8162c.586-1.0358,1.1391-2.1167,1.6716-3.2473h-14.3884v15.0232c4.824-1.3992,9.2339-5.6438,12.7168-11.7759Z"/><path class="cls-3" d="m105.1867,147.2522c-.8836,1.5579-1.8321,3.0238-2.8332,4.3855,4.4897-2.1825,8.5474-5.0898,12.0248-8.5765.8048-.7991,1.5766-1.6312,2.3223-2.4923h-8.3238c-.9531,2.3805-2.0237,4.6212-3.19,6.6833Z"/><path class="cls-3" d="m110.7254,133.5832h10.8847c3.1581-5.533,5.1499-11.8023,5.6719-18.4893h-13.7394c-.2555,6.5754-1.2406,12.8211-2.8172,18.4893Z"/><path class="cls-3" d="m55.112,89.6142h-10.8904c-3.1469,5.532-5.1489,11.8069-5.6607,18.494h13.7291c.2658-6.5791,1.2518-12.8248,2.8219-18.494Z"/><path class="cls-3" d="m52.29,115.0939h-13.7291c.5118,6.6871,2.5138,12.9564,5.6607,18.4893h10.8904c-1.5701-5.6683-2.5561-11.914-2.8219-18.4893Z"/><path class="cls-3" d="m161.4124,34.2956c-2.7214-2.7252-6.5021-4.423-10.6509-4.423h-1.9598V12.9732c0-1.156-.1333-2.2942-.3831-3.392-.6395-2.8228-2.0556-5.1874-4.0155-6.8608-2.0293-1.7354-4.5798-2.7205-7.4026-2.7205-.878,0-1.8152.1061-2.7956.3258L13.068,27.6357c-3.621.817-6.8692,3.1318-9.2123,6.2204-1.9551,2.5674-3.2971,5.7142-3.7064,8.9897l-.016.0995c-.0959.6546-.1334,1.3251-.1334,2.004v180.3731c0,.6836.0375,1.3504.1334,2.0077l.0046.0544.0113.0376v.0122l.0046.0498.0113.0535c.0798.6085.1971,1.1973.3455,1.7523.2508.9184.586,1.7843.9964,2.5881l.0206.0451.016.046c.741,1.4865,1.7157,2.8407,2.8764,4.0042,2.7317,2.7289,6.5021,4.4267,10.6508,4.4267h135.6905c4.1488,0,7.9295-1.6978,10.6509-4.4267,2.7317-2.7327,4.4305-6.5021,4.4305-10.6509V44.9493c0-4.1487-1.6988-7.922-4.4305-10.6537Zm-23.41,173.7048c0,2.5683-1.0546,4.9076-2.7534,6.6007l-.0057.0178c-1.6988,1.6932-4.0417,2.7487-6.6091,2.7487H37.203c-2.5618,0-4.9048-1.0555-6.6035-2.7487l-.0057-.0093v-.0085c-1.6988-1.6969-2.7524-4.037-2.7524-6.6007v-18.8705c0-2.5627,1.0536-4.9057,2.7421-6.6006l.016-.016c1.6988-1.6932,4.0314-2.7449,6.6035-2.7449h91.4313c2.5674,0,4.9103,1.0555,6.6091,2.7449l.0057.016c1.6988,1.6949,2.7534,4.0342,2.7534,6.6006v18.8705ZM31.4352,111.5996c0-14.2127,5.7678-27.0864,15.0824-36.4001,9.3193-9.3174,22.1855-15.0814,36.3982-15.0814s27.0902,5.764,36.4105,15.0814c9.308,9.3137,15.0702,22.1874,15.0702,36.4001s-5.7621,27.0855-15.0702,36.402c-9.3202,9.3137-22.1967,15.0777-36.4105,15.0777s-27.0789-5.764-36.3982-15.0777c-9.3146-9.3165-15.0824-22.1864-15.0824-36.402ZM141.8207,29.8726H34.8065L135.7336,7.1218c.4095-.0948.8357-.1399,1.2668-.1399,1.1137,0,2.1091.3728,2.8707,1.0264.8358.7165,1.4593,1.7851,1.757,3.1018.123.5465.1925,1.1719.1925,1.8631v16.8994Z"/><path class="cls-3" d="m60.6562,75.9498c.8836-1.5616,1.8322-3.0275,2.8219-4.3855-4.4785,2.1815-8.5362,5.0898-12.0238,8.5709-.8048.8039-1.5711,1.6359-2.312,2.498h8.3238c.9531-2.3862,2.0237-4.6212,3.19-6.6833Z"/><path class="cls-3" d="m62.3709,133.5832h17.0572v-18.4893h-20.1458c.2818,6.6833,1.3738,12.9488,3.0886,18.4893Z"/><path class="cls-3" d="m66.7113,143.8162c3.4774,6.1321,7.8976,10.3767,12.7168,11.7759v-15.0232h-14.3837c.5324,1.1307,1.0865,2.2115,1.6668,3.2473Z"/><path class="cls-3" d="m79.4281,67.6081c-4.8193,1.4011-9.2395,5.6457-12.7168,11.7777-.5803,1.0311-1.1344,2.1167-1.6668,3.2473h14.3837v-15.0251Z"/><path class="cls-3" d="m57.4662,140.5689h-8.3238c.7409.8611,1.5072,1.6932,2.312,2.4923,3.4876,3.4868,7.5453,6.3941,12.0238,8.5765-.9898-1.3617-1.9383-2.8276-2.8219-4.3855-1.1663-2.0622-2.2369-4.3028-3.19-6.6833Z"/><path class="cls-3" d="m59.2823,108.1082h20.1458v-18.494h-17.0572c-1.7147,5.5413-2.8068,11.8106-3.0886,18.494Z"/></g></svg>