<?xml version="1.0" encoding="UTF-8"?><svg id="Layer_1" xmlns="http://www.w3.org/2000/svg" xmlns:xlink="http://www.w3.org/1999/xlink" viewBox="0 0 271.0238 243.1498"><defs><style>.cls-1{fill:none;}.cls-2{clip-path:url(#clippath);}.cls-3{fill:#4a9cd5;}</style><clipPath id="clippath"><rect class="cls-1" x="43.8445" width="77.505" height="64.734"/></clipPath></defs><g><rect class="cls-3" y="238.1163" width="215.9387" height="5.0335"/><path class="cls-3" d="m194.563,207.2758v-16.0476h-7.6778v14.0824H29.4546v-93.3431h5.2918l-3.6066-7.6776h-4.5644c-2.6508,0-4.7992,2.1481-4.7992,4.7983v97.8177h-.1154L0,235.0833h80.0114l5.3425-6.95h45.2303l5.3427,6.95h80.0118l-21.3757-27.8075Z"/></g><g><circle class="cls-3" cx="245.9107" cy="115.4143" r="2.3994"/><path class="cls-3" d="m266.2247,32.3978h-40.6284c-2.6502,0-4.7986,2.1484-4.7986,4.7986v80.2971c0,2.6502,2.1484,4.7986,4.7986,4.7986h40.6284c2.6502,0,4.7992-2.1484,4.7992-4.7986V37.1963c0-2.6502-2.149-4.7986-4.7992-4.7986Zm-25.4723,3.6793h10.3168c.4635,0,.8398.3763.8398.8398s-.3763.8401-.8398.8401h-10.3168c-.4647,0-.8404-.3764-.8404-.8401s.3757-.8398.8404-.8398Zm5.1584,83.1764c-2.1207,0-3.8386-1.7184-3.8386-3.8392s1.7178-3.8387,3.8386-3.8387,3.8392,1.718,3.8392,3.8387-1.7185,3.8392-3.8392,3.8392Zm20.7945-10.0775h-41.5889V41.0356h41.5889v68.1404Z"/></g><path class="cls-3" d="m231.18,128.5921v38.9894h-82.5365v-102.5301h66.192v-7.6784h-69.0713c-2.6496,0-4.7986,2.149-4.7986,4.7992v114.2079c0,2.6496,2.149,4.7986,4.7986,4.7986h88.2951c2.6502,0,4.7986-2.1489,4.7986-4.7986v-47.7879h-7.6778Zm-41.268,49.8663c-2.1208,0-3.8392-1.7185-3.8392-3.8392s1.7185-3.8386,3.8392-3.8386,3.8386,1.7185,3.8386,3.8386-1.7185,3.8392-3.8386,3.8392Z"/><path class="cls-3" d="m67.8979,139.0534c1.57,9.1201-1.1799,14.9124-8.1323,17.2463-6.0034,2.0153-12.574-.7057-15.5633-6.3956-2.554-4.8613-2.1166-12.6263,4.8029-17.0585-2.9293-12.2215-5.8447-24.3524-8.7431-36.4873-2.7021-11.3131-5.3833-22.6312-8.0808-33.9454-.4621-1.9382-1.5544-2.8144-3.5651-2.8234-4.2968-.0194-8.5937-.0019-12.8906-.0112-2.7477-.006-4.5127-1.5226-4.5353-3.8709-.0239-2.4877,1.7017-4.0802,4.4758-4.0892,4.2491-.0137,8.4984-.0249,12.7474-.001,5.9768.0336,10.1392,3.3497,11.5332,9.1399.5468,2.2713,1.1561,4.5296,1.6227,6.817.1862.9129.5845,1.1555,1.445,1.1334,1.9085-.0489,3.8191-.0155,5.7288-.0152,25.6858.0052,51.3715.0063,77.0573.0206,3.5105.002,5.1509,2.1132,4.346,5.4938-3.556,14.9342-7.1094,29.869-10.6631,44.8037-.6997,2.9403-1.906,3.9089-4.8963,3.9092-19.336.0017-38.672.0015-58.0079.0019-.5188,0-1.0375,0-1.8464,0,.5477,2.0413.8655,3.9735,1.5965,5.7341.6921,1.667,2.2413,2.3696,4.0863,2.358,3.5806-.0225,7.1614-.0054,10.7421-.0053,12.461.0003,24.922-.0138,37.3829.006,6.7427.0107,11.9682,4.3429,13.1734,10.85,1.3494,7.2857-3.9889,14.1921-11.6253,15.04-7.0967.788-13.8409-4.9973-14.0308-12.1655-.0496-1.8735.3406-3.7586.5336-5.6856h-28.6938Zm4.3492-62.3788c.4087,5.1018.8035,10.0305,1.2062,15.0564h18.23c.3986-5.0462.7907-10.0093,1.1894-15.0564h-20.6256Zm49.1025.0707c-.3645-.0798-.503-.1366-.6415-.1367-6.2489-.0071-12.498.0186-18.7464-.0368-1.1739-.0104-1.1772.6934-1.2374,1.4531-.3239,4.0879-.6372,8.1766-.9441,12.2657-.0343.4571-.0046.919-.0046,1.528.6421,0,1.155,0,1.668,0,4.2456.0007,8.4912.0018,12.7368.002,3.5642.0002,3.5805.0037,4.4217-3.4756.9258-3.8292,1.8176-7.6667,2.7476-11.5998Zm-77.505-.0638c.0925.5529.1326.9246.2184,1.2854.9911,4.1708,2.0285,8.3311,2.9575,12.5156.2325,1.0475.664,1.3703,1.7079,1.3608,5.1522-.0468,10.305-.02,15.4576-.0292.4017-.0007.8032-.0787,1.2918-.1298-.4085-5.0694-.8059-10.0004-1.209-15.0028h-20.4242Zm30.2606,23.1546c.3737,4.8601.7461,9.5151,1.0768,14.173.0611.8611.5106.9766,1.2255.9697,2.5774-.0247,5.1552-.0094,7.7329-.0094,1.8514,0,3.7027,0,5.6932,0,.4028-5.1104.7938-10.0704,1.1929-15.1334h-16.9213Zm23.7326,14.8872c.2194.1073.3023.183.3855.1835,4.43.0244,8.8601.0623,13.2895.0197.3191-.0031.8204-.549.9186-.9256.7201-2.7612,1.3601-5.5432,2.023-8.3193.4597-1.9251.9156-3.8511,1.4088-5.9265-5.477,0-10.7585-.0134-16.0396.0354-.2957.0027-.8184.4975-.8451.798-.4171,4.6936-.7698,9.3929-1.1407,14.1348Zm-30.5403.2461c-.38-4.955-.7508-9.6502-1.0914-14.3477-.0666-.9187-.6555-.8762-1.3009-.8751-4.8124.0082-9.6248.0039-14.4372.0145-.3511.0008-.7021.0879-1.1768.1515,1.1686,4.8887,2.2911,9.6501,3.4797,14.395.072.2873.6617.6143,1.0235.6303,1.5693.0697,3.1435.0313,4.7159.0314,2.8474.0003,5.6948,0,8.7872,0Zm46.6062,29.1597c.0584-2.8093-2.0555-5.0552-4.8385-5.1405-2.7784-.0852-5.165,2.2299-5.166,5.0113-.001,2.6652,2.2185,4.9276,4.8954,4.99,2.797.0652,5.0514-2.0795,5.1092-4.8608Zm-58.1936,4.8662c2.7344.0165,5.0223-2.2424,5.0449-4.9811.0223-2.7048-2.3001-5.0432-4.9999-5.0343-2.7865.0091-5.0074,2.221-5.0072,4.9868.0002,2.8016,2.1813,5.0119,4.9622,5.0286Z"/><g class="cls-2"><path class="cls-3" d="m84.6848,16.3711c-.6648-.8025-1.2564-1.5165-1.845-2.2271,4.0052-4.0494,10.0766-4.7984,15.1099-.4145,4.1042,3.5747,6.0837,8.2397,6.566,13.5954.0348.3865.0482.7749.0809,1.3156,1.0336,0,2.0245-.0025,3.0154.0005,2.9134.0087,4.4791,1.3532,4.7816,4.2602.6386,6.1352,1.2183,12.2765,1.8275,18.4148,1.0412,10.4921,2.0866,20.9838,3.1301,31.4757.1668,1.6774.361,3.3527.4932,5.0328.1938,2.4637-.8632,4.0599-3.1994,4.8306-4.185,1.3806-8.3859,2.7129-12.565,4.1109-2.0901.6992-4.1919.3834-6.2929.2171-10.6194-.8403-21.2373-1.6994-31.8556-2.5542-4.2901-.3454-8.58-.6931-12.8693-1.047-2.2586-.1864-3.881-1.9998-3.7936-4.4131.0908-2.5078.3191-5.0109.4996-7.5151.6241-8.6577,1.2525-17.3151,1.8815-25.9725.5562-7.6556,1.1034-15.3119,1.6806-22.9659.174-2.3072,1.8981-3.8508,4.2229-3.8733,1.0704-.0104,2.1411-.0018,3.2953-.0018v3.1582c-1.0072,0-2.0039.0533-2.9923-.0145-1.0535-.0722-1.3994.4628-1.4645,1.392-.2808,4.0074-.5736,8.014-.8633,12.0208-.8485,11.7342-1.6992,23.4682-2.5453,35.2026-.1986,2.7548-.39,5.5103-.5701,8.2664-.0778,1.1917.2268,1.5466,1.4293,1.6435,9.224.7431,18.4486,1.4782,27.6731,2.2142,5.5776.445,11.1555.8876,16.7335,1.3282.2109.0167.4242.0021.8314.0021-.8453-20.6513-1.6893-41.272-2.5383-62.0154h-5.8807v-3.1966h12.8943c-.2377-1.5246-.3604-2.9095-.6806-4.2471-.7769-3.2456-2.3088-6.0941-4.8006-8.3623-3.3844-3.0809-7.1328-3.1632-10.6716-.267-.2185.1788-.4316.3641-.7176.6059Zm30.5033,73.1422c.0535-.1103.107-.2207.1605-.331-1.6896-.9881-3.3596-2.0123-5.0781-2.9473-.7311-.3977-1.0886-.8761-1.1693-1.7195-.5637-5.8855-1.1426-11.77-1.7707-17.6489-.9289-8.693-1.8968-17.3818-2.8641-26.0706-.1319-1.1845-.3557-2.3588-.537-3.5378-.1005.0125-.201.025-.3015.0375.1426,2.4197.2476,4.8423.4339,7.2586,1.0362,13.4355,2.0974,26.869,3.1176,40.3057.0322.4235-.1729.9824-.4645,1.2936-1.666,1.7782-3.3939,3.4983-5.0946,5.2442-.2473.2539-.4609.5406-.69.8122.4601-.0367.7747-.1982,1.0606-.4001,1.9024-1.3435,3.8205-2.6666,5.6843-4.0619.5976-.4474,1.0809-.4835,1.7595-.2303,1.9013.7094,3.8334,1.3362,5.7534,1.9956Z"/><path class="cls-3" d="m87.7965,30.6008c0,.8965.0151,1.7933-.0043,2.6893-.0194.8982.05,1.7066.6177,2.5189.795,1.1374.3507,2.7094-.7923,3.5103-1.1021.7723-2.6059.6297-3.5369-.3352-.9554-.9903-1.1029-2.6547-.1091-3.6029.677-.6459.753-1.3135.7151-2.1051-.1317-2.7511-.0349-5.5386-.4595-8.244-.5631-3.5888-2.2908-6.7012-5.0642-9.1303-3.4611-3.0314-7.3413-3.0413-10.7354.0733-3.7735,3.4628-5.4649,7.8874-5.5823,12.954-.0274,1.1825-.0009,2.3663.0023,3.5496.003,1.1209-.1115,2.1674.8699,3.1406.9482.9402.6094,2.5779-.3855,3.4828-1.0307.9374-2.5897.9592-3.6351.0507-1.0141-.8813-1.1868-2.3381-.5536-3.53.3135-.5902.5197-1.2948.5628-1.9614.1936-2.9978.0499-6.0422.5203-8.9912.6403-4.0149,2.5945-7.4974,5.5459-10.3471,4.9748-4.8033,11.3824-4.7467,16.2603.1664,3.5326,3.558,5.3417,7.9171,5.7112,12.8856.0795,1.0696.0116,2.1503.0116,3.2258h.041Z"/><path class="cls-3" d="m79.605,28.6419h4.2235v3.0659h-20.1181v-3.0274h12.7404c.1235-4.0002,1.2038-7.6116,3.4124-11.1137.621.9036,1.2043,1.6513,1.6573,2.4709.1419.2568.0181.7471-.1288,1.0632-1.0853,2.3341-1.7147,4.7686-1.7867,7.5411Z"/></g></svg>