<?xml version="1.0" encoding="UTF-8"?><svg id="Layer_1" xmlns="http://www.w3.org/2000/svg" xmlns:xlink="http://www.w3.org/1999/xlink" viewBox="0 0 271.5554 273.9507"><defs><style>.cls-1{fill:none;}.cls-2{clip-path:url(#clippath);}.cls-3{fill:#fff;}</style><clipPath id="clippath"><rect class="cls-1" x="49.3985" width="87.3229" height="72.9341"/></clipPath></defs><g><rect class="cls-3" y="268.2795" width="243.2926" height="5.6712"/><path class="cls-3" d="m219.2092,233.5324v-18.0805h-8.6504v15.8663H33.1858v-105.1672h5.9621l-4.0635-8.6501h-5.1426c-2.9865,0-5.4071,2.4202-5.4071,5.4062v110.2087h-.13L0,264.8624h90.1469l6.0193-7.8304h50.9598l6.0195,7.8304h90.1472l-24.0834-31.33Z"/></g><path class="cls-3" d="m266.1483,36.5017h-45.775c-2.9859,0-5.4065,2.4206-5.4065,5.4064v90.4687c0,2.9859,2.4206,5.4064,5.4065,5.4064h45.775c2.9859,0,5.4071-2.4206,5.4071-5.4064V41.9082c0-2.9859-2.4212-5.4064-5.4071-5.4064Zm-28.699,4.1454h11.6237c.5222,0,.9462.424.9462.9462s-.424.9466-.9462.9466h-11.6237c-.5235,0-.9468-.4241-.9468-.9466s.4233-.9462.9468-.9462Zm5.8118,93.7127c-2.3894,0-4.3248-1.9361-4.3248-4.3255s1.9354-4.325,4.3248-4.325,4.3256,1.9356,4.3256,4.325-1.9362,4.3255-4.3256,4.3255Zm23.4286-11.354h-46.8572V46.2337h46.8572v76.772Z"/><path class="cls-3" d="m260.4645,144.8814v43.9284h-92.9918v-115.518h40.7766v-8.6511h-44.0206c-2.9852,0-5.4064,2.4212-5.4064,5.4071v128.6751c0,2.9853,2.4212,5.4064,5.4064,5.4064h99.4798c2.9859,0,5.4064-2.4212,5.4064-5.4064v-53.8415h-8.6504Zm-46.4956,56.1831c-2.3894,0-4.3256-1.9362-4.3256-4.3256s1.9362-4.3249,4.3256-4.3249,4.3249,1.9362,4.3249,4.3249-1.9362,4.3256-4.3249,4.3256Z"/><path class="cls-3" d="m76.4988,156.668c1.7689,10.2754-1.3294,16.8014-9.1624,19.4309-6.7638,2.2706-14.1668-.7951-17.5347-7.2058-2.8775-5.4771-2.3847-14.2258,5.4113-19.2193-3.3003-13.7696-6.5851-27.4372-9.8506-41.1093-3.0444-12.7462-6.0652-25.498-9.1044-38.2454-.5206-2.1837-1.7513-3.1709-4.0167-3.1811-4.8411-.0218-9.6824-.0021-14.5235-.0126-3.0958-.0067-5.0844-1.7155-5.1099-4.3612-.027-2.8028,1.9172-4.5971,5.0428-4.6072,4.7873-.0155,9.5749-.0281,14.3621-.0011,6.7339.0379,11.4235,3.774,12.9941,10.2977.6161,2.559,1.3025,5.1033,1.8283,7.6806.2098,1.0286.6586,1.3018,1.6281,1.277,2.1502-.0551,4.3028-.0175,6.4545-.0171,28.9395.0058,57.879.0071,86.8185.0233,3.9552.0022,5.8034,2.3809,4.8965,6.1897-4.0064,16.826-8.0099,33.6526-12.0139,50.4792-.7883,3.3128-2.1475,4.4041-5.5165,4.4044-21.7854.0019-43.5707.0017-65.3561.0021-.5845,0-1.169,0-2.0803,0,.6171,2.2999.9751,4.4768,1.7987,6.4605.7798,1.8782,2.5252,2.6698,4.6039,2.6567,4.0341-.0254,8.0686-.0061,12.1029-.006,14.0394.0003,28.0789-.0156,42.1183.0067,7.5968.012,13.4842,4.893,14.8422,12.2245,1.5204,8.2086-4.4942,15.9899-13.0979,16.9452-7.9957.8878-15.5942-5.6303-15.8081-13.7065-.0559-2.1108.3838-4.2347.6012-6.4058h-32.3285Zm4.9001-70.2806c.4605,5.748.9053,11.3011,1.3589,16.9636h20.5393c.4491-5.6854.8909-11.2772,1.3401-16.9636h-23.2383Zm55.3225.0797c-.4106-.09-.5667-.1539-.7228-.1541-7.0405-.008-14.0812.021-21.1211-.0414-1.3226-.0117-1.3264.7812-1.3942,1.6372-.3649,4.6057-.7179,9.2123-1.0637,13.8195-.0386.515-.0052,1.0354-.0052,1.7215.7234,0,1.3013,0,1.8792,0,4.7834.0008,9.5668.002,14.3502.0022,4.0157.0002,4.0341.0041,4.9818-3.9158,1.0431-4.3143,2.0478-8.6379,3.0957-13.0692Zm-87.3229-.0719c.1042.6229.1494,1.0417.2461,1.4483,1.1166,4.6991,2.2854,9.3865,3.3321,14.101.262,1.1802.7481,1.5438,1.9243,1.5332,5.8048-.0527,11.6104-.0225,17.4157-.0329.4526-.0008.905-.0886,1.4554-.1463-.4602-5.7115-.9079-11.2672-1.3621-16.9033h-23.0114Zm34.0939,26.0877c.4211,5.4758.8406,10.7204,1.2132,15.9684.0689.9701.5753,1.1003,1.3807,1.0926,2.9039-.0278,5.8083-.0106,8.7124-.0105,2.0859,0,4.1718,0,6.4144,0,.4539-5.7577.8944-11.3461,1.344-17.0504h-19.0648Zm26.7389,16.7731c.2472.1209.3406.2062.4344.2067,4.9911.0275,9.9825.0702,14.9729.0222.3595-.0035.9243-.6186,1.0349-1.0428.8113-3.1109,1.5324-6.2454,2.2793-9.3731.5179-2.169,1.0316-4.3389,1.5872-6.6772-6.1707,0-12.1214-.0151-18.0714.0399-.3331.0031-.9221.5605-.9521.899-.4699,5.2882-.8673,10.5828-1.2852,15.9253Zm-34.409.2772c-.4282-5.5826-.8459-10.8727-1.2296-16.1651-.075-1.0351-.7385-.9872-1.4657-.986-5.422.0093-10.8441.0044-16.2661.0163-.3956.0009-.791.0991-1.3259.1707,1.3167,5.508,2.5814,10.8726,3.9205,16.2185.0811.3237.7455.6921,1.1531.7102,1.7681.0786,3.5417.0352,5.3132.0354,3.2081.0003,6.4162,0,9.9004,0Zm52.51,32.8535c.0658-3.1652-2.3159-5.6956-5.4514-5.7917-3.1304-.096-5.8193,2.5124-5.8205,5.6461-.0011,3.0028,2.4995,5.5518,5.5155,5.6221,3.1513.0735,5.6913-2.343,5.7564-5.4766Zm-65.5653,5.4826c3.0808.0186,5.6584-2.5265,5.6839-5.6121.0252-3.0474-2.5914-5.682-5.6332-5.672-3.1395.0103-5.6417,2.5023-5.6415,5.6185.0003,3.1565,2.4576,5.6467,5.5908,5.6656Z"/><g class="cls-2"><path class="cls-3" d="m95.4122,18.4449c-.749-.9041-1.4155-1.7086-2.0788-2.5093,4.5126-4.5624,11.353-5.4063,17.0239-.467,4.6241,4.0276,6.8543,9.2834,7.3977,15.3176.0392.4355.0544.8731.0911,1.4822,1.1646,0,2.281-.0028,3.3973.0005,3.2824.0098,5.0464,1.5246,5.3874,4.7998.7195,6.9124,1.3726,13.8316,2.059,20.7474,1.1731,11.8212,2.3509,23.642,3.5266,35.4629.188,1.8899.4068,3.7774.5557,5.6703.2183,2.7758-.9725,4.5742-3.6047,5.4425-4.7151,1.5555-9.4482,3.0566-14.1567,4.6317-2.3549.7878-4.723.4319-7.0901.2446-11.9646-.9468-23.9276-1.9146-35.8909-2.8777-4.8335-.3891-9.6668-.7809-14.4996-1.1796-2.5447-.21-4.3727-2.2532-4.2742-4.9721.1024-2.8255.3595-5.6456.5629-8.4671.7032-9.7544,1.4111-19.5085,2.1198-29.2626.6267-8.6254,1.2431-17.2515,1.8935-25.875.196-2.5995,2.1385-4.3386,4.7578-4.3639,1.206-.0117,2.4123-.002,3.7127-.002v3.5583c-1.1348,0-2.2577.06-3.3713-.0164-1.1869-.0814-1.5767.5215-1.65,1.5684-.3164,4.5151-.6462,9.0292-.9727,13.5436-.956,13.2206-1.9144,26.441-2.8677,39.6618-.2238,3.1038-.4394,6.2083-.6423,9.3135-.0877,1.3427.2556,1.7425,1.6103,1.8516,10.3924.8372,20.7856,1.6655,31.1786,2.4946,6.2842.5014,12.5686,1,18.8532,1.4965.2376.0188.478.0024.9367.0024-.9523-23.2673-1.9033-46.5001-2.8598-69.8712h-6.6257v-3.6015h14.5276c-.2678-1.7177-.4061-3.278-.7668-4.7851-.8753-3.6568-2.6013-6.866-5.4087-9.4216-3.8132-3.4711-8.0363-3.564-12.0234-.3008-.2461.2014-.4862.4102-.8085.6827Zm34.3672,82.4074c.0603-.1243.1205-.2486.1808-.3729-1.9037-1.1133-3.7852-2.2672-5.7214-3.3206-.8237-.4481-1.2265-.987-1.3175-1.9374-.6352-6.6311-1.2873-13.2609-1.995-19.8846-1.0465-9.7942-2.1371-19.5836-3.2269-29.3731-.1486-1.3346-.4008-2.6576-.605-3.986-.1132.0141-.2264.0282-.3396.0423.1606,2.7262.2789,5.4557.4889,8.1781,1.1675,15.1374,2.3631,30.2726,3.5125,45.4114.0362.4771-.1948,1.1069-.5233,1.4575-1.877,2.0035-3.8239,3.9414-5.7399,5.9085-.2786.286-.5192.6091-.7774.915.5184-.0413.8728-.2233,1.195-.4508,2.1434-1.5137,4.3044-3.0044,6.4044-4.5765.6733-.5041,1.2178-.5447,1.9824-.2594,2.1421.7993,4.319,1.5055,6.4822,2.2484Z"/><path class="cls-3" d="m98.9181,34.4772c0,1.01.017,2.0204-.0048,3.03-.0219,1.012.0563,1.9228.696,2.838.8957,1.2814.3952,3.0526-.8926,3.9549-1.2417.8701-2.936.7095-3.9849-.3777-1.0765-1.1158-1.2426-2.991-.1229-4.0593.7627-.7277.8484-1.4798.8056-2.3718-.1484-3.0996-.0394-6.2402-.5177-9.2883-.6345-4.0434-2.581-7.5501-5.7057-10.2869-3.8995-3.4154-8.2713-3.4265-12.0953.0826-4.2515,3.9015-6.1572,8.8865-6.2894,14.5949-.0309,1.3323-.001,2.6661.0025,3.9992.0034,1.2628-.1256,2.442.9801,3.5384,1.0683,1.0593.6866,2.9045-.4343,3.924-1.1613,1.0562-2.9178,1.0807-4.0956.0572-1.1426-.9929-1.3371-2.6343-.6237-3.9771.3533-.6649.5856-1.4588.6341-2.2098.2182-3.3775.0563-6.8076.5862-10.1302.7215-4.5235,2.9232-8.4471,6.2484-11.6578,5.6049-5.4118,12.8242-5.348,18.3201.1874,3.98,4.0087,6.0184,8.92,6.4346,14.5178.0896,1.2051.0131,2.4226.0131,3.6344h.0462Z"/><path class="cls-3" d="m89.689,32.2701h4.7585v3.4542h-22.6665v-3.4109h14.3542c.1391-4.5069,1.3563-8.5758,3.8447-12.5215.6997,1.0181,1.3569,1.8604,1.8673,2.7839.1599.2894.0204.8418-.1452,1.1979-1.2228,2.6298-1.9319,5.3726-2.013,8.4963Z"/></g></svg>