<?xml version="1.0" encoding="UTF-8"?><svg id="Layer_1" xmlns="http://www.w3.org/2000/svg" xmlns:xlink="http://www.w3.org/1999/xlink" viewBox="0 0 201.6854 288.8673"><defs><style>.cls-1{fill:none;}.cls-2{clip-path:url(#clippath);}.cls-3{fill:#4a9cd5;}</style><clipPath id="clippath"><path class="cls-1" d="m27.1142,196.9886v-12.939c0-3.3259.9211-10.654,8.1551-16.6293,7.234-5.9753,12.3073-5.5243,14.0548-5.637s7.8919,0,7.8919,0c0,0,2.2388-9.9212,12.7599-9.9212s12.7195,9.9776,12.7195,9.9776l33.9914-.0564s2.3639-9.9212,12.7661-9.9212,12.7134,9.7521,12.7134,9.7521h7.4409c4.3405,0,13.2471,2.3676,18.0385,9.3575,4.7915,6.9899,4.566,11.8015,4.566,13.7644v13.9698s28.0161.0564,28.6926,0,1.3529-122.944,0-122.944-16.2347-10.5976-16.2347-10.5976l-4.0587-29.9891-9.6957-7.8919h-33.3713L105.3155,0h-10.8386l-30.9028,25.7049-37.6437.451-12.4015,12.8525,1.5784,27.0578L0,78.4677v111.839l4.9606,9.6957h17.1366l5.017-3.0138Z"/></clipPath></defs><path class="cls-3" d="m60.053,169.9435c0,1.8987-.0144,3.7483.0041,5.5977.0185,1.852-.061,3.7175.1318,5.5529.5342,5.085,5.1302,8.853,10.3492,8.6075,5.0453-.2374,9.2338-4.4994,9.3236-9.5578.0549-3.0891.0148-6.18.0173-9.27.0002-.2906,0-.5811,0-.9297h39.6575c0,.2604,0,.5413,0,.8222.0008,3.0363-.0288,6.0731.0094,9.1089.0642,5.1018,3.8105,9.1934,8.9182,9.796,4.791.5652,9.3996-2.6839,10.5989-7.5187.1981-.7985.2743-1.6442.2836-2.4695.0333-2.9285.0133-5.8576.0135-8.7864,0-.2924,0-.5849,0-.9691.3038-.0157.5598-.0402.8159-.0404,2.9825-.0025,5.965-.0135,8.9473.0011,7.4476.0366,13.4109,4.9892,14.7906,12.3104.1778.9434.2428,1.9212.2432,2.8831.0123,29.5304.0147,59.0609.0069,88.5913-.002,7.5628-4.9548,13.5619-12.3275,14.9467-.8916.1675-1.8145.236-2.7229.2364-32.9144.0117-65.8289.0145-98.7433.0067-8.3352-.002-14.7796-6.2522-15.079-14.5803-.0106-.2953-.0124-.591-.0124-.8865-.0005-29.3423.009-58.6846-.0096-88.0269-.0032-5.0222,1.7997-9.1599,5.7292-12.3152,2.2803-1.831,4.9116-2.9599,7.8219-3.0751,3.6977-.1463,7.4055-.0354,11.2325-.0354Zm-14.854,34.6779v.867c0,22.7316-.0009,45.4632.0013,68.1948.0003,3.1627,2.0759,5.2384,5.2532,5.2387,32.8329.0032,65.6658.0033,98.4987-.0001,3.243-.0003,5.2699-2.0396,5.2703-5.2931.003-22.7047.0018-45.4095,0-68.1142,0-.2859-.0245-.5717-.0392-.893H45.199Z"/><path class="cls-3" d="m65.0218,172.394c.0004-2.4964-.0172-4.993.0053-7.4891.0226-2.4947,1.8741-4.5804,4.2819-4.8759,2.5239-.3097,4.7938,1.193,5.4438,3.6322.1159.4351.1682.8998.1693,1.3511.0115,4.9122.0251,9.8246-.0006,14.7367-.0134,2.5532-1.7909,4.6095-4.1944,4.9585-2.3841.3461-4.6836-1.041-5.43-3.3299-.1794-.5501-.2569-1.155-.2637-1.7361-.0284-2.4155-.012-4.8316-.0116-7.2475Z"/><path class="cls-3" d="m134.3956,172.3873c0,2.4426.0077,4.8851-.002,7.3276-.0114,2.8631-2.1636,5.0405-4.9566,5.0323-2.7792-.0082-4.9224-2.2086-4.9254-5.0728-.005-4.8851-.006-9.7702.0004-14.6553.0037-2.8356,2.1992-5.0559,4.9651-5.0416,2.7415.0142,4.8937,2.2028,4.9185,5.0016.0002.0268.0001.0537.0001.0805,0,2.4425,0,4.8851,0,7.3276Z"/><g><path class="cls-3" d="m73.4216,249.0216h-11.4626l-2.5172,7.5036h-7.2985l11.4102-33.4084h8.3259l11.3077,33.4084h-7.2985l-2.467-7.5036Zm-5.7062-18.5037l-3.802,12.2849h7.5538l-3.7518-12.2849Z"/><path class="cls-3" d="m116.4596,237.2013v13.1051c-2.8269,4.2665-7.196,6.8863-13.9798,6.8863-11.4102,0-17.2189-7.4011-17.2189-17.3717,0-11.1529,6.8884-17.3717,17.5265-17.3717,3.3919,0,7.4534.565,10.5879,1.7472l-1.7995,6.1163c-2.262-.8726-5.3965-1.335-8.0686-1.335-6.064,0-10.4331,3.2894-10.4331,10.8432,0,7.2483,4.0594,10.8453,9.5082,10.8453,2.8269,0,5.3442-.9249,6.6813-2.6219v-5.0366h-6.4239v-5.8066h13.6199Z"/><path class="cls-3" d="m145.2603,250.3587v6.1665h-22.5108v-33.4084h22.2534v6.1686h-14.8021v7.5559h13.3123v6.1665h-13.3123v7.3508h15.0595Z"/></g><g class="cls-2"><path class="cls-3" d="m27.1963,96.0701v-46.6259c0-6.6513,5.4112-12.0626,12.0626-12.0626h120.92c6.6513,0,12.0626,5.4112,12.0626,12.0626v46.626c.9836-.676,22.2462-15.2896,23.3084-16.0196l-15.5806-12.9331v-17.6733c0-10.9267-8.8559-19.7904-19.7904-19.7904h-25.3425l-29.9424-24.8545c-3.0006-2.4907-7.3497-2.4907-10.3503,0l-29.9424,24.8545h-25.3424c-10.9322,0-19.7904,8.8613-19.7904,19.7904v17.6733l-15.5806,12.9331c.3868.2658,23.1532,15.9129,23.3084,16.0196Z"/><path class="cls-3" d="m104.3083,149.9729c-2.7645,1.9-6.4141,1.9001-9.1788,0-1.6367-1.1249-91.228-62.6999-92.4839-63.5631v99.0407c0,6.3723,5.1658,11.5381,11.5381,11.5381h171.0705c6.3723,0,11.5381-5.1658,11.5381-11.5381v-99.0407c-5.0534,3.4731-87.4218,60.084-92.4839,63.5631Z"/><path class="cls-3" d="m125.7613,104.1353h7.3813c-2.3104,4.6896-5.8565,8.363-10.6388,11.0199-5.4753,3.0495-12.1522,4.5743-20.03,4.5743-7.6239,0-14.2081-1.2882-19.7527-3.8639-5.5446-2.5763-9.6684-6.3763-12.3714-11.4011-2.703-5.0248-4.0545-10.4942-4.0545-16.4086,0-6.4916,1.5361-12.5387,4.609-18.1413,3.0723-5.602,7.2773-9.8071,12.614-12.614,5.3367-2.807,11.4358-4.2105,18.2973-4.2105,5.8219,0,10.9967,1.1322,15.525,3.3961,4.5277,2.2644,7.9877,5.4813,10.3788,9.6511,2.3911,4.1704,3.5867,8.7274,3.5867,13.671,0,5.8912-1.8139,11.2165-5.4407,15.9755-4.5516,6.007-10.3848,9.01-17.5002,9.01-1.9179,0-3.3614-.3346-4.3317-1.005-.9703-.6698-1.6174-1.6515-1.9406-2.9456-2.7263,2.6337-5.8684,3.9505-9.4259,3.9505-3.8352,0-7.0174-1.3223-9.5472-3.9679-2.5297-2.6451-3.7946-6.1624-3.7946-10.5521,0-5.4288,1.5248-10.3843,4.5743-14.8665,3.6961-5.452,8.4323-8.1783,14.2081-8.1783,4.1119,0,7.1501,1.5713,9.114,4.7129l.8664-3.8466h9.1486l-5.2327,24.8469c-.3238,1.5713-.4852,2.5877-.4852,3.0495,0,.5778.1327,1.0109.3985,1.2995.2653.2891.5832.4332.953.4332,1.1089,0,2.5411-.6698,4.2971-2.0099,2.3565-1.7555,4.2624-4.1119,5.7179-7.0694,1.4555-2.9569,2.1832-6.0179,2.1832-9.1833,0-5.6832-2.0565-10.4363-6.1684-14.2601-4.1124-3.8233-9.8536-5.7352-17.223-5.7352-6.261,0-11.569,1.2768-15.9235,3.8293-4.355,2.553-7.6358,6.1456-9.8417,10.7774-2.2065,4.6323-3.3094,9.4551-3.3094,14.468,0,4.8748,1.2302,9.3105,3.6906,13.3071,2.4604,3.9966,5.9139,6.9135,10.3615,8.7501,4.4471,1.8367,9.5352,2.755,15.265,2.755,5.5213,0,10.2689-.7684,14.2428-2.3045,3.9733-1.5367,7.1734-3.8412,9.5991-6.9135Zm-37.4609-14.2428c0,2.9342.5945,5.0941,1.7847,6.4803,1.1896,1.3862,2.6624,2.0792,4.4184,2.0792,1.3168,0,2.5525-.3232,3.708-.9703.8777-.4619,1.7441-1.1896,2.599-2.1832,1.2243-1.4089,2.2812-3.4654,3.1708-6.1684.8891-2.703,1.3342-5.2208,1.3342-7.5546,0-2.6104-.6064-4.6144-1.8193-6.0124-1.2129-1.3975-2.7436-2.0966-4.5916-2.0966-1.9872,0-3.8238.7684-5.51,2.3045-1.6867,1.5367-2.9575,3.7253-3.8119,6.5669-.855,2.8416-1.2822,5.36-1.2822,7.5545Z"/></g></svg>