<?xml version="1.0" encoding="UTF-8"?><svg id="Layer_4" xmlns="http://www.w3.org/2000/svg" viewBox="0 0 195.2904 229.8541"><defs><style>.cls-1,.cls-2{fill:#4a9cd5;}.cls-2{opacity:.5;}</style></defs><path class="cls-1" d="m95.5812,89.3245c-14.6973.0035-29.4009-.8745-44.2032-2.6492,1.047,4.8267,1.7922,9.288,3.0225,13.6112.9996,3.5126,3.595,5.6772,7.2931,6.3278,1.801.3169,3.595.6838,5.4045.9407,7.7608,1.1019,15.4975,2.5028,23.2963,3.1784,1.7456.1512,3.485.2287,5.2191.2444l-.0445,25.4938c-27.7283,0-50.2066,22.4782-50.2066,50.2066,0,0-33.157.446-44.7353.446,3.1971-4.3935,4.3339-9.5467,9.0504-12.7581,12.9806-8.8384,25.6751-18.0965,38.5311-27.1197,1.2858-.9024,1.414-1.6611.908-3.0437-3.979-10.8729-7.8843-21.7728-11.8084-32.6658-.237-.658-.4415-1.3277-.8365-2.5221,5.542,3.7437,10.6348,7.1839,15.7276,10.6241-6.7705-13.4999-9.1203-27.615-7.3937-42.6194,16.9427,3.5553,33.8336,5.3339,50.7238,5.337l.0518,6.9682Z"/><path class="cls-1" d="m96.2191,76.2159c-18.2941-.2673-34.205-1.3693-49.7376-5.5365-4.5148-1.2113-8.836-3.1899-13.1718-4.9947-1.349-.5615-2.5586-1.5969-3.6506-2.6107-3.1753-2.9479-3.1905-6.1732-.0063-9.1443,3.6928-3.4456,8.3684-5.0571,13.052-6.5428,2.9885-.948,6.0493-1.6891,9.1107-2.3756,1.1932-.2676,1.616-.7376,1.5951-1.951-.0633-3.665-.0388-7.332-.0181-10.998.0742-13.1964,13.277-21.7069,25.3477-16.3359,3.2876,1.4629,6.5472,2.9889,9.8314,4.4598,2.5323,1.1341,5.0688,1.7003,7.6055,1.7008l.0421,54.3289Z"/><path class="cls-1" d="m79.6843,106.4917c-7.5162.0084-13.4995-3.9463-15.4693-9.6468-.2122-.6142-.3782-1.2559-.4687-1.8986-.3654-2.5934.7737-3.8008,3.3474-3.3392,4.2466.7617,8.4688,1.6594,12.6999,2.5073,3.0128.6038,6.0289,1.1934,9.0329,1.8385,2.6993.5796,3.4333,2.2689,1.8634,4.5778-2.8388,4.1751-6.9838,5.8815-11.0055,5.961Zm3.4084-6.0206c.0501-1.9725-1.4285-3.5907-3.3116-3.6244-1.8414-.0329-3.4676,1.4726-3.511,3.2506-.046,1.8821,1.503,3.455,3.4535,3.5065,1.6895.0446,3.3271-1.4781,3.3691-3.1327Z"/><path class="cls-1" d="m95.569,227.7186c-1.5559,0-2.169,0-3.8525-.1343-.3429-.0104-1.1032-.1199-1.341-.1515-17.0247-2.2673-30.4332-14.1834-34.6465-30.8291-.4507-1.7807-.7822-3.5915-1.169-5.3884,0-2.9886,0-5.9772,0-8.9657.1063-.3357.2688-.6646.311-1.0082,2.5009-20.3605,20.6096-35.641,40.6494-35.6036l.0485,9.2801c-6.6796-.0018-13.1601,2.085-18.2216,5.8679,6.0932,6.0932,12.1816,12.1816,18.2661,18.2661v14.4742c-8.5197-8.5196-17.0396-17.0396-25.5572-25.5571-8.3921,10.2984-9.5917,29.0925,3.445,41.6398,6.605,6.3571,14.5455,8.9277,21.9601,8.945l.1076,9.1649Z"/><rect class="cls-1" x="102.5137" y="21.6271" width="10.3088" height="206.0915" rx="5" ry="5"/><path class="cls-2" d="m120.9143,227.3179c6.9545.2988,13.9092.5991,20.8749.2295,2.6961-.1431,5.3969-.1907,8.0953-.291,1.181-.0439,2.3566-.1411,3.7555-.4801-.364-.4464-.5414-.7962-.8224-.9857-1.2579-.8487-2.5146-1.7076-3.8277-2.461-4.0839-2.3431-8.1945-4.6377-12.2916-6.9567-.7574-.4287-1.5004-.884-2.1813-1.2865-1.0351-10.2913,1.9667-31.8584,5.1102-40.3434,1.4323.1966,2.9139.3642,4.3835.6078,6.3534,1.0533,12.7464,1.7499,19.1675,2.1444,3.2486.1996,6.5003.1943,9.7476-.2706,3.2549-.4659,5.7903-2.1598,7.8829-4.5976,1.4383-1.6756,1.9909-3.6922,1.3783-5.9007-.4535-1.6349-.9415-3.2669-1.5395-4.8508-.4624-1.2247-.4003-2.3561.0442-3.5423.3235-.8632.7941-1.5133,1.5979-2.0197,1.906-1.2007,2.2886-2.6925,1.2532-4.7473-1.2069-2.3952-3.1786-4.0093-5.4429-5.2839-.6163-.3469-1.259-.6447-2.1194-1.0818.7984-.3123,1.3614-.5403,1.9297-.7535,2.2437-.8413,4.4112-1.8331,6.3472-3.2944,1.2242-.9241,2.3233-1.9717,3.1013-3.3246.8848-1.5387.835-2.1174-.2449-3.506-.0493-.0635-.1024-.1242-.1568-.1832-1.8936-2.0562-1.7847-3.7661.457-5.8227.8219-.754,1.7861-1.3447,2.6732-2.0264,1.0136-.7789,2.0944-1.4902,3.0039-2.3821,2.435-2.388,2.8657-4.9364,1.2041-7.913-.8562-1.5338-1.9921-2.9251-3.126-4.2714-1.5528-1.8437-3.2704-3.5422-4.8295-5.3806-1.2459-1.469-2.4235-3.0088-3.5198-4.5976-1.8821-2.7277-2.8159-5.7566-2.707-9.1433.1369-4.2563.7146-8.4109,2.4459-12.313.563-1.269.5886-2.5203.3552-3.7978-.2907-1.5918-.6435-3.1786-1.0839-4.7337-1.3524-4.7752-3.2775-9.3109-5.7758-13.5733-.7668-1.3081-1.115-2.6265-1.0961-4.1325.0376-3.0015.0566-6.0089-.4633-8.9814-.2091-1.1956-.402-2.4005-.7149-3.5697-1.0018-3.743-3.0681-6.7143-6.2259-8.9132-3.7403-2.6044-7.9098-4.0844-12.2795-5.0844-4.0358-.9235-8.1423-1.3648-12.2357-1.8974-4.4877-.5838-8.9708-1.2078-13.4642-1.7416-2.883-.3425-5.7686-.7002-8.6602-.9478v204.402Z"/></svg>