<?xml version="1.0" encoding="UTF-8"?><svg id="Layer_4" xmlns="http://www.w3.org/2000/svg" xmlns:xlink="http://www.w3.org/1999/xlink" viewBox="0 0 237.3247 202.4743"><defs><style>.cls-1{fill:none;}.cls-2{clip-path:url(#clippath);}.cls-3{fill:#4a9cd5;}.cls-4{opacity:.15;}</style><clipPath id="clippath"><rect class="cls-1" width="103.4073" height="202.4743"/></clipPath></defs><g class="cls-4"><path class="cls-3" d="m201.259,188.4418H5.5556c3.297-4.5309,4.4694-9.8451,9.3333-13.157,13.3865-9.1148,26.4778-18.6623,39.7358-27.9675,1.326-.9307,1.4582-1.713.9364-3.1389-4.1034-11.2129-8.1308-22.4536-12.1776-33.6871-.2444-.6786-.4553-1.3692-.8626-2.601,5.7153,3.8607,10.9673,7.4085,16.2193,10.9562-6.9822-13.922-9.4054-28.4784-7.6248-43.9519,34.9448,7.3329,69.6763,7.3367,104.6144.022,1.1954,7.5152.8653,15.0065-.4431,22.4715-1.3064,7.4535-3.7675,14.5335-7.063,21.462,5.2599-3.5579,10.5199-7.1159,16.3026-11.0274-1.1248,3.1525-2.0386,5.7376-2.9688,8.3168-3.3643,9.3284-6.6981,18.6682-10.1375,27.9689-.567,1.5333-.3687,2.3139,1.0188,3.2866,13.9258,9.7629,27.798,19.6026,41.654,29.4644.8398.5977,1.5638,1.4806,2.0857,2.3795,1.714,2.952,3.3099,5.9725,5.0806,9.2029ZM57.8933,84.8524c1.0798,4.9777,1.8482,9.5784,3.117,14.0368,1.0309,3.6224,3.7074,5.8547,7.5211,6.5256,1.8573.3268,3.7074.7052,5.5735.9701,8.0034,1.1363,15.982,2.581,24.0247,3.2778,13.5983,1.178,26.831-1.9812,40.119-4.2021,4.3585-.7285,7.3141-3.7778,8.1988-8.1007.419-2.047.8336-4.0949,1.2556-6.1413.4147-2.0108.8362-4.0201,1.3226-6.3565-30.4794,3.6122-60.6021,3.6509-91.1322-.0096Z"/><path class="cls-3" d="m106.1017,74.799c-19.9623-.2113-37.1355-1.2491-53.8822-5.7421-4.6559-1.2491-9.1123-3.2896-13.5837-5.1509-1.3912-.5791-2.6386-1.6468-3.7647-2.6923-3.2746-3.04-3.2902-6.3662-.0065-9.4302,3.8082-3.5533,8.6301-5.2152,13.4601-6.7474,3.0819-.9777,6.2384-1.7419,9.3956-2.4499,1.2305-.2759,1.6665-.7606,1.6449-2.012-.0652-3.7796-.04-7.5612-.0187-11.3419.0766-13.609,13.6921-22.3856,26.1401-16.8466,3.3904,1.5086,6.7519,3.0823,10.1387,4.5992,5.2229,2.3392,10.4634,2.3355,15.6872.0081,3.3898-1.5102,6.7501-3.0866,10.1401-4.5962,12.4553-5.5464,26.0816,3.2111,26.162,16.812.0223,3.7806.0424,7.5621-.0167,11.3419-.0192,1.2255.4014,1.6842,1.6148,2.0402,5.5563,1.6299,11.15,3.1984,16.5537,5.2533,2.5027.9517,4.839,2.7093,6.827,4.5573,2.7477,2.5544,2.7414,5.8617-.095,8.3209-2.3036,1.9973-5.0035,3.6952-7.7867,4.952-8.2534,3.7268-17.1122,5.3315-25.9991,6.654-4.9354.7345-9.9109,1.2876-14.8885,1.6297-6.7985.4671-13.6163.6553-17.7224.8409Z"/><path class="cls-3" d="m87.0845,105.2884c-7.7512.0087-13.9215-4.0696-15.9529-9.9484-.2189-.6334-.39-1.2952-.4834-1.9579-.3768-2.6745.7979-3.9197,3.452-3.4436,4.3794.7855,8.7336,1.7113,13.0969,2.5857,3.107.6226,6.2174,1.2307,9.3153,1.8959,2.7837.5977,3.5407,2.3398,1.9217,4.7209-2.9276,4.3057-7.2022,6.0654-11.3496,6.1474Zm3.515-6.2088c.0516-2.0342-1.4731-3.703-3.4151-3.7377-1.899-.034-3.576,1.5186-3.6208,3.3522-.0475,1.941,1.55,3.563,3.5614,3.6162,1.7423.046,3.4311-1.5243,3.4745-3.2306Z"/><path class="cls-3" d="m120.8474,105.3731c-5.5318-.3642-9.94-2.1141-12.6511-6.8656-1.0675-1.8708-.3333-3.5626,1.7615-3.995,7.6459-1.5783,15.3007-3.1163,22.9672-4.5914,2.469-.4751,3.7167.8389,3.4175,3.3375-.6169,5.153-5.9274,10.4666-11.6252,11.5758-1.3801.2686-2.7885.3916-3.8699.5387Zm-1.1022-9.9932c-1.8385.0185-3.4482,1.665-3.4241,3.5023.0234,1.7871,1.7369,3.4445,3.5473,3.4313,1.8608-.0136,3.4901-1.6136,3.5283-3.4648.0411-1.9922-1.5358-3.4901-3.6515-3.4689Z"/></g><g class="cls-2"><g><path class="cls-3" d="m201.259,188.4418H5.5556c3.297-4.5309,4.4694-9.8451,9.3333-13.157,13.3865-9.1148,26.4778-18.6623,39.7358-27.9675,1.326-.9307,1.4582-1.713.9364-3.1389-4.1034-11.2129-8.1308-22.4536-12.1776-33.6871-.2444-.6786-.4553-1.3692-.8626-2.601,5.7153,3.8607,10.9673,7.4085,16.2193,10.9562-6.9822-13.922-9.4054-28.4784-7.6248-43.9519,34.9448,7.3329,69.6763,7.3367,104.6144.022,1.1954,7.5152.8653,15.0065-.4431,22.4715-1.3064,7.4535-3.7675,14.5335-7.063,21.462,5.2599-3.5579,10.5199-7.1159,16.3026-11.0274-1.1248,3.1525-2.0386,5.7376-2.9688,8.3168-3.3643,9.3284-6.6981,18.6682-10.1375,27.9689-.567,1.5333-.3687,2.3139,1.0188,3.2866,13.9258,9.7629,27.798,19.6026,41.654,29.4644.8398.5977,1.5638,1.4806,2.0857,2.3795,1.714,2.952,3.3099,5.9725,5.0806,9.2029ZM57.8933,84.8524c1.0798,4.9777,1.8482,9.5784,3.117,14.0368,1.0309,3.6224,3.7074,5.8547,7.5211,6.5256,1.8573.3268,3.7074.7052,5.5735.9701,8.0034,1.1363,15.982,2.581,24.0247,3.2778,13.5983,1.178,26.831-1.9812,40.119-4.2021,4.3585-.7285,7.3141-3.7778,8.1988-8.1007.419-2.047.8336-4.0949,1.2556-6.1413.4147-2.0108.8362-4.0201,1.3226-6.3565-30.4794,3.6122-60.6021,3.6509-91.1322-.0096Z"/><path class="cls-3" d="m106.1017,74.799c-19.9623-.2113-37.1355-1.2491-53.8822-5.7421-4.6559-1.2491-9.1123-3.2896-13.5837-5.1509-1.3912-.5791-2.6386-1.6468-3.7647-2.6923-3.2746-3.04-3.2902-6.3662-.0065-9.4302,3.8082-3.5533,8.6301-5.2152,13.4601-6.7474,3.0819-.9777,6.2384-1.7419,9.3956-2.4499,1.2305-.2759,1.6665-.7606,1.6449-2.012-.0652-3.7796-.04-7.5612-.0187-11.3419.0766-13.609,13.6921-22.3856,26.1401-16.8466,3.3904,1.5086,6.7519,3.0823,10.1387,4.5992,5.2229,2.3392,10.4634,2.3355,15.6872.0081,3.3898-1.5102,6.7501-3.0866,10.1401-4.5962,12.4553-5.5464,26.0816,3.2111,26.162,16.812.0223,3.7806.0424,7.5621-.0167,11.3419-.0192,1.2255.4014,1.6842,1.6148,2.0402,5.5563,1.6299,11.15,3.1984,16.5537,5.2533,2.5027.9517,4.839,2.7093,6.827,4.5573,2.7477,2.5544,2.7414,5.8617-.095,8.3209-2.3036,1.9973-5.0035,3.6952-7.7867,4.952-8.2534,3.7268-17.1122,5.3315-25.9991,6.654-4.9354.7345-9.9109,1.2876-14.8885,1.6297-6.7985.4671-13.6163.6553-17.7224.8409Z"/><path class="cls-3" d="m87.0845,105.2884c-7.7512.0087-13.9215-4.0696-15.9529-9.9484-.2189-.6334-.39-1.2952-.4834-1.9579-.3768-2.6745.7979-3.9197,3.452-3.4436,4.3794.7855,8.7336,1.7113,13.0969,2.5857,3.107.6226,6.2174,1.2307,9.3153,1.8959,2.7837.5977,3.5407,2.3398,1.9217,4.7209-2.9276,4.3057-7.2022,6.0654-11.3496,6.1474Zm3.515-6.2088c.0516-2.0342-1.4731-3.703-3.4151-3.7377-1.899-.034-3.576,1.5186-3.6208,3.3522-.0475,1.941,1.55,3.563,3.5614,3.6162,1.7423.046,3.4311-1.5243,3.4745-3.2306Z"/><path class="cls-3" d="m120.8474,105.3731c-5.5318-.3642-9.94-2.1141-12.6511-6.8656-1.0675-1.8708-.3333-3.5626,1.7615-3.995,7.6459-1.5783,15.3007-3.1163,22.9672-4.5914,2.469-.4751,3.7167.8389,3.4175,3.3375-.6169,5.153-5.9274,10.4666-11.6252,11.5758-1.3801.2686-2.7885.3916-3.8699.5387Zm-1.1022-9.9932c-1.8385.0185-3.4482,1.665-3.4241,3.5023.0234,1.7871,1.7369,3.4445,3.5473,3.4313,1.8608-.0136,3.4901-1.6136,3.5283-3.4648.0411-1.9922-1.5358-3.4901-3.6515-3.4689Z"/></g></g><path class="cls-3" d="m165.1165,35.7132c1.2797,0,2.5594,0,3.8391,0,2.055.8615,4.204,1.5563,6.1321,2.6432,1.2811.7222,2.2465,2.0049,3.2018,2.8955,1.5666-1.263,3.0271-2.7239,4.7493-3.742,1.4619-.8643,3.2259-1.2174,4.8562-1.7967,1.2797,0,2.5594,0,3.8391,0,.2736.0913.5416.207.8215.2704,5.173,1.1721,8.7765,4.1571,10.5996,9.188.2295.6333.3755,1.2968.5678,1.9733.2223-.0149.3893-.0133.5521-.0389,10.522-1.6554,19.5348,7.0963,18.2025,17.7109-.0977.7787.1932,1.1245.777,1.5225,9.0866,6.1929,11.3209,18.826,4.9429,27.8132-.1858.2618-.336.549-.5098.8359.2349.1852.4002.3176.5677.4473,13.0372,10.0994,11.8266,29.279-2.3945,37.6575-.6529.3846-.8141.7911-.7834,1.5145.3675,8.6537-5.4118,16.8394-13.7402,19.4447-.8157.2552-1.2106.6517-1.5312,1.4535-2.6493,6.6246-7.6192,10.3976-14.6492,11.1386-6.6634.7024-12.0954-1.7791-16.0937-7.2328-.2121-.2892-.4359-.5698-.6568-.8578-.1349.1132-.1748.1354-.199.1689-.1245.1725-.2431.3492-.367.5221-3.9711,5.538-9.4193,8.0945-16.1366,7.4032-7.129-.7337-12.1713-4.5368-14.7657-11.3216-.3084-.8065-.814-1.0705-1.5302-1.3-8.4231-2.6996-14.0342-10.6472-13.7099-19.4633.0279-.7596-.1825-1.1277-.8283-1.491-12.3075-6.9226-15.1631-23.9208-5.7759-34.4934,1.1798-1.3288,2.5881-2.4545,3.9299-3.7113.0027.0139.013-.0886-.0329-.1467-7.2705-9.2002-4.19-23.0772,4.9018-28.6647.2574-.1582.4585-.7077.4053-1.0281-1.4149-8.5251,4.8507-16.5381,12.9295-17.8776,1.8914-.3136,3.8791-.0464,5.8368-.0464.0886-.2695.1819-.5071.2452-.7525,1.3139-5.0916,4.5539-8.356,9.4942-9.9961.7584-.2518,1.5413-.4299,2.3128-.6421Zm55.445,34.9596c-.3013.4129-.5013.7982-.8,1.0779-1.6372,1.5331-3.2117,3.1532-4.9824,4.5166-1.1755.9051-2.6968.4024-3.4462-.792-.7506-1.1964-.4502-2.5722.7665-3.4842.2043-.1531.4256-.2834.6373-.4268,6.925-4.6909,6.217-14.7992-1.2943-18.4833-4.8767-2.3919-10.4117-.7601-13.6349,4.0197-1.0006,1.4838-2.4181,1.9178-3.7029,1.1336-1.3232-.8076-1.696-2.4486-.5657-3.8844,1.3041-1.6567,2.8219-3.1625,4.3719-4.599.5725-.5306.8526-.9238.7094-1.6924-.7613-4.0867-4.1437-7.0363-8.3135-7.2083-5.3685-.2215-9.3223,3.6718-9.3315,9.2714-.0209,12.842-.0066,25.6841-.0073,38.5262-.0001,2.437-.872,3.6474-2.6058,3.6246-1.7063-.0225-2.5127-1.1645-2.5139-3.5636-.0011-2.0299-.0002-4.0597-.0002-6.1585-4.8751,0-9.5635.0273-14.251-.0224-.9685-.0103-1.4669.2523-1.9445,1.1549-1.9787,3.739-6.7054,5.0751-10.3646,3.04-3.6937-2.0543-5.1605-6.9661-2.9707-10.4995.6545-1.0561.6872-1.7886-.0158-2.6886-.1559-.1996-.3041-.4252-.3813-.6631-.921-2.8379-2.8645-3.7719-5.7452-3.3198-1.2044.189-2.3916.0688-3.5252.8074-7.2013,4.6917-8.7743,15.1033-3.2458,21.6773.5699.6777,1.157.9829,2.0624.9759,5.2037-.0405,10.408.0032,15.6117-.0344,1.3937-.0101,2.3415.5143,3.005,1.7354.9357,1.722,1.973,3.3887,2.9085,5.1107.4064.748.8217,1.0435,1.7699.9907,5.6681-.316,9.8333,5.902,7.1612,10.8972-.8606,1.6087-.7333,2.6601.2131,3.9299.2024.2716.4025.5678.5089.8845.6743,2.0067,2.0348,2.625,4.1006,2.3789,1.6607-.1978,3.3638-.04,5.1073-.04,0-2.145-.0292-4.0635.0091-5.9807.0318-1.5917,1.0746-2.6432,2.5259-2.6473,1.3899-.0039,2.4278.9999,2.5628,2.5053.038.4235.0173.8526.0173,1.2792.001,11.6901-.0314,23.3803.0126,35.0703.031,8.2289,7.1541,13.9731,15.2065,12.2843,3.664-.7684,6.3307-2.9265,8.1693-6.2469-1.4912-.3004-2.8766-.5055-4.2179-.8718-1.2033-.3286-1.8043-1.2354-1.7742-2.4982.0276-1.157.6425-1.9844,1.7115-2.2882.6163-.1752,1.3575-.0848,2.0062.0548,6.6951,1.4406,13.4145-1.7248,16.3861-7.7954.9402-1.9206,1.5392-3.9414,1.4288-6.2066-.4408.0611-.7711.0944-1.0967.154-3.2381.5931-6.4472.4648-9.6347-.3538-1.144-.2938-1.9019-.9567-2.0738-2.1489-.2629-1.8234,1.2205-3.0619,3.113-2.8674,2.3551.242,4.7663.6031,7.0914.3482,7.3991-.811,13.2941-6.6489,14.5743-14.0904,1.2957-7.5314-2.2134-14.9282-8.7662-18.3383-1.2383-.6444-2.5905-1.0726-3.8975-1.5815-1.4165-.5516-2.1098-1.801-1.7114-3.1298.4168-1.3903,1.5774-2.0596,3.0983-1.7591.4576.0904.9441.1728,1.3432.3932.8352.4612,1.3037.0988,1.7996-.5532,1.7834-2.3443,2.8059-4.9831,2.9388-7.9094.2433-5.3552-1.7276-9.7062-6.1136-13.0146Zm-95.6651,45.4028c.0328.4501.0157.7543.0816,1.0392,1.2466,5.3836,4.2992,9.3896,9.2147,11.9243.5724.2952,1.3023.3943,1.96.3974,6.183.029,12.3663.0427,18.5492-.0005,1.5431-.0108,2.58.5564,3.2949,1.9258.788,1.5094,1.7777,2.917,2.5135,4.4488.5737,1.1944,1.293,1.7691,2.6449,1.5178.4387-.0816.9348.0451,1.3869.1517,3.2615.7686,5.7469,3.5746,5.964,6.7057.2464,3.5531-1.5171,6.5556-4.5917,7.8179-3.1274,1.284-6.7936.4552-8.8721-2.0056-2.2205-2.6289-2.4614-6.3156-.5324-9.2694.3839-.5879.4434-.9963.0667-1.592-.7508-1.1873-1.4626-2.4039-2.1103-3.65-.364-.7003-.8234-.9369-1.6068-.9316-4.9889.0337-9.9782.0154-14.9673.0214-.3246.0004-.6491.0604-1.083.1036,0,.4524-.0177.8287.0026,1.2029.3673,6.7676,4.9801,12.2628,11.6019,13.6519,1.6979.3562,2.5324,1.1893,2.9494,2.857,1.5938,6.3728,7.981,10.3411,14.4214,9.066,5.9287-1.1738,10.0292-6.209,10.0552-12.4547.0332-7.9756.0093-15.9515.0049-23.9273-.0002-.3273-.0532-.6545-.09-1.0782-2.9204,0-5.7705-.0248-8.6198.0105-1.4202.0176-2.4284-.4997-3.1174-1.7837-.9665-1.801-2.0512-3.5382-3.0428-5.3264-.3247-.5856-.671-.8499-1.3922-.8002-3.2102.2209-5.6477-1.1443-7.1997-3.9155-1.5264-2.7252-1.3718-5.4526.3384-8.1056.2097-.3254.2175-.969.0384-1.3234-.6522-1.2908-1.4651-2.4998-2.1326-3.7837-.3467-.6669-.7867-.8603-1.5077-.8561-4.7758.0281-9.552-.0061-14.3275.039-.6395.006-1.3563.214-1.9007.5499-3.9895,2.4611-6.5869,5.9752-7.7382,10.5332-.1312.5196-.1908,1.0572-.3071,1.72,1.3348,0,2.5258-.0577,3.7084.017,1.0776.0681,1.7121-.1943,2.2601-1.2792,1.3937-2.759,4.4318-4.1886,7.4992-3.7926,3.1894.4117,5.7211,2.5698,6.5066,5.5462.8107,3.0719-.256,6.2832-2.6973,8.12-3.8963,2.9315-9.2703,1.6996-11.5854-2.6212-.1978-.3691-.669-.8076-1.0377-.8312-1.482-.0949-2.9736-.0393-4.603-.0393Zm50.8993-57.1155c0-3.4172.203-6.6674-.048-9.8821-.3685-4.7204-3.6741-7.8902-8.1314-8.217-4.4261-.3245-8.2018,2.3276-9.2594,6.5965-.2634,1.063-.2812,2.1905-.3731,3.2916-.1392,1.669-1.448,2.7077-3.0903,2.3852-.4123-.0809-.8049-.2675-1.2026-.4162-7.1695-2.6807-14.7485,2.8324-14.4385,10.4766.0393.9702.3372,1.3579,1.3569,1.2965,1.4022-.0845,2.8147.019,4.2201-.0318,1.4761-.0534,2.5078.4992,3.2148,1.8344.9165,1.7308,1.9921,3.3774,2.9094,5.1079.4013.7571.8638.9568,1.7043.9343,3.242-.0868,5.6598,1.3718,7.1598,4.2319.3581.6827.7381.8823,1.4611.8777,4.4774-.0287,8.9552-.0125,13.4328-.0182.3634-.0005.7267-.0533,1.0634-.0798v-13.2667c-.7003,0-1.3393.0718-1.9561-.0148-1.3331-.187-2.0685.2926-2.761,1.5232-1.7949,3.1898-5.7429,4.379-9.258,3.0217-3.4277-1.3235-5.3956-4.8336-4.7215-8.4214.6335-3.3717,3.0525-5.733,6.4055-6.2529,3.3109-.5133,6.3681,1.0657,7.998,4.0729.208.3838.6308.8635,1.0003.9071,1.045.1233,2.114.0432,3.3133.0432Zm-40.9064,54.5798c.0165,1.3827,1.1428,2.5204,2.4993,2.5246,1.4203.0045,2.6021-1.1858,2.5798-2.5984-.0226-1.434-1.2014-2.5448-2.6535-2.5002-1.3847.0425-2.4425,1.165-2.4256,2.574Zm29.6989-54.5597c-1.4254.0246-2.5012,1.0919-2.5155,2.4956-.0145,1.4194,1.1633,2.5988,2.587,2.5904,1.3911-.0082,2.5578-1.2469,2.5069-2.6616-.05-1.3898-1.176-2.4485-2.5783-2.4243Zm.8133,86.0067c.0159-1.4046-1.0435-2.5098-2.4432-2.5488-1.4329-.0399-2.6466,1.1129-2.6428,2.5104.0038,1.3808,1.0992,2.5173,2.4778,2.5707,1.4355.0555,2.5915-1.0669,2.6081-2.5323Zm-6.3702-33.9848c1.411.0066,2.5136-1.0557,2.5423-2.4495.0304-1.4752-1.0639-2.6252-2.5075-2.6351-1.4164-.0098-2.5925,1.1766-2.5779,2.6003.0139,1.3512,1.1672,2.4778,2.5431,2.4843Zm-6.0713-33.5681c-1.3879.0064-2.4963,1.1074-2.511,2.4943-.0157,1.4759,1.092,2.6139,2.5353,2.6045,1.4328-.0093,2.5556-1.1781,2.5261-2.6295-.0277-1.3668-1.173-2.4757-2.5504-2.4693Z"/><path class="cls-3" d="m194.8122,70.8273c-3.3332-.0504-6.3382-1.1349-8.8202-3.5286-1.1994-1.1567-1.3424-2.6667-.3842-3.7453,1.0194-1.1474,2.5235-1.1499,3.8518-.0062,3.4257,2.9496,7.4641,2.9357,10.9692-.038,1.2881-1.0927,2.7525-1.0962,3.7613-.0088.9885,1.0654.8885,2.6101-.2821,3.7534-2.5034,2.445-5.5495,3.5371-9.0959,3.5735Z"/><path class="cls-3" d="m207.952,87.0903c-.1878.3275-.4514,1.0057-.8971,1.5285-2.8679,3.3645-2.8774,7.5094.0233,10.9016,1.128,1.3191,1.1396,2.8697.0291,3.856-1.1207.9953-2.5282.8646-3.7436-.3476-4.747-4.7343-4.6968-13.382.0975-18.0207.838-.8108,1.7698-1.1622,2.8984-.6949,1.0614.4394,1.552,1.2662,1.5924,2.777Z"/><path class="cls-3" d="m191.1151,129.8143c.0858-5.1546,3.5628-9.6472,8.0762-10.6876,1.8685-.4307,3.4244.8102,3.2824,2.636-.0894,1.1494-.7727,1.8321-1.8098,2.2395-3.5601,1.3986-4.8128,3.5846-4.2402,7.3677.2322,1.5344-.5631,2.7615-1.9905,3.0711-1.3004.2821-2.567-.5573-2.9668-1.9814-.1031-.367-.1903-.7433-.2339-1.1212-.0681-.5909-.0928-1.1868-.1173-1.5241Z"/><path class="cls-3" d="m178.4433,103.7982c-1.4559.0287-2.5826-1.0852-2.5835-2.5542-.0008-1.372,1.1155-2.5122,2.4866-2.5398,1.3515-.0272,2.5494,1.0948,2.6069,2.4417.0607,1.4235-1.0753,2.6239-2.51,2.6522Z"/></svg>