<?xml version="1.0" encoding="UTF-8"?><svg id="Layer_3" xmlns="http://www.w3.org/2000/svg" viewBox="0 0 191.5968 229.8541"><defs><style>.cls-1{fill:#4a9cd5;}</style></defs><path class="cls-1" d="m.9822,186.9972c3.1971-4.3935,4.3339-9.5467,9.0504-12.7581,12.9806-8.8384,25.6751-18.0965,38.5311-27.1197,1.2858-.9024,1.414-1.6611.908-3.0437-3.979-10.8729-7.8843-21.7728-11.8084-32.6658-.237-.658-.4415-1.3277-.8365-2.5221,5.542,3.7437,10.6348,7.1839,15.7276,10.6241-6.7705-13.4999-9.1203-27.615-7.3937-42.6194,33.8853,7.1106,67.5639,7.1143,101.4428.0213,1.1591,7.2873.8391,14.5516-.4296,21.7902-1.2668,7.2275-3.6533,14.0929-6.8489,20.8113,5.1005-3.4501,10.2009-6.9001,15.8083-10.6931-1.0907,3.0569-1.9768,5.5637-2.8788,8.0647-3.2623,9.0456-6.4951,18.1022-9.8301,27.121-.5498,1.4868-.3575,2.2438.9879,3.187,13.5036,9.467,26.9552,19.0083,40.3912,28.5711.8143.5795,1.5164,1.4357,2.0225,2.3074,1.662,2.8625,3.2095,5.7915,4.9266,8.9239-8.0792,0-44.6218-.446-44.6218-.446,0-27.7283-22.4782-50.2066-50.2066-50.2066s-50.2066,22.4782-50.2066,50.2066c0,0-33.157.446-44.7353.446Zm50.751-100.4488c1.047,4.8267,1.7922,9.288,3.0225,13.6112.9996,3.5126,3.595,5.6772,7.2931,6.3278,1.801.3169,3.595.6838,5.4045.9407,7.7608,1.1019,15.4975,2.5028,23.2963,3.1784,13.186,1.1423,26.0176-1.9211,38.9027-4.0747,4.2263-.7064,7.0923-3.6632,7.9503-7.8551.4063-1.985.8083-3.9708,1.2176-5.9552.4021-1.9498.8108-3.8982,1.2825-6.1638-29.5554,3.5027-58.7648,3.5402-88.3694-.0093Z"/><path class="cls-1" d="m98.4801,76.7997c-19.3571-.2049-36.0096-1.2113-52.2487-5.568-4.5148-1.2113-8.836-3.1899-13.1718-4.9947-1.349-.5615-2.5586-1.5969-3.6506-2.6107-3.1753-2.9479-3.1905-6.1732-.0063-9.1443,3.6928-3.4456,8.3684-5.0571,13.052-6.5428,2.9885-.948,6.0493-1.6891,9.1107-2.3756,1.1932-.2676,1.616-.7376,1.5951-1.951-.0633-3.665-.0388-7.332-.0181-10.998.0742-13.1964,13.277-21.7069,25.3477-16.3359,3.2876,1.4629,6.5472,2.9889,9.8314,4.4598,5.0646,2.2683,10.1462,2.2647,15.2116.0079,3.287-1.4645,6.5454-2.993,9.8327-4.4569,12.0777-5.3783,25.2908,3.1137,25.3688,16.3023.0217,3.666.0411,7.3328-.0162,10.9981-.0186,1.1883.3893,1.6331,1.5659,1.9783,5.3879,1.5805,10.812,3.1014,16.0518,5.094,2.4268.9229,4.6923,2.6271,6.62,4.4192,2.6644,2.4769,2.6583,5.684-.0922,8.0686-2.2338,1.9367-4.8518,3.5832-7.5506,4.8019-8.0032,3.6138-16.5934,5.1699-25.2109,6.4523-4.7858.7122-9.6105,1.2486-14.4371,1.5802-6.5924.453-13.2035.6354-17.1852.8154Z"/><path class="cls-1" d="m80.0394,106.3647c-7.5162.0084-13.4995-3.9463-15.4693-9.6468-.2122-.6142-.3782-1.2559-.4687-1.8986-.3654-2.5934.7737-3.8008,3.3474-3.3392,4.2466.7617,8.4688,1.6594,12.6999,2.5073,3.0128.6038,6.0289,1.1934,9.0329,1.8385,2.6993.5796,3.4333,2.2689,1.8634,4.5778-2.8388,4.1751-6.9838,5.8815-11.0055,5.961Zm3.4084-6.0206c.0501-1.9725-1.4285-3.5907-3.3116-3.6244-1.8414-.0329-3.4676,1.4726-3.511,3.2506-.046,1.8821,1.503,3.455,3.4535,3.5065,1.6895.0446,3.3271-1.4781,3.3691-3.1327Z"/><path class="cls-1" d="m112.7788,106.4469c-5.3641-.3531-9.6386-2.05-12.2676-6.6574-1.0351-1.8141-.3232-3.4546,1.7081-3.8739,7.4141-1.5305,14.8368-3.0219,22.2709-4.4522,2.3942-.4607,3.604.8135,3.3139,3.2363-.5982,4.9967-5.7477,10.1493-11.2728,11.2248-1.3382.2605-2.704.3797-3.7525.5224Zm-1.0688-9.6903c-1.7827.0179-3.3436,1.6145-3.3203,3.3962.0227,1.7329,1.6842,3.3401,3.4397,3.3273,1.8044-.0132,3.3843-1.5647,3.4214-3.3598.0398-1.9318-1.4892-3.3843-3.5408-3.3637Z"/><path class="cls-1" d="m54.9152,191.0882c0-2.9886,0-5.9772,0-8.9657.1063-.3357.2688-.6646.311-1.0082,2.7596-22.4667,24.5233-38.7481,46.9155-35.0889,18.5497,3.0314,32.2395,17.2894,34.4995,35.9314,2.452,20.226-10.7913,39.4772-30.5497,44.3848-1.8893.4693-3.8042.8358-5.7072,1.25h-8.9657c-.2289-.098-.4502-.2542-.6879-.2858-17.0247-2.2673-30.4332-14.1834-34.6465-30.8291-.4507-1.7807-.7822-3.5915-1.169-5.3884Zm15.4962-23.2463c-8.3921,10.2984-9.5917,29.0925,3.445,41.6398,13.2101,12.7141,31.7619,10.2824,40.7651,2.5702-14.7346-14.7346-29.4759-29.4758-44.2101-44.21Zm7.2911-7.1832c14.7274,14.7274,29.4261,29.4261,44.1122,44.1121,7.5917-9.6195,9.1571-27.5286-3.0105-40.1879-11.8803-12.3604-29.9408-12.2657-41.1017-3.9242Z"/></svg>