<?xml version="1.0" encoding="UTF-8"?><svg id="Layer_1" xmlns="http://www.w3.org/2000/svg" viewBox="0 0 272.7149 252.4471"><defs><style>.cls-1{fill:#fff;}</style></defs><path class="cls-1" d="m48.1548,93.3842c-8.7406,10.0705-17.4641,20.1558-26.2273,30.2066-6.5901,7.5582-12.6011,9.0721-17.9625,4.6069-5.6932-4.7416-5.2447-12.159,1.2767-19.699,12.1009-13.9911,24.3303-27.8726,36.3068-41.9691,3.7812-4.4506,8.0595-6.5803,13.9713-6.5006,16.6238.2241,33.2549.235,49.8784-.0067,5.9408-.0864,10.2016,2.1156,13.959,6.5403,11.0301,12.9889,22.2724,25.7975,34.1026,39.4511,13.3918-13.5483,26.357-26.6754,39.3353-39.7894,4.2829-4.3276,8.4559-8.7823,12.987-12.8348,1.3895-1.2427,3.8021-1.3414,5.7462-1.9639-.7523,1.9242-1.0007,4.3451-2.3334,5.6969-16.2761,16.5082-32.7043,32.8665-49.1261,49.2307-.8211.8182-1.9438,1.3339-3.0641,2.0827,1.0528,2.1606,1.7638,3.5303,2.3971,4.935,2.59,5.7452,2.1736,11.0163-2.9639,15.1526-4.4739,3.6021-10.4088,2.8796-15.0372-2.2423-8.6326-9.5532-16.9518-19.3901-25.3746-29.1322-1.0491-1.2134-1.9347-2.5682-2.896-3.8575-.6182.1952-1.2363.3904-1.8544.5856,0,2.3999,0,4.7997,0,7.1995-.0007,38.8742-.0015,77.7483-.0021,116.6224,0,5.8545.0081,11.7091.0002,17.5636-.0151,11.1908-4.1376,17.054-12.069,17.1826-7.6307.1238-11.5112-5.4649-11.522-16.7003-.0189-19.6712-.0064-39.3425-.007-59.0137,0-2.5304,0-5.0608,0-8.0977h-13.7765c-.1231,2.3839-.3557,4.8329-.3593,7.2822-.0303,20.6079.0975,41.2173-.1372,61.8226-.0378,3.3187-.6217,7.7695-2.7564,9.6507-2.9682,2.6157-7.901,4.9123-11.5025,4.3272-3.1901-.5184-6.3631-4.781-8.3044-8.1127-1.3725-2.3554-.8716-5.9161-.8745-8.9391-.0428-44.4942-.0296-88.9885-.0298-133.4828v-7.4005c-.5934-.1323-1.1867-.2646-1.7801-.3968Z"/><path class="cls-1" d="m115.7387,29.1309c-.2064-3.4386-.3838-6.3942-.6232-10.3836,12.4161,0,24.4903.0237,36.5644-.0106,5.5852-.0159,10.8933,1.0739,14.8995-5.5411,3.2545-5.3738,21.9998-2.5194,26.07,2.5012,1.3927,1.7178,4.4449,2.903,6.7573,2.9334,18.0309.2369,36.0665.0978,54.1004.1452,13.4845.0354,19.1698,5.7419,19.1821,19.2726.0318,34.897.0359,69.7941.0021,104.691-.0127,13.1705-5.6373,18.7536-18.808,18.8067-11.4757.0463-22.9516.0338-34.4274.0605-.4595.0011-.9186.1382-1.8301.2845-4.4768,14.5915-17.4169,5.4233-26.7271,9.2341.3514,1.718.6187,3.7154,1.1733,5.6295,6.3175,21.8002,12.5764,43.6184,19.1078,65.3546,1.4399,4.7917,1.4484,7.9944-4.1585,9.6827-5.8983,1.776-6.0604-2.5608-7.0848-6.0197-6.246-21.0908-12.4281-42.2004-18.6641-63.2942-.7088-2.3976-1.6205-4.7353-3.0448-8.8558-5.7946,19.61-11.0656,37.4526-16.3398,55.2942-1.7247,5.8344-3.4908,11.6567-5.1748,17.5028-1.0062,3.493-1.6263,6.9783-6.8977,5.3847-5.0841-1.5371-5.7559-4.4378-4.3774-9.0612,6.3513-21.3032,12.5374-42.6557,18.7622-63.9966.7092-2.4314,1.2899-4.9003,2.2544-8.5933-5.8871,0-11.1451.2028-16.3754-.0896-2.4402-.1365-6.4154-.5945-6.9779-1.9967-3.4611-8.6276-10.617-6.3083-16.9736-6.5163-1.8239-.0597-3.6515-.0092-5.901-.0092v-10.0893c3.0133,0,5.7548-.0003,8.4962,0,40.9864.0047,81.9729.0182,122.9593.0077,9.7538-.0025,10.5936-.789,10.6026-10.2393.0326-34.1941.0351-68.3884.0109-102.5825-.0062-8.6763-.8649-9.4892-9.815-9.4932-42.8601-.0191-85.7202-.0115-128.5803-.0134-2.5493-.0001-5.0985,0-8.1618,0Z"/><path class="cls-1" d="m81.0141.0021c14.629.1798,26.0877,11.91,25.9538,26.5686-.133,14.5616-11.9148,25.9836-26.6569,25.8428-14.6098-.1395-26.2745-12.0513-25.9913-26.542C54.6061,11.2138,66.3612-.178,81.0141.0021Z"/></svg>