<?xml version="1.0" encoding="UTF-8"?><svg id="Layer_1" xmlns="http://www.w3.org/2000/svg" xmlns:xlink="http://www.w3.org/1999/xlink" viewBox="0 0 290.6409 273.4852"><defs><style>.cls-1{fill:none;}.cls-2{clip-path:url(#clippath);}.cls-3{fill:#fff;}.cls-4{fill:#4a9cd5;}</style><clipPath id="clippath"><path class="cls-1" d="m128.2148,183.6769c-5.1444-11.1759-8.0133-23.6155-8.0133-36.7252,0-48.5619,39.3672-87.929,87.929-87.929l-2.9112-29.6004L54.7772,0,13.2741,19.0991,0,121.205l21.7802,60.6115,106.4346,1.8604Z"/></clipPath></defs><g><g><path class="cls-3" d="m138.7039,164.5283c-8.3401-41.6941,18.5642-81.9381,60.3551-90.2804,41.4492-8.2741,81.8657,18.767,90.0958,60.3885,8.3514,42.2346-19.3613,82.6051-61.4353,90.3359-41.0687,7.5462-80.8233-19.1241-89.0156-60.444Zm86.2897,40.6794c30.1875-5.805,50.5954-35.7812,44.7977-65.8011-6.0029-31.0824-35.5438-51.5866-65.9577-45.7809-31.4606,6.0055-51.5783,35.3816-45.5897,66.5704,5.9736,31.1104,35.4998,51.0209,66.7497,45.0115Z"/><path class="cls-3" d="m154.9881,208.4837c7.8901,7.9189,16.9442,13.8573,27.2357,18.1801-.333.6516-.5242,1.1363-.806,1.5609-8.2395,12.4163-16.432,24.8644-24.7541,37.2251-5.9052,8.7709-16.7563,10.5947-24.6792,4.3166-6.2913-4.9853-8.4183-14.2048-4.0999-20.9532,8.5687-13.3904,17.5496-26.517,26.3685-39.7471.1165-.1748.3423-.2768.735-.5823Z"/></g><g><path class="cls-4" d="m138.7039,164.5283c-8.3401-41.6941,18.5642-81.9381,60.3551-90.2804,41.4492-8.2741,81.8657,18.767,90.0958,60.3885,8.3514,42.2346-19.3613,82.6051-61.4353,90.3359-41.0687,7.5462-80.8233-19.1241-89.0156-60.444Zm86.2897,40.6794c30.1875-5.805,50.5954-35.7812,44.7977-65.8011-6.0029-31.0824-35.5438-51.5866-65.9577-45.7809-31.4606,6.0055-51.5783,35.3816-45.5897,66.5704,5.9736,31.1104,35.4998,51.0209,66.7497,45.0115Z"/><path class="cls-4" d="m154.9881,208.4837c7.8901,7.9189,16.9442,13.8573,27.2357,18.1801-.333.6516-.5242,1.1363-.806,1.5609-8.2395,12.4163-16.432,24.8644-24.7541,37.2251-5.9052,8.7709-16.7563,10.5947-24.6792,4.3166-6.2913-4.9853-8.4183-14.2048-4.0999-20.9532,8.5687-13.3904,17.5496-26.517,26.3685-39.7471.1165-.1748.3423-.2768.735-.5823Z"/></g></g><g class="cls-2"><g><path class="cls-4" d="m16.1601,138.7802c.0041-1.0152-.0739-2.0386.026-3.0443.4673-4.7073.0397-8.2535-5.395-10.6807-6.0145-2.6862-7.7403-10.3756-5.0966-17.0106,3.1129-7.8125,6.4319-15.5431,9.5216-23.3645.6879-1.7415,1.0806-3.7081,1.1154-5.5803.1493-8.018.0897-16.0397.1523-24.0596.076-9.7385,5.273-15.1409,14.9396-15.3279,1.9195-.0371,2.6384-.8192,3.2607-2.4076,1.8499-4.7221,3.8215-9.3968,5.7637-14.0825,3.5807-8.6391,11.1382-11.7573,19.8657-8.1838,19.2441,7.8796,38.4677,15.8097,57.7464,23.6038,2.0923.8459,4.4877,1.2978,6.7477,1.3173,20.5066.1767,41.0143.2094,61.5217.2994,10.5361.0462,15.8572,5.4448,15.8258,16.014-.0142,4.7715.0194,9.5441-.0759,14.314-.034,1.7018.3597,2.7133,2.1073,3.4778,8.8587,3.8757,11.6481,10.9195,8.0145,19.8676-3.0109,7.4146-6.1336,14.7848-9.0524,22.2351-.7193,1.836-1.1415,3.9011-1.1804,5.8711-.1584,8.0177-.1031,16.0395-.1486,24.0596-.0537,9.476-5.334,14.9897-14.7834,15.1938-2.0062.0433-2.8321.8051-3.4921,2.5363-1.6982,4.4545-3.5649,8.8449-5.3764,13.256-3.9329,9.5771-11.2286,12.5554-20.8911,8.5875-19.0479-7.822-38.0913-15.6553-57.1808-23.3746-2.0024-.8097-4.298-1.2327-6.4624-1.2505-20.5066-.169-41.0144-.1969-61.5217-.2961-10.749-.052-16.0111-5.4128-15.9741-16.1836.0066-1.9289.0149-3.8578.0226-5.7867Zm92.6768,16.5893c25.7856.1004,51.5712.2022,77.3569.3002,6.7649.0257,9.9595-3.0668,9.9724-9.7614.0234-12.0738-.0506-24.148.001-36.2217.0763-17.8603.237-35.7203.3408-53.5805.0414-7.1312-2.9885-10.1585-10.1597-10.187-51.3682-.2046-102.7364-.4048-154.1046-.5998-6.966-.0264-10.0972,3.0327-10.1103,9.9314-.0258,13.5986.0326,27.1974-.0239,40.7958-.0679,16.3299-.2316,32.6594-.3288,48.9892-.0412,6.925,3.0478,9.9997,10.004,10.0278,25.6841.1038,51.3682.2016,77.0523.3059Zm69.5339,6.148c-21.766-.0848-43.0588-.1677-64.5014-.2511.2443.3619.3133.5972.4551.6553,15.6587,6.4233,31.3044,12.8787,46.9983,19.2149,4.3823,1.7693,8.8138-.0073,10.7089-4.2477,2.189-4.8981,4.1053-9.9182,6.3392-15.3714ZM39.9189,39.4946c21.7684.0848,43.0623.1677,64.4098.2508-.0781-.28-.0787-.4306-.1321-.4526-16.0193-6.5869-32.0091-13.2477-48.089-19.6832-3.8619-1.5456-8.0984.5535-9.8409,4.4832-2.1756,4.9065-4.1038,9.9227-6.3477,15.4018Zm162.473,40.1553c-.0286,7.3481-.0562,14.436-.0838,21.5239,2.1383-3.7127,3.9575-7.4307,5.3296-11.307,1.5485-4.3746-.6476-8.4407-5.2458-10.2169ZM16.2259,121.5101c.0294-7.5406.0601-14.6925.073-21.8444.0004-.2467-.1774-.4937-.5718-1.5216-1.9301,5.3426-3.8987,9.9573-5.2309,14.7489-1.027,3.6938,1.2026,6.7758,5.7297,8.6172Z"/><path class="cls-4" d="m186.6244,123.0443c-.0086,2.6388.1379,5.293-.1169,7.908-.0854.8767-1.0434,2.1618-1.8564,2.4024-22.0946,6.5399-44.1963,6.4098-66.2935-.0984-1.6005-.4714-2.0314-1.2581-2.0005-2.8037.0931-4.6672.1593-9.3389.06-14.0052-.1833-8.6137,7.0301-14.4815,15.1698-14.4252,4.3351.03,8.7316,1.4112,12.9708,2.6323,5.9318,1.7086,11.4856,1.0537,17.1989-1.0635,8.2451-3.0554,18.2336-2.1518,22.976,5.9025,1.0745,1.8249,1.5734,4.1142,1.8462,6.2524.3056,2.3956.0534,4.8625.0456,7.2983Z"/><path class="cls-4" d="m133.1287,83.2183c.0731-11.1656,7.4857-19.9177,16.9891-20.6352,11.6253-.8777,21.3747,9.6454,20.043,21.8128-.9023,8.2437-4.5926,14.6437-12.829,17.5618-10.8952,3.8601-22.6176-4.1104-24.0418-16.2873-.1174-1.004-.1342-2.0198-.1613-2.4521Z"/><rect class="cls-4" x="66.0553" y="34.881" width="8.1306" height="69.9583" rx=".5" ry=".5" transform="translate(-.012 139.7082) rotate(-89.7769)"/><rect class="cls-4" x="65.9771" y="54.9762" width="8.1306" height="69.9583" rx=".5" ry=".5" transform="translate(-20.185 159.6469) rotate(-89.7769)"/><rect class="cls-4" x="65.8988" y="75.0713" width="8.1306" height="69.9583" rx=".5" ry=".5" transform="translate(-40.358 179.5856) rotate(-89.7769)"/><rect class="cls-4" x="65.8206" y="95.1665" width="8.1306" height="69.9583" rx=".5" ry=".5" transform="translate(-60.5309 199.5243) rotate(-89.7769)"/></g></g><path class="cls-4" d="m82.5057,190.2027c1.9688,0,3.7798-.0085,5.5908.0024,1.7294.0105,2.3115.5958,2.3269,2.3235.0094,1.061.0038,2.1221-.0007,3.1831-.0069,1.6132-.664,2.285-2.2613,2.2923-1.8452.0084-3.6905.002-5.5972.002v7.9333c1.9023,0,3.7463-.0069,5.5902.0021,1.6196.0078,2.2529.6504,2.2636,2.2755.0065.9852.0106,1.9706.0059,2.9558-.0097,2.0405-.5338,2.5674-2.5403,2.5678-1.7363.0003-3.4726,0-5.3775,0,0,1.8224-.0026,3.5499.0007,5.2774.004,2.1139-.4964,2.6304-2.5821,2.6398-1.061.0048-2.1226.0183-3.1831-.0069-1.337-.0317-2.0205-.7199-2.0319-2.0507-.0163-1.8925-.0041-3.7851-.0041-5.7733h-7.933c0,1.8495.0052,3.6586-.0015,5.4676-.0064,1.74-.6516,2.3632-2.4207,2.3607-1.1368-.0016-2.2747.0285-3.4102-.0112-1.3094-.0458-1.9413-.6819-1.9606-1.9868-.0284-1.9234-.0073-3.8475-.0073-5.9207-1.922,0-3.7268.0012-5.5317-.0004-1.7937-.0016-2.3702-.5703-2.3871-2.3723-.0099-1.061-.0067-2.1223.0018-3.1833.0125-1.5664.6437-2.2239,2.1858-2.2375,1.8519-.0162,3.704-.0038,5.6422-.0038v-7.9363c-1.714,0-3.4386-.0008-5.1632.0002-2.1573.0013-2.6685-.5123-2.6658-2.6758.0012-.9474-.013-1.895-.0032-2.8423.0171-1.6532.6271-2.2732,2.2548-2.2818,1.8172-.0096,3.6346-.0022,5.6639-.0022,0-.675-.0001-1.2973,0-1.9197.0003-1.3643-.0251-2.7293.0089-4.0927.0292-1.1724.6552-1.8363,1.8286-1.8842,1.3621-.0556,2.7293-.0564,4.0918-.0087,1.1903.0416,1.8513.7642,1.8659,1.9859.0231,1.9245.0061,3.8495.0061,5.8475h7.9248c0-1.7167-.0033-3.4065.0008-5.0962.0054-2.2499.4884-2.737,2.7147-2.744,1.0232-.0032,2.0472-.0254,3.0693.0072,1.3734.0438,2.0053.6833,2.0198,2.0473.0201,1.89.005,3.7804.005,5.8594Zm-15.6355,7.8462v7.8042h7.7564v-7.8042h-7.7564Z"/><path class="cls-4" d="m35.0055,190.2027c1.9688,0,3.7798-.0085,5.5908.0024,1.7294.0105,2.3115.5958,2.3269,2.3235.0094,1.061.0038,2.1221-.0007,3.1831-.0069,1.6132-.664,2.285-2.2613,2.2923-1.8452.0084-3.6905.002-5.5972.002v7.9333c1.9023,0,3.7463-.0069,5.5902.0021,1.6196.0078,2.2529.6504,2.2636,2.2755.0065.9852.0106,1.9706.0059,2.9558-.0097,2.0405-.5338,2.5674-2.5403,2.5678-1.7363.0003-3.4726,0-5.3775,0,0,1.8224-.0026,3.5499.0007,5.2774.004,2.1139-.4964,2.6304-2.5821,2.6398-1.061.0048-2.1226.0183-3.1831-.0069-1.337-.0317-2.0205-.7199-2.0319-2.0507-.0163-1.8925-.0041-3.7851-.0041-5.7733h-7.933c0,1.8495.0052,3.6586-.0015,5.4676-.0064,1.74-.6516,2.3632-2.4207,2.3607-1.1368-.0016-2.2747.0285-3.4102-.0112-1.3094-.0458-1.9413-.6819-1.9606-1.9868-.0284-1.9234-.0073-3.8475-.0073-5.9207-1.922,0-3.7268.0012-5.5317-.0004-1.7937-.0016-2.3702-.5703-2.3871-2.3723-.0099-1.061-.0067-2.1223.0018-3.1833.0125-1.5664.6437-2.2239,2.1858-2.2375,1.8519-.0162,3.704-.0038,5.6422-.0038v-7.9363c-1.714,0-3.4386-.0008-5.1632.0002-2.1573.0013-2.6685-.5123-2.6658-2.6758.0012-.9474-.013-1.895-.0032-2.8423.0171-1.6532.6271-2.2732,2.2548-2.2818,1.8172-.0096,3.6346-.0022,5.6639-.0022,0-.675-.0001-1.2973,0-1.9197.0003-1.3643-.0251-2.7293.0089-4.0927.0292-1.1724.6552-1.8363,1.8286-1.8842,1.3621-.0556,2.7293-.0564,4.0918-.0087,1.1903.0416,1.8513.7642,1.8659,1.9859.0231,1.9245.0061,3.8495.0061,5.8475h7.9248c0-1.7167-.0033-3.4065.0008-5.0962.0054-2.2499.4884-2.737,2.7147-2.744,1.0232-.0032,2.0472-.0254,3.0693.0072,1.3734.0438,2.0053.6833,2.0198,2.0473.0201,1.89.005,3.7804.005,5.8594Zm-15.6355,7.8462v7.8042h7.7564v-7.8042h-7.7564Z"/><path class="cls-4" d="m129.2654,190.2027c1.9688,0,3.7798-.0085,5.5908.0024,1.7294.0105,2.3115.5958,2.3269,2.3235.0094,1.061.0038,2.1221-.0007,3.1831-.0069,1.6132-.664,2.285-2.2613,2.2923-1.8452.0084-3.6905.002-5.5972.002v7.9333c1.9023,0,3.7463-.0069,5.5902.0021,1.6196.0078,2.2529.6504,2.2636,2.2755.0065.9852.0106,1.9706.0059,2.9558-.0097,2.0405-.5338,2.5674-2.5403,2.5678-1.7363.0003-3.4726,0-5.3775,0,0,1.8224-.0026,3.5499.0007,5.2774.004,2.1139-.4964,2.6304-2.5821,2.6398-1.061.0048-2.1226.0183-3.1831-.0069-1.337-.0317-2.0205-.7199-2.0319-2.0507-.0163-1.8925-.0041-3.7851-.0041-5.7733h-7.933c0,1.8495.0052,3.6586-.0015,5.4676-.0064,1.74-.6516,2.3632-2.4207,2.3607-1.1368-.0016-2.2747.0285-3.4102-.0112-1.3094-.0458-1.9413-.6819-1.9606-1.9868-.0284-1.9234-.0073-3.8475-.0073-5.9207-1.922,0-3.7268.0012-5.5317-.0004-1.7937-.0016-2.3702-.5703-2.3871-2.3723-.0099-1.061-.0067-2.1223.0018-3.1833.0125-1.5664.6437-2.2239,2.1858-2.2375,1.8519-.0162,3.704-.0038,5.6422-.0038v-7.9363c-1.714,0-3.4386-.0008-5.1632.0002-2.1573.0013-2.6685-.5123-2.6658-2.6758.0012-.9474-.013-1.895-.0032-2.8423.0171-1.6532.6271-2.2732,2.2548-2.2818,1.8172-.0096,3.6346-.0022,5.6639-.0022,0-.675-.0001-1.2973,0-1.9197.0003-1.3643-.0251-2.7293.0089-4.0927.0292-1.1724.6552-1.8363,1.8286-1.8842,1.3621-.0556,2.7293-.0564,4.0918-.0087,1.1903.0416,1.8513.7642,1.8659,1.9859.0231,1.9245.0061,3.8495.0061,5.8475h7.9248c0-1.7167-.0033-3.4065.0008-5.0962.0054-2.2499.4884-2.737,2.7147-2.744,1.0232-.0032,2.0472-.0254,3.0693.0072,1.3734.0438,2.0053.6833,2.0198,2.0473.0201,1.89.005,3.7804.005,5.8594Zm-15.6355,7.8462v7.8042h7.7564v-7.8042h-7.7564Z"/><path class="cls-4" d="m235.1442,127.9173c3.5518,0,6.819-.0153,10.0861.0044,3.1199.0189,4.1701,1.0748,4.1978,4.1918.017,1.914.0069,3.8284-.0013,5.7426-.0125,2.9103-1.1979,4.1223-4.0794,4.1355-3.3289.0152-6.6579.0035-10.0977.0035v14.3122c3.4318,0,6.7585-.0124,10.0851.0037,2.9219.0141,4.0643,1.1734,4.0836,4.1051.0117,1.7774.0191,3.555.0106,5.3324-.0176,3.6812-.963,4.6318-4.5828,4.6324-3.1324.0005-6.2647.0001-9.7013.0001,0,3.2877-.0047,6.4042.0012,9.5207.0072,3.8136-.8955,4.7454-4.6582,4.7624-1.9142.0086-3.8292.0329-5.7424-.0125-2.4121-.0572-3.6451-1.2987-3.6657-3.6996-.0294-3.4141-.0075-6.8286-.0075-10.4154h-14.3115c0,3.3366.0093,6.6003-.0027,9.8639-.0116,3.1391-1.1756,4.2634-4.367,4.2588-2.0509-.003-4.1037.0515-6.1522-.0201-2.3622-.0826-3.5022-1.2303-3.537-3.5843-.0513-3.4699-.0132-6.9411-.0132-10.6813-3.4673,0-6.7234.0022-9.9795-.0006-3.2359-.0028-4.276-1.0288-4.3064-4.2798-.0179-1.9141-.012-3.8287.0032-5.7429.0225-2.8259,1.1613-4.0121,3.9432-4.0365,3.3409-.0293,6.6823-.0069,10.1788-.0069v-14.3175c-3.0921,0-6.2034-.0015-9.3146.0004-3.8918.0024-4.814-.9242-4.8092-4.8272.0021-1.7092-.0235-3.4186-.0058-5.1276.0308-2.9825,1.1313-4.101,4.0678-4.1166,3.2784-.0174,6.5569-.004,10.218-.004,0-1.2177-.0002-2.3404,0-3.4632.0005-2.4613-.0453-4.9237.0161-7.3835.0527-2.1151,1.182-3.3128,3.2989-3.3993,2.4572-.1003,4.9238-.1018,7.3818-.0158,2.1473.0751,3.3398,1.3786,3.3663,3.5826.0417,3.4719.0111,6.9448.0111,10.5492h14.2968c0-3.097-.0059-6.1454.0015-9.1939.0098-4.059.8812-4.9377,4.8975-4.9503,1.8458-.0058,3.6932-.0458,5.5372.0131,2.4777.0791,3.6177,1.2327,3.6438,3.6935.0362,3.4097.0091,6.8201.0091,10.5706Zm-28.2072,14.155v14.0793h13.9929v-14.0793h-13.9929Z"/></svg>