<?xml version="1.0" encoding="UTF-8"?><svg id="Layer_1" xmlns="http://www.w3.org/2000/svg" xmlns:xlink="http://www.w3.org/1999/xlink" viewBox="0 0 290.6409 273.4852"><defs><style>.cls-1{fill:none;}.cls-2{clip-path:url(#clippath);}.cls-3{fill:#fff;}.cls-4{fill:#4a9cd5;}</style><clipPath id="clippath"><path class="cls-1" d="m128.2148,183.6769c-5.1444-11.1759-8.0133-23.6155-8.0133-36.7252,0-48.5619,39.3672-87.929,87.929-87.929l-2.9112-29.6004L54.7772,0,13.2741,19.0991,0,121.205l21.7802,60.6115,106.4346,1.8604Z"/></clipPath></defs><path class="cls-4" d="m247.2518,169.7283c-.0088,2.7154.1419,5.4466-.1203,8.1375-.0879.9022-1.0736,2.2245-1.9102,2.4721-22.7358,6.7297-45.479,6.5959-68.2174-.1012-1.6469-.4851-2.0903-1.2946-2.0586-2.8851.0958-4.8027.164-9.61.0618-14.4117-.1886-8.8637,7.2341-14.9018,15.61-14.8438,4.461.0308,8.985,1.4522,13.3472,2.7087,6.1039,1.7582,11.8189,1.0843,17.6981-1.0943,8.4844-3.144,18.7628-2.2143,23.6428,6.0738,1.1057,1.8779,1.619,4.2336,1.8997,6.4339.3145,2.4652.0549,5.0036.0469,7.5101Z"/><path class="cls-4" d="m192.2035,128.7465c.0752-11.4896,7.703-20.4957,17.4822-21.2341,11.9627-.9032,21.9951,9.9253,20.6247,22.4459-.9285,8.4829-4.7259,15.0687-13.2014,18.0714-11.2114,3.9721-23.274-4.2297-24.7395-16.76-.1208-1.0331-.138-2.0784-.166-2.5232Z"/><g><g><path class="cls-3" d="m138.7039,164.5283c-8.3401-41.6941,18.5642-81.9381,60.3551-90.2804,41.4492-8.2741,81.8657,18.767,90.0958,60.3885,8.3514,42.2346-19.3613,82.6051-61.4353,90.3359-41.0687,7.5462-80.8233-19.1241-89.0156-60.444Zm86.2897,40.6794c30.1875-5.805,50.5954-35.7812,44.7977-65.8011-6.0029-31.0824-35.5438-51.5866-65.9577-45.7809-31.4606,6.0055-51.5783,35.3816-45.5897,66.5704,5.9736,31.1104,35.4998,51.0209,66.7497,45.0115Z"/><path class="cls-3" d="m154.9881,208.4837c7.8901,7.9189,16.9442,13.8573,27.2357,18.1801-.333.6516-.5242,1.1363-.806,1.5609-8.2395,12.4163-16.432,24.8644-24.7541,37.2251-5.9052,8.7709-16.7563,10.5947-24.6792,4.3166-6.2913-4.9853-8.4183-14.2048-4.0999-20.9532,8.5687-13.3904,17.5496-26.517,26.3685-39.7471.1165-.1748.3423-.2768.735-.5823Z"/></g><g><path class="cls-4" d="m138.7039,164.5283c-8.3401-41.6941,18.5642-81.9381,60.3551-90.2804,41.4492-8.2741,81.8657,18.767,90.0958,60.3885,8.3514,42.2346-19.3613,82.6051-61.4353,90.3359-41.0687,7.5462-80.8233-19.1241-89.0156-60.444Zm86.2897,40.6794c30.1875-5.805,50.5954-35.7812,44.7977-65.8011-6.0029-31.0824-35.5438-51.5866-65.9577-45.7809-31.4606,6.0055-51.5783,35.3816-45.5897,66.5704,5.9736,31.1104,35.4998,51.0209,66.7497,45.0115Z"/><path class="cls-4" d="m154.9881,208.4837c7.8901,7.9189,16.9442,13.8573,27.2357,18.1801-.333.6516-.5242,1.1363-.806,1.5609-8.2395,12.4163-16.432,24.8644-24.7541,37.2251-5.9052,8.7709-16.7563,10.5947-24.6792,4.3166-6.2913-4.9853-8.4183-14.2048-4.0999-20.9532,8.5687-13.3904,17.5496-26.517,26.3685-39.7471.1165-.1748.3423-.2768.735-.5823Z"/></g></g><g class="cls-2"><g><path class="cls-4" d="m16.1601,138.7802c.0041-1.0152-.0739-2.0386.026-3.0443.4673-4.7073.0397-8.2535-5.395-10.6807-6.0145-2.6862-7.7403-10.3756-5.0966-17.0106,3.1129-7.8125,6.4319-15.5431,9.5216-23.3645.6879-1.7415,1.0806-3.7081,1.1154-5.5803.1493-8.018.0897-16.0397.1523-24.0596.076-9.7385,5.273-15.1409,14.9396-15.3279,1.9195-.0371,2.6384-.8192,3.2607-2.4076,1.8499-4.7221,3.8215-9.3968,5.7637-14.0825,3.5807-8.6391,11.1382-11.7573,19.8657-8.1838,19.2441,7.8796,38.4677,15.8097,57.7464,23.6038,2.0923.8459,4.4877,1.2978,6.7477,1.3173,20.5066.1767,41.0143.2094,61.5217.2994,10.5361.0462,15.8572,5.4448,15.8258,16.014-.0142,4.7715.0194,9.5441-.0759,14.314-.034,1.7018.3597,2.7133,2.1073,3.4778,8.8587,3.8757,11.6481,10.9195,8.0145,19.8676-3.0109,7.4146-6.1336,14.7848-9.0524,22.2351-.7193,1.836-1.1415,3.9011-1.1804,5.8711-.1584,8.0177-.1031,16.0395-.1486,24.0596-.0537,9.476-5.334,14.9897-14.7834,15.1938-2.0062.0433-2.8321.8051-3.4921,2.5363-1.6982,4.4545-3.5649,8.8449-5.3764,13.256-3.9329,9.5771-11.2286,12.5554-20.8911,8.5875-19.0479-7.822-38.0913-15.6553-57.1808-23.3746-2.0024-.8097-4.298-1.2327-6.4624-1.2505-20.5066-.169-41.0144-.1969-61.5217-.2961-10.749-.052-16.0111-5.4128-15.9741-16.1836.0066-1.9289.0149-3.8578.0226-5.7867Zm92.6768,16.5893c25.7856.1004,51.5712.2022,77.3569.3002,6.7649.0257,9.9595-3.0668,9.9724-9.7614.0234-12.0738-.0506-24.148.001-36.2217.0763-17.8603.237-35.7203.3408-53.5805.0414-7.1312-2.9885-10.1585-10.1597-10.187-51.3682-.2046-102.7364-.4048-154.1046-.5998-6.966-.0264-10.0972,3.0327-10.1103,9.9314-.0258,13.5986.0326,27.1974-.0239,40.7958-.0679,16.3299-.2316,32.6594-.3288,48.9892-.0412,6.925,3.0478,9.9997,10.004,10.0278,25.6841.1038,51.3682.2016,77.0523.3059Zm69.5339,6.148c-21.766-.0848-43.0588-.1677-64.5014-.2511.2443.3619.3133.5972.4551.6553,15.6587,6.4233,31.3044,12.8787,46.9983,19.2149,4.3823,1.7693,8.8138-.0073,10.7089-4.2477,2.189-4.8981,4.1053-9.9182,6.3392-15.3714ZM39.9189,39.4946c21.7684.0848,43.0623.1677,64.4098.2508-.0781-.28-.0787-.4306-.1321-.4526-16.0193-6.5869-32.0091-13.2477-48.089-19.6832-3.8619-1.5456-8.0984.5535-9.8409,4.4832-2.1756,4.9065-4.1038,9.9227-6.3477,15.4018Zm162.473,40.1553c-.0286,7.3481-.0562,14.436-.0838,21.5239,2.1383-3.7127,3.9575-7.4307,5.3296-11.307,1.5485-4.3746-.6476-8.4407-5.2458-10.2169ZM16.2259,121.5101c.0294-7.5406.0601-14.6925.073-21.8444.0004-.2467-.1774-.4937-.5718-1.5216-1.9301,5.3426-3.8987,9.9573-5.2309,14.7489-1.027,3.6938,1.2026,6.7758,5.7297,8.6172Z"/><path class="cls-4" d="m186.6244,123.0443c-.0086,2.6388.1379,5.293-.1169,7.908-.0854.8767-1.0434,2.1618-1.8564,2.4024-22.0946,6.5399-44.1963,6.4098-66.2935-.0984-1.6005-.4714-2.0314-1.2581-2.0005-2.8037.0931-4.6672.1593-9.3389.06-14.0052-.1833-8.6137,7.0301-14.4815,15.1698-14.4252,4.3351.03,8.7316,1.4112,12.9708,2.6323,5.9318,1.7086,11.4856,1.0537,17.1989-1.0635,8.2451-3.0554,18.2336-2.1518,22.976,5.9025,1.0745,1.8249,1.5734,4.1142,1.8462,6.2524.3056,2.3956.0534,4.8625.0456,7.2983Z"/><path class="cls-4" d="m133.1287,83.2183c.0731-11.1656,7.4857-19.9177,16.9891-20.6352,11.6253-.8777,21.3747,9.6454,20.043,21.8128-.9023,8.2437-4.5926,14.6437-12.829,17.5618-10.8952,3.8601-22.6176-4.1104-24.0418-16.2873-.1174-1.004-.1342-2.0198-.1613-2.4521Z"/><rect class="cls-4" x="66.0553" y="34.881" width="8.1306" height="69.9583" rx=".5" ry=".5" transform="translate(-.012 139.7082) rotate(-89.7769)"/><rect class="cls-4" x="65.9771" y="54.9762" width="8.1306" height="69.9583" rx=".5" ry=".5" transform="translate(-20.185 159.6469) rotate(-89.7769)"/><rect class="cls-4" x="65.8988" y="75.0713" width="8.1306" height="69.9583" rx=".5" ry=".5" transform="translate(-40.358 179.5856) rotate(-89.7769)"/><rect class="cls-4" x="65.8206" y="95.1665" width="8.1306" height="69.9583" rx=".5" ry=".5" transform="translate(-60.5309 199.5243) rotate(-89.7769)"/></g></g></svg>