<?xml version="1.0" encoding="UTF-8"?><svg id="Layer_1" xmlns="http://www.w3.org/2000/svg" viewBox="0 0 225.3143 270.4837"><defs><style>.cls-1{fill:#f02f30;}.cls-2{fill:#fff;}</style></defs><path class="cls-2" d="m144.6657,116.0823l-1.9063,10.7651c-1.3933.2565-2.842.4575-4.3047.6516-7.5071,1.5042-16.4769,1.9617-26.1884,1.1576l.1733-.9705,1.9201-10.876c.7902.0762,1.5805.1872,2.3707.2495,10.1066.8041,19.6101.4575,27.9352-.9774"/><path class="cls-2" d="m52.9169,94.3559l-1.8716,10.5849c1.421,1.3032,3.0015,2.5856,4.7275,3.8333,1.3586,1.2616,2.8559,2.5024,4.5403,3.7155.3535.2495.7417.4922,1.1091.7417,7.0566,4.8107,16.5255,9.053,27.4847,12.0683.1733.0485.3605.0901.5337.1317,3.6115.9843,7.3685,1.8369,11.2573,2.5232,3.8818.6863,7.7013,1.1715,11.4306,1.4903.1802.0139.3674.0416.5476.0555,11.3266.9219,21.6827.1802,29.9593-1.9132.4228-.1109.8734-.208,1.2963-.3189,1.9964-.5545,3.8264-1.2131,5.5316-1.934,2.0518-.5823,3.9789-1.2477,5.7603-1.9825l1.8716-10.5849c4.471-1.7399,8.1588-3.9165,10.8067-6.4327.915-.8734,1.7122-1.7953,2.3915-2.745-.3119,1.6844-.5892,3.0708-.8318,4.3047-.1178.6308-.2357,1.2339-.3327,1.7953-.1386.7902-.3605,1.5597-.6516,2.3083.0069.7972-.0347,1.5805-.1733,2.3568-.506,2.8767-2.038,5.5524-4.5403,7.93-2.3152,2.2043-5.5108,4.1383-9.3649,5.7326-1.8924.7833-3.9373,1.4903-6.1416,2.0934-2.0033.5545-4.1244,1.0051-6.3149,1.4002-8.3251,1.4973-17.898,1.8785-28.1155,1.0675-.7348-.0624-1.4765-.1594-2.2112-.2287-3.8125-.3674-7.6389-.8526-11.4306-1.5181-3.7848-.6724-7.5557-1.5319-11.2573-2.4955-.714-.1872-1.4418-.3466-2.1558-.5407-9.8778-2.7381-18.7367-6.3773-26.0428-10.6334-1.927-1.123-3.764-2.2806-5.4553-3.4798-1.8647-1.324-3.5422-2.6895-5.0533-4.0828-3.0708-2.8143-5.4068-5.7257-6.8278-8.5885-1.5389-3.0916-2.0587-6.1277-1.5527-9.0044.1386-.7764.3674-1.5319.6447-2.2736-.0139-.8041.0416-1.6012.1802-2.3915.1109-.61.2149-1.2061.3258-1.8439.1941-1.116.4228-2.3707.7278-4.1036.305,1.0675.714,2.135,1.2547,3.2164,1.622,3.2718,4.3393,6.5783,7.9439,9.7461"/><path class="cls-2" d="m91.6741,112.8036l-1.9201,10.876-.1733.9705c-9.4065-2.5717-17.6831-6.0792-24.2198-10.0719-1.3032-.6793-2.5856-1.3725-3.8125-2.0795l1.9063-10.7651c7.3269,4.1937,16.1373,7.7844,25.9111,10.4878.7625.2149,1.5389.3813,2.3083.5823"/><path class="cls-2" d="m49.1619,67.2026c3.3897-3.3273,8.7202-6.0792,15.4233-7.9646,8.4152-2.3638,18.6397-3.3342,29.7999-2.8559l-1.1022,3.0292c-9.2055-.1872-17.5583.7486-24.3445,2.6757-5.8158,1.6498-10.4878,4.0205-13.5586,7.0011-2.1142,2.0518-3.4798,4.3948-3.9373,6.9873-.4714,2.6895.0624,5.4484,1.4487,8.1865.3951.7833.8734,1.5527,1.4002,2.3291,2.0657,3.0292,5.1295,6.0029,9.0391,8.8103.3535.2495.7486.4922,1.1091.7417,7.0566,4.8107,16.5255,9.053,27.4847,12.0683.1733.0485.3605.0901.5407.1317,3.6115.9774,7.3616,1.83,11.2503,2.5232,3.8888.6863,7.7082,1.1715,11.4306,1.4834.1802.0208.3674.0485.5545.0624,11.3266.9219,21.6758.1802,29.9524-1.9132.4298-.1109.8803-.2079,1.2963-.3258,4.6374-1.2893,8.5331-3.0361,11.5137-5.1711.7625-.5476,1.4765-1.1091,2.1142-1.7052,2.239-2.1003,3.6947-4.5126,4.166-7.1952.4575-2.5994-.0208-5.2612-1.3032-7.9161-1.8647-3.8541-5.4415-7.6805-10.3423-11.2295-5.691-4.1175-13.1913-7.8468-21.8699-10.8206l.0139-3.2233c10.6057,3.3689,19.8458,7.7775,26.9301,12.8655,5.6494,4.062,9.7115,8.4845,11.7564,12.7684,1.421,2.9807,1.8924,5.9128,1.3933,8.7133-.506,2.8836-2.0379,5.5524-4.5403,7.9369-2.3152,2.1974-5.5039,4.1314-9.3649,5.7257-1.8924.7902-3.9373,1.4973-6.1416,2.1003-2.0033.5545-4.1244,1.0051-6.3149,1.4002-8.3251,1.4973-17.891,1.8785-28.1085,1.0606-.7417-.0555-1.4765-.1594-2.2182-.2287-3.8056-.3605-7.6389-.8457-11.4236-1.5111-3.7917-.6724-7.5557-1.5319-11.2573-2.4955-.7209-.1871-1.4487-.3466-2.1558-.5407-9.8848-2.7381-18.7436-6.3773-26.0498-10.6403-1.9201-1.116-3.7571-2.2736-5.4553-3.4729-1.8577-1.324-3.5352-2.6895-5.0464-4.0759-3.0777-2.8212-5.4138-5.7326-6.8348-8.5955-1.5389-3.0985-2.0587-6.1277-1.5458-9.0114.4922-2.8005,1.9409-5.393,4.2977-7.7082"/><path class="cls-2" d="m139.0856,81.3428c-2.1489-1.7676-4.8246-3.4382-7.8746-4.9632l.0139-9.3718c8.1518,2.8559,15.1945,6.4119,20.5598,10.3145-4.4156,1.2547-8.637,2.5994-12.6991,4.0205"/><path class="cls-2" d="m64.6386,95.0318c4.4086-1.2616,8.6163-2.6064,12.6714-4.0274,5.2266,4.2145,13.3091,7.93,22.8542,10.2175-2.6895,2.031-5.2266,4.1452-7.5626,6.3357-11.2919-3.0847-20.9965-7.5141-27.9629-12.5258"/><path class="cls-2" d="m110.3512,103.0249c9.76,1.123,18.6189.402,24.9753-1.7676,3.3203,2.7242,6.814,5.4345,10.5225,8.1241-8.2627,2.3222-18.8961,3.154-30.5624,2.1835-1.4418-2.8559-3.1055-5.7118-4.9355-8.54"/><path class="cls-2" d="m89.8011,69.0305c-3.4313.3882-6.5506,1.0467-9.1985,1.9756-3.3273-2.7242-6.8348-5.4345-10.5572-8.131,6.405-1.8369,14.2726-2.7589,22.9443-2.641l-3.1886,8.7965h0Z"/><path class="cls-2" d="m162.9602,95.7832c-.4644,2.6272-1.8924,4.977-4.1106,7.0358-5.8505-1.6013-11.7286-3.1055-17.6207-4.5195,2.135-1.5805,3.5006-3.4867,3.8887-5.6702.3674-2.0865-.201-4.2423-1.525-6.3703,6.0029.6793,12.0267,1.2893,18.0643,1.7884,1.2685,2.5925,1.7538,5.1989,1.3032,7.7359"/><path class="cls-2" d="m53.226,76.3907c.4506-2.537,1.7953-4.8245,3.8749-6.8209,5.8435,1.6013,11.7078,3.0985,17.586,4.5126-1.9756,1.5389-3.251,3.3758-3.6184,5.4623-.3812,2.1835.2426,4.4433,1.7052,6.6545-6.0168-.6863-12.0475-1.2893-18.099-1.7884-1.3725-2.6895-1.9132-5.393-1.4487-8.0201"/><path class="cls-2" d="m73.7456,80.0175c.8526-4.8384,6.8902-8.2073,15.5203-9.5105l-3.6045,9.9541,24.8367-7.7428,20.6846,15.7907.0208-10.5641c7.6111,4.1799,12.0891,9.3926,11.2365,14.2102-1.4626,8.2835-18.0643,12.304-37.002,8.9559s-33.1549-12.81-31.6923-21.0935"/><polygon class="cls-2" points="127.1608 60.6784 127.1192 80.337 111.2869 68.2549 92.2799 74.1816 98.976 55.6944 87.2682 39.7096 107.2318 40.3682 119.009 24.5636 124.6584 43.4459 143.6377 49.6707 127.1608 60.6784"/><polygon class="cls-2" points="132.0789 10.883 146.4278 11.3613 154.8846 0 158.9397 13.5725 172.5815 18.0435 160.742 25.9528 160.7143 40.0729 149.3392 31.3942 135.6765 35.6504 140.4942 22.3759 132.0789 10.883"/><polygon class="cls-2" points="176.1646 64.3519 176.1438 74.209 168.2069 68.1505 158.6756 71.1174 162.0306 61.8565 156.1594 53.8364 166.1759 54.1691 172.0818 46.2391 174.91 55.7079 184.4273 58.8342 176.1646 64.3519"/><path class="cls-2" d="m122.7085,175.3861l10.7374,14.3489c3.4313,4.5958,3.9581,12.6714,1.22,18.7922l-7.8607,17.5791,32.1775-24.4347c3.4659-2.641,5.6702-9.0183,4.9285-14.2657l-6.7585-47.4067c-.7486-5.2405-4.1591-7.3477-7.6319-4.7067l-36.2188,27.5124,4.8523,6.4882c3.0639,3.8402,0,0,4.5542,6.0931m17.6969-22.5215c2.745-3.4312,6.3218-5.1226,8.0132-3.7848,1.6775,1.3517.8249,5.2127-1.9201,8.644-2.7311,3.4312-6.3149,5.1295-7.9924,3.7778-1.6983-1.3378-.8318-5.2197,1.8993-8.637"/><path class="cls-2" d="m220.8416,224.3913l-43.7398-19.5061c-4.8384-2.1489-11.5761-1.7815-15.0698.8318l-39.2895,29.4672-3.7293,8.339c.7556.9011,1.8369,1.7399,3.3342,2.3984l43.7398,19.5061c4.8315,2.1558,11.5831,1.7884,15.0628-.8249l42.1247-31.5814c3.4867-2.6133,2.3915-6.4743-2.4331-8.6301m-76.7629,16.4284c-3.8056,2.1766-7.7636,2.4123-8.8242.5268-1.0675-1.8577,1.1715-5.1365,4.977-7.3061,3.8125-2.1627,7.7706-2.4053,8.8381-.5338,1.0536,1.8785-1.1645,5.1503-4.9909,7.3131m30.3267-1.428c-3.7917,2.1974-7.7428,2.4816-8.8311.6169-1.0814-1.8647,1.123-5.1642,4.9147-7.3616s7.7428-2.4816,8.8242-.6169c1.0883,1.8647-1.1091,5.1503-4.9077,7.3616m30.2713-2.946c-3.7917,2.2043-7.7498,2.4816-8.8173.6239-1.0883-1.8647,1.1091-5.1573,4.9008-7.3616s7.7428-2.4816,8.8242-.6169c1.0883,1.8508-1.116,5.1573-4.9077,7.3547"/><path class="cls-2" d="m184.9639,179.4897c-2.7866-3.3827-6.3981-5.0186-8.0617-3.6531-1.6636,1.3794-.7417,5.2335,2.0449,8.6232,2.7935,3.3758,6.405,5.0048,8.0686,3.6392,1.6567-1.3725.7417-5.2197-2.0518-8.6093"/><path class="cls-2" d="m221.3129,198.8441c-2.7935-3.3758-6.412-5.0117-8.0686-3.6392-1.6567,1.3725-.7486,5.2197,2.0449,8.6163,2.7935,3.3758,6.405,5.0117,8.0617,3.6323,1.6636-1.3656.7417-5.2266-2.0379-8.6093"/><path class="cls-2" d="m177.4415,144.1098c-2.8628-3.3273-6.5021-4.88-8.131-3.4798-1.629,1.4072-.6377,5.2405,2.2251,8.5747,2.8698,3.3134,6.509,4.8731,8.138,3.4659,1.6359-1.4072.6308-5.2405-2.232-8.5608"/><path class="cls-2" d="m214.1946,162.6815c-2.8629-3.3342-6.509-4.8869-8.138-3.4728-1.6359,1.4002-.6308,5.2335,2.2321,8.5539,2.8698,3.3203,6.502,4.88,8.138,3.4728,1.629-1.4002.6377-5.2405-2.232-8.5539"/><path class="cls-2" d="m99.3101,256.008l-31.7824-41.9583c-2.641-3.4798-9.0183-5.6841-14.2588-4.9493l-47.4206,6.7031c-5.2405.7417-7.3477,4.1522-4.7136,7.625l31.7893,41.9583c2.6272,3.4728,9.0114,5.691,14.2518,4.9563l47.4206-6.71c5.2405-.7417,7.3547-4.1452,4.7136-7.625m-80.617-23.4434c-3.4243-2.745-5.1157-6.3288-3.7709-8.0132,1.3517-1.6775,5.2127-.818,8.644,1.927,3.4174,2.7311,5.1157,6.3149,3.764,7.9924-1.3378,1.6983-5.2197.8318-8.637-1.9063m31.8517-12.6991c1.3656-1.6567,5.2197-.7417,8.6024,2.0449,3.3897,2.8005,5.0117,6.405,3.6461,8.0825-1.3656,1.6567-5.2266.7348-8.6024-2.0587-3.3897-2.7935-5.0117-6.3981-3.6461-8.0686m-13.6488,36.9813c-3.2094-2.9945-4.6235-6.6961-3.154-8.2697,1.4695-1.5874,5.2543-.4298,8.4637,2.5648,3.2164,2.9945,4.6235,6.6892,3.147,8.2627-1.4557,1.5805-5.2543.4298-8.4568-2.5578m35.9969-3.9373c-3.0708-3.1401-4.3116-6.8972-2.7797-8.4083,1.5458-1.5111,5.2751-.1872,8.3459,2.946,3.0639,3.1263,4.3185,6.8972,2.7727,8.4014-1.525,1.5111-5.2682.1872-8.339-2.9391"/><path class="cls-2" d="m131.2887,207.0188c2.1627-4.8315,1.7953-11.5831-.811-15.0698l-31.5259-42.1524c-2.6133-3.4936-6.4743-2.4123-8.6301,2.4192l-19.5616,43.719c-2.1558,4.8315-1.7953,11.5692.8041,15.0698l31.5398,42.1524c2.6133,3.4936,6.4674,2.4123,8.6301-2.4192l19.5547-43.719h0Zm-36.2881-43.5457c1.8577-1.0883,5.1573,1.1299,7.3477,4.9216,2.2043,3.7917,2.4746,7.7428.6169,8.8242-1.8647,1.0814-5.1573-1.116-7.3547-4.9216-2.1974-3.7917-2.4747-7.7428-.61-8.8242m4.3463,60.5217c1.8785-1.0536,5.1503,1.1784,7.3131,4.9978,2.1697,3.8125,2.3984,7.7706.513,8.8311-1.8647,1.0606-5.1365-1.1784-7.3061-4.9909-2.1558-3.8125-2.3915-7.7706-.5199-8.8381m22.5561-21.4956c-1.8716,1.0675-5.1365-1.1645-7.3131-4.977-2.1489-3.8194-2.3915-7.7775-.513-8.8381,1.8716-1.0606,5.1434,1.1715,7.3061,4.9909,2.1627,3.8125,2.3984,7.7706.5199,8.8242m-16.0333,4.9978c-1.8716,1.0814-5.1642-1.1299-7.3547-4.9216-2.1974-3.7917-2.4747-7.7428-.61-8.8311,1.8647-1.0814,5.1503,1.123,7.3547,4.9285,2.1974,3.7848,2.4677,7.7428.61,8.8242m-25.5923-8.7133c1.8577-1.0744,5.1434,1.116,7.3547,4.9285,2.1974,3.7848,2.4677,7.7428.61,8.8173-1.8647,1.0814-5.1573-1.116-7.3616-4.9147-2.1905-3.7917-2.4677-7.7498-.6031-8.8311"/><path class="cls-2" d="m53.9851,185.9953c-1.3725-1.6636-5.2197-.7486-8.6093,2.0449-3.3827,2.7797-5.0256,6.3911-3.66,8.0548,1.3725,1.6636,5.2266.7486,8.6163-2.038,3.3827-2.7866,5.0186-6.3981,3.6531-8.0617"/><path class="cls-2" d="m61.1387,175.931c3.3827-2.7935,5.0256-6.3911,3.6531-8.0548-1.3656-1.6567-5.2266-.7556-8.6093,2.031-3.3966,2.7866-5.0256,6.3911-3.66,8.0617,1.3656,1.6567,5.2266.7556,8.6163-2.038"/><path class="cls-2" d="m69.7369,157.7405c3.3827-2.7935,5.0186-6.3981,3.6461-8.0686-1.3656-1.6567-5.2197-.7417-8.6093,2.038-3.3897,2.7935-5.0256,6.405-3.6531,8.0686,1.3725,1.6567,5.2197.7486,8.6163-2.038"/><path class="cls-2" d="m18.5482,193.2938c-1.4072-1.6359-5.2405-.6377-8.5677,2.2251-3.3273,2.8559-4.8869,6.4951-3.4867,8.1241,1.4072,1.6359,5.2405.6447,8.5816-2.2112,3.3203-2.8628,4.8731-6.5021,3.4728-8.138"/><path class="cls-2" d="m25.4752,183.07c3.3342-2.8628,4.88-6.502,3.4867-8.131-1.4072-1.629-5.2405-.6377-8.5677,2.2182-3.3203,2.8698-4.8869,6.502-3.4867,8.138,1.4072,1.629,5.2474.6447,8.5677-2.2251"/><path class="cls-2" d="m33.6776,164.6986c3.3203-2.8628,4.8869-6.502,3.4798-8.131-1.4002-1.6359-5.2405-.6516-8.5608,2.2182-3.3342,2.8559-4.8869,6.502-3.4798,8.1379,1.4002,1.6359,5.2335.6308,8.5608-2.2251"/><path class="cls-1" d="m160.5851,2.5264c.2158.0698.4316.1333.6474.2031l-.641-.2095-.0063.0063"/></svg>