<?xml version="1.0" encoding="UTF-8"?><svg id="Layer_1" xmlns="http://www.w3.org/2000/svg" xmlns:xlink="http://www.w3.org/1999/xlink" viewBox="0 0 283.325 283.325"><defs><style>.cls-1,.cls-2{fill:none;}.cls-3{clip-path:url(#clippath);}.cls-4{fill:#4a9cd5;}.cls-2{stroke:#fff;stroke-width:15px;}</style><clipPath id="clippath"><path class="cls-1" d="m211.2696,205.4726c-36.4946,0-66.0793-29.5847-66.0793-66.0793s29.5847-66.0793,66.0793-66.0793c0,0-43.97-28.0883-44.7668-28.9751s-46.244-4.4339-46.9091-4.8773-61.0548,9.7545-61.0548,9.7545c0,0-36.2689,45.8907-36.4906,47.2208s-10.863,55.4021-10.4196,58.8491,15.7403,52.4413,16.4054,53.7715,35.0277,38.5748,39.4615,39.2398,87.3474-5.3207,88.6776-7.0942,32.8107-12.2998,33.9192-14.0201,21.1772-21.7105,21.1772-21.7105Z"/></clipPath></defs><path class="cls-4" d="m280.4923,227.183h-11.3335c-1.5666,0-2.8327,1.2668-2.8327,2.8334v24.976c0,6.1424-5.1925,11.3329-11.3335,11.3329h-25.4458c-1.5652,0-2.8327,1.2694-2.8327,2.8334v11.3329c0,1.564,1.2675,2.8334,2.8327,2.8334h25.4458c15.5826,0,28.3325-12.7499,28.3325-28.3325v-24.976c0-1.5666-1.2675-2.8334-2.8327-2.8334Z"/><path class="cls-4" d="m54.2302,0h-25.8977C12.7499,0,0,12.7496,0,28.3325v26.3647c0,1.5662,1.2661,2.8334,2.8334,2.8334h11.3329c1.5626,0,2.8334-1.2671,2.8334-2.8334v-26.3647c0-6.1424,5.1878-11.3329,11.3329-11.3329h25.8977c1.5652,0,2.8334-1.2704,2.8334-2.8334V2.8334c0-1.564-1.2681-2.8334-2.8334-2.8334Z"/><path class="cls-4" d="m254.9925,0h-25.4458c-1.5652,0-2.8327,1.2694-2.8327,2.8334v11.3329c0,1.5629,1.2675,2.8334,2.8327,2.8334h25.4458c6.1411,0,11.3335,5.1904,11.3335,11.3329v26.3647c0,1.5662,1.2661,2.8334,2.8327,2.8334h11.3335c1.5652,0,2.8327-1.2671,2.8327-2.8334v-26.3647c0-15.5829-12.7499-28.3325-28.3325-28.3325Z"/><path class="cls-4" d="m54.2302,266.3253h-25.8977c-6.145,0-11.3329-5.1904-11.3329-11.3329v-24.976c0-1.5666-1.2708-2.8334-2.8334-2.8334H2.8334c-1.5673,0-2.8334,1.2668-2.8334,2.8334v24.976c0,15.5826,12.7499,28.3325,28.3325,28.3325h25.8977c1.5652,0,2.8334-1.2694,2.8334-2.8334v-11.3329c0-1.564-1.2681-2.8334-2.8334-2.8334Z"/><g><g><path class="cls-2" d="m243.0034,152.5509c.2281,4.6035-.2025,9.1557-.9403,13.6856-.1962,1.2043-.3783,2.4825-2.0264,2.3937-1.1821-.0637-1.6276-1.165-1.3694-2.9574,1.5869-11.0171,1.4862-21.9985-1.1802-32.8397-2.5929-10.5422-12.0027-18.2668-22.8327-19.3559-15.1382-1.5224-29.1426,10.3627-28.9959,26.8113.0233,2.609.7785,5.1308,1.0933,7.7064.164,1.3418.2211,2.7074.2416,4.0585.0191,1.2623.0103,2.5644-.1983,3.8128-.1667.9975-.715,1.8105-1.827,1.7144-.8047-.0695-1.3369-.5706-1.4571-1.3653-.0649-.429-.0107-.8569.0211-1.286.0437-.5882.064-1.178.0653-1.7677.0051-2.4334-.3183-4.8504-.6453-7.257-.1841-1.3548-.3699-2.7099-.4997-4.0713-.6976-7.3146,1.3823-13.906,5.6979-19.739,7.8539-10.6155,21.3019-14.8872,33.7139-10.4269,11.2289,4.0352,17.7297,12.2742,19.7552,24.0248.9616,5.5789,1.6734,11.183,1.3841,16.8587Z"/><path class="cls-2" d="m255.9215,136.4921c.0076.9929-.2254,1.8561-1.4032,1.9455-1.187.0901-1.7553-.6551-1.922-1.7234-.5232-3.354-1.0564-6.7195-2.2405-9.9062-5.7953-15.5963-16.9098-24.8882-33.4068-27.1322-12.7033-1.728-23.8276,2.2832-33.0709,11.1034-5.7766,5.5122-9.5364,12.2917-11.2176,20.1573-.2235,1.0457-.4258,3.0056-1.7809,3.1982-.5303.0754-1.1569-.1186-1.523-.5168-.3655-.3976-.439-.9613-.3976-1.4801.0753-.9435.3488-1.9056.574-2.8232.214-.872.455-1.7374.7226-2.5944.5344-1.7117,1.1748-3.3902,1.9163-5.0228,1.4573-3.2086,3.3045-6.2383,5.4865-9.0054,2.1576-2.7361,4.641-5.2142,7.3822-7.3654,2.7648-2.1697,5.7907-4.0055,8.9946-5.4502,3.2614-1.4707,6.7047-2.5339,10.2278-3.1563.4461-.0788.8934-.1506,1.3417-.2153,13.6359-1.9689,25.6214,1.7565,35.9112,10.8817,8.5327,7.567,12.8444,17.2988,14.3566,28.4277.0304.2236.0335.4509.0488.678Z"/><path class="cls-2" d="m222.0123,152.4151c-.0318,6.6111-.8998,13.2177-2.6998,19.583-1.7661,6.2453-4.4212,12.2197-7.8071,17.7541-.9742,1.5924-2.0078,3.1485-3.0941,4.6666-.826,1.1543-2.1376,3.5853-3.8442,2.3659-1.3164-.9407-.6388-2.091.112-3.0968,4.2578-5.704,7.6711-11.8617,10.0283-18.5912,4.1929-11.9704,5.0154-24.1771,2.485-36.5946-.4093-2.0085-2.0251-3.6147-4.0235-4.0493-2.0494-.4457-4.1387.4758-5.3637,2.1441-.8333,1.1349-1.2203,2.5216-.9435,3.9159,1.4917,7.5149,1.6256,15.0417.1662,22.5789-.0855.4417-.1192.9171-.3137,1.3089-.3207.6461-.8344,1.2347-1.6164,1.1995-.7452-.0336-1.4157-.4905-1.5516-1.2459-.0772-.4288.0135-.873.0682-1.2991.0712-.5539.1503-1.1066.2306-1.6592.1636-1.1269.332-2.2536.4465-3.3868.5254-5.199.4786-10.3795-.5831-15.5264-1.4044-6.8088,3.2905-12.2803,9.7179-11.3654,2.7264.3881,5.1386,2.1754,6.4029,4.6077.7461,1.4354.9577,3.0365,1.2277,4.6122.3208,1.8721.5905,3.7538.7674,5.6452.1999,2.1373.2805,4.2875.1878,6.4329Z"/><path class="cls-2" d="m212.561,89.0042c1.2825-.0794,2.5736.0302,3.8498.1523.6418.0614,1.2854.1203,1.9255.1978.4177.0506.8552.1334,1.2201.3545.7425.45.811,1.4819.4252,2.2016-.419.7817-1.3827.8159-2.162.7322-11.9295-1.2815-22.9822,1.2165-32.8051,8.1786-11.9798,8.4908-18.659,20.1418-20.1603,34.7948-.4914,4.7961.0918,9.4645.8656,14.1585.3738,2.2676.2783,4.6007-.374,6.8092-.3143,1.0641-.7506,2.0903-1.2855,3.0619-.2851.5179-.598,1.0204-.9341,1.5067-.3265.4723-.6628.992-1.0673,1.4016-.7349.7445-1.6882,1.2689-2.6137.4966-.8993-.7504-.7115-1.7675-.0254-2.5935,1.6173-1.947,2.7447-4.2792,3.027-6.8101.1456-1.3054.0504-2.5988-.1677-3.8898-.2578-1.5258-.4852-3.0571-.6581-4.595-.645-5.7374-.3846-11.5421.9707-17.1626.7572-3.1402,1.8382-6.1992,3.1986-9.1283,6.0503-13.0272,15.8407-22.0917,29.396-27.025,4.7178-1.717,11.1554-2.8464,17.3747-2.8419Z"/><path class="cls-2" d="m264.0881,152.213c.0485,2.4631.0283,4.9284-.1057,7.3887-.0652,1.1972-.1574,2.3929-.281,3.5855-.1068,1.0305-.1775,2.1024-.4211,3.1121-.2165.8973-.7707,1.4543-1.73,1.4489-1.158-.0065-1.8509-1.1946-1.5453-2.8912.7665-4.2559.7671-8.5724.7754-12.8476.0136-7.008-.7209-13.9736-2.0662-20.8832-1.5703-8.0648-4.8933-15.2556-10.0665-21.5956-2.4754-3.0338-5.332-5.7506-8.4953-8.0589-3.1441-2.2943-6.5766-4.178-10.1715-5.6651-1.0578-.4376-2.1453-.7901-3.2083-1.2106-.8842-.3498-1.5355-1.0286-1.2546-2.0338.4984-1.7832,2.4251-1.0283,3.667-.6296,1.8158.5831,3.575,1.3353,5.2695,2.2087,3.738,1.9268,7.2909,4.2234,10.5179,6.924,3.0629,2.5633,5.8211,5.4875,8.1727,8.7169,2.363,3.2451,4.3066,6.7855,5.8216,10.5015,1.6988,4.1668,2.8003,8.5135,3.6023,12.934,1.0106,5.57,1.5856,11.2283,1.5575,16.8923-.0035.7012-.0161,1.4023-.0384,2.1032Z"/><path class="cls-2" d="m211.9864,116.8907c1.3221.0768,3.4337.0999,3.3362,1.9406-.078,1.4716-1.2431,1.5422-2.3774,1.5127-10.5938-.2754-18.5194,7.1244-19.9994,16.4437-.3766,2.3714-.207,4.723.2419,7.0811,2.4829,13.0421-.5408,24.7877-8.4701,35.3293-1.5967,2.1227-3.3708,4.109-5.4258,5.8236-.5059.4221-1.1659.8754-1.8619.7471-.6788-.1252-1.3052-.8219-1.3961-1.4991-.099-.738.4153-1.3615.9207-1.8295.5884-.5448,1.1696-1.0967,1.7348-1.6656,2.2189-2.2337,4.222-4.6874,5.8705-7.3733,3.3569-5.469,5.4615-11.7595,5.9292-18.1646.2676-3.6648.0054-7.3561-.6939-10.9611-2.4772-12.7699,5.534-24.4891,18.3036-26.9036,1.3292-.2513,2.6897-.3369,3.8877-.4815Z"/><path class="cls-2" d="m236.1816,151.209c-.2054,16.2457-3.8459,30.5494-11.4782,43.7858-.2752.4772-.6061,1.002-1.1039,1.2737-.5539.3023-1.1812.1415-1.689-.1817-1.0761-.6849-.7211-1.8427-.1944-2.7718,3.3129-5.8438,5.9673-12.0403,7.7964-18.5068,1.8557-6.5606,2.9738-13.333,3.18-20.1518.1174-3.8817-.0585-7.7714-.5267-11.6266-.28-2.3053-.6487-4.5862-1.0769-6.8646-.9913-5.2743-3.7232-9.3979-8.1248-12.4368-1.1049-.7628-3.0226-1.6815-1.9441-3.2808.3534-.5241.8809-.8491,1.5242-.7567.6571.0944,1.2277.5167,1.7694.8697,1.313.8557,2.5772,1.7982,3.6881,2.9077,2.547,2.5438,4.4949,5.634,5.6542,9.0439.6474,1.9042,1.0245,3.8861,1.3433,5.8681.334,2.0766.5717,4.1678.7524,6.2631.1884,2.1854.312,4.3755.4301,6.5657Z"/><path class="cls-2" d="m211.6765,81.8716c8.9626.1197,17.0748,1.8927,24.7852,5.4615.8326.3854,1.9764.976,1.8914,2.0634-.0732.9361-.8953,1.711-1.8421,1.5622-.5225-.0821-.9922-.3805-1.4614-.6066-.5464-.2633-1.0978-.5164-1.6538-.7587-1.1282-.4917-2.2757-.9393-3.4397-1.3391-1.3221-.4541-2.6653-.8466-4.0246-1.1732-18.1492-4.3608-34.5062-.74-48.9882,11.1146-3.1248,2.5579-5.842,5.4997-8.2823,8.7055-.5902.7754-1.3685,1.804-2.4607,1.256-.4865-.2441-.9581-.6788-1.0483-1.2384-.0766-.4755.1274-.9477.3642-1.3482.6047-1.0227,1.4415-1.9487,2.1998-2.8592.7957-.9556,1.6205-1.8869,2.4743-2.791,3.3721-3.5704,7.1971-6.7052,11.3739-9.2898,2.3977-1.4837,4.9063-2.7863,7.4936-3.9064,7.3544-3.1837,15.0868-4.6936,22.6188-4.8527Z"/><path class="cls-2" d="m250.164,152.6698c-.1148,11.8094-2.1227,23.2729-6.2461,34.3561-.4573,1.2291-1.075,2.3014-2.5579,1.7205-1.3931-.5457-1.1464-1.7671-.7208-2.8961,2.7617-7.3267,4.6307-14.9849,5.4992-22.7681.8628-7.7317.7513-15.6168-.1464-23.3421-.5061-4.3556-1.4028-8.6846-3.0308-12.7678-.7581-1.9014-1.7487-3.7019-2.8634-5.4161-.4509-.6935-1.1114-1.4276-1.228-2.2765-.1147-.8354.6024-1.5529,1.381-1.7321.9215-.2122,1.6212.5895,2.0898,1.268,3.5081,5.0789,5.4784,10.7379,6.4041,16.8081.8617,5.6511,1.4369,11.3212,1.4193,17.0461Z"/><path class="cls-2" d="m167.707,175.7046c-.9943-.021-1.9035-.8785-1.5692-1.9314.1659-.5226.6432-.9188,1.0176-1.297.4408-.4452.8977-.8742,1.3421-1.3157,3.0556-3.0362,5.4927-6.6922,6.8093-10.8119,1.3075-4.0912,1.4605-8.4522.8005-12.678-.346-2.2157-.6551-4.4176-.7354-6.6622-.0748-2.0911.0085-4.1888.2731-6.2648.5131-4.026,1.7234-7.9452,3.5872-11.5514,1.9603-3.7929,4.6055-7.1982,7.6462-10.185.4161-.4087.829-.8537,1.294-1.207.4472-.3397.9066-.7406,1.454-.9071.6031-.1835,1.1266.0795,1.5186.5427.3964.4683.6168,1.0548.3449,1.6398-.2481.5338-.7437.9228-1.1775,1.3003-5.6008,4.872-9.2536,10.9249-10.8595,18.1562-1.1705,5.2703-.5428,10.5289.1575,15.8319,1.4077,10.6608-2.2092,19.5431-10.2181,26.6703-.481.4281-1.0186.71-1.6852.6702Z"/><path class="cls-2" d="m211.6625,152.5285c.1391-4.1835-.4629-7.9271-1.0522-11.6695-.0863-.5484-.1796-1.1519-.0134-1.6945.1786-.583.6824-.8798,1.2609-.9742,1.4074-.2297,1.8689.9776,2.0867,2.1302,2.6284,13.9108.7715,27.2315-5.2966,39.9879-2.3427,4.9249-5.2358,9.5038-8.7656,13.6709-.2557.3018-.4987.6161-.7729.9002-.6908.7156-1.4963,1.1271-2.3973.4388-.5288-.4039-.8259-1.008-.6799-1.674.1649-.752.7789-1.3878,1.2308-1.9834,1.058-1.3948,2.1634-2.754,3.1762-4.1826,6.2554-8.8243,9.8333-18.6534,10.9286-29.4004.1031-1.0118.2327-2.0228.2842-3.0375.0486-.9593.0105-1.923.0105-2.5118Z"/><path class="cls-2" d="m269.8635,137.7462c0,.992.0734,2.0142-.0208,3.0029-.0705.7404-.3916,1.4588-1.1681,1.6604-2.2447.5828-2.2147-2.4612-2.2547-3.8631-.494-17.3004-7.6929-31.2175-21.1673-41.9702-1.0136-.8089-3.5138-2.1546-2.156-3.6999.5088-.5791,1.2154-.7996,1.9398-.4983.4015.167.7546.451,1.1078.6998.3945.2778.7852.5612,1.1717.85,1.4938,1.1163,2.9258,2.316,4.2782,3.6002,9.9563,9.455,15.8582,21.0203,17.8141,34.5893.2808,1.9479.5553,3.9206.4554,5.6288Z"/><path class="cls-2" d="m229.0895,149.9655c0,1.3942.2658,3.7725-1.7775,3.7255-1.1786-.0272-1.6297-.8917-1.644-1.9782-.0305-2.3186-.1072-4.6307-.3652-6.9401-.2034-1.8207-.4009-3.6436-.7114-5.4499-.2554-1.4852-.5702-2.9599-1.1572-4.3534-.9775-2.3204-2.605-4.3615-4.7359-5.7201-4.1023-2.6155-9.9356-2.4117-13.8767.4371-2.2643,1.6368-3.7885,4.0718-4.6401,6.7047-.1555.4807-.3347.9665-.5892,1.3992-.3573.6075-.9428.758-1.6208.6144-.6933-.1468-1.0867-.5722-1.1915-1.2602-.1045-.6863.0366-1.3498.2229-2.0077,1.8782-6.632,8.3475-11.2703,15.5394-11.1394,6.8457.1246,13.2298,5.1421,14.7516,11.6877,1.091,4.6926,1.5417,9.4767,1.7957,14.2805Z"/><path class="cls-2" d="m200.9902,152.4242c-.2145,13.9825-5.1796,25.9903-15.033,35.9489-.922.9318-1.9867,2.3462-3.39.9228-1.4241-1.4445.0845-2.418.9972-3.3548,10.6873-10.9703,15.1664-24.1019,13.6948-39.3032-.12-1.2392-.0532-2.3928,1.4595-2.5536,1.4031-.1491,1.7369.8735,1.9073,2.065.2976,2.0812.3331,4.1671.3642,6.275Z"/><path class="cls-2" d="m154.2807,140.6791c.011-9.6944,1.8737-17.9452,5.6194-25.7691.5261-1.099,1.2864-2.9233,2.8275-2.1862.9303.445,1.1417,1.3413.777,2.2589-.4803,1.2087-1.0766,2.3762-1.5736,3.5798-.9875,2.3914-1.8504,4.8369-2.5152,7.3383-.3824,1.4387-.6991,2.8951-.938,4.3645-1.1452,7.0426-1.0468,14.0612.4327,21.056.269,1.2718.9318,2.7919-.9547,3.437-1.1935.4081-1.9013-.4364-2.3892-2.8184-.8294-4.0496-1.3682-8.1341-1.2858-11.2608Z"/><path class="cls-2" d="m211.6756,102.9141c8.729.2007,16.0199,2.5948,22.4646,7.4337.9977.7491,2.4676,1.6109,1.4086,3.1232-1.1212,1.6011-2.269.324-3.2997-.4055-10.3599-7.3322-21.4446-8.7219-33.27-4.072-.5683.2235-1.2024.5063-1.8284.4272-.5915-.0747-.9781-.5112-1.1836-1.0467-.3533-.9208.1205-1.6392.9352-2.0695,1.0383-.5484,2.169-.97,3.275-1.3588,2.3026-.8096,4.6947-1.3565,7.1182-1.6431,1.6787-.1986,3.3613-.4879,4.3799-.3885Z"/><path class="cls-2" d="m228.5614,161.2674c-.841,7.4874-2.7155,14.6227-5.6008,21.4937-1.8431,4.3891-4.0465,8.5881-6.6632,12.5669-.7425,1.1289-1.8706,2.8625-3.4039,1.8038-.913-.6303-.8508-1.5167-.3228-2.3987,1.3057-2.1814,2.6843-4.3223,3.9145-6.5453,4.3987-7.9487,7.166-16.4488,8.4463-25.4384.1101-.7727.1739-1.6145.459-2.3469.1885-.4844.5434-.8977,1.0684-1.0115,1.2052-.2613,2.2049.6938,2.1026,1.8765Z"/><path class="cls-2" d="m257.245,151.896c-.2126,9.3425-1.0587,18.033-3.3204,26.5434-.0725.2728-.1348.5494-.2257.8161-.3564,1.0461-1.0089,2.0055-2.251,1.6293-1.1786-.357-1.3612-1.4929-1.0847-2.5571,1.3653-5.2546,2.4414-10.5635,2.8878-15.9809.4217-5.1186.8446-10.2415.3163-15.3808-.0996-.9689.0398-2.2259,1.0218-2.7229.7661-.3877,1.7633.0469,2.1167.7949.2211.4681.2114,1,.243,1.5054.0385.6167.0744,1.2335.1087,1.8504.065,1.1672.1234,2.3348.1876,3.5021Z"/><path class="cls-2" d="m173.0112,153.4408c-.2671,5.3955-2.6122,11.0871-7.4941,15.6472-.8329.778-1.8939,1.3506-2.8372.3948-.3947-.4-.6648-.9264-.5092-1.4943.1496-.546.5848-.986.9812-1.3673,5.4539-5.246,7.3344-11.5831,5.8657-18.9851-.3615-1.8221-.5517-3.6836-.7225-5.536-.108-1.1709.2827-2.2717,1.6421-2.3136,1.3624-.0419,1.7753,1.0322,1.7829,2.2111.0223,3.4644,1.372,6.756,1.291,11.4432Z"/><path class="cls-2" d="m204.1274,172.9073c-.5846,1.9568-1.4707,3.9066-2.477,5.8026-2.6054,4.9093-5.6688,9.4913-9.5954,13.4637-.8924.9028-1.8065,1.5074-2.8832.4139-1.0038-1.0194-.4315-1.9329.3828-2.7872,4.7666-5.0003,8.4565-10.699,11.0573-17.1014.2267-.5579.4491-1.1716.9656-1.5293.4461-.309.9928-.3037,1.4841-.1069.7589.304,1.1421.8858,1.0657,1.8445Z"/><path class="cls-2" d="m184.5688,165.2296c-.6332,1.8216-1.4375,3.7517-2.5338,5.5319-2.1717,3.5265-4.7074,6.757-7.9006,9.4423-.4116.3461-.8729.7112-1.4091.8324-.5792.1309-1.0903-.128-1.4874-.5402-.3901-.405-.6548-.93-.4735-1.4953.1671-.5211.6008-.9299.9977-1.2841,3.8521-3.4384,7.0824-7.5728,9.1031-12.3473.2351-.5555.4082-1.1759.8378-1.6201.4109-.425.9746-.5568,1.5454-.4333.8733.189,1.3077.8292,1.3204,1.9137Z"/><path class="cls-2" d="m239.9733,176.3244c-.4539,1.5459-.9299,3.4628-1.5806,5.3185-1.1934,3.403-2.4619,6.7811-4.045,10.0296-.1233.2531-.2072.5278-.3495.7688-.5754.9738-1.4432,1.7519-2.5949,1.1221-1.0501-.5742-.9741-1.6553-.5266-2.617,1.2802-2.7512,2.4681-5.5261,3.4947-8.3833.5823-1.6206,1.1249-3.2552,1.6378-4.899.2507-.8036.4175-1.6432.7627-2.4145.2466-.551.6853-.9847,1.3018-1.0693.5116-.0702,1.1299.0682,1.4681.4831.3661.4492.4064,1.1076.4315,1.661Z"/></g><g><path class="cls-4" d="m243.0034,152.5509c.2281,4.6035-.2025,9.1557-.9403,13.6856-.1962,1.2043-.3783,2.4825-2.0264,2.3937-1.1821-.0637-1.6276-1.165-1.3694-2.9574,1.5869-11.0171,1.4862-21.9985-1.1802-32.8397-2.5929-10.5422-12.0027-18.2668-22.8327-19.3559-15.1382-1.5224-29.1426,10.3627-28.9959,26.8113.0233,2.609.7785,5.1308,1.0933,7.7064.164,1.3418.2211,2.7074.2416,4.0585.0191,1.2623.0103,2.5644-.1983,3.8128-.1667.9975-.715,1.8105-1.827,1.7144-.8047-.0695-1.3369-.5706-1.4571-1.3653-.0649-.429-.0107-.8569.0211-1.286.0437-.5882.064-1.178.0653-1.7677.0051-2.4334-.3183-4.8504-.6453-7.257-.1841-1.3548-.3699-2.7099-.4997-4.0713-.6976-7.3146,1.3823-13.906,5.6979-19.739,7.8539-10.6155,21.3019-14.8872,33.7139-10.4269,11.2289,4.0352,17.7297,12.2742,19.7552,24.0248.9616,5.5789,1.6734,11.183,1.3841,16.8587Z"/><path class="cls-4" d="m255.9215,136.4921c.0076.9929-.2254,1.8561-1.4032,1.9455-1.187.0901-1.7553-.6551-1.922-1.7234-.5232-3.354-1.0564-6.7195-2.2405-9.9062-5.7953-15.5963-16.9098-24.8882-33.4068-27.1322-12.7033-1.728-23.8276,2.2832-33.0709,11.1034-5.7766,5.5122-9.5364,12.2917-11.2176,20.1573-.2235,1.0457-.4258,3.0056-1.7809,3.1982-.5303.0754-1.1569-.1186-1.523-.5168-.3655-.3976-.439-.9613-.3976-1.4801.0753-.9435.3488-1.9056.574-2.8232.214-.872.455-1.7374.7226-2.5944.5344-1.7117,1.1748-3.3902,1.9163-5.0228,1.4573-3.2086,3.3045-6.2383,5.4865-9.0054,2.1576-2.7361,4.641-5.2142,7.3822-7.3654,2.7648-2.1697,5.7907-4.0055,8.9946-5.4502,3.2614-1.4707,6.7047-2.5339,10.2278-3.1563.4461-.0788.8934-.1506,1.3417-.2153,13.6359-1.9689,25.6214,1.7565,35.9112,10.8817,8.5327,7.567,12.8444,17.2988,14.3566,28.4277.0304.2236.0335.4509.0488.678Z"/><path class="cls-4" d="m222.0123,152.4151c-.0318,6.6111-.8998,13.2177-2.6998,19.583-1.7661,6.2453-4.4212,12.2197-7.8071,17.7541-.9742,1.5924-2.0078,3.1485-3.0941,4.6666-.826,1.1543-2.1376,3.5853-3.8442,2.3659-1.3164-.9407-.6388-2.091.112-3.0968,4.2578-5.704,7.6711-11.8617,10.0283-18.5912,4.1929-11.9704,5.0154-24.1771,2.485-36.5946-.4093-2.0085-2.0251-3.6147-4.0235-4.0493-2.0494-.4457-4.1387.4758-5.3637,2.1441-.8333,1.1349-1.2203,2.5216-.9435,3.9159,1.4917,7.5149,1.6256,15.0417.1662,22.5789-.0855.4417-.1192.9171-.3137,1.3089-.3207.6461-.8344,1.2347-1.6164,1.1995-.7452-.0336-1.4157-.4905-1.5516-1.2459-.0772-.4288.0135-.873.0682-1.2991.0712-.5539.1503-1.1066.2306-1.6592.1636-1.1269.332-2.2536.4465-3.3868.5254-5.199.4786-10.3795-.5831-15.5264-1.4044-6.8088,3.2905-12.2803,9.7179-11.3654,2.7264.3881,5.1386,2.1754,6.4029,4.6077.7461,1.4354.9577,3.0365,1.2277,4.6122.3208,1.8721.5905,3.7538.7674,5.6452.1999,2.1373.2805,4.2875.1878,6.4329Z"/><path class="cls-4" d="m212.561,89.0042c1.2825-.0794,2.5736.0302,3.8498.1523.6418.0614,1.2854.1203,1.9255.1978.4177.0506.8552.1334,1.2201.3545.7425.45.811,1.4819.4252,2.2016-.419.7817-1.3827.8159-2.162.7322-11.9295-1.2815-22.9822,1.2165-32.8051,8.1786-11.9798,8.4908-18.659,20.1418-20.1603,34.7948-.4914,4.7961.0918,9.4645.8656,14.1585.3738,2.2676.2783,4.6007-.374,6.8092-.3143,1.0641-.7506,2.0903-1.2855,3.0619-.2851.5179-.598,1.0204-.9341,1.5067-.3265.4723-.6628.992-1.0673,1.4016-.7349.7445-1.6882,1.2689-2.6137.4966-.8993-.7504-.7115-1.7675-.0254-2.5935,1.6173-1.947,2.7447-4.2792,3.027-6.8101.1456-1.3054.0504-2.5988-.1677-3.8898-.2578-1.5258-.4852-3.0571-.6581-4.595-.645-5.7374-.3846-11.5421.9707-17.1626.7572-3.1402,1.8382-6.1992,3.1986-9.1283,6.0503-13.0272,15.8407-22.0917,29.396-27.025,4.7178-1.717,11.1554-2.8464,17.3747-2.8419Z"/><path class="cls-4" d="m264.0881,152.213c.0485,2.4631.0283,4.9284-.1057,7.3887-.0652,1.1972-.1574,2.3929-.281,3.5855-.1068,1.0305-.1775,2.1024-.4211,3.1121-.2165.8973-.7707,1.4543-1.73,1.4489-1.158-.0065-1.8509-1.1946-1.5453-2.8912.7665-4.2559.7671-8.5724.7754-12.8476.0136-7.008-.7209-13.9736-2.0662-20.8832-1.5703-8.0648-4.8933-15.2556-10.0665-21.5956-2.4754-3.0338-5.332-5.7506-8.4953-8.0589-3.1441-2.2943-6.5766-4.178-10.1715-5.6651-1.0578-.4376-2.1453-.7901-3.2083-1.2106-.8842-.3498-1.5355-1.0286-1.2546-2.0338.4984-1.7832,2.4251-1.0283,3.667-.6296,1.8158.5831,3.575,1.3353,5.2695,2.2087,3.738,1.9268,7.2909,4.2234,10.5179,6.924,3.0629,2.5633,5.8211,5.4875,8.1727,8.7169,2.363,3.2451,4.3066,6.7855,5.8216,10.5015,1.6988,4.1668,2.8003,8.5135,3.6023,12.934,1.0106,5.57,1.5856,11.2283,1.5575,16.8923-.0035.7012-.0161,1.4023-.0384,2.1032Z"/><path class="cls-4" d="m211.9864,116.8907c1.3221.0768,3.4337.0999,3.3362,1.9406-.078,1.4716-1.2431,1.5422-2.3774,1.5127-10.5938-.2754-18.5194,7.1244-19.9994,16.4437-.3766,2.3714-.207,4.723.2419,7.0811,2.4829,13.0421-.5408,24.7877-8.4701,35.3293-1.5967,2.1227-3.3708,4.109-5.4258,5.8236-.5059.4221-1.1659.8754-1.8619.7471-.6788-.1252-1.3052-.8219-1.3961-1.4991-.099-.738.4153-1.3615.9207-1.8295.5884-.5448,1.1696-1.0967,1.7348-1.6656,2.2189-2.2337,4.222-4.6874,5.8705-7.3733,3.3569-5.469,5.4615-11.7595,5.9292-18.1646.2676-3.6648.0054-7.3561-.6939-10.9611-2.4772-12.7699,5.534-24.4891,18.3036-26.9036,1.3292-.2513,2.6897-.3369,3.8877-.4815Z"/><path class="cls-4" d="m236.1816,151.209c-.2054,16.2457-3.8459,30.5494-11.4782,43.7858-.2752.4772-.6061,1.002-1.1039,1.2737-.5539.3023-1.1812.1415-1.689-.1817-1.0761-.6849-.7211-1.8427-.1944-2.7718,3.3129-5.8438,5.9673-12.0403,7.7964-18.5068,1.8557-6.5606,2.9738-13.333,3.18-20.1518.1174-3.8817-.0585-7.7714-.5267-11.6266-.28-2.3053-.6487-4.5862-1.0769-6.8646-.9913-5.2743-3.7232-9.3979-8.1248-12.4368-1.1049-.7628-3.0226-1.6815-1.9441-3.2808.3534-.5241.8809-.8491,1.5242-.7567.6571.0944,1.2277.5167,1.7694.8697,1.313.8557,2.5772,1.7982,3.6881,2.9077,2.547,2.5438,4.4949,5.634,5.6542,9.0439.6474,1.9042,1.0245,3.8861,1.3433,5.8681.334,2.0766.5717,4.1678.7524,6.2631.1884,2.1854.312,4.3755.4301,6.5657Z"/><path class="cls-4" d="m211.6765,81.8716c8.9626.1197,17.0748,1.8927,24.7852,5.4615.8326.3854,1.9764.976,1.8914,2.0634-.0732.9361-.8953,1.711-1.8421,1.5622-.5225-.0821-.9922-.3805-1.4614-.6066-.5464-.2633-1.0978-.5164-1.6538-.7587-1.1282-.4917-2.2757-.9393-3.4397-1.3391-1.3221-.4541-2.6653-.8466-4.0246-1.1732-18.1492-4.3608-34.5062-.74-48.9882,11.1146-3.1248,2.5579-5.842,5.4997-8.2823,8.7055-.5902.7754-1.3685,1.804-2.4607,1.256-.4865-.2441-.9581-.6788-1.0483-1.2384-.0766-.4755.1274-.9477.3642-1.3482.6047-1.0227,1.4415-1.9487,2.1998-2.8592.7957-.9556,1.6205-1.8869,2.4743-2.791,3.3721-3.5704,7.1971-6.7052,11.3739-9.2898,2.3977-1.4837,4.9063-2.7863,7.4936-3.9064,7.3544-3.1837,15.0868-4.6936,22.6188-4.8527Z"/><path class="cls-4" d="m250.164,152.6698c-.1148,11.8094-2.1227,23.2729-6.2461,34.3561-.4573,1.2291-1.075,2.3014-2.5579,1.7205-1.3931-.5457-1.1464-1.7671-.7208-2.8961,2.7617-7.3267,4.6307-14.9849,5.4992-22.7681.8628-7.7317.7513-15.6168-.1464-23.3421-.5061-4.3556-1.4028-8.6846-3.0308-12.7678-.7581-1.9014-1.7487-3.7019-2.8634-5.4161-.4509-.6935-1.1114-1.4276-1.228-2.2765-.1147-.8354.6024-1.5529,1.381-1.7321.9215-.2122,1.6212.5895,2.0898,1.268,3.5081,5.0789,5.4784,10.7379,6.4041,16.8081.8617,5.6511,1.4369,11.3212,1.4193,17.0461Z"/><path class="cls-4" d="m167.707,175.7046c-.9943-.021-1.9035-.8785-1.5692-1.9314.1659-.5226.6432-.9188,1.0176-1.297.4408-.4452.8977-.8742,1.3421-1.3157,3.0556-3.0362,5.4927-6.6922,6.8093-10.8119,1.3075-4.0912,1.4605-8.4522.8005-12.678-.346-2.2157-.6551-4.4176-.7354-6.6622-.0748-2.0911.0085-4.1888.2731-6.2648.5131-4.026,1.7234-7.9452,3.5872-11.5514,1.9603-3.7929,4.6055-7.1982,7.6462-10.185.4161-.4087.829-.8537,1.294-1.207.4472-.3397.9066-.7406,1.454-.9071.6031-.1835,1.1266.0795,1.5186.5427.3964.4683.6168,1.0548.3449,1.6398-.2481.5338-.7437.9228-1.1775,1.3003-5.6008,4.872-9.2536,10.9249-10.8595,18.1562-1.1705,5.2703-.5428,10.5289.1575,15.8319,1.4077,10.6608-2.2092,19.5431-10.2181,26.6703-.481.4281-1.0186.71-1.6852.6702Z"/><path class="cls-4" d="m211.6625,152.5285c.1391-4.1835-.4629-7.9271-1.0522-11.6695-.0863-.5484-.1796-1.1519-.0134-1.6945.1786-.583.6824-.8798,1.2609-.9742,1.4074-.2297,1.8689.9776,2.0867,2.1302,2.6284,13.9108.7715,27.2315-5.2966,39.9879-2.3427,4.9249-5.2358,9.5038-8.7656,13.6709-.2557.3018-.4987.6161-.7729.9002-.6908.7156-1.4963,1.1271-2.3973.4388-.5288-.4039-.8259-1.008-.6799-1.674.1649-.752.7789-1.3878,1.2308-1.9834,1.058-1.3948,2.1634-2.754,3.1762-4.1826,6.2554-8.8243,9.8333-18.6534,10.9286-29.4004.1031-1.0118.2327-2.0228.2842-3.0375.0486-.9593.0105-1.923.0105-2.5118Z"/><path class="cls-4" d="m269.8635,137.7462c0,.992.0734,2.0142-.0208,3.0029-.0705.7404-.3916,1.4588-1.1681,1.6604-2.2447.5828-2.2147-2.4612-2.2547-3.8631-.494-17.3004-7.6929-31.2175-21.1673-41.9702-1.0136-.8089-3.5138-2.1546-2.156-3.6999.5088-.5791,1.2154-.7996,1.9398-.4983.4015.167.7546.451,1.1078.6998.3945.2778.7852.5612,1.1717.85,1.4938,1.1163,2.9258,2.316,4.2782,3.6002,9.9563,9.455,15.8582,21.0203,17.8141,34.5893.2808,1.9479.5553,3.9206.4554,5.6288Z"/><path class="cls-4" d="m229.0895,149.9655c0,1.3942.2658,3.7725-1.7775,3.7255-1.1786-.0272-1.6297-.8917-1.644-1.9782-.0305-2.3186-.1072-4.6307-.3652-6.9401-.2034-1.8207-.4009-3.6436-.7114-5.4499-.2554-1.4852-.5702-2.9599-1.1572-4.3534-.9775-2.3204-2.605-4.3615-4.7359-5.7201-4.1023-2.6155-9.9356-2.4117-13.8767.4371-2.2643,1.6368-3.7885,4.0718-4.6401,6.7047-.1555.4807-.3347.9665-.5892,1.3992-.3573.6075-.9428.758-1.6208.6144-.6933-.1468-1.0867-.5722-1.1915-1.2602-.1045-.6863.0366-1.3498.2229-2.0077,1.8782-6.632,8.3475-11.2703,15.5394-11.1394,6.8457.1246,13.2298,5.1421,14.7516,11.6877,1.091,4.6926,1.5417,9.4767,1.7957,14.2805Z"/><path class="cls-4" d="m200.9902,152.4242c-.2145,13.9825-5.1796,25.9903-15.033,35.9489-.922.9318-1.9867,2.3462-3.39.9228-1.4241-1.4445.0845-2.418.9972-3.3548,10.6873-10.9703,15.1664-24.1019,13.6948-39.3032-.12-1.2392-.0532-2.3928,1.4595-2.5536,1.4031-.1491,1.7369.8735,1.9073,2.065.2976,2.0812.3331,4.1671.3642,6.275Z"/><path class="cls-4" d="m154.2807,140.6791c.011-9.6944,1.8737-17.9452,5.6194-25.7691.5261-1.099,1.2864-2.9233,2.8275-2.1862.9303.445,1.1417,1.3413.777,2.2589-.4803,1.2087-1.0766,2.3762-1.5736,3.5798-.9875,2.3914-1.8504,4.8369-2.5152,7.3383-.3824,1.4387-.6991,2.8951-.938,4.3645-1.1452,7.0426-1.0468,14.0612.4327,21.056.269,1.2718.9318,2.7919-.9547,3.437-1.1935.4081-1.9013-.4364-2.3892-2.8184-.8294-4.0496-1.3682-8.1341-1.2858-11.2608Z"/><path class="cls-4" d="m211.6756,102.9141c8.729.2007,16.0199,2.5948,22.4646,7.4337.9977.7491,2.4676,1.6109,1.4086,3.1232-1.1212,1.6011-2.269.324-3.2997-.4055-10.3599-7.3322-21.4446-8.7219-33.27-4.072-.5683.2235-1.2024.5063-1.8284.4272-.5915-.0747-.9781-.5112-1.1836-1.0467-.3533-.9208.1205-1.6392.9352-2.0695,1.0383-.5484,2.169-.97,3.275-1.3588,2.3026-.8096,4.6947-1.3565,7.1182-1.6431,1.6787-.1986,3.3613-.4879,4.3799-.3885Z"/><path class="cls-4" d="m228.5614,161.2674c-.841,7.4874-2.7155,14.6227-5.6008,21.4937-1.8431,4.3891-4.0465,8.5881-6.6632,12.5669-.7425,1.1289-1.8706,2.8625-3.4039,1.8038-.913-.6303-.8508-1.5167-.3228-2.3987,1.3057-2.1814,2.6843-4.3223,3.9145-6.5453,4.3987-7.9487,7.166-16.4488,8.4463-25.4384.1101-.7727.1739-1.6145.459-2.3469.1885-.4844.5434-.8977,1.0684-1.0115,1.2052-.2613,2.2049.6938,2.1026,1.8765Z"/><path class="cls-4" d="m257.245,151.896c-.2126,9.3425-1.0587,18.033-3.3204,26.5434-.0725.2728-.1348.5494-.2257.8161-.3564,1.0461-1.0089,2.0055-2.251,1.6293-1.1786-.357-1.3612-1.4929-1.0847-2.5571,1.3653-5.2546,2.4414-10.5635,2.8878-15.9809.4217-5.1186.8446-10.2415.3163-15.3808-.0996-.9689.0398-2.2259,1.0218-2.7229.7661-.3877,1.7633.0469,2.1167.7949.2211.4681.2114,1,.243,1.5054.0385.6167.0744,1.2335.1087,1.8504.065,1.1672.1234,2.3348.1876,3.5021Z"/><path class="cls-4" d="m173.0112,153.4408c-.2671,5.3955-2.6122,11.0871-7.4941,15.6472-.8329.778-1.8939,1.3506-2.8372.3948-.3947-.4-.6648-.9264-.5092-1.4943.1496-.546.5848-.986.9812-1.3673,5.4539-5.246,7.3344-11.5831,5.8657-18.9851-.3615-1.8221-.5517-3.6836-.7225-5.536-.108-1.1709.2827-2.2717,1.6421-2.3136,1.3624-.0419,1.7753,1.0322,1.7829,2.2111.0223,3.4644,1.372,6.756,1.291,11.4432Z"/><path class="cls-4" d="m204.1274,172.9073c-.5846,1.9568-1.4707,3.9066-2.477,5.8026-2.6054,4.9093-5.6688,9.4913-9.5954,13.4637-.8924.9028-1.8065,1.5074-2.8832.4139-1.0038-1.0194-.4315-1.9329.3828-2.7872,4.7666-5.0003,8.4565-10.699,11.0573-17.1014.2267-.5579.4491-1.1716.9656-1.5293.4461-.309.9928-.3037,1.4841-.1069.7589.304,1.1421.8858,1.0657,1.8445Z"/><path class="cls-4" d="m184.5688,165.2296c-.6332,1.8216-1.4375,3.7517-2.5338,5.5319-2.1717,3.5265-4.7074,6.757-7.9006,9.4423-.4116.3461-.8729.7112-1.4091.8324-.5792.1309-1.0903-.128-1.4874-.5402-.3901-.405-.6548-.93-.4735-1.4953.1671-.5211.6008-.9299.9977-1.2841,3.8521-3.4384,7.0824-7.5728,9.1031-12.3473.2351-.5555.4082-1.1759.8378-1.6201.4109-.425.9746-.5568,1.5454-.4333.8733.189,1.3077.8292,1.3204,1.9137Z"/><path class="cls-4" d="m239.9733,176.3244c-.4539,1.5459-.9299,3.4628-1.5806,5.3185-1.1934,3.403-2.4619,6.7811-4.045,10.0296-.1233.2531-.2072.5278-.3495.7688-.5754.9738-1.4432,1.7519-2.5949,1.1221-1.0501-.5742-.9741-1.6553-.5266-2.617,1.2802-2.7512,2.4681-5.5261,3.4947-8.3833.5823-1.6206,1.1249-3.2552,1.6378-4.899.2507-.8036.4175-1.6432.7627-2.4145.2466-.551.6853-.9847,1.3018-1.0693.5116-.0702,1.1299.0682,1.4681.4831.3661.4492.4064,1.1076.4315,1.661Z"/></g></g><g class="cls-3"><path class="cls-4" d="m38.9756,115.4797c1.2502-2.1145.55-4.8417-1.5643-6.0921-.7105-.4202-1.4902-.6204-2.2599-.6204-1.5207,0-3.0022.7809-3.8324,2.1845-15.0006,25.3652-15.0006,56.8791,0,82.2438,1.2509,2.1145,3.9781,2.8143,6.0923,1.5643,2.1143-1.2504,2.8145-3.978,1.5643-6.0923-13.3492-22.5717-13.3492-50.6156,0-73.1877Z"/><path class="cls-4" d="m49.748,123.9862c-.7105-.4202-1.4902-.6204-2.2599-.6204-1.5206,0-3.0022.7809-3.8324,2.1845-9.6754,16.3603-9.6754,36.6867,0,53.0467,1.2507,2.1145,3.9783,2.8145,6.0923,1.5643,2.1143-1.2504,2.8145-3.978,1.5643-6.0923-8.0238-13.567-8.0238-30.4233,0-43.9906,1.2502-2.1145.55-4.8417-1.5643-6.0921Z"/><path class="cls-4" d="m62.3211,167.0021c2.1143-1.2504,2.8145-3.978,1.5643-6.0923-3.2234-5.4502-3.2234-12.2222,0-17.6724,1.2502-2.1145.55-4.8417-1.5643-6.0921-.7105-.4202-1.4902-.6204-2.2599-.6204-1.5206,0-3.0022.7809-3.8324,2.1845-4.8748,8.2432-4.8748,18.4851,0,26.7285,1.2504,2.1141,3.9781,2.8138,6.0923,1.5643Z"/><path class="cls-4" d="m174.1169,159.3222c.2408,2.2685.8175,4.6422,1.3904,7.0117,2.5693,10.6262,5.2107,21.2353,7.7294,31.8734,1.2756,5.3875,2.3683,10.819,3.4942,16.2408.3046,1.4666.548,2.9588.5705,4.6048-.6464.2435-1.2255.5028-1.8283.6823-5.6593,1.6854-11.408,2.996-17.2174,4.0415-6.4488,1.1606-12.9508,1.9207-19.4724,2.5198-1.8631.1712-3.7307.3222-5.5996.3953-7.4064.2895-14.8107.7246-22.2288.3393-2.4437-.1269-4.8918-.1692-7.3376-.2581-1.0705-.0389-2.136-.1252-3.404-.4258.3299-.3959.4907-.7062.7454-.8744,1.1401-.7529,2.2792-1.5148,3.4695-2.183,3.7017-2.0785,7.4275-4.1138,11.1412-6.171.6865-.3803,1.36-.7841,1.9772-1.1411.9382-9.1289-1.7826-28.26-4.6319-35.7865-1.2982.1744-2.6412.3231-3.9733.5392-5.7588.9343-11.5534,1.5522-17.3735,1.9022-2.9445.1771-5.8919.1723-8.8353-.24-2.9503-.4133-5.2483-1.9158-7.1451-4.0783-1.3037-1.4863-1.8046-3.2752-1.2493-5.2342.4111-1.4503.8534-2.8979,1.3954-4.3029.4191-1.0864.3628-2.09-.0401-3.1422-.2933-.7657-.7198-1.3424-1.4484-1.7916-1.7276-1.0651-2.0744-2.3884-1.1359-4.2111,1.094-2.1246,2.8811-3.5565,4.9335-4.687.5586-.3077,1.1412-.5719,1.9211-.9596-.7236-.277-1.234-.4793-1.7491-.6684-2.0337-.7462-3.9984-1.6261-5.7531-2.9223-1.1097-.8197-2.1058-1.749-2.811-2.9491-.802-1.3649-.7569-1.8782.2219-3.11.0447-.0563.0928-.1101.1421-.1625,1.7163-1.824,1.6177-3.3407-.4142-5.165-.745-.6689-1.6189-1.1928-2.423-1.7975-.9187-.6909-1.8984-1.3218-2.7227-2.113-2.2071-2.1183-2.5975-4.3788-1.0914-7.0192.776-1.3605,1.8056-2.5947,2.8334-3.789,1.4074-1.6355,2.9643-3.1421,4.3775-4.7729,1.1293-1.3031,2.1967-2.6689,3.1903-4.0783,1.7059-2.4196,2.5523-5.1064,2.4536-8.1105-.1241-3.7756-.6477-7.4609-2.217-10.9223-.5103-1.1257-.5335-2.2356-.322-3.3689.2635-1.412.5832-2.8196.9824-4.199,1.2259-4.2359,2.9707-8.2592,5.2352-12.0402.695-1.1604,1.0106-2.3298.9935-3.6657-.034-2.6625-.0513-5.3302.4199-7.967.1896-1.0606.3643-2.1294.648-3.1665.908-3.3202,2.7809-5.956,5.6432-7.9064,3.3902-2.3103,7.1694-3.6231,11.1302-4.5101,3.6581-.8192,7.3802-1.2107,11.0905-1.683,4.0677-.5179,8.1312-1.0714,12.2041-1.5449,3.3583-.3905,6.7207-.8032,10.0932-1.0022,8.828-.521,17.1622,1.3426,24.9805,5.4844,7.9477,4.2104,15.1418,9.4366,21.3242,15.9917,4.0338,4.277,7.3296,9.0588,9.4918,14.564,2.2202,5.6531,3.0836,11.5015,2.5641,17.5635-.4061,4.7387-1.0995,9.4351-2.0722,14.0837-1.3214,6.3151-3.6726,12.2719-6.8289,17.8786-3.0704,5.4541-6.3212,10.8072-9.5257,16.1851-1.9153,3.2143-3.87,6.4059-5.8592,9.5749-.5627.8964-1.3091,1.6776-2.0771,2.6448Z"/></g></svg>