<?xml version="1.0" encoding="UTF-8"?><svg id="Layer_2" xmlns="http://www.w3.org/2000/svg" xmlns:xlink="http://www.w3.org/1999/xlink" viewBox="0 0 190.2186 229.8541"><defs><style>.cls-1{fill:none;}.cls-2{clip-path:url(#clippath);}.cls-3{fill:#4a9cd5;}.cls-4{clip-path:url(#clippath-1);}</style><clipPath id="clippath"><path class="cls-1" d="m114.4409,137.3141c5.7809-19.7475,1.5736-41.0732-11.2741-57.1454l11.7491-14.1489,19.9984-8.4993s26.4979,1.9248,27.3478,1.9248,25.398,9.7742,26.2229,11.4491c.8249,1.6749-.275,36.2971,0,37.672.275,1.3749-16.4487,26.2479-16.4487,26.2479l-31.2725,10.5992-26.3229-8.0994Z"/></clipPath><clipPath id="clippath-1"><path class="cls-1" d="m64.7698,57.5204c13.9384,2.4186,26.6551,9.4639,36.0971,19.9984l-3.2997.4c7.5709-15.1225,22.8187-24.8815,39.7218-25.423l-2.2998-22.8982-12.499-22.8982L77.3439,0s-25.6729,12.499-24.823,14.9988c.8499,2.4998,4.7496,24.998,5.2996,26.9229.55,1.9248,6.9494,15.5988,6.9494,15.5988Z"/></clipPath></defs><path class="cls-3" d="m178.2159,174.923c1.4563,6.4771,1.3953,13.3974-.4756,20.2519-6.2028,22.7251-29.6182,35.747-52.1133,29.2793-21.9577-6.3131-34.9319-29.0677-28.8741-51.3059,6.0766-22.4575,29.0651-35.6145,51.5706-29.5154,7.463,2.0225,13.9072,5.9508,18.9513,11.1213l-7.715,7.6579c-.5021-.5221-1.0234-1.027-1.5631-1.5133-3.3573-3.0255-7.428-5.3352-12.047-6.6288-16.8754-4.726-33.8905,4.7611-38.5585,21.4993-4.6564,16.6961,4.9549,33.6462,21.7281,38.319,16.2029,4.5139,33.5063-5.1965,37.983-21.3155.7319-2.6353,1.112-5.2844,1.169-7.8953l9.9446-9.9546Z"/><path class="cls-3" d="m94.027,198.6305c1.935,5.8023,4.923,10.9182,8.9109,15.5442-.322.238-.5338.4289-.7753.5682-7.0626,4.0742-14.1098,8.1754-21.1994,12.2022-5.0306,2.8573-10.7907,1.106-13.1417-3.9006-1.8669-3.9756-.6617-9.0103,3.0986-11.2637,7.4612-4.4711,15.0601-8.7126,22.6049-13.0441.0997-.0572.2351-.0522.502-.1061Z"/><path class="cls-3" d="m144.5003,180.5808c-4.1812-4.1867-8.3655-8.3703-12.5499-12.5538-1.7675-1.7671-4.1519-1.7958-5.9351-.0413-1.8073,1.7783-3.6036,3.5683-5.3771,5.3801-1.7728,1.8112-1.7781,4.137.0227,5.9441,7.1204,7.1452,14.252,14.2792,21.3989,21.398,1.8206,1.8135,4.1988,1.8367,6.0133.0257,13.646-13.6194,27.2779-27.2531,40.8982-40.8982,1.562-1.5649,1.6901-3.8113.1953-5.4512-1.8805-2.063-3.862-4.0467-5.9272-5.9248-1.8319-1.666-3.9288-1.5106-5.6581.2164-7.909,7.8991-15.8108,15.8053-23.714,23.7102-2.9099,2.9105-5.8166,5.8243-8.8307,8.8427-.2228-.2711-.3639-.4752-.5365-.6479Z"/><g><g class="cls-2"><path class="cls-3" d="m177.4109,98.4672c.0138,20.8747-16.8973,37.8082-37.772,37.822-20.8747.0138-37.8082-16.8973-37.822-37.772-.0138-20.8747,16.8973-37.8082,37.772-37.822.0167,0,.0333,0,.05,0,20.8609,0,37.772,16.9111,37.772,37.772h0Zm-39.1219,10.2492l2.3248-9.9992,4.5497-1.6249v-4.9996l-3.2998,1.2499,3.6247-15.7987h-13.4239l-4.9996,21.3733-4.5496,1.7249v4.9996l3.3247-1.2749-2.6748,12.099h31.5975l1.9249-7.7494h-18.3985Z"/></g><g class="cls-4"><path class="cls-3" d="m125.44,43.5943c0,16.015-12.9827,28.9977-28.9977,28.9977-16.015,0-28.9977-12.9827-28.9977-28.9977,0-16.015,12.9827-28.9977,28.9977-28.9977h0c16.015,0,28.9977,12.9827,28.9977,28.9977Zm-28.5011,21.6195c4.2499-6.0144,8.4999-12.0288,12.7498-18.0433-.1723.01-.2832.069-.3916.1324-4.0229,2.3551-8.0432,4.7146-12.0729,7.0579-.2886.1678-.3688.347-.368.6627.0081,3.3967.0011,6.7935-.0018,10.1902h.0846Zm-.9308,0c-.0005-3.4095-.0056-6.8189.0061-10.2283.0011-.3094-.0977-.4679-.3626-.6221-4.0387-2.3519-8.07-4.7164-12.1036-7.0771-.1017-.0595-.2098-.1084-.4093-.2106.1357.2068.2073.3232.286.4346,2.3252,3.2887,4.6529,6.5756,6.9762,9.8656,1.8436,2.6107,3.682,5.2252,5.5226,7.838h.0846Zm.8669-43.1273c-.0039.0418-.0113.0836-.0113.1254-.0006,5.0188.0023,10.0377-.0084,15.0565-.0006.2918.1414.3767.3623.4731,3.9866,1.7404,7.9706,3.4868,11.9555,5.231.1222.0535.2482.0984.4694.1855-4.2662-7.0956-8.478-14.1009-12.6899-21.1062-.0259.0116-.0518.0231-.0776.0347Zm-13.0834,20.8522c3.9698-1.7387,7.9372-3.4825,11.9126-5.2084.2918-.1267.3049-.3027.3047-.5523-.0034-4.9178-.0023-9.8356-.0035-14.7534,0-.1157-.0154-.2314-.0308-.4498-4.2022,7.0589-8.3484,14.0239-12.5644,21.106.2059-.0764.2957-.1047.3815-.1423Zm13.1074,8.9141c4.3443-2.5416,8.6418-5.0559,13.0165-7.6153-4.3827-1.9195-8.682-3.8024-13.0165-5.7008v13.3161Zm-13.9301-7.6189c4.381,2.5658,8.6759,5.0811,13.0145,7.622v-13.3219c-4.3378,1.8998-8.6342,3.7815-13.0145,5.6999Z"/></g><path class="cls-3" d="m51.056,173.6949c-2.6018-.3408-5.2163-.5912-7.7608-1.1564-15.3052-3.3997-27.1158-11.8011-35.3766-25.1123-4.3201-6.9613-6.7998-14.5843-7.6108-22.742-.1184-1.1906-.206-2.3842-.3078-3.5764,0-1.3091,0-2.6182,0-3.9273.0302-.2128.0667-.4248.0896-.6384.2367-2.2028.3387-4.4295.728-6.6049,2.5057-14.0042,9.3996-25.4023,20.6454-34.0996,8.1266-6.2849,17.3685-9.8868,27.596-10.9319,1.1726-.1198,2.3486-.2056,3.523-.3072,1.3091,0,2.6182,0,3.9273,0,.2327.0302.4648.0651.6981.0899,2.1848.233,4.3911.3419,6.5512.7166,11.7588,2.0397,21.8346,7.3436,30.1039,15.9441,8.5322,8.8739,13.49,19.4781,14.9189,31.7173.1091.9343.2069,1.87.3099,2.805v6.5455c-.0333.1951-.0736.3894-.0988.5855-.2729,2.1254-.43,4.2728-.8334,6.373-2.1658,11.2739-7.3714,20.9458-15.6039,28.9402-7.8905,7.6622-17.2781,12.5053-28.1037,14.5001-2.1157.3898-4.2642.6016-6.2827.8796-1.8582.2403-5.5781.0543-7.1128-.0003Zm8.6154-90.7024h-5.5281v7.7444h-4.9487v-7.603h-5.5007v7.6486h-13.9838v7.8206c1.4579,0,2.8734-.0138,4.2885.0034,1.8663.0227,3.0863,1.2741,3.0865,3.1464.0012,11.5813.001,23.1625,0,34.7438-.0002,2.0364-1.2209,3.2496-3.2615,3.25-.9776.0002-1.9551,0-2.9512,0-.4051,2.6368-.8012,5.2145-1.2096,7.8725h14.9241v7.7458h5.479v-7.7268h4.9533v7.5869h5.4875v-7.6848c.1912-.0154.3684-.0314.5459-.0436,2.4011-.1662,4.7607-.5505,7.0546-1.3033,3.5142-1.1534,6.4943-3.0574,8.6612-6.1156,2.7346-3.8591,3.244-8.1262,2.2593-12.6406-.9298-4.2627-3.3859-7.2868-7.4615-8.9335-.9392-.3794-1.8985-.7091-2.8988-1.0804.2184-.1228.4184-.2369.6199-.3483,3.0927-1.7107,5.318-4.1484,6.2529-7.6155.7738-2.8698.7506-5.7601-.0794-8.6145-.7701-2.6485-2.1944-4.8807-4.5799-6.3556-1.1523-.7124-2.3831-1.3205-3.632-1.8489-2.247-.9507-4.6481-1.2831-7.0569-1.5243-.3968-.0397-.5307-.1606-.5138-.5609.0277-.6531-.0053-1.3085-.006-1.963-.002-1.8687-.0007-3.7374-.0007-5.5999Z"/><path class="cls-3" d="m47.1694,122.3865c1.0589,0,2.0756-.0111,3.092.0021,2.9964.0388,5.9971.0055,8.9871.1671,1.4498.0784,2.9073.432,4.3118.8338,2.212.6327,3.5272,2.1981,4.0835,4.4136.3846,1.5317.504,3.0879.2845,4.6491-.397,2.8243-2.1101,4.5746-4.6927,5.5696-2.1511.8288-4.4062,1.0588-6.6852,1.0783-2.9976.0257-5.9956.0071-8.9935.0062-.1229,0-.2458-.0136-.3876-.0219v-16.6979Z"/><path class="cls-3" d="m47.0566,99.264c3.858.1112,7.683-.236,11.4725.3684,1.1212.1788,2.2376.4792,3.3095.8567,2.0286.7144,3.168,2.2213,3.5344,4.3255.2858,1.6411.2268,3.2603-.3892,4.8246-.8243,2.0931-2.4964,3.2273-4.5296,3.9411-1.4378.5048-2.9288.7237-4.4409.7391-2.8884.0295-5.7773.0094-8.6661.0089-.0879,0-.1757-.0108-.2907-.0183v-15.0461Z"/></g></svg>