<?xml version="1.0" encoding="UTF-8"?><svg id="Layer_1" xmlns="http://www.w3.org/2000/svg" viewBox="0 0 237.0394 290.765"><defs><style>.cls-1{fill:#fff;}</style></defs><path class="cls-1" d="m89.3792,248.6299c-4.5374.0194-3.0133.0272-7.5499-.0367-4.4371-.0625-6.8519-1.8973-8.2402-6.2301-.9871-3.0805-1.4347-6.416-2.8974-9.2364-1.2135-2.3399-3.5558-4.0954-5.406-6.1024-.0784-.085-.2494-.0766-.3564-.1445-7.967-5.0541-15.3522-4.0741-22.9036,1.3634-4.6549,3.3518-8.0406,2.4893-12.1186-1.5211-2.8647-2.8172-5.7276-5.6384-8.5162-8.5302-3.2135-3.3324-3.6035-6.4179-1.4888-10.5991.1754-.3468.3153-.7268.5561-1.0229,5.9346-7.2965,6.405-15.0037,1.2543-22.7879-1.5305-2.3131-3.7818-4.4756-6.2018-5.7869-2.6648-1.4441-5.9211-1.7735-8.8892-2.6874-4.6099-1.4194-6.5109-3.9791-6.5748-8.8653-.056-4.2759-.0717-8.5544.0099-12.8296.0834-4.3703,2.0992-7.0043,6.2086-8.3708.4906-.1631,1.0079-.2443,1.5053-.389,15.1891-4.4172,11.3077-2.4588,16.9911-15.7403.9254-2.1627.463-5.3284-.3249-7.7111-.9989-3.0208-3.039-5.6874-4.5345-8.5566-2.1619-4.1477-1.7284-7.2613,1.4951-10.5878,2.9761-3.0711,6.004-6.0943,9.0733-9.0725,3.2535-3.1568,6.6464-3.6428,10.6322-1.6468.4629.2318.9002.5143,1.3538.7652,11.0805,6.1269,11.1553,6.2905,22.7818.988,2.2829-1.0411,4.2376-3.6332,5.4507-5.9727,1.4625-2.8203,1.9145-6.153,2.9084-9.2301,1.4034-4.3451,3.7944-6.1574,8.2452-6.2215,4.5365-.0653,1.0745-.0155,5.6119-.0147l.5399,40.1653c-26.8527.4047-48.0862,22.2921-47.6823,49.1509.3952,26.2813,22.496,47.7042,48.7833,47.2871l.2835,40.1744Z"/><path class="cls-1" d="m86.9357,195.4265c-19.4338,0-35.188-15.7542-35.188-35.188s15.7542-35.188,35.188-35.188v70.3761Zm.0054-22.2795c-3.6055-.0324-6.8919-1.898-6.8919-5.7543h-9.1221c0,7.7201,4.964,12.7675,12.6462,13.9245v4.335h3.3624l.0054-12.5052Zm-.0055-38.3222h-3.8575v4.0167c-7.1568,1.0307-11.5574,5.2848-11.5574,12.0904,0,9.0539,7.6772,10.8829,13.9876,12.4087.4858.1158.9627.229,1.4271.3429l.0045-8.6524c-3.6352-.934-6.4107-1.9077-6.4107-4.4984,0-2.5666,2.9607-3.7337,5.9113-3.7337.168,0,.335.0041.5006.0124l-.0054-11.9866Z"/><path class="cls-1" d="m117.8323,197.5568c-.1724,10.284-.2903,20.2772.4629,30.2042,1.0335,13.6216,6.6607,17.4716,20.3391,17.4703,7.2946-.0007,14.6053-.2923,21.8785.103,5.1348.279,7.9416-1.2465,10.4117-6.1319,7.1863-14.2134,22.9903-21.3658,37.9932-18.1049,15.391,3.3452,26.6239,16.0441,27.9921,31.6453,1.3476,15.3664-7.9258,30.0209-22.5655,35.6597-16.3839,6.3106-35.2993-.3421-43.2059-16.1249-2.7597-5.5088-5.944-6.9139-11.5502-6.6488-8.7841.4154-17.6035.0196-26.4061.1226-14.1221.1653-24.6352-6.3682-29.9171-18.9493-3.6013-8.578-5.8778-18.3108-6.1119-27.5937-.1715-6.8027-.2846-13.6071-.3547-20.4126l.0527-16.1926.0756-58.2424.0214-40.9633.0101-7.746c.0278-4.54-1.0256-7.0094-5.4614-9.175-15.2388-7.4397-22.4662-23.537-18.6043-39.7293C76.6251,11.0971,90.6982.0618,107.0024.0003c16.234-.0613,30.0991,10.792,34.1218,26.7098,4.0237,15.9216-3.2287,32.1695-18.5176,39.7602-4.4296,2.1992-5.5881,4.7215-5.4635,9.2341l.1475,39.1753c-.0057,2.5901-.0209,5.2046-.0347,7.8558-.0141,2.6941-.0267,5.4262-.0267,8.2092,16.6355,0,32.4223.1782,48.1925-.2507,1.7518-.0476,3.8609-3.3116,5.0379-5.4967,7.7928-14.4687,23.6496-21.871,39.4953-18.1941,15.2689,3.5431,26.5172,17.3628,27.0522,33.2367.5318,15.7775-9.7556,29.9867-25.0901,34.6552-16.3123,4.9662-33.5807-2.2418-41.3334-17.8667-2.1387-4.3103-4.524-5.6674-9.158-5.5712-14.3067.2969-28.6234.1084-43.3947.1084l-.0836,29.6822-.1148,16.309Zm98.5831-56.2795c.0093-7.8523-6.4396-14.5674-14.1962-14.7821-8.0176-.2219-14.9791,6.6207-14.9968,14.7406-.0178,8.1983,6.8145,14.9315,14.9438,14.7271,7.847-.1973,14.2397-6.7859,14.2491-14.6856ZM121.5504,35.401c.1626-8.2484-6.4817-15.1045-14.6003-15.0659-7.7144.0367-14.3776,6.6232-14.5913,14.4233-.2238,8.1664,6.4371,14.9405,14.6952,14.9449,7.9631.0042,14.3385-6.2858,14.4965-14.3023Zm80.3689,205.6197c-8.3241-.0432-14.8386,6.5305-14.7026,14.8361.1289,7.8697,6.6376,14.329,14.4878,14.3778,7.864.0488,14.4811-6.3235,14.7064-14.1624.2391-8.319-6.2014-15.0084-14.4915-15.0515Z"/></svg>