<?xml version="1.0" encoding="UTF-8"?><svg id="Layer_1" xmlns="http://www.w3.org/2000/svg" viewBox="0 0 174.5217 214.0775"><defs><style>.cls-1{fill:#4a9cd5;}</style></defs><path class="cls-1" d="m65.806,183.0552c-3.3407.0143-2.2186.02-5.5586-.027-3.2668-.046-5.0447-1.3969-6.0669-4.587-.7268-2.268-1.0563-4.7238-2.1332-6.8004-.8934-1.7228-2.618-3.0152-3.9802-4.493-.0577-.0626-.1836-.0564-.2624-.1064-5.8658-3.7211-11.3031-2.9996-16.8629,1.0038-3.4272,2.4678-5.92,1.8328-8.9224-1.1199-2.1091-2.0742-4.217-4.1513-6.2701-6.2804-2.366-2.4535-2.6531-4.7252-1.0961-7.8037.1291-.2553.2322-.5351.4094-.7531,4.3694-5.3721,4.7157-11.0466.9235-16.7777-1.1269-1.703-2.7844-3.2952-4.5661-4.2607-1.962-1.0632-4.3595-1.3057-6.5448-1.9786-3.3941-1.045-4.7937-2.9297-4.8408-6.5271-.0412-3.1482-.0528-6.2982.0073-9.4458.0614-3.2176,1.5455-5.157,4.5711-6.1631.3612-.1201.742-.1799,1.1083-.2864,11.183-3.2522,8.3254-1.8103,12.5098-11.5889.6814-1.5923.3409-3.9231-.2392-5.6773-.7354-2.2241-2.2375-4.1874-3.3386-6.2998-1.5917-3.0538-1.2726-5.3462,1.1008-7.7953,2.1912-2.2611,4.4204-4.487,6.6803-6.6797,2.3954-2.3242,4.8934-2.682,7.828-1.2125.3408.1707.6627.3787.9968.5634,8.1581,4.511,8.2132,4.6314,16.7733.7274,1.6808-.7666,3.12-2.675,4.0131-4.3975,1.0768-2.0765,1.4096-4.5302,2.1413-6.7957,1.0333-3.1991,2.7936-4.5334,6.0706-4.5806,3.34-.0481.7911-.0114,4.1318-.0108l.3975,29.5719c-19.7705.298-35.4037,16.4127-35.1064,36.1876.291,19.3497,16.5628,35.1225,35.917,34.8154l.2087,29.5787Z"/><path class="cls-1" d="m64.007,143.884c-14.3083,0-25.9074-11.5991-25.9074-25.9074s11.5991-25.9074,25.9074-25.9074v51.8148Zm.004-16.4034c-2.6546-.0238-5.0742-1.3974-5.0742-4.2366h-6.7162c0,5.684,3.6548,9.4001,9.3109,10.252v3.1917h2.4756l.004-9.207Zm-.004-28.2149h-2.8401v2.9573c-5.2692.7589-8.5092,3.891-8.5092,8.9017,0,6.666,5.6524,8.0126,10.2985,9.136.3576.0853.7088.1686,1.0507.2525l.0033-6.3704c-2.6764-.6877-4.7199-1.4046-4.7199-3.312,0-1.8897,2.1798-2.749,4.3523-2.749.1237,0,.2466.003.3685.0091l-.004-8.8252Z"/><path class="cls-1" d="m86.7547,145.4524c-.1269,7.5717-.2137,14.9292.3408,22.238.7609,10.029,4.904,12.8635,14.9748,12.8626,5.3707-.0005,10.7532-.2152,16.1081.0758,3.7805.2054,5.8471-.9177,7.6657-4.5146,5.291-10.4647,16.9267-15.7307,27.9728-13.3299,11.3317,2.4629,19.602,11.8126,20.6093,23.299.9922,11.3136-5.8354,22.1031-16.614,26.2546-12.0628,4.6462-25.9893-.2519-31.8106-11.8721-2.0319-4.0559-4.3763-5.0904-8.5039-4.8952-6.4673.3058-12.9607.0144-19.4416.0902-10.3975.1217-18.1378-4.6886-22.0266-13.9515-2.6515-6.3156-4.3276-13.4814-4.4999-20.316-.1263-5.0086-.2095-10.0183-.2612-15.0289l.0388-11.9219.0556-42.8813.0158-30.1594.0074-5.7031c.0204-3.3426-.7551-5.1607-4.021-6.7551-11.2197-5.4775-16.5409-17.3293-13.6975-29.2509C56.4157,8.1703,66.7771.0455,78.7812.0002c11.9524-.0451,22.1606,7.9457,25.1224,19.6652,2.9625,11.7224-2.3772,23.685-13.6337,29.2737-3.2613,1.6192-4.1143,3.4762-4.0226,6.7987l.1086,28.843c-.0042,1.907-.0154,3.8319-.0256,5.7839-.0103,1.9836-.0197,3.9951-.0197,6.0441,12.248,0,23.8711.1312,35.4821-.1846,1.2898-.0351,2.8426-2.4382,3.7091-4.047,5.7375-10.6527,17.4121-16.1027,29.0786-13.3955,11.2419,2.6086,19.5234,12.7835,19.9174,24.4707.3915,11.6163-7.1826,22.0779-18.4728,25.5151-12.01,3.6564-24.724-1.6506-30.432-13.1545-1.5746-3.1735-3.3308-4.1727-6.7426-4.1018-10.5334.2186-21.0742.0798-31.9496.0798l-.0616,21.8537-.0845,12.0076Zm72.5824-41.4361c.0069-5.7813-4.7412-10.7253-10.452-10.8834-5.903-.1634-11.0285,4.8745-11.0415,10.8528-.0131,6.036,5.0172,10.9934,11.0025,10.8429,5.7774-.1453,10.4841-4.9961,10.491-10.8123ZM89.4922,26.0642c.1197-6.073-4.7722-11.1208-10.7496-11.0923-5.6798.027-10.5856,4.8763-10.7429,10.6192-.1648,6.0126,4.7394,11.0001,10.8194,11.0033,5.8629.0031,10.5568-4.628,10.6731-10.5301Zm59.1721,151.3888c-6.1287-.0318-10.925,4.8081-10.8249,10.9231.0949,5.7941,4.887,10.5498,10.6667,10.5857,5.7899.036,10.6618-4.6557,10.8277-10.4271.176-6.1249-4.5658-11.0501-10.6695-11.0817Z"/></svg>