<?xml version="1.0" encoding="UTF-8"?><svg id="Layer_4" xmlns="http://www.w3.org/2000/svg" viewBox="0 0 161 221.9814"><defs><style>.cls-1{fill:none;stroke:#fff;stroke-width:8px;}.cls-2,.cls-3{fill:#4a9cd5;}.cls-3{fill-rule:evenodd;}</style></defs><path class="cls-2" d="m59.5875,10.4465c0,5.7938,4.6942,10.4881,10.4454,10.4881v1.7762c-12.4335,1.607-24.1898,6.0899-34.5091,13.0678l-4.8634-4.8634c-.9731-.9727-2.2837-1.4802-3.5947-1.4802s-2.5797.5075-3.5947,1.4802l-15.3515,15.3515c-1.9872,1.9877-1.9872,5.1595,0,7.1471l4.9907,4.9903C4.567,71.3873,0,86.5696,0,102.4709c0,21.4836,8.3731,41.6986,23.5554,56.8809,15.1823,15.1823,35.3977,23.5559,56.8809,23.5559s41.8254-8.289,57.0082-23.5136c15.1823-15.1823,23.5554-35.3973,23.5554-56.8809s-8.3731-41.6986-23.5559-56.8809c-12.6872-12.6872-28.8849-20.6378-46.3932-22.8792v-1.7762c5.7942-.0423,10.4462-4.7366,10.4462-10.4881C101.4971,4.695,96.8029.0003,91.0086.0003h-20.8916c-5.7934-.0419-10.5295,4.6524-10.5295,10.4462Zm20.9757,29.0114c34.8475,0,63.0553,28.2501,63.0553,63.0553,0,34.8475-28.2506,63.0553-63.0553,63.0553s-63.0553-28.2501-63.0553-63.0553,28.2078-63.0553,63.0553-63.0553Z"/><path class="cls-3" d="m54.0092,106.241l-8.3121,1.5176c-.4553-3.005-.5228-6.0906-.1712-9.1885l.0132-.1187.0173-.1431.0147-.1263.0173-.136.018-.1322c.5086-3.8734,1.6676-7.7058,3.5112-11.3284l.0124-.0247.1132-.2193.0137-.0254c1.8905-3.6595,4.3664-6.8735,7.2665-9.5691l.1167-.1085.0592-.0547.0573-.0528.1175-.107.0201-.0173c.5448-.4915,1.0986-.966,1.6665-1.4179l-1.4187-1.6705-5.4667-6.4363c2.8375-2.2924,5.9335-4.232,9.2119-5.7857,8.7366-4.1376,18.7749-5.5278,28.7092-3.5046l.012.0018.3246.0671.0315.0064.0267.0062c5.3712,1.1296,10.3655,3.1872,14.8302,5.9838l.1476.0923.0116.0064.4417.2835c5.1306,3.3165,9.4515,7.5729,12.8101,12.4489l.0954.1402.0967.1405.0673.0985.028.0426.0952.1412.0948.1421.0786.1189.0151.023.0933.1428.0924.1426.0907.1407.0017.0017c.8592,1.339,1.6539,2.7248,2.3712,4.1482l-.0057.0026c.1635.3252.3233.6538.4787.9819l-7.6277,3.6131c-.6168-1.3026-1.3085-2.569-2.0729-3.7948l-.0168-.0282-.145-.2301-.0696-.1087-.0035-.0059-.0737-.1137-.0735-.1136-.0746-.114-.0104-.0165-.0643-.0974-.075-.113-.0763-.1123-.0249-.0381-.0511-.0754-.0765-.1122-.0768-.1114-.0767-.1113-.0777-.1116-.0777-.1116c-.6526-.9262-1.3478-1.8235-2.0772-2.6814-2.2395-2.637-4.8446-4.9652-7.7431-6.9022l-.287-.1912-.0768-.0495-.2994-.1919c-2.0163-1.2827-4.183-2.3851-6.4876-3.285l.0031-.0083c-.6791-.2647-1.3682-.5108-2.0667-.737l-.0027.0071c-1.0427-.3385-2.0885-.6293-3.1386-.8727l-.0132-.0023-.2703-.0618-.1655-.0358-.1502-.0327-.1507-.0315c-1.1539-.2397-2.3275-.4271-3.5224-.5591l.0007-.008c-5.9656-.6661-11.895.1331-17.3276,2.1864l.7741,2.0529,2.9804,7.899c-.6801.257-1.3488.541-2.0066.8524-1.7763.8417-3.4624,1.8796-5.0207,3.0951l-.0033-.0036c-.5721.447-1.1273.9184-1.6662,1.4168l.0004.0014-.0374.0332-.0924.0857-.0145.0147-.1428.1355-.0239.0216-.0905.0867-.0282.027-.0623.0604-.0789.0767-.0109.0114-.0898.0879-.0393.0384-.0493.05-.0888.0893-.0014.0008-.0877.0888c-1.0558,1.0802-2.0374,2.2603-2.927,3.5477-.5501.7961-1.0518,1.6108-1.5047,2.4415l-.0185.0353-.0782.1445-.0189.0365-.0759.144-.0191.0374-.0751.1445-.0191.0374-.0737.1447-.0192.0374-.0719.1457-.0192.0374-.071.1471c-.4188.8627-.7935,1.7586-1.123,2.6813-.5174,1.4485-.9035,2.9112-1.1612,4.3766l-.0012.0102-.0322.1843-.0019.0154-.0303.1793-.0028.0211-.027.1731-.004.0277-.0247.167-.005.0331-.0227.162-.0057.0389-.0206.1557-.0067.0443-.0177.1508-.001-.0004c-.2932,2.351-.261,4.7005.0623,6.985Z"/><path class="cls-3" d="m96.7266,123.797l5.3925,6.5056c-2.3977,1.868-5.0552,3.4376-7.9288,4.6476l-.1101.0465-.1331.0549-.1172.0491-.127.0516-.1241.0488c-3.6268,1.4528-7.536,2.3181-11.5978,2.4839l-.0277.0014-.2466.0085-.0288.0005c-4.1168.1428-8.1316-.443-11.9019-1.6523l-.1518-.0488-.0765-.0248-.0741-.024-.1509-.05-.0251-.0092c-.6953-.2346-1.3801-.4852-2.0521-.7592l-.7623,2.0549-2.9363,7.9181c-3.3885-1.3523-6.5954-3.1026-9.5554-5.2009-7.8847-5.5931-14.0113-13.6664-17.1104-23.3199l-.004-.0116-.1007-.3155-.0094-.0308-.0078-.0266c-1.6445-5.2366-2.2951-10.5991-2.0419-15.8615l.0083-.1741-.0003-.0133.0313-.524c.3805-6.0974,1.9768-11.9491,4.5848-17.2651l.0753-.1518.0754-.153.0531-.107.0234-.045.0765-.1523.0775-.1523.0653-.1268.0126-.0244.0789-.1513.0788-.1504.0785-.1481.0007-.0023c.7472-1.4046,1.5665-2.776,2.4567-4.0982l.005.0038c.2037-.3018.4119-.6022.6218-.8982l6.8849,4.8828c-.8338,1.1758-1.5997,2.3988-2.2944,3.6657l-.0163.0282-.1296.2392-.0608.1137-.0033.0061-.063.1199-.0633.1198-.0628.1208-.0093.017-.0537.1037-.0618.1208-.0604.1215-.0211.0403-.0405.0815-.0606.1215-.0595.1216-.0594.1213-.0595.1227-.0592.1225c-.4883,1.0221-.9302,2.0679-1.3216,3.1237-1.2031,3.2441-1.9583,6.6556-2.2283,10.1313l-.0261.344-.0057.0912-.0209.3552c-.1314,2.3863-.0319,4.8154.3113,7.2655l-.0085.0014c.1016.7215.2243,1.443.369,2.1629l.0076-.0012c.2151,1.0751.4735,2.1295.7753,3.1644l.0045.0125.0786.266.0497.1618.045.1469.0461.1468c.3558,1.1238.767,2.239,1.2368,3.3454l-.0071.0033c2.3392,5.5283,5.939,10.3077,10.389,14.04l1.4113-1.6802,5.4292-6.4659c.5569.4674,1.1322.9115,1.7256,1.3324,1.6037,1.1372,3.3343,2.0992,5.1568,2.8632l-.0014.0047c.6697.28,1.3528.5332,2.0512.7594l.0009-.0012.0474.0164.1201.0386.0196.0054.1881.0582.0308.0102.1196.0365.0374.0114.0834.0248.1054.0311.0152.004.1205.035.0528.0156.0675.0186.1216.0338.0014.0009.1201.0329c1.4589.3918,2.9685.6701,4.527.8158.9633.0897,1.9194.1286,2.8655.1167l.0399-.0012.1644-.0023.0409-.0014.1628-.0043.0421-.0017.1625-.0054.0421-.0017.1625-.0064.0419-.0017.1619-.0085.0422-.0016.163-.0099c.9575-.0572,1.9223-.169,2.888-.3333,1.5163-.258,2.9809-.6372,4.3851-1.1299l.0093-.0038.1765-.0623.0146-.0059.1708-.0613.0199-.0079.1644-.0613.0261-.0099.1578-.0602.0313-.012.1526-.0592.0364-.014.146-.0583.0416-.016.1405-.0583v.001c2.1938-.895,4.2269-2.0734,6.0608-3.4738Z"/><path class="cls-3" d="m89.7609,77.4089l2.5962-8.0408c2.8626,1.0209,5.6131,2.4214,8.1759,4.197l.0983.0678.1177.0829.1042.0727.1118.0796.1078.0784c3.1718,2.2809,5.9996,5.1151,8.3187,8.4535l.0159.0227.1397.2035.0159.0242c2.3292,3.3971,3.9891,7.099,4.9918,10.9293l.0402.1542.0201.078.0195.0755.0389.1543.0057.026c.1752.7126.3312,1.4249.4604,2.139l2.1429-.4595,8.2568-1.7704c.6772,3.5847.9207,7.2297.7383,10.8533-.4889,9.6542-4.0141,19.1556-10.497,26.95l-.0074.0097-.2125.2542-.0208.0244-.0181.0208c-3.5366,4.1975-7.7125,7.6237-12.2887,10.2336l-.1514.0864-.0111.0071-.4589.2549c-5.3493,2.9506-11.1434,4.7432-17.0284,5.3949l-.1686.0178-.1694.0187-.1187.0125-.0507.0045-.1696.017-.1701.0161-.1421.013-.0272.0026-.1701.0147-.1691.014-.167.0133-.0023.0007c-1.5862.1232-3.1829.1677-4.7762.1258l.0003-.0061c-.3638-.0098-.7289-.0244-1.0915-.0427l.4261-8.4292c1.4395.0727,2.8826.0625,4.3242-.0308l.0327-.0014.2712-.019.1287-.0097.0071-.0005.1348-.0111.135-.0109.1358-.0119.0194-.0014.1163-.0104.135-.0125.135-.0142.0453-.0038.0907-.0095.135-.014.1343-.0151.1344-.015.1352-.0156.1353-.0156c1.1245-.1367,2.2439-.3247,3.3449-.5611,3.3828-.7253,6.6667-1.9185,9.7445-3.5555l.3041-.1625.0799-.044.311-.1731c2.084-1.1692,4.0804-2.5564,5.9636-4.1608l.0058.0066c.5544-.473,1.0973-.9636,1.6272-1.4719l-.0053-.0057c.7919-.7585,1.5428-1.5423,2.2542-2.3522l.0083-.0104.1822-.2092.1099-.1289.0999-.1167.099-.1177c.7574-.9033,1.4777-1.8486,2.1592-2.8385l.0069.0043c3.4096-4.94,5.5112-10.542,6.273-16.2996l-2.175-.2895-8.3691-1.1121c.0954-.7206.1615-1.4443.1982-2.171.0993-1.9632-.0173-3.9398-.3508-5.8873l.0048-.0014c-.1229-.7154-.2758-1.4277-.4595-2.1383h-.0017l-.0116-.0488-.0318-.122-.0062-.0197-.0516-.1899-.0078-.0313-.0334-.1206-.0106-.0379-.0237-.0836-.0303-.1054-.0047-.0152-.0351-.1206-.0151-.0528-.0206-.067-.0367-.1206v-.0017l-.0368-.1192c-.4522-1.4412-1.0271-2.8645-1.7403-4.2574-.4413-.8612-.9215-1.6887-1.439-2.4808l-.0226-.0329-.09-.1374-.0232-.0337-.0909-.1352-.0239-.0346-.0919-.1343-.0239-.0346-.0927-.1336-.0239-.0346-.0943-.1321-.024-.0346-.0957-.1322c-.5619-.7772-1.1739-1.5314-1.8308-2.2582-1.0314-1.1413-2.1371-2.1734-3.3061-3.0938l-.0083-.0059-.1473-.1153-.0126-.0093-.1435-.1113-.0173-.0125-.1401-.1057-.0222-.0168-.1355-.1007-.0271-.0201-.1319-.0966-.0313-.0235-.1274-.0919-.036-.0265-.1246-.0872.001-.0008c-1.9324-1.3708-4.0175-2.4541-6.1832-3.2502Z"/><path class="cls-3" d="m64.0928,102.545c0-9.0627,7.3916-16.4543,16.4543-16.4543s16.4543,7.3916,16.4543,16.4543-7.3916,16.4543-16.4543,16.4543-16.4543-7.3916-16.4543-16.4543Zm22.0505-.8049c2.6377,0,4.7889-2.1513,4.7889-4.7887s-2.1512-4.7887-4.7889-4.7887-4.7887,2.1512-4.7887,4.7887,2.1512,4.7887,4.7887,4.7887Z"/><path class="cls-1" d="m69.058,158.7625c-6.2479-3.8026-9.2885-13.1781-6.6939-20.9491,2.6218-7.8525,8.2554-12.4504,16.3664-13.5453,7.9187-1.069,14.5056,1.8246,19.0689,8.4102,4.471,6.4522,4.6142,13.3472,1.0375,20.367-1.126,2.21-2.5302,3.037-5.1386,1.6288,0-3.8597.0485-7.9108-.0115-11.9602-.0874-5.9017-3.938-10.6613-9.4474-11.7953-5.7892-1.1916-11.6315,1.6671-13.8498,7.0518-.7233,1.7557-1.0085,3.7857-1.0699,5.7039-.1539,4.8094-.0642,9.6266-.0795,14.4407-.0005.1511-.0821.3019-.1823.6475Z"/><path class="cls-1" d="m69.058,158.7625c-6.2479-3.8026-9.2885-13.1781-6.6939-20.9491,2.6218-7.8525,8.2554-12.4504,16.3664-13.5453,7.9187-1.069,14.5056,1.8246,19.0689,8.4102,4.471,6.4522,4.6142,13.3472,1.0375,20.367-1.126,2.21-2.5302,3.037-5.1386,1.6288,0-3.8597.0485-7.9108-.0115-11.9602-.0874-5.9017-3.938-10.6613-9.4474-11.7953-5.7892-1.1916-11.6315,1.6671-13.8498,7.0518-.7233,1.7557-1.0085,3.7857-1.0699,5.7039-.1539,4.8094-.0642,9.6266-.0795,14.4407-.0005.1511-.0821.3019-.1823.6475Z"/><path class="cls-1" d="m108.7594,221.9814h-25.9007c-4.7599-1.6589-8.105-5.0342-10.7292-9.1584-1.921-3.0191-3.7188-6.1327-5.3504-9.3179-3.9696-7.7495-7.8155-15.5628-11.7011-23.3554-1.9586-3.9279-1.0772-8.1906,2.1558-10.5411,3.3293-2.4205,7.8102-2.0059,10.8635,1.1012,1.6136,1.642,3.0964,3.4132,4.6382,5.1261.2269-.1592.4538-.3184.6807-.4776,0-.873,0-1.746,0-2.619.0011-9.8743-.0383-19.7489.0204-29.6229.0295-4.9656,3.5253-8.4232,8.2465-8.3673,4.6332.0548,7.9343,3.499,8.0017,8.3702.0237,1.7134.0046,3.4274.0047,5.1411.0001,3.8683,0,7.7366,0,11.7763,5.3806-1.8604,9.2337-.3278,11.8158,4.2592,6.0098-1.9825,8.1495-1.257,12.3758,4.1021,5.8914-2.2275,9.2374-.86,12.4714,5.0969v26.9369c-1.4964,7.4157-5.2562,13.3744-11.4739,17.699-1.9765,1.3747-4.0759,2.572-6.1191,3.8505Z"/><path class="cls-2" d="m69.058,158.7625c-6.2479-3.8026-9.2885-13.1781-6.6939-20.9491,2.6218-7.8525,8.2554-12.4504,16.3664-13.5453,7.9187-1.069,14.5056,1.8246,19.0689,8.4102,4.471,6.4522,4.6142,13.3472,1.0375,20.367-1.126,2.21-2.5302,3.037-5.1386,1.6288,0-3.8597.0485-7.9108-.0115-11.9602-.0874-5.9017-3.938-10.6613-9.4474-11.7953-5.7892-1.1916-11.6315,1.6671-13.8498,7.0518-.7233,1.7557-1.0085,3.7857-1.0699,5.7039-.1539,4.8094-.0642,9.6266-.0795,14.4407-.0005.1511-.0821.3019-.1823.6475Z"/><path class="cls-2" d="m108.7594,221.9814h-25.9007c-4.7599-1.6589-8.105-5.0342-10.7292-9.1584-1.921-3.0191-3.7188-6.1327-5.3504-9.3179-3.9696-7.7495-7.8155-15.5628-11.7011-23.3554-1.9586-3.9279-1.0772-8.1906,2.1558-10.5411,3.3293-2.4205,7.8102-2.0059,10.8635,1.1012,1.6136,1.642,3.0964,3.4132,4.6382,5.1261.2269-.1592.4538-.3184.6807-.4776,0-.873,0-1.746,0-2.619.0011-9.8743-.0383-19.7489.0204-29.6229.0295-4.9656,3.5253-8.4232,8.2465-8.3673,4.6332.0548,7.9343,3.499,8.0017,8.3702.0237,1.7134.0046,3.4274.0047,5.1411.0001,3.8683,0,7.7366,0,11.7763,5.3806-1.8604,9.2337-.3278,11.8158,4.2592,6.0098-1.9825,8.1495-1.257,12.3758,4.1021,5.8914-2.2275,9.2374-.86,12.4714,5.0969v26.9369c-1.4964,7.4157-5.2562,13.3744-11.4739,17.699-1.9765,1.3747-4.0759,2.572-6.1191,3.8505Z"/></svg>