<?xml version="1.0" encoding="UTF-8"?><svg id="Layer_1" xmlns="http://www.w3.org/2000/svg" xmlns:xlink="http://www.w3.org/1999/xlink" viewBox="0 0 299.7905 261.974"><defs><style>.cls-1{fill:none;}.cls-2{clip-path:url(#clippath);}.cls-3,.cls-4{fill:#fff;}.cls-4{fill-rule:evenodd;}</style><clipPath id="clippath"><polygon class="cls-1" points="127.4762 0 204.6257 0 299.7905 0 299.7905 261.539 188.2203 261.539 188.2203 70.2031 85.7922 71.0629 127.4762 0"/></clipPath></defs><path class="cls-3" d="m41.5504,79.1141c1.5209,0,2.6869,0,3.853,0,41.7878-.0009,83.5755-.0036,125.3633-.001,7.2738.0004,10.0954,2.8075,10.0967,10.0465.004,21.3405-.0031,42.6811-.0026,64.0216.0007,27.8835.0083,55.767.0046,83.6504-.001,7.2534-2.8774,10.1685-10.0328,10.1696-37.6187.0058-75.2374.0107-112.8562.0002-10.4495-.0029-16.4335-6.0051-16.4365-16.448-.0053-18.462.0067-36.9241.008-55.3861.0023-31.0585.0018-62.117.0025-93.1754,0-.7895,0-1.5789,0-2.8776Zm98.7725,66.3322c6.5491,0,13.0982.0132,19.6472-.0049,4.014-.0111,5-.9506,5.0062-4.848.0208-13.0981.023-26.1963.0078-39.2944-.0042-3.6534-1.1403-4.8117-4.7983-4.819-13.0981-.0261-26.1963-.0245-39.2944-.0031-3.6917.0061-4.861,1.1478-4.8668,4.7606-.0212,13.1973-.0208,26.3947.0065,39.5921.0073,3.528,1.1004,4.5896,4.655,4.6051,6.5455.0285,13.0912.0081,19.6368.0116Zm-29.6401,56.2886c-15.8822,0-31.7644-.0011-47.6467.0025-.9921.0002-2.2154-.3215-2.9244.1364-1.1858.7658-2.8091,2.0281-2.8258,3.1036-.0171,1.0989,1.566,2.36,2.6753,3.2754.4843.3996,1.5333.1374,2.3258.1375,32.36.0036,64.7201.0035,97.0801-.0017.8912-.0001,2.0672.2836,2.6137-.1672,1.1028-.9096,2.5017-2.201,2.5635-3.3977.0496-.9589-1.5726-2.1926-2.6927-2.9493-.6227-.4207-1.7364-.1332-2.6288-.1334-16.18-.0038-32.36-.0028-48.5401-.006Zm.3018-14.3364c15.9788,0,31.9576.0008,47.9364-.0022.8927-.0002,2.0338.3098,2.6262-.1206,1.2252-.8901,2.8121-2.0586,3.0541-3.3387.3405-1.801-1.1699-3.0208-3.1593-3.1359-.7916-.0458-1.5873-.0267-2.3811-.0267-31.9576.0003-63.9152.0016-95.8728.0036-.7939,0-1.588.0174-2.3818.0115-2.0842-.0154-3.5558.9086-3.6784,3.0423-.1326,2.3087,1.3674,3.3631,3.5397,3.5333.7896.0619,1.5869.0336,2.3806.0336,15.9788.0015,31.9576.0011,47.9364-.0002Zm-.0014,41.9737c6.8411,0,13.6821.0003,20.5232,0,9.7163-.0005,19.4327-.0179,29.1489.0095,2.3282.0066,4.0424-.9102,4.044-3.3204.0016-2.4134-1.7515-3.367-4.0465-3.3524-.4957.0032-.9915-.0023-1.4872-.0023-32.2224-.0004-64.4449-.0022-96.6673.0064-.9857.0003-2.2465-.2495-2.8946.2482-1.0535.809-2.3817,2.1683-2.3368,3.2429.0445,1.0652,1.4975,2.29,2.6127,3.0132.7088.4597,1.9282.154,2.9187.1542,16.0616.0046,32.1233.0033,48.1849.0005Zm46.7212-63.0962c1.1827,0,2.3657.0171,3.548-.0037,2.1404-.0377,3.7051-1.2662,3.346-3.241-.2279-1.2531-1.8305-2.7624-3.1319-3.1845-1.591-.516-3.5124.0455-5.2904.0376-12.4733-.0554-24.9465-.1883-37.4198-.1953-10.4879-.0059-20.9759.1786-31.4638.1784-8.7025-.0002-17.405-.1618-26.1077-.2178-2.2417-.0144-4.0397.8687-4.0529,3.354-.0134,2.5091,1.7578,3.3123,4.0348,3.3063,6.2301-.0162,12.4603-.0152,18.6904-.0173,18.6223-.0062,37.2446-.0111,55.8669-.0154,7.3266-.0017,14.6533-.0003,21.9804-.0012Zm-76.9004-20.9773c6.3456,0,12.6915-.0302,19.0369.0157,2.3543.017,4.3317-.5714,4.3589-3.2669.0272-2.6864-1.9184-3.3681-4.2847-3.3645-12.7904.0194-25.5809.0241-38.3713-.007-2.3712-.0058-4.3485.6806-4.3767,3.3018-.0284,2.6343,1.9194,3.3535,4.3101,3.3356,6.4419-.0482,12.8845-.0165,19.3268-.0146Zm.0549-27.5697c-6.4427,0-12.8856.0299-19.3279-.0157-2.3585-.0167-4.3582.6099-4.3678,3.2692-.0095,2.6422,1.9868,3.3534,4.3356,3.351,12.7862-.0129,25.5724-.0114,38.3586-.0029,2.3221.0015,4.333-.6137,4.3476-3.3178.0147-2.7198-1.9684-3.3113-4.3155-3.2982-6.3433.0354-12.687.0121-19.0306.0144Zm-.1685-14.4915c6.4387,0,12.8775-.0228,19.3159.0125,2.2347.0122,4.1051-.579,4.1959-3.1112.0975-2.7204-1.813-3.4303-4.1814-3.4275-12.7783.015-25.5565-.0046-38.3347.0265-3.1108.0076-4.7874,1.2543-4.556,3.3891.2924,2.6972,2.2431,3.136,4.5415,3.1206,6.3393-.0425,12.6791-.0147,19.0187-.0099Z"/><path class="cls-3" d="m34.5301,214.5208C20.7429,205.5048,12.5671,205.5207,0,214.7278c0-1.3543-.0002-2.3582,0-3.3622.0036-14.7818.0096-29.5637.0105-44.3455.0018-30.3481-.0318-60.6963.0164-91.0444.0204-12.8257,12.5551-21.3051,24.0672-16.205,7.0459,3.1214,10.4434,8.8134,10.4393,16.5537-.0154,29.0853-.0042,58.1706-.0034,87.256.0005,16.8546,0,33.7093,0,50.9405Z"/><path class="cls-3" d="m165.8214,253.8707c.0382,4.3529-2.6796,7.4767-6.6974,8.0162-.7818.105-1.584.0778-2.3768.0778-41.568.002-83.1359.027-124.7038-.014-16.9268-.0167-30.4251-13.3894-30.2796-29.838.084-9.5048,7.4767-17.0793,16.8763-17.2914,9.4875-.2141,17.1051,6.9083,17.6158,16.4707.7634,14.2934,9.446,22.5719,23.7238,22.5758,34.0282.0093,68.0564.003,102.0845.0029,1.2551,0,2.5103,0,3.7573,0Z"/><g class="cls-2"><g><g><path class="cls-3" d="m147.6763,117.3781c-.3249,4.4809-.0218,8.9268.5744,13.3579.1586,1.1781.3019,2.4278,1.8726,2.379,1.1266-.0351,1.5764-1.0981,1.3727-2.8506-1.2523-10.7723-.8993-21.4711,1.8922-31.9748,2.7146-10.2139,11.8514-17.5261,22.1845-18.3399,14.4435-1.1373,27.4939,10.7648,26.9691,26.7904-.0832,2.5419-.8611,4.9821-1.2211,7.4848-.1876,1.3039-.2738,2.6333-.325,3.9494-.0478,1.2297-.0698,2.4987.0995,3.72.1353.9759.6381,1.7807,1.6987,1.7125.7674-.0494,1.2858-.5255,1.4187-1.2971.0718-.4166.0302-.8347.01-1.2536-.0278-.5742-.0334-1.1494-.0207-1.7241.0521-2.3715.4165-4.7194.7841-7.057.207-1.316.4155-2.6323.571-3.9559.8353-7.112-.9899-13.5828-4.9608-19.3657-7.2264-10.5242-19.9256-14.9946-31.8432-10.9319-10.7816,3.6754-17.1617,11.5555-19.3647,22.96-1.0459,5.4146-1.8546,10.8594-1.7121,16.397v-.0004Z"/><path class="cls-3" d="m135.7575,101.4337c-.0304.9675.171,1.8139,1.2899,1.9279,1.1276.115,1.686-.5982,1.8697-1.6355.5765-3.2564,1.1628-6.5238,2.3644-9.6022,5.881-15.0659,16.6768-23.8664,32.4305-25.6758,12.1308-1.3933,22.6246,2.7699,31.2154,11.5765,5.3688,5.5037,8.7885,12.1962,10.2043,19.8996.1882,1.0242.3349,2.9386,1.6201,3.1574.5029.0856,1.1038-.0891,1.4616-.4688.3572-.3791.4404-.9268.4131-1.4332-.0495-.9211-.2874-1.8649-.4802-2.7643-.1833-.8547-.3924-1.7035-.6269-2.5448-.4685-1.6802-1.0387-3.3306-1.7062-4.9385-1.3119-3.16-2.999-6.1547-5.0109-8.9011-1.9894-2.7156-4.295-5.1874-6.8535-7.3463-2.5806-2.1776-5.4175-4.0357-8.4331-5.517-3.0696-1.5078-6.3218-2.6226-9.6605-3.3097-.4227-.087-.8468-.1672-1.272-.2405-12.932-2.2305-24.4264,1.1256-34.4336,9.7827-8.2983,7.1788-12.6299,16.5637-14.3297,27.3739-.0341.2172-.0424.4387-.0624.6596h.0001Z"/><path class="cls-3" d="m167.6577,117.7259c-.1246,6.4431.5467,12.9011,2.1109,19.1451,1.5347,6.1263,3.9217,12.009,7.0146,17.4797.89,1.574,1.8371,3.1141,2.8355,4.6183.7591,1.1438,1.9505,3.5427,3.6033,2.3934,1.2749-.8866.6569-2.023-.0341-3.0204-3.9188-5.6558-7.0233-11.7345-9.109-18.3462-3.7103-11.7609-4.2073-23.6749-1.5081-35.7177.4366-1.9479,2.0121-3.4761,3.9242-3.8539,1.961-.3875,3.928.5583,5.0548,2.212.7665,1.125,1.1024,2.4852.8063,3.8375-1.5957,7.2891-1.8995,14.6207-.6869,21.999.071.4324.092.8964.2679,1.2828.2901.6369.7653,1.2222,1.5104,1.2058.71-.0156,1.3589-.4457,1.5059-1.1785.0835-.4161.0076-.851-.0345-1.2675-.0547-.5414-.1172-1.0818-.1806-1.6222-.1293-1.1019-.2632-2.2037-.3456-3.3106-.3783-5.0784-.2124-10.1256.9185-15.1169,1.4961-6.603-2.8441-12.0422-8.9829-11.2977-2.604.3158-4.9416,2.0024-6.2019,4.3437-.7436,1.3817-.9826,2.9371-1.2765,4.4664-.3492,1.817-.6499,3.6446-.8626,5.4836-.2404,2.0782-.3674,4.1716-.3295,6.2644h0Z"/><path class="cls-3" d="m178.1381,56.1491c-1.2187-.1067-2.4501-.0294-3.6677.0604-.6122.0452-1.2262.0878-1.8372.1487-.3988.0398-.817.1104-1.1695.3175-.7173.4216-.8067,1.4256-.4563,2.1356.3806.7713,1.2968.8267,2.0406.7629,11.3839-.976,21.845,1.7111,31.031,8.7202,11.203,8.5481,17.2871,20.0546,18.3728,34.3682.3554,4.685-.309,9.221-1.1554,13.7775-.4089,2.2013-.3727,4.4769.1965,6.6439.2742,1.0441.6654,2.0541,1.1517,3.0132.2592.5112.5453,1.008.8538,1.4896.2997.4677.6077.9818.9829,1.3903.6821.7423,1.5771,1.2751,2.476.5437.8735-.7107.7186-1.7061.0849-2.5267-1.4937-1.9344-2.5121-4.2328-2.7215-6.7056-.108-1.2754.0129-2.5336.2507-3.7867.281-1.481.5333-2.968.7339-4.4626.7482-5.5763.6364-11.2389-.5219-16.7469-.6472-3.0773-1.6044-6.083-2.8305-8.9686-5.4533-12.8331-14.5592-21.8903-27.3449-27.0078-4.45-1.7811-10.5506-3.0289-16.4699-3.1667h0Z"/><path class="cls-3" d="m127.6166,116.5666c-.1038,2.3991-.1424,4.8021-.0725,7.2026.034,1.1682.0937,2.3354.1835,3.5004.0776,1.0067.1197,2.0528.3279,3.0423.1851.8794.6994,1.4348,1.6126,1.4514,1.1023.0201,1.7896-1.1218,1.5385-2.7821-.6298-4.1648-.5293-8.3712-.4371-12.5376.1512-6.8295,1.0133-13.6007,2.4555-20.3031,1.6834-7.8231,5.0145-14.7544,10.0866-20.8144,2.427-2.8997,5.2094-5.4819,8.2742-7.659,3.0461-2.1638,6.3571-3.921,9.8134-5.2879,1.0171-.4022,2.0603-.7209,3.0818-1.1063.8497-.3207,1.4856-.9672,1.2417-1.9533-.4327-1.7492-2.2839-1.0575-3.4754-.6974-1.7419.5267-3.4337,1.2195-5.067,2.0319-3.6028,1.7921-7.0381,3.949-10.1726,6.5067-2.9751,2.4278-5.6688,5.2143-7.9826,8.3076-2.3249,3.1082-4.2577,6.5138-5.7866,10.1004-1.7144,4.0217-2.8646,8.2323-3.7315,12.5216-1.0923,5.4047-1.7721,10.9056-1.8779,16.4257-.0131.6834-.0175,1.3669-.0127,2.0504h.0001Z"/><path class="cls-3" d="m178.0319,83.3373c-1.2601.0446-3.2704.0188-3.2207,1.8148.0398,1.4358,1.147,1.5312,2.2272,1.5285,10.0892-.0261,17.459,7.3662,18.6495,16.4815.303,2.3195.0864,4.6071-.396,6.8949-2.6686,12.6525-.0658,24.1677,7.2341,34.6217,1.4699,2.105,3.112,4.0813,5.0276,5.7991.4716.4228,1.0891.8798,1.7545.7707.649-.1065,1.2615-.7711,1.3639-1.4289.1116-.7169-.3633-1.3362-.8334-1.8039-.5473-.5444-1.0874-1.0954-1.6121-1.6628-2.0595-2.2275-3.9085-4.6644-5.4146-7.3194-3.0668-5.4063-4.9226-11.5844-5.2178-17.8367-.1688-3.5775.1671-7.1686.9172-10.6656,2.6567-12.3873-4.6935-23.9909-16.7905-26.6358-1.2591-.2753-2.552-.3897-3.6888-.5582h-.0001Z"/><path class="cls-3" d="m154.2002,116.2265c-.185,15.8359,2.945,29.8579,9.899,42.9311.2507.4714.5534.9903,1.0209,1.2665.5201.3073,1.1209.1649,1.6117-.1385,1.0403-.6428.7295-1.7792.2499-2.6967-3.0163-5.7705-5.3974-11.8696-6.9869-18.2129-1.6125-6.4357-2.518-13.0609-2.5546-19.7103-.0209-3.7853.2377-7.5719.7736-11.3179.3204-2.24.7249-4.4544,1.1858-6.6648,1.067-5.117,3.7637-9.0729,8.0241-11.9337,1.0694-.718,2.9161-1.5695,1.9272-3.1527-.3241-.5188-.8185-.8476-1.4329-.7723-.6276.0769-1.1806.4755-1.7044.807-1.2696.8039-2.4949,1.6934-3.5783,2.7492-2.4837,2.4207-4.41,5.3874-5.5932,8.6838-.6607,1.8408-1.066,3.7635-1.4159,5.6876-.3665,2.016-.6418,4.0485-.8628,6.086-.2305,2.1254-.3995,4.2568-.5631,6.3883h.0002Z"/><path class="cls-3" d="m179.147,49.2188c-8.533-.0883-16.2953,1.4539-23.7173,4.7552-.8014.3565-1.9039.9059-1.8484,1.9676.0478.9139.812,1.6879,1.7166,1.5645.4992-.0681.9532-.348,1.4051-.5576.5262-.244,1.057-.4781,1.5918-.7015,1.0853-.4534,2.188-.8632,3.3051-1.2263,1.269-.4123,2.5566-.7641,3.8579-1.0512,17.3757-3.8345,32.8587.0681,46.3645,11.9515,2.9142,2.5641,5.4313,5.493,7.6788,8.6728.5436.7691,1.2602,1.7893,2.3126,1.2803.4688-.2267.9278-.6395,1.0267-1.1829.084-.4615-.0991-.9265-.3151-1.3221-.5516-1.0104-1.3264-1.9319-2.0267-2.8366-.735-.9493-1.4982-1.8758-2.2896-2.7763-3.1258-3.5565-6.6929-6.6988-10.6076-9.3129-2.2473-1.5007-4.6043-2.8274-7.0406-3.9781-6.925-3.2707-14.249-4.9189-21.4139-5.2462v-.0002Z"/><path class="cls-3" d="m140.8583,117.3302c-.1674,11.5107,1.4753,22.7277,5.1401,33.6223.4064,1.2082.9692,2.2673,2.3942,1.7351,1.3387-.4999,1.1325-1.6957.7539-2.8058-2.457-7.203-4.0563-14.7084-4.7007-22.313-.6401-7.5541-.3493-15.2355.686-22.7431.5836-4.2329,1.5386-8.4309,3.1837-12.3728.7661-1.8355,1.751-3.5674,2.8521-5.2124.4454-.6655,1.0912-1.3657,1.222-2.1904.1288-.8114-.537-1.5271-1.2738-1.7195-.872-.2279-1.5567.5373-2.0187,1.1879-3.4578,4.869-5.4656,10.3386-6.4888,16.2329-.9525,5.4872-1.6327,10.9996-1.7501,16.5786l.0002.0002Z"/><path class="cls-3" d="m218.7977,141.6633c.9468.0022,1.8323-.8126,1.5387-1.8463-.1457-.513-.5907-.9101-.9382-1.2871-.4092-.4439-.834-.8724-1.2465-1.3128-2.8371-3.0286-5.0709-6.6471-6.2275-10.6917-1.1486-4.0167-1.192-8.27-.465-12.3728.3812-2.1512.727-4.2899.856-6.4754.1202-2.036.0901-4.0821-.1131-6.1112-.3941-3.9351-1.4542-7.7819-3.1436-11.3386-1.7769-3.7409-4.2146-7.1199-7.0388-10.1-.3865-.4077-.769-.8509-1.2033-1.2057-.4177-.3413-.8455-.7425-1.3626-.9172-.5697-.1926-1.0741.0517-1.458.4941-.3882.4474-.6117,1.0138-.3666,1.5901.2237.5259.6861.9163,1.0902,1.2941,5.2165,4.8759,8.5513,10.8578,9.9104,17.9413.9905,5.1625.27,10.2727-.5206,15.4244-1.5895,10.3566,1.6449,19.0951,9.1005,26.2235.4478.4282.9529.7152,1.5882.6917v-.0003Z"/><path class="cls-3" d="m177.5056,118.0732c-.0344-4.0798.6263-7.7143,1.2748-11.3477.095-.5324.198-1.1184.0524-1.651-.1563-.5722-.6289-.8729-1.1772-.9782-1.3341-.256-1.8017.91-2.036,2.0281-2.8273,13.4958-1.372,26.519,4.1045,39.0888,2.1144,4.8527,4.7606,9.381,8.0225,13.5227.2363.3.4602.6118.7145.8949.6407.7132,1.3978,1.1326,2.2713.4825.5127-.3815.8097-.9634.6863-1.6157-.1393-.7365-.7088-1.3702-1.125-1.961-.9743-1.3833-1.9946-2.7331-2.9251-4.1485-5.747-8.7423-8.9221-18.4025-9.7129-28.9002-.0744-.9883-.1742-1.9765-.1993-2.9666-.0238-.9359.0351-1.8741.0488-2.448h.0003Z"/><path class="cls-3" d="m122.4586,102.3368c-.0232.9667-.117,1.9612-.0505,2.9268.0498.723.3385,1.4306,1.0729,1.6448,2.1227.6192,2.1654-2.3477,2.2364-3.7129.8753-16.8477,8.0528-30.245,21.1289-40.4151.9836-.765,3.3948-2.0192,2.1386-3.5562-.4707-.576-1.1381-.807-1.8345-.5299-.3861.1536-.7287.4222-1.0708.6566-.382.2618-.7604.5289-1.1351.8015-1.4479,1.0537-2.8388,2.19-4.1561,3.4105-9.6974,8.986-15.5853,20.1212-17.7648,33.2993-.3128,1.8917-.6204,3.8079-.5652,5.4747h.0001Z"/><path class="cls-3" d="m160.9794,115.1769c-.0327,1.3586-.3413,3.6701,1.6045,3.6711,1.1223.0005,1.5719-.8317,1.6111-1.8901.0834-2.2588.2104-4.5101.5101-6.7546.2362-1.7695.4669-3.5415.8048-5.2945.2778-1.4415.612-2.8714,1.2033-4.2158.9847-2.2388,2.5814-4.1906,4.6414-5.4659,3.9656-2.455,9.5128-2.1229,13.197.7434,2.1167,1.6468,3.5103,4.0545,4.2593,6.6398.1368.4719.296.9495.528,1.3769.3258.6002.8795.7602,1.5282.6357.6633-.1272,1.0477-.5328,1.1636-1.2009.1155-.6663-.0033-1.3162-.1651-1.9616-1.6322-6.5057-7.6808-11.1738-14.5288-11.2106-6.5183-.0352-12.712,4.7082-14.3136,11.0521-1.1482,4.5479-1.6893,9.1996-2.0435,13.875h-.0003Z"/><path class="cls-3" d="m187.6654,118.2156c-.1233,13.6306,4.3211,25.4456,13.4658,35.3754.8557.9291,1.8359,2.3317,3.2048.9768,1.3892-1.375-.0238-2.3582-.8706-3.2921-9.9147-10.9348-13.8703-23.8339-12.1136-38.6137.1432-1.2048.1067-2.3305-1.3292-2.5218-1.3319-.1773-1.6736.8115-1.8636,1.9686-.332,2.0213-.4145,4.0532-.4936,6.1066v.0002Z"/><path class="cls-3" d="m232.3964,107.8387c.2166-9.4473-1.3631-17.5302-4.7447-25.2401-.4751-1.083-1.1558-2.8782-2.6398-2.1951-.8959.4123-1.118,1.2811-.7925,2.1835.4289,1.1888.969,2.3401,1.4139,3.5244.8838,2.353,1.6478,4.7557,2.222,7.2086.3303,1.4107.5975,2.8372.7905,4.2746.925,6.8891.667,13.7264-.905,20.5089-.2858,1.2331-.9522,2.6994.8282,3.3711,1.1263.4249,1.8198-.3819,2.3399-2.6918.8842-3.9273,1.4927-7.8952,1.4875-10.9442h0Z"/><path class="cls-3" d="m178.6551,69.7243c-8.3126-.0041-15.3078,2.1623-21.5549,6.7302-.9671.7071-2.3863,1.5134-1.4138,3.0113,1.0295,1.5859,2.1519.3677,3.1499-.3196,10.0318-6.9082,20.6142-8.0089,31.7603-3.2072.5356.2308,1.1325.5209,1.7301.4581.5647-.0592.9429-.4757,1.151-.9929.3578-.8892-.0763-1.6002-.8416-2.0381-.9753-.5582-2.0416-.9948-3.0852-1.3991-2.1725-.8416-4.4365-1.4293-6.7363-1.764-1.5931-.2319-3.1877-.5524-4.1595-.4787Z"/><path class="cls-3" d="m161.2174,126.2026c.6251,7.3156,2.2421,14.3117,4.8272,21.0734,1.6514,4.3193,3.6502,8.4615,6.0474,12.3988.6802,1.1171,1.7133,2.8323,3.1975,1.8357.8837-.5933.8452-1.4585.3633-2.3302-1.1917-2.1556-2.4535-4.2733-3.5724-6.4679-4.0003-7.8465-6.4351-16.1931-7.443-24.9826-.0866-.7555-.1277-1.5773-.3819-2.2976-.1682-.4764-.4962-.8873-.9932-1.0101-1.1409-.2822-2.1147.6258-2.0452,1.7805h.0001Z"/><path class="cls-3" d="m134.1371,116.4142c-.0165,9.1089.5853,17.5971,2.5386,25.942.0626.2675.1154.5385.1956.8005.3147,1.0276.9132,1.9774,2.1042,1.6393,1.1301-.321,1.3305-1.4236,1.0923-2.4671-1.1763-5.1518-2.0763-10.3498-2.3741-15.6393-.2816-4.9977-.5641-9.9994.0592-14.9956.1175-.9419.0143-2.17-.9086-2.6768-.72-.3954-1.6793.0054-2.0332.7262-.2215.451-.2246.9697-.2665,1.4614-.0511.6-.0996,1.2003-.1469,1.8006-.0893,1.136-.1721,2.2724-.2606,3.4084v.0004Z"/><path class="cls-3" d="m214.2708,119.8463c.1279,5.264,2.2266,10.864,6.766,15.4194.7745.7772,1.771,1.3594,2.6911.4496.385-.3808.6544-.8875.5196-1.4445-.1296-.5354-.5335-.9743-.902-1.3548-5.0679-5.237-6.7093-11.4553-5.1381-18.6348.3867-1.7673.6113-3.5769.8173-5.3782.1302-1.1385-.2159-2.2203-1.5087-2.2921-1.2958-.0721-1.7139.9652-1.7486,2.114-.1024,3.3755-1.464,6.5522-1.4967,11.1216h.0002Z"/><path class="cls-3" d="m184.1999,138.1043c.5105,1.9203,1.3082,3.8405,2.2216,5.7113,2.3648,4.8436,5.173,9.3788,8.8171,13.3397.8282.9003,1.684,1.5102,2.7345.4693.9793-.9705.4559-1.8737-.299-2.7247-4.4196-4.9817-7.7979-10.6194-10.1233-16.918-.2027-.5488-.4-1.152-.8832-1.5124-.4174-.3112-.9378-.3187-1.41-.1381-.7295.2788-1.1078.8371-1.0575,1.7731h-.0001Z"/><path class="cls-3" d="m202.9947,131.0699c.56,1.7896,1.2803,3.6889,2.282,5.4487,1.9844,3.4863,4.322,6.6924,7.2983,9.3822.3836.3467.8141.7131,1.3216.8434.5482.1409,1.0407-.0998,1.4283-.4924.3808-.3857.6449-.8913.4857-1.4463-.1469-.5115-.55-.9199-.9194-1.2742-3.5857-3.4389-6.5633-7.5417-8.3747-12.2406-.2107-.5467-.361-1.1552-.7595-1.5979-.3812-.4236-.9146-.5648-1.4606-.4576-.8357.1642-1.264.7782-1.3015,1.8346v.0002Z"/><path class="cls-3" d="m150.0034,140.6145c.3958,1.5168.8039,3.3958,1.3798,5.219,1.0562,3.3434,2.1843,6.6644,3.615,9.8662.1114.2494.1848.5192.3147.7572.5248.9622,1.3325,1.7402,2.4434,1.1528,1.0129-.5356.9659-1.5908.5625-2.5382-1.154-2.7103-2.2196-5.4415-3.1298-8.2493-.5163-1.5926-.9944-3.1978-1.4441-4.8114-.2199-.7888-.3589-1.6108-.6693-2.3703-.2219-.5425-.6292-.9752-1.214-1.0718-.4853-.0802-1.0769.0406-1.4085.4373-.359.4294-.4127,1.07-.4496,1.6087h0Z"/></g><path class="cls-4" d="m188.3562,244.3416h0s-11.7147-.2816-18.152-.4362h0c-4.9987-.1201-8.9875-4.4058-8.8645-9.5237l.3421-14.2344.0515-2.1385c.3727-15.5052,5.7929-34.3886,31.9788-44.5834l15.6011-6.0732c23.4317-11.1294,39.8668-31.7768,40.6259-63.3619.3762-15.6571-4.9256-31.7307-14.0642-44.8903-12.5056-17.1626-32.3161-28.4725-54.8569-29.0143-18.2616-.4388-34.7889,6.6129-47.8787,17.6268-5.8648,4.9348-10.122,2.271-11.9125,1.0635s-3.6509-6.0335,1.9879-10.7626c15.9824-13.4039,35.869-22.4616,58.1397-21.9263,39.3437.9455,76.8442,32.3438,85.7077,70.2659,2.2114,7.0775.4529,9.3584.5583,13.0697.1529.9293.2938,1.8601.4223,2.7937,1.2934,4.8739,3.9614,10.2721,18.8173,28.3968,8.2353,11.249-9.1013,9.8964-12.2567,18.3649-1.2678,3.4033,2.1584,6.6234,2.3267,10.0658-.9689,4.4221-3.9476,3.7267-6.0833,4.864,9.9484,6.0909-2.7359,10.0644-2.2383,18.2678.2602,4.2887,6.2404,9.1027-2.1801,15.3648-7.399,5.5024-49.6806-.4516-50.4328,30.8469l-.1755,7.3032c-.123,5.1179-4.3131,9.2069-9.3118,9.0868h0"/></g></g></svg>