<?xml version="1.0" encoding="UTF-8"?><svg id="Layer_1" xmlns="http://www.w3.org/2000/svg" viewBox="0 0 262.9579 297.4529"><defs><style>.cls-1{fill:#fff;}</style></defs><path class="cls-1" d="m204.8472,220.511c-.245,23.4836,4.8308,17.9385-15.8982,28.2678-51.3765,25.6012-113.5975,14.3731-152.5629-27.8514C.361,181.8893-9.0796,135.9221,8.8062,86.336,26.6145,36.9645,63.6022,8.3372,115.5814,1.1888c77.0117-10.591,146.8029,50.9913,147.1043,128.6741.0042,1.09.0005,2.18.0005,3.3443-5.1951-.8344-10.034-1.6116-15.421-2.4769-.9654-33.6214-13.2973-62.5316-38.4807-85.4324-18.2419-16.5885-39.8458-26.2346-64.3328-28.9391-49.9519-5.5171-97.1408,21.4093-118.0571,67.068-20.3505,44.4236-9.996,97.7522,25.689,131.3821,21.0798,19.8658,46.2314,30.5421,75.1636,31.6724,28.6613,1.1198,54.2691-7.7624,77.5999-25.9703Z"/><path class="cls-1" d="m92.5382,42.8069c1.2006.4996,3.1217,1.1404,4.8953,2.0642,8.2093,4.276,16.4445,8.5107,24.5315,13.0097,3.7982,2.113,7.1141,2.2101,10.9185-.0328,7.3335-4.3234,14.8598-8.3207,22.3216-12.4252,8.3142-4.5734,11.9129-2.8897,14.0579,6.5238,2.5906,11.3697,5.3015,22.7136,7.735,34.1167,1.1891,5.5717,4.0232,9.7748,8.5724,13.1187,8.804,6.4713,17.5318,13.0501,26.1561,19.7579,1.2217.9502,1.6861,2.874,2.5011,4.3472-1.6284.417-3.3292,1.3755-4.8742,1.1689-19.4537-2.6013-38.8569-5.5933-58.3288-8.0423-25.6281-3.2234-51.0109-.2974-76.3251,3.7356-10.2374,1.631-20.5174,3.0122-30.8039,4.3003-1.5559.1948-3.2533-.7405-4.8852-1.1531.7979-1.4709,1.2408-3.3983,2.4508-4.3394,8.3321-6.4804,16.7336-12.8809,25.2989-19.0486,5.2373-3.7713,8.4336-8.4784,9.7471-14.8717,2.4208-11.7829,5.3263-23.4656,7.9615-35.2054.898-4.0005,2.7249-6.8654,8.0695-7.0245Z"/><path class="cls-1" d="m214.8677,195.465c0-13.8899-.0573-27.7801.0209-41.6695.049-8.6956,3.9547-12.5641,12.5597-12.6251,7.7833-.0552,15.568-.0879,23.3505.0018,7.8796.0908,12.0463,4.1339,12.0692,12.0305.082,28.3171.0771,56.6347.0028,84.9519-.0199,7.5727-4.1657,11.6348-11.7395,11.7354-7.9675.1059-15.9379.0733-23.9064.0111-8.4066-.0656-12.2989-3.8317-12.3592-12.2133-.1013-14.0732-.0277-28.1478-.0277-42.2218.0099-.0003.0199-.0007.0298-.0011Z"/><path class="cls-1" d="m55.4175,168.63c4.2726.7666,8.5521,1.4971,12.8165,2.3066,13.6396,2.5894,27.2355,5.4409,40.9309,7.6875,4.7061.772,6.4063,3.5181,7.958,7.2852,2.5683,6.2354,5.4172,12.3552,8.8868,20.1931,2.2801-3.9105,3.8581-6.2303,5.0454-8.7353,2.2984-4.8491,4.1539-9.921,6.6668-14.6487.8836-1.6623,3.0006-3.3662,4.8173-3.7269,17.0807-3.3915,34.2121-6.5315,51.3515-9.6178,1.4136-.2545,2.9941.4176,4.4971.6592-.5789,1.4351-.8008,3.2096-1.7924,4.2523-9.1603,9.6328-18.4109,19.1811-27.7292,28.6616-3.7008,3.7651-3.6112,5.1382,1.048,7.9218,3.9609,2.3664,7.977,4.6512,11.8169,7.2007.8521.5658,1.6706,2.2794,1.4073,3.1213-.2664.8516-1.8348,1.4486-2.9451,1.8332-.8281.2868-1.8349.0584-2.7621.0586-33.9353.0048-67.8706.0378-101.8056-.0571-2.0055-.0056-4.0082-1.0399-6.0122-1.5954,1.3816-1.6675,2.507-3.6798,4.1953-4.9346,4.2362-3.1484,8.7271-5.954,13.2241-8.9697-9.9834-13.9059-23.7043-23.4956-33.0204-36.8328.4683-.6876.9365-1.3752,1.4048-2.0628Z"/><path class="cls-1" d="m96.9449,123.7129c7.0013,2.5587,13.8345,5.95,21.0579,7.408,5.6038,1.1311,12.4379,1.5039,17.4073-.7247,8.988-4.0307,17.9094-5.9607,27.4559-4.8377,11.6583,1.3715,20.7047,12.7415,19.6274,24.4515-.2248,2.4437-1.3753,5.0508-2.7993,7.0949-8.8088,12.6452-27.0063,14.2779-37.6008,3.2354-3.554-3.7043-6.4049-8.1234-9.315-12.3945-3.534-5.1866-9.2981-5.1171-13.019-.0478-3.919,5.3391-7.8739,10.7877-12.6098,15.3639-10.8098,10.445-31.3771,1.6243-36.0661-8.9684-4.9075-11.0863,5.2919-26.9014,18.6424-28.7686,2.1911-.3065,4.4318-.2587,6.6496-.3746.1899-.4791.3797-.9582.5696-1.4372Z"/><path class="cls-1" d="m238.641,268.6236c4.6263,0,9.2645-.2097,13.876.052,6.0511.3433,9.8649,4.2558,10.3198,10.2753.1808,2.3926.1329,4.8138.0265,7.2147-.2932,6.6136-4.1042,10.8327-10.7485,11.0598-8.873.3033-17.7715.3017-26.6449.0049-6.3835-.2135-10.1857-4.3223-10.5602-10.6402-.1529-2.5807-.1497-5.1905.0426-7.7677.4529-6.0676,4.2077-9.8276,10.3667-10.154,4.429-.2347,8.8804-.0457,13.3219-.0447Z"/></svg>