<?xml version="1.0" encoding="utf-8"?>
<!-- Generator: Adobe Illustrator 27.2.0, SVG Export Plug-In . SVG Version: 6.00 Build 0)  -->
<svg version="1.1" id="Layer_1" xmlns="http://www.w3.org/2000/svg" xmlns:xlink="http://www.w3.org/1999/xlink" x="0px" y="0px"
	 viewBox="0 0 299.8 262" style="enable-background:new 0 0 299.8 262;" xml:space="preserve">
<style type="text/css">
	.st0{fill:#FFFFFF;}
</style>
<path class="st0" d="M58.3,75.7h3.9c41.8,0,83.6,0,125.4,0c7.3,0,10.1,2.8,10.1,10c0,21.3,0,42.7,0,64c0,27.9,0,55.8,0,83.7
	c0,7.3-2.9,10.2-10,10.2c-37.6,0-75.2,0-112.9,0c-10.4,0-16.4-6-16.4-16.4c0-18.5,0-36.9,0-55.4c0-31.1,0-62.1,0-93.2L58.3,75.7
	L58.3,75.7z M157,142.1c6.5,0,13.1,0,19.6,0c4,0,5-1,5-4.8c0-13.1,0-26.2,0-39.3c0-3.7-1.1-4.8-4.8-4.8c-13.1,0-26.2,0-39.3,0
	c-3.7,0-4.9,1.1-4.9,4.8c0,13.2,0,26.4,0,39.6c0,3.5,1.1,4.6,4.7,4.6C144,142.1,150.5,142.1,157,142.1L157,142.1L157,142.1z
	 M127.4,198.4c-15.9,0-31.8,0-47.6,0c-1,0-2.2-0.3-2.9,0.1c-1.2,0.8-2.8,2-2.8,3.1c0,1.1,1.6,2.4,2.7,3.3c0.5,0.4,1.5,0.1,2.3,0.1
	c32.4,0,64.7,0,97.1,0c0.9,0,2.1,0.3,2.6-0.2c1.1-0.9,2.5-2.2,2.6-3.4c0-1-1.6-2.2-2.7-2.9c-0.6-0.4-1.7-0.1-2.6-0.1
	C159.8,198.4,143.6,198.4,127.4,198.4L127.4,198.4L127.4,198.4z M127.7,184c16,0,32,0,47.9,0c0.9,0,2,0.3,2.6-0.1
	c1.2-0.9,2.8-2.1,3.1-3.3c0.3-1.8-1.2-3-3.2-3.1c-0.8,0-1.6,0-2.4,0c-32,0-63.9,0-95.9,0c-0.8,0-1.6,0-2.4,0c-2.1,0-3.6,0.9-3.7,3
	c-0.1,2.3,1.4,3.4,3.5,3.5c0.8,0.1,1.6,0,2.4,0C95.8,184,111.7,184,127.7,184z M127.7,226c6.8,0,13.7,0,20.5,0c9.7,0,19.4,0,29.1,0
	c2.3,0,4-0.9,4-3.3c0-2.4-1.8-3.4-4-3.4c-0.5,0-1,0-1.5,0c-32.2,0-64.4,0-96.7,0c-1,0-2.2-0.2-2.9,0.2c-1.1,0.8-2.4,2.2-2.3,3.2
	c0,1.1,1.5,2.3,2.6,3c0.7,0.5,1.9,0.2,2.9,0.2C95.6,226,111.6,226,127.7,226L127.7,226L127.7,226z M174.4,162.9c1.2,0,2.4,0,3.5,0
	c2.1,0,3.7-1.3,3.3-3.2c-0.2-1.3-1.8-2.8-3.1-3.2c-1.6-0.5-3.5,0-5.3,0c-12.5-0.1-24.9-0.2-37.4-0.2c-10.5,0-21,0.2-31.5,0.2
	c-8.7,0-17.4-0.2-26.1-0.2c-2.2,0-4,0.9-4.1,3.4c0,2.5,1.8,3.3,4,3.3c6.2,0,12.5,0,18.7,0c18.6,0,37.2,0,55.9,0
	C159.8,162.9,167.1,162.9,174.4,162.9L174.4,162.9L174.4,162.9z M97.5,141.9c6.3,0,12.7,0,19,0c2.4,0,4.3-0.6,4.4-3.3
	c0-2.7-1.9-3.4-4.3-3.4c-12.8,0-25.6,0-38.4,0c-2.4,0-4.3,0.7-4.4,3.3c0,2.6,1.9,3.4,4.3,3.3C84.6,141.9,91.1,141.9,97.5,141.9
	L97.5,141.9L97.5,141.9z M97.6,114.3c-6.4,0-12.9,0-19.3,0c-2.4,0-4.4,0.6-4.4,3.3c0,2.6,2,3.4,4.3,3.4c12.8,0,25.6,0,38.4,0
	c2.3,0,4.3-0.6,4.3-3.3c0-2.7-2-3.3-4.3-3.3C110.3,114.4,103.9,114.3,97.6,114.3z M97.4,99.9c6.4,0,12.9,0,19.3,0
	c2.2,0,4.1-0.6,4.2-3.1c0.1-2.7-1.8-3.4-4.2-3.4c-12.8,0-25.6,0-38.3,0c-3.1,0-4.8,1.3-4.6,3.4c0.3,2.7,2.2,3.1,4.5,3.1
	C84.7,99.8,91.1,99.8,97.4,99.9L97.4,99.9L97.4,99.9z"/>
<path class="st0" d="M51.3,211.1c-13.8-9-22-9-34.5,0.2c0-1.4,0-2.4,0-3.4c0-14.8,0-29.6,0-44.3c0-30.3,0-60.7,0-91
	c0-12.8,12.6-21.3,24.1-16.2c7,3.1,10.4,8.8,10.4,16.6c0,29.1,0,58.2,0,87.3C51.3,177.1,51.3,193.9,51.3,211.1L51.3,211.1
	L51.3,211.1z"/>
<path class="st0" d="M182.5,250.5c0,4.4-2.7,7.5-6.7,8c-0.8,0.1-1.6,0.1-2.4,0.1c-41.6,0-83.1,0-124.7,0
	c-16.9,0-30.4-13.4-30.3-29.8c0.1-9.5,7.5-17.1,16.9-17.3c9.5-0.2,17.1,6.9,17.6,16.5c0.8,14.3,9.4,22.6,23.7,22.6
	c34,0,68.1,0,102.1,0H182.5L182.5,250.5L182.5,250.5z"/>
<polygon class="st0" points="240.2,18.4 253.5,45.2 283.1,49.5 261.7,70.4 266.7,99.9 240.2,86 213.8,99.9 218.8,70.4 197.4,49.5 
	227,45.2 "/>
<polygon class="st0" points="240.2,110.7 249.3,129.1 269.6,132 254.9,146.3 258.4,166.5 240.2,157 222.1,166.5 225.6,146.3 
	210.9,132 231.2,129.1 "/>
<polygon class="st0" points="162,3.4 171.1,21.7 191.4,24.7 176.7,39 180.2,59.1 162,49.6 143.9,59.1 147.4,39 132.7,24.7 153,21.7 
	"/>
</svg>
