<?xml version="1.0" encoding="UTF-8"?><svg id="Layer_1" xmlns="http://www.w3.org/2000/svg" xmlns:xlink="http://www.w3.org/1999/xlink" viewBox="0 0 295.95 218.4795"><defs><style>.cls-1{fill:none;}.cls-2{clip-path:url(#clippath);}.cls-3{fill:#fff;}</style><clipPath id="clippath"><path class="cls-1" d="m190.5167,152.5219c-19.855-6.4552-34.2068-25.1109-34.2068-47.1187,0-22.5327,15.0445-41.5515,35.6366-47.5596l-1.4287-34.8982L51.7186,11.3064,22.455,0,0,3.3254v215.1541s189.0581-.9976,188.7256-1.9952,1.7912-63.9623,1.7912-63.9623Z"/></clipPath></defs><path class="cls-3" d="m204.5957,14.3749c4.6376-.0198,3.0799-.0278,7.7167.0375,4.5351.0639,7.0033,1.9393,8.4223,6.3678,1.0089,3.1486,1.4664,6.5578,2.9614,9.4405,1.2403,2.3916,3.6344,4.1859,5.5255,6.2373.0801.0869.2549.0783.3643.1477,8.1431,5.1658,15.6914,4.1641,23.4097-1.3935,4.7577-3.4259,8.2183-2.5443,12.3864,1.5547,2.928,2.8795,5.8542,5.763,8.7044,8.7187,3.2845,3.406,3.6831,6.5597,1.5217,10.8333-.1793.3544-.3223.7429-.5684,1.0455-6.0657,7.4577-6.5465,15.3352-1.2821,23.2914,1.5643,2.3642,3.8654,4.5745,6.3388,5.9148,2.7237,1.476,6.052,1.8126,9.0857,2.7467,4.7118,1.4508,6.6548,4.0671,6.7201,9.0612.0572,4.3704.0733,8.7434-.0101,13.1131-.0852,4.4669-2.1456,7.1591-6.3458,8.5558-.5015.1667-1.0301.2497-1.5386.3976-15.5247,4.5148-11.5576,2.5131-17.3666,16.0882-.9459,2.2105-.4732,5.4462.3321,7.8815,1.021,3.0875,3.1062,5.8131,4.6347,8.7457,2.2096,4.2394,1.7666,7.4218-1.5282,10.8218-3.0419,3.139-6.1366,6.229-9.2738,9.2729-3.3254,3.2266-6.7933,3.7233-10.8672,1.6832-.4731-.2369-.92-.5257-1.3837-.7821-11.3253-6.2623-11.4018-6.4295-23.2853-1.0099-2.3334,1.0642-4.3312,3.7135-5.5712,6.1047-1.4948,2.8826-1.9568,6.2889-2.9726,9.4341-1.4344,4.4412-3.8782,6.2934-8.4274,6.359-4.6367.0668-1.0982.0158-5.736.015l-.5519-41.0528c27.4461-.4136,49.1488-22.7847,48.7359-50.237-.404-26.862-22.9931-48.7584-49.8613-48.3321l-.2897-41.0622Z"/><path class="cls-3" d="m238.2602,104.7266c0,18.1226-14.6913,32.8139-32.8139,32.8139s-32.8139-14.6913-32.8139-32.8139c0-18.1226,14.6913-32.8139,32.8139-32.8139,18.1226,0,32.8139,14.6913,32.8139,32.8139Zm-17.8854,7.5903c0-8.7682-7.4749-10.5868-13.4279-12.0709-4.0943-1.0177-7.4748-1.8092-7.4748-4.5702,0-2.3935,2.761-3.4818,5.5125-3.4818,3.1497,0,5.9012,1.5501,5.9012,4.8199h8.3441c0-6.7045-3.8305-11.1569-10.6693-12.2217v-3.7645h-6.7116v3.7457c-6.6739.9612-10.7776,4.9283-10.7776,11.2747,0,8.4431,7.1592,10.1486,13.0439,11.5715,4.2098,1.0036,7.7081,1.7998,7.7081,4.801,0,2.7421-3.1096,4.344-6.2828,4.344-3.397,0-6.5161-1.7386-6.5161-5.3664h-8.5067c0,7.1992,4.6291,11.906,11.793,12.985v4.0425h6.681v-4.0566c6.5467-1.0036,11.3831-5.0272,11.3831-12.0521Z"/><g class="cls-2"><path class="cls-3" d="m37.0354,164.408c-13.7872-9.016-21.963-9.0001-34.53.207,0-1.3543-.0002-2.3582,0-3.3622.0036-14.7818.0096-29.5637.0105-44.3455.0018-30.3481-.0318-60.6963.0164-91.0444.0204-12.8257,12.5551-21.3051,24.0672-16.205,7.0459,3.1214,10.4434,8.8134,10.4393,16.5537-.0154,29.0853-.0042,58.1706-.0034,87.256.0005,16.8546,0,33.7093,0,50.9405Z"/><path class="cls-3" d="m168.3267,203.7579c.0382,4.3529-2.6796,7.4767-6.6974,8.0162-.7818.105-1.584.0778-2.3768.0778-41.568.002-83.1359.027-124.7038-.014-16.9268-.0167-30.4251-13.3894-30.2796-29.838.084-9.5048,7.4767-17.0793,16.8763-17.2914,9.4875-.2141,17.1051,6.9083,17.6158,16.4707.7634,14.2934,9.446,22.5719,23.7238,22.5758,34.0282.0093,68.0564.003,102.0845.0029,1.2551,0,2.5103,0,3.7573,0Z"/><path class="cls-3" d="m44.0556,29.0013c1.5209,0,2.6869,0,3.853,0,41.7878-.0009,83.5755-.0036,125.3633-.001,7.2738.0004,10.0954,2.8075,10.0967,10.0465.004,21.3405-.0031,42.6811-.0026,64.0216.0007,27.8835.0083,55.767.0046,83.6504-.001,7.2534-2.8774,10.1685-10.0328,10.1696-37.6187.0058-75.2374.0107-112.8562.0002-10.4495-.0029-16.4335-6.0051-16.4365-16.448-.0053-18.462.0067-36.9241.008-55.3861.0023-31.0585.0018-62.117.0025-93.1754,0-.7895,0-1.5789,0-2.8776Zm98.7725,66.3322c6.5491,0,13.0982.0132,19.6472-.0049,4.014-.0111,5-.9506,5.0062-4.848.0208-13.0981.023-26.1963.0078-39.2944-.0042-3.6534-1.1403-4.8117-4.7983-4.819-13.0981-.0261-26.1963-.0245-39.2944-.0031-3.6917.0061-4.861,1.1478-4.8668,4.7606-.0212,13.1973-.0208,26.3947.0065,39.5921.0073,3.528,1.1004,4.5896,4.655,4.6051,6.5455.0285,13.0912.0081,19.6368.0116Zm-29.6401,56.2886c-15.8822,0-31.7644-.0011-47.6467.0025-.9921.0002-2.2154-.3215-2.9244.1364-1.1858.7658-2.8091,2.0281-2.8258,3.1036-.0171,1.0989,1.566,2.36,2.6753,3.2754.4843.3996,1.5333.1374,2.3258.1375,32.36.0036,64.7201.0035,97.0801-.0017.8912-.0001,2.0672.2836,2.6137-.1672,1.1028-.9096,2.5017-2.201,2.5635-3.3977.0496-.9589-1.5726-2.1926-2.6927-2.9493-.6227-.4207-1.7364-.1332-2.6288-.1334-16.18-.0038-32.36-.0028-48.5401-.006Zm.3018-14.3364c15.9788,0,31.9576.0008,47.9364-.0022.8927-.0002,2.0338.3098,2.6262-.1206,1.2252-.8901,2.8121-2.0586,3.0541-3.3387.3405-1.801-1.1699-3.0208-3.1593-3.1359-.7916-.0458-1.5873-.0267-2.3811-.0267-31.9576.0003-63.9152.0016-95.8728.0036-.7939,0-1.588.0174-2.3818.0115-2.0842-.0154-3.5558.9086-3.6784,3.0423-.1326,2.3087,1.3674,3.3631,3.5397,3.5333.7896.0619,1.5869.0336,2.3806.0336,15.9788.0015,31.9576.0011,47.9364-.0002Zm-.0014,41.9737c6.8411,0,13.6821.0003,20.5232,0,9.7163-.0005,19.4327-.0179,29.1489.0095,2.3282.0066,4.0424-.9102,4.044-3.3204.0016-2.4134-1.7515-3.367-4.0465-3.3524-.4957.0032-.9915-.0023-1.4872-.0023-32.2224-.0004-64.4449-.0022-96.6673.0064-.9857.0003-2.2465-.2495-2.8946.2482-1.0535.809-2.3817,2.1683-2.3368,3.2429.0445,1.0652,1.4975,2.29,2.6127,3.0132.7088.4597,1.9282.154,2.9187.1542,16.0616.0046,32.1233.0033,48.1849.0005Zm46.7212-63.0962c1.1827,0,2.3657.0171,3.548-.0037,2.1404-.0377,3.7051-1.2662,3.346-3.241-.2279-1.2531-1.8305-2.7624-3.1319-3.1845-1.591-.516-3.5124.0455-5.2904.0376-12.4733-.0554-24.9465-.1883-37.4198-.1953-10.4879-.0059-20.9759.1786-31.4638.1784-8.7025-.0002-17.405-.1618-26.1077-.2178-2.2417-.0144-4.0397.8687-4.0529,3.354-.0134,2.5091,1.7578,3.3123,4.0348,3.3063,6.2301-.0162,12.4603-.0152,18.6904-.0173,18.6223-.0062,37.2446-.0111,55.8669-.0154,7.3266-.0017,14.6533-.0003,21.9804-.0012Zm-76.9004-20.9773c6.3456,0,12.6915-.0302,19.0369.0157,2.3543.017,4.3317-.5714,4.3589-3.2669.0272-2.6864-1.9184-3.3681-4.2847-3.3645-12.7904.0194-25.5809.0241-38.3713-.007-2.3712-.0058-4.3485.6806-4.3767,3.3018-.0284,2.6343,1.9194,3.3535,4.3101,3.3356,6.4419-.0482,12.8845-.0165,19.3268-.0146Zm.0549-27.5697c-6.4427,0-12.8856.0299-19.3279-.0157-2.3585-.0167-4.3582.6099-4.3678,3.2692-.0095,2.6422,1.9868,3.3534,4.3356,3.351,12.7862-.0129,25.5724-.0114,38.3586-.0029,2.3221.0015,4.333-.6137,4.3476-3.3178.0147-2.7198-1.9684-3.3113-4.3155-3.2982-6.3433.0354-12.687.0121-19.0306.0144Zm-.1685-14.4915c6.4387,0,12.8775-.0228,19.3159.0125,2.2347.0122,4.1051-.579,4.1959-3.1112.0975-2.7204-1.813-3.4303-4.1814-3.4275-12.7783.015-25.5565-.0046-38.3347.0265-3.1108.0076-4.7874,1.2543-4.556,3.3891.2924,2.6972,2.2431,3.136,4.5415,3.1206,6.3393-.0425,12.6791-.0147,19.0187-.0099Z"/></g></svg>