<?xml version="1.0" encoding="UTF-8"?><svg id="Layer_1" xmlns="http://www.w3.org/2000/svg" xmlns:xlink="http://www.w3.org/1999/xlink" viewBox="0 0 293.9927 268.0175"><defs><style>.cls-1{fill:none;}.cls-2{clip-path:url(#clippath);}.cls-3{fill:#fff;}</style><clipPath id="clippath"><path class="cls-1" d="m110.8845,73.7332h63.0318c11.4028,0,15.9467,3.9905,15.9467,15.2969v163.9731s.5934,15.9968,2.4658,14.9666,66.0195-14.9666,66.0195-14.9666l25.3065-33.617s-8.3135-41.9002-10.3088-41.2351-10.9739,3.9905-24.608.3325,7.5516-84.4654,9.2627-84.1329,6.423.9973,9.027,1.3302,15.2969,4.2965,19.2874,10.2955,0-46.875,0-46.875l-21.9477-49.8812h-37.9097l-115.5732,64.513Z"/></clipPath></defs><path class="cls-3" d="m34.5301,220.5165C20.7429,211.5005,12.5671,211.5164,0,220.7235c0-1.3543-.0002-2.3582,0-3.3622.0036-14.7818.0096-29.5637.0105-44.3455.0018-30.3481-.0318-60.6963.0164-91.0444.0204-12.8257,12.5551-21.3051,24.0672-16.205,7.0459,3.1214,10.4434,8.8134,10.4393,16.5537-.0154,29.0853-.0042,58.1706-.0034,87.256.0005,16.8546,0,33.7093,0,50.9405Z"/><path class="cls-3" d="m165.8214,259.8665c.0382,4.3529-2.6796,7.4767-6.6974,8.0162-.7818.105-1.584.0778-2.3768.0778-41.568.002-83.1359.027-124.7038-.014-16.9268-.0167-30.4251-13.3894-30.2796-29.838.084-9.5048,7.4767-17.0793,16.8763-17.2914,9.4875-.2141,17.1051,6.9083,17.6158,16.4707.7634,14.2934,9.446,22.5719,23.7238,22.5758,34.0282.0093,68.0564.003,102.0845.0029,1.2551,0,2.5103,0,3.7573,0Z"/><path class="cls-3" d="m293.9927,136.7652c0,19.6858-15.9585,35.6443-35.6443,35.6443s-35.6443-15.9585-35.6443-35.6443,15.9585-35.6443,35.6443-35.6443,35.6443,15.9585,35.6443,35.6443Zm-42.5914,3.8324c-2.6885-2.692-5.3789-5.382-8.0695-8.072-1.1365-1.1362-2.6696-1.1547-3.8162-.0265-1.1621,1.1434-2.3171,2.2944-3.4574,3.4594-1.1399,1.1646-1.1433,2.6601.0146,3.822,4.5784,4.5943,9.1639,9.1814,13.7593,13.7587,1.1707,1.166,2.6998,1.181,3.8665.0165,8.7743-8.7572,17.5394-17.5235,26.2972-26.2972,1.0044-1.0062,1.0867-2.4507.1256-3.505-1.2092-1.3265-2.4833-2.602-3.8111-3.8096-1.1779-1.0712-2.5262-.9713-3.6381.1391-5.0854,5.079-10.1662,10.1627-15.2479,15.2454-1.871,1.8714-3.74,3.7449-5.6781,5.6858-.1433-.1743-.234-.3056-.3449-.4166Z"/><polygon class="cls-3" points="116.0095 4.7873 122.3011 17.5355 136.3696 19.5798 126.1896 29.5029 128.5927 43.5145 116.0095 36.8991 103.4263 43.5145 105.8295 29.5029 95.6494 19.5798 109.7179 17.5355 116.0095 4.7873"/><polygon class="cls-3" points="156.9868 0 161.3086 8.7568 170.9723 10.1611 163.9796 16.9773 165.6304 26.602 156.9868 22.0578 148.3433 26.602 149.9941 16.9773 143.0014 10.1611 152.6651 8.7568 156.9868 0"/><polygon class="cls-3" points="83.7922 39.1001 88.1139 47.857 97.7777 49.2612 90.7849 56.0774 92.4357 65.7021 83.7922 61.1579 75.1487 65.7021 76.7994 56.0774 69.8067 49.2612 79.4704 47.857 83.7922 39.1001"/><path class="cls-3" d="m41.5504,85.1098c1.5209,0,2.6869,0,3.853,0,41.7878-.0009,83.5755-.0036,125.3633-.001,7.2738.0004,10.0954,2.8075,10.0967,10.0465.004,21.3405-.0031,42.6811-.0026,64.0216.0007,27.8835.0083,55.767.0046,83.6504-.001,7.2534-2.8774,10.1685-10.0328,10.1696-37.6187.0058-75.2374.0107-112.8562.0002-10.4495-.0029-16.4335-6.0051-16.4365-16.448-.0053-18.462.0067-36.9241.008-55.3861.0023-31.0585.0018-62.117.0025-93.1754,0-.7895,0-1.5789,0-2.8776Zm98.7725,66.3322c6.5491,0,13.0982.0132,19.6472-.0049,4.014-.0111,5-.9506,5.0062-4.848.0208-13.0981.023-26.1963.0078-39.2944-.0042-3.6534-1.1403-4.8117-4.7983-4.819-13.0981-.0261-26.1963-.0245-39.2944-.0031-3.6917.0061-4.861,1.1478-4.8668,4.7606-.0212,13.1973-.0208,26.3947.0065,39.5921.0073,3.528,1.1004,4.5896,4.655,4.6051,6.5455.0285,13.0912.0081,19.6368.0116Zm-29.6401,56.2886c-15.8822,0-31.7644-.0011-47.6467.0025-.9921.0002-2.2154-.3215-2.9244.1364-1.1858.7658-2.8091,2.0281-2.8258,3.1036-.0171,1.0989,1.566,2.36,2.6753,3.2754.4843.3996,1.5333.1374,2.3258.1375,32.36.0036,64.7201.0035,97.0801-.0017.8912-.0001,2.0672.2836,2.6137-.1672,1.1028-.9096,2.5017-2.201,2.5635-3.3977.0496-.9589-1.5726-2.1926-2.6927-2.9493-.6227-.4207-1.7364-.1332-2.6288-.1334-16.18-.0038-32.36-.0028-48.5401-.006Zm.3018-14.3364c15.9788,0,31.9576.0008,47.9364-.0022.8927-.0002,2.0338.3098,2.6262-.1206,1.2252-.8901,2.8121-2.0586,3.0541-3.3387.3405-1.801-1.1699-3.0208-3.1593-3.1359-.7916-.0458-1.5873-.0267-2.3811-.0267-31.9576.0003-63.9152.0016-95.8728.0036-.7939,0-1.588.0174-2.3818.0115-2.0842-.0154-3.5558.9086-3.6784,3.0423-.1326,2.3087,1.3674,3.3631,3.5397,3.5333.7896.0619,1.5869.0336,2.3806.0336,15.9788.0015,31.9576.0011,47.9364-.0002Zm-.0014,41.9737c6.8411,0,13.6821.0003,20.5232,0,9.7163-.0005,19.4327-.0179,29.1489.0095,2.3282.0066,4.0424-.9102,4.044-3.3204.0016-2.4134-1.7515-3.367-4.0465-3.3524-.4957.0032-.9915-.0023-1.4872-.0023-32.2224-.0004-64.4449-.0022-96.6673.0064-.9857.0003-2.2465-.2495-2.8946.2482-1.0535.809-2.3817,2.1683-2.3368,3.2429.0445,1.0652,1.4975,2.29,2.6127,3.0132.7088.4597,1.9282.154,2.9187.1542,16.0616.0046,32.1233.0033,48.1849.0005Zm46.7212-63.0962c1.1827,0,2.3657.0171,3.548-.0037,2.1404-.0377,3.7051-1.2662,3.346-3.241-.2279-1.2531-1.8305-2.7624-3.1319-3.1845-1.591-.516-3.5124.0455-5.2904.0376-12.4733-.0554-24.9465-.1883-37.4198-.1953-10.4879-.0059-20.9759.1786-31.4638.1784-8.7025-.0002-17.405-.1618-26.1077-.2178-2.2417-.0144-4.0397.8687-4.0529,3.354-.0134,2.5091,1.7578,3.3123,4.0348,3.3063,6.2301-.0162,12.4603-.0152,18.6904-.0173,18.6223-.0062,37.2446-.0111,55.8669-.0154,7.3266-.0017,14.6533-.0003,21.9804-.0012Zm-76.9004-20.9773c6.3456,0,12.6915-.0302,19.0369.0157,2.3543.017,4.3317-.5714,4.3589-3.2669.0272-2.6864-1.9184-3.3681-4.2847-3.3645-12.7904.0194-25.5809.0241-38.3713-.007-2.3712-.0058-4.3485.6806-4.3767,3.3018-.0284,2.6343,1.9194,3.3535,4.3101,3.3356,6.4419-.0482,12.8845-.0165,19.3268-.0146Zm.0549-27.5697c-6.4427,0-12.8856.0299-19.3279-.0157-2.3585-.0167-4.3582.6099-4.3678,3.2692-.0095,2.6422,1.9868,3.3534,4.3356,3.351,12.7862-.0129,25.5724-.0114,38.3586-.0029,2.3221.0015,4.333-.6137,4.3476-3.3178.0147-2.7198-1.9684-3.3113-4.3155-3.2982-6.3433.0354-12.687.0121-19.0306.0144Zm-.1685-14.4915c6.4387,0,12.8775-.0228,19.3159.0125,2.2347.0122,4.1051-.579,4.1959-3.1112.0975-2.7204-1.813-3.4303-4.1814-3.4275-12.7783.015-25.5565-.0046-38.3347.0265-3.1108.0076-4.7874,1.2543-4.556,3.3891.2924,2.6972,2.2431,3.136,4.5415,3.1206,6.3393-.0425,12.6791-.0147,19.0187-.0099Z"/><g class="cls-2"><path class="cls-3" d="m238.1171,227.1544c-9.9091,5.7528-21.1505,10.8287-34.079,14.9197V34.3598c5.847,2.8348,14.8039,7.1141,25.4624,12.0162h25.1366c-5.7564-2.527-11.3174-5.0215-16.52-7.3929v-21.2483l-7.4689,3.7327c-.1846.0941-5.7782,2.8819-14.7315,7.1539-6.0606,2.8927-13.6526,6.4625-22.2004,10.3617-21.5343,9.8186-48.9806,21.661-72.4482,29.644l-2.8602.9703-.5539,2.9687c-.239,1.2744-20.0318,114.9809,75.8622,166.3872v16.8422l6.553-1.8319c5.4741-1.5351,10.6694-3.2439,15.6475-5.0794,8.012-2.9579,15.4013-6.2851,22.2004-9.9308,11.8678-6.3611,21.9506-13.6816,30.531-21.6212h-15.8574c-4.5183,3.4467-9.3769,6.7448-14.6736,9.8222Z"/><path class="cls-3" d="m126.4998,100.9167c0-9.4097.1713-18.8238-.0678-28.2275-.1317-5.1789,3.8509-8.1456,8.7674-7.3168,22.694,3.8256,44.1185-.0469,64.0761-11.5363,3.3591-1.9338,6.1483-1.9308,9.4772.1165,16.2052,9.9664,33.891,14.1734,52.8523,12.8741,4.0085-.2747,7.9956-.9495,11.9733-1.5643,4.3271-.6688,7.8482,2.1701,7.8531,6.5703.0206,18.4058.3333,36.8188-.0714,55.2157-.5382,24.4663-9.1036,46.1244-24.5703,65.0132-13.5317,16.5258-30.556,28.4168-50.0095,36.9799-1.7962.7906-3.5975.8782-5.4062.0794-25.0234-11.0518-45.7691-27.1879-59.959-50.9421-9.9423-16.6436-14.9469-34.722-14.9179-54.1516.0115-7.7035.0019-15.4071.0026-23.1107Zm11.8881,5.1905c0,6.5663-.0101,13.1326.0021,19.6989.0277,14.9035,3.4707,28.9891,10.4408,42.1483,12.0547,22.759,30.9212,37.9694,54.0834,48.3206.612.2735,1.5626.2475,2.1845-.0265,16.2589-7.164,30.5718-17.0489,42.1109-30.6683,13.9783-16.4983,21.719-35.5716,22.2655-57.2196.4122-16.3278.0875-32.6743.0823-49.0125-.0007-2.1385-.6642-2.6468-2.7985-2.2612-21.8528,3.9483-42.3411.4217-61.3261-11.2447-1.0029-.6163-1.8004-.6822-2.8422-.0769-19.1413,11.1204-39.6421,14.887-61.4917,11.293-2.1187-.3485-2.7079.1757-2.709,2.37-.0044,8.893-.0018,17.7859-.0018,26.6789Z"/><path class="cls-3" d="m127.6622,80.4312c10.9009,1.7539,21.5461,1.5777,32.1494-.4068,10.5872-1.9815,20.5433-5.715,30.0514-11.2185v144.3703c-1.1733-.5285-2.2548-.9857-3.3107-1.4958-17.834-8.6174-32.996-20.446-44.0395-37.0901-9.8882-14.9029-14.8938-31.3281-14.8548-49.2599.0312-14.3211.0049-28.6423.0041-42.9634,0-.6018,0-1.2035,0-1.9357Z"/></g></svg>