<?xml version="1.0" encoding="UTF-8"?><svg id="Layer_1" xmlns="http://www.w3.org/2000/svg" viewBox="0 0 136.6039 143.2572"><defs><style>.cls-1{fill:#335b7f;}</style></defs><path class="cls-1" d="m.0008,0h109.3892v36.315h27.1287c.0329.75.0801,1.3253.0802,1.9006.0035,29.1257.0098,58.2515-.0009,87.3772-.0038,10.2959-7.3344,17.647-17.6379,17.652-33.7642.0164-67.5283.0166-101.2925.0006C7.2633,143.2404.0042,135.9141.003,125.4729-.0021,84.2654.0008,43.0579.0008,1.8504V0Zm9.166,9.1492v2.0553c0,37.924-.0006,75.8479.0007,113.7719.0002,6.0636,2.9996,9.0897,9.0072,9.09,27.2427.0012,54.4854.0005,81.7281.0006.5809,0,1.1619,0,2.0131,0-2.5334-5.8283-1.61-11.7718-1.6214-17.6055-.068-35.0108-.0305-70.0217-.0283-105.0326,0-.7359,0-1.4719,0-2.2797H9.1667Zm102.564,36.4795c0,.7826,0,1.4673,0,2.152,0,25.291,0,50.582.0003,75.873,0,.9167-.0288,1.8349.0126,2.7499.1963,4.3379,3.6072,7.6576,7.8469,7.6591,4.5572.0017,7.8377-3.5005,7.8401-8.4655.0125-26.0999.0061-52.1998.0063-78.2997v-1.6688h-15.7062Z"/><path class="cls-1" d="m50.851,19.0877v41.3486h-30.5964c-.0325-.5659-.0882-1.0867-.0884-1.6076-.0049-12.7224.0024-25.4448-.0159-38.1671-.0015-1.0215.0214-1.7115,1.4054-1.7037,9.4337.0536,18.8677.0296,28.3017.035.266.0002.532.0493.9937.0949Z"/><path class="cls-1" d="m88.6589,73.0519H20.5055v-5.2852h68.1534v5.2852Z"/><path class="cls-1" d="m20.464,85.0938v-5.2601h68.2007v5.2601H20.464Z"/><path class="cls-1" d="m88.6897,92.013v5.1834H20.4664v-5.1834h68.2233Z"/><path class="cls-1" d="m88.6817,104.0727v5.2746H20.5013v-5.2746h68.1804Z"/><path class="cls-1" d="m20.4663,121.4196v-5.2596h68.1996v5.2596H20.4663Z"/><path class="cls-1" d="m88.6694,19.5364v5.2856h-30.0343v-5.2856h30.0343Z"/><path class="cls-1" d="m88.6654,31.5007v5.2873h-30.033v-5.2873h30.033Z"/><path class="cls-1" d="m58.6304,48.8383v-5.2862h30.0329v5.2862h-30.0329Z"/><path class="cls-1" d="m58.6336,60.8081v-5.2917h30.0363v5.2917h-30.0363Z"/></svg>