<?xml version="1.0" encoding="UTF-8"?><svg id="Layer_1" xmlns="http://www.w3.org/2000/svg" xmlns:xlink="http://www.w3.org/1999/xlink" viewBox="0 0 300.171 262.4091"><defs><style>.cls-1,.cls-2{fill:none;}.cls-3{clip-path:url(#clippath);}.cls-4,.cls-5{fill:#fff;}.cls-2{clip-rule:evenodd;}.cls-6{clip-path:url(#clippath-1);}.cls-5{fill-rule:evenodd;}</style><clipPath id="clippath"><rect class="cls-1" x="189.3833" width="110.7877" height="256.4108"/></clipPath><clipPath id="clippath-1"><path class="cls-2" d="m269.1322,154.1681c-11.0539-11.7938-26.7725-19.1626-44.2122-19.1626l-1.8644-16.4941,2.372-17.2484,18.0883-15.9008,16.4441-4.3014,21.3259,4.2578,10.1852,13.8838,8.6998,19.309-7.2929,20.0972-13.7875,10.2087-9.9584,5.3508Z"/></clipPath></defs><path class="cls-4" d="m41.5504,79.5492c1.5209,0,2.6869,0,3.853,0,41.7878-.0009,83.5755-.0036,125.3633-.001,7.2738.0004,10.0954,2.8075,10.0967,10.0465.004,21.3405-.0031,42.6811-.0026,64.0216.0007,27.8835.0083,55.767.0046,83.6504-.001,7.2534-2.8774,10.1685-10.0328,10.1696-37.6187.0058-75.2374.0107-112.8562.0002-10.4495-.0029-16.4335-6.0051-16.4365-16.448-.0053-18.462.0067-36.9241.008-55.3861.0023-31.0585.0018-62.117.0025-93.1754,0-.7895,0-1.5789,0-2.8776Zm98.7725,66.3322c6.5491,0,13.0982.0132,19.6472-.0049,4.014-.0111,5-.9506,5.0062-4.848.0208-13.0981.023-26.1963.0078-39.2944-.0042-3.6534-1.1403-4.8117-4.7983-4.819-13.0981-.0261-26.1963-.0245-39.2944-.0031-3.6917.0061-4.861,1.1478-4.8668,4.7606-.0212,13.1973-.0208,26.3947.0065,39.5921.0073,3.528,1.1004,4.5896,4.655,4.6051,6.5455.0285,13.0912.0081,19.6368.0116Zm-29.6401,56.2886c-15.8822,0-31.7644-.0011-47.6467.0025-.9921.0002-2.2154-.3215-2.9244.1364-1.1858.7658-2.8091,2.0281-2.8258,3.1036-.0171,1.0989,1.566,2.36,2.6753,3.2754.4843.3996,1.5333.1374,2.3258.1375,32.36.0036,64.7201.0035,97.0801-.0017.8912-.0001,2.0672.2836,2.6137-.1672,1.1028-.9096,2.5017-2.201,2.5635-3.3977.0496-.9589-1.5726-2.1926-2.6927-2.9493-.6227-.4207-1.7364-.1332-2.6288-.1334-16.18-.0038-32.36-.0028-48.5401-.006Zm.3018-14.3364c15.9788,0,31.9576.0008,47.9364-.0022.8927-.0002,2.0338.3098,2.6262-.1206,1.2252-.8901,2.8121-2.0586,3.0541-3.3387.3405-1.801-1.1699-3.0208-3.1593-3.1359-.7916-.0458-1.5873-.0267-2.3811-.0267-31.9576.0003-63.9152.0016-95.8728.0036-.7939,0-1.588.0174-2.3818.0115-2.0842-.0154-3.5558.9086-3.6784,3.0423-.1326,2.3087,1.3674,3.3631,3.5397,3.5333.7896.0619,1.5869.0336,2.3806.0336,15.9788.0015,31.9576.0011,47.9364-.0002Zm-.0014,41.9737c6.8411,0,13.6821.0003,20.5232,0,9.7163-.0005,19.4327-.0179,29.1489.0095,2.3282.0066,4.0424-.9102,4.044-3.3204.0016-2.4134-1.7515-3.367-4.0465-3.3524-.4957.0032-.9915-.0023-1.4872-.0023-32.2224-.0004-64.4449-.0022-96.6673.0064-.9857.0003-2.2465-.2495-2.8946.2482-1.0535.809-2.3817,2.1683-2.3368,3.2429.0445,1.0652,1.4975,2.29,2.6127,3.0132.7088.4597,1.9282.154,2.9187.1542,16.0616.0046,32.1233.0033,48.1849.0005Zm46.7212-63.0962c1.1827,0,2.3657.0171,3.548-.0037,2.1404-.0377,3.7051-1.2662,3.346-3.241-.2279-1.2531-1.8305-2.7624-3.1319-3.1845-1.591-.516-3.5124.0455-5.2904.0376-12.4733-.0554-24.9465-.1883-37.4198-.1953-10.4879-.0059-20.9759.1786-31.4638.1784-8.7025-.0002-17.405-.1618-26.1077-.2178-2.2417-.0144-4.0397.8687-4.0529,3.354-.0134,2.5091,1.7578,3.3123,4.0348,3.3063,6.2301-.0162,12.4603-.0152,18.6904-.0173,18.6223-.0062,37.2446-.0111,55.8669-.0154,7.3266-.0017,14.6533-.0003,21.9804-.0012Zm-76.9004-20.9773c6.3456,0,12.6915-.0302,19.0369.0157,2.3543.017,4.3317-.5714,4.3589-3.2669.0272-2.6864-1.9184-3.3681-4.2847-3.3645-12.7904.0194-25.5809.0241-38.3713-.007-2.3712-.0058-4.3485.6806-4.3767,3.3018-.0284,2.6343,1.9194,3.3535,4.3101,3.3356,6.4419-.0482,12.8845-.0165,19.3268-.0146Zm.0549-27.5697c-6.4427,0-12.8856.0299-19.3279-.0157-2.3585-.0167-4.3582.6099-4.3678,3.2692-.0095,2.6422,1.9868,3.3534,4.3356,3.351,12.7862-.0129,25.5724-.0114,38.3586-.0029,2.3221.0015,4.333-.6137,4.3476-3.3178.0147-2.7198-1.9684-3.3113-4.3155-3.2982-6.3433.0354-12.687.0121-19.0306.0144Zm-.1685-14.4915c6.4387,0,12.8775-.0228,19.3159.0125,2.2347.0122,4.1051-.579,4.1959-3.1112.0975-2.7204-1.813-3.4303-4.1814-3.4275-12.7783.015-25.5565-.0046-38.3347.0265-3.1108.0076-4.7874,1.2543-4.556,3.3891.2924,2.6972,2.2431,3.136,4.5415,3.1206,6.3393-.0425,12.6791-.0147,19.0187-.0099Z"/><path class="cls-4" d="m34.5301,214.9558C20.7429,205.9398,12.5671,205.9557,0,215.1628c0-1.3543-.0002-2.3582,0-3.3622.0036-14.7818.0096-29.5637.0105-44.3455.0018-30.3481-.0318-60.6963.0164-91.0444.0204-12.8257,12.5551-21.3051,24.0672-16.205,7.0459,3.1214,10.4434,8.8134,10.4393,16.5537-.0154,29.0853-.0042,58.1706-.0034,87.256.0005,16.8546,0,33.7093,0,50.9405Z"/><path class="cls-4" d="m165.8214,254.3058c.0382,4.3529-2.6796,7.4767-6.6974,8.0162-.7818.105-1.584.0778-2.3768.0778-41.568.002-83.1359.027-124.7038-.014-16.9268-.0167-30.4251-13.3894-30.2796-29.838.084-9.5048,7.4767-17.0793,16.8763-17.2914,9.4875-.2141,17.1051,6.9083,17.6158,16.4707.7634,14.2934,9.446,22.5719,23.7238,22.5758,34.0282.0093,68.0564.003,102.0845.0029,1.2551,0,2.5103,0,3.7573,0Z"/><g class="cls-3"><g><path class="cls-4" d="m224.1968,141.6127c1.8852,0,3.7703,0,5.6555,0,.3039.0661.6051.1717.9121.1924,3.9789.268,7.8312,1.1319,11.5925,2.4321,25.8995,8.9531,38.2204,39.506,25.7597,63.8779-11.3753,22.249-37.4487,31.5226-60.2256,21.0572-14.1096-6.483-22.6895-17.6849-25.8914-32.9082-.4407-2.0954-.6236-4.2451-.9259-6.3696,0-1.5701,0-3.1403,0-4.7104.0714-.3772.1558-.7524.2121-1.1318.3273-2.2051.5159-4.4402.992-6.6125,3.8662-17.641,18.3235-31.6467,36.0147-34.9326,1.956-.3633,3.9357-.5993,5.9044-.8944Zm-12.1304,31.5588v28.7944h-5.7129v5.2628h9.6274v7.5326h5.2069v-7.5056h3.7864v7.5211h5.2791v-7.6421c2.3504,0,4.5434.0752,6.7296-.0147,5.5767-.2293,10.2582-4.6093,10.7749-9.9954.5652-5.8915-2.9338-11.0113-8.5077-12.4476-.4508-.1162-.9028-.2275-1.629-.4103.6283-.196.9618-.2922,1.2901-.4037,4.1381-1.4049,6.4165-5.6259,5.3235-9.8587-.8813-3.4128-3.8632-5.9027-7.3958-6.0473-2.1459-.0878-4.2983-.0162-6.6047-.0162v-7.629h-5.3242v7.5165h-3.787v-7.4938h-5.24v7.5758h-9.5121v5.2613h5.6955Z"/><path class="cls-4" d="m221.4515,201.3553v-12.273c.4927-.0234.9876-.0721,1.4818-.0663,2.8231.0329,5.6577-.0662,8.4659.1587,3.135.2511,5.4065,2.8561,5.4764,5.8982.0706,3.0721-2.169,5.9791-5.278,6.2232-3.3421.2624-6.7209.0593-10.1462.0593Z"/><path class="cls-4" d="m221.4297,183.9876v-10.3561c.3031-.0404.5979-.1127.893-.1139,2.2356-.0092,4.4719-.0353,6.7069.0031,3.1739.0546,5.4944,2.3269,5.444,5.2717-.0513,3-2.3471,5.1691-5.5265,5.1917-2.4645.0175-4.9293.0035-7.5175.0035Z"/></g><path class="cls-4" d="m202.0686,86.3345c-1.7738,1.0434-2.852,2.9215-2.852,4.9735.0696,1.0782.3826,2.1564.9391,3.0606.4174.8347.626,2.3303-.8347,3.0606-1.0782.5913-2.4694.2435-3.0606-.8347-.626-.9043-1.426-1.7042-2.3303-2.3303-1.7738-1.0434-3.9649-1.0434-5.7039,0-2.7476,1.5999-3.6867,5.1474-2.0868,7.895.4869.8695,1.2173,1.5651,2.0868,2.0868,1.7738,1.0434,3.9649,1.0434,5.7039,0,.9391-.5565,1.7042-1.3564,2.2259-2.3303.5565-1.0782,1.8781-1.4955,2.9563-.9391.0348.0348.1043.0348.1391.0696,1.0434.6608,1.3912,1.9825.8347,3.0606-.5565.9391-.8347,1.9825-.8695,3.0606,0,2.052,1.0782,3.9649,2.852,4.9735,1.7738,1.0434,3.9649,1.0434,5.7039,0,2.7476-1.5999,3.6867-5.1127,2.0868-7.8603-.4869-.8695-1.2173-1.5651-2.0868-2.0868-.9738-.5217-2.0868-.7652-3.165-.7304-1.2173,0-2.2259-1.0086-2.2259-2.2259s1.0086-2.2259,2.2259-2.2259c1.113.0348,2.1911-.2435,3.165-.7304,2.7476-1.5999,3.6867-5.1127,2.0868-7.8603-.4869-.8695-1.2173-1.5999-2.0868-2.0868-1.7738-.9738-3.9301-.9738-5.7039,0m19.3828,12.9295c0,11.8504-9.6067,21.4571-21.4571,21.4571s-21.4571-9.6067-21.4571-21.4571,9.6067-21.4571,21.4571-21.4571,21.4571,9.6067,21.4571,21.4571Z"/><g class="cls-6"><path class="cls-5" d="m292.8781,118.2366c0,18.1802-14.7377,32.918-32.918,32.918s-32.918-14.7378-32.918-32.918,14.7379-32.918,32.918-32.918,32.918,14.7379,32.918,32.918Zm-42.246,13.0997h-6.3885c-1.3424,0-2.0055,0-2.4098-.2586-.4335-.2819-.7068-.7535-.7359-1.2698-.0243-.4769.3073-1.0593.9704-2.2238l15.7739-27.8037c.6711-1.1807,1.0108-1.771,1.4394-1.9893.4626-.2345,1.0092-.2345,1.4718,0,.4286.2183.7682.8087,1.4394,1.9893l3.2429,5.6607.0165.0289c.7249,1.2666,1.0926,1.9089,1.253,2.5831.1779.7388.1779,1.5093,0,2.2481-.1617.6793-.5256,1.3262-1.2616,2.612l-8.2857,14.6467-.0214.0375c-.7297,1.2771-1.0995,1.9243-1.6121,2.4126-.5549.5312-1.2286.9223-1.9651,1.1405-.6712.1859-1.4232.1859-2.9273.1859Zm16.133,0h9.1539c1.3505,0,2.0299,0,2.4344-.2665.4364-.2829.7102-.7583.7359-1.2777.0232-.4615-.3011-1.0213-.9367-2.1181-.0219-.0373-.0438-.0754-.0662-.114l-4.5853-7.844-.0522-.0883c-.6443-1.0896-.9696-1.6398-1.3873-1.8525-.4597-.2346-1.0039-.2346-1.4636,0-.4205.2183-.7601.7925-1.4313,1.9489l-4.569,7.8441-.0157.027c-.6688,1.1545-1.0031,1.7315-.979,2.2049.0289.5185.3019.9925.7358,1.2777.3963.2587,1.0755.2587,2.426.2587Z"/></g><path class="cls-4" d="m240.964,23.2872c15.5448,0,28.1464,12.6016,28.1464,28.1464s-12.6016,28.1464-28.1464,28.1464-28.1464-12.6016-28.1464-28.1464,12.6016-28.1464,28.1464-28.1464Zm18.3679,20.7379c-.0378-.6308-.2232-1.2439-.5414-1.7899-.2883-.5643-.7758-1.0014-1.3681-1.2267-.5972-.2972-1.2585-.4425-1.9253-.423h-24.9812l-1.7899,5.3648h22.6353l-3.5689,10.9726h-22.6353l-1.7899,5.3588h25.1008c.7481-.0216,1.4876-.1645,2.1899-.423.7034-.3988,1.5083-.8049,2.1899-1.3681.665-.5242,1.2657-1.1249,1.7899-1.7899.433-.6516.8025-1.3433,1.1034-2.0654l3.3151-10.4251c.3017-.6863.3974-1.4454.2756-2.1851h0Zm-21.683,4.9213h-13.3197l-1.7899,4.9551h13.4538l1.6557-4.9551Z"/></g></svg>