<?xml version="1.0" encoding="UTF-8"?>
<svg id="Layer_1" data-name="Layer 1" xmlns="http://www.w3.org/2000/svg" xmlns:xlink="http://www.w3.org/1999/xlink" viewBox="0 0 384.7852 203.7079">
  <defs>
    <style>
      .cls-1 {
        clip-path: url(#clippath);
      }

      .cls-2 {
        fill: none;
      }

      .cls-2, .cls-3, .cls-4 {
        stroke-width: 0px;
      }

      .cls-3 {
        fill-rule: evenodd;
      }

      .cls-3, .cls-4 {
        fill: #fff;
      }
    </style>
    <clipPath id="clippath">
      <rect class="cls-2" x="193.0001" y="13.2988" width="191.7852" height="186"/>
    </clipPath>
  </defs>
  <path class="cls-4" d="M41.5505,20.848h3.853c41.7878-.0009,83.5755-.0036,125.3633-.001,7.2738.0004,10.0954,2.8075,10.0967,10.0465.004,21.3405-.0031,42.6811-.0026,64.0216.0007,27.8835.0083,55.767.0046,83.6504-.001,7.2534-2.8774,10.1685-10.0328,10.1696-37.6187.0058-75.2374.0107-112.8562.0002-10.4495-.0029-16.4335-6.0051-16.4365-16.448-.0053-18.462.0067-36.9241.008-55.3861.0023-31.0585.0018-62.117.0025-93.1754v-2.8778ZM140.323,87.1802c6.5491,0,13.0982.0132,19.6472-.0049,4.014-.0111,5-.9506,5.0062-4.848.0208-13.0981.023-26.1963.0078-39.2944-.0042-3.6534-1.1403-4.8117-4.7983-4.819-13.0981-.0261-26.1963-.0245-39.2944-.0031-3.6917.0061-4.861,1.1478-4.8668,4.7606-.0212,13.1973-.0208,26.3947.0065,39.5921.0073,3.528,1.1004,4.5896,4.655,4.6051,6.5455.0285,13.0912.0081,19.6368.0116h0ZM110.6829,143.4688c-15.8822,0-31.7644-.0011-47.6467.0025-.9921.0002-2.2154-.3215-2.9244.1364-1.1858.7658-2.8091,2.0281-2.8258,3.1036-.0171,1.0989,1.566,2.36,2.6753,3.2754.4843.3996,1.5333.1374,2.3258.1375,32.36.0036,64.7201.0035,97.0801-.0017.8912-.0001,2.0672.2836,2.6137-.1672,1.1028-.9096,2.5017-2.201,2.5635-3.3977.0496-.9589-1.5726-2.1926-2.6927-2.9493-.6227-.4207-1.7364-.1332-2.6288-.1334-16.18-.0038-32.36-.0028-48.5401-.006h.0001ZM110.9847,129.1324c15.9788,0,31.9576.0008,47.9364-.0022.8927-.0002,2.0338.3098,2.6262-.1206,1.2252-.8901,2.8121-2.0586,3.0541-3.3387.3405-1.801-1.1699-3.0208-3.1593-3.1359-.7916-.0458-1.5873-.0267-2.3811-.0267-31.9576.0003-63.9152.0016-95.8728.0036-.7939,0-1.588.0174-2.3818.0115-2.0842-.0154-3.5558.9086-3.6784,3.0423-.1326,2.3087,1.3674,3.3631,3.5397,3.5333.7896.0619,1.5869.0336,2.3806.0336,15.9788.0015,31.9576.0011,47.9364-.0002ZM110.9833,171.1061c6.8411,0,13.6821.0003,20.5232,0,9.7163-.0005,19.4327-.0179,29.1489.0095,2.3282.0066,4.0424-.9102,4.044-3.3204.0016-2.4134-1.7515-3.367-4.0465-3.3524-.4957.0032-.9915-.0023-1.4872-.0023-32.2224-.0004-64.4449-.0022-96.6673.0064-.9857.0003-2.2465-.2495-2.8946.2482-1.0535.809-2.3817,2.1683-2.3368,3.2429.0445,1.0652,1.4975,2.29,2.6127,3.0132.7088.4597,1.9282.154,2.9187.1542,16.0616.0046,32.1233.0033,48.1849.0005v.0002ZM157.7045,108.0099c1.1827,0,2.3657.0171,3.548-.0037,2.1404-.0377,3.7051-1.2662,3.346-3.241-.2279-1.2531-1.8305-2.7624-3.1319-3.1845-1.591-.516-3.5124.0455-5.2904.0376-12.4733-.0554-24.9465-.1883-37.4198-.1953-10.4879-.0059-20.9759.1786-31.4638.1784-8.7025-.0002-17.405-.1618-26.1077-.2178-2.2417-.0144-4.0397.8687-4.0529,3.354-.0134,2.5091,1.7578,3.3123,4.0348,3.3063,6.2301-.0162,12.4603-.0152,18.6904-.0173,18.6223-.0062,37.2446-.0111,55.8669-.0154,7.3266-.0017,14.6533-.0003,21.9804-.0012h0ZM80.8041,87.0326c6.3456,0,12.6915-.0302,19.0369.0157,2.3543.017,4.3317-.5714,4.3589-3.2669.0272-2.6864-1.9184-3.3681-4.2847-3.3645-12.7904.0194-25.5809.0241-38.3713-.007-2.3712-.0058-4.3485.6806-4.3767,3.3018-.0284,2.6343,1.9194,3.3535,4.3101,3.3356,6.4419-.0482,12.8845-.0165,19.3268-.0146h0ZM80.859,59.4629c-6.4427,0-12.8856.0299-19.3279-.0157-2.3585-.0167-4.3582.6099-4.3678,3.2692-.0095,2.6422,1.9868,3.3534,4.3356,3.351,12.7862-.0129,25.5724-.0114,38.3586-.0029,2.3221.0015,4.333-.6137,4.3476-3.3178.0147-2.7198-1.9684-3.3113-4.3155-3.2982-6.3433.0354-12.687.0121-19.0306.0144ZM80.6905,44.9714c6.4387,0,12.8775-.0228,19.3159.0125,2.2347.0122,4.1051-.579,4.1959-3.1112.0975-2.7204-1.813-3.4303-4.1814-3.4275-12.7783.015-25.5565-.0046-38.3347.0265-3.1108.0076-4.7874,1.2543-4.556,3.3891.2924,2.6972,2.2431,3.136,4.5415,3.1206,6.3393-.0425,12.6791-.0147,19.0187-.0099h0Z"/>
  <path class="cls-4" d="M34.5302,156.2546C20.743,147.2386,12.5672,147.2545,0,156.4616,0,155.1073-.0001,154.1034,0,153.0994c.0036-14.7818.0096-29.5637.0105-44.3455.0018-30.3481-.0318-60.6963.0164-91.0444C.0474,4.8838,12.5821-3.5956,24.0942,1.5045c7.0459,3.1214,10.4434,8.8134,10.4393,16.5537-.0154,29.0853-.0042,58.1706-.0034,87.256.0005,16.8546,0,33.7093,0,50.9405h.0001Z"/>
  <path class="cls-4" d="M165.8215,195.6046c.0382,4.3529-2.6796,7.4767-6.6974,8.0162-.7818.105-1.584.0778-2.3768.0778-41.568.002-83.1359.027-124.7038-.014-16.9268-.0167-30.4251-13.3894-30.2796-29.838.084-9.5048,7.4767-17.0793,16.8763-17.2914,9.4875-.2141,17.1051,6.9083,17.6158,16.4707.7634,14.2934,9.446,22.5719,23.7238,22.5758,34.0282.0093,68.0564.003,102.0845.0029h3.7573-.0001Z"/>
  <g class="cls-1">
    <path class="cls-3" d="M259.988,30.5962c8.4891.2601,13.419,5.4406,16.0845,11.7411,2.1956,5.1934,3.0462,11.9477,2.6915,17.7342,2.9618,4.0303,2.9842,11.4752,2.5502,15.7326-.4942,4.8765-2.2885,13.5327-7.0635,16.41-2.3108,9.4449-9.8701,18.2389-18.7363,23.5941-6.7983,4.1077-14.4884,4.4607-21.6586.4107-9.2004-5.1967-17.0129-14.3283-19.3788-24.0048-4.7767-2.8773-6.5675-11.5335-7.0633-16.41-.4324-4.2574-.41-11.7023,2.55-15.7326-4.1705-28.3509,27.3703-40.1374,47.5807-30.4119,1.0074.743.9987.9247,2.4435.9366h0ZM249.782,121.5069c2.2006-.1428,2.7378,5.9967,2.5123,8.397-.0637.5253-.0672.812-.5286,1.2253-.5976.538-1.734,1.3681-2.2713,1.9777-.4632.5147-.2153,1.2105-.0741,1.8234.8231,3.8478,1.8149,9.3287,2.6207,14.8991l16.634-38.3269c.2463-.5648.9058-.8721,1.4395-.5166,7.4595,5.7237,20.1226,7.1978,28.9458,10.3033,7.5216,2.1611,14.6813,40.8126,14.6813,46.5405,0,4.7268-3.8795,8.5926-8.5924,8.5926h-120.9199c-4.7129,0-8.5906-3.8658-8.5906-8.5926,0-5.728,7.158-44.3795,14.6811-46.5405,8.8232-3.1055,21.4865-4.5796,28.9458-10.3033.5339-.3555,1.1934-.0481,1.4379.5166l16.6355,38.3269c.8042-5.5703,1.7978-11.0513,2.6192-14.8991.1428-.6129.3909-1.3087-.0723-1.8234-.5373-.6096-1.6737-1.4397-2.2713-1.9777-.4614-.4133-.465-.7-.5286-1.2253-.2255-2.4003.3116-8.5399,2.5123-8.397,3.5523.8206,6.6311.8206,10.1836,0h0ZM318.4255,69.5337c4.9661-1.667,11.0393-3.6962,16.9129-7.8934,1.7872-1.2768,3.1906-1.7382,4.3204,1.5533.6164,1.7968.9814,4.1386,2.0387,5.4257.7765.9471,1.3242.1687,1.889-.9031.6009-1.1348,1.2794-1.8116,1.9389-1.8116,1.5635,0,2.4349,3.784,1.9511,8.454-.4874,4.6674-2.1473,8.4529-3.7108,8.4529-.2929.0146-.4064.0448-.465.3512-.5029,2.5925-1.2621,4.943-2.2076,6.7302-2.309,4.3618-6.0715,7.8271-11.5249,10.7863-2.5744,1.5111-5.0867,1.5111-7.6591,0-5.4552-2.9591-9.2177-6.4245-11.5251-10.7863-1.436-2.7094-2.4382-6.7156-2.7757-10.8938-.4047-3.146.9246-5.0279,3.3819-6.4805,1.8511-1.0934,5.2967-2.266,7.4353-2.9849h0ZM318.0724,39.6855c-8.0742,2.0431-15.3993,7.3553-18.764,16.1767-1.1537,3.0221-1.6411,6.149-1.8426,9.2556-1.0486,16.1905,1.4914,29.272-8.5166,44.8901,5.1519-3.5826,10.6984-6.5676,16.4927-9.0032l1.4706-.6191c1.0537,1.1348,2.7585,3.0952,4.174,3.8004.4994.2506,1.6427-2.8895,1.944-4.8386,0-.0018.0982.0834.1136.0972,2.0801,1.7874,4.3445,3.3536,6.6519,4.6355,4.0086,2.3548,7.8762,2.3548,11.8848,0,2.3058-1.2819,4.57-2.848,6.6519-4.6355.0155-.0138.112-.0989.112-.0972.3013,1.9491,1.4464,5.0891,1.9458,4.8386,1.4138-.7051,3.1185-2.6655,4.174-3.8004l1.4706.6191c5.7943,2.4356,11.3406,5.4206,16.4909,9.0032-10.6071-16.8166-7.468-28.6996-8.515-44.8901-.2015-3.1065-.6905-6.2335-1.8424-9.2556-1.4741-3.8631-3.2201-7.0547-6.0716-9.5902-2.8842-2.5648-8.8886-6.2774-13.5826-4.4969-4.5718-2.3092-8.403-3.6188-14.4419-2.0896h0ZM364.6957,150.725c3.3629,0,7.1511-2.793,6.471-6.0863l-4.7233-22.9027c-.694-3.3671-1.3827-5.4198-3.6126-7.097-5.3794-3.945-11.2202-7.1753-17.359-9.7831-10.7982,15.1505-28.6702,15.2969-39.4669,0-4.6303,1.9664-9.0884,4.2867-13.3088,7.0005,3.2097.8264,6.2506,1.6049,8.656,2.4391,5.1658,1.6358,8.0983,7.1236,10.0734,11.791,2.1628,5.1151,3.766,10.708,5.121,16.0907.7129,2.8292,1.369,5.6832,1.9648,8.5478h46.1842ZM221.6471,61.6601c.0569-2.5733.9437-2.5975,3.0478-1.9768,5.7204,1.6867,31.4359-3.1398,37.5488-5.889,1.0728-.4823,2.0697-.7852,2.9789.3022.4874.5812.818,1.4154,1.0417,2.2781.5976,2.2875.7027,5.4929.8714,7.8753.0379.5699.0723,1.0451.0965,1.3482.179,1.7943.718,1.8934,1.25,1.4998.6683-.4958.9885-1.1934,1.357-1.9123.8437-1.6469,1.8012-2.6267,2.7309-2.6267,2.2007,0,3.4301,5.4869,2.7465,12.2593-.687,6.7708-3.0237,12.2586-5.2244,12.2586-.5665-.0215-.916.2901-1.0486.9264-1.9664,9.5033-8.4409,17.7247-15.8505,21.9633-6.3005,3.6057-10.2834,3.7935-17.1194.2798-7.7212-3.9665-14.3766-12.5116-16.3912-22.2431-.1292-.6364-.4787-.9479-1.047-.9264-2.2006,0-4.539-5.4878-5.2244-12.2586-.6836-6.7724.5459-12.2593,2.7465-12.2593,1.059,0,2.1508,1.2725,3.072,3.3474.5149,1.0178,1.5894,2.1886,2.0939,1.1486.2601-.5337.3049-4.5157.3237-5.3949h0Z"/>
  </g>
</svg>