<?xml version="1.0" encoding="UTF-8"?><svg id="Layer_1" xmlns="http://www.w3.org/2000/svg" viewBox="0 0 210.2613 203.5892"><defs><style>.cls-1{fill:#fff;stroke-width:0px;}</style></defs><path class="cls-1" d="m0,31.3336c1.0172-2.0866,1.7898-4.3445,3.1048-6.2226,2.396-3.4217,5.9591-5.0479,10.0936-5.1845,3.8518-.1273,7.7111-.0272,11.7671-.0272,0,.7838-.0003,1.4102,0,2.0365.0026,4.1067-.0691,8.2152.0245,12.3198.1611,7.0643,4.2641,12.5642,10.8895,14.23,4.789,1.2041,9.7021,1.2006,14.3865-.5417,5.7427-2.1359,9.1646-7.6991,9.2112-14.4981.0305-4.4526.0058-8.9057.0058-13.4827h60.0849c.0332.6316.0921,1.2469.0936,1.8622.0087,3.7547-.0006,7.5095.0055,11.2642.0158,9.7255,5.9028,15.7833,15.6657,16.0827,3.47.1064,6.9753.0819,10.1713-1.4598,5.9518-2.8711,8.6104-7.8502,8.6762-14.3247.0394-3.8717.0078-7.7441.0081-11.6162,0-.5737,0-1.1473,0-1.5671,4.8427,0,9.5949-.5549,14.1586.1355,6.1927.937,10.2007,6.2386,10.5662,12.5563.044.7606.0507,1.5243.0508,2.2865.0026,21.0618.0021,42.1236.0021,63.1854,0,.7546,0,1.5093,0,2.337-5.0821-.3404-10.0178-.671-15.1669-1.0159v-31.5765H15.4914c0,.5882,0,1.2105,0,1.8329-.0005,26.4592-.0025,52.9185-.0007,79.3777.0005,7.4917,4.0796,11.6645,11.6154,11.711,9.7385.06,19.4776.0114,29.2164.0109,13.083-.0007,26.1659-.0002,39.2489-.0002h1.9237c.3928,5.7846.7687,11.3187,1.1619,17.1088-.5413,0-1.271,0-2.0007,0-27.0459,0-54.0926-.1084-81.1373.0703-7.5041.0496-13.6263-3.8699-15.274-11.2336-.0369-.165-.1614-.3104-.2451-.4649C0,121.4618,0,76.3977,0,31.3336Z"/><path class="cls-1" d="m46.4723,0c.4176.2859.8223.5931,1.255.8539,1.9065,1.1493,2.9684,2.8035,2.9705,5.0524.0088,9.5575.0417,19.1153-.0228,28.6724-.023,3.411-2.5425,5.7892-5.9723,5.8723-1.7579.0426-3.5198.0551-5.2764-.0117-3.1098-.1182-5.6673-2.4968-5.6929-5.5843-.0806-9.7325-.0529-19.4662-.0244-29.1993C33.7176,2.732,35.7681,1.2636,38.0228,0,40.8393,0,43.6558,0,46.4723,0Z"/><path class="cls-1" d="m141.1774,0c.3671.2601.7147.5548,1.1046.7746,2.0734,1.169,3.1313,2.9284,3.1308,5.3112-.002,9.4398.0216,18.8797-.0266,28.3193-.0179,3.507-2.499,5.9498-5.987,6.043-1.7576.047-3.5202.067-5.276-.0081-3.1291-.134-5.654-2.4842-5.682-5.5932-.0875-9.7318-.0586-19.4648-.0312-29.1973.0082-2.924,2.0565-4.3934,4.3179-5.6495C135.5443,0,138.3608,0,141.1774,0Z"/><path class="cls-1" d="m62.117,135.0739c.0594,7.5116-6.0326,13.7031-13.5335,13.7544-7.3482.0503-13.6875-6.265-13.7057-13.6538-.0181-7.3499,6.0789-13.4928,13.5192-13.6211,7.485-.1291,13.6602,5.9563,13.72,13.5205Z"/><path class="cls-1" d="m62.1119,93.9534c-.0648,7.5291-6.0529,13.4755-13.5549,13.4606-7.5555-.0151-13.7112-6.1349-13.6757-13.5959.0357-7.5007,6.2429-13.6277,13.7265-13.5491,7.662.0805,13.5697,6.0671,13.5041,13.6845Z"/><path class="cls-1" d="m103.1204,135.1362c.045,7.3989-6.0014,13.5656-13.4316,13.699-7.3679.1323-13.7018-6.0983-13.7775-13.5528-.076-7.4885,5.9498-13.5978,13.5472-13.7348,7.4436-.1342,13.6158,6.0049,13.6618,13.5886Z"/><path class="cls-1" d="m89.4195,107.4114c-7.6202-.105-13.6565-6.2682-13.4958-13.7794.1612-7.5359,6.2031-13.4168,13.7323-13.3667,7.5831.0505,13.6237,6.2354,13.4587,13.7801-.1655,7.5673-6.2127,13.4691-13.6952,13.366Z"/><path class="cls-1" d="m144.0673,93.8313c.0262,7.62-5.9817,13.6098-13.6208,13.5795-7.5064-.0298-13.5202-6.0686-13.5045-13.5607.0159-7.6038,6.0677-13.6235,13.6602-13.5876,7.5443.0356,13.439,5.9757,13.4651,13.5688Z"/><polygon class="cls-1" points="160.6315 109.1875 175.9679 140.2626 210.2613 145.2457 185.4464 169.4343 191.3044 203.5892 160.6315 187.4634 129.9585 203.5892 135.8165 169.4343 111.0016 145.2457 145.295 140.2626 160.6315 109.1875"/></svg>