<?xml version="1.0" encoding="UTF-8"?><svg id="Layer_1" xmlns="http://www.w3.org/2000/svg" viewBox="0 0 239.2417 287.5101"><defs><style>.cls-1{fill:#fff;}</style></defs><path class="cls-1" d="m121.889,178.027c-5.987,0-11.9743-.0357-17.9609.0146-3.1385.0264-4.9004-1.2752-5.1412-4.5406-.7044-9.5522-4.6868-17.7801-10.347-25.3219-2.2859-3.0457-4.5775-6.0907-6.7531-9.2151-11.9127-17.1081-12.0991-39.0188-.5193-56.0734,11.4369-16.8441,32.1493-24.8787,52.0962-20.2088,19.8116,4.6383,34.5534,20.9489,37.4904,41.4234,1.6771,11.6916-.7008,22.5126-7.0903,32.3896-2.8333,4.3799-6.0261,8.5291-9.0969,12.7531-5.2165,7.175-8.7226,15.0013-9.5631,23.9421-.3682,3.9169-1.5097,4.8172-5.4803,4.8406-5.8779.0346-11.7563.009-17.6344.009v-.0125Zm-38.5093-69.2756c-.1359,3.6701,1.1485,5.677,3.7763,5.7255,2.9988.0553,3.7844-1.8509,3.9697-4.4588,1.2236-17.2158,12.4177-28.442,29.8634-29.9383,2.7146-.2328,4.7272-1.1229,4.7994-4.159.0575-2.4187-1.9577-3.8551-5.0814-3.7657-18.5718.5313-35.8058,14.764-37.3275,36.5963Z"/><path class="cls-1" d="m122.0003,182.7977c5.7576,0,11.5155-.0306,17.2728.0115,3.4096.0249,5.4773,1.8162,5.5171,4.6294.04,2.826-2.0035,4.7448-5.399,4.7584-11.7323.0473-23.4651.0453-35.1973-.0154-3.2443-.0168-5.1488-1.8502-5.1791-4.6263-.0313-2.8613,1.9957-4.7145,5.3869-4.7434,5.8658-.05,11.7324-.0139,17.5986-.0141Z"/><path class="cls-1" d="m121.6554,206.4648c-5.6506,0-11.3013.029-16.9516-.0104-3.6189-.0252-5.7189-1.8507-5.688-4.8105.0295-2.8246,2.04-4.6236,5.5218-4.6383,11.6268-.0492,23.2542-.0541,34.881.005,3.4047.0173,5.4188,1.9518,5.3649,4.7993-.0537,2.8413-2.0866,4.608-5.5247,4.6347-5.8675.0455-11.7356.0125-17.6035.0202Z"/><path class="cls-1" d="m178.4586,58.6941c-1.1575-.9562-3.0276-1.7727-3.5141-3.0973-.543-1.4784-.4989-4.0447.4465-5.0554,5.94-6.3502,12.1206-12.4845,18.4087-18.4943,1.8518-1.7699,4.3208-1.5044,6.212.3174,2.0015,1.928,2.3466,4.4431.4398,6.4333-6.0176,6.2807-12.2255,12.381-18.4452,18.4638-.699.6836-1.943.8098-3.5477,1.4326Z"/><path class="cls-1" d="m46.9043,30.3704c1.7476,1.0761,3.1958,1.6499,4.2238,2.6539,5.5232,5.3941,10.9619,10.8754,16.3876,16.3682,2.5414,2.5728,2.7298,5.3457.6417,7.4603-2.0309,2.0568-4.9937,1.9029-7.4887-.5602-5.5718-5.5005-11.0779-11.0674-16.6154-16.6026-1.697-1.6963-2.5946-3.7669-1.2355-5.859.8988-1.3835,2.5995-2.2461,4.0864-3.4605Z"/><path class="cls-1" d="m56.1666,155.2739c-1.0647,1.7651-1.618,3.2232-2.6163,4.2475-5.4651,5.6069-11.01,11.1372-16.5902,16.6303-2.3807,2.3435-5.2319,2.4903-7.2589.5812-2.1654-2.0394-2.096-4.9485.3857-7.4734,5.4887-5.5843,11.064-11.0833,16.5877-16.6334,1.6956-1.7037,3.7713-2.5973,5.8747-1.3691,1.4203.8293,2.3301,2.5327,3.6173,4.017Z"/><path class="cls-1" d="m188.5008,148.4266c1.6994.9615,3.102,1.4211,4.0503,2.3462,5.7606,5.6194,11.4585,11.3049,17.089,17.0548,2.2076,2.2544,2.2142,4.998.3139,6.9935-1.9549,2.0529-4.9247,2.0666-7.2425-.2077-5.7441-5.6366-11.5283-11.2445-16.9866-17.1503-1.1248-1.217-1.5343-3.8417-1.1035-5.5166.3533-1.3735,2.4454-2.2997,3.8793-3.52Z"/><path class="cls-1" d="m126.7576,17.4518c0,3.9143.0646,7.83-.0197,11.7425-.0725,3.3636-1.958,5.3822-4.8175,5.3986-2.8487.0163-4.8541-2.0284-4.8864-5.3491-.0771-7.9366-.0768-15.8751.0036-23.8117C117.0714,2.1031,119.0595.0248,121.8702.0002c2.808-.0246,4.7848,2.0531,4.8643,5.3829.0959,4.0208.0228,8.0456.0231,12.0686Z"/><path class="cls-1" d="m214.9954,115.5254c-3.9017,0-7.8044.0542-11.7048-.0171-3.1362-.0574-5.1917-1.8653-5.3814-4.5366-.1928-2.7153,1.8866-5.2144,5.0583-5.2611,8.3292-.1228,16.665-.0481,24.9932.1536,2.8803.0698,4.6208,2.2699,4.5347,4.9377-.0858,2.6587-1.9169,4.5871-4.8459,4.6796-4.2137.133-8.4348.034-12.6526.034-.0005.0033-.001.0067-.0015.01Z"/><path class="cls-1" d="m28.4897,115.5319c-3.9123,0-7.8255.0554-11.7365-.0168-3.3735-.0623-5.4063-1.9206-5.4454-4.786-.0384-2.8158,2.0781-5.0413,5.2562-5.0658,7.9316-.0612,15.8669-.0549,23.7957.1338,3.8015.0905,5.8957,2.3467,5.4227,5.4264-.449,2.9233-2.3626,4.2862-5.2533,4.3036-4.0126.0242-8.0254.0061-12.0394.0049Z"/><path class="cls-1" d="m103.9741,211.3285h35.6779c.2625,4.9806-3.4226,9.1093-8.6738,9.2803-6.0789.198-12.1747.1924-18.2532-.0155-5.0657-.1733-8.4169-3.8537-8.7509-9.2647Z"/><path class="cls-1" d="m135.9082,270.7898c12.2702-2.2276,24.9187-5.3673,37.7532-6.6585,19.8131-1.9933,39.7533-2.726,59.6404-3.9796,2.1088-.1329,4.1265.2605,4.1544,2.863.0297,2.7699-2.0561,3.1216-4.3068,3.1382-26.2503.1927-52.3707,1.9001-78.1947,6.902-3.7317.7228-7.4154,1.6939-11.0179,3.3592.9415,0,1.8829-.0001,2.8244,0,29.1751.0042,58.3503.0077,87.5254.0161.9105.0003,1.993-.2493,2.6899.1503.9614.5512,2.2799,1.6213,2.2653,2.4482-.0189,1.0667-.9816,2.4915-1.9501,3.0606-.9568.5623-2.4271.313-3.6722.3136-31.6824.0154-63.3648.0167-95.0472.0205-1.3554.0002-2.7108,0-4.3557,0,.1476,4.8834-2.8749,5.1906-6.5669,5.0664-5.8057-.1953-11.6272-.1889-17.4333-.0011-3.4846.1127-5.9232-.5758-5.6454-5.0746-1.5575,0-2.8955,0-4.2335,0-31.1126-.0011-62.2251-.0023-93.3377-.0035-.9117,0-1.8237-.014-2.7351.0014-2.2422.038-4.3228-.3505-4.2634-3.1606.0561-2.6499,2.1011-2.8348,4.1805-2.8328,14.8155.0148,29.631.0045,44.4465.0064,15.0433.002,30.0866.0097,45.1299.0101.539,0,1.078-.0513,1.7662-.7805-2.6766-.6436-5.3391-1.3542-8.032-1.9203-26.2094-5.5093-52.7818-7.2402-79.4853-7.5857-.7976-.0103-1.5955-.0096-2.3932-.0077-2.0781.0049-3.7191-.7171-3.7028-3.0428.0164-2.3324,1.6521-2.9851,3.7473-2.9591,31.5052.3907,62.8534,2.1988,93.5089,10.2976,1.7028.4499,3.3919.9519,5.0874,1.4297.1564-.3568.3127-.7136.4691-1.0704-5.5051-2.8686-10.8628-6.0768-16.5434-8.5407-15.7212-6.819-32.3568-10.1603-49.3284-11.6987-9.6318-.8731-19.335-.9398-28.9976-1.5118-1.3091-.0775-3.1747-.6593-3.6823-1.6008-.5125-.9507-.0318-2.8764.6572-3.9693,10.7517-17.0561,21.6096-34.0452,32.4354-51.0547.671-1.0542,1.092-2.3479,1.9677-3.1693.9001-.8443,2.2286-1.7703,3.3467-1.7424,3.2804.0821,6.612.3561,9.7919,1.1102,1.2713.3015,3.0003,1.9843,3.1045,3.1635.1821,2.0604-1.5471,3.1014-3.7364,2.8475-.2263-.0263-.4698.005-.6788-.0672-5.9882-2.0675-8.9707.9479-11.9363,5.8905-7.9092,13.1821-16.4076,26.0107-24.6665,38.9832-.6063.9523-1.17,1.9318-2.108,3.4861,1.6827.0834,2.9517.1628,4.2219.2067,22.185.7675,44.0964,3.3067,65.1066,10.9149,5.9693,2.1616,11.8476,4.7917,17.3683,7.9131,5.4104,3.0591,10.3122,7.0176,15.62,10.7085.0593-.741.1978-1.683.2004-2.6254.0234-8.5474.0365-17.0948.0203-25.6422-.004-2.0837.1972-4.1191,2.8318-4.1895,2.8163-.0751,3.1775,2.0149,3.1733,4.2518-.0157,8.3195-.0136,16.6389-.0179,24.9584-.0006,1.0975,0,2.1951,0,3.9912,2.2435-1.878,3.9072-3.3475,5.6495-4.7169,13.771-10.8227,29.8375-16.3732,46.6416-20.1674,14.944-3.3742,30.1195-4.8891,45.4104-5.3771,1.245-.0397,2.4923-.0052,4.4541-.0052-.8471-1.4986-1.3735-2.5364-1.9952-3.5138-9.0485-14.2257-18.1919-28.3922-27.0918-42.7101-1.592-2.5612-3.1795-3.0833-5.7732-2.1942-1.2836.44-2.7484,1.0318-3.9702.7784-1.1962-.2481-2.8324-1.3221-3.0834-2.3304-.2395-.9618.8137-3.0505,1.7238-3.3495,3.3259-1.0928,6.8045-1.9508,10.2797-2.2344,1.2083-.0986,2.9957,1.4572,3.8028,2.7163,9.4646,14.7647,18.7914,29.6177,28.1581,44.4452,1.5818,2.504,3.3368,4.9151,4.7122,7.5269.8336,1.5829,1.958,3.9082,1.3578,5.0919-.5697,1.1238-3.2124,1.6503-4.948,1.6602-20.4809.1178-40.7173,2.0983-60.5186,7.5682-10.3672,2.8639-20.2985,6.7823-29.4251,12.5638-.9966.6313-1.9418,1.3438-2.3504,1.6283Z"/></svg>