<?xml version="1.0" encoding="UTF-8"?><svg id="Layer_1" xmlns="http://www.w3.org/2000/svg" viewBox="0 0 274.5542 268.5516"><defs><style>.cls-1{fill:#4a9cd5;}</style></defs><g><path class="cls-1" d="m204.2134,108.4314h-48.541l-17.901-17.846c-2.1416-2.1413-5.601-2.1413-7.7426,0-2.1413,2.1416-2.1413,5.601,0,7.7426l10.1038,10.1034h-69.7918C31.5737,108.4314,0,140.0051,0,178.7722c0,30.4208,19.4933,56.3386,46.6192,66.1128.2199.9334.6043,1.8668,1.3728,2.6356l19.4386,19.4383c1.0983,1.0983,2.5257,1.5926,3.8985,1.5926,1.4277,0,2.8005-.4943,3.8988-1.5926,2.1416-2.1413,2.1416-5.6007,0-7.7423l-10.3782-10.3782c1.8121.1099,3.6243.2745,5.4911.2745h133.8726c38.822,0,70.3408-31.5737,70.3408-70.3408s-31.5188-70.3408-70.3408-70.3408Zm0,129.6994H70.3408c-1.6473,0-3.2945-.1096-4.9418-.2745l9.8289-9.8289c2.1416-2.1416,2.1416-5.601,0-7.7426-2.1416-2.1413-5.656-2.1413-7.7973,0l-15.0455,15.0459c-23.9414-7.6327-41.403-30.0914-41.403-56.5584,0-32.7267,26.632-59.3586,59.3586-59.3586h69.7918l-10.1038,10.1038c-2.1413,2.1416-2.1413,5.601,0,7.7423,1.0433,1.0983,2.4711,1.5926,3.8988,1.5926,1.3728,0,2.8005-.4943,3.8438-1.5926l17.901-17.846h48.541c32.727,0,59.3586,26.632,59.3586,59.3586s-26.6316,59.3586-59.3586,59.3586Z"/><path class="cls-1" d="m225.4639,208.4791c0,3.02-2.4711,5.4911-5.4911,5.4911h-70.8348c-3.0204,0-5.4911-2.4711-5.4911-5.4911,0-13.2337,6.3695-24.9844,16.1984-32.4525.2199.3295.3844.7139.6592,1.0433l1.5373,1.977.2745.1646c1.9767,2.1416,4.2282,4.0633,6.8089,5.8205,4.8322,3.075,9.9938,4.6127,15.3753,4.6127,10.4328,0,19.0539-5.711,24.7645-13.6181,9.4448,7.2483,15.7047,18.5049,16.0342,31.2443.1096.3844.1646.8238.1646,1.2082Z"/><path class="cls-1" d="m205.5312,154.2821c0,11.2567-9.17,24.3804-21.0306,24.3804-3.2399,0-6.4248-.9884-9.4448-2.9104-2.0866-1.3728-4.0084-3.075-5.601-5.1616-.1096-.1096-.1646-.2195-.2745-.2745-3.624-4.6673-5.7106-10.4878-5.7106-16.0339,0-11.5864,9.4445-20.976,21.0309-20.976s21.0306,9.3895,21.0306,20.976Z"/><path class="cls-1" d="m114.797,175.9975c-.2356.3271-.4079.6864-.6542,1.0074l-.4933.6435-.2574.2467c-2.228,2.8045-5.1157,5.3731-8.183,7.2607-4.5822,2.9118-9.8454,4.4883-15.1005,4.4883-10.4117,0-19.0659-5.6885-24.7457-13.587-9.7659,7.4748-16.1076,19.2124-16.1076,32.422,0,3.02,2.4707,5.4911,5.4911,5.4911h70.7798c3.075,0,5.4911-2.4711,5.4911-5.4911,0-.3844,0-.8238-.1096-1.2082-.3506-12.7521-6.6102-24.0308-16.1106-31.2734Z"/><path class="cls-1" d="m90.1089,178.6626c3.1846,0,6.4794-1.0433,9.3346-2.8555,2.1416-1.3178,4.1183-3.13,5.546-4.9967.1649-.1649.2745-.3295.4394-.4944,3.624-4.7222,5.7106-10.5428,5.7106-16.0339,0-11.5864-9.4445-20.976-21.0306-20.976s-21.0309,9.3895-21.0309,20.976c0,11.2567,9.17,24.3804,21.0309,24.3804Z"/></g><polygon class="cls-1" points="137.2108 0 150.7391 27.4112 180.9891 31.8068 159.1 53.1434 164.2673 83.2712 137.2108 69.0468 110.1544 83.2712 115.3217 53.1434 93.4326 31.8068 123.6826 27.4112 137.2108 0"/><polygon class="cls-1" points="219.8976 36.9525 228.957 55.3088 249.2144 58.2523 234.556 72.5407 238.0164 92.7162 219.8976 83.1906 201.7789 92.7162 205.2393 72.5407 190.5809 58.2523 210.8383 55.3088 219.8976 36.9525"/><polygon class="cls-1" points="54.6566 36.9525 63.7159 55.3088 83.9733 58.2523 69.315 72.5407 72.7753 92.7162 54.6566 83.1906 36.5378 92.7162 39.9982 72.5407 25.3398 58.2523 45.5972 55.3088 54.6566 36.9525"/></svg>