<?xml version="1.0" encoding="UTF-8"?><svg id="Layer_1" xmlns="http://www.w3.org/2000/svg" viewBox="0 0 280.2212 280.2212"><defs><style>.cls-1,.cls-2{fill:#4a9cd5;}.cls-2,.cls-3{fill-rule:evenodd;}.cls-3{fill:#4f9dd6;}</style></defs><g><path class="cls-1" d="m148.8365,105.0334c.1883,3.8013-.1672,7.5602-.7765,11.3007-.162.9945-.3124,2.0499-1.6733,1.9766-.9761-.0526-1.344-.962-1.1308-2.4421,1.3104-9.0973,1.2272-18.1649-.9745-27.117-2.141-8.7051-9.9111-15.0836-18.8538-15.9829-12.5001-1.2571-24.0641,8.5568-23.943,22.1391.0192,2.1544.6428,4.2367.9028,6.3635.1355,1.108.1826,2.2356.1995,3.3512.0158,1.0423.0085,2.1175-.1638,3.1483-.1376.8237-.5904,1.495-1.5086,1.4157-.6644-.0574-1.104-.4711-1.2032-1.1273-.0536-.3543-.0088-.7076.0175-1.0619.0361-.4857.0529-.9727.0539-1.4597.0042-2.0094-.2628-4.0052-.5328-5.9923-.152-1.1187-.3054-2.2377-.4126-3.3618-.576-6.0399,1.1414-11.4827,4.705-16.2992,6.4852-8.7656,17.5898-12.2929,27.8388-8.6099,9.2721,3.332,14.64,10.1352,16.3126,19.8382.7941,4.6067,1.3818,9.2342,1.1429,13.9209Z"/><path class="cls-1" d="m159.5034,91.773c.0062.8199-.1861,1.5327-1.1586,1.6065-.9801.0744-1.4494-.5409-1.5871-1.4231-.432-2.7695-.8723-5.5485-1.8501-8.1799-4.7854-12.8785-13.963-20.5511-27.5852-22.4041-10.4896-1.4269-19.6753,1.8853-27.3078,9.1685-4.7699,4.5516-7.8746,10.1497-9.2628,16.6446-.1846.8635-.3516,2.4818-1.4706,2.6409-.4379.0622-.9553-.0979-1.2576-.4267-.3018-.3283-.3625-.7938-.3284-1.2222.0621-.7791.288-1.5736.474-2.3312.1767-.72.3757-1.4346.5967-2.1423.4413-1.4134.9701-2.7994,1.5824-4.1475,1.2034-2.6494,2.7286-5.1512,4.5304-7.4361,1.7816-2.2593,3.8323-4.3056,6.0957-6.0819,2.283-1.7916,4.7816-3.3075,7.4272-4.5005,2.693-1.2144,5.5363-2.0923,8.4455-2.6062.3683-.0651.7377-.1243,1.1079-.1778,11.2597-1.6258,21.1565,1.4504,29.6532,8.9855,7.0458,6.2484,10.6061,14.2843,11.8547,23.4738.0251.1847.0277.3724.0403.5599Z"/><path class="cls-1" d="m131.5034,104.9212c-.0263,5.459-.743,10.9144-2.2293,16.1704-1.4583,5.157-3.6507,10.0902-6.4466,14.6602-.8045,1.3149-1.6579,2.5998-2.5549,3.8534-.6821.9532-1.7651,2.9605-3.1743,1.9536-1.087-.7768-.5274-1.7266.0925-2.5571,3.5158-4.71,6.3343-9.7946,8.2807-15.3514,3.4623-9.8844,4.1414-19.9639,2.052-30.2175-.338-1.6585-1.6722-2.9848-3.3224-3.3437-1.6923-.3681-3.4175.3929-4.429,1.7704-.6881.9371-1.0076,2.0822-.7791,3.2335,1.2318,6.2053,1.3424,12.4205.1372,18.6442-.0706.3647-.0985.7573-.2591,1.0808-.2648.5335-.689,1.0195-1.3347.9904-.6153-.0277-1.169-.405-1.2812-1.0288-.0637-.3541.0111-.7208.0564-1.0727.0588-.4573.1241-.9138.1904-1.3701.1351-.9305.2741-1.8609.3687-2.7966.4338-4.293.3952-8.5707-.4815-12.8207-1.1597-5.6223,2.7171-10.1403,8.0244-9.3848,2.2513.3205,4.2432,1.7963,5.2871,3.8048.616,1.1853.7908,2.5073,1.0137,3.8084.2649,1.5458.4876,3.0996.6337,4.6615.1651,1.7648.2316,3.5403.1551,5.3119Z"/><path class="cls-1" d="m123.6991,52.5605c1.059-.0656,2.1251.0249,3.179.1258.53.0507,1.0614.0994,1.59.1634.3449.0418.7062.1101,1.0074.2927.6131.3716.6697,1.2237.3511,1.8179-.346.6454-1.1417.6737-1.7852.6046-9.8506-1.0582-18.9773,1.0045-27.0884,6.7533-9.8922,7.0112-15.4074,16.6318-16.6471,28.7314-.4057,3.9603.0758,7.8152.7148,11.6912.3087,1.8725.2298,3.7989-.3088,5.6226-.2595.8786-.6198,1.726-1.0615,2.5283-.2354.4277-.4938.8426-.7713,1.2442-.2696.39-.5473.8191-.8813,1.1573-.6069.6147-1.394,1.0477-2.1583.4101-.7426-.6196-.5875-1.4595-.021-2.1415,1.3355-1.6077,2.2664-3.5335,2.4995-5.6234.1202-1.0779.0416-2.1459-.1385-3.2119-.2128-1.2599-.4007-2.5243-.5434-3.7942-.5326-4.7376-.3176-9.5307.8015-14.1718.6252-2.593,1.5179-5.1189,2.6412-7.5376,4.996-10.757,13.0803-18.2419,24.2734-22.3156,3.8957-1.4178,9.2115-2.3504,14.3469-2.3467Z"/><path class="cls-1" d="m166.247,104.7544c.0401,2.0339.0234,4.0696-.0873,6.1011-.0539.9885-.13,1.9759-.232,2.9607-.0882.8509-.1465,1.736-.3477,2.5698-.1788.7409-.6364,1.2009-1.4285,1.1964-.9562-.0054-1.5284-.9864-1.276-2.3874.6329-3.5142.6334-7.0785.6402-10.6088.0112-5.7868-.5952-11.5386-1.7061-17.244-1.2966-6.6594-4.0406-12.5971-8.3123-17.8323-2.044-2.5051-4.4028-4.7485-7.0148-6.6545-2.5962-1.8945-5.4305-3.4499-8.3989-4.6779-.8735-.3613-1.7715-.6524-2.6492-.9997-.7301-.2888-1.2679-.8494-1.036-1.6794.4116-1.4725,2.0025-.8491,3.0279-.5199,1.4994.4815,2.952,1.1026,4.3512,1.8238,3.0866,1.591,6.0204,3.4875,8.685,5.7174,2.5291,2.1166,4.8067,4.5312,6.7485,7.1979,1.9512,2.6796,3.5561,5.603,4.8071,8.6715,1.4028,3.4407,2.3123,7.0299,2.9746,10.6801.8345,4.5993,1.3093,9.2716,1.2861,13.9486-.0029.579-.0133,1.158-.0317,1.7367Z"/><path class="cls-1" d="m123.2246,75.5875c1.0917.0635,2.8354.0825,2.7548,1.6025-.0644,1.2151-1.0264,1.2735-1.9631,1.2491-8.7477-.2274-15.2921,5.8829-16.5143,13.5781-.311,1.9582-.1709,3.8999.1998,5.8471,2.0502,10.7693-.4466,20.4681-6.9941,29.1727-1.3184,1.7528-2.7834,3.393-4.4803,4.8088-.4177.3485-.9627.7229-1.5374.6169-.5605-.1034-1.0778-.6787-1.1528-1.2379-.0818-.6094.3429-1.1242.7602-1.5107.4859-.4499.9658-.9056,1.4325-1.3754,1.8322-1.8445,3.4862-3.8706,4.8475-6.0884,2.7719-4.516,4.5098-9.7102,4.896-14.9992.221-3.0262.0045-6.0742-.573-9.051-2.0455-10.5445,4.5696-20.2215,15.1139-22.2153,1.0976-.2075,2.221-.2782,3.2102-.3976Z"/><path class="cls-1" d="m143.2035,103.9253c-.1696,13.4147-3.1757,25.2258-9.478,36.1555-.2272.394-.5005.8274-.9116,1.0518-.4574.2496-.9754.1169-1.3947-.15-.8886-.5656-.5955-1.5216-.1605-2.2888,2.7356-4.8254,4.9274-9.9421,6.4378-15.2818,1.5323-5.4174,2.4556-11.0095,2.6258-16.6401.0969-3.2052-.0483-6.4172-.4349-9.6005-.2312-1.9035-.5357-3.787-.8892-5.6684-.8185-4.3552-3.0744-7.7602-6.709-10.2695-.9123-.6299-2.4959-1.3885-1.6053-2.7091.2918-.4328.7274-.7011,1.2586-.6248.5426.0779,1.0138.4266,1.4611.7182,1.0842.7066,2.1281,1.4848,3.0454,2.401,2.1032,2.1005,3.7116,4.6522,4.6689,7.4679.5346,1.5723.846,3.2089,1.1092,4.8455.2758,1.7148.4721,3.4415.6213,5.1717.1556,1.8046.2577,3.613.3551,5.4215Z"/><path class="cls-1" d="m122.9687,46.6708c7.4007.0988,14.0993,1.5629,20.466,4.5098.6875.3182,1.632.8059,1.5618,1.7039-.0604.773-.7393,1.4128-1.5211,1.29-.4315-.0678-.8193-.3142-1.2067-.5009-.4512-.2174-.9065-.4264-1.3656-.6265-.9316-.406-1.8791-.7756-2.8403-1.1058-1.0917-.375-2.2009-.6991-3.3232-.9688-14.9864-3.6009-28.493-.611-40.4513,9.1777-2.5803,2.1122-4.8239,4.5413-6.839,7.1885-.4874.6403-1.13,1.4897-2.0319,1.0371-.4017-.2015-.7911-.5605-.8656-1.0226-.0633-.3926.1052-.7826.3007-1.1132.4994-.8445,1.1903-1.6091,1.8164-2.361.657-.789,1.3381-1.5581,2.0431-2.3046,2.7845-2.9482,5.9429-5.5367,9.3919-7.6709,1.9799-1.2251,4.0513-2.3008,6.1878-3.2257,6.0728-2.6289,12.4578-3.8756,18.6772-4.007Z"/><path class="cls-1" d="m154.7493,105.1316c-.0948,9.7515-1.7528,19.2173-5.1576,28.3691-.3776,1.0149-.8876,1.9004-2.1122,1.4207-1.1503-.4506-.9466-1.4591-.5952-2.3914,2.2805-6.0499,3.8237-12.3736,4.5409-18.8004.7125-6.3844.6203-12.8953-.1209-19.2744-.4179-3.5966-1.1584-7.1712-2.5027-10.5428-.626-1.57-1.444-3.0568-2.3644-4.4723-.3724-.5726-.9177-1.1788-1.014-1.8798-.0947-.6898.4975-1.2823,1.1403-1.4303.7609-.1752,1.3387.4867,1.7256,1.047,2.8968,4.1938,4.5237,8.8666,5.2881,13.8791.7115,4.6663,1.1865,9.3484,1.172,14.0756Z"/><path class="cls-1" d="m86.6615,124.1522c-.821-.0174-1.5718-.7254-1.2957-1.5948.137-.4315.5311-.7587.8403-1.071.364-.3676.7413-.7218,1.1082-1.0864,2.5231-2.5071,4.5355-5.526,5.6227-8.9278,1.0796-3.3783,1.206-6.9793.661-10.4687-.2857-1.8296-.5409-3.6478-.6073-5.5012-.0618-1.7267.007-3.4588.2255-5.1731.4237-3.3244,1.4231-6.5606,2.9621-9.5384,1.6187-3.1319,3.8029-5.9438,6.3137-8.4101.3436-.3375.6845-.705,1.0685-.9966.3693-.2805.7486-.6115,1.2006-.749.498-.1515.9303.0657,1.254.4482.3273.3867.5093.871.2848,1.354-.2049.4408-.6141.762-.9723,1.0737-4.6248,4.023-7.641,9.0211-8.9671,14.9922-.9665,4.3519-.4482,8.6941.13,13.073,1.1624,8.803-1.8242,16.1375-8.4374,22.0227-.3972.3535-.8411.5863-1.3916.5534Z"/><path class="cls-1" d="m122.9572,105.0149c.1149-3.4544-.3823-6.5457-.8688-9.636-.0713-.4528-.1483-.9512-.011-1.3992.1474-.4814.5635-.7265,1.0412-.8044,1.1621-.1897,1.5433.8072,1.7231,1.759,2.1703,11.4867.6371,22.486-4.3736,33.0194-1.9345,4.0667-4.3234,7.8476-7.2381,11.2886-.2111.2492-.4118.5088-.6382.7433-.5705.5909-1.2355.9307-1.9796.3624-.4366-.3335-.682-.8324-.5614-1.3823.1362-.621.6432-1.1459,1.0163-1.6378.8736-1.1517,1.7864-2.2741,2.6227-3.4537,5.1653-7.2865,8.1197-15.4028,9.0242-24.277.0852-.8355.1922-1.6703.2347-2.5082.0402-.7921.0086-1.5879.0086-2.0741Z"/><path class="cls-1" d="m171.0159,92.8086c0,.8192.0606,1.6632-.0172,2.4796-.0583.6113-.3234,1.2046-.9646,1.3711-1.8536.4812-1.8287-2.0323-1.8618-3.1899-.4079-14.2856-6.3523-25.7775-17.4786-34.6563-.837-.6679-2.9015-1.7791-1.7803-3.0551.4202-.4782,1.0036-.6603,1.6017-.4115.3315.1379.6231.3724.9148.5778.3258.2294.6484.4634.9675.7019,1.2335.9218,2.4159,1.9124,3.5327,2.9728,8.2213,7.8073,13.0947,17.3572,14.7098,28.5617.2319,1.6084.4585,3.2373.376,4.6479Z"/><path class="cls-1" d="m137.3473,102.8985c0,1.1513.2195,3.1151-1.4678,3.0763-.9732-.0224-1.3457-.7363-1.3575-1.6335-.0252-1.9145-.0885-3.8237-.3015-5.7307-.1679-1.5034-.331-3.0087-.5875-4.5002-.2109-1.2264-.4708-2.4441-.9556-3.5948-.8071-1.916-2.151-3.6015-3.9106-4.7233-3.3874-2.1597-8.2042-1.9914-11.4585.361-1.8697,1.3516-3.1283,3.3622-3.8315,5.5363-.1284.3969-.2764.798-.4865,1.1553-.295.5017-.7785.6259-1.3383.5073-.5725-.1212-.8974-.4725-.9839-1.0406-.0863-.5667.0302-1.1146.1841-1.6578,1.5509-5.4763,6.8928-9.3063,12.8315-9.1982,5.6527.1029,10.9244,4.246,12.1809,9.6509.9009,3.8748,1.2731,7.8253,1.4828,11.7919Z"/><path class="cls-1" d="m114.1447,104.9287c-.1771,11.5458-4.277,21.4611-12.4133,29.6843-.7613.7694-1.6405,1.9373-2.7992.762-1.1759-1.1927.0698-1.9966.8234-2.7702,8.8249-9.0586,12.5234-19.9019,11.3083-32.4541-.0991-1.0232-.0439-1.9758,1.2052-2.1086,1.1586-.1231,1.4342.7213,1.5749,1.7051.2457,1.7186.275,3.441.3008,5.1815Z"/><path class="cls-1" d="m75.5749,95.2304c.0091-8.0051,1.5472-14.818,4.6401-21.2785.4344-.9075,1.0622-2.4139,2.3347-1.8053.7682.3674.9427,1.1076.6416,1.8653-.3966.9981-.889,1.9621-1.2994,2.956-.8154,1.9747-1.5279,3.994-2.0769,6.0595-.3157,1.188-.5772,2.3906-.7745,3.6039-.9457,5.8154-.8644,11.6109.3573,17.3867.2221,1.0501.7695,2.3054-.7884,2.838-.9855.337-1.57-.3604-1.9728-2.3272-.6849-3.3439-1.1297-6.7166-1.0618-9.2985Z"/><path class="cls-1" d="m122.968,64.0464c7.2079.1657,13.2282,2.1426,18.5499,6.1383.8238.6186,2.0376,1.3302,1.1632,2.5789-.9258,1.3221-1.8736.2675-2.7247-.3348-8.5545-6.0544-17.7076-7.202-27.4723-3.3624-.4692.1845-.9928.418-1.5097.3527-.4884-.0617-.8077-.4221-.9774-.8643-.2917-.7603.0995-1.3535.7722-1.7088.8574-.4528,1.791-.8009,2.7043-1.122,1.9014-.6685,3.8766-1.1201,5.8778-1.3568,1.3862-.164,2.7756-.4029,3.6167-.3208Z"/><path class="cls-1" d="m136.9112,112.2309c-.6944,6.1827-2.2423,12.0745-4.6248,17.7481-1.5219,3.6242-3.3413,7.0915-5.5021,10.377-.6131.9322-1.5446,2.3636-2.8108,1.4895-.7539-.5205-.7025-1.2524-.2665-1.9807,1.0782-1.8013,2.2165-3.569,3.2323-5.4047,3.6322-6.5636,5.9172-13.5824,6.9744-21.0055.0909-.6381.1436-1.3332.379-1.938.1557-.4.4487-.7413.8822-.8353.9952-.2158,1.8206.5729,1.7362,1.5495Z"/><path class="cls-1" d="m160.5963,104.4926c-.1755,7.7144-.8742,14.8905-2.7418,21.9179-.0599.2253-.1113.4537-.1863.6739-.2943.8638-.8331,1.656-1.8587,1.3454-.9732-.2948-1.124-1.2327-.8957-2.1115,1.1274-4.3389,2.016-8.7226,2.3845-13.196.3482-4.2266.6974-8.4567.2612-12.7005-.0822-.8001.0328-1.838.8437-2.2484.6326-.3201,1.456.0387,1.7478.6564.1826.3865.1746.8257.2007,1.2431.0318.5092.0614,1.0185.0898,1.5279.0537.9638.1019,1.928.1549,2.8918Z"/><path class="cls-1" d="m91.0414,105.7682c-.2206,4.4553-2.157,9.155-6.1881,12.9205-.6878.6424-1.5639,1.1152-2.3428.326-.3259-.3303-.5489-.7649-.4204-1.2339.1235-.4508.4829-.8142.8103-1.129,4.5035-4.3318,6.0563-9.5646,4.8435-15.6767-.2985-1.5045-.4556-3.0417-.5966-4.5713-.0892-.9668.2335-1.8759,1.3559-1.9104,1.125-.0346,1.466.8523,1.4722,1.8258.0184,2.8607,1.1329,5.5787,1.0661,9.4491Z"/><path class="cls-1" d="m116.7352,121.8424c-.4827,1.6158-1.2144,3.2258-2.0453,4.7914-2.1514,4.0538-4.6809,7.8374-7.9232,11.1175-.7369.7455-1.4917,1.2448-2.3808.3418-.8288-.8418-.3563-1.5961.3161-2.3015,3.9359-4.1289,6.9828-8.8346,9.1304-14.1213.1872-.4607.3709-.9674.7973-1.2628.3684-.2551.8198-.2508,1.2255-.0883.6267.251.9431.7315.88,1.5231Z"/><path class="cls-1" d="m100.5849,115.5026c-.5229,1.5042-1.187,3.0979-2.0922,4.5679-1.7933,2.912-3.8871,5.5795-6.5238,7.7969-.3399.2858-.7208.5873-1.1635.6874-.4783.1081-.9003-.1057-1.2282-.4461-.3221-.3344-.5407-.768-.3909-1.2347.138-.4303.4961-.7678.8238-1.0603,3.1808-2.8392,5.8482-6.2532,7.5167-10.1957.1941-.4587.3371-.971.6918-1.3378.3393-.3509.8048-.4598,1.2761-.3578.7212.1561,1.0798.6847,1.0903,1.5802Z"/><path class="cls-1" d="m146.3344,124.6641c-.3748,1.2765-.7678,2.8594-1.3052,4.3917-.9855,2.81-2.0329,5.5994-3.3401,8.2818-.1018.209-.1711.4359-.2886.6348-.4751.8041-1.1917,1.4466-2.1427.9265-.8671-.4742-.8043-1.3669-.4348-2.1609,1.0571-2.2717,2.038-4.5631,2.8857-6.9224.4808-1.3382.9289-2.6879,1.3524-4.0453.2071-.6635.3447-1.3568.6298-1.9937.2036-.455.5659-.8131,1.0749-.883.4224-.058.933.0563,1.2122.3989.3023.371.3356.9146.3563,1.3715Z"/></g><path class="cls-2" d="m110.9175,211.7267h15.7486c4.3368,0,7.8848-3.5482,7.8848-7.8849v-13.8737c0-13.1385-4.3063-29.2405-26.7996-38.4071l-13.401-5.4607c-20.0855-9.902-33.9061-27.7221-33.9061-54.486,0-13.2672,4.9322-26.7714,13.1304-37.7299,11.2012-14.28,28.6143-23.4548,48.1707-23.4548,15.8437,0,30.0274,6.3083,41.1479,15.902,4.9826,4.2984,8.7295,2.1292,10.3071,1.1432s3.2914-5.0353-1.4994-9.1549c-13.5789-11.6766-30.6337-19.752-49.9556-19.752-34.1343,0-67.3051,25.827-75.7808,57.7617-2.0649,5.9487-.5877,7.9162-.7564,11.057-.152.7838-.2935,1.5692-.4244,2.3572-1.223,4.1012-3.649,8.6185-16.9081,23.6653-7.3752,9.3588,7.6855,8.5662,10.2451,15.8022,1.0284,2.908-2.0097,5.5653-2.2272,8.4771.748,3.7646,3.3453,3.2364,5.1734,4.2431-8.7531,4.9557,2.1626,8.5789,1.5601,15.516-.315,3.6267-5.6007,7.5818,1.5702,13.0563,6.3009,4.8104,43.0871.6287,43.0871,27.1497v6.1884c0,4.3367,3.548,7.8849,7.8849,7.8849h0"/><path class="cls-1" d="m277.4196,224.6943h-11.2094c-1.5494,0-2.8017,1.2529-2.8017,2.8023v24.7024c0,6.0751-5.1356,11.2087-11.2094,11.2087h-25.167c-1.5481,0-2.8017,1.2555-2.8017,2.8023v11.2087c0,1.5468,1.2536,2.8023,2.8017,2.8023h25.167c15.4119,0,28.0221-12.6102,28.0221-28.0221v-24.7024c0-1.5494-1.2536-2.8023-2.8017-2.8023Z"/><path class="cls-1" d="m53.6361,0h-25.614C12.6102,0,0,12.6099,0,28.0221v26.0759c0,1.5491,1.2523,2.8023,2.8023,2.8023h11.2087c1.5455,0,2.8023-1.2533,2.8023-2.8023v-26.0759c0-6.0751,5.131-11.2087,11.2087-11.2087h25.614c1.5481,0,2.8023-1.2565,2.8023-2.8023V2.8023c0-1.5468-1.2543-2.8023-2.8023-2.8023Z"/><path class="cls-1" d="m252.1991,0h-25.167c-1.5481,0-2.8017,1.2555-2.8017,2.8023v11.2087c0,1.5458,1.2536,2.8023,2.8017,2.8023h25.167c6.0738,0,11.2094,5.1336,11.2094,11.2087v26.0759c0,1.5491,1.2523,2.8023,2.8017,2.8023h11.2094c1.5481,0,2.8017-1.2533,2.8017-2.8023v-26.0759c0-15.4122-12.6102-28.0221-28.0221-28.0221Z"/><path class="cls-1" d="m53.6361,263.4078h-25.614c-6.0777,0-11.2087-5.1336-11.2087-11.2087v-24.7024c0-1.5494-1.2569-2.8023-2.8023-2.8023H2.8023c-1.5501,0-2.8023,1.2529-2.8023,2.8023v24.7024c0,15.4119,12.6102,28.0221,28.0221,28.0221h25.614c1.5481,0,2.8023-1.2555,2.8023-2.8023v-11.2087c0-1.5468-1.2543-2.8023-2.8023-2.8023Z"/><path class="cls-3" d="m207.7122,211.7267c-4.2743,2.3146-12.4522,5.257-20.2195,6.9156-14.2622,3.0455-33.1375,4.7228-53.1489,4.7228s-38.887-1.6772-53.1492-4.7228c-7.7673-1.6586-13.7349-3.6137-18.0092-5.9284-1.4411,1.2253-2.2102,2.5076-2.2102,3.8285v21.7797c0,8.6529,32.8482,15.6673,73.3686,15.6673s73.3686-7.0144,73.3686-15.6673v-26.5954Zm-85.8543,25.7326c2.1367,0,3.869,1.7321,3.869,3.869s-1.7322,3.869-3.869,3.869-3.869-1.7322-3.869-3.869,1.7321-3.869,3.869-3.869Zm-21.7477-1.8424c2.1368,0,3.869,1.7322,3.869,3.8691s-1.7321,3.869-3.869,3.869-3.8689-1.7322-3.8689-3.869,1.7321-3.8691,3.8689-3.8691Zm-19.8975-5.8956c2.1367,0,3.869,1.7322,3.869,3.869s-1.7322,3.8691-3.869,3.8691-3.869-1.7322-3.869-3.8691,1.7321-3.869,3.869-3.869Z"/><path class="cls-1" d="m147.5768,141.8342l8.8824-6.7788,7.9655,8.8568c8.0673,0,30.9102.0461,38.7992-.0315,2.0459-.0201,3.6282.5766,5.0346,2.0599,2.8215,2.9756,5.7422,5.8572,8.5646,8.7195.9475-.4152,1.6194-.7218,2.3005-1.0062,6.6542-2.7783,14.0506-1.0985,18.9092,4.2907,4.8498,5.3795,5.6936,13.1799,2.1088,19.4955-3.5212,6.2035-10.6388,9.5619-17.5889,8.2992-10.6882-1.9418-16.7338-13.2503-12.4943-23.2668.3205-.7574.5354-2.0719.1258-2.5462-4.0312-4.6676-8.0467-9.3852-15.3826-7.6939-1.9531.4503-4.0982.068-6.1552.068h-30.9381l-10.1315-10.4664Zm23.4616-23.2686h38.0043c5.0251-10.2255,11.8823-14.222,20.6546-12.045,7.4464,1.848,12.7716,8.7623,12.7086,16.5009-.0636,7.8074-5.6025,14.5994-13.283,16.2881-8.5071,1.8704-15.5029-2.352-19.9938-12.0576h-42.8497l4.7589-8.6865Zm8.1594-25.1587c4.9392,0,9.6674-.4615,14.2676.1089,6.7883.8417,11.8891-1.2659,15.9241-6.6904.973-1.3081,1.4846-2.0631.7204-3.772-3.8659-8.6457.453-18.7532,9.2777-22.143,9.0029-3.4583,18.9263,1.1183,22.0266,10.1584,3.0707,8.9539-1.8462,18.7048-10.8532,21.5165-4.7242,1.4747-9.2353.7942-13.6909-1.5729-1.1949,1.2388-2.2988,2.4548-3.4773,3.5937-9.1255,8.8181-4.6889,7.0375-17.4584,7.216-5.4895.0768-10.9809.0128-16.5845.0128l-.1521-8.4282Zm46.1832,37.8077c4.7067.0509,8.5282-3.6523,8.5706-8.3052.0417-4.5772-3.847-8.4972-8.437-8.5049-4.5414-.0077-8.2914,3.6888-8.3684,8.2489-.0804,4.7662,3.5209,8.5103,8.2349,8.5612Zm-8.2274-54.7563c-.0383,4.7315,3.6974,8.5019,8.3985,8.4766,4.5625-.0245,8.3312-3.7559,8.3895-8.3064.0592-4.6274-3.7997-8.4907-8.4688-8.4785-4.5937.012-8.2819,3.6954-8.3192,8.3082Zm8.265,101.0661c4.6957.0327,8.5484-3.7707,8.5163-8.4075-.0312-4.5208-3.8315-8.3386-8.3441-8.3825-4.565-.0444-8.3864,3.6703-8.4438,8.2079-.0607,4.8018,3.5511,8.5493,8.2715,8.5822Z"/></svg>