<?xml version="1.0" encoding="UTF-8"?><svg id="Layer_1" xmlns="http://www.w3.org/2000/svg" viewBox="0 0 261.0138 257.7266"><defs><style>.cls-1{fill:#4a9cd5;}</style></defs><path class="cls-1" d="m65.9088,173.0045c2.0839-3.2699,4.0937-6.662,6.3365-9.8922,4.4916-6.4694.2006-17.4156-7.4684-18.8219-1.9771-.3625-3.9624-.6817-5.9458-1.0092-5.2984-.8748-8.3376-3.7071-8.1651-9.3623.0368-1.2063-.032-2.4155-.0098-3.6226.222-12.0814-3.2444-16.6119,14.8877-18.793,6.1014-.734,10.5744-12.4506,7.0792-17.5297-1.2544-1.8229-2.4783-3.6725-3.8317-5.4204-3.7405-4.8306-3.3098-9.2283,1.2123-13.283.4488-.4024.8545-.8526,1.2819-1.2789q11.6575-11.6256,25.1697-2.8175c3.982,2.5957,15.4512-2.1116,16.6314-6.8262q4.0773-16.2871,20.7405-16.1769c7.8262.0518,9.9872,1.8676,11.2565,9.4588,1.5411,9.2168,5.236,13.1466,14.1309,14.6391,1.1664.1957,2.6551-.4631,3.7495-1.1289,2.228-1.3555,4.2338-3.0725,6.4376-4.4732,1.5099-.9597,3.2015-2.3301,4.8083-2.3252,8.9941.0275,12.3228,8.1437,17.5818,13.2485,3.6117,3.5058,1.9657,8.3794-1.3525,11.3376-7.0916,6.3221-4.4111,12.7704-.8955,19.1874.8282,1.5117,3.2774,2.5862,5.1677,2.9928,14.5549,3.1313,14.5692,3.0648,14.5773,17.8651.0066,12.0172-.5563,12.6712-12.5705,14.6054-9.4685,1.5243-13.855,12.0848-8.2455,19.8507,7.1394,9.8839,7.0491,10.9132-1.7483,19.7317-1.7056,1.7097-3.4139,3.4167-5.1305,5.1152-3.5505,3.513-7.3856,3.6885-11.4454.9364-.9988-.677-1.9541-1.4179-2.9391-2.1159-6.1068-4.328-12.9766-4.4574-18.7054.355-1.5344,1.2889-1.9808,4.2159-2.3567,6.4853-2.0287,12.2485-3.0493,13.1819-15.5161,13.1783-2.0123-.0006-4.0247-.0134-6.0369.0023-5.6737.0443-9.1475-2.4927-9.8875-8.3263-.1769-1.3946-.5119-2.7687-.7574-4.1552-1.0003-5.6479-7.7966-11.7912-13.4354-11.5738-1.7689.0682-3.589,1.5584-5.1947,2.6731q-11.5201,7.998-21.5354-2.0259c-1.5635-1.5663-3.286-3.0149-4.6161-4.761-1.1782-1.5466-1.9125-3.4315-3.2592-5.9438Zm64.0576-12.491c18.2961-.0026,33.0056-14.6366,33.0451-32.8756.0393-18.1653-14.748-32.9421-32.971-32.9475-18.2661-.0054-33.082,14.7147-33.0879,32.874-.0059,18.1402,14.8346,32.9517,33.0137,32.9491Z"/><path class="cls-1" d="m132.6768,20.0243c0,6.6449.1553,13.4322-.1248,20.2014-.0594,1.4366-1.7074,2.8074-2.6236,4.2085-.6848-1.4093-1.9302-2.8061-1.9621-4.23-.1875-8.3783-.0922-16.7629-.0922-25.8624,5.6534,0,10.6189,0,15.5845,0,15.4695-.0003,30.9393-.0492,46.4084.0387,3.1939.0181,5.3636-.3303,7.0557-3.8474,3.0487-6.3369,9.8024-8.8561,16.2805-7.0977,6.4039,1.7382,10.6753,7.6998,10.3874,14.4977-.2639,6.2316-4.6694,11.7024-10.568,13.1235-6.9129,1.6655-13.1843-1.3918-16.7375-7.6704-.986-1.7422-3.0807-4.0406-4.6943-4.0627-18.8798-.2583-37.765-.1353-56.6487-.08-.5503.0016-1.0995.3664-2.2652.7808Z"/><path class="cls-1" d="m244.2071,130.1407c-7.4558,0-14.0572.1391-20.6448-.1002-1.5986-.0581-3.1518-1.3631-4.7259-2.0947,1.4496-.8708,2.8781-2.451,4.3523-2.4949,8.2289-.2447,16.4687-.1176,25.4284-.1176.1223,2.3855.3196,4.4997.3252,6.6144.0471,17.7178.1125,35.436.0352,53.1534-.0149,3.4232.2665,5.7619,4.1358,7.4862,6.4378,2.8691,9.1006,9.7281,7.3978,16.1617-1.6482,6.2273-7.3436,10.6878-13.7243,10.7486-6.7138.064-12.3657-4.3694-14.0622-11.0306-1.6241-6.3767,1.426-12.6141,7.5377-16.2476,1.6098-.957,3.756-2.865,3.7763-4.3617.2564-18.9079.1685-37.8205.1685-57.717Z"/><path class="cls-1" d="m131.0084,246.0594c-20.5685,0-40.0405.0978-59.51-.0781-4.1634-.0376-6.8394.5463-8.9202,4.9124-2.812,5.9003-9.8891,8.0542-16.0862,6.1694-6.2142-1.89-10.3511-7.596-10.1999-14.0687.1493-6.3932,4.7147-12.0615,10.9195-13.5573,6.2851-1.5152,13.1658,1.0427,15.7407,7.1024,1.829,4.3043,4.3959,4.7987,8.3035,4.7661,16.0865-.1341,32.1748-.0306,48.2624-.0404,1.9572-.0012,3.9144-.1601,6.7541-.2846,0-6.9456-.1683-13.5245.1163-20.0838.0727-1.676,1.5788-3.2898,2.4263-4.9322.7312,1.5475,2.0541,3.0797,2.0945,4.6451.2119,8.2128.0991,16.4339.0991,25.4497Z"/><path class="cls-1" d="m20.3412,123.901c7.5865,0,14.3734-.1206,21.1493.0987,1.4057.0455,2.7705,1.3526,4.1542,2.0783-1.4355.8779-2.8501,2.4728-4.3099,2.5153-8.371.2434-16.7526.1184-25.7909.1184,0-3.9211,0-7.082,0-10.2429-.0002-16.2765-.0408-32.5532.0377-48.8294.0135-2.8085-.3785-4.6454-3.401-6.0918-7.0762-3.3863-10.0281-10.0964-8.1665-16.8589,1.6622-6.0382,7.6468-10.5601,13.9183-10.5166,6.4382.0446,11.952,4.3378,13.7189,10.6817,1.9136,6.8709-1.0178,12.6854-8.1259,16.9503-1.4063.8438-3.0251,2.8019-3.044,4.2656-.2152,16.6756-.1388,33.355-.1403,50.0334-.0001,1.5909,0,3.1819,0,5.7979Z"/><path class="cls-1" d="m80.0012,43.0976c0-2.2078-.0969-4.4207.0202-6.6222.2418-4.5455-.1047-8.0601-5.356-10.4719-5.7075-2.6213-7.57-10.1908-5.5404-16.3057C71.0164,3.9994,76.9891-.1725,83.0008.0055c6.0879.1802,11.7441,4.5483,13.4027,10.3503,1.8029,6.3071-.3665,13.2061-6.2842,16.0422-4.3652,2.092-4.9636,4.878-4.807,8.9779.2373,6.2125.1984,12.4477-.0786,18.6575-.0559,1.2541-1.6945,2.4375-2.6034,3.6535-.8728-1.2504-2.3687-2.4397-2.4983-3.7629-.3505-3.5784-.1201-7.2137-.1309-10.8264Z"/><path class="cls-1" d="m259.6275,79.1897c.0422,6.3332-4.3127,11.998-10.6101,13.8014-6.1083,1.7493-12.9152-.6448-15.9432-6.6302-1.8975-3.7508-4.1782-4.6241-7.9676-4.3968-6.2202.3731-12.4706.4763-18.6987.3164-1.5026-.0386-2.9673-1.553-4.4495-2.3888,1.3999-.9348,2.7589-2.5974,4.2069-2.679,6.421-.3621,12.8729-.4555,19.3029-.2707,3.6165.1039,5.6617-.7653,7.3151-4.4178,2.8407-6.2749,9.8433-8.9535,16.2392-7.1793,6.1909,1.7174,10.5621,7.4241,10.6049,13.8449Z"/><path class="cls-1" d="m42.531,177.6196c-2.411,0-4.8349.1591-7.2301-.0355-4.0878-.3321-6.933.3066-8.9941,4.7966-2.7098,5.9028-9.9107,8.2129-16.018,6.3897C4.134,186.9329-.0664,181.209.0008,174.751c.067-6.4378,4.3698-11.8551,10.7786-13.5706,6.2811-1.6813,12.9133.7576,15.7928,6.7948,1.8062,3.787,4.0728,4.6937,7.8776,4.5368,6.2171-.2565,12.4612-.1987,18.677.0903,1.5375.0715,3.0101,1.5417,4.5125,2.3689-1.4196.9009-2.7733,2.4194-4.272,2.5796-3.5757.3821-7.2198.1232-10.8363.1232,0-.0182,0-.0364,0-.0546Z"/><path class="cls-1" d="m178.9047,228.4541c1.8716.8913,3.3778,1.4749,4.75,2.2856,5.622,3.3215,8.3501,9.9246,6.7057,16.0355-1.6945,6.2971-7.1752,10.5457-13.7149,10.6319-6.5195.0859-12.0177-4.0025-13.9063-10.3406-1.8193-6.1057.4689-13.2623,6.3669-15.9746,4.4395-2.0415,4.969-4.8033,4.7859-8.882-.2609-5.8114-.2928-11.6524.0136-17.4577.0858-1.6255,1.7043-3.1701,2.6197-4.7518.7931,1.5111,2.226,3.003,2.2717,4.5364.2331,7.8168.1076,15.6444.1076,23.9173Z"/></svg>