<?xml version="1.0" encoding="UTF-8"?><svg id="Layer_1" xmlns="http://www.w3.org/2000/svg" viewBox="0 0 260.7888 270.5588"><defs><style>.cls-1{fill:none;stroke:#fff;stroke-width:7px;}.cls-2,.cls-3{fill:#4a9cd5;}.cls-4{fill:#4f9dd6;}.cls-3{fill-rule:evenodd;}</style></defs><path class="cls-3" d="m147.9975,137.9206l-11.8413,2.162c-.6486-4.2809-.7448-8.6766-.2439-13.0899l.0188-.169.0246-.2038.021-.1799.0246-.1937.0256-.1883c.7245-5.5181,2.3757-10.9777,5.0021-16.1384l.0176-.0351.1613-.3124.0195-.0362c2.6932-5.2133,6.2203-9.7919,10.3518-13.6322l.1663-.1545.0844-.078.0817-.0752.1674-.1525.0287-.0246c.7761-.7002,1.5651-1.3762,2.374-2.02l-2.0211-2.3797-7.7878-9.1691c4.0423-3.2658,8.4529-6.0289,13.1232-8.2423,12.4461-5.8944,26.7467-7.8748,40.899-4.9926l.0171.0026.4624.0956.0449.009.0381.0088c7.6518,1.6093,14.7667,4.5404,21.1271,8.5245l.2102.1315.0165.0092.6293.4039c7.309,4.7247,13.4645,10.7884,18.2493,17.7346l.136.1998.1377.2001.0958.1404.0399.0607.1356.2012.135.2025.112.1694.0215.0327.133.2035.1317.2031.1292.2005.0024.0024c1.224,1.9076,2.3562,3.8818,3.3779,5.9095l-.0081.0037c.2329.4633.4606.9314.682,1.3988l-10.8665,5.1472c-.8787-1.8557-1.864-3.6597-2.9531-5.406l-.0239-.0401-.2065-.3277-.0992-.1549-.005-.0085-.105-.162-.1046-.1619-.1063-.1624-.0148-.0236-.0915-.1387-.1069-.161-.1087-.16-.0355-.0543-.0729-.1074-.1089-.1599-.1094-.1587-.1093-.1586-.1107-.1589-.1107-.1589c-.9296-1.3195-1.9201-2.5977-2.9591-3.82-3.1903-3.7566-6.9016-7.0734-11.0307-9.8328l-.4089-.2724-.1094-.0705-.4265-.2733c-2.8724-1.8274-5.9591-3.3978-9.2422-4.6798l.0044-.0118c-.9675-.377-1.9492-.7276-2.9443-1.0499l-.0038.0101c-1.4855-.4823-2.9753-.8965-4.4713-1.2432l-.0188-.0033-.3851-.0881-.2358-.051-.2139-.0465-.2146-.0449c-1.6438-.3415-3.3158-.6084-5.0179-.7964l.001-.0114c-8.4985-.9489-16.9456.1896-24.6848,3.1147l1.1027,2.9246,4.2459,11.2529c-.9688.3661-1.9215.7707-2.8585,1.2144-2.5306,1.199-4.9326,2.6777-7.1524,4.4093l-.0046-.0051c-.815.6368-1.6059,1.3083-2.3737,2.0183l.0006.002-.0532.0473-.1317.1221-.0206.021-.2035.1931-.034.0307-.1289.1235-.0402.0385-.0887.0861-.1124.1093-.0155.0162-.128.1252-.056.0546-.0702.0712-.1265.1273-.002.0011-.1249.1265c-1.504,1.5388-2.9025,3.22-4.1698,5.054-.7837,1.1342-1.4983,2.2947-2.1436,3.4782l-.0263.0502-.1114.2058-.0269.052-.1081.2051-.0273.0533-.107.2058-.0273.0533-.105.2062-.0274.0533-.1025.2075-.0274.0533-.1012.2095c-.5967,1.229-1.1305,2.5053-1.5999,3.8197-.737,2.0636-1.2871,4.1473-1.6543,6.2348l-.0017.0145-.0458.2625-.0027.0219-.0432.2555-.004.03-.0385.2467-.0057.0395-.0351.238-.0071.0471-.0324.2308-.0081.0554-.0293.2218-.0095.0631-.0252.2149-.0014-.0006c-.4177,3.3493-.3718,6.6964.0888,9.9509Z"/><path class="cls-3" d="m208.8525,162.9307l7.6821,9.2678c-3.4157,2.6612-7.2016,4.8972-11.2953,6.6209l-.1569.0662-.1896.0782-.167.0699-.181.0736-.1768.0695c-5.1667,2.0696-10.7357,3.3024-16.5221,3.5385l-.0395.002-.3513.0121-.0411.0007c-5.8647.2035-11.5842-.6311-16.9555-2.3538l-.2163-.0695-.109-.0354-.1056-.0342-.215-.0712-.0357-.0131c-.9905-.3342-1.9661-.6912-2.9234-1.0815l-1.0859,2.9274-4.1831,11.2802c-4.8272-1.9265-9.3958-4.42-13.6126-7.4092-11.2325-7.9679-19.9604-19.4691-24.3754-33.2214l-.0057-.0165-.1435-.4495-.0135-.0438-.0111-.0379c-2.3427-7.4601-3.2696-15.0994-2.9089-22.5963l.0118-.2481-.0004-.0189.0445-.7464c.542-8.6864,2.8162-17.0226,6.5315-24.5958l.1073-.2163.1074-.218.0756-.1525.0333-.0642.109-.217.1104-.2169.0931-.1806.018-.0348.1124-.2156.1123-.2143.1118-.211.001-.0033c1.0644-2.0011,2.2316-3.9546,3.4997-5.8383l.0071.0054c.2902-.4299.5868-.8579.8858-1.2796l9.8081,6.956c-1.1878,1.6751-2.2789,3.4174-3.2687,5.2221l-.0232.0401-.1846.3408-.0867.162-.0048.0087-.0898.1708-.0901.1707-.0894.1721-.0132.0243-.0765.1477-.0881.1721-.0861.1731-.03.0574-.0577.1161-.0863.1731-.0848.1732-.0846.1727-.0848.1748-.0843.1745c-.6956,1.4561-1.3252,2.9459-1.8827,4.45-1.7139,4.6215-2.7897,9.4815-3.1744,14.433l-.0371.49-.0081.1299-.0298.5059c-.1873,3.3995-.0455,6.8601.4434,10.3504l-.0121.002c.1448,1.0278.3195,2.0557.5257,3.0813l.0108-.0017c.3064,1.5317.6745,3.0337,1.1045,4.5081l.0064.0179.112.3789.0708.2305.0642.2093.0657.2092c.5069,1.6009,1.0927,3.1896,1.7619,4.7659l-.0101.0048c3.3324,7.8755,8.4606,14.6843,14.8001,20.0013l2.0106-2.3936,7.7345-9.2112c.7933.6658,1.613,1.2986,2.4583,1.8982,2.2846,1.6201,4.7501,2.9906,7.3464,4.0789l-.002.0067c.954.3989,1.9272.7596,2.9221,1.0819l.0013-.0017.0675.0233.1711.055.028.0077.268.083.0439.0145.1704.052.0533.0162.1188.0354.1501.0443.0217.0057.1717.0499.0752.0223.0962.0264.1732.0482.002.0013.1711.0469c2.0783.5582,4.2289.9546,6.4491,1.1623,1.3724.1279,2.7344.1832,4.0821.1663l.0568-.0017.2342-.0033.0583-.002.2319-.0061.06-.0024.2315-.0077.06-.0024.2315-.0092.0598-.0024.2307-.0121.0601-.0023.2321-.0142c1.364-.0814,2.7384-.2407,4.1143-.4749,2.1601-.3675,4.2465-.9077,6.247-1.6096l.0132-.0054.2514-.0888.0208-.0085.2433-.0874.0283-.0112.2342-.0874.0371-.0142.2248-.0857.0445-.0171.2174-.0844.0519-.0199.208-.0831.0593-.0229.2001-.0831v.0014c3.1252-1.275,6.0216-2.9538,8.6342-4.9488Z"/><path class="cls-3" d="m198.9293,96.8465l3.6985-11.4549c4.0781,1.4544,7.9964,3.4495,11.6473,5.979l.14.0965.1677.1181.1485.1036.1593.1135.1536.1117c4.5185,3.2494,8.5471,7.287,11.8507,12.0428l.0226.0324.199.2899.0226.0344c3.3182,4.8395,5.6828,10.1133,7.1113,15.5699l.0573.2196.0287.1111.0277.1076.0554.2198.0081.037c.2496,1.0151.4718,2.0299.6559,3.0472l3.0527-.6546,11.7626-2.5221c.9648,5.1067,1.3117,10.2994,1.0518,15.4615-.6964,13.7533-5.7185,27.289-14.9539,38.3929l-.0105.0138-.3027.3621-.0296.0348-.0257.0296c-5.0382,5.9797-10.9872,10.8606-17.5064,14.5788l-.2157.1231-.0158.0101-.6537.3631c-7.6207,4.2034-15.8749,6.7572-24.2586,7.6855l-.2402.0254-.2413.0267-.169.0179-.0723.0064-.2415.0243-.2423.023-.2025.0186-.0388.0037-.2424.021-.2408.0199-.238.0189-.0033.001c-2.2596.1755-4.5344.2389-6.8041.1792l.0004-.0087c-.5183-.0139-1.0384-.0348-1.555-.0608l.607-12.0082c2.0507.1036,4.1065.089,6.1603-.0439l.0465-.002.3863-.027.1833-.0138.0101-.0007.192-.0158.1923-.0155.1935-.0169.0276-.002.1657-.0149.1924-.0179.1923-.0202.0645-.0054.1292-.0136.1924-.0199.1913-.0215.1914-.0213.1926-.0223.1927-.0223c1.6019-.1948,3.1966-.4626,4.7652-.7994,4.8191-1.0333,9.4973-2.7331,13.8819-5.0652l.4332-.2315.1138-.0627.4431-.2467c2.9689-1.6657,5.8129-3.6419,8.4958-5.9275l.0083.0094c.7898-.6738,1.5632-1.3727,2.3181-2.0969l-.0075-.0081c1.1281-1.0806,2.1978-2.1971,3.2113-3.3509l.0118-.0149.2595-.298.1565-.1836.1424-.1663.1411-.1677c1.0789-1.2868,2.1051-2.6336,3.0759-4.0438l.0098.0061c4.8573-7.0376,7.8512-15.0181,8.9365-23.2203l-3.0984-.4124-11.9226-1.5843c.136-1.0265.2301-2.0575.2824-3.0928.1414-2.7968-.0246-5.6126-.4998-8.3871l.0068-.002c-.1751-1.0192-.3929-2.0339-.6546-3.0462h-.0024l-.0165-.0695-.0452-.1738-.0088-.0281-.0736-.2706-.0111-.0445-.0476-.1718-.0151-.0539-.0338-.1192-.0432-.1501-.0067-.0217-.05-.1718-.0215-.0752-.0294-.0955-.0523-.1718v-.0024l-.0524-.1698c-.6442-2.0531-1.4632-4.0808-2.4793-6.0651-.6287-1.2269-1.3127-2.4057-2.05-3.5341l-.0321-.0469-.1282-.1957-.0331-.048-.1295-.1926-.034-.0493-.131-.1913-.034-.0493-.132-.1904-.034-.0493-.1343-.1882-.0342-.0493-.1363-.1883c-.8005-1.1071-1.6724-2.1816-2.6082-3.217-1.4693-1.6258-3.0445-3.0962-4.7098-4.4075l-.0118-.0085-.2099-.1643-.018-.0132-.2044-.1586-.0246-.0179-.1995-.1506-.0317-.0239-.193-.1435-.0386-.0287-.1879-.1376-.0446-.0335-.1815-.131-.0513-.0377-.1775-.1242.0014-.0011c-2.753-1.9528-5.7233-3.496-8.8086-4.6302Z"/><path class="cls-3" d="m162.3626,132.6553c0-12.9107,10.5301-23.4407,23.4407-23.4407s23.4407,10.53,23.4407,23.4407-10.5301,23.4407-23.4407,23.4407-23.4407-10.5301-23.4407-23.4407Zm31.413-1.1466c3.7576,0,6.8222-3.0647,6.8222-6.822s-3.0646-6.822-6.8222-6.822-6.822,3.0646-6.822,6.822,3.0646,6.822,6.822,6.822Z"/><path class="cls-2" d="m258.7084,197.3549h-8.3237c-1.1506,0-2.0804.9304-2.0804,2.0809v18.3433c0,4.5112-3.8135,8.3232-8.3237,8.3232h-18.6882c-1.1496,0-2.0804.9323-2.0804,2.0809v8.3232c0,1.1486.9309,2.0809,2.0804,2.0809h18.6882c11.4444,0,20.8083-9.364,20.8083-20.8083v-18.3433c0-1.1506-.9309-2.0809-2.0804-2.0809Z"/><path class="cls-2" d="m239.9805,30.504h-18.6882c-1.1496,0-2.0804.9323-2.0804,2.0809v8.3232c0,1.1479.9309,2.0809,2.0804,2.0809h18.6882c4.5102,0,8.3237,3.812,8.3237,8.3232v19.3632c0,1.1503.9299,2.0809,2.0804,2.0809h8.3237c1.1496,0,2.0804-.9306,2.0804-2.0809v-19.3632c0-11.4446-9.364-20.8083-20.8083-20.8083Z"/><path class="cls-4" d="m176.3204.0085c6.2441.0002,12.4882-.0236,18.7322.0077,5.076.0254,8.8303,3.2116,9.659,8.1416.1004.5973.105,1.2156.1053,1.8242.0052,12.3502.0079,24.7005.0008,37.0507-.0034,5.9089-4.0647,10.0058-9.9576,10.0129-12.3863.0149-24.7727.0162-37.159-.0007-5.8336-.008-9.9134-4.115-9.9172-9.9484-.008-12.3842-.0074-24.7683-.0003-37.1525.0034-5.8656,4.0292-9.91,9.9065-9.9308,6.2101-.022,12.4202-.0049,18.6304-.0047Zm-20.5875,28.4479c0,5.5768-.004,11.1535.0018,16.7303.0027,2.5482,1.3647,3.9138,3.9189,3.9151,11.0785.0055,22.157.0049,33.2356.0006,2.6302-.001,3.9774-1.3482,3.9783-3.9739.0037-11.0766.0034-22.1532.0002-33.2298-.0008-2.605-1.2874-3.9431-3.8627-3.9459-11.1554-.0122-22.3109-.013-33.4664.0013-2.5035.0032-3.8013,1.358-3.8039,3.8874-.0056,5.5383-.0017,11.0766-.0018,16.615Z"/><g><path class="cls-1" d="m181.0336,26.5607c-2.8697-2.8734-5.7414-5.7447-8.6133-8.616-1.2131-1.2128-2.8496-1.2325-4.0734-.0283-1.2404,1.2205-2.4732,2.449-3.6904,3.6925-1.2167,1.243-1.2204,2.8393.0156,4.0796,4.8869,4.9039,9.7815,9.8002,14.6866,14.6859,1.2495,1.2446,2.8817,1.2606,4.1271.0176,9.3656-9.3473,18.7215-18.7045,28.0695-28.0694,1.0721-1.074,1.16-2.6158.1341-3.7413-1.2907-1.4159-2.6506-2.7774-4.068-4.0663-1.2573-1.1434-2.6965-1.0368-3.8833.1485-5.4281,5.4213-10.8513,10.8476-16.2755,16.2729-1.9971,1.9976-3.9921,3.9973-6.0607,6.0689-.1529-.1861-.2498-.3261-.3682-.4447Z"/><path class="cls-4" d="m181.0336,26.5607c-2.8697-2.8734-5.7414-5.7447-8.6133-8.616-1.2131-1.2128-2.8496-1.2325-4.0734-.0283-1.2404,1.2205-2.4732,2.449-3.6904,3.6925-1.2167,1.243-1.2204,2.8393.0156,4.0796,4.8869,4.9039,9.7815,9.8002,14.6866,14.6859,1.2495,1.2446,2.8817,1.2606,4.1271.0176,9.3656-9.3473,18.7215-18.7045,28.0695-28.0694,1.0721-1.074,1.16-2.6158.1341-3.7413-1.2907-1.4159-2.6506-2.7774-4.068-4.0663-1.2573-1.1434-2.6965-1.0368-3.8833.1485-5.4281,5.4213-10.8513,10.8476-16.2755,16.2729-1.9971,1.9976-3.9921,3.9973-6.0607,6.0689-.1529-.1861-.2498-.3261-.3682-.4447Z"/></g><path class="cls-4" d="m172.6296,207.6762c6.8826.0002,13.7653-.026,20.6478.0085,5.595.028,9.7333,3.54,10.6468,8.9742.1107.6584.1157,1.3399.116,2.0107.0057,13.6132.0087,27.2264.0008,40.8396-.0038,6.5132-4.4804,11.029-10.9759,11.0368-13.653.0164-27.306.0179-40.9589-.0008-6.4301-.0088-10.9272-4.5358-10.9314-10.9657-.0088-13.6506-.0082-27.3012-.0003-40.9518.0037-6.4654,4.4413-10.9234,10.9196-10.9464,6.8451-.0243,13.6904-.0054,20.5356-.0052Zm-22.6929,31.3571c0,6.1471-.0045,12.2941.002,18.4411.003,2.8087,1.5042,4.314,4.3196,4.3154,12.2114.0061,24.4229.0054,36.6343.0007,2.8992-.0011,4.3842-1.4861,4.3852-4.3803.0041-12.2093.0038-24.4186.0002-36.6279-.0008-2.8714-1.4191-4.3463-4.2577-4.3494-12.2962-.0135-24.5925-.0143-36.8887.0014-2.7595.0035-4.1901,1.4969-4.1929,4.2849-.0062,6.1047-.0019,12.2094-.0019,18.314Z"/><g><path class="cls-1" d="m177.8249,236.9437c-3.1631-3.1673-6.3286-6.3322-9.4941-9.497-1.3371-1.3368-3.141-1.3585-4.49-.0312-1.3672,1.3453-2.7261,2.6994-4.0678,4.0701-1.3411,1.3702-1.3452,3.1297.0171,4.4968,5.3867,5.4054,10.7818,10.8024,16.1885,16.1878,1.3773,1.3719,3.1764,1.3895,4.5492.0194,10.3234-10.3032,20.636-20.6172,30.9399-30.9399,1.1817-1.1838,1.2786-2.8833.1478-4.1239-1.4226-1.5607-2.9217-3.0614-4.484-4.4822-1.3859-1.2603-2.9722-1.1428-4.2804.1637-5.9832,5.9757-11.961,11.9569-17.9399,17.937-2.2014,2.2018-4.4003,4.4061-6.6805,6.6896-.1686-.2051-.2753-.3595-.4058-.4902Z"/><path class="cls-4" d="m177.8249,236.9437c-3.1631-3.1673-6.3286-6.3322-9.4941-9.497-1.3371-1.3368-3.141-1.3585-4.49-.0312-1.3672,1.3453-2.7261,2.6994-4.0678,4.0701-1.3411,1.3702-1.3452,3.1297.0171,4.4968,5.3867,5.4054,10.7818,10.8024,16.1885,16.1878,1.3773,1.3719,3.1764,1.3895,4.5492.0194,10.3234-10.3032,20.636-20.6172,30.9399-30.9399,1.1817-1.1838,1.2786-2.8833.1478-4.1239-1.4226-1.5607-2.9217-3.0614-4.484-4.4822-1.3859-1.2603-2.9722-1.1428-4.2804.1637-5.9832,5.9757-11.961,11.9569-17.9399,17.937-2.2014,2.2018-4.4003,4.4061-6.6805,6.6896-.1686-.2051-.2753-.3595-.4058-.4902Z"/></g><path class="cls-2" d="m135.4524,108.0364l-12.6874,9.6826-11.3777-12.6509c-11.5232,0-44.1513-.0658-55.4199.045-2.9223.0287-5.1825-.8237-7.1913-2.9423-4.0301-4.2503-8.202-8.3663-12.2335-12.4547-1.3534.5931-2.3131,1.031-3.286,1.4372-9.5048,3.9685-20.0695,1.5691-27.0094-6.1287-6.9273-7.6839-8.1326-18.8258-3.0121-27.8469,5.0296-8.861,15.1962-13.658,25.1236-11.8544,15.2668,2.7737,23.9022,18.9264,17.8465,33.2337-.4579,1.0818-.7647,2.9595-.1797,3.6369,5.7581,6.667,11.4937,13.4055,21.9722,10.9898,2.7898-.6431,5.8538-.0972,8.792-.0972h44.1912l14.4716,14.9499Zm-10.5814,33.2363H47.656c-7.1777,14.6058-16.9723,20.3143-29.5026,17.2047C7.5172,155.8378-.0893,145.9616.0008,134.9079c.0909-11.1519,8.0025-20.8535,18.973-23.2655,12.1513-2.6716,22.144,3.3595,28.5587,17.2228h75.2826l2.056,12.4075Zm15.3056,35.936c-7.0551,0-63.3925-.6779-70.2703-.1555-11.5118.0487-16.982,1.8082-22.7455,9.5563-1.3898,1.8684-2.1205,2.9469-1.0291,5.3878,5.522,12.3493-.647,26.7866-13.252,31.6285-12.8596,4.9397-27.0338-1.5973-31.4622-14.5101-4.3861-12.7895,2.637-26.7175,15.5024-30.7336,6.7479-2.1065,13.1914-1.1344,19.5557,2.2466,1.7068-1.7695,3.2835-3.5064,4.9669-5.1331,13.0346-12.5956,6.6976-10.0521,24.9371-10.3072,7.841-.1097,58.4828-.0184,66.4868-.0184l7.3101,12.0386ZM24.3189,123.2052c-6.7229-.0727-12.1815,5.2168-12.242,11.8629-.0596,6.5379,5.4949,12.1371,12.0513,12.1483,6.4868.011,11.8433-5.269,11.9532-11.7825.1149-6.808-5.0291-12.1559-11.7625-12.2287Zm11.7518,78.2126c.0547-6.7583-5.2813-12.1439-11.9962-12.1078-6.517.035-11.9002,5.3649-11.9834,11.8647-.0846,6.6096,5.4274,12.1279,12.0966,12.1104,6.5615-.0172,11.8297-5.2784,11.883-11.8673ZM24.2652,57.0574c-6.7073-.0467-12.2103,5.3859-12.1645,12.0091.0446,6.4574,5.4729,11.9107,11.9185,11.9734,6.5205.0634,11.9789-5.2425,12.0609-11.7239.0867-6.8588-5.0723-12.2116-11.8149-12.2585Z"/></svg>