<?xml version="1.0" encoding="UTF-8"?><svg id="Layer_1" xmlns="http://www.w3.org/2000/svg" viewBox="0 0 282.6599 257.7903"><defs><style>.cls-1{fill:#4a9cd5;}</style></defs><path class="cls-1" d="m114.9316,138.5639c1.3868,0,2.4262,0,3.4656,0,32.3621-.0003,64.7243-.0007,97.0864-.0006.7074,0,1.415-.0074,2.122.0096,4.2974.1034,6.0706,1.9007,6.0078,6.2778-.3588,25.0194-8.2513,47.4866-23.4777,67.2117-18.8016,24.3566-43.3558,39.6601-73.8374,44.3418-32.8191,5.0407-62.0637-3.7178-87.1522-25.4246C17.697,212.4215,4.6214,188.7523,1.1124,160.6356c-5.787-46.3693,11.0729-83.3178,48.9958-110.3135,17.0574-12.1425,36.4876-17.9549,57.4342-18.4885,5.6605-.1442,7.3874,1.6141,7.3878,7.4026.0023,31.7234.0013,63.4469.0014,95.1703v4.1574Zm55.4733,10.9563c-.5648,20.5471-4.1521,40.1974-11.9034,59.0689.7073.2754,1.2698.5102,1.8428.7151,6.3055,2.255,12.6428,4.426,18.8981,6.8128,1.5621.596,2.4406.4892,3.614-.72,13.8133-14.2338,23.2136-30.8842,27.3546-50.3531,1.0708-5.0343,1.4983-10.206,2.251-15.5237h-42.057Zm-54.732.0185v52.745c10.9772,1.1176,21.7292,2.2123,32.6256,3.3218,7.7196-17.7569,11.2669-36.5041,11.7233-56.0668h-44.3489Zm-104.1858-.0046c0,1.8335-.1277,3.3444.0192,4.828,2.1252,21.4635,10.0187,40.5356,23.7062,57.1899,3.9453,4.8004,3.9293,4.7437,9.7682,2.746,5.6648-1.9382,11.3731-3.7484,17.2118-5.6639-8.2731-18.839-11.8064-38.6466-12.4552-59.1001H11.487Zm49.1484-.0408c.6057,19.7411,4.0226,38.5878,11.8681,56.2347,10.7221-1.0976,21.0533-2.1551,31.4389-3.2183v-53.0164h-43.307Zm-49.311-11.1858h39.0092c.4907-19.972,4.3723-39.014,11.8542-57.2559-6.7379-2.354-13.3372-4.5632-19.8518-6.9999-1.7451-.6527-2.7496-.5349-4.0549.861-11.201,11.9782-19.076,25.8343-23.5394,41.611-2.0003,7.0704-3.313,14.2755-3.4173,21.7838Zm92.6807-51.2725c-.4401-.1326-.7636-.2834-1.1002-.3238-9.4702-1.1362-18.9469-2.2202-28.4077-3.4292-1.545-.1974-2.1517.2809-2.7273,1.6367-5.1197,12.0587-8.3642,24.616-9.9286,37.6014-.6302,5.231-.9032,10.5053-1.3492,15.8854h43.5131v-51.3705Zm39.3939,128.9244c-9.7014-.9379-18.9233-1.8295-28.3162-2.7376v32.866c3.8185.3607,7.3008.4356,9.7397-3.1742,1.1305-1.6733,2.6593-3.0709,3.9376-4.6505,5.4513-6.7362,10.2233-13.9195,14.6389-22.3037Zm-39.4091-139.8407v-32.5199c-5.3516-.7918-6.7342-.5197-9.8295,3.4229-3.705,4.7192-7.2163,9.6137-10.4927,14.6409-2.322,3.563-4.1152,7.4721-6.3964,11.693,9.2427.9558,17.8352,1.8444,26.7186,2.7631Zm-26.6884,139.8591c5.6572,10.5155,11.8944,19.4557,19.2253,27.6699,2.118,2.3732,4.4563,2.8387,7.4424,2.4489v-32.9023c-8.8922.9282-17.5323,1.83-26.6678,2.7836Zm3.2676,26.2692c-4.1885-6.9846-8.4561-13.7785-12.3516-20.7803-1.2835-2.3069-2.3783-2.8759-4.8163-1.9842-4.8793,1.7846-9.8591,3.293-15.2364,5.0597,10.0273,8.2309,20.7023,13.9327,32.4043,17.7048Zm92.0437-17.7495c-6.0379-1.9469-11.5607-3.6947-17.0576-5.5207-1.611-.5351-1.9068.592-2.4892,1.5838-3.4423,5.8625-6.9114,11.7092-10.3999,17.5442-.6817,1.1402-1.4884,2.2053-2.5832,3.8128,12.1064-3.9417,22.457-9.6436,32.5299-17.4201ZM48.571,65.1454c5.8692,1.7507,11.1878,3.2813,16.4647,4.945,1.5955.503,1.9343-.4662,2.5318-1.4924,3.5978-6.1787,7.2461-12.328,10.8719-18.4904.3197-.5434.5994-1.1105,1.2187-2.2654-11.5813,3.9927-21.4858,9.5383-31.0872,17.3032Z"/><path class="cls-1" d="m198.2326,0c1.9713.1881,3.9451.3541,5.9137.5677,16.9554,1.84,31.8756,8.0922,43.7825,20.5876,7.1906,7.5459,11.7874,16.4901,12.9978,26.9287,1.4577,12.5714-2.1117,23.7782-9.9832,33.572-9.2347,11.49-21.4824,18.2006-35.6499,21.5024-15.4734,3.6061-30.6967,2.5564-45.5805-3.1052-.5496-.2091-1.3321-.1419-1.8975.077-8.449,3.2716-16.8795,6.5907-25.3152,9.8965-.2659.1042-.5408.1854-1.1481.3917,3.1065-7.4002,6.1072-14.5486,8.9458-21.3105-3.247-3.8265-6.5588-7.2925-9.3609-11.1305-4.6212-6.3297-7.3142-13.5024-8.1251-21.3393-.023-.222-.1636-.4318-.2494-.6473,0-2.5406,0-5.0812,0-7.6218.085-.2156.2247-.4257.247-.6476,1.1052-10.9734,5.8815-20.2116,13.5324-27.9754,11.4688-11.6381,25.7099-17.3846,41.7355-19.1737C189.9942.3583,191.9158.1897,193.835,0c1.4658,0,2.9317,0,4.3975,0Zm-45.2659,99.1339c4.8761-1.9229,9.457-3.6711,13.9833-5.5508,1.3134-.5455,2.4202-.5632,3.7298-.027,14.4736,5.926,29.3489,6.9167,44.4714,3.1263,12.44-3.118,23.2873-9.111,31.1897-19.4513,9.522-12.4595,11.3856-26.0727,4.7087-40.4307-5.0273-10.8107-13.6307-18.1843-24.1655-23.3286-14.4449-7.0537-29.6556-8.7081-45.3418-5.491-12.8555,2.6365-24.1818,8.3074-32.7503,18.4835-10.1479,12.0519-12.7778,25.6004-6.8222,40.41,3.0968,7.7007,8.4019,13.7774,14.9415,18.7967.9333.7163,1.2499,1.2585.6894,2.4798-1.6033,3.4934-3.0052,7.0792-4.6341,10.983Z"/><path class="cls-1" d="m274.3085,132.3263c-5.8522-2.3034-11.3932-4.4445-16.8955-6.6808-1.2213-.4964-2.2332-.4896-3.4666-.005-12.5933,4.9478-25.3835,5.867-38.3577,1.5873-7.6747-2.5316-14.3567-6.7269-20.5125-12.5847.8732,0,1.4084-.0043,1.9435.0006,14.6826.1351,28.5434-3.0873,41.3722-10.3182,11.1274-6.2719,20.0998-14.7515,26.137-26.1366,2.4837-4.6838,4.213-9.6357,5.224-14.8394.0523-.269.1305-.5329.5901-1.0022,1.9169,2.4853,3.9709,4.8781,5.723,7.4747,3.9507,5.8549,6.3638,12.304,6.5783,19.421.2817,9.3457-3.286,17.2033-9.6483,23.8868-1.2434,1.3062-2.5589,2.5607-3.9581,3.6947-.7474.6058-.7231,1.0831-.3952,1.8496,1.7251,4.032,3.41,8.0811,5.1041,12.1263.1646.393.2957.7999.5617,1.526Z"/><path class="cls-1" d="m215.7419,52.5896c-.1193-4.4654,3.4131-8.211,7.8491-8.3231,4.542-.1148,8.3244,3.4526,8.4145,7.9361.0917,4.5603-3.4357,8.2947-7.9462,8.4126-4.4941.1175-8.1953-3.4538-8.3174-8.0256Z"/><path class="cls-1" d="m178.0659,52.5328c-.0264,4.4525-3.6655,8.0773-8.1151,8.0832-4.5181.006-8.1522-3.6579-8.1345-8.2012.0178-4.5666,3.6336-8.1701,8.1768-8.149,4.5152.021,8.1,3.692,8.0728,8.267Z"/><path class="cls-1" d="m205.0374,52.372c.0307,4.5384-3.6048,8.2342-8.1094,8.2439-4.4663.0097-8.1116-3.5938-8.1402-8.0468-.0295-4.5912,3.5287-8.2792,8.0109-8.3031,4.5459-.0242,8.2081,3.5789,8.2387,8.1059Z"/></svg>