<?xml version="1.0" encoding="UTF-8"?><svg id="Layer_1" xmlns="http://www.w3.org/2000/svg" viewBox="0 0 291.3059 199.6395"><defs><style>.cls-1{fill:#4a9cd5;}.cls-2{fill:none;stroke:#fff;stroke-width:10px;}</style></defs><path class="cls-1" d="m219.4497,170.3028c-4.2975-12.5451-8.5937-25.0907-12.8933-37.635-.997-2.9087-2.1426-5.7747-2.9779-8.7288-1.4229-5.0322-2.6542-10.1186-4.1459-15.8769-7.1625-.0776-15.1343.2023-22.7576,3.1558,1.2984-6.1662,3.1975-12.1888,3.7155-18.3281.834-9.8835,1.1097-19.8492.9618-29.7703-.1396-9.3597-.9725-18.6982,1.3403-27.9225,4.42-17.6282,21.4115-29.1549,38.7057-26.0561,2.7258.4884,5.6283,1.402,7.846,2.9713,3.0273,2.1422,6.0543,3.1656,9.7329,3.4543,7.728.6066,12.8699,5.2137,16.0402,12.0004,5.0588,10.8296,5.3678,22.369,4.5841,34.0132-.5283,7.8491-1.279,15.6145,1.3607,23.3736,1.9297,5.6724,5.1534,9.938,10.5772,13.102-4.6716,3.8729-9.4907,6.7465-15.3626,7.6326-5.548.8372-11.0845,1.7507-16.2408,2.5695-2.5753,17.0208-10.1248,32.5166-15.0679,48.7925-1.3721,4.5176-3.0001,8.9573-3.8069,13.7951.7845-.8854,1.6012-1.7445,2.3484-2.6603,5.8375-7.155,11.7558-14.2474,17.4392-21.5231,2.01-2.5731,3.964-3.7551,7.429-3.2557,5.8834.848,6.394-.0263,4.5077-5.6372-1.2546-3.7319-2.5827-7.4414-3.7204-11.2085-.2737-.9063.0777-2.0014.1416-3.0096.9125.0841,1.9472-.0835,2.7186.291,8.1905,3.9763,16.4024,7.9174,24.4778,12.119,5.6355,2.9321,9.3491,7.7302,10.7283,13.9003,1.609,7.1982,2.66,14.5199,4.0216,21.7751.5622,2.9954-.3754,4.3235-3.5973,4.3198-45.072-.0519-90.1442-.053-135.2162-.0005-3.124.0037-4.3034-1.1427-3.7283-4.2182,1.3567-7.2554,2.4471-14.568,4.0442-21.7689,1.4344-6.4677,5.388-11.3086,11.2964-14.3264,7.8876-4.0286,15.8563-7.9,23.8315-11.7535.872-.4213,2.0157-.2804,3.0334-.4002.0526,1.0363.4015,2.1667.1073,3.0927-1.3776,4.3361-2.9792,8.6004-4.4088,12.9208-1.1116,3.3593-.2953,4.7582,3.1383,3.9962,5.2878-1.1736,8.07,1.3193,10.9414,5.1367,5.0292,6.686,10.4865,13.0504,15.7778,19.5386.7523.9225,1.5797,1.7838,2.3723,2.6734.235-.1813.47-.3627.705-.544Zm32.7227-.0471c2.9534,0,5.925.1854,8.8501-.1021,1.0028-.0986,1.8892-1.381,2.8287-2.1225-.9187-.7762-1.8138-2.1887-2.7601-2.224-5.6527-.2107-11.3223-.2254-16.9733.0069-1.0377.0426-2.0164,1.5206-3.0224,2.336.9851.7043,1.9166,1.9025,2.9657,2.0163,2.6758.2903,5.404.0967,8.1113.0895Z"/><g><g><path class="cls-2" d="m49.1707,61.2932c-2.1786-8.8051-3.318-18.4596-1.6634-28.2454,1.2753-7.542,4.1555-14.0027,12.1556-16.7431.7573-.2594,1.4311-.9773,1.9707-1.6262C73.0173.9896,87.8631-2.9968,104.1555,2.184c17.1525,5.4544,29.8349,17.0554,33.7043,35.3037,1.6631,7.8432.0876,16.3732-.0226,25.0701,3.606.6902,4.7694,4.1908,4.0667,8.2663-1.4451,8.3801-1.9397,17.1551-9.0853,23.4545-1.2473,1.0996-1.4851,3.3956-2.0802,5.1755-5.4717,16.3656-15.7071,27.7428-33.1848,31.2776-7.4968,1.5162-14.4925-.552-20.9928-4.2474-11.2095-6.3726-18.107-16.0999-21.8228-28.318-.5476-1.8005-1.8538-3.4007-2.946-5.0002-5.5124-8.0728-8.4074-16.9301-7.3075-26.7091.1828-1.6257,2.6387-2.9958,4.6861-5.1638Z"/><path class="cls-2" d="m59.7648,126.3135c6.5729,20.7355,13.0322,41.1127,19.564,61.7182,7.666-2.826,15.0842-5.5607,22.9976-8.4779,1.1339,2.9244,2.2089,5.697,3.2839,8.4696.3432.0651.6864.1302,1.0296.1953,6.4871-20.4075,12.9743-40.815,19.5997-61.6576,4.4886,2.5336,8.5785,5.2812,13.0135,7.252,8.6332,3.8364,17.2189,8.1183,26.2679,10.5945,11.163,3.0547,18.8074,8.8309,20.0048,24.2502.7257,9.3451-.8496,18.8646-1.3216,28.3092-.1625,3.2516-2.4879,2.6226-4.4294,2.6249-19.1016.0225-38.2033.0213-57.305.0191-38.495-.0043-76.99-.0134-115.485-.0205-1.4347-.0002-2.8693,0-4.7614,0-1.4587-13.0045-3.9996-25.6506-.3307-38.3554,2.3973-8.3015,7.6642-13.7331,16.3097-15.9848,14.766-3.8458,28.3593-10.4544,41.5624-18.9367Z"/><path class="cls-2" d="m88.1457,169.9935c-.7937-2.2983-1.392-4.3529-2.2051-6.3188-1.7093-4.1329-3.996-8.0903-5.18-12.3598-1.2556-4.5275,1.0332-7.9265,5.4201-9.6046,1.2141-.4645,2.5015-.8546,3.7864-.9963,5.2065-.5743,10.5567-.5336,13.997,4.0135,3.2162,4.2508,1.0372,8.8276-.6148,13.2541-2.7227,7.2957-8.0664,11.0395-15.2036,12.0119Z"/><path class="cls-2" d="m81.9684,183.1778c6.3538-2.3405,12.7076-4.681,19.0614-7.0215.1794.4649.3588.9298.5382,1.3948-6.3664,2.3675-12.7327,4.735-19.0991,7.1025-.1669-.4919-.3337-.9839-.5006-1.4758Z"/><path class="cls-2" d="m83.4993,178.5457c5.3654-1.974,10.7307-3.948,16.0961-5.922.2026.5305.4052,1.0609.6078,1.5914-5.372,1.9624-10.744,3.9247-16.116,5.8871-.196-.5189-.392-1.0377-.5879-1.5565Z"/><path class="cls-2" d="m99.1097,170.468c-4.4286,1.6574-8.8571,3.3148-13.2857,4.9722-.2146-.5609-.4292-1.1217-.6439-1.6826,4.4243-1.6713,8.8486-3.3425,13.2729-5.0138.2189.5748.4378,1.1495.6566,1.7242Z"/></g><g><path class="cls-1" d="m49.1707,61.2932c-2.1786-8.8051-3.318-18.4596-1.6634-28.2454,1.2753-7.542,4.1555-14.0027,12.1556-16.7431.7573-.2594,1.4311-.9773,1.9707-1.6262C73.0173.9896,87.8631-2.9968,104.1555,2.184c17.1525,5.4544,29.8349,17.0554,33.7043,35.3037,1.6631,7.8432.0876,16.3732-.0226,25.0701,3.606.6902,4.7694,4.1908,4.0667,8.2663-1.4451,8.3801-1.9397,17.1551-9.0853,23.4545-1.2473,1.0996-1.4851,3.3956-2.0802,5.1755-5.4717,16.3656-15.7071,27.7428-33.1848,31.2776-7.4968,1.5162-14.4925-.552-20.9928-4.2474-11.2095-6.3726-18.107-16.0999-21.8228-28.318-.5476-1.8005-1.8538-3.4007-2.946-5.0002-5.5124-8.0728-8.4074-16.9301-7.3075-26.7091.1828-1.6257,2.6387-2.9958,4.6861-5.1638Z"/><path class="cls-1" d="m59.7648,126.3135c6.5729,20.7355,13.0322,41.1127,19.564,61.7182,7.666-2.826,15.0842-5.5607,22.9976-8.4779,1.1339,2.9244,2.2089,5.697,3.2839,8.4696.3432.0651.6864.1302,1.0296.1953,6.4871-20.4075,12.9743-40.815,19.5997-61.6576,4.4886,2.5336,8.5785,5.2812,13.0135,7.252,8.6332,3.8364,17.2189,8.1183,26.2679,10.5945,11.163,3.0547,18.8074,8.8309,20.0048,24.2502.7257,9.3451-.8496,18.8646-1.3216,28.3092-.1625,3.2516-2.4879,2.6226-4.4294,2.6249-19.1016.0225-38.2033.0213-57.305.0191-38.495-.0043-76.99-.0134-115.485-.0205-1.4347-.0002-2.8693,0-4.7614,0-1.4587-13.0045-3.9996-25.6506-.3307-38.3554,2.3973-8.3015,7.6642-13.7331,16.3097-15.9848,14.766-3.8458,28.3593-10.4544,41.5624-18.9367Z"/><path class="cls-1" d="m88.1457,169.9935c-.7937-2.2983-1.392-4.3529-2.2051-6.3188-1.7093-4.1329-3.996-8.0903-5.18-12.3598-1.2556-4.5275,1.0332-7.9265,5.4201-9.6046,1.2141-.4645,2.5015-.8546,3.7864-.9963,5.2065-.5743,10.5567-.5336,13.997,4.0135,3.2162,4.2508,1.0372,8.8276-.6148,13.2541-2.7227,7.2957-8.0664,11.0395-15.2036,12.0119Z"/><path class="cls-1" d="m81.9684,183.1778c6.3538-2.3405,12.7076-4.681,19.0614-7.0215.1794.4649.3588.9298.5382,1.3948-6.3664,2.3675-12.7327,4.735-19.0991,7.1025-.1669-.4919-.3337-.9839-.5006-1.4758Z"/><path class="cls-1" d="m83.4993,178.5457c5.3654-1.974,10.7307-3.948,16.0961-5.922.2026.5305.4052,1.0609.6078,1.5914-5.372,1.9624-10.744,3.9247-16.116,5.8871-.196-.5189-.392-1.0377-.5879-1.5565Z"/><path class="cls-1" d="m99.1097,170.468c-4.4286,1.6574-8.8571,3.3148-13.2857,4.9722-.2146-.5609-.4292-1.1217-.6439-1.6826,4.4243-1.6713,8.8486-3.3425,13.2729-5.0138.2189.5748.4378,1.1495.6566,1.7242Z"/></g></g></svg>