<?xml version="1.0" encoding="UTF-8"?><svg id="Layer_1" xmlns="http://www.w3.org/2000/svg" viewBox="0 0 284.2484 202.3448"><defs><style>.cls-1{fill:none;stroke:#fff;stroke-width:8px;}.cls-2,.cls-3{fill:#4a9cd5;}.cls-3{fill-rule:evenodd;}</style></defs><path class="cls-2" d="m176.9632,160.3302c-.6524.6496-1.5494,1.0511-2.5406,1.0511h-17.0816c-1.9823,0-3.5882-1.6059-3.5882-3.5913,0-.9912.4014-1.8882,1.0507-2.5375.6493-.6493,1.5463-1.0508,2.5375-1.0508h17.0816c1.9823,0,3.5913,1.6056,3.5913,3.5882,0,.9943-.4015,1.8913-1.0508,2.5402h0Zm0,14.4281c-.6524.6496-1.5494,1.0511-2.5406,1.0511h-17.0816c-1.9823,0-3.5882-1.6059-3.5882-3.5913,0-.9912.4014-1.8882,1.0507-2.5375.6493-.6492,1.5463-1.0507,2.5375-1.0507h17.0816c1.9823,0,3.5913,1.6056,3.5913,3.5882,0,.9943-.4015,1.8913-1.0508,2.5403h0Zm-66.9368-5.5451c0,1.4177-1.148,2.5626-2.5626,2.5626h-12.2419c-1.4146,0-2.5594-1.1448-2.5594-2.5626v-9.5696c0-1.4146,1.1448-2.5594,2.5594-2.5594h12.2419c1.4146,0,2.5626,1.1448,2.5626,2.5594v9.5696h0Zm75.1545-47.3617l-40.4802,33.5135-7.4649,6.1887c-.4297.3575-1.0507.3575-1.4805,0l-7.4712-6.1947-40.4738-33.5076c-.7591-.6273-1.9039-.0906-1.9039.8936v57.8408c0,.6465.5207,1.164,1.1605,1.164h98.8541c.643,0,1.1637-.5175,1.1637-1.164v-57.8408c0-.9842-1.1448-1.5209-1.9039-.8936h0Z"/><path class="cls-2" d="m268.4716,0h-120.2045c-8.7008,0-15.7799,7.0733-15.7799,15.7771v2.0611h10.0181v-2.0611c0-3.1836,2.5782-5.7618,5.7618-5.7618h120.2045c3.1836,0,5.7587,2.5782,5.7587,5.7618v134.2625l-37.0582,42.2899h-88.9051c-1.8505,0-3.4972-.8719-4.5479-2.2272h-10.8336c1.6122,7.0039,7.8978,12.2425,15.3816,12.2425h120.2045c8.7008,0,15.7768-7.0763,15.7768-15.7771V15.7771c0-8.7038-7.076-15.7771-15.7768-15.7771h0Z"/><path class="cls-2" d="m89.1337,107.2667c-1.0896,0-1.5808,1.3634-.7418,2.0582l46.2868,38.3266,1.0743.8901c.4303.3569,1.0539.3569,1.4845,0l1.0743-.8901,46.2864-38.3266c.8393-.6948.3479-2.0582-.7418-2.0582h-94.7227Z"/><path class="cls-2" d="m170.4135,32.6968h89.2021c1.9823,0,3.5895-1.6075,3.5895-3.5901s-1.6072-3.5898-3.5895-3.5898h-89.2021c-1.9826,0-3.5898,1.6075-3.5898,3.5898s1.6072,3.5901,3.5898,3.5901h0Z"/><path class="cls-2" d="m170.4135,61.9983h89.2021c1.9823,0,3.5895-1.6075,3.5895-3.5898s-1.6072-3.5895-3.5895-3.5895h-89.2021c-1.9826,0-3.5898,1.6069-3.5898,3.5895s1.6072,3.5898,3.5898,3.5898h0Z"/><path class="cls-2" d="m170.4135,91.2998h89.2021c1.9823,0,3.5895-1.6071,3.5895-3.5894s-1.6072-3.5898-3.5895-3.5898h-89.2021c-1.9826,0-3.5898,1.6072-3.5898,3.5898s1.6072,3.5894,3.5898,3.5894h0Z"/><g id="megaphone"><path class="cls-1" d="m135.9433,30.6012l8.5868-8.5138c1.1856-1.1761,1.2963-3.4146.2452-4.9987-1.0501-1.5871-2.8623-1.9192-4.048-.7433l-8.5867,8.5138c-1.1856,1.1745-1.2954,3.413-.2452,4.9987,1.0502,1.5856,2.8622,1.9193,4.0479.7433Zm1.6446,13.6236c.2911,1.6612,1.7706,2.6557,3.3054,2.2175l11.1142-3.1641c1.5352-.4364,2.5433-2.1391,2.2531-3.8017-.2913-1.6612-1.7708-2.6557-3.3054-2.2191l-11.1151,3.1657c-1.5345.4366-2.5427,2.1392-2.2523,3.8018Zm3.8962,18.1123c-.1171,1.6319,1.1104,3.0516,2.7421,3.1688l11.8163.8482c1.6319.1171,3.0494-1.1127,3.1665-2.7446.1172-1.6333-1.1102-3.0514-2.7421-3.1686l-11.8163-.8482c-1.6317-.1171-3.0493,1.1111-3.1665,2.7445Zm-118.7837,1.3432c-.8197-3.3895-4.879-1.978-6.3889-1.6006-8.6882,2.1679-20.8689,6.0592-14.573,30.8326.1636.6235.3285.9682.5581,1.4578,6.6065,11.5979,16.0539,12.2095,24.8749,10.9064.7532-.1903,5.0917-2.0864,4.3636-5.0931l-8.8347-36.5031ZM95.4897,16.5149c-3.192,3.175-6.3846,6.3501-9.6698,9.1535-4.8851,4.3931-10.2383,8.5081-15.3121,12.1575-3.7587,2.5266-7.5191,5.0562-11.4638,6.8347-4.2315,2.2499-8.5558,4.1232-12.9741,5.6233l-16.9348,4.2206c-1.5075.3758-2.6637,3.8584-2.7671,5.0808l10.103,41.7608c.455,1.8795,3.8287,2.62,5.1386,3.0868l2.4023-.1941,27.6161-4.0601c3.3965-.4596,21.9831.627,22.3565.5316,6.6889,1.4798,13.2819,2.5828,19.6759,4.5253.9008.2745,4.8441,1.756,9.3181,3.3195L97.8796,13.829c-1.1485,1.3119-2.0088,2.3075-2.3899,2.686Zm62.6568,65.3459l-10.5491-4.7207c-1.4564-.6512-3.0627.1202-3.5875,1.7243-.5257,1.604.2299,3.4317,1.6862,4.0846l10.5491,4.7191c1.4563.6529,3.0627-.1201,3.5874-1.7227.5249-1.6041-.2298-3.4331-1.6862-4.0846Zm-84.675,20.855c-8.7876,1.1864-18.4732,3.152-26.6029,4.5566l30.4098,31.0828c3.9316,3.2165,10.8146.4081,12.3086.0235.7468-.1909,6.3456-1.6266,9.2393-2.7661.7462-.1909,3.2818-1.1635,1.6969-2.8172l-27.0517-30.0795ZM120.6394,9.4939c-.7179-2.995-3.4505-9.4593-9.405-7.9894-1.8044.4453-4.7664,3.0996-7.6498,6.0697l26.935,103.476c3.4596,1.0504,6.3521,1.742,7.3646,1.4826,4.8187-1.2301,5.4187-6.9256,4.5367-12.2401L120.6394,9.4939Z"/><path class="cls-3" d="m135.9433,30.6012l8.5868-8.5138c1.1856-1.1761,1.2963-3.4146.2452-4.9987-1.0501-1.5871-2.8623-1.9192-4.048-.7433l-8.5867,8.5138c-1.1856,1.1745-1.2954,3.413-.2452,4.9987,1.0502,1.5856,2.8622,1.9193,4.0479.7433Zm1.6446,13.6236c.2911,1.6612,1.7706,2.6557,3.3054,2.2175l11.1142-3.1641c1.5352-.4364,2.5433-2.1391,2.2531-3.8017-.2913-1.6612-1.7708-2.6557-3.3054-2.2191l-11.1151,3.1657c-1.5345.4366-2.5427,2.1392-2.2523,3.8018Zm3.8962,18.1123c-.1171,1.6319,1.1104,3.0516,2.7421,3.1688l11.8163.8482c1.6319.1171,3.0494-1.1127,3.1665-2.7446.1172-1.6333-1.1102-3.0514-2.7421-3.1686l-11.8163-.8482c-1.6317-.1171-3.0493,1.1111-3.1665,2.7445Zm-118.7837,1.3432c-.8197-3.3895-4.879-1.978-6.3889-1.6006-8.6882,2.1679-20.8689,6.0592-14.573,30.8326.1636.6235.3285.9682.5581,1.4578,6.6065,11.5979,16.0539,12.2095,24.8749,10.9064.7532-.1903,5.0917-2.0864,4.3636-5.0931l-8.8347-36.5031ZM95.4897,16.5149c-3.192,3.175-6.3846,6.3501-9.6698,9.1535-4.8851,4.3931-10.2383,8.5081-15.3121,12.1575-3.7587,2.5266-7.5191,5.0562-11.4638,6.8347-4.2315,2.2499-8.5558,4.1232-12.9741,5.6233l-16.9348,4.2206c-1.5075.3758-2.6637,3.8584-2.7671,5.0808l10.103,41.7608c.455,1.8795,3.8287,2.62,5.1386,3.0868l2.4023-.1941,27.6161-4.0601c3.3965-.4596,21.9831.627,22.3565.5316,6.6889,1.4798,13.2819,2.5828,19.6759,4.5253.9008.2745,4.8441,1.756,9.3181,3.3195L97.8796,13.829c-1.1485,1.3119-2.0088,2.3075-2.3899,2.686Zm62.6568,65.3459l-10.5491-4.7207c-1.4564-.6512-3.0627.1202-3.5875,1.7243-.5257,1.604.2299,3.4317,1.6862,4.0846l10.5491,4.7191c1.4563.6529,3.0627-.1201,3.5874-1.7227.5249-1.6041-.2298-3.4331-1.6862-4.0846Zm-84.675,20.855c-8.7876,1.1864-18.4732,3.152-26.6029,4.5566l30.4098,31.0828c3.9316,3.2165,10.8146.4081,12.3086.0235.7468-.1909,6.3456-1.6266,9.2393-2.7661.7462-.1909,3.2818-1.1635,1.6969-2.8172l-27.0517-30.0795ZM120.6394,9.4939c-.7179-2.995-3.4505-9.4593-9.405-7.9894-1.8044.4453-4.7664,3.0996-7.6498,6.0697l26.935,103.476c3.4596,1.0504,6.3521,1.742,7.3646,1.4826,4.8187-1.2301,5.4187-6.9256,4.5367-12.2401L120.6394,9.4939Z"/></g></svg>