<?xml version="1.0" encoding="utf-8"?>
<!-- Generator: Adobe Illustrator 27.2.0, SVG Export Plug-In . SVG Version: 6.00 Build 0)  -->
<svg version="1.1" id="Layer_1" xmlns="http://www.w3.org/2000/svg" xmlns:xlink="http://www.w3.org/1999/xlink" x="0px" y="0px"
	 viewBox="0 0 276.9 252.1" style="enable-background:new 0 0 276.9 252.1;" xml:space="preserve">
<style type="text/css">
	.st0{fill:#FFFFFF;}
</style>
<g>
	<path class="st0" d="M20.4,139c-10.1-14.3-16-31.5-16-50C4.3,39.8,45.8,0,97,0c41.1,0,75.9,25.6,88.1,61.1l-14.6,3
		c-10.6-29-39.4-49.8-73.2-49.8c-42.8,0-77.5,33.3-77.5,74.4c0,14.9,4.5,28.7,12.4,40.3L20.4,139L20.4,139z"/>
	<path class="st0" d="M234.4,102.7c-18.3-10.9-54.3-32.6-54.6-32.9c8.5-1.7,17.6-3.5,26.2-5.2c-5.8-27.5-19.8-48.6-46.7-60.8
		c0.6,0,1.2-0.2,1.7-0.1c14.8,0.4,29.2,2.5,42.7,8.5c17.3,7.6,29.5,20.1,37.8,36.3c1,2,2.1,3.9,3,6c0.6,1.3,1.2,1.6,2.7,1.4
		c7.1-1.3,14.2-2.5,21.4-3.6c0.5-0.1,1.1-0.1,2.2-0.3C258.6,69,246.6,85.7,234.4,102.7"/>
	<path class="st0" d="M48.7,124.5c16.3,14.9,48,44.6,48.3,44.9H69.3c-0.2,29.5,9.5,54,34.4,72.1c-0.6-0.1-1.2-0.1-1.8-0.2
		c-15.1-3.5-29.4-8.6-42-17.5c-16-11.4-25.8-26.7-30.7-45.1c-0.6-2.2-1.3-4.5-1.8-6.7c-0.3-1.4-0.9-1.9-2.5-1.9
		c-7.6-0.1-15.2-0.4-22.8-0.7c-0.6,0-1.1-0.1-2.3-0.2C16.4,154.2,32.4,139.5,48.7,124.5"/>
	<path class="st0" d="M215,178.1c0-18.1-16.1-21.9-28.9-25c-8.8-2.1-16.1-3.7-16.1-9.4c0-5,6-7.2,11.9-7.2c6.8,0,12.7,3.2,12.7,10
		h18c0-13.9-8.3-23.1-23-25.3v-7.8h-14.5v7.7c-14.4,2-23.2,10.2-23.2,23.3c0,17.5,15.4,21,28.1,23.9c9.1,2.1,16.6,3.7,16.6,9.9
		c0,5.7-6.7,9-13.5,9c-7.3,0-14-3.6-14-11.1h-18.3c0,14.9,10,24.6,25.4,26.9v8.4h14.4v-8.4C204.6,201,215,192.7,215,178.1
		 M84.6,177.2H116l-32.3-30.8l0-0.3c5.7-39.5,37.3-71.2,77.9-78.6l1.1-0.2l74.1,45.4l13-18.4l1.6,1.6c15.9,16.6,25.6,38.7,25.6,63
		c0,51.4-43.4,93.1-97,93.1c-46.9,0-86.1-32-95.1-74.5L84.6,177.2L84.6,177.2z"/>
	<path class="st0" d="M120.1,94.3c0-16.4-14.6-19.8-26.2-22.6c-8-1.9-14.6-3.4-14.6-8.6c0-4.5,5.4-6.5,10.8-6.5
		c6.2,0,11.5,2.9,11.5,9h16.3c0-12.6-7.5-20.9-20.8-22.9v-7.1H83.9v7c-13,1.8-21.1,9.2-21.1,21.1c0,15.8,14,19,25.5,21.7
		c8.2,1.9,15.1,3.4,15.1,9c0,5.1-6.1,8.1-12.3,8.1c-6.6,0-12.7-3.3-12.7-10.1H61.8c0,13.5,9,22.3,23,24.3v7.6h13.1v-7.6
		C110.7,115.1,120.1,107.5,120.1,94.3"/>
</g>
</svg>
