<?xml version="1.0" encoding="UTF-8"?><svg id="Layer_1" xmlns="http://www.w3.org/2000/svg" viewBox="0 0 276.8775 252.135"><defs><style>.cls-1{fill:#fff;}</style></defs><path class="cls-1" d="m20.3512,139.0271c-10.1268-14.2592-16.0451-31.4879-16.0451-50.0387,0-49.1527,41.5247-88.9884,92.7401-88.9884,41.0886,0,75.9337,25.6319,88.1163,61.1484l-14.5707,2.9903c-10.5767-29.0029-39.3512-49.8033-73.1926-49.8033-42.8122,0-77.5257,33.3014-77.5257,74.3901,0,14.8545,4.5408,28.6984,12.3626,40.3134l-11.885,9.9883h0Z"/><path class="cls-1" d="m234.4204,102.7208c-18.2532-10.8674-54.3095-32.63-54.6418-32.8654,8.5486-1.7097,17.5886-3.4679,26.248-5.2053-5.7937-27.5216-19.8244-48.6474-46.7438-60.7815.5745-.0485,1.156-.1523,1.7374-.1384,14.7645.4015,29.1621,2.5057,42.7153,8.5001,17.2564,7.6418,29.522,20.0598,37.8145,36.2917,1.0175,1.9866,2.0973,3.9455,3.011,5.9736.5607,1.2529,1.2183,1.6197,2.6788,1.3567,7.1088-1.2875,14.2384-2.4504,21.3611-3.6409.533-.09,1.0798-.1384,2.1735-.2769-12.2241,17.0764-24.1852,33.786-36.354,50.7863"/><path class="cls-1" d="m48.682,124.5436c16.3219,14.9168,47.969,44.6119,48.2736,44.9441h-27.6185c-.1938,29.4598,9.4969,54.0465,34.4436,72.0504-.6091-.0692-1.2252-.0831-1.8205-.2146-15.0691-3.4541-29.3905-8.5763-41.9746-17.5194-16.0174-11.3935-25.8465-26.6771-30.7334-45.0618-.6022-2.2496-1.2736-4.4785-1.7582-6.7489-.2976-1.3982-.8929-1.9174-2.4504-1.9451-7.5864-.1384-15.1729-.4153-22.7524-.6507-.5745-.0208-1.1421-.0831-2.2912-.1661,16.3635-15.0206,32.3877-29.7297,48.682-44.688"/><path class="cls-1" d="m215.023,178.1326c0-18.1424-16.1143-21.901-28.9475-24.9743-8.8255-2.1043-16.1143-3.7378-16.1143-9.4484,0-4.9561,5.9529-7.2057,11.885-7.2057,6.7904,0,12.7225,3.2049,12.7225,9.9745h17.9901c0-13.8716-8.2579-23.0847-23.0016-25.2858v-7.7872h-14.4738v7.7456c-14.3838,1.9935-23.23,10.196-23.23,23.3269,0,17.464,15.4359,20.9942,28.1169,23.9361,9.0747,2.0766,16.6196,3.724,16.6196,9.933,0,5.6691-6.7004,8.9847-13.5462,8.9847-7.3234,0-14.0446-3.5925-14.0446-11.1028h-18.3431c0,14.896,9.9814,24.6283,25.4243,26.864v8.3617h14.4046v-8.3894c14.1138-2.0766,24.5383-10.4037,24.5383-24.9328m-130.3816-.8999h31.3079l-32.2839-30.7819.0415-.3392c5.7175-39.545,37.3162-71.1575,77.8579-78.564l1.0798-.1938,74.0509,45.3802,12.9786-18.357,1.5782,1.599c15.9066,16.585,25.625,38.7282,25.625,63.045,0,51.4231-43.449,93.1139-97.0456,93.1139-46.9446,0-86.102-31.9793-95.1005-74.48l-.09-.4222h.0002Z"/><path class="cls-1" d="m120.1302,94.3439c0-16.4396-14.6053-19.8452-26.2341-22.6278-8.0018-1.9105-14.6053-3.3917-14.6053-8.5694,0-4.4854,5.3922-6.5274,10.7705-6.5274,6.1536,0,11.5319,2.9072,11.5319,9.0331h16.3012c0-12.5702-7.4826-20.9181-20.8489-22.9116v-7.0604h-13.1101v7.0258c-13.0409,1.7997-21.0565,9.2408-21.0565,21.1396,0,15.8236,13.9892,19.0215,25.4866,21.6934,8.2233,1.8828,15.0552,3.371,15.0552,8.9985,0,5.143-6.0775,8.1471-12.2726,8.1471-6.6381,0-12.7294-3.2602-12.7294-10.0645h-16.6265c0,13.4978,9.047,22.3233,23.0431,24.3445v7.5795h13.0548v-7.6072c12.7917-1.8828,22.2402-9.4207,22.2402-22.5932"/></svg>