<?xml version="1.0" encoding="UTF-8"?>
<svg id="Layer_1" data-name="Layer 1" xmlns="http://www.w3.org/2000/svg" viewBox="0 0 196.9112 196.9112">
  <defs>
    <style>
      .cls-1 {
        fill: #4a9cd5;
        stroke-width: 0px;
      }
    </style>
  </defs>
  <g>
    <path class="cls-1" d="M194.9425,157.8925h-7.8768c-1.0888,0-1.9687.8804-1.9687,1.9692v17.3584c0,4.269-3.6088,7.8764-7.8768,7.8764h-17.6848c-1.0878,0-1.9687.8823-1.9687,1.9692v7.8764c0,1.0869.8809,1.9692,1.9687,1.9692h17.6848c10.8299,0,19.6911-8.8612,19.6911-19.6911v-17.3584c0-1.0888-.8809-1.9692-1.9687-1.9692Z"/>
    <path class="cls-1" d="M37.69,0h-17.9989C8.8612,0,0,8.861,0,19.6911v18.3235c0,1.0885.88,1.9692,1.9692,1.9692h7.8764c1.086,0,1.9692-.8807,1.9692-1.9692v-18.3235c0-4.269,3.6055-7.8764,7.8764-7.8764h17.9989c1.0878,0,1.9692-.883,1.9692-1.9692V1.9692c0-1.0869-.8814-1.9692-1.9692-1.9692Z"/>
    <path class="cls-1" d="M177.2201,0h-17.6848c-1.0878,0-1.9687.8823-1.9687,1.9692v7.8764c0,1.0862.8809,1.9692,1.9687,1.9692h17.6848c4.2681,0,7.8768,3.6074,7.8768,7.8764v18.3235c0,1.0885.88,1.9692,1.9687,1.9692h7.8768c1.0878,0,1.9687-.8807,1.9687-1.9692v-18.3235c0-10.8302-8.8612-19.6911-19.6911-19.6911Z"/>
    <path class="cls-1" d="M37.69,185.0964h-17.9989c-4.2708,0-7.8764-3.6074-7.8764-7.8764v-17.3584c0-1.0888-.8832-1.9692-1.9692-1.9692H1.9692c-1.0892,0-1.9692.8804-1.9692,1.9692v17.3584c0,10.8299,8.8612,19.6911,19.6911,19.6911h17.9989c1.0878,0,1.9692-.8823,1.9692-1.9692v-7.8764c0-1.0869-.8814-1.9692-1.9692-1.9692Z"/>
  </g>
  <path class="cls-1" d="M9.1699,98.3666c4.8387-5.6294,10.1928-10.5542,15.8215-15.1866,11.1189-9.1506,23.1416-16.8388,36.4633-22.4084,12.4639-5.211,25.3877-8.1862,38.9603-7.9036,10.6925.2227,20.9664,2.5847,30.9494,6.3007,13.0619,4.8622,24.905,11.8907,35.9336,20.3509,7.1445,5.4806,13.8716,11.4159,19.8366,18.183.1753.1989.3486.3995.6068.6956-1.3534,1.4729-2.655,2.9831-4.054,4.3969-10.2061,10.3141-21.5955,19.0964-34.2113,26.2714-10.2416,5.8247-21.0298,10.2728-32.5697,12.8043-15.1543,3.3245-30.1054,2.4578-44.8996-2.0882-14.7194-4.523-27.9905-11.8192-40.3012-20.9555-7.9028-5.865-15.3271-12.2721-21.8532-19.6716-.2176-.2467-.4305-.4976-.6824-.7891ZM130.9893,98.3551c.1074-17.4484-14.1513-32.2341-31.8793-32.5298-18.5342-.3092-33.1576,14.5449-33.2283,32.5172-.0685,17.4162,14.0914,32.2542,31.8433,32.5792,18.5212.3392,33.2795-14.4915,33.2643-32.5667ZM129.5914,69.2234c15.5161,16.6756,14.883,42.7803.1764,58.1091,9.221-2.1163,39.9062-22.3757,44.0066-29.0779-12.9562-12.193-27.3333-22.2237-44.183-29.0312ZM67.0446,127.3534c-15.3304-16.6444-14.5791-42.6183.0912-57.9535-8.7365,1.8215-39.5966,22.1933-44.0298,29.0896,12.9558,12.1962,27.3362,22.2227,43.9385,28.8639Z"/>
  <path class="cls-1" d="M88.8285,82.1377c6.5991-4.4609,16.5194-3.346,22.5616,2.4586,6.4216,6.1691,7.629,15.9614,2.897,23.4942-4.6892,7.4646-13.9545,10.6559-22.2442,7.6309-8.7126-3.1794-12.9624-11.6724-12.1942-19.1706,2.6848,2.3699,5.6911,3.1991,9.0881,2.0643,2.2641-.7564,3.8904-2.2666,4.957-4.3976,1.888-3.7718.9146-9.6209-5.0653-12.0798Z"/>
</svg>