<?xml version="1.0" encoding="UTF-8"?>
<svg id="Layer_1" data-name="Layer 1" xmlns="http://www.w3.org/2000/svg" viewBox="0 0 196.9112 196.9112">
  <defs>
    <style>
      .cls-1 {
        fill: #4a9cd5;
        stroke-width: 0px;
      }
    </style>
  </defs>
  <g>
    <path class="cls-1" d="M194.9425,157.8925h-7.8768c-1.0888,0-1.9687.8804-1.9687,1.9692v17.3584c0,4.269-3.6088,7.8764-7.8768,7.8764h-17.6848c-1.0878,0-1.9687.8823-1.9687,1.9692v7.8764c0,1.0869.8809,1.9692,1.9687,1.9692h17.6848c10.8299,0,19.6911-8.8612,19.6911-19.6911v-17.3584c0-1.0888-.8809-1.9692-1.9687-1.9692Z"/>
    <path class="cls-1" d="M37.69,0h-17.9989C8.8612,0,0,8.861,0,19.6911v18.3235c0,1.0885.88,1.9692,1.9692,1.9692h7.8764c1.086,0,1.9692-.8807,1.9692-1.9692v-18.3235c0-4.269,3.6055-7.8764,7.8764-7.8764h17.9989c1.0878,0,1.9692-.883,1.9692-1.9692V1.9692c0-1.0869-.8814-1.9692-1.9692-1.9692Z"/>
    <path class="cls-1" d="M177.2201,0h-17.6848c-1.0878,0-1.9687.8823-1.9687,1.9692v7.8764c0,1.0862.8809,1.9692,1.9687,1.9692h17.6848c4.2681,0,7.8768,3.6074,7.8768,7.8764v18.3235c0,1.0885.88,1.9692,1.9687,1.9692h7.8768c1.0878,0,1.9687-.8807,1.9687-1.9692v-18.3235c0-10.8302-8.8612-19.6911-19.6911-19.6911Z"/>
    <path class="cls-1" d="M37.69,185.0964h-17.9989c-4.2708,0-7.8764-3.6074-7.8764-7.8764v-17.3584c0-1.0888-.8832-1.9692-1.9692-1.9692H1.9692c-1.0892,0-1.9692.8804-1.9692,1.9692v17.3584c0,10.8299,8.8612,19.6911,19.6911,19.6911h17.9989c1.0878,0,1.9692-.8823,1.9692-1.9692v-7.8764c0-1.0869-.8814-1.9692-1.9692-1.9692Z"/>
  </g>
  <path class="cls-1" d="M98.8429,30.8888c36.2313-.1743,66.6401,30.0594,67.3573,65.902.7318,36.5718-28.0086,68.978-66.9781,69.384-37.7236.393-68.2928-29.9281-68.4832-67.3079-.1912-37.5413,30.119-67.7954,68.104-67.9781ZM54.3636,141.5495c2.7537-1.3874,5.4287-2.886,8.2264-4.1023,2.8036-1.2188,5.7368-2.1375,8.6-3.2225,2.1009-.7961,4.2242-1.5537,6.2616-2.4931,6.981-3.2187,8.6559-10.4495,4.119-16.79-1.5311-2.1398-2.5603-4.6344-3.879-6.9323-.8901-1.5511-1.7411-3.1592-2.8618-4.5366-2.8655-3.5219-3.9889-7.7166-2.6805-11.7809.9868-3.0656.6157-5.7245.2696-8.617-.364-3.0417-.7718-6.1003-.8059-9.1555-.1303-11.6603,5.0854-19.7923,14.7398-23.486,12.9554-4.9566,23.8579-.2427,34.0964,7.2717,1.3949,1.0237,2.351,2.8276,3.1489,4.4482,2.3756,4.8246,2.598,9.9775,2.2242,15.2714-.3762,5.3291-3.3088,10.5772-.5373,16.0643.3923.7768-.0099,2.0113-.1875,3.0085-.4499,2.5259-8.0478,16.5768-10.5523,19.6288-.2592.3158-.583.5833-.8128.9172-.2229.3239-.4387.6864-.5287,1.0628-1.7037,7.1261.2245,10.9225,7.063,13.9125,1.2151.5313,2.4513,1.0148,3.6832,1.5068,6.3185,2.5235,12.6388,5.0425,19.1745,7.6493,21.787-21.5729,24.5036-60.3152-.3855-85.89-24.8825-25.568-65.2915-24.9279-89.9896,1.7009-23.6306,25.4779-19.9341,63.871,1.6145,84.5635Z"/>
</svg>