<?xml version="1.0" encoding="UTF-8"?>
<svg id="Layer_1" data-name="Layer 1" xmlns="http://www.w3.org/2000/svg" viewBox="0 0 196.9112 196.9112">
  <defs>
    <style>
      .cls-1, .cls-2 {
        fill: none;
        stroke: #4a9cd5;
        stroke-linecap: round;
        stroke-width: 8px;
      }

      .cls-2 {
        stroke-linejoin: round;
      }

      .cls-3 {
        fill: #4a9cd5;
        stroke-width: 0px;
      }
    </style>
  </defs>
  <g>
    <path class="cls-3" d="M194.9425,157.8925h-7.8768c-1.0888,0-1.9687.8804-1.9687,1.9692v17.3584c0,4.269-3.6088,7.8764-7.8768,7.8764h-17.6848c-1.0878,0-1.9687.8823-1.9687,1.9692v7.8764c0,1.0869.8809,1.9692,1.9687,1.9692h17.6848c10.8299,0,19.6911-8.8612,19.6911-19.6911v-17.3584c0-1.0888-.8809-1.9692-1.9687-1.9692Z"/>
    <path class="cls-3" d="M37.69,0h-17.9989C8.8612,0,0,8.861,0,19.6911v18.3235c0,1.0885.88,1.9692,1.9692,1.9692h7.8764c1.086,0,1.9692-.8807,1.9692-1.9692v-18.3235c0-4.269,3.6055-7.8764,7.8764-7.8764h17.9989c1.0878,0,1.9692-.883,1.9692-1.9692V1.9692c0-1.0869-.8814-1.9692-1.9692-1.9692Z"/>
    <path class="cls-3" d="M177.2201,0h-17.6848c-1.0878,0-1.9687.8823-1.9687,1.9692v7.8764c0,1.0862.8809,1.9692,1.9687,1.9692h17.6848c4.2681,0,7.8768,3.6074,7.8768,7.8764v18.3235c0,1.0885.88,1.9692,1.9687,1.9692h7.8768c1.0878,0,1.9687-.8807,1.9687-1.9692v-18.3235c0-10.8302-8.8612-19.6911-19.6911-19.6911Z"/>
    <path class="cls-3" d="M37.69,185.0964h-17.9989c-4.2708,0-7.8764-3.6074-7.8764-7.8764v-17.3584c0-1.0888-.8832-1.9692-1.9692-1.9692H1.9692c-1.0892,0-1.9692.8804-1.9692,1.9692v17.3584c0,10.8299,8.8612,19.6911,19.6911,19.6911h17.9989c1.0878,0,1.9692-.8823,1.9692-1.9692v-7.8764c0-1.0869-.8814-1.9692-1.9692-1.9692Z"/>
  </g>
  <path class="cls-1" d="M45.1251,151.0294h62.8897c28.4181,0,51.4552-23.0371,51.4552-51.4552s-23.0371-51.4552-51.4552-51.4552c-26.4854,0-48.6112,20.0107-51.4552,45.738"/>
  <path class="cls-2" d="M139.4597,56.6948l5.7172-5.7172M65.1355,50.9775l5.7172,5.7172"/>
  <path class="cls-1" d="M128.0252,76.7051l-16.8047,16.8047M111.2205,93.5098c-1.5522-1.5517-3.6962-2.5116-6.0643-2.5116-4.7362,0-8.5759,3.8397-8.5759,8.5759s3.8397,8.5759,8.5759,8.5759,8.5759-3.8397,8.5759-8.5759c0-2.3681-.9599-4.5121-2.5116-6.0643Z"/>
  <path class="cls-2" d="M105.1562,45.2603v-8.5759"/>
  <path class="cls-2" d="M93.7217,36.6844h22.869"/>
  <path class="cls-2" d="M45.1251,111.0086h17.1517"/>
  <path class="cls-2" d="M45.1251,133.8776h28.5862"/>
</svg>