<?xml version="1.0" encoding="UTF-8"?>
<svg id="Layer_1" data-name="Layer 1" xmlns="http://www.w3.org/2000/svg" viewBox="0 0 196.9112 196.9112">
  <defs>
    <style>
      .cls-1, .cls-2 {
        fill: none;
        stroke: #4a9cd5;
        stroke-linecap: round;
        stroke-width: 7px;
      }

      .cls-2 {
        stroke-linejoin: round;
      }

      .cls-3 {
        fill: #4a9cd5;
        stroke-width: 0px;
      }
    </style>
  </defs>
  <g>
    <path class="cls-3" d="M194.9425,157.8925h-7.8768c-1.0888,0-1.9687.8804-1.9687,1.9692v17.3584c0,4.269-3.6088,7.8764-7.8768,7.8764h-17.6848c-1.0878,0-1.9687.8823-1.9687,1.9692v7.8764c0,1.0869.8809,1.9692,1.9687,1.9692h17.6848c10.8299,0,19.6911-8.8612,19.6911-19.6911v-17.3584c0-1.0888-.8809-1.9692-1.9687-1.9692Z"/>
    <path class="cls-3" d="M37.69,0h-17.9989C8.8612,0,0,8.861,0,19.6911v18.3235c0,1.0885.88,1.9692,1.9692,1.9692h7.8764c1.086,0,1.9692-.8807,1.9692-1.9692v-18.3235c0-4.269,3.6055-7.8764,7.8764-7.8764h17.9989c1.0878,0,1.9692-.883,1.9692-1.9692V1.9692c0-1.0869-.8814-1.9692-1.9692-1.9692Z"/>
    <path class="cls-3" d="M177.2201,0h-17.6848c-1.0878,0-1.9687.8823-1.9687,1.9692v7.8764c0,1.0862.8809,1.9692,1.9687,1.9692h17.6848c4.2681,0,7.8768,3.6074,7.8768,7.8764v18.3235c0,1.0885.88,1.9692,1.9687,1.9692h7.8768c1.0878,0,1.9687-.8807,1.9687-1.9692v-18.3235c0-10.8302-8.8612-19.6911-19.6911-19.6911Z"/>
    <path class="cls-3" d="M37.69,185.0964h-17.9989c-4.2708,0-7.8764-3.6074-7.8764-7.8764v-17.3584c0-1.0888-.8832-1.9692-1.9692-1.9692H1.9692c-1.0892,0-1.9692.8804-1.9692,1.9692v17.3584c0,10.8299,8.8612,19.6911,19.6911,19.6911h17.9989c1.0878,0,1.9692-.8823,1.9692-1.9692v-7.8764c0-1.0869-.8814-1.9692-1.9692-1.9692Z"/>
  </g>
  <g>
    <path class="cls-2" d="M82.2821,90.1394c.4861-.917,1.0448-1.7714,1.6868-2.5765,1.058-1.3264,2.2617-2.5302,3.5881-3.5882.8052-.642,1.6595-1.2007,2.5765-1.6868M114.6184,106.7724c-.4863.917-1.0451,1.7714-1.6873,2.5765-1.058,1.3264-2.2616,2.53-3.588,3.588-.8052.6422-1.6595,1.201-2.5765,1.6866M79.2486,104.9228c-.0971,1.9751-.151,4.1215-.181,6.4633-.0391,3.057-.0587,4.5852.9068,5.5508.9655.9655,2.4938.9461,5.5507.9067,2.3418-.0297,4.4882-.0841,6.4633-.1811M104.9228,79.2486c1.9751-.0971,4.1215-.151,6.4633-.181,3.057-.0391,4.5852-.0587,5.5508.9068.9655.9654.9455,2.4938.9067,5.5507-.0297,2.3418-.0834,4.4882-.1811,6.4633"/>
    <path class="cls-1" d="M79.0541,133.9908c.265,10.0177,1.2423,16.0858,4.8454,20.6044,1.058,1.3264,2.2614,2.53,3.5884,3.588,6.1994,4.9442,15.3175,4.9442,33.5537,4.9442s27.3536,0,33.5537-4.9442c1.3264-1.058,2.53-2.2616,3.588-3.588,4.9442-6.2001,4.9442-15.3182,4.9442-33.5537s0-27.3542-4.9442-33.5537c-1.058-1.3271-2.2616-2.5304-3.588-3.5884-4.5186-3.6031-10.5868-4.5804-20.6044-4.8454"/>
    <path class="cls-1" d="M117.8571,62.9202c-.2652-10.0178-1.2423-16.0859-4.8452-20.6041-1.058-1.3267-2.2616-2.5303-3.5886-3.5883-6.1994-4.9441-15.3175-4.9441-33.5535-4.9441s-27.354,0-33.5537,4.9441c-1.3267,1.058-2.5303,2.2616-3.5883,3.5883-4.9441,6.1997-4.9441,15.3176-4.9441,33.5537s0,27.354,4.9441,33.5535c1.058,1.3271,2.2616,2.5306,3.5883,3.5886,4.5182,3.6029,10.5863,4.5801,20.6041,4.8452"/>
  </g>
</svg>