<?xml version="1.0" encoding="UTF-8"?>
<svg id="Layer_1" data-name="Layer 1" xmlns="http://www.w3.org/2000/svg" viewBox="0 0 196.9112 196.9112">
  <defs>
    <style>
      .cls-1 {
        fill: none;
        stroke: #4a9cd5;
        stroke-linecap: round;
        stroke-linejoin: round;
        stroke-width: 7px;
      }

      .cls-2 {
        fill: #4a9cd5;
        stroke-width: 0px;
      }
    </style>
  </defs>
  <g>
    <path class="cls-2" d="M194.9425,157.8925h-7.8768c-1.0888,0-1.9687.8804-1.9687,1.9692v17.3584c0,4.269-3.6088,7.8764-7.8768,7.8764h-17.6848c-1.0878,0-1.9687.8823-1.9687,1.9692v7.8764c0,1.0869.8809,1.9692,1.9687,1.9692h17.6848c10.8299,0,19.6911-8.8612,19.6911-19.6911v-17.3584c0-1.0888-.8809-1.9692-1.9687-1.9692Z"/>
    <path class="cls-2" d="M37.69,0h-17.9989C8.8612,0,0,8.861,0,19.6911v18.3235c0,1.0885.88,1.9692,1.9692,1.9692h7.8764c1.086,0,1.9692-.8807,1.9692-1.9692v-18.3235c0-4.269,3.6055-7.8764,7.8764-7.8764h17.9989c1.0878,0,1.9692-.883,1.9692-1.9692V1.9692c0-1.0869-.8814-1.9692-1.9692-1.9692Z"/>
    <path class="cls-2" d="M177.2201,0h-17.6848c-1.0878,0-1.9687.8823-1.9687,1.9692v7.8764c0,1.0862.8809,1.9692,1.9687,1.9692h17.6848c4.2681,0,7.8768,3.6074,7.8768,7.8764v18.3235c0,1.0885.88,1.9692,1.9687,1.9692h7.8768c1.0878,0,1.9687-.8807,1.9687-1.9692v-18.3235c0-10.8302-8.8612-19.6911-19.6911-19.6911Z"/>
    <path class="cls-2" d="M37.69,185.0964h-17.9989c-4.2708,0-7.8764-3.6074-7.8764-7.8764v-17.3584c0-1.0888-.8832-1.9692-1.9692-1.9692H1.9692c-1.0892,0-1.9692.8804-1.9692,1.9692v17.3584c0,10.8299,8.8612,19.6911,19.6911,19.6911h17.9989c1.0878,0,1.9692-.8823,1.9692-1.9692v-7.8764c0-1.0869-.8814-1.9692-1.9692-1.9692Z"/>
  </g>
  <path class="cls-1" d="M101.8749,29.9228h1.8649c22.3019,0,33.4529,0,41.1969,5.4561,2.2191,1.5632,4.1886,3.4171,5.8497,5.5054,5.7971,7.2884,5.7971,17.7835,5.7971,38.7736v17.4074c0,20.264,0,30.3954-3.2066,38.4874-5.1556,13.0097-16.0583,23.2709-29.8811,28.1229-8.5974,3.0185-19.3627,3.0185-40.8931,3.0185-12.3031,0-18.4545,0-23.3676-1.7247-7.8985-2.7724-14.1287-8.6364-17.0747-16.0699-1.8325-4.6242-1.8325-10.4138-1.8325-21.9935v-28.5975"/>
  <path class="cls-1" d="M156.5834,98.3084c0,12.5891-10.2059,22.795-22.795,22.795-4.5531,0-9.9207-.7974-14.348.3884-3.9329,1.0538-7.0054,4.1264-8.0592,8.0592-1.1858,4.4273-.3884,9.7949-.3884,14.348,0,12.5891-10.2059,22.795-22.795,22.795"/>
  <path class="cls-1" d="M47.1664,67.5349c3.3614,3.4583,12.3078,17.0964,17.0964,17.0964M81.3592,67.5349c-3.3614,3.4583-12.3078,17.0964-17.0964,17.0964M64.2628,84.6313V29.9228"/>
</svg>