<?xml version="1.0" encoding="UTF-8"?>
<svg id="Layer_1" data-name="Layer 1" xmlns="http://www.w3.org/2000/svg" viewBox="0 0 296.2319 271.6342">
  <defs>
    <style>
      .cls-1 {
        fill: #4a9cd5;
      }

      .cls-1, .cls-2 {
        stroke-width: 0px;
      }

      .cls-2 {
        fill: #fff;
      }
    </style>
  </defs>
  <path class="cls-1" d="M183.414,271.6342h-70.5883c-.5776-.3175-1.1727-.6072-1.7296-.9577-1.923-1.2101-2.7278-2.9878-2.2836-5.1845.4457-2.2038,1.8734-3.5576,4.1475-3.8038,1.3352-.1446,2.6911-.1268,4.0379-.1312,4.3902-.0144,8.7805-.0054,14.0857-.0054-31.0343-22.5016-49.4843-51.9473-56.1025-88.8225-5.9022,0-11.6414.5365-17.238-.1276-8.0997-.9611-14.3229,1.3409-19.138,7.9522-1.0657,1.4633-1.6353,2.3019-.8015,4.1721,4.5727,10.257-.4831,22.1665-10.9264,26.1562-10.5939,4.0472-22.3057-1.5599-25.814-12.3575C.7122,197.4443.3545,196.3663,0,195.2872c0-1.928,0-3.8559,0-5.7839.1872-.4224.4367-.8286.5523-1.2698,2.2259-8.4925,7.6605-13.575,16.2647-15.2342,4.6306-.8929,8.9218.4294,13.2349,2.5043,3.4454-3.516,6.677-7.1071,10.2535-10.3138,1.3591-1.2186,3.4844-2.1003,5.3067-2.1894,5.6734-.2773,11.369-.1018,17.0559-.1018,3.7266,0,7.4532,0,11.2225,0v-19.5423h-35.0062c-.297.7811-.5242,1.4148-.777,2.0382-3.2895,8.1122-10.8761,12.9272-19.5978,12.4426-8.4314-.4684-15.4868-6.1988-17.8488-14.4828-.1798-.6306-.4387-1.2385-.6609-1.857,0-2.1208,0-4.2415,0-6.3622.2591-.815.5253-1.6278.7761-2.4453,2.5369-8.267,9.8654-13.9329,18.4096-14.2301,8.1793-.2845,15.7945,4.7969,18.9544,12.6473.2834.704.5707,1.4064.8135,2.0044h34.8862v-19.5228c-9.1018,0-17.9657-.1063-26.8246.0556-3.2553.0595-5.7079-.9096-7.8826-3.3248-2.9501-3.2764-6.1517-6.3267-9.1576-9.3847-11.1023,5.6128-20.329,1.6721-24.5677-3.7393-2.408-3.0742-3.6438-7.0661-5.4075-10.6447,0-1.7352,0-3.4703,0-5.2055,1.6368-3.4379,2.7078-7.3268,5.0204-10.226,6.0759-7.6171,17.1175-9.0278,25.3441-3.8082,8.2731,5.2491,11.3729,15.4982,7.4002,24.5844-.5117,1.1703-.9879,2.0263.1714,3.2984,7.7303,8.4826,7.6916,8.5178,19.158,8.5178h16.9885c0-1.6538-.0108-2.9791.0017-4.3042.086-9.0661,6.1628-15.2626,15.2097-15.4022,5.302-.0818,10.6062-.0172,15.9095-.0181,2.6782-.0005,5.3563,0,8.3023,0,0-7.5476.0149-14.7564-.0321-21.9649-.0033-.5024-.3566-1.1097-.7304-1.4867-7.8648-7.9304-15.756-15.8346-23.5602-23.662-10.9539,4.6139-20.1654,2.6193-26.089-5.4706-5.4118-7.3909-4.9421-17.697,1.1196-24.5687C70.3309-.1003,80.3691-1.8972,88.4421,2.5056c4.0389,2.2027,6.9707,5.4326,8.7543,9.6628,2.5581,6.0671,1.8744,11.9975-1.1626,17.7182,8.3066,8.2832,16.3852,16.4265,24.5813,24.4499,2.018,1.9754,2.896,4.0889,2.8284,6.905-.1457,6.0689-.0447,12.1438-.0447,18.2163,0,1.4061,0,2.8121,0,4.3699h19.5031c.1019-.7857.2585-1.4329.2592-2.0803.0145-13.5907-.0297-27.1817.059-40.7718.0123-1.8916-.953-2.3797-2.3873-2.9612-8.78-3.5593-13.8639-12.6714-12.1555-21.6358C130.4935,6.8489,138.4481.1005,147.9819.0011c9.5704-.0998,17.7307,6.7334,19.5791,16.3951,1.7099,8.9376-3.3773,18.1092-12.1876,21.593-1.8715.74-2.3556,1.6998-2.3447,3.5887.0765,13.2047.0373,26.4101.0486,39.6152.0007.8358.1152,1.6715.1783,2.529h19.5851c0-4.3045.4868-8.4175-.095-12.3735-1.5011-10.2069,2.0042-17.7987,9.9941-24.2766,6.3197-5.1237,11.6814-11.4284,17.3948-17.135-4.5995-10.8511-2.5855-20.1543,5.4814-26.058,7.3702-5.3938,17.6892-4.9204,24.5884,1.1279,6.9143,6.0616,8.7202,16.1671,4.3208,24.222-2.2044,4.0362-5.434,6.9567-9.6653,8.751-6.0766,2.5769-11.999,1.8544-17.6794-1.1319-7.8919,7.8896-15.6017,15.5828-23.2805,23.3068-.5091.5121-1.1085,1.2548-1.1155,1.8963-.079,7.2034-.0499,14.408-.0499,21.9361,1.3357,0,2.3748-.0003,3.4139,0,7.0388.0023,14.0797-.1014,21.116.0342,8.7077.1678,14.7643,6.4181,14.8901,15.1337.0204,1.4165.0029,2.8336.0029,4.5567,5.7883,0,11.3293-.5408,16.7202.1276,7.9552.9864,13.9328-1.4835,18.6614-7.8404,1.1403-1.5329,1.7398-2.4177.8443-4.4203-4.5305-10.1319.5308-21.9769,10.8725-25.9494,10.5505-4.0528,22.1797,1.3105,25.8129,11.9047,3.5986,10.4931-2.1635,21.9202-12.7188,25.2152-5.5363,1.7282-10.8228.9307-16.0443-1.8432-1.4003,1.4517-2.6939,2.8768-4.0751,4.2114-10.6942,10.3339-5.495,8.2472-20.4595,8.4565-6.4331.09-12.8685.0151-19.4354.0151v19.6065h34.7971c5.8889-11.9832,13.9248-16.6667,24.2052-14.1155,8.7264,2.1656,14.9671,10.2685,14.8932,19.3375-.0746,9.1495-6.5656,17.1091-15.5663,19.088-9.9695,2.1919-18.1679-2.7563-23.4308-14.1303h-34.8662v19.5241c9.4541,0,18.7007.054,27.9459-.0369,2.3976-.0236,4.2519.6758,5.9001,2.414,3.3065,3.4872,6.7293,6.8641,10.0368,10.2183,1.1104-.4866,1.8977-.8459,2.696-1.1791,7.7981-3.2559,16.4659-1.2873,22.1596,5.0283,5.6835,6.3042,6.6723,15.4455,2.4713,22.8467-4.1265,7.2699-12.4676,11.2056-20.6124,9.7259-12.5255-2.2756-19.6104-15.528-14.642-27.2663.3756-.8875.6274-2.4281.1474-2.9839-4.7242-5.4699-9.4299-10.9985-18.0269-9.0165-2.2888.5277-4.8027.0797-7.2133.0797h-12.0033c-6.671,37.0527-25.143,66.3374-55.7961,88.6502,1.5425.0786,2.4601.1606,3.3782.1663,4.6277.0288,9.2782-.2163,13.8709.1931,1.5838.1411,3.677,1.5903,4.3363,3.0024.5979,1.2806-.1761,3.4383-.8556,4.9854-.3821.87-1.7971,1.2868-2.7468,1.9077ZM138.275,19.6959c-.0533,5.4588,4.3572,9.9729,9.7869,10.017,5.3954.0438,9.9054-4.4688,9.9019-9.9076-.0034-5.3899-4.247-9.6936-9.648-9.7845-5.55-.0935-9.9872,4.1821-10.0408,9.6751ZM29.6152,138.2812c.0288-5.4869-4.3819-9.9661-9.8103-9.9625-5.3844.0036-9.9335,4.5844-9.8905,9.9595.0428,5.3457,4.3643,9.6622,9.7445,9.7334,5.5617.0736,9.9273-4.193,9.9563-9.7304ZM276.2796,148.0185c5.5157.0596,9.9942-4.2801,10.0439-9.7328.0489-5.364-4.5083-9.9578-9.8874-9.9669-5.322-.009-9.7167,4.3229-9.8069,9.6668-.0943,5.5855,4.1261,9.9732,9.6504,10.0329ZM266.6379,83.8495c-.0449,5.5448,4.333,9.9634,9.8422,9.9338,5.3468-.0287,9.7634-4.4016,9.8316-9.7343.0694-5.4228-4.4529-9.9502-9.9246-9.9359-5.3833.0141-9.7056,4.3306-9.7493,9.7364ZM29.5961,192.4408c-.0175-5.4101-4.3068-9.7646-9.6844-9.8318-5.4034-.0675-10.011,4.4997-9.988,9.9003.0232,5.4543,4.5419,9.8452,10.0595,9.7751,5.4092-.0688,9.6305-4.3914,9.6129-9.8436ZM276.3237,202.2889c5.5029.0383,10.0178-4.4189,9.9803-9.8527-.0366-5.2979-4.4902-9.772-9.7784-9.8235-5.3497-.052-9.828,4.3012-9.8953,9.6188-.0712,5.6272,4.1616,10.0189,9.6934,10.0574ZM29.6111,83.9508c-.03-5.5581-4.4435-9.9194-9.9491-9.8315-5.3593.0856-9.736,4.5034-9.7342,9.8255.0019,5.4506,4.5538,9.9021,10.0237,9.8024,5.4596-.0995,9.6888-4.3886,9.6596-9.7965ZM227.0085,19.7732c-.0164-5.426-4.2661-9.6917-9.708-9.7447-5.5084-.0536-10.0075,4.392-9.9643,9.8458.0421,5.3147,4.4511,9.7444,9.7749,9.8208,5.4434.0781,9.9142-4.4038,9.8975-9.9219ZM69.2323,19.882c.0358,5.3946,4.3403,9.7266,9.7256,9.7878,5.4039.0614,10.0559-4.5695,9.9549-9.9098-.1045-5.5229-4.5602-9.8226-10.0864-9.7329-5.4143.0879-9.6302,4.4184-9.5941,9.8549Z"/>
  <path class="cls-2" d="M132.8056,172.2381c-6.236-6.2513-12.472-12.4873-18.7233-18.7233-2.6265-2.6418-6.1899-2.6879-8.8471-.0614-2.6879,2.6572-5.3759,5.3144-8.0177,8.0177-2.6418,2.7033-2.6572,6.1745.0307,8.8625,10.6288,10.6595,21.2576,21.3037,31.9171,31.9171,2.7186,2.7033,6.2667,2.7494,8.97.0461,20.3514-20.3207,40.6875-40.6567,60.9928-61.0082,2.3347-2.3347,2.5343-5.683.3072-8.1252-2.8108-3.0719-5.7752-6.0363-8.8471-8.8318-2.734-2.4882-5.8673-2.2578-8.4324.3225-11.8115,11.7808-23.5923,23.5769-35.373,35.3577-4.3468,4.3468-8.6782,8.6935-13.1785,13.1939-.3225-.4147-.5376-.7066-.7987-.9677"/>
</svg>