<?xml version="1.0" encoding="UTF-8"?>
<svg id="Layer_1" data-name="Layer 1" xmlns="http://www.w3.org/2000/svg" viewBox="0 0 196.9112 196.9112">
  <defs>
    <style>
      .cls-1 {
        fill: none;
        stroke: #4a9cd5;
        stroke-linecap: round;
        stroke-linejoin: round;
        stroke-width: 8px;
      }

      .cls-2 {
        fill: #4a9cd5;
        stroke-width: 0px;
      }
    </style>
  </defs>
  <g>
    <path class="cls-2" d="M194.9425,157.8925h-7.8768c-1.0888,0-1.9687.8804-1.9687,1.9692v17.3584c0,4.269-3.6088,7.8764-7.8768,7.8764h-17.6848c-1.0878,0-1.9687.8823-1.9687,1.9692v7.8764c0,1.0869.8809,1.9692,1.9687,1.9692h17.6848c10.8299,0,19.6911-8.8612,19.6911-19.6911v-17.3584c0-1.0888-.8809-1.9692-1.9687-1.9692Z"/>
    <path class="cls-2" d="M37.69,0h-17.9989C8.8612,0,0,8.861,0,19.6911v18.3235c0,1.0885.88,1.9692,1.9692,1.9692h7.8764c1.086,0,1.9692-.8807,1.9692-1.9692v-18.3235c0-4.269,3.6055-7.8764,7.8764-7.8764h17.9989c1.0878,0,1.9692-.883,1.9692-1.9692V1.9692c0-1.0869-.8814-1.9692-1.9692-1.9692Z"/>
    <path class="cls-2" d="M177.2201,0h-17.6848c-1.0878,0-1.9687.8823-1.9687,1.9692v7.8764c0,1.0862.8809,1.9692,1.9687,1.9692h17.6848c4.2681,0,7.8768,3.6074,7.8768,7.8764v18.3235c0,1.0885.88,1.9692,1.9687,1.9692h7.8768c1.0878,0,1.9687-.8807,1.9687-1.9692v-18.3235c0-10.8302-8.8612-19.6911-19.6911-19.6911Z"/>
    <path class="cls-2" d="M37.69,185.0964h-17.9989c-4.2708,0-7.8764-3.6074-7.8764-7.8764v-17.3584c0-1.0888-.8832-1.9692-1.9692-1.9692H1.9692c-1.0892,0-1.9692.8804-1.9692,1.9692v17.3584c0,10.8299,8.8612,19.6911,19.6911,19.6911h17.9989c1.0878,0,1.9692-.8823,1.9692-1.9692v-7.8764c0-1.0869-.8814-1.9692-1.9692-1.9692Z"/>
  </g>
  <path class="cls-1" d="M81.0728,40.2893c-16.1732.3685-25.6198,1.9081-32.0742,8.3401-5.6489,5.6293-7.5373,13.5428-8.1685,26.2352M115.8385,40.2893c16.1733.3685,25.6197,1.9081,32.0743,8.3401,5.6485,5.6293,7.5368,13.5428,8.1683,26.2352M115.8385,155.5403c16.1733-.3688,25.6197-1.9083,32.0743-8.3399,5.6485-5.6297,7.5368-13.5432,8.1683-26.2354M81.0728,155.5403c-16.1732-.3688-25.6198-1.9083-32.0742-8.3399-5.6489-5.6297-7.5373-13.5432-8.1685-26.2354"/>
  <path class="cls-1" d="M122.719,97.9148c0,13.4-10.8633,24.2634-24.2634,24.2634s-24.2634-10.8633-24.2634-24.2634,10.8631-24.2634,24.2634-24.2634,24.2634,10.8631,24.2634,24.2634Z"/>
</svg>