<?xml version="1.0" encoding="UTF-8"?><svg id="Layer_1" xmlns="http://www.w3.org/2000/svg" xmlns:xlink="http://www.w3.org/1999/xlink" viewBox="0 0 187.6842 297.054"><defs><style>.cls-1,.cls-2{fill:none;}.cls-3{clip-path:url(#clippath);}.cls-4{fill:#4a9cd5;}.cls-5{clip-path:url(#clippath-1);}.cls-2{stroke:#fff;stroke-width:12px;}</style><clipPath id="clippath"><path class="cls-1" d="m187.5384,141.4824s-8.6244,15.2586-10.6147,16.5855-5.0505,3.7594-10.5041,2.5431c-5.4537-1.2163-10.3936-6.3025-10.3936-6.3025l-119.1942,53.8475s-4.4228,3.5382-4.8651,2.2114-22.1139-25.2439-25.2099-34.2936,0,61.2726,0,61.2726l3.096,55.7271,54.4003,3.9805,111.8966-2.6537s13.0472-31.6756,11.3887-33.7501,0-119.1678,0-119.1678Z"/></clipPath><clipPath id="clippath-1"><path class="cls-1" d="m160.1171,74.8089c2.7642,2.5431,6.0813,5.9708,8.9561,10.1724,2.8748,4.2016,7.4082,12.2732,8.8456,15.0375,0,0,5.5285-48.4295,5.5285-49.4247s-1.6585-36.1563-1.6585-36.1563c0,0-8.4033-10.6147-10.0066-10.6147S119.0958,0,119.0958,0H46.1198L10.9586,5.8479S3.3293,44.9551,3.3293,45.9502s2.322,31.7917,2.322,31.7917l2.322-4.4809s4.9756-4.6439,11.1675-6.1919c6.1919-1.548,8.9561-2.1008,12.9367-1.7691s21.5611,33.1709,21.5611,33.1709l106.4786-23.6619Z"/></clipPath></defs><path class="cls-4" d="m1.6929,94.521c.2569-.565.5338-1.122.7675-1.6965,1.2839-3.1557,3.3813-5.5642,6.3759-7.2364,3.4976-1.953,6.8321-4.2314,10.4349-5.9558,7.1623-3.4281,12.8857-2.2509,17.7384,3.9989,4.8982,6.3083,7.8685,13.6001,8.966,21.5589.798,5.7868-1.6368,10.1272-6.3626,13.3016-1.924,1.2924-3.8535,2.5966-5.8844,3.7049-2.808,1.5322-4.1091,3.9081-3.6806,6.9321.4498,3.1745,1.0945,6.3824,2.1607,9.3965,2.7995,7.9138,6.9775,15.173,11.3062,22.3298,4.5038,7.4462,9.2331,14.7435,15.0723,21.2442,2.4277,2.7027,5.0186,5.2115,8.3922,6.7595,2.256,1.0352,4.3625.8754,6.4672-.4448,2.0041-1.2572,4.0651-2.4264,6.1286-3.5854,5.3034-2.979,10.5624-3.0131,15.4762.7289,6.5547,4.9918,11.808,11.1233,14.9663,18.8126,2.2849,5.5628,1.0737,10.7011-3.3493,14.7536-1.7693,1.6211-3.7513,3.0361-5.7526,4.3707-2.1677,1.4456-4.5146,2.6203-6.7047,4.0349-3.3926,2.1913-7.0641,2.3978-10.8721,1.7098-7.7326-1.3971-14.4202-5.1294-20.7355-9.5685-13.2375-9.305-23.8708-21.1589-33.1269-34.3141-10.4901-14.9089-18.9181-30.8791-24.4194-48.306C1.8315,126.8325-.2975,116.411.0339,105.6185c.0676-2.2021.3538-4.3975.5392-6.596.3733-1.5005.7465-3.001,1.1198-4.5015Z"/><g><path class="cls-2" d="m123.3303,59.7819c10.824,2.4904,19.5385,7.1867,27.1665,13.848,12.4965,10.9129,21.1357,24.3869,25.8522,40.2861,2.9894,10.0774,3.6137,20.3423,1.1368,30.6331-.6185,2.5697-1.6153,5.143-2.9397,7.4234-1.545,2.66-5.1339,3.4649-8.1433,2.3562-2.9187-1.0753-4.8055-3.9533-4.5787-7.0468.0563-.7685.1091-1.5741.3729-2.2849,3.2933-8.878,2.9394-17.8442.2473-26.7076-4.6107-15.1799-13.0915-27.7839-25.9954-37.1842-5.7601-4.1962-12.1941-6.855-19.3837-7.5042-3.3392-.3015-6.1287-1.5924-7.256-5.0635-1.7028-5.2428,2.505-10.1081,8.1965-9.4996,2.0817.2226,4.1493.5772,5.3249.7441Z"/><path class="cls-4" d="m123.3303,59.7819c10.824,2.4904,19.5385,7.1867,27.1665,13.848,12.4965,10.9129,21.1357,24.3869,25.8522,40.2861,2.9894,10.0774,3.6137,20.3423,1.1368,30.6331-.6185,2.5697-1.6153,5.143-2.9397,7.4234-1.545,2.66-5.1339,3.4649-8.1433,2.3562-2.9187-1.0753-4.8055-3.9533-4.5787-7.0468.0563-.7685.1091-1.5741.3729-2.2849,3.2933-8.878,2.9394-17.8442.2473-26.7076-4.6107-15.1799-13.0915-27.7839-25.9954-37.1842-5.7601-4.1962-12.1941-6.855-19.3837-7.5042-3.3392-.3015-6.1287-1.5924-7.256-5.0635-1.7028-5.2428,2.505-10.1081,8.1965-9.4996,2.0817.2226,4.1493.5772,5.3249.7441Z"/></g><path class="cls-4" d="m101.4449,91.9806c.9694-4.5944,5.6994-6.9703,10.2311-5.1391,19.638,7.9353,32.0957,27.4081,31.1399,48.6753-.1776,3.9527-3.2676,7.0784-7.0659,7.1477-4.024.0734-7.1664-2.762-7.4494-6.8245-.18-2.5852.0578-5.2287-.3793-7.762-2.1526-12.4763-8.7678-21.6721-20.3873-27.0652-1.1508-.5342-2.3297-1.0699-3.3536-1.803-2.3645-1.693-3.33-4.4119-2.7356-7.2292Z"/><path class="cls-4" d="m101.6454,120.6799c2.7655,0,5.3095-.0119,7.8533.0034,2.4293.0147,3.247.8369,3.2685,3.2638.0132,1.4903.0054,2.9809-.001,4.4713-.0097,2.2661-.9327,3.2098-3.1764,3.22-2.592.0119-5.184.0028-7.8624.0028v11.1439c2.6721,0,5.2624-.0096,7.8525.0029,2.2751.011,3.1646.9136,3.1796,3.1964.0091,1.384.0149,2.768.0083,4.152-.0137,2.8663-.7498,3.6064-3.5683,3.6069-2.439.0004-4.8779,0-7.5538,0,0,2.5599-.0036,4.9865.0009,7.4131.0056,2.9694-.6973,3.6949-3.627,3.7081-1.4904.0067-2.9816.0256-4.4712-.0097-1.8781-.0446-2.8382-1.0112-2.8543-2.8806-.0229-2.6583-.0058-5.317-.0058-8.1098h-11.1434c0,2.598.0073,5.1392-.0021,7.6804-.009,2.4442-.9153,3.3196-3.4003,3.316-1.5969-.0023-3.1953.0401-4.7903-.0157-1.8393-.0643-2.7269-.9579-2.754-2.7909-.0399-2.7018-.0103-5.4045-.0103-8.3168-2.6998,0-5.2351.0017-7.7704-.0005-2.5196-.0022-3.3294-.801-3.3531-3.3324-.0139-1.4904-.0094-2.9811.0025-4.4716.0175-2.2003.9042-3.124,3.0703-3.143,2.6013-.0228,5.203-.0054,7.9255-.0054v-11.1481c-2.4076,0-4.8301-.0012-7.2527.0003-3.0303.0019-3.7484-.7196-3.7446-3.7586.0017-1.3308-.0183-2.6618-.0045-3.9925.024-2.3223.8809-3.1932,3.1673-3.2053,2.5527-.0135,5.1054-.0031,7.9561-.0031,0-.9481-.0002-1.8223,0-2.6966.0004-1.9164-.0352-3.8338.0125-5.749.0411-1.6469.9204-2.5795,2.5686-2.6468,1.9133-.0781,3.8338-.0792,5.7477-.0123,1.672.0585,2.6005,1.0734,2.6211,2.7896.0325,2.7034.0086,5.4074.0086,8.2139h11.1319c0-2.4114-.0046-4.785.0011-7.1586.0076-3.1604.6861-3.8447,3.8134-3.8545,1.4372-.0045,2.8757-.0357,4.3115.0102,1.9292.0616,2.8168.9598,2.8372,2.8759.0282,2.6549.0071,5.3103.0071,8.2306Zm-21.9631,11.0215v10.9626h10.8954v-10.9626h-10.8954Z"/><g class="cls-3"><path class="cls-4" d="m176.1498,146.5236V24.6047c0-3.6686-1.0814-7.0582-2.9124-9.9481-1.5124-2.3783-3.5179-4.3922-5.9028-5.8962-2.8815-1.8138-6.2729-2.9124-9.931-2.9124H32.3087c-10.3757,0-18.7634,8.4031-18.7634,18.7567v247.6635c0,2.4673.5099,4.791,1.3691,6.9555,1.8923,4.7738,5.6807,8.5468,10.4545,10.4563,2.166.8589,4.4724,1.3688,6.9398,1.3688h125.0949c10.3448,0,18.7462-8.4028,18.7462-18.7805v-125.7446ZM105.09,19.5347h21.9936c1.7045,0,3.104,1.3926,3.104,3.1037,0,1.7195-1.3996,3.0953-3.104,3.0953H62.6115c-1.7041,0-3.0869-1.3758-3.0869-3.0953,0-1.7111,1.3828-3.1037,3.0869-3.1037h42.4786Zm-10.2492,260.5651c-5.366,0-9.7256-4.3459-9.7256-9.7256s4.3596-9.7239,9.7256-9.7239c5.393,0,9.7221,4.3445,9.7221,9.7239s-4.3291,9.7256-9.7221,9.7256Zm66.1251-31.401H28.7291V36.7478h132.2368v211.9509Z"/></g><g class="cls-5"><path class="cls-4" d="m176.1498,146.5236V24.6047c0-3.6686-1.0814-7.0582-2.9124-9.9481-1.5124-2.3783-3.5179-4.3922-5.9028-5.8962-2.8815-1.8138-6.2729-2.9124-9.931-2.9124H32.3087c-10.3757,0-18.7634,8.4031-18.7634,18.7567v247.6635c0,2.4673.5099,4.791,1.3691,6.9555,1.8923,4.7738,5.6807,8.5468,10.4545,10.4563,2.166.8589,4.4724,1.3688,6.9398,1.3688h125.0949c10.3448,0,18.7462-8.4028,18.7462-18.7805v-125.7446ZM105.09,19.5347h21.9936c1.7045,0,3.104,1.3926,3.104,3.1037,0,1.7195-1.3996,3.0953-3.104,3.0953H62.6115c-1.7041,0-3.0869-1.3758-3.0869-3.0953,0-1.7111,1.3828-3.1037,3.0869-3.1037h42.4786Zm-10.2492,260.5651c-5.366,0-9.7256-4.3459-9.7256-9.7256s4.3596-9.7239,9.7256-9.7239c5.393,0,9.7221,4.3445,9.7221,9.7239s-4.3291,9.7256-9.7221,9.7256Zm66.1251-31.401H28.7291V36.7478h132.2368v211.9509Z"/></g></svg>