<?xml version="1.0" encoding="UTF-8"?><svg id="Layer_1" xmlns="http://www.w3.org/2000/svg" viewBox="0 0 141.1637 141.1637"><defs><style>.cls-1{fill:#fff;}.cls-2{fill:#4a9cd5;}</style></defs><rect class="cls-2" width="141.1637" height="141.1637" rx="10" ry="10"/><path class="cls-1" d="m15.307,38.974c.1682-.37.3495-.7346.5025-1.1108.8406-2.0662,2.2139-3.6431,4.1746-4.738,2.29-1.2787,4.4733-2.7705,6.8322-3.8995,4.6895-2.2445,8.4368-1.4738,11.6141,2.6183,3.207,4.1303,5.1519,8.9046,5.8705,14.1156.5225,3.7889-1.0717,6.6307-4.1659,8.7091-1.2597.8462-2.523,1.7001-3.8528,2.4257-1.8385,1.0032-2.6904,2.5588-2.4099,4.5388.2945,2.0785.7166,4.1789,1.4147,6.1523,1.8329,5.1815,4.5685,9.9345,7.4027,14.6203,2.9489,4.8753,6.0453,9.6532,9.8685,13.9095,1.5895,1.7696,3.2859,3.4122,5.4947,4.4257,1.4771.6778,2.8563.5732,4.2343-.2912,1.3122-.8231,2.6616-1.5886,4.0126-2.3475,3.4724-1.9505,6.9157-1.9728,10.133.4773,4.2916,3.2683,7.7312,7.2829,9.7991,12.3175,1.496,3.6422.703,7.0065-2.1929,9.6598-1.1584,1.0614-2.4561,1.9878-3.7665,2.8617-1.4193.9465-2.9559,1.7156-4.3899,2.6418-2.2213,1.4347-4.6252,1.57-7.1185,1.1195-5.0629-.9147-9.4415-3.3584-13.5765-6.265-8.6672-6.0924-15.6293-13.8537-21.6897-22.467-6.8683-9.7615-12.3865-20.2179-15.9885-31.6281-2.1119-6.69-3.5058-13.5134-3.2889-20.5798.0443-1.4418.2316-2.8793.3531-4.3187.2444-.9824.4888-1.9649.7332-2.9473Z"/><path class="cls-1" d="m94.2231,16.0713c6.4368,1.4895,11.5858,4.4435,16.0611,8.6924,7.3317,6.9606,12.3266,15.6391,14.9475,25.9476,1.6612,6.5338,1.9068,13.2193.2989,19.9602-.4015,1.6832-1.029,3.3736-1.8488,4.8769-.9562,1.7536-3.1107,2.3231-4.8952,1.6375-1.7307-.6649-2.8224-2.5181-2.6485-4.5381.0432-.5018.0848-1.0277.2512-1.4945,2.0781-5.8298,1.978-11.6718.4793-17.4178-2.5666-9.8408-7.4777-17.954-15.0716-23.9233-3.3898-2.6646-7.2013-4.3184-11.4893-4.6525-1.9916-.1551-3.6423-.9622-4.2729-3.2115-.9524-3.3974,1.6223-6.6221,5.0156-6.296,1.2411.1193,2.4722.3249,3.1726.4191Z"/><path class="cls-1" d="m80.6191,37.3107c.6347-3.0082,3.7316-4.5638,6.6988-3.3648,12.8579,5.1956,21.0145,17.9453,20.3887,31.8699-.1163,2.588-2.1395,4.6346-4.6264,4.6799-2.6347.048-4.6922-1.8084-4.8774-4.4683-.1179-1.6927.0378-3.4235-.2484-5.0821-1.4094-8.1688-5.7407-14.1897-13.3485-17.7208-.7535-.3497-1.5253-.7005-2.1958-1.1805-1.5481-1.1085-2.1803-2.8887-1.7911-4.7333Z"/><path class="cls-1" d="m80.7504,56.1014c1.8107,0,3.4764-.0078,5.1419.0023,1.5906.0096,2.126.548,2.14,2.137.0087.9758.0035,1.9517-.0007,2.9276-.0064,1.4837-.6107,2.1016-2.0797,2.1083-1.6971.0078-3.3942.0018-5.1479.0018v7.2964c1.7496,0,3.4455-.0063,5.1414.0019,1.4896.0072,2.072.5982,2.0818,2.0928.006.9061.0098,1.8123.0054,2.7185-.009,1.8767-.4909,2.3613-2.3363,2.3616-1.5969.0003-3.1938,0-4.9458,0,0,1.6761-.0024,3.2649.0006,4.8537.0037,1.9442-.4566,2.4192-2.3748,2.4279-.9759.0044-1.9522.0168-2.9275-.0064-1.2297-.0292-1.8583-.6621-1.8688-1.8861-.015-1.7405-.0038-3.4813-.0038-5.3098h-7.2961c0,1.701.0048,3.3649-.0014,5.0287-.0059,1.6003-.5993,2.1735-2.2263,2.1712-1.0456-.0015-2.0921.0262-3.1364-.0103-1.2043-.0421-1.7854-.6272-1.8032-1.8273-.0261-1.769-.0067-3.5386-.0067-5.4454-1.7677,0-3.4276.0011-5.0876-.0003-1.6497-.0014-2.1799-.5245-2.1954-2.1819-.0091-.9758-.0061-1.9519.0017-2.9277.0115-1.4406.592-2.0454,2.0103-2.0578,1.7032-.0149,3.4067-.0035,5.1892-.0035v-7.2991c-1.5763,0-3.1625-.0008-4.7487.0002-1.9841.0012-2.4542-.4712-2.4517-2.461.0011-.8714-.012-1.7428-.003-2.6141.0157-1.5205.5767-2.0907,2.0738-2.0986,1.6713-.0088,3.3428-.002,5.2092-.002,0-.6208-.0001-1.1932,0-1.7656.0003-1.2548-.0231-2.5101.0082-3.7641.0269-1.0783.6026-1.6889,1.6818-1.733,1.2527-.0511,2.5102-.0519,3.7633-.008,1.0947.0383,1.7026.7028,1.7161,1.8264.0213,1.77.0057,3.5405.0057,5.378h7.2886c0-1.5789-.003-3.133.0007-4.6871.005-2.0693.4492-2.5173,2.4968-2.5237.941-.003,1.8828-.0234,2.8229.0067,1.2631.0403,1.8443.6284,1.8576,1.883.0185,1.7383.0046,3.4769.0046,5.389Zm-14.3802,7.2163v7.1777h7.1337v-7.1777h-7.1337Z"/></svg>