<?xml version="1.0" encoding="UTF-8"?><svg id="Layer_1" xmlns="http://www.w3.org/2000/svg" viewBox="0 0 271.0964 247.6489"><defs><style>.cls-1{fill:#fff;}.cls-2{fill:none;stroke:#fff;stroke-miterlimit:10;stroke-width:4px;}</style></defs><path class="cls-1" d="m152.1254,133.3481c0-12.1371-10.3462-14.6554-18.5852-16.7073-5.6693-1.4074-10.3462-2.5065-10.3462-6.3295,0-3.313,3.819-4.8192,7.6302-4.8192,4.3567,0,8.1678,2.1467,8.1678,6.6774h11.5481c0-9.2827-5.3016-15.4422-14.7701-16.9168v-5.2106h-9.2867v5.183c-9.2392,1.3284-14.9164,6.8197-14.9164,15.6043,0,11.6865,9.9073,14.0427,18.0515,16.0155,5.8274,1.3916,10.6704,2.4907,10.6704,6.6497,0,3.7914-4.3053,6.0053-8.6976,6.0053-4.7006,0-9.0178-2.4038-9.0178-7.4246h-11.7734c0,9.9666,6.4046,16.4819,16.3238,17.9763v5.5902h9.2432v-5.6139c9.0613-1.3916,15.7585-6.9581,15.7585-16.6796m31.679-9.6504c0,28.3463-22.9775,51.3238-51.3238,51.3238s-51.3198-22.9775-51.3198-51.3238,22.9775-51.3238,51.3198-51.3238,51.3238,22.9775,51.3238,51.3238"/><path class="cls-1" d="m262.7625,129.4741c0-6.792-5.5072-12.2992-12.2992-12.2992s-12.2992,5.5072-12.2992,12.2992c0,6.796,5.5072,12.3032,12.2992,12.3032s12.2992-5.5072,12.2992-12.3032m-12.2992,20.633c-11.3939,0-20.6332-9.2353-20.6332-20.633s9.2392-20.6291,20.6332-20.6291,20.6331,9.2353,20.6331,20.6291-9.2392,20.633-20.6331,20.633"/><path class="cls-1" d="m226.5118,61.8926c0-6.792-5.5072-12.2992-12.2992-12.2992s-12.2992,5.5072-12.2992,12.2992c0,6.796,5.5072,12.3032,12.2992,12.3032s12.2992-5.5072,12.2992-12.3032m-12.2992,20.633c-11.3938,0-20.6332-9.2353-20.6332-20.633s9.2392-20.6291,20.6332-20.6291,20.633,9.2353,20.633,20.6291-9.2392,20.633-20.633,20.633"/><path class="cls-1" d="m145.9742,20.6291c0-6.792-5.5072-12.2992-12.2992-12.2992s-12.2992,5.5072-12.2992,12.2992c0,6.796,5.5072,12.3032,12.2992,12.3032s12.2992-5.5072,12.2992-12.3032m-12.2992,20.633c-11.3938,0-20.633-9.2353-20.633-20.633S122.2812,0,133.675,0s20.633,9.2353,20.633,20.6291-9.2392,20.633-20.633,20.633"/><path class="cls-1" d="m145.9742,227.0158c0-6.792-5.5072-12.2992-12.2992-12.2992s-12.2992,5.5072-12.2992,12.2992c0,6.796,5.5072,12.3032,12.2992,12.3032s12.2992-5.5072,12.2992-12.3032m-12.2992,20.633c-11.3938,0-20.633-9.2353-20.633-20.633s9.2392-20.6291,20.633-20.6291,20.633,9.2353,20.633,20.6291-9.2392,20.633-20.633,20.633"/><path class="cls-1" d="m8.3062,129.4741c0-6.792,5.4874-12.2992,12.2597-12.2992s12.2597,5.5072,12.2597,12.2992c0,6.796-5.4874,12.3032-12.2597,12.3032s-12.2597-5.5072-12.2597-12.3032m12.2597,20.633c11.3583,0,20.5659-9.2353,20.5659-20.633s-9.2076-20.6291-20.5659-20.6291S0,118.0803,0,129.4741s9.2076,20.633,20.5659,20.633"/><path class="cls-1" d="m44.4071,61.8926c0-6.792,5.4874-12.2992,12.2597-12.2992s12.2597,5.5072,12.2597,12.2992c0,6.796-5.4874,12.3032-12.2597,12.3032s-12.2597-5.5072-12.2597-12.3032m12.2597,20.633c11.3583,0,20.5659-9.2353,20.5659-20.633s-9.2076-20.6291-20.5659-20.6291-20.5659,9.2353-20.5659,20.6291,9.2076,20.633,20.5659,20.633"/><path class="cls-1" d="m226.5118,193.5495c0-6.792-5.5072-12.2992-12.2992-12.2992s-12.2992,5.5072-12.2992,12.2992c0,6.796,5.5072,12.3032,12.2992,12.3032s12.2992-5.5072,12.2992-12.3032m-12.2992,20.633c-11.3938,0-20.6332-9.2353-20.6332-20.633s9.2392-20.6291,20.6332-20.6291,20.633,9.2353,20.633,20.6291-9.2392,20.633-20.633,20.633"/><path class="cls-1" d="m44.4071,193.5495c0-6.792,5.4874-12.2992,12.2597-12.2992s12.2597,5.5072,12.2597,12.2992c0,6.796-5.4874,12.3032-12.2597,12.3032s-12.2597-5.5072-12.2597-12.3032m12.2597,20.633c11.3583,0,20.5659-9.2353,20.5659-20.633s-9.2076-20.6291-20.5659-20.6291-20.5659,9.2353-20.5659,20.6291,9.2076,20.633,20.5659,20.633"/><path class="cls-2" d="m133.6743,41.261v41.5112m-77.0094,0v11.9672c0,4.9656,4.0365,9.0257,8.9703,9.0257h31.2125m-60.7468,27.2631h51.8594m126.2536-48.2558v11.9672c0,4.9656-4.0365,9.0257-8.9704,9.0257h-31.343m60.945,27.2631h-52.0299"/><path class="cls-2" d="m133.6743,211.2994v-36.7739m-77.0094,0v-10.6013c0-4.3989,4.0365-7.9957,8.9703-7.9957h31.2125m117.3662,18.5971v-10.6013c0-4.3989-4.7672-7.9957-10.5944-7.9957h-37.0173"/></svg>