<?xml version="1.0" encoding="UTF-8"?><svg id="Layer_1" xmlns="http://www.w3.org/2000/svg" viewBox="0 0 277.4629 253.4647"><defs><style>.cls-1{fill:#4a9cd6;}.cls-2{fill:none;stroke:#4a9cd6;stroke-miterlimit:10;stroke-width:4px;}</style></defs><path class="cls-1" d="m155.698,136.4797c0-12.4221-10.5892-14.9996-19.0217-17.0997-5.8024-1.4405-10.5892-2.5654-10.5892-6.4781,0-3.3908,3.9087-4.9324,7.8094-4.9324,4.459,0,8.3596,2.1971,8.3596,6.8342h11.8193c0-9.5007-5.4261-15.8048-15.117-17.3141v-5.333h-9.5048v5.3047c-9.4562,1.3596-15.2667,6.9799-15.2667,15.9708,0,11.9609,10.14,14.3725,18.4754,16.3916,5.9642,1.4243,10.921,2.5492,10.921,6.8059,0,3.8804-4.4064,6.1463-8.9019,6.1463-4.811,0-9.2296-2.4602-9.2296-7.599h-12.0499c0,10.2007,6.555,16.869,16.7072,18.3985v5.7215h9.4603v-5.7457c9.2741-1.4243,16.1286-7.1215,16.1286-17.0713m32.423-9.877c0,29.012-23.5171,52.5291-52.5291,52.5291s-52.525-23.5171-52.525-52.5291,23.5171-52.5291,52.525-52.5291,52.5291,23.5171,52.5291,52.5291"/><path class="cls-1" d="m268.9333,132.5147c0-6.9515-5.6365-12.588-12.588-12.588s-12.588,5.6365-12.588,12.588c0,6.9556,5.6365,12.5921,12.588,12.5921s12.588-5.6365,12.588-12.5921m-12.588,21.1176c-11.6615,0-21.1177-9.4522-21.1177-21.1176s9.4562-21.1136,21.1177-21.1136,21.1176,9.4522,21.1176,21.1136-9.4562,21.1176-21.1176,21.1176"/><path class="cls-1" d="m231.8312,63.3461c0-6.9515-5.6365-12.588-12.588-12.588s-12.588,5.6365-12.588,12.588c0,6.9556,5.6365,12.5921,12.588,12.5921s12.588-5.6365,12.588-12.5921m-12.588,21.1176c-11.6614,0-21.1177-9.4522-21.1177-21.1176s9.4562-21.1136,21.1177-21.1136,21.1176,9.4522,21.1176,21.1136-9.4562,21.1176-21.1176,21.1176"/><path class="cls-1" d="m149.4023,21.1136c0-6.9515-5.6365-12.588-12.588-12.588s-12.588,5.6365-12.588,12.588c0,6.9556,5.6365,12.5921,12.588,12.5921s12.588-5.6365,12.588-12.5921m-12.588,21.1176c-11.6614,0-21.1176-9.4522-21.1176-21.1176S125.1529,0,136.8143,0s21.1176,9.4522,21.1176,21.1136-9.4562,21.1176-21.1176,21.1176"/><path class="cls-1" d="m149.4023,232.3471c0-6.9515-5.6365-12.588-12.588-12.588s-12.588,5.6365-12.588,12.588c0,6.9556,5.6365,12.5921,12.588,12.5921s12.588-5.6365,12.588-12.5921m-12.588,21.1176c-11.6614,0-21.1176-9.4522-21.1176-21.1176s9.4562-21.1136,21.1176-21.1136,21.1176,9.4522,21.1176,21.1136-9.4562,21.1176-21.1176,21.1176"/><path class="cls-1" d="m8.5013,132.5147c0-6.9515,5.6163-12.588,12.5476-12.588s12.5476,5.6365,12.5476,12.588c0,6.9556-5.6163,12.5921-12.5476,12.5921s-12.5476-5.6365-12.5476-12.5921m12.5476,21.1176c11.625,0,21.0489-9.4522,21.0489-21.1176s-9.4238-21.1136-21.0489-21.1136S0,120.8533,0,132.5147s9.4238,21.1176,21.0489,21.1176"/><path class="cls-1" d="m45.45,63.3461c0-6.9515,5.6163-12.588,12.5476-12.588s12.5476,5.6365,12.5476,12.588c0,6.9556-5.6163,12.5921-12.5476,12.5921s-12.5476-5.6365-12.5476-12.5921m12.5476,21.1176c11.625,0,21.0489-9.4522,21.0489-21.1176s-9.4238-21.1136-21.0489-21.1136-21.0489,9.4522-21.0489,21.1136,9.4238,21.1176,21.0489,21.1176"/><path class="cls-1" d="m231.8312,198.0949c0-6.9515-5.6365-12.588-12.588-12.588s-12.588,5.6365-12.588,12.588c0,6.9556,5.6365,12.5921,12.588,12.5921s12.588-5.6365,12.588-12.5921m-12.588,21.1176c-11.6614,0-21.1177-9.4522-21.1177-21.1176s9.4562-21.1136,21.1177-21.1136,21.1176,9.4522,21.1176,21.1136-9.4562,21.1176-21.1176,21.1176"/><path class="cls-1" d="m45.45,198.0949c0-6.9515,5.6163-12.588,12.5476-12.588s12.5476,5.6365,12.5476,12.588c0,6.9556-5.6163,12.5921-12.5476,12.5921s-12.5476-5.6365-12.5476-12.5921m12.5476,21.1176c11.625,0,21.0489-9.4522,21.0489-21.1176s-9.4238-21.1136-21.0489-21.1136-21.0489,9.4522-21.0489,21.1136,9.4238,21.1176,21.0489,21.1176"/><path class="cls-2" d="m136.8135,42.23v42.4861m-78.8179,0v12.2482c0,5.0822,4.1313,9.2377,9.181,9.2377h31.9455m-62.1734,27.9033h53.0773m129.2186-49.3891v12.2482c0,5.0822-4.1313,9.2377-9.1811,9.2377h-32.0791m62.3762,27.9033h-53.2518"/><path class="cls-2" d="m136.8135,216.2616v-37.6375m-78.8179,0v-10.8503c0-4.5022,4.1313-8.1835,9.181-8.1835h31.9455m120.1225,19.0338v-10.8503c0-4.5022-4.8792-8.1835-10.8432-8.1835h-37.8866"/></svg>