<?xml version="1.0" encoding="utf-8"?>
<!-- Generator: Adobe Illustrator 27.2.0, SVG Export Plug-In . SVG Version: 6.00 Build 0)  -->
<svg version="1.1" id="Layer_1" xmlns="http://www.w3.org/2000/svg" xmlns:xlink="http://www.w3.org/1999/xlink" x="0px" y="0px"
	 viewBox="0 0 278.5 209" style="enable-background:new 0 0 278.5 209;" xml:space="preserve">
<style type="text/css">
	.st0{fill:#4A9CD5;}
	.st1{clip-path:url(#SVGID_00000037694887477380622750000005726445927319890333_);fill:#4A9CD5;}
</style>
<path class="st0" d="M140.1,205.6c-25.6,0-50-9.6-68.8-27c-1.8-1.6-1.9-4.4-0.2-6.1c1.6-1.8,4.4-1.9,6.1-0.2
	c17.1,15.9,39.5,24.7,62.9,24.7s45.7-8.8,62.9-24.7c1.8-1.6,4.5-1.5,6.1,0.2c1.6,1.8,1.5,4.5-0.2,6.1
	C190.1,196.1,165.7,205.6,140.1,205.6"/>
<path class="st0" d="M76.9,35.6c-1.2,0-2.4-0.5-3.3-1.5C72,32.3,72.2,29.5,74,28c18.3-15.8,41.8-24.6,66.1-24.6
	c23.2,0,45,7.6,63.1,22.1c1.9,1.5,2.2,4.2,0.7,6.1c-1.5,1.9-4.2,2.2-6.1,0.7c-16.5-13.2-36.5-20.2-57.7-20.2
	c-22.2,0-43.6,8-60.4,22.5C78.9,35.2,77.9,35.6,76.9,35.6"/>
<polygon class="st0" points="77.6,8.4 70.5,40.6 100.8,34.9 "/>
<polygon class="st0" points="206.5,198.7 213.7,166.5 183.3,172.2 "/>
<path class="st0" d="M265.4,103.4c0,26.5-21.5,48.1-48.1,48.1s-48.1-21.5-48.1-48.1s21.5-48.1,48.1-48.1S265.4,76.8,265.4,103.4z
	 M235.4,125.8l-2.5-10.7c-1.8,0.9-5.9,2.1-9.8,2.1c-4.5,0-8.5-1.3-11.2-4.2c-0.7-0.8-1.4-1.8-1.9-2.8h21.4v-6.6h-23.1v-1.4
	c0-0.6,0-1.3,0.1-1.8h23v-6.6H210c0.5-0.9,1-1.8,1.6-2.5c2.6-3.3,6.6-4.7,10.6-4.7s7.7,1.1,10.1,2.1l2.8-11c-3.8-1.6-9-2.7-14.3-2.7
	c-8.4,0-15.8,3.4-21,9c-2.5,2.7-4.4,6-5.5,9.8h-5.8v6.6h4.7c0,0.6-0.1,1.1-0.1,1.7v1.5h-4.6v6.6h5.6c0.8,2.8,2,5.3,3.5,7.5
	c5.1,7.3,13.7,11.4,23.5,11.4C226.8,129.2,232.2,127.6,235.4,125.8L235.4,125.8z"/>
<path class="st0" d="M274.1,103.4c0,31.4-25.4,56.8-56.8,56.8s-56.8-25.4-56.8-56.8s25.4-56.8,56.8-56.8S274.1,72,274.1,103.4z
	 M268.8,103.4c0-28.4-23-51.5-51.5-51.5s-51.5,23-51.5,51.5s23,51.5,51.5,51.5S268.8,131.8,268.8,103.4"/>
<path class="st0" d="M118,103.4c0,31.4-25.4,56.8-56.8,56.8S4.4,134.8,4.4,103.4s25.4-56.8,56.8-56.8S118,72,118,103.4z
	 M112.7,103.4c0-28.4-23-51.5-51.5-51.5s-51.5,23-51.5,51.5s23,51.5,51.5,51.5S112.7,131.8,112.7,103.4"/>
<g>
	<defs>
		<path id="SVGID_1_" d="M81.6,162.4c23.6-6.9,41-30.4,41-58.3c0-27.1-16.4-50-38.9-57.6l10.2-5.9l15.4-8.4l13.3-4.2l16.1-3.5
			l16.5,1.6l14.8,3.2l17.2,8.7l7.9,8.6c-23.1,7.6-39.9,30.5-39.9,57.6c0,27.9,17.9,51.4,42.1,58.3l-16.9,8.8l-21.9,11.5l-30.6,3.8
			l-25.1-8.1c0,0-14-8.1-14.4-8.7C88,169,81.6,162.4,81.6,162.4z"/>
	</defs>
	<clipPath id="SVGID_00000064334756767033931160000006784201199390921608_">
		<use xlink:href="#SVGID_1_"  style="overflow:visible;"/>
	</clipPath>
	
		<rect x="79.7" y="62.9" style="clip-path:url(#SVGID_00000064334756767033931160000006784201199390921608_);fill:#4A9CD5;" width="120.8" height="8.7"/>
	
		<rect x="78.9" y="136.2" style="clip-path:url(#SVGID_00000064334756767033931160000006784201199390921608_);fill:#4A9CD5;" width="122.3" height="8.7"/>
	
		<rect x="69.1" y="100.2" style="clip-path:url(#SVGID_00000064334756767033931160000006784201199390921608_);fill:#4A9CD5;" width="141.9" height="8.7"/>
	<path style="clip-path:url(#SVGID_00000064334756767033931160000006784201199390921608_);fill:#4A9CD5;" d="M140.1,179.8
		c-41.5,0-75.3-33.8-75.3-75.3s33.8-75.3,75.3-75.3s75.3,33.8,75.3,75.3S181.6,179.8,140.1,179.8 M140.1,37.9
		c-36.7,0-66.6,29.9-66.6,66.6s29.9,66.6,66.6,66.6s66.6-29.9,66.6-66.6S176.8,37.9,140.1,37.9"/>
	<path style="clip-path:url(#SVGID_00000064334756767033931160000006784201199390921608_);fill:#4A9CD5;" d="M140.1,179.8
		c-23.7,0-42.3-33.1-42.3-75.3s18.6-75.3,42.3-75.3s42.3,33.1,42.3,75.3S163.8,179.8,140.1,179.8 M140.1,37.9
		c-18.2,0-33.7,30.5-33.7,66.6s15.4,66.6,33.7,66.6s33.7-30.5,33.7-66.6S158.3,37.9,140.1,37.9"/>
	
		<rect x="135.8" y="31.2" style="clip-path:url(#SVGID_00000064334756767033931160000006784201199390921608_);fill:#4A9CD5;" width="8.7" height="144.2"/>
</g>
<path class="st0" d="M56.8,135v-8.3c-6.7-0.4-13.5-2.5-17.5-5.1l3.6-11.1c3.3,2,10.2,4.3,15.3,4.3c3.8,0,6-0.6,6-2.4
	c0-1.1-0.7-2.1-7.1-3.9c-12-3.2-16.3-7.4-16.3-14.3c0-7,6.1-11.9,15.9-13.4v-9.1h9.6v8.6c5.8,0.4,11.3,1.8,14.3,3.5l-3.3,10.7
	c-2.5-1.4-7.8-3.4-12.9-3.4c-3.4,0-5.9,0.6-5.9,2.3c0,1.6,1.1,2.2,7.9,4c12.8,3.5,16.5,7.8,16.5,14.3c0,6.3-5.3,12.5-16.7,14.4v8.7
	L56.8,135L56.8,135z M61.4,55.3c-26.5,0-47.9,21.5-47.9,47.9s21.5,47.9,47.9,47.9s47.9-21.5,47.9-47.9S87.8,55.3,61.4,55.3z"/>
</svg>
