<?xml version="1.0" encoding="UTF-8"?><svg id="Layer_1" xmlns="http://www.w3.org/2000/svg" xmlns:xlink="http://www.w3.org/1999/xlink" viewBox="0 0 269.7681 202.2457"><defs><style>.cls-1{fill:none;}.cls-2{clip-path:url(#clippath);}.cls-3{fill:#fff;}</style><clipPath id="clippath"><path class="cls-1" d="m77.217,159.0073c23.6076-6.8823,40.9936-30.3646,40.9936-58.2742,0-27.0659-16.3507-49.9681-38.8699-57.6049l10.1942-5.9279,15.3673-8.3799,13.3084-4.2475,16.0793-3.4744,16.4771,1.563,14.7988,3.1753,17.2025,8.6555,7.9329,8.636c-23.1359,7.6368-39.9342,30.5389-39.9342,57.6049,0,27.9097,17.862,51.3919,42.116,58.2742l-16.9107,8.7512-21.8748,11.4662-30.5823,3.7811-25.0605-8.0703s-14.0169-8.0703-14.4416-8.7074-6.7961-7.2208-6.7961-7.2208Z"/></clipPath></defs><path class="cls-3" d="m135.7083,202.2457c-25.5953,0-50.0186-9.5836-68.7669-26.9796-1.7555-1.6282-1.8562-4.3649-.228-6.1204,1.6229-1.7502,4.3649-1.8562,6.1151-.228,17.1466,15.9109,39.475,24.6725,62.8799,24.6725s45.7386-8.7669,62.8852-24.6778c1.7502-1.6229,4.4869-1.5222,6.1151.228,1.6282,1.7555,1.5275,4.4922-.228,6.1204-18.7537,17.4012-43.1769,26.9849-68.7722,26.9849"/><path class="cls-3" d="m72.4773,32.1665c-1.2145,0-2.4238-.5091-3.2777-1.5009-1.5645-1.8085-1.363-4.5399.4455-6.1045C87.9851,8.7245,111.4484,0,135.7073,0c23.1981,0,45.0173,7.6425,63.0974,22.1002,1.8722,1.4903,2.1744,4.2164.6789,6.0832-1.4903,1.8669-4.2164,2.1692-6.0832.6789-16.5314-13.2167-36.4784-20.2015-57.693-20.2015-22.1851,0-43.6383,7.9714-60.4031,22.4556-.8168.7054-1.8244,1.0501-2.8268,1.0501"/><polygon class="cls-3" points="73.2145 4.9965 66.0811 37.2002 96.4391 31.4936 73.2145 4.9965"/><polygon class="cls-3" points="202.1501 195.3266 209.2835 163.1229 178.9255 168.8295 202.1501 195.3266"/><path class="cls-3" d="m260.9996,99.9635c0,26.5466-21.5203,48.0669-48.0669,48.0669s-48.0669-21.5203-48.0669-48.0669,21.5203-48.0669,48.0669-48.0669,48.0669,21.5203,48.0669,48.0669Zm-29.9608,22.4511l-2.4874-10.6815c-1.7661.8856-5.9454,2.0896-9.7958,2.0896-4.4974,0-8.5123-1.2835-11.2437-4.174-.7213-.8009-1.363-1.7662-1.9252-2.811h21.4373v-6.5818h-23.1238v-1.3683c0-.6417,0-1.2835.0795-1.8457h23.0443v-6.5818h-21.3578c.4827-.8856.9653-1.7661,1.607-2.4927,2.6466-3.2882,6.5819-4.7361,10.5967-4.7361s7.7114,1.1243,10.1193,2.0896l2.811-10.9998c-3.7762-1.607-8.995-2.6518-14.2933-2.6518-8.3532,0-15.8207,3.3732-20.9599,8.995-2.4874,2.726-4.4127,6.0196-5.537,9.7958h-5.781v6.5818h4.6566c0,.5622-.0795,1.1243-.0795,1.6865v1.5275h-4.577v6.5818h5.6218c.8009,2.8109,2.0047,5.2983,3.5322,7.547,5.0544,7.3084,13.7259,11.4028,23.5217,11.4028,5.5422,0,10.9201-1.607,14.1341-3.3731h0Z"/><path class="cls-3" d="m269.7681,99.9635c0,31.3893-25.446,56.8353-56.8353,56.8353s-56.8353-25.446-56.8353-56.8353,25.446-56.8353,56.8353-56.8353,56.8353,25.446,56.8353,56.8353Zm-5.3679,0c0-28.4267-23.0382-51.465-51.465-51.465s-51.4698,23.043-51.4698,51.465,23.0479,51.465,51.4698,51.465,51.465-23.043,51.465-51.465"/><path class="cls-3" d="m113.6707,99.9635c0,31.3893-25.446,56.8353-56.8353,56.8353S0,131.3528,0,99.9635s25.446-56.8353,56.8353-56.8353,56.8353,25.446,56.8353,56.8353Zm-5.3679,0c0-28.4267-23.0382-51.465-51.465-51.465S5.3679,71.5415,5.3679,99.9635s23.0479,51.465,51.4698,51.465,51.465-23.043,51.465-51.465"/><g class="cls-2"><rect class="cls-3" x="75.3168" y="59.5296" width="120.785" height="8.6555"/><rect class="cls-3" x="74.5372" y="132.7728" width="122.3442" height="8.6555"/><rect class="cls-3" x="64.7466" y="96.7983" width="141.92" height="8.6555"/><path class="cls-3" d="m135.7083,176.4122c-41.5169,0-75.2905-33.7736-75.2905-75.2905S94.1914,25.8367,135.7083,25.8367s75.2905,33.7736,75.2905,75.2851-33.7736,75.2905-75.2905,75.2905m0-141.92c-36.7436,0-66.6295,29.8913-66.6295,66.6295s29.886,66.6349,66.6295,66.6349,66.6295-29.8913,66.6295-66.6349-29.8913-66.6295-66.6295-66.6295"/><path class="cls-3" d="m135.7083,176.4122c-23.7284,0-42.3177-33.0682-42.3177-75.2905s18.5893-75.2851,42.3177-75.2851,42.3177,33.0682,42.3177,75.2851-18.5893,75.2905-42.3177,75.2905m0-141.92c-18.2445,0-33.6622,30.5118-33.6622,66.6295s15.4176,66.6348,33.6622,66.6348,33.6622-30.5172,33.6622-66.6349-15.4176-66.6295-33.6622-66.6295"/><rect class="cls-3" x="131.3816" y="27.8404" width="8.6555" height="144.2429"/></g><path class="cls-3" d="m52.4227,131.5875v-8.2736c-6.7091-.3659-13.5137-2.4821-17.4649-5.0544l3.5853-11.1271c3.3095,2.026,10.2042,4.3225,15.3487,4.3225,3.7709,0,5.9772-.5516,5.9772-2.3919,0-1.1031-.7372-2.1109-7.0803-3.8611-12.0392-3.214-16.2715-7.3508-16.2715-14.341,0-6.9849,6.0674-11.8589,15.9056-13.4235v-9.101h9.5624v8.6449c5.7915.3659,11.3073,1.835,14.341,3.4898l-3.3095,10.6656c-2.4821-1.379-7.8176-3.3996-12.872-3.3996-3.3996,0-5.8817.6417-5.8817,2.2965,0,1.5645,1.1031,2.2063,7.9024,4.0467,12.7818,3.4951,16.5474,7.8122,16.5474,14.341,0,6.253-5.3301,12.5006-16.7276,14.4312v8.735h-9.5624v.0003Zm4.5507-79.6925c-26.4711,0-47.9302,21.4591-47.9302,47.9302s21.4591,47.9302,47.9302,47.9302,47.9302-21.4591,47.9302-47.9302-21.4591-47.9302-47.9302-47.9302Z"/></svg>