<?xml version="1.0" encoding="UTF-8"?><svg id="Layer_1" xmlns="http://www.w3.org/2000/svg" viewBox="0 0 261.658 216.4675"><defs><style>.cls-1,.cls-2{fill:#4a9cd5;}.cls-3{fill:#4f9dd6;}.cls-2{fill-rule:evenodd;}</style></defs><path class="cls-3" d="m188.1673,179.8338c.194-1.044.4118-2.0843.5781-3.1327,1.2997-8.196,2.5858-16.3942,3.8902-24.5895.0895-.5622-.0394-.9727-.416-1.4077-1.631-1.8843-3.2785-3.7588-4.8138-5.72-1.4105-1.8019-.8637-3.0784,1.449-3.218,3.0303-.1829,6.0742-.1721,9.1124-.1824,1.7779-.006,3.5572.0894,5.3335.1838.4526.024.9306.1475,1.3373.3469,1.07.5247,1.2641,1.2103.5379,2.142-1.717,2.2028-3.5043,4.3508-5.2212,6.5537-.2514.3225-.4372.85-.3764,1.2395,1.3797,8.8489,2.7974,17.6919,4.2109,26.5355.0586.3668.1452.7291.4253,1.1337.1964-.4866.4123-.9663.5862-1.4608,2.9057-8.2635,5.8014-16.5305,8.7105-24.7928.9452-2.6846,1.9062-5.3639,2.8914-8.034.5028-1.3627.1992-1.2939,1.7226-.9572,4.4075.974,8.8164,1.9521,13.1908,3.0627,4.8543,1.2325,9.6803,2.5801,14.5019,3.9369,6.8356,1.9236,14.0528,10.3187,15.2269,15.9299.3343,1.5976.5689,3.2483.5791,4.8763.0552,8.821.0302,17.6426.0186,26.4639-.0012.9028-.0804,1.8067-.1509,2.708-.2255,2.8797-2.8368,5.3524-5.6991,5.418-28.6208.6565-57.246.4974-85.8703.4247-9.614-.0244-19.2277-.1741-28.8413-.2796-1.6978-.0186-3.395-.0962-5.0921-.1575-2.4602-.0889-5.1677-2.5949-5.3147-5.0839-.1808-3.0612-.3055-6.1315-.2943-9.1972.0258-7.0405.171-14.0805.223-21.121.0274-3.7079,1.3544-6.9544,3.3867-9.9542,2.6858-3.9644,6.1785-7.069,10.5332-9.0406,2.1786-.9864,4.546-1.5961,6.8724-2.2076,7.2778-1.9128,14.5672-3.7841,21.8736-5.584,2.0217-.498,1.596-.6846,2.2845,1.2122,3.9225,10.8062,7.8175,21.6225,11.7267,32.4336.1912.5289.4277,1.0414.6431,1.5615.0815-.014.1629-.028.2444-.0419Z"/><path class="cls-3" d="m229.6639,80.3596c-.168,2.5112-.3295,5.0229-.5103,7.5333-.0302.4189.0536.6419.512.7586,2.3851.607,3.5197,1.9648,3.2173,4.3956-.4657,3.743-1.1012,7.4702-1.817,11.1747-.3823,1.9786-1.9808,3.1407-4.0242,3.2344-.7946.0364-1.1958.3819-1.3528,1.1362-2.4305,11.6813-10.1315,19.1385-19.9659,24.8707-1.5604.9096-3.2857,1.4128-5.083,1.5007-2.2665.111-4.5401.1513-6.8092.1196-4.1654-.0582-7.5168-2.1084-10.7133-4.5118-7.2666-5.4635-12.0666-12.6078-14.5242-21.338-.3134-1.1132-.8862-1.7529-2.079-1.8475-1.9149-.1518-3.0888-1.2418-3.4218-3.1-.6561-3.6611-1.3278-7.3244-1.8016-11.0114-.3047-2.3713.5946-3.629,2.8353-4.6174.5572-.2458.4125-.658.3783-1.0314-.1023-1.1165-.3456-2.2272-.3646-3.343-.0932-5.4868-.088-10.9867,1.8602-16.2228,2.7553-7.4053,7.8408-12.615,15.1794-15.5666,2.0518-.8252,4.2366-1.1304,6.4411-1.1047,1.862.0217,3.5639-.4039,5.1762-1.3295,3.0556-1.7542,6.3112-2.4209,9.8604-2.103,4.5435.407,8.5085,2.1672,12.1942,4.6863,5.3581,3.6621,9.7376,8.1986,12.5746,14.1326,1.5775,3.2996,2.0648,6.7807,2.097,10.372.0096,1.0684.0015,2.1369.0015,3.2054.0464.0023.0929.0046.1393.0069Z"/><path class="cls-1" d="m74.0888,172.1079c-9.1915-.0016-18.3832-.0384-27.5741.0341-1.5544.0122-2.2113-.3527-2.4728-1.9917-2.1198-13.2842-7.6452-25.0551-16.011-35.5419-3.3044-4.1421-6.4995-8.3722-9.8446-12.4807C.0967,99.9106-4.9326,74.9917,5.0599,48.2036,15.1082,21.2659,35.2117,5.1081,63.7331.8306c39.8538-5.9771,76.6305,20.9243,83.3129,60.724,4.009,23.8771-2.9616,44.6679-18.8229,63.0087-9.4547,10.9326-18.3681,22.5152-21.9125,37.0904-.7054,2.9007-1.4627,5.7959-1.9823,8.7315-.2567,1.4505-.8764,1.7576-2.2186,1.7505-9.34-.0496-18.6805-.0262-28.0207-.0278Zm62.1987-96.5054c.0659-34.2677-27.6958-62.0369-62.0145-62.0311-34.1318.0057-61.9003,27.7568-61.9692,61.9303-.0683,33.8776,27.7306,61.9637,61.4153,62.0497,34.7205.0886,62.502-27.4177,62.5684-61.9488Z"/><path class="cls-1" d="m99.4151,201.049c-1.8832,8.0117-9.6199,14.5571-18.0467,15.4185-3.3882-5.1178-12.1347-5.2151-15.0434-.1673-8.1001-.9757-15.6143-7.5403-17.3106-15.2512h50.4007Z"/><path class="cls-1" d="m47.2446,190.8385c-.271-2.9685-.5271-5.7732-.7959-8.7176h55.5075c-.2653,2.9199-.5197,5.7195-.7921,8.7176h-53.9194Z"/><path class="cls-2" d="m54.7899,90.4498c.3503-1.0353.4961-2.1445.4086-3.2387-.1021-1.094-.4233-2.1591-.9334-3.1216-.5106-.9485-1.2257-1.8094-2.0863-2.4948-.8754-.875.2479-2.4507,1.3565-1.7069,1.1087.8756,2.0134,1.9551,2.6552,3.1658.6564,1.2109,1.065,2.5674,1.1816,3.9827.1168,1.4007-.0583,2.801-.4959,4.0998-.0875.2332-.1603.4518-.2624.6708,2.3049-.6272,4.756-.7734,7.1775-.4086,1.5757.365,1.2399,2.2903-.3212,2.159-2.5817-.3938-5.1786-.1018-7.5563.7736-2.3784.8751-4.5376,2.3488-6.2298,4.3179-1.7213,1.9842-2.8591,4.3328-3.3698,6.7985-.5253,2.4799-.4233,5.0912.3498,7.5862h-.0142c.4228,1.2399,1.0355,2.407,1.809,3.4427,1.4589,1.9845,3.501,3.5455,5.9229,4.4205,2.013.7151,4.143.9047,6.1709.598,2.0571-.3205,4.0263-1.1378,5.7185-2.4068.3065-.2334.6132-.4816.8902-.744.1894-.1754.3795-.3503.5397-.5106v-9.9206c-.9042.7298-1.9837,1.255-3.1511,1.5173-1.1816.2773-2.3924.2628-3.5303-.0147-1.1524-.2621-2.2321-.802-3.1658-1.5756-.8901-1.1086.3941-2.2903,1.4008-1.6776.671.5397,1.4438.9338,2.2757,1.1233.8168.2045,1.6922.2045,2.5386.0145.8459-.1894,1.6334-.5835,2.2904-1.1088.5397-.4524.9915-.9921,1.3418-1.6047v-62.0751c-.0874-.7583-.3211-1.4876-.6855-2.1298-.4378-.7585-1.0358-1.4148-1.7796-1.8964-.7443-.4816-1.5904-.7736-2.4513-.8609-.8749-.0875-1.7505.0291-2.5677.3648-1.4147.4816-2.115-1.4293-.8168-2.0274,1.1671-.4674,2.407-.6278,3.6031-.5106,1.1967.1166,2.3638.5248,3.4143,1.2103.4669.292.9042.6423,1.2835,1.0363v-5.7044c-1.1816-.963-2.5234-1.663-3.9534-2.0717-1.5756-.4523-3.2532-.5541-4.9163-.2915-1.6922.2769-3.2532.9339-4.6249,1.8963-1.3565.963-2.5089,2.232-3.3262,3.7203l-.3352.5835-.6568-.0292c-2.1295-.0728-4.2158.3941-6.0689,1.3129-1.8524.9047-3.4864,2.2758-4.7262,3.9975-1.2405,1.736-2.0135,3.7202-2.2764,5.7627-.2187,1.5753-.1311,3.1946.2629,4.7703.1749.5834.4085,1.167.671,1.7365.9775,2.0712,2.4511,3.8076,4.26,5.0912.2186.1458.4378.306.671.4373.7438.4523,2.1446,1.0946,2.9472,1.3424.8313.2628,1.7069.4376,2.5964.5252,1.6194.0583,1.2551,2.3486-.2184,2.1737-2.0281-.1894-3.9536-.7876-5.69-1.7213.0589,1.0353-.0728,2.0566-.3497,3.0487-.5253,1.8384-1.5904,3.5307-3.1513,4.7853-1.1088.686-2.3777-.6857-1.3863-1.6923,1.1967-.9777,2.028-2.2759,2.4366-3.6912.3795-1.3272.3795-2.7573-.0436-4.1283-1.4883-1.2404-2.7427-2.743-3.6766-4.4932-1.8088,1.5024-3.326,3.2971-4.4786,5.31-1.3564,2.3636-2.2029,5.0042-2.4656,7.7616-.2624,2.7712.0879,5.5285.9775,8.1109.7006,2.0425,1.765,3.9685,3.1366,5.6752.1604-.2775.3503-.5544.5544-.8172.7585-.9921,1.7215-1.765,2.8156-2.2758,1.0941-.5106,2.32-.7729,3.5599-.7291,1.4293.1456,1.4003,2.1737-.0879,2.1882-.875-.0291-1.7505.1458-2.5381.5253-.7881.3643-1.4883.9187-2.028,1.6192-.2916.379-.5399.8023-.7148,1.2546h0l-.2186.6272c-1.6927,4.8143-1.3715,9.8764.5539,14.2385,1.7073,3.8659,4.6687,7.1775,8.6074,9.2783.0438-.9485.1609-1.8962.3505-2.8156.598-2.83,1.8961-5.529,3.8513-7.7901,1.4881-1.7214,3.2824-3.1076,5.2521-4.1141.6855-.7878,1.1961-1.6922,1.5168-2.6554h0Zm4.8143-21.3284c-1.5757,2.5385-3.7785,4.7415-6.5211,6.3607-1.0943.7002-2.1155-1.2257-1.1088-1.8821,3.8223-2.2607,6.4483-5.806,7.6299-9.7885,1.1966-4.0852.9629-12.8821-3.6176-14.8955-.8173-.3503-1.6922-.4961-2.5531-.4524-.8756.0588-1.7215.3211-2.4804.7734-1.3129.7002-2.3049-1.0796-1.1233-1.8821,1.0795-.6418,2.2611-.9916,3.4724-1.065,1.1963-.0728,2.4215.1316,3.5593.6271,5.7775,2.5386,6.3901,12.2257,4.829,17.5065-.2479.8899-.5835,1.7508-.963,2.5972,1.0651,1.2396,1.9114,2.6694,2.4803,4.2012.6563,1.7506.963,3.6328.8749,5.5436-.3205,1.4446-2.0857,1.0941-2.1881-.1021.0733-1.6047-.1751-3.2095-.7293-4.6832-.3941-1.0213-.9042-1.9837-1.5611-2.8591h0Z"/><path class="cls-2" d="m115.3074,75.5615c0,4.176-3.3853,7.5613-7.5613,7.5613s-7.5613-3.3853-7.5613-7.5613,3.3853-7.5613,7.5613-7.5613,7.5613,3.3853,7.5613,7.5613Zm-7.5613-5.1761c-2.8587,0-5.1761,2.3174-5.1761,5.1761s2.3174,5.1761,5.1761,5.1761,5.1761-2.3174,5.1761-5.1761-2.3174-5.1761-5.1761-5.1761Z"/><path class="cls-2" d="m97.1811,105.2819c0,4.176-3.3853,7.5613-7.5613,7.5613s-7.5613-3.3853-7.5613-7.5613,3.3853-7.5613,7.5613-7.5613,7.5613,3.3853,7.5613,7.5613Zm-7.5613-5.1761c-2.8587,0-5.1761,2.3174-5.1761,5.1761s2.3174,5.1761,5.1761,5.1761,5.1761-2.3174,5.1761-5.1761-2.3174-5.1761-5.1761-5.1761Z"/><path class="cls-2" d="m97.1811,45.4044c0,4.176-3.3853,7.5613-7.5613,7.5613s-7.5613-3.3853-7.5613-7.5613,3.3853-7.5613,7.5613-7.5613,7.5613,3.3853,7.5613,7.5613Zm-7.5613-5.1761c-2.8587,0-5.1761,2.3174-5.1761,5.1761s2.3174,5.1761,5.1761,5.1761,5.1761-2.3174,5.1761-5.1761-2.3174-5.1761-5.1761-5.1761Z"/><rect class="cls-1" x="88.1995" y="52.3454" width="2.7913" height="13.0874"/><rect class="cls-1" x="77.1787" y="51.6208" width="2.7913" height="24.8328" transform="translate(142.6115 -14.5371) rotate(90)"/><rect class="cls-1" x="82.3661" y="57.9577" width="2.7913" height="35.2076" transform="translate(159.3232 -8.2002) rotate(90)"/><rect class="cls-1" x="88.1995" y="86.0712" width="2.7913" height="12.8435"/><rect class="cls-1" x="77.2047" y="75.0244" width="2.7392" height="24.8328" transform="translate(-8.8665 166.0151) rotate(-90)"/></svg>