<?xml version="1.0" encoding="UTF-8"?>
<svg id="Layer_1" data-name="Layer 1" xmlns="http://www.w3.org/2000/svg" viewBox="0 0 196.9113 196.9113">
  <defs>
    <style>
      .cls-1 {
        fill: #4a9cd5;
        stroke-width: 0px;
      }

      .cls-2 {
        stroke-linecap: round;
        stroke-linejoin: round;
      }

      .cls-2, .cls-3 {
        fill: none;
        stroke: #4a9cd5;
        stroke-width: 5px;
      }
    </style>
  </defs>
  <g>
    <path class="cls-1" d="M194.9425,157.8925h-7.8768c-1.0888,0-1.9687.8804-1.9687,1.9692v17.3584c0,4.269-3.6088,7.8764-7.8768,7.8764h-17.6848c-1.0878,0-1.9687.8823-1.9687,1.9692v7.8764c0,1.0869.8809,1.9692,1.9687,1.9692h17.6848c10.8299,0,19.6911-8.8612,19.6911-19.6911v-17.3584c0-1.0888-.8809-1.9692-1.9687-1.9692h0Z"/>
    <path class="cls-1" d="M37.69,0h-17.9989C8.8612,0,0,8.861,0,19.6911v18.3235c0,1.0885.88,1.9692,1.9692,1.9692h7.8764c1.086,0,1.9692-.8807,1.9692-1.9692v-18.3235c0-4.269,3.6055-7.8764,7.8764-7.8764h17.9989c1.0878,0,1.9692-.883,1.9692-1.9692V1.9692c0-1.0869-.8814-1.9692-1.9692-1.9692h-.0001Z"/>
    <path class="cls-1" d="M177.2201,0h-17.6848c-1.0878,0-1.9687.8823-1.9687,1.9692v7.8764c0,1.0862.8809,1.9692,1.9687,1.9692h17.6848c4.2681,0,7.8768,3.6074,7.8768,7.8764v18.3235c0,1.0885.88,1.9692,1.9687,1.9692h7.8768c1.0878,0,1.9687-.8807,1.9687-1.9692v-18.3235C196.9111,8.861,188.0499.0001,177.22.0001h0Z"/>
    <path class="cls-1" d="M37.69,185.0964h-17.9989c-4.2708,0-7.8764-3.6074-7.8764-7.8764v-17.3584c0-1.0888-.8832-1.9692-1.9692-1.9692H1.9692c-1.0892,0-1.9692.8804-1.9692,1.9692v17.3584c0,10.8299,8.8612,19.6911,19.6911,19.6911h17.9989c1.0878,0,1.9692-.8823,1.9692-1.9692v-7.8764c0-1.0869-.8814-1.9692-1.9692-1.9692h0Z"/>
  </g>
  <path class="cls-1" d="M145.9677,91.8139c-.9511-7.5042-3.7762-10.7343-9.6271-10.8794,0,.4033,0,.8033,0,1.2034-.0012,5.3213.0218,10.6428-.0277,15.9636-.0081.8747.3182,1.1867,1.0895,1.3621,5.2275,1.1893,10.3149,2.8078,15.1936,5.0496,6.163,2.832,11.4437,6.6475,13.9556,13.2633,2.2434,5.9084,2.199,11.9629.5261,18.0056-2.0708,7.4801-7.1409,12.2132-14.132,15.1022-5.2477,2.1687-10.7654,3.1346-16.4012,3.4673-.967.0571-1.3039.2975-1.2756,1.3042.071,2.5266.0245,5.0565.025,7.585,0,.4033,0,.8066,0,1.2677h-9.0681v-10.1111c-1.895-.1643-3.6593-.2465-5.4031-.4812-6.0926-.8201-11.8728-2.5582-16.8369-6.3337-5.3331-4.0562-8.5293-9.4739-9.692-16.061-.3714-2.104-.548-4.2424-.8289-6.4869h22.1128c.3017,1.7662.5236,3.5548.9242,5.3024.7038,3.0701,2.1349,5.6796,5.2765,6.8514,1.1976.4467,2.5134.5764,3.9779.8947,0-2.1913-.0022-4.0696.0004-5.9479.0061-4.34-.008-8.6802.0417-13.0197.0097-.8441-.2409-1.123-1.0778-1.3104-5.9311-1.3286-11.7301-3.0625-17.1302-5.9351-4.7423-2.5227-8.6653-5.877-10.8911-10.8984-1.4937-3.3698-1.9637-6.9329-1.8219-10.5983.3735-9.6528,5.3018-16.3062,13.6324-20.708,5.2102-2.753,10.8659-3.7325,16.6695-4.0883.5249-.0322,1.0493-.0721,1.7213-.1187v-7.609h9.6735v7.4219c2.0132.2048,3.9566.3405,5.8812.6103,5.4148.7591,10.5362,2.3868,14.8988,5.7858,3.5634,2.7763,6.2401,6.2674,7.7176,10.6203.9257,2.7272,1.6315,5.4817,1.7283,8.3709.0122.3651.0017.731.0017,1.1555h-20.8344ZM134.7929,120.3041v17.6012c2.8828.0088,5.5737-.3036,8.1314-1.6551,4.5933-2.4272,4.6546-9.9012.327-12.5193-2.6082-1.5779-5.4381-2.485-8.4583-3.4267ZM127.5427,80.3831c-2.0906.3688-4.0363.5597-5.8926,1.0736-3.0942.8566-4.6951,3.0357-5.0061,6.234-.3182,3.2725,1.1116,5.5097,3.9582,6.9298,2.1788,1.0869,4.4496,1.9201,6.9405,2.3402v-16.5776Z"/>
  <g>
    <path class="cls-2" d="M66.4684,88.0824h.0346"/>
    <path class="cls-2" d="M66.4691,76.5341v-19.2471"/>
    <path class="cls-3" d="M83.0536,43.3673c-2.275,0-3.4129,0-4.4492-.3845-.144-.0534-.2856-.1122-.4254-.1762-1.0047-.4609-1.8088-1.2653-3.4179-2.874-3.7028-3.7028-5.5539-5.5541-7.832-5.7249-.306-.0229-.614-.0229-.92,0-2.2781.1707-4.1297,2.0221-7.8322,5.7248-1.6087,1.6088-2.4131,2.4132-3.4178,2.8741-.1395.064-.2814.1228-.4254.1762-1.0363.3845-2.1739.3845-4.449.3845h-.4197c-5.8046,0-8.7068,0-10.5101,1.8033-1.8033,1.8032-1.8033,4.7055-1.8033,10.5101v.4197c0,2.2751,0,3.4127-.3845,4.449-.0534.1439-.1122.2858-.1762.4254-.4609,1.0047-1.2653,1.8091-2.8741,3.4178-3.7027,3.7026-5.5541,5.5541-5.7248,7.8322-.0229.306-.0229.614,0,.92.1707,2.2781,2.0221,4.1293,5.7248,7.832,1.6088,1.6091,2.4132,2.4132,2.8741,3.4179.064.1397.1228.2814.1762.4254.3845,1.0363.3845,2.1742.3845,4.4492v.4196c0,5.8045,0,8.707,1.8033,10.5101,1.8032,1.8035,4.7055,1.8035,10.5101,1.8035h.4197c2.2751,0,3.4127,0,4.449.3842.1439.0535.2858.1124.4254.1763,1.0047.4612,1.8091,1.2653,3.4178,2.874,3.7026,3.7027,5.5541,5.5543,7.8322,5.7249.306.0231.614.0231.92,0,2.2781-.1705,4.1293-2.0221,7.832-5.7249,1.6091-1.6087,2.4132-2.4128,3.4179-2.874.1397-.0639.2814-.1228.4254-.1763,1.0363-.3842,2.1742-.3842,4.4492-.3842h.4196c5.8045,0,8.707,0,10.5101-1.8035,1.8035-1.8031,1.8035-4.7055,1.8035-10.5101v-.4196c0-2.275,0-3.4129.3842-4.4492.0535-.144.1124-.2856.1763-.4254.4612-1.0047,1.2653-1.8088,2.874-3.4179,3.7027-3.7028,5.5543-5.5539,5.7249-7.832.0231-.306.0231-.614,0-.92-.1705-2.2781-2.0221-4.1297-5.7249-7.8322-1.6087-1.6087-2.4128-2.4131-2.874-3.4178-.0639-.1395-.1228-.2814-.1763-.4254-.3842-1.0363-.3842-2.1739-.3842-4.449v-.4197c0-5.8046,0-8.7068-1.8035-10.5101-1.8031-1.8033-4.7055-1.8033-10.5101-1.8033h-.4196Z"/>
  </g>
</svg>