<?xml version="1.0" encoding="UTF-8"?><svg id="Layer_1" xmlns="http://www.w3.org/2000/svg" viewBox="0 0 289.1145 244.2461"><defs><style>.cls-1,.cls-2{fill:#4a9cd5;}.cls-2{fill-rule:evenodd;}</style></defs><path class="cls-1" d="m62.9309,114.9879c0,15.0457-12.197,27.2427-27.2427,27.2427s-27.2427-12.197-27.2427-27.2427,12.197-27.2427,27.2427-27.2427,27.2427,12.197,27.2427,27.2427Zm-27.2427-14.8395c-8.1956,0-14.8395,6.6439-14.8395,14.8395s6.6439,14.8395,14.8395,14.8395,14.8395-6.6439,14.8395-14.8395-6.6439-14.8395-14.8395-14.8395Z"/><path class="cls-1" d="m62.9309,202.7331c0,15.0457-12.197,27.2427-27.2427,27.2427s-27.2427-12.197-27.2427-27.2427,12.197-27.2427,27.2427-27.2427,27.2427,12.197,27.2427,27.2427Zm-27.2427-14.8395c-8.1956,0-14.8395,6.6439-14.8395,14.8395s6.6439,14.8395,14.8395,14.8395,14.8395-6.6439,14.8395-14.8395-6.6439-14.8395-14.8395-14.8395Z"/><path class="cls-1" d="m151.0836,27.2427c0,15.0457-12.197,27.2427-27.2427,27.2427s-27.2427-12.197-27.2427-27.2427S108.7952,0,123.8409,0s27.2427,12.197,27.2427,27.2427Zm-27.2427-14.8395c-8.1956,0-14.8395,6.6439-14.8395,14.8395s6.6439,14.8395,14.8395,14.8395,14.8395-6.6439,14.8395-14.8395-6.6439-14.8395-14.8395-14.8395Z"/><path class="cls-1" d="m151.0836,114.9879c0,15.0457-12.197,27.2427-27.2427,27.2427s-27.2427-12.197-27.2427-27.2427,12.197-27.2427,27.2427-27.2427,27.2427,12.197,27.2427,27.2427Zm-27.2427-14.8395c-8.1956,0-14.8395,6.6439-14.8395,14.8395s6.6439,14.8395,14.8395,14.8395,14.8395-6.6439,14.8395-14.8395-6.6439-14.8395-14.8395-14.8395Z"/><path class="cls-1" d="m151.0836,202.7331c0,15.0457-12.197,27.2427-27.2427,27.2427s-27.2427-12.197-27.2427-27.2427,12.197-27.2427,27.2427-27.2427,27.2427,12.197,27.2427,27.2427Zm-27.2427-14.8395c-8.1956,0-14.8395,6.6439-14.8395,14.8395s6.6439,14.8395,14.8395,14.8395,14.8395-6.6439,14.8395-14.8395-6.6439-14.8395-14.8395-14.8395Z"/><path class="cls-1" d="m240.4284,27.2427c0,15.0457-12.197,27.2427-27.2427,27.2427s-27.2427-12.197-27.2427-27.2427S198.1399,0,213.1857,0s27.2427,12.197,27.2427,27.2427Zm-27.2427-14.8395c-8.1956,0-14.8395,6.6439-14.8395,14.8395s6.6439,14.8395,14.8395,14.8395,14.8395-6.6439,14.8395-14.8395-6.6439-14.8395-14.8395-14.8395Z"/><rect class="cls-1" x="29.4881" y="141.183" width="11.5083" height="38.5867"/><rect class="cls-1" x="118.0943" y="141.183" width="11.5083" height="38.5867"/><rect class="cls-1" x="118.0943" y="51.8836" width="11.5083" height="38.5867"/><rect class="cls-1" x="162.0314" y="7.9493" width="11.5083" height="38.5867" transform="translate(195.0283 -140.5429) rotate(90)"/><rect class="cls-1" x="73.6128" y="186.0826" width="11.5083" height="38.5867" transform="translate(284.7429 126.0091) rotate(90)"/><path class="cls-1" d="m38.9539,72.0969c-9.62,0-19.2402.0416-28.8599-.0122-8.8553-.0496-12.7069-6.83-8.1993-14.4279C11.4305,41.5833,20.9908,25.5241,30.5801,9.4825c4.3831-7.3323,12.1832-7.3341,16.5876-.0036,9.6254,16.0203,19.2253,32.0561,28.7919,48.1116,4.5144,7.5765.6503,14.4447-8.1458,14.4942-9.6197.0541-19.2399.0123-28.8598.0123Zm-4.9256-45.9078c.5346,6.2694,1.0091,11.7343,1.4623,17.201.1665,2.0089,1.0576,3.8314,3.1327,3.5786,1.2759-.1555,3.2536-1.7178,3.3947-2.8397.8285-6.5852,1.3267-13.2204,1.6802-19.8525.1348-2.5286-1.557-4.088-4.0827-4.4228-2.494-.3306-4.4241.7233-5.2729,3.0766-.445,1.2337-.2703,2.6909-.3143,3.2587Zm10.1998,30.479c.0837-2.7842-2.2999-5.316-5.1276-5.4464-2.8192-.13-5.3562,2.173-5.5228,5.0137-.1754,2.9902,2.22,5.5291,5.2454,5.5596,2.8708.0289,5.3199-2.2941,5.4051-5.1269Z"/><path class="cls-1" d="m289.1145,210.8599c0-.956-.7728-1.7294-1.7294-1.7294h-6.9174c-.9538,0-1.7294.7734-1.7294,1.7294v16.0926c0,3.7492-3.1665,6.9174-6.9174,6.9174h-15.8075c-.9554,0-1.7294.7755-1.7294,1.7294v6.9174c0,.9546.7741,1.7294,1.7294,1.7294h15.8075c9.5113,0,17.2936-7.7821,17.2936-17.2936"/><path class="cls-1" d="m289.1145,88.6033c0-9.5113-7.7823-17.2936-17.2936-17.2936h-15.8075c-.9554,0-1.7294.7748-1.7294,1.7294v6.9174c0,.9546.7741,1.7294,1.7294,1.7294h15.8075c3.7508,0,6.9174,3.1682,6.9174,6.9174v15.2449c0,.9562.7757,1.7294,1.7294,1.7294h6.9174c.9566,0,1.7294-.7732,1.7294-1.7294"/><g><path class="cls-2" d="m181.2589,156.6939l-9.578,1.7488c-.5246-3.4627-.6024-7.0182-.1973-10.5879l.0152-.1367.0199-.1649.0169-.1455.0199-.1567.0207-.1523c.586-4.4633,1.9216-8.8794,4.046-13.0538l.0143-.0284.1305-.2527.0158-.0293c2.1784-4.2168,5.0314-7.9203,8.3732-11.0265l.1345-.125.0683-.0631.0661-.0609.1354-.1234.0232-.0199c.6277-.5664,1.266-1.1131,1.9203-1.6339l-1.6348-1.9249-6.2992-7.4165c3.2697-2.6416,6.8372-4.8765,10.6149-6.6669,10.0672-4.7677,21.6344-6.3696,33.0816-4.0383l.0139.0021.374.0773.0363.0073.0308.0071c6.1893,1.3017,11.9442,3.6726,17.0889,6.8951l.1701.1064.0134.0074.509.3267c5.912,3.8216,10.8909,8.7263,14.7611,14.3448l.11.1616.1114.1619.0775.1135.0323.0491.1097.1627.1092.1638.0906.137.0174.0265.1076.1646.1065.1643.1045.1622.0019.0019c.9901,1.543,1.9058,3.1398,2.7323,4.7799l-.0065.003c.1883.3748.3726.7534.5517,1.1314l-8.7895,4.1634c-.7107-1.501-1.5077-2.9602-2.3886-4.3727l-.0194-.0325-.1671-.2651-.0802-.1253-.004-.0068-.0849-.1311-.0846-.131-.086-.1313-.0119-.0191-.074-.1122-.0865-.1302-.0879-.1294-.0287-.0439-.0589-.0869-.0881-.1293-.0885-.1284-.0884-.1283-.0896-.1286-.0896-.1286c-.7519-1.0673-1.5531-2.1012-2.3935-3.0898-2.5805-3.0386-5.5824-5.7214-8.9223-7.9534l-.3308-.2203-.0885-.057-.345-.2211c-2.3233-1.4781-4.8201-2.7484-7.4756-3.7853l.0036-.0095c-.7826-.305-1.5766-.5885-2.3815-.8492l-.0031.0082c-1.2015-.3901-2.4066-.7252-3.6166-1.0056l-.0152-.0027-.3115-.0713-.1908-.0412-.173-.0377-.1736-.0363c-1.3296-.2763-2.682-.4921-4.0588-.6442l.0008-.0092c-6.8741-.7675-13.7066.1534-19.9666,2.5194l.892,2.3656,3.4344,9.102c-.7836.2961-1.5543.6234-2.3122.9823-2.0469.9699-3.9898,2.1659-5.7853,3.5665l-.0038-.0041c-.6592.5151-1.299,1.0583-1.92,1.6325l.0005.0016-.043.0382-.1065.0988-.0167.0169-.1646.1562-.0275.0248-.1043.0999-.0325.0311-.0717.0696-.0909.0884-.0125.0131-.1035.1013-.0453.0442-.0568.0576-.1024.1029-.0016.0009-.101.1024c-1.2166,1.2447-2.3477,2.6045-3.3728,4.088-.6339.9174-1.2119,1.8561-1.7338,2.8134l-.0213.0406-.0901.1665-.0218.0421-.0874.1659-.0221.0431-.0866.1665-.0221.0431-.0849.1668-.0221.0431-.0829.1678-.0221.0431-.0818.1695c-.4826.9941-.9144,2.0265-1.2941,3.0896-.5961,1.6691-1.0411,3.3546-1.3381,5.0431l-.0013.0117-.0371.2123-.0022.0177-.035.2066-.0033.0243-.0311.1995-.0046.032-.0284.1925-.0058.0381-.0262.1867-.0065.0448-.0237.1794-.0077.051-.0204.1738-.0012-.0005c-.3379,2.7091-.3007,5.4164.0718,8.0489Z"/><path class="cls-2" d="m230.4821,176.9236l6.2137,7.4963c-2.7628,2.1525-5.8251,3.9612-9.1363,5.3554l-.1269.0535-.1534.0633-.1351.0565-.1464.0595-.143.0562c-4.1792,1.674-8.6837,2.6711-13.3641,2.8622l-.032.0016-.2842.0098-.0332.0006c-4.7437.1646-9.37-.5104-13.7146-1.9039l-.175-.0562-.0882-.0286-.0854-.0276-.1739-.0576-.0289-.0106c-.8012-.2703-1.5903-.5591-2.3646-.8748l-.8784,2.3678-3.3835,9.1241c-3.9046-1.5583-7.5999-3.5751-11.0107-5.993-9.0856-6.4449-16.1452-15.7478-19.7163-26.8715l-.0046-.0134-.116-.3636-.0109-.0354-.009-.0306c-1.8949-6.0342-2.6447-12.2133-2.3529-18.2772l.0095-.2007-.0003-.0153.036-.6038c.4384-7.0261,2.2779-13.7689,5.2831-19.8945l.0868-.175.0869-.1763.0611-.1234.027-.0519.0882-.1755.0893-.1754.0753-.1461.0145-.0281.0909-.1744.0908-.1733.0904-.1706.0008-.0027c.8609-1.6186,1.8051-3.1987,2.8308-4.7224l.0058.0043c.2348-.3477.4746-.6939.7165-1.035l7.9334,5.6264c-.9608,1.3549-1.8433,2.7642-2.6439,4.224l-.0188.0325-.1493.2757-.0701.1311-.0039.007-.0726.1382-.0729.1381-.0723.1392-.0107.0196-.0619.1195-.0713.1392-.0696.14-.0243.0464-.0467.0939-.0698.14-.0686.1401-.0685.1397-.0686.1414-.0682.1412c-.5626,1.1777-1.0719,2.3828-1.5229,3.5994-1.3863,3.7382-2.2565,7.6692-2.5676,11.6743l-.03.3963-.0065.1051-.0241.4092c-.1515,2.7497-.0368,5.5488.3587,8.372l-.0098.0016c.1171.8314.2584,1.6628.4252,2.4923l.0088-.0013c.2479,1.2389.5456,2.4538.8934,3.6464l.0052.0144.0906.3065.0573.1864.0519.1693.0532.1692c.41,1.2949.8839,2.58,1.4251,3.855l-.0082.0039c2.6954,6.3702,6.8435,11.8775,11.9712,16.1782l1.6263-1.9361,6.2561-7.4506c.6417.5386,1.3047,1.0504,1.9884,1.5354,1.8479,1.3104,3.8422,2.419,5.9422,3.2993l-.0016.0054c.7717.3227,1.5589.6144,2.3636.8751l.0011-.0013.0546.0189.1384.0445.0226.0063.2168.0671.0355.0117.1378.0421.0431.0131.0961.0286.1214.0358.0175.0046.1389.0403.0609.018.0778.0214.1401.039.0016.0011.1384.0379c1.6811.4515,3.4206.7722,5.2164.9401,1.1101.1034,2.2117.1482,3.3019.1345l.0459-.0013.1894-.0027.0472-.0016.1876-.0049.0485-.0019.1873-.0063.0485-.0019.1873-.0074.0483-.0019.1866-.0098.0486-.0018.1878-.0115c1.1033-.0659,2.215-.1947,3.3279-.3841,1.7472-.2973,3.4348-.7342,5.0529-1.302l.0107-.0043.2034-.0718.0169-.0068.1968-.0707.0229-.0091.1894-.0707.03-.0115.1818-.0693.036-.0139.1758-.0683.042-.0161.1682-.0672.048-.0185.1619-.0672v.0012c2.5279-1.0313,4.8707-2.3892,6.9839-4.0029Z"/><path class="cls-2" d="m222.4556,123.4707l2.9916-9.2654c3.2986,1.1764,6.4679,2.7902,9.421,4.8362l.1132.0781.1357.0955.1201.0838.1288.0918.1242.0903c3.6549,2.6283,6.9134,5.8941,9.5856,9.7409l.0183.0262.161.2345.0183.0278c2.684,3.9145,4.5966,8.1802,5.752,12.5939l.0463.1777.0232.0898.0224.087.0448.1778.0065.0299c.2019.8211.3816,1.6419.5306,2.4648l2.4692-.5295,9.5143-2.04c.7804,4.1306,1.0609,8.3308.8507,12.5062-.5633,11.1245-4.6255,22.073-12.0956,31.0545l-.0085.0112-.2449.2929-.024.0281-.0208.024c-4.0752,4.8368-8.8871,8.7847-14.1602,11.7922l-.1745.0996-.0128.0082-.5287.2937c-6.164,3.4-12.8406,5.4656-19.6218,6.2165l-.1943.0205-.1952.0216-.1367.0144-.0584.0052-.1954.0196-.196.0186-.1638.015-.0314.003-.1961.0169-.1948.0161-.1925.0153-.0027.0008c-1.8277.1419-3.6677.1933-5.5036.1449l.0003-.007c-.4193-.0113-.84-.0281-1.2578-.0492l.491-9.713c1.6587.0838,3.3216.072,4.9828-.0355l.0377-.0016.3125-.0219.1483-.0112.0082-.0006.1553-.0128.1555-.0125.1565-.0137.0223-.0016.134-.012.1556-.0144.1555-.0164.0522-.0043.1045-.011.1556-.0161.1547-.0174.1548-.0172.1558-.018.1559-.018c1.2957-.1575,2.5856-.3742,3.8544-.6466,3.898-.8358,7.682-2.2107,11.2285-4.097l.3504-.1873.0921-.0507.3584-.1995c2.4014-1.3473,4.7019-2.9458,6.8719-4.7945l.0067.0076c.6388-.545,1.2644-1.1103,1.875-1.6961l-.0061-.0065c.9125-.874,1.7777-1.7772,2.5975-2.7104l.0095-.012.2099-.241.1266-.1485.1152-.1345.1141-.1357c.8727-1.0408,1.7027-2.1302,2.488-3.2709l.0079.0049c3.9289-5.6924,6.3506-12.1475,7.2284-18.782l-2.5062-.3336-9.6438-1.2815c.11-.8303.1861-1.6642.2284-2.5017.1144-2.2622-.0199-4.5398-.4042-6.784l.0055-.0016c-.1416-.8244-.3178-1.6452-.5295-2.4639h-.0019l-.0134-.0562-.0366-.1406-.0071-.0227-.0595-.2189-.009-.036-.0385-.1389-.0122-.0436-.0273-.0964-.035-.1214-.0054-.0175-.0404-.1389-.0174-.0609-.0238-.0772-.0423-.1389v-.0019l-.0424-.1373c-.521-1.6607-1.1835-3.3008-2.0054-4.9058-.5085-.9924-1.0618-1.9459-1.6582-2.8586l-.026-.0379-.1037-.1583-.0268-.0388-.1048-.1558-.0275-.0399-.1059-.1547-.0275-.0399-.1068-.154-.0275-.0399-.1086-.1522-.0276-.0399-.1103-.1523c-.6475-.8955-1.3527-1.7647-2.1097-2.6021-1.1884-1.3151-2.4626-2.5044-3.8096-3.565l-.0095-.0068-.1698-.1329-.0145-.0107-.1653-.1283-.0199-.0144-.1614-.1218-.0256-.0194-.1561-.116-.0312-.0232-.1519-.1113-.0361-.0271-.1468-.1059-.0415-.0305-.1436-.1004.0012-.0009c-2.2268-1.5796-4.6293-2.8278-7.1249-3.7452Z"/><path class="cls-2" d="m192.8782,152.435c0-10.443,8.5174-18.9603,18.9603-18.9603s18.9603,8.5173,18.9603,18.9603-8.5174,18.9603-18.9603,18.9603-18.9603-8.5174-18.9603-18.9603Zm25.4088-.9275c3.0394,0,5.5182-2.4789,5.5182-5.518s-2.4788-5.518-5.5182-5.518-5.518,2.4788-5.518,5.518,2.4788,5.518,5.518,5.518Z"/></g></svg>