<?xml version="1.0" encoding="UTF-8"?><svg id="Layer_1" xmlns="http://www.w3.org/2000/svg" viewBox="0 0 291.288 252.7864"><defs><style>.cls-1{fill:#4a9cd5;}</style></defs><path class="cls-1" d="m188.9599,124.2645c0,23.2403-18.84,42.0803-42.0803,42.0803s-42.0803-18.84-42.0803-42.0803,18.84-42.0803,42.0803-42.0803,42.0803,18.84,42.0803,42.0803Zm-22.9361,9.7337c0-11.2442-9.5857-13.5765-17.2198-15.4797-5.2505-1.3051-9.5857-2.3201-9.5857-5.8608,0-3.0694,3.5406-4.4651,7.0692-4.4651,4.0391,0,7.5677,1.9878,7.5677,6.181h10.7004c0-8.5978-4.9122-14.3075-13.6822-15.673v-4.8276h-8.6069v4.8034c-8.5585,1.2326-13.8212,6.32-13.8212,14.4586,0,10.8273,9.1809,13.0145,16.7274,14.8392,5.3986,1.287,9.8848,2.3081,9.8848,6.1568,0,3.5165-3.9877,5.5708-8.0571,5.5708-4.3563,0-8.3561-2.2295-8.3561-6.8819h-10.9089c0,9.2322,5.9363,15.2682,15.1232,16.6519v5.1841h8.5676v-5.2022c8.3954-1.287,14.5976-6.4469,14.5976-15.4555Z"/><g><path class="cls-1" d="m288.6854,199.4007l-44.4873-44.4844c-1.751-1.751-4.0404-2.6335-6.344-2.6335-2.2894,0-4.5931.8825-6.344,2.6335l-24.3611,24.3526c-3.5048,3.5018-3.5048,9.2933,0,12.8065l4.0404,4.1419h9.3188l-8.7013-8.7999c-.6061-.6175-.6935-1.3759-.6935-1.751,0-.3637.0874-1.1024.6935-1.7171l3.2172-3.1185,15.2849,15.3864h14.6731l-22.6243-22.7314,13.8131-13.8667c.6034-.6061,1.3195-.7162,1.6832-.7162.3751,0,1.0799.0762,1.6974.6824l44.4844,44.4731c.6063.6175.6937,1.3224.6937,1.6974,0,.3637-.1523,1.0687-.7585,1.6862l-2.5235,2.4559v9.3158l7.1814-7.1138c3.502-3.5132,3.5696-9.1974.0564-12.6993h0Zm0,0"/><path class="cls-1" d="m267.8121,200.393h-62.9103c-4.9568,0-9.1974,3.987-9.1974,8.9437v23.8001h80.9753v-23.8001c0-4.9567-3.9108-8.9437-8.8675-8.9437h0Zm-50.1236,24.6374"/><path class="cls-1" d="m195.7043,243.7863c0,4.9568,4.2406,9.0001,9.1974,9.0001h62.9103c4.9567,0,8.8675-4.0433,8.8675-9.0001v-.5273h-80.9753v.5273Zm0,0"/></g><path class="cls-1" d="m250.1739,106.3728c-.6894,0-1.163,0-1.6365,0-12.6087.002-25.2174.0002-37.8261.0087-3.2695.0022-5.7792-2.3117-5.8788-5.4577-.1005-3.175,2.3854-5.7865,5.7276-5.8442,4.0801-.0705,8.1622-.0148,12.2435-.0147,10.7213.0002,21.4425-.0002,32.1637,0,4.3303,0,6.5029,2.1677,6.5037,6.4991.0021,10.9036.0033,21.8072-.001,32.7107-.0015,3.6733-2.194,6.0716-5.561,6.1073-3.4067.0361-5.729-2.4384-5.7324-6.1475-.0083-9.1943-.0027-18.3886-.0027-27.8616Z"/><path class="cls-1" d="m136.7989,219.7618c2.8258,0,5.4324.0013,8.039-.0002,10.4723-.006,20.9446-.0313,31.4168-.008,3.1299.007,5.524,2.093,5.8511,4.9349.327,2.841-1.3403,5.4308-4.0178,6.159-.5748.1564-1.1988.1818-1.8003.1822-14.98.0103-29.96.0157-44.9399.0049-3.5-.0025-5.8581-2.3057-5.8659-5.8102-.0249-11.2662-.0209-22.5325.0147-33.7987.0098-3.119,2.5659-5.676,5.5182-5.6843,3.2593-.0092,5.7613,2.4486,5.772,5.7854.0277,8.7085.0111,17.4172.0121,26.1258,0,.6022,0,1.2043,0,2.1092Z"/><path class="cls-1" d="m154.7496,33.6414c-.6894,0-1.163,0-1.6365,0-12.6087.002-25.2174.0002-37.8261.0087-3.2695.0022-5.7792-2.3117-5.8788-5.4577-.1005-3.175,2.3854-5.7865,5.7276-5.8442,4.0801-.0705,8.1622-.0148,12.2435-.0147,10.7213.0002,21.4425-.0002,32.1637,0,4.3303,0,6.5029,2.1677,6.5037,6.4991.0021,10.9036.0033,21.8072-.001,32.7107-.0015,3.6733-2.194,6.0716-5.561,6.1073-3.4067.0361-5.729-2.4384-5.7324-6.1475-.0083-9.1943-.0027-18.3886-.0027-27.8616Z"/><path class="cls-1" d="m41.3746,122.3635c2.8258,0,5.4324.0013,8.039-.0002,10.4723-.006,20.9446-.0313,31.4168-.008,3.1299.007,5.524,2.093,5.8511,4.9349.327,2.841-1.3403,5.4308-4.0178,6.159-.5748.1564-1.1988.1818-1.8003.1822-14.98.0103-29.96.0157-44.9399.0049-3.5-.0025-5.8581-2.3057-5.8659-5.8102-.0249-11.2662-.0209-22.5325.0147-33.7987.0098-3.119,2.5659-5.676,5.5182-5.6843,3.2593-.0092,5.7613,2.4486,5.772,5.7854.0277,8.7085.0111,17.4172.0121,26.1258,0,.6022,0,1.2043,0,2.1092Z"/><path class="cls-1" d="m21.9489,37.8207C21.8988,17.0578,38.6929.0384,59.2688,0c21.1911-.0394,38.1335,16.681,38.1693,37.6692.0355,20.817-16.8334,37.7968-37.5733,37.8202-21.0271.0238-37.8653-16.7047-37.9159-37.6688Zm46.941-2.7069c.482-.2818.7264-.4431.9861-.5737,3.1614-1.5897,4.7357-4.4818,4.0686-7.4845-.7576-3.4104-3.2953-5.3927-6.9974-5.4431-1.5098-.0206-3.0201-.0034-4.7285-.0034v-6.1978h-4.4119v6.0928h-3.0237v-6.1498h-4.4209v6.3242h-7.6987v4.403h4.5197v23.5412h-4.5367v4.3161h7.7759v6.1867h4.4276v-6.1061h3.0795v6.0889h4.4249v-6.0746c2.6004-.141,5.0648.0282,7.3877-.4666,4.1922-.8931,7.0188-4.7515,7.0398-8.9997.0226-4.5673-2.8373-8.05-7.8921-9.4535Z"/><path class="cls-1" d="m38.6936,75.5292c-14.7975-.2748-26.55-6.2649-33.691-19.4191C-2.3572,42.5528-1.5682,28.8792,7.1843,16.1563,14.6952,5.2381,25.5899.3406,39.3209.106c-30.9989,14.9097-30.8654,60.6234-.6273,75.4232Z"/><path class="cls-1" d="m55.2398,39.1651c2.8861,0,5.6077-.2171,8.278.0599,2.7723.2876,4.3369,2.573,4.1084,5.3092-.2152,2.5766-2.156,4.4617-4.7908,4.5263-2.4836.0609-4.9698.0131-7.5956.0131v-9.9085Z"/><path class="cls-1" d="m55.1987,34.8162v-8.571c2.2222,0,4.4007-.1249,6.5584.0337,2.3525.1728,3.9781,2.0224,3.9924,4.2029.0147,2.2378-1.7217,4.1492-4.1448,4.3072-2.0366.1328-4.0888.0273-6.4059.0273Z"/></svg>