<?xml version="1.0" encoding="UTF-8"?><svg id="Layer_1" xmlns="http://www.w3.org/2000/svg" xmlns:xlink="http://www.w3.org/1999/xlink" viewBox="0 0 455.5812 455.5812"><defs><style>.cls-1{fill:none;}.cls-2{clip-path:url(#clippath);}.cls-3{fill:#00aeef;}.cls-4{fill:#4a9cd5;}.cls-5{opacity:.2;}.cls-6{fill:url(#radial-gradient);}</style><radialGradient id="radial-gradient" cx="222.2703" cy="237.3349" fx="222.2703" fy="237.3349" r="163.7184" gradientTransform="translate(-26.6372 230.2384) scale(1.1104 .0299)" gradientUnits="userSpaceOnUse"><stop offset="0" stop-color="#00aeef"/><stop offset="1" stop-color="#00aeef" stop-opacity="0"/></radialGradient><clipPath id="clippath"><rect class="cls-1" x="62.023" y="17.3076" width="344.6724" height="220.0274"/></clipPath></defs><g class="cls-5"><g><path class="cls-3" d="m141.1181,305.5495c52.7871-12.9133,132.5584-32.4286,136.2578-146.8316.422-13.0476-4.4275-25.483-13.6563-35.0125-9.4909-9.7964-22.751-15.4121-36.7048-15.4121-13.782,0-27.112,5.8091-36.5707,15.9389-9.072,9.7207-11.5107,22.5749-13.2805,31.96-7.2529,38.2431-31.9562,57.0777-75.5123,57.5647-6.3767.0725-11.4926,5.3043-11.4196,11.6853.0719,6.374,5.2298,11.5608,11.6772,11.4163,53.9426-.6094,88.7252-27.7289,97.9519-76.3676,1.6817-8.8761,3.2946-16.0206,7.4699-20.4905,5.1803-5.5514,12.1691-8.6055,19.9997-8.6055,7.414,0,14.6304,3.054,19.7913,8.3848,4.8346,4.9978,7.3883,11.4561,7.1713,18.1946-3.1313,96.8748-67.1941,112.5436-118.6646,125.1358-9.8066,2.4001-19.0698,4.6638-27.0615,7.3753-6.0437,2.0479-9.2814,8.6006-7.2356,14.6444,1.6344,4.813,6.1242,7.8478,10.9437,7.8478,1.2274,0,2.4742-.1987,3.7059-.6132,7.0413-2.3861,15.8299-4.5382,25.1371-6.8148Z"/><path class="cls-3" d="m352.1269,252.6803c-20.5024-6.2059-38.8849-14.465-38.6078-47.029.0644-7.2341.4789-12.0333.9311-17.1206.6217-7.0489,1.3273-15.0411,1.1179-30.1054-.6766-48.7428-40.3313-88.3971-88.401-88.3971-43.904,0-78.2442,29.8939-87.4988,76.1513-5.5154,27.5538-19.961,28.4737-33.0859,27.1426-6.3594-.6534-12.0101,3.9959-12.648,10.3425-.6357,6.3455,3.9948,12.0102,10.3456,12.647,39.5925,3.9507,53.4378-22.6056,58.0404-45.5949,7.1091-35.5225,31.954-57.5868,64.8466-57.5868,35.5053,0,64.8037,29.4337,65.302,65.6113.1868,13.8916-.4252,20.9458-1.0309,27.76-.4703,5.3092-.9471,10.8025-1.018,18.9521-.451,52.5622,38.4273,64.3119,55.0251,69.3366,1.1104.334,2.2358.496,3.3472.496,4.9581,0,9.5414-3.2162,11.0491-8.2086,1.8471-6.1071-1.6065-12.5525-7.7146-14.3968Z"/><path class="cls-3" d="m356.2247,214.3163c-1.0201-.691-5.6206-4.3841-4.5199-14.6583,1.5979-14.8746,2.4355-39.2483,2.4709-40.2818l.0087-.3877c0-70.0623-56.9817-127.0574-127.0173-127.0574-51.8356,0-99.3768,32.5227-118.3037,80.9354-2.2326,5.7151-3.9336,12.4987-5.4382,18.4834-.8203,3.2742-1.7503,6.9817-2.2841,8.344-2.325,5.9406.6046,12.6426,6.5452,14.9696,5.9321,2.3223,12.6416-.6094,14.9655-6.5446,1.0696-2.7373,2.0017-6.4497,3.1786-11.1441,1.336-5.3183,2.8523-11.3443,4.5468-15.701,15.4927-39.6221,54.3872-66.2416,96.7899-66.2416,57.2351,0,103.8088,46.528,103.9161,103.7578-.0794,2.3453-.9084,25.0228-2.3453,38.4053-2.7415,25.4421,13.6403,37.7147,21.5236,39.4109.8193.1713,1.6333.2561,2.4355.2561,5.3318,0,10.1212-3.7113,11.2853-9.1283,1.2533-5.8586-2.1649-11.6279-7.7576-13.4175Z"/><path class="cls-3" d="m108.0322,275.0419c2.2841-.4778,4.6552-.9557,7.109-1.4486,44.8705-9.042,119.9726-24.1744,123.5722-115.1139.2535-6.374-4.7078-11.7449-11.0844-11.9973-6.3659-.1857-11.7471,4.7126-11.9994,11.086-2.8759,72.7901-61.9322,84.6934-105.0502,93.3805-2.4999.5047-4.9227.9922-7.2443,1.4738-6.2477,1.2989-10.2555,7.4199-8.956,13.6623,1.134,5.452,5.9363,9.2009,11.2928,9.2009.7839,0,1.5722-.0773,2.3604-.2438Z"/><path class="cls-3" d="m344.7408,290.1428c-11.5097-2.5312-21.9563-6.5045-34.0868-11.6913-9.3663-4.0045-19.7731-11.8039-27.1796-20.3637-4.1859-4.826-11.4753-5.3533-16.2916-1.1769-4.8271,4.1768-5.3576,11.4689-1.1823,16.2916,9.7057,11.2123,23.0044,21.1165,35.5687,26.4923,11.5462,4.929,24.1567,9.9225,38.2103,13.0078.8377.1847,1.6677.2749,2.4893.2749,5.3049,0,10.0858-3.6802,11.2659-9.0785,1.3714-6.2295-2.5612-12.3849-8.7938-13.7562Z"/><path class="cls-3" d="m333.0968,327.0452c-21.4687-4.564-36.2914-12.4387-49.3604-19.3899-12.9273-6.878-24.0955-12.8134-37.2289-12.8134-10.4712,0-22.6908,3.8971-41.1828,9.7915-19.6196,6.2564-46.4911,14.8291-83.6179,22.3891-6.2434,1.2768-10.2812,7.3742-9.0033,13.6252,1.2693,6.252,7.3668,10.2876,13.6231,9.0119,38.3393-7.8113,65.8958-16.5978,86.019-23.0163,15.8332-5.046,27.2785-8.6994,34.1619-8.6994,7.3689,0,15.7602,4.4598,26.3839,10.1061,13.7036,7.2884,30.7524,16.354,55.4149,21.5912.8011.1718,1.615.2524,2.4098.2524,5.3392,0,10.1287-3.721,11.282-9.1558,1.3252-6.238-2.6588-12.3721-8.9013-13.6928Z"/><path class="cls-3" d="m311.5991,359.5737c-8.5437-2.2917-18.4018-6.9104-27.9356-11.3808-14.5509-6.8105-28.2878-13.2419-40.3667-13.2419-8.8594,0-23.987,4.2633-47.946,11.2177-17.3452,5.0332-37.0034,10.7387-51.2,13.1743-6.2864,1.0781-10.5067,7.0499-9.4328,13.3374,1.0825,6.2831,7.0253,10.5088,13.3395,9.4296,15.4799-2.6515,35.805-8.5513,53.7364-13.7542,16.63-4.8313,35.485-10.3027,41.5029-10.3027,6.9351,0,18.9506,5.6249,30.5612,11.064,10.4455,4.8925,21.253,9.9494,31.7704,12.764.9998.2706,2.0017.4017,2.994.4017,5.0987,0,9.7679-3.4095,11.1488-8.5652,1.6495-6.1661-2.0017-12.4987-8.1721-14.1439Z"/><path class="cls-3" d="m281.7154,387.5373c-2.762-1.0105-5.6571-2.2831-8.7241-3.6264-9.7787-4.303-20.8631-9.1741-35.1509-9.1741-6.4872,0-15.8321,2.152-30.5462,5.6743-10.6958,2.5526-22.8198,5.452-31.6791,6.5034-6.3401.7485-10.8612,6.4947-10.1115,12.8327.7517,6.3358,6.5119,10.8547,12.8327,10.1105,10.1953-1.2168,23.0195-4.2762,34.3273-6.9824,9.886-2.3636,21.0886-5.0375,25.1768-5.0375,9.4328,0,17.4063,3.504,25.8598,7.2207,3.2581,1.4358,6.6301,2.9145,10.0772,4.173,1.3079.4779,2.6502.7088,3.9689.7088,4.7057,0,9.1365-2.9049,10.8407-7.588,2.194-5.9901-.8816-12.6233-6.8717-14.8151Z"/></g><g><path class="cls-4" d="m141.1181,305.5495c52.7871-12.9133,132.5584-32.4286,136.2578-146.8316.422-13.0476-4.4275-25.483-13.6563-35.0125-9.4909-9.7964-22.751-15.4121-36.7048-15.4121-13.782,0-27.112,5.8091-36.5707,15.9389-9.072,9.7207-11.5107,22.5749-13.2805,31.96-7.2529,38.2431-31.9562,57.0777-75.5123,57.5647-6.3767.0725-11.4926,5.3043-11.4196,11.6853.0719,6.374,5.2298,11.5608,11.6772,11.4163,53.9426-.6094,88.7252-27.7289,97.9519-76.3676,1.6817-8.8761,3.2946-16.0206,7.4699-20.4905,5.1803-5.5514,12.1691-8.6055,19.9997-8.6055,7.414,0,14.6304,3.054,19.7913,8.3848,4.8346,4.9978,7.3883,11.4561,7.1713,18.1946-3.1313,96.8748-67.1941,112.5436-118.6646,125.1358-9.8066,2.4001-19.0698,4.6638-27.0615,7.3753-6.0437,2.0479-9.2814,8.6006-7.2356,14.6444,1.6344,4.813,6.1242,7.8478,10.9437,7.8478,1.2274,0,2.4742-.1987,3.7059-.6132,7.0413-2.3861,15.8299-4.5382,25.1371-6.8148Z"/><path class="cls-4" d="m352.1269,252.6803c-20.5024-6.2059-38.8849-14.465-38.6078-47.029.0644-7.2341.4789-12.0333.9311-17.1206.6217-7.0489,1.3273-15.0411,1.1179-30.1054-.6766-48.7428-40.3313-88.3971-88.401-88.3971-43.904,0-78.2442,29.8939-87.4988,76.1513-5.5154,27.5538-19.961,28.4737-33.0859,27.1426-6.3594-.6534-12.0101,3.9959-12.648,10.3425-.6357,6.3455,3.9948,12.0102,10.3456,12.647,39.5925,3.9507,53.4378-22.6056,58.0404-45.5949,7.1091-35.5225,31.954-57.5868,64.8466-57.5868,35.5053,0,64.8037,29.4337,65.302,65.6113.1868,13.8916-.4252,20.9458-1.0309,27.76-.4703,5.3092-.9471,10.8025-1.018,18.9521-.451,52.5622,38.4273,64.3119,55.0251,69.3366,1.1104.334,2.2358.496,3.3472.496,4.9581,0,9.5414-3.2162,11.0491-8.2086,1.8471-6.1071-1.6065-12.5525-7.7146-14.3968Z"/><path class="cls-4" d="m356.2247,214.3163c-1.0201-.691-5.6206-4.3841-4.5199-14.6583,1.5979-14.8746,2.4355-39.2483,2.4709-40.2818l.0087-.3877c0-70.0623-56.9817-127.0574-127.0173-127.0574-51.8356,0-99.3768,32.5227-118.3037,80.9354-2.2326,5.7151-3.9336,12.4987-5.4382,18.4834-.8203,3.2742-1.7503,6.9817-2.2841,8.344-2.325,5.9406.6046,12.6426,6.5452,14.9696,5.9321,2.3223,12.6416-.6094,14.9655-6.5446,1.0696-2.7373,2.0017-6.4497,3.1786-11.1441,1.336-5.3183,2.8523-11.3443,4.5468-15.701,15.4927-39.6221,54.3872-66.2416,96.7899-66.2416,57.2351,0,103.8088,46.528,103.9161,103.7578-.0794,2.3453-.9084,25.0228-2.3453,38.4053-2.7415,25.4421,13.6403,37.7147,21.5236,39.4109.8193.1713,1.6333.2561,2.4355.2561,5.3318,0,10.1212-3.7113,11.2853-9.1283,1.2533-5.8586-2.1649-11.6279-7.7576-13.4175Z"/><path class="cls-4" d="m108.0322,275.0419c2.2841-.4778,4.6552-.9557,7.109-1.4486,44.8705-9.042,119.9726-24.1744,123.5722-115.1139.2535-6.374-4.7078-11.7449-11.0844-11.9973-6.3659-.1857-11.7471,4.7126-11.9994,11.086-2.8759,72.7901-61.9322,84.6934-105.0502,93.3805-2.4999.5047-4.9227.9922-7.2443,1.4738-6.2477,1.2989-10.2555,7.4199-8.956,13.6623,1.134,5.452,5.9363,9.2009,11.2928,9.2009.7839,0,1.5722-.0773,2.3604-.2438Z"/><path class="cls-4" d="m344.7408,290.1428c-11.5097-2.5312-21.9563-6.5045-34.0868-11.6913-9.3663-4.0045-19.7731-11.8039-27.1796-20.3637-4.1859-4.826-11.4753-5.3533-16.2916-1.1769-4.8271,4.1768-5.3576,11.4689-1.1823,16.2916,9.7057,11.2123,23.0044,21.1165,35.5687,26.4923,11.5462,4.929,24.1567,9.9225,38.2103,13.0078.8377.1847,1.6677.2749,2.4893.2749,5.3049,0,10.0858-3.6802,11.2659-9.0785,1.3714-6.2295-2.5612-12.3849-8.7938-13.7562Z"/><path class="cls-4" d="m333.0968,327.0452c-21.4687-4.564-36.2914-12.4387-49.3604-19.3899-12.9273-6.878-24.0955-12.8134-37.2289-12.8134-10.4712,0-22.6908,3.8971-41.1828,9.7915-19.6196,6.2564-46.4911,14.8291-83.6179,22.3891-6.2434,1.2768-10.2812,7.3742-9.0033,13.6252,1.2693,6.252,7.3668,10.2876,13.6231,9.0119,38.3393-7.8113,65.8958-16.5978,86.019-23.0163,15.8332-5.046,27.2785-8.6994,34.1619-8.6994,7.3689,0,15.7602,4.4598,26.3839,10.1061,13.7036,7.2884,30.7524,16.354,55.4149,21.5912.8011.1718,1.615.2524,2.4098.2524,5.3392,0,10.1287-3.721,11.282-9.1558,1.3252-6.238-2.6588-12.3721-8.9013-13.6928Z"/><path class="cls-4" d="m311.5991,359.5737c-8.5437-2.2917-18.4018-6.9104-27.9356-11.3808-14.5509-6.8105-28.2878-13.2419-40.3667-13.2419-8.8594,0-23.987,4.2633-47.946,11.2177-17.3452,5.0332-37.0034,10.7387-51.2,13.1743-6.2864,1.0781-10.5067,7.0499-9.4328,13.3374,1.0825,6.2831,7.0253,10.5088,13.3395,9.4296,15.4799-2.6515,35.805-8.5513,53.7364-13.7542,16.63-4.8313,35.485-10.3027,41.5029-10.3027,6.9351,0,18.9506,5.6249,30.5612,11.064,10.4455,4.8925,21.253,9.9494,31.7704,12.764.9998.2706,2.0017.4017,2.994.4017,5.0987,0,9.7679-3.4095,11.1488-8.5652,1.6495-6.1661-2.0017-12.4987-8.1721-14.1439Z"/><path class="cls-4" d="m281.7154,387.5373c-2.762-1.0105-5.6571-2.2831-8.7241-3.6264-9.7787-4.303-20.8631-9.1741-35.1509-9.1741-6.4872,0-15.8321,2.152-30.5462,5.6743-10.6958,2.5526-22.8198,5.452-31.6791,6.5034-6.3401.7485-10.8612,6.4947-10.1115,12.8327.7517,6.3358,6.5119,10.8547,12.8327,10.1105,10.1953-1.2168,23.0195-4.2762,34.3273-6.9824,9.886-2.3636,21.0886-5.0375,25.1768-5.0375,9.4328,0,17.4063,3.504,25.8598,7.2207,3.2581,1.4358,6.6301,2.9145,10.0772,4.173,1.3079.4779,2.6502.7088,3.9689.7088,4.7057,0,9.1365-2.9049,10.8407-7.588,2.194-5.9901-.8816-12.6233-6.8717-14.8151Z"/></g></g><path class="cls-6" d="m395.9875,237.3349c0,3.7025-9,6.7319-20,6.7319H64.3582c-11,0-20-3.0293-20-6.7319s9-6.7319,20-6.7319h311.6293c11,0,20,3.0293,20,6.7319Z"/><g class="cls-2"><g><g><path class="cls-3" d="m141.1181,305.5495c52.7871-12.9133,132.5584-32.4286,136.2578-146.8316.422-13.0476-4.4275-25.483-13.6563-35.0125-9.4909-9.7964-22.751-15.4121-36.7048-15.4121-13.782,0-27.112,5.8091-36.5707,15.9389-9.072,9.7207-11.5107,22.5749-13.2805,31.96-7.2529,38.2431-31.9562,57.0777-75.5123,57.5647-6.3767.0725-11.4926,5.3043-11.4196,11.6853.0719,6.374,5.2298,11.5608,11.6772,11.4163,53.9426-.6094,88.7252-27.7289,97.9519-76.3676,1.6817-8.8761,3.2946-16.0206,7.4699-20.4905,5.1803-5.5514,12.1691-8.6055,19.9997-8.6055,7.414,0,14.6304,3.054,19.7913,8.3848,4.8346,4.9978,7.3883,11.4561,7.1713,18.1946-3.1313,96.8748-67.1941,112.5436-118.6646,125.1358-9.8066,2.4001-19.0698,4.6638-27.0615,7.3753-6.0437,2.0479-9.2814,8.6006-7.2356,14.6444,1.6344,4.813,6.1242,7.8478,10.9437,7.8478,1.2274,0,2.4742-.1987,3.7059-.6132,7.0413-2.3861,15.8299-4.5382,25.1371-6.8148Z"/><path class="cls-3" d="m352.1269,252.6803c-20.5024-6.2059-38.8849-14.465-38.6078-47.029.0644-7.2341.4789-12.0333.9311-17.1206.6217-7.0489,1.3273-15.0411,1.1179-30.1054-.6766-48.7428-40.3313-88.3971-88.401-88.3971-43.904,0-78.2442,29.8939-87.4988,76.1513-5.5154,27.5538-19.961,28.4737-33.0859,27.1426-6.3594-.6534-12.0101,3.9959-12.648,10.3425-.6357,6.3455,3.9948,12.0102,10.3456,12.647,39.5925,3.9507,53.4378-22.6056,58.0404-45.5949,7.1091-35.5225,31.954-57.5868,64.8466-57.5868,35.5053,0,64.8037,29.4337,65.302,65.6113.1868,13.8916-.4252,20.9458-1.0309,27.76-.4703,5.3092-.9471,10.8025-1.018,18.9521-.451,52.5622,38.4273,64.3119,55.0251,69.3366,1.1104.334,2.2358.496,3.3472.496,4.9581,0,9.5414-3.2162,11.0491-8.2086,1.8471-6.1071-1.6065-12.5525-7.7146-14.3968Z"/><path class="cls-3" d="m356.2247,214.3163c-1.0201-.691-5.6206-4.3841-4.5199-14.6583,1.5979-14.8746,2.4355-39.2483,2.4709-40.2818l.0087-.3877c0-70.0623-56.9817-127.0574-127.0173-127.0574-51.8356,0-99.3768,32.5227-118.3037,80.9354-2.2326,5.7151-3.9336,12.4987-5.4382,18.4834-.8203,3.2742-1.7503,6.9817-2.2841,8.344-2.325,5.9406.6046,12.6426,6.5452,14.9696,5.9321,2.3223,12.6416-.6094,14.9655-6.5446,1.0696-2.7373,2.0017-6.4497,3.1786-11.1441,1.336-5.3183,2.8523-11.3443,4.5468-15.701,15.4927-39.6221,54.3872-66.2416,96.7899-66.2416,57.2351,0,103.8088,46.528,103.9161,103.7578-.0794,2.3453-.9084,25.0228-2.3453,38.4053-2.7415,25.4421,13.6403,37.7147,21.5236,39.4109.8193.1713,1.6333.2561,2.4355.2561,5.3318,0,10.1212-3.7113,11.2853-9.1283,1.2533-5.8586-2.1649-11.6279-7.7576-13.4175Z"/><path class="cls-3" d="m108.0322,275.0419c2.2841-.4778,4.6552-.9557,7.109-1.4486,44.8705-9.042,119.9726-24.1744,123.5722-115.1139.2535-6.374-4.7078-11.7449-11.0844-11.9973-6.3659-.1857-11.7471,4.7126-11.9994,11.086-2.8759,72.7901-61.9322,84.6934-105.0502,93.3805-2.4999.5047-4.9227.9922-7.2443,1.4738-6.2477,1.2989-10.2555,7.4199-8.956,13.6623,1.134,5.452,5.9363,9.2009,11.2928,9.2009.7839,0,1.5722-.0773,2.3604-.2438Z"/><path class="cls-3" d="m344.7408,290.1428c-11.5097-2.5312-21.9563-6.5045-34.0868-11.6913-9.3663-4.0045-19.7731-11.8039-27.1796-20.3637-4.1859-4.826-11.4753-5.3533-16.2916-1.1769-4.8271,4.1768-5.3576,11.4689-1.1823,16.2916,9.7057,11.2123,23.0044,21.1165,35.5687,26.4923,11.5462,4.929,24.1567,9.9225,38.2103,13.0078.8377.1847,1.6677.2749,2.4893.2749,5.3049,0,10.0858-3.6802,11.2659-9.0785,1.3714-6.2295-2.5612-12.3849-8.7938-13.7562Z"/><path class="cls-3" d="m333.0968,327.0452c-21.4687-4.564-36.2914-12.4387-49.3604-19.3899-12.9273-6.878-24.0955-12.8134-37.2289-12.8134-10.4712,0-22.6908,3.8971-41.1828,9.7915-19.6196,6.2564-46.4911,14.8291-83.6179,22.3891-6.2434,1.2768-10.2812,7.3742-9.0033,13.6252,1.2693,6.252,7.3668,10.2876,13.6231,9.0119,38.3393-7.8113,65.8958-16.5978,86.019-23.0163,15.8332-5.046,27.2785-8.6994,34.1619-8.6994,7.3689,0,15.7602,4.4598,26.3839,10.1061,13.7036,7.2884,30.7524,16.354,55.4149,21.5912.8011.1718,1.615.2524,2.4098.2524,5.3392,0,10.1287-3.721,11.282-9.1558,1.3252-6.238-2.6588-12.3721-8.9013-13.6928Z"/><path class="cls-3" d="m311.5991,359.5737c-8.5437-2.2917-18.4018-6.9104-27.9356-11.3808-14.5509-6.8105-28.2878-13.2419-40.3667-13.2419-8.8594,0-23.987,4.2633-47.946,11.2177-17.3452,5.0332-37.0034,10.7387-51.2,13.1743-6.2864,1.0781-10.5067,7.0499-9.4328,13.3374,1.0825,6.2831,7.0253,10.5088,13.3395,9.4296,15.4799-2.6515,35.805-8.5513,53.7364-13.7542,16.63-4.8313,35.485-10.3027,41.5029-10.3027,6.9351,0,18.9506,5.6249,30.5612,11.064,10.4455,4.8925,21.253,9.9494,31.7704,12.764.9998.2706,2.0017.4017,2.994.4017,5.0987,0,9.7679-3.4095,11.1488-8.5652,1.6495-6.1661-2.0017-12.4987-8.1721-14.1439Z"/><path class="cls-3" d="m281.7154,387.5373c-2.762-1.0105-5.6571-2.2831-8.7241-3.6264-9.7787-4.303-20.8631-9.1741-35.1509-9.1741-6.4872,0-15.8321,2.152-30.5462,5.6743-10.6958,2.5526-22.8198,5.452-31.6791,6.5034-6.3401.7485-10.8612,6.4947-10.1115,12.8327.7517,6.3358,6.5119,10.8547,12.8327,10.1105,10.1953-1.2168,23.0195-4.2762,34.3273-6.9824,9.886-2.3636,21.0886-5.0375,25.1768-5.0375,9.4328,0,17.4063,3.504,25.8598,7.2207,3.2581,1.4358,6.6301,2.9145,10.0772,4.173,1.3079.4779,2.6502.7088,3.9689.7088,4.7057,0,9.1365-2.9049,10.8407-7.588,2.194-5.9901-.8816-12.6233-6.8717-14.8151Z"/></g><g><path class="cls-4" d="m141.1181,305.5495c52.7871-12.9133,132.5584-32.4286,136.2578-146.8316.422-13.0476-4.4275-25.483-13.6563-35.0125-9.4909-9.7964-22.751-15.4121-36.7048-15.4121-13.782,0-27.112,5.8091-36.5707,15.9389-9.072,9.7207-11.5107,22.5749-13.2805,31.96-7.2529,38.2431-31.9562,57.0777-75.5123,57.5647-6.3767.0725-11.4926,5.3043-11.4196,11.6853.0719,6.374,5.2298,11.5608,11.6772,11.4163,53.9426-.6094,88.7252-27.7289,97.9519-76.3676,1.6817-8.8761,3.2946-16.0206,7.4699-20.4905,5.1803-5.5514,12.1691-8.6055,19.9997-8.6055,7.414,0,14.6304,3.054,19.7913,8.3848,4.8346,4.9978,7.3883,11.4561,7.1713,18.1946-3.1313,96.8748-67.1941,112.5436-118.6646,125.1358-9.8066,2.4001-19.0698,4.6638-27.0615,7.3753-6.0437,2.0479-9.2814,8.6006-7.2356,14.6444,1.6344,4.813,6.1242,7.8478,10.9437,7.8478,1.2274,0,2.4742-.1987,3.7059-.6132,7.0413-2.3861,15.8299-4.5382,25.1371-6.8148Z"/><path class="cls-4" d="m352.1269,252.6803c-20.5024-6.2059-38.8849-14.465-38.6078-47.029.0644-7.2341.4789-12.0333.9311-17.1206.6217-7.0489,1.3273-15.0411,1.1179-30.1054-.6766-48.7428-40.3313-88.3971-88.401-88.3971-43.904,0-78.2442,29.8939-87.4988,76.1513-5.5154,27.5538-19.961,28.4737-33.0859,27.1426-6.3594-.6534-12.0101,3.9959-12.648,10.3425-.6357,6.3455,3.9948,12.0102,10.3456,12.647,39.5925,3.9507,53.4378-22.6056,58.0404-45.5949,7.1091-35.5225,31.954-57.5868,64.8466-57.5868,35.5053,0,64.8037,29.4337,65.302,65.6113.1868,13.8916-.4252,20.9458-1.0309,27.76-.4703,5.3092-.9471,10.8025-1.018,18.9521-.451,52.5622,38.4273,64.3119,55.0251,69.3366,1.1104.334,2.2358.496,3.3472.496,4.9581,0,9.5414-3.2162,11.0491-8.2086,1.8471-6.1071-1.6065-12.5525-7.7146-14.3968Z"/><path class="cls-4" d="m356.2247,214.3163c-1.0201-.691-5.6206-4.3841-4.5199-14.6583,1.5979-14.8746,2.4355-39.2483,2.4709-40.2818l.0087-.3877c0-70.0623-56.9817-127.0574-127.0173-127.0574-51.8356,0-99.3768,32.5227-118.3037,80.9354-2.2326,5.7151-3.9336,12.4987-5.4382,18.4834-.8203,3.2742-1.7503,6.9817-2.2841,8.344-2.325,5.9406.6046,12.6426,6.5452,14.9696,5.9321,2.3223,12.6416-.6094,14.9655-6.5446,1.0696-2.7373,2.0017-6.4497,3.1786-11.1441,1.336-5.3183,2.8523-11.3443,4.5468-15.701,15.4927-39.6221,54.3872-66.2416,96.7899-66.2416,57.2351,0,103.8088,46.528,103.9161,103.7578-.0794,2.3453-.9084,25.0228-2.3453,38.4053-2.7415,25.4421,13.6403,37.7147,21.5236,39.4109.8193.1713,1.6333.2561,2.4355.2561,5.3318,0,10.1212-3.7113,11.2853-9.1283,1.2533-5.8586-2.1649-11.6279-7.7576-13.4175Z"/><path class="cls-4" d="m108.0322,275.0419c2.2841-.4778,4.6552-.9557,7.109-1.4486,44.8705-9.042,119.9726-24.1744,123.5722-115.1139.2535-6.374-4.7078-11.7449-11.0844-11.9973-6.3659-.1857-11.7471,4.7126-11.9994,11.086-2.8759,72.7901-61.9322,84.6934-105.0502,93.3805-2.4999.5047-4.9227.9922-7.2443,1.4738-6.2477,1.2989-10.2555,7.4199-8.956,13.6623,1.134,5.452,5.9363,9.2009,11.2928,9.2009.7839,0,1.5722-.0773,2.3604-.2438Z"/><path class="cls-4" d="m344.7408,290.1428c-11.5097-2.5312-21.9563-6.5045-34.0868-11.6913-9.3663-4.0045-19.7731-11.8039-27.1796-20.3637-4.1859-4.826-11.4753-5.3533-16.2916-1.1769-4.8271,4.1768-5.3576,11.4689-1.1823,16.2916,9.7057,11.2123,23.0044,21.1165,35.5687,26.4923,11.5462,4.929,24.1567,9.9225,38.2103,13.0078.8377.1847,1.6677.2749,2.4893.2749,5.3049,0,10.0858-3.6802,11.2659-9.0785,1.3714-6.2295-2.5612-12.3849-8.7938-13.7562Z"/><path class="cls-4" d="m333.0968,327.0452c-21.4687-4.564-36.2914-12.4387-49.3604-19.3899-12.9273-6.878-24.0955-12.8134-37.2289-12.8134-10.4712,0-22.6908,3.8971-41.1828,9.7915-19.6196,6.2564-46.4911,14.8291-83.6179,22.3891-6.2434,1.2768-10.2812,7.3742-9.0033,13.6252,1.2693,6.252,7.3668,10.2876,13.6231,9.0119,38.3393-7.8113,65.8958-16.5978,86.019-23.0163,15.8332-5.046,27.2785-8.6994,34.1619-8.6994,7.3689,0,15.7602,4.4598,26.3839,10.1061,13.7036,7.2884,30.7524,16.354,55.4149,21.5912.8011.1718,1.615.2524,2.4098.2524,5.3392,0,10.1287-3.721,11.282-9.1558,1.3252-6.238-2.6588-12.3721-8.9013-13.6928Z"/><path class="cls-4" d="m311.5991,359.5737c-8.5437-2.2917-18.4018-6.9104-27.9356-11.3808-14.5509-6.8105-28.2878-13.2419-40.3667-13.2419-8.8594,0-23.987,4.2633-47.946,11.2177-17.3452,5.0332-37.0034,10.7387-51.2,13.1743-6.2864,1.0781-10.5067,7.0499-9.4328,13.3374,1.0825,6.2831,7.0253,10.5088,13.3395,9.4296,15.4799-2.6515,35.805-8.5513,53.7364-13.7542,16.63-4.8313,35.485-10.3027,41.5029-10.3027,6.9351,0,18.9506,5.6249,30.5612,11.064,10.4455,4.8925,21.253,9.9494,31.7704,12.764.9998.2706,2.0017.4017,2.994.4017,5.0987,0,9.7679-3.4095,11.1488-8.5652,1.6495-6.1661-2.0017-12.4987-8.1721-14.1439Z"/><path class="cls-4" d="m281.7154,387.5373c-2.762-1.0105-5.6571-2.2831-8.7241-3.6264-9.7787-4.303-20.8631-9.1741-35.1509-9.1741-6.4872,0-15.8321,2.152-30.5462,5.6743-10.6958,2.5526-22.8198,5.452-31.6791,6.5034-6.3401.7485-10.8612,6.4947-10.1115,12.8327.7517,6.3358,6.5119,10.8547,12.8327,10.1105,10.1953-1.2168,23.0195-4.2762,34.3273-6.9824,9.886-2.3636,21.0886-5.0375,25.1768-5.0375,9.4328,0,17.4063,3.504,25.8598,7.2207,3.2581,1.4358,6.6301,2.9145,10.0772,4.173,1.3079.4779,2.6502.7088,3.9689.7088,4.7057,0,9.1365-2.9049,10.8407-7.588,2.194-5.9901-.8816-12.6233-6.8717-14.8151Z"/></g></g></g><path class="cls-4" d="m451.0263,365.3061h-18.2241c-2.519,0-4.5549,2.037-4.5549,4.556v40.161c0,9.8769-8.3494,18.223-18.2241,18.223h-40.9163c-2.5169,0-4.5549,2.0412-4.5549,4.556v18.223c0,2.5148,2.0381,4.556,4.5549,4.556h40.9163c25.0565,0,45.5581-20.5016,45.5581-45.5581v-40.161c0-2.519-2.0381-4.556-4.5549-4.556Z"/><path class="cls-4" d="m87.2011,0h-41.6429C20.5016,0,0,20.501,0,45.5581v42.394c0,2.5185,2.0359,4.556,4.556,4.556h18.223c2.5126,0,4.556-2.0375,4.556-4.556v-42.394c0-9.8769,8.3419-18.223,18.223-18.223h41.6429c2.5169,0,4.556-2.0428,4.556-4.556V4.556c0-2.5148-2.0392-4.556-4.556-4.556Z"/><path class="cls-4" d="m410.0231,0h-40.9163c-2.5169,0-4.5549,2.0412-4.5549,4.556v18.223c0,2.5132,2.0381,4.556,4.5549,4.556h40.9163c9.8747,0,18.2241,8.3461,18.2241,18.223v42.394c0,2.5185,2.0359,4.556,4.5549,4.556h18.2241c2.5169,0,4.5549-2.0375,4.5549-4.556v-42.394c0-25.0571-20.5016-45.5581-45.5581-45.5581Z"/><path class="cls-4" d="m87.2011,428.2461h-41.6429c-9.8811,0-18.223-8.3461-18.223-18.223v-40.161c0-2.519-2.0434-4.556-4.556-4.556H4.556c-2.5201,0-4.556,2.037-4.556,4.556v40.161c0,25.0565,20.5016,45.5581,45.5581,45.5581h41.6429c2.5169,0,4.556-2.0412,4.556-4.556v-18.223c0-2.5148-2.0392-4.556-4.556-4.556Z"/></svg>