<?xml version="1.0" encoding="UTF-8"?><svg id="Layer_1" xmlns="http://www.w3.org/2000/svg" viewBox="0 0 284.825 245.0174"><defs><style>.cls-1{fill:#4a9cd5;}.cls-2{fill:none;stroke:#fff;stroke-width:15px;}</style></defs><path class="cls-1" d="m211.6113,104.0009c-1.4709,2.9729-2.6987,5.6692-4.1099,8.2658-4.0379,7.4295-3.5317,15.1046,1.8772,21.6566,1.1798,1.4291,3.174,2.3662,4.974,3.0606,2.7862,1.0748,5.7317,1.7338,8.6031,2.5912,3.8249,1.1421,5.8101,3.7029,5.8272,7.7172.0187,4.3781.0525,8.757-.0092,13.1342-.0603,4.2813-1.8307,6.6113-6.0114,7.9509-2.9723.9524-6.1908,1.3843-8.9122,2.7957-2.2577,1.1709-3.9516,3.431-5.8882,5.2162-.082.0756-.0739.2406-.1394.3439-4.8766,7.6873-3.931,14.8132,1.3155,22.0995,3.2341,4.4915,2.4019,7.7583-1.4677,11.6932-2.7183,2.7641-5.4405,5.5265-8.2307,8.2173-3.2154,3.1007-6.1926,3.477-10.227,1.4365-.3346-.1692-.7013-.3043-.987-.5366-7.0403-5.7262-14.4769-6.1801-21.9878-1.2103-2.2318,1.4768-4.3184,3.6491-5.5838,5.9841-1.3934,2.5712-1.7112,5.7132-2.593,8.5772-1.3696,4.4481-3.8394,6.2823-8.5541,6.344-4.1258.054-8.2541.0692-12.3791-.0096-4.2168-.0805-6.7584-2.0255-8.0769-5.9907-.1574-.4734-.2358-.9725-.3754-1.4525-4.2622-14.6558-2.3725-10.9108-15.1877-16.3946-2.0867-.893-5.1414-.4467-7.4404.3135-2.9147.9638-5.4877,2.9324-8.2562,4.3753-4.0021,2.086-7.0064,1.6677-10.2161-1.4426-2.9633-2.8716-5.8804-5.7932-8.754-8.7547-3.046-3.1393-3.5149-6.4131-1.589-10.2589.2237-.4467.4963-.8685.7383-1.3063,5.9118-10.6915,6.0696-10.7637.9533-21.982-1.0046-2.2028-3.5057-4.0888-5.763-5.2594-2.7213-1.4111-5.9369-1.8473-8.9061-2.8063-4.1926-1.3541-5.9412-3.6612-6.0031-7.9557-.063-4.3772-.0149-8.7561-.0142-13.1342.0006-3.8508,1.8879-6.3485,5.4744-7.6197.5884-.2085,1.175-.5062,1.7818-.5657,9.0734-.8903,14.2498-5.9602,16.5702-14.6661.7906-2.9662,1.2047-5.5231-.3739-8.235-1.5087-2.5918-2.9652-5.2167-4.3612-7.8709-2.0472-3.8923-1.6337-7.1357,1.3755-10.2641,2.9472-3.0639,5.9511-6.0766,9.0131-9.0255,3.0685-2.9552,6.0745-3.3285,9.9244-1.415.4473.2223.8777.4788,1.317.7175,10.6351,5.7778,10.7046,5.9369,21.9911,1.0062,2.2224-.9709,4.1917-3.4285,5.3585-5.6776,1.4091-2.7163,1.7833-5.9583,2.7062-8.9415,1.2547-4.0558,3.7649-6.0425,7.9471-6.1449,4.374-.1071,8.7533-.0755,13.129-.0144,3.9684.0554,6.602,2.0846,7.8251,5.8237.8928,2.7295,1.7204,5.4905,2.3774,8.2844.8485,3.6082,3.2061,5.4057,6.3732,7.2086,7.6855,4.3751,14.405,3.5172,21.488-1.4448,4.9849-3.4922,7.8915-2.6795,12.241,1.6458,2.6603,2.6455,5.4577,5.1765,7.8895,8.0192,1.3806,1.6139,2.1478,3.7529,3.3263,5.9016Zm-114.6185,50.4767c.3905,25.91,21.5095,46.398,47.4253,46.0083,25.3586-.3814,46.0295-21.7062,45.627-47.0707-.4112-25.9135-21.5305-46.3938-47.441-46.0055-25.36.3801-45.9941,21.673-45.6113,47.0679Z"/><path class="cls-1" d="m246.7317,50.7601h.0431c5.2974-.0222,10.5951-.0194,16.0708-.014l6.4151.0032v2.9897c.0014,1.9085,0,3.8171-.0014,5.7256-.0036,4.6146-.0068,9.3861.0323,14.0798.0269,3.2043,1.9423,5.2887,4.8799,5.3106h.0463c2.9419,0,4.9327-2.093,4.9582-5.2224.061-7.5017.1102-15.4865-.0183-23.3855-.0844-5.1567-4.1046-9.2723-9.1525-9.37-8.7982-.1694-17.4165-.0951-23.9426-.0104-1.6415.0215-3.1056.7272-4.0177,1.9369-.8902,1.1809-1.1659,2.7226-.7556,4.2298.673,2.4732,2.5037,3.727,5.4424,3.7266Z"/><g><g><path class="cls-2" d="m175.2729,140.9649c18.0986-7.2086,30.7632-25.0444,29.7339-42.1253-2.1043,0-4.2646.136-6.4023-.0265-5.5097-.4188-8.0111-5.1474-4.9006-9.6815,5.4436-7.9351,11.0761-15.7453,16.8054-23.4774,2.7216-3.673,7.0373-3.7286,9.7903-.0511,5.7672,7.7039,11.4186,15.5046,16.8304,23.4608,3.2328,4.7527.5515,9.5475-5.1639,9.7979-2.0399.0894-4.087.0143-5.6672.0143-1.6204,7.1381-2.5271,14.0149-4.7592,20.4305-7.0289,20.202-20.9431,33.8503-41.1025,40.9883-2.4798.878-3.6147,2.2078-4.4668,4.6151-5.8401,16.5003-21.688,23.9669-34.8158,22.0825-17.6259-2.5301-29.0578-15.0817-29.5899-31.2636-.5544-16.858,9.9611-30.5446,26.2811-34.2064,13.7565-3.0867,28.7187,3.7499,35.763,16.3457.5285.945,1.026,1.9074,1.6641,3.0968Zm-43.9257,12.918c-.0428,7.5054,6.0972,13.6091,13.6321,13.5514,6.7233-.0515,12.8084-6.1572,12.9474-12.9914.1527-7.5065-5.9054-13.6484-13.4875-13.6743-7.1168-.0243-13.0509,5.9199-13.0919,13.1143Z"/><path class="cls-2" d="m205.2245,162.8809c12.7292,12.4021,19.3045,27.7762,20.1316,46.2062,2.3956,0,4.5496-.1082,6.6893.0209,5.7165.3451,8.3037,5.1863,5.0759,9.8579-5.3898,7.8008-10.9243,15.5074-16.5996,23.1029-3.0023,4.0181-7.3556,3.896-10.3345-.1604-5.5336-7.5351-11.0602-15.0856-16.2365-22.8647-1.1142-1.6744-1.6586-4.8655-.7889-6.4196.9747-1.7416,3.7464-2.7596,5.9386-3.448,1.7289-.5429,3.7645-.1091,6.0663-.1091.3913-7.5512-1.5715-14.2898-5.1779-20.2415-3.5113-5.7948-8.1329-10.9167-12.3696-16.4685,5.3846-2.8983,11.3588-6.1138,17.6054-9.4761Z"/><path class="cls-2" d="m248.9321,164.0549c-7.3838,0-14.1158-.1263-20.8394.0575-3.0051.0821-5.1707-.5597-6.9192-3.2584-1.6214-2.5025-3.8886-4.5866-5.876-6.8602,2.1903-2.5783,4.1389-5.2816,6.5243-7.5191,1.3286-1.2462,3.3603-2.3579,5.1171-2.4247,7.1197-.2706,14.2557-.1124,22.0022-.1124,0-2.5022-.0808-4.6509.0159-6.7916.2431-5.3801,5.1835-8.0307,9.6418-4.9574,7.8018,5.3782,15.4896,10.9278,23.1055,16.5673,4.0823,3.0229,4.176,7.3589.1843,10.3203-7.7209,5.728-15.5312,11.3438-23.4569,16.784-4.4394,3.0472-9.2668.316-9.4863-5.1291-.0818-2.0298-.0132-4.0657-.0132-6.6762Z"/></g><g><path class="cls-1" d="m175.2729,140.9649c18.0986-7.2086,30.7632-25.0444,29.7339-42.1253-2.1043,0-4.2646.136-6.4023-.0265-5.5097-.4188-8.0111-5.1474-4.9006-9.6815,5.4436-7.9351,11.0761-15.7453,16.8054-23.4774,2.7216-3.673,7.0373-3.7286,9.7903-.0511,5.7672,7.7039,11.4186,15.5046,16.8304,23.4608,3.2328,4.7527.5515,9.5475-5.1639,9.7979-2.0399.0894-4.087.0143-5.6672.0143-1.6204,7.1381-2.5271,14.0149-4.7592,20.4305-7.0289,20.202-20.9431,33.8503-41.1025,40.9883-2.4798.878-3.6147,2.2078-4.4668,4.6151-5.8401,16.5003-21.688,23.9669-34.8158,22.0825-17.6259-2.5301-29.0578-15.0817-29.5899-31.2636-.5544-16.858,9.9611-30.5446,26.2811-34.2064,13.7565-3.0867,28.7187,3.7499,35.763,16.3457.5285.945,1.026,1.9074,1.6641,3.0968Zm-43.9257,12.918c-.0428,7.5054,6.0972,13.6091,13.6321,13.5514,6.7233-.0515,12.8084-6.1572,12.9474-12.9914.1527-7.5065-5.9054-13.6484-13.4875-13.6743-7.1168-.0243-13.0509,5.9199-13.0919,13.1143Z"/><path class="cls-1" d="m205.2245,162.8809c12.7292,12.4021,19.3045,27.7762,20.1316,46.2062,2.3956,0,4.5496-.1082,6.6893.0209,5.7165.3451,8.3037,5.1863,5.0759,9.8579-5.3898,7.8008-10.9243,15.5074-16.5996,23.1029-3.0023,4.0181-7.3556,3.896-10.3345-.1604-5.5336-7.5351-11.0602-15.0856-16.2365-22.8647-1.1142-1.6744-1.6586-4.8655-.7889-6.4196.9747-1.7416,3.7464-2.7596,5.9386-3.448,1.7289-.5429,3.7645-.1091,6.0663-.1091.3913-7.5512-1.5715-14.2898-5.1779-20.2415-3.5113-5.7948-8.1329-10.9167-12.3696-16.4685,5.3846-2.8983,11.3588-6.1138,17.6054-9.4761Z"/><path class="cls-1" d="m248.9321,164.0549c-7.3838,0-14.1158-.1263-20.8394.0575-3.0051.0821-5.1707-.5597-6.9192-3.2584-1.6214-2.5025-3.8886-4.5866-5.876-6.8602,2.1903-2.5783,4.1389-5.2816,6.5243-7.5191,1.3286-1.2462,3.3603-2.3579,5.1171-2.4247,7.1197-.2706,14.2557-.1124,22.0022-.1124,0-2.5022-.0808-4.6509.0159-6.7916.2431-5.3801,5.1835-8.0307,9.6418-4.9574,7.8018,5.3782,15.4896,10.9278,23.1055,16.5673,4.0823,3.0229,4.176,7.3589.1843,10.3203-7.7209,5.728-15.5312,11.3438-23.4569,16.784-4.4394,3.0472-9.2668.316-9.4863-5.1291-.0818-2.0298-.0132-4.0657-.0132-6.6762Z"/></g></g><path class="cls-1" d="m111.395.8972l16.0517,7.5463,15.2706-8.4435-2.1537,17.0234,13.2755,11.6225-17.3878,2.9754-7.06,15.6264-8.594-15.1817-17.6286-1.9747,12.0656-12.3426-3.8393-16.8515Z"/><path class="cls-1" d="m8.2374,79.3929l16.0523,7.5464,15.2591-8.4469-2.1391,17.016,13.2605,11.6294-17.3764,2.9788-7.06,15.6275-8.6059-15.1863-17.628-1.9734,12.0658-12.3437-3.8283-16.8478Z"/><path class="cls-1" d="m41.6339,22.1805l21.375,10.0424,20.2988-11.2311-2.8556,22.6413,17.6604,15.4717-23.1341,3.9536-9.3927,20.797-11.4492-20.2046-23.4485-2.6192,16.0514-16.4353-5.1056-22.4159Z"/></svg>