<?xml version="1.0" encoding="UTF-8"?><svg id="Layer_1" xmlns="http://www.w3.org/2000/svg" viewBox="0 0 294.6314 268.6246"><defs><style>.cls-1{fill:#4a9cd5;}</style></defs><g><path class="cls-1" d="m239.8682,9.1794h-118.9498c-3.6164,0-6.548,2.9316-6.548,6.548v13.9622l6.548-1.3658v-10.414c0-1.2055.9773-2.1824,2.1824-2.1824h114.5851c1.2056,0,2.1824.9769,2.1824,2.1824v66.5682c0,1.2055-.9768,2.1828-2.1824,2.1828h-114.5851c-1.205,0-2.1824-.9773-2.1824-2.1828v-27.54l-5.976,2.7498c-.1995.0918-.3788.2109-.572.3123v26.6608c0,3.6164,2.9316,6.5475,6.548,6.5475h30.6046l-16.3562,71.813c-.311,1.3658.7269,2.6673,2.1281,2.6673h3.1622c1.0186,0,1.9016-.7046,2.1281-1.6979l10.9224-47.9555h23.0663v34.6482c0,1.205.9769,2.1824,2.1824,2.1824h3.2742c1.2055,0,2.1824-.9773,2.1824-2.1824v-34.6482h23.0667l10.922,47.9555c.2264.9933,1.1096,1.6979,2.1282,1.6979h3.1621c1.4012,0,2.4391-1.3014,2.1281-2.6673l-16.3562-71.813h30.6046c3.6164,0,6.548-2.9312,6.548-6.5475V15.7274c0-3.6164-2.9316-6.548-6.548-6.548Zm-63.2944,103.1264h-21.7615l4.2389-18.6127c.0375-.1633.053-.3254.053-.4849h17.4695v19.0976Zm7.6389,0v-19.0976h17.4695c0,.1595.0156.3216.053.4849l4.2389,18.6127h-21.7615Z"/><path class="cls-1" d="m72.5176,40.6297l-9.2864-1.9572c-8.0135-1.6891-15.4471,4.6876-14.9963,12.8653l2.4033,43.6383c.2723,4.9422,4.7015,8.6016,9.6058,7.9365l1.0426-.1414c2.0502-.2782,3.8752,1.3157,3.8752,3.3849v51.9507c0,6.085,5.7146,10.5524,11.6198,9.0835l2.7409-.6819c1.0232-.2546,2.0936-.2546,3.1168,0l2.7535.6848c6.0144,1.4963,11.8986-2.8689,12.2116-9.0582l4.4653-88.2669c.3401-6.7264,4.3883-12.7074,10.507-15.5233l28.2774-13.013c2.6849-1.2353,3.9935-4.3071,3.0246-7.0994h0c-.9466-2.7274-3.7713-4.3281-6.5975-3.7385l-47.6373,9.9358c-5.6468,1.1899-11.4797,1.1899-17.1265,0Z"/><path class="cls-1" d="m99.1388,18.058c0,9.9728-8.0847,18.0575-18.058,18.0575s-18.0575-8.0847-18.0575-18.0575S71.108,0,81.0809,0s18.058,8.0847,18.058,18.058Z"/></g><circle class="cls-1" cx="49.1054" cy="196.3469" r="26.9802"/><circle class="cls-1" cx="245.526" cy="196.3469" r="26.9802"/><circle class="cls-1" cx="147.3157" cy="196.3469" r="26.9803"/><path class="cls-1" d="m272.1956,227.1477l-13.875,2.9244c-8.437,1.7779-17.1521,1.7779-25.5887,0l-13.875-2.9244c-11.6274-2.4505-22.4029,6.4714-22.4025,18.1775h-.0665c.0004-11.7061-10.7755-20.628-22.4029-18.1775l-13.8746,2.9244c-8.437,1.7779-17.1522,1.7779-25.5891,0l-13.8746-2.9244c-11.6274-2.4505-22.4033,6.4714-22.4029,18.1775h-.0665c.0004-11.7061-10.7751-20.628-22.4025-18.1775l-13.875,2.9244c-8.4365,1.7779-17.1517,1.7779-25.5887,0l-13.875-2.9244C10.462,224.6239-.6438,234.1515.0291,246.3698l1.2257,22.2548h292.1219l1.2257-22.2548c.6731-12.2184-10.4329-21.7459-22.4067-19.2222Z"/></svg>