<?xml version="1.0" encoding="UTF-8"?><svg id="Layer_5" xmlns="http://www.w3.org/2000/svg" viewBox="0 0 216.1418 237.5673"><defs><style>.cls-1{fill:#4a9cd5;}</style></defs><path class="cls-1" d="m148.5005,60.4002c-25.6111.8878-46.1008,21.9296-46.1008,47.7571,0,22.4398,15.4672,41.2671,36.322,46.4022l.2203.9027c1.8467,7.5721,3.7123,15.1396,5.5079,22.7237,1.1377,4.8053,2.1123,9.6498,3.1166,14.4857.2717,1.3081.4888,2.639.5088,4.1071-.5766.2172-1.0931.4484-1.6308.6086-5.0478,1.5033-10.1752,2.6722-15.3568,3.6047-5.7519,1.0351-11.5513,1.7131-17.3681,2.2475-1.6617.1527-3.3275.2874-4.9945.3526-6.606.2582-13.2102.6463-19.8266.3027-2.1796-.1132-4.3632-.1509-6.5447-.2302-.9548-.0347-1.9052-.1116-3.0361-.3798.2943-.3532.4377-.6299.6649-.7799,1.0169-.6715,2.0329-1.3511,3.0945-1.9471,3.3017-1.8539,6.6249-3.6693,9.9372-5.5041.6123-.3392,1.213-.6994,1.7635-1.0178.8368-8.1424-1.59-25.206-4.1314-31.9193-1.1579.1555-2.3558.2881-3.5439.4809-5.1364.8333-10.3049,1.3845-15.496,1.6966-2.6263.1579-5.2552.1537-7.8805-.2141-2.6315-.3686-4.6812-1.7088-6.3729-3.6376-1.1628-1.3257-1.6095-2.9213-1.1143-4.6686.3667-1.2936.7612-2.5848,1.2446-3.8379.3739-.969.3236-1.8641-.0357-2.8027-.2616-.683-.642-1.1973-1.2918-1.598-1.5409-.95-1.8502-2.1303-1.0131-3.756.9757-1.895,2.5697-3.1721,4.4004-4.1805.4982-.2745,1.0179-.5101,1.7135-.8559-.6454-.2471-1.1006-.4275-1.5601-.5962-1.8139-.6656-3.5663-1.4503-5.1314-2.6065-.9897-.7311-1.8783-1.56-2.5073-2.6304-.7153-1.2174-.6751-1.6752.198-2.7739.0399-.0502.0828-.0982.1268-.145,1.5309-1.6269,1.4428-2.9797-.3695-4.6069-.6645-.5966-1.444-1.0639-2.1612-1.6033-.8194-.6162-1.6932-1.179-2.4285-1.8847-1.9686-1.8894-2.3168-3.9056-.9734-6.2606.6922-1.2135,1.6105-2.3143,2.5272-3.3795,1.2554-1.4587,2.6439-2.8026,3.9045-4.2571,1.0072-1.1623,1.9593-2.3805,2.8456-3.6376,1.5216-2.1581,2.2765-4.5546,2.1885-7.2341-.1107-3.3676-.5777-6.6546-1.9774-9.742-.4552-1.004-.4758-1.994-.2872-3.0048.235-1.2594.5202-2.5149.8763-3.7453,1.0934-3.7781,2.6497-7.3667,4.6695-10.7391.6199-1.035.9014-2.078.8861-3.2696-.0304-2.3747-.0457-4.7542.3745-7.106.1691-.946.325-1.8993.578-2.8243.8099-2.9614,2.4804-5.3123,5.0334-7.052,3.0239-2.0606,6.3947-3.2316,9.9274-4.0227,3.2628-.7307,6.5827-1.0798,9.892-1.5012,3.6281-.4619,7.2525-.9556,10.8852-1.3779,2.9954-.3483,5.9944-.7164,9.0025-.8939,7.874-.4647,15.3076,1.1975,22.281,4.8917,6.4923,3.4393,12.4208,7.6387,17.6086,12.8126l.8348.8475Z"/><g><path class="cls-1" d="m171.9179,117.5049c.1608,3.246-.1428,6.4557-.663,9.6497-.1383.8492-.2667,1.7504-1.4288,1.6878-.8335-.0449-1.1476-.8215-.9656-2.0853,1.1189-7.7682,1.0479-15.5111-.8321-23.1553-1.8282-7.4333-8.4631-12.8799-16.0993-13.6479-10.6739-1.0735-20.5485,7.3067-20.445,18.9047.0164,1.8396.5489,3.6177.7709,5.4338.1157.9461.1559,1.909.1703,2.8616.0135.8901.0072,1.8081-.1399,2.6884-.1175.7033-.5041,1.2766-1.2882,1.2089-.5674-.049-.9427-.4023-1.0274-.9626-.0457-.3025-.0075-.6042.0149-.9068.0308-.4147.0451-.8306.046-1.2464.0036-1.7158-.2244-3.42-.455-5.1169-.1298-.9553-.2608-1.9108-.3524-2.8707-.4919-5.1575.9747-9.8051,4.0176-13.918,5.5378-7.485,15.02-10.497,23.7717-7.352,7.9175,2.8452,12.5012,8.6545,13.9294,16.9399.6781,3.9337,1.1799,7.8851.9759,11.8871Z"/><path class="cls-1" d="m181.0265,106.1818c.0053.7001-.1589,1.3087-.9894,1.3718-.837.0635-1.2377-.4619-1.3552-1.2152-.3689-2.3649-.7448-4.7379-1.5798-6.9848-4.0863-10.997-11.9231-17.5487-23.5552-19.1309-8.9571-1.2184-16.8009,1.6099-23.3183,7.829-4.0731,3.8866-6.7242,8.6669-7.9096,14.2129-.1576.7373-.3002,2.1193-1.2557,2.2551-.3739.0532-.8158-.0836-1.0739-.3644-.2577-.2803-.3096-.6778-.2804-1.0436.0531-.6653.246-1.3437.4047-1.9906.1509-.6148.3208-1.225.5095-1.8293.3768-1.2069.8284-2.3904,1.3512-3.5416,1.0276-2.2624,2.33-4.3987,3.8686-6.3497,1.5213-1.9292,3.2724-3.6766,5.2052-5.1934,1.9494-1.5299,4.083-2.8243,6.3421-3.843,2.2996-1.037,4.7275-1.7866,7.2116-2.2255.3145-.0556.6299-.1062.946-.1518,9.6147-1.3883,18.0657,1.2385,25.3211,7.6727,6.0164,5.3355,9.0566,12.1974,10.1228,20.0444.0214.1577.0236.318.0344.4781Z"/><path class="cls-1" d="m157.1171,117.4091c-.0224,4.6615-.6344,9.3198-1.9036,13.808-1.2453,4.4036-3.1174,8.6161-5.5048,12.5184-.6869,1.1228-1.4157,2.22-2.1816,3.2904-.5824.8139-1.5072,2.528-2.7105,1.6682-.9282-.6633-.4504-1.4744.079-2.1836,3.0022-4.0219,5.4089-8.3637,7.071-13.1087,2.9564-8.4404,3.5364-17.0473,1.7522-25.8029-.2886-1.4162-1.4279-2.5487-2.837-2.8552-1.4451-.3143-2.9182.3355-3.7819,1.5118-.5875.8002-.8604,1.778-.6653,2.7611,1.0518,5.2988,1.1462,10.6059.1172,15.9204-.0603.3114-.0841.6466-.2212.9229-.2261.4556-.5883.8706-1.1397.8457-.5254-.0237-.9982-.3459-1.094-.8785-.0544-.3024.0095-.6155.0481-.916.0502-.3905.106-.7803.1626-1.1699.1153-.7946.2341-1.589.3148-2.3881.3704-3.6658.3374-7.3186-.4111-10.9477-.9902-4.8009,2.3201-8.6589,6.8521-8.0138,1.9224.2737,3.6233,1.5338,4.5147,3.2489.526,1.0121.6753,2.141.8656,3.2521.2262,1.32.4164,2.6468.5411,3.9805.141,1.507.1978,3.0231.1325,4.5358Z"/><path class="cls-1" d="m150.453,72.698c.9043-.056,1.8147.0213,2.7145.1074.4525.0433.9063.0849,1.3577.1395.2945.0357.603.094.8603.25.5236.3173.5719,1.0449.2998,1.5523-.2955.5511-.9749.5753-1.5244.5162-8.4115-.9036-16.2048.8577-23.1309,5.7667-8.447,5.9869-13.1565,14.202-14.215,24.5339-.3465,3.3817.0647,6.6734.6103,9.9832.2636,1.5989.1962,3.2439-.2637,4.8011-.2216.7503-.5293,1.4738-.9064,2.1589-.201.3652-.4216.7195-.6586,1.0624-.2302.333-.4674.6994-.7525.9883-.5182.5249-1.1904.8947-1.8429.3501-.6341-.5291-.5017-1.2463-.0179-1.8287,1.1404-1.3729,1.9353-3.0173,2.1343-4.8018.1027-.9204.0355-1.8324-.1183-2.7427-.1817-1.0758-.3421-2.1556-.464-3.2399-.4548-4.0455-.2712-8.1383.6844-12.1014.5339-2.2142,1.2961-4.371,2.2553-6.4364,4.2661-9.1855,11.1693-15.5769,20.7271-19.0554,3.3265-1.2107,7.8657-2.007,12.2509-2.0038Z"/><path class="cls-1" d="m186.7848,117.2667c.0342,1.7367.02,3.475-.0745,5.2098-.046.8441-.111,1.6873-.1981,2.5281-.0753.7266-.1251,1.4824-.2969,2.1943-.1527.6327-.5434,1.0254-1.2198,1.0216-.8165-.0046-1.3051-.8423-1.0896-2.0386.5405-3.0008.5409-6.0444.5467-9.0589.0096-4.9413-.5083-9.8528-1.4569-14.7247-1.1072-5.6865-3.4503-10.7567-7.0979-15.2271-1.7454-2.1391-3.7596-4.0547-5.99-5.6823-2.2169-1.6177-4.6372-2.9459-7.1719-3.9945-.7459-.3086-1.5127-.5571-2.2622-.8536-.6235-.2466-1.0827-.7253-.8846-1.434.3514-1.2574,1.7099-.7251,2.5856-.4439,1.2804.4111,2.5207.9415,3.7156,1.5574,2.6357,1.3586,5.1409,2.978,7.4162,4.8821,2.1596,1.8074,4.1045,3.8692,5.7626,6.1463,1.6661,2.2881,3.0366,4.7845,4.1048,7.4046,1.1978,2.938,1.9745,6.0029,2.54,9.1198.7126,3.9274,1.118,7.9171,1.0982,11.9108-.0025.4944-.0114.9888-.0271,1.483Z"/><path class="cls-1" d="m150.0478,92.3609c.9322.0542,2.4211.0704,2.3524,1.3683-.055,1.0376-.8765,1.0874-1.6763,1.0666-7.4697-.1942-13.058,5.0234-14.1016,11.5944-.2656,1.6721-.146,3.3302.1706,4.9929,1.7507,9.196-.3814,17.4778-5.9723,24.9108-1.1258,1.4967-2.3768,2.8973-3.8257,4.1062-.3567.2976-.8221.6173-1.3128.5268-.4786-.0883-.9203-.5796-.9844-1.057-.0698-.5204.2928-.96.6492-1.29.4149-.3842.8247-.7733,1.2232-1.1744,1.5646-1.575,2.9769-3.3051,4.1393-5.1989,2.3669-3.8562,3.8509-8.2916,4.1807-12.8079.1887-2.5841.0038-5.1868-.4893-7.7287-1.7467-9.004,3.902-17.2673,12.9059-18.9697.9372-.1772,1.8965-.2375,2.7412-.3395Z"/><path class="cls-1" d="m167.1079,116.5587c-.1448,11.4549-2.7118,21.5404-8.0933,30.8734-.194.3365-.4274.7065-.7784.8981-.3906.2132-.8329.0998-1.1909-.1281-.7588-.4829-.5085-1.2993-.1371-1.9544,2.3359-4.1204,4.2075-8.4896,5.4973-13.0492,1.3085-4.6259,2.0968-9.4011,2.2422-14.209.0828-2.737-.0413-5.4796-.3714-8.1979-.1974-1.6254-.4574-3.2337-.7593-4.8402-.6989-3.7189-2.6253-6.6265-5.7288-8.7692-.779-.5379-2.1313-1.1856-1.3708-2.3133.2492-.3695.6211-.5987,1.0747-.5335.4633.0666.8657.3643,1.2476.6133.9258.6034,1.8172,1.2679,2.6005,2.0502,1.7959,1.7937,3.1694,3.9725,3.9868,6.3769.4565,1.3426.7224,2.7401.9472,4.1376.2355,1.4642.4031,2.9387.5305,4.4161.1329,1.5409.22,3.0852.3032,4.6295Z"/><path class="cls-1" d="m149.8293,67.6688c6.3195.0844,12.0394,1.3346,17.4761,3.8509.5871.2717,1.3936.6882,1.3336,1.4549-.0516.6601-.6313,1.2064-1.2989,1.1015-.3684-.0579-.6996-.2683-1.0304-.4277-.3853-.1857-.7741-.3641-1.1661-.535-.7955-.3467-1.6046-.6623-2.4253-.9442-.9322-.3202-1.8793-.597-2.8377-.8273-12.797-3.0748-24.3303-.5218-34.5416,7.8369-2.2033,1.8036-4.1192,3.8778-5.8399,6.1383-.4162.5467-.9649,1.272-1.7351.8856-.343-.1721-.6756-.4786-.7392-.8732-.054-.3353.0898-.6682.2568-.9506.4264-.7211,1.0164-1.374,1.5511-2.016.561-.6738,1.1426-1.3305,1.7446-1.9679,2.3777-2.5175,5.0747-4.7278,8.0198-6.5502,1.6906-1.0461,3.4594-1.9646,5.2838-2.7544,5.1856-2.2448,10.6377-3.3094,15.9485-3.4216Z"/><path class="cls-1" d="m176.9668,117.5888c-.0809,8.3268-1.4967,16.4097-4.4041,24.2245-.3224.8667-.758,1.6227-1.8036,1.2131-.9823-.3848-.8083-1.246-.5082-2.042,1.9473-5.1661,3.2651-10.5659,3.8775-16.0538.6084-5.4516.5297-11.0114-.1032-16.4585-.3568-3.0711-.9891-6.1235-2.137-9.0026-.5345-1.3407-1.233-2.6102-2.019-3.8189-.318-.489-.7836-1.0066-.8658-1.6051-.0809-.589.4248-1.0949.9737-1.2213.6497-.1496,1.1431.4156,1.4735.894,2.4736,3.5811,3.8628,7.5713,4.5155,11.8514.6076,3.9846,1.0132,7.9826,1.0008,12.0192Z"/><path class="cls-1" d="m118.8263,133.8306c-.7011-.0148-1.3422-.6195-1.1064-1.3618.117-.3685.4535-.6479.7175-.9145.3108-.3139.633-.6164.9463-.9277,2.1545-2.1409,3.8729-4.7187,4.8012-7.6235.9219-2.8847,1.0298-5.9597.5645-8.9393-.244-1.5623-.4619-3.1148-.5185-4.6975-.0528-1.4744.006-2.9535.1926-4.4173.3618-2.8388,1.2152-5.6022,2.5294-8.1449,1.3822-2.6744,3.2473-5.0754,5.3913-7.1814.2934-.2882.5845-.602.9124-.851.3153-.2395.6393-.5222,1.0252-.6396.4253-.1294.7944.0561,1.0708.3827.2795.3302.4349.7438.2432,1.1562-.175.3764-.5244.6507-.8303.9168-3.9491,3.4353-6.5247,7.7032-7.6571,12.802-.8253,3.7161-.3827,7.4239.111,11.1631.9926,7.5169-1.5577,13.7799-7.2048,18.8053-.3392.3018-.7182.5006-1.1883.4725Z"/><path class="cls-1" d="m149.8194,117.4891c.0981-2.9498-.3264-5.5894-.7419-8.2282-.0609-.3867-.1266-.8122-.0094-1.1948.1259-.4111.4812-.6203.8891-.6869.9923-.162,1.3178.6893,1.4713,1.502,1.8533,9.8085.544,19.2009-3.7346,28.1955-1.6518,3.4725-3.6918,6.7011-6.1806,9.6394-.1803.2128-.3516.4344-.545.6347-.4871.5046-1.055.7947-1.6904.3094-.3728-.2848-.5824-.7108-.4794-1.1803.1163-.5303.5492-.9785.8678-1.3985.746-.9834,1.5254-1.9418,2.2395-2.9492,4.4107-6.222,6.9335-13.1526,7.7058-20.7302.0727-.7134.1641-1.4263.2004-2.1418.0343-.6764.0074-1.3559.0074-1.7711Z"/><path class="cls-1" d="m190.857,107.0661c0,.6995.0517,1.4202-.0147,2.1173-.0497.522-.2761,1.0286-.8236,1.1708-1.5828.4109-1.5616-1.7354-1.5898-2.7239-.3483-12.1985-5.4243-22.0115-14.9251-29.5932-.7147-.5703-2.4776-1.5192-1.5202-2.6088.3588-.4083.857-.5638,1.3677-.3514.2831.1178.532.318.7811.4934.2782.1959.5536.3957.8262.5994,1.0533.7871,2.063,1.633,3.0166,2.5385,7.0202,6.6667,11.1816,14.8214,12.5608,24.389.198,1.3734.3915,2.7644.3211,3.9688Z"/><path class="cls-1" d="m162.1072,115.6819c0,.9831.1874,2.66-1.2534,2.6268-.831-.0191-1.1491-.6288-1.1592-1.3948-.0215-1.6348-.0756-3.2651-.2575-4.8935-.1434-1.2837-.2827-2.5691-.5016-3.8427-.18-1.0472-.402-2.0871-.816-3.0696-.6892-1.6361-1.8368-3.0753-3.3393-4.0333-2.8925-1.8442-7.0056-1.7005-9.7845.3082-1.5966,1.1541-2.6712,2.871-3.2718,4.7275-.1096.3389-.236.6815-.4155.9865-.2519.4284-.6648.5344-1.1428.4332-.4889-.1035-.7663-.4035-.8401-.8886-.0737-.4839.0258-.9518.1572-1.4156,1.3243-4.6762,5.8858-7.9467,10.9569-7.8544,4.8269.0879,9.3284,3.6257,10.4014,8.241.7692,3.3088,1.0871,6.682,1.2662,10.0692Z"/><path class="cls-1" d="m142.2944,117.4156c-.1513,9.8591-3.6521,18.3258-10.5998,25.3476-.6501.657-1.4009,1.6543-2.3903.6506-1.0041-1.0185.0596-1.7049.7031-2.3655,7.5356-7.7352,10.6938-16.9943,9.6562-27.7128-.0846-.8737-.0375-1.6872,1.0291-1.8005.9893-.1051,1.2247.6159,1.3448,1.456.2098,1.4675.2348,2.9383.2568,4.4245Z"/><path class="cls-1" d="m109.3595,109.1341c.0078-6.8356,1.3211-12.6532,3.9622-18.1698.371-.7749.907-2.0613,1.9936-1.5415.656.3138.805.9458.5479,1.5928-.3387.8522-.7591,1.6755-1.1096,2.5241-.6963,1.6862-1.3047,3.4105-1.7735,5.1743-.2696,1.0144-.4929,2.0413-.6614,3.0774-.8075,4.9658-.7381,9.9146.3051,14.8466.1897.8967.657,1.9686-.6732,2.4234-.8415.2877-1.3406-.3077-1.6846-1.9872-.5848-2.8554-.9647-5.7353-.9066-7.94Z"/><path class="cls-1" d="m149.8286,82.5059c6.1548.1415,11.2957,1.8296,15.8398,5.2415.7035.5282,1.7399,1.1359.9932,2.2022-.7905,1.1289-1.5998.2285-2.3266-.2859-7.3048-5.1699-15.1206-6.1498-23.4587-2.8712-.4007.1576-.8478.357-1.2892.3012-.4171-.0527-.6897-.3604-.8346-.738-.2491-.6493.0849-1.1558.6594-1.4592.7321-.3867,1.5293-.6839,2.3092-.9581,1.6236-.5708,3.3102-.9564,5.0191-1.1586,1.1837-.14,2.3701-.3441,3.0883-.2739Z"/><path class="cls-1" d="m161.7348,123.651c-.593,5.2794-1.9147,10.3105-3.9491,15.1552-1.2995,3.0947-2.8532,6.0555-4.6983,8.861-.5235.796-1.3189,2.0183-2.4001,1.2719-.6437-.4445-.5999-1.0694-.2276-1.6914.9206-1.5381,1.8927-3.0476,2.7601-4.6151,3.1015-5.6047,5.0527-11.5981,5.9555-17.9367.0776-.5448.1226-1.1384.3236-1.6548.1329-.3415.3832-.633.7533-.7132.8498-.1842,1.5546.4892,1.4826,1.3231Z"/><path class="cls-1" d="m181.9597,117.0431c-.1499,6.5874-.7465,12.7151-2.3412,18.7158-.0511.1924-.095.3874-.1591.5755-.2513.7376-.7114,1.4141-1.5872,1.1488-.831-.2517-.9598-1.0526-.7649-1.803.9627-3.705,1.7214-7.4483,2.0362-11.2682.2974-3.6092.5955-7.2213.223-10.845-.0702-.6832.028-1.5695.7204-1.9199.5401-.2734,1.2433.0331,1.4925.5605.1559.33.1491.7051.1713,1.0615.0272.4348.0525.8697.0767,1.3047.0458.823.087,1.6463.1323,2.4693Z"/><path class="cls-1" d="m122.5664,118.1324c-.1884,3.8044-1.8419,7.8175-5.2841,11.0329-.5873.5486-1.3354.9523-2.0005.2783-.2783-.282-.4687-.6532-.359-1.0536.1055-.385.4124-.6952.6919-.9641,3.8456-3.699,5.1715-8.1672,4.1359-13.3864-.2549-1.2847-.389-2.5973-.5094-3.9034-.0761-.8256.1994-1.6018,1.1578-1.6313.9606-.0296,1.2518.7278,1.2571,1.5591.0157,2.4428.9674,4.7637.9103,8.0686Z"/><path class="cls-1" d="m144.5064,131.8582c-.4122,1.3798-1.037,2.7545-1.7465,4.0914-1.8371,3.4615-3.9971,6.6924-6.7657,9.4933-.6293.6366-1.2738,1.0629-2.033.2919-.7078-.7188-.3042-1.3629.2699-1.9652,3.3609-3.5257,5.9627-7.5439,7.7965-12.0582.1598-.3934.3167-.8261.6809-1.0783.3146-.2178.7-.2142,1.0465-.0754.5351.2143.8053.6246.7514,1.3006Z"/><path class="cls-1" d="m130.7156,126.4447c-.4465,1.2844-1.0136,2.6454-1.7866,3.9006-1.5313,2.4866-3.3192,4.7644-5.5707,6.6578-.2902.244-.6155.5015-.9935.587-.4084.0923-.7688-.0902-1.0488-.3809-.2751-.2856-.4617-.6558-.3338-1.0544.1178-.3674.4236-.6557.7035-.9054,2.7161-2.4244,4.9938-5.3396,6.4186-8.7061.1657-.3917.2879-.8291.5908-1.1424.2897-.2997.6872-.3926,1.0896-.3055.6158.1333.922.5847.931,1.3494Z"/><path class="cls-1" d="m169.7814,134.2677c-.3201,1.09-.6556,2.4417-1.1145,3.7501-.8415,2.3994-1.7359,4.7814-2.8521,7.0719-.087.1785-.1461.3722-.2465.5421-.4057.6866-1.0176,1.2353-1.8297.7912-.7404-.4049-.6868-1.1672-.3713-1.8452.9027-1.9399,1.7402-3.8965,2.4641-5.9111.4106-1.1427.7932-2.2953,1.1548-3.4543.1768-.5666.2943-1.1586.5378-1.7025.1739-.3885.4832-.6943.9179-.754.3607-.0495.7967.0481,1.0351.3406.2582.3168.2866.781.3043,1.1712Z"/></g><path class="cls-1" d="m214.1021,179.7292h-8.1607c-1.128,0-2.0397.9122-2.0397,2.0402v17.9839c0,4.4228-3.7388,8.1602-8.1607,8.1602h-18.3222c-1.127,0-2.0397.9141-2.0397,2.0402v8.1602c0,1.1261.9126,2.0402,2.0397,2.0402h18.3222c11.2202,0,20.4008-9.1805,20.4008-20.4008v-17.9839c0-1.128-.9126-2.0402-2.0397-2.0402Z"/><path class="cls-1" d="m51.1825,16.1465h-18.6476c-11.2202,0-20.4008,9.1803-20.4008,20.4008v18.9839c0,1.1278.9117,2.0402,2.0402,2.0402h8.1602c1.1252,0,2.0402-.9124,2.0402-2.0402v-18.9839c0-4.4228,3.7355-8.1602,8.1602-8.1602h18.6476c1.127,0,2.0402-.9148,2.0402-2.0402v-8.1602c0-1.1261-.9131-2.0402-2.0402-2.0402Z"/><path class="cls-1" d="m195.741,16.1465h-18.3222c-1.127,0-2.0397.9141-2.0397,2.0402v8.1602c0,1.1254.9126,2.0402,2.0397,2.0402h18.3222c4.4219,0,8.1607,3.7374,8.1607,8.1602v18.9839c0,1.1278.9117,2.0402,2.0397,2.0402h8.1607c1.127,0,2.0397-.9124,2.0397-2.0402v-18.9839c0-11.2205-9.1805-20.4008-20.4008-20.4008Z"/><path class="cls-1" d="m51.1825,207.9135h-18.6476c-4.4247,0-8.1602-3.7374-8.1602-8.1602v-17.9839c0-1.128-.915-2.0402-2.0402-2.0402h-8.1602c-1.1285,0-2.0402.9122-2.0402,2.0402v17.9839c0,11.2202,9.1805,20.4008,20.4008,20.4008h18.6476c1.127,0,2.0402-.9141,2.0402-2.0402v-8.1602c0-1.1261-.9131-2.0402-2.0402-2.0402Z"/></svg>