<?xml version="1.0" encoding="UTF-8"?><svg id="Layer_1" xmlns="http://www.w3.org/2000/svg" xmlns:xlink="http://www.w3.org/1999/xlink" viewBox="0 0 256.298 234.8979"><defs><style>.cls-1,.cls-2{fill:none;}.cls-3{clip-path:url(#clippath);}.cls-4,.cls-5{fill:#4a9cd5;}.cls-5{fill-rule:evenodd;}.cls-2{stroke:#fff;stroke-width:14px;}</style><clipPath id="clippath"><rect class="cls-1" x="12.5873" y="41.715" width="120.3647" height="143.1522"/></clipPath></defs><path class="cls-4" d="m253.9495,188.352h-9.3964c-1.2988,0-2.3485,1.0503-2.3485,2.3491v20.707c0,5.0925-4.305,9.3958-9.3964,9.3958h-21.0965c-1.2977,0-2.3485,1.0525-2.3485,2.3491v9.3958c0,1.2966,1.0508,2.3491,2.3485,2.3491h21.0965c12.9192,0,23.4898-10.5706,23.4898-23.4898v-20.707c0-1.2988-1.0508-2.3491-2.3485-2.3491Z"/><path class="cls-4" d="m232.8082,0h-21.0965c-1.2977,0-2.3485,1.0525-2.3485,2.3491v9.3958c0,1.2958,1.0508,2.3491,2.3485,2.3491h21.0965c5.0914,0,9.3964,4.3033,9.3964,9.3958v21.8584c0,1.2985,1.0497,2.3491,2.3485,2.3491h9.3964c1.2977,0,2.3485-1.0506,2.3485-2.3491v-21.8584c0-12.9194-10.5706-23.4898-23.4898-23.4898Z"/><path class="cls-4" d="m2.3485,46.5459h9.3964c1.2988,0,2.3485-1.0503,2.3485-2.3491v-20.707c0-5.0925,4.305-9.3958,9.3964-9.3958h21.0965c1.2977,0,2.3485-1.0525,2.3485-2.3491V2.3491c0-1.2966-1.0508-2.3491-2.3485-2.3491h-21.0965C10.5706,0,0,10.5706,0,23.4898v20.707c0,1.2988,1.0508,2.3491,2.3485,2.3491Z"/><path class="cls-4" d="m23.4898,234.8979h21.0965c1.2977,0,2.3485-1.0525,2.3485-2.3491v-9.3958c0-1.2958-1.0508-2.3491-2.3485-2.3491h-21.0965c-5.0914,0-9.3964-4.3033-9.3964-9.3958v-21.8584c0-1.2985-1.0497-2.3491-2.3485-2.3491H2.3485c-1.2977,0-2.3485,1.0506-2.3485,2.3491v21.8584c0,12.9194,10.5706,23.4898,23.4898,23.4898Z"/><g class="cls-3"><path class="cls-4" d="m105.0211,147.904c.2119,1.9962.7194,4.0851,1.2235,6.1703,2.2609,9.351,4.5853,18.6868,6.8018,28.0483,1.1225,4.7409,2.084,9.5206,3.0749,14.2917.268,1.2906.4823,2.6037.502,4.0521-.5688.2143-1.0784.4424-1.6089.6004-4.9801,1.4832-10.0389,2.6364-15.1511,3.5565-5.6749,1.0213-11.3966,1.6902-17.1355,2.2174-1.6395.1506-3.283.2836-4.9276.3478-6.5176.2548-13.0333.6376-19.5611.2986-2.1504-.1117-4.3047-.1489-6.457-.2271-.942-.0342-1.8797-.1101-2.9955-.3747.2903-.3484.4318-.6215.656-.7695,1.0033-.6625,2.0057-1.333,3.0531-1.921,3.2574-1.829,6.5361-3.6201,9.8041-5.4304.6041-.3346,1.1967-.69,1.7399-1.0042.8256-8.0333-1.5687-24.8684-4.0761-31.4917-1.1424.1535-2.3242.2843-3.4964.4745-5.0676.8222-10.1669,1.3659-15.2885,1.6739-2.5912.1558-5.1848.1516-7.775-.2112-2.5962-.3637-4.6185-1.6859-6.2876-3.5888-1.1472-1.3079-1.588-2.8821-1.0993-4.6061.3617-1.2762.751-2.5501,1.228-3.7865.3688-.956.3193-1.8392-.0353-2.7651-.2581-.6738-.6334-1.1813-1.2745-1.5766-1.5202-.9373-1.8254-2.1018-.9996-3.7057.9627-1.8696,2.5353-3.1296,4.3414-4.1245.4916-.2708,1.0042-.5033,1.6905-.8445-.6368-.2438-1.0859-.4218-1.5392-.5882-1.7896-.6567-3.5185-1.4309-5.0627-2.5716-.9765-.7213-1.8531-1.5391-2.4737-2.5952-.7057-1.2011-.6661-1.6528.1953-2.7368.0394-.0495.0817-.0969.1251-.143,1.5104-1.6051,1.4235-2.9398-.3645-4.5452-.6556-.5886-1.4247-1.0497-2.1322-1.5818-.8085-.608-1.6705-1.1632-2.396-1.8595-1.9423-1.8641-2.2858-3.8533-.9604-6.1768.6829-1.1973,1.5889-2.2833,2.4934-3.3342,1.2385-1.4392,2.6085-2.765,3.8522-4.2001.9937-1.1467,1.933-2.3486,2.8074-3.5888,1.5012-2.1292,2.246-4.4936,2.1591-7.1372-.1092-3.3225-.57-6.5655-1.9509-9.6115-.4491-.9906-.4695-1.9673-.2834-2.9646.2318-1.2426.5132-2.4812.8645-3.6951,1.0787-3.7275,2.6142-7.268,4.607-10.5952.6116-1.0211.8893-2.0502.8743-3.2258-.03-2.3429-.0451-4.6905.3695-7.0108.1668-.9333.3206-1.8738.5702-2.7865.799-2.9218,2.4472-5.2412,4.9659-6.9576,2.9834-2.033,6.309-3.1883,9.7945-3.9689,3.2191-.7209,6.4945-1.0654,9.7595-1.4811,3.5795-.4557,7.1554-.9428,10.7394-1.3595,2.9552-.3436,5.9141-.7068,8.8819-.8819,7.7685-.4584,15.1026,1.1815,21.9825,4.8262,6.9939,3.7051,13.3246,8.3041,18.765,14.0725,3.5497,3.7637,6.4499,7.9716,8.3526,12.8161,1.9538,4.9746,2.7135,10.1212,2.2563,15.4557-.3574,4.17-.9675,8.3028-1.8235,12.3935-1.1628,5.5572-3.2318,10.7991-6.0093,15.7329-2.7019,4.7996-5.5626,9.5102-8.3825,14.2427-1.6855,2.8285-3.4056,5.6371-5.156,8.4258-.4952.7889-1.152,1.4762-1.8278,2.3274Z"/></g><g><g><path class="cls-2" d="m131.7854,114.5427l-12.8708,2.35c-.705-4.6531-.8095-9.431-.2651-14.228l.0204-.1837.0268-.2215.0228-.1955.0268-.2105.0278-.2047c.7875-5.9978,2.5822-11.9321,5.437-17.5416l.0192-.0382.1753-.3395.0212-.0393c2.9273-5.6665,6.7611-10.6433,11.2518-14.8174l.1808-.168.0917-.0848.0888-.0818.1819-.1658.0312-.0268c.8435-.7611,1.7012-1.4958,2.5804-2.1956l-2.1968-2.5866-8.4649-9.9663c4.3938-3.5497,9.1878-6.553,14.2642-8.9589,13.5282-6.4068,29.0721-8.5595,44.4548-5.4266l.0186.0028.5026.1039.0488.0098.0414.0096c8.3171,1.7492,16.0505,4.9352,22.9639,9.2656l.2285.143.018.01.684.439c7.9444,5.1355,14.6352,11.7263,19.8359,19.2765l.1478.2171.1497.2175.1042.1526.0433.066.1474.2187.1467.2201.1218.1841.0234.0356.1445.2211.1431.2208.1404.2179.0026.0026c1.3305,2.0735,2.561,4.2192,3.6716,6.4233l-.0088.004c.2531.5036.5006,1.0124.7413,1.5204l-11.8112,5.5947c-.9551-2.017-2.0261-3.9779-3.2098-5.876l-.026-.0436-.2245-.3562-.1078-.1683-.0054-.0092-.1141-.1761-.1137-.176-.1156-.1765-.016-.0256-.0995-.1507-.1162-.1749-.1181-.1739-.0386-.059-.0792-.1167-.1184-.1738-.1189-.1725-.1188-.1724-.1203-.1727-.1203-.1727c-1.0105-1.4342-2.087-2.8236-3.2164-4.1521-3.4677-4.0832-7.5017-7.6884-11.9898-10.6877l-.4445-.2961-.1189-.0766-.4636-.2971c-3.1221-1.9862-6.4772-3.6932-10.0457-5.0867l.0048-.0128c-1.0516-.4098-2.1186-.7909-3.2002-1.1412l-.0041.011c-1.6146-.5242-3.234-.9745-4.86-1.3513l-.0204-.0036-.4186-.0958-.2563-.0554-.2325-.0506-.2333-.0488c-1.7867-.3712-3.6041-.6613-5.4542-.8657l.001-.0124c-9.2374-1.0314-18.4189.2061-26.831,3.3855l1.1986,3.1789,4.6151,12.2312c-1.053.3979-2.0886.8377-3.1071,1.32-2.7506,1.3033-5.3614,2.9105-7.7743,4.7926l-.005-.0056c-.8859.6921-1.7456,1.4221-2.58,2.1938l.0006.0022-.0578.0514-.1431.1328-.0224.0228-.2211.2099-.037.0334-.1401.1342-.0437.0418-.0964.0936-.1222.1188-.0168.0176-.1391.1361-.0608.0594-.0763.0774-.1375.1383-.0022.0012-.1357.1375c-1.6348,1.6726-3.1548,3.4999-4.5324,5.4934-.8518,1.2328-1.6286,2.4943-2.3299,3.7806l-.0286.0546-.1211.2237-.0292.0565-.1175.223-.0296.058-.1163.2237-.0296.058-.1141.2241-.0298.058-.1114.2255-.0298.058-.11.2277c-.6485,1.3359-1.2288,2.7232-1.739,4.1518-.8011,2.243-1.399,4.5079-1.7981,6.7769l-.0018.0158-.0498.2853-.003.0238-.047.2777-.0044.0326-.0418.2681-.0062.043-.0382.2587-.0078.0512-.0352.2509-.0088.0602-.0318.2411-.0104.0686-.0274.2336-.0016-.0006c-.4541,3.6405-.4041,7.2786.0965,10.816Z"/><path class="cls-2" d="m197.9312,141.7273l8.35,10.0735c-3.7127,2.8925-7.8277,5.323-12.2773,7.1965l-.1705.0719-.2061.085-.1815.076-.1967.08-.1922.0756c-5.616,2.2496-11.6691,3.5895-17.9586,3.8462l-.043.0022-.3819.0132-.0446.0008c-6.3746.2211-12.5913-.6859-18.4296-2.5584l-.2351-.0756-.1185-.0384-.1148-.0371-.2337-.0774-.0388-.0142c-1.0766-.3632-2.137-.7513-3.1776-1.1756l-1.1804,3.1819-4.5467,12.2609c-5.2469-2.094-10.2126-4.8042-14.7961-8.0534-12.2091-8.6607-21.6958-21.1618-26.4946-36.1097l-.0062-.018-.1559-.4886-.0146-.0476-.012-.0411c-2.5464-8.1087-3.5539-16.4122-3.1618-24.5608l.0128-.2697-.0004-.0206.0484-.8113c.5891-9.4416,3.061-18.5026,7.0994-26.7342l.1166-.2351.1167-.2369.0822-.1658.0362-.0697.1185-.2359.12-.2358.1012-.1963.0195-.0378.1222-.2343.122-.2329.1215-.2293.001-.0036c1.1569-2.175,2.4257-4.2984,3.804-6.3459l.0078.0058c.3155-.4673.6378-.9324.9628-1.3909l10.6609,7.5608c-1.2911,1.8207-2.477,3.7145-3.5528,5.6761l-.0252.0436-.2007.3705-.0942.1761-.0052.0094-.0976.1857-.098.1856-.0972.1871-.0144.0264-.0832.1606-.0958.1871-.0936.1881-.0326.0624-.0628.1262-.0938.1881-.0921.1883-.092.1878-.0921.19-.0916.1897c-.7561,1.5827-1.4404,3.2021-2.0464,4.8369-1.8629,5.0233-3.0323,10.3058-3.4504,15.6878l-.0404.5326-.0088.1412-.0323.5499c-.2035,3.6951-.0494,7.4565.482,11.2503l-.0132.0022c.1573,1.1172.3473,2.2344.5714,3.3492l.0118-.0018c.3331,1.6648.7332,3.2974,1.2005,4.9l.007.0194.1218.4119.077.2505.0697.2275.0714.2274c.551,1.7401,1.1877,3.4669,1.9151,5.1803l-.011.0052c3.6221,8.5602,9.1962,15.961,16.0869,21.7402l2.1854-2.6017,8.4069-10.0121c.8623.7237,1.7532,1.4115,2.672,2.0632,2.4833,1.761,5.1631,3.2506,7.9851,4.4335l-.0022.0072c1.037.4336,2.0948.8257,3.1762,1.176l.0014-.0018.0734.0254.1859.0598.0304.0084.2913.0902.0477.0158.1852.0565.058.0176.1291.0384.1632.0481.0236.0062.1866.0542.0818.0242.1046.0287.1883.0524.0022.0014.1859.051c2.259.6067,4.5966,1.0376,7.0098,1.2633,1.4917.139,2.9721.1991,4.437.1808l.0617-.0018.2545-.0036.0634-.0022.2521-.0066.0652-.0026.2517-.0084.0652-.0026.2517-.01.065-.0026.2508-.0132.0653-.0025.2523-.0154c1.4826-.0885,2.9765-.2616,4.472-.5162,2.3479-.3994,4.6157-.9867,6.7901-1.7496l.0144-.0058.2733-.0965.0226-.0092.2645-.095.0308-.0122.2545-.095.0404-.0154.2443-.0932.0484-.0186.2363-.0917.0564-.0216.2261-.0903.0644-.0248.2175-.0903v.0016c3.3969-1.3858,6.5452-3.2106,9.3849-5.379Z"/><path class="cls-2" d="m187.1452,69.8976l4.0201-12.4508c4.4326,1.5808,8.6916,3.7494,12.6599,6.4988l.1522.1049.1823.1284.1614.1126.1731.1233.1669.1214c4.9114,3.5319,9.2902,7.9205,12.8811,13.0898l.0246.0352.2164.3151.0246.0374c3.6067,5.2602,6.1769,10.9925,7.7295,16.9236l.0622.2387.0312.1207.0301.117.0602.2389.0088.0402c.2713,1.1034.5128,2.2063.713,3.3122l3.3181-.7116,12.7853-2.7414c1.0486,5.5507,1.4257,11.1949,1.1432,16.8058-.757,14.9491-6.2157,29.6615-16.2541,41.7309l-.0114.015-.3291.3936-.0322.0378-.0279.0322c-5.4762,6.4996-11.9424,11.8049-19.0285,15.8463l-.2345.1338-.0172.011-.7105.3947c-8.2832,4.5689-17.2551,7.3447-26.3677,8.3537l-.2611.0276-.2623.029-.1837.0194-.0785.007-.2625.0264-.2633.025-.2201.0202-.0422.004-.2635.0228-.2618.0216-.2587.0206-.0036.001c-2.4561.1907-4.9286.2597-7.3957.1947l.0004-.0094c-.5634-.0151-1.1287-.0378-1.6902-.0661l.6598-13.0523c2.229.1126,4.4635.0968,6.6959-.0477l.0506-.0022.4199-.0294.1993-.015.011-.0008.2087-.0172.209-.0168.2103-.0184.03-.0022.1801-.0162.2091-.0194.209-.022.0701-.0058.1404-.0148.2091-.0216.2079-.0234.2081-.0232.2094-.0242.2095-.0242c1.7412-.2117,3.4746-.5028,5.1795-.8689,5.2381-1.1232,10.323-2.9707,15.0888-5.5056l.4709-.2517.1237-.0682.4816-.2681c3.227-1.8105,6.3183-3.9585,9.2344-6.4428l.0091.0102c.8584-.7324,1.6991-1.4921,2.5196-2.2792l-.0082-.0088c1.2262-1.1745,2.3889-2.3881,3.4905-3.6423l.0128-.0162.2821-.3239.1702-.1995.1548-.1808.1533-.1823c1.1727-1.3987,2.2881-2.8625,3.3434-4.3954l.0106.0066c5.2796-7.6494,8.5339-16.3238,9.7134-25.2391l-3.3678-.4482-12.9592-1.722c.1478-1.1158.2501-2.2364.3069-3.3617.1537-3.0399-.0268-6.1005-.5432-9.1163l.0074-.0022c-.1903-1.1078-.427-2.2107-.7116-3.311h-.0026l-.018-.0756-.0492-.1889-.0096-.0305-.08-.2941-.012-.0484-.0518-.1867-.0164-.0586-.0367-.1295-.047-.1632-.0072-.0236-.0543-.1867-.0234-.0818-.032-.1038-.0568-.1867v-.0026l-.0569-.1845c-.7002-2.2316-1.5904-4.4356-2.6948-6.5924-.6833-1.3336-1.4269-2.6149-2.2282-3.8414l-.0349-.051-.1394-.2127-.036-.0521-.1408-.2094-.037-.0536-.1423-.2079-.037-.0536-.1435-.2069-.037-.0536-.146-.2046-.0371-.0536-.1482-.2047c-.8701-1.2034-1.8178-2.3713-2.835-3.4967-1.597-1.7672-3.3092-3.3654-5.1193-4.7907l-.0128-.0092-.2281-.1786-.0195-.0144-.2222-.1724-.0268-.0194-.2169-.1637-.0344-.026-.2098-.1559-.0419-.0312-.2042-.1496-.0485-.0364-.1973-.1423-.0558-.041-.1929-.135.0016-.0012c-2.9923-2.1226-6.2209-3.8-9.5745-5.0328Z"/><path class="cls-2" d="m147.3993,108.8196c0-14.0332,11.4456-25.4787,25.4787-25.4787s25.4787,11.4455,25.4787,25.4787-11.4456,25.4787-25.4787,25.4787-25.4787-11.4456-25.4787-25.4787Zm34.1442-1.2463c4.0843,0,7.4153-3.3311,7.4153-7.4151s-3.331-7.4151-7.4153-7.4151-7.4151,3.331-7.4151,7.4151,3.331,7.4151,7.4151,7.4151Z"/></g><g><path class="cls-5" d="m131.7854,114.5427l-12.8708,2.35c-.705-4.6531-.8095-9.431-.2651-14.228l.0204-.1837.0268-.2215.0228-.1955.0268-.2105.0278-.2047c.7875-5.9978,2.5822-11.9321,5.437-17.5416l.0192-.0382.1753-.3395.0212-.0393c2.9273-5.6665,6.7611-10.6433,11.2518-14.8174l.1808-.168.0917-.0848.0888-.0818.1819-.1658.0312-.0268c.8435-.7611,1.7012-1.4958,2.5804-2.1956l-2.1968-2.5866-8.4649-9.9663c4.3938-3.5497,9.1878-6.553,14.2642-8.9589,13.5282-6.4068,29.0721-8.5595,44.4548-5.4266l.0186.0028.5026.1039.0488.0098.0414.0096c8.3171,1.7492,16.0505,4.9352,22.9639,9.2656l.2285.143.018.01.684.439c7.9444,5.1355,14.6352,11.7263,19.8359,19.2765l.1478.2171.1497.2175.1042.1526.0433.066.1474.2187.1467.2201.1218.1841.0234.0356.1445.2211.1431.2208.1404.2179.0026.0026c1.3305,2.0735,2.561,4.2192,3.6716,6.4233l-.0088.004c.2531.5036.5006,1.0124.7413,1.5204l-11.8112,5.5947c-.9551-2.017-2.0261-3.9779-3.2098-5.876l-.026-.0436-.2245-.3562-.1078-.1683-.0054-.0092-.1141-.1761-.1137-.176-.1156-.1765-.016-.0256-.0995-.1507-.1162-.1749-.1181-.1739-.0386-.059-.0792-.1167-.1184-.1738-.1189-.1725-.1188-.1724-.1203-.1727-.1203-.1727c-1.0105-1.4342-2.087-2.8236-3.2164-4.1521-3.4677-4.0832-7.5017-7.6884-11.9898-10.6877l-.4445-.2961-.1189-.0766-.4636-.2971c-3.1221-1.9862-6.4772-3.6932-10.0457-5.0867l.0048-.0128c-1.0516-.4098-2.1186-.7909-3.2002-1.1412l-.0041.011c-1.6146-.5242-3.234-.9745-4.86-1.3513l-.0204-.0036-.4186-.0958-.2563-.0554-.2325-.0506-.2333-.0488c-1.7867-.3712-3.6041-.6613-5.4542-.8657l.001-.0124c-9.2374-1.0314-18.4189.2061-26.831,3.3855l1.1986,3.1789,4.6151,12.2312c-1.053.3979-2.0886.8377-3.1071,1.32-2.7506,1.3033-5.3614,2.9105-7.7743,4.7926l-.005-.0056c-.8859.6921-1.7456,1.4221-2.58,2.1938l.0006.0022-.0578.0514-.1431.1328-.0224.0228-.2211.2099-.037.0334-.1401.1342-.0437.0418-.0964.0936-.1222.1188-.0168.0176-.1391.1361-.0608.0594-.0763.0774-.1375.1383-.0022.0012-.1357.1375c-1.6348,1.6726-3.1548,3.4999-4.5324,5.4934-.8518,1.2328-1.6286,2.4943-2.3299,3.7806l-.0286.0546-.1211.2237-.0292.0565-.1175.223-.0296.058-.1163.2237-.0296.058-.1141.2241-.0298.058-.1114.2255-.0298.058-.11.2277c-.6485,1.3359-1.2288,2.7232-1.739,4.1518-.8011,2.243-1.399,4.5079-1.7981,6.7769l-.0018.0158-.0498.2853-.003.0238-.047.2777-.0044.0326-.0418.2681-.0062.043-.0382.2587-.0078.0512-.0352.2509-.0088.0602-.0318.2411-.0104.0686-.0274.2336-.0016-.0006c-.4541,3.6405-.4041,7.2786.0965,10.816Z"/><path class="cls-5" d="m197.9312,141.7273l8.35,10.0735c-3.7127,2.8925-7.8277,5.323-12.2773,7.1965l-.1705.0719-.2061.085-.1815.076-.1967.08-.1922.0756c-5.616,2.2496-11.6691,3.5895-17.9586,3.8462l-.043.0022-.3819.0132-.0446.0008c-6.3746.2211-12.5913-.6859-18.4296-2.5584l-.2351-.0756-.1185-.0384-.1148-.0371-.2337-.0774-.0388-.0142c-1.0766-.3632-2.137-.7513-3.1776-1.1756l-1.1804,3.1819-4.5467,12.2609c-5.2469-2.094-10.2126-4.8042-14.7961-8.0534-12.2091-8.6607-21.6958-21.1618-26.4946-36.1097l-.0062-.018-.1559-.4886-.0146-.0476-.012-.0411c-2.5464-8.1087-3.5539-16.4122-3.1618-24.5608l.0128-.2697-.0004-.0206.0484-.8113c.5891-9.4416,3.061-18.5026,7.0994-26.7342l.1166-.2351.1167-.2369.0822-.1658.0362-.0697.1185-.2359.12-.2358.1012-.1963.0195-.0378.1222-.2343.122-.2329.1215-.2293.001-.0036c1.1569-2.175,2.4257-4.2984,3.804-6.3459l.0078.0058c.3155-.4673.6378-.9324.9628-1.3909l10.6609,7.5608c-1.2911,1.8207-2.477,3.7145-3.5528,5.6761l-.0252.0436-.2007.3705-.0942.1761-.0052.0094-.0976.1857-.098.1856-.0972.1871-.0144.0264-.0832.1606-.0958.1871-.0936.1881-.0326.0624-.0628.1262-.0938.1881-.0921.1883-.092.1878-.0921.19-.0916.1897c-.7561,1.5827-1.4404,3.2021-2.0464,4.8369-1.8629,5.0233-3.0323,10.3058-3.4504,15.6878l-.0404.5326-.0088.1412-.0323.5499c-.2035,3.6951-.0494,7.4565.482,11.2503l-.0132.0022c.1573,1.1172.3473,2.2344.5714,3.3492l.0118-.0018c.3331,1.6648.7332,3.2974,1.2005,4.9l.007.0194.1218.4119.077.2505.0697.2275.0714.2274c.551,1.7401,1.1877,3.4669,1.9151,5.1803l-.011.0052c3.6221,8.5602,9.1962,15.961,16.0869,21.7402l2.1854-2.6017,8.4069-10.0121c.8623.7237,1.7532,1.4115,2.672,2.0632,2.4833,1.761,5.1631,3.2506,7.9851,4.4335l-.0022.0072c1.037.4336,2.0948.8257,3.1762,1.176l.0014-.0018.0734.0254.1859.0598.0304.0084.2913.0902.0477.0158.1852.0565.058.0176.1291.0384.1632.0481.0236.0062.1866.0542.0818.0242.1046.0287.1883.0524.0022.0014.1859.051c2.259.6067,4.5966,1.0376,7.0098,1.2633,1.4917.139,2.9721.1991,4.437.1808l.0617-.0018.2545-.0036.0634-.0022.2521-.0066.0652-.0026.2517-.0084.0652-.0026.2517-.01.065-.0026.2508-.0132.0653-.0025.2523-.0154c1.4826-.0885,2.9765-.2616,4.472-.5162,2.3479-.3994,4.6157-.9867,6.7901-1.7496l.0144-.0058.2733-.0965.0226-.0092.2645-.095.0308-.0122.2545-.095.0404-.0154.2443-.0932.0484-.0186.2363-.0917.0564-.0216.2261-.0903.0644-.0248.2175-.0903v.0016c3.3969-1.3858,6.5452-3.2106,9.3849-5.379Z"/><path class="cls-5" d="m187.1452,69.8976l4.0201-12.4508c4.4326,1.5808,8.6916,3.7494,12.6599,6.4988l.1522.1049.1823.1284.1614.1126.1731.1233.1669.1214c4.9114,3.5319,9.2902,7.9205,12.8811,13.0898l.0246.0352.2164.3151.0246.0374c3.6067,5.2602,6.1769,10.9925,7.7295,16.9236l.0622.2387.0312.1207.0301.117.0602.2389.0088.0402c.2713,1.1034.5128,2.2063.713,3.3122l3.3181-.7116,12.7853-2.7414c1.0486,5.5507,1.4257,11.1949,1.1432,16.8058-.757,14.9491-6.2157,29.6615-16.2541,41.7309l-.0114.015-.3291.3936-.0322.0378-.0279.0322c-5.4762,6.4996-11.9424,11.8049-19.0285,15.8463l-.2345.1338-.0172.011-.7105.3947c-8.2832,4.5689-17.2551,7.3447-26.3677,8.3537l-.2611.0276-.2623.029-.1837.0194-.0785.007-.2625.0264-.2633.025-.2201.0202-.0422.004-.2635.0228-.2618.0216-.2587.0206-.0036.001c-2.4561.1907-4.9286.2597-7.3957.1947l.0004-.0094c-.5634-.0151-1.1287-.0378-1.6902-.0661l.6598-13.0523c2.229.1126,4.4635.0968,6.6959-.0477l.0506-.0022.4199-.0294.1993-.015.011-.0008.2087-.0172.209-.0168.2103-.0184.03-.0022.1801-.0162.2091-.0194.209-.022.0701-.0058.1404-.0148.2091-.0216.2079-.0234.2081-.0232.2094-.0242.2095-.0242c1.7412-.2117,3.4746-.5028,5.1795-.8689,5.2381-1.1232,10.323-2.9707,15.0888-5.5056l.4709-.2517.1237-.0682.4816-.2681c3.227-1.8105,6.3183-3.9585,9.2344-6.4428l.0091.0102c.8584-.7324,1.6991-1.4921,2.5196-2.2792l-.0082-.0088c1.2262-1.1745,2.3889-2.3881,3.4905-3.6423l.0128-.0162.2821-.3239.1702-.1995.1548-.1808.1533-.1823c1.1727-1.3987,2.2881-2.8625,3.3434-4.3954l.0106.0066c5.2796-7.6494,8.5339-16.3238,9.7134-25.2391l-3.3678-.4482-12.9592-1.722c.1478-1.1158.2501-2.2364.3069-3.3617.1537-3.0399-.0268-6.1005-.5432-9.1163l.0074-.0022c-.1903-1.1078-.427-2.2107-.7116-3.311h-.0026l-.018-.0756-.0492-.1889-.0096-.0305-.08-.2941-.012-.0484-.0518-.1867-.0164-.0586-.0367-.1295-.047-.1632-.0072-.0236-.0543-.1867-.0234-.0818-.032-.1038-.0568-.1867v-.0026l-.0569-.1845c-.7002-2.2316-1.5904-4.4356-2.6948-6.5924-.6833-1.3336-1.4269-2.6149-2.2282-3.8414l-.0349-.051-.1394-.2127-.036-.0521-.1408-.2094-.037-.0536-.1423-.2079-.037-.0536-.1435-.2069-.037-.0536-.146-.2046-.0371-.0536-.1482-.2047c-.8701-1.2034-1.8178-2.3713-2.835-3.4967-1.597-1.7672-3.3092-3.3654-5.1193-4.7907l-.0128-.0092-.2281-.1786-.0195-.0144-.2222-.1724-.0268-.0194-.2169-.1637-.0344-.026-.2098-.1559-.0419-.0312-.2042-.1496-.0485-.0364-.1973-.1423-.0558-.041-.1929-.135.0016-.0012c-2.9923-2.1226-6.2209-3.8-9.5745-5.0328Z"/><path class="cls-5" d="m147.3993,108.8196c0-14.0332,11.4456-25.4787,25.4787-25.4787s25.4787,11.4455,25.4787,25.4787-11.4456,25.4787-25.4787,25.4787-25.4787-11.4456-25.4787-25.4787Zm34.1442-1.2463c4.0843,0,7.4153-3.3311,7.4153-7.4151s-3.331-7.4151-7.4153-7.4151-7.4151,3.331-7.4151,7.4151,3.331,7.4151,7.4151,7.4151Z"/></g></g></svg>