<?xml version="1.0" encoding="UTF-8"?>
<svg id="Layer_1" data-name="Layer 1" xmlns="http://www.w3.org/2000/svg" viewBox="0 0 24 24">
  <defs>
    <style>
      .cls-1 {
        fill: #4c9bd5;
        stroke-width: 0px;
      }
    </style>
  </defs>
  <path class="cls-1" d="M22.67,0H1.33C.59,0,0,.59,0,1.33v21.35c0,.73.59,1.32,1.33,1.32h11.49v-9.29h-3.13v-3.62h3.13v-2.67c0-3.1,1.89-4.79,4.66-4.79,1.33,0,2.46.1,2.8.14v3.24h-1.92c-1.5,0-1.8.72-1.8,1.76v2.31h3.59l-.47,3.62h-3.12v9.29h6.12c.73,0,1.32-.59,1.32-1.33V1.33c0-.73-.59-1.33-1.33-1.33Z"/>
</svg>