<?xml version="1.0" encoding="UTF-8"?><svg id="Layer_1" xmlns="http://www.w3.org/2000/svg" viewBox="0 0 24 24"><defs><style>.cls-1{fill:#274666;}</style></defs><path class="cls-1" d="m22.675,0H1.325C.593,0,0,.593,0,1.325v21.351c0,.731.593,1.324,1.325,1.324h11.495v-9.294h-3.128v-3.622h3.128v-2.671c0-3.1,1.893-4.788,4.659-4.788,1.325,0,2.463.099,2.795.143v3.24l-1.918.001c-1.504,0-1.795.715-1.795,1.763v2.313h3.587l-.467,3.622h-3.12v9.293h6.116c.73,0,1.323-.593,1.323-1.325V1.325C24,.593,23.407,0,22.675,0Z"/></svg>