<?xml version="1.0" encoding="UTF-8"?>
<svg id="Layer_1" data-name="Layer 1" xmlns="http://www.w3.org/2000/svg" viewBox="0 0 598.9787 400.2454">
  <defs>
    <style>
      .cls-1 {
        fill: #002279;
      }

      .cls-2 {
        fill: #fff;
      }

      .cls-3 {
        fill: #009b2d;
      }

      .cls-4 {
        fill: #ffdf00;
      }
    </style>
  </defs>
  <rect class="cls-3" width="598.9787" height="400.2454"/>
  <g>
    <polygon class="cls-4" points="90.1443 199.7128 300.544 63.7591 511.939 199.3881 300.9897 336.4862 90.1443 199.7128"/>
    <ellipse class="cls-1" cx="301.2173" cy="199.3142" rx="89.131" ry="90.2251"/>
    <path class="cls-2" d="M292.966,163.8183c60.9565,12.9837,96.3766,49.0773,96.3766,49.0773-.9409,7.0282-3.2945,14.2943-3.2945,14.2943-39.1867-37.523-88.1402-47.6482-88.1402-47.6482-43.5983-10.6313-82.9612-2.9774-82.9612-2.9774,1.2352-5.0927,4.7662-13.8479,4.7662-13.8479,0,0,29.7129-5.5693,73.2532,1.1021Z"/>
    <polygon class="cls-2" points="228.3598 179.3884 229.2182 182.063 231.9955 182.063 229.7484 183.7147 230.6068 186.3893 228.3598 184.7361 226.1128 186.3893 226.9712 183.7147 224.7242 182.063 227.5014 182.063 228.3598 179.3884"/>
    <polygon class="cls-2" points="267.0751 199.8543 267.8227 202.1823 270.2407 202.1823 268.284 203.6206 269.0317 205.9479 267.0751 204.5095 265.1191 205.9479 265.8662 203.6206 263.9102 202.1823 266.328 202.1823 267.0751 199.8543"/>
    <polygon class="cls-2" points="245.0696 213.4342 245.5248 214.8515 246.9972 214.8515 245.8064 215.728 246.2609 217.1452 245.0696 216.2694 243.8789 217.1452 244.3335 215.728 243.142 214.8515 244.6151 214.8515 245.0696 213.4342"/>
    <polygon class="cls-2" points="236.2442 217.1125 237.1993 220.0879 240.2898 220.0879 237.7896 221.927 238.7447 224.9023 236.2442 223.0632 233.7433 224.9023 234.699 221.927 232.198 220.0879 235.2893 220.0879 236.2442 217.1125"/>
    <polygon class="cls-2" points="225.1829 226.2328 225.8879 228.4287 228.1693 228.4287 226.3236 229.7864 227.0286 231.9832 225.1829 230.6254 223.337 231.9832 224.0421 229.7864 222.1956 228.4287 224.4777 228.4287 225.1829 226.2328"/>
    <polygon class="cls-2" points="254.8026 227.0907 255.5077 229.2874 257.7899 229.2874 255.9433 230.6452 256.6485 232.8412 254.8026 231.484 252.9568 232.8412 253.6619 230.6452 251.816 229.2874 254.0975 229.2874 254.8026 227.0907"/>
    <polygon class="cls-2" points="252.0964 236.1441 252.8014 238.3407 255.0829 238.3407 253.2371 239.6977 253.9422 241.8944 252.0964 240.5367 250.2505 241.8944 250.9556 239.6977 249.1098 238.3407 251.3912 238.3407 252.0964 236.1441"/>
    <polygon class="cls-2" points="265.2759 243.9044 266.0647 246.3603 268.6157 246.3603 266.5517 247.8787 267.3399 250.3344 265.2759 248.8166 263.2119 250.3344 264.0007 247.8787 261.9361 246.3603 264.4877 246.3603 265.2759 243.9044"/>
    <polygon class="cls-2" points="300.9322 236.6376 301.7204 239.0941 304.2714 239.0941 302.2074 240.6119 302.9963 243.0683 300.9322 241.5499 298.8676 243.0683 299.6565 240.6119 297.5925 239.0941 300.1434 239.0941 300.9322 236.6376"/>
    <polygon class="cls-2" points="311.4048 218.8886 312.1349 221.1632 314.4975 221.1632 312.5861 222.569 313.3161 224.8428 311.4048 223.4372 309.4942 224.8428 310.2243 222.569 308.313 221.1632 310.6755 221.1632 311.4048 218.8886"/>
    <polygon class="cls-2" points="300.9322 210.6694 301.6617 212.9433 304.0242 212.9433 302.1128 214.349 302.843 216.6237 300.9322 215.218 299.0209 216.6237 299.7503 214.349 297.8397 212.9433 300.2015 212.9433 300.9322 210.6694"/>
    <polygon class="cls-2" points="291.9307 218.9426 292.5778 220.9575 294.6701 220.9575 292.9769 222.2024 293.6239 224.2172 291.9307 222.9715 290.2382 224.2172 290.8846 222.2024 289.1913 220.9575 291.2836 220.9575 291.9307 218.9426"/>
    <polygon class="cls-2" points="296.4024 226.174 296.8827 227.6691 298.4353 227.6691 297.1791 228.5935 297.6593 230.0887 296.4024 229.1643 295.1455 230.0887 295.6258 228.5935 294.3689 227.6691 295.9223 227.6691 296.4024 226.174"/>
    <polygon class="cls-2" points="325.2564 192.9656 325.7365 194.4607 327.29 194.4607 326.0331 195.3851 326.5133 196.8804 325.2564 195.956 323.9995 196.8804 324.4796 195.3851 323.2228 194.4607 324.7762 194.4607 325.2564 192.9656"/>
    <polygon class="cls-2" points="328.6692 167.3543 329.5579 170.1238 332.4344 170.1238 330.1077 171.8352 330.9965 174.6047 328.6692 172.8934 326.3417 174.6047 327.2305 171.8352 324.9032 170.1238 327.7803 170.1238 328.6692 167.3543"/>
    <polygon class="cls-2" points="363.3834 227.2719 364.2722 230.0415 367.1487 230.0415 364.822 231.7534 365.7107 234.5224 363.3834 232.8111 361.056 234.5224 361.9455 231.7534 359.6182 230.0415 362.4945 230.0415 363.3834 227.2719"/>
    <polygon class="cls-2" points="361.5004 242.8775 362.2433 245.1919 364.6477 245.1919 362.7025 246.6221 363.4455 248.9363 361.5004 247.5061 359.5559 248.9363 360.2988 246.6221 358.3538 245.1919 360.7582 245.1919 361.5004 242.8775"/>
    <polygon class="cls-2" points="367.0311 235.9683 367.774 238.2825 370.1784 238.2825 368.2334 239.7128 368.9763 242.0271 367.0311 240.5968 365.0868 242.0271 365.8297 239.7128 363.8845 238.2825 366.2889 238.2825 367.0311 235.9683"/>
    <polygon class="cls-2" points="375.7396 229.178 376.307 230.9466 378.144 230.9466 376.6582 232.0392 377.2254 233.8079 375.7396 232.7146 374.2537 233.8079 374.8211 232.0392 373.3352 230.9466 375.1716 230.9466 375.7396 229.178"/>
    <polygon class="cls-2" points="354.4399 248.3565 355.0078 250.1252 356.8443 250.1252 355.3585 251.2178 355.9257 252.9865 354.4399 251.8932 352.9541 252.9865 353.522 251.2178 352.0355 250.1252 353.8725 250.1252 354.4399 248.3565"/>
    <polygon class="cls-2" points="345.6146 255.045 346.2656 257.0728 348.3715 257.0728 346.6676 258.3259 347.3186 260.3545 345.6146 259.1013 343.9099 260.3545 344.561 258.3259 342.857 257.0728 344.9635 257.0728 345.6146 255.045"/>
    <polygon class="cls-2" points="345.0257 246.6829 345.566 248.3648 347.3126 248.3648 345.8996 249.4047 346.4392 251.0864 345.0257 250.0467 343.6128 251.0864 344.1524 249.4047 342.7394 248.3648 344.486 248.3648 345.0257 246.6829"/>
    <polygon class="cls-2" points="335.3764 249.8997 335.916 251.5816 337.6632 251.5816 336.2496 252.6206 336.79 254.3025 335.3764 253.2626 333.9628 254.3025 334.5031 252.6206 333.0902 251.5816 334.8367 251.5816 335.3764 249.8997"/>
    <polygon class="cls-2" points="320.6671 247.517 321.2067 249.1989 322.9539 249.1989 321.5403 250.2381 322.0801 251.92 320.6671 250.8808 319.2535 251.92 319.7932 250.2381 318.3803 249.1989 320.1268 249.1989 320.6671 247.517"/>
    <polygon class="cls-2" points="345.5674 264.9236 346.107 266.6053 347.8542 266.6053 346.4406 267.6445 346.9802 269.3264 345.5674 268.2872 344.1538 269.3264 344.6933 267.6445 343.2804 266.6053 345.027 266.6053 345.5674 264.9236"/>
    <polygon class="cls-2" points="327.7979 257.4187 328.4551 259.4643 330.5798 259.4643 328.8609 260.7292 329.5173 262.7747 327.7979 261.5106 326.079 262.7747 326.7355 260.7292 325.0166 259.4643 327.1414 259.4643 327.7979 257.4187"/>
    <polygon class="cls-2" points="301.2031 268.7357 301.509 269.6888 302.4998 269.6888 301.6981 270.2788 302.0048 271.2325 301.2031 270.6431 300.4014 271.2325 300.708 270.2788 299.9063 269.6888 300.8971 269.6888 301.2031 268.7357"/>
    <g>
      <path class="cls-3" d="M227.621,167.971c.4937,2.576-.9881,4.1554-3.1122,4.4692-2.1984.3261-4.1118-.9284-4.6677-3.1757-.5822-2.3545.7633-4.1984,3.1068-4.5409,2.395-.35,4.247,1.0295,4.6731,3.2474ZM221.0129,169.0471c.3795,1.5902,1.6851,2.8488,3.3858,2.5993,1.7141-.2502,2.401-1.783,2.0619-3.48-.2972-1.4849-1.5149-2.9247-3.3924-2.6505-1.8648.2756-2.4435,1.9013-2.0553,3.5312Z"/>
      <path class="cls-3" d="M232.2872,163.8081c.5552-.1567,1.3656-.2893,2.1477-.3562,1.2103-.1041,2.0202.0259,2.6218.4101.4863.3021.801.7999.8767,1.3804.1311.992-.4971,1.7016-1.3616,2.0393.0014.0116.0027.0226.0042.0335.6902.1491,1.1576.6585,1.4642,1.4241.4173,1.0297.7125,1.7421.9252,2.0189-.3741.026-.7476.0527-1.1211.0801-.1649-.2018-.4425-.8355-.8132-1.753-.3964-1.0186-.9118-1.3748-1.9195-1.3216-.3472.0301-.6937.0609-1.0409.0931.171,1.0843.3411,2.1686.5114,3.2536-.3607.0328-.7213.0676-1.0826.1025-.4039-2.4681-.8085-4.9369-1.2124-7.4048ZM233.9553,167.1212c.3783-.0349.7565-.0685,1.1348-.1005,1.1845-.1019,1.8572-.7255,1.7391-1.5854-.1331-.9709-1.009-1.3352-2.2038-1.2429-.545.0472-.9266.1264-1.1009.1879.1438.9135.2877,1.8268.4309,2.741Z"/>
      <path class="cls-3" d="M243.188,163.0471c.6807-.1176,1.4952-.2153,2.3949-.2421,1.6304-.0471,2.8137.2606,3.6187.867.8179.6071,1.3183,1.4782,1.3907,2.6991.0708,1.232-.2992,2.239-1.0421,2.9433-.7429.7144-2.0101,1.1137-3.6404,1.1656-.7713.0247-1.4237.015-1.9769-.0178-.2486-2.4715-.4964-4.943-.7448-7.4152ZM244.9466,169.6706c.2797.0356.6822.0328,1.107.019,2.3226-.0669,3.5087-1.2368,3.3804-3.2754-.1021-1.7789-1.3401-2.9063-3.733-2.8387-.5841.0165-1.0211.0773-1.3136.1437.1865,1.984.3729,3.9681.5592,5.9514Z"/>
      <path class="cls-3" d="M260.2995,166.9756c-1.1082-.0493-2.2172-.0889-3.3269-.1197.0195.9059.0391,1.8124.0594,2.719,1.2171.0334,2.4328.0787,3.6485.1354v.8163c-1.5695-.0738-3.1412-.1271-4.7135-.1613-.0708-2.5146-.1425-5.0292-.2134-7.5437,1.5784.0342,3.1555.0882,4.7318.1599.0007.2722.0007.5442.0007.8163-1.1934-.0546-2.3882-.0984-3.5829-.1312.0169.7945.0344,1.5888.052,2.3833,1.1143.0308,2.2287.0711,3.3432.1204.0007.2687.0007.5374.0012.8054Z"/>
      <path class="cls-3" d="M273.0793,168.1903c.0148-1.0521.0284-2.3169.1094-3.2488-.0136-.0007-.0256-.0027-.0391-.004-.358.8464-.7821,1.7412-1.2792,2.7313-.5815,1.1602-1.1522,2.3237-1.7121,3.4902-.2722-.0268-.5444-.0521-.8172-.0773-.3877-1.2334-.7855-2.4654-1.1927-3.698-.3594-1.0926-.6667-2.0914-.8767-3.0035-.0089-.0006-.0169-.0013-.0257-.002-.0628.9346-.1708,2.1891-.2903,3.3103-.1155,1.0686-.2298,2.1379-.3425,3.2065-.3425-.0267-.6862-.0526-1.0292-.0773.2681-2.4934.545-4.9867.8306-7.4781.4795.0368.9591.0738,1.4387.1141.4457,1.2526.8821,2.5065,1.3075,3.761.308.9572.5524,1.8083.7227,2.6082.012.0005.0242.002.0371.0034.254-.7383.6004-1.5342,1.0388-2.4415.5788-1.1595,1.1691-2.3149,1.7702-3.4682.4782.0519.955.1039,1.4331.1586-.0141,2.5172-.0351,5.0339-.0649,7.5492-.3491-.041-.6996-.0807-1.0496-.1204.0122-1.104.0224-2.2089.0311-3.3138Z"/>
      <path class="cls-3" d="M290.6002,170.7042c-1.0854-.2201-2.1734-.4307-3.2621-.6316-.1418.8887-.2837,1.7782-.4255,2.6676,1.1948.221,2.3875.4534,3.5775.6967-.0486.2659-.0966.5319-.1453.7978-1.5371-.3145-3.0784-.6098-4.6236-.8874.3768-2.4693.7544-4.9388,1.1318-7.4083,1.55.2784,3.0981.5744,4.6413.8889-.048.2659-.096.5319-.1438.7978-1.1691-.2379-2.3409-.4655-3.5141-.683-.1242.7802-.2484,1.5588-.3728,2.3389,1.0948.2025,2.1876.4143,3.2783.6351-.0472.2625-.0938.5251-.1418.7876Z"/>
      <path class="cls-3" d="M303.3502,169.7048c.5471.0657,1.2508.1859,2.128.4307,1.0774.2995,1.8027.7404,2.1917,1.2702.3647.4759.4842,1.0795.2999,1.7182-.187.6508-.5538,1.0959-1.0765,1.3495-.7106.3583-1.6939.3638-2.7286.0766-.3168-.0882-.6078-.1784-.8367-.2987-.2533.966-.506,1.932-.7586,2.8988-.3472-.0958-.6956-.1894-1.0435-.2817.6079-2.3881,1.2164-4.7756,1.8243-7.1636ZM303.5271,173.4882c.2202.1176.5072.2202.8624.3187,1.2827.3575,2.216.0396,2.4969-.9531.2694-.9496-.3835-1.638-1.5817-1.9717-.4728-.1319-.8443-.1983-1.0416-.2065-.2451.9381-.4903,1.8754-.7361,2.8127Z"/>
      <path class="cls-3" d="M313.7012,172.7745c.5747.0821,1.3683.2851,2.1078.5332,1.1447.3856,1.8216.8211,2.1943,1.3982.3033.4587.3655,1.022.1696,1.5648-.3343.9299-1.226,1.3072-2.1647,1.2649-.0033.0102-.0073.0204-.0108.0314.5606.4041.7518,1.0371.6822,1.8357-.0871,1.0748-.1432,1.8201-.0764,2.1502-.3519-.1252-.7031-.2488-1.055-.3719-.0588-.2447-.0223-.9135.0581-1.8706.1019-1.057-.2033-1.5745-1.1421-1.9252-.3282-.1108-.6565-.2201-.9854-.3288-.3383,1.0255-.676,2.051-1.0137,3.0765-.3423-.1127-.6848-.2256-1.0273-.3363.7544-2.341,1.5089-4.6819,2.2633-7.022ZM313.7086,176.3604c.3586.119.7166.2386,1.0746.3589,1.1205.3782,2.0146.0924,2.299-.7137.3195-.9107-.312-1.578-1.4366-1.9691-.5133-.1729-.8983-.2529-1.0833-.268-.2842.8642-.5693,1.7277-.8537,2.5918Z"/>
      <path class="cls-3" d="M329.4782,182.493c-1.055,2.3498-3.2181,2.9063-5.193,2.1071-2.0444-.826-2.9412-2.7996-2.1254-4.9122.8544-2.2152,3.0379-3.052,5.2167-2.1694,2.2261.9033,3.0102,2.9502,2.1018,4.9745ZM323.2707,180.0918c-.5876,1.487-.2059,3.1669,1.3745,3.804,1.5931.6462,3.0541-.2632,3.7368-1.8193.5978-1.3605.3884-3.1421-1.3575-3.8505-1.7351-.7001-3.1513.3412-3.7538,1.8657Z"/>
      <path class="cls-3" d="M338.5406,190.531c-.5093-.0799-1.4839-.2803-2.5056-.7726-1.1428-.5524-1.9574-1.2539-2.4011-2.2301-.385-.8649-.3694-1.9539.1344-3.0069.9664-2.0099,3.3087-2.7498,5.9683-1.4644.9132.443,1.5392.9654,1.8026,1.2702-.2046.1916-.4093.3844-.6125.5765-.3343-.3644-.7895-.7508-1.5838-1.1357-1.9189-.929-3.6756-.4854-4.4914,1.2033-.8274,1.7106-.1473,3.2543,1.6156,4.1068.6409.3104,1.1204.4471,1.3959.4594.3451-.6603.6904-1.3201,1.0348-1.9805-.5194-.2557-1.0409-.5101-1.5622-.7617.1174-.231.235-.462.3526-.6932.8496.4102,1.6965.8259,2.5408,1.247-.5627,1.0612-1.1252,2.1215-1.6885,3.1819Z"/>
      <path class="cls-3" d="M346.8546,186.8842c.5552.1833,1.3063.5265,1.9918.9024,1.0623.5832,1.6472,1.1309,1.9024,1.7606.2108.5011.1567,1.0624-.1479,1.5539-.5201.845-1.4858,1.0475-2.4131.8355-.0061.0095-.0121.0192-.0176.0287.4749.4949.5396,1.1466.3079,1.9116-.3025,1.0295-.5112,1.7441-.5119,2.0776-.3247-.1859-.6504-.3712-.9758-.5545-.0089-.2481.1626-.8929.4369-1.8096.3147-1.0098.1162-1.5691-.7471-2.0819-.3046-.1668-.6098-.3335-.9151-.499-.5443.9366-1.0894,1.8726-1.6337,2.8086-.3182-.1724-.6363-.3439-.9551-.5142,1.2266-2.1399,2.4524-4.2799,3.6782-6.4198ZM346.1346,190.3752c.3329.1798.6653.3617.9975.5441,1.0395.5717,1.989.4567,2.4349-.2754.5038-.8267.0094-1.593-1.0313-2.1776-.4789-.2611-.841-.4102-1.0246-.4581-.4592.789-.9172,1.578-1.3764,2.367Z"/>
      <path class="cls-3" d="M357.9756,197.8942c-.9395-.5995-1.8843-1.191-2.8326-1.7742-.5025.7506-1.0051,1.5014-1.5074,2.252,1.0407.6399,2.0755,1.2887,3.1047,1.9492-.156.2222-.3121.4444-.468.6666-1.3284-.8519-2.6678-1.6867-4.0165-2.5058,1.3799-2.0906,2.7589-4.1813,4.1388-6.2721,1.3541.8217,2.6982,1.6593,4.0334,2.5132-.156.2222-.3113.4458-.4674.6673-1.011-.6467-2.0275-1.2839-3.0494-1.9122-.4403.6583-.8807,1.316-1.3211,1.9738.953.5865,1.9019,1.1799,2.8455,1.783-.1534.2201-.3067.4396-.4599.6591Z"/>
      <path class="cls-3" d="M361.1661,202.8003c.2465.4902.7017,1.0727,1.3225,1.5027.9177.6386,1.7742.6016,2.2442.0035.4336-.5538.31-1.1376-.4053-2.1126-.8868-1.1472-1.2333-2.1447-.5977-2.9972.6998-.9422,2.1666-1.005,3.5742-.0213.7403.5182,1.1623,1.0385,1.3649,1.4153-.2492.1476-.4983.2953-.7469.443-.1499-.2722-.491-.7876-1.1421-1.2437-.9833-.6857-1.733-.452-2.0425-.0417-.4255.562-.1952,1.1376.5377,2.1386.8983,1.2299,1.1138,2.1454.4255,3.0122-.726.9114-2.1343,1.1322-3.7639,0-.668-.4634-1.2738-1.1329-1.4879-1.6004.2392-.1669.4776-.3329.7173-.4984Z"/>
      <path class="cls-3" d="M369.2924,208.6301c.2202.5031.6429,1.1096,1.2427,1.5717.8842.6865,1.7479.7001,2.2545.1272.4695-.5278.3762-1.1179-.2863-2.1297-.8267-1.1931-1.1158-2.209-.4296-3.0232.7551-.9004,2.2322-.8853,3.5911.175.7153.5571,1.109,1.1014,1.2907,1.487-.2594.1333-.5173.2666-.7753.4006-.1352-.2789-.4472-.8122-1.0765-1.303-.949-.7385-1.7135-.5456-2.0485-.1532-.4599.5367-.2614,1.1225.4174,2.1625.832,1.2764.9969,2.2022.2552,3.0294-.7827.8697-2.2072,1.0125-3.7808-.2072-.6436-.499-1.2143-1.2012-1.4027-1.6784.2492-.1532.4983-.3062.7483-.4587Z"/>
      <path class="cls-3" d="M384.6628,217.9582c-1.8944,1.8083-4.1995,1.5676-5.8232.147-1.6783-1.472-1.8201-3.6031-.2465-5.2746,1.646-1.7516,4.0753-1.7742,5.8645-.2037,1.8289,1.6046,1.8342,3.7739.2053,5.3313ZM379.5225,213.5874c-1.1205,1.1718-1.3717,2.853-.0724,3.9914,1.3063,1.1479,3.0637.8149,4.3016-.387,1.0826-1.0508,1.5366-2.7736.1033-4.0323-1.4251-1.2484-3.1837-.7739-4.3326.428Z"/>
    </g>
  </g>
</svg>