<?xml version="1.0" encoding="UTF-8"?><svg id="Layer_1" xmlns="http://www.w3.org/2000/svg" xmlns:xlink="http://www.w3.org/1999/xlink" viewBox="0 0 969.0957 649"><defs><style>.cls-1,.cls-2,.cls-3,.cls-4,.cls-5,.cls-6,.cls-7,.cls-8,.cls-9,.cls-10,.cls-11,.cls-12,.cls-13,.cls-14,.cls-15,.cls-16,.cls-17,.cls-18,.cls-19,.cls-20,.cls-21,.cls-22,.cls-23,.cls-24,.cls-25,.cls-26,.cls-27,.cls-28,.cls-29,.cls-30,.cls-31,.cls-32,.cls-33,.cls-34,.cls-35{fill:none;}.cls-2{stroke-width:.68px;}.cls-2,.cls-36,.cls-37,.cls-38,.cls-3,.cls-4,.cls-5,.cls-39,.cls-6,.cls-7,.cls-8,.cls-9,.cls-40,.cls-41,.cls-42,.cls-43,.cls-44,.cls-45,.cls-46,.cls-47,.cls-48,.cls-10,.cls-11,.cls-12,.cls-49,.cls-50,.cls-51,.cls-52,.cls-53,.cls-13,.cls-54,.cls-14,.cls-15,.cls-55,.cls-16,.cls-56,.cls-17,.cls-57,.cls-58,.cls-18,.cls-19,.cls-20,.cls-21,.cls-22,.cls-23,.cls-59,.cls-60,.cls-61,.cls-62,.cls-63,.cls-24,.cls-25,.cls-64,.cls-26,.cls-65,.cls-27,.cls-28,.cls-29,.cls-30,.cls-66,.cls-67,.cls-31,.cls-32,.cls-33,.cls-34,.cls-35{stroke:#000;}.cls-36,.cls-37,.cls-41,.cls-42,.cls-43,.cls-44,.cls-45,.cls-46,.cls-47,.cls-48,.cls-19{stroke-width:.39px;}.cls-36,.cls-37,.cls-55,.cls-66,.cls-67{stroke-linejoin:round;}.cls-36,.cls-38,.cls-68,.cls-42,.cls-50,.cls-55,.cls-56,.cls-61,.cls-69,.cls-64,.cls-67{fill:#c8b100;}.cls-37,.cls-44,.cls-52,.cls-54,.cls-57,.cls-62,.cls-66{fill:#ad1519;}.cls-70{clip-path:url(#clippath);}.cls-38,.cls-55{stroke-width:.34px;}.cls-3,.cls-65{stroke-width:.05px;}.cls-4{stroke-width:.1px;}.cls-71{fill:#0039f0;}.cls-72{fill:#ffc400;}.cls-73{fill:#c60b1e;}.cls-74,.cls-45,.cls-53,.cls-63{fill:#058e6e;}.cls-5{stroke-width:.42px;}.cls-39,.cls-6{stroke-width:.21px;}.cls-39,.cls-48,.cls-60{fill:#fff;}.cls-7{stroke-width:.51px;}.cls-8{stroke-linecap:round;}.cls-8,.cls-40,.cls-10,.cls-59,.cls-60,.cls-61,.cls-69,.cls-62,.cls-63,.cls-66,.cls-67{stroke-width:.26px;}.cls-9{stroke-width:.11px;}.cls-41{fill:#db4446;}.cls-43,.cls-51{fill:#ccc;}.cls-46,.cls-58,.cls-59{fill:#005bbf;}.cls-47{fill:#ed72aa;}.cls-11{stroke-width:.13px;}.cls-12{stroke-width:.08px;}.cls-49{fill:#ffd691;}.cls-49,.cls-50,.cls-51,.cls-52,.cls-53{stroke-width:.52px;}.cls-13{stroke-width:.23px;}.cls-54{stroke-width:.27px;}.cls-14{stroke-width:.02px;}.cls-15{stroke-width:.04px;}.cls-16{stroke-width:.91px;}.cls-56{stroke-width:.3px;}.cls-17,.cls-64{stroke-width:.46px;}.cls-57,.cls-58{stroke-width:.61px;}.cls-18{stroke-width:.33px;}.cls-20{stroke-width:.63px;}.cls-21{stroke-width:.06px;}.cls-22{stroke-width:.03px;}.cls-23{stroke-width:.12px;}.cls-69{stroke:#c8b100;}.cls-24{stroke-width:.07px;}.cls-25{stroke-width:.6px;}.cls-26{stroke-width:.15px;}.cls-27{stroke-width:.01px;}.cls-28{stroke-width:.28px;}.cls-29{stroke-width:.56px;}.cls-30{stroke-width:.14px;}.cls-31{stroke-width:.77px;}.cls-32{stroke-width:.09px;}.cls-33{stroke-width:.37px;}.cls-34{stroke-width:.73px;}.cls-35{stroke-width:.18px;}</style><clipPath id="clippath"><circle class="cls-1" cx="414.2473" cy="324.5" r="324.5"/></clipPath></defs><g class="cls-70"><rect class="cls-73" y="1.4681" width="969.0957" height="646.0638"/><rect class="cls-72" y="162.9841" width="969.0957" height="323.0319"/><g id="coa"><g id="supporters"><g id="crown_left"><path class="cls-66" d="m217.0645,288.6305s-.659,0-1.0208-.2067-1.4601-1.2405-1.4601-1.2405l-.8786-.6331-.8011-1.0983s-.9432-1.5247-.5168-2.7005c.4393-1.1758,1.1758-1.5893,1.8348-1.9382.659-.3359,2.0416-.7624,2.0416-.7624,0,0,1.0983-.4781,1.4601-.5427.3618-.0775,1.6798-.4135,1.6798-.4135,0,0,.3618-.2067.7236-.3489.3747-.1421.8786-.1421,1.1758-.2067.2843-.0775,1.0208-.3101,1.4601-.3359.6719-.0258,1.7573.1292,2.1191.1292s1.6022.0646,2.1191.0646c.5039,0,2.3258-.1421,2.8427-.1421.5039,0,.8786-.0646,1.4601,0,.5815.0775,1.6022.4135,1.8994.5556s2.0416.7624,2.7005.9691,2.2612.4781,2.9977.827c.7236.3489,1.1758.9303,1.5376,1.4213.3618.4781.4393,1.0079.5815,1.3567.1421.3359.1421,1.0854,0,1.4343-.1421.3359-.659,1.0466-.659,1.0466l-.8011,1.318-1.0208.827s-.7365.6977-1.318.6202c-.5815-.0517-6.4994-1.1112-10.2983-1.1112s-9.8719,1.1112-9.8719,1.1112h.0129,0Z"/><g><ellipse class="cls-61" cx="226.9751" cy="280.1542" rx="1.7831" ry="3.2303"/><ellipse class="cls-61" cx="227.001" cy="280.1542" rx=".827" ry="2.9719"/><ellipse class="cls-68" cx="227.001" cy="276.743" rx="1.2017" ry="1.1241"/><path class="cls-56" d="m228.6549,276.3553v.7494h-3.2691v-.7494h1.2146v-1.7056h-.8011v-.7365h.8011v-.7365h.7753v.7365h.8011v.7365h-.8011v1.7056h1.2792"/><path class="cls-10" d="m227.3369,275.6576c.6392.1669,1.0128.787.8344,1.385-.1784.598-.8412.9475-1.4805.7806s-1.0128-.787-.8344-1.385c.113-.3788.4295-.6749.8344-.7806"/><path class="cls-61" d="m227.001,288.4238h-6.2151l-.1421-1.5247-.2972-1.5893-.2972-1.977c-1.7185-2.2612-3.2949-3.7472-3.8247-3.4241.1292-.4135.2843-.7236.6073-.9174,1.5247-.9045,4.6646,1.2663,7.0292,4.8326.2067.323.4135.6461.5944.9691h5.1297c.1809-.323.3876-.6461.5944-.9691,2.3517-3.5663,5.5045-5.737,7.0162-4.8326.3359.1938.4781.5039.6073.9174-.5298-.3101-2.0932,1.1629-3.8247,3.4241l-.2972,1.977-.2972,1.5893-.1292,1.5247h-6.2539Z"/><path class="cls-10" d="m216.496,279.8441c1.1758-.6848,3.9022,1.473,6.1118,4.8326m14.9241-4.8326c-1.1758-.6848-3.8893,1.473-6.1118,4.8326"/></g><g id="crown_pt1"><path class="cls-61" d="m217.8269,291.2277c-.2584-.7365-.7494-1.3955-.7494-1.3955,2.5196-.7365,6.0213-1.2017,9.9106-1.2146,3.8893.0129,7.4297.4781,9.9365,1.2146,0,0-.2843.491-.6719,1.1758-.2197.3876-.5039,1.0466-.491,1.0466-2.2612-.6977-5.1944-1.0466-8.7865-1.0596-3.605.0129-7.055.4523-8.864,1.1112.0258,0-.1292-.4135-.2972-.8786h.0129"/><path class="cls-61" d="m226.988,294.4322c3.1399-.0129,6.6028-.491,7.882-.814.8528-.2584,1.3567-.6331,1.2663-1.0854-.0517-.2067-.2326-.3876-.4781-.491-1.8865-.6073-5.259-1.0337-8.6702-1.0337-3.3983,0-6.8095.4264-8.6831,1.0337-.2455.1034-.4264.2843-.4781.491-.0905.4523.4135.827,1.2663,1.0854,1.2792.323,4.755.8011,7.8949.814Z"/><path class="cls-61" d="m237.0796,288.4238l-.7624-.6848s-.7365.4393-1.6539.3101c-.9045-.1421-1.2017-1.2534-1.2017-1.2534,0,0-1.0208.8657-1.8607.8011-.8399-.0775-1.3826-.8011-1.3826-.8011,0,0-.9174.659-1.7185.5944-.8011-.0775-1.5635-1.0725-1.5635-1.0725,0,0-.814,1.0337-1.6152,1.1112-.8011.0646-1.4601-.6977-1.4601-.6977,0,0-.3618.7624-1.3826.9303s-1.8994-.8011-1.8994-.8011c0,0-.5815.9432-1.2792,1.1888-.6977.2326-1.6022-.3489-1.6022-.3489,0,0-.155.3489-.2584.5556s-.4006.2455-.4006.2455l.2326.6073c2.4938-.7236,5.8921-1.1758,9.7297-1.1758s7.3264.4523,9.8331,1.1888l.2584-.6977h-.0129,0Z"/><path class="cls-61" d="m227.0139,285.0772l.3618.0646c-.0646.155-.0775.3101-.0775.491,0,.7494.6461,1.3567,1.4472,1.3567.6331,0,1.1758-.4006,1.3697-.9432.0129.0129.1421-.491.1938-.491.0388,0,.0388.5298.0646.5298.0905.6848.7107,1.15,1.4213,1.15.8011,0,1.4343-.6073,1.4343-1.3697,0-.0517,0-.1034-.0129-.155l.4523-.4523.2455.5685c-.0905.1809-.1292.3747-.1292.5944,0,.7236.6073,1.305,1.3697,1.305.4781,0,.8916-.2326,1.1371-.5815l.2972-.3747v.4652c0,.4393.1809.8528.6331.9174,0,0,.491.0388,1.1758-.491.6719-.5298,1.0337-.9691,1.0337-.9691l.0388.5427s-.659,1.0854-1.2534,1.4213c-.323.1938-.827.4006-1.2275.323-.4135-.0646-.7107-.4006-.8657-.7882-.2972.1809-.659.2843-1.0337.2843-.814,0-1.5505-.4523-1.8348-1.1112-.3747.4006-.8916.6461-1.4989.6461-.659,0-1.2534-.2972-1.6281-.7494-.3618.3489-.8657.5556-1.4084.5556-.7107,0-1.3567-.3618-1.7185-.8916-.3747.5298-1.0079.8916-1.7314.8916-.5427,0-1.0466-.2067-1.4084-.5556-.3747.4523-.9691.7494-1.6152.7494-.6202,0-1.1371-.2455-1.5118-.6461-.2843.659-1.0208,1.1112-1.8348,1.1112-.3747,0-.7236-.1034-1.0208-.2843-.155.3876-.4523.7236-.8786.7882-.3876.0775-.8916-.1292-1.2146-.323-.6073-.3359-1.318-1.4213-1.318-1.4213l.0905-.5427s.3747.4393,1.0466.9691,1.1758.491,1.1758.491c.4393-.0646.6331-.4781.6331-.9174v-.4652l.2843.3747c.2455.3489.659.5815,1.1371.5815.7624,0,1.3697-.5815,1.3697-1.305,0-.2197-.0258-.4135-.1292-.5944l.2455-.5685.4523.4523c-.0129.0517-.0129.1034-.0129.155,0,.7624.6331,1.3697,1.4343,1.3697.7107,0,1.3309-.4652,1.4343-1.15.0129,0,.0129-.5298.0517-.5298.0646,0,.1809.5039.2067.491.1809.5427.7236.9432,1.3697.9432.7882,0,1.4343-.6073,1.4343-1.3567,0-.1809,0-.3359-.0646-.491l.3747-.0646h.0129,0Z"/><path class="cls-67" d="m226.988,288.6176c-3.8893.0129-7.391.4781-9.9106,1.2146-.168.0517-.3747-.0775-.4264-.2197-.0517-.168.0646-.3618.2326-.4135,2.5196-.7753,6.1118-1.2663,10.1044-1.2663s7.5977.491,10.1174,1.2663c.168.0517.2843.2455.2326.4135-.0517.1421-.2584.2714-.4264.2197-2.5196-.7365-6.0342-1.2017-9.9235-1.2146Z"/><path class="cls-61" d="m213.7567,287.0283c-.0129.0129-.491-.6202-.8399-.9432-.2584-.2326-.8786-.4264-.8786-.4264,0-.1034.3618-.3618.7494-.3618.2326,0,.4523.0905.5815.2584l.0517-.2584s.3101.0646.4523.4135c.155.3747.0646.9303.0646.9303,0,0-.0646.2584-.1809.3876h0Z"/><path class="cls-61" d="m216.1988,286.0204l-.1421.8528-1.809.1938-.2714-.155.0517-.2972,1.3697-1.1241.8011.5298"/><path class="cls-61" d="m213.7825,286.7053c.155-.155.4652-.1163.6848.0775.2326.1938.3101.491.155.6461-.155.168-.4652.1292-.6848-.0775-.2326-.1938-.3101-.491-.155-.6461Z"/><path class="cls-61" d="m217.1033,286.8733c-.0775-.2326,0-.4781.168-.5427.1809-.0388.3876.1163.4781.3489.0775.2455,0,.491-.1809.5427-.168.0517-.3747-.1034-.4652-.3489Z"/><path class="cls-61" d="m217.9432,285.7878l.659.6202,1.5764-.8528.1163-.2714-.2197-.2197-1.809-.155-.323.8786"/><path class="cls-61" d="m219.7651,282.8418l-.8657.827,1.1112,1.473.2972.1163.2197-.2326.3876-1.7702-1.15-.4135"/><path class="cls-61" d="m222.7111,284.8317l-.3359.814-1.809-.168-.2326-.2067.1292-.2843,1.5764-.827.6719.6719"/><ellipse class="cls-61" cx="220.3207" cy="285.2839" rx=".6331" ry=".6073"/><path class="cls-61" d="m223.3701,285.6716c-.0388-.2584.0905-.4781.2714-.5039s.3618.168.3876.4264c.0388.2455-.0905.4781-.2714.491-.1809.0258-.3618-.168-.3876-.4135Z"/><path class="cls-61" d="m224.5459,284.7542l.5168.7365,1.7314-.5427.1809-.2326-.1938-.2584-1.7185-.5039-.5168.8011"/><path class="cls-61" d="m226.9751,282.0536l-1.1112.6719.827,1.7831.2843.1809.2843-.1809.827-1.7831-1.1112-.6719"/><path class="cls-61" d="m229.4173,284.7542l-.5039.7365-1.7314-.5427-.1809-.2326.1809-.2584,1.7314-.5039.5039.8011"/><ellipse class="cls-61" cx="226.988" cy="284.7154" rx=".6331" ry=".6073"/><path class="cls-61" d="m230.6448,285.6716c.0258-.2584-.1034-.4781-.2843-.5039s-.3618.168-.3876.4264c-.0258.2455.0905.4781.2714.491.1809.0258.3618-.168.4006-.4135Z"/><path class="cls-61" d="m231.2779,284.8317l.3359.814,1.809-.168.2326-.2067-.1292-.2843-1.5764-.827-.6719.6719"/><path class="cls-61" d="m234.224,282.8418l.8657.827-1.1112,1.473-.2972.1163-.2197-.2326-.3876-1.7702,1.15-.4135"/><path class="cls-61" d="m236.0459,285.7878l-.659.6202-1.5764-.8528-.1292-.2714.2455-.2197,1.809-.155.3101.8786"/><ellipse class="cls-61" cx="233.6813" cy="285.2839" rx=".6331" ry=".6073"/><path class="cls-61" d="m236.8987,286.8733c.0775-.2326,0-.4781-.168-.5427-.1809-.0388-.3876.1163-.4781.3489-.0775.2455,0,.491.1809.5427.168.0517.3747-.1034.4652-.3489Z"/><path class="cls-61" d="m239.9868,287.0283c.0129.0129.491-.6202.8528-.9432.2455-.2326.8657-.4264.8657-.4264,0-.1034-.3618-.3618-.7494-.3618-.2326,0-.4523.0905-.5815.2584l-.0517-.2584s-.3101.0646-.4652.4135c-.1421.3747-.0388.9303-.0388.9303,0,0,.0517.2584.168.3876h0Z"/><path class="cls-61" d="m237.5447,286.0204l.1421.8528,1.809.1938.2714-.155-.0646-.2972-1.3567-1.1241-.8011.5298"/><path class="cls-61" d="m239.9998,286.7053c-.1421-.155-.4523-.1163-.6848.0775s-.3101.491-.155.6461c.155.168.4652.1292.6977-.0775.2326-.1938.2972-.491.1421-.6461Z"/></g><g id="crown_pt2"><path class="cls-62" d="m217.142,291.2923l.4006-.6461.8399.168-.491.7236-.7494-.2455"/><path class="cls-63" d="m220.76,290.6592l-.8916.1421c-.2326.0258-.4523-.1163-.491-.3359-.0258-.2197.1292-.4135.3489-.4523l.9045-.1292.9174-.1421c.2326-.0258.4393.1163.4781.323.0258.2197-.1292.4264-.3489.4523l-.9174.1421"/><ellipse class="cls-60" cx="223.7836" cy="290.0002" rx=".5685" ry=".5298"/><path class="cls-62" d="m227.0268,290.2328h-1.2405c-.2326,0-.4264-.1809-.4264-.4006s.1809-.4006.4135-.4006h2.5326c.2455,0,.4264.1809.4264.4006s-.1938.4006-.4264.4006h-1.2792"/><ellipse class="cls-60" cx="230.2055" cy="290.0002" rx=".5685" ry=".5298"/><path class="cls-63" d="m233.229,290.6592l.8916.1421c.2326.0258.4523-.1163.491-.3359.0258-.2197-.1163-.4135-.3489-.4523l-.9045-.1292-.9174-.1421c-.2326-.0258-.4523.1163-.4781.323-.0388.2197.1163.4264.3489.4523l.9174.1421"/><path class="cls-62" d="m236.7695,291.3311l-.323-.6848-.8657.0775.4135.7624.7753-.155"/><path class="cls-66" d="m226.9751,293.6957c-3.1399,0-5.9826-.2843-8.1404-.8399,2.1579-.5556,5.0005-.8916,8.1404-.9045,3.1528,0,6.0084.3489,8.1792.9045-2.1708.5556-5.0264.8399-8.1792.8399Z"/><path class="cls-27" d="m228.4482,293.5923v-1.4989m-.7494,1.5505l.0129-1.5893m-.5556,1.6152v-1.6281"/><path class="cls-14" d="m226.6909,293.6827v-1.641"/><path class="cls-22" d="m226.2386,293.6827v-1.641"/><path class="cls-15" d="m225.8251,293.6827v-1.641"/><path class="cls-15" d="m225.3987,293.6827v-1.641"/><path class="cls-3" d="m225.0369,293.6827v-1.641"/><path class="cls-21" d="m224.3263,293.5923l-.0129-1.4859m.3489,1.5118v-1.5635"/><path class="cls-24" d="m223.6673,293.5277v-1.3697m.3359,1.4084l-.0129-1.4601"/><path class="cls-12" d="m222.7886,293.4502v-1.2017m.2972,1.2146v-1.2663m.2972,1.318v-1.318"/><path class="cls-32" d="m222.4914,293.4373v-1.1629"/><path class="cls-4" d="m222.2072,293.3856v-1.0983"/><path class="cls-9" d="m221.8971,293.3468v-1.0079"/><path class="cls-23" d="m221.2639,293.2564l-.0129-.8011m.3359.8528v-.9045"/><path class="cls-23" d="m220.9409,293.1918v-.7107"/><path class="cls-11" d="m220.6437,293.1401v-.5944"/><path class="cls-30" d="m220.3207,293.0625v-.4652"/><path class="cls-26" d="m219.9976,293.0238v-.3489"/><path class="cls-35" d="m219.6488,292.9462v-.168"/></g></g><g id="pillar_left"><g><path class="cls-46" d="m247.1582,428.7488c-1.9899,0-3.7601-.4264-5.0781-1.1241-1.2921-.659-3.0494-1.0596-4.9876-1.0596-1.9511,0-3.7472.4135-5.0522,1.0724-1.305.6848-3.1011,1.1112-5.0651,1.1112-1.9899,0-3.773-.4651-5.0781-1.1629-1.2921-.6331-3.0107-1.0208-4.8972-1.0208-1.964,0-3.6955.3747-4.9876,1.0466-1.318.6978-3.1269,1.1371-5.1039,1.1371v3.114c1.977,0,3.7859-.4523,5.1039-1.1371,1.2921-.6719,3.0236-1.0596,4.9876-1.0596,1.8736,0,3.605.4006,4.8972,1.0337,1.305.6848,3.0882,1.1629,5.0781,1.1629,1.964,0,3.7601-.4264,5.0651-1.1112,1.305-.6719,3.1011-1.0854,5.0522-1.0854,1.9382,0,3.6955.4135,4.9876,1.0724,1.318.6978,3.0623,1.1241,5.0522,1.1241l.0258-3.114h0Z"/><path class="cls-43" d="m247.1582,431.8629c-1.9899,0-3.7601-.4264-5.0781-1.1241-1.2921-.659-3.0494-1.0724-4.9876-1.0724-1.9511,0-3.7472.4135-5.0522,1.0854-1.305.6848-3.1011,1.1112-5.0651,1.1112-1.9899,0-3.773-.4781-5.0781-1.1629-1.2921-.6331-3.0107-1.0337-4.8972-1.0337-1.964,0-3.6955.3876-4.9876,1.0596-1.318.6848-3.1269,1.1371-5.1039,1.1371v3.114c1.977,0,3.7859-.4523,5.1039-1.1371,1.2921-.6719,3.0236-1.0596,4.9876-1.0596,1.8736,0,3.605.4006,4.8972,1.0337,1.305.6978,3.0882,1.1629,5.0781,1.1629,1.964,0,3.7601-.4393,5.0651-1.1112s3.1011-1.0854,5.0522-1.0854c1.9382,0,3.6955.4135,4.9876,1.0854,1.318.6848,3.0623,1.1112,5.0522,1.1112l.0258-3.114"/><path class="cls-46" d="m247.1582,434.9769c-1.9899,0-3.7601-.4264-5.0781-1.1112-1.2921-.6719-3.0494-1.0854-4.9876-1.0854-1.9511,0-3.7472.4135-5.0522,1.0854s-3.1011,1.1112-5.0651,1.1112c-1.9899,0-3.773-.4651-5.0781-1.1629-1.2921-.6331-3.0107-1.0337-4.8972-1.0337-1.964,0-3.6955.3876-4.9876,1.0596-1.318.6848-3.1269,1.1371-5.1039,1.1371v3.1011c1.977,0,3.7859-.4393,5.1039-1.1371,1.2921-.659,3.0236-1.0337,4.9876-1.0337,1.8736,0,3.605.3876,4.8972,1.0208,1.305.6978,3.0882,1.15,5.0781,1.15,1.964,0,3.7601-.4135,5.0651-1.0983,1.305-.6719,3.1011-1.0724,5.0522-1.0724,1.9382,0,3.6955.4006,4.9876,1.0596,1.318.7107,3.0623,1.1112,5.0522,1.1112l.0258-3.1011"/><path class="cls-43" d="m247.1323,441.205c-1.9899,0-3.7342-.4264-5.0522-1.1241-1.2921-.659-3.0494-1.0596-4.9876-1.0596-1.9511,0-3.7472.4006-5.0522,1.0724s-3.1011,1.1112-5.0651,1.1112c-1.9899,0-3.773-.4781-5.0781-1.1629-1.2921-.6461-3.0107-1.0208-4.8972-1.0208-1.964,0-3.6955.3747-4.9876,1.0466-1.318.6848-3.1269,1.1371-5.1039,1.1371v-3.1011c1.977,0,3.7859-.4651,5.1039-1.1629,1.2921-.659,3.0236-1.0337,4.9876-1.0337,1.8736,0,3.605.3876,4.8972,1.0208,1.305.6978,3.0882,1.15,5.0781,1.15,1.964,0,3.7601-.4135,5.0651-1.0983,1.305-.6719,3.1011-1.0724,5.0522-1.0724,1.9382,0,3.6955.4006,4.9876,1.0596,1.318.7107,3.0882,1.1112,5.0781,1.1112l-.0258,3.127"/><path class="cls-46" d="m247.1323,444.319c-1.9899,0-3.7342-.4264-5.0522-1.1112-1.2921-.6719-3.0494-1.0854-4.9876-1.0854-1.9511,0-3.7472.4135-5.0522,1.0854s-3.1011,1.1112-5.0651,1.1112c-1.9899,0-3.773-.4781-5.0781-1.1629-1.2921-.6461-3.0107-1.0337-4.8972-1.0337-1.964,0-3.6955.3876-4.9876,1.0596-1.318.6848-3.1269,1.1371-5.1039,1.1371v-3.0882c1.977,0,3.7859-.4781,5.1039-1.1629,1.2921-.6719,3.0236-1.0466,4.9876-1.0466,1.8736,0,3.605.3876,4.8972,1.0208,1.305.6848,3.0882,1.1629,5.0781,1.1629,1.964,0,3.7601-.4393,5.0651-1.1112s3.1011-1.0724,5.0522-1.0724c1.9382,0,3.6955.4006,4.9876,1.0596,1.318.6978,3.0753,1.1241,5.0781,1.1241l-.0258,3.114h0Z"/></g><g><path class="cls-36" d="m215.6819,415.9568c.0646.2713.168.5168.168.8011,0,1.8865-1.641,3.3983-3.6309,3.3983h29.6414c-2.0028,0-3.6309-1.5118-3.6309-3.3983,0-.2713.0517-.5298.1163-.8011-.168.0646-.3747.0775-.5685.0775h-21.5656c-.168,0-.3747-.0258-.5298-.0775Z"/><path class="cls-42" d="m216.2117,414.0057h21.5656c.7365,0,1.318.4523,1.318,1.0079s-.5815,1.0208-1.318,1.0208h-21.5656c-.7236,0-1.318-.4651-1.318-1.0208s.5944-1.0079,1.318-1.0079Z"/><path class="cls-42" d="m212.2578,427.6893h29.551v-7.5331h-29.551v7.5331Z"/></g><path class="cls-43" d="m216.496,412.7782h20.9971v-102.8921h-20.9971v102.8921Z"/><path class="cls-19" d="m231.4588,310.0282v102.6725m2.3646-102.6724v102.6724"/><g><path class="cls-42" d="m212.6584,301.7198h28.8015v-7.546h-28.8015v7.546h0Z"/><path class="cls-36" d="m215.6819,306.7462c.1809-.0775.3101-.0905.5298-.0905h21.5656c.2197,0,.4135.0388.5944.1034-.7494-.2455-1.2792-.9174-1.2792-1.7056s.5815-1.473,1.3309-1.7185c-.1809.0517-.4264.1034-.6331.1034h-21.5785c-.2197,0-.4264-.0129-.6073-.0775l.1163.0258c.7753.2326,1.2146.9174,1.2146,1.6668,0,.7236-.491,1.4601-1.2534,1.6927h0Z"/><path class="cls-42" d="m216.2117,306.6557h21.5656c.7365,0,1.318.4523,1.318,1.0079,0,.5685-.5815,1.0208-1.318,1.0208h-21.5656c-.7236,0-1.318-.4523-1.318-1.0208,0-.5556.5944-1.0079,1.318-1.0079Z"/><path class="cls-42" d="m216.2117,301.7198h21.5785c.7365,0,1.3309.3876,1.3309.8528,0,.4781-.5944.8657-1.3309.8657h-21.5785c-.7236,0-1.318-.3876-1.318-.8657,0-.4652.5944-.8528,1.318-.8528Z"/></g></g><g id="ribbon_left"><path class="cls-44" d="m209.9449,387.3232c-2.9202,1.6798-4.9101,3.4112-4.5871,4.2769.155.7882,1.0854,1.3826,2.4163,2.2612,2.0932,1.4601,3.3595,4.0573,2.3646,5.259,1.7314-1.3955,2.8298-3.4758,2.8298-5.8016,0-2.4163-1.1629-4.6-3.0236-5.9955Z"/><path class="cls-37" d="m258.9424,348.3656c-4.5741-1.8865-12.3657-3.2949-21.3072-3.5921-3.0882.0258-6.5123.323-10.0657.9045-12.5595,2.1062-22.1342,7.1196-21.3718,11.2028.0129.0775.0517.2584.0646.336,0,0-4.7033-10.6084-4.7809-11.0089-.8399-4.5354,9.7685-10.1044,23.7105-12.4303,4.3803-.7365,8.6443-1.0208,12.3527-.982,8.9157,0,16.6684,1.15,21.346,2.8815l.0517,12.6887"/><path class="cls-44" d="m216.4572,361.2869c-5.8275-.4135-9.7943-1.977-10.2595-4.4062-.3618-1.9382,1.6152-4.0961,5.1297-6.0471,1.5635.1809,3.3337.3876,5.1685.3876l-.0388,10.0657"/><path class="cls-44" d="m237.5318,353.4178c3.6438.5556,6.3702,1.4601,7.7269,2.5713l.1292.2197c.6461,1.3309-2.5455,4.1607-7.8949,7.3264l.0388-10.1173"/><path class="cls-37" d="m203.4067,381.1339c-.5556-1.6539,5.1297-4.9876,13.1539-7.9337,3.6696-1.3051,6.6932-2.6747,10.4533-4.3286,11.1511-4.9359,19.3819-10.5955,18.3741-12.6499l-.1163-.2197c.5944.491,1.5247,10.6471,1.5247,10.6471,1.0079,1.8865-6.5252,7.4685-16.7977,12.3786-3.282,1.5764-10.2207,4.1348-13.4898,5.2848-5.8663,2.0286-11.6808,5.8663-11.1511,7.2876l-1.9511-10.4533v-.0129h0Z"/></g><g id="crown_right"><path class="cls-54" d="m419.7476,286.2789s-.9562,1.0079-1.6539,1.15c-.6848.1292-1.5635-.6331-1.5635-.6331,0,0-.6202.659-1.3955.827-.7624.1809-1.8219-.8528-1.8219-.8528,0,0-.7365,1.0337-1.3826,1.2792-.659.2326-1.4601-.3101-1.4601-.3101,0,0-.2972.5039-.8399.7882-.2326.1163-.6202-.0646-.6202-.0646l-.7753-.491-.8786-.9303-.8011-.3101s-.3618-1.1758-.4006-1.3826c-.0258-.2067-.1034-.7365-.1034-.7365-.168-.8399,1.1241-1.809,2.9719-2.2225,1.0596-.2455,1.9899-.2326,2.6618-.0258.7365-.6202,2.3-1.0596,4.1348-1.0596,1.6669,0,3.127.3489,3.9281.9045.7882-.5556,2.2483-.9045,3.9151-.9045,1.8348,0,3.3854.4393,4.1219,1.0596.6848-.2067,1.6022-.2197,2.6747.0258,1.8348.4135,3.1399,1.3826,2.9719,2.2225,0,0-.0775.5298-.1034.7365-.0388.2067-.4135,1.3826-.4135,1.3826l-.8011.3101-.8786.9303-.7494.491s-.3876.1809-.6202.0646c-.5556-.2714-.8528-.7882-.8528-.7882,0,0-.8011.5427-1.4601.3101-.659-.2455-1.3826-1.2792-1.3826-1.2792,0,0-1.0596,1.0337-1.8348.8528-.7624-.168-1.3826-.827-1.3826-.827,0,0-.8786.7624-1.5635.6331-.6978-.1421-1.641-1.15-1.641-1.15h0Z"/><g><ellipse class="cls-61" cx="419.7089" cy="280.8261" rx="1.7831" ry="2.5326"/><ellipse class="cls-61" cx="419.7476" cy="280.8261" rx=".814" ry="2.3387"/><ellipse class="cls-68" cx="419.7347" cy="277.9188" rx="1.2017" ry="1.1371"/><path class="cls-56" d="m421.4016,277.5182v.7494h-3.2691v-.7494h1.2146v-1.6798h-.8011v-.7494h.8011v-.7494h.7882v.7494h.7882v.7494h-.7882v1.6798h1.2663"/><path class="cls-10" d="m420.0836,276.8463c.6343.1847.9903.821.7951,1.4212-.1952.6002-.8677.9371-1.502.7524s-.9903-.821-.7951-1.4212c.1222-.3759.441-.6653.843-.7653"/></g><g><path class="cls-8" d="m406.2578,285.7233c-.168-.4264-.2843-.9045-.2843-1.3955,0-2.0545,1.6281-3.7213,3.6567-3.7213.6461,0,1.2404.168,1.7702.4781"/><path class="cls-10" d="m412.8089,283.0615c-.1938-.3359-.3747-.6977-.3747-1.0854,0-1.4859,1.5376-2.6876,3.4112-2.6876.8011,0,1.5506.2197,2.132.5815"/><path class="cls-10" d="m426.6218,283.1002c.1938-.3359.323-.7365.323-1.1241,0-1.4859-1.5247-2.6876-3.4112-2.6876-.8011,0-1.5376.2197-2.1191.5815"/><path class="cls-8" d="m433.1341,285.7233c.168-.4264.2713-.9045.2713-1.3955,0-2.0545-1.6281-3.7213-3.6438-3.7213-.6461,0-1.2534.168-1.7831.4781"/><ellipse class="cls-6" cx="405.1725" cy="284.0306" rx=".5815" ry=".5556"/><ellipse class="cls-6" cx="405.3921" cy="281.989" rx=".5815" ry=".5556"/><ellipse class="cls-6" cx="406.7101" cy="280.4384" rx=".5815" ry=".5556"/><ellipse class="cls-6" cx="408.4544" cy="279.5986" rx=".5815" ry=".5556"/><ellipse class="cls-6" cx="410.3151" cy="279.6761" rx=".5815" ry=".5556"/><ellipse class="cls-39" cx="411.4522" cy="281.9632" rx=".5815" ry=".5556"/><ellipse class="cls-6" cx="411.7752" cy="280.025" rx=".5815" ry=".5556"/><ellipse class="cls-6" cx="413.2353" cy="278.8104" rx=".5815" ry=".5556"/><ellipse class="cls-6" cx="415.0702" cy="278.2289" rx=".5815" ry=".5556"/><ellipse class="cls-6" cx="416.9308" cy="278.2935" rx=".5815" ry=".5556"/><ellipse class="cls-6" cx="422.4482" cy="278.2935" rx=".5815" ry=".5556"/><ellipse class="cls-6" cx="424.3218" cy="278.2289" rx=".5815" ry=".5556"/><ellipse class="cls-6" cx="426.1437" cy="278.8104" rx=".5815" ry=".5556"/><ellipse class="cls-6" cx="427.6038" cy="280.025" rx=".5815" ry=".5556"/><ellipse class="cls-39" cx="427.9268" cy="281.9632" rx=".5815" ry=".5556"/><ellipse class="cls-6" cx="429.0639" cy="279.6761" rx=".5815" ry=".5556"/><ellipse class="cls-6" cx="430.9375" cy="279.5986" rx=".5815" ry=".5556"/><ellipse class="cls-6" cx="432.6818" cy="280.4384" rx=".5815" ry=".5556"/><ellipse class="cls-6" cx="433.9998" cy="281.989" rx=".5815" ry=".5556"/><ellipse class="cls-6" cx="434.2195" cy="284.0306" rx=".5815" ry=".5556"/></g><g id="crown_pt1-2"><path class="cls-61" d="m410.5735,291.2277c-.2584-.7365-.7494-1.3955-.7494-1.3955,2.5196-.7365,6.0213-1.2017,9.9106-1.2146,3.8893.0129,7.4297.4781,9.9365,1.2146,0,0-.2843.491-.6719,1.1758-.2197.3876-.5039,1.0466-.491,1.0466-2.2612-.6977-5.1944-1.0466-8.7865-1.0596-3.605.0129-7.055.4523-8.864,1.1112.0258,0-.1292-.4135-.2972-.8786h.0129"/><path class="cls-61" d="m419.7347,294.4322c3.1399-.0129,6.6028-.491,7.882-.814.8528-.2584,1.3567-.6331,1.2663-1.0854-.0517-.2067-.2326-.3876-.4781-.491-1.8865-.6073-5.259-1.0337-8.6702-1.0337-3.3983,0-6.8095.4264-8.6831,1.0337-.2455.1034-.4264.2843-.4781.491-.0905.4523.4135.827,1.2663,1.0854,1.2792.323,4.755.8011,7.8949.814Z"/><path class="cls-61" d="m429.8262,288.4238l-.7624-.6848s-.7365.4393-1.6539.3101c-.9045-.1421-1.2017-1.2534-1.2017-1.2534,0,0-1.0208.8657-1.8607.8011-.8399-.0775-1.3826-.8011-1.3826-.8011,0,0-.9174.659-1.7185.5944-.8011-.0775-1.5635-1.0725-1.5635-1.0725,0,0-.814,1.0337-1.6152,1.1112-.8011.0646-1.4601-.6977-1.4601-.6977,0,0-.3618.7624-1.3826.9303s-1.8994-.8011-1.8994-.8011c0,0-.5815.9432-1.2792,1.1888-.6977.2326-1.6022-.3489-1.6022-.3489,0,0-.155.3489-.2584.5556s-.4006.2455-.4006.2455l.2326.6073c2.4938-.7236,5.8921-1.1758,9.7297-1.1758s7.3264.4523,9.8331,1.1888l.2584-.6977h-.0129,0Z"/><path class="cls-61" d="m419.7606,285.0772l.3618.0646c-.0646.155-.0775.3101-.0775.491,0,.7494.6461,1.3567,1.4472,1.3567.6331,0,1.1758-.4006,1.3697-.9432.0129.0129.1421-.491.1938-.491.0388,0,.0388.5298.0646.5298.0905.6848.7107,1.15,1.4213,1.15.8011,0,1.4343-.6073,1.4343-1.3697,0-.0517,0-.1034-.0129-.155l.4523-.4523.2455.5685c-.0905.1809-.1292.3747-.1292.5944,0,.7236.6073,1.305,1.3697,1.305.4781,0,.8916-.2326,1.1371-.5815l.2972-.3747v.4652c0,.4393.1809.8528.6331.9174,0,0,.491.0388,1.1758-.491.6719-.5298,1.0337-.9691,1.0337-.9691l.0388.5427s-.659,1.0854-1.2534,1.4213c-.323.1938-.827.4006-1.2275.323-.4135-.0646-.7107-.4006-.8657-.7882-.2972.1809-.659.2843-1.0337.2843-.814,0-1.5505-.4523-1.8348-1.1112-.3747.4006-.8916.6461-1.4989.6461-.659,0-1.2534-.2972-1.6281-.7494-.3618.3489-.8657.5556-1.4084.5556-.7107,0-1.3567-.3618-1.7185-.8916-.3747.5298-1.0079.8916-1.7314.8916-.5427,0-1.0466-.2067-1.4084-.5556-.3747.4523-.9691.7494-1.6152.7494-.6202,0-1.1371-.2455-1.5118-.6461-.2843.659-1.0208,1.1112-1.8348,1.1112-.3747,0-.7236-.1034-1.0208-.2843-.155.3876-.4523.7236-.8786.7882-.3876.0775-.8916-.1292-1.2146-.323-.6073-.3359-1.318-1.4213-1.318-1.4213l.0905-.5427s.3747.4393,1.0466.9691,1.1758.491,1.1758.491c.4393-.0646.6331-.4781.6331-.9174v-.4652l.2843.3747c.2455.3489.659.5815,1.1371.5815.7624,0,1.3697-.5815,1.3697-1.305,0-.2197-.0258-.4135-.1292-.5944l.2455-.5685.4523.4523c-.0129.0517-.0129.1034-.0129.155,0,.7624.6331,1.3697,1.4343,1.3697.7107,0,1.3309-.4652,1.4343-1.15.0129,0,.0129-.5298.0517-.5298.0646,0,.1809.5039.2067.491.1809.5427.7236.9432,1.3697.9432.7882,0,1.4343-.6073,1.4343-1.3567,0-.1809,0-.3359-.0646-.491l.3747-.0646h.0129,0Z"/><path class="cls-67" d="m419.7347,288.6176c-3.8893.0129-7.391.4781-9.9106,1.2146-.168.0517-.3747-.0775-.4264-.2197-.0517-.168.0646-.3618.2326-.4135,2.5196-.7753,6.1118-1.2663,10.1044-1.2663s7.5977.491,10.1174,1.2663c.168.0517.2843.2455.2326.4135-.0517.1421-.2584.2714-.4264.2197-2.5196-.7365-6.0342-1.2017-9.9235-1.2146Z"/><path class="cls-61" d="m406.5033,287.0283c-.0129.0129-.491-.6202-.8399-.9432-.2584-.2326-.8786-.4264-.8786-.4264,0-.1034.3618-.3618.7494-.3618.2326,0,.4523.0905.5815.2584l.0517-.2584s.3101.0646.4523.4135c.155.3747.0646.9303.0646.9303,0,0-.0646.2584-.1809.3876h0Z"/><path class="cls-61" d="m408.9455,286.0204l-.1421.8528-1.809.1938-.2714-.155.0517-.2972,1.3697-1.1241.8011.5298"/><path class="cls-61" d="m406.5292,286.7053c.155-.155.4652-.1163.6848.0775.2326.1938.3101.491.155.6461-.155.168-.4652.1292-.6848-.0775-.2326-.1938-.3101-.491-.155-.6461Z"/><path class="cls-61" d="m409.8499,286.8733c-.0775-.2326,0-.4781.168-.5427.1809-.0388.3876.1163.4781.3489.0775.2455,0,.491-.1809.5427-.168.0517-.3747-.1034-.4652-.3489Z"/><path class="cls-61" d="m410.6898,285.7878l.659.6202,1.5764-.8528.1163-.2714-.2197-.2197-1.809-.155-.323.8786"/><path class="cls-61" d="m412.5117,282.8418l-.8657.827,1.1112,1.473.2972.1163.2197-.2326.3876-1.7702-1.15-.4135"/><path class="cls-61" d="m415.4578,284.8317l-.3359.814-1.809-.168-.2326-.2067.1292-.2843,1.5764-.827.6719.6719"/><ellipse class="cls-61" cx="413.0673" cy="285.2839" rx=".6331" ry=".6073"/><path class="cls-61" d="m416.1168,285.6716c-.0388-.2584.0905-.4781.2714-.5039s.3618.168.3876.4264c.0388.2455-.0905.4781-.2714.491-.1809.0258-.3618-.168-.3876-.4135Z"/><path class="cls-61" d="m417.2926,284.7542l.5168.7365,1.7314-.5427.1809-.2326-.1938-.2584-1.7185-.5039-.5168.8011"/><path class="cls-61" d="m419.7218,282.0536l-1.1112.6719.827,1.7831.2843.1809.2843-.1809.827-1.7831-1.1112-.6719"/><path class="cls-61" d="m422.1639,284.7542l-.5039.7365-1.7314-.5427-.1809-.2326.1809-.2584,1.7314-.5039.5039.8011"/><ellipse class="cls-61" cx="419.7347" cy="284.7154" rx=".6331" ry=".6073"/><path class="cls-61" d="m423.3914,285.6716c.0258-.2584-.1034-.4781-.2843-.5039s-.3618.168-.3876.4264c-.0258.2455.0905.4781.2714.491.1809.0258.3618-.168.4006-.4135Z"/><path class="cls-61" d="m424.0246,284.8317l.3359.814,1.809-.168.2326-.2067-.1292-.2843-1.5764-.827-.6719.6719"/><path class="cls-61" d="m426.9706,282.8418l.8657.827-1.1112,1.473-.2972.1163-.2197-.2326-.3876-1.7702,1.15-.4135"/><path class="cls-61" d="m428.7925,285.7878l-.659.6202-1.5764-.8528-.1292-.2714.2455-.2197,1.809-.155.3101.8786"/><ellipse class="cls-61" cx="426.4279" cy="285.2839" rx=".6331" ry=".6073"/><path class="cls-61" d="m429.6453,286.8733c.0775-.2326,0-.4781-.168-.5427-.1809-.0388-.3876.1163-.4781.3489-.0775.2455,0,.491.1809.5427.168.0517.3747-.1034.4652-.3489Z"/><path class="cls-61" d="m432.7335,287.0283c.0129.0129.491-.6202.8528-.9432.2455-.2326.8657-.4264.8657-.4264,0-.1034-.3618-.3618-.7494-.3618-.2326,0-.4523.0905-.5815.2584l-.0517-.2584s-.3101.0646-.4652.4135c-.1421.3747-.0388.9303-.0388.9303,0,0,.0517.2584.168.3876h0Z"/><path class="cls-61" d="m430.2914,286.0204l.1421.8528,1.809.1938.2714-.155-.0646-.2972-1.3567-1.1241-.8011.5298"/><path class="cls-61" d="m432.7464,286.7053c-.1421-.155-.4523-.1163-.6848.0775s-.3101.491-.155.6461c.155.168.4652.1292.6977-.0775.2326-.1938.2972-.491.1421-.6461Z"/></g><g id="crown_pt2-2"><path class="cls-62" d="m409.8887,291.2923l.4006-.6461.8399.168-.491.7236-.7494-.2455"/><path class="cls-63" d="m413.5067,290.6592l-.8916.1421c-.2326.0258-.4523-.1163-.491-.3359-.0258-.2197.1292-.4135.3489-.4523l.9045-.1292.9174-.1421c.2326-.0258.4393.1163.4781.323.0258.2197-.1292.4264-.3489.4523l-.9174.1421"/><ellipse class="cls-60" cx="416.5302" cy="290.0002" rx=".5685" ry=".5298"/><path class="cls-62" d="m419.7735,290.2328h-1.2405c-.2326,0-.4264-.1809-.4264-.4006s.1809-.4006.4135-.4006h2.5326c.2455,0,.4264.1809.4264.4006s-.1938.4006-.4264.4006h-1.2792"/><ellipse class="cls-60" cx="422.9521" cy="290.0002" rx=".5685" ry=".5298"/><path class="cls-63" d="m425.9757,290.6592l.8916.1421c.2326.0258.4523-.1163.491-.3359.0258-.2197-.1163-.4135-.3489-.4523l-.9045-.1292-.9174-.1421c-.2326-.0258-.4523.1163-.4781.323-.0388.2197.1163.4264.3489.4523l.9174.1421"/><path class="cls-62" d="m429.5161,291.3311l-.323-.6848-.8657.0775.4135.7624.7753-.155"/><path class="cls-66" d="m419.7218,293.6957c-3.1399,0-5.9826-.2843-8.1404-.8399,2.1579-.5556,5.0005-.8916,8.1404-.9045,3.1528,0,6.0084.3489,8.1792.9045-2.1708.5556-5.0264.8399-8.1792.8399Z"/><path class="cls-27" d="m421.1948,293.5923v-1.4989m-.7494,1.5505l.0129-1.5893m-.5556,1.6152v-1.6281"/><path class="cls-14" d="m419.4375,293.6827v-1.641"/><path class="cls-22" d="m418.9853,293.6827v-1.641"/><path class="cls-15" d="m418.5718,293.6827v-1.641"/><path class="cls-15" d="m418.1454,293.6827v-1.641"/><path class="cls-3" d="m417.7836,293.6827v-1.641"/><path class="cls-21" d="m417.0729,293.5923l-.0129-1.4859m.3489,1.5118v-1.5635"/><path class="cls-24" d="m416.414,293.5277v-1.3697m.3359,1.4084l-.0129-1.4601"/><path class="cls-12" d="m415.5353,293.4502v-1.2017m.2972,1.2146v-1.2663m.2972,1.318v-1.318"/><path class="cls-32" d="m415.2381,293.4373v-1.1629"/><path class="cls-4" d="m414.9538,293.3856v-1.0983"/><path class="cls-9" d="m414.6437,293.3468v-1.0079"/><path class="cls-23" d="m414.0106,293.2564l-.0129-.8011m.3359.8528v-.9045"/><path class="cls-23" d="m413.6876,293.1918v-.7107"/><path class="cls-11" d="m413.3904,293.1401v-.5944"/><path class="cls-30" d="m413.0673,293.0625v-.4652"/><path class="cls-26" d="m412.7443,293.0238v-.3489"/><path class="cls-35" d="m412.3954,292.9462v-.168"/></g></g><g id="pillar_right"><g id="pillar_left-2"><g><path class="cls-46" d="m439.9048,428.7488c-1.9899,0-3.7601-.4264-5.0781-1.1241-1.2921-.659-3.0494-1.0596-4.9876-1.0596-1.9511,0-3.7472.4135-5.0522,1.0724-1.305.6848-3.1011,1.1112-5.0651,1.1112-1.9899,0-3.773-.4651-5.0781-1.1629-1.2921-.6331-3.0107-1.0208-4.8972-1.0208-1.964,0-3.6955.3747-4.9876,1.0466-1.318.6978-3.1269,1.1371-5.1039,1.1371v3.114c1.977,0,3.7859-.4523,5.1039-1.1371,1.2921-.6719,3.0236-1.0596,4.9876-1.0596,1.8736,0,3.605.4006,4.8972,1.0337,1.305.6848,3.0882,1.1629,5.0781,1.1629,1.964,0,3.7601-.4264,5.0651-1.1112,1.305-.6719,3.1011-1.0854,5.0522-1.0854,1.9382,0,3.6955.4135,4.9876,1.0724,1.318.6978,3.0623,1.1241,5.0522,1.1241l.0258-3.114h0Z"/><path class="cls-43" d="m439.9048,431.8629c-1.9899,0-3.7601-.4264-5.0781-1.1241-1.2921-.659-3.0494-1.0724-4.9876-1.0724-1.9511,0-3.7472.4135-5.0522,1.0854-1.305.6848-3.1011,1.1112-5.0651,1.1112-1.9899,0-3.773-.4781-5.0781-1.1629-1.2921-.6331-3.0107-1.0337-4.8972-1.0337-1.964,0-3.6955.3876-4.9876,1.0596-1.318.6848-3.1269,1.1371-5.1039,1.1371v3.114c1.977,0,3.7859-.4523,5.1039-1.1371,1.2921-.6719,3.0236-1.0596,4.9876-1.0596,1.8736,0,3.605.4006,4.8972,1.0337,1.305.6978,3.0882,1.1629,5.0781,1.1629,1.964,0,3.7601-.4393,5.0651-1.1112s3.1011-1.0854,5.0522-1.0854c1.9382,0,3.6955.4135,4.9876,1.0854,1.318.6848,3.0623,1.1112,5.0522,1.1112l.0258-3.114"/><path class="cls-46" d="m439.9048,434.9769c-1.9899,0-3.7601-.4264-5.0781-1.1112-1.2921-.6719-3.0494-1.0854-4.9876-1.0854-1.9511,0-3.7472.4135-5.0522,1.0854s-3.1011,1.1112-5.0651,1.1112c-1.9899,0-3.773-.4651-5.0781-1.1629-1.2921-.6331-3.0107-1.0337-4.8972-1.0337-1.964,0-3.6955.3876-4.9876,1.0596-1.318.6848-3.1269,1.1371-5.1039,1.1371v3.1011c1.977,0,3.7859-.4393,5.1039-1.1371,1.2921-.659,3.0236-1.0337,4.9876-1.0337,1.8736,0,3.605.3876,4.8972,1.0208,1.305.6978,3.0882,1.15,5.0781,1.15,1.964,0,3.7601-.4135,5.0651-1.0983,1.305-.6719,3.1011-1.0724,5.0522-1.0724,1.9382,0,3.6955.4006,4.9876,1.0596,1.318.7107,3.0623,1.1112,5.0522,1.1112l.0258-3.1011"/><path class="cls-43" d="m439.879,441.205c-1.9899,0-3.7342-.4264-5.0522-1.1241-1.2921-.659-3.0494-1.0596-4.9876-1.0596-1.9511,0-3.7472.4006-5.0522,1.0724s-3.1011,1.1112-5.0651,1.1112c-1.9899,0-3.773-.4781-5.0781-1.1629-1.2921-.6461-3.0107-1.0208-4.8972-1.0208-1.964,0-3.6955.3747-4.9876,1.0466-1.318.6848-3.1269,1.1371-5.1039,1.1371v-3.1011c1.977,0,3.7859-.4651,5.1039-1.1629,1.2921-.659,3.0236-1.0337,4.9876-1.0337,1.8736,0,3.605.3876,4.8972,1.0208,1.305.6978,3.0882,1.15,5.0781,1.15,1.964,0,3.7601-.4135,5.0651-1.0983,1.305-.6719,3.1011-1.0724,5.0522-1.0724,1.9382,0,3.6955.4006,4.9876,1.0596,1.318.7107,3.0882,1.1112,5.0781,1.1112l-.0258,3.127"/><path class="cls-46" d="m439.879,444.319c-1.9899,0-3.7342-.4264-5.0522-1.1112-1.2921-.6719-3.0494-1.0854-4.9876-1.0854-1.9511,0-3.7472.4135-5.0522,1.0854s-3.1011,1.1112-5.0651,1.1112c-1.9899,0-3.773-.4781-5.0781-1.1629-1.2921-.6461-3.0107-1.0337-4.8972-1.0337-1.964,0-3.6955.3876-4.9876,1.0596-1.318.6848-3.1269,1.1371-5.1039,1.1371v-3.0882c1.977,0,3.7859-.4781,5.1039-1.1629,1.2921-.6719,3.0236-1.0466,4.9876-1.0466,1.8736,0,3.605.3876,4.8972,1.0208,1.305.6848,3.0882,1.1629,5.0781,1.1629,1.964,0,3.7601-.4393,5.0651-1.1112s3.1011-1.0724,5.0522-1.0724c1.9382,0,3.6955.4006,4.9876,1.0596,1.318.6978,3.0753,1.1241,5.0781,1.1241l-.0258,3.114h0Z"/></g><g><path class="cls-36" d="m408.4286,415.9568c.0646.2713.168.5168.168.8011,0,1.8865-1.641,3.3983-3.6309,3.3983h29.6414c-2.0028,0-3.6309-1.5118-3.6309-3.3983,0-.2713.0517-.5298.1163-.8011-.168.0646-.3747.0775-.5685.0775h-21.5656c-.168,0-.3747-.0258-.5298-.0775Z"/><path class="cls-42" d="m408.9584,414.0057h21.5656c.7365,0,1.318.4523,1.318,1.0079s-.5815,1.0208-1.318,1.0208h-21.5656c-.7236,0-1.318-.4651-1.318-1.0208s.5944-1.0079,1.318-1.0079Z"/><path class="cls-42" d="m405.0045,427.6893h29.551v-7.5331h-29.551v7.5331Z"/></g><path class="cls-43" d="m409.2426,412.7782h20.9971v-102.8921h-20.9971v102.8921Z"/><path class="cls-19" d="m424.2055,310.0282v102.6725m2.3646-102.6724v102.6724"/><g><path class="cls-42" d="m405.405,301.7198h28.8015v-7.546h-28.8015v7.546h0Z"/><path class="cls-36" d="m408.4286,306.7462c.1809-.0775.3101-.0905.5298-.0905h21.5656c.2197,0,.4135.0388.5944.1034-.7494-.2455-1.2792-.9174-1.2792-1.7056s.5815-1.473,1.3309-1.7185c-.1809.0517-.4264.1034-.6331.1034h-21.5785c-.2197,0-.4264-.0129-.6073-.0775l.1163.0258c.7753.2326,1.2146.9174,1.2146,1.6668,0,.7236-.491,1.4601-1.2534,1.6927h0Z"/><path class="cls-42" d="m408.9584,306.6557h21.5656c.7365,0,1.318.4523,1.318,1.0079,0,.5685-.5815,1.0208-1.318,1.0208h-21.5656c-.7236,0-1.318-.4523-1.318-1.0208,0-.5556.5944-1.0079,1.318-1.0079Z"/><path class="cls-42" d="m408.9584,301.7198h21.5785c.7365,0,1.3309.3876,1.3309.8528,0,.4781-.5944.8657-1.3309.8657h-21.5785c-.7236,0-1.318-.3876-1.318-.8657,0-.4652.5944-.8528,1.318-.8528Z"/></g></g></g><g id="ribbon_right"><g id="ribbon_left-2"><path class="cls-44" d="m436.8554,387.3232c2.9202,1.6798,4.9101,3.4112,4.5871,4.2769-.155.7882-1.0854,1.3826-2.4163,2.2612-2.0932,1.4601-3.3595,4.0573-2.3646,5.259-1.7314-1.3955-2.8298-3.4758-2.8298-5.8016,0-2.4163,1.1629-4.6,3.0236-5.9955Z"/><path class="cls-37" d="m387.858,348.3656c4.5741-1.8865,12.3657-3.2949,21.3072-3.5921,3.0882.0258,6.5123.323,10.0657.9045,12.5595,2.1062,22.1342,7.1196,21.3718,11.2028-.0129.0775-.0517.2584-.0646.336,0,0,4.7033-10.6084,4.7809-11.0089.8399-4.5354-9.7685-10.1044-23.7105-12.4303-4.3803-.7365-8.6443-1.0208-12.3527-.982-8.9157,0-16.6684,1.15-21.346,2.8815l-.0517,12.6887"/><path class="cls-44" d="m430.3431,361.2869c5.8275-.4135,9.7943-1.977,10.2595-4.4062.3618-1.9382-1.6152-4.0961-5.1297-6.0471-1.5635.1809-3.3337.3876-5.1685.3876l.0388,10.0657"/><path class="cls-44" d="m409.2685,353.4178c-3.6438.5556-6.3702,1.4601-7.7269,2.5713l-.1292.2197c-.6461,1.3309,2.5455,4.1607,7.8949,7.3264l-.0388-10.1173"/><path class="cls-37" d="m443.3936,381.1339c.5556-1.6539-5.1297-4.9876-13.1539-7.9337-3.6696-1.3051-6.6932-2.6747-10.4533-4.3286-11.1511-4.9359-19.3819-10.5955-18.3741-12.6499l.1163-.2197c-.5944.491-1.5247,10.6471-1.5247,10.6471-1.0079,1.8865,6.5252,7.4685,16.7977,12.3786,3.282,1.5764,10.2207,4.1348,13.4898,5.2848,5.8663,2.0286,11.6808,5.8663,11.1511,7.2876l1.9511-10.4533v-.0129h0Z"/></g></g><g id="plus_ultra"><path class="cls-68" d="m215.0359,343.4297c2.5713-.9303,4.2511-2.0415,3.4371-4.0573-.5298-1.2921-1.8477-1.5376-3.8376-.814l-3.5017,1.2792,3.1528,7.7915c.3489-.155.6977-.3101,1.0466-.4393.3618-.1292.7365-.2326,1.0983-.336l-1.3955-3.4112v-.0129h0Zm-1.5247-3.76l.8916-.323c.7365-.2713,1.5635.1292,1.9382,1.0337.2714.6848.2067,1.4601-.6461,2.0028-.2714.168-.5944.2972-.9045.4264l-1.2792-3.1399"/><path class="cls-68" d="m223.2538,336.4134c-.3747.1034-.7365.2067-1.1112.2843-.3747.0646-.7624.1163-1.1371.155l1.8219,8.1146,5.6595-1.1371c-.0646-.155-.155-.336-.1809-.491-.0388-.1809-.0388-.3618-.0517-.5298-.9949.2843-2.0803.5944-3.3725.8528l-1.6281-7.2488"/><path class="cls-68" d="m234.5987,343.4038c1.0596-2.946,2.3517-5.7629,3.6309-8.6185-.2326.0388-.4652.0775-.6977.0905s-.4781.0129-.6977,0c-.6848,2.0803-1.5247,4.1477-2.4163,6.2022-1.0596-1.9511-2.2354-3.8634-3.1399-5.8275-.4393.0517-.8916.1163-1.3309.155-.4393.0258-.9045.0129-1.3438.0258,1.6281,2.6618,3.2045,5.3106,4.7033,8.05.2067-.0388.4135-.0775.6461-.1034.2067-.0129.4264.0129.6461.0258"/><path class="cls-68" d="m246.4346,337.1628c.1938-.4006.4006-.7753.6202-1.15-.3101-.2843-1.2405-.7107-2.3387-.814-2.3129-.2326-3.6309.7882-3.7859,2.1837-.3359,2.9202,4.2769,2.6747,4.0573,4.6129-.0905.827-.9691,1.1629-1.9123,1.0724-1.0466-.1034-1.8219-.6848-1.9511-1.5376l-.2843-.0258c-.155.5039-.3747.9949-.6202,1.4859.6848.4393,1.5635.6848,2.3904.7624,2.3646.2455,4.1607-.6978,4.3286-2.2483.2972-2.7781-4.3545-2.9331-4.1736-4.5741.0775-.6848.6073-1.1371,1.809-1.0208.8657.0905,1.3955.5556,1.6281,1.2275l.2326.0258"/><path class="cls-68" d="m400.9472,343.8561c.8011-3.0106,1.8219-5.9179,2.8298-8.8769-.2197.0646-.4523.1163-.6848.1421-.2197.0388-.4651.0517-.6978.0646-.4781,2.1191-1.1371,4.2511-1.8348,6.3831-1.2404-1.8607-2.5843-3.6696-3.6567-5.5561-.4393.0905-.8786.1938-1.318.2584s-.8916.0905-1.3438.1421c1.8736,2.5067,3.6826,5.0264,5.427,7.6365.2067-.0517.4135-.1292.6461-.155.2067-.0258.4264-.0258.6331-.0388"/><path class="cls-68" d="m408.9325,335.0438c-.3747.0129-.7624.0517-1.1371.0388-.3876,0-.7753-.0517-1.15-.0775l-.155,8.2825,5.8016.1034c-.0388-.168-.0775-.3618-.0775-.5298s.0517-.3489.0905-.5168c-1.0466.0646-2.1708.1292-3.5017.1034l.1292-7.4039"/><path class="cls-68" d="m418.0291,336.4005c.9303.0775,1.8219.2455,2.7135.4006-.0129-.168-.0388-.3489-.0258-.5298.0129-.168.0775-.336.1292-.5039l-7.8432-.6461c.0129.1809.0388.3489.0258.5168-.0129.1809-.0775.3489-.1292.5168.8011-.0258,1.7702-.0258,2.8556.0646l-.6848,7.4556c.3747,0,.7624,0,1.1371.0388.3876.0258.7624.0905,1.1371.1421l.6848-7.4556"/><path class="cls-68" d="m421.2465,344.5667c.3747.0646.7624.1163,1.1371.1938.3618.0775.7365.1938,1.0983.2972l.9303-3.7989.1034.0129c.2067.5298.491,1.1629.6331,1.5376l1.1629,2.8685c.4651.0775.9174.1421,1.3567.2326.4651.1034.9045.2326,1.3438.3618l-.4006-.8657c-.6202-1.2921-1.2792-2.5972-1.8219-3.9022,1.4472.0517,2.5584-.4651,2.8427-1.6281.1938-.8011-.1292-1.4342-.8786-1.977-.5685-.4006-1.6539-.6073-2.3646-.7753l-3.1528-.6848-1.9899,8.1275m4.0573-7.0033c.9174.2067,2.0545.3489,2.0545,1.3826-.0129.2713-.0388.4523-.0775.6202-.2972,1.2146-1.2146,1.6281-2.7522,1.1758l.7753-3.1786"/><path class="cls-68" d="m436.1835,347.0605c-.0646.8916-.2326,1.7702-.4006,2.7135.3876.1809.7882.3489,1.1629.5685.3876.2067.7365.4393,1.1112.6719l.7753-9.3421c-.1809-.0775-.3489-.155-.5298-.2455-.168-.0905-.323-.1938-.4781-.3101l-8.2438,5.2331c.2197.1034.4523.2067.659.323.2197.1163.4006.2455.6073.3618.6978-.5815,1.4213-1.0596,2.2483-1.6798l3.0882,1.6927v.0129Zm-2.3387-2.1449l2.7522-1.7702-.323,3.1011-2.4292-1.3309"/></g></g><g id="crown_crest"><path class="cls-62" d="m322.5796,237.5657c8.5797,0,16.2291,1.2792,21.2038,3.2432,2.8427,1.2921,6.6674,2.2354,10.8539,2.8039,3.1916.4264,6.2151.5039,8.8511.3101,3.5275-.0775,8.6185.9562,13.7224,3.2045,4.2123,1.8736,7.7398,4.1477,10.0786,6.3444l-2.0286,1.809-.5815,5.1168-5.5561,6.3573-2.7781,2.3646-6.5769,5.259-3.3595.2714-1.0208,2.9073-42.5239-4.9876-42.6661,4.9876-1.0208-2.9073-3.3725-.2714-6.564-5.259-2.7781-2.3646-5.5562-6.3573-.5685-5.1168-2.0416-1.809c2.3517-2.1966,5.8663-4.4708,10.0786-6.3444,5.1039-2.2483,10.1949-3.282,13.7224-3.2045,2.6359.1938,5.6595.1163,8.8511-.3101,4.1865-.5685,8.0112-1.5118,10.8539-2.8039,4.9876-1.964,12.1977-3.2432,20.7774-3.2432h0Z"/><g><path class="cls-42" d="m291.168,248.8072l1.7831,1.4343,2.6876-4.3932c-2.9073-1.7831-4.9101-4.8842-4.9101-8.4117,0-.4006.0258-.7882.0775-1.1758.2714-5.6078,7.1067-10.2336,15.764-10.2336,4.4966,0,8.5668,1.2275,11.4224,3.2045.0775-.8657.155-1.6152.2714-2.4034-3.1399-1.8348-7.2359-2.946-11.6938-2.946-9.9623,0-17.7538,5.6724-18.1285,12.3657-.0388.4006-.0646.7882-.0646,1.1888,0,3.5663,1.6281,6.7966,4.2123,9.032l-1.4213,2.3387"/><path class="cls-42" d="m291.2843,248.8589c-3.3983-2.5455-5.5174-5.9955-5.5174-9.7943,0-4.3674,2.8685-8.2696,7.2101-10.8668-2.6747,2.1579-4.3028,4.9489-4.5354,8.0499-.0388.4006-.0646.7882-.0646,1.1888,0,3.5663,1.6281,6.7966,4.2123,9.032l-1.305,2.3904"/><path class="cls-42" d="m261.2811,253.2908c-1.9123-2.132-3.0753-4.8972-3.0753-7.9078,0-1.8219.4264-3.5534,1.1758-5.1039,2.7522-5.6595,11.3966-9.7814,21.6561-9.7814,2.791,0,5.4657.2972,7.9337.8657-.5427.5944-.9691,1.2534-1.3955,1.9123-2.0545-.4006-4.2511-.6202-6.5382-.6202-9.3938,0-17.2628,3.6567-19.537,8.5926-.6073,1.2534-.9432,2.6618-.9432,4.1348,0,2.9977,1.4084,5.6854,3.605,7.5202l-3.3983,5.5562-1.8219-1.4472,2.3387-3.7213h0Z"/><path class="cls-42" d="m264.7569,234.6713c-2.468,1.5635-4.3415,3.4758-5.3753,5.6078-.7494,1.5505-1.1758,3.282-1.1758,5.1039,0,3.0107,1.1629,5.7758,3.0753,7.9078l-2.0674,3.3466c-1.977-2.5326-3.1269-5.5045-3.1269-8.6573,0-5.4269,3.45-10.169,8.6702-13.3089h0Z"/><path class="cls-42" d="m323.0836,222.7708c2.2741,0,4.2382,1.4989,4.7033,3.5275.2972,1.7831.491,3.8118.5298,5.9696.0129.2326-.0129.4523-.0129.6719,0,.2584.0517.5298.0646.7882.0775,4.5483.7236,8.5539,1.641,11.0089l-6.9258,6.6415-7.0162-6.6415c.9303-2.455,1.5764-6.4606,1.6668-11.0089,0-.2584.0517-.5298.0517-.7882,0-.2197-.0129-.4393-.0129-.6719.0388-2.1579.2326-4.1865.5298-5.9696.4652-2.0286,2.5067-3.5275,4.7809-3.5275h0Z"/><path class="cls-42" d="m323.0836,224.9287c1.1758,0,2.1708.7494,2.4163,1.7961.2972,1.6927.4781,3.618.5168,5.6595,0,.2067-.0129.4135-.0129.6202,0,.2584.0388.5039.0517.7624.0646,4.2899.6848,8.0758,1.5635,10.4016l-4.5741,4.3286-4.5741-4.3286c.8657-2.3258,1.4859-6.1118,1.5635-10.4016,0-.2584.0517-.5039.0517-.7624,0-.2067-.0129-.4135-.0129-.6202.0388-2.0416.2197-3.9668.5168-5.6595.2326-1.0466,1.318-1.7961,2.4938-1.7961Z"/><path class="cls-42" d="m354.9475,248.8072l-1.7961,1.4343-2.6876-4.3932c2.9202-1.7831,4.923-4.8842,4.923-8.4117,0-.4006-.0258-.7882-.0775-1.1758-.2713-5.6078-7.1067-10.2336-15.764-10.2336-4.5095,0-8.5668,1.2275-11.4224,3.2045-.0775-.8657-.155-1.6152-.2843-2.4034,3.1528-1.8348,7.2359-2.946,11.7067-2.946,9.9623,0,17.7538,5.6724,18.1285,12.3657.0388.4006.0646.7882.0646,1.1888,0,3.5663-1.641,6.7966-4.2252,9.032l1.4342,2.3387"/><path class="cls-42" d="m354.8311,248.8589c3.3983-2.5455,5.5174-5.9955,5.5174-9.7943,0-4.3674-2.8685-8.2696-7.2101-10.8668,2.6747,2.1579,4.3028,4.9489,4.5354,8.0499.0388.4006.0646.7882.0646,1.1888,0,3.5663-1.641,6.7966-4.2252,9.032l1.318,2.3904"/><path class="cls-42" d="m384.8343,253.2908c1.8994-2.132,3.0753-4.8972,3.0753-7.9078,0-1.8219-.4264-3.5534-1.1758-5.1039-2.7652-5.6595-11.3966-9.7814-21.6561-9.7814-2.791,0-5.4657.2972-7.9466.8657.5556.5944.982,1.2534,1.4084,1.9123,2.0415-.4006,4.2511-.6202,6.5382-.6202,9.3938,0,17.2499,3.6567,19.524,8.5926.6073,1.2534.9433,2.6618.9433,4.1348,0,2.9977-1.4084,5.6854-3.605,7.5202l3.3983,5.5562,1.8348-1.4472-2.3387-3.7213Z"/><path class="cls-42" d="m381.3586,234.6713c2.468,1.5635,4.3415,3.4758,5.3753,5.6078.7494,1.5505,1.1758,3.282,1.1758,5.1039,0,3.0107-1.1758,5.7758-3.0753,7.9078l2.0674,3.3466c1.977-2.5326,3.114-5.5045,3.114-8.6573,0-5.4269-3.45-10.169-8.6573-13.3089h0Z"/><ellipse class="cls-59" cx="323.0965" cy="217.6411" rx="5.7241" ry="5.4269"/><path class="cls-61" d="m321.5976,202.4456v2.9202h-3.1269v2.9719h3.1269v8.541h-3.941c-.0388.2714-.2843.4781-.2843.7624,0,.7494.155,1.473.4523,2.1191,0,.0258.0258.0258.0388.0388h10.4921c0-.0129.0258-.0129.0388-.0388.2843-.6461.4523-1.3697.4523-2.1191,0-.2843-.2455-.491-.2843-.7624h-3.8247v-8.5409h3.1269v-2.9719h-3.1269v-2.9202h-3.1399Z"/></g><g><ellipse class="cls-48" cx="323.0836" cy="245.6027" rx="2.468" ry="2.3258"/><ellipse class="cls-48" cx="323.0836" cy="241.0286" rx="2.468" ry="2.3258"/><ellipse class="cls-48" cx="323.0836" cy="236.1185" rx="1.964" ry="1.8607"/><ellipse class="cls-48" cx="323.0836" cy="231.6994" rx="1.4213" ry="1.3438"/><ellipse class="cls-48" cx="323.0836" cy="227.823" rx="1.1371" ry="1.0725"/><ellipse class="cls-48" cx="257.0559" cy="258.1751" rx="1.4213" ry="1.3438"/><ellipse class="cls-48" cx="255.1177" cy="254.751" rx="1.4213" ry="1.3438"/><ellipse class="cls-48" cx="253.8255" cy="250.7712" rx="1.4213" ry="1.3438"/><ellipse class="cls-48" cx="253.6576" cy="246.5072" rx="1.4213" ry="1.3438"/><ellipse class="cls-48" cx="254.7042" cy="242.3207" rx="1.4213" ry="1.3438"/><ellipse class="cls-48" cx="256.8879" cy="238.5089" rx="1.4213" ry="1.3438"/><ellipse class="cls-48" cx="259.7952" cy="235.369" rx="1.4213" ry="1.3438"/><ellipse class="cls-48" cx="263.1805" cy="232.7719" rx="1.4213" ry="1.3438"/><ellipse class="cls-48" cx="267.212" cy="230.6399" rx="1.4213" ry="1.3438"/><ellipse class="cls-48" cx="271.3985" cy="229.1281" rx="1.4213" ry="1.3438"/><ellipse class="cls-48" cx="276.076" cy="228.2882" rx="1.4213" ry="1.3438"/><ellipse class="cls-48" cx="280.5209" cy="228.0556" rx="1.4213" ry="1.3438"/><ellipse class="cls-48" cx="284.8754" cy="228.2106" rx="1.4213" ry="1.3438"/><ellipse class="cls-48" cx="289.7079" cy="247.3858" rx="1.4213" ry="1.3438"/><ellipse class="cls-48" cx="287.2916" cy="243.9358" rx="1.4213" ry="1.3438"/><ellipse class="cls-48" cx="286.0124" cy="240.1887" rx="1.4213" ry="1.3438"/><ellipse class="cls-48" cx="286.1675" cy="236.0797" rx="1.4213" ry="1.3438"/><ellipse class="cls-48" cx="287.0591" cy="231.9449" rx="1.4213" ry="1.3438"/><ellipse class="cls-48" cx="289.2298" cy="228.2106" rx="1.4213" ry="1.3438"/><ellipse class="cls-48" cx="292.5377" cy="225.6135" rx="1.4213" ry="1.3438"/><ellipse class="cls-48" cx="296.4011" cy="223.4685" rx="1.4213" ry="1.3438"/><ellipse class="cls-48" cx="300.6781" cy="222.1893" rx="1.4213" ry="1.3438"/><ellipse class="cls-48" cx="305.1101" cy="221.427" rx="1.4213" ry="1.3438"/><ellipse class="cls-48" cx="309.4646" cy="221.4916" rx="1.4213" ry="1.3438"/><ellipse class="cls-48" cx="313.9741" cy="222.2539" rx="1.4213" ry="1.3438"/><ellipse class="cls-48" cx="318.1606" cy="223.7011" rx="1.4213" ry="1.3438"/><ellipse class="cls-48" cx="327.942" cy="223.7011" rx="1.4213" ry="1.3438"/><ellipse class="cls-48" cx="332.1285" cy="222.2539" rx="1.4213" ry="1.3438"/><ellipse class="cls-48" cx="336.6509" cy="221.4916" rx="1.4213" ry="1.3438"/><ellipse class="cls-48" cx="340.9925" cy="221.427" rx="1.4213" ry="1.3438"/><ellipse class="cls-48" cx="345.4374" cy="222.1893" rx="1.4213" ry="1.3438"/><ellipse class="cls-48" cx="349.7014" cy="223.4685" rx="1.4213" ry="1.3438"/><ellipse class="cls-48" cx="353.5778" cy="225.6135" rx="1.4213" ry="1.3438"/><ellipse class="cls-48" cx="356.8727" cy="228.2106" rx="1.4213" ry="1.3438"/><ellipse class="cls-48" cx="359.0564" cy="231.9449" rx="1.4213" ry="1.3438"/><ellipse class="cls-48" cx="359.948" cy="236.0797" rx="1.4213" ry="1.3438"/><ellipse class="cls-48" cx="360.103" cy="240.1887" rx="1.4213" ry="1.3438"/><ellipse class="cls-48" cx="358.8109" cy="243.9358" rx="1.4213" ry="1.3438"/><ellipse class="cls-48" cx="356.4075" cy="247.3858" rx="1.4213" ry="1.3438"/><ellipse class="cls-48" cx="361.2401" cy="228.2106" rx="1.4213" ry="1.3438"/><ellipse class="cls-48" cx="365.5946" cy="228.0556" rx="1.4213" ry="1.3438"/><ellipse class="cls-48" cx="370.0395" cy="228.2882" rx="1.4213" ry="1.3438"/><ellipse class="cls-48" cx="374.717" cy="229.1281" rx="1.4213" ry="1.3438"/><ellipse class="cls-48" cx="378.9035" cy="230.6399" rx="1.4213" ry="1.3438"/><ellipse class="cls-48" cx="382.9349" cy="232.7719" rx="1.4213" ry="1.3438"/><ellipse class="cls-48" cx="386.3074" cy="235.369" rx="1.4213" ry="1.3438"/><ellipse class="cls-48" cx="389.2147" cy="238.5089" rx="1.4213" ry="1.3438"/><ellipse class="cls-48" cx="391.3984" cy="242.3207" rx="1.4213" ry="1.3438"/><ellipse class="cls-48" cx="392.445" cy="246.5072" rx="1.4213" ry="1.3438"/><ellipse class="cls-48" cx="392.2899" cy="250.7712" rx="1.4213" ry="1.3438"/><ellipse class="cls-48" cx="390.9978" cy="254.751" rx="1.4213" ry="1.3438"/><ellipse class="cls-48" cx="389.0596" cy="258.1751" rx="1.4213" ry="1.3438"/></g><g><path class="cls-42" d="m323.2257,293.7215c-15.8415-.0258-30.042-1.8994-40.1722-4.9489-.7365-.2326-1.1241-.9045-1.0854-1.6152-.0129-.6719.3747-1.2921,1.0854-1.5118,10.1303-3.0494,24.3308-4.923,40.1722-4.9489,15.8544.0258,30.042,1.8994,40.1722,4.9489.7107.2197,1.0854.8399,1.0724,1.5118.0388.7107-.3489,1.3826-1.0724,1.6152-10.1303,3.0494-24.3179,4.923-40.1722,4.9489"/><path class="cls-42" d="m323.1224,280.6839c-16.0353.0388-30.4296,2.0416-40.5599,5.1685.8399-.4006.7624-1.4472-.2843-4.1348-1.2663-3.2691-3.2303-3.1269-3.2303-3.1269,11.1898-3.3078,26.7858-5.3753,44.1391-5.4011,17.3662.0258,33.0785,2.0932,44.2812,5.4011,0,0-1.977-.1421-3.2433,3.1269-1.0466,2.6876-1.1241,3.7342-.2713,4.1348-10.1303-3.1269-24.7959-5.1297-40.8312-5.1685"/><path class="cls-42" d="m323.1869,273.2025c-17.3533.0258-32.9493,2.0932-44.1391,5.4011-.7494.2197-1.5376-.0646-1.7831-.7753s.155-1.5247.9045-1.7444c11.2544-3.45,27.2381-5.6208,45.0177-5.6595,17.7926.0388,33.8408,2.2095,45.0953,5.6595.7494.2197,1.15,1.0337.9045,1.7444s-1.0337.9949-1.7831.7753c-11.2028-3.3078-26.8504-5.3753-44.2166-5.4011"/><path class="cls-42" d="m323.2903,259.6094l1.5893.2843c-.2455.6461-.3101,1.3567-.3101,2.1062,0,3.3208,2.8556,6.0084,6.3573,6.0084,2.8168,0,5.2202-1.7444,6.0343-4.1477.1034.0646.6073-2.1708.8786-2.1449.2197.0258.1938,2.3258.2843,2.2871.4006,3.0236,3.1786,5.0781,6.2927,5.0781,3.5017,0,6.3444-2.6876,6.3444-6.0084,0-.2455-.0129-.491-.0517-.7365l1.9899-1.964,1.0724,2.5067c-.4264.7882-.5944,1.6798-.5944,2.623,0,3.1786,2.7135,5.737,6.0601,5.737,2.1062,0,3.9539-1.0079,5.0393-2.5455l1.2792-1.6152-.0129,1.977c0,2.0028.8528,3.7859,2.791,4.109,0,0,2.2354.1292,5.2073-2.1966,2.959-2.3258,4.587-4.2511,4.587-4.2511l.2584,2.3258s-2.455,3.8118-5.1297,5.3623c-1.473.8528-3.6955,1.7444-5.4657,1.4601-1.8607-.3101-3.2045-1.809-3.8893-3.5404-1.3309.7882-2.9073,1.2534-4.587,1.2534-3.6309,0-6.887-1.9899-8.1663-4.9876-1.6669,1.809-3.9927,2.9073-6.7191,2.9073-2.8944,0-5.5432-1.305-7.1972-3.3078-1.641,1.4989-3.8506,2.4163-6.3056,2.4163-3.2045,0-6.0601-1.5764-7.6752-3.941-1.6152,2.3646-4.4708,3.941-7.6752,3.941-2.4421,0-4.6646-.9174-6.2927-2.4163-1.6539,2.0028-4.3157,3.3078-7.2101,3.3078-2.7264,0-5.0393-1.0983-6.7061-2.9073-1.2921,2.9977-4.5483,4.9876-8.1663,4.9876-1.6927,0-3.2562-.4652-4.5871-1.2534-.6977,1.7314-2.0286,3.2303-3.9022,3.5404-1.7573.2843-3.9798-.6073-5.4528-1.4601-2.6876-1.5505-5.1427-5.3623-5.1427-5.3623l.2584-2.3258s1.641,1.9253,4.6,4.2511c2.959,2.3387,5.1944,2.1966,5.1944,2.1966,1.9511-.323,2.791-2.1062,2.791-4.109l-.0129-1.977,1.2792,1.6152c1.0854,1.5376,2.946,2.5455,5.0393,2.5455,3.3466,0,6.0601-2.5584,6.0601-5.737,0-.9432-.168-1.8348-.5944-2.623l1.0725-2.5067,1.9899,1.964c-.0258.2455-.0517.491-.0517.7365,0,3.3208,2.8427,6.0084,6.3444,6.0084,3.1269,0,5.8921-2.0545,6.3056-5.0781.0775.0388.0646-2.2612.2843-2.2871.2584-.0258.7753,2.2095.8657,2.1449.827,2.4034,3.2174,4.1477,6.0471,4.1477,3.5017,0,6.3444-2.6876,6.3444-6.0084,0-.7494-.0388-1.4601-.3101-2.1062l1.6668-.2843"/><path class="cls-42" d="m269.2406,268.0599c-.1421-.4781-.4523-.9691-.9303-1.3697-1.0208-.8786-2.3775-1.0208-3.0494-.323-.0905.0905-.168.2197-.2197.323,0,0-1.4343-2.6876-3.114-3.5921-1.6668-.9045-4.5095-.6719-4.5095-.6719,0-2.0674,1.6798-3.7342,3.8635-3.7342,1.2792,0,2.4809.5298,3.2045,1.4343l.2972-1.3826s1.7573.3489,2.5584,2.3517-.0775,4.9101-.0775,4.9101c0,0,.4393-1.2405,1.0983-2.0803.659-.827,2.3387-1.7314,3.2174-2.1449.8657-.4006,1.7702-1.0208,1.7702-1.0208,0,0,.0388.2326.0646.7882.0388.659-.0129,1.0725-.0129,1.0725,1.6022-.2197,3.4758.0517,4.9489.6202-.6331,1.2275-1.8219,2.3775-3.3854,2.9719,0,0,.5685.4652,1.0725.9691.4393.4393.5685.6331.5685.6331,0,0-1.0983.168-1.641.2455-.5556.0646-2.3775.3618-3.4758.2843-.8011-.0517-1.7056-.1809-2.2483-.2843"/><path class="cls-44" d="m265.2609,266.3672c.6719-.6977,2.0286-.5556,3.0494.323,1.0337.8657,1.318,2.1449.659,2.8298-.659.6977-2.0286.5427-3.0494-.323-1.0208-.8786-1.318-2.1449-.659-2.8298"/><path class="cls-48" d="m279.6035,267.5301c-.3618-1.0725-.0388-2.132.7365-2.3646.7753-.2455,1.7056.4264,2.0674,1.4989s.0388,2.132-.7365,2.3775c-.7753.2326-1.6927-.4393-2.0674-1.5118"/><path class="cls-42" d="m292.1759,262.297c-.4264-.3489-.7624-.827-.8657-1.3955s.0129-1.1241.2972-1.5893c0,0-1.1371-.5685-2.3646-.8916-.9303-.2455-2.5713-.2584-3.0623-.2584-.491-.0258-1.4859-.0388-1.4859-.0388,0,0,.0905.2197.3618.7107.3489.5944.6461.9691.6461.9691-1.641.3747-3.0365,1.4472-3.9151,2.7005,1.2792.8786,2.9719,1.4213,4.6517,1.2534,0,0-.155.4393-.2584,1.1112-.0775.5556-.0775.7882-.0775.7882,0,0,.9174-.3359,1.3826-.5039.4523-.168,1.9899-.7107,2.7781-1.2405,1.0337-.6977,1.9123-1.6152,1.9123-1.6152"/><path class="cls-42" d="m291.6073,249.1043c1.3697.8657,2.5584,2.3129,2.9719,3.9151,0,0,.168-.323.9174-.7624.7624-.4264,1.4084-.4135,1.4084-.4135,0,0-.2197,1.2534-.323,1.7056-.1163.4393-.1163,1.7831-.4135,2.9977-.2972,1.2017-.814,2.1708-.814,2.1708-.5427-.4393-1.2792-.659-2.0416-.5298-.7494.1292-1.3697.5685-1.7056,1.1629,0,0-.8528-.7494-1.5635-1.7831-.7107-1.0466-1.2017-2.3-1.4601-2.6876-.2714-.3876-.9303-1.4859-.9303-1.4859,0,0,.6073-.2326,1.473-.0646.8657.155,1.1371.4135,1.1371.4135-.1809-1.6539.3618-3.3854,1.3438-4.6387"/><path class="cls-42" d="m295.8585,261.6768c.2843-.4523.4135-1.0208.3101-1.5893s-.4135-1.0466-.8528-1.3826c0,0,.8657-.9174,1.8994-1.6281.7753-.5298,2.3258-1.0596,2.7781-1.2275.4652-.168,1.3826-.5168,1.3826-.5168,0,0,0,.2326-.0775.7882-.1034.6719-.2584,1.1241-.2584,1.1241,1.6798-.1809,3.3854.3747,4.6646,1.2663-.8916,1.2534-2.2871,2.3129-3.9281,2.6876,0,0,.2972.3618.6461.9562.2714.5039.3618.7236.3618.7236,0,0-.9949-.0258-1.4859-.0388-.491,0-2.132-.0129-3.0623-.2584-1.2275-.323-2.3775-.8916-2.3775-.8916"/><ellipse class="cls-44" cx="293.791" cy="260.4751" rx="2.8039" ry="2.6618"/><path class="cls-48" d="m307.2162,262.1807c-.1421-1.1241.4006-2.1062,1.2017-2.1966.814-.0905,1.5893.7365,1.7314,1.8607.1421,1.1112-.3876,2.1062-1.2017,2.1966-.8011.0905-1.5764-.7365-1.7314-1.8607"/><path class="cls-42" d="m321.0937,259.674c-.4135-.4652-.6848-1.0596-.6848-1.7185,0-.6461.2455-1.2534.659-1.7056,0,0-1.15-.8657-2.4421-1.4472-.9949-.4523-2.8168-.7624-3.3595-.8657-.5556-.1034-1.6539-.3101-1.6539-.3101,0,0,.0517.2584.2584.8657.2584.7236.5168,1.2017.5168,1.2017-1.8994.1034-3.6826,1.0466-4.923,2.2741,1.2405,1.2146,3.0236,2.1449,4.923,2.2612,0,0-.2584.4652-.5168,1.2017-.2067.5944-.2584.8657-.2584.8657,0,0,1.0983-.2067,1.6539-.3101.5427-.1034,2.3646-.4135,3.3595-.8657,1.2921-.5944,2.468-1.4343,2.468-1.4343"/><path class="cls-42" d="m323.174,244.8533c1.3567,1.2275,2.3904,3.0494,2.5196,4.9359,0,0,.2455-.3489,1.1758-.6848.9432-.3359,1.6539-.2067,1.6539-.2067,0,0-.5039,1.3567-.7107,1.8348-.2197.4781-.5039,1.977-1.0854,3.2691-.5685,1.2921-1.3567,2.2741-1.3567,2.2741-.5168-.5815-1.2921-.9691-2.1579-.9691-.8786,0-1.641.3876-2.1579.9691,0,0-.7882-.982-1.3567-2.2741-.5815-1.2921-.8657-2.791-1.0854-3.2691s-.7236-1.8348-.7236-1.8348c0,0,.7236-.1292,1.6539.2067s1.1888.6848,1.1888.6848c.1292-1.8865,1.1112-3.7084,2.4421-4.9359"/><path class="cls-42" d="m325.306,259.674c.4264-.4652.6848-1.0596.6848-1.7185,0-.6461-.2455-1.2534-.659-1.7056,0,0,1.15-.8657,2.455-1.4472.982-.4523,2.8039-.7624,3.3595-.8657.5427-.1034,1.6281-.3101,1.6281-.3101,0,0-.0258.2584-.2455.8657-.2584.7236-.5168,1.2017-.5168,1.2017,1.8994.1034,3.6955,1.0466,4.923,2.2741-1.2275,1.2146-3.0106,2.1449-4.923,2.2612,0,0,.2584.4652.5168,1.2017.2067.5944.2455.8657.2455.8657l-1.6281-.3101c-.5556-.1034-2.3775-.4135-3.3595-.8657-1.305-.5944-2.4809-1.4343-2.4809-1.4343"/><ellipse class="cls-44" cx="323.2128" cy="257.9554" rx="2.8039" ry="2.6618"/><path class="cls-48" d="m339.2868,262.1807c.1421-1.1241-.3876-2.1062-1.2017-2.1966s-1.5893.7365-1.7314,1.8607c-.1421,1.1112.4006,2.1062,1.2017,2.1966.814.0905,1.5893-.7365,1.7314-1.8607"/><path class="cls-42" d="m350.6576,261.6768c-.2843-.4523-.4135-1.0208-.323-1.5893.1163-.5685.4264-1.0466.8657-1.3826,0,0-.8657-.9174-1.8994-1.6281-.7882-.5298-2.3258-1.0596-2.791-1.2275-.4523-.168-1.3697-.5168-1.3697-.5168,0,0-.0129.2326.0775.7882.1034.6719.2455,1.1241.2455,1.1241-1.6669-.1809-3.3724.3747-4.6517,1.2663.8786,1.2534,2.2871,2.3129,3.9151,2.6876,0,0-.2972.3618-.6331.9562-.2843.5039-.3618.7236-.3618.7236l1.473-.0388c.491,0,2.1449-.0129,3.0623-.2584,1.2275-.323,2.3775-.8916,2.3775-.8916"/><path class="cls-42" d="m354.9087,249.1043c-1.3697.8657-2.5584,2.3129-2.9848,3.9151,0,0-.155-.323-.9174-.7624-.7494-.4264-1.4084-.4135-1.4084-.4135,0,0,.2197,1.2534.336,1.7056.1163.4393.1163,1.7831.4006,2.9977.2972,1.2017.827,2.1708.827,2.1708.5427-.4393,1.2792-.659,2.0286-.5298.7624.1292,1.3697.5685,1.7185,1.1629,0,0,.8528-.7494,1.5635-1.7831.6978-1.0466,1.1888-2.3,1.4472-2.6876.2713-.3876.9303-1.4859.9303-1.4859,0,0-.6073-.2326-1.473-.0646-.8657.155-1.1371.4135-1.1371.4135.1938-1.6539-.3618-3.3854-1.3309-4.6387"/><path class="cls-42" d="m354.3272,262.297c.4393-.3489.7753-.827.8657-1.3955.1163-.5685,0-1.1241-.2843-1.5893,0,0,1.1371-.5685,2.3646-.8916.9303-.2455,2.5713-.2584,3.0494-.2584.5039-.0258,1.4859-.0388,1.4859-.0388,0,0-.0775.2197-.3618.7107-.336.5944-.6331.9691-.6331.9691,1.6281.3747,3.0236,1.4472,3.9151,2.7005-1.2792.8786-2.9848,1.4213-4.6517,1.2534,0,0,.1421.4393.2455,1.1112.0775.5556.0775.7882.0775.7882,0,0-.9174-.3359-1.3697-.5039-.4651-.168-2.0028-.7107-2.791-1.2405-1.0208-.6977-1.9124-1.6152-1.9124-1.6152"/><ellipse class="cls-44" cx="352.725" cy="260.4751" rx="2.8039" ry="2.6618"/><path class="cls-48" d="m366.9125,267.5301c.3618-1.0725.0388-2.132-.7365-2.3646-.7753-.2455-1.7056.4264-2.0803,1.4989-.3618,1.0725-.0388,2.132.7365,2.3775.7753.2326,1.7056-.4393,2.0803-1.5118"/><path class="cls-42" d="m377.2625,268.0599c.1421-.4781.4651-.9691.9303-1.3697,1.0208-.8786,2.3904-1.0208,3.0494-.323.0905.0905.1809.2197.2326.323,0,0,1.4213-2.6876,3.1011-3.5921s4.5224-.6719,4.5224-.6719c0-2.0674-1.6927-3.7342-3.8764-3.7342-1.2792,0-2.4809.5298-3.1916,1.4343l-.2972-1.3826s-1.7573.3489-2.5584,2.3517.0646,4.9101.0646,4.9101c0,0-.4264-1.2405-1.0854-2.0803-.659-.827-2.3387-1.7314-3.2174-2.1449-.8786-.4006-1.7702-1.0208-1.7702-1.0208,0,0-.0388.2326-.0775.7882-.0258.659.0258,1.0725.0258,1.0725-1.6152-.2197-3.4888.0517-4.9488.6202.6202,1.2275,1.809,2.3775,3.3724,2.9719,0,0-.5556.4652-1.0724.9691-.4264.4393-.5556.6331-.5556.6331,0,0,1.0983.168,1.641.2455.5556.0646,2.3775.3618,3.4629.2843.814-.0517,1.7056-.1809,2.2483-.2843"/><path class="cls-44" d="m381.2422,266.3672c-.659-.6977-2.0286-.5556-3.0494.323-1.0208.8657-1.318,2.1449-.659,2.8298.659.6977,2.0286.5427,3.0494-.323,1.0208-.8786,1.318-2.1449.659-2.8298"/></g><g><path class="cls-37" d="m323.1869,291.6412c-14.2909-.0129-27.2251-1.6668-37.0582-4.2123,9.8331-2.5455,22.7673-4.096,37.0582-4.1219,14.3039.0258,27.3027,1.5764,37.1357,4.1219-9.8331,2.5455-22.8319,4.1994-37.1358,4.2123h0Z"/><path class="cls-3" d="m333.4206,291.2665v-7.7657m-3.9022,8.0241l.0517-8.2308m-2.8944,8.3342v-8.3859"/><path class="cls-32" d="m324.2594,291.7316v-8.4893"/><path class="cls-30" d="m321.9465,291.7316v-8.4893"/><path class="cls-35" d="m319.7757,291.7316v-8.4893"/><path class="cls-13" d="m317.6179,291.7316v-8.4893"/><path class="cls-28" d="m315.6926,291.7316v-8.4893"/><path class="cls-18" d="m312.023,291.2665l-.0517-7.714m1.7961,7.8174v-8.0758"/><path class="cls-33" d="m308.6376,290.9176v-7.1067m1.7185,7.3134l-.0517-7.5719"/><path class="cls-5" d="m304.1022,290.517v-6.2539m1.4859,6.3573v-6.564m1.5376,6.7708v-6.8224"/><path class="cls-17" d="m302.5129,290.4654v-6.0471"/><path class="cls-7" d="m301.027,290.1552v-5.6337"/><path class="cls-29" d="m299.4377,290.0131v-5.246"/><path class="cls-25" d="m296.1815,289.5479l-.0517-4.1607m1.7185,4.3674v-4.6775"/><path class="cls-20" d="m294.5146,289.1991v-3.6696"/><path class="cls-2" d="m292.977,288.9019v-3.0494"/><path class="cls-34" d="m291.3102,288.4884v-2.3904"/><path class="cls-31" d="m289.5916,288.2946v-1.7831"/><path class="cls-16" d="m287.7827,287.8811v-.8657"/><path class="cls-19" d="m284.4231,287.8811c10.014-2.8168,23.633-4.5483,38.7638-4.5741,15.1437.0258,28.8274,1.7573,38.8414,4.5741"/><path class="cls-44" d="m280.0299,282.0665l1.5764-2.0545,4.3545.5556-3.4758,2.5326-2.455-1.0337"/><path class="cls-48" d="m289.4753,279.6373c0-.7494.6331-1.3438,1.4213-1.3438s1.4213.5944,1.4213,1.3438c0,.7365-.6331,1.3438-1.4213,1.3438s-1.4213-.6073-1.4213-1.3438"/><path class="cls-45" d="m301.8927,279.366l-3.0494.3489c-.7882.0905-1.5118-.4264-1.6022-1.1629-.1034-.7365.4523-1.4084,1.2405-1.4859l3.0623-.3618,3.1269-.3618c.7753-.0905,1.4859.4264,1.5764,1.1629s-.4652,1.4084-1.2405,1.4989l-3.114.3618"/><path class="cls-48" d="m310.8084,277.1435c0-.7494.6331-1.3438,1.4213-1.3438.7753,0,1.4213.5944,1.4213,1.3438,0,.7365-.6461,1.3438-1.4213,1.3438-.7882,0-1.4213-.6073-1.4213-1.3438"/><path class="cls-44" d="m323.2257,278.1902h-4.2511c-.7753,0-1.4343-.5944-1.4343-1.3309,0-.7494.6331-1.3438,1.4213-1.3438h8.5797c.7882,0,1.4213.5944,1.4213,1.3438,0,.7365-.659,1.3309-1.4343,1.3309h-4.3028"/><path class="cls-48" d="m332.8004,277.1435c0-.7494.6461-1.3438,1.4213-1.3438.7882,0,1.4213.5944,1.4213,1.3438,0,.7365-.6331,1.3438-1.4213,1.3438-.7753,0-1.4213-.6073-1.4213-1.3438"/><path class="cls-45" d="m344.5587,279.366l3.0494.3489c.7753.0905,1.5118-.4264,1.6022-1.1629s-.4651-1.4084-1.2404-1.4859l-3.0623-.3618-3.127-.3618c-.7882-.0905-1.4859.4264-1.5764,1.1629-.1034.7365.4651,1.4084,1.2404,1.4989l3.114.3618"/><path class="cls-48" d="m354.1334,279.6373c0-.7494.6331-1.3438,1.4213-1.3438s1.4213.5944,1.4213,1.3438c0,.7365-.6331,1.3438-1.4213,1.3438s-1.4213-.6073-1.4213-1.3438"/><path class="cls-44" d="m366.4086,282.0665l-1.5635-2.0545-4.3545.5556,3.4758,2.5326,2.4421-1.0337"/></g></g><g id="shield"><g id="Granada"><path class="cls-51" d="m323.665,446.3864c-16.901,0-33.6599-4.1348-47.7441-11.0348-10.3758-5.1427-17.2628-15.5055-17.2628-27.3802v-43.0278h129.7554v43.0278c0,11.8747-6.8741,22.2375-17.2628,27.3802-14.0842,6.9-30.5717,11.0348-47.4857,11.0348h0Z"/><path class="cls-49" d="m326.792,427.2887c2.7005.814,4.0702,2.8298,4.0702,5.1814,0,3.0753-2.9719,5.4011-6.8483,5.4011-3.8635,0-7.0033-2.3258-7.0033-5.4011,0-2.3129,1.2921-4.9101,3.9798-5.091,0,0-.0775-.2455-.3101-.6461-.2843-.2972-.827-.8528-.827-.8528,0,0,1.0208-.1938,1.6152.0258.5944.2326.9949.6073.9949.6073,0,0,.2714-.5556.6719-.982.3876-.4264.9045-.6848.9045-.6848,0,0,.5944.491.7882.827.1938.3489.323.7624.323.7624,0,0,.5427-.4523,1.0208-.6331.4781-.1938,1.0854-.336,1.0854-.336,0,0-.168.5944-.2843.8916s-.1809.9303-.1809.9303"/><path class="cls-53" d="m323.4454,441.205s-5.1427-3.4629-7.3651-3.9281c-2.8556-.6073-6.0601-.1163-7.4426-.1938.0388.0388,1.6668,1.2017,2.3775,1.9124s3.0882,2.132,4.432,2.468c4.1607,1.0466,7.9983-.2584,7.9983-.2584"/><path class="cls-53" d="m324.9184,441.5151s3.282-3.4371,6.732-3.9022c4.0702-.5685,6.7449.336,8.3213.7494.0388,0-1.3051.6331-2.0157,1.1241-.7107.4781-2.5455,2.0286-5.3494,2.0545-2.8168.0388-5.9179-.2972-6.4219-.2197-.5168.0775-1.2663.1938-1.2663.1938"/><path class="cls-52" d="m323.9235,437.2769c-1.2921-1.2017-2.0932-2.9073-2.0932-4.8067,0-1.8865.8011-3.5921,2.1062-4.7938,1.2792,1.2017,2.0803,2.9073,2.0803,4.7938,0,1.8994-.8011,3.605-2.0932,4.8067"/><path class="cls-53" d="m322.6184,444.2931s.7882-1.964.8657-3.6567c.0775-1.4084-.1938-2.8039-.1938-2.8039h1.0337s.5039,1.4989.5039,2.8039c0,1.318-.2326,3.0623-.2326,3.0623,0,0-.7107.1034-.9432.2197-.2455.1163-1.0337.3747-1.0337.3747"/></g><g id="Aragon"><path class="cls-52" d="m323.4454,407.9327c0,17.0044-14.4201,30.7785-32.3678,30.7785s-32.497-13.7741-32.497-30.7785v-43.0925h64.8648v43.0925"/><path class="cls-50" d="m258.4643,407.3512c.1938,9.0707,3.8118,15.8286,7.4039,20.2477v-63.9216h-7.3134l-.0905,43.6739h0Z"/><path class="cls-50" d="m272.7423,433.3359c2.0286,1.0724,4.8067,2.8685,7.7915,3.5792l-.1938-73.5996h-7.5977v70.0204Z"/><path class="cls-50" d="m287.2141,438.5303c2.9719.2972,5.1814.2455,7.5848,0v-75.2147h-7.5848v75.2147Z"/><path class="cls-50" d="m301.4792,436.9151c2.9719-.5944,6.3314-2.4421,7.7915-3.3983v-70.2013h-7.5977l-.1938,73.5996h0Z"/><path class="cls-50" d="m316.3257,426.8882c3.1657-2.8168,6.1376-9.1999,7.223-16.4876l.1809-47.0851h-7.5848l.1809,63.5727Z"/></g><g id="Navarre"><path class="cls-52" d="m388.4781,364.8402v43.0925c0,17.0044-14.5752,30.7785-32.5229,30.7785-17.9606,0-32.5099-13.7741-32.5099-30.7785v-43.0925h65.0328"/><path id="chains_half" class="cls-69" d="m352.3761,397.0401c.0646-.1809.155-.3489.2455-.5168l-5.5045-6.1247-2.1579.9303-3.9539-4.3803,1.2921-1.8865-6.9-7.7398c-.0905.0258-.2584.0258-.3489.0517l.0388,5.1943,2.2612.6461v5.7629l-2.2612.6202-.0388,5.2719c1.0854.336,1.9124,1.1371,2.2483,2.1579l4.1477.0129.659-2.1579h6.0988l.6461,2.1579h3.5275Zm-9.0191-23.9044v2.0803h3.5663v-2.0803h-3.5663Zm-9.4325,26.3206c.827,0,1.4989-.6331,1.4989-1.4213s-.6719-1.4342-1.4989-1.4342c-.8399,0-1.5118.6461-1.5118,1.4342s.6719,1.4213,1.5118,1.4213Zm20.6611-12.5724l-2.2742-.6202v-5.7629l2.2742-.6461-.0129-2.4809c-1.0983-.323-1.9511-1.1241-2.3129-2.1579h-3.4629l-.659,2.1579h-6.0859l-.659-2.1579h-3.9927c-.1034.2843-.2197.5427-.3747.7882l6.9517,7.7011,2.1579-.9174,3.9539,4.3932-1.2921,1.8736,5.4011,5.9955c.1163-.0517.2326-.1034.3618-.155l.0259-8.0112Zm-9.3679-1.7961l-1.6669,1.3438,2.2871,2.5584,1.6669-1.3567-2.2871-2.5455Zm10.3426,46.7568c-1.6022-.084-2.9139-1.1657-3.2488-2.6048-2.1579-.2972-4.1994-.8528-6.1118-1.6798l1.0854-1.8477c1.6669.7107,3.4371,1.1758,5.2719,1.4342.4006-.8528,1.1112-1.4989,2.0415-1.809l.0129-7.2618-2.2742-.6331v-5.7629l2.2742-.6202v-9.8719c-.0905-.0258-.168-.0646-.2584-.1163l-5.1427,5.7112,1.2921,1.8607-3.9539,4.3932-2.1579-.9174-4.264,4.7421c.7365,1.1241.7107,2.5843-.1421,3.6826,1.2146,1.3567,2.623,2.5584,4.1865,3.5534l-1.0854,1.8607c-1.8348-1.15-3.4888-2.5713-4.8972-4.1607-1.1241.336-2.4033.1421-3.3595-.6461-1.4859-1.2017-1.6669-3.3078-.3876-4.7034l.1809-.2067c-.8916-2.0157-1.4989-4.1865-1.7056-6.4606l2.2095.0129c.1809,1.9382.659,3.7859,1.4084,5.5174.6331-.0775,1.2921-.0129,1.8865.2067l4.2899-4.755-1.2921-1.8736,3.9539-4.3932,2.1579.9303,5.1556-5.7241c-.1163-.1809-.1938-.3747-.2713-.5944l-3.5663.0129-.6461,2.1579h-6.0988l-.659-2.1579-4.1865-.0129c-.3489.982-1.1629,1.7573-2.1837,2.0932l-.0129,5.2202-2.2095-.0129v-5.1814c-1.4213-.4264-2.468-1.6927-2.468-3.1916,0-1.4859,1.0596-2.7781,2.4809-3.2045l.0129-5.2331-2.2741-.6202v-5.7629l2.2741-.6461v-5.2331c-1.3955-.4523-2.3775-1.7056-2.3775-3.1657,0-1.8477,1.5764-3.3337,3.5275-3.3337,1.5764,0,2.9073.9562,3.3724,2.3h3.9927l.659-2.1579h6.0859l.659,2.1579h3.4629c.4612-1.3323,1.7606-2.2836,3.3065-2.2998l.0919,10.8149h-1.0983v3.3724h1.0918l-.0276,27.897h-1.0125v3.3724h1.0071l-.0584,15.5519Zm-7.6416-23.6537l-1.6669-1.3438-2.3,2.5584,1.6669,1.3438,2.3-2.5584Zm-12.8696-23.8268h-2.1837l-.0129,3.3724h2.1966v-3.3724Zm11.8359,14.7432v-2.0674h-3.6826v2.0674h3.6826Zm-13.6966,12.5207l-2.2742-.5039-.323-5.75,2.2612-.7494v3.3078c0,1.2792.1163,2.4809.336,3.6955h0Zm1.8865-7.1325l2.2612.5298s.1163,3.7084.0646,2.8685c-.0517-.9562.2455,2.8944.2455,2.8944l-2.2742.7494c-.2326-1.1629-.3101-2.3775-.3101-3.605l.0129-3.437Zm13.9679,21.8757l.5039-2.1966c-1.964-.6202-3.7859-1.5247-5.3882-2.7005l-1.6281,1.4342c1.9124,1.4859,4.1219,2.6876,6.5123,3.4629h0Zm-1.0983,1.8607l-1.6798,1.5764c-1.8994-.6978-3.6955-1.6281-5.3236-2.7264l.491-2.2871c1.9382,1.4601,4.1477,2.623,6.5123,3.4371h0Z"/><path id="chains_half-2" class="cls-69" d="m358.8497,397.0401c-.0646-.1809-.155-.3489-.2455-.5168l5.5045-6.1247,2.1579.9303,3.9539-4.3803-1.2921-1.8865,6.9-7.7398c.0905.0258.2584.0258.3489.0517l-.0388,5.1943-2.2612.6461v5.7629l2.2612.6202.0388,5.2719c-1.0854.336-1.9124,1.1371-2.2483,2.1579l-4.1477.0129-.659-2.1579h-6.0988l-.6461,2.1579h-3.5275Zm9.0191-23.9044v2.0803h-3.5663v-2.0803h3.5663Zm9.4325,26.3206c-.827,0-1.4989-.6331-1.4989-1.4213s.6719-1.4342,1.4989-1.4342c.8399,0,1.5118.6461,1.5118,1.4342s-.6719,1.4213-1.5118,1.4213Zm-20.6611-12.5724l2.2742-.6202v-5.7629l-2.2742-.6461.0129-2.4809c1.0983-.323,1.9511-1.1241,2.3129-2.1579h3.4629l.659,2.1579h6.0859l.659-2.1579h3.9927c.1034.2843.2197.5427.3747.7882l-6.9517,7.7011-2.1579-.9174-3.9539,4.3932,1.2921,1.8736-5.4011,5.9955c-.1163-.0517-.2326-.1034-.3618-.155l-.0259-8.0112Zm9.3679-1.7961l1.6669,1.3438-2.2871,2.5584-1.6669-1.3567,2.2871-2.5455Zm-10.3426,46.7568c1.6022-.084,2.9139-1.1657,3.2488-2.6048,2.1579-.2972,4.1994-.8528,6.1118-1.6798l-1.0854-1.8477c-1.6669.7107-3.4371,1.1758-5.2719,1.4342-.4006-.8528-1.1112-1.4989-2.0415-1.809l-.0129-7.2618,2.2742-.6331v-5.7629l-2.2742-.6202v-9.8719c.0905-.0258.168-.0646.2584-.1163l5.1427,5.7112-1.2921,1.8607,3.9539,4.3932,2.1579-.9174,4.264,4.7421c-.7365,1.1241-.7107,2.5843.1421,3.6826-1.2146,1.3567-2.623,2.5584-4.1865,3.5534l1.0854,1.8607c1.8348-1.15,3.4888-2.5713,4.8972-4.1607,1.1241.336,2.4033.1421,3.3595-.6461,1.4859-1.2017,1.6669-3.3078.3876-4.7034l-.1809-.2067c.8916-2.0157,1.4989-4.1865,1.7056-6.4606l-2.2095.0129c-.1809,1.9382-.659,3.7859-1.4084,5.5174-.6331-.0775-1.2921-.0129-1.8865.2067l-4.2899-4.755,1.2921-1.8736-3.9539-4.3932-2.1579.9303-5.1556-5.7241c.1163-.1809.1938-.3747.2713-.5944l3.5663.0129.6461,2.1579h6.0988l.659-2.1579,4.1865-.0129c.3489.982,1.1629,1.7573,2.1837,2.0932l.0129,5.2202,2.2095-.0129v-5.1814c1.4213-.4264,2.468-1.6927,2.468-3.1916,0-1.4859-1.0596-2.7781-2.4809-3.2045l-.0129-5.2331,2.2741-.6202v-5.7629l-2.2741-.6461v-5.2331c1.3955-.4523,2.3775-1.7056,2.3775-3.1657,0-1.8477-1.5764-3.3337-3.5275-3.3337-1.5764,0-2.9073.9562-3.3724,2.3h-3.9927l-.659-2.1579h-6.0859l-.659,2.1579h-3.4629c-.4612-1.3323-1.7606-2.2836-3.3065-2.2998l-.0919,10.8149h1.0983v3.3724h-1.0918l.0276,27.897h1.0125v3.3724h-1.0071l.0584,15.5519Zm7.6416-23.6537l1.6669-1.3438,2.3,2.5584-1.6669,1.3438-2.3-2.5584Zm12.8696-23.8268h2.1837l.0129,3.3724h-2.1966v-3.3724Zm-11.8359,14.7432v-2.0674h3.6826v2.0674h-3.6826Zm13.6966,12.5207l2.2742-.5039.323-5.75-2.2612-.7494v3.3078c0,1.2792-.1163,2.4809-.336,3.6955h0Zm-1.8865-7.1325l-2.2612.5298s-.1163,3.7084-.0646,2.8685c.0517-.9562-.2455,2.8944-.2455,2.8944l2.2742.7494c.2326-1.1629.3101-2.3775.3101-3.605l-.0129-3.437Zm-13.9679,21.8757l-.5039-2.1966c1.964-.6202,3.7859-1.5247,5.3882-2.7005l1.6281,1.4342c-1.9124,1.4859-4.1219,2.6876-6.5123,3.4629h0Zm1.0983,1.8607l1.6798,1.5764c1.8994-.6978,3.6955-1.6281,5.3236-2.7264l-.491-2.2871c-1.9382,1.4601-4.1477,2.623-6.5123,3.4371h0Z"/><path class="cls-74" d="m352.221,398.0737c0-1.8607,1.5893-3.3595,3.5404-3.3595s3.5275,1.4989,3.5275,3.3595c0,1.8477-1.5764,3.3337-3.5275,3.3337s-3.5404-1.4859-3.5404-3.3337"/></g><g id="Castile"><path class="cls-52" d="m258.5806,364.879h64.839v-71.9973h-64.839v71.9973Z"/><path class="cls-64" d="m280.831,309.5242h-1.1888v-1.1888h-2.0932v4.768h2.0932v3.2949h-4.4837v9.5488h2.3904v19.1106h-4.7809v9.8589h36.7223v-9.8589h-4.768v-19.1106h2.3904v-9.5488h-4.4837v-3.2949h2.0932v-4.768h-2.0932v1.1888h-1.2017v-1.1888h-2.0803v1.1888h-1.4989v-1.1888h-2.0932v4.768h2.0932v3.2949h-4.4708v-10.4533h2.3775v-4.7809h-2.3775v1.2017h-1.2017v-1.2017h-2.0932v1.2017h-1.1888v-1.2017h-2.3904v4.7809h2.3904v10.4533h-4.4837v-3.2949h2.0932v-4.768h-2.0932v1.1888h-1.1888v-1.1888h-2.3904v1.1888h0Zm-8.0629,45.3924h36.7223m-36.7223-2.3904h36.7223m-36.7223-2.3904h36.7223m-36.7223-2.3904h36.7223m-36.7223-2.6876h36.7223m-31.9414-2.0932h27.1734m-27.1734-2.3904h27.1734m-27.1734-2.6876h27.1734m-27.1734-2.3775h27.1734m-27.1734-2.3904h27.1734m-27.1734-2.3904h27.1734m-27.1734-2.3904h27.1734m-29.5639-2.3904h31.9543m-31.9543-2.3904h31.9543m-31.9543-2.3904h31.9543m-31.9543-2.3775h31.9543m-27.4706-2.3904h22.987m-13.7353-2.3904h4.4837m-4.4837-2.3904h4.4837m-4.4837-2.3904h4.4837m-4.4837-2.3904h4.4837m-6.8741-2.9848h9.2516m-16.1128,10.1561h4.768m-6.8612-2.9848h8.9544m-8.9544,43.8936v-2.3904m0-2.3904v-2.3904m-2.3904,2.3904v2.3904m4.4837,0v-2.3904m2.3775,4.7809v-2.3904m0-2.3904v-2.3904m0-2.6876v-2.0932m0-2.3904v-2.6876m-2.3775,9.8589v-2.6876m-4.4837,2.6876v-2.6876m9.2516,0v2.6876m2.0932-2.6876v-2.0932m-6.8612-2.3904v2.3904m4.768-2.3904v2.3904m4.4837-2.3904v2.3904m-2.3904-2.3904v-2.6876m2.3904-2.3775v2.3775m0-7.1584v2.3904m-2.3904-4.7809v2.3904m2.3904-4.7809v2.3904m-4.4837-2.3904v2.3904m-4.768-2.3904v2.3904m-2.0932-4.7809v2.3904m4.4708-2.3904v2.3904m4.4837-2.3904v2.3904m2.3904-4.7809v2.3904m-4.4837-2.3904v2.3904m-4.768-2.3904v2.3904m-2.0932-4.768v2.3775m8.9544-2.3775v2.3775m-4.4837-7.1584v2.3904m20.6094-2.3904h-4.7809m6.8741-2.9848h-8.9674m8.9674,43.8936v-2.3904m0-2.3904v-2.3904m2.3904,2.3904v2.3904m-4.4837,0v-2.3904m-2.3904,4.7809v-2.3904m0-2.3904v-2.3904m0-2.6876v-2.0932m0-2.3904v-2.6876m2.3904,9.8589v-2.6876m4.4837,2.6876v-2.6876m-9.2646,0v2.6876m-2.0932-2.6876v-2.0932m6.8741-2.3904v2.3904m-4.7809-2.3904v2.3904m-4.4708-2.3904v2.3904m2.3775-2.3904v-2.6876m-2.3775-2.3775v2.3775m0-7.1584v2.3904m2.3775-4.7809v2.3904m-2.3775-4.7809v2.3904m4.4708-2.3904v2.3904m4.7809-2.3904v2.3904m2.0932-4.7809v2.3904m-4.4837-2.3904v2.3904m-4.4837-2.3904v2.3904m-2.3775-4.7809v2.3904m4.4708-2.3904v2.3904m4.7809-2.3904v2.3904m2.0932-4.768v2.3775m-8.9674-2.3775v2.3775m4.4837-7.1584v2.3904m-9.2516,24.1757v-2.6876m0-7.1584v-2.3904m0,7.1713v-2.3904m0-7.1713v-2.3904m0-2.3904v-2.3775m0-4.7809v-2.3904m0-2.3904v-2.3904m-11.3449,6.2668h4.768m4.4837-7.1584h4.4837m4.4708,7.1584h4.7809"/><path class="cls-64" d="m297.254,354.9167v-6.2797c0-1.1888-.5944-4.7809-6.2668-4.7809-5.3753,0-5.9696,3.5921-5.9696,4.7809v6.2797h12.2364Z"/><path class="cls-64" d="m287.0978,348.9341l-2.9848-.2972c0-1.1888.2972-2.9848,1.2017-3.5792l2.6876,2.0932c-.2972.2972-.9045,1.1888-.9045,1.7831Z"/><path class="cls-64" d="m292.1759,345.9493l1.4989-2.6876c-.5944-.2972-1.7961-.5944-2.6876-.5944-.5944,0-1.7961.2972-2.3904.5944l1.4859,2.6876h2.0933Z"/><path class="cls-64" d="m295.1607,348.9341l2.9848-.2972c0-1.1888-.2972-2.9848-1.1888-3.5792l-2.6876,2.0932c.2972.2972.8916,1.1888.8916,1.7831Z"/><path class="cls-64" d="m286.5034,338.4937v-6.5769c0-1.7831-1.1888-3.282-3.282-3.282s-3.282,1.4989-3.282,3.282v6.5769h6.564,0Z"/><path class="cls-64" d="m295.7551,338.4937v-6.5769c0-1.7831,1.2017-3.282,3.2949-3.282,2.0803,0,3.282,1.4989,3.282,3.282v6.5769h-6.5769Z"/><path class="cls-64" d="m284.4102,322.368l.2972-5.9696h-5.6724l.6073,5.9696h4.768Z"/><path class="cls-64" d="m293.3776,322.368l.5944-5.9696h-5.6724l.2972,5.9696h4.7809Z"/><path class="cls-64" d="m297.8483,322.368l-.5944-5.9696h5.9696l-.5944,5.9696h-4.7809,0Z"/><g><path class="cls-71" d="m295.1607,354.9167v-5.3753c0-.9045-.5944-3.5921-4.1736-3.5921-3.282,0-3.8893,2.6876-3.8893,3.5921v5.3753h8.0629,0Z"/><path class="cls-71" d="m285.9091,337.8864v-5.6724c0-1.4859-.8916-2.9848-2.6876-2.9848s-2.6876,1.4989-2.6876,2.9848v5.6724h5.3753Z"/><path class="cls-71" d="m296.3624,337.8864v-5.6724c0-1.4859.8916-2.9848,2.6876-2.9848,1.7831,0,2.6876,1.4989,2.6876,2.9848v5.6724h-5.3753Z"/></g></g><g id="Leon"><path class="cls-51" d="m323.3937,364.879h65.0199v-71.9973h-65.0199v71.9973Z"/><path class="cls-41" d="m356.5368,310.6225l.0646-.8011.1163-.4393s-2.0803.168-3.1786-.1421-2.0803-.7624-3.1011-1.6152c-1.0208-.8786-1.4213-1.4213-2.1579-1.5247-1.7573-.2843-3.1011.5168-3.1011.5168,0,0,1.318.4781,2.3,1.6927s2.0545,1.8219,2.5197,1.977c.7624.2326,3.4371.0646,4.1607.0905.7365.0388,2.3775.2455,2.3775.2455h0Z"/><g><path class="cls-47" d="m366.2665,307.7023s.0129.9303.1034,1.809c.0775.8657-.2843,1.6022-.1421,2.0803s.2067.8528.3876,1.2017c.1809.3359.2713,1.2146.2713,1.2146,0,0-.491-.3618-.9562-.6977-.4523-.3489-.7753-.5685-.7753-.5685,0,0,.0905.9303.1292,1.3309.0517.4006.2843,1.15.659,1.6022.3747.4264,1.1241,1.15,1.3567,1.7185.2326.5815.1809,1.8607.1809,1.8607,0,0-.5944-.9691-1.1241-1.15-.5039-.1809-1.6281-.8011-1.6281-.8011,0,0,1.0208,1.0208,1.0208,2.0028,0,.9691-.4135,2.0674-.4135,2.0674,0,0-.4651-.8786-1.0724-1.4472-.6073-.5815-1.4601-1.1629-1.4601-1.1629,0,0,.6719,1.5118.6719,2.5196,0,1.0208-.1938,3.1916-.1938,3.1916,0,0-.5039-.827-1.0208-1.2405-.5168-.4006-1.1241-.7494-1.318-1.0079-.1809-.2714.6202.827.6978,1.4989.0905.659.4135,3.0365,2.4809,6.0601,1.2146,1.7702,3.0882,4.8713,7.1067,3.8506,4.0185-1.0079,2.5326-6.4219,1.6798-8.9415-.8399-2.5196-1.2663-5.3106-1.2146-6.2927.0517-.9691.7494-3.8376.659-4.3803-.0905-.5298-.3101-2.5843.1809-4.2382.5168-1.7185.9433-2.3904,1.2275-3.1011.2713-.7107.5039-1.1112.5944-1.7314s.0905-1.7702.0905-1.7702c0,0,.7494,1.3697.9433,1.8607.1809.491.1809,1.9382.1809,1.9382,0,0,.1421-1.4472,1.2663-2.1579s2.4292-1.4601,2.7522-1.8607.4264-.659.4264-.659c0,0-.1034,2.4809-.8011,3.45-.4651.6331-2.2871,2.7005-2.2871,2.7005,0,0,.9433-.3618,1.5893-.3876.659-.0517,1.1241,0,1.1241,0,0,0-.8011.6202-1.8219,2.1191-1.0337,1.4989-.6073,1.6281-1.3567,2.8685s-1.3567,1.2921-2.3,2.0416c-1.3955,1.1241-.6461,5.6078-.4651,6.2797.1938.659,2.623,6.1505,2.6747,7.4814.0388,1.3309.2713,4.3028-2.0674,6.2022-1.4989,1.2275-3.9668,1.2404-4.5354,1.5893-.5556.3618-1.6669,1.4601-1.6669,3.7601,0,2.3129.827,2.6618,1.4859,3.2433.659.5685,1.4989.2584,1.6798.7107.1938.4393.2843.6978.5685.9691.2713.2584.4651.5685.3747,1.0596-.1034.491-1.1758,1.5893-1.5506,2.3904-.3747.7882-1.1241,2.8815-1.1241,3.1916s-.0905,1.2792.2326,1.7702c0,0,1.1758,1.3697.3747,1.6281-.5168.1809-1.0079-.323-1.2534-.2584-.6978.1809-1.0724.6073-1.2663.5815-.4651-.0905-.4651-.323-.5168-.982-.0388-.659-.0129-.9303-.2197-.9303-.2843,0-.4264.2326-.4781.5815s-.0517,1.15-.3747,1.15-.7882-.5815-1.0724-.7107-1.0724-.2584-1.1241-.6202c-.0388-.3489.4651-1.0983.982-1.2404.5168-.1292.982-.3876.659-.659-.336-.2584-.659-.2584-.982,0-.323.2713-1.0208.0517-.982-.3489.0517-.4006.1421-.8916.0905-1.1112-.0388-.2197-.6073-.659.1292-1.0596.7624-.4006,1.0854.3489,1.8348.2197s1.1112-.4006,1.3955-.8399.2326-1.3697-.2843-1.9382c-.5039-.5815-1.0208-.6719-1.2146-1.0337-.1809-.3489-.4651-1.1888-.4651-1.1888,0,0,.1421,1.5506.0517,1.7702s-.0517,1.15-.0517,1.15c0,0-.5039-.5815-.9303-1.0208-.4135-.4393-.8399-1.7702-.8399-1.7702,0,0-.0388,1.2404-.0388,1.7314,0,.4781.5556.9303.3747,1.1112-.1938.168-1.0724-.9303-1.318-1.1112-.2326-.1809-.982-.7494-1.3051-1.3697s-.5685-1.4989-.659-1.8219c-.0905-.3101-.2455-1.6927-.0905-2.0415.2326-.5168.6073-1.4601.6073-1.4601h-1.8219c-.982,0-1.6798-.2972-2.0545.3618s-.1938,1.9899.2713,3.7213c.4781,1.7185.7494,2.5584.6202,2.8685-.1421.3101-.7494,1.0208-.982,1.15-.2455.1421-.8916.0905-1.1758-.0388-.2713-.1292-.7365-.3489-1.6281-.3489s-1.4472.0388-1.7702-.0388c-.336-.0905-1.1371-.491-1.5118-.4006s-1.0208.4135-.8399.9303c.2843.7882-.2713.9691-.659.9303-.3747-.0517-.6848-.1809-1.1629-.3101-.4651-.1421-1.1629,0-1.0724-.5427.0905-.5298.2843-.5685.5168-.9562.2326-.4135.323-.6719.0517-.6978-.323-.0258-.659-.0646-.9045.1421-.2584.2067-.659.659-.982.491-.336-.1809-.5944-.5556-.5944-1.3955,0-.827-.8786-1.5506-.0646-1.5118.8011.0388,1.8219.6202,2.0028.168s.0775-.659-.3618-1.0079-.982-.5556-.4006-.9949c.5815-.4523.7236-.4523.9562-.6978.2197-.2326.5298-1.0208.9433-.827.8011.3876.0258.9433.8399,1.8348.8011.8916,1.3051,1.2146,2.6618,1.0724,1.3438-.1421,1.7185-.3101,1.7185-.6978,0-.3747-.1163-1.0596-.155-1.3438-.0258-.2713.1938-1.2792.1938-1.2792,0,0-.6202.3876-.814.7624-.168.3747-.5427,1.0337-.5427,1.0337,0,0-.1421-.7753-.1034-1.4084.0258-.3747.155-1.0208.1421-1.15-.0388-.3489-.2972-1.2146-.2972-1.2146,0,0-.2067.9433-.3618,1.2146-.1421.2713-.2067,1.3826-.2067,1.3826,0,0-.8657-.7494-.6202-2.0028.168-.9691-.155-2.2483.1421-2.6618.2843-.4264.9691-2.1191,2.6618-2.1837,1.6798-.0646,2.9848.0646,3.5792.0388.5815-.0388,2.6618-.4264,2.6618-.4264,0,0-3.8376-1.964-4.7034-2.5584-.8786-.5815-2.2354-2.1062-2.6747-2.791-.4393-.6977-.8399-2.0416-.8399-2.0416,0,0-.6848.0258-1.318.3747-.6202.3489-1.2404.8657-1.6022,1.2792s-.9433,1.3567-.9433,1.3567c0,0,.1034-1.2146.1034-1.5893s-.0775-1.1112-.0775-1.1112c0,0-.4264,1.6539-1.3051,2.2741-.8786.6331-1.8994,1.4859-1.8994,1.4859,0,0,.1034-.9174.1034-1.1371,0-.2067.2197-1.2792.2197-1.2792,0,0-.6202.9303-1.5635,1.1112-.9562.168-2.3387.1421-2.455.7236-.1034.5815.2584,1.3826.0388,1.7961s-.6978.6977-.6978.6977c0,0-.5427-.4523-1.0208-.491-.4651-.0388-.9174.2067-.9174.2067,0,0-.4006-.5168-.2455-.8657.1421-.3359.8657-.8528.6978-1.0725-.1938-.2067-.7753.0775-1.1371.2455-.3618.1809-1.1371.3489-1.0596-.2455.0646-.5815.2584-.9303.0646-1.3438-.1809-.4135-.0646-.6848.2326-.7882.2843-.1034,1.4472.0258,1.5635-.2455.1034-.2714-.2843-.6202-1.0596-.7882-.7624-.1809-1.1371-.6331-.7365-1.0079.4135-.3876.5168-.491.6978-.827.1809-.3489.2584-.982.9562-.659.6848.3101.5427,1.0725,1.2792,1.305.7236.2455,2.4421-.1034,2.8039-.3101s1.5376-1.0725,1.9382-1.2792c.4006-.1938,2.0803-1.4472,2.0803-1.4472,0,0-.982-.6848-1.3567-1.0337-.3618-.3489-1.0079-1.1758-1.3438-1.3567-.323-.168-1.9382-.7882-2.4809-.827-.5427-.0258-2.2225-.6202-2.2225-.6202,0,0,.7624-.2455,1.0208-.4523.2455-.2067.827-.7236,1.1241-.6848.2843.0258.3618.0258.3618.0258,0,0-1.5635-.0646-1.8994-.168-.323-.1034-1.2792-.6977-1.641-.6977s-1.0854.1421-1.0854.1421c0,0,.982-.6202,1.7831-.7624.8011-.1292,1.4213-.1034,1.4213-.1034,0,0-1.2404-.3489-1.5376-.7494-.2843-.4264-.5815-1.0337-.8011-1.318-.2197-.2714-.3618-.7236-.7624-.7624s-1.0983.491-1.4989.4523-.6978-.2843-.7365-.8657c-.0258-.5944,0-.3876-.1292-.6977-.155-.3101-.7365-1.0337-.1938-1.2017.5556-.1809,1.7185.1034,1.8348-.1034.1034-.2067-.6202-.8399-1.0983-1.0725-.4781-.2455-1.2404-.659-.8399-1.0079.4006-.3359.8011-.4781,1.0208-.7882s.4781-1.1758.9562-.9045c.4651.2714,1.1241,1.6281,1.4989,1.5247.3618-.1034.3876-1.0725.323-1.4859-.0775-.4135,0-1.1371.3618-1.0725s.659.5556,1.2404.5944c.5815.0258,1.4601-.1421,1.3826.2714-.0646.4135-.4006.9174-.8011,1.3697-.3876.4652-.5815,1.3567-.323,1.9382.2584.5944.9174,1.5376,1.4989,1.9123s1.6798.659,2.3775,1.0983c.6848.4523,2.3,1.7314,2.8427,1.8736s1.0983.4135,1.0983.4135c0,0,.6202-.2714,1.4601-.2714s2.7652.1292,3.5017-.1809,1.6798-.827,1.3955-1.4859c-.2972-.659-1.8994-1.2405-1.7573-1.7573s.7365-.5556,1.7185-.5944c.982-.0258,2.3258.1809,2.5843-1.2146.2584-1.3697.336-2.1708-1.0466-2.4809-1.3955-.3101-2.4163-.3489-2.6747-1.3438-.2584-1.0079-.5039-1.2534-.2197-1.5247.2972-.2714.8011-.4135,1.8219-.4781,1.0337-.0775,2.1966-.0775,2.5326-.323.323-.2326.3876-.8916.7882-1.1758.4006-.2714,1.977-.5168,1.977-.5168,0,0,1.8865.9174,3.6179,2.2095,1.5635,1.1629,2.9719,2.8814,2.9719,2.8814"/><path class="cls-19" d="m347.5823,315.959s-1.0337.2972-1.4213.8657c-.4781.6848-.4393,1.3826-.4393,1.3826,0,0,.8786-.7236,2.0157-.4264,1.1241.3101,1.2404.4264,1.7185.3876s1.641-.4523,1.641-.4523c0,0-.9562,1.1112-.8399,1.8736.1034.7494.2455,1.0983.2197,1.4859-.0775.9303-.7753,2.0803-.7753,2.0803,0,0,.4006-.2455,1.3567-.4523.9433-.2067,1.7573-.659,2.2612-1.0466.5039-.3747,1.1629-1.318,1.1629-1.318,0,0-.2067,1.2921,0,1.8348.2197.5685.2972,2.1579.2972,2.1579,0,0,.6073-.5427,1.0983-.8011.2455-.1421.9045-.491,1.1629-.9045.1809-.2843.4135-1.3697.4135-1.3697,0,0,.1421,1.1629.5039,1.7314.3618.5427.9045,2.2483.9045,2.2483,0,0,.3747-1.1112.7753-1.5635s.8786-1.0337.9045-1.3826c.0388-.3489-.1034-1.0983-.1034-1.0983l.5039,1.0983m-14.7432.7882s.6202-1.0725,1.2017-1.4213c.5944-.3359,1.3955-.9562,1.6152-1.0337.2067-.0646,1.1629-.5944,1.1629-.5944m1.2792,6.6803s1.4084-.7107,1.8219-.9691c.8786-.5168,1.4989-1.4472,1.4989-1.4472"/><path class="cls-10" d="m365.1165,312.7416s-.4393-.6202-.5427-.8399c-.1163-.1938-.2972-.6202-.2972-.6202"/><path class="cls-19" d="m359.6378,334.0747s2.636,1.6281,2.5584,2.9848c-.0775,1.3438-1.4601,3.114-1.4601,3.114"/></g><path class="cls-40" d="m352.8154,306.7203s-.2197-.6202-.2584-.8011c-.0388-.168-.155-.3747-.155-.3747,0,0,1.1371,0,1.0983.3489-.0258.3489-.3618.3489-.4393.4781-.0646.1421-.2455.3489-.2455.3489h0Z"/><path class="cls-65" d="m357.9969,304.9243l-.0775-.5556s.9949,0,1.4601.3359c.7365.5168,1.2017,1.318,1.1758,1.3567-.1292.1163-.6978-.3489-1.0983-.4781,0,0-.2972.0646-.5815.0646-.2972,0-.4393-.1421-.4781-.2714-.0388-.155.0388-.3876.0388-.3876l-.4393-.0646Z"/><g><path class="cls-40" d="m352.8542,311.7596l.4264-.6848.4393.6331-.8657.0517"/><path class="cls-40" d="m353.9008,311.7338l.5168-.6848.5556.6202-1.0724.0646"/><path class="cls-40" d="m353.4357,307.4827l1.0596.3747-.9562.491-.1034-.8657"/><path class="cls-40" d="m354.7148,307.8316l.9433.2326-.7624.5944-.1809-.827"/></g><g><path class="cls-41" d="m338.3824,306.5136s.6202.4393,1.0983.5168c.4781.0646.982.0646,1.0596.0646.0646,0,.2197-.6977.1421-1.1758-.2584-1.5505-1.6798-1.8994-1.6798-1.8994,0,0,.4264.9432.2197,1.3826-.2972.6202-.8399,1.1112-.8399,1.1112h0Z"/><path class="cls-41" d="m335.4234,307.8574s-.5556-.9949-1.7185-.8657c-1.1629.1421-1.9382,1.0466-1.9382,1.0466,0,0,1.2921-.0388,1.6152.168.4781.3101.6202,1.1112.6202,1.1112,0,0,.6978-.4135.9174-.6977.2067-.2714.5039-.7624.5039-.7624h0Z"/><path class="cls-41" d="m334.002,311.9018s-.9949.1421-1.5376.7624c-.5556.6331-.4651,1.809-.4651,1.809,0,0,.6461-.6977,1.2275-.6977.5944,0,1.4989.2067,1.4989.2067,0,0-.2843-.7236-.2843-1.0337s-.4393-1.0466-.4393-1.0466h0Z"/><path class="cls-41" d="m337.3228,324.9781s-.5427-.5815-1.4989-.4135c-.9562.1809-1.5764,1.2534-1.5764,1.2534,0,0,.814-.2197,1.2921-.1034.4651.1034.8011.5815.8011.5815,0,0,.4393-.3747.5815-.5815s.4006-.7365.4006-.7365h0Z"/><path class="cls-41" d="m336.2245,328.8157s-.8011-.1292-1.4989.4264c-.6848.5556-.7236,1.6152-.7236,1.6152,0,0,.659-.5556,1.1758-.4781.5039.0646,1.1241.3489,1.1241.3489,0,0,.1034-.659.1421-.827.1163-.491-.2197-1.0854-.2197-1.0854h0Z"/><path class="cls-41" d="m338.0981,332.3561s-.0646,1.0208.4264,1.6539c.5168.659,1.4601.7624,1.4601.7624,0,0-.3101-.6848-.3618-1.0337-.0775-.5168.4393-.9691.4393-.9691,0,0-.4781-.491-.9433-.491-.4781,0-1.0208.0775-1.0208.0775h0Z"/><path class="cls-41" d="m347.5823,341.4527s-.659-.827-1.5635-.8011c-.9174.0388-1.8736.8916-1.8736.8916,0,0,1.1371-.0905,1.4342.2843.2972.3876.5815.8657.5815.8657,0,0,.5168-.2713.7365-.4523.2197-.168.6848-.7882.6848-.7882h0Z"/><path class="cls-41" d="m344.7784,345.0836s-1.2017-.1809-1.7961.4523c-.5815.6202-.5427,1.7573-.5427,1.7573,0,0,.7236-.7882,1.3826-.7236s1.3955.4135,1.3955.4135c0,0-.1163-.6848-.1938-1.0079-.0646-.3101-.2455-.8916-.2455-.8916h0Z"/><path class="cls-41" d="m347.3756,348.9212s-.5944.827-.155,1.4859,1.3567.9691,1.3567.9691c0,0-.336-.4781-.1809-1.0337.1163-.4393.8657-1.0337.8657-1.0337l-1.8865-.3876h0Z"/><path class="cls-41" d="m363.3979,350.4847s-1.0466-.2455-1.641.1034c-.5815.336-1.0596,1.7961-1.0596,1.7961,0,0,.9562-.8011,1.6539-.6978.6848.1034,1.2017.3876,1.2017.3876,0,0,.1034-.5944.0258-1.0079-.0388-.2455-.1809-.5815-.1809-.5815h0Z"/><path class="cls-41" d="m363.9148,354.3482s-.8011.827-.5168,1.5247c.2972.6978.8011,1.4213.8011,1.4213,0,0-.0258-1.0337.2972-1.318.4781-.4135,1.3567-.4781,1.3567-.4781,0,0-.6978-.6202-.9174-.6978-.2197-.0646-1.0208-.4523-1.0208-.4523Z"/><path class="cls-41" d="m367.9333,355.5628s-.4006,1.0079.3618,1.6539c.7624.6719,1.4342.7365,1.4342.7365,0,0-.5944-1.0466-.4135-1.5893.1938-.5815.6978-.9303.6978-.9303,0,0-.9562-.323-1.0983-.2843-.1421.0258-.982.4135-.982.4135h0Z"/></g><g><path class="cls-61" d="m365.5171,302.1591l-.3747.0258c-.0129.0388-.1809.3101-.336.4523-.336.323-.8399.3618-1.1112.0905-.1421-.1421-.2067-.3359-.1809-.5298-.2197.1163-.4523.1163-.659-.0129-.336-.1938-.4135-.6461-.1809-1.0208.0388-.0775.0775-.1809.1421-.2326l-.0258-.4135-.4523.1034-.1292.2455c-.2843.323-.6978.4006-.9045.2197-.1034-.0905-.1809-.3359-.168-.3489,0,.0129-.1163.1163-.2197.1421-.6978.168-.9691-1.3567-.9949-1.7444l-.2197.323s.2067.9045.1034,1.6798c-.1034.7624-.3747,1.5376-.3747,1.5376.9562.2455,2.4033,1.0337,3.8376,2.132s2.5584,2.3,3.0236,3.1269c0,0,.7494-.4135,1.5247-.659s1.7573-.2584,1.7573-.2584l.2843-.2714c-.4135.0646-2.0415.1292-2.0157-.5556,0-.1034.0905-.2326.1034-.2326-.0129.0129-.2713-.0129-.3876-.0775-.2326-.168-.2326-.5556.0258-.8916l.2326-.168.0129-.4393-.4393.0646c-.0388.0517-.1421.1163-.1938.168-.3489.2972-.8399.323-1.1112.0388-.168-.155-.2197-.3747-.1421-.5944-.2067.0517-.4135.0388-.5815-.0646-.336-.1938-.4006-.6719-.1421-1.0337.1163-.1809.3618-.4006.4006-.4135l-.0905-.3876h-.0129.0002Z"/><g><path class="cls-65" d="m362.6098,303.0507c.0646-.0905.1938-.0775.2972,0s.1292.2067.0775.2714c-.0646.0775-.1938.0775-.3101-.0129-.0905-.0646-.1292-.1938-.0646-.2584h0Z"/><path class="cls-65" d="m363.8373,304.0715l-.4264-.323c-.0775-.0517-.0905-.155-.0517-.2067.0517-.0517.155-.0517.2326,0l.4264.3359.4264.323c.0646.0517.1034.155.0517.2067s-.155.0517-.2326,0l-.4264-.3359"/><path class="cls-65" d="m361.589,302.5338l-.336-.1938c-.0905-.0517-.1292-.155-.0905-.2197s.1421-.0775.2197-.0258l.336.2067.336.1938c.0775.0388.1163.1421.0905.2067-.0388.0646-.1421.0775-.2197.0258l-.336-.1938"/><path class="cls-65" d="m360.2452,301.6164c.0646-.0775.2067-.0775.3101,0,.1034.0905.1292.2067.0646.2843-.0646.0646-.1938.0646-.2972-.0129s-.1292-.1938-.0775-.2714h0Z"/><path class="cls-65" d="m365.194,305.0147c.0646-.0646.0388-.1809-.0646-.2714-.1034-.0775-.2455-.0775-.3101,0-.0517.0646-.0258.1938.0775.2714s.2326.0775.2972,0h0Z"/><path class="cls-65" d="m365.9305,305.8675l.2843.2714c.0646.0646.168.0905.2326.0388.0517-.0517.0517-.1421-.0129-.2067l-.2713-.2714-.2843-.2714c-.0646-.0646-.1809-.0905-.2326-.0388-.0646.0388-.0517.1421.0129.2067l.2713.2714"/><path class="cls-65" d="m367.158,306.9141c.0646-.0775.0388-.1938-.0646-.2714-.1034-.0905-.2326-.0905-.2972-.0129s-.0388.1938.0646.2843c.1034.0646.2326.0775.2972,0Z"/></g><path class="cls-61" d="m363.6047,299.1226l-.7624.0129-.1421,1.1241.0775.1809.1938-.0129.982-.659-.3489-.6461"/><path class="cls-61" d="m363.6047,299.1226l-.7624.0129-.1421,1.1241.0775.1809.1938-.0129.982-.659-.3489-.6461"/><path class="cls-61" d="m361.5373,299.7428l-.0258.6977,1.1888.155.1938-.0905-.0258-.1938-.6848-.9174-.6461.3489"/><path class="cls-61" d="m363.9924,301.1383l-.6331.3489-.6978-.9174-.0129-.1938.1809-.0775,1.2017.1421-.0388.6977"/><path class="cls-61" d="m362.4547,300.2726c.1034-.168.336-.2197.5039-.1163.1809.0905.2326.3101.1292.4781s-.336.2197-.5039.1163c-.1809-.1034-.2326-.3101-.1292-.4781Z"/><path class="cls-61" d="m359.6766,299.1097c-.0258.0129-.168-.5944-.336-.9174-.1034-.2455-.5039-.5556-.5039-.5556.0388-.0646.5427-.2455,1.1241.1163.491.4006-.0388,1.1241-.0388,1.1241,0,0-.1163.1809-.2455.2326h0Z"/><path class="cls-61" d="m361.0075,299.5103l-.5427.4781-.8786-.7753.0775-.1034.0388-.1938,1.1888-.0905.1163.6848"/><path class="cls-61" d="m359.5216,299.0322c.0646-.1938.2326-.2972.3618-.2584.1421.0517.1938.2326.1292.4264s-.2326.2972-.3747.2584c-.1421-.0517-.1938-.2326-.1163-.4264Z"/><path class="cls-61" d="m366.5378,300.9445l-.7624-.0775-.323,1.0983.0646.1809.1938.0129,1.0724-.5298-.2455-.6848"/><path class="cls-61" d="m364.3929,301.2805l-.1292.6977,1.1629.2972.1938-.0517.0129-.1809-.5556-1.0208-.6848.2584"/><path class="cls-61" d="m366.6154,302.999l-.6848.2584-.5427-1.0079.0129-.1938.1938-.0388,1.15.2972-.1292.6848"/><path class="cls-61" d="m365.2199,301.9394c.1292-.155.3618-.168.5168-.0517.168.1163.1938.3359.0646.491s-.3618.168-.5298.0517c-.155-.1163-.1809-.3359-.0517-.491h0Z"/><path class="cls-61" d="m369.0833,303.322l.1421.7107-1.1241.3876-.2067-.0517-.0129-.1809.4651-1.0466.7365.1809"/><path class="cls-61" d="m368.8895,305.3765l-.7236.168-.4006-1.0725.0517-.1938.1938-.0258,1.0983.4523-.2197.6719"/><path class="cls-61" d="m366.9255,303.3866l-.2326.6719,1.0983.4393.2067-.0258.0388-.1809-.3876-1.0725-.7236.168"/><path class="cls-61" d="m368.1401,304.64c.155-.1421.155-.3618.0258-.5039-.1421-.1421-.3747-.1421-.5298-.0258-.1421.1421-.155.3618-.0129.5039.1292.1421.3747.155.5168.0258h0Z"/><path class="cls-61" d="m369.9232,306.9658c0,.0129.6461.0388,1.0208.1163.2584.0517.6719.3489.6719.3489.0775-.0517.155-.5427-.3618-1.0208-.5039-.3618-1.1371.2843-1.1371.2843,0,0-.155.155-.1938.2714h0Z"/><path class="cls-61" d="m369.2255,305.8158l-.3747.5944.982.659.1163-.1034.168-.0517-.155-1.1371-.7365.0388"/><path class="cls-61" d="m370.0266,307.095c.1809-.0905.2713-.2843.1938-.4006s-.2843-.1292-.4651-.0258-.2584.2843-.1809.4006c.0646.1163.2713.1292.4523.0258Z"/></g></g><g id="inescutcheon"><ellipse class="cls-57" cx="323.5875" cy="364.5689" rx="21.01" ry="23.6459"/><ellipse class="cls-58" cx="323.6004" cy="364.5172" rx="14.7819" ry="17.3404"/><g id="fdl"><path class="cls-55" d="m316.61,352.5908s-1.7444,1.9124-1.7444,3.6955c0,1.7961.7365,3.282.7365,3.282-.2714-.7107-.982-1.2146-1.8219-1.2146-1.0725,0-1.9382.814-1.9382,1.8348,0,.2843.1809.7494.3101.9949l.6331,1.2792c.2067-.4781.6977-.7365,1.2663-.7365.7624,0,1.3955.5815,1.3955,1.3051,0,.1163-.0129.2197-.0517.323l-1.5764.0129v1.3309h1.4084l-1.0466,2.0803,1.3826-.5427,1.0466,1.1758,1.0854-1.1758,1.3826.5427-1.0337-2.0803h1.3955v-1.3309l-1.5764-.0129c-.0258-.1034-.0258-.2067-.0258-.323,0-.7236.6073-1.3051,1.3697-1.3051.5685,0,1.0596.2584,1.2663.7365l.6331-1.2792c.1292-.2455.3101-.7107.3101-.9949,0-1.0208-.8657-1.8348-1.9253-1.8348-.8528,0-1.5635.5039-1.8219,1.2146,0,0,.7365-1.4859.7365-3.282,0-1.7831-1.7961-3.6955-1.7961-3.6955h0Z"/><path class="cls-38" d="m313.819,364.6981h5.6337v-1.3309h-5.6337v1.3309Z"/></g><g id="fdl-2"><path class="cls-55" d="m330.3453,352.5908s-1.7444,1.9124-1.7444,3.6955c0,1.7961.7365,3.282.7365,3.282-.2714-.7107-.982-1.2146-1.8219-1.2146-1.0725,0-1.9382.814-1.9382,1.8348,0,.2843.1809.7494.3101.9949l.6331,1.2792c.2067-.4781.6977-.7365,1.2663-.7365.7624,0,1.3955.5815,1.3955,1.3051,0,.1163-.0129.2197-.0517.323l-1.5764.0129v1.3309h1.4084l-1.0466,2.0803,1.3826-.5427,1.0466,1.1758,1.0854-1.1758,1.3826.5427-1.0337-2.0803h1.3955v-1.3309l-1.5764-.0129c-.0258-.1034-.0258-.2067-.0258-.323,0-.7236.6073-1.3051,1.3697-1.3051.5685,0,1.0596.2584,1.2663.7365l.6331-1.2792c.1292-.2455.3101-.7107.3101-.9949,0-1.0208-.8657-1.8348-1.9253-1.8348-.8528,0-1.5635.5039-1.8219,1.2146,0,0,.7365-1.4859.7365-3.282,0-1.7831-1.7961-3.6955-1.7961-3.6955h0Z"/><path class="cls-38" d="m327.5543,364.6981h5.6337v-1.3309h-5.6337v1.3309Z"/></g><g id="fdl-3"><path class="cls-55" d="m323.4712,364.4009s-1.7444,1.9124-1.7444,3.6955c0,1.7961.7365,3.282.7365,3.282-.2714-.7107-.982-1.2146-1.8219-1.2146-1.0725,0-1.9382.814-1.9382,1.8348,0,.2843.1809.7494.3101.9949l.6331,1.2792c.2067-.4781.6977-.7365,1.2663-.7365.7624,0,1.3955.5815,1.3955,1.3051,0,.1163-.0129.2197-.0517.323l-1.5764.0129v1.3309h1.4084l-1.0466,2.0803,1.3826-.5427,1.0466,1.1758,1.0854-1.1758,1.3826.5427-1.0337-2.0803h1.3955v-1.3309l-1.5764-.0129c-.0258-.1034-.0258-.2067-.0258-.323,0-.7236.6073-1.3051,1.3697-1.3051.5685,0,1.0596.2584,1.2663.7365l.6331-1.2792c.1292-.2455.3101-.7107.3101-.9949,0-1.0208-.8657-1.8348-1.9253-1.8348-.8528,0-1.5635.5039-1.8219,1.2146,0,0,.7365-1.4859.7365-3.282,0-1.7831-1.7961-3.6955-1.7961-3.6955h0Z"/><path class="cls-38" d="m320.6802,376.5081h5.6337v-1.3309h-5.6337v1.3309Z"/></g></g></g></g></g></svg>