<?xml version="1.0" encoding="UTF-8"?><svg id="Layer_1" xmlns="http://www.w3.org/2000/svg" xmlns:xlink="http://www.w3.org/1999/xlink" viewBox="0 0 1014.9152 676.6102"><defs><style>.cls-1{fill:none;}.cls-2{clip-path:url(#clippath);}.cls-3{stroke-width:.6704px;}.cls-3,.cls-4{fill:#fff;}.cls-3,.cls-5,.cls-6,.cls-7,.cls-8,.cls-9{stroke:#000;}.cls-10{fill:#039;}.cls-11{fill:#060;}.cls-12,.cls-5,.cls-6,.cls-7,.cls-8{fill:#ff0;}.cls-13,.cls-9{fill:red;}.cls-5{stroke-width:.573px;}.cls-5,.cls-6{fill-rule:evenodd;stroke-linecap:round;stroke-linejoin:round;}.cls-6{stroke-width:.55px;}.cls-7{stroke-miterlimit:4;stroke-width:.5px;}.cls-8{stroke-width:.5px;}.cls-9{stroke-width:.5073px;}</style><clipPath id="clippath"><circle class="cls-1" cx="425.4883" cy="347.2956" r="324.5"/></clipPath></defs><g class="cls-2"><rect class="cls-13" width="1014.9152" height="676.6102"/><rect class="cls-11" width="405.9661" height="676.6102"/><g><path class="cls-5" d="m538.311,443.2473c-51.101-1.5393-285.428-147.8055-287.0349-171.0978l12.9395-21.5788c23.2432,33.773,262.7954,176.0201,286.3245,170.9794l-12.2295,21.6904"/><path class="cls-5" d="m261.4929,247.6393c-4.5842,12.3375,61.147,52.9752,140.2325,101.0754,79.0822,48.0968,147.2726,77.8203,152.3269,73.5577.3088-.5505,2.4867-4.298,2.2869-4.268-.9473,1.4277-3.2535,1.8783-6.8517.8414-21.3657-6.1627-77.0913-31.7415-146.1038-73.5915-69.0109-41.8534-129.0532-80.4219-138.3854-96.8094-.6489-1.1353-1.1114-3.2075-1.0174-4.8186l-.2267-.0034-1.987,3.4731-.273.5445h-.0015l.0002-.0011Zm278.0191,196.2846c-.8667,1.5724-2.4823,1.6246-5.5509,1.2874-19.1142-2.1154-77.1149-30.3206-145.7452-71.4044-79.8569-47.8025-145.8095-91.3593-138.6543-102.7433l1.9468-3.4416.3834.1194c-6.434,19.2918,130.1595,97.3947,138.201,102.3745,79.0348,48.9646,145.6657,77.5581,151.5624,70.1272l-2.1452,3.6892v-.0034l.0021-.0052Z"/><path class="cls-5" d="m406.2537,286.2568c51.1466-.4043,114.2625-6.9892,150.5847-21.4655l-7.8258-12.7149c-21.4688,11.8825-84.9315,19.6961-143.191,20.865-68.906-.634-117.5441-7.0505-141.9139-23.4023l-7.3872,13.5398c44.7983,18.9569,90.7047,22.9828,149.7338,23.179"/><path class="cls-5" d="m558.9477,265.079c-1.2501,1.999-24.9382,10.1683-59.8343,16.1969-23.6611,3.6072-54.5246,6.6908-93.0407,6.7282-36.5928.0343-66.4854-2.5705-89.1163-5.6377-36.6317-5.7436-55.5379-13.7354-62.5272-16.5594.6683-1.3292,1.0979-2.2616,1.7424-3.5028,20.1207,8.0111,39.1148,12.8417,61.3669,16.2654,22.4821,3.0448,52.0144,5.6869,88.4262,5.6526,38.3367-.0387,68.8603-3.3567,92.3843-6.8564,35.7842-5.7718,55.3315-13.1997,58.0769-16.6488l2.5271,4.3621h-.0053Zm-6.8681-12.8938c-3.8787,3.115-23.2043,9.9685-57.2057,15.3986-22.6918,3.2521-51.5442,6.1627-88.4076,6.1986-35.0213.0343-63.6335-2.3258-85.3967-5.4959-34.5308-4.5098-52.9092-12.6448-59.5349-15.0167.6594-1.1398,1.3307-2.2705,2.0199-3.4059,5.1556,2.5958,22.8914,9.7954,57.8941,14.7542,21.5162,3.0508,50.1723,5.3244,85.0195,5.2885,36.6892-.0374,65.2134-3.0045,87.7614-6.2388,34.1772-4.7023,52.5675-13.4429,55.3602-15.6314l2.4913,4.1458v.0034l-.0015-.0003Z"/><path class="cls-5" d="m238.3021,347.8791c31.459,16.9203,101.3308,25.4473,167.4509,26.0343,60.2031.0954,138.634-9.3061,167.9634-24.8485l-.807-16.9355c-9.1758,14.3396-93.2251,28.0945-167.8095,27.5313-74.5844-.5624-143.8439-12.0824-166.9316-26.9951l.1343,15.2092"/><path class="cls-5" d="m575.3216,345.4433l.0015,4.0384c-4.4081,5.2706-32.0477,13.237-66.7087,18.847-26.3793,4.0444-60.7714,7.0951-103.6262,7.0951-40.7133,0-73.1805-2.9032-98.3588-6.7685-39.7999-5.7959-65.2573-15.9446-70.3674-18.9738l.0223-4.7112c15.3503,10.2057,56.9384,17.6714,70.9037,19.9566,25.0143,3.8399,57.2886,6.7208,97.7989,6.7208,42.6535,0,76.8528-3.0299,103.0664-7.0474,24.8671-3.5923,60.2928-12.9342,67.2669-19.1548h.0015v-.002Zm.0169-14.3648l.0015,4.0384c-4.4081,5.2677-32.0477,13.234-66.7087,18.8436-26.3793,4.0444-60.7714,7.0951-103.6262,7.0951-40.7133,0-73.1805-2.9001-98.3588-6.7685-39.7999-5.7928-65.2573-15.9418-70.3674-18.9722l.0223-4.7112c15.3503,10.2041,56.9384,17.6714,70.9037,19.9532,25.0143,3.843,57.2886,6.7252,97.7989,6.7252,42.6535,0,76.8528-3.0314,103.0664-7.052,24.8671-3.5923,60.2928-12.9342,67.2669-19.1548l.0015.0034v-.0002Z"/><path class="cls-5" d="m405.6109,440.3379c-72.3499-.4311-134.3426-19.7215-147.4334-22.91l9.5458,14.9436c23.1231,9.7268,83.6019,24.2226,138.5816,22.6174,54.9813-1.6037,103.0308-5.8628,136.8918-22.3467l9.7875-15.4868c-23.0758,10.8681-101.6065,23.0707-147.3742,23.1824"/><path class="cls-6" d="m546.8701,429.1738c-1.4381,2.1975-2.9045,4.368-4.3917,6.4775-15.9709,5.6316-41.1362,11.5438-51.7556,13.2683-21.6921,4.4695-55.2537,7.7709-85.0398,7.7859-64.0919-.9384-116.5546-13.4847-141.2356-24.1871l-1.9914-3.4238.3252-.5147,3.3773,1.3098c43.8917,15.7031,93.1878,21.9679,139.8858,23.0927,29.666.1044,59.3641-3.4,83.3787-7.6949,36.8262-7.3786,51.7167-12.9402,56.2855-15.4614l1.1621-.6519h-.0015l.0011-.0005Zm8.4867-13.9979c.0372.0433.0746.0851.1105.1313-1.0756,1.8155-2.1839,3.6625-3.3191,5.5183-8.518,3.0448-31.6349,9.8088-65.3927,14.529-22.2418,3.0299-36.0667,5.9643-80.3119,6.8236-82.9101-2.1095-136.5907-18.3209-149.3431-22.3197l-1.8901-3.6251c48.0495,12.5433,97.1308,21.2997,151.2359,22.1945,40.4799-.8623,57.7013-3.843,79.7588-6.8505,39.3635-6.121,59.1966-12.6015,65.1491-14.4724-.0746-.1074-.1626-.2208-.261-.3372l4.2679-1.5948-.0034.0034-.0008-.0005Z"/><path class="cls-5" d="m556.2243,334.5161c.2347,47.5944-24.1212,90.3038-43.7395,109.1457-27.7545,26.6568-64.5537,43.8037-107.5286,44.5937-47.9886.8816-93.2369-30.4035-105.3736-44.1471-23.7287-26.8699-43.0476-60.9913-43.6667-106.9771,2.9392-51.9451,23.3312-88.1285,52.8906-112.9415,29.5594-24.813,68.9178-36.8972,101.6962-36.0329,37.8191.998,81.9967,19.5506,112.522,56.3819,19.9989,24.1313,28.6595,50.3195,33.1996,89.9773h0Zm-150.8604-162.965c92.1627,0,167.9617,74.9989,167.9617,166.9586s-75.799,166.9603-167.9617,166.9603-167.3325-75.0006-167.3325-166.9603,75.1697-166.9586,167.3325-166.9586"/><path class="cls-5" d="m405.8139,170.9794c92.2456,0,167.4797,75.2441,167.4797,167.4982s-75.2357,167.4949-167.4796,167.4949-167.4796-75.2407-167.4796-167.4948,75.2357-167.4982,167.4796-167.4982h0Zm-163.7938,167.4989c0,90.0906,73.9805,163.8107,163.7938,163.8107s163.7955-73.7201,163.7955-163.8107-73.9822-163.8141-163.7955-163.8141-163.7938,73.7234-163.7938,163.8141h0Z"/><path class="cls-5" d="m405.9492,184.9006c84.1213,0,153.4095,69.0498,153.4095,153.4281s-69.29,153.4264-153.4095,153.4264-153.4095-69.0464-153.4095-153.4264,69.2917-153.4281,153.4095-153.4281h0Zm-149.7254,153.4271c0,82.3519,67.6255,149.7406,149.7254,149.7406s149.7254-67.3887,149.7254-149.7406-67.6238-149.7423-149.7254-149.7423-149.7254,67.3887-149.7254,149.7423h0Z"/><path class="cls-5" d="m412.6984,170.3028h-14.3533l.0169,336.5459h14.4026l-.0662-336.5459Z"/><path class="cls-5" d="m411.2606,168.3846h3.6534l.0313,340.4195h-3.6564l-.0269-340.4195h-.0013Zm-14.2448.0031h3.6818l.0051,340.4195h-3.6846V168.3876h-.0022Z"/><path class="cls-5" d="m573.4102,344.9612v-12.4419l-10.1322-9.4387-57.5119-15.2237-82.8847-8.4576-99.8,5.0746-71.0441,16.9153-14.3441,10.6228v12.4449l36.334-16.3012,86.2678-13.5322h82.8847l60.8949,6.7661,42.2881,10.1492,27.0475,13.4226Z"/><path class="cls-5" d="m405.8815,312.5432c39.553-.0731,77.9286,3.7474,108.3676,9.6745,31.4099,6.2791,53.5148,14.1337,61.0725,22.9557l-.0085,4.368c-9.1146-10.9783-38.8594-19.0263-61.7711-23.6272-30.2073-5.8764-68.3258-9.6701-107.6605-9.597-41.5066.0776-80.1563,4.0086-109.9221,9.8163-23.8843,4.7395-55.7375,14.1545-59.7142,23.4412v-4.5485c2.1839-6.4283,25.9023-16.0343,59.1763-22.6952,29.9891-5.8479,68.7098-9.7119,110.46-9.7879h0Zm.0169-14.3646c39.5529-.0715,77.9286,3.7504,108.3676,9.6745,31.4099,6.2822,53.5148,14.1337,61.0725,22.9557l-.0085,4.368c-9.1146-10.9755-38.8594-19.0246-61.7711-23.6238-30.2073-5.8792-68.3258-9.673-107.6605-9.597-41.5066.0746-79.9686,4.0086-109.7377,9.8132-23.0487,4.3696-56.2026,14.1574-59.9003,23.4445v-4.5515c2.1839-6.3581,26.3827-16.3087,59.178-22.6952,29.9891-5.8479,68.7098-9.7088,110.46-9.7879v-.0005Z"/><path class="cls-5" d="m405.0865,224.9052c62.331-.3118,116.6983,8.7152,141.5722,21.457l9.073,15.6957c-21.6194-11.6512-80.273-23.7659-150.5542-21.9543-57.2649.3521-118.4525,6.3045-149.1519,22.6834l10.8317-18.1145c25.1953-13.0655,84.6135-19.6944,138.2315-19.7638"/><path class="cls-5" d="m405.9154,237.8623c35.5508-.0941,69.9023,1.9111,97.2221,6.84,25.4422,4.7351,49.7055,11.8422,53.1748,15.6642l2.6897,4.753c-8.4375-5.5093-29.4342-11.6438-56.3937-16.7563-27.0746-5.0886-61.4024-6.7744-96.7552-6.6819-40.1264-.1372-71.3012,1.9811-98.0561,6.6462-28.2958,5.2945-47.9277,12.8581-52.7705,16.452l2.6359-5.0245c9.4101-4.8007,24.341-10.5876,49.4314-15.1048,27.6683-5.0543,59.1746-6.57,98.824-6.7878h-.0015l-.0009-.0002Zm-.0152-14.3514c34.0217-.0895,67.6136,1.8065,93.7985,6.5134,20.6519,4.0204,41.0753,10.2967,48.5536,15.8821l3.9338,6.2509c-6.6876-7.4337-31.8616-14.4783-54.0848-18.4241-25.9835-4.4815-58.18-6.2553-92.2017-6.5388-35.7047.1-68.7013,2.287-94.3059,6.9489-24.4273,4.6485-40.1906,10.1519-46.8603,14.4498l3.4593-5.2214c9.2043-4.8455,24.0738-9.2956,42.8007-12.9342,25.7941-4.6963,58.9937-6.8267,94.9081-6.9266h-.0012Z"/><path class="cls-5" d="m489.1046,408.0974c-30.8162-5.7525-61.6882-6.588-83.2518-6.3343-103.8715,1.2173-137.4263,21.3284-141.5215,27.4179l-7.7631-12.6552c26.4453-19.1684,83.0082-29.918,149.8471-28.8185,34.7067.5684,64.6569,2.8732,89.8521,7.7531l-7.165,12.6403"/><path class="cls-6" d="m405.2557,399.9781c28.8946.4311,57.2565,1.6246,84.6321,6.7296l-1.9825,3.4998c-25.4253-4.6933-52.5303-6.4895-82.5515-6.3432-38.335-.2999-77.1082,3.2806-110.8643,12.9686-10.6512,2.9642-28.284,9.8119-30.0821,15.4703l-1.9721-3.2521c.5684-3.3446,11.2255-10.2862,31.1478-15.8836,38.6649-11.0724,74.8314-12.9386,111.6728-13.1922v.0034l-.0002-.0005Zm1.3113-14.5409c29.9366.5594,60.8526,1.9439,90.9026,7.8962l-2.0647,3.643c-27.1354-5.387-53.0614-7.1832-88.6613-7.7306-38.4568.07-79.2497,2.8122-116.3397,13.5951-11.9745,3.4879-32.6414,11.0291-33.3298,16.9998l-1.9721-3.4939c.449-5.4229,18.3395-12.497,34.4361-17.1791,37.376-10.8665,78.2753-13.6608,117.0299-13.7308l-.0008.0002Z"/><path class="cls-5" d="m554.1099,418.4496l-12.4818,19.3663-35.862-31.8497-93.0339-62.5864-104.8746-57.5119-54.4502-18.6237,11.6039-21.5162,3.9413-2.1482,33.8305,8.4576,111.6407,57.5119,64.278,40.5966,54.1288,38.9051,21.9898,25.3729-.7105,4.0258Z"/><path class="cls-5" d="m251.4452,267.7515c9.5503-6.4775,79.7368,24.7893,153.1761,69.0717,73.2447,44.4093,143.2333,94.5918,136.9154,103.9831l-2.078,3.2686-.9532.7519c.2044-.1461,1.2575-1.4337-.103-4.9156-3.1207-10.2682-52.7671-49.8848-135.1427-99.6224-80.3052-47.8854-147.2321-76.7462-153.9237-68.4966l2.1093-4.0414h-.0015l.0014.0007Zm305.2188,150.4223c6.0388-11.9286-59.0613-60.9693-139.7741-108.7177-82.5684-46.7977-142.078-74.3442-152.9477-66.1302l-2.4152,4.3965c-.021.2417.088-.2999.5982-.6937,1.9766-1.7245,5.2525-1.6082,6.7309-1.6351,18.7167.2805,72.1723,24.8806,147.1729,67.8775,32.863,19.1396,138.8252,87.0983,138.4209,106.2092.0284,1.6425.1358,1.9811-.4818,2.7942l2.6956-4.0996v-.0034l.0004.0022Z"/></g><g><path class="cls-3" d="m305.4895,356.9288c0,27.5228,11.2703,52.4153,29.529,70.6077,18.2939,18.2313,43.1542,29.7353,70.721,29.7353,27.7089,0,52.8551-11.2529,71.0711-29.4139,18.2161-18.1585,29.5053-43.2219,29.5104-70.8411h-.0034v-133.9502l-200.8517-.2387.0208,134.1008h.0034l-.0005.0002Z"/><path class="cls-9" d="m309.2447,357.1148v.0761c0,26.3151,10.8958,50.2789,28.3753,67.6762,17.5141,17.4312,41.6352,28.2688,68.023,28.2688,26.5248,0,50.5969-10.7591,68.0365-28.1233,17.4363-17.3635,28.2434-41.329,28.2468-67.7355h-.0034v-129.9531l-192.5632-.0313-.1179,129.8212m153.966-90.9144l.0068,82.7004-.0701,8.7481h.0015c0,2.3018-.1387,4.9261-.4072,7.1607-1.5648,13.0745-7.5782,24.4713-16.4841,33.3366-10.4259,10.3787-24.8164,16.816-40.6761,16.816-15.7769,0-29.8368-6.6611-40.3073-17.0844-10.7407-10.6905-16.966-25.3492-16.966-40.507l-.0223-91.3813,114.9222.2074.0034.0034-.0008.0002Z"/><g id="castle3"><g id="castle"><path class="cls-12" d="m321.7112,261.2223c.2282-9.3389,6.8547-11.5497,6.9024-11.5825.0477-.0313,7.1575,2.381,7.1337,11.6692l-14.0359-.0866"/><path class="cls-8" d="m315.9939,249.8214l-1.1531,10.7322,7.0039.0152c.0672-8.8793,6.722-10.3564,6.883-10.3236.1507-.0085,6.7473,1.9632,6.9232,10.3236h7.0217l-1.268-10.8143-25.4101.0641v.0034l-.0006-.0007Z"/><path class="cls-8" d="m314.37,260.5964h28.6646c.6041,0,1.0979.5967,1.0979,1.3262,0,.728-.4938,1.3218-1.0979,1.3218h-28.6646c-.6041,0-1.0979-.5937-1.0979-1.3218,0-.7295.4938-1.3262,1.0979-1.3262Z"/><path class="cls-8" d="m324.7898,260.5457c.0313-5.6034,3.8264-7.1892,3.8459-7.1861.0015,0,3.9621,1.6351,3.9935,7.1861h-7.8392"/><path class="cls-8" d="m314.979,245.3558h27.4788c.5788,0,1.0532.5386,1.0532,1.192,0,.6549-.4744,1.192-1.0532,1.192h-27.4788c-.5788,0-1.0532-.5341-1.0532-1.192,0-.6534.4744-1.192,1.0532-1.192Z"/><path class="cls-8" d="m315.5541,247.7577h26.2829c.5535,0,1.007.5356,1.007,1.1905,0,.6564-.4535,1.192-1.007,1.192h-26.2829c-.5535,0-1.007-.5356-1.007-1.192,0-.6549.4535-1.1905,1.007-1.1905Z"/><path class="cls-8" d="m324.0455,229.8445l2.075.0034v1.4739h1.5141v-1.5067l2.1257.0068v1.5008h1.5186v-1.5067h2.1273l-.0034,3.4028c0,.5341-.4296.8802-.9279.8802h-7.4618c-.5012,0-.9637-.4013-.9652-.8906l-.0051-3.3626h.0015l.0011-.0012Z"/><path class="cls-8" d="m331.8604,234.3947l.4684,10.9127-7.2783-.0269.4819-10.9142,6.328.0284"/><path id="cp1" class="cls-8" d="m322.9799,239.4523l.2223,5.8823-6.9785.0034.1969-5.8853h6.5608-.0015v-.0003Z"/><path id="cp1-2" class="cls-8" d="m340.9253,239.4523l.2223,5.8823-6.9785.0034.1969-5.8853h6.5608-.0015v-.0003Z"/><path id="cp2" class="cls-8" d="m315.1312,235.1897l2.0288.0051v1.4754h1.4843v-1.5097l2.0796.0068v1.5038h1.4873v-1.5097l2.0809.0034-.0034,3.4028c0,.5311-.4207.8772-.907.8772h-7.3021c-.4893,0-.9443-.3983-.9458-.8891l-.0051-3.3641h.0015l.001-.0018Z"/><path id="cp2-2" class="cls-8" d="m333.0766,235.1897l2.0288.0051v1.4754h1.4843v-1.5097l2.0796.0068v1.5038h1.4873v-1.5097l2.0809.0034-.0034,3.4028c0,.5311-.4207.8772-.907.8772h-7.3021c-.4893,0-.9443-.3983-.9458-.8891l-.0051-3.3641h.0015l.001-.0018Z"/><path d="m327.9868,237.8454c-.0448-1.0607,1.4828-1.0726,1.4649,0v2.5989h-1.4649v-2.5982"/><path id="cp3" d="m318.971,241.6175c-.0051-1.0249,1.4157-1.0458,1.3978,0v2.008h-1.3972v-2.0078"/><path id="cp3-2" d="m336.9705,241.6175c-.0051-1.0249,1.4157-1.0458,1.3978,0v2.008h-1.3972v-2.0078"/></g><g id="castle-2"><path class="cls-12" d="m321.7112,339.5734c.2282-9.3389,6.8547-11.5497,6.9024-11.5825.0477-.0313,7.1575,2.381,7.1337,11.6692l-14.0359-.0866"/><path class="cls-8" d="m315.9939,328.1725l-1.1531,10.7322,7.0039.0152c.0672-8.8793,6.722-10.3564,6.883-10.3236.1507-.0085,6.7473,1.9632,6.9232,10.3236h7.0217l-1.268-10.8143-25.4101.0641v.0034l-.0006-.0007Z"/><path class="cls-8" d="m314.37,338.9475h28.6646c.6041,0,1.0979.5967,1.0979,1.3262,0,.728-.4938,1.3218-1.0979,1.3218h-28.6646c-.6041,0-1.0979-.5937-1.0979-1.3218,0-.7295.4938-1.3262,1.0979-1.3262Z"/><path class="cls-8" d="m324.7898,338.8968c.0313-5.6034,3.8264-7.1892,3.8459-7.1861.0015,0,3.9621,1.6351,3.9935,7.1861h-7.8392"/><path class="cls-8" d="m314.979,323.7069h27.4788c.5788,0,1.0532.5386,1.0532,1.192,0,.6549-.4744,1.192-1.0532,1.192h-27.4788c-.5788,0-1.0532-.5341-1.0532-1.192,0-.6534.4744-1.192,1.0532-1.192Z"/><path class="cls-8" d="m315.5541,326.1088h26.2829c.5535,0,1.007.5356,1.007,1.1905,0,.6564-.4535,1.192-1.007,1.192h-26.2829c-.5535,0-1.007-.5356-1.007-1.192,0-.6549.4535-1.1905,1.007-1.1905Z"/><path class="cls-8" d="m324.0455,308.1956l2.075.0034v1.4739h1.5141v-1.5067l2.1257.0068v1.5008h1.5186v-1.5067h2.1273l-.0034,3.4028c0,.5341-.4296.8802-.9279.8802h-7.4618c-.5012,0-.9637-.4013-.9652-.8906l-.0051-3.3626h.0015l.0011-.0012Z"/><path class="cls-8" d="m331.8604,312.7458l.4684,10.9127-7.2783-.0269.4819-10.9142,6.328.0284"/><path id="cp1-3" class="cls-8" d="m322.9799,317.8035l.2223,5.8823-6.9785.0034.1969-5.8853h6.5608-.0015v-.0003Z"/><path id="cp1-4" class="cls-8" d="m340.9253,317.8035l.2223,5.8823-6.9785.0034.1969-5.8853h6.5608-.0015v-.0003Z"/><path id="cp2-3" class="cls-8" d="m315.1312,313.5408l2.0288.0051v1.4754h1.4843v-1.5097l2.0796.0068v1.5038h1.4873v-1.5097l2.0809.0034-.0034,3.4028c0,.5311-.4207.8772-.907.8772h-7.3021c-.4893,0-.9443-.3983-.9458-.8891l-.0051-3.3641h.0015l.001-.0018Z"/><path id="cp2-4" class="cls-8" d="m333.0766,313.5408l2.0288.0051v1.4754h1.4843v-1.5097l2.0796.0068v1.5038h1.4873v-1.5097l2.0809.0034-.0034,3.4028c0,.5311-.4207.8772-.907.8772h-7.3021c-.4893,0-.9443-.3983-.9458-.8891l-.0051-3.3641h.0015l.001-.0018Z"/><path d="m327.9868,316.1965c-.0448-1.0607,1.4828-1.0726,1.4649,0v2.5989h-1.4649v-2.5982"/><path id="cp3-3" d="m318.971,319.9686c-.0051-1.0249,1.4157-1.0458,1.3978,0v2.008h-1.3972v-2.0078"/><path id="cp3-4" d="m336.9705,319.9686c-.0051-1.0249,1.4157-1.0458,1.3978,0v2.008h-1.3972v-2.0078"/></g><g id="castle-3"><path class="cls-12" d="m352.2619,421.1284c-6.466-6.7422-3.3657-13.0021-3.3554-13.0591.0114-.0559,6.7328-3.4013,13.3068,3.1602l-9.9513,9.8988"/><path class="cls-7" d="m340.1433,417.1523l6.803,8.3803,4.9458-4.9592c-6.2534-6.3041-2.6125-12.0671-2.4757-12.1582.1002-.1129,6.1473-3.4046,12.2037,2.3614l4.9475-4.9826-8.5672-6.7201-17.8587,18.0761.0024.0024h-.0009Z"/><path class="cls-7" d="m346.6451,425.8967l20.1973-20.3403c.4257-.4287,1.197-.3586,1.7147.1554.5166.513.59,1.2817.1643,1.7104l-20.1973,20.3403c-.4257.4287-1.1949.3607-1.7115-.1522-.5177-.514-.5932-1.2849-.1675-1.7136Z"/><path class="cls-7" d="m353.9509,418.4671c-3.9541-3.9704-2.4053-7.7807-2.3894-7.7924.0011-.0011,3.9519-1.6594,7.9131,2.2296l-5.5236,5.5627"/><path class="cls-7" d="m336.2594,414.7259l19.3618-19.4989c.4078-.4107,1.1243-.3679,1.5879.0925.4647.4615.5115,1.1765.1037,1.5872l-19.3618,19.4989c-.4078.4107-1.1211.371-1.5879-.0925-.4637-.4604-.5116-1.1765-.1037-1.5872Z"/><path class="cls-7" d="m338.3691,416.0103l18.5192-18.6502c.39-.3927,1.0895-.3372,1.5543.1243.4658.4625.5263,1.1617.1363,1.5544l-18.5192,18.6502c-.39.3927-1.0895.3372-1.5553-.1253-.4647-.4615-.5252-1.1606-.1353-1.5534Z"/><path class="cls-7" d="m331.6411,397.3629l1.4645-1.47,1.0459,1.0385,1.0669-1.0744-1.0692-1.0617,1.5026-1.5036,1.065,1.0575,1.07-1.0776-1.0692-1.0617,1.4989-1.5095,2.4123,2.4001c.379.3763.3219.925-.0292,1.2786l-5.2577,5.2949c-.3532.3557-.9638.4011-1.3121.0574l-2.3897-2.3657.0011-.0011v-.0016Z"/><path class="cls-7" d="m340.3763,395.0237l8.0737,7.3568-5.1474,5.1457-7.4052-8.0322,4.4789-4.4703"/><path id="cp1-5" class="cls-7" d="m337.7079,404.8889l4.3307,3.987-4.9147,4.9543-4.0375-4.2866,4.6228-4.6555-.0011.0011-.0002-.0003Z"/><path id="cp1-6" class="cls-7" d="m350.3524,392.1549l4.3307,3.987-4.9147,4.9543-4.0375-4.2866,4.6228-4.6555-.0011.0011-.0002-.0003Z"/><path id="cp2-5" class="cls-7" d="m329.1529,407.4548l1.4331-1.4361,1.0469,1.0396,1.0459-1.0533-1.0713-1.0638,1.4701-1.4709,1.0671,1.0596,1.048-1.0554-1.0713-1.0638,1.4686-1.4742,2.4123,2.4001c.3769.3742.326.9166-.0166,1.2617l-5.1452,5.1816c-.3448.3472-.948.3894-1.2973.0446l-2.3907-2.3668.0011-.0011-.0006-.0019Z"/><path id="cp2-6" class="cls-7" d="m341.7974,394.7208l1.4331-1.4361,1.0469,1.0396,1.0459-1.0533-1.0713-1.0638,1.4701-1.4709,1.0671,1.0596,1.048-1.0554-1.0713-1.0638,1.4686-1.4742,2.4123,2.4001c.3769.3742.326.9166-.0166,1.2617l-5.1452,5.1816c-.3448.3472-.948.3894-1.2973.0446l-2.3907-2.3668.0011-.0011-.0006-.0019Z"/><path d="m340.0955,400.2038c-.7842-.7156.2837-1.808,1.0322-1.0395l1.8441,1.8312-1.0322,1.0395-1.8437-1.8307"/><path id="cp3-5" d="m336.4196,409.2592c-.7308-.7185.2554-1.7414.9849-.9919l1.4249,1.4149-.9845.9915-1.4248-1.4147"/><path id="cp3-6" d="m349.1022,396.4868c-.7308-.7185.2554-1.7414.9849-.9919l1.4249,1.4149-.9845.9915-1.4248-1.4147"/></g></g><g id="castle-4"><path class="cls-12" d="m399.0373,261.2223c.2282-9.3389,6.8547-11.5497,6.9024-11.5825.0477-.0313,7.1575,2.381,7.1337,11.6692l-14.0359-.0866"/><path class="cls-8" d="m393.3199,249.8214l-1.1531,10.7322,7.0039.0152c.0672-8.8793,6.722-10.3564,6.883-10.3236.1507-.0085,6.7473,1.9632,6.9232,10.3236h7.0217l-1.268-10.8143-25.4101.0641v.0034l-.0006-.0007Z"/><path class="cls-8" d="m391.6961,260.5964h28.6646c.6041,0,1.0979.5967,1.0979,1.3262,0,.728-.4938,1.3218-1.0979,1.3218h-28.6646c-.6041,0-1.0979-.5937-1.0979-1.3218,0-.7295.4938-1.3262,1.0979-1.3262Z"/><path class="cls-8" d="m402.1158,260.5457c.0313-5.6034,3.8264-7.1892,3.8459-7.1861.0015,0,3.9621,1.6351,3.9935,7.1861h-7.8392"/><path class="cls-8" d="m392.305,245.3558h27.4788c.5788,0,1.0532.5386,1.0532,1.192,0,.6549-.4744,1.192-1.0532,1.192h-27.4788c-.5788,0-1.0532-.5341-1.0532-1.192,0-.6534.4744-1.192,1.0532-1.192Z"/><path class="cls-8" d="m392.8801,247.7577h26.2829c.5535,0,1.007.5356,1.007,1.1905,0,.6564-.4535,1.192-1.007,1.192h-26.2829c-.5535,0-1.007-.5356-1.007-1.192,0-.6549.4535-1.1905,1.007-1.1905Z"/><path class="cls-8" d="m401.3716,229.8445l2.075.0034v1.4739h1.5141v-1.5067l2.1257.0068v1.5008h1.5186v-1.5067h2.1273l-.0034,3.4028c0,.5341-.4296.8802-.9279.8802h-7.4618c-.5012,0-.9637-.4013-.9652-.8906l-.0051-3.3626h.0015l.0011-.0012Z"/><path class="cls-8" d="m409.1864,234.3947l.4684,10.9127-7.2783-.0269.4819-10.9142,6.328.0284"/><path id="cp1-7" class="cls-8" d="m400.3059,239.4523l.2223,5.8823-6.9785.0034.1969-5.8853h6.5608-.0015v-.0003Z"/><path id="cp1-8" class="cls-8" d="m418.2513,239.4523l.2223,5.8823-6.9785.0034.1969-5.8853h6.5608-.0015v-.0003Z"/><path id="cp2-7" class="cls-8" d="m392.4572,235.1897l2.0288.0051v1.4754h1.4843v-1.5097l2.0796.0068v1.5038h1.4873v-1.5097l2.0809.0034-.0034,3.4028c0,.5311-.4207.8772-.907.8772h-7.3021c-.4893,0-.9443-.3983-.9458-.8891l-.0051-3.3641h.0015l.001-.0018Z"/><path id="cp2-8" class="cls-8" d="m410.4026,235.1897l2.0288.0051v1.4754h1.4843v-1.5097l2.0796.0068v1.5038h1.4873v-1.5097l2.0809.0034-.0034,3.4028c0,.5311-.4207.8772-.907.8772h-7.3021c-.4893,0-.9443-.3983-.9458-.8891l-.0051-3.3641h.0015l.001-.0018Z"/><path d="m405.3128,237.8454c-.0448-1.0607,1.4828-1.0726,1.4649,0v2.5989h-1.4649v-2.5982"/><path id="cp3-7" d="m396.297,241.6175c-.0051-1.0249,1.4157-1.0458,1.3978,0v2.008h-1.3972v-2.0078"/><path id="cp3-8" d="m414.2965,241.6175c-.0051-1.0249,1.4157-1.0458,1.3978,0v2.008h-1.3972v-2.0078"/></g><g id="castle3-2"><g id="castle-5"><path class="cls-12" d="m489.8691,261.2223c-.2282-9.3389-6.8547-11.5497-6.9024-11.5825-.0477-.0313-7.1575,2.381-7.1337,11.6692l14.0359-.0866"/><path class="cls-8" d="m495.5864,249.8214l1.1531,10.7322-7.0039.0152c-.0672-8.8793-6.722-10.3564-6.883-10.3236-.1507-.0085-6.7473,1.9632-6.9232,10.3236h-7.0217l1.268-10.8143,25.4101.0641v.0034l.0006-.0007Z"/><path class="cls-8" d="m497.2103,260.5964h-28.6646c-.6041,0-1.0979.5967-1.0979,1.3262,0,.728.4938,1.3218,1.0979,1.3218h28.6646c.6041,0,1.0979-.5937,1.0979-1.3218,0-.7295-.4938-1.3262-1.0979-1.3262Z"/><path class="cls-8" d="m486.7905,260.5457c-.0313-5.6034-3.8264-7.1892-3.8459-7.1861-.0015,0-3.9621,1.6351-3.9935,7.1861h7.8392"/><path class="cls-8" d="m496.6013,245.3558h-27.4788c-.5788,0-1.0532.5386-1.0532,1.192,0,.6549.4744,1.192,1.0532,1.192h27.4788c.5788,0,1.0532-.5341,1.0532-1.192,0-.6534-.4744-1.192-1.0532-1.192Z"/><path class="cls-8" d="m496.0262,247.7577h-26.2829c-.5535,0-1.007.5356-1.007,1.1905,0,.6564.4535,1.192,1.007,1.192h26.2829c.5535,0,1.007-.5356,1.007-1.192,0-.6549-.4535-1.1905-1.007-1.1905Z"/><path class="cls-8" d="m487.5348,229.8445l-2.075.0034v1.4739h-1.5141v-1.5067l-2.1257.0068v1.5008h-1.5186v-1.5067h-2.1273l.0034,3.4028c0,.5341.4296.8802.9279.8802h7.4618c.5012,0,.9637-.4013.9652-.8906l.0051-3.3626h-.0015l-.0011-.0012Z"/><path class="cls-8" d="m479.7199,234.3947l-.4684,10.9127,7.2783-.0269-.4819-10.9142-6.328.0284"/><path id="cp1-9" class="cls-8" d="m488.6004,239.4523l-.2223,5.8823,6.9785.0034-.1969-5.8853h-6.5608.0015v-.0003Z"/><path id="cp1-10" class="cls-8" d="m470.655,239.4523l-.2223,5.8823,6.9785.0034-.1969-5.8853h-6.5608.0015v-.0003Z"/><path id="cp2-9" class="cls-8" d="m496.4491,235.1897l-2.0288.0051v1.4754h-1.4843v-1.5097l-2.0796.0068v1.5038h-1.4873v-1.5097l-2.0809.0034.0034,3.4028c0,.5311.4207.8772.907.8772h7.3021c.4893,0,.9443-.3983.9458-.8891l.0051-3.3641h-.0015l-.001-.0018Z"/><path id="cp2-10" class="cls-8" d="m478.5037,235.1897l-2.0288.0051v1.4754h-1.4843v-1.5097l-2.0796.0068v1.5038h-1.4873v-1.5097l-2.0809.0034.0034,3.4028c0,.5311.4207.8772.907.8772h7.3021c.4893,0,.9443-.3983.9458-.8891l.0051-3.3641h-.0015l-.001-.0018Z"/><path d="m483.5935,237.8454c.0448-1.0607-1.4828-1.0726-1.4649,0v2.5989h1.4649v-2.5982"/><path id="cp3-9" d="m492.6093,241.6175c.0051-1.0249-1.4157-1.0458-1.3978,0v2.008h1.3972v-2.0078"/><path id="cp3-10" d="m474.6098,241.6175c.0051-1.0249-1.4157-1.0458-1.3978,0v2.008h1.3972v-2.0078"/></g><g id="castle-6"><path class="cls-12" d="m489.8691,339.5734c-.2282-9.3389-6.8547-11.5497-6.9024-11.5825-.0477-.0313-7.1575,2.381-7.1337,11.6692l14.0359-.0866"/><path class="cls-8" d="m495.5864,328.1725l1.1531,10.7322-7.0039.0152c-.0672-8.8793-6.722-10.3564-6.883-10.3236-.1507-.0085-6.7473,1.9632-6.9232,10.3236h-7.0217l1.268-10.8143,25.4101.0641v.0034l.0006-.0007Z"/><path class="cls-8" d="m497.2103,338.9475h-28.6646c-.6041,0-1.0979.5967-1.0979,1.3262,0,.728.4938,1.3218,1.0979,1.3218h28.6646c.6041,0,1.0979-.5937,1.0979-1.3218,0-.7295-.4938-1.3262-1.0979-1.3262Z"/><path class="cls-8" d="m486.7905,338.8968c-.0313-5.6034-3.8264-7.1892-3.8459-7.1861-.0015,0-3.9621,1.6351-3.9935,7.1861h7.8392"/><path class="cls-8" d="m496.6013,323.7069h-27.4788c-.5788,0-1.0532.5386-1.0532,1.192,0,.6549.4744,1.192,1.0532,1.192h27.4788c.5788,0,1.0532-.5341,1.0532-1.192,0-.6534-.4744-1.192-1.0532-1.192Z"/><path class="cls-8" d="m496.0262,326.1088h-26.2829c-.5535,0-1.007.5356-1.007,1.1905,0,.6564.4535,1.192,1.007,1.192h26.2829c.5535,0,1.007-.5356,1.007-1.192,0-.6549-.4535-1.1905-1.007-1.1905Z"/><path class="cls-8" d="m487.5348,308.1956l-2.075.0034v1.4739h-1.5141v-1.5067l-2.1257.0068v1.5008h-1.5186v-1.5067h-2.1273l.0034,3.4028c0,.5341.4296.8802.9279.8802h7.4618c.5012,0,.9637-.4013.9652-.8906l.0051-3.3626h-.0015l-.0011-.0012Z"/><path class="cls-8" d="m479.7199,312.7458l-.4684,10.9127,7.2783-.0269-.4819-10.9142-6.328.0284"/><path id="cp1-11" class="cls-8" d="m488.6004,317.8035l-.2223,5.8823,6.9785.0034-.1969-5.8853h-6.5608.0015v-.0003Z"/><path id="cp1-12" class="cls-8" d="m470.655,317.8035l-.2223,5.8823,6.9785.0034-.1969-5.8853h-6.5608.0015v-.0003Z"/><path id="cp2-11" class="cls-8" d="m496.4491,313.5408l-2.0288.0051v1.4754h-1.4843v-1.5097l-2.0796.0068v1.5038h-1.4873v-1.5097l-2.0809.0034.0034,3.4028c0,.5311.4207.8772.907.8772h7.3021c.4893,0,.9443-.3983.9458-.8891l.0051-3.3641h-.0015l-.001-.0018Z"/><path id="cp2-12" class="cls-8" d="m478.5037,313.5408l-2.0288.0051v1.4754h-1.4843v-1.5097l-2.0796.0068v1.5038h-1.4873v-1.5097l-2.0809.0034.0034,3.4028c0,.5311.4207.8772.907.8772h7.3021c.4893,0,.9443-.3983.9458-.8891l.0051-3.3641h-.0015l-.001-.0018Z"/><path d="m483.5935,316.1965c.0448-1.0607-1.4828-1.0726-1.4649,0v2.5989h1.4649v-2.5982"/><path id="cp3-11" d="m492.6093,319.9686c.0051-1.0249-1.4157-1.0458-1.3978,0v2.008h1.3972v-2.0078"/><path id="cp3-12" d="m474.6098,319.9686c.0051-1.0249-1.4157-1.0458-1.3978,0v2.008h1.3972v-2.0078"/></g><g id="castle-7"><path class="cls-12" d="m459.3184,421.1284c6.466-6.7422,3.3657-13.0021,3.3554-13.0591-.0114-.0559-6.7328-3.4013-13.3068,3.1602l9.9513,9.8988"/><path class="cls-7" d="m471.437,417.1523l-6.803,8.3803-4.9458-4.9592c6.2534-6.3041,2.6125-12.0671,2.4757-12.1582-.1002-.1129-6.1473-3.4046-12.2037,2.3614l-4.9475-4.9826,8.5672-6.7201,17.8587,18.0761-.0024.0024h.0009Z"/><path class="cls-7" d="m464.9352,425.8967l-20.1973-20.3403c-.4257-.4287-1.197-.3586-1.7147.1554-.5166.513-.59,1.2817-.1643,1.7104l20.1973,20.3403c.4257.4287,1.1949.3607,1.7115-.1522.5177-.514.5932-1.2849.1675-1.7136Z"/><path class="cls-7" d="m457.6294,418.4671c3.9541-3.9704,2.4053-7.7807,2.3894-7.7924-.0011-.0011-3.9519-1.6594-7.9131,2.2296l5.5236,5.5627"/><path class="cls-7" d="m475.3208,414.7259l-19.3618-19.4989c-.4078-.4107-1.1243-.3679-1.5879.0925-.4647.4615-.5115,1.1765-.1037,1.5872l19.3618,19.4989c.4078.4107,1.1211.371,1.5879-.0925.4637-.4604.5116-1.1765.1037-1.5872Z"/><path class="cls-7" d="m473.2112,416.0103l-18.5192-18.6502c-.39-.3927-1.0895-.3372-1.5543.1243-.4658.4625-.5263,1.1617-.1363,1.5544l18.5192,18.6502c.39.3927,1.0895.3372,1.5553-.1253.4647-.4615.5252-1.1606.1353-1.5534Z"/><path class="cls-7" d="m479.9392,397.3629l-1.4645-1.47-1.0459,1.0385-1.0669-1.0744,1.0692-1.0617-1.5026-1.5036-1.065,1.0575-1.07-1.0776,1.0692-1.0617-1.4989-1.5095-2.4123,2.4001c-.379.3763-.3219.925.0292,1.2786l5.2577,5.2949c.3532.3557.9638.4011,1.3121.0574l2.3897-2.3657-.0011-.0011v-.0016Z"/><path class="cls-7" d="m471.204,395.0237l-8.0737,7.3568,5.1474,5.1457,7.4052-8.0322-4.4789-4.4703"/><path id="cp1-13" class="cls-7" d="m473.8724,404.8889l-4.3307,3.987,4.9147,4.9543,4.0375-4.2866-4.6228-4.6555.0011.0011.0002-.0003Z"/><path id="cp1-14" class="cls-7" d="m461.2279,392.1549l-4.3307,3.987,4.9147,4.9543,4.0375-4.2866-4.6228-4.6555.0011.0011.0002-.0003Z"/><path id="cp2-13" class="cls-7" d="m482.4274,407.4548l-1.4331-1.4361-1.0469,1.0396-1.0459-1.0533,1.0713-1.0638-1.4701-1.4709-1.0671,1.0596-1.048-1.0554,1.0713-1.0638-1.4686-1.4742-2.4123,2.4001c-.3769.3742-.326.9166.0166,1.2617l5.1452,5.1816c.3448.3472.948.3894,1.2973.0446l2.3907-2.3668-.0011-.0011.0006-.0019Z"/><path id="cp2-14" class="cls-7" d="m469.7829,394.7208l-1.4331-1.4361-1.0469,1.0396-1.0459-1.0533,1.0713-1.0638-1.4701-1.4709-1.0671,1.0596-1.048-1.0554,1.0713-1.0638-1.4686-1.4742-2.4123,2.4001c-.3769.3742-.326.9166.0166,1.2617l5.1452,5.1816c.3448.3472.948.3894,1.2973.0446l2.3907-2.3668-.0011-.0011.0006-.0019Z"/><path d="m471.4848,400.2038c.7842-.7156-.2837-1.808-1.0322-1.0395l-1.8441,1.8312,1.0322,1.0395,1.8437-1.8307"/><path id="cp3-13" d="m475.1607,409.2592c.7308-.7185-.2554-1.7414-.9849-.9919l-1.4249,1.4149.9845.9915,1.4248-1.4147"/><path id="cp3-14" d="m462.4781,396.4868c.7308-.7185-.2554-1.7414-.9849-.9919l-1.4249,1.4149.9845.9915,1.4248-1.4147"/></g></g><g id="quina"><path class="cls-10" d="m393.5097,342.3749v.0085c0,3.7415,1.4366,7.1504,3.7413,9.6238,2.3093,2.481,5.4897,4.0219,8.9685,4.0219,3.4967,0,6.6712-1.5306,8.97-4.0011,2.2972-2.4674,3.7249-5.8733,3.7249-9.6298v-18.2144l-25.3594-.0208-.0462,18.211"/><circle class="cls-4" cx="399.3252" cy="331.0907" r="2.5136"/><circle class="cls-4" cx="413.3953" cy="331.1026" r="2.5136"/><circle class="cls-4" cx="406.3467" cy="337.8568" r="2.5136"/><circle class="cls-4" cx="399.3252" cy="344.9291" r="2.5136"/><circle class="cls-4" cx="413.38" cy="344.9105" r="2.5136"/></g><g id="quina-2"><path class="cls-10" d="m393.5097,298.3682v.0085c0,3.7415,1.4366,7.1504,3.7413,9.6238,2.3093,2.481,5.4897,4.0219,8.9685,4.0219,3.4967,0,6.6712-1.5306,8.97-4.0011,2.2972-2.4674,3.7249-5.8733,3.7249-9.6298v-18.2144l-25.3594-.0208-.0462,18.211"/><circle class="cls-4" cx="399.3252" cy="287.084" r="2.5136"/><circle class="cls-4" cx="413.3953" cy="287.0958" r="2.5136"/><circle class="cls-4" cx="406.3467" cy="293.8501" r="2.5136"/><circle class="cls-4" cx="399.3252" cy="300.9224" r="2.5136"/><circle class="cls-4" cx="413.38" cy="300.9038" r="2.5136"/></g><g id="quina-3"><path class="cls-10" d="m358.3277,342.3749v.0085c0,3.7415,1.4366,7.1504,3.7413,9.6238,2.3093,2.481,5.4897,4.0219,8.9685,4.0219,3.4967,0,6.6712-1.5306,8.97-4.0011,2.2972-2.4674,3.7249-5.8733,3.7249-9.6298v-18.2144l-25.3594-.0208-.0462,18.211"/><circle class="cls-4" cx="364.1431" cy="331.0907" r="2.5136"/><circle class="cls-4" cx="378.2132" cy="331.1026" r="2.5136"/><circle class="cls-4" cx="371.1647" cy="337.8568" r="2.5136"/><circle class="cls-4" cx="364.1431" cy="344.9291" r="2.5136"/><circle class="cls-4" cx="378.198" cy="344.9105" r="2.5136"/></g><g id="quina-4"><path class="cls-10" d="m428.6004,342.3749v.0085c0,3.7415,1.4366,7.1504,3.7413,9.6238,2.3093,2.481,5.4897,4.0219,8.9685,4.0219,3.4967,0,6.6712-1.5306,8.97-4.0011,2.2972-2.4674,3.7249-5.8733,3.7249-9.6298v-18.2144l-25.3594-.0208-.0462,18.211"/><circle class="cls-4" cx="434.4159" cy="331.0907" r="2.5136"/><circle class="cls-4" cx="448.486" cy="331.1026" r="2.5136"/><circle class="cls-4" cx="441.4374" cy="337.8568" r="2.5136"/><circle class="cls-4" cx="434.4159" cy="344.9291" r="2.5136"/><circle class="cls-4" cx="448.4707" cy="344.9105" r="2.5136"/></g><g id="quina-5"><path class="cls-10" d="m393.5097,385.9892v.0085c0,3.7415,1.4366,7.1504,3.7413,9.6238,2.3093,2.481,5.4897,4.0219,8.9685,4.0219,3.4967,0,6.6712-1.5306,8.97-4.0011,2.2972-2.4674,3.7249-5.8733,3.7249-9.6298v-18.2144l-25.3594-.0208-.0462,18.211"/><circle class="cls-4" cx="399.3252" cy="374.705" r="2.5136"/><circle class="cls-4" cx="413.3953" cy="374.7169" r="2.5136"/><circle class="cls-4" cx="406.3467" cy="381.4711" r="2.5136"/><circle class="cls-4" cx="399.3252" cy="388.5434" r="2.5136"/><circle class="cls-4" cx="413.38" cy="388.5248" r="2.5136"/></g></g></g></svg>