<?xml version="1.0" encoding="UTF-8"?><svg id="Layer_1" xmlns="http://www.w3.org/2000/svg" xmlns:xlink="http://www.w3.org/1999/xlink" viewBox="0 0 1235 650"><defs><style>.cls-1{fill:none;}.cls-2{clip-path:url(#clippath);}.cls-3{fill:#fff;}.cls-4{fill:#b22234;}.cls-5{fill:#3c3b6e;}.cls-6{stroke:#fff;stroke-miterlimit:10;stroke-width:50px;}</style><clipPath id="clippath"><circle class="cls-1" cx="401.5" cy="324.5" r="324.5"/></clipPath></defs><g class="cls-2"><rect class="cls-4" width="1235" height="650"/><path class="cls-6" d="m0,75h1235m0,100H0m0,100h1235m0,100H0m0,100h1235m0,100H0"/><rect class="cls-5" width="494" height="350"/><g><g id="s18"><g id="s9"><g id="s5"><g id="s4"><path id="s" class="cls-3" d="m41.1667,15l11.7557,36.1803-30.7768-22.3607h38.0423l-30.7768,22.3607,11.7557-36.1803Z"/><path id="s-2" class="cls-3" d="m41.1667,85l11.7557,36.1803-30.7768-22.3607h38.0423l-30.7768,22.3607,11.7557-36.1803Z"/><path id="s-3" class="cls-3" d="m41.1667,155l11.7557,36.1803-30.7768-22.3607h38.0423l-30.7768,22.3607,11.7557-36.1803Z"/><path id="s-4" class="cls-3" d="m41.1667,225l11.7557,36.1803-30.7768-22.3607h38.0423l-30.7768,22.3607,11.7557-36.1803Z"/></g><path id="s-5" class="cls-3" d="m41.1667,295l11.7557,36.1803-30.7768-22.3607h38.0423l-30.7768,22.3607,11.7557-36.1803Z"/></g><g id="s4-2"><path id="s-6" class="cls-3" d="m82.3333,50l11.7557,36.1803-30.7768-22.3607h38.0423l-30.7768,22.3607,11.7557-36.1803Z"/><path id="s-7" class="cls-3" d="m82.3333,120l11.7557,36.1803-30.7768-22.3607h38.0423l-30.7768,22.3607,11.7557-36.1803Z"/><path id="s-8" class="cls-3" d="m82.3333,190l11.7557,36.1803-30.7768-22.3607h38.0423l-30.7768,22.3607,11.7557-36.1803Z"/><path id="s-9" class="cls-3" d="m82.3333,260l11.7557,36.1803-30.7768-22.3607h38.0423l-30.7768,22.3607,11.7557-36.1803Z"/></g></g><g id="s9-2"><g id="s5-2"><g id="s4-3"><path id="s-10" class="cls-3" d="m123.5,15l11.7557,36.1803-30.7768-22.3607h38.0423l-30.7768,22.3607,11.7557-36.1803Z"/><path id="s-11" class="cls-3" d="m123.5,85l11.7557,36.1803-30.7768-22.3607h38.0423l-30.7768,22.3607,11.7557-36.1803Z"/><path id="s-12" class="cls-3" d="m123.5,155l11.7557,36.1803-30.7768-22.3607h38.0423l-30.7768,22.3607,11.7557-36.1803Z"/><path id="s-13" class="cls-3" d="m123.5,225l11.7557,36.1803-30.7768-22.3607h38.0423l-30.7768,22.3607,11.7557-36.1803Z"/></g><path id="s-14" class="cls-3" d="m123.5,295l11.7557,36.1803-30.7768-22.3607h38.0423l-30.7768,22.3607,11.7557-36.1803Z"/></g><g id="s4-4"><path id="s-15" class="cls-3" d="m164.6667,50l11.7557,36.1803-30.7768-22.3607h38.0423l-30.7768,22.3607,11.7557-36.1803Z"/><path id="s-16" class="cls-3" d="m164.6667,120l11.7557,36.1803-30.7768-22.3607h38.0423l-30.7768,22.3607,11.7557-36.1803Z"/><path id="s-17" class="cls-3" d="m164.6667,190l11.7557,36.1803-30.7768-22.3607h38.0423l-30.7768,22.3607,11.7557-36.1803Z"/><path id="s-18" class="cls-3" d="m164.6667,260l11.7557,36.1803-30.7768-22.3607h38.0423l-30.7768,22.3607,11.7557-36.1803Z"/></g></g></g><g id="s18-2"><g id="s9-3"><g id="s5-3"><g id="s4-5"><path id="s-19" class="cls-3" d="m205.8333,15l11.7557,36.1803-30.7768-22.3607h38.0423l-30.7768,22.3607,11.7557-36.1803Z"/><path id="s-20" class="cls-3" d="m205.8333,85l11.7557,36.1803-30.7768-22.3607h38.0423l-30.7768,22.3607,11.7557-36.1803Z"/><path id="s-21" class="cls-3" d="m205.8333,155l11.7557,36.1803-30.7768-22.3607h38.0423l-30.7768,22.3607,11.7557-36.1803Z"/><path id="s-22" class="cls-3" d="m205.8333,225l11.7557,36.1803-30.7768-22.3607h38.0423l-30.7768,22.3607,11.7557-36.1803Z"/></g><path id="s-23" class="cls-3" d="m205.8333,295l11.7557,36.1803-30.7768-22.3607h38.0423l-30.7768,22.3607,11.7557-36.1803Z"/></g><g id="s4-6"><path id="s-24" class="cls-3" d="m247,50l11.7557,36.1803-30.7768-22.3607h38.0423l-30.7768,22.3607,11.7557-36.1803Z"/><path id="s-25" class="cls-3" d="m247,120l11.7557,36.1803-30.7768-22.3607h38.0423l-30.7768,22.3607,11.7557-36.1803Z"/><path id="s-26" class="cls-3" d="m247,190l11.7557,36.1803-30.7768-22.3607h38.0423l-30.7768,22.3607,11.7557-36.1803Z"/><path id="s-27" class="cls-3" d="m247,260l11.7557,36.1803-30.7768-22.3607h38.0423l-30.7768,22.3607,11.7557-36.1803Z"/></g></g><g id="s9-4"><g id="s5-4"><g id="s4-7"><path id="s-28" class="cls-3" d="m288.1667,15l11.7557,36.1803-30.7768-22.3607h38.0423l-30.7768,22.3607,11.7557-36.1803Z"/><path id="s-29" class="cls-3" d="m288.1667,85l11.7557,36.1803-30.7768-22.3607h38.0423l-30.7768,22.3607,11.7557-36.1803Z"/><path id="s-30" class="cls-3" d="m288.1667,155l11.7557,36.1803-30.7768-22.3607h38.0423l-30.7768,22.3607,11.7557-36.1803Z"/><path id="s-31" class="cls-3" d="m288.1667,225l11.7557,36.1803-30.7768-22.3607h38.0423l-30.7768,22.3607,11.7557-36.1803Z"/></g><path id="s-32" class="cls-3" d="m288.1667,295l11.7557,36.1803-30.7768-22.3607h38.0423l-30.7768,22.3607,11.7557-36.1803Z"/></g><g id="s4-8"><path id="s-33" class="cls-3" d="m329.3333,50l11.7557,36.1803-30.7768-22.3607h38.0423l-30.7768,22.3607,11.7557-36.1803Z"/><path id="s-34" class="cls-3" d="m329.3333,120l11.7557,36.1803-30.7768-22.3607h38.0423l-30.7768,22.3607,11.7557-36.1803Z"/><path id="s-35" class="cls-3" d="m329.3333,190l11.7557,36.1803-30.7768-22.3607h38.0423l-30.7768,22.3607,11.7557-36.1803Z"/><path id="s-36" class="cls-3" d="m329.3333,260l11.7557,36.1803-30.7768-22.3607h38.0423l-30.7768,22.3607,11.7557-36.1803Z"/></g></g></g><g id="s9-5"><g id="s5-5"><g id="s4-9"><path id="s-37" class="cls-3" d="m370.5,15l11.7557,36.1803-30.7768-22.3607h38.0423l-30.7768,22.3607,11.7557-36.1803Z"/><path id="s-38" class="cls-3" d="m370.5,85l11.7557,36.1803-30.7768-22.3607h38.0423l-30.7768,22.3607,11.7557-36.1803Z"/><path id="s-39" class="cls-3" d="m370.5,155l11.7557,36.1803-30.7768-22.3607h38.0423l-30.7768,22.3607,11.7557-36.1803Z"/><path id="s-40" class="cls-3" d="m370.5,225l11.7557,36.1803-30.7768-22.3607h38.0423l-30.7768,22.3607,11.7557-36.1803Z"/></g><path id="s-41" class="cls-3" d="m370.5,295l11.7557,36.1803-30.7768-22.3607h38.0423l-30.7768,22.3607,11.7557-36.1803Z"/></g><g id="s4-10"><path id="s-42" class="cls-3" d="m411.6667,50l11.7557,36.1803-30.7768-22.3607h38.0423l-30.7768,22.3607,11.7557-36.1803Z"/><path id="s-43" class="cls-3" d="m411.6667,120l11.7557,36.1803-30.7768-22.3607h38.0423l-30.7768,22.3607,11.7557-36.1803Z"/><path id="s-44" class="cls-3" d="m411.6667,190l11.7557,36.1803-30.7768-22.3607h38.0423l-30.7768,22.3607,11.7557-36.1803Z"/><path id="s-45" class="cls-3" d="m411.6667,260l11.7557,36.1803-30.7768-22.3607h38.0423l-30.7768,22.3607,11.7557-36.1803Z"/></g></g><g id="s5-6"><g id="s4-11"><path id="s-46" class="cls-3" d="m452.8333,15l11.7557,36.1803-30.7768-22.3607h38.0423l-30.7768,22.3607,11.7557-36.1803Z"/><path id="s-47" class="cls-3" d="m452.8333,85l11.7557,36.1803-30.7768-22.3607h38.0423l-30.7768,22.3607,11.7557-36.1803Z"/><path id="s-48" class="cls-3" d="m452.8333,155l11.7557,36.1803-30.7768-22.3607h38.0423l-30.7768,22.3607,11.7557-36.1803Z"/><path id="s-49" class="cls-3" d="m452.8333,225l11.7557,36.1803-30.7768-22.3607h38.0423l-30.7768,22.3607,11.7557-36.1803Z"/></g><path id="s-50" class="cls-3" d="m452.8333,295l11.7557,36.1803-30.7768-22.3607h38.0423l-30.7768,22.3607,11.7557-36.1803Z"/></g></g></g></svg>