<?xml version="1.0" encoding="UTF-8"?><svg id="Layer_1" xmlns="http://www.w3.org/2000/svg" viewBox="0 0 24 24"><defs><style>.cls-1{fill:#274666;}</style></defs><path class="cls-1" d="m19,0H5C2.239,0,0,2.239,0,5v14c0,2.761,2.239,5,5,5h14c2.762,0,5-2.239,5-5V5c0-2.761-2.238-5-5-5Zm-11,19h-3v-11h3v11Zm-1.5-12.268c-.966,0-1.75-.79-1.75-1.764s.784-1.764,1.75-1.764,1.75.79,1.75,1.764-.783,1.764-1.75,1.764Zm13.5,12.268h-3v-5.604c0-3.368-4-3.113-4,0v5.604h-3v-11h3v1.765c1.396-2.586,7-2.777,7,2.476v6.759Z"/></svg>