<?xml version="1.0" encoding="UTF-8"?><svg id="Layer_1" xmlns="http://www.w3.org/2000/svg" viewBox="0 0 581.8521 139.172"><defs><style>.cls-1{fill:#fff;}.cls-2{fill:#231f20;}.cls-3{fill:#4c9bd5;}</style></defs><path class="cls-2" d="m85.9887,41.1504C85.9887,18.423,67.5657,0,44.8361,0S3.6838,18.423,3.6838,41.1504h12.8804c0-15.6135,12.6586-28.27,28.2719-28.27s28.2721,12.6565,28.2721,28.27h12.8804Z"/><path class="cls-1" d="m238.2906,108.847c-3.6475,1.7566-37.264,1.8269-45.0985,1.8269-21.3416,0-34.983-13.102-34.983-33.7678,0-19.3165,13.2365-35.1195,37.8183-35.1195,5.4042,0,11.3456.9465,15.669,2.5665l-3.2404,15.2638c-2.4325-1.0808-6.08-2.0273-11.482-2.0273-10.8062,0-17.8303,7.7002-17.6939,18.5064,0,12.0212,8.1049,18.504,18.099,18.504,4.8626,0,18.6363-3.1657,21.7444-4.5172l19.1672,18.7642Z"/><path class="cls-1" d="m277.9018,88.1173c0,8.6446.2729,15.6668.5414,21.2052h-17.8303l-.9446-9.3204h-.4049c-2.5667,4.0527-8.781,10.8062-20.6658,10.8062-13.5072,0-23.2325-8.3737-23.2325-28.7709v-38.7648h20.5315v35.5246c0,9.5887,3.1059,15.398,10.399,15.398,5.6749,0,9.0517-3.9182,10.2667-7.1586.5414-1.2172.8101-2.701.8101-4.4576v-39.3064h20.5293v44.8448Z"/><path class="cls-1" d="m308.3685,24.9027c0,5.6727-4.1867,10.2667-11.0768,10.2667-6.485,0-10.6708-4.5941-10.6708-10.2667,0-5.8071,4.3223-10.2648,10.9395-10.2648,6.6214,0,10.6717,4.4576,10.8081,10.2648Zm-21.2082,84.4198V43.2724h20.5304v66.05h-20.5304Z"/><path class="cls-1" d="m336.2184,25.4441v17.8283h14.7224v15.1295h-14.7224v23.9062c0,7.9687,2.0295,11.6163,8.1052,11.6163,2.8354,0,4.1869-.1345,6.08-.5394l.1321,15.5323c-2.5624.9444-7.5636,1.7566-13.2343,1.7566-6.617,0-12.1555-2.298-15.5323-5.6727-3.7818-3.9184-5.6749-10.267-5.6749-19.5872v-27.0121h-8.7788v-15.1295h8.7788v-12.2899l20.1242-5.5384Z"/><path class="cls-1" d="m372.3569,43.2724l9.8618,32.5527c1.0786,3.782,2.4303,8.7788,3.2404,12.2921h.5414c.8101-3.6475,1.8889-8.5101,2.8355-12.4264l8.2414-32.4185h21.881l-15.4002,43.4934c-9.4525,26.3385-15.801,36.7395-23.2325,43.3567-7.0222,6.2143-14.5858,8.5101-19.7192,9.0495l-4.4555-17.2889c2.5624-.5394,5.8071-1.7545,8.9109-3.5111,3.1083-1.6202,6.6214-4.997,8.5103-8.2394.6778-1.081,1.083-2.1618,1.083-2.9719s-.1364-1.7545-.8101-3.3766l-24.3155-60.5116h22.8274Z"/><path class="cls-2" d="m454.841,25.4441v17.8283h14.7222v15.1295h-14.7222v23.9062c0,7.9687,2.0251,11.6163,8.1051,11.6163,2.8352,0,30.8686-.1345,32.7616-.5394l2.6434,15.462c-2.5667.9443-36.7567-.7547-42.4272-.7547-6.6214,0-12.1557-2.298-15.5325-5.6727-3.7818-3.9184-5.6749-7.6854-5.6749-17.0056v-27.0121h-8.7786v-15.1295h8.7786v-12.2899l20.1244-5.5384Z"/><path class="cls-2" d="m488.9947,81.8135c.5414,8.5081,9.0517,12.5606,18.6406,12.5606,7.0222,0,12.6971-.9465,18.2355-2.8374l2.6988,13.9121c-6.7537,2.8376-14.9909,4.1891-23.9062,4.1891-22.4224,0-35.2515-12.9677-35.2515-33.6335,0-16.7476,10.399-35.2537,33.3629-35.2537,21.3394,0,29.4446,16.6153,29.4446,32.9577,0,3.5111-.4052,6.6192-.678,8.1052h-42.5466Zm24.1791-14.0485c0-4.9971-2.1618-13.3707-11.6184-13.3707-8.6424,0-12.1557,7.9685-12.6929,13.3707h24.3113Z"/><path class="cls-2" d="m581.7157,106.5298c-3.6453,1.7566-10.5355,3.1081-18.3677,3.1081-21.3436,0-34.9831-13.1022-34.9831-33.768,0-19.3163,13.2343-35.1193,37.8185-35.1193,5.402,0,11.3454.9463,15.6687,2.5665l-3.2404,15.2638c-2.4344-1.0808-6.0798-2.0273-11.4818-2.0273-10.8083,0-17.8305,7.7002-17.6941,18.5064,0,12.0212,8.1008,18.504,18.099,18.504,4.8606,0,8.6424-.8101,11.7505-2.1616l2.4303,15.1274Z"/><path class="cls-1" d="m159.4647,93.385c0,6.2121.2707,12.2899,1.0808,15.9375h-18.504l-1.2153-6.6194h-.4049c-4.3234,5.2677-11.0768,8.1052-18.9113,8.1052-13.3729,0-21.3416-9.7254-21.3416-20.2606,0-17.1547,15.4002-25.2577,38.7648-25.2577v-.8101c0-3.6475-1.8887-8.6446-12.019-8.6446-6.7537,0-13.9123,2.296-18.2355,4.997l-3.782-13.2365c4.5919-2.5668,13.6436-5.9436,25.6628-5.9436,22.0173,0,28.9052,12.9658,28.9052,28.6345v23.0983Zm-19.8535-15.2638c-10.8083,0-19.182,2.5667-19.182,10.401,0,5.2677,3.5131,7.8323,8.1052,7.8323,4.9968,0,9.3202-3.3747,10.6717-7.5636.2687-1.0788.4052-2.2961.4052-3.5111v-7.1586Z"/><path class="cls-1" d="m238.2906,108.847c-3.6475,1.7566-37.264,1.8269-45.0985,1.8269-21.3416,0-34.983-13.102-34.983-33.7678,0-19.3165,13.2365-35.1195,37.8183-35.1195,5.4042,0,11.3456.9465,15.669,2.5665l-3.2404,15.2638c-2.4325-1.0808-6.08-2.0273-11.482-2.0273-10.8062,0-17.8303,7.7002-17.6939,18.5064,0,12.0212,8.1049,18.504,18.099,18.504,4.8626,0,18.6363-3.1657,21.7444-4.5172l19.1672,18.7642Z"/><path class="cls-1" d="m277.9018,88.1173c0,8.6446.2729,15.6668.5414,21.2052h-17.8303l-.9446-9.3204h-.4049c-2.5667,4.0527-8.781,10.8062-20.6658,10.8062-13.5072,0-23.2325-8.3737-23.2325-28.7709v-38.7648h20.5315v35.5246c0,9.5887,3.1059,15.398,10.399,15.398,5.6749,0,9.0517-3.9182,10.2667-7.1586.5414-1.2172.8101-2.701.8101-4.4576v-39.3064h20.5293v44.8448Z"/><path class="cls-1" d="m308.3685,24.9027c0,5.6727-4.1867,10.2667-11.0768,10.2667-6.485,0-10.6708-4.5941-10.6708-10.2667,0-5.8071,4.3223-10.2648,10.9395-10.2648,6.6214,0,10.6717,4.4576,10.8081,10.2648Zm-21.2082,84.4198V43.2724h20.5304v66.05h-20.5304Z"/><path class="cls-1" d="m336.2184,25.4441v17.8283h14.7224v15.1295h-14.7224v23.9062c0,7.9687,2.0295,11.6163,8.1052,11.6163,2.8354,0,4.1869-.1345,6.08-.5394l.1321,15.5323c-2.5624.9444-7.5636,1.7566-13.2343,1.7566-6.617,0-12.1555-2.298-15.5323-5.6727-3.7818-3.9184-5.6749-10.267-5.6749-19.5872v-27.0121h-8.7788v-15.1295h8.7788v-12.2899l20.1242-5.5384Z"/><path class="cls-1" d="m372.3569,43.2724l9.8618,32.5527c1.0786,3.782,2.4303,8.7788,3.2404,12.2921h.5414c.8101-3.6475,1.8889-8.5101,2.8355-12.4264l8.2414-32.4185h21.881l-15.4002,43.4934c-9.4525,26.3385-15.801,36.7395-23.2325,43.3567-7.0222,6.2143-14.5858,8.5101-19.7192,9.0495l-4.4555-17.2889c2.5624-.5394,5.8071-1.7545,8.9109-3.5111,3.1083-1.6202,6.6214-4.997,8.5103-8.2394.6778-1.081,1.083-2.1618,1.083-2.9719s-.1364-1.7545-.8101-3.3766l-24.3155-60.5116h22.8274Z"/><path class="cls-2" d="m454.841,25.4441v17.8283h14.7222v15.1295h-14.7222v23.9062c0,7.9687,2.0251,11.6163,8.1051,11.6163,2.8352,0,30.8686-.1345,32.7616-.5394l2.6434,15.462c-2.5667.9443-36.7567-.7547-42.4272-.7547-6.6214,0-12.1557-2.298-15.5325-5.6727-3.7818-3.9184-5.6749-7.6854-5.6749-17.0056v-27.0121h-8.7786v-15.1295h8.7786v-12.2899l20.1244-5.5384Z"/><path class="cls-2" d="m488.9947,81.8135c.5414,8.5081,9.0517,12.5606,18.6406,12.5606,7.0222,0,12.6971-.9465,18.2355-2.8374l2.6988,13.9121c-6.7537,2.8376-14.9909,4.1891-23.9062,4.1891-22.4224,0-35.2515-12.9677-35.2515-33.6335,0-16.7476,10.399-35.2537,33.3629-35.2537,21.3394,0,29.4446,16.6153,29.4446,32.9577,0,3.5111-.4052,6.6192-.678,8.1052h-42.5466Zm24.1791-14.0485c0-4.9971-2.1618-13.3707-11.6184-13.3707-8.6424,0-12.1557,7.9685-12.6929,13.3707h24.3113Z"/><path class="cls-2" d="m581.7157,106.5298c-3.6453,1.7566-10.5355,3.1081-18.3677,3.1081-21.3436,0-34.9831-13.1022-34.9831-33.768,0-19.3163,13.2343-35.1193,37.8185-35.1193,5.402,0,11.3454.9463,15.6687,2.5665l-3.2404,15.2638c-2.4344-1.0808-6.0798-2.0273-11.4818-2.0273-10.8083,0-17.8305,7.7002-17.6941,18.5064,0,12.0212,8.1008,18.504,18.099,18.504,4.8606,0,8.6424-.8101,11.7505-2.1616l2.4303,15.1274Z"/><path class="cls-3" d="m73.7863,46.2559H15.8862c-8.7745,0-15.8862,5.6548-15.8862,12.6257v46.0003c0,6.9709,7.1117,12.6246,15.8862,12.6246h57.9001c8.7745,0,15.8862-5.6537,15.8862-12.6246v-46.0003c0-6.9709-7.1117-12.6257-15.8862-12.6257Zm-20.2054,57.0143h-17.4852l5.6238-26.9877c-3.787-1.0967-6.5234-4.0909-6.5234-7.6585,0-4.4895,4.3149-8.1307,9.6444-8.1307,5.321,0,9.6359,3.6412,9.6359,8.1307,0,3.6379-2.847,6.6779-6.7474,7.7173l5.8519,26.929Z"/><path class="cls-3" d="m85.9887,41.1504C85.9887,18.423,67.5657,0,44.8361,0S3.6838,18.423,3.6838,41.1504h12.8804c0-15.6135,12.6586-28.27,28.2719-28.27s28.2721,12.6565,28.2721,28.27h12.8804Z"/><path class="cls-1" d="m238.2906,108.847c-3.6475,1.7566-37.264,1.8269-45.0985,1.8269-21.3416,0-34.983-13.102-34.983-33.7678,0-19.3165,13.2365-35.1195,37.8183-35.1195,5.4042,0,11.3456.9465,15.669,2.5665l-3.2404,15.2638c-2.4325-1.0808-6.08-2.0273-11.482-2.0273-10.8062,0-17.8303,7.7002-17.6939,18.5064,0,12.0212,8.1049,18.504,18.099,18.504,4.8626,0,18.6363-3.1657,21.7444-4.5172l19.1672,18.7642Z"/><path class="cls-1" d="m277.9018,88.1173c0,8.6446.2729,15.6668.5414,21.2052h-17.8303l-.9446-9.3204h-.4049c-2.5667,4.0527-8.781,10.8062-20.6658,10.8062-13.5072,0-23.2325-8.3737-23.2325-28.7709v-38.7648h20.5315v35.5246c0,9.5887,3.1059,15.398,10.399,15.398,5.6749,0,9.0517-3.9182,10.2667-7.1586.5414-1.2172.8101-2.701.8101-4.4576v-39.3064h20.5293v44.8448Z"/><path class="cls-1" d="m308.3685,24.9027c0,5.6727-4.1867,10.2667-11.0768,10.2667-6.485,0-10.6708-4.5941-10.6708-10.2667,0-5.8071,4.3223-10.2648,10.9395-10.2648,6.6214,0,10.6717,4.4576,10.8081,10.2648Zm-21.2082,84.4198V43.2724h20.5304v66.05h-20.5304Z"/><path class="cls-1" d="m336.2184,25.4441v17.8283h14.7224v15.1295h-14.7224v23.9062c0,7.9687,2.0295,11.6163,8.1052,11.6163,2.8354,0,4.1869-.1345,6.08-.5394l.1321,15.5323c-2.5624.9444-7.5636,1.7566-13.2343,1.7566-6.617,0-12.1555-2.298-15.5323-5.6727-3.7818-3.9184-5.6749-10.267-5.6749-19.5872v-27.0121h-8.7788v-15.1295h8.7788v-12.2899l20.1242-5.5384Z"/><path class="cls-1" d="m372.3569,43.2724l9.8618,32.5527c1.0786,3.782,2.4303,8.7788,3.2404,12.2921h.5414c.8101-3.6475,1.8889-8.5101,2.8355-12.4264l8.2414-32.4185h21.881l-15.4002,43.4934c-9.4525,26.3385-15.801,36.7395-23.2325,43.3567-7.0222,6.2143-14.5858,8.5101-19.7192,9.0495l-4.4555-17.2889c2.5624-.5394,5.8071-1.7545,8.9109-3.5111,3.1083-1.6202,6.6214-4.997,8.5103-8.2394.6778-1.081,1.083-2.1618,1.083-2.9719s-.1364-1.7545-.8101-3.3766l-24.3155-60.5116h22.8274Z"/><path class="cls-3" d="m454.841,25.4441v17.8283h14.7222v15.1295h-14.7222v23.9062c0,7.9687,2.0251,11.6163,8.1051,11.6163,2.8352,0,30.8686-.1345,32.7616-.5394l2.6434,15.462c-2.5667.9443-36.7567-.7547-42.4272-.7547-6.6214,0-12.1557-2.298-15.5325-5.6727-3.7818-3.9184-5.6749-7.6854-5.6749-17.0056v-27.0121h-8.7786v-15.1295h8.7786v-12.2899l20.1244-5.5384Z"/><path class="cls-3" d="m488.9947,81.8135c.5414,8.5081,9.0517,12.5606,18.6406,12.5606,7.0222,0,12.6971-.9465,18.2355-2.8374l2.6988,13.9121c-6.7537,2.8376-14.9909,4.1891-23.9062,4.1891-22.4224,0-35.2515-12.9677-35.2515-33.6335,0-16.7476,10.399-35.2537,33.3629-35.2537,21.3394,0,29.4446,16.6153,29.4446,32.9577,0,3.5111-.4052,6.6192-.678,8.1052h-42.5466Zm24.1791-14.0485c0-4.9971-2.1618-13.3707-11.6184-13.3707-8.6424,0-12.1557,7.9685-12.6929,13.3707h24.3113Z"/><path class="cls-3" d="m581.7157,106.5298c-3.6453,1.7566-10.5355,3.1081-18.3677,3.1081-21.3436,0-34.9831-13.1022-34.9831-33.768,0-19.3163,13.2343-35.1193,37.8185-35.1193,5.402,0,11.3454.9463,15.6687,2.5665l-3.2404,15.2638c-2.4344-1.0808-6.0798-2.0273-11.4818-2.0273-10.8083,0-17.8305,7.7002-17.6941,18.5064,0,12.0212,8.1008,18.504,18.099,18.504,4.8606,0,8.6424-.8101,11.7505-2.1616l2.4303,15.1274Z"/><path class="cls-1" d="m159.4647,93.385c0,6.2121.2707,12.2899,1.0808,15.9375h-18.504l-1.2153-6.6194h-.4049c-4.3234,5.2677-11.0768,8.1052-18.9113,8.1052-13.3729,0-21.3416-9.7254-21.3416-20.2606,0-17.1547,15.4002-25.2577,38.7648-25.2577v-.8101c0-3.6475-1.8887-8.6446-12.019-8.6446-6.7537,0-13.9123,2.296-18.2355,4.997l-3.782-13.2365c4.5919-2.5668,13.6436-5.9436,25.6628-5.9436,22.0173,0,28.9052,12.9658,28.9052,28.6345v23.0983Zm-19.8535-15.2638c-10.8083,0-19.182,2.5667-19.182,10.401,0,5.2677,3.5131,7.8323,8.1052,7.8323,4.9968,0,9.3202-3.3747,10.6717-7.5636.2687-1.0788.4052-2.2961.4052-3.5111v-7.1586Z"/><path class="cls-1" d="m238.2906,108.847c-3.6475,1.7566-37.264,1.8269-45.0985,1.8269-21.3416,0-34.983-13.102-34.983-33.7678,0-19.3165,13.2365-35.1195,37.8183-35.1195,5.4042,0,11.3456.9465,15.669,2.5665l-3.2404,15.2638c-2.4325-1.0808-6.08-2.0273-11.482-2.0273-10.8062,0-17.8303,7.7002-17.6939,18.5064,0,12.0212,8.1049,18.504,18.099,18.504,4.8626,0,18.6363-3.1657,21.7444-4.5172l19.1672,18.7642Z"/><path class="cls-1" d="m277.9018,88.1173c0,8.6446.2729,15.6668.5414,21.2052h-17.8303l-.9446-9.3204h-.4049c-2.5667,4.0527-8.781,10.8062-20.6658,10.8062-13.5072,0-23.2325-8.3737-23.2325-28.7709v-38.7648h20.5315v35.5246c0,9.5887,3.1059,15.398,10.399,15.398,5.6749,0,9.0517-3.9182,10.2667-7.1586.5414-1.2172.8101-2.701.8101-4.4576v-39.3064h20.5293v44.8448Z"/><path class="cls-1" d="m308.3685,24.9027c0,5.6727-4.1867,10.2667-11.0768,10.2667-6.485,0-10.6708-4.5941-10.6708-10.2667,0-5.8071,4.3223-10.2648,10.9395-10.2648,6.6214,0,10.6717,4.4576,10.8081,10.2648Zm-21.2082,84.4198V43.2724h20.5304v66.05h-20.5304Z"/><path class="cls-1" d="m336.2184,25.4441v17.8283h14.7224v15.1295h-14.7224v23.9062c0,7.9687,2.0295,11.6163,8.1052,11.6163,2.8354,0,4.1869-.1345,6.08-.5394l.1321,15.5323c-2.5624.9444-7.5636,1.7566-13.2343,1.7566-6.617,0-12.1555-2.298-15.5323-5.6727-3.7818-3.9184-5.6749-10.267-5.6749-19.5872v-27.0121h-8.7788v-15.1295h8.7788v-12.2899l20.1242-5.5384Z"/><path class="cls-1" d="m372.3569,43.2724l9.8618,32.5527c1.0786,3.782,2.4303,8.7788,3.2404,12.2921h.5414c.8101-3.6475,1.8889-8.5101,2.8355-12.4264l8.2414-32.4185h21.881l-15.4002,43.4934c-9.4525,26.3385-15.801,36.7395-23.2325,43.3567-7.0222,6.2143-14.5858,8.5101-19.7192,9.0495l-4.4555-17.2889c2.5624-.5394,5.8071-1.7545,8.9109-3.5111,3.1083-1.6202,6.6214-4.997,8.5103-8.2394.6778-1.081,1.083-2.1618,1.083-2.9719s-.1364-1.7545-.8101-3.3766l-24.3155-60.5116h22.8274Z"/><path class="cls-3" d="m454.841,25.4441v17.8283h14.7222v15.1295h-14.7222v23.9062c0,7.9687,2.0251,11.6163,8.1051,11.6163,2.8352,0,30.8686-.1345,32.7616-.5394l2.6434,15.462c-2.5667.9443-36.7567-.7547-42.4272-.7547-6.6214,0-12.1557-2.298-15.5325-5.6727-3.7818-3.9184-5.6749-7.6854-5.6749-17.0056v-27.0121h-8.7786v-15.1295h8.7786v-12.2899l20.1244-5.5384Z"/><path class="cls-3" d="m488.9947,81.8135c.5414,8.5081,9.0517,12.5606,18.6406,12.5606,7.0222,0,12.6971-.9465,18.2355-2.8374l2.6988,13.9121c-6.7537,2.8376-14.9909,4.1891-23.9062,4.1891-22.4224,0-35.2515-12.9677-35.2515-33.6335,0-16.7476,10.399-35.2537,33.3629-35.2537,21.3394,0,29.4446,16.6153,29.4446,32.9577,0,3.5111-.4052,6.6192-.678,8.1052h-42.5466Zm24.1791-14.0485c0-4.9971-2.1618-13.3707-11.6184-13.3707-8.6424,0-12.1557,7.9685-12.6929,13.3707h24.3113Z"/><path class="cls-3" d="m581.7157,106.5298c-3.6453,1.7566-10.5355,3.1081-18.3677,3.1081-21.3436,0-34.9831-13.1022-34.9831-33.768,0-19.3163,13.2343-35.1193,37.8185-35.1193,5.402,0,11.3454.9463,15.6687,2.5665l-3.2404,15.2638c-2.4344-1.0808-6.0798-2.0273-11.4818-2.0273-10.8083,0-17.8305,7.7002-17.6941,18.5064,0,12.0212,8.1008,18.504,18.099,18.504,4.8606,0,8.6424-.8101,11.7505-2.1616l2.4303,15.1274Z"/></svg>