<?xml version="1.0" encoding="UTF-8"?><svg id="layer" xmlns="http://www.w3.org/2000/svg" viewBox="0 0 600.0999 229.6"><defs><style>.cls-1{fill:#fefefe;}.cls-2{fill:#bcbec0;}.cls-3{fill:#d1d3d4;}.cls-4{isolation:isolate;}</style></defs><g class="cls-4"><path class="cls-3" d="m409.7,130.5504l6,1.8c-.4,1.7-1,3.1-1.9,4.2s-1.9,2-3.2,2.5c-1.3.6-2.9.9-4.9.9-2.4,0-4.3-.3-5.9-1-1.5-.7-2.8-1.9-3.9-3.7-1.1-1.7-1.7-4-1.7-6.7,0-3.6,1-6.4,2.9-8.4s4.7-2.9,8.2-2.9c2.8,0,4.9.6,6.5,1.7s2.8,2.8,3.5,5.2l-6,1.3c-.2-.7-.4-1.2-.7-1.5-.4-.5-.8-.9-1.4-1.2-.6-.3-1.2-.4-1.8-.4-1.5,0-2.7.6-3.5,1.9-.6.9-.9,2.4-.9,4.3,0,2.4.4,4.1,1.1,5s1.8,1.4,3.1,1.4,2.3-.4,2.9-1.1c.8-.9,1.3-1.9,1.6-3.3Z"/><path class="cls-3" d="m418.1,128.5504c0-3.6,1-6.4,3-8.4s4.8-3,8.4-3c3.7,0,6.5,1,8.5,2.9,2,2,3,4.7,3,8.3,0,2.6-.4,4.7-1.3,6.3-.9,1.6-2.1,2.9-3.8,3.8-1.6.9-3.7,1.4-6.1,1.4-2.5,0-4.5-.4-6.2-1.2-1.6-.8-2.9-2-4-3.8s-1.5-3.7-1.5-6.3Zm6.8,0c0,2.2.4,3.8,1.2,4.8.8,1,1.9,1.5,3.4,1.5s2.6-.5,3.4-1.4c.8-1,1.2-2.7,1.2-5.1,0-2.1-.4-3.6-1.3-4.5-.8-1-2-1.4-3.4-1.4s-2.5.5-3.3,1.5c-.8.8-1.2,2.4-1.2,4.6Z"/><path class="cls-3" d="m444.5,117.5504h8.9l3.4,13.4,3.4-13.4h8.9v22h-5.6v-16.8l-4.3,16.8h-5l-4.3-16.8v16.8h-5.6v-22h.2Z"/><path class="cls-3" d="m473.5,117.5504h11.3c2.5,0,4.3.6,5.5,1.8,1.2,1.2,1.8,2.8,1.8,5s-.7,4-2,5.2c-1.3,1.3-3.4,1.9-6.1,1.9h-3.7v8.2h-6.8v-22.1h0Zm6.8,9.4h1.7c1.3,0,2.2-.2,2.8-.7.5-.5.8-1,.8-1.7s-.2-1.3-.7-1.8-1.3-.7-2.6-.7h-1.9v4.9h-.1Z"/><path class="cls-3" d="m495.7,117.5504h6.8v16.6h10.6v5.4h-17.4v-22h0Z"/><path class="cls-3" d="m516.5,117.5504h6.8v22h-6.8v-22Z"/><path class="cls-3" d="m541.7,135.8503h-7.7l-1.1,3.6h-6.9l8.3-22h7.4l8.3,22h-7.1l-1.2-3.6Zm-1.4-4.7l-2.4-7.9-2.4,7.9h4.8Z"/><path class="cls-3" d="m552.1,117.5504h6.3l8.3,12.2v-12.2h6.4v22h-6.4l-8.2-12.1v12.1h-6.4v-22h0Z"/><path class="cls-3" d="m576.1,117.5504h20.7v5.4h-6.9v16.6h-6.8v-16.6h-6.9v-5.4h-.1Z"/></g><path id="Rectangle-3" class="cls-3" d="m327.9,150.9l19.7-6.2-6.4-14.2c-4.7,5.9-9.4,13.5-13.3,20.4Zm-6.7-64.9L282.6,0,0,16l78.3,213.6,150.7-47.5c-9.6-13.8-13.1-30.2-2-38.2,12.4-9,31.1,1.4,43,16.1,11.5-19.2,43.8-63.9,51.2-74Z"/><g id="Letters"><path id="Oval-1" class="cls-1" d="m273.7958,62.3c11.8,0,21.4-9,21.4-20.2s-9.6-20.2-21.4-20.2-21.4,9-21.4,20.2c0,11.1,9.6,20.2,21.4,20.2Zm-17.5,8.7h35v91.5h-35v-91.5Z"/><path id="Path-3" class="cls-1" d="m238.9958,97.7c.3.1.5,0,.5-.3v-23.2c0-.3-.2-.6-.5-.8,0,0-4.6-3-18.6-3.8-.7-.4-13-.5-16.3,0-51,4.1-52.9,41-52.9,42.6v9c0,1.1,0,38.8,52.9,42.1,5.2.4,15.3,0,16.3,0,12.2,0,20.6-3.7,20.6-3.7.3-.1.5-.4.5-.7v-21.7c0-.3-.2-.4-.4-.2,0,0-3.8,3-20.4,4.7-4.7.5-7,.3-8.7,0-23.6-4-24.7-21.2-24.7-21.2,0-.3-.1-.8-.1-1v-6.6c0-.3,0-.8.1-1,0,0,1.6-18.5,24.7-20.5h8.7c10.1,1.3,18.3,6.3,18.3,6.3Z"/><path id="Path-1" class="cls-1" d="m53.9958,162.2c0,.3.2.5.5.5h34.1c.3,0,.5-.2.5-.5v-26.6c0-.3.2-.5.5-.5,0,0,54.5,3.9,54.5-32.6,0-28.9-34.2-32-45.4-31.5h-44.2c-.3,0-.5.2-.5.5v90.7Zm34.5-47.4v-23.9h8.4s12.1.5,13.1,8.8c.2.6.2,4.7,0,4.9-1.6,9.7-12.1,10.2-12.1,10.2h-9.4Z"/></g><path id="Path-7" class="cls-2" d="m274.8,206.6503c2.8,0,5,0,8.6-1.6,12.4-6.5,54.3-108.8,98.5-140.3.3-.2.6-.5.8-.8.3-.4.3-.8.3-.8,0,0,0-2.1-6.5-2.1-39.3-1.1-80.2,81.4-101.7,114-.3.4-1.7,0-1.7,0,0,0-14.4-17-26.9-23.5-.3-.1-1.7-.6-3.2-.5-1,0-6.8,1.2-9.5,4-3.2,3.4-3.1,5.3-3.1,9.4,0,.3.2,1.7.6,2.4,3.1,5.4,17,24.6,28.5,35.2,1.7,1.3,4.4001,4.6,15.3,4.6Z"/><g class="cls-4"><path class="cls-3" d="m393.5,33.8503h32.7c6.5,0,11.7.9,15.6,2.6,4,1.8,7.3,4.3,9.8,7.5,2.6,3.3,4.5,7.1,5.6,11.4,1.2,4.3,1.8,8.9,1.8,13.8,0,7.6-.9,13.5-2.6,17.7s-4.1,7.7-7.2,10.6c-3.1,2.8-6.4,4.7-9.9,5.7-4.8,1.3-9.2,1.9-13.1,1.9h-32.7V33.8503h0Zm22,16.1v38.9h5.4c4.6,0,7.9-.5,9.8-1.5s3.5-2.8,4.6-5.3,1.7-6.7,1.7-12.4c0-7.6-1.2-12.7-3.7-15.5s-6.5-4.2-12.3-4.2h-5.5Z"/><path class="cls-3" d="m465.1,81.5504l21-1.3c.5,3.4,1.4,6,2.8,7.8,2.3,2.9,5.5,4.3,9.7,4.3,3.1,0,5.6-.7,7.3-2.2s2.6-3.2,2.6-5.1c0-1.8-.8-3.5-2.4-5-1.6-1.5-5.4-2.8-11.3-4.1-9.7-2.2-16.5-5.1-20.7-8.7s-6.2-8.2-6.2-13.8c0-3.7,1.1-7.1,3.2-10.4,2.1-3.3,5.3-5.8,9.6-7.7,4.3-1.9,10.1-2.8,17.5-2.8,9.1,0,16.1,1.7,20.8,5.1,4.8,3.4,7.6,8.8,8.5,16.2l-20.8,1.2c-.6-3.2-1.7-5.5-3.5-7s-4.2-2.2-7.3-2.2c-2.6,0-4.5.5-5.8,1.6s-1.9,2.4-1.9,4c0,1.1.5,2.2,1.6,3.1,1,.9,3.5,1.8,7.4,2.6,9.6,2.1,16.5,4.2,20.7,6.3,4.2,2.1,7.2,4.8,9.1,7.9,1.9,3.1,2.8,6.7,2.8,10.6,0,4.6-1.3,8.8-3.8,12.6-2.5,3.9-6.1,6.8-10.6,8.8s-10.3,3-17.2,3c-12.1,0-20.5-2.3-25.2-7-4.5999-4.7-7.1999-10.6-7.8999-17.8Z"/></g><g class="cls-4"><path class="cls-3" d="m535.4,81.5504l21-1.3c.5,3.4,1.4,6,2.8,7.8,2.3,2.9,5.5,4.3,9.7,4.3,3.1,0,5.6-.7,7.3-2.2s2.6-3.2,2.6-5.1c0-1.8-.8-3.5-2.4-5-1.6-1.5-5.4-2.8-11.3-4.1-9.7-2.2-16.5-5.1-20.7-8.7-4.1-3.6-6.2-8.2-6.2-13.8,0-3.7,1.1-7.1,3.2-10.4,2.1-3.3,5.3-5.8,9.6-7.7s10.1-2.8,17.5-2.8c9.1,0,16.1,1.7,20.8,5.1,4.8,3.4,7.6,8.8,8.5,16.2l-20.8,1.2c-.6-3.2-1.7-5.5-3.5-7s-4.2-2.2-7.3-2.2c-2.6,0-4.5.5-5.8,1.6s-1.9,2.4-1.9,4c0,1.1.5,2.2,1.6,3.1,1,.9,3.5,1.8,7.4,2.6,9.6,2.1,16.5,4.2,20.7,6.3,4.2,2.1,7.2,4.8,9.1,7.9,1.9,3.1,2.8,6.7,2.8,10.6,0,4.6-1.3,8.8-3.8,12.6-2.5,3.9-6.1,6.8-10.6,8.8s-10.3,3-17.2,3c-12.1,0-20.5-2.3-25.2-7-4.6999-4.7-7.2999-10.6-7.8999-17.8Z"/></g></svg>