<?xml version="1.0" encoding="utf-8"?>
<!-- Generator: Adobe Illustrator 28.1.0, SVG Export Plug-In . SVG Version: 6.00 Build 0)  -->
<svg version="1.1" id="Layer_1" xmlns="http://www.w3.org/2000/svg" xmlns:xlink="http://www.w3.org/1999/xlink" x="0px" y="0px"
	 viewBox="0 0 23.7 23.7" style="enable-background:new 0 0 23.7 23.7;" xml:space="preserve">
<style type="text/css">
	.st0{fill:#4C9BD5;}
	.st1{fill:#061F38;}
</style>
<circle class="st0" cx="11.9" cy="11.9" r="11.9"/>
<path class="st1" d="M19.8,11.9c0,0.2,0,0.3-0.1,0.5s-0.1,0.3-0.2,0.4c-0.1,0.1-0.2,0.3-0.3,0.4s-0.3,0.2-0.4,0.3v0.1
	c0,0.1,0,0.2,0,0.3V14c0,2.7-3.1,4.8-6.9,4.8S5,16.6,5,14v-0.1c0-0.1,0-0.2,0-0.3v-0.1c-0.5-0.2-0.8-0.6-0.9-1.1S4,11.4,4.3,11
	c0.3-0.4,0.7-0.7,1.2-0.8s1,0.1,1.4,0.5C7.2,10.4,7.6,10.2,8,10c0.4-0.2,0.8-0.3,1.1-0.5s0.8-0.2,1.2-0.3s0.8-0.1,1.2-0.1L12.4,5
	c0,0,0-0.1,0.1-0.1l0.1-0.1c0,0,0.1,0,0.1-0.1h0.1l2.9,0.6c0.3-0.5,0.9-0.7,1.5-0.5s0.9,0.8,0.7,1.4c-0.1,0.6-0.6,1-1.2,0.9
	c-0.6,0-1.1-0.5-1.1-1.1L13,5.5l-0.8,3.7c0.4,0,0.8,0,1.2,0.1c0.8,0.1,1.6,0.4,2.3,0.7c0.4,0.2,0.7,0.4,1.1,0.6
	c0.2-0.2,0.5-0.4,0.9-0.5c0.3-0.1,0.7,0,1,0.1s0.6,0.3,0.8,0.6C19.7,11.2,19.8,11.5,19.8,11.9L19.8,11.9z M8,13.5
	c0.1,0.1,0.1,0.3,0.3,0.4c0.1,0.1,0.2,0.2,0.4,0.3c0.1,0.1,0.3,0.1,0.5,0.1c0.5,0,0.9-0.3,1.1-0.7c0.2-0.4,0.1-1-0.3-1.3
	S9.1,11.8,8.6,12c-0.4,0.2-0.7,0.6-0.7,1.1C7.9,13.2,7.9,13.4,8,13.5L8,13.5z M14.8,16.3c0.1-0.1,0.1-0.1,0.1-0.2s0-0.2-0.1-0.2
	s-0.1-0.1-0.2-0.1c-0.1,0-0.2,0-0.2,0.1c-0.2,0.1-0.4,0.2-0.6,0.3s-0.4,0.2-0.6,0.2c-0.2,0.1-0.4,0.1-0.6,0.1c-0.2,0-0.4,0-0.7,0
	c-0.2,0-0.4,0-0.7,0c-0.2,0-0.4-0.1-0.6-0.1c-0.2-0.1-0.4-0.1-0.6-0.2S9.6,16,9.4,15.9c-0.1-0.1-0.1-0.1-0.2-0.1S9,15.8,9,15.9
	C8.9,16,8.9,16,8.9,16.1s0,0.2,0.1,0.2c0.2,0.2,0.4,0.3,0.7,0.4s0.5,0.2,0.7,0.3s0.5,0.1,0.8,0.2c0.3,0,0.5,0,0.8,0s0.5,0,0.8,0
	c0.5-0.1,1-0.2,1.5-0.5C14.4,16.6,14.6,16.5,14.8,16.3L14.8,16.3L14.8,16.3z M14.6,14.3c0.2,0,0.3,0,0.5-0.1
	c0.1-0.1,0.3-0.2,0.4-0.3s0.2-0.3,0.3-0.4c0.1-0.2,0.1-0.3,0.1-0.5c0-0.5-0.3-0.9-0.7-1.1c-0.4-0.2-1-0.1-1.3,0.3s-0.4,0.8-0.3,1.3
	S14.1,14.3,14.6,14.3L14.6,14.3L14.6,14.3z"/>
</svg>
