<?xml version="1.0" encoding="UTF-8"?><svg id="Layer_1" xmlns="http://www.w3.org/2000/svg" viewBox="0 0 23.7234 23.7234"><defs><style>.cls-1{fill:#fff;}.cls-2{fill:#274666;}</style></defs><circle class="cls-2" cx="11.8617" cy="11.8617" r="11.8617"/><path class="cls-1" d="m19.7735,11.8617c.0024.1625-.0178.3247-.0605.4816s-.1073.3072-.1922.446c-.0845.1388-.1883.2651-.3081.3751s-.2544.2025-.4.2749c.0033.0433.0059.0869.0074.1305.0036.0869.0036.174,0,.261-.0015.0436-.0042.0872-.0074.1305,0,2.657-3.0959,4.8159-6.9154,4.8159s-6.9154-2.1588-6.9154-4.8159c-.0033-.0433-.0059-.0869-.0074-.1305-.0036-.0869-.0036-.174,0-.261.0015-.0436.0042-.0872.0074-.1305-.4617-.2122-.807-.6164-.9445-1.1055-.1373-.4894-.0527-1.0144.2313-1.4359.2838-.4214.7385-.6969,1.2434-.7532.505-.0566,1.0094.1115,1.3795.4596.3395-.2301.6952-.4354,1.0643-.6141.3692-.1785.7508-.3303,1.142-.4537s.7909-.218,1.1957-.2835.814-.1014,1.2241-.1076l.8778-4.116c.0098-.0477.0291-.0928.0566-.1331.0273-.04.0626-.0744.1032-.1008.0409-.0264.0866-.0445.1346-.0534.0477-.0086.097-.0077.1444.0027l2.9061.5812c.2933-.5038.9089-.7197,1.4525-.5098s.8543.7838.7328,1.3537c-.1213.57-.639.9673-1.2209.9374-.5821-.03-1.0563-.4783-1.1186-1.0578l-2.5384-.5338-.771,3.7009c.4051.0086.8093.0466,1.209.1133.8005.1334,1.5775.3817,2.3071.7372.3644.1773.7155.3807,1.0507.6085.241-.2314.5438-.388.8718-.451.3281-.0633.6674-.0302.9771.0952.3097.1253.5766.3376.7683.6112.1918.2736.3004.5969.3126.9308Zm-11.7716,1.6402c.0599.1438.1471.2746.2574.3846.11.1103.2408.1975.3846.2574.144.0595.2982.0902.454.0901.4798,0,.9122-.2891,1.096-.7322.1836-.4433.0818-.9534-.2574-1.2926s-.8493-.441-1.2926-.2574c-.443.1839-.7322.6162-.7322,1.096,0,.1557.0305.3099.0901.454Zm6.7938,2.8474c.0608-.0593.0955-.1403.0967-.2251.0012-.0851-.0317-.167-.091-.2277s-.1403-.0955-.2251-.0967c-.0851-.0012-.167.0317-.2355.083-.1784.1279-.3672.2405-.5646.3366-.1974.0961-.4025.1754-.6132.2369-.2105.0614-.4261.105-.6441.1302-.2183.0252-.438.0317-.6571.0199-.2188.0098-.4383.0009-.6557-.0264-.2174-.027-.4321-.0726-.6417-.1364-.21-.0635-.4137-.1447-.6097-.2426s-.3834-.2123-.5602-.3419c-.0614-.0504-.1394-.0762-.2188-.0724s-.1545.0374-.2108.0934c-.056.0563-.0896.1314-.0934.2108s.0219.1575.0724.2188c.2085.1572.43.2959.6622.4152s.4745.218.7236.2957.5044.1337.7633.1678c.2589.0338.5201.0454.7808.0347.2607.0107.5219-.0009.7808-.0347.5185-.0682,1.0214-.225,1.4869-.4635.2322-.1192.4537-.258.6622-.4152l-.0077.0394Zm-.2177-2.0203c.1607.0018.3203-.0294.4688-.091.1486-.062.2829-.1533.395-.2687s.1993-.2524.2568-.4027c.0576-.1502.0839-.3105.0774-.4712,0-.4798-.2891-.9122-.7322-1.096-.4433-.1836-.9534-.0818-1.2926.2574s-.441.8493-.2574,1.2926c.1839.443.6162.7322,1.096.7322l-.0119.0474Z"/></svg>