<?xml version="1.0" encoding="UTF-8"?>
<svg id="Layer_3" data-name="Layer 3" xmlns="http://www.w3.org/2000/svg" xmlns:xlink="http://www.w3.org/1999/xlink" viewBox="0 0 2806.526 586.9438">
  <defs>
    <style>
      .cls-1 {
        stroke-width: 2px;
      }

      .cls-1, .cls-2, .cls-3, .cls-4, .cls-5, .cls-6, .cls-7, .cls-8, .cls-9, .cls-10 {
        fill: none;
      }

      .cls-1, .cls-2, .cls-4, .cls-7, .cls-8, .cls-9, .cls-10 {
        stroke: #96d9fa;
      }

      .cls-1, .cls-2, .cls-4, .cls-8, .cls-9 {
        stroke-linecap: round;
      }

      .cls-1, .cls-2, .cls-8 {
        stroke-linejoin: round;
      }

      .cls-2, .cls-6, .cls-9 {
        stroke-width: 4px;
      }

      .cls-11 {
        letter-spacing: -.003em;
      }

      .cls-12 {
        letter-spacing: -.021em;
      }

      .cls-13 {
        clip-path: url(#clippath);
      }

      .cls-3, .cls-14 {
        stroke-width: 0px;
      }

      .cls-15 {
        letter-spacing: .011em;
      }

      .cls-16 {
        letter-spacing: .002em;
      }

      .cls-17 {
        letter-spacing: .002em;
      }

      .cls-18 {
        letter-spacing: .004em;
      }

      .cls-19 {
        letter-spacing: .002em;
      }

      .cls-20 {
        letter-spacing: -.03em;
      }

      .cls-21 {
        fill: #99d6f5;
        font-family: MonsalGothic-ExtraBold, 'Monsal Gothic';
        font-size: 127.5539px;
        font-weight: 700;
      }

      .cls-22 {
        letter-spacing: .01em;
      }

      .cls-23 {
        letter-spacing: .01em;
      }

      .cls-4, .cls-7, .cls-8, .cls-10 {
        stroke-width: 3px;
      }

      .cls-5 {
        stroke-width: 9px;
      }

      .cls-5, .cls-6 {
        stroke: #212e5c;
      }

      .cls-24 {
        letter-spacing: 0em;
      }

      .cls-25 {
        letter-spacing: -.006em;
      }

      .cls-26 {
        letter-spacing: 0em;
      }

      .cls-27 {
        clip-path: url(#clippath-4);
      }

      .cls-28 {
        clip-path: url(#clippath-3);
      }

      .cls-29 {
        clip-path: url(#clippath-2);
      }

      .cls-30 {
        clip-path: url(#clippath-7);
      }

      .cls-31 {
        clip-path: url(#clippath-8);
      }

      .cls-32 {
        clip-path: url(#clippath-6);
      }

      .cls-33 {
        clip-path: url(#clippath-5);
      }

      .cls-34 {
        clip-path: url(#clippath-9);
      }

      .cls-35 {
        clip-path: url(#clippath-10);
      }

      .cls-36 {
        letter-spacing: -.001em;
      }

      .cls-37 {
        letter-spacing: .01em;
      }

      .cls-38 {
        letter-spacing: .01em;
      }

      .cls-39 {
        letter-spacing: .01em;
      }

      .cls-40 {
        letter-spacing: -.002em;
      }

      .cls-41 {
        letter-spacing: -.002em;
      }

      .cls-42 {
        letter-spacing: -.002em;
      }

      .cls-43 {
        letter-spacing: .009em;
      }

      .cls-44 {
        letter-spacing: .009em;
      }

      .cls-45 {
        letter-spacing: .009em;
      }

      .cls-46 {
        fill: #fff;
        font-family: MonsalGothic-Regular, 'Monsal Gothic';
        font-size: 63.7769px;
      }

      .cls-47 {
        opacity: .5;
      }

      .cls-48 {
        letter-spacing: .003em;
      }

      .cls-49 {
        letter-spacing: -.005em;
      }

      .cls-14 {
        fill: #96d9fa;
      }

      .cls-50 {
        letter-spacing: .001em;
      }

      .cls-51 {
        letter-spacing: .001em;
      }

      .cls-52 {
        letter-spacing: -.005em;
      }

      .cls-53 {
        letter-spacing: -.032em;
      }

      .cls-10 {
        stroke-miterlimit: 10;
      }

      .cls-54 {
        letter-spacing: .001em;
      }
    </style>
    <clipPath id="clippath">
      <rect class="cls-3" width="2806.5196" height="586.9438"/>
    </clipPath>
    <clipPath id="clippath-2">
      <rect class="cls-3" width="2806.526" height="586.9438"/>
    </clipPath>
    <clipPath id="clippath-3">
      <rect class="cls-3" x="342.16" y="25.4565" width="302.6837" height="219.9348"/>
    </clipPath>
    <clipPath id="clippath-4">
      <rect class="cls-3" x="991.0903" y="25.4565" width="302.6837" height="219.9348"/>
    </clipPath>
    <clipPath id="clippath-5">
      <rect class="cls-3" x="1599.7804" y="25.4565" width="302.6852" height="219.9348"/>
    </clipPath>
    <clipPath id="clippath-6">
      <rect class="cls-3" width="2806.526" height="586.9438"/>
    </clipPath>
    <clipPath id="clippath-7">
      <rect class="cls-3" width="2806.526" height="586.9438"/>
    </clipPath>
    <clipPath id="clippath-8">
      <rect class="cls-3" width="2806.526" height="586.9438"/>
    </clipPath>
    <clipPath id="clippath-9">
      <rect class="cls-3" width="2806.526" height="586.9438"/>
    </clipPath>
    <clipPath id="clippath-10">
      <rect class="cls-3" width="2806.526" height="586.9438"/>
    </clipPath>
  </defs>
  <g class="cls-13">
    <text class="cls-46" transform="translate(26.0206 363.7254)"><tspan class="cls-20" x="0" y="0">V</tspan><tspan class="cls-38" x="34.8857" y="0">erifi</tspan><tspan class="cls-50" x="149.8105" y="0">c</tspan><tspan class="cls-44" x="180.2319" y="0">a</tspan><tspan class="cls-16" x="213.6514" y="0">ç</tspan><tspan class="cls-38" x="244.1362" y="0">ão</tspan><tspan class="cls-48" x="314.1626" y="0"> </tspan><tspan class="cls-44" x="331.9556" y="0">d</tspan><tspan x="368.7544" y="0">e </tspan></text>
    <text class="cls-46" transform="translate(26.0206 443.4461)"><tspan class="cls-38" x="0" y="0">nom</tspan><tspan x="129.5928" y="0">e</tspan></text>
    <text class="cls-46" transform="translate(647.0167 363.7254)"><tspan class="cls-20" x="0" y="0">V</tspan><tspan class="cls-38" x="34.8857" y="0">e</tspan><tspan class="cls-44" x="69.0059" y="0">rifi</tspan><tspan class="cls-17" x="149.5557" y="0">c</tspan><tspan class="cls-37" x="180.041" y="0">a</tspan><tspan class="cls-51" x="213.5234" y="0">ç</tspan><tspan class="cls-37" x="243.9453" y="0">ão</tspan><tspan class="cls-48" x="313.9712" y="0"> </tspan><tspan class="cls-23" x="331.7642" y="0">d</tspan><tspan x="368.627" y="0">e </tspan></text>
    <text class="cls-46" transform="translate(647.0167 443.4461)"><tspan class="cls-44" x="0" y="0">e</tspan><tspan class="cls-38" x="34.0566" y="0">nd</tspan><tspan class="cls-44" x="108.2915" y="0">e</tspan><tspan class="cls-41" x="142.3481" y="0">r</tspan><tspan class="cls-51" x="165.9453" y="0">e</tspan><tspan class="cls-24" x="199.4917" y="0">ço</tspan></text>
    <text class="cls-46" transform="translate(1263.6749 363.7254)"><tspan class="cls-20" x="0" y="0">V</tspan><tspan class="cls-38" x="34.8857" y="0">e</tspan><tspan class="cls-44" x="69.0059" y="0">r</tspan><tspan class="cls-38" x="93.3047" y="0">if</tspan><tspan class="cls-43" x="132.208" y="0">i</tspan><tspan class="cls-16" x="149.6836" y="0">c</tspan><tspan class="cls-22" x="180.168" y="0">a</tspan><tspan class="cls-50" x="213.6514" y="0">ç</tspan><tspan class="cls-22" x="244.0723" y="0">ão</tspan><tspan class="cls-48" x="314.0986" y="0"> </tspan><tspan class="cls-22" x="331.8916" y="0">d</tspan><tspan x="368.7549" y="0">e </tspan></text>
    <text class="cls-46" transform="translate(1263.6749 443.4461)"><tspan class="cls-25" x="0" y="0">t</tspan><tspan class="cls-38" x="23.1504" y="0">el</tspan><tspan class="cls-45" x="73.1509" y="0">e</tspan><tspan x="107.207" y="0">f</tspan><tspan class="cls-22" x="127.9346" y="0">on</tspan><tspan x="201.8506" y="0">e</tspan></text>
    <text class="cls-46" transform="translate(1843.5997 363.7254)"><tspan class="cls-38" x="0" y="0">Se</tspan><tspan class="cls-44" x="69.3887" y="0">l</tspan><tspan class="cls-19" x="85.2051" y="0">e</tspan><tspan class="cls-44" x="118.8154" y="0">c</tspan><tspan class="cls-22" x="149.7471" y="0">ione o</tspan><tspan class="cls-43" x="330.1045" y="0">u</tspan><tspan class="cls-39" x="365.4375" y="0">t</tspan><tspan class="cls-36" x="389.6074" y="0">r</tspan><tspan class="cls-40" x="413.2686" y="0">o</tspan><tspan class="cls-44" x="449.0469" y="0">s</tspan><tspan class="cls-38" x="477.2363" y="0"> </tspan><tspan class="cls-42" x="495.4756" y="0">s</tspan><tspan class="cls-44" x="522.9629" y="0">e</tspan><tspan class="cls-15" x="557.0195" y="0">r</tspan><tspan class="cls-22" x="581.4453" y="0">vi</tspan><tspan x="631.127" y="0">ç</tspan><tspan class="cls-40" x="661.4844" y="0">o</tspan><tspan class="cls-38" x="697.2627" y="0">s </tspan><tspan class="cls-18" x="743.7549" y="0">K</tspan><tspan class="cls-53" x="782.3398" y="0">Y</tspan><tspan class="cls-26" x="816.0146" y="0">C </tspan></text>
    <text class="cls-46" transform="translate(1843.5997 443.4461)"><tspan class="cls-38" x="0" y="0">pa</tspan><tspan class="cls-52" x="70.3457" y="0">r</tspan><tspan class="cls-44" x="93.751" y="0">a</tspan><tspan class="cls-38" x="127.1699" y="0" xml:space="preserve"> um</tspan><tspan class="cls-44" x="236.4824" y="0">a</tspan><tspan class="cls-38" x="269.9014" y="0"> </tspan><tspan class="cls-12" x="288.1406" y="0">e</tspan><tspan class="cls-38" x="320.2842" y="0">x</tspan><tspan class="cls-54" x="353.2559" y="0">p</tspan><tspan class="cls-38" x="389.5449" y="0">eriên</tspan><tspan class="cls-44" x="537.0586" y="0">c</tspan><tspan class="cls-38" x="567.9902" y="0">ia d</tspan><tspan x="674.1133" y="0">e </tspan></text>
    <text class="cls-46" transform="translate(2570.2745 443.4461)"><tspan x="0" y="0"> </tspan></text>
    <text class="cls-46" transform="translate(1843.5997 523.1668)"><tspan class="cls-38" x="0" y="0">tr</tspan><tspan class="cls-44" x="48.5332" y="0">i</tspan><tspan class="cls-22" x="66.0078" y="0">agem </tspan><tspan class="cls-19" x="244.0068" y="0">p</tspan><tspan class="cls-38" x="280.3594" y="0">er</tspan><tspan class="cls-11" x="338.8418" y="0">s</tspan><tspan class="cls-38" x="366.2666" y="0">onali</tspan><tspan class="cls-49" x="507.084" y="0">z</tspan><tspan class="cls-44" x="534.8262" y="0">a</tspan><tspan class="cls-38" x="568.2451" y="0">da</tspan><tspan x="638.5908" y="0">.</tspan></text>
    <g class="cls-29">
      <g class="cls-47">
        <g class="cls-28">
          <text class="cls-21" transform="translate(400.5162 155.116)"><tspan x="0" y="0">+</tspan></text>
        </g>
      </g>
      <g class="cls-47">
        <g class="cls-27">
          <text class="cls-21" transform="translate(1049.4468 155.116)"><tspan x="0" y="0">+</tspan></text>
        </g>
      </g>
      <g class="cls-47">
        <g class="cls-33">
          <text class="cls-21" transform="translate(1658.1368 155.116)"><tspan x="0" y="0">+</tspan></text>
        </g>
      </g>
      <path class="cls-14" d="M262.6938,191.6937h-9.5634c-1.3218,0-2.39,1.0699-2.39,2.3916v21.0735c0,5.1835-4.3815,9.5618-9.5618,9.5618h-21.4721c-1.3202,0-2.39,1.0698-2.39,2.3916v9.5617c0,1.3202,1.0698,2.3916,2.39,2.3916h21.4721c13.1476,0,23.9052-10.7576,23.9052-23.9068v-21.0735c0-1.3218-1.0698-2.3916-2.39-2.3916"/>
      <path class="cls-14" d="M71.779.0004h-21.8516C36.7782.0004,26.0207,10.758,26.0207,23.9072v22.2454c0,1.3217,1.0683,2.3916,2.39,2.3916h9.5634c1.3186,0,2.39-1.0699,2.39-2.3916v-22.2454c0-5.1819,4.3783-9.5617,9.5633-9.5617h21.8516c1.3202,0,2.3916-1.0714,2.3916-2.3901V2.3921C74.1707,1.0719,73.0992.0004,71.779.0004"/>
      <path class="cls-14" d="M241.178.0004h-21.4705c-1.3202,0-2.39,1.0714-2.39,2.3916v9.5633c0,1.3186,1.0698,2.3901,2.39,2.3901h21.4705c5.1819,0,9.5617,4.3798,9.5617,9.5617v22.2454c0,1.3217,1.0683,2.3916,2.3916,2.3916h9.5618c1.3218,0,2.39-1.0699,2.39-2.3916v-22.2454C265.0832,10.758,254.3257.0004,241.178.0004"/>
      <path class="cls-14" d="M71.779,224.7209h-21.8516c-5.1851,0-9.5633-4.3799-9.5633-9.5617v-21.0751c0-1.3218-1.0715-2.3901-2.39-2.3901h-9.5634c-1.3218,0-2.39,1.0683-2.39,2.3901v21.0751c0,13.1476,10.7576,23.9052,23.9068,23.9052h21.8516c1.3202,0,2.3916-1.0714,2.3916-2.3901v-9.5617c0-1.3218-1.0715-2.3916-2.3916-2.3916"/>
      <path class="cls-14" d="M883.718,191.6937h-9.5633c-1.3218,0-2.3901,1.0699-2.3901,2.3916v21.0735c0,5.1835-4.3815,9.5618-9.5618,9.5618h-21.4721c-1.3202,0-2.3901,1.0698-2.3901,2.3916v9.5617c0,1.3202,1.0699,2.3916,2.3901,2.3916h21.4721c13.1477,0,23.9053-10.7576,23.9053-23.9068v-21.0735c0-1.3218-1.0699-2.3916-2.3901-2.3916"/>
      <path class="cls-14" d="M692.8032.0004h-21.8515c-13.1492,0-23.9068,10.7576-23.9068,23.9068v22.2454c0,1.3217,1.0683,2.3916,2.39,2.3916h9.5634c1.3186,0,2.39-1.0699,2.39-2.3916v-22.2454c0-5.1819,4.3783-9.5617,9.5634-9.5617h21.8515c1.3202,0,2.3916-1.0714,2.3916-2.3901V2.3921c0-1.3202-1.0714-2.3916-2.3916-2.3916"/>
      <path class="cls-14" d="M862.2023.0004h-21.4705c-1.3202,0-2.3901,1.0714-2.3901,2.3916v9.5633c0,1.3186,1.0699,2.3901,2.3901,2.3901h21.4705c5.1819,0,9.5618,4.3798,9.5618,9.5617v22.2454c0,1.3217,1.0682,2.3916,2.3916,2.3916h9.5618c1.3217,0,2.39-1.0699,2.39-2.3916v-22.2454C886.1074,10.758,875.3498.0004,862.2023.0004"/>
      <path class="cls-14" d="M692.8032,224.7209h-21.8515c-5.1851,0-9.5634-4.3799-9.5634-9.5617v-21.0751c0-1.3218-1.0714-2.3901-2.39-2.3901h-9.5634c-1.3217,0-2.39,1.0683-2.39,2.3901v21.0751c0,13.1476,10.7576,23.9052,23.9068,23.9052h21.8515c1.3202,0,2.3916-1.0714,2.3916-2.3901v-9.5617c0-1.3218-1.0714-2.3916-2.3916-2.3916"/>
      <path class="cls-14" d="M1500.4019,191.6937h-9.5633c-1.3218,0-2.3901,1.0699-2.3901,2.3916v21.0735c0,5.1835-4.3815,9.5618-9.5618,9.5618h-21.4721c-1.3202,0-2.3901,1.0698-2.3901,2.3916v9.5617c0,1.3202,1.0699,2.3916,2.3901,2.3916h21.4721c13.1477,0,23.9053-10.7576,23.9053-23.9068v-21.0735c0-1.3218-1.0699-2.3916-2.3901-2.3916"/>
      <path class="cls-14" d="M1309.4868.0004h-21.8516c-13.1492,0-23.9067,10.7576-23.9067,23.9068v22.2454c0,1.3217,1.0682,2.3916,2.39,2.3916h9.5633c1.3186,0,2.3901-1.0699,2.3901-2.3916v-22.2454c0-5.1819,4.3782-9.5617,9.5633-9.5617h21.8516c1.3202,0,2.3916-1.0714,2.3916-2.3901V2.3921c0-1.3202-1.0714-2.3916-2.3916-2.3916"/>
      <path class="cls-14" d="M1478.886.0004h-21.4705c-1.3202,0-2.3901,1.0714-2.3901,2.3916v9.5633c0,1.3186,1.0699,2.3901,2.3901,2.3901h21.4705c5.1819,0,9.5618,4.3798,9.5618,9.5617v22.2454c0,1.3217,1.0682,2.3916,2.3916,2.3916h9.5618c1.3217,0,2.39-1.0699,2.39-2.3916v-22.2454C1502.7912,10.758,1492.0336.0004,1478.886.0004"/>
      <path class="cls-14" d="M1309.4868,224.7209h-21.8516c-5.1851,0-9.5633-4.3799-9.5633-9.5617v-21.0751c0-1.3218-1.0714-2.3901-2.3901-2.3901h-9.5633c-1.3217,0-2.39,1.0683-2.39,2.3901v21.0751c0,13.1476,10.7575,23.9052,23.9067,23.9052h21.8516c1.3202,0,2.3916-1.0714,2.3916-2.3901v-9.5617c0-1.3218-1.0714-2.3916-2.3916-2.3916"/>
      <path class="cls-14" d="M2002.8984,134.398h-6.4336c-.8897,0-1.6071.7494-1.6071,1.6757v14.7755c0,3.6337-2.9481,6.7046-6.4336,6.7046h-14.4438c-.8881,0-1.6088.7509-1.6088,1.6757v6.7045c0,.9248.7207,1.6757,1.6088,1.6757h14.4438c8.8443,0,16.0814-7.5416,16.0814-16.7606v-14.7755c0-.9263-.7192-1.6757-1.6073-1.6757"/>
      <path class="cls-14" d="M1874.4642.0004h-14.7005c-8.8458,0-16.083,7.5416-16.083,16.7606v15.5983c0,.9263.7192,1.6757,1.6088,1.6757h6.4318c.8881,0,1.6088-.7494,1.6088-1.6757v-15.5983c0-3.6321,2.945-6.7029,6.4336-6.7029h14.7005c.8881,0,1.6088-.7526,1.6088-1.6758V1.6762c0-.9247-.7207-1.6757-1.6088-1.6757"/>
      <path class="cls-14" d="M1988.424.0004h-14.4438c-.8881,0-1.6088.751-1.6088,1.6757v6.7061c0,.9232.7207,1.6758,1.6088,1.6758h14.4438c3.4855,0,6.4336,3.0709,6.4336,6.7029v15.5983c0,.9263.7174,1.6757,1.6071,1.6757h6.4336c.8881,0,1.6073-.7494,1.6073-1.6757v-15.5983C2004.5055,7.5421,1997.2698.0004,1988.424.0004"/>
      <path class="cls-14" d="M1874.4642,157.5537h-14.7005c-3.4886,0-6.4336-3.0709-6.4336-6.7045v-14.7755c0-.9264-.7207-1.6758-1.6088-1.6758h-6.4318c-.8897,0-1.6088.7494-1.6088,1.6758v14.7755c0,9.2189,7.2372,16.7606,16.083,16.7606h14.7005c.8881,0,1.6088-.751,1.6088-1.6757v-6.7046c0-.9247-.7207-1.6757-1.6088-1.6757"/>
      <path class="cls-14" d="M2476.2303,191.9928h-6.4336c-.8897,0-1.6071.7494-1.6071,1.6757v14.7755c0,3.6337-2.9481,6.7046-6.4336,6.7046h-14.4438c-.8881,0-1.6088.751-1.6088,1.6758v6.7045c0,.9248.7207,1.6758,1.6088,1.6758h14.4438c8.8443,0,16.0814-7.5416,16.0814-16.7606v-14.7755c0-.9263-.7192-1.6757-1.6073-1.6757"/>
      <path class="cls-14" d="M2347.7961,57.5953h-14.7005c-8.8458,0-16.083,7.5416-16.083,16.7606v15.5983c0,.9263.7192,1.6757,1.6088,1.6757h6.4318c.8881,0,1.6088-.7494,1.6088-1.6757v-15.5983c0-3.6321,2.945-6.7029,6.4336-6.7029h14.7005c.8881,0,1.6088-.7526,1.6088-1.6758v-6.7061c0-.9247-.7207-1.6757-1.6088-1.6757"/>
      <path class="cls-14" d="M2461.7559,57.5953h-14.4438c-.8881,0-1.6088.751-1.6088,1.6757v6.7061c0,.9232.7207,1.6758,1.6088,1.6758h14.4438c3.4855,0,6.4336,3.0709,6.4336,6.7029v15.5983c0,.9263.7174,1.6757,1.6071,1.6757h6.4336c.8881,0,1.6073-.7494,1.6073-1.6757v-15.5983c0-9.2189-7.2356-16.7606-16.0814-16.7606"/>
      <path class="cls-14" d="M2347.7961,215.1486h-14.7005c-3.4886,0-6.4336-3.0709-6.4336-6.7046v-14.7755c0-.9263-.7207-1.6757-1.6088-1.6757h-6.4318c-.8897,0-1.6088.7494-1.6088,1.6757v14.7755c0,9.219,7.2372,16.7606,16.083,16.7606h14.7005c.8881,0,1.6088-.751,1.6088-1.6758v-6.7046c0-.9248-.7207-1.6757-1.6088-1.6757"/>
      <path class="cls-14" d="M2271.5089,228.7709h-9.8217c-1.3583,0-2.4553,1.1432-2.4553,2.5559v22.5308c0,5.5406-4.4995,10.2234-9.8217,10.2234h-22.0526c-1.3568,0-2.4553,1.1432-2.4553,2.5559v10.2234c0,1.4095,1.0985,2.5559,2.4553,2.5559h22.0526c13.5047,0,24.5542-11.5022,24.5542-25.5586v-22.5308c0-1.4127-1.0987-2.5559-2.4555-2.5559"/>
      <path class="cls-14" d="M2075.4207,23.8313h-22.4447c-13.5047,0-24.5542,11.5006-24.5542,25.5586v23.784c0,1.4127,1.0987,2.5559,2.4555,2.5559h9.8217c1.3552,0,2.4555-1.1432,2.4555-2.5559v-23.784c0-5.5406,4.4962-10.2219,9.8215-10.2219h22.4447c1.3568,0,2.4555-1.1464,2.4555-2.5559v-10.225c0-1.4111-1.0987-2.5559-2.4555-2.5559"/>
      <path class="cls-14" d="M2249.4102,23.8313h-22.0526c-1.3568,0-2.4553,1.1448-2.4553,2.5559v10.225c0,1.4095,1.0985,2.5559,2.4553,2.5559h22.0526c5.3222,0,9.8217,4.6812,9.8217,10.2219v23.784c0,1.4127,1.0969,2.5559,2.4553,2.5559h9.8217c1.357,0,2.4555-1.1432,2.4555-2.5559v-23.784c0-14.058-11.0494-25.5586-24.5542-25.5586"/>
      <path class="cls-14" d="M2075.4207,264.0803h-22.4447c-5.3253,0-9.8215-4.6812-9.8215-10.2234v-22.5292c0-1.4142-1.1003-2.5574-2.4555-2.5574h-9.8217c-1.3568,0-2.4555,1.1432-2.4555,2.5574v22.5292c0,14.058,11.0494,25.5586,24.5542,25.5586h22.4447c1.3568,0,2.4555-1.1448,2.4555-2.5559v-10.2234c0-1.4111-1.0987-2.5559-2.4555-2.5559"/>
      <path class="cls-9" d="M1417.0391,133.6912c0,17.9691,0,26.9537-5.1883,32.5358-5.1866,5.5821-13.5382,5.5821-30.2366,5.5821s-25.05,0-30.2382-5.5821c-5.1866-5.5821-5.1866-14.5667-5.1866-32.5358v-32.6745c0-17.9675,0-26.9521,5.1866-32.5358,4.6365-4.9874,11.7939-5.5183,25.1775-5.5757"/>
      <path class="cls-2" d="M1432.1081,100.1695h-11.1562M1432.1081,82.9704h-11.1562M1387.4833,100.1695h-11.1562M1387.4833,82.9704h-11.1562M1412.5844,62.9062v11.4655M1395.8509,62.9062v11.4655M1412.5844,108.7682v11.4671M1395.8509,108.7682v11.4671M1409.7957,74.3717h-11.1562c-5.26,0-7.8892,0-9.5234,1.6789-1.6328,1.6789-1.6328,4.3815-1.6328,9.7866v11.4655c0,5.4051,0,8.1077,1.6328,9.7866,1.6342,1.6789,4.2634,1.6789,9.5234,1.6789h11.1562c5.2584,0,7.8876,0,9.5219-1.6789,1.6343-1.6789,1.6343-4.3815,1.6343-9.7866v-11.4655c0-5.4051,0-8.1077-1.6343-9.7866-1.6342-1.6789-4.2635-1.6789-9.5219-1.6789Z"/>
    </g>
    <line class="cls-2" x1="1377.9723" y1="156.134" x2="1385.1998" y2="156.134"/>
    <g class="cls-32">
      <path class="cls-14" d="M709.371,180.3235c3.098-9.3704,6.2039-18.7377,9.2891-28.1129.9997-3.039,1.9484-6.0955,2.988-9.3545,3.5045,0,6.9214-.295,10.2378.1419,1.3935.1833,4.077-.0271,3.8537,2.9496.2232,1.9803-1.2644,2.8524-4.0179,2.634-5.7607-.456-6.4128,2.9146-7.5576,7.0952-1.7651,6.4479-3.8968,12.7968-5.9472,19.4296h94.1905c-2.7934-8.3452-5.3971-16.4353-8.3244-24.4091-.3109-.8482-2.4985-1.3074-3.8601-1.427-2.3757-.2057-4.9395-.2455-4.8948-3.2957.043-2.9975,2.5957-3.1586,4.9794-3.2239,7.7617-.2121,7.776-.2344,10.1932,6.8528,3.1123,9.1265,6.2054,18.2594,9.2875,27.397.4289,1.2724.743,2.5814,1.1926,4.1583-1.5912.1164-2.6978.2679-3.8043.2679-34.8094.0127-69.6189.0127-104.4283-.0016-1.1257,0-2.2514-.1706-3.377-.2615v-.8402Z"/>
      <path class="cls-10" d="M761.3862,60.5142h6.8066c.287.0749.5708.1897.8626.2168,7.3519.6904,14.1489,2.9848,20.1727,7.1988,11.3379,7.9307,17.3489,18.6787,17.1879,32.547-.0829,7.1749-1.6343,14.0867-4.2459,20.7482-6.8799,17.5403-18.583,31.6716-32.4641,44.207-2.9178,2.634-7.194,2.3358-10.0974-.3827-6.9086-6.4734-13.2816-13.4219-18.8987-21.024-6.6631-9.0213-12.2069-18.6229-15.3128-29.4426-1.9532-6.8066-3.0932-13.7646-1.7953-20.7849,3.0709-16.5996,13.4362-26.7975,29.4872-31.6812,2.6771-.8148,5.5279-1.0826,8.2974-1.6024Z"/>
      <path class="cls-14" d="M763.7041,78.9193h.625c.0335.0127.067.0271.102.0382.236.0638.4784.1052.7048.1945.3922.1515.7223.4066,1.03.6872.295.2695.5867.5437.8705.8243,1.7794,1.7571,3.5572,3.5157,5.3366,5.2728.0542.0542.1116.1052.2057.1929v-.2742c0-.4337-.0048-.869,0-1.3027.0159-1.545,1.2691-2.7902,2.8285-2.803.9662-.008,1.9341-.0095,2.9003,0,.8578.0096,1.5737.3444,2.1381.9822.4847.5501.7016,1.2006.7016,1.9277-.0016,3.2383,0,6.4765-.0032,9.7148,0,.1658.0431.2854.1642.405,1.2947,1.2708,2.583,2.5447,3.8681,3.8234.3157.3125.6154.6394.9104.9726.5485.6202.8084,1.3361.7478,2.1716-.0319.4289-.1291.8291-.346,1.1958-.5373.9152-1.3569,1.384-2.4187,1.4111-.8913.0207-1.7842.0032-2.6771.0048-.0781,0-.1578.0048-.2455.0064v.3125c0,5.4912,0,10.9808-.0032,16.472,0,.2408-.0127.4879-.0622.7239-.2806,1.3393-1.4366,2.2752-2.8237,2.2784-2.7807.0048-5.5629.0016-8.3452,0-.0574,0-.1132-.0079-.1914-.0127v-13.8747c0-.0957.0016-.1913-.0016-.287-.0367-1.5593-1.2915-2.7855-2.8684-2.7918-1.9037-.0048-3.8091-.0048-5.7128.0016-1.1591.0032-2.1907.6983-2.6324,1.7586-.1594.3795-.2121.7749-.2121,1.1847.0032,4.5712.0016,9.1424.0016,13.712v.3109h-8.4265c-.0749,0-.1499.0016-.2232-.0032-1.2038-.0925-2.0696-.6697-2.5638-1.7666-.169-.3747-.2137-.7749-.2137-1.1847.0032-5.5135.0032-11.0255.0032-16.5389v-.3014h-.2663c-.8913,0-1.7841.008-2.677-.0032-1.3521-.016-2.473-.9583-2.7217-2.2689-.016-.0845-.0574-.1642-.0861-.2471v-.617c.0255-.0622.0638-.1196.0733-.1834.0925-.5803.3811-1.0651.759-1.4987.2726-.3109.5548-.6155.8498-.9057,6.0764-6.0126,12.1543-12.0235,18.2354-18.0313.3046-.3013.6186-.5947.9407-.8785.4066-.3555.8626-.625,1.4015-.7382.1069-.0223.2153-.0446.3237-.067"/>
      <path class="cls-8" d="M103.3457,147.4401c-8.9304,13.6004-11.1801,20.7801-8.6673,26.544.2487.5724.5405,1.1224.8722,1.6502,3.5906,5.7016,12.8686,5.7016,31.4245,5.7016h33.9644c18.5575,0,27.8354,0,31.4261-5.7016.33-.5278.6218-1.0779.8706-1.6502,2.5128-5.7639.2663-12.9435-8.6625-26.544"/>
      <path class="cls-7" d="M159.9245,70.4553c0,8.7885-7.1478,15.9139-15.9666,15.9139s-15.9681-7.1255-15.9681-15.9139,7.1494-15.914,15.9681-15.914,15.9666,7.1239,15.9666,15.914ZM150.3324,86.3692h-12.749c-18.3311,0-30.6894,19.5365-23.4683,37.0974,1.0061,2.4474,3.3132,4.0339,5.8659,4.0339h4.4915c1.5131,0,2.8317,1.0731,3.1984,2.6037l5.7814,24.1013c1.2054,5.0256,5.5358,8.5509,10.5056,8.5509s9.3003-3.5253,10.5057-8.5509l5.7798-24.1013c.3683-1.5306,1.6869-2.6037,3.2-2.6037h4.4899c2.5543,0,4.8614-1.5864,5.8675-4.0339,7.2211-17.561-5.1372-37.0974-23.4683-37.0974Z"/>
      <path class="cls-14" d="M2132.8377,185.3934c-1.0189-.4592-2.0281-.92-3.031-1.3824.0989.7972.2073,1.588.3268,2.3725.8961-.3237,1.797-.6537,2.7042-.9901"/>
      <path class="cls-14" d="M2195.738,174.2204c-.2073,5.9265-1.5578,11.6584-3.9446,16.9503,1.0859.2758,2.1509.5341,3.1968.7797,3.0454-6.99,4.3592-14.5411,3.951-22.011-2.3087,1.4175-4.7307,2.8461-7.2563,4.281h4.053Z"/>
      <path class="cls-14" d="M2182.9252,204.1652c-4.3718,4.4931-9.5027,7.9737-15.2523,10.3478-2.4027.9917-4.8662,1.7714-7.3758,2.3374,2.6978-2.4474,5.2138-5.9233,7.3997-10.4275.9759-2.009,1.8416-4.1471,2.6085-6.3777-1.0187-.3364-2.0456-.6824-3.0787-1.0332-.7271,2.1126-1.545,4.1232-2.4555,5.9982-3.5843,7.3838-8.224,11.9406-12.9372,12.8064v-24.1954c.2168.0016.4321.0032.6473.0048-.1292-.0494-.2598-.1005-.3906-.1515-1.1734.4911-2.3438.9742-3.5077,1.4477v22.9007c-1.8017-.3221-3.5954-1.1815-5.3477-2.5686-2.6038-2.0616-4.9874-5.1659-7.0873-9.2253-.8786-1.6997-1.6789-3.5189-2.3996-5.437-1.0284.3667-2.0489.7239-3.0614,1.0714.7655,2.052,1.6217,4.0116,2.5719,5.8515,2.06,3.9845,4.3831,7.0952,6.8528,9.3401-7.9482-1.7857-15.2856-5.6777-21.311-11.389-1.2164.3556-2.4156.6952-3.5939,1.0188.3381.346.6808.6904,1.0333,1.03,9.4756,9.1456,21.7207,13.6961,33.9516,13.6961h.016c12.7474-.0032,25.4773-4.9491,35.0503-14.7883.4815-.4943.9471-.9981,1.4031-1.5083-1.1623-.3029-2.3438-.625-3.538-.9567-.067.0686-.1308.1387-.1977.2073"/>
      <path class="cls-14" d="M2130.133,186.383c-.1195-.7829-.2279-1.5753-.3268-2.3725-1.1592-.5341-2.3087-1.0714-3.4456-1.6104.1738,1.714.3937,3.4137.6616,5.0878,1.0284-.3587,2.0664-.727,3.1108-1.1049"/>
      <path class="cls-14" d="M2109.4509,192.9226c-2.8955-5.7527-4.5376-12.1001-4.7704-18.7026h5.5628c-3.0707-1.6773-5.9902-3.3482-8.723-5.0001-.5819,8.3548.9916,16.8259,4.7132,24.5127.7923-.1913,1.6151-.3938,2.4761-.617.2454-.0622.4942-.1276.7414-.1929"/>
      <path class="cls-14" d="M2117.4917,141.0331c4.3703-4.4931,9.5011-7.9753,15.249-10.3478,2.4027-.9917,4.8662-1.773,7.3773-2.339-2.696,2.4491-5.212,5.9249-7.3981,10.4291-1.7363,3.5747-3.1394,7.5464-4.2155,11.7605-8.13-.8578-13.4681-2.0537-16.3763-2.8509,1.5594-2.3549,3.3498-4.5824,5.3637-6.6519M2148.583,127.3817v24.1954c-6.4624-.0415-12.046-.3205-16.8068-.7287,1.0171-3.8601,2.3118-7.4507,3.8697-10.6603,3.5841-7.3837,8.224-11.9422,12.9372-12.8064M2151.8339,127.3768c1.8017.3221,3.5939,1.1815,5.3461,2.5687,2.6036,2.0616,4.989,5.1659,7.0889,9.2253,1.7824,3.4503,3.2478,7.3933,4.3749,11.6776-4.7609.4066-10.3462.6872-16.81.7287v-24.2002ZM2181.916,140.0158c2.4313,2.347,4.5663,4.9172,6.3872,7.666-2.9066.7972-8.2497,1.9962-16.3923,2.854-1.1878-4.6557-2.7681-9.0117-4.7547-12.8495-2.06-3.9861-4.3814-7.0984-6.8528-9.3417,8.079,1.8144,15.533,5.8037,21.6125,11.6711M2107.8119,155.9553c.7318-1.8463,1.5816-3.6464,2.5559-5.3876,2.8029.8339,8.4106,2.2051,17.3968,3.1665-.8356,3.9637-1.3936,8.0981-1.6806,12.293,1.0397.5214,2.0919,1.0428,3.1587,1.5626.2487-4.7115.8449-9.2684,1.7682-13.5415,4.9491.4321,10.7814.7303,17.5721.7717v16.1579h-12.1799c2.3757,1.0922,4.7977,2.1748,7.2547,3.2431h4.9252v2.0983c.4656.1945.9327.389,1.4013.5836.6172.2551,1.2326.507,1.8496.759v-3.4408h7.7857c2.3118-1.0698,4.5919-2.1509,6.8337-3.2431h-14.6194v-16.1579c6.7954-.0415,12.631-.3412,17.5832-.7733.9839,4.5744,1.5929,9.482,1.8035,14.5682,1.0681-.5389,2.1254-1.081,3.1696-1.6231-.2598-4.5282-.8338-8.9973-1.7299-13.2592,8.9941-.9614,14.6017-2.3358,17.3999-3.1681,1.0763,1.9229,2.0059,3.9207,2.784,5.9775.9533-.5964,1.8798-1.1894,2.7838-1.7778-2.4714-6.2549-6.2901-12.0968-11.4512-17.0779-9.4772-9.1472-21.7256-13.6993-33.9564-13.6993h-.0128c-12.7474.0032-25.4773,4.9475-35.0501,14.7883-4.4693,4.5951-7.8446,9.8439-10.1343,15.4244.6633.4289,1.3552.8674,2.0839,1.3202.2312.1451.4689.2902.7048.4353"/>
      <path class="cls-14" d="M2171.1404,184.9258c.8387.2886,1.6725.5708,2.5032.8482.1037-.7302.1977-1.4637.2822-2.2003-.9216.4512-1.8494.9025-2.7854,1.3521"/>
      <path class="cls-14" d="M2091.4342,207.3844c4.3687,0,10.0416-.8562,17.1766-2.5543,11.2088-2.6659,24.8189-7.2227,39.1463-13.0727-1.124-.4528-2.2497-.9136-3.3769-1.3792-2.4714-1.022-4.9125-2.0616-7.3185-3.1123-9.9363,3.7979-19.361,6.8831-27.5388,8.9894-9.3624,2.4108-14.9014,3.0055-18.0871,3.0055-1.58,0-2.5814-.1467-3.1824-.2902.7558-1.376,4.3607-5.6156,12.3264-11.3475-1.132-2.6069-1.7857-5.5677-2.0775-8.4457-14.0596,9.6813-20.6206,17.6487-18.1175,23.2754,1.4685,3.2989,5.0145,4.9316,11.0494,4.9316"/>
      <path class="cls-14" d="M2156.1084,179.3748c3.6034,1.4206,7.1765,2.7647,10.689,4.0259,14.8154-6.966,28.1272-14.3514,38.1099-21.1755,14.4072-9.8504,19.7039-16.7797,17.1735-22.467-1.4683-3.2989-5.0143-4.9315-11.0492-4.9315-4.3703,0-11.2982,1.2452-18.4332,2.9433-1.046.2487-2.1125.515-3.1999.7972,1.3918,1.4446,4.1169,6.8832,4.3592,7.261,8.1251-1.9787,14.3354-2.8764,17.2786-2.8764,1.5769,0,2.5767.1451,3.1762.2886-.8961,1.6295-4.2093,5.9663-16.2918,13.9034-11.0062,7.2276-25.8216,15.104-41.8122,22.2311"/>
      <path class="cls-14" d="M2206.2769,178.6613c-.5773-.3747-2.8412-2.0217-3.4407-2.3996-.4241,2.7807-1.3377,5.496-2.4251,8.0758,10.1117,6.5786,14.7706,11.5915,15.6332,13.0775-.6793.1786-1.8718.3731-3.8488.3731-3.2751,0-8.696-.5357-17.4812-2.5718-13.1014-3.0358-29.4299-8.4759-45.9753-15.3192-16.5453-6.8433-31.941-14.5236-43.3523-21.6267-12.2754-7.6405-15.6939-11.8944-16.6299-13.5016.7063-.1866,1.9021-.405,3.9446-.405,2.5528,0,8.1985.4352,14.1044,1.6103.2742-.5086,2.8029-5.7607,4.4867-7.3423-.1865-.0399-2.1429-.1786-2.3262-.2185-6.7093-1.4238-12.124-2.1429-16.3699-2.1429-6.5675-.0016-10.3383,1.7188-11.7892,5.209-2.3916,5.7479,3.0725,12.5465,17.7189,22.0413,12.0282,7.8015,28.7553,16.2759,47.0991,23.8621,18.3438,7.5879,36.176,13.4075,50.2101,16.3859,6.7093,1.4238,12.124,2.1429,16.3699,2.1429,6.5675,0,10.3398-1.7188,11.7908-5.209,2.3901-5.7479-3.074-12.5449-17.7189-22.0413"/>
      <path class="cls-5" d="M2150.328,74.73c-21.0161,0-38.0764,17.0635-38.0764,38.0669,0,8.7757,3.192,16.6234,7.8876,23.2148l30.1887,42.2921,30.1921-42.2969c4.6924-6.5897,7.8797-14.4566,7.8797-23.21.0016-21.0033-17.0365-38.0669-38.0717-38.0669ZM2150.328,89.4959c-12.8733,0-23.3089,10.4371-23.3089,23.3105s10.4356,23.3105,23.3089,23.3105,23.3089-10.4371,23.3089-23.3105-10.4356-23.3105-23.3089-23.3105"/>
      <path class="cls-14" d="M2150.3276,81.1419c-17.4766,0-31.6637,14.1888-31.6637,31.6541,0,7.2977,2.6532,13.8236,6.5579,19.3037l25.1057,35.1682,25.1073-35.1714c3.9016-5.48,6.5533-12.0219,6.5533-19.3005,0-17.4653-14.1682-31.6541-31.6606-31.6541M2150.3276,93.4206c-10.7049,0-19.3834,8.6784-19.3834,19.3834s8.6784,19.3834,19.3834,19.3834,19.3834-8.6784,19.3834-19.3834-8.6784-19.3834-19.3834-19.3834"/>
      <path class="cls-6" d="M2150.3278,97.4051c-8.5046,0-15.4006,6.8943-15.4006,15.3989s6.896,15.399,15.4006,15.399,15.3989-6.8943,15.3989-15.399-6.8942-15.3989-15.3989-15.3989"/>
      <path class="cls-14" d="M2150.3276,103.8172c-4.9635,0-8.9877,4.0227-8.9877,8.9861s4.0242,8.9878,8.9877,8.9878,8.9861-4.0227,8.9861-8.9878-4.0226-8.9861-8.9861-8.9861"/>
    </g>
    <polygon class="cls-14" points="2381.3092 124.5204 2380.4466 132.1625 2386.0224 127.2836 2388.7568 131.7081 2381.3586 134.6227 2388.7073 137.5899 2386.0224 141.965 2380.4466 137.0367 2381.3092 144.7282 2376.443 144.7282 2377.3041 137.0861 2371.781 141.965 2369.0943 137.5899 2376.392 134.5732 2369.0433 131.7081 2371.781 127.1847 2377.2562 132.1625 2376.443 124.5204 2381.3092 124.5204"/>
    <g class="cls-30">
      <path class="cls-14" d="M2390.7531,152.9971c0,1.1081-.9152,2.017-2.0329,2.017h-19.6401c-1.1176,0-2.0329-.9088-2.0329-2.017v-.5819c0-1.1097.9154-2.017,2.0329-2.017h19.6401c1.1178,0,2.0329.9072,2.0329,2.017v.5819Z"/>
    </g>
    <polygon class="cls-14" points="2416.6458 124.5204 2415.7832 132.1625 2421.359 127.2836 2424.0933 131.7081 2416.6952 134.6227 2424.0439 137.5899 2421.359 141.965 2415.7832 137.0367 2416.6458 144.7282 2411.7811 144.7282 2412.6422 137.0861 2407.1176 141.965 2404.4309 137.5899 2411.7301 134.5732 2404.3799 131.7081 2407.1176 127.1847 2412.5927 132.1625 2411.7811 124.5204 2416.6458 124.5204"/>
    <g class="cls-31">
      <path class="cls-14" d="M2426.0897,152.9971c0,1.1081-.9152,2.017-2.0329,2.017h-19.6401c-1.1176,0-2.0312-.9088-2.0312-2.017v-.5819c0-1.1097.9136-2.017,2.0312-2.017h19.6401c1.1178,0,2.0329.9072,2.0329,2.017v.5819Z"/>
    </g>
    <polygon class="cls-14" points="2451.9835 124.5204 2451.1209 132.1625 2456.6949 127.2836 2459.4311 131.7081 2452.0329 134.6227 2459.3816 137.5899 2456.6949 141.965 2451.1209 137.0367 2451.9835 144.7282 2447.1173 144.7282 2447.9784 137.0861 2442.4553 141.965 2439.7686 137.5899 2447.0663 134.5732 2439.7176 131.7081 2442.4553 127.1847 2447.9289 132.1625 2447.1173 124.5204 2451.9835 124.5204"/>
    <g class="cls-34">
      <path class="cls-14" d="M2461.4274,152.9971c0,1.1081-.9152,2.017-2.0329,2.017h-19.6401c-1.1193,0-2.0329-.9088-2.0329-2.017v-.5819c0-1.1097.9136-2.017,2.0329-2.017h19.6401c1.1178,0,2.0329.9072,2.0329,2.017v.5819Z"/>
      <path class="cls-14" d="M2496.764,152.9971c0,1.1081-.9152,2.017-2.0329,2.017h-19.6401c-1.1176,0-2.0329-.9088-2.0329-2.017v-.5819c0-1.1097.9154-2.017,2.0329-2.017h19.6401c1.1178,0,2.0329.9072,2.0329,2.017v.5819Z"/>
      <path class="cls-4" d="M2415.3518,116.2854c-.3762-6.0046-1.4126-9.8296-4.2572-12.5864-4.4707-4.3384-11.6711-4.3384-26.0703-4.3384s-21.5965,0-26.0688,4.3384c-4.474,4.3368-4.474,11.3173-4.474,25.2796v25.388c0,13.9623,0,20.9428,4.474,25.2812,4.4722,4.3368,11.6711,4.3368,26.0688,4.3368s21.5996,0,26.0703-4.3368c2.8445-2.7567,3.881-6.5818,4.2572-12.588"/>
    </g>
    <line class="cls-1" x1="2382.4458" y1="171.6479" x2="2387.4253" y2="171.6479"/>
    <g class="cls-35">
      <path class="cls-14" d="M1963.8576,47.8606c-.8706-1.4541-.3826-3.3292,1.089-4.1886.4944-.2886,1.0364-.4273,1.572-.4273,1.0588,0,2.0903.5373,2.6692,1.5019,10.4402,17.4414,10.4402,39.1096,0,56.5494-.8721,1.4541-2.7696,1.9356-4.2412,1.0762s-1.9596-2.736-1.089-4.1901c9.2923-15.5185,9.2923-34.8015,0-50.3216"/>
      <path class="cls-14" d="M1956.3592,53.7097c.4944-.2886,1.038-.4257,1.5738-.4257,1.0586,0,2.0886.5357,2.6674,1.5004,6.7348,11.2502,6.7348,25.2253,0,36.474-.8706,1.4541-2.7696,1.9357-4.2412,1.0763s-1.9596-2.736-1.089-4.1886c5.5852-9.3289,5.5852-20.9188,0-30.2478-.8706-1.4541-.3826-3.3292,1.089-4.1886"/>
      <path class="cls-14" d="M1947.6078,83.2866c-1.4716-.8594-1.9596-2.736-1.089-4.1886,2.2433-3.7485,2.2433-8.4042,0-12.1511-.8706-1.4541-.3826-3.3292,1.089-4.1886.4944-.2902,1.038-.4273,1.5738-.4273,1.057,0,2.0886.5373,2.6674,1.502,3.3928,5.6682,3.3928,12.7091,0,18.3773-.8706,1.4541-2.7696,1.9356-4.2412,1.0762"/>
      <path class="cls-10" d="M1897.1079,73.3921c.0749-11.279,7.6627-20.1185,17.3919-20.8439,11.9008-.8865,21.8803,9.7435,20.5171,22.0333-.9233,8.3277-4.7021,14.793-13.1334,17.7411-11.153,3.8984-23.1526-4.1534-24.6098-16.4529-.1197-1.014-.1372-2.0409-.1658-2.4777ZM1951.8698,113.6226c-.008,2.6659.1419,5.3461-.1195,7.9881-.0878.8849-1.0683,2.1844-1.9006,2.4267-22.617,6.6057-45.2418,6.4749-67.8619-.0989-1.6374-.4768-2.0793-1.2708-2.0473-2.8333.0942-4.7131.1627-9.4326.0607-14.1457-.1867-8.7024,7.1971-14.6289,15.5297-14.5714,4.4372.0303,8.9383,1.4254,13.2766,2.6579,6.0733,1.7268,11.7573,1.0651,17.6058-1.0731,8.4408-3.0868,18.6658-2.1748,23.5209,5.9616,1.0985,1.8432,1.6104,4.155,1.8893,6.3155.3126,2.4203.0543,4.9124.0463,7.3726Z"/>
    </g>
  </g>
</svg>