<?xml version="1.0" encoding="UTF-8"?>
<svg id="Layer_1" data-name="Layer 1" xmlns="http://www.w3.org/2000/svg" xmlns:xlink="http://www.w3.org/1999/xlink" viewBox="0 0 2717.9713 806.0065">
  <defs>
    <style>
      .cls-1 {
        fill: #4d9cd6;
      }

      .cls-1, .cls-2, .cls-3, .cls-4 {
        stroke-width: 0px;
      }

      .cls-5 {
        clip-path: url(#clippath);
      }

      .cls-2, .cls-6, .cls-7, .cls-8 {
        fill: none;
      }

      .cls-9 {
        letter-spacing: -.006em;
      }

      .cls-10 {
        letter-spacing: .002em;
      }

      .cls-11 {
        letter-spacing: .007em;
      }

      .cls-12 {
        letter-spacing: .007em;
      }

      .cls-13 {
        letter-spacing: .002em;
      }

      .cls-14 {
        letter-spacing: .008em;
      }

      .cls-15 {
        font-size: 201.5016px;
      }

      .cls-15, .cls-16, .cls-17 {
        fill: #99d6f5;
        font-family: MonsalGothic-ExtraBold, 'Monsal Gothic';
        font-weight: 700;
      }

      .cls-18 {
        letter-spacing: .008em;
      }

      .cls-19 {
        letter-spacing: -.009em;
      }

      .cls-16 {
        font-size: 134.3344px;
      }

      .cls-20 {
        letter-spacing: .01em;
      }

      .cls-21 {
        letter-spacing: .01em;
      }

      .cls-22 {
        letter-spacing: .01em;
      }

      .cls-23 {
        letter-spacing: -.006em;
      }

      .cls-24 {
        letter-spacing: -.006em;
      }

      .cls-25 {
        clip-path: url(#clippath-1);
      }

      .cls-26 {
        clip-path: url(#clippath-4);
      }

      .cls-27 {
        clip-path: url(#clippath-3);
      }

      .cls-28 {
        clip-path: url(#clippath-2);
      }

      .cls-29 {
        clip-path: url(#clippath-7);
      }

      .cls-30 {
        clip-path: url(#clippath-8);
      }

      .cls-31 {
        clip-path: url(#clippath-6);
      }

      .cls-32 {
        clip-path: url(#clippath-5);
      }

      .cls-33 {
        clip-path: url(#clippath-9);
      }

      .cls-6 {
        stroke-width: 2px;
      }

      .cls-6, .cls-8 {
        stroke: #fff;
      }

      .cls-34 {
        clip-path: url(#clippath-20);
      }

      .cls-35 {
        clip-path: url(#clippath-21);
      }

      .cls-36 {
        clip-path: url(#clippath-24);
      }

      .cls-37 {
        clip-path: url(#clippath-23);
      }

      .cls-38 {
        clip-path: url(#clippath-22);
      }

      .cls-39 {
        clip-path: url(#clippath-25);
      }

      .cls-40 {
        clip-path: url(#clippath-27);
      }

      .cls-41 {
        clip-path: url(#clippath-28);
      }

      .cls-42 {
        clip-path: url(#clippath-26);
      }

      .cls-43 {
        clip-path: url(#clippath-14);
      }

      .cls-44 {
        clip-path: url(#clippath-13);
      }

      .cls-45 {
        clip-path: url(#clippath-12);
      }

      .cls-46 {
        clip-path: url(#clippath-10);
      }

      .cls-47 {
        clip-path: url(#clippath-15);
      }

      .cls-48 {
        clip-path: url(#clippath-17);
      }

      .cls-49 {
        clip-path: url(#clippath-16);
      }

      .cls-50 {
        clip-path: url(#clippath-19);
      }

      .cls-51 {
        clip-path: url(#clippath-11);
      }

      .cls-52 {
        clip-path: url(#clippath-18);
      }

      .cls-53 {
        letter-spacing: .01em;
      }

      .cls-54 {
        letter-spacing: -.001em;
      }

      .cls-55 {
        letter-spacing: .01em;
      }

      .cls-56 {
        letter-spacing: -.002em;
      }

      .cls-57 {
        letter-spacing: -.002em;
      }

      .cls-58 {
        letter-spacing: -.001em;
      }

      .cls-59 {
        letter-spacing: -.002em;
      }

      .cls-60 {
        font-family: MonsalGothic-Regular, 'Monsal Gothic';
        font-size: 58.7713px;
      }

      .cls-60, .cls-4 {
        fill: #fff;
      }

      .cls-61 {
        letter-spacing: -.029em;
      }

      .cls-62 {
        letter-spacing: .009em;
      }

      .cls-63 {
        letter-spacing: .009em;
      }

      .cls-64 {
        letter-spacing: 0em;
      }

      .cls-65 {
        letter-spacing: .009em;
      }

      .cls-66 {
        letter-spacing: .009em;
      }

      .cls-67 {
        opacity: .2;
      }

      .cls-17 {
        font-size: 67.1672px;
      }

      .cls-68 {
        opacity: .4;
      }

      .cls-69 {
        opacity: .5;
      }

      .cls-70 {
        letter-spacing: 0em;
      }

      .cls-3 {
        fill: #96d9fa;
      }

      .cls-71 {
        letter-spacing: -.033em;
      }

      .cls-7 {
        stroke: #96d9fa;
        stroke-width: 4px;
      }

      .cls-72 {
        letter-spacing: -.017em;
      }

      .cls-73 {
        letter-spacing: -.005em;
      }

      .cls-74 {
        letter-spacing: .005em;
      }

      .cls-8 {
        stroke-width: 3px;
      }
    </style>
    <clipPath id="clippath">
      <rect class="cls-2" width="2717.9713" height="806.0065"/>
    </clipPath>
    <clipPath id="clippath-1">
      <rect class="cls-2" width="2717.9662" height="806.0065"/>
    </clipPath>
    <clipPath id="clippath-2">
      <rect class="cls-2" x="431.7088" y="567.0255" width="318.7739" height="231.6256"/>
    </clipPath>
    <clipPath id="clippath-3">
      <rect class="cls-2" x="1100.0225" y="567.0255" width="318.774" height="231.6256"/>
    </clipPath>
    <clipPath id="clippath-4">
      <rect class="cls-2" x="1688.4156" y="233.2398" width="476.4842" height="348.2771"/>
    </clipPath>
    <clipPath id="clippath-5">
      <rect class="cls-2" width="2717.9662" height="806.0065"/>
    </clipPath>
    <clipPath id="clippath-6">
      <rect class="cls-2" width="2717.9662" height="806.0065"/>
    </clipPath>
    <clipPath id="clippath-7">
      <rect class="cls-2" x="1304.236" y="274.5459" width="411.3823" height="147.7679"/>
    </clipPath>
    <clipPath id="clippath-8">
      <rect class="cls-2" width="2717.9662" height="806.0065"/>
    </clipPath>
    <clipPath id="clippath-9">
      <rect class="cls-2" width="2717.9662" height="806.0065"/>
    </clipPath>
    <clipPath id="clippath-10">
      <rect class="cls-2" x="176.6346" y="398.6374" width="39.6051" height="31.6643"/>
    </clipPath>
    <clipPath id="clippath-11">
      <rect class="cls-2" x="187.5392" y="398.639" width="43.0811" height="31.6643"/>
    </clipPath>
    <clipPath id="clippath-12">
      <rect class="cls-2" x="202.8903" y="398.5064" width="40.4582" height="31.7936"/>
    </clipPath>
    <clipPath id="clippath-13">
      <rect class="cls-2" x="215.4321" y="412.3781" width="33.152" height="18.2006"/>
    </clipPath>
    <clipPath id="clippath-14">
      <rect class="cls-2" x="176.6581" y="423.0862" width="43.8854" height="31.9413"/>
    </clipPath>
    <clipPath id="clippath-15">
      <rect class="cls-2" x="191.8463" y="423.2205" width="44.1221" height="31.6643"/>
    </clipPath>
    <clipPath id="clippath-16">
      <rect class="cls-2" x="206.3041" y="423.2205" width="42.5319" height="31.6643"/>
    </clipPath>
    <clipPath id="clippath-17">
      <rect class="cls-2" x="220.4344" y="423.2273" width="39.6051" height="31.6542"/>
    </clipPath>
    <clipPath id="clippath-18">
      <rect class="cls-2" x="433.4014" y="314.7758" width="56.1434" height="55.7857"/>
    </clipPath>
    <clipPath id="clippath-19">
      <rect class="cls-2" x="471.1914" y="314.7758" width="56.1434" height="55.7857"/>
    </clipPath>
    <clipPath id="clippath-20">
      <rect class="cls-2" x="546.778" y="314.7758" width="56.1434" height="55.7857"/>
    </clipPath>
    <clipPath id="clippath-21">
      <rect class="cls-2" x="584.5747" y="314.7758" width="56.1434" height="55.7857"/>
    </clipPath>
    <clipPath id="clippath-22">
      <rect class="cls-2" x="622.3646" y="314.7758" width="56.1451" height="55.7857"/>
    </clipPath>
    <clipPath id="clippath-23">
      <rect class="cls-2" x="662.7808" y="314.7758" width="53.5239" height="55.7857"/>
    </clipPath>
    <clipPath id="clippath-24">
      <rect class="cls-2" x="282.1963" y="405.1761" width="48.6593" height="44.0382"/>
    </clipPath>
    <clipPath id="clippath-25">
      <rect class="cls-2" x="309.0766" y="405.1761" width="48.6593" height="44.0382"/>
    </clipPath>
    <clipPath id="clippath-26">
      <rect class="cls-2" x="335.9569" y="405.1761" width="48.6609" height="44.0382"/>
    </clipPath>
    <clipPath id="clippath-27">
      <rect class="cls-2" x="362.8372" y="405.1761" width="48.661" height="44.0382"/>
    </clipPath>
    <clipPath id="clippath-28">
      <rect class="cls-2" x="391.5831" y="405.1761" width="46.7954" height="44.0382"/>
    </clipPath>
  </defs>
  <g class="cls-5">
    <text class="cls-60" transform="translate(24.1896 646.9064)"><tspan class="cls-72" x="0" y="0">L</tspan><tspan class="cls-56" x="29.3857" y="0">o</tspan><tspan class="cls-20" x="62.3555" y="0">s </tspan><tspan class="cls-66" x="105.1987" y="0">pri</tspan><tspan class="cls-55" x="177.6045" y="0">me</tspan><tspan class="cls-58" x="260.3535" y="0">r</tspan><tspan class="cls-57" x="282.1572" y="0">o</tspan><tspan x="315.1274" y="0">s </tspan></text>
    <text class="cls-60" transform="translate(382.1656 646.9064)"><tspan x="0" y="0"> </tspan></text>
    <text class="cls-60" transform="translate(24.1896 722.4855)"><tspan class="cls-55" x="0" y="0">6 d</tspan><tspan class="cls-18" x="82.9243" y="0">í</tspan><tspan class="cls-66" x="97.4409" y="0">gi</tspan><tspan class="cls-24" x="147.1021" y="0">t</tspan><tspan class="cls-57" x="168.4355" y="0">o</tspan><tspan x="201.4058" y="0">s</tspan></text>
    <text class="cls-60" transform="translate(764.7081 646.9064)"><tspan class="cls-72" x="0" y="0">L</tspan><tspan class="cls-56" x="29.3857" y="0">o</tspan><tspan class="cls-62" x="62.3555" y="0">s</tspan><tspan class="cls-55" x="88.3325" y="0"> </tspan><tspan class="cls-66" x="105.1401" y="0">ú</tspan><tspan class="cls-20" x="137.6992" y="0">ltim</tspan><tspan class="cls-57" x="242.0757" y="0">o</tspan><tspan class="cls-66" x="275.0459" y="0">s</tspan><tspan class="cls-20" x="301.0225" y="0"> </tspan><tspan x="317.8306" y="0">4 </tspan></text>
    <text class="cls-60" transform="translate(764.7081 722.4855)"><tspan class="cls-55" x="0" y="0">d</tspan><tspan class="cls-11" x="33.9692" y="0">í</tspan><tspan class="cls-55" x="48.4272" y="0">g</tspan><tspan class="cls-62" x="82.0439" y="0">i</tspan><tspan class="cls-23" x="98.1475" y="0">t</tspan><tspan class="cls-57" x="119.4805" y="0">o</tspan><tspan x="152.4507" y="0">s</tspan></text>
    <g class="cls-25">
      <g class="cls-69">
        <g class="cls-28">
          <text class="cls-16" transform="translate(493.1691 703.5783)"><tspan x="0" y="0">+</tspan></text>
        </g>
      </g>
      <g class="cls-69">
        <g class="cls-27">
          <text class="cls-16" transform="translate(1161.483 703.5783)"><tspan x="0" y="0">+</tspan></text>
        </g>
      </g>
      <g class="cls-69">
        <g class="cls-26">
          <text class="cls-15" transform="translate(1779.7726 437.2267)"><tspan x="0" y="0">=</tspan></text>
        </g>
      </g>
    </g>
    <text class="cls-60" transform="translate(1986.5548 488.2228)"><tspan class="cls-61" x="0" y="0">V</tspan><tspan class="cls-62" x="32.2061" y="0">er</tspan><tspan class="cls-20" x="85.9814" y="0">if</tspan><tspan class="cls-65" x="121.832" y="0">i</tspan><tspan class="cls-13" x="137.9346" y="0">c</tspan><tspan class="cls-20" x="166.0273" y="0">a</tspan><tspan class="cls-62" x="196.8828" y="0">c</tspan><tspan class="cls-20" x="225.3867" y="0">ión instantáne</tspan><tspan x="609.6855" y="0">a </tspan></text>
    <text class="cls-60" transform="translate(1986.5548 563.8019)"><tspan x="0" y="0">c</tspan><tspan class="cls-20" x="27.9746" y="0">ont</tspan><tspan class="cls-24" x="118.3633" y="0">r</tspan><tspan class="cls-20" x="139.873" y="0">a l</tspan><tspan class="cls-59" x="202.1699" y="0">o</tspan><tspan class="cls-20" x="235.1396" y="0">s </tspan><tspan class="cls-54" x="277.9834" y="0">r</tspan><tspan class="cls-12" x="299.7871" y="0">e</tspan><tspan class="cls-20" x="331.0527" y="0">gi</tspan><tspan class="cls-65" x="380.832" y="0">s</tspan><tspan class="cls-20" x="406.8086" y="0">t</tspan><tspan class="cls-54" x="429.082" y="0">r</tspan><tspan class="cls-57" x="450.8857" y="0">o</tspan><tspan class="cls-53" x="483.8564" y="0">s </tspan><tspan class="cls-62" x="526.6992" y="0">d</tspan><tspan class="cls-20" x="560.6104" y="0">e</tspan><tspan x="592.0527" y="0">l </tspan></text>
    <text class="cls-60" transform="translate(1986.5548 639.384)"><tspan class="cls-20" x="0" y="0">ban</tspan><tspan class="cls-64" x="99.2041" y="0">c</tspan><tspan class="cls-53" x="127.1797" y="0">o </tspan><tspan class="cls-62" x="177.6621" y="0">e</tspan><tspan class="cls-20" x="209.0459" y="0">mi</tspan><tspan class="cls-57" x="276.5146" y="0">s</tspan><tspan class="cls-53" x="301.8457" y="0">o</tspan><tspan class="cls-62" x="335.5205" y="0">r</tspan><tspan class="cls-20" x="357.9121" y="0"> </tspan><tspan class="cls-65" x="374.7197" y="0">y</tspan><tspan class="cls-22" x="404.9863" y="0"> </tspan><tspan class="cls-62" x="421.7949" y="0">l</tspan><tspan class="cls-59" x="436.3701" y="0">o</tspan><tspan class="cls-65" x="469.3398" y="0">s</tspan><tspan class="cls-20" x="495.3164" y="0"> </tspan><tspan class="cls-62" x="512.124" y="0">d</tspan><tspan class="cls-53" x="546.0352" y="0">a</tspan><tspan class="cls-9" x="576.8896" y="0">t</tspan><tspan class="cls-59" x="598.2236" y="0">o</tspan><tspan class="cls-70" x="631.1934" y="0">s </tspan></text>
    <text class="cls-60" transform="translate(1986.5548 714.964)"><tspan class="cls-74" x="0" y="0">K</tspan><tspan class="cls-71" x="35.6152" y="0">Y</tspan><tspan class="cls-20" x="66.5879" y="0">C </tspan><tspan class="cls-65" x="119.3047" y="0">d</tspan><tspan class="cls-20" x="153.2148" y="0">e</tspan><tspan class="cls-62" x="184.6572" y="0">l</tspan><tspan class="cls-20" x="199.2324" y="0"> </tspan><tspan class="cls-62" x="216.04" y="0">c</tspan><tspan class="cls-22" x="244.5439" y="0">li</tspan><tspan class="cls-65" x="275.3408" y="0">e</tspan><tspan class="cls-20" x="306.7236" y="0">n</tspan><tspan class="cls-24" x="341.1631" y="0">t</tspan><tspan class="cls-13" x="362.4961" y="0">e</tspan><tspan class="cls-70" x="393.4688" y="0">.</tspan></text>
    <g class="cls-32">
      <path class="cls-8" d="M164.0483,351.7882H59.9392c-11.1279,0-20.1502,9.0222-20.1502,20.1502v205.6996"/>
      <path class="cls-8" d="M916.6725,351.7882h87.806c11.1278,0,20.1502,9.0222,20.1502,20.1502v205.6996"/>
    </g>
    <text class="cls-60" transform="translate(1363.8487 646.9064)"><tspan class="cls-65" x="0" y="0">y</tspan><tspan class="cls-22" x="30.2666" y="0"> </tspan><tspan class="cls-65" x="47.0752" y="0">u</tspan><tspan class="cls-20" x="79.6338" y="0">n </tspan><tspan class="cls-64" x="130.8809" y="0">c</tspan><tspan class="cls-10" x="158.8564" y="0">ó</tspan><tspan class="cls-65" x="192.0615" y="0">d</tspan><tspan class="cls-14" x="225.9717" y="0">i</tspan><tspan class="cls-65" x="242.0166" y="0">g</tspan><tspan x="275.5742" y="0">o </tspan></text>
    <text class="cls-60" transform="translate(1363.8487 722.4855)"><tspan class="cls-10" x="0" y="0">p</tspan><tspan class="cls-57" x="33.499" y="0">o</tspan><tspan class="cls-65" x="66.4697" y="0">s</tspan><tspan class="cls-20" x="92.4463" y="0">ta</tspan><tspan class="cls-64" x="145.5742" y="0">l</tspan></text>
    <g class="cls-31">
      <g class="cls-67">
        <g class="cls-29">
          <rect class="cls-1" x="1319.3486" y="287.9794" width="381.1487" height="132.6552" rx="30.2252" ry="30.2252"/>
        </g>
      </g>
    </g>
    <text class="cls-17" transform="translate(1368.8859 373.9391)"><tspan class="cls-73" x="0" y="0">9</tspan><tspan class="cls-19" x="37.5459" y="0">4</tspan><tspan class="cls-21" x="77.6445" y="0">1</tspan><tspan class="cls-63" x="109.2803" y="0">1</tspan><tspan x="140.8486" y="0">1</tspan></text>
    <line class="cls-6" x1="1368.8845" y1="395.4469" x2="1368.8845" y2="577.638"/>
    <g class="cls-30">
      <path class="cls-7" d="M1451.0258,189.0648c0,19.4197-15.8447,35.1603-35.387,35.1603s-35.3887-15.7406-35.3887-35.1603,15.8447-35.1603,35.3887-35.1603,35.387,15.7423,35.387,35.1603ZM1431.994,293.2109c-4.3844,4.0787-10.2447,6.359-16.3452,6.359s-11.9591-2.2803-16.3452-6.359c-40.1542-37.5818-93.9652-79.5646-67.723-140.5155,14.1891-32.9556,48.2496-54.0444,84.0682-54.0444s69.8808,21.0888,84.0682,54.0444c26.2103,60.8753-27.4697,103.0631-67.723,140.5155Z"/>
      <path class="cls-3" d="M2094.952,269.5234c-8.0735-8.0836-16.1521-16.1604-24.2307-24.239-3.4121-3.4104-8.0163-3.4658-11.4603-.0789-3.4893,3.4339-6.9567,6.8897-10.3807,10.3891-3.4237,3.4961-3.434,7.9862.0437,11.4755,13.7475,13.7945,27.5167,27.5688,41.3162,41.3146,3.5146,3.5011,8.1054,3.5464,11.61.0487,26.3462-26.296,52.6675-52.6188,78.9651-78.9651,3.0158-3.0192,3.2626-7.3581.3761-10.5234-3.6304-3.983-7.4557-7.8132-11.4437-11.4385-3.5363-3.2173-7.5848-2.9184-10.9247.4164-15.2705,15.252-30.5257,30.5174-45.7845,45.7795-5.6184,5.6186-11.2303,11.2455-17.0505,17.0722-.4315-.5239-.7035-.9168-1.036-1.251"/>
      <path class="cls-3" d="M2235.8087,334.2712h-10.0718c-1.392,0-2.5169,1.1267-2.5169,2.5188v22.1937c0,5.459-4.6145,10.07-10.0702,10.07h-22.6136c-1.3902,0-2.5169,1.1268-2.5169,2.5188v10.0701c0,1.3904,1.1268,2.5188,2.5169,2.5188h22.6136c13.8465,0,25.176-11.3294,25.176-25.1776v-22.1937c0-1.3921-1.1268-2.5188-2.5171-2.5188"/>
      <path class="cls-3" d="M2034.7451,132.3879h-23.0131c-13.8483,0-25.1777,11.3294-25.1777,25.1776v23.428c0,1.392,1.1249,2.5188,2.5171,2.5188h10.0716c1.3887,0,2.5171-1.1268,2.5171-2.5188v-23.428c0-5.4573,4.611-10.07,10.0718-10.07h23.0131c1.3904,0,2.5188-1.1284,2.5188-2.5171v-10.0717c0-1.3904-1.1284-2.5188-2.5188-2.5188"/>
      <path class="cls-3" d="M2213.1492,132.3879h-22.6117c-1.3904,0-2.5171,1.1284-2.5171,2.5188v10.0717c0,1.3887,1.1268,2.5171,2.5171,2.5171h22.6117c5.4573,0,10.07,4.6127,10.07,10.07v23.428c0,1.392,1.1251,2.5188,2.5188,2.5188h10.0702c1.392,0,2.5171-1.1268,2.5171-2.5188v-23.428c0-13.8482-11.3295-25.1776-25.176-25.1776"/>
      <path class="cls-3" d="M2034.7451,369.054h-23.0131c-5.4608,0-10.0718-4.6127-10.0718-10.0701v-22.1954c0-1.3921-1.1284-2.5171-2.5171-2.5171h-10.0716c-1.3922,0-2.5171,1.125-2.5171,2.5171v22.1954c0,13.8465,11.3293,25.176,25.1777,25.176h23.0131c1.3904,0,2.5188-1.1284,2.5188-2.5171v-10.07c0-1.3921-1.1284-2.5188-2.5188-2.5188"/>
      <path class="cls-4" d="M927.5522,1.6978v1.6976c8.903,0,16.9883,3.6254,22.8654,9.4773,5.8737,5.8553,9.5109,13.912,9.5125,22.7814v470.55c0,8.8711-3.6388,16.9262-9.5125,22.7815-5.8771,5.8519-13.9624,9.4773-22.8654,9.4773H149.4587c-8.903,0-16.9882-3.6237-22.8654-9.4756-5.8738-5.8569-9.5109-13.912-9.5126-22.7831V35.6542c0-8.8694,3.6388-16.9261,9.5126-22.7814,5.8754-5.8519,13.9624-9.4756,22.8654-9.4773h778.0935V.0002H149.4587c-19.6934.0067-35.7799,16.0328-35.785,35.654v470.55c.0067,19.6212,16.0915,35.649,35.785,35.6557h778.0935c19.6935-.0067,35.7783-16.0345,35.7867-35.6557l-.0017-470.55C963.3305,16.033,947.2457.0069,927.5522.0002v1.6976Z"/>
      <path class="cls-4" d="M203.9599,185.7833v-.309c-6.7386.0084-12.211,4.8729-12.211,10.8962v63.6074c0,6.0367,5.4725,10.8962,12.211,10.9096h71.2661c6.7335-.0134,12.2076-4.873,12.2076-10.9096v-63.6074c0-6.0232-5.4741-10.8878-12.2076-10.8962h-71.2661v.6129h71.2661c6.3792,0,11.5259,4.6127,11.541,10.2833v63.6074c-.0135,5.6807-5.1618,10.2917-11.541,10.2917h-71.2661c-6.3842,0-11.536-4.611-11.5444-10.2917v-63.6074c.0084-5.6706,5.1601-10.2833,11.5444-10.2833v-.3039Z"/>
      <path class="cls-4" d="M204.8119,185.7833v-1.1586h-.853c-7.1382.0034-13.0472,5.1769-13.0623,11.7459v63.6074c.0134,6.5807,5.9258,11.7509,13.0623,11.7576h71.2678c7.1332-.0067,13.0439-5.1769,13.059-11.7576v-63.6074c-.0151-6.5689-5.9258-11.7425-13.059-11.7459h-72.1191v2.3123h72.1191c5.9762.005,10.6762,4.3054,10.688,9.4353v63.6057c-.0118,5.1366-4.7118,9.437-10.688,9.4421h-71.2661c-2.9856,0-5.6672-1.0781-7.5949-2.7992-1.9277-1.7228-3.0931-4.0653-3.0981-6.6428v-63.6074c.005-2.5742,1.1704-4.9133,3.0981-6.6361,1.926-1.7195,4.6093-2.7975,7.5949-2.7975h.8514v-1.1536h-1.7044v.3039h.853v-.848c-6.7856-.0067-12.3722,4.9167-12.3974,11.1296v63.609c.0235,6.223,5.6118,11.1464,12.3974,11.1414h71.2661c6.7805.005,12.3621-4.9183,12.3924-11.138v-63.6107c-.0302-6.2146-5.6118-11.138-12.3924-11.1313h-71.2661v.848h.8514v-.6129h-.8514v.8496h71.2661c3.1585.0034,6.0098,1.1486,8.0601,2.9755,2.0503,1.832,3.2945,4.3205,3.2945,7.071v63.6074c0,2.7572-1.2443,5.2491-3.2945,7.0811-2.0503,1.8286-4.9015,2.9738-8.0618,2.9788h-71.2644c-3.1619-.005-6.0148-1.1502-8.0651-2.9788-2.0503-1.832-3.2946-4.3239-3.2962-7.0811v-63.6074c.0017-2.7505,1.2443-5.239,3.2962-7.071,2.0503-1.8269,4.9032-2.9721,8.0651-2.9755v-.8496h-.853v.309h1.7044Z"/>
    </g>
    <polygon class="cls-4" points="286.6456 247.7484 256.3549 247.7484 250.2427 236.9379 226.3883 236.9379 226.3883 237.7103 249.7339 237.7103 255.8461 248.5158 286.6456 248.5158 286.6456 247.7484"/>
    <polygon class="cls-4" points="286.6456 246.8996 256.8536 246.8996 250.7397 236.089 225.5352 236.089 225.5352 237.7111 225.5352 238.5591 249.2352 238.5591 255.3491 249.3646 287.497 249.3646 287.497 247.7493 285.7943 247.7493 285.7943 248.5167 286.6456 248.5167 286.6456 247.667 256.3448 247.667 250.2309 236.8615 226.3883 236.8615 226.3883 237.7111 227.2396 237.7111 227.2396 236.9387 226.3883 236.9387 226.3883 237.7867 249.744 237.7867 255.8578 248.5972 286.6456 248.5972 286.6456 246.8996"/>
    <polygon class="cls-4" points="250.779 237.1657 250.779 215.0392 226.849 215.0392 215.8504 205.2194 193.1059 205.2194 193.1059 205.9884 215.5095 205.9884 226.5081 215.8066 249.9428 215.8066 249.9428 237.1657 250.779 237.1657"/>
    <polygon class="cls-4" points="251.631 237.1657 251.631 214.1912 227.1754 214.1912 216.1768 204.3714 192.2535 204.3714 192.2535 205.9884 192.2535 206.8364 215.1827 206.8364 226.1814 216.6563 249.0921 216.6563 249.0921 238.0154 250.7797 238.0154 250.7797 236.3161 249.9434 236.3161 249.9434 237.1657 250.7948 237.1657 250.7948 214.9586 226.8346 214.9586 215.8359 205.1387 193.1066 205.1387 193.1066 205.9884 193.9579 205.9884 193.9579 205.2194 193.1066 205.2194 193.1066 206.069 215.5236 206.069 226.5222 215.8889 249.9267 215.8889 249.9267 237.1657 251.631 237.1657"/>
    <polygon class="cls-4" points="226.2564 215.4336 226.2564 236.8516 214.2772 247.5631 193.1111 247.5647 193.1111 248.3321 214.618 248.3321 227.091 237.1773 227.091 215.4336 226.2564 215.4336"/>
    <polygon class="cls-4" points="225.4042 215.4336 225.4042 236.472 213.9505 246.7151 192.2589 246.7151 192.2589 248.3321 192.2589 249.1801 214.9446 249.1801 227.9431 237.5568 227.9431 214.5839 226.2556 214.5839 226.2556 216.2833 227.0918 216.2833 227.0918 215.4336 226.2388 215.4336 226.2388 236.7995 214.2914 247.4824 193.1102 247.4824 193.1102 248.3321 193.9633 248.3321 193.9633 247.5647 193.1102 247.5647 193.1102 248.4127 214.6037 248.4127 227.1086 237.231 227.1086 215.4336 225.4042 215.4336"/>
    <rect class="cls-4" x="192.8303" y="228.2946" width="33.8405" height=".7674"/>
    <polygon class="cls-4" points="226.6718 229.0621 227.5232 229.0621 227.5232 228.2948 227.5232 227.4451 191.9783 227.4451 191.9783 229.0621 191.9783 229.9118 227.5232 229.9118 227.5232 229.0621 226.6718 229.0621 226.6718 228.2125 192.8313 228.2125 192.8313 229.0621 193.6827 229.0621 193.6827 228.2948 192.8313 228.2948 192.8313 229.1427 226.6718 229.1427 226.6718 228.2948 225.8205 228.2948 225.8205 229.0621 226.6718 229.0621 226.6718 228.2125 226.6718 229.0621"/>
    <rect class="cls-4" x="250.3674" y="227.3123" width="35.9832" height=".7724"/>
    <polygon class="cls-4" points="286.3514 228.084 287.2028 228.084 287.2028 227.3116 287.2028 226.4636 249.5169 226.4636 249.5169 228.084 249.5169 228.9337 287.2028 228.9337 287.2028 228.084 286.3514 228.084 286.3514 227.2344 250.3683 227.2344 250.3683 228.084 251.2196 228.084 251.2196 227.3116 250.3683 227.3116 250.3683 228.1613 286.3514 228.1613 286.3514 227.3116 285.5001 227.3116 285.5001 228.084 286.3514 228.084 286.3514 227.2344 286.3514 228.084"/>
    <polygon class="cls-4" points="250.6484 215.7127 260.8259 206.9876 287.1689 206.9876 287.1689 206.2152 260.4951 206.2152 250.0741 215.1502 250.6484 215.7127"/>
    <polygon class="cls-4" points="251.204 216.356 261.1414 207.8358 288.02 207.8358 288.02 206.2154 288.02 205.3657 260.1775 205.3657 248.8162 215.11 250.0504 216.3173 251.246 215.1067 250.6717 214.5458 250.0739 215.1503 250.6297 215.7935 260.8106 207.0634 287.1687 207.0634 287.1687 206.2154 286.3157 206.2154 286.3157 206.9862 287.1687 206.9862 287.1687 206.1382 260.51 206.1382 250.0924 215.068 251.204 216.356"/>
    <rect class="cls-4" x="235.2968" y="186.8223" width=".8396" height="25.8358"/>
    <polygon class="cls-4" points="236.1356 212.6581 236.9869 212.6581 236.9869 185.9726 235.296 185.9726 234.4429 185.9726 234.4429 213.5078 236.1356 213.5078 236.9869 213.5078 236.9869 212.6581 236.1356 212.6581 236.1356 211.8084 235.296 211.8084 235.296 212.6581 236.1473 212.6581 236.1473 186.8206 235.296 186.8206 235.296 187.6702 236.1356 187.6702 236.1356 186.8206 235.2842 186.8206 235.2842 212.6581 236.1356 212.6581 236.1356 211.8084 236.1356 212.6581"/>
    <rect class="cls-4" x="235.2968" y="237.1657" width=".8396" height="32.3561"/>
    <polygon class="cls-4" points="236.1356 269.5225 236.9869 269.5225 236.9869 236.3167 235.296 236.3167 234.4429 236.3167 234.4429 270.3722 236.1356 270.3722 236.9869 270.3722 236.9869 269.5225 236.1356 269.5225 236.1356 268.6728 235.296 268.6728 235.296 269.5225 236.1473 269.5225 236.1473 237.1647 235.296 237.1647 235.296 238.0144 236.1356 238.0144 236.1356 237.1647 235.2842 237.1647 235.2842 269.5225 236.1356 269.5225 236.1356 268.6728 236.1356 269.5225"/>
    <g class="cls-33">
      <g class="cls-68">
        <g class="cls-46">
          <polygon class="cls-4" points="200.7502 412.0708 191.7481 412.0708 191.7481 428.6225 201.128 428.6225 201.128 426.8258 193.921 426.8258 193.921 420.8613 200.3572 420.8613 200.3572 419.0881 193.921 419.0881 193.921 413.8608 200.7502 413.8608 200.7502 412.0708"/>
        </g>
      </g>
      <g class="cls-68">
        <g class="cls-51">
          <path class="cls-4" d="M215.3773,412.0733h-2.4936l-2.2283,3.8722c-.6247,1.0528-1.0428,1.8135-1.5096,2.7942h-.0739c-.4517-.8748-.9185-1.7077-1.5331-2.7942l-2.1897-3.8722h-2.4919l4.878,8.1692-5.0846,8.3824h2.4768l1.9848-3.6371c.853-1.4525,1.3282-2.3273,1.8118-3.2979h.0504c.5071.9705,1.0327,1.8689,1.8941,3.2744l2.1477,3.6606h2.4919l-5.1904-8.4983,5.0594-8.0534Z"/>
        </g>
      </g>
      <g class="cls-68">
        <g class="cls-45">
          <path class="cls-4" d="M222.1173,411.9395c-1.7296,0-3.0729.1545-4.1157.3174v16.3636h2.1493v-6.6328c.5004.1293,1.0898.1461,1.7296.1461,2.0973,0,3.9192-.6028,5.0745-1.8135.8362-.8564,1.2812-2.0419,1.2812-3.528,0-1.4878-.5592-2.6968-1.4525-3.4809-.984-.8816-2.5339-1.3719-4.6665-1.3719M221.9292,420.411c-.7204,0-1.3114-.042-1.7783-.1713v-6.4296c.3678-.0991,1.0898-.173,2.0167-.173,2.3542,0,3.9276,1.0629,3.9276,3.2693,0,2.23-1.5734,3.5045-4.1661,3.5045"/>
        </g>
      </g>
      <g class="cls-68">
        <g class="cls-44">
          <path class="cls-4" d="M232.0279,425.8112c-.8782,0-1.4844.6549-1.4844,1.5448,0,.8732.5911,1.5432,1.4273,1.5432.9101,0,1.5012-.67,1.5012-1.5432,0-.9152-.5911-1.5448-1.4441-1.5448"/>
        </g>
      </g>
      <g class="cls-68">
        <g class="cls-43">
          <path class="cls-4" d="M196.3378,436.5198c-1.6977,0-3.2542.1562-4.5674.3761v16.2578c1.0898.131,2.3458.1948,3.9024.1948,3.2223,0,5.7898-.8245,7.3716-2.3693,1.5331-1.5264,2.3861-3.7328,2.3861-6.4363,0-2.6951-.853-4.5993-2.3626-5.9544-1.4491-1.3249-3.6472-2.0687-6.7302-2.0687M196.0994,451.6425c-.853,0-1.6389-.0319-2.1796-.0974v-13.106c.5558-.1125,1.4088-.22,2.5154-.22,4.5355,0,6.757,2.4768,6.7318,6.3977,0,4.4599-2.4667,7.0257-7.0677,7.0257"/>
        </g>
      </g>
      <g class="cls-68">
        <g class="cls-47">
          <path class="cls-4" d="M215.1831,436.6535h-2.5591l-5.6656,16.5517h2.2148l1.7212-5.2021h5.904l1.7699,5.2021h2.2887l-5.6739-16.5517ZM211.3445,446.3273l1.6238-4.7873c.3442-1.0042.5911-2.0419.8446-2.9973h.042c.2536.9555.4987,1.9428.8681,3.0225l1.6473,4.7622h-5.0258Z"/>
        </g>
      </g>
      <g class="cls-68">
        <g class="cls-49">
          <polygon class="cls-4" points="233.7242 436.654 221.4175 436.654 221.4175 438.4692 226.4685 438.4692 226.4685 453.2057 228.6414 453.2057 228.6414 438.4692 233.7242 438.4692 233.7242 436.654"/>
        </g>
      </g>
      <g class="cls-68">
        <g class="cls-48">
          <polygon class="cls-4" points="244.5492 436.6599 235.5471 436.6599 235.5471 453.2032 244.9271 453.2032 244.9271 451.4148 237.72 451.4148 237.72 445.442 244.1563 445.442 244.1563 443.6772 237.72 443.6772 237.72 438.4482 244.5492 438.4482 244.5492 436.6599"/>
        </g>
      </g>
      <g class="cls-68">
        <g class="cls-52">
          <path class="cls-4" d="M469.1814,328.2092h-15.425c-2.8849,0-5.2424,2.3559-5.2424,5.2306v30.2118c0,2.9268,2.2535,5.2306,5.2424,5.2306h15.425c2.9889,0,5.2508-2.3038,5.2508-5.2306v-30.2118c0-2.8748-2.3643-5.2306-5.2508-5.2306M453.7565,333.4398h15.425v30.2118h-15.425v-30.2118Z"/>
        </g>
      </g>
      <g class="cls-68">
        <g class="cls-50">
          <path class="cls-4" d="M506.9788,328.2095h-18.0495c-1.3652,0-2.6262.7355-2.6262,2.6145,0,1.884,1.261,2.6161,2.6262,2.6161h18.0495v8.678c0,2.9251-1.1586,3.8151-2.6245,3.8151h-10.285c-1.3618,0-2.6229.7304-2.6229,2.6162,0,1.8773,1.2611,2.6094,2.6229,2.6094h10.285c1.4659,0,2.6245.8883,2.6245,3.8151v8.6763h-18.0495c-1.3652,0-2.6262.7372-2.6262,2.6162,0,1.8807,1.261,2.6145,2.6262,2.6145h18.0495c2.9889,0,5.2441-2.2468,5.2441-5.2307v-10.0348c0-2.0906-.4198-3.6069-2.0452-5.0661,1.6254-1.466,2.0452-2.9839,2.0452-5.0728v-10.0365c0-2.9822-2.2551-5.2306-5.2441-5.2306"/>
        </g>
      </g>
      <g class="cls-68">
        <g class="cls-34">
          <path class="cls-4" d="M567.2942,328.2092h-3.1468c-1.8354,0-2.2568,1.4155-2.2568,2.6161v34.7624c0,2.4063.9437,3.2946,3.4104,3.2946h19.099c2.3592,0,3.4087-.8379,3.4087-3.2946v-11.7122c0-2.4013-.5205-3.4977-3.1468-3.4977h-17.5223v-16.9379c1.518,0,2.6212-1.0478,2.6212-2.6145,0-1.3584-1.1032-2.6161-2.4667-2.6161M567.1397,355.6016h15.425v8.0483h-15.425v-8.0483Z"/>
        </g>
      </g>
      <g class="cls-68">
        <g class="cls-35">
          <path class="cls-4" d="M620.3563,328.2092h-15.425c-2.8865,0-5.2441,2.3559-5.2441,5.2306v30.2118c0,2.9268,2.2568,5.2306,5.2441,5.2306h15.425c2.9889,0,5.2491-2.3038,5.2491-5.2306v-30.2118c0-2.8748-2.3609-5.2306-5.2491-5.2306M604.9314,333.4398h15.425v30.2118h-15.425v-30.2118Z"/>
        </g>
      </g>
      <g class="cls-68">
        <g class="cls-38">
          <path class="cls-4" d="M658.153,328.2092h-15.425c-2.8865,0-5.2508,2.3559-5.2508,5.2306v30.2118c0,2.9268,2.2569,5.2306,5.2508,5.2306h15.425c2.9889,0,5.2441-2.3038,5.2441-5.2306v-30.2118c0-2.8748-2.3643-5.2306-5.2441-5.2306M642.728,333.4398h15.425v30.2118h-15.425v-30.2118Z"/>
        </g>
      </g>
      <g class="cls-68">
        <g class="cls-37">
          <path class="cls-4" d="M680.519,328.2095c-1.9948,0-2.6245,1.3081-2.6245,2.6145v24.778h15.4249v10.6645c0,1.6758.7372,2.6145,2.6246,2.6145,1.8908,0,2.6245-.9387,2.6245-2.6145v-10.6645c1.3635,0,2.6246-.7304,2.6246-2.6144,0-1.8807-1.2611-2.6112-2.6246-2.6112v-15.1075c0-1.3081-.6297-2.6162-2.6245-2.6162s-2.6246,1.3081-2.6246,2.6162v15.1075h-10.1758v-19.5523c0-1.3064-.6297-2.6145-2.6245-2.6145"/>
        </g>
      </g>
      <path class="cls-3" d="M202.0054,350.3769v-15.1076c0-1.3081.6314-2.6161,2.6246-2.6161,1.9898,0,2.6195,1.3081,2.6195,2.6161v15.1076c1.3635,0,2.6246.7304,2.6246,2.6094,0,1.8841-1.2611,2.6145-2.6246,2.6145v10.6645c0,1.6758-.7321,2.6161-2.6195,2.6161-1.8908,0-2.6246-.9403-2.6246-2.6161v-10.6645h-15.4249v-24.7763c0-1.3081.6314-2.6144,2.6246-2.6144,1.9949,0,2.6195,1.3064,2.6195,2.6144v19.5524h10.1809Z"/>
      <path class="cls-3" d="M226.9959,363.6508h15.425v-8.05h-15.425v8.05ZM226.9959,350.3769h17.5222c2.6246,0,3.1518,1.0982,3.1518,3.4977v11.7123c0,2.4566-1.0512,3.2945-3.4138,3.2945h-19.0957c-2.465,0-3.4087-.8883-3.4087-3.2945v-34.7624c0-1.2006.4215-2.6144,2.2551-2.6144h3.1485c1.3635,0,2.465,1.256,2.465,2.6144,0,1.5684-1.1016,2.6145-2.6246,2.6145v16.9379Z"/>
      <path class="cls-3" d="M280.2175,333.4401h-15.425v30.2118h15.425v-30.2118ZM280.2175,328.2095c2.8815,0,5.2441,2.3559,5.2441,5.2306v30.2118c0,2.9251-2.2551,5.229-5.2441,5.229h-15.425c-2.994,0-5.2491-2.3039-5.2491-5.229v-30.2118c0-2.8747,2.3626-5.2306,5.2491-5.2306h15.425Z"/>
      <path class="cls-3" d="M318.008,363.6513v-10.557c0-1.518.6818-2.6162,2.6246-2.6162,1.9378,0,2.6246,1.0982,2.6246,2.6162v13.1715c0,1.879-1.2611,2.6161-2.6246,2.6161h-20.6741c-1.3635,0-2.6195-.7372-2.6195-2.6161s1.256-2.6145,2.6195-2.6145h7.7141v-30.2118h-7.7141c-1.3635,0-2.6195-.7304-2.6195-2.6145,0-1.8807,1.256-2.6161,2.6195-2.6161h12.9599v35.4424h5.0896Z"/>
      <path class="cls-3" d="M375.5458,333.4398c-1.3635,0-2.6195-.7304-2.6195-2.6145,0-1.8807,1.256-2.6161,2.6195-2.6161h18.0495c2.989,0,5.2491,2.2484,5.2491,5.2306v10.0364c0,2.0889-.4198,3.6069-2.0503,5.0712,1.6305,1.4609,2.0503,2.9788,2.0503,5.0678v10.0364c0,2.9822-2.2602,5.2306-5.2491,5.2306h-18.0495c-1.3635,0-2.6195-.7372-2.6195-2.6161s1.256-2.6145,2.6195-2.6145h18.0495v-8.678c0-2.9268-1.1536-3.8151-2.6245-3.8151h-10.2833c-1.3635,0-2.6195-.7304-2.6195-2.6111,0-1.8841,1.256-2.6145,2.6195-2.6145h10.2833c1.4709,0,2.6245-.8883,2.6245-3.8151v-8.678h-18.0495Z"/>
      <path class="cls-3" d="M426.1421,333.4401h-4.9317v12.4931h4.9317v-12.4931ZM431.3913,351.1572h-15.4249v12.4931h15.4249v-12.4931ZM428.7667,328.2095c1.7833,0,2.6245,1.256,2.6245,2.6162v15.1075c1.6255,0,2.8815.5726,3.8302,1.4609.942.8883,1.4139,2.1964,1.4139,3.8202v12.4377c0,3.1921-1.9932,5.229-5.2441,5.229h-15.4249c-3.2559,0-5.2491-2.0369-5.2491-5.229v-12.4377c0-1.6238.4718-2.9319,1.4206-3.8202.942-.8883,2.1981-1.4609,3.8285-1.4609v-15.1075c0-1.3602.8362-2.6162,2.6195-2.6162h10.1809Z"/>
      <path class="cls-3" d="M771.5305,333.4407h-15.425v8.1524h15.425v-8.1524ZM771.5305,346.8221h-18.0495c-1.466,0-2.6195-1.256-2.6195-2.6162v-13.3814c0-1.3584,1.1536-2.6145,2.6195-2.6145h20.674c1.466,0,2.6246,1.2561,2.6246,2.6145v35.4424c0,1.4089-1.0512,2.6145-2.6246,2.6145h-2.6245c-1.5734,0-2.6245-1.2056-2.6245-2.6145,0-1.5683,1.1015-2.6161,2.6245-2.6161v-16.8287Z"/>
      <path class="cls-3" d="M804.0775,333.4401h-4.9318v12.4931h4.9318v-12.4931ZM809.3265,351.1572h-15.4249v12.4931h15.4249v-12.4931ZM806.702,328.2095c1.7833,0,2.6245,1.256,2.6245,2.6162v15.1075c1.6255,0,2.8815.5726,3.8302,1.4609.942.8883,1.4139,2.1964,1.4139,3.8202v12.4377c0,3.1921-1.9932,5.229-5.2441,5.229h-15.4249c-3.256,0-5.2491-2.0369-5.2491-5.229v-12.4377c0-1.6238.4719-2.9319,1.4206-3.8202.942-.8883,2.198-1.4609,3.8285-1.4609v-15.1075c0-1.3602.8362-2.6162,2.6195-2.6162h10.1808Z"/>
      <path class="cls-3" d="M831.6926,363.6508h15.425v-8.05h-15.425v8.05ZM831.6926,350.3769h17.5222c2.6245,0,3.1518,1.0982,3.1518,3.4977v11.7123c0,2.4566-1.0512,3.2945-3.4138,3.2945h-19.0956c-2.4651,0-3.4087-.8883-3.4087-3.2945v-34.7624c0-1.2006.4214-2.6144,2.2551-2.6144h3.1485c1.3635,0,2.465,1.256,2.465,2.6144,0,1.5684-1.1015,2.6145-2.6245,2.6145v16.9379Z"/>
      <path class="cls-3" d="M884.914,363.6513v-10.557c0-1.518.6818-2.6162,2.6195-2.6162,1.9428,0,2.6245,1.0982,2.6245,2.6162v13.1715c0,1.879-1.261,2.6161-2.6245,2.6161h-20.6691c-1.3634,0-2.6245-.7372-2.6245-2.6161s1.2611-2.6145,2.6245-2.6145h7.7091v-30.2118h-7.7091c-1.3634,0-2.6245-.7304-2.6245-2.6145,0-1.8807,1.2611-2.6161,2.6245-2.6161h12.9583v35.4424h5.0912Z"/>
      <g class="cls-68">
        <g class="cls-36">
          <path class="cls-4" d="M312.0118,418.6095h-10.9718c-2.0553,0-3.7311,1.6758-3.7311,3.7194v21.4918c0,2.0805,1.6036,3.7144,3.7311,3.7144h10.9718c2.1225,0,3.7311-1.6339,3.7311-3.7144v-21.4918c0-2.0436-1.6808-3.7194-3.7311-3.7194M301.0401,422.3289h10.9701v21.4918h-10.9701v-21.4918Z"/>
        </g>
      </g>
      <g class="cls-68">
        <g class="cls-39">
          <path class="cls-4" d="M340.756,418.6095h-14.7029c-1.0444,0-1.8639.895-1.8639,1.8622v9.5176c0,.9672.8195,1.8572,1.8639,1.8572h12.839v11.9742c-1.0848,0-1.8689.7405-1.8689,1.8588,0,1.0025.7472,1.8555,1.8689,1.8555h1.8639c1.12,0,1.8673-.853,1.8673-1.8555v-25.2078c0-.9672-.8228-1.8622-1.8673-1.8622M327.9221,422.3289h10.9701v5.7982h-10.9701v-5.7982Z"/>
        </g>
      </g>
      <g class="cls-68">
        <g class="cls-42">
          <path class="cls-4" d="M367.6724,418.6099c-.9303,0-1.3803.6717-1.8269,1.4172l-13.9557,23.8309c-.3728.5944-.8194,1.2241-.8194,1.9294,0,.9672.9336,1.748,1.8639,1.748.9336,0,1.3803-.5172,1.827-1.298l14.3284-24.427c.2284-.4114.4148-.8581.4148-1.4525,0-.9672-.8614-1.748-1.832-1.748"/>
        </g>
      </g>
      <g class="cls-68">
        <g class="cls-40">
          <path class="cls-4" d="M392.2058,418.6099h-12.3907c-.9723,0-1.8656.5222-1.8656,1.8622,0,1.3383.8933,1.8572,1.8656,1.8572h12.839v8.8862h-10.4882c-2.7992,0-4.2164,1.4122-4.2164,4.1996v12.1203h16.5685c.9706,0,1.8672-.5172,1.8672-1.8572s-.8967-1.8572-1.8672-1.8572h-12.8356v-8.8862h10.5234c1.2308,0,2.0872-.1864,3.0208-1.0444,1.0445-.9622,1.1586-1.9663,1.1586-3.3063v-7.6235c0-1.3366-.1142-2.3391-1.1586-3.3063-.9336-.8581-1.79-1.0444-3.0208-1.0444"/>
        </g>
      </g>
      <g class="cls-68">
        <g class="cls-41">
          <path class="cls-4" d="M408.5635,418.6099c-1.4172,0-1.8672.9303-1.8672,1.8622v17.623h10.9684v7.5832c0,1.1889.5256,1.8572,1.8689,1.8572,1.345,0,1.8656-.6683,1.8656-1.8572v-7.5832c.9689,0,1.8672-.5222,1.8672-1.8605,0-1.3366-.8984-1.8589-1.8672-1.8589v-10.7434c0-.9303-.4466-1.8605-1.8656-1.8605-1.4172,0-1.8689.9303-1.8689,1.8605v10.7434h-7.2373v-13.9036c0-.9319-.4467-1.8622-1.8639-1.8622"/>
        </g>
      </g>
    </g>
  </g>
</svg>