<?xml version="1.0" encoding="UTF-8"?>
<svg id="Layer_3" data-name="Layer 3" xmlns="http://www.w3.org/2000/svg" xmlns:xlink="http://www.w3.org/1999/xlink" viewBox="0 0 2794.4582 607.1744">
  <defs>
    <style>
      .cls-1 {
        stroke-width: 2px;
      }

      .cls-1, .cls-2, .cls-3, .cls-4, .cls-5, .cls-6, .cls-7, .cls-8, .cls-9, .cls-10 {
        fill: none;
      }

      .cls-1, .cls-2, .cls-4, .cls-7, .cls-8, .cls-9, .cls-10 {
        stroke: #96d9fa;
      }

      .cls-1, .cls-2, .cls-4, .cls-8, .cls-9 {
        stroke-linecap: round;
      }

      .cls-1, .cls-2, .cls-8 {
        stroke-linejoin: round;
      }

      .cls-2, .cls-6, .cls-9 {
        stroke-width: 4px;
      }

      .cls-11 {
        letter-spacing: -.02em;
      }

      .cls-12 {
        letter-spacing: -.003em;
      }

      .cls-13 {
        clip-path: url(#clippath);
      }

      .cls-3, .cls-14 {
        stroke-width: 0px;
      }

      .cls-15 {
        letter-spacing: .011em;
      }

      .cls-16 {
        letter-spacing: .004em;
      }

      .cls-17 {
        letter-spacing: .002em;
      }

      .cls-18 {
        letter-spacing: -.03em;
      }

      .cls-19 {
        letter-spacing: 0em;
      }

      .cls-20 {
        letter-spacing: .01em;
      }

      .cls-4, .cls-7, .cls-8, .cls-10 {
        stroke-width: 3px;
      }

      .cls-5 {
        stroke-width: 9px;
      }

      .cls-5, .cls-6 {
        stroke: #212e5c;
      }

      .cls-21 {
        letter-spacing: -.006em;
      }

      .cls-22 {
        letter-spacing: -.006em;
      }

      .cls-23 {
        fill: #fff;
        font-family: MonsalGothic-Regular, 'Monsal Gothic';
        font-size: 57.2022px;
      }

      .cls-24 {
        clip-path: url(#clippath-4);
      }

      .cls-25 {
        clip-path: url(#clippath-3);
      }

      .cls-26 {
        clip-path: url(#clippath-2);
      }

      .cls-27 {
        clip-path: url(#clippath-7);
      }

      .cls-28 {
        clip-path: url(#clippath-8);
      }

      .cls-29 {
        clip-path: url(#clippath-6);
      }

      .cls-30 {
        clip-path: url(#clippath-5);
      }

      .cls-31 {
        clip-path: url(#clippath-9);
      }

      .cls-32 {
        fill: #99d6f5;
        font-family: MonsalGothic-ExtraBold, 'Monsal Gothic';
        font-size: 127.116px;
        font-weight: 700;
      }

      .cls-33 {
        clip-path: url(#clippath-10);
      }

      .cls-34 {
        letter-spacing: .01em;
      }

      .cls-35 {
        letter-spacing: -.001em;
      }

      .cls-36 {
        letter-spacing: -.001em;
      }

      .cls-37 {
        letter-spacing: .01em;
      }

      .cls-38 {
        letter-spacing: -.002em;
      }

      .cls-39 {
        letter-spacing: -.002em;
      }

      .cls-40 {
        letter-spacing: -.029em;
      }

      .cls-41 {
        letter-spacing: .009em;
      }

      .cls-42 {
        letter-spacing: .009em;
      }

      .cls-43 {
        letter-spacing: 0em;
      }

      .cls-44 {
        letter-spacing: .009em;
      }

      .cls-45 {
        opacity: .5;
      }

      .cls-14 {
        fill: #96d9fa;
      }

      .cls-46 {
        letter-spacing: .001em;
      }

      .cls-47 {
        letter-spacing: .001em;
      }

      .cls-48 {
        letter-spacing: -.032em;
      }

      .cls-10 {
        stroke-miterlimit: 10;
      }

      .cls-49 {
        letter-spacing: -.005em;
      }
    </style>
    <clipPath id="clippath">
      <rect class="cls-3" width="2794.4551" height="607.1744"/>
    </clipPath>
    <clipPath id="clippath-2">
      <rect class="cls-3" width="2794.4582" height="607.1744"/>
    </clipPath>
    <clipPath id="clippath-3">
      <rect class="cls-3" x="338.5513" y="25.3691" width="301.6447" height="219.1798"/>
    </clipPath>
    <clipPath id="clippath-4">
      <rect class="cls-3" x="985.254" y="25.3691" width="301.6448" height="219.1798"/>
    </clipPath>
    <clipPath id="clippath-5">
      <rect class="cls-3" x="1591.858" y="25.3691" width="301.6464" height="219.1798"/>
    </clipPath>
    <clipPath id="clippath-6">
      <rect class="cls-3" width="2794.4582" height="607.1744"/>
    </clipPath>
    <clipPath id="clippath-7">
      <rect class="cls-3" width="2794.4582" height="607.1744"/>
    </clipPath>
    <clipPath id="clippath-8">
      <rect class="cls-3" width="2794.4582" height="607.1744"/>
    </clipPath>
    <clipPath id="clippath-9">
      <rect class="cls-3" width="2794.4582" height="607.1744"/>
    </clipPath>
    <clipPath id="clippath-10">
      <rect class="cls-3" width="2794.4582" height="607.1744"/>
    </clipPath>
  </defs>
  <g class="cls-13">
    <text class="cls-23" transform="translate(23.4963 379.955)"><tspan class="cls-18" x="0" y="0">V</tspan><tspan class="cls-37" x="31.2896" y="0">e</tspan><tspan class="cls-42" x="61.8921" y="0">r</tspan><tspan class="cls-37" x="83.686" y="0">ifi</tspan><tspan class="cls-17" x="134.3096" y="0">c</tspan><tspan class="cls-20" x="161.6519" y="0">ación d</tspan><tspan class="cls-43" x="350.9312" y="0">e </tspan></text>
    <text class="cls-23" transform="translate(23.4963 448.2548)"><tspan class="cls-20" x="0" y="0">nomb</tspan><tspan class="cls-38" x="149.2378" y="0">r</tspan><tspan x="170.4023" y="0">e</tspan></text>
    <text class="cls-23" transform="translate(642.3669 379.955)"><tspan class="cls-40" x="0" y="0">V</tspan><tspan class="cls-44" x="31.3467" y="0">er</tspan><tspan class="cls-37" x="83.686" y="0">if</tspan><tspan class="cls-44" x="118.5791" y="0">i</tspan><tspan class="cls-46" x="134.2524" y="0">c</tspan><tspan class="cls-20" x="161.5376" y="0">a</tspan><tspan class="cls-44" x="191.5688" y="0">ci</tspan><tspan class="cls-20" x="234.9849" y="0">ón </tspan><tspan class="cls-42" x="317.6401" y="0">d</tspan><tspan x="350.6455" y="0">e </tspan></text>
    <text class="cls-23" transform="translate(642.3669 448.2548)"><tspan class="cls-20" x="0" y="0">d</tspan><tspan class="cls-44" x="33.0625" y="0">i</tspan><tspan class="cls-35" x="48.7358" y="0">r</tspan><tspan class="cls-46" x="69.9575" y="0">e</tspan><tspan x="100.0454" y="0">c</tspan><tspan class="cls-42" x="127.2734" y="0">c</tspan><tspan class="cls-37" x="155.0166" y="0">ió</tspan><tspan x="203.5234" y="0">n</tspan></text>
    <text class="cls-23" transform="translate(1256.9475 379.955)"><tspan class="cls-18" x="0" y="0">V</tspan><tspan class="cls-44" x="31.2896" y="0">e</tspan><tspan class="cls-20" x="61.835" y="0">r</tspan><tspan class="cls-44" x="83.686" y="0">if</tspan><tspan class="cls-20" x="118.4644" y="0">i</tspan><tspan class="cls-47" x="134.1948" y="0">c</tspan><tspan class="cls-44" x="161.481" y="0">a</tspan><tspan class="cls-34" x="191.4546" y="0">c</tspan><tspan class="cls-41" x="219.2544" y="0">i</tspan><tspan class="cls-34" x="234.9282" y="0">ón d</tspan><tspan x="350.645" y="0">e </tspan></text>
    <text class="cls-23" transform="translate(1256.9475 448.2548)"><tspan class="cls-22" x="0" y="0">t</tspan><tspan class="cls-20" x="20.7637" y="0">e</tspan><tspan class="cls-44" x="51.3667" y="0">lé</tspan><tspan class="cls-35" x="96.0981" y="0">f</tspan><tspan class="cls-20" x="114.6313" y="0">on</tspan><tspan x="180.9272" y="0">o</tspan></text>
    <text class="cls-23" transform="translate(1834.9197 379.955)"><tspan class="cls-44" x="0" y="0">Se</tspan><tspan class="cls-20" x="62.1211" y="0">l</tspan><tspan class="cls-17" x="76.3643" y="0">e</tspan><tspan class="cls-19" x="106.5098" y="0">c</tspan><tspan class="cls-20" x="133.7373" y="0">c</tspan><tspan class="cls-44" x="161.5381" y="0">i</tspan><tspan class="cls-20" x="177.2109" y="0">on</tspan><tspan class="cls-41" x="243.5068" y="0">a</tspan><tspan class="cls-34" x="273.4814" y="0" xml:space="preserve"> ot</tspan><tspan class="cls-36" x="344.2949" y="0">r</tspan><tspan class="cls-38" x="365.5166" y="0">o</tspan><tspan class="cls-20" x="397.6064" y="0">s </tspan><tspan class="cls-39" x="439.3066" y="0">s</tspan><tspan class="cls-44" x="463.96" y="0">e</tspan><tspan class="cls-15" x="494.5059" y="0">r</tspan><tspan class="cls-20" x="516.4141" y="0">vic</tspan><tspan class="cls-44" x="588.7744" y="0">i</tspan><tspan class="cls-38" x="604.4473" y="0">o</tspan><tspan class="cls-20" x="636.5371" y="0">s </tspan><tspan class="cls-16" x="678.2373" y="0">K</tspan><tspan class="cls-48" x="712.8438" y="0">Y</tspan><tspan x="743.0469" y="0">C </tspan></text>
    <text class="cls-23" transform="translate(1834.9197 448.2548)"><tspan class="cls-44" x="0" y="0">p</tspan><tspan class="cls-20" x="33.0049" y="0">a</tspan><tspan class="cls-21" x="63.0361" y="0">r</tspan><tspan class="cls-41" x="83.9717" y="0">a</tspan><tspan class="cls-34" x="113.9463" y="0"> </tspan><tspan class="cls-41" x="130.3047" y="0">u</tspan><tspan class="cls-34" x="161.9951" y="0">n</tspan><tspan class="cls-44" x="195.5146" y="0">a</tspan><tspan class="cls-20" x="225.4883" y="0"> </tspan><tspan class="cls-11" x="241.8477" y="0">e</tspan><tspan class="cls-20" x="270.7344" y="0">x</tspan><tspan class="cls-17" x="300.3076" y="0">p</tspan><tspan class="cls-44" x="332.9121" y="0">e</tspan><tspan class="cls-34" x="363.458" y="0">r</tspan><tspan class="cls-41" x="385.3086" y="0">ie</tspan><tspan class="cls-20" x="431.5273" y="0">nci</tspan><tspan class="cls-44" x="508.5781" y="0">a</tspan><tspan class="cls-20" x="538.5518" y="0"> </tspan><tspan class="cls-44" x="554.9111" y="0">d</tspan><tspan class="cls-20" x="587.916" y="0">e </tspan><tspan class="cls-44" x="634.8779" y="0">c</tspan><tspan class="cls-34" x="662.6211" y="0">rib</tspan><tspan class="cls-44" x="733.208" y="0">ad</tspan><tspan x="796.1865" y="0">o </tspan></text>
    <text class="cls-23" transform="translate(1834.9197 516.5516)"><tspan class="cls-17" x="0" y="0">p</tspan><tspan class="cls-44" x="32.6045" y="0">e</tspan><tspan class="cls-34" x="63.1504" y="0">r</tspan><tspan class="cls-12" x="85.001" y="0">s</tspan><tspan class="cls-34" x="109.5986" y="0">on</tspan><tspan class="cls-44" x="175.8945" y="0">a</tspan><tspan class="cls-20" x="205.8682" y="0">l</tspan><tspan class="cls-41" x="220.1113" y="0">i</tspan><tspan class="cls-49" x="235.7852" y="0">z</tspan><tspan class="cls-44" x="260.667" y="0">a</tspan><tspan class="cls-20" x="290.6406" y="0">d</tspan><tspan class="cls-41" x="323.7031" y="0">a</tspan><tspan x="353.6777" y="0">.</tspan></text>
    <g class="cls-26">
      <g class="cls-45">
        <g class="cls-25">
          <text class="cls-32" transform="translate(396.7073 154.5829)"><tspan x="0" y="0">+</tspan></text>
        </g>
      </g>
      <g class="cls-45">
        <g class="cls-24">
          <text class="cls-32" transform="translate(1043.4094 154.5829)"><tspan x="0" y="0">+</tspan></text>
        </g>
      </g>
      <g class="cls-45">
        <g class="cls-30">
          <text class="cls-32" transform="translate(1650.0105 154.5829)"><tspan x="0" y="0">+</tspan></text>
        </g>
      </g>
      <path class="cls-14" d="M259.358,191.0357h-9.5305c-1.3172,0-2.3818,1.0662-2.3818,2.3834v21.0011c0,5.1657-4.3664,9.5289-9.5289,9.5289h-21.3984c-1.3157,0-2.3818,1.0662-2.3818,2.3834v9.5289c0,1.3157,1.0662,2.3834,2.3818,2.3834h21.3984c13.1025,0,23.8231-10.7206,23.8231-23.8247v-21.0011c0-1.3173-1.0662-2.3834-2.3818-2.3834"/>
      <path class="cls-14" d="M69.0984.0004h-21.7766C34.2177.0004,23.4971,10.7211,23.4971,23.8251v22.1691c0,1.3172,1.0646,2.3834,2.3818,2.3834h9.5305c1.3141,0,2.3818-1.0662,2.3818-2.3834v-22.1691c0-5.1641,4.3633-9.5289,9.5305-9.5289h21.7766c1.3156,0,2.3834-1.0678,2.3834-2.3819V2.3839C71.4818,1.0682,70.414.0004,69.0984.0004"/>
      <path class="cls-14" d="M237.9161.0004h-21.3968c-1.3157,0-2.3818,1.0678-2.3818,2.3834v9.5305c0,1.3141,1.0662,2.3819,2.3818,2.3819h21.3968c5.1641,0,9.5289,4.3648,9.5289,9.5289v22.1691c0,1.3172,1.0646,2.3834,2.3834,2.3834h9.5289c1.3172,0,2.3818-1.0662,2.3818-2.3834v-22.1691C261.7392,10.7211,251.0185.0004,237.9161.0004"/>
      <path class="cls-14" d="M69.0984,223.9495h-21.7766c-5.1673,0-9.5305-4.3648-9.5305-9.5289v-21.0028c0-1.3172-1.0678-2.3818-2.3818-2.3818h-9.5305c-1.3172,0-2.3818,1.0646-2.3818,2.3818v21.0028c0,13.1025,10.7206,23.8231,23.8247,23.8231h21.7766c1.3156,0,2.3834-1.0678,2.3834-2.3818v-9.5289c0-1.3172-1.0678-2.3834-2.3834-2.3834"/>
      <path class="cls-14" d="M878.2502,191.0357h-9.5305c-1.3173,0-2.3819,1.0662-2.3819,2.3834v21.0011c0,5.1657-4.3664,9.5289-9.5289,9.5289h-21.3984c-1.3157,0-2.3819,1.0662-2.3819,2.3834v9.5289c0,1.3157,1.0662,2.3834,2.3819,2.3834h21.3984c13.1025,0,23.8232-10.7206,23.8232-23.8247v-21.0011c0-1.3173-1.0662-2.3834-2.3819-2.3834"/>
      <path class="cls-14" d="M687.9908.0004h-21.7765c-13.1041,0-23.8247,10.7207-23.8247,23.8247v22.1691c0,1.3172,1.0646,2.3834,2.3818,2.3834h9.5305c1.3141,0,2.3818-1.0662,2.3818-2.3834v-22.1691c0-5.1641,4.3633-9.5289,9.5305-9.5289h21.7765c1.3157,0,2.3834-1.0678,2.3834-2.3819V2.3839c0-1.3157-1.0678-2.3834-2.3834-2.3834"/>
      <path class="cls-14" d="M856.8083.0004h-21.3968c-1.3157,0-2.3819,1.0678-2.3819,2.3834v9.5305c0,1.3141,1.0662,2.3819,2.3819,2.3819h21.3968c5.1641,0,9.5289,4.3648,9.5289,9.5289v22.1691c0,1.3172,1.0646,2.3834,2.3834,2.3834h9.5289c1.3172,0,2.3818-1.0662,2.3818-2.3834v-22.1691C880.6314,10.7211,869.9108.0004,856.8083.0004"/>
      <path class="cls-14" d="M687.9908,223.9495h-21.7765c-5.1673,0-9.5305-4.3648-9.5305-9.5289v-21.0028c0-1.3172-1.0678-2.3818-2.3818-2.3818h-9.5305c-1.3172,0-2.3818,1.0646-2.3818,2.3818v21.0028c0,13.1025,10.7207,23.8231,23.8247,23.8231h21.7765c1.3157,0,2.3834-1.0678,2.3834-2.3818v-9.5289c0-1.3172-1.0678-2.3834-2.3834-2.3834"/>
      <path class="cls-14" d="M1492.8173,191.0357h-9.5305c-1.3173,0-2.3819,1.0662-2.3819,2.3834v21.0011c0,5.1657-4.3664,9.5289-9.5289,9.5289h-21.3984c-1.3157,0-2.3819,1.0662-2.3819,2.3834v9.5289c0,1.3157,1.0662,2.3834,2.3819,2.3834h21.3984c13.1025,0,23.8232-10.7206,23.8232-23.8247v-21.0011c0-1.3173-1.0662-2.3834-2.3819-2.3834"/>
      <path class="cls-14" d="M1302.5577.0004h-21.7766c-13.1041,0-23.8247,10.7207-23.8247,23.8247v22.1691c0,1.3172,1.0646,2.3834,2.3818,2.3834h9.5305c1.3141,0,2.3819-1.0662,2.3819-2.3834v-22.1691c0-5.1641,4.3632-9.5289,9.5305-9.5289h21.7766c1.3157,0,2.3834-1.0678,2.3834-2.3819V2.3839c0-1.3157-1.0678-2.3834-2.3834-2.3834"/>
      <path class="cls-14" d="M1471.3754.0004h-21.3968c-1.3157,0-2.3819,1.0678-2.3819,2.3834v9.5305c0,1.3141,1.0662,2.3819,2.3819,2.3819h21.3968c5.1641,0,9.5289,4.3648,9.5289,9.5289v22.1691c0,1.3172,1.0646,2.3834,2.3834,2.3834h9.5289c1.3172,0,2.3818-1.0662,2.3818-2.3834v-22.1691C1495.1985,10.7211,1484.4778.0004,1471.3754.0004"/>
      <path class="cls-14" d="M1302.5577,223.9495h-21.7766c-5.1673,0-9.5305-4.3648-9.5305-9.5289v-21.0028c0-1.3172-1.0678-2.3818-2.3819-2.3818h-9.5305c-1.3172,0-2.3818,1.0646-2.3818,2.3818v21.0028c0,13.1025,10.7206,23.8231,23.8247,23.8231h21.7766c1.3157,0,2.3834-1.0678,2.3834-2.3818v-9.5289c0-1.3172-1.0678-2.3834-2.3834-2.3834"/>
      <path class="cls-14" d="M1993.5891,133.9367h-6.4115c-.8866,0-1.6016.7468-1.6016,1.67v14.7248c0,3.6213-2.938,6.6816-6.4115,6.6816h-14.3942c-.8851,0-1.6033.7484-1.6033,1.67v6.6815c0,.9216.7182,1.67,1.6033,1.67h14.3942c8.8139,0,16.0262-7.5157,16.0262-16.703v-14.7248c0-.9232-.7167-1.67-1.6018-1.67"/>
      <path class="cls-14" d="M1865.5957.0004h-14.6501c-8.8155,0-16.0278,7.5158-16.0278,16.703v15.5447c0,.9232.7167,1.67,1.6033,1.67h6.4097c.8851,0,1.6033-.7468,1.6033-1.67v-15.5447c0-3.6196,2.9349-6.6799,6.4115-6.6799h14.6501c.8851,0,1.6033-.75,1.6033-1.67V1.6704c0-.9216-.7182-1.67-1.6033-1.67"/>
      <path class="cls-14" d="M1979.1644.0004h-14.3942c-.8851,0-1.6033.7484-1.6033,1.67v6.6831c0,.92.7182,1.67,1.6033,1.67h14.3942c3.4735,0,6.4115,3.0603,6.4115,6.6799v15.5447c0,.9232.715,1.67,1.6016,1.67h6.4115c.8851,0,1.6018-.7468,1.6018-1.67v-15.5447C1995.1906,7.5162,1987.9798.0004,1979.1644.0004"/>
      <path class="cls-14" d="M1865.5957,157.0129h-14.6501c-3.4766,0-6.4115-3.0603-6.4115-6.6815v-14.7248c0-.9232-.7182-1.67-1.6033-1.67h-6.4097c-.8866,0-1.6033.7468-1.6033,1.67v14.7248c0,9.1873,7.2123,16.703,16.0278,16.703h14.6501c.8851,0,1.6033-.7484,1.6033-1.67v-6.6816c0-.9216-.7182-1.67-1.6033-1.67"/>
      <path class="cls-14" d="M2465.2962,191.3337h-6.4115c-.8866,0-1.6016.7468-1.6016,1.67v14.7248c0,3.6212-2.938,6.6815-6.4115,6.6815h-14.3942c-.8851,0-1.6033.7484-1.6033,1.67v6.6815c0,.9216.7182,1.67,1.6033,1.67h14.3942c8.8139,0,16.0262-7.5157,16.0262-16.7031v-14.7248c0-.9232-.7167-1.67-1.6018-1.67"/>
      <path class="cls-14" d="M2337.3029,57.3976h-14.6501c-8.8155,0-16.0278,7.5158-16.0278,16.703v15.5447c0,.9232.7167,1.67,1.6033,1.67h6.4097c.8851,0,1.6033-.7468,1.6033-1.67v-15.5447c0-3.6196,2.9349-6.6799,6.4115-6.6799h14.6501c.8851,0,1.6033-.75,1.6033-1.67v-6.6831c0-.9216-.7182-1.67-1.6033-1.67"/>
      <path class="cls-14" d="M2450.8716,57.3976h-14.3942c-.8851,0-1.6033.7484-1.6033,1.67v6.6831c0,.92.7182,1.67,1.6033,1.67h14.3942c3.4735,0,6.4115,3.0603,6.4115,6.6799v15.5447c0,.9232.715,1.67,1.6016,1.67h6.4115c.8851,0,1.6018-.7468,1.6018-1.67v-15.5447c0-9.1873-7.2108-16.703-16.0262-16.703"/>
      <path class="cls-14" d="M2337.3029,214.4101h-14.6501c-3.4766,0-6.4115-3.0603-6.4115-6.6815v-14.7248c0-.9232-.7182-1.67-1.6033-1.67h-6.4097c-.8866,0-1.6033.7468-1.6033,1.67v14.7248c0,9.1873,7.2123,16.7031,16.0278,16.7031h14.6501c.8851,0,1.6033-.7484,1.6033-1.67v-6.6815c0-.9216-.7182-1.67-1.6033-1.67"/>
      <path class="cls-14" d="M2261.2775,227.9856h-9.788c-1.3537,0-2.4469,1.1393-2.4469,2.5471v22.4535c0,5.5216-4.4841,10.1884-9.788,10.1884h-21.9769c-1.3521,0-2.4469,1.1393-2.4469,2.5471v10.1883c0,1.4046,1.0947,2.5471,2.4469,2.5471h21.9769c13.4584,0,24.4699-11.4627,24.4699-25.4709v-22.4535c0-1.4078-1.0949-2.5471-2.447-2.5471"/>
      <path class="cls-14" d="M2065.8624,23.7495h-22.3677c-13.4584,0-24.4699,11.4611-24.4699,25.4709v23.7024c0,1.4078,1.0949,2.5471,2.447,2.5471h9.788c1.3506,0,2.447-1.1392,2.447-2.5471v-23.7024c0-5.5216,4.4808-10.1868,9.7878-10.1868h22.3677c1.3521,0,2.447-1.1424,2.447-2.5471v-10.1899c0-1.4062-1.0949-2.5471-2.447-2.5471"/>
      <path class="cls-14" d="M2239.2547,23.7495h-21.9769c-1.3521,0-2.4469,1.1408-2.4469,2.5471v10.1899c0,1.4046,1.0947,2.5471,2.4469,2.5471h21.9769c5.3039,0,9.788,4.6652,9.788,10.1868v23.7024c0,1.4078,1.0932,2.5471,2.4469,2.5471h9.788c1.3523,0,2.447-1.1392,2.447-2.5471v-23.7024c0-14.0098-11.0115-25.4709-24.4699-25.4709"/>
      <path class="cls-14" d="M2065.8624,263.1738h-22.3677c-5.307,0-9.7878-4.6652-9.7878-10.1884v-22.4519c0-1.4094-1.0965-2.5487-2.447-2.5487h-9.788c-1.3521,0-2.447,1.1393-2.447,2.5487v22.4519c0,14.0098,11.0115,25.4709,24.4699,25.4709h22.3677c1.3521,0,2.447-1.1409,2.447-2.5471v-10.1884c0-1.4062-1.0949-2.5471-2.447-2.5471"/>
      <path class="cls-9" d="M1409.7408,133.2323c0,17.9075,0,26.8612-5.1705,32.4241-5.1688,5.5629-13.4917,5.5629-30.1328,5.5629s-24.964,0-30.1344-5.5629c-5.1688-5.5629-5.1688-14.5167-5.1688-32.4241v-32.5624c0-17.9059,0-26.8596,5.1688-32.4241,4.6206-4.9703,11.7534-5.4994,25.091-5.5566"/>
      <path class="cls-2" d="M1424.758,99.8256h-11.1179M1424.758,82.6856h-11.1179M1380.2864,99.8256h-11.1179M1380.2864,82.6856h-11.1179M1405.3013,62.6903v11.4262M1388.6253,62.6903v11.4262M1405.3013,108.3948v11.4278M1388.6253,108.3948v11.4278M1402.5222,74.1164h-11.1179c-5.242,0-7.8621,0-9.4907,1.6732-1.6272,1.6731-1.6272,4.3664-1.6272,9.753v11.4261c0,5.3866,0,8.0798,1.6272,9.753,1.6286,1.6732,4.2488,1.6732,9.4907,1.6732h11.1179c5.2403,0,7.8606,0,9.4892-1.6732,1.6287-1.6731,1.6287-4.3664,1.6287-9.753v-11.4261c0-5.3866,0-8.0798-1.6287-9.753-1.6286-1.6732-4.2489-1.6732-9.4892-1.6732Z"/>
    </g>
    <line class="cls-2" x1="1370.808" y1="155.5981" x2="1378.0108" y2="155.5981"/>
    <g class="cls-29">
      <path class="cls-14" d="M704.5018,179.7045c3.0873-9.3383,6.1826-18.6734,9.2572-28.0164.9963-3.0285,1.9417-6.0746,2.9777-9.3224,3.4925,0,6.8976-.294,10.2026.1414,1.3887.1827,4.063-.027,3.8405,2.9396.2225,1.9735-1.26,2.8426-4.0041,2.625-5.7409-.4545-6.3908,2.9046-7.5316,7.0708-1.759,6.4257-3.8834,12.7529-5.9268,19.363h93.8672c-2.7838-8.3166-5.3786-16.3789-8.2959-24.3252-.3099-.8453-2.4899-1.303-3.8469-1.4221-2.3675-.205-4.9226-.2447-4.878-3.2843.0429-2.9872,2.5868-3.1477,4.9623-3.2129,7.735-.2113,7.7493-.2336,10.1582,6.8293,3.1016,9.0951,6.1842,18.1967,9.2557,27.3029.4274,1.268.7405,2.5725,1.1885,4.144-1.5857.116-2.6885.2669-3.7912.2669-34.69.0128-69.3799.0128-104.0699-.0016-1.1218,0-2.2436-.17-3.3654-.2606v-.8374Z"/>
      <path class="cls-10" d="M756.3384,60.3065h6.7832c.286.0747.5688.1891.8596.2161,7.3266.688,14.1003,2.9745,20.1034,7.1741,11.299,7.9034,17.2893,18.6145,17.1289,32.4352-.0826,7.1503-1.6287,14.0384-4.2314,20.677-6.8563,17.4801-18.5192,31.5629-32.3527,44.0553-2.9078,2.625-7.1693,2.3278-10.0628-.3814-6.8849-6.4511-13.236-13.3758-18.8338-20.9519-6.6402-8.9903-12.165-18.559-15.2603-29.3416-1.9465-6.7832-3.0826-13.7174-1.7892-20.7136,3.0603-16.5426,13.3901-26.7055,29.386-31.5724,2.6679-.812,5.5089-1.0789,8.2689-1.5969Z"/>
      <path class="cls-14" d="M758.6484,78.6484h.6229c.0334.0127.0667.027.1017.0381.2352.0636.4767.1049.7023.1939.3909.151.7198.4052,1.0265.6848.294.2685.5847.5418.8676.8215,1.7733,1.7511,3.545,3.5037,5.3182,5.2547.054.054.1112.1049.205.1923v-.2733c0-.4322-.0048-.866,0-1.2982.0159-1.5397,1.2648-2.7807,2.8188-2.7934.9629-.008,1.9274-.0095,2.8903,0,.8548.0096,1.5683.3432,2.1308.9788.483.5482.6991,1.1965.6991,1.9211-.0016,3.2272,0,6.4543-.0032,9.6815,0,.1653.0429.2844.1637.4036,1.2902,1.2664,2.5741,2.536,3.8548,3.8103.3146.3114.6133.6372.9073.9692.5466.6181.8056,1.3316.7452,2.1641-.0318.4274-.1287.8263-.3448,1.1917-.5355.9121-1.3522,1.3792-2.4104,1.4062-.8883.0207-1.7781.0032-2.6679.0048-.0778,0-.1573.0048-.2447.0064v.3114c0,5.4723,0,10.9431-.0032,16.4154,0,.2399-.0127.4862-.062.7214-.2796,1.3347-1.4316,2.2674-2.814,2.2706-2.7711.0048-5.5438.0016-8.3165,0-.0572,0-.1128-.0079-.1907-.0127v-13.827c0-.0953.0016-.1907-.0016-.286-.0366-1.554-1.287-2.7759-2.8585-2.7823-1.8972-.0048-3.796-.0048-5.6932.0016-1.1552.0032-2.1832.6959-2.6234,1.7526-.1589.3782-.2113.7722-.2113,1.1806.0032,4.5555.0016,9.111.0016,13.6649v.3099h-8.3976c-.0747,0-.1494.0016-.2224-.0032-1.1997-.0922-2.0625-.6674-2.555-1.7606-.1685-.3734-.2129-.7723-.2129-1.1806.0032-5.4946.0032-10.9876.0032-16.4822v-.3004h-.2653c-.8882,0-1.778.008-2.6678-.0032-1.3475-.0159-2.4645-.955-2.7123-2.2611-.0159-.0842-.0572-.1637-.0858-.2463v-.6149c.0254-.062.0636-.1192.0731-.1828.0922-.5784.3798-1.0614.7564-1.4936.2717-.3099.5529-.6134.8469-.9026,6.0555-5.9919,12.1126-11.9823,18.1728-17.9694.3035-.3003.6165-.5927.9375-.8755.4052-.3543.8596-.6229,1.3967-.7357.1065-.0222.2145-.0445.3226-.0667"/>
      <path class="cls-8" d="M100.5567,146.934c-8.8997,13.5537-11.1417,20.7088-8.6375,26.4529.2479.5704.5387,1.1186.8692,1.6446,3.5783,5.6821,12.8244,5.6821,31.3166,5.6821h33.8478c18.4938,0,27.7399,0,31.3182-5.6821.3289-.526.6197-1.0742.8676-1.6446,2.5042-5.7441.2654-12.8991-8.6328-26.4529"/>
      <path class="cls-7" d="M156.9413,70.2135c0,8.7583-7.1233,15.8593-15.9117,15.8593s-15.9133-7.101-15.9133-15.8593,7.1249-15.8593,15.9133-15.8593,15.9117,7.0995,15.9117,15.8593ZM147.3821,86.0728h-12.7052c-18.2682,0-30.5841,19.4694-23.3878,36.9701,1.0026,2.439,3.3018,4.02,5.8457,4.02h4.4761c1.5079,0,2.822,1.0694,3.1874,2.5947l5.7615,24.0186c1.2012,5.0084,5.5168,8.5216,10.4696,8.5216s9.2683-3.5132,10.4696-8.5216l5.7599-24.0186c.367-1.5254,1.6811-2.5947,3.189-2.5947h4.4745c2.5455,0,4.8447-1.581,5.8473-4.02,7.1964-17.5007-5.1196-36.9701-23.3878-36.9701Z"/>
      <path class="cls-14" d="M2123.0823,184.7571c-1.0154-.4576-2.0211-.9168-3.0206-1.3776.0985.7945.2066,1.5826.3257,2.3644.893-.3226,1.7909-.6515,2.6949-.9867"/>
      <path class="cls-14" d="M2185.7667,173.6223c-.2066,5.9061-1.5525,11.6184-3.9311,16.8921,1.0821.2748,2.1435.5323,3.1859.777,3.0349-6.966,4.3442-14.4912,3.9375-21.9354-2.3008,1.4126-4.7145,2.8363-7.2314,4.2663h4.0391Z"/>
      <path class="cls-14" d="M2172.9979,203.4644c-4.3568,4.4777-9.4701,7.9464-15.2,10.3123-2.3945.9883-4.8495,1.7653-7.3504,2.3294,2.6885-2.439,5.1959-5.9029,7.3743-10.3917.9725-2.0021,1.8353-4.1329,2.5995-6.3558-1.0152-.3353-2.0386-.68-3.0681-1.0296-.7246,2.1054-1.5397,4.109-2.447,5.9776-3.572,7.3584-8.1957,11.8996-12.8928,12.7624v-24.1123c.2161.0016.4306.0032.6451.0048-.1288-.0493-.2589-.1001-.3893-.151-1.1694.4894-2.3357.9708-3.4956,1.4428v22.8221c-1.7955-.321-3.5831-1.1774-5.3293-2.5598-2.5948-2.0545-4.9703-5.1482-7.063-9.1937-.8756-1.6938-1.6731-3.5068-2.3914-5.4183-1.0249.3655-2.0419.7214-3.0509,1.0678.7629,2.045,1.6161,3.9978,2.563,5.8314,2.0529,3.9708,4.3681,7.0708,6.8293,9.3081-7.9209-1.7796-15.2331-5.6583-21.2379-11.3499-1.2123.3543-2.4073.6928-3.5815,1.0154.3369.3448.6785.688,1.0298,1.0265,9.4431,9.1142,21.6461,13.6491,33.835,13.6491h.0159c12.7036-.0032,25.3898-4.9321,34.9299-14.7375.4799-.4926.9438-.9947,1.3983-1.5031-1.1584-.3019-2.3357-.6229-3.5259-.9534-.0667.0683-.1303.1382-.1971.2066"/>
      <path class="cls-14" d="M2120.387,185.7432c-.1191-.7802-.2271-1.5699-.3257-2.3644-1.1552-.5323-2.3008-1.0678-3.4337-1.6048.1732,1.7081.3924,3.4019.6593,5.0703,1.0249-.3575,2.0593-.7246,3.1001-1.1011"/>
      <path class="cls-14" d="M2099.7758,192.2604c-2.8856-5.7329-4.5221-12.0585-4.754-18.6384h5.5437c-3.0602-1.6716-5.9696-3.3368-8.6931-4.9829-.58,8.3261.9882,16.7682,4.697,24.4285.7896-.1907,1.6095-.3925,2.4676-.6149.2446-.062.4925-.1271.7388-.1923"/>
      <path class="cls-14" d="M2107.789,140.549c4.3553-4.4777,9.4685-7.9479,15.1967-10.3123,2.3945-.9883,4.8495-1.7669,7.352-2.331-2.6868,2.4406-5.1942,5.9045-7.3728,10.3933-1.7303,3.5624-3.1286,7.5205-4.2011,11.7201-8.1021-.8549-13.4219-2.0466-16.3201-2.8411,1.554-2.3469,3.3383-4.5666,5.3453-6.6291M2138.7736,126.9444v24.1123c-6.4402-.0413-12.0046-.3194-16.7491-.7262,1.0137-3.8468,2.3039-7.4252,3.8564-10.6237,3.5718-7.3584,8.1957-11.9012,12.8928-12.7624M2142.0133,126.9396c1.7955.321,3.5815,1.1774,5.3278,2.5598,2.5947,2.0545,4.9719,5.1482,7.0645,9.1936,1.7763,3.4385,3.2367,7.368,4.3599,11.6375-4.7445.4052-10.3107.6848-16.7523.7262v-24.1171ZM2171.9922,139.5352c2.423,2.339,4.5506,4.9003,6.3653,7.6397-2.8967.7945-8.2213,1.9893-16.336,2.8442-1.1838-4.6398-2.7586-8.9808-4.7383-12.8054-2.0529-3.9724-4.3663-7.074-6.8293-9.3096,8.0512,1.8082,15.4797,5.7838,21.5383,11.6311M2098.1424,155.42c.7293-1.84,1.5761-3.6339,2.5471-5.3691,2.7933.831,8.3818,2.1975,17.3371,3.1556-.8327,3.9501-1.3888,8.0703-1.6749,12.2508,1.0362.5196,2.0847,1.0392,3.1478,1.5572.2479-4.6953.842-9.2365,1.7622-13.495,4.9321.4306,10.7444.7278,17.5118.7691v16.1024h-12.1381c2.3675,1.0884,4.7812,2.1673,7.2298,3.2319h4.9083v2.0911c.464.1939.9295.3877,1.3965.5816.6151.2542,1.2284.5053,1.8432.7564v-3.429h7.7589c2.3039-1.0662,4.5762-2.1435,6.8103-3.2319h-14.5692v-16.1024c6.772-.0413,12.5877-.34,17.5229-.7706.9805,4.5587,1.5874,9.4495,1.7973,14.5182,1.0645-.5371,2.1181-1.0773,3.1587-1.6176-.2589-4.5126-.8309-8.9665-1.7239-13.2137,8.9633-.9581,14.5515-2.3278,17.3402-3.1572,1.0726,1.9163,1.999,3.9073,2.7745,5.957.95-.5943,1.8733-1.1854,2.7743-1.7717-2.463-6.2335-6.2685-12.0553-11.4119-17.0192-9.4447-9.1158-21.651-13.6522-33.8399-13.6522h-.0128c-12.7036.0032-25.3898,4.9305-34.9298,14.7375-4.454,4.5793-7.8177,9.8101-10.0995,15.3715.661.4274,1.3506.8644,2.0768,1.3157.2304.1446.4673.2892.7023.4338"/>
      <path class="cls-14" d="M2161.2536,184.291c.8358.2876,1.6667.5688,2.4946.8453.1034-.7278.1971-1.4587.2812-2.1928-.9184.4497-1.843.8993-2.7758,1.3474"/>
      <path class="cls-14" d="M2081.821,206.6725c4.3537,0,10.0072-.8533,17.1177-2.5455,11.1704-2.6567,24.7337-7.1979,39.0119-13.0278-1.1201-.4513-2.242-.9105-3.3653-1.3744-2.463-1.0201-4.8956-2.0545-7.2934-3.1016-9.9022,3.7849-19.2945,6.8595-27.4443,8.9585-9.3302,2.4025-14.8502,2.9952-18.025,2.9952-1.5746,0-2.5725-.1462-3.1715-.2892.7532-1.3713,4.3458-5.5963,12.2841-11.3086-1.1281-2.5979-1.7796-5.5486-2.0704-8.4167-14.0114,9.6481-20.5499,17.5881-18.0553,23.1955,1.4635,3.2875,4.9973,4.9146,11.0115,4.9146"/>
      <path class="cls-14" d="M2146.2732,178.7591c3.591,1.4157,7.1518,2.7553,10.6523,4.0121,14.7645-6.9421,28.0307-14.3022,37.9791-21.1029,14.3578-9.8165,19.6363-16.7221,17.1146-22.3899-1.4633-3.2875-4.9971-4.9146-11.0113-4.9146-4.3553,0-11.2594,1.241-18.3699,2.9332-1.0424.2479-2.1053.5132-3.189.7945,1.387,1.4396,4.1027,6.8595,4.3442,7.2361,8.0972-1.9719,14.2862-2.8664,17.2193-2.8664,1.5715,0,2.5679.1446,3.1653.2876-.893,1.6239-4.1949,5.9459-16.2359,13.8556-10.9685,7.2027-25.733,15.0521-41.6686,22.1547"/>
      <path class="cls-14" d="M2196.2694,178.0481c-.5753-.3734-2.8315-2.0148-3.4289-2.3914-.4226,2.7712-1.3331,5.4771-2.4168,8.048,10.077,6.556,14.7199,11.5517,15.5795,13.0326-.6769.178-1.8653.3718-3.8356.3718-3.2638,0-8.6661-.5339-17.4212-2.563-13.0565-3.0253-29.3289-8.4469-45.8175-15.2666-16.4885-6.8198-31.8314-14.4737-43.2035-21.5525-12.2333-7.6142-15.6401-11.8536-16.5728-13.4552.7039-.1859,1.8956-.4036,3.9311-.4036,2.544,0,8.1703.4338,14.056,1.6048.2733-.5069,2.7933-5.7409,4.4713-7.3171-.1858-.0398-2.1355-.178-2.3183-.2177-6.6863-1.4189-12.0824-2.1355-16.3137-2.1355-6.5449-.0016-10.3028,1.7129-11.7488,5.1911-2.3834,5.7282,3.0619,12.5035,17.6581,21.9657,11.987,7.7747,28.6566,16.22,46.9375,23.7802,18.2809,7.5618,36.0518,13.3615,50.0378,16.3296,6.6863,1.4189,12.0824,2.1356,16.3137,2.1356,6.5449,0,10.3043-1.7129,11.7503-5.1911,2.3819-5.7282-3.0635-12.5019-17.6581-21.9657"/>
      <path class="cls-5" d="M2140.5126,74.4735c-20.944,0-37.9457,17.0049-37.9457,37.9362,0,8.7456,3.181,16.5664,7.8606,23.1351l30.0851,42.1469,30.0884-42.1517c4.6763-6.5671,7.8526-14.407,7.8526-23.1303.0016-20.9312-16.978-37.9362-37.941-37.9362ZM2140.5126,89.1887c-12.8291,0-23.2289,10.4013-23.2289,23.2304s10.3997,23.2304,23.2289,23.2304,23.2289-10.4013,23.2289-23.2304-10.3997-23.2304-23.2289-23.2304"/>
      <path class="cls-14" d="M2140.5123,80.8634c-17.4166,0-31.555,14.14-31.555,31.5454,0,7.2726,2.6441,13.7762,6.5354,19.2374l25.0196,35.0475,25.0211-35.0507c3.8882-5.4612,6.5308-11.9806,6.5308-19.2342,0-17.4054-14.1196-31.5454-31.5519-31.5454M2140.5123,93.0999c-10.6682,0-19.3168,8.6486-19.3168,19.3169s8.6486,19.3168,19.3168,19.3168,19.3168-8.6486,19.3168-19.3168-8.6486-19.3169-19.3168-19.3169"/>
      <path class="cls-6" d="M2140.5125,97.0707c-8.4754,0-15.3478,6.8706-15.3478,15.3461s6.8723,15.3461,15.3478,15.3461,15.346-6.8706,15.346-15.3461-6.8706-15.3461-15.346-15.3461"/>
      <path class="cls-14" d="M2140.5123,103.4608c-4.9465,0-8.9569,4.0089-8.9569,8.9553s4.0104,8.957,8.9569,8.957,8.9553-4.0089,8.9553-8.957-4.0088-8.9553-8.9553-8.9553"/>
    </g>
    <polygon class="cls-14" points="2370.7009 124.093 2369.8413 131.7088 2375.398 126.8467 2378.123 131.256 2370.7502 134.1606 2378.0737 137.1176 2375.398 141.4777 2369.8413 136.5663 2370.7009 144.2314 2365.8515 144.2314 2366.7096 136.6155 2361.2055 141.4777 2358.528 137.1176 2365.8006 134.1113 2358.4772 131.256 2361.2055 126.7481 2366.6618 131.7088 2365.8515 124.093 2370.7009 124.093"/>
    <g class="cls-27">
      <path class="cls-14" d="M2380.1125,152.472c0,1.1043-.912,2.01-2.026,2.01h-19.5727c-1.1137,0-2.026-.9057-2.026-2.01v-.58c0-1.1059.9122-2.01,2.026-2.01h19.5727c1.1139,0,2.026.9041,2.026,2.01v.58Z"/>
    </g>
    <polygon class="cls-14" points="2405.9162 124.093 2405.0566 131.7088 2410.6132 126.8467 2413.3382 131.256 2405.9655 134.1606 2413.289 137.1176 2410.6132 141.4777 2405.0566 136.5663 2405.9162 144.2314 2401.0683 144.2314 2401.9264 136.6155 2396.4207 141.4777 2393.7432 137.1176 2401.0175 134.1113 2393.6924 131.256 2396.4207 126.7481 2401.8771 131.7088 2401.0683 124.093 2405.9162 124.093"/>
    <g class="cls-28">
      <path class="cls-14" d="M2393.7308,149.882h19.5727c1.1172,0,2.0242.907,2.0242,2.0242v.5516c0,1.1172-.907,2.0242-2.0242,2.0242h-19.5727c-1.1182,0-2.026-.9078-2.026-2.026v-.5481c0-1.1182.9078-2.026,2.026-2.026Z"/>
    </g>
    <polygon class="cls-14" points="2441.1326 124.093 2440.273 131.7088 2445.8279 126.8467 2448.5547 131.256 2441.1819 134.1606 2448.5054 137.1176 2445.8279 141.4777 2440.273 136.5663 2441.1326 144.2314 2436.2832 144.2314 2437.1413 136.6155 2431.6371 141.4777 2428.9597 137.1176 2436.2323 134.1113 2428.9089 131.256 2431.6371 126.7481 2437.092 131.7088 2436.2832 124.093 2441.1326 124.093"/>
    <g class="cls-31">
      <path class="cls-14" d="M2450.5441,152.472c0,1.1043-.912,2.01-2.026,2.01h-19.5727c-1.1155,0-2.026-.9057-2.026-2.01v-.58c0-1.1059.9105-2.01,2.026-2.01h19.5727c1.1139,0,2.026.9041,2.026,2.01v.58Z"/>
      <path class="cls-14" d="M2485.7594,152.472c0,1.1043-.912,2.01-2.026,2.01h-19.5727c-1.1137,0-2.026-.9057-2.026-2.01v-.58c0-1.1059.9122-2.01,2.026-2.01h19.5727c1.1139,0,2.026.9041,2.026,2.01v.58Z"/>
      <path class="cls-4" d="M2404.6267,115.8863c-.3749-5.984-1.4078-9.7959-4.2426-12.5432-4.4553-4.3235-11.631-4.3235-25.9808-4.3235s-21.5224,0-25.9793,4.3235c-4.4586,4.3219-4.4586,11.2784-4.4586,25.1928v25.3009c0,13.9144,0,20.8709,4.4586,25.1944,4.4569,4.3219,11.631,4.3219,25.9793,4.3219s21.5255,0,25.9808-4.3219c2.8348-2.7473,3.8676-6.5592,4.2426-12.5447"/>
    </g>
    <line class="cls-1" x1="2371.8337" y1="171.0587" x2="2376.7961" y2="171.0587"/>
    <g class="cls-33">
      <path class="cls-14" d="M1954.6823,47.6963c-.8676-1.4491-.3813-3.3177,1.0852-4.1742.4927-.2876,1.0329-.4258,1.5666-.4258,1.0552,0,2.0832.5354,2.66,1.4968,10.4044,17.3815,10.4044,38.9753,0,56.3553-.8692,1.4491-2.7601,1.929-4.2267,1.0725s-1.9528-2.7266-1.0852-4.1757c9.2604-15.4653,9.2604-34.682,0-50.1489"/>
      <path class="cls-14" d="M1947.2096,53.5253c.4927-.2876,1.0344-.4242,1.5684-.4242,1.055,0,2.0814.5339,2.6583,1.4952,6.7117,11.2116,6.7117,25.1388,0,36.3488-.8676,1.4492-2.7601,1.929-4.2267,1.0726s-1.9528-2.7266-1.0852-4.1742c5.566-9.2969,5.566-20.847,0-30.1439-.8676-1.4492-.3813-3.3177,1.0852-4.1742"/>
      <path class="cls-14" d="M1938.4883,83.0007c-1.4666-.8564-1.9528-2.7266-1.0852-4.1742,2.2356-3.7356,2.2356-8.3754,0-12.1093-.8676-1.4492-.3813-3.3177,1.0852-4.1742.4927-.2892,1.0344-.4258,1.5684-.4258,1.0534,0,2.0814.5355,2.6583,1.4968,3.3812,5.6487,3.3812,12.6655,0,18.3142-.8676,1.4491-2.7601,1.929-4.2267,1.0725"/>
      <path class="cls-10" d="M1888.1617,73.1402c.0747-11.2402,7.6363-20.0494,17.3322-20.7723,11.8599-.8835,21.8052,9.7101,20.4467,21.9577-.9202,8.2991-4.686,14.7423-13.0883,17.6802-11.1147,3.885-23.0731-4.1392-24.5253-16.3964-.1193-1.0106-.1367-2.0339-.1653-2.4692ZM1942.7357,113.2325c-.008,2.6567.1414,5.3277-.1191,7.9607-.0875.8819-1.0647,2.1769-1.8941,2.4184-22.5394,6.583-45.0865,6.4527-67.6289-.0985-1.6318-.4751-2.0721-1.2664-2.0403-2.8236.0939-4.6969.1622-9.4002.0605-14.0971-.186-8.6725,7.1724-14.5786,15.4764-14.5214,4.422.0302,8.9076,1.4205,13.231,2.6488,6.0524,1.7208,11.717,1.0614,17.5454-1.0694,8.4118-3.0762,18.6017-2.1673,23.4401,5.9411,1.0947,1.8368,1.6049,4.1408,1.8828,6.2938.3115,2.412.0541,4.8955.0462,7.3473Z"/>
    </g>
  </g>
</svg>