<?xml version="1.0" encoding="UTF-8"?>
<svg id="Layer_1" data-name="Layer 1" xmlns="http://www.w3.org/2000/svg" xmlns:xlink="http://www.w3.org/1999/xlink" viewBox="0 0 2918.3402 1001">
  <defs>
    <style>
      .cls-1 {
        fill: #4d9cd6;
      }

      .cls-1, .cls-2, .cls-3, .cls-4 {
        stroke-width: 0px;
      }

      .cls-5 {
        letter-spacing: 0em;
      }

      .cls-6 {
        font-size: 134.4201px;
      }

      .cls-6, .cls-7, .cls-8 {
        fill: #99d6f5;
        font-family: MonsalGothic-ExtraBold, 'Monsal Gothic';
        font-weight: 700;
      }

      .cls-9 {
        clip-path: url(#clippath);
      }

      .cls-2, .cls-10, .cls-11, .cls-12 {
        fill: none;
      }

      .cls-13 {
        letter-spacing: .008em;
      }

      .cls-14 {
        letter-spacing: .002em;
      }

      .cls-15 {
        letter-spacing: .004em;
      }

      .cls-16 {
        letter-spacing: .004em;
      }

      .cls-17 {
        letter-spacing: -.009em;
      }

      .cls-18 {
        letter-spacing: .007em;
      }

      .cls-19 {
        letter-spacing: .01em;
      }

      .cls-20 {
        letter-spacing: .01em;
      }

      .cls-21 {
        letter-spacing: 0em;
      }

      .cls-22 {
        clip-path: url(#clippath-1);
      }

      .cls-23 {
        clip-path: url(#clippath-4);
      }

      .cls-24 {
        clip-path: url(#clippath-3);
      }

      .cls-25 {
        clip-path: url(#clippath-2);
      }

      .cls-26 {
        clip-path: url(#clippath-7);
      }

      .cls-27 {
        clip-path: url(#clippath-8);
      }

      .cls-28 {
        clip-path: url(#clippath-6);
      }

      .cls-29 {
        clip-path: url(#clippath-5);
      }

      .cls-30 {
        clip-path: url(#clippath-9);
      }

      .cls-31 {
        letter-spacing: -.006em;
      }

      .cls-10 {
        stroke-width: 2px;
      }

      .cls-10, .cls-12 {
        stroke: #fff;
      }

      .cls-32 {
        clip-path: url(#clippath-20);
      }

      .cls-33 {
        clip-path: url(#clippath-21);
      }

      .cls-34 {
        clip-path: url(#clippath-24);
      }

      .cls-35 {
        clip-path: url(#clippath-23);
      }

      .cls-36 {
        clip-path: url(#clippath-22);
      }

      .cls-37 {
        clip-path: url(#clippath-25);
      }

      .cls-38 {
        clip-path: url(#clippath-27);
      }

      .cls-39 {
        clip-path: url(#clippath-28);
      }

      .cls-40 {
        clip-path: url(#clippath-26);
      }

      .cls-41 {
        clip-path: url(#clippath-14);
      }

      .cls-42 {
        clip-path: url(#clippath-13);
      }

      .cls-43 {
        clip-path: url(#clippath-12);
      }

      .cls-44 {
        clip-path: url(#clippath-10);
      }

      .cls-45 {
        clip-path: url(#clippath-15);
      }

      .cls-46 {
        clip-path: url(#clippath-17);
      }

      .cls-47 {
        clip-path: url(#clippath-16);
      }

      .cls-48 {
        clip-path: url(#clippath-19);
      }

      .cls-49 {
        clip-path: url(#clippath-11);
      }

      .cls-50 {
        clip-path: url(#clippath-18);
      }

      .cls-51 {
        letter-spacing: 0em;
      }

      .cls-52 {
        letter-spacing: -.001em;
      }

      .cls-53 {
        letter-spacing: .01em;
      }

      .cls-54 {
        letter-spacing: -.029em;
      }

      .cls-55 {
        font-family: MonsalGothic-Regular, 'Monsal Gothic';
      }

      .cls-55, .cls-8 {
        font-size: 67.2101px;
      }

      .cls-55, .cls-4 {
        fill: #fff;
      }

      .cls-56 {
        letter-spacing: -.004em;
      }

      .cls-57 {
        letter-spacing: .009em;
      }

      .cls-58 {
        letter-spacing: .009em;
      }

      .cls-59 {
        letter-spacing: -.011em;
      }

      .cls-60 {
        letter-spacing: .009em;
      }

      .cls-61 {
        opacity: .2;
      }

      .cls-62 {
        opacity: .4;
      }

      .cls-63 {
        opacity: .5;
      }

      .cls-64 {
        letter-spacing: -.005em;
      }

      .cls-7 {
        font-size: 201.6301px;
      }

      .cls-3 {
        fill: #96d9fa;
      }

      .cls-65 {
        letter-spacing: -.033em;
      }

      .cls-11 {
        stroke: #96d9fa;
        stroke-width: 4px;
      }

      .cls-66 {
        letter-spacing: .001em;
      }

      .cls-67 {
        letter-spacing: -.032em;
      }

      .cls-68 {
        letter-spacing: -.032em;
      }

      .cls-69 {
        letter-spacing: .001em;
      }

      .cls-12 {
        stroke-width: 3px;
      }

      .cls-70 {
        letter-spacing: .017em;
      }
    </style>
    <clipPath id="clippath">
      <rect class="cls-2" x="101.0077" y="98.0496" width="2736.4736" height="799.7995"/>
    </clipPath>
    <clipPath id="clippath-1">
      <rect class="cls-2" x="101.0077" y="98.0496" width="2736.4736" height="799.7995"/>
    </clipPath>
    <clipPath id="clippath-2">
      <rect class="cls-2" x="536.2095" y="665.4368" width="318.9772" height="231.7733"/>
    </clipPath>
    <clipPath id="clippath-3">
      <rect class="cls-2" x="1204.9494" y="665.4368" width="318.9772" height="231.7733"/>
    </clipPath>
    <clipPath id="clippath-4">
      <rect class="cls-2" x="1793.7261" y="331.4382" width="476.7882" height="348.4992"/>
    </clipPath>
    <clipPath id="clippath-5">
      <rect class="cls-2" x="101.0077" y="98.0496" width="2736.4736" height="799.7995"/>
    </clipPath>
    <clipPath id="clippath-6">
      <rect class="cls-2" x="101.0077" y="98.0496" width="2736.4736" height="799.7995"/>
    </clipPath>
    <clipPath id="clippath-7">
      <rect class="cls-2" x="1409.2931" y="372.7707" width="411.6363" height="147.8621"/>
    </clipPath>
    <clipPath id="clippath-8">
      <rect class="cls-2" x="101.0077" y="98.0496" width="2736.4736" height="799.7995"/>
    </clipPath>
    <clipPath id="clippath-9">
      <rect class="cls-2" x="101.0077" y="98.0496" width="2736.4736" height="799.7995"/>
    </clipPath>
    <clipPath id="clippath-10">
      <rect class="cls-2" x="280.9726" y="496.9412" width="39.6304" height="31.6845"/>
    </clipPath>
    <clipPath id="clippath-11">
      <rect class="cls-2" x="291.8842" y="496.9429" width="43.1085" height="31.6845"/>
    </clipPath>
    <clipPath id="clippath-12">
      <rect class="cls-2" x="307.2433" y="496.8102" width="40.4857" height="31.8139"/>
    </clipPath>
    <clipPath id="clippath-13">
      <rect class="cls-2" x="319.7948" y="510.6907" width="33.1732" height="18.2122"/>
    </clipPath>
    <clipPath id="clippath-14">
      <rect class="cls-2" x="280.9961" y="521.4057" width="43.9134" height="31.9617"/>
    </clipPath>
    <clipPath id="clippath-15">
      <rect class="cls-2" x="296.194" y="521.5401" width="44.1503" height="31.6845"/>
    </clipPath>
    <clipPath id="clippath-16">
      <rect class="cls-2" x="310.661" y="521.5401" width="42.5591" height="31.6845"/>
    </clipPath>
    <clipPath id="clippath-17">
      <rect class="cls-2" x="324.8003" y="521.5468" width="39.6304" height="31.6744"/>
    </clipPath>
    <clipPath id="clippath-18">
      <rect class="cls-2" x="537.9032" y="413.0261" width="56.1792" height="55.8213"/>
    </clipPath>
    <clipPath id="clippath-19">
      <rect class="cls-2" x="575.7172" y="413.0261" width="56.1792" height="55.8213"/>
    </clipPath>
    <clipPath id="clippath-20">
      <rect class="cls-2" x="651.352" y="413.0261" width="56.1792" height="55.8213"/>
    </clipPath>
    <clipPath id="clippath-21">
      <rect class="cls-2" x="689.1728" y="413.0261" width="56.1792" height="55.8213"/>
    </clipPath>
    <clipPath id="clippath-22">
      <rect class="cls-2" x="726.9869" y="413.0261" width="56.1809" height="55.8213"/>
    </clipPath>
    <clipPath id="clippath-23">
      <rect class="cls-2" x="767.4288" y="413.0261" width="53.558" height="55.8213"/>
    </clipPath>
    <clipPath id="clippath-24">
      <rect class="cls-2" x="386.6016" y="503.4841" width="48.6903" height="44.0663"/>
    </clipPath>
    <clipPath id="clippath-25">
      <rect class="cls-2" x="413.4991" y="503.4841" width="48.6903" height="44.0663"/>
    </clipPath>
    <clipPath id="clippath-26">
      <rect class="cls-2" x="440.3965" y="503.4841" width="48.692" height="44.0663"/>
    </clipPath>
    <clipPath id="clippath-27">
      <rect class="cls-2" x="467.294" y="503.4841" width="48.692" height="44.0663"/>
    </clipPath>
    <clipPath id="clippath-28">
      <rect class="cls-2" x="496.0582" y="503.4841" width="46.8252" height="44.0663"/>
    </clipPath>
  </defs>
  <g class="cls-9">
    <text class="cls-55" transform="translate(128.43 751.6678)"><tspan class="cls-68" x="0" y="0">T</tspan><tspan class="cls-53" x="35.1504" y="0">h</tspan><tspan class="cls-57" x="74.5347" y="0">e</tspan><tspan class="cls-19" x="110.4243" y="0" xml:space="preserve"> Fi</tspan><tspan class="cls-57" x="185.0933" y="0">rs</tspan><tspan x="240.4067" y="0">t </tspan></text>
    <text class="cls-55" transform="translate(128.43 835.6814)"><tspan class="cls-19" x="0" y="0">6 D</tspan><tspan class="cls-18" x="103.9043" y="0">i</tspan><tspan class="cls-53" x="122.1851" y="0">g</tspan><tspan class="cls-57" x="160.6289" y="0">i</tspan><tspan class="cls-19" x="179.0444" y="0">t</tspan><tspan class="cls-21" x="204.5166" y="0">s</tspan></text>
    <text class="cls-55" transform="translate(869.4203 751.6678)"><tspan class="cls-65" x="0" y="0">T</tspan><tspan class="cls-53" x="35.083" y="0">he </tspan><tspan class="cls-56" x="129.6455" y="0">L</tspan><tspan class="cls-57" x="164.124" y="0">a</tspan><tspan class="cls-53" x="199.3423" y="0">s</tspan><tspan x="229.1162" y="0">t</tspan></text>
    <text class="cls-55" transform="translate(869.4203 835.6814)"><tspan class="cls-60" x="0" y="0">4</tspan><tspan class="cls-19" x="38.2422" y="0" xml:space="preserve"> D</tspan><tspan class="cls-13" x="105.3833" y="0">i</tspan><tspan class="cls-53" x="123.7319" y="0">g</tspan><tspan class="cls-57" x="162.1758" y="0">i</tspan><tspan class="cls-53" x="180.5913" y="0">t</tspan><tspan class="cls-21" x="206.063" y="0">s</tspan></text>
    <g class="cls-22">
      <g class="cls-63">
        <g class="cls-25">
          <text class="cls-6" transform="translate(597.7084 802.075)"><tspan x="0" y="0">+</tspan></text>
        </g>
      </g>
      <g class="cls-63">
        <g class="cls-24">
          <text class="cls-6" transform="translate(1266.4486 802.075)"><tspan x="0" y="0">+</tspan></text>
        </g>
      </g>
      <g class="cls-63">
        <g class="cls-23">
          <text class="cls-7" transform="translate(1885.1341 535.5525)"><tspan x="0" y="0">=</tspan></text>
        </g>
      </g>
    </g>
    <text class="cls-55" transform="translate(2092.0482 586.1629)"><tspan class="cls-70" x="0" y="0">I</tspan><tspan class="cls-20" x="19.0195" y="0">nstant </tspan><tspan class="cls-54" x="233.0127" y="0">V</tspan><tspan class="cls-58" x="269.8428" y="0">e</tspan><tspan class="cls-53" x="305.7334" y="0">rifi</tspan><tspan class="cls-69" x="390.8877" y="0">c</tspan><tspan class="cls-53" x="422.9463" y="0">atio</tspan><tspan class="cls-5" x="540.6963" y="0">n</tspan></text>
    <text class="cls-55" transform="translate(2092.0482 670.1765)"><tspan class="cls-60" x="0" y="0">A</tspan><tspan class="cls-20" x="42.207" y="0">gainst I</tspan><tspan class="cls-16" x="266.8193" y="0">s</tspan><tspan class="cls-53" x="296.1904" y="0">sue</tspan><tspan class="cls-60" x="399.2227" y="0">r</tspan><tspan class="cls-53" x="424.8291" y="0"> </tspan><tspan class="cls-66" x="444.0498" y="0">B</tspan><tspan class="cls-53" x="483.9053" y="0">an</tspan><tspan x="558.5752" y="0">k </tspan></text>
    <text class="cls-55" transform="translate(2092.0482 754.1883)"><tspan class="cls-59" x="0" y="0">R</tspan><tspan class="cls-66" x="38.9141" y="0">e</tspan><tspan class="cls-51" x="74.2666" y="0">c</tspan><tspan class="cls-53" x="106.2578" y="0">o</tspan><tspan class="cls-52" x="144.7686" y="0">r</tspan><tspan class="cls-58" x="169.7031" y="0">d</tspan><tspan class="cls-53" x="208.4834" y="0">s &amp; C</tspan><tspan class="cls-58" x="362.459" y="0">u</tspan><tspan class="cls-20" x="399.6934" y="0">s</tspan><tspan class="cls-31" x="429.4678" y="0">t</tspan><tspan class="cls-53" x="453.8633" y="0">ome</tspan><tspan x="587.0049" y="0">r </tspan></text>
    <text class="cls-55" transform="translate(2092.0482 838.2019)"><tspan class="cls-15" x="0" y="0">K</tspan><tspan class="cls-67" x="40.6621" y="0">Y</tspan><tspan class="cls-53" x="76.1484" y="0">C </tspan><tspan class="cls-52" x="136.4346" y="0">D</tspan><tspan class="cls-53" x="183.6152" y="0">ata</tspan><tspan x="279.6582" y="0">.</tspan></text>
    <g class="cls-29">
      <path class="cls-12" d="M268.3783,450.0622h-104.1756c-11.135,0-20.163,9.028-20.163,20.163v205.8308"/>
      <path class="cls-12" d="M1021.4825,450.0622h87.862c11.1349,0,20.163,9.028,20.163,20.163v205.8308"/>
    </g>
    <text class="cls-55" transform="translate(1468.9427 751.6678)"><tspan class="cls-53" x="0" y="0">And </tspan><tspan x="139.7266" y="0">a </tspan></text>
    <text class="cls-55" transform="translate(1468.9427 835.6814)"><tspan class="cls-53" x="0" y="0">Z</tspan><tspan class="cls-60" x="37.3682" y="0">i</tspan><tspan class="cls-20" x="55.7832" y="0">p </tspan><tspan class="cls-17" x="113.8516" y="0">C</tspan><tspan class="cls-14" x="153.6396" y="0">o</tspan><tspan class="cls-58" x="191.6123" y="0">d</tspan><tspan x="230.3926" y="0">e</tspan></text>
    <g class="cls-28">
      <g class="cls-61">
        <g class="cls-26">
          <rect class="cls-1" x="1424.4154" y="386.2127" width="381.3918" height="132.7398" rx="30.2445" ry="30.2445"/>
        </g>
      </g>
    </g>
    <text class="cls-8" transform="translate(1473.9847 472.2264)"><tspan class="cls-64" x="0" y="0">9</tspan><tspan class="cls-17" x="37.5703" y="0">4</tspan><tspan class="cls-20" x="77.6934" y="0">1</tspan><tspan class="cls-58" x="109.3496" y="0">1</tspan><tspan x="140.9385" y="0">1</tspan></text>
    <line class="cls-10" x1="1473.9828" y1="493.7487" x2="1473.9828" y2="676.056"/>
    <g class="cls-27">
      <path class="cls-11" d="M1556.1764,287.235c0,19.4321-15.8548,35.1828-35.4096,35.1828s-35.4113-15.7507-35.4113-35.1828,15.8548-35.1828,35.4113-35.1828,35.4096,15.7524,35.4096,35.1828ZM1537.1325,391.4475c-4.3872,4.0813-10.2512,6.3631-16.3556,6.3631s-11.9668-2.2818-16.3556-6.3631c-40.1798-37.6057-94.0251-79.6153-67.7662-140.6051,14.1981-32.9766,48.2803-54.0789,84.1218-54.0789s69.9254,21.1023,84.1218,54.0789c26.2271,60.9141-27.4872,103.1288-67.7662,140.6051Z"/>
      <path class="cls-3" d="M2200.5133,367.7449c-8.0786-8.0887-16.1624-16.1707-24.2461-24.2544-3.4142-3.4126-8.0214-3.468-11.466-.079-3.4932,3.4361-6.9628,6.8941-10.389,10.3957-3.4259,3.4983-3.4362,7.9913.0437,11.4829,13.7562,13.8033,27.5342,27.5864,41.3425,41.3409,3.5168,3.5033,8.1106,3.5487,11.6174.0487,26.3647-26.3127,52.7011-52.6523,79.0155-79.0155,3.0178-3.0211,3.2647-7.3628.3764-10.5301-3.6327-3.9856-7.4604-7.8182-11.451-11.4458-3.5385-3.2194-7.5896-2.9203-10.9317.4167-15.2802,15.2617-30.5452,30.5369-45.8137,45.8087-5.622,5.6221-11.2375,11.2526-17.0614,17.0831-.4318-.5242-.7039-.9174-1.0366-1.2518"/>
      <path class="cls-3" d="M2341.46,432.534h-10.0782c-1.3929,0-2.5185,1.1274-2.5185,2.5204v22.2079c0,5.4625-4.6174,10.0764-10.0766,10.0764h-22.628c-1.391,0-2.5185,1.1275-2.5185,2.5204v10.0765c0,1.3913,1.1275,2.5204,2.5185,2.5204h22.628c13.8553,0,25.1921-11.3366,25.1921-25.1937v-22.2079c0-1.3929-1.1275-2.5204-2.5187-2.5204"/>
      <path class="cls-3" d="M2140.268,230.5219h-23.0278c-13.8571,0-25.1937,11.3367-25.1937,25.1937v23.4429c0,1.3929,1.1256,2.5204,2.5187,2.5204h10.078c1.3896,0,2.5187-1.1275,2.5187-2.5204v-23.4429c0-5.4608,4.6139-10.0764,10.0782-10.0764h23.0278c1.3913,0,2.5204-1.1291,2.5204-2.5187v-10.0781c0-1.3913-1.1291-2.5204-2.5204-2.5204"/>
      <path class="cls-3" d="M2318.786,230.5219h-22.6262c-1.3913,0-2.5204,1.1291-2.5204,2.5204v10.0781c0,1.3896,1.1291,2.5187,2.5204,2.5187h22.6262c5.4608,0,10.0764,4.6156,10.0764,10.0764v23.4429c0,1.3929,1.1258,2.5204,2.5204,2.5204h10.0766c1.3929,0,2.5187-1.1275,2.5187-2.5204v-23.4429c0-13.857-11.3368-25.1937-25.1921-25.1937"/>
      <path class="cls-3" d="M2140.268,467.339h-23.0278c-5.4643,0-10.0782-4.6157-10.0782-10.0765v-22.2095c0-1.3929-1.1291-2.5187-2.5187-2.5187h-10.078c-1.3931,0-2.5187,1.1257-2.5187,2.5187v22.2095c0,13.8554,11.3366,25.192,25.1937,25.192h23.0278c1.3913,0,2.5204-1.1291,2.5204-2.5187v-10.0765c0-1.3929-1.1291-2.5204-2.5204-2.5204"/>
      <path class="cls-4" d="M1032.3691,99.7485v1.6987c8.9087,0,16.9991,3.6277,22.88,9.4834,5.8775,5.859,9.5169,13.9209,9.5186,22.7959v470.8501c0,8.8767-3.6411,16.937-9.5186,22.796-5.8809,5.8557-13.9713,9.4833-22.88,9.4833H253.7794c-8.9086,0-16.9991-3.626-22.8799-9.4817-5.8775-5.8607-9.5169-13.9209-9.5186-22.7976V133.7265c0-8.8751,3.6411-16.9369,9.5186-22.7959,5.8792-5.8557,13.9713-9.4817,22.8799-9.4834h778.5897v-3.3974H253.7794c-19.706.0067-35.8028,16.043-35.8078,35.6767v470.8501c.0067,19.6337,16.1018,35.6717,35.8078,35.6785h778.5897c19.706-.0067,35.8011-16.0447,35.8095-35.6785l-.0017-470.8501c-.0067-19.6337-16.1018-35.67-35.8078-35.6767v1.6987Z"/>
      <path class="cls-4" d="M308.3152,283.9514v-.3092c-6.7428.0084-12.2188,4.8761-12.2188,10.9031v63.6479c0,6.0405,5.4759,10.9032,12.2188,10.9166h71.3115c6.7378-.0134,12.2154-4.8761,12.2154-10.9166v-63.6479c0-6.0271-5.4776-10.8947-12.2154-10.9031h-71.3115v.6133h71.3115c6.3833,0,11.5332,4.6157,11.5484,10.2898v63.6479c-.0134,5.6843-5.1651,10.2983-11.5484,10.2983h-71.3115c-6.3883,0-11.5433-4.614-11.5517-10.2983v-63.6479c.0084-5.6742,5.1634-10.2898,11.5517-10.2898v-.3041Z"/>
      <path class="cls-4" d="M309.1679,283.9514v-1.1594h-.8536c-7.1427.0034-13.0555,5.1802-13.0707,11.7533v63.6479c.0134,6.5849,5.9296,11.7584,13.0707,11.7651h71.3132c7.1377-.0067,13.0522-5.1802,13.0673-11.7651v-63.6479c-.0151-6.5731-5.9296-11.75-13.0673-11.7533h-72.1651v2.3137h72.1651c5.98.005,10.683,4.3082,10.6948,9.4413v63.6462c-.0117,5.1399-4.7148,9.443-10.6948,9.4481h-71.3116c-2.9875,0-5.6708-1.0788-7.5998-2.801-1.9289-1.7239-3.095-4.0679-3.1001-6.6471v-63.6479c.005-2.5758,1.1711-4.9164,3.1001-6.6403,1.9272-1.7206,4.6123-2.7993,7.5998-2.7993h.8519v-1.1544h-1.7055v.3041h.8536v-.8485c-6.7899-.0067-12.3801,4.9198-12.4053,11.1367v63.6496c.0235,6.227,5.6154,11.1535,12.4053,11.1485h71.3116c6.7848.005,12.37-4.9215,12.4002-11.1451v-63.6513c-.0302-6.2186-5.6154-11.1451-12.4002-11.1384h-71.3116v.8485h.8519v-.6133h-.8519v.8502h71.3116c3.1605.0034,6.0136,1.1493,8.0652,2.9774,2.0516,1.8332,3.2967,4.3233,3.2967,7.0755v63.6479c0,2.759-1.2451,5.2525-3.2967,7.0856-2.0516,1.8298-4.9046,2.9757-8.0669,2.9807h-71.3099c-3.1639-.005-6.0186-1.151-8.0702-2.9807-2.0516-1.8332-3.2967-4.3267-3.2983-7.0856v-63.6479c.0017-2.7523,1.2451-5.2424,3.2983-7.0755,2.0516-1.8281,4.9063-2.974,8.0702-2.9774v-.8502h-.8536v.3092h1.7055Z"/>
    </g>
    <polygon class="cls-4" points="391.0536 345.956 360.7436 345.956 354.6274 335.1386 330.7578 335.1386 330.7578 335.9115 354.1183 335.9115 360.2344 346.7239 391.0536 346.7239 391.0536 345.956"/>
    <polygon class="cls-4" points="391.0536 345.1067 361.2426 345.1067 355.1248 334.2892 329.9042 334.2892 329.9042 335.9123 329.9042 336.7608 353.6193 336.7608 359.7371 347.5733 391.9055 347.5733 391.9055 345.9569 390.2017 345.9569 390.2017 346.7248 391.0536 346.7248 391.0536 345.8745 360.7335 345.8745 354.6157 335.0621 330.7578 335.0621 330.7578 335.9123 331.6097 335.9123 331.6097 335.1394 330.7578 335.1394 330.7578 335.9879 354.1284 335.9879 360.2462 346.8054 391.0536 346.8054 391.0536 345.1067"/>
    <polygon class="cls-4" points="355.1641 335.3666 355.1641 313.2259 331.2188 313.2259 320.2132 303.3998 297.4542 303.3998 297.4542 304.1694 319.8721 304.1694 330.8778 313.9938 354.3273 313.9938 354.3273 335.3666 355.1641 335.3666"/>
    <polygon class="cls-4" points="356.0167 335.3666 356.0167 312.3774 331.5455 312.3774 320.5399 302.5513 296.6013 302.5513 296.6013 304.1694 296.6013 305.0179 319.5452 305.0179 330.5508 314.844 353.4761 314.844 353.4761 336.2168 355.1648 336.2168 355.1648 334.5164 354.328 334.5164 354.328 335.3666 355.1799 335.3666 355.1799 313.1453 331.2044 313.1453 320.1988 303.3192 297.4549 303.3192 297.4549 304.1694 298.3068 304.1694 298.3068 303.3998 297.4549 303.3998 297.4549 304.25 319.8862 304.25 330.8919 314.0762 354.3112 314.0762 354.3112 335.3666 356.0167 335.3666"/>
    <polygon class="cls-4" points="330.6259 313.6206 330.6259 335.0522 318.639 345.7706 297.4594 345.7722 297.4594 346.5401 318.9801 346.5401 331.461 335.3782 331.461 313.6206 330.6259 313.6206"/>
    <polygon class="cls-4" points="329.7733 313.6206 329.7733 334.6725 318.3123 344.922 296.6069 344.922 296.6069 346.5401 296.6069 347.3887 319.307 347.3887 332.3139 335.7579 332.3139 312.7704 330.6252 312.7704 330.6252 314.4709 331.462 314.4709 331.462 313.6206 330.6084 313.6206 330.6084 335.0001 318.6534 345.6899 297.4587 345.6899 297.4587 346.5401 298.3123 346.5401 298.3123 345.7722 297.4587 345.7722 297.4587 346.6207 318.9659 346.6207 331.4788 335.4319 331.4788 313.6206 329.7733 313.6206"/>
    <rect class="cls-4" x="297.1786" y="326.4898" width="33.8638" height=".7679"/>
    <polygon class="cls-4" points="331.0416 327.2578 331.8935 327.2578 331.8935 326.49 331.8935 325.6397 296.3259 325.6397 296.3259 327.2578 296.3259 328.1081 331.8935 328.1081 331.8935 327.2578 331.0416 327.2578 331.0416 326.4076 297.1795 326.4076 297.1795 327.2578 298.0314 327.2578 298.0314 326.49 297.1795 326.49 297.1795 327.3385 331.0416 327.3385 331.0416 326.49 330.1897 326.49 330.1897 327.2578 331.0416 327.2578 331.0416 326.4076 331.0416 327.2578"/>
    <rect class="cls-4" x="354.7525" y="325.5069" width="36.0061" height=".7729"/>
    <polygon class="cls-4" points="390.7592 326.2791 391.6111 326.2791 391.6111 325.5062 391.6111 324.6577 353.9012 324.6577 353.9012 326.2791 353.9012 327.1293 391.6111 327.1293 391.6111 326.2791 390.7592 326.2791 390.7592 325.4289 354.7531 325.4289 354.7531 326.2791 355.605 326.2791 355.605 325.5062 354.7531 325.5062 354.7531 326.3564 390.7592 326.3564 390.7592 325.5062 389.9073 325.5062 389.9073 326.2791 390.7592 326.2791 390.7592 325.4289 390.7592 326.2791"/>
    <polygon class="cls-4" points="355.0334 313.8999 365.2174 305.1693 391.5771 305.1693 391.5771 304.3964 364.8864 304.3964 354.4587 313.337 355.0334 313.8999"/>
    <polygon class="cls-4" points="355.5896 314.5436 365.5333 306.018 392.4291 306.018 392.4291 304.3965 392.4291 303.5463 364.5688 303.5463 353.2002 313.2968 354.4352 314.5049 355.6316 313.2935 355.0569 312.7322 354.4587 313.3372 355.0149 313.9807 365.2023 305.2451 391.5772 305.2451 391.5772 304.3965 390.7236 304.3965 390.7236 305.1678 391.5772 305.1678 391.5772 304.3192 364.9015 304.3192 354.4772 313.2548 355.5896 314.5436"/>
    <rect class="cls-4" x="339.6705" y="284.9893" width=".8401" height="25.854"/>
    <polygon class="cls-4" points="340.5113 310.8433 341.3632 310.8433 341.3632 284.1408 339.6712 284.1408 338.8176 284.1408 338.8176 311.6936 340.5113 311.6936 341.3632 311.6936 341.3632 310.8433 340.5113 310.8433 340.5113 309.9931 339.6712 309.9931 339.6712 310.8433 340.5231 310.8433 340.5231 284.9893 339.6712 284.9893 339.6712 285.8395 340.5113 285.8395 340.5113 284.9893 339.6594 284.9893 339.6594 310.8433 340.5113 310.8433 340.5113 309.9931 340.5113 310.8433"/>
    <rect class="cls-4" x="339.6705" y="335.3666" width=".8401" height="32.3784"/>
    <polygon class="cls-4" points="340.5113 367.744 341.3632 367.744 341.3632 334.5171 339.6712 334.5171 338.8176 334.5171 338.8176 368.5942 340.5113 368.5942 341.3632 368.5942 341.3632 367.744 340.5113 367.744 340.5113 366.8938 339.6712 366.8938 339.6712 367.744 340.5231 367.744 340.5231 335.3656 339.6712 335.3656 339.6712 336.2158 340.5113 336.2158 340.5113 335.3656 339.6594 335.3656 339.6594 367.744 340.5113 367.744 340.5113 366.8938 340.5113 367.744"/>
    <g class="cls-30">
      <g class="cls-62">
        <g class="cls-44">
          <polygon class="cls-4" points="305.1034 510.3832 296.0956 510.3832 296.0956 526.9454 305.4814 526.9454 305.4814 525.1476 298.2698 525.1476 298.2698 519.1793 304.7102 519.1793 304.7102 517.405 298.2698 517.405 298.2698 512.1743 305.1034 512.1743 305.1034 510.3832"/>
        </g>
      </g>
      <g class="cls-62">
        <g class="cls-49">
          <path class="cls-4" d="M319.7399,510.3857h-2.4952l-2.2297,3.8747c-.6251,1.0535-1.0434,1.8147-1.5105,2.7959h-.0739c-.452-.8754-.9191-1.7088-1.5341-2.7959l-2.191-3.8747h-2.4935l4.8811,8.1744-5.0878,8.3878h2.4784l1.9861-3.6394c.8536-1.4534,1.3291-2.3288,1.813-3.3h.0504c.5074.9712,1.0334,1.8701,1.8953,3.2765l2.149,3.6629h2.4935l-5.1937-8.5037,5.0626-8.0585Z"/>
        </g>
      </g>
      <g class="cls-62">
        <g class="cls-43">
          <path class="cls-4" d="M326.4841,510.2518c-1.7307,0-3.0749.1546-4.1183.3176v16.374h2.1507v-6.637c.5007.1294,1.0905.1462,1.7307.1462,2.0986,0,3.9217-.6032,5.0777-1.8147.8368-.8569,1.282-2.0432,1.282-3.5302,0-1.4887-.5595-2.6985-1.4534-3.4832-.9847-.8821-2.5355-1.3728-4.6694-1.3728M326.2959,518.7287c-.7208,0-1.3123-.042-1.7794-.1714v-6.4337c.368-.0991,1.0905-.1731,2.018-.1731,2.3557,0,3.9301,1.0636,3.9301,3.2714,0,2.2314-1.5744,3.5067-4.1687,3.5067"/>
        </g>
      </g>
      <g class="cls-62">
        <g class="cls-42">
          <path class="cls-4" d="M336.4011,524.1324c-.8788,0-1.4853.6553-1.4853,1.5458,0,.8737.5915,1.5442,1.4282,1.5442.9107,0,1.5021-.6704,1.5021-1.5442,0-.9157-.5915-1.5458-1.445-1.5458"/>
        </g>
      </g>
      <g class="cls-62">
        <g class="cls-41">
          <path class="cls-4" d="M300.6883,534.8478c-1.6987,0-3.2563.1563-4.5703.3764v16.2682c1.0905.1311,2.3473.1949,3.9049.1949,3.2244,0,5.7935-.825,7.3763-2.3709,1.5341-1.5273,2.3876-3.7352,2.3876-6.4404,0-2.6968-.8536-4.6022-2.3641-5.9582-1.4501-1.3257-3.6495-2.0701-6.7345-2.0701M300.4498,549.9802c-.8536,0-1.6399-.0319-2.181-.0975v-13.1144c.5562-.1126,1.4097-.2201,2.517-.2201,4.5384,0,6.7613,2.4784,6.7361,6.4018,0,4.4628-2.4683,7.0302-7.0722,7.0302"/>
        </g>
      </g>
      <g class="cls-62">
        <g class="cls-45">
          <path class="cls-4" d="M319.5455,534.9816h-2.5607l-5.6692,16.5622h2.2163l1.7223-5.2054h5.9077l1.771,5.2054h2.2902l-5.6776-16.5622ZM315.7044,544.6615l1.6248-4.7904c.3445-1.0048.5914-2.0432.8452-2.9993h.042c.2537.9561.499,1.944.8687,3.0245l1.6483,4.7652h-5.029Z"/>
        </g>
      </g>
      <g class="cls-62">
        <g class="cls-47">
          <polygon class="cls-4" points="338.0985 534.9821 325.7839 534.9821 325.7839 536.7984 330.8381 536.7984 330.8381 551.5443 333.0124 551.5443 333.0124 536.7984 338.0985 536.7984 338.0985 534.9821"/>
        </g>
      </g>
      <g class="cls-62">
        <g class="cls-46">
          <polygon class="cls-4" points="348.9304 534.988 339.9226 534.988 339.9226 551.5418 349.3084 551.5418 349.3084 549.7524 342.0968 549.7524 342.0968 543.7757 348.5372 543.7757 348.5372 542.0098 342.0968 542.0098 342.0968 536.7775 348.9304 536.7775 348.9304 534.988"/>
        </g>
      </g>
      <g class="cls-62">
        <g class="cls-50">
          <path class="cls-4" d="M573.7059,426.4681h-15.4347c-2.8867,0-5.2458,2.3574-5.2458,5.234v30.2311c0,2.9287,2.2549,5.234,5.2458,5.234h15.4347c2.9908,0,5.2542-2.3053,5.2542-5.234v-30.2311c0-2.8766-2.3658-5.234-5.2542-5.234M558.2712,431.7021h15.4348v30.2311h-15.4348v-30.2311Z"/>
        </g>
      </g>
      <g class="cls-62">
        <g class="cls-48">
          <path class="cls-4" d="M611.5272,426.4684h-18.061c-1.3661,0-2.6279.7359-2.6279,2.6162,0,1.8852,1.2618,2.6178,2.6279,2.6178h18.061v8.6835c0,2.927-1.1594,3.8175-2.6262,3.8175h-10.2915c-1.3627,0-2.6246.7309-2.6246,2.6179,0,1.8785,1.2619,2.6111,2.6246,2.6111h10.2915c1.4668,0,2.6262.8889,2.6262,3.8175v8.6818h-18.061c-1.3661,0-2.6279.7377-2.6279,2.6179,0,1.8819,1.2618,2.6162,2.6279,2.6162h18.061c2.9908,0,5.2474-2.2482,5.2474-5.234v-10.0412c0-2.0919-.4201-3.6092-2.0465-5.0693,1.6265-1.4669,2.0465-2.9858,2.0465-5.076v-10.0429c0-2.9841-2.2566-5.234-5.2474-5.234"/>
        </g>
      </g>
      <g class="cls-62">
        <g class="cls-32">
          <path class="cls-4" d="M671.8814,426.4681h-3.1488c-1.8365,0-2.2583,1.4164-2.2583,2.6178v34.7846c0,2.4078.9443,3.2967,3.4126,3.2967h19.1112c2.3591,0,3.4109-.8384,3.4109-3.2967v-11.7197c0-2.4028-.5209-3.5-3.1488-3.5h-17.5334v-16.9487c1.5189,0,2.6229-1.0485,2.6229-2.6162,0-1.3593-1.1039-2.6178-2.4683-2.6178M671.7268,453.8781h15.4348v8.0534h-15.4348v-8.0534Z"/>
        </g>
      </g>
      <g class="cls-62">
        <g class="cls-33">
          <path class="cls-4" d="M724.9773,426.4681h-15.4348c-2.8883,0-5.2475,2.3574-5.2475,5.234v30.2311c0,2.9287,2.2583,5.234,5.2475,5.234h15.4348c2.9908,0,5.2524-2.3053,5.2524-5.234v-30.2311c0-2.8766-2.3641-5.234-5.2524-5.234M709.5425,431.7021h15.4348v30.2311h-15.4348v-30.2311Z"/>
        </g>
      </g>
      <g class="cls-62">
        <g class="cls-36">
          <path class="cls-4" d="M762.7981,426.4681h-15.4348c-2.8883,0-5.2542,2.3574-5.2542,5.234v30.2311c0,2.9287,2.2582,5.234,5.2542,5.234h15.4348c2.9908,0,5.2474-2.3053,5.2474-5.234v-30.2311c0-2.8766-2.3658-5.234-5.2474-5.234M747.3633,431.7021h15.4348v30.2311h-15.4348v-30.2311Z"/>
        </g>
      </g>
      <g class="cls-62">
        <g class="cls-35">
          <path class="cls-4" d="M785.1782,426.4684c-1.9961,0-2.6262,1.3089-2.6262,2.6162v24.7938h15.4347v10.6713c0,1.6769.7377,2.6162,2.6263,2.6162,1.892,0,2.6262-.9393,2.6262-2.6162v-10.6713c1.3644,0,2.6263-.7309,2.6263-2.6161,0-1.8819-1.2619-2.6128-2.6263-2.6128v-15.1172c0-1.309-.6301-2.6179-2.6262-2.6179s-2.6263,1.3089-2.6263,2.6179v15.1172h-10.1823v-19.5648c0-1.3073-.6301-2.6162-2.6262-2.6162"/>
        </g>
      </g>
      <path class="cls-3" d="M306.3595,448.6499v-15.1172c0-1.3089.6318-2.6178,2.6262-2.6178,1.9911,0,2.6212,1.3089,2.6212,2.6178v15.1172c1.3644,0,2.6262.7309,2.6262,2.6111,0,1.8853-1.2619,2.6162-2.6262,2.6162v10.6713c0,1.6769-.7326,2.6178-2.6212,2.6178-1.892,0-2.6262-.9409-2.6262-2.6178v-10.6713h-15.4348v-24.7921c0-1.3089.6318-2.6161,2.6262-2.6161,1.9961,0,2.6212,1.3072,2.6212,2.6161v19.5649h10.1874Z"/>
      <path class="cls-3" d="M331.3659,461.9323h15.4348v-8.0551h-15.4348v8.0551ZM331.3659,448.6499h17.5334c2.6262,0,3.1538,1.0989,3.1538,3.5v11.7198c0,2.4582-1.0518,3.2966-3.4159,3.2966h-19.1078c-2.4666,0-3.4109-.8888-3.4109-3.2966v-34.7846c0-1.2014.4218-2.6161,2.2566-2.6161h3.1505c1.3644,0,2.4666,1.2568,2.4666,2.6161,0,1.5694-1.1023,2.6162-2.6262,2.6162v16.9487Z"/>
      <path class="cls-3" d="M384.6214,431.7024h-15.4348v30.2311h15.4348v-30.2311ZM384.6214,426.4684c2.8833,0,5.2474,2.3574,5.2474,5.234v30.2311c0,2.927-2.2566,5.2323-5.2474,5.2323h-15.4348c-2.9959,0-5.2525-2.3053-5.2525-5.2323v-30.2311c0-2.8765,2.3641-5.234,5.2525-5.234h15.4348Z"/>
      <path class="cls-3" d="M422.4361,461.9328v-10.5637c0-1.519.6822-2.6179,2.6262-2.6179,1.939,0,2.6262,1.0989,2.6262,2.6179v13.1799c0,1.8802-1.2619,2.6178-2.6262,2.6178h-20.6872c-1.3644,0-2.6212-.7376-2.6212-2.6178s1.2568-2.6162,2.6212-2.6162h7.7191v-30.2311h-7.7191c-1.3644,0-2.6212-.7309-2.6212-2.6162,0-1.8819,1.2568-2.6178,2.6212-2.6178h12.9682v35.465h5.0929Z"/>
      <path class="cls-3" d="M480.0105,431.7021c-1.3644,0-2.6212-.7309-2.6212-2.6162,0-1.8819,1.2568-2.6178,2.6212-2.6178h18.061c2.9909,0,5.2525,2.2498,5.2525,5.234v10.0428c0,2.0903-.4201,3.6092-2.0516,5.0744,1.6315,1.4618,2.0516,2.9807,2.0516,5.071v10.0428c0,2.9841-2.2616,5.234-5.2525,5.234h-18.061c-1.3644,0-2.6212-.7376-2.6212-2.6178s1.2568-2.6162,2.6212-2.6162h18.061v-8.6835c0-2.9287-1.1543-3.8175-2.6262-3.8175h-10.2899c-1.3644,0-2.6212-.7309-2.6212-2.6128,0-1.8853,1.2568-2.6162,2.6212-2.6162h10.2899c1.4719,0,2.6262-.8888,2.6262-3.8175v-8.6835h-18.061Z"/>
      <path class="cls-3" d="M530.6391,431.7024h-4.9349v12.5011h4.9349v-12.5011ZM535.8916,449.4308h-15.4348v12.501h15.4348v-12.501ZM533.2654,426.4684c1.7844,0,2.6262,1.2568,2.6262,2.6179v15.1172c1.6265,0,2.8833.573,3.8327,1.4618.9426.8889,1.4148,2.1978,1.4148,3.8226v12.4456c0,3.1942-1.9945,5.2323-5.2475,5.2323h-15.4348c-3.258,0-5.2525-2.0382-5.2525-5.2323v-12.4456c0-1.6248.4721-2.9337,1.4215-3.8226.9426-.8888,2.1995-1.4618,3.831-1.4618v-15.1172c0-1.3611.8368-2.6179,2.6212-2.6179h10.1874Z"/>
      <path class="cls-3" d="M876.2478,431.703h-15.4348v8.1576h15.4348v-8.1576ZM876.2478,445.0929h-18.061c-1.4669,0-2.6212-1.2568-2.6212-2.6179v-13.3899c0-1.3593,1.1543-2.6162,2.6212-2.6162h20.6872c1.4669,0,2.6263,1.2569,2.6263,2.6162v35.465c0,1.4098-1.0518,2.6162-2.6263,2.6162h-2.6262c-1.5744,0-2.6262-1.2064-2.6262-2.6162,0-1.5693,1.1022-2.6178,2.6262-2.6178v-16.8395Z"/>
      <path class="cls-3" d="M908.8154,431.7024h-4.9349v12.5011h4.9349v-12.5011ZM914.0678,449.4308h-15.4347v12.501h15.4347v-12.501ZM911.4416,426.4684c1.7844,0,2.6262,1.2568,2.6262,2.6179v15.1172c1.6265,0,2.8833.573,3.8327,1.4618.9426.8889,1.4148,2.1978,1.4148,3.8226v12.4456c0,3.1942-1.9945,5.2323-5.2475,5.2323h-15.4347c-3.2581,0-5.2525-2.0382-5.2525-5.2323v-12.4456c0-1.6248.4722-2.9337,1.4215-3.8226.9426-.8888,2.1995-1.4618,3.831-1.4618v-15.1172c0-1.3611.8367-2.6179,2.6212-2.6179h10.1873Z"/>
      <path class="cls-3" d="M936.4481,461.9323h15.4348v-8.0551h-15.4348v8.0551ZM936.4481,448.6499h17.5334c2.6262,0,3.1539,1.0989,3.1539,3.5v11.7198c0,2.4582-1.0518,3.2966-3.416,3.2966h-19.1078c-2.4666,0-3.4109-.8888-3.4109-3.2966v-34.7846c0-1.2014.4217-2.6161,2.2566-2.6161h3.1505c1.3644,0,2.4666,1.2568,2.4666,2.6161,0,1.5694-1.1022,2.6162-2.6262,2.6162v16.9487Z"/>
      <path class="cls-3" d="M989.7035,461.9328v-10.5637c0-1.519.6822-2.6179,2.6212-2.6179,1.944,0,2.6262,1.0989,2.6262,2.6179v13.1799c0,1.8802-1.2618,2.6178-2.6262,2.6178h-20.6822c-1.3643,0-2.6262-.7376-2.6262-2.6178s1.2619-2.6162,2.6262-2.6162h7.714v-30.2311h-7.714c-1.3643,0-2.6262-.7309-2.6262-2.6162,0-1.8819,1.2619-2.6178,2.6262-2.6178h12.9666v35.465h5.0945Z"/>
      <g class="cls-62">
        <g class="cls-34">
          <path class="cls-4" d="M416.4345,516.9261h-10.9771c-2.0566,0-3.7335,1.6769-3.7335,3.7217v21.5055c0,2.0818,1.6046,3.7167,3.7335,3.7167h10.9771c2.1255,0,3.7352-1.6349,3.7352-3.7167v-21.5055c0-2.0449-1.6819-3.7217-3.7352-3.7217M405.4574,520.6479h10.9771v21.5055h-10.9771v-21.5055Z"/>
        </g>
      </g>
      <g class="cls-62">
        <g class="cls-37">
          <path class="cls-4" d="M445.1987,516.9261h-14.7123c-1.0451,0-1.8651.8956-1.8651,1.8634v9.5237c0,.9678.8199,1.8584,1.8651,1.8584h12.8472v11.9819c-1.0854,0-1.8718.741-1.8718,1.86,0,1.0031.7494,1.8567,1.8718,1.8567h1.8651c1.1207,0,1.8684-.8536,1.8684-1.8567v-25.2239c0-.9678-.8233-1.8634-1.8684-1.8634M432.3565,520.6479h10.9771v5.8019h-10.9771v-5.8019Z"/>
        </g>
      </g>
      <g class="cls-62">
        <g class="cls-40">
          <path class="cls-4" d="M472.1321,516.9265c-.9309,0-1.3812.6721-1.8281,1.4181l-13.9646,23.8461c-.373.5948-.8199,1.2249-.8199,1.9306,0,.9678.9342,1.7491,1.8651,1.7491.9342,0,1.3812-.5175,1.8281-1.2988l14.3376-24.4426c.2285-.4117.415-.8586.415-1.4534,0-.9678-.862-1.7491-1.8332-1.7491"/>
        </g>
      </g>
      <g class="cls-62">
        <g class="cls-38">
          <path class="cls-4" d="M496.6811,516.9265h-12.3986c-.9729,0-1.8668.5226-1.8668,1.8634,0,1.3392.8939,1.8584,1.8668,1.8584h12.8472v8.8919h-10.4949c-2.801,0-4.2191,1.4131-4.2191,4.2023v12.1281h16.579c.9712,0,1.8684-.5175,1.8684-1.8584s-.8972-1.8584-1.8684-1.8584h-12.8438v-8.8919h10.5301c1.2316,0,2.0885-.1865,3.0228-1.0451,1.0451-.9628,1.1594-1.9676,1.1594-3.3084v-7.6283c0-1.3375-.1142-2.3406-1.1594-3.3084-.9342-.8586-1.7911-1.0451-3.0228-1.0451"/>
        </g>
      </g>
      <g class="cls-62">
        <g class="cls-39">
          <path class="cls-4" d="M513.0492,516.9265c-1.4181,0-1.8684.9309-1.8684,1.8634v17.6343h10.9754v7.588c0,1.1896.5259,1.8584,1.8701,1.8584,1.3459,0,1.8667-.6687,1.8667-1.8584v-7.588c.9695,0,1.8684-.5226,1.8684-1.8617,0-1.3375-.8989-1.8601-1.8684-1.8601v-10.7502c0-.9309-.4469-1.8617-1.8667-1.8617-1.4181,0-1.8701.9309-1.8701,1.8617v10.7502h-7.2419v-13.9125c0-.9325-.447-1.8634-1.8651-1.8634"/>
        </g>
      </g>
    </g>
  </g>
</svg>