<?xml version="1.0" encoding="UTF-8"?>
<svg id="Layer_3" data-name="Layer 3" xmlns="http://www.w3.org/2000/svg" xmlns:xlink="http://www.w3.org/1999/xlink" version="1.1" viewBox="0 0 2918.3 631">
  <defs>
    <style>
      .cls-1 {
        stroke-width: 2px;
      }

      .cls-1, .cls-2, .cls-3, .cls-4, .cls-5, .cls-6, .cls-7, .cls-8, .cls-9, .cls-10 {
        fill: none;
      }

      .cls-1, .cls-2, .cls-4, .cls-7, .cls-8, .cls-9, .cls-10 {
        stroke: #96d9fa;
      }

      .cls-1, .cls-2, .cls-4, .cls-8, .cls-9 {
        stroke-linecap: round;
      }

      .cls-1, .cls-2, .cls-8 {
        stroke-linejoin: round;
      }

      .cls-2, .cls-6, .cls-9 {
        stroke-width: 4px;
      }

      .cls-11 {
        clip-path: url(#clippath);
      }

      .cls-3, .cls-12 {
        stroke-width: 0px;
      }

      .cls-13 {
        letter-spacing: 0em;
      }

      .cls-13, .cls-14, .cls-15, .cls-16, .cls-17, .cls-18, .cls-19, .cls-20, .cls-21, .cls-22, .cls-23, .cls-24, .cls-25, .cls-26, .cls-27, .cls-28 {
        isolation: isolate;
      }

      .cls-13, .cls-14, .cls-15, .cls-16, .cls-17, .cls-18, .cls-19, .cls-20, .cls-21, .cls-22, .cls-23, .cls-24, .cls-26, .cls-27 {
        fill: #fff;
        font-family: MonsalGothic-Regular, 'Monsal Gothic';
        font-size: 63.4px;
      }

      .cls-15 {
        letter-spacing: 0em;
      }

      .cls-16 {
        letter-spacing: 0em;
      }

      .cls-17 {
        letter-spacing: 0em;
      }

      .cls-4, .cls-7, .cls-8, .cls-10 {
        stroke-width: 3px;
      }

      .cls-18 {
        letter-spacing: 0em;
      }

      .cls-5 {
        stroke-width: 9px;
      }

      .cls-5, .cls-6 {
        stroke: #212e5c;
      }

      .cls-19 {
        letter-spacing: 0em;
      }

      .cls-20 {
        letter-spacing: 0em;
      }

      .cls-29 {
        clip-path: url(#clippath-1);
      }

      .cls-30 {
        clip-path: url(#clippath-4);
      }

      .cls-31 {
        clip-path: url(#clippath-3);
      }

      .cls-32 {
        clip-path: url(#clippath-2);
      }

      .cls-33 {
        clip-path: url(#clippath-7);
      }

      .cls-34 {
        clip-path: url(#clippath-8);
      }

      .cls-35 {
        clip-path: url(#clippath-6);
      }

      .cls-36 {
        clip-path: url(#clippath-5);
      }

      .cls-37 {
        clip-path: url(#clippath-9);
      }

      .cls-21 {
        letter-spacing: 0em;
      }

      .cls-22 {
        letter-spacing: 0em;
      }

      .cls-23 {
        letter-spacing: 0em;
      }

      .cls-24 {
        letter-spacing: 0em;
      }

      .cls-25 {
        fill: #99d6f5;
        font-family: MonsalGothic-Bold, 'Monsal Gothic';
        font-size: 126.9px;
        font-weight: 700;
      }

      .cls-26 {
        letter-spacing: 0em;
      }

      .cls-38 {
        opacity: .5;
      }

      .cls-27 {
        letter-spacing: 0em;
      }

      .cls-12 {
        fill: #96d9fa;
      }

      .cls-10 {
        stroke-miterlimit: 10;
      }
    </style>
    <clipPath id="clippath">
      <rect class="cls-3" x="99.8" y="104.7" width="2798.5" height="583.8"/>
    </clipPath>
    <clipPath id="clippath-1">
      <rect class="cls-3" x="99.8" y="104.7" width="2798.5" height="583.8"/>
    </clipPath>
    <clipPath id="clippath-2">
      <rect class="cls-3" x="440.1" y="130" width="301" height="218.7"/>
    </clipPath>
    <clipPath id="clippath-3">
      <rect class="cls-3" x="1085.5" y="130" width="301" height="218.7"/>
    </clipPath>
    <clipPath id="clippath-4">
      <rect class="cls-3" x="1690.9" y="130" width="301" height="218.7"/>
    </clipPath>
    <clipPath id="clippath-5">
      <rect class="cls-3" x="99.8" y="104.7" width="2798.5" height="583.8"/>
    </clipPath>
    <clipPath id="clippath-6">
      <rect class="cls-3" x="99.8" y="104.7" width="2798.5" height="583.8"/>
    </clipPath>
    <clipPath id="clippath-7">
      <rect class="cls-3" x="99.8" y="104.7" width="2798.5" height="583.8"/>
    </clipPath>
    <clipPath id="clippath-8">
      <rect class="cls-3" x="99.8" y="104.7" width="2798.5" height="583.8"/>
    </clipPath>
    <clipPath id="clippath-9">
      <rect class="cls-3" x="99.8" y="104.7" width="2798.5" height="583.8"/>
    </clipPath>
  </defs>
  <g class="cls-11">
    <g>
      <g class="cls-28">
        <text class="cls-15" transform="translate(125.7 466.5)"><tspan x="0" y="0">N</tspan></text>
        <text class="cls-22" transform="translate(169.3 466.5)"><tspan x="0" y="0">a</tspan></text>
        <text class="cls-15" transform="translate(202.5 466.5)"><tspan x="0" y="0">m</tspan></text>
        <text class="cls-14" transform="translate(257.9 466.5)"><tspan x="0" y="0">e</tspan></text>
      </g>
      <g class="cls-28">
        <text class="cls-26" transform="translate(125.7 545.8)"><tspan x="0" y="0">V</tspan></text>
        <text class="cls-15" transform="translate(160.4 545.8)"><tspan x="0" y="0">erifi</tspan></text>
        <text class="cls-18" transform="translate(274.7 545.8)"><tspan x="0" y="0">c</tspan></text>
        <text class="cls-22" transform="translate(304.9 545.8)"><tspan x="0" y="0">a</tspan></text>
        <text class="cls-15" transform="translate(338.2 545.8)"><tspan x="0" y="0">t</tspan></text>
        <text class="cls-22" transform="translate(362.2 545.8)"><tspan x="0" y="0">i</tspan></text>
        <text class="cls-15" transform="translate(379.6 545.8)"><tspan x="0" y="0">o</tspan></text>
        <text class="cls-14" transform="translate(415.9 545.8)"><tspan x="0" y="0">n</tspan></text>
      </g>
      <g class="cls-28">
        <text class="cls-19" transform="translate(743.3 466.5)"><tspan x="0" y="0">A</tspan></text>
        <text class="cls-22" transform="translate(781.5 466.5)"><tspan x="0" y="0">d</tspan></text>
        <text class="cls-15" transform="translate(818.1 466.5)"><tspan x="0" y="0">d</tspan></text>
        <text class="cls-16" transform="translate(854.8 466.5)"><tspan x="0" y="0">re</tspan></text>
        <text class="cls-20" transform="translate(911.4 466.5)"><tspan x="0" y="0">s</tspan></text>
        <text class="cls-14" transform="translate(939.2 466.5)"><tspan x="0" y="0">s</tspan></text>
      </g>
      <g class="cls-28">
        <text class="cls-26" transform="translate(743.3 545.8)"><tspan x="0" y="0">V</tspan></text>
        <text class="cls-15" transform="translate(778 545.8)"><tspan x="0" y="0">e</tspan></text>
        <text class="cls-22" transform="translate(811.9 545.8)"><tspan x="0" y="0">rifi</tspan></text>
        <text class="cls-23" transform="translate(892.1 545.8)"><tspan x="0" y="0">c</tspan></text>
        <text class="cls-15" transform="translate(922.4 545.8)"><tspan x="0" y="0">atio</tspan></text>
        <text class="cls-14" transform="translate(1033.5 545.8)"><tspan x="0" y="0">n</tspan></text>
      </g>
      <g class="cls-28">
        <text class="cls-15" transform="translate(1356.6 466.5)"><tspan x="0" y="0">Phone I</tspan></text>
        <text class="cls-14" transform="translate(1572.8 466.5)"><tspan x="0" y="0">D</tspan></text>
      </g>
      <g class="cls-28">
        <text class="cls-26" transform="translate(1356.6 545.8)"><tspan x="0" y="0">V</tspan></text>
        <text class="cls-15" transform="translate(1391.3 545.8)"><tspan x="0" y="0">e</tspan></text>
        <text class="cls-22" transform="translate(1425.2 545.8)"><tspan x="0" y="0">r</tspan></text>
        <text class="cls-15" transform="translate(1449.4 545.8)"><tspan x="0" y="0">if</tspan></text>
        <text class="cls-22" transform="translate(1488.1 545.8)"><tspan x="0" y="0">i</tspan></text>
        <text class="cls-23" transform="translate(1505.5 545.8)"><tspan x="0" y="0">c</tspan></text>
        <text class="cls-15" transform="translate(1535.8 545.8)"><tspan x="0" y="0">atio</tspan></text>
        <text class="cls-14" transform="translate(1646.9 545.8)"><tspan x="0" y="0">n</tspan></text>
      </g>
      <g class="cls-28">
        <text class="cls-15" transform="translate(1933.4 466.5)"><tspan x="0" y="0">Se</tspan></text>
        <text class="cls-22" transform="translate(2002.4 466.5)"><tspan x="0" y="0">l</tspan></text>
        <text class="cls-23" transform="translate(2018.1 466.5)"><tspan x="0" y="0">e</tspan></text>
        <text class="cls-21" transform="translate(2051.6 466.5)"><tspan x="0" y="0">c</tspan></text>
        <text class="cls-15" transform="translate(2082.3 466.5)"><tspan x="0" y="0">t othe</tspan></text>
        <text class="cls-22" transform="translate(2256 466.5)"><tspan x="0" y="0">r</tspan></text>
        <text class="cls-15" transform="translate(2280.1 466.5)"><tspan x="0" y="0"> </tspan></text>
        <text class="cls-20" transform="translate(2298.3 466.5)"><tspan x="0" y="0">K</tspan></text>
        <text class="cls-17" transform="translate(2336.7 466.5)"><tspan x="0" y="0">Y</tspan></text>
        <text class="cls-15" transform="translate(2370.2 466.5)"><tspan x="0" y="0">C </tspan></text>
        <text class="cls-16" transform="translate(2427.1 466.5)"><tspan x="0" y="0">s</tspan></text>
        <text class="cls-15" transform="translate(2454.4 466.5)"><tspan x="0" y="0">ervi</tspan></text>
        <text class="cls-14" transform="translate(2562 466.5)"><tspan x="0" y="0">c</tspan></text>
        <text class="cls-16" transform="translate(2592.2 466.5)"><tspan x="0" y="0">e</tspan></text>
        <text class="cls-22" transform="translate(2625.3 466.5)"><tspan x="0" y="0">s</tspan></text>
        <text class="cls-15" transform="translate(2653.4 466.5)"><tspan x="0" y="0"> </tspan></text>
        <text class="cls-13" transform="translate(2671.5 466.5)"><tspan x="0" y="0">f</tspan></text>
        <text class="cls-15" transform="translate(2692.1 466.5)"><tspan x="0" y="0">or </tspan></text>
        <text class="cls-14" transform="translate(2770.8 466.5)"><tspan x="0" y="0">a</tspan></text>
      </g>
      <g class="cls-28">
        <text class="cls-15" transform="translate(1933.4 545.8)"><tspan x="0" y="0">cu</tspan></text>
        <text class="cls-22" transform="translate(1999.4 545.8)"><tspan x="0" y="0">s</tspan></text>
        <text class="cls-27" transform="translate(2027.4 545.8)"><tspan x="0" y="0">t</tspan></text>
        <text class="cls-15" transform="translate(2050.5 545.8)"><tspan x="0" y="0">om </tspan></text>
        <text class="cls-16" transform="translate(2160.3 545.8)"><tspan x="0" y="0">s</tspan></text>
        <text class="cls-15" transform="translate(2187.7 545.8)"><tspan x="0" y="0">c</tspan></text>
        <text class="cls-13" transform="translate(2218.5 545.8)"><tspan x="0" y="0">r</tspan></text>
        <text class="cls-18" transform="translate(2242 545.8)"><tspan x="0" y="0">e</tspan></text>
        <text class="cls-15" transform="translate(2275.4 545.8)"><tspan x="0" y="0">enin</tspan></text>
        <text class="cls-22" transform="translate(2401.1 545.8)"><tspan x="0" y="0">g</tspan></text>
        <text class="cls-15" transform="translate(2437.3 545.8)"><tspan x="0" y="0"> </tspan></text>
        <text class="cls-24" transform="translate(2455.5 545.8)"><tspan x="0" y="0">e</tspan></text>
        <text class="cls-15" transform="translate(2487.5 545.8)"><tspan x="0" y="0">x</tspan></text>
        <text class="cls-18" transform="translate(2520.3 545.8)"><tspan x="0" y="0">p</tspan></text>
        <text class="cls-15" transform="translate(2556.4 545.8)"><tspan x="0" y="0">erien</tspan></text>
        <text class="cls-14" transform="translate(2703.1 545.8)"><tspan x="0" y="0">c</tspan></text>
        <text class="cls-23" transform="translate(2733.3 545.8)"><tspan x="0" y="0">e</tspan></text>
        <text class="cls-14" transform="translate(2766.7 545.8)"><tspan x="0" y="0">.</tspan></text>
      </g>
      <g class="cls-29">
        <g>
          <g class="cls-38">
            <g class="cls-32">
              <g class="cls-28">
                <text class="cls-25" transform="translate(498.1 259)"><tspan x="0" y="0">+</tspan></text>
              </g>
            </g>
          </g>
          <g class="cls-38">
            <g class="cls-31">
              <g class="cls-28">
                <text class="cls-25" transform="translate(1143.6 259)"><tspan x="0" y="0">+</tspan></text>
              </g>
            </g>
          </g>
          <g class="cls-38">
            <g class="cls-30">
              <g class="cls-28">
                <text class="cls-25" transform="translate(1748.9 259)"><tspan x="0" y="0">+</tspan></text>
              </g>
            </g>
          </g>
          <path class="cls-12" d="M361.1,295.4h-9.5c-1.3,0-2.4,1.1-2.4,2.4v21c0,5.2-4.4,9.5-9.5,9.5h-21.4c-1.3,0-2.4,1.1-2.4,2.4v9.5c0,1.3,1.1,2.4,2.4,2.4h21.4c13.1,0,23.8-10.7,23.8-23.8v-21c0-1.3-1.1-2.4-2.4-2.4"/>
          <path class="cls-12" d="M171.2,104.7h-21.7c-13.1,0-23.8,10.7-23.8,23.8v22.1c0,1.3,1.1,2.4,2.4,2.4h9.5c1.3,0,2.4-1.1,2.4-2.4v-22.1c0-5.2,4.4-9.5,9.5-9.5h21.7c1.3,0,2.4-1.1,2.4-2.4v-9.5c0-1.3-1.1-2.4-2.4-2.4"/>
          <path class="cls-12" d="M339.7,104.7h-21.4c-1.3,0-2.4,1.1-2.4,2.4v9.5c0,1.3,1.1,2.4,2.4,2.4h21.4c5.2,0,9.5,4.4,9.5,9.5v22.1c0,1.3,1.1,2.4,2.4,2.4h9.5c1.3,0,2.4-1.1,2.4-2.4v-22.1c0-13.1-10.7-23.8-23.8-23.8"/>
          <path class="cls-12" d="M171.2,328.2h-21.7c-5.2,0-9.5-4.4-9.5-9.5v-21c0-1.3-1.1-2.4-2.4-2.4h-9.5c-1.3,0-2.4,1.1-2.4,2.4v21c0,13.1,10.7,23.8,23.8,23.8h21.7c1.3,0,2.4-1.1,2.4-2.4v-9.5c0-1.3-1.1-2.4-2.4-2.4"/>
          <path class="cls-12" d="M978.7,295.4h-9.5c-1.3,0-2.4,1.1-2.4,2.4v21c0,5.2-4.4,9.5-9.5,9.5h-21.4c-1.3,0-2.4,1.1-2.4,2.4v9.5c0,1.3,1.1,2.4,2.4,2.4h21.4c13.1,0,23.8-10.7,23.8-23.8v-21c0-1.3-1.1-2.4-2.4-2.4"/>
          <path class="cls-12" d="M788.8,104.7h-21.7c-13.1,0-23.8,10.7-23.8,23.8v22.1c0,1.3,1.1,2.4,2.4,2.4h9.5c1.3,0,2.4-1.1,2.4-2.4v-22.1c0-5.2,4.4-9.5,9.5-9.5h21.7c1.3,0,2.4-1.1,2.4-2.4v-9.5c0-1.3-1.1-2.4-2.4-2.4"/>
          <path class="cls-12" d="M957.3,104.7h-21.4c-1.3,0-2.4,1.1-2.4,2.4v9.5c0,1.3,1.1,2.4,2.4,2.4h21.4c5.2,0,9.5,4.4,9.5,9.5v22.1c0,1.3,1.1,2.4,2.4,2.4h9.5c1.3,0,2.4-1.1,2.4-2.4v-22.1c0-13.1-10.7-23.8-23.8-23.8"/>
          <path class="cls-12" d="M788.8,328.2h-21.7c-5.2,0-9.5-4.4-9.5-9.5v-21c0-1.3-1.1-2.4-2.4-2.4h-9.5c-1.3,0-2.4,1.1-2.4,2.4v21c0,13.1,10.7,23.8,23.8,23.8h21.7c1.3,0,2.4-1.1,2.4-2.4v-9.5c0-1.3-1.1-2.4-2.4-2.4"/>
          <path class="cls-12" d="M1592.1,295.4h-9.5c-1.3,0-2.4,1.1-2.4,2.4v21c0,5.2-4.4,9.5-9.5,9.5h-21.4c-1.3,0-2.4,1.1-2.4,2.4v9.5c0,1.3,1.1,2.4,2.4,2.4h21.4c13.1,0,23.8-10.7,23.8-23.8v-21c0-1.3-1.1-2.4-2.4-2.4"/>
          <path class="cls-12" d="M1402.2,104.7h-21.7c-13.1,0-23.8,10.7-23.8,23.8v22.1c0,1.3,1.1,2.4,2.4,2.4h9.5c1.3,0,2.4-1.1,2.4-2.4v-22.1c0-5.2,4.4-9.5,9.5-9.5h21.7c1.3,0,2.4-1.1,2.4-2.4v-9.5c0-1.3-1.1-2.4-2.4-2.4"/>
          <path class="cls-12" d="M1570.7,104.7h-21.4c-1.3,0-2.4,1.1-2.4,2.4v9.5c0,1.3,1.1,2.4,2.4,2.4h21.4c5.2,0,9.5,4.4,9.5,9.5v22.1c0,1.3,1.1,2.4,2.4,2.4h9.5c1.3,0,2.4-1.1,2.4-2.4v-22.1c0-13.1-10.7-23.8-23.8-23.8"/>
          <path class="cls-12" d="M1402.2,328.2h-21.7c-5.2,0-9.5-4.4-9.5-9.5v-21c0-1.3-1.1-2.4-2.4-2.4h-9.5c-1.3,0-2.4,1.1-2.4,2.4v21c0,13.1,10.7,23.8,23.8,23.8h21.7c1.3,0,2.4-1.1,2.4-2.4v-9.5c0-1.3-1.1-2.4-2.4-2.4"/>
          <path class="cls-12" d="M2091.8,238.4h-6.4c-.9,0-1.6.7-1.6,1.7v14.7c0,3.6-2.9,6.7-6.4,6.7h-14.4c-.9,0-1.6.7-1.6,1.7v6.7c0,.9.7,1.7,1.6,1.7h14.4c8.8,0,16-7.5,16-16.7v-14.7c0-.9-.7-1.7-1.6-1.7"/>
          <path class="cls-12" d="M1964.1,104.7h-14.6c-8.8,0-16,7.5-16,16.7v15.5c0,.9.7,1.7,1.6,1.7h6.4c.9,0,1.6-.7,1.6-1.7v-15.5c0-3.6,2.9-6.7,6.4-6.7h14.6c.9,0,1.6-.7,1.6-1.7v-6.7c0-.9-.7-1.7-1.6-1.7"/>
          <path class="cls-12" d="M2077.4,104.7h-14.4c-.9,0-1.6.7-1.6,1.7v6.7c0,.9.7,1.7,1.6,1.7h14.4c3.5,0,6.4,3.1,6.4,6.7v15.5c0,.9.7,1.7,1.6,1.7h6.4c.9,0,1.6-.7,1.6-1.7v-15.5c0-9.2-7.2-16.7-16-16.7"/>
          <path class="cls-12" d="M1964.1,261.4h-14.6c-3.5,0-6.4-3.1-6.4-6.7v-14.7c0-.9-.7-1.7-1.6-1.7h-6.4c-.9,0-1.6.7-1.6,1.7v14.7c0,9.2,7.2,16.7,16,16.7h14.6c.9,0,1.6-.7,1.6-1.7v-6.7c0-.9-.7-1.7-1.6-1.7"/>
          <path class="cls-12" d="M2562.6,295.7h-6.4c-.9,0-1.6.7-1.6,1.7v14.7c0,3.6-2.9,6.7-6.4,6.7h-14.4c-.9,0-1.6.7-1.6,1.7v6.7c0,.9.7,1.7,1.6,1.7h14.4c8.8,0,16-7.5,16-16.7v-14.7c0-.9-.7-1.7-1.6-1.7"/>
          <path class="cls-12" d="M2434.8,162h-14.6c-8.8,0-16,7.5-16,16.7v15.5c0,.9.7,1.7,1.6,1.7h6.4c.9,0,1.6-.7,1.6-1.7v-15.5c0-3.6,2.9-6.7,6.4-6.7h14.6c.9,0,1.6-.7,1.6-1.7v-6.7c0-.9-.7-1.7-1.6-1.7"/>
          <path class="cls-12" d="M2548.2,162h-14.4c-.9,0-1.6.7-1.6,1.7v6.7c0,.9.7,1.7,1.6,1.7h14.4c3.5,0,6.4,3.1,6.4,6.7v15.5c0,.9.7,1.7,1.6,1.7h6.4c.9,0,1.6-.7,1.6-1.7v-15.5c0-9.2-7.2-16.7-16-16.7"/>
          <path class="cls-12" d="M2434.8,318.7h-14.6c-3.5,0-6.4-3.1-6.4-6.7v-14.7c0-.9-.7-1.7-1.6-1.7h-6.4c-.9,0-1.6.7-1.6,1.7v14.7c0,9.2,7.2,16.7,16,16.7h14.6c.9,0,1.6-.7,1.6-1.7v-6.7c0-.9-.7-1.7-1.6-1.7"/>
          <path class="cls-12" d="M2359,332.3h-9.8c-1.4,0-2.4,1.1-2.4,2.5v22.4c0,5.5-4.5,10.2-9.8,10.2h-21.9c-1.3,0-2.4,1.1-2.4,2.5v10.2c0,1.4,1.1,2.5,2.4,2.5h21.9c13.4,0,24.4-11.4,24.4-25.4v-22.4c0-1.4-1.1-2.5-2.4-2.5"/>
          <path class="cls-12" d="M2163.9,128.4h-22.3c-13.4,0-24.4,11.4-24.4,25.4v23.7c0,1.4,1.1,2.5,2.4,2.5h9.8c1.3,0,2.4-1.1,2.4-2.5v-23.7c0-5.5,4.5-10.2,9.8-10.2h22.3c1.3,0,2.4-1.1,2.4-2.5v-10.2c0-1.4-1.1-2.5-2.4-2.5"/>
          <path class="cls-12" d="M2337,128.4h-21.9c-1.3,0-2.4,1.1-2.4,2.5v10.2c0,1.4,1.1,2.5,2.4,2.5h21.9c5.3,0,9.8,4.7,9.8,10.2v23.7c0,1.4,1.1,2.5,2.4,2.5h9.8c1.3,0,2.4-1.1,2.4-2.5v-23.7c0-14-11-25.4-24.4-25.4"/>
          <path class="cls-12" d="M2163.9,367.4h-22.3c-5.3,0-9.8-4.7-9.8-10.2v-22.4c0-1.4-1.1-2.5-2.4-2.5h-9.8c-1.3,0-2.4,1.1-2.4,2.5v22.4c0,14,11,25.4,24.4,25.4h22.3c1.3,0,2.4-1.1,2.4-2.5v-10.2c0-1.4-1.1-2.5-2.4-2.5"/>
          <path class="cls-9" d="M1509.1,237.7c0,17.9,0,26.8-5.2,32.4-5.2,5.6-13.5,5.6-30.1,5.6s-24.9,0-30.1-5.6c-5.2-5.6-5.2-14.5-5.2-32.4v-32.5c0-17.9,0-26.8,5.2-32.4,4.6-5,11.7-5.5,25-5.5"/>
          <path class="cls-2" d="M1524.1,204.4h-11.1M1524.1,187.2h-11.1M1479.7,204.4h-11.1M1479.7,187.2h-11.1M1504.7,167.3v11.4M1488.1,167.3v11.4M1504.7,212.9v11.4M1488.1,212.9v11.4M1501.9,178.7h-11.1c-5.2,0-7.8,0-9.5,1.7-1.6,1.7-1.6,4.4-1.6,9.7v11.4c0,5.4,0,8.1,1.6,9.7,1.6,1.7,4.2,1.7,9.5,1.7h11.1c5.2,0,7.8,0,9.5-1.7s1.6-4.4,1.6-9.7v-11.4c0-5.4,0-8.1-1.6-9.7-1.6-1.7-4.2-1.7-9.5-1.7Z"/>
        </g>
      </g>
      <line class="cls-2" x1="1470.3" y1="260" x2="1477.5" y2="260"/>
      <g class="cls-36">
        <g>
          <path class="cls-12" d="M805.3,284.1c3.1-9.3,6.2-18.6,9.2-28,1-3,1.9-6.1,3-9.3,3.5,0,6.9-.3,10.2.1,1.4.2,4.1,0,3.8,2.9.2,2-1.3,2.8-4,2.6-5.7-.5-6.4,2.9-7.5,7.1-1.8,6.4-3.9,12.7-5.9,19.3h93.7c-2.8-8.3-5.4-16.3-8.3-24.3-.3-.8-2.5-1.3-3.8-1.4-2.4-.2-4.9-.2-4.9-3.3,0-3,2.6-3.1,5-3.2,7.7-.2,7.7-.2,10.1,6.8,3.1,9.1,6.2,18.2,9.2,27.2.4,1.3.7,2.6,1.2,4.1-1.6.1-2.7.3-3.8.3-34.6,0-69.2,0-103.9,0-1.1,0-2.2-.2-3.4-.3v-.8h0Z"/>
          <path class="cls-10" d="M857.1,164.9h6.8c.3,0,.6.2.9.2,7.3.7,14.1,3,20.1,7.2,11.3,7.9,17.3,18.6,17.1,32.4,0,7.1-1.6,14-4.2,20.6-6.8,17.4-18.5,31.5-32.3,44-2.9,2.6-7.2,2.3-10-.4-6.9-6.4-13.2-13.3-18.8-20.9-6.6-9-12.1-18.5-15.2-29.3-1.9-6.8-3.1-13.7-1.8-20.7,3.1-16.5,13.4-26.7,29.3-31.5,2.7-.8,5.5-1.1,8.3-1.6h0Z"/>
          <path class="cls-12" d="M859.4,183.2h.6s0,0,.1,0c.2,0,.5.1.7.2.4.2.7.4,1,.7.3.3.6.5.9.8,1.8,1.7,3.5,3.5,5.3,5.2,0,0,.1.1.2.2v-.3c0-.4,0-.9,0-1.3,0-1.5,1.3-2.8,2.8-2.8,1,0,1.9,0,2.9,0,.9,0,1.6.3,2.1,1,.5.5.7,1.2.7,1.9,0,3.2,0,6.4,0,9.7,0,.2,0,.3.2.4,1.3,1.3,2.6,2.5,3.8,3.8.3.3.6.6.9,1,.5.6.8,1.3.7,2.2,0,.4-.1.8-.3,1.2-.5.9-1.3,1.4-2.4,1.4-.9,0-1.8,0-2.7,0,0,0-.2,0-.2,0v.3c0,5.5,0,10.9,0,16.4,0,.2,0,.5,0,.7-.3,1.3-1.4,2.3-2.8,2.3-2.8,0-5.5,0-8.3,0,0,0-.1,0-.2,0v-13.8c0,0,0-.2,0-.3,0-1.6-1.3-2.8-2.9-2.8-1.9,0-3.8,0-5.7,0-1.2,0-2.2.7-2.6,1.7-.2.4-.2.8-.2,1.2,0,4.5,0,9.1,0,13.6v.3h-8.4c0,0-.1,0-.2,0-1.2,0-2.1-.7-2.5-1.8-.2-.4-.2-.8-.2-1.2,0-5.5,0-11,0-16.4v-.3h-.3c-.9,0-1.8,0-2.7,0-1.3,0-2.5-1-2.7-2.3,0,0,0-.2,0-.2v-.6c0,0,0-.1,0-.2,0-.6.4-1.1.8-1.5.3-.3.6-.6.8-.9,6-6,12.1-12,18.1-17.9.3-.3.6-.6.9-.9.4-.4.9-.6,1.4-.7.1,0,.2,0,.3,0"/>
          <path class="cls-8" d="M202.6,251.4c-8.9,13.5-11.1,20.7-8.6,26.4.2.6.5,1.1.9,1.6,3.6,5.7,12.8,5.7,31.3,5.7h33.8c18.5,0,27.7,0,31.3-5.7.3-.5.6-1.1.9-1.6,2.5-5.7.3-12.9-8.6-26.4"/>
          <path class="cls-7" d="M258.9,174.8c0,8.7-7.1,15.8-15.9,15.8s-15.9-7.1-15.9-15.8,7.1-15.8,15.9-15.8,15.9,7.1,15.9,15.8ZM249.3,190.6h-12.7c-18.2,0-30.5,19.4-23.3,36.9,1,2.4,3.3,4,5.8,4h4.5c1.5,0,2.8,1.1,3.2,2.6l5.7,24c1.2,5,5.5,8.5,10.4,8.5s9.2-3.5,10.4-8.5l5.7-24c.4-1.5,1.7-2.6,3.2-2.6h4.5c2.5,0,4.8-1.6,5.8-4,7.2-17.5-5.1-36.9-23.3-36.9h0Z"/>
          <path class="cls-12" d="M2221,289.1c-1-.5-2-.9-3-1.4,0,.8.2,1.6.3,2.4.9-.3,1.8-.7,2.7-1"/>
          <path class="cls-12" d="M2283.6,278c-.2,5.9-1.5,11.6-3.9,16.9,1.1.3,2.1.5,3.2.8,3-7,4.3-14.5,3.9-21.9-2.3,1.4-4.7,2.8-7.2,4.3h4Z"/>
          <path class="cls-12" d="M2270.9,307.8c-4.3,4.5-9.5,7.9-15.2,10.3-2.4,1-4.8,1.8-7.3,2.3,2.7-2.4,5.2-5.9,7.4-10.4,1-2,1.8-4.1,2.6-6.3-1-.3-2-.7-3.1-1-.7,2.1-1.5,4.1-2.4,6-3.6,7.3-8.2,11.9-12.9,12.7v-24.1c.2,0,.4,0,.6,0-.1,0-.3,0-.4-.2-1.2.5-2.3,1-3.5,1.4v22.8c-1.8-.3-3.6-1.2-5.3-2.6-2.6-2.1-5-5.1-7-9.2-.9-1.7-1.7-3.5-2.4-5.4-1,.4-2,.7-3,1.1.8,2,1.6,4,2.6,5.8,2,4,4.4,7.1,6.8,9.3-7.9-1.8-15.2-5.6-21.2-11.3-1.2.4-2.4.7-3.6,1,.3.3.7.7,1,1,9.4,9.1,21.6,13.6,33.8,13.6h0c12.7,0,25.3-4.9,34.9-14.7.5-.5.9-1,1.4-1.5-1.2-.3-2.3-.6-3.5-1,0,0-.1.1-.2.2"/>
          <path class="cls-12" d="M2218.4,290.1c-.1-.8-.2-1.6-.3-2.4-1.2-.5-2.3-1.1-3.4-1.6.2,1.7.4,3.4.7,5.1,1-.4,2.1-.7,3.1-1.1"/>
          <path class="cls-12" d="M2197.8,296.6c-2.9-5.7-4.5-12-4.7-18.6h5.5c-3.1-1.7-6-3.3-8.7-5-.6,8.3,1,16.7,4.7,24.4.8-.2,1.6-.4,2.5-.6.2,0,.5-.1.7-.2"/>
          <path class="cls-12" d="M2205.8,245c4.3-4.5,9.4-7.9,15.2-10.3,2.4-1,4.8-1.8,7.3-2.3-2.7,2.4-5.2,5.9-7.4,10.4-1.7,3.6-3.1,7.5-4.2,11.7-8.1-.9-13.4-2-16.3-2.8,1.6-2.3,3.3-4.6,5.3-6.6M2236.7,231.4v24.1c-6.4,0-12-.3-16.7-.7,1-3.8,2.3-7.4,3.8-10.6,3.6-7.3,8.2-11.9,12.9-12.7M2239.9,231.4c1.8.3,3.6,1.2,5.3,2.6,2.6,2.1,5,5.1,7.1,9.2,1.8,3.4,3.2,7.4,4.4,11.6-4.7.4-10.3.7-16.7.7v-24.1ZM2269.9,244c2.4,2.3,4.5,4.9,6.4,7.6-2.9.8-8.2,2-16.3,2.8-1.2-4.6-2.8-9-4.7-12.8-2-4-4.4-7.1-6.8-9.3,8,1.8,15.4,5.8,21.5,11.6M2196.2,259.8c.7-1.8,1.6-3.6,2.5-5.4,2.8.8,8.4,2.2,17.3,3.1-.8,3.9-1.4,8.1-1.7,12.2,1,.5,2.1,1,3.1,1.6.2-4.7.8-9.2,1.8-13.5,4.9.4,10.7.7,17.5.8v16.1h-12.1c2.4,1.1,4.8,2.2,7.2,3.2h4.9v2.1c.5.2.9.4,1.4.6.6.3,1.2.5,1.8.8v-3.4h7.7c2.3-1.1,4.6-2.1,6.8-3.2h-14.5v-16.1c6.8,0,12.6-.3,17.5-.8,1,4.5,1.6,9.4,1.8,14.5,1.1-.5,2.1-1.1,3.2-1.6-.3-4.5-.8-8.9-1.7-13.2,8.9-1,14.5-2.3,17.3-3.2,1.1,1.9,2,3.9,2.8,5.9.9-.6,1.9-1.2,2.8-1.8-2.5-6.2-6.3-12-11.4-17-9.4-9.1-21.6-13.6-33.8-13.6h0c-12.7,0-25.3,4.9-34.9,14.7-4.4,4.6-7.8,9.8-10.1,15.3.7.4,1.3.9,2.1,1.3.2.1.5.3.7.4"/>
          <path class="cls-12" d="M2259.1,288.6c.8.3,1.7.6,2.5.8.1-.7.2-1.5.3-2.2-.9.4-1.8.9-2.8,1.3"/>
          <path class="cls-12" d="M2179.9,311c4.3,0,10-.9,17.1-2.5,11.1-2.7,24.7-7.2,38.9-13-1.1-.5-2.2-.9-3.4-1.4-2.5-1-4.9-2.1-7.3-3.1-9.9,3.8-19.3,6.8-27.4,8.9-9.3,2.4-14.8,3-18,3s-2.6-.1-3.2-.3c.8-1.4,4.3-5.6,12.3-11.3-1.1-2.6-1.8-5.5-2.1-8.4-14,9.6-20.5,17.6-18,23.1,1.5,3.3,5,4.9,11,4.9"/>
          <path class="cls-12" d="M2244.2,283.1c3.6,1.4,7.1,2.7,10.6,4,14.7-6.9,28-14.3,37.9-21.1,14.3-9.8,19.6-16.7,17.1-22.3-1.5-3.3-5-4.9-11-4.9s-11.2,1.2-18.3,2.9c-1,.2-2.1.5-3.2.8,1.4,1.4,4.1,6.8,4.3,7.2,8.1-2,14.3-2.9,17.2-2.9s2.6.1,3.2.3c-.9,1.6-4.2,5.9-16.2,13.8-10.9,7.2-25.7,15-41.6,22.1"/>
          <path class="cls-12" d="M2294.1,282.4c-.6-.4-2.8-2-3.4-2.4-.4,2.8-1.3,5.5-2.4,8,10.1,6.5,14.7,11.5,15.5,13-.7.2-1.9.4-3.8.4-3.3,0-8.6-.5-17.4-2.6-13-3-29.3-8.4-45.7-15.2-16.5-6.8-31.8-14.4-43.1-21.5-12.2-7.6-15.6-11.8-16.5-13.4.7-.2,1.9-.4,3.9-.4s8.2.4,14,1.6c.3-.5,2.8-5.7,4.5-7.3-.2,0-2.1-.2-2.3-.2-6.7-1.4-12.1-2.1-16.3-2.1-6.5,0-10.3,1.7-11.7,5.2-2.4,5.7,3.1,12.5,17.6,21.9,12,7.8,28.6,16.2,46.8,23.7,18.2,7.5,36,13.3,49.9,16.3,6.7,1.4,12.1,2.1,16.3,2.1,6.5,0,10.3-1.7,11.7-5.2,2.4-5.7-3.1-12.5-17.6-21.9"/>
          <path class="cls-5" d="M2238.4,179.1c-20.9,0-37.9,17-37.9,37.9s3.2,16.5,7.8,23.1l30,42.1,30-42.1c4.7-6.6,7.8-14.4,7.8-23.1,0-20.9-16.9-37.9-37.9-37.9h0ZM2238.4,193.7c-12.8,0-23.2,10.4-23.2,23.2s10.4,23.2,23.2,23.2,23.2-10.4,23.2-23.2-10.4-23.2-23.2-23.2"/>
          <path class="cls-12" d="M2238.4,185.4c-17.4,0-31.5,14.1-31.5,31.5s2.6,13.7,6.5,19.2l25,35,25-35c3.9-5.5,6.5-12,6.5-19.2,0-17.4-14.1-31.5-31.5-31.5M2238.4,197.6c-10.6,0-19.3,8.6-19.3,19.3s8.6,19.3,19.3,19.3,19.3-8.6,19.3-19.3-8.6-19.3-19.3-19.3"/>
          <path class="cls-6" d="M2238.4,201.6c-8.5,0-15.3,6.9-15.3,15.3s6.9,15.3,15.3,15.3,15.3-6.9,15.3-15.3-6.9-15.3-15.3-15.3"/>
          <path class="cls-12" d="M2238.4,208c-4.9,0-8.9,4-8.9,8.9s4,8.9,8.9,8.9,8.9-4,8.9-8.9-4-8.9-8.9-8.9"/>
        </g>
      </g>
      <polygon class="cls-12" points="2468.2 228.6 2467.3 236.2 2472.9 231.3 2475.6 235.7 2468.2 238.6 2475.5 241.6 2472.9 245.9 2467.3 241 2468.2 248.7 2463.3 248.7 2464.2 241.1 2458.7 245.9 2456 241.6 2463.3 238.6 2456 235.7 2458.7 231.2 2464.1 236.2 2463.3 228.6 2468.2 228.6"/>
      <g class="cls-35">
        <path class="cls-12" d="M2477.6,256.9c0,1.1-.9,2-2,2h-19.5c-1.1,0-2-.9-2-2v-.6c0-1.1.9-2,2-2h19.5c1.1,0,2,.9,2,2v.6Z"/>
      </g>
      <polygon class="cls-12" points="2503.3 228.6 2502.5 236.2 2508 231.3 2510.7 235.7 2503.4 238.6 2510.7 241.6 2508 245.9 2502.5 241 2503.3 248.7 2498.5 248.7 2499.3 241.1 2493.8 245.9 2491.2 241.6 2498.4 238.6 2491.1 235.7 2493.8 231.2 2499.3 236.2 2498.5 228.6 2503.3 228.6"/>
      <g class="cls-33">
        <path class="cls-12" d="M2512.7,256.9c0,1.1-.9,2-2,2h-19.5c-1.1,0-2-.9-2-2v-.6c0-1.1.9-2,2-2h19.5c1.1,0,2,.9,2,2v.6Z"/>
      </g>
      <polygon class="cls-12" points="2538.5 228.6 2537.6 236.2 2543.1 231.3 2545.9 235.7 2538.5 238.6 2545.8 241.6 2543.1 245.9 2537.6 241 2538.5 248.7 2533.6 248.7 2534.5 241.1 2529 245.9 2526.3 241.6 2533.6 238.6 2526.3 235.7 2529 231.2 2534.4 236.2 2533.6 228.6 2538.5 228.6"/>
      <g class="cls-34">
        <g>
          <path class="cls-12" d="M2547.9,256.9c0,1.1-.9,2-2,2h-19.5c-1.1,0-2-.9-2-2v-.6c0-1.1.9-2,2-2h19.5c1.1,0,2,.9,2,2v.6Z"/>
          <path class="cls-12" d="M2583,256.9c0,1.1-.9,2-2,2h-19.5c-1.1,0-2-.9-2-2v-.6c0-1.1.9-2,2-2h19.5c1.1,0,2,.9,2,2v.6Z"/>
          <path class="cls-4" d="M2502,220.4c-.4-6-1.4-9.8-4.2-12.5-4.4-4.3-11.6-4.3-25.9-4.3s-21.5,0-25.9,4.3c-4.4,4.3-4.4,11.3-4.4,25.1v25.2c0,13.9,0,20.8,4.4,25.1,4.4,4.3,11.6,4.3,25.9,4.3s21.5,0,25.9-4.3c2.8-2.7,3.9-6.5,4.2-12.5"/>
        </g>
      </g>
      <line class="cls-1" x1="2469.3" y1="275.4" x2="2474.3" y2="275.4"/>
      <g class="cls-37">
        <g>
          <path class="cls-12" d="M2053,152.3c-.9-1.4-.4-3.3,1.1-4.2.5-.3,1-.4,1.6-.4,1.1,0,2.1.5,2.7,1.5,10.4,17.3,10.4,38.9,0,56.2-.9,1.4-2.8,1.9-4.2,1.1s-1.9-2.7-1.1-4.2c9.2-15.4,9.2-34.6,0-50"/>
          <path class="cls-12" d="M2045.5,158.1c.5-.3,1-.4,1.6-.4,1.1,0,2.1.5,2.7,1.5,6.7,11.2,6.7,25.1,0,36.3-.9,1.4-2.8,1.9-4.2,1.1s-1.9-2.7-1.1-4.2c5.6-9.3,5.6-20.8,0-30.1-.9-1.4-.4-3.3,1.1-4.2"/>
          <path class="cls-12" d="M2036.8,187.6c-1.5-.9-1.9-2.7-1.1-4.2,2.2-3.7,2.2-8.4,0-12.1-.9-1.4-.4-3.3,1.1-4.2.5-.3,1-.4,1.6-.4,1.1,0,2.1.5,2.7,1.5,3.4,5.6,3.4,12.6,0,18.3-.9,1.4-2.8,1.9-4.2,1.1"/>
          <path class="cls-10" d="M1986.6,177.7c0-11.2,7.6-20,17.3-20.7,11.8-.9,21.8,9.7,20.4,21.9-.9,8.3-4.7,14.7-13.1,17.6-11.1,3.9-23-4.1-24.5-16.4-.1-1-.1-2-.2-2.5ZM2041.1,217.7c0,2.7.1,5.3-.1,7.9,0,.9-1.1,2.2-1.9,2.4-22.5,6.6-45,6.4-67.5,0-1.6-.5-2.1-1.3-2-2.8,0-4.7.2-9.4,0-14.1-.2-8.7,7.2-14.5,15.4-14.5,4.4,0,8.9,1.4,13.2,2.6,6,1.7,11.7,1.1,17.5-1.1,8.4-3.1,18.6-2.2,23.4,5.9,1.1,1.8,1.6,4.1,1.9,6.3.3,2.4,0,4.9,0,7.3h0Z"/>
        </g>
      </g>
    </g>
  </g>
</svg>