<?xml version="1.0" encoding="UTF-8"?>
<svg id="Layer_1" data-name="Layer 1" xmlns="http://www.w3.org/2000/svg" xmlns:xlink="http://www.w3.org/1999/xlink" viewBox="0 0 2766.9803 795.8011">
  <defs>
    <style>
      .cls-1 {
        fill: #4d9cd6;
      }

      .cls-1, .cls-2, .cls-3, .cls-4 {
        stroke-width: 0px;
      }

      .cls-5 {
        letter-spacing: 0em;
      }

      .cls-6 {
        clip-path: url(#clippath);
      }

      .cls-2, .cls-7, .cls-8, .cls-9 {
        fill: none;
      }

      .cls-10 {
        letter-spacing: .007em;
      }

      .cls-11 {
        letter-spacing: .004em;
      }

      .cls-12 {
        letter-spacing: .002em;
      }

      .cls-13 {
        letter-spacing: .008em;
      }

      .cls-14 {
        letter-spacing: .016em;
      }

      .cls-15 {
        letter-spacing: -.009em;
      }

      .cls-16 {
        letter-spacing: .007em;
      }

      .cls-17 {
        letter-spacing: .01em;
      }

      .cls-18 {
        letter-spacing: .01em;
      }

      .cls-19, .cls-20, .cls-21 {
        fill: #99d6f5;
        font-family: MonsalGothic-ExtraBold, 'Monsal Gothic';
        font-weight: 700;
      }

      .cls-19, .cls-22 {
        font-size: 66.874px;
      }

      .cls-23 {
        letter-spacing: 0em;
      }

      .cls-24 {
        letter-spacing: 0em;
      }

      .cls-25 {
        letter-spacing: -.006em;
      }

      .cls-26 {
        letter-spacing: -.006em;
      }

      .cls-27 {
        clip-path: url(#clippath-1);
      }

      .cls-28 {
        clip-path: url(#clippath-4);
      }

      .cls-29 {
        clip-path: url(#clippath-3);
      }

      .cls-30 {
        clip-path: url(#clippath-2);
      }

      .cls-31 {
        clip-path: url(#clippath-7);
      }

      .cls-32 {
        clip-path: url(#clippath-8);
      }

      .cls-33 {
        clip-path: url(#clippath-6);
      }

      .cls-34 {
        clip-path: url(#clippath-5);
      }

      .cls-35 {
        clip-path: url(#clippath-9);
      }

      .cls-7 {
        stroke-width: 2px;
      }

      .cls-7, .cls-9 {
        stroke: #fff;
      }

      .cls-20 {
        font-size: 200.6221px;
      }

      .cls-36 {
        clip-path: url(#clippath-20);
      }

      .cls-37 {
        clip-path: url(#clippath-21);
      }

      .cls-38 {
        clip-path: url(#clippath-24);
      }

      .cls-39 {
        clip-path: url(#clippath-23);
      }

      .cls-40 {
        clip-path: url(#clippath-22);
      }

      .cls-41 {
        clip-path: url(#clippath-25);
      }

      .cls-42 {
        clip-path: url(#clippath-27);
      }

      .cls-43 {
        clip-path: url(#clippath-28);
      }

      .cls-44 {
        clip-path: url(#clippath-26);
      }

      .cls-45 {
        clip-path: url(#clippath-14);
      }

      .cls-46 {
        clip-path: url(#clippath-13);
      }

      .cls-47 {
        clip-path: url(#clippath-12);
      }

      .cls-48 {
        clip-path: url(#clippath-10);
      }

      .cls-49 {
        clip-path: url(#clippath-15);
      }

      .cls-50 {
        clip-path: url(#clippath-17);
      }

      .cls-51 {
        clip-path: url(#clippath-16);
      }

      .cls-52 {
        clip-path: url(#clippath-19);
      }

      .cls-53 {
        clip-path: url(#clippath-11);
      }

      .cls-54 {
        clip-path: url(#clippath-18);
      }

      .cls-55 {
        letter-spacing: .01em;
      }

      .cls-56 {
        letter-spacing: -.001em;
      }

      .cls-57 {
        letter-spacing: .01em;
      }

      .cls-58 {
        letter-spacing: -.001em;
      }

      .cls-59 {
        letter-spacing: -.002em;
      }

      .cls-60 {
        letter-spacing: -.002em;
      }

      .cls-22 {
        font-family: MonsalGothic-Regular, 'Monsal Gothic';
      }

      .cls-22, .cls-4 {
        fill: #fff;
      }

      .cls-61 {
        letter-spacing: -.029em;
      }

      .cls-62 {
        letter-spacing: .009em;
      }

      .cls-63 {
        letter-spacing: .009em;
      }

      .cls-64 {
        letter-spacing: -.011em;
      }

      .cls-65 {
        letter-spacing: .009em;
      }

      .cls-66 {
        opacity: .2;
      }

      .cls-67 {
        opacity: .4;
      }

      .cls-68 {
        opacity: .5;
      }

      .cls-21 {
        font-size: 133.7481px;
      }

      .cls-69 {
        letter-spacing: -.005em;
      }

      .cls-3 {
        fill: #96d9fa;
      }

      .cls-8 {
        stroke: #96d9fa;
        stroke-width: 4px;
      }

      .cls-70 {
        letter-spacing: -.005em;
      }

      .cls-71 {
        letter-spacing: .001em;
      }

      .cls-72 {
        letter-spacing: -.032em;
      }

      .cls-73 {
        letter-spacing: .001em;
      }

      .cls-74 {
        letter-spacing: .005em;
      }

      .cls-9 {
        stroke-width: 3px;
      }

      .cls-75 {
        letter-spacing: .017em;
      }
    </style>
    <clipPath id="clippath">
      <rect class="cls-2" width="2766.9803" height="795.8011"/>
    </clipPath>
    <clipPath id="clippath-1">
      <rect class="cls-2" width="2766.9803" height="795.8011"/>
    </clipPath>
    <clipPath id="clippath-2">
      <rect class="cls-2" x="433.0261" y="564.5506" width="317.3825" height="230.6146"/>
    </clipPath>
    <clipPath id="clippath-3">
      <rect class="cls-2" x="1098.4228" y="564.5506" width="317.3825" height="230.6146"/>
    </clipPath>
    <clipPath id="clippath-4">
      <rect class="cls-2" x="1684.2561" y="232.2218" width="474.4045" height="346.7569"/>
    </clipPath>
    <clipPath id="clippath-5">
      <rect class="cls-2" width="2766.9803" height="795.8011"/>
    </clipPath>
    <clipPath id="clippath-6">
      <rect class="cls-2" width="2766.9803" height="795.8011"/>
    </clipPath>
    <clipPath id="clippath-7">
      <rect class="cls-2" x="1301.7449" y="273.3476" width="409.5784" height="147.1229"/>
    </clipPath>
    <clipPath id="clippath-8">
      <rect class="cls-2" width="2766.9803" height="795.8011"/>
    </clipPath>
    <clipPath id="clippath-9">
      <rect class="cls-2" width="2766.9803" height="795.8011"/>
    </clipPath>
    <clipPath id="clippath-10">
      <rect class="cls-2" x="179.0653" y="396.8974" width="39.4323" height="31.5261"/>
    </clipPath>
    <clipPath id="clippath-11">
      <rect class="cls-2" x="189.9223" y="396.8991" width="42.893" height="31.5261"/>
    </clipPath>
    <clipPath id="clippath-12">
      <rect class="cls-2" x="205.2047" y="396.767" width="40.2833" height="31.6548"/>
    </clipPath>
    <clipPath id="clippath-13">
      <rect class="cls-2" x="217.6934" y="410.5782" width="33.0073" height="18.1212"/>
    </clipPath>
    <clipPath id="clippath-14">
      <rect class="cls-2" x="179.0887" y="421.2396" width="43.6938" height="31.8019"/>
    </clipPath>
    <clipPath id="clippath-15">
      <rect class="cls-2" x="194.2106" y="421.3733" width="43.9295" height="31.5261"/>
    </clipPath>
    <clipPath id="clippath-16">
      <rect class="cls-2" x="208.6052" y="421.3733" width="42.3463" height="31.5261"/>
    </clipPath>
    <clipPath id="clippath-17">
      <rect class="cls-2" x="222.6738" y="421.38" width="39.4323" height="31.5161"/>
    </clipPath>
    <clipPath id="clippath-18">
      <rect class="cls-2" x="434.7113" y="313.4018" width="55.8983" height="55.5422"/>
    </clipPath>
    <clipPath id="clippath-19">
      <rect class="cls-2" x="472.3364" y="313.4018" width="55.8983" height="55.5422"/>
    </clipPath>
    <clipPath id="clippath-20">
      <rect class="cls-2" x="547.593" y="313.4018" width="55.8983" height="55.5422"/>
    </clipPath>
    <clipPath id="clippath-21">
      <rect class="cls-2" x="585.2247" y="313.4018" width="55.8983" height="55.5422"/>
    </clipPath>
    <clipPath id="clippath-22">
      <rect class="cls-2" x="622.8497" y="313.4018" width="55.9" height="55.5422"/>
    </clipPath>
    <clipPath id="clippath-23">
      <rect class="cls-2" x="663.0895" y="313.4018" width="53.2902" height="55.5422"/>
    </clipPath>
    <clipPath id="clippath-24">
      <rect class="cls-2" x="284.1662" y="403.4076" width="48.4469" height="43.846"/>
    </clipPath>
    <clipPath id="clippath-25">
      <rect class="cls-2" x="310.9292" y="403.4076" width="48.4469" height="43.846"/>
    </clipPath>
    <clipPath id="clippath-26">
      <rect class="cls-2" x="337.6922" y="403.4076" width="48.4486" height="43.846"/>
    </clipPath>
    <clipPath id="clippath-27">
      <rect class="cls-2" x="364.4551" y="403.4076" width="48.4486" height="43.846"/>
    </clipPath>
    <clipPath id="clippath-28">
      <rect class="cls-2" x="393.0756" y="403.4076" width="46.5911" height="43.846"/>
    </clipPath>
  </defs>
  <g class="cls-6">
    <text class="cls-22" transform="translate(27.2839 650.3496)"><tspan class="cls-65" x="0" y="0">Os</tspan><tspan class="cls-17" x="79.5801" y="0" xml:space="preserve"> pr</tspan><tspan class="cls-65" x="162.9033" y="0">i</tspan><tspan class="cls-57" x="181.2266" y="0">m</tspan><tspan class="cls-63" x="239.6069" y="0">e</tspan><tspan class="cls-57" x="275.3174" y="0">i</tspan><tspan class="cls-56" x="293.7075" y="0">r</tspan><tspan class="cls-59" x="318.5176" y="0">o</tspan><tspan class="cls-24" x="356.0332" y="0">s </tspan></text>
    <text class="cls-22" transform="translate(27.2839 733.9414)"><tspan class="cls-57" x="0" y="0">6 d</tspan><tspan class="cls-10" x="94.3569" y="0">í</tspan><tspan class="cls-57" x="110.8081" y="0">g</tspan><tspan class="cls-65" x="149.0596" y="0">i</tspan><tspan class="cls-26" x="167.3828" y="0">t</tspan><tspan class="cls-60" x="191.6577" y="0">o</tspan><tspan x="229.1729" y="0">s</tspan></text>
    <text class="cls-22" transform="translate(764.5701 650.3496)"><tspan class="cls-65" x="0" y="0">Os</tspan><tspan class="cls-17" x="79.5801" y="0" xml:space="preserve"> últim</tspan><tspan class="cls-59" x="254.5864" y="0">o</tspan><tspan x="292.1021" y="0">s </tspan></text>
    <text class="cls-22" transform="translate(1105.4939 650.3496)"><tspan x="0" y="0"> </tspan></text>
    <text class="cls-22" transform="translate(764.5701 733.9414)"><tspan class="cls-63" x="0" y="0">4</tspan><tspan class="cls-17" x="38.0513" y="0" xml:space="preserve"> d</tspan><tspan class="cls-13" x="95.8291" y="0">í</tspan><tspan class="cls-63" x="112.3467" y="0">g</tspan><tspan class="cls-57" x="150.5317" y="0">i</tspan><tspan class="cls-25" x="168.9219" y="0">t</tspan><tspan class="cls-59" x="193.1963" y="0">o</tspan><tspan class="cls-24" x="230.7119" y="0">s</tspan></text>
    <g class="cls-27">
      <g class="cls-68">
        <g class="cls-30">
          <text class="cls-21" transform="translate(494.2156 700.5059)"><tspan x="0" y="0">+</tspan></text>
        </g>
      </g>
      <g class="cls-68">
        <g class="cls-29">
          <text class="cls-21" transform="translate(1159.6121 700.5059)"><tspan x="0" y="0">+</tspan></text>
        </g>
      </g>
      <g class="cls-68">
        <g class="cls-28">
          <text class="cls-20" transform="translate(1775.2038 435.3154)"><tspan x="0" y="0">=</tspan></text>
        </g>
      </g>
    </g>
    <text class="cls-22" transform="translate(1981.0837 485.6719)"><tspan class="cls-61" x="0" y="0">V</tspan><tspan class="cls-62" x="36.6465" y="0">e</tspan><tspan class="cls-55" x="72.3574" y="0">rifi</tspan><tspan class="cls-73" x="157.0859" y="0">c</tspan><tspan class="cls-17" x="188.9844" y="0">a</tspan><tspan class="cls-73" x="224.0938" y="0">ç</tspan><tspan class="cls-55" x="255.9922" y="0">ão </tspan><tspan class="cls-75" x="348.5439" y="0">I</tspan><tspan class="cls-17" x="367.4688" y="0">nstant</tspan><tspan class="cls-65" x="561.2666" y="0">â</tspan><tspan class="cls-17" x="596.3086" y="0">ne</tspan><tspan x="671.2725" y="0">a </tspan></text>
    <text class="cls-22" transform="translate(1981.0837 569.2646)"><tspan x="0" y="0">c</tspan><tspan class="cls-17" x="31.832" y="0">ont</tspan><tspan class="cls-69" x="134.6816" y="0">r</tspan><tspan class="cls-55" x="159.2246" y="0">a </tspan><tspan class="cls-64" x="213.458" y="0">R</tspan><tspan class="cls-16" x="252.1777" y="0">e</tspan><tspan class="cls-55" x="287.7549" y="0">gist</tspan><tspan class="cls-59" x="399.3662" y="0">ro</tspan><tspan class="cls-18" x="461.624" y="0">s d</tspan><tspan x="549.0273" y="0">o </tspan></text>
    <text class="cls-22" transform="translate(1981.0837 652.8574)"><tspan class="cls-71" x="0" y="0">B</tspan><tspan class="cls-55" x="39.6562" y="0">an</tspan><tspan x="113.9521" y="0">c</tspan><tspan class="cls-17" x="145.7842" y="0">o </tspan><tspan class="cls-14" x="203.2275" y="0">E</tspan><tspan class="cls-17" x="241.7461" y="0">m</tspan><tspan class="cls-65" x="300.127" y="0">i</tspan><tspan class="cls-74" x="318.4502" y="0">s</tspan><tspan class="cls-59" x="347.7412" y="0">s</tspan><tspan class="cls-17" x="376.5635" y="0">or e </tspan><tspan class="cls-58" x="514.4541" y="0">D</tspan><tspan class="cls-55" x="561.3994" y="0">ad</tspan><tspan class="cls-59" x="635.1611" y="0">o</tspan><tspan x="672.6768" y="0">s </tspan></text>
    <text class="cls-22" transform="translate(1981.0837 736.4492)"><tspan class="cls-11" x="0" y="0">K</tspan><tspan class="cls-72" x="40.459" y="0">Y</tspan><tspan class="cls-17" x="75.7676" y="0">C </tspan><tspan class="cls-65" x="135.7529" y="0">d</tspan><tspan class="cls-17" x="174.3389" y="0">o Cl</tspan><tspan class="cls-65" x="289.293" y="0">i</tspan><tspan class="cls-17" x="307.6162" y="0">en</tspan><tspan class="cls-25" x="382.5811" y="0">t</tspan><tspan class="cls-12" x="406.8555" y="0">e</tspan><tspan class="cls-5" x="442.0977" y="0">.</tspan></text>
    <g class="cls-34">
      <path class="cls-9" d="M166.5339,350.2528H62.8791c-11.0794,0-20.0622,8.9828-20.0622,20.0622v204.8017"/>
      <path class="cls-9" d="M915.8731,350.2528h87.4228c11.0793,0,20.0622,8.9828,20.0622,20.0622v204.8017"/>
    </g>
    <text class="cls-22" transform="translate(1361.0955 650.3496)"><tspan class="cls-17" x="0" y="0">e u</tspan><tspan class="cls-23" x="92.0176" y="0">m </tspan></text>
    <text class="cls-22" transform="translate(1530.6208 650.3496)"><tspan x="0" y="0"> </tspan></text>
    <text class="cls-22" transform="translate(1361.0955 733.9414)"><tspan class="cls-17" x="0" y="0">C</tspan><tspan class="cls-65" x="40.8604" y="0">E</tspan><tspan x="78.9111" y="0">P</tspan></text>
    <g class="cls-33">
      <g class="cls-66">
        <g class="cls-31">
          <rect class="cls-1" x="1316.7916" y="286.7224" width="379.4851" height="132.0762" rx="30.0933" ry="30.0933"/>
        </g>
      </g>
    </g>
    <text class="cls-19" transform="translate(1366.1101 372.3037)"><tspan class="cls-70" x="0" y="0">9</tspan><tspan class="cls-15" x="37.3818" y="0">4</tspan><tspan class="cls-55" x="77.3057" y="0">1</tspan><tspan class="cls-65" x="108.8027" y="0">1</tspan><tspan x="140.2334" y="0">1</tspan></text>
    <line class="cls-7" x1="1366.1112" y1="393.7209" x2="1366.1112" y2="575.1167"/>
    <g class="cls-32">
      <path class="cls-8" d="M1447.8939,188.2396c0,19.335-15.7755,35.0069-35.2325,35.0069s-35.2343-15.6719-35.2343-35.0069,15.7755-35.0069,35.2343-35.0069,35.2325,15.6736,35.2325,35.0069ZM1428.9452,291.9311c-4.3652,4.0609-10.2,6.3313-16.2738,6.3313s-11.9069-2.2704-16.2738-6.3313c-39.9789-37.4177-93.5551-79.2173-67.4274-139.9022,14.1272-32.8118,48.039-53.8085,83.7012-53.8085s69.5758,20.9968,83.7012,53.8085c26.0959,60.6096-27.3498,102.6132-67.4274,139.9022Z"/>
      <path class="cls-3" d="M2089.0096,268.347c-8.0382-8.0483-16.0816-16.0899-24.1249-24.1332-3.3972-3.3955-7.9813-3.4507-11.4087-.0786-3.4757,3.4189-6.928,6.8596-10.337,10.3437-3.4088,3.4808-3.419,7.9513.0435,11.4255,13.6875,13.7342,27.3966,27.4484,41.1359,41.1342,3.4992,3.4858,8.0701,3.5309,11.5593.0485,26.2329-26.1812,52.4376-52.3891,78.6205-78.6205,3.0027-3.006,3.2484-7.326.3745-10.4775-3.6145-3.9656-7.4231-7.7791-11.3938-11.3886-3.5208-3.2033-7.5517-2.9057-10.877.4146-15.2038,15.1854-30.3925,30.3842-45.5847,45.5797-5.5939,5.594-11.1813,11.1964-16.9761,16.9977-.4296-.5216-.7004-.9128-1.0314-1.2455"/>
      <path class="cls-3" d="M2229.2516,332.8122h-10.0278c-1.3859,0-2.5059,1.1218-2.5059,2.5078v22.0969c0,5.4351-4.5943,10.0261-10.0262,10.0261h-22.5149c-1.3841,0-2.5059,1.1218-2.5059,2.5078v10.0261c0,1.3843,1.1218,2.5078,2.5059,2.5078h22.5149c13.786,0,25.0661-11.28,25.0661-25.0677v-22.0969c0-1.386-1.1218-2.5078-2.5061-2.5078"/>
      <path class="cls-3" d="M2029.0654,131.81h-22.9126c-13.7879,0-25.0678,11.28-25.0678,25.0677v23.3257c0,1.3859,1.12,2.5078,2.5061,2.5078h10.0276c1.3827,0,2.5061-1.1218,2.5061-2.5078v-23.3257c0-5.4335,4.5909-10.0261,10.0278-10.0261h22.9126c1.3843,0,2.5078-1.1235,2.5078-2.5061v-10.0277c0-1.3843-1.1235-2.5078-2.5078-2.5078"/>
      <path class="cls-3" d="M2206.691,131.81h-22.513c-1.3843,0-2.5078,1.1235-2.5078,2.5078v10.0277c0,1.3827,1.1235,2.5061,2.5078,2.5061h22.513c5.4335,0,10.026,4.5925,10.026,10.0261v23.3257c0,1.3859,1.1202,2.5078,2.5078,2.5078h10.0262c1.3859,0,2.5061-1.1218,2.5061-2.5078v-23.3257c0-13.7877-11.2801-25.0677-25.0661-25.0677"/>
      <path class="cls-3" d="M2029.0654,367.4432h-22.9126c-5.437,0-10.0278-4.5926-10.0278-10.0261v-22.0985c0-1.386-1.1235-2.5061-2.5061-2.5061h-10.0276c-1.3861,0-2.5061,1.1201-2.5061,2.5061v22.0985c0,13.7861,11.2799,25.0661,25.0678,25.0661h22.9126c1.3843,0,2.5078-1.1235,2.5078-2.5061v-10.0261c0-1.386-1.1235-2.5078-2.5078-2.5078"/>
      <path class="cls-4" d="M926.7053,1.6904v1.6902c8.8642,0,16.9141,3.6096,22.7656,9.4359,5.8481,5.8297,9.4694,13.8513,9.471,22.682v468.4961c0,8.8324-3.6229,16.8523-9.471,22.682-5.8515,5.8264-13.9014,9.4359-22.7656,9.4359H152.008c-8.8641,0-16.9141-3.6078-22.7656-9.4343-5.8482-5.8314-9.4694-13.8513-9.471-22.6837V35.4986c0-8.8307,3.6229-16.8522,9.471-22.682,5.8498-5.8264,13.9014-9.4343,22.7656-9.4359h774.6973V.0002H152.008c-19.6075.0067-35.6238,15.9628-35.6288,35.4984v468.4961c.0067,19.5356,16.0213,35.4934,35.6288,35.5001h774.6973c19.6075-.0067,35.6221-15.9645,35.6305-35.5001l-.0017-468.4961C962.3275,15.963,946.3128.0069,926.7053.0002v1.6902Z"/>
      <path class="cls-4" d="M206.2711,184.9724v-.3076c-6.7091.0084-12.1577,4.8517-12.1577,10.8486v63.3297c0,6.0103,5.4486,10.8487,12.1577,10.862h70.955c6.7041-.0134,12.1544-4.8517,12.1544-10.862v-63.3297c0-5.9969-5.4503-10.8402-12.1544-10.8486h-70.955v.6102h70.955c6.3514,0,11.4756,4.5926,11.4906,10.2384v63.3297c-.0134,5.6559-5.1393,10.2468-11.4906,10.2468h-70.955c-6.3564,0-11.4856-4.5909-11.494-10.2468v-63.3297c.0084-5.6458,5.1376-10.2384,11.494-10.2384v-.3026Z"/>
      <path class="cls-4" d="M207.1196,184.9724v-1.1536h-.8493c-7.107.0034-12.9903,5.1543-13.0053,11.6946v63.3297c.0134,6.552,5.9,11.6996,13.0053,11.7063h70.9567c7.102-.0067,12.9869-5.1543,13.002-11.7063v-63.3297c-.0151-6.5403-5.9-11.6912-13.002-11.6946h-71.8043v2.3022h71.8043c5.9501.005,10.6296,4.2866,10.6413,9.3941v63.328c-.0117,5.1142-4.6912,9.3958-10.6413,9.4008h-70.955c-2.9726,0-5.6425-1.0734-7.5618-2.787-1.9193-1.7153-3.0796-4.0475-3.0846-6.6138v-63.3297c.005-2.5629,1.1653-4.8918,3.0846-6.6071,1.9176-1.712,4.5892-2.7853,7.5618-2.7853h.8476v-1.1486h-1.6969v.3026h.8493v-.8443c-6.7559-.0067-12.3182,4.8952-12.3433,11.081v63.3314c.0234,6.1959,5.5873,11.0977,12.3433,11.0927h70.955c6.7509.005,12.3082-4.8969,12.3382-11.0894v-63.3331c-.0301-6.1875-5.5873-11.0894-12.3382-11.0827h-70.955v.8443h.8476v-.6102h-.8476v.8459h70.955c3.1447.0034,5.9835,1.1436,8.0249,2.9625,2.0413,1.824,3.2802,4.3017,3.2802,7.0402v63.3297c0,2.7452-1.2388,5.2262-3.2802,7.0502-2.0413,1.8206-4.8801,2.9608-8.0265,2.9658h-70.9534c-3.1481-.005-5.9886-1.1452-8.0299-2.9658-2.0413-1.824-3.2802-4.305-3.2819-7.0502v-63.3297c.0017-2.7385,1.2388-5.2162,3.2819-7.0402,2.0413-1.8189,4.8818-2.9592,8.0299-2.9625v-.8459h-.8493v.3076h1.6969Z"/>
    </g>
    <polygon class="cls-4" points="288.5959 246.667 258.4374 246.667 252.3519 235.9037 228.6016 235.9037 228.6016 236.6727 251.8453 236.6727 257.9308 247.4311 288.5959 247.4311 288.5959 246.667"/>
    <polygon class="cls-4" points="288.5959 245.8219 258.9339 245.8219 252.8467 235.0586 227.7522 235.0586 227.7522 236.6735 227.7522 237.5178 251.3488 237.5178 257.436 248.2762 289.4436 248.2762 289.4436 246.6679 287.7483 246.6679 287.7483 247.432 288.5959 247.432 288.5959 246.586 258.4274 246.586 252.3402 235.8276 228.6016 235.8276 228.6016 236.6735 229.4492 236.6735 229.4492 235.9045 228.6016 235.9045 228.6016 236.7488 251.8553 236.7488 257.9426 247.5122 288.5959 247.5122 288.5959 245.8219"/>
    <polygon class="cls-4" points="252.8858 236.1306 252.8858 214.1006 229.0603 214.1006 218.1097 204.3236 195.4645 204.3236 195.4645 205.0893 217.7703 205.0893 228.7209 214.8646 252.0533 214.8646 252.0533 236.1306 252.8858 236.1306"/>
    <polygon class="cls-4" points="253.7341 236.1306 253.7341 213.2563 229.3853 213.2563 218.4347 203.4793 194.6158 203.4793 194.6158 205.0893 194.6158 205.9336 217.445 205.9336 228.3956 215.7106 251.2063 215.7106 251.2063 236.9766 252.8865 236.9766 252.8865 235.2846 252.0539 235.2846 252.0539 236.1306 252.9016 236.1306 252.9016 214.0203 229.0459 214.0203 218.0953 204.2434 195.4651 204.2434 195.4651 205.0893 196.3128 205.0893 196.3128 204.3236 195.4651 204.3236 195.4651 205.1696 217.7843 205.1696 228.735 214.9466 252.0372 214.9466 252.0372 236.1306 253.7341 236.1306"/>
    <polygon class="cls-4" points="228.4703 214.4933 228.4703 235.8178 216.5433 246.4825 195.4696 246.4842 195.4696 247.2482 216.8827 247.2482 229.3012 236.1421 229.3012 214.4933 228.4703 214.4933"/>
    <polygon class="cls-4" points="227.622 214.4933 227.622 235.4399 216.2183 245.6382 194.6213 245.6382 194.6213 247.2482 194.6213 248.0925 217.208 248.0925 230.1498 236.5199 230.1498 213.6473 228.4696 213.6473 228.4696 215.3393 229.3022 215.3393 229.3022 214.4933 228.4529 214.4933 228.4529 235.7659 216.5577 246.4022 195.469 246.4022 195.469 247.2482 196.3183 247.2482 196.3183 246.4842 195.469 246.4842 195.469 247.3284 216.8687 247.3284 229.3189 236.1956 229.3189 214.4933 227.622 214.4933"/>
    <rect class="cls-4" x="195.1903" y="227.2982" width="33.6945" height=".764"/>
    <polygon class="cls-4" points="228.8839 228.0623 229.7315 228.0623 229.7315 227.2983 229.7315 226.4523 194.3418 226.4523 194.3418 228.0623 194.3418 228.9083 229.7315 228.9083 229.7315 228.0623 228.8839 228.0623 228.8839 227.2164 195.1911 227.2164 195.1911 228.0623 196.0387 228.0623 196.0387 227.2983 195.1911 227.2983 195.1911 228.1426 228.8839 228.1426 228.8839 227.2983 228.0363 227.2983 228.0363 228.0623 228.8839 228.0623 228.8839 227.2164 228.8839 228.0623"/>
    <rect class="cls-4" x="252.4763" y="226.3201" width="35.8261" height=".769"/>
    <polygon class="cls-4" points="288.303 227.0885 289.1506 227.0885 289.1506 226.3195 289.1506 225.4752 251.6293 225.4752 251.6293 227.0885 251.6293 227.9345 289.1506 227.9345 289.1506 227.0885 288.303 227.0885 288.303 226.2425 252.4769 226.2425 252.4769 227.0885 253.3246 227.0885 253.3246 226.3195 252.4769 226.3195 252.4769 227.1654 288.303 227.1654 288.303 226.3195 287.4554 226.3195 287.4554 227.0885 288.303 227.0885 288.303 226.2425 288.303 227.0885"/>
    <polygon class="cls-4" points="252.7558 214.7712 262.8889 206.0842 289.1168 206.0842 289.1168 205.3152 262.5595 205.3152 252.184 214.2111 252.7558 214.7712"/>
    <polygon class="cls-4" points="253.3092 215.4116 263.2032 206.9286 289.9645 206.9286 289.9645 205.3153 289.9645 204.4693 262.2435 204.4693 250.9318 214.1711 252.1606 215.3732 253.351 214.1678 252.7792 213.6094 252.184 214.2113 252.7374 214.8516 262.8738 206.1596 289.1169 206.1596 289.1169 205.3153 288.2676 205.3153 288.2676 206.0827 289.1169 206.0827 289.1169 205.2384 262.5746 205.2384 252.2024 214.1293 253.3092 215.4116"/>
    <rect class="cls-4" x="237.4697" y="186.0052" width=".8359" height="25.7248"/>
    <polygon class="cls-4" points="238.3063 211.7299 239.1539 211.7299 239.1539 185.1609 237.4704 185.1609 236.6211 185.1609 236.6211 212.5759 238.3063 212.5759 239.1539 212.5759 239.1539 211.7299 238.3063 211.7299 238.3063 210.8839 237.4704 210.8839 237.4704 211.7299 238.318 211.7299 238.318 186.0052 237.4704 186.0052 237.4704 186.8511 238.3063 186.8511 238.3063 186.0052 237.4587 186.0052 237.4587 211.7299 238.3063 211.7299 238.3063 210.8839 238.3063 211.7299"/>
    <rect class="cls-4" x="237.4697" y="236.1306" width=".8359" height="32.2165"/>
    <polygon class="cls-4" points="238.3063 268.3461 239.1539 268.3461 239.1539 235.2853 237.4704 235.2853 236.6211 235.2853 236.6211 269.1921 238.3063 269.1921 239.1539 269.1921 239.1539 268.3461 238.3063 268.3461 238.3063 267.5001 237.4704 267.5001 237.4704 268.3461 238.318 268.3461 238.318 236.1296 237.4704 236.1296 237.4704 236.9755 238.3063 236.9755 238.3063 236.1296 237.4587 236.1296 237.4587 268.3461 238.3063 268.3461 238.3063 267.5001 238.3063 268.3461"/>
    <g class="cls-35">
      <g class="cls-67">
        <g class="cls-48">
          <polygon class="cls-4" points="203.0754 410.2722 194.1126 410.2722 194.1126 426.7516 203.4516 426.7516 203.4516 424.9628 196.276 424.9628 196.276 419.0244 202.6842 419.0244 202.6842 417.2589 196.276 417.2589 196.276 412.0544 203.0754 412.0544 203.0754 410.2722"/>
        </g>
      </g>
      <g class="cls-67">
        <g class="cls-53">
          <path class="cls-4" d="M217.6387,410.2747h-2.4827l-2.2185,3.8553c-.6219,1.0482-1.0382,1.8056-1.503,2.782h-.0736c-.4497-.871-.9145-1.7003-1.5264-2.782l-2.1801-3.8553h-2.481l4.8567,8.1336-5.0624,8.3459h2.466l1.9761-3.6212c.8493-1.4461,1.3224-2.3172,1.8039-3.2835h.0502c.5049.9663,1.0282,1.8608,1.8859,3.2601l2.1383,3.6446h2.481l-5.1677-8.4612,5.0373-8.0182Z"/>
        </g>
      </g>
      <g class="cls-67">
        <g class="cls-47">
          <path class="cls-4" d="M224.3492,410.1415c-1.722,0-3.0595.1538-4.0977.316v16.2922h2.14v-6.6038c.4982.1288,1.085.1455,1.722.1455,2.0882,0,3.9021-.6002,5.0523-1.8056.8326-.8526,1.2756-2.033,1.2756-3.5126,0-1.4813-.5567-2.685-1.4461-3.4657-.9797-.8777-2.5228-1.3659-4.6461-1.3659M224.1619,418.576c-.7172,0-1.3057-.0418-1.7705-.1705v-6.4015c.3662-.0986,1.085-.1722,2.0079-.1722,2.3439,0,3.9105,1.0583,3.9105,3.2551,0,2.2202-1.5665,3.4892-4.1479,3.4892"/>
        </g>
      </g>
      <g class="cls-67">
        <g class="cls-46">
          <path class="cls-4" d="M234.2166,423.9526c-.8744,0-1.4779.652-1.4779,1.5381,0,.8694.5885,1.5364,1.4211,1.5364.9061,0,1.4946-.6671,1.4946-1.5364,0-.9112-.5885-1.5381-1.4378-1.5381"/>
        </g>
      </g>
      <g class="cls-67">
        <g class="cls-45">
          <path class="cls-4" d="M198.6824,434.6145c-1.6902,0-3.24.1555-4.5474.3745v16.1868c1.085.1304,2.3356.194,3.8854.194,3.2083,0,5.7645-.8209,7.3394-2.359,1.5264-1.5197,2.3757-3.7165,2.3757-6.4082,0-2.6833-.8493-4.5792-2.3523-5.9284-1.4428-1.3191-3.6313-2.0597-6.7008-2.0597M198.445,449.6712c-.8493,0-1.6317-.0318-2.1701-.097v-13.0488c.5534-.112,1.4027-.219,2.5044-.219,4.5157,0,6.7275,2.466,6.7025,6.3697,0,4.4404-2.456,6.995-7.0368,6.995"/>
        </g>
      </g>
      <g class="cls-67">
        <g class="cls-49">
          <path class="cls-4" d="M217.4453,434.7476h-2.5479l-5.6408,16.4794h2.2052l1.7136-5.1794h5.8782l1.7621,5.1794h2.2787l-5.6492-16.4794ZM213.6234,444.3792l1.6167-4.7664c.3427-.9998.5885-2.033.8409-2.9843h.0418c.2525.9513.4965,1.9343.8643,3.0093l1.6401,4.7414h-5.0039Z"/>
        </g>
      </g>
      <g class="cls-67">
        <g class="cls-51">
          <polygon class="cls-4" points="235.9055 434.7481 223.6525 434.7481 223.6525 436.5554 228.6815 436.5554 228.6815 451.2275 230.8448 451.2275 230.8448 436.5554 235.9055 436.5554 235.9055 434.7481"/>
        </g>
      </g>
      <g class="cls-67">
        <g class="cls-50">
          <polygon class="cls-4" points="246.6833 434.754 237.7205 434.754 237.7205 451.2251 247.0594 451.2251 247.0594 449.4445 239.8839 449.4445 239.8839 443.4978 246.2921 443.4978 246.2921 441.7406 239.8839 441.7406 239.8839 436.5345 246.6833 436.5345 246.6833 434.754"/>
        </g>
      </g>
      <g class="cls-67">
        <g class="cls-54">
          <path class="cls-4" d="M470.3351,326.7767h-15.3576c-2.8723,0-5.2195,2.3456-5.2195,5.2078v30.0799c0,2.9141,2.2436,5.2078,5.2195,5.2078h15.3576c2.9759,0,5.2279-2.2937,5.2279-5.2078v-30.0799c0-2.8622-2.3539-5.2078-5.2279-5.2078M454.9775,331.9845h15.3576v30.0799h-15.3576v-30.0799Z"/>
        </g>
      </g>
      <g class="cls-67">
        <g class="cls-52">
          <path class="cls-4" d="M507.9673,326.777h-17.9707c-1.3592,0-2.6148.7323-2.6148,2.6031,0,1.8758,1.2555,2.6047,2.6148,2.6047h17.9707v8.6401c0,2.9124-1.1536,3.7985-2.6131,3.7985h-10.2401c-1.3559,0-2.6115.7273-2.6115,2.6048,0,1.8691,1.2556,2.598,2.6115,2.598h10.2401c1.4595,0,2.6131.8844,2.6131,3.7985v8.6384h-17.9707c-1.3592,0-2.6148.734-2.6148,2.6048,0,1.8725,1.2555,2.6031,2.6148,2.6031h17.9707c2.9759,0,5.2212-2.237,5.2212-5.2079v-9.991c0-2.0814-.418-3.5912-2.0363-5.044,1.6183-1.4596,2.0363-2.9709,2.0363-5.0507v-9.9927c0-2.9692-2.2453-5.2078-5.2212-5.2078"/>
        </g>
      </g>
      <g class="cls-67">
        <g class="cls-36">
          <path class="cls-4" d="M568.0197,326.7767h-3.133c-1.8274,0-2.247,1.4093-2.247,2.6047v34.6107c0,2.3958.9396,3.2802,3.3955,3.2802h19.0156c2.3473,0,3.3939-.8342,3.3939-3.2802v-11.6611c0-2.3908-.5183-3.4825-3.133-3.4825h-17.4458v-16.864c1.5113,0,2.6098-1.0432,2.6098-2.6031,0-1.3525-1.0984-2.6047-2.4559-2.6047M567.8659,354.0495h15.3576v8.0132h-15.3576v-8.0132Z"/>
        </g>
      </g>
      <g class="cls-67">
        <g class="cls-37">
          <path class="cls-4" d="M620.8502,326.7767h-15.3576c-2.8739,0-5.2212,2.3456-5.2212,5.2078v30.0799c0,2.9141,2.247,5.2078,5.2212,5.2078h15.3576c2.9759,0,5.2262-2.2937,5.2262-5.2078v-30.0799c0-2.8622-2.3523-5.2078-5.2262-5.2078M605.4926,331.9845h15.3576v30.0799h-15.3576v-30.0799Z"/>
        </g>
      </g>
      <g class="cls-67">
        <g class="cls-40">
          <path class="cls-4" d="M658.4819,326.7767h-15.3576c-2.8739,0-5.2279,2.3456-5.2279,5.2078v30.0799c0,2.9141,2.247,5.2078,5.2279,5.2078h15.3576c2.9759,0,5.2212-2.2937,5.2212-5.2078v-30.0799c0-2.8622-2.3539-5.2078-5.2212-5.2078M643.1243,331.9845h15.3576v30.0799h-15.3576v-30.0799Z"/>
        </g>
      </g>
      <g class="cls-67">
        <g class="cls-39">
          <path class="cls-4" d="M680.7501,326.777c-1.9861,0-2.6131,1.3024-2.6131,2.6031v24.6698h15.3576v10.6179c0,1.6685.734,2.6031,2.6131,2.6031,1.8825,0,2.6131-.9346,2.6131-2.6031v-10.6179c1.3576,0,2.6131-.7273,2.6131-2.603,0-1.8725-1.2556-2.5998-2.6131-2.5998v-15.0416c0-1.3024-.6269-2.6048-2.6131-2.6048s-2.6131,1.3024-2.6131,2.6048v15.0416h-10.1314v-19.467c0-1.3007-.6269-2.6031-2.6131-2.6031"/>
        </g>
      </g>
      <path class="cls-3" d="M204.3253,348.8476v-15.0417c0-1.3024.6286-2.6047,2.6131-2.6047,1.9811,0,2.6081,1.3024,2.6081,2.6047v15.0417c1.3575,0,2.6131.7273,2.6131,2.598,0,1.8758-1.2556,2.6031-2.6131,2.6031v10.6179c0,1.6685-.7289,2.6047-2.6081,2.6047-1.8825,0-2.6131-.9362-2.6131-2.6047v-10.6179h-15.3576v-24.6682c0-1.3024.6286-2.603,2.6131-2.603,1.9862,0,2.6081,1.3007,2.6081,2.603v19.4671h10.1364Z"/>
      <path class="cls-3" d="M229.2066,362.0635h15.3576v-8.0149h-15.3576v8.0149ZM229.2066,348.8476h17.4458c2.6131,0,3.1381,1.0934,3.1381,3.4825v11.6612c0,2.4459-1.0466,3.2801-3.3989,3.2801h-19.0123c-2.4543,0-3.3939-.8844-3.3939-3.2801v-34.6107c0-1.1954.4196-2.603,2.2453-2.603h3.1347c1.3575,0,2.4543,1.2505,2.4543,2.603,0,1.5615-1.0967,2.6031-2.6131,2.6031v16.864Z"/>
      <path class="cls-3" d="M282.1959,331.9848h-15.3576v30.0799h15.3576v-30.0799ZM282.1959,326.777c2.8689,0,5.2212,2.3456,5.2212,5.2078v30.0799c0,2.9124-2.2453,5.2062-5.2212,5.2062h-15.3576c-2.9809,0-5.2262-2.2938-5.2262-5.2062v-30.0799c0-2.8622,2.3523-5.2078,5.2262-5.2078h15.3576Z"/>
      <path class="cls-3" d="M319.8216,362.064v-10.5109c0-1.5114.6788-2.6048,2.6131-2.6048,1.9293,0,2.6131,1.0934,2.6131,2.6048v13.114c0,1.8708-1.2556,2.6047-2.6131,2.6047h-20.5838c-1.3576,0-2.6081-.7339-2.6081-2.6047s1.2505-2.6031,2.6081-2.6031h7.6805v-30.0799h-7.6805c-1.3576,0-2.6081-.7273-2.6081-2.6031,0-1.8725,1.2505-2.6047,2.6081-2.6047h12.9033v35.2877h5.0674Z"/>
      <path class="cls-3" d="M377.1081,331.9845c-1.3575,0-2.6081-.7273-2.6081-2.6031,0-1.8725,1.2505-2.6047,2.6081-2.6047h17.9707c2.9759,0,5.2262,2.2386,5.2262,5.2078v9.9926c0,2.0798-.418,3.5912-2.0413,5.049,1.6234,1.4545,2.0413,2.9658,2.0413,5.0457v9.9926c0,2.9692-2.2503,5.2078-5.2262,5.2078h-17.9707c-1.3575,0-2.6081-.7339-2.6081-2.6047s1.2505-2.6031,2.6081-2.6031h17.9707v-8.6401c0-2.9141-1.1486-3.7985-2.6131-3.7985h-10.2384c-1.3575,0-2.6081-.7273-2.6081-2.5997,0-1.8758,1.2505-2.6031,2.6081-2.6031h10.2384c1.4645,0,2.6131-.8844,2.6131-3.7985v-8.6401h-17.9707Z"/>
      <path class="cls-3" d="M427.4836,331.9848h-4.9102v12.4386h4.9102v-12.4386ZM432.7098,349.6245h-15.3576v12.4385h15.3576v-12.4385ZM430.0967,326.777c1.7755,0,2.6131,1.2505,2.6131,2.6048v15.0416c1.6184,0,2.8689.5701,3.8135,1.4545.9379.8844,1.4077,2.1868,1.4077,3.8035v12.3834c0,3.1782-1.9845,5.2062-5.2212,5.2062h-15.3576c-3.2417,0-5.2262-2.028-5.2262-5.2062v-12.3834c0-1.6167.4698-2.9191,1.4144-3.8035.9379-.8844,2.1885-1.4545,3.8118-1.4545v-15.0416c0-1.3542.8326-2.6048,2.6081-2.6048h10.1364Z"/>
      <path class="cls-3" d="M771.3645,331.9853h-15.3576v8.1168h15.3576v-8.1168ZM771.3645,345.3083h-17.9707c-1.4596,0-2.6081-1.2505-2.6081-2.6048v-13.323c0-1.3525,1.1485-2.6031,2.6081-2.6031h20.5838c1.4596,0,2.6131,1.2506,2.6131,2.6031v35.2877c0,1.4027-1.0466,2.6031-2.6131,2.6031h-2.6131c-1.5665,0-2.6131-1.2004-2.6131-2.6031,0-1.5615,1.0967-2.6047,2.6131-2.6047v-16.7553Z"/>
      <path class="cls-3" d="M803.7693,331.9848h-4.9102v12.4386h4.9102v-12.4386ZM808.9954,349.6245h-15.3576v12.4385h15.3576v-12.4385ZM806.3824,326.777c1.7755,0,2.6131,1.2505,2.6131,2.6048v15.0416c1.6184,0,2.8689.5701,3.8135,1.4545.9379.8844,1.4077,2.1868,1.4077,3.8035v12.3834c0,3.1782-1.9845,5.2062-5.2212,5.2062h-15.3576c-3.2418,0-5.2262-2.028-5.2262-5.2062v-12.3834c0-1.6167.4698-2.9191,1.4143-3.8035.9379-.8844,2.1885-1.4545,3.8119-1.4545v-15.0416c0-1.3542.8326-2.6048,2.6081-2.6048h10.1364Z"/>
      <path class="cls-3" d="M831.2639,362.0635h15.3576v-8.0149h-15.3576v8.0149ZM831.2639,348.8476h17.4458c2.6131,0,3.1381,1.0934,3.1381,3.4825v11.6612c0,2.4459-1.0466,3.2801-3.3989,3.2801h-19.0123c-2.4543,0-3.3939-.8844-3.3939-3.2801v-34.6107c0-1.1954.4196-2.603,2.2453-2.603h3.1347c1.3576,0,2.4543,1.2505,2.4543,2.603,0,1.5615-1.0967,2.6031-2.6131,2.6031v16.864Z"/>
      <path class="cls-3" d="M884.253,362.064v-10.5109c0-1.5114.6788-2.6048,2.6081-2.6048,1.9343,0,2.6131,1.0934,2.6131,2.6048v13.114c0,1.8708-1.2555,2.6047-2.6131,2.6047h-20.5788c-1.3575,0-2.6131-.7339-2.6131-2.6047s1.2556-2.6031,2.6131-2.6031h7.6755v-30.0799h-7.6755c-1.3575,0-2.6131-.7273-2.6131-2.6031,0-1.8725,1.2556-2.6047,2.6131-2.6047h12.9017v35.2877h5.069Z"/>
      <g class="cls-67">
        <g class="cls-38">
          <path class="cls-4" d="M313.8499,416.7824h-10.9222c-2.0463,0-3.7149,1.6685-3.7149,3.7031v21.398c0,2.0714,1.5966,3.6981,3.7149,3.6981h10.9222c2.1149,0,3.7165-1.6267,3.7165-3.6981v-21.398c0-2.0346-1.6735-3.7031-3.7165-3.7031M302.9277,420.4856h10.9222v21.398h-10.9222v-21.398Z"/>
        </g>
      </g>
      <g class="cls-67">
        <g class="cls-41">
          <path class="cls-4" d="M342.4703,416.7824h-14.6387c-1.0399,0-1.8558.8911-1.8558,1.8541v9.476c0,.963.8158,1.8491,1.8558,1.8491h12.783v11.922c-1.08,0-1.8624.7373-1.8624,1.8507,0,.9981.7456,1.8474,1.8624,1.8474h1.8558c1.1151,0,1.8591-.8493,1.8591-1.8474v-25.0978c0-.963-.8192-1.8541-1.8591-1.8541M329.6923,420.4856h10.9222v5.7729h-10.9222v-5.7729Z"/>
        </g>
      </g>
      <g class="cls-67">
        <g class="cls-44">
          <path class="cls-4" d="M369.2691,416.7828c-.9262,0-1.3743.6687-1.819,1.411l-13.8948,23.7269c-.3712.5918-.8158,1.2188-.8158,1.921,0,.963.9295,1.7404,1.8558,1.7404.9295,0,1.3742-.5149,1.819-1.2923l14.2659-24.3204c.2274-.4096.413-.8543.413-1.4462,0-.963-.8577-1.7404-1.824-1.7404"/>
        </g>
      </g>
      <g class="cls-67">
        <g class="cls-42">
          <path class="cls-4" d="M393.6953,416.7828h-12.3366c-.968,0-1.8574.52-1.8574,1.8541,0,1.3325.8894,1.8491,1.8574,1.8491h12.783v8.8474h-10.4424c-2.787,0-4.198,1.406-4.198,4.1813v12.0674h16.4962c.9663,0,1.8591-.5149,1.8591-1.8491s-.8928-1.8491-1.8591-1.8491h-12.7796v-8.8474h10.4775c1.2255,0,2.0781-.1856,3.0077-1.0399,1.0399-.958,1.1536-1.9577,1.1536-3.2919v-7.5902c0-1.3308-.1137-2.3289-1.1536-3.2919-.9295-.8543-1.7822-1.0399-3.0077-1.0399"/>
        </g>
      </g>
      <g class="cls-67">
        <g class="cls-43">
          <path class="cls-4" d="M409.9816,416.7828c-1.411,0-1.8591.9262-1.8591,1.8541v17.5461h10.9205v7.5501c0,1.1837.5233,1.8491,1.8608,1.8491,1.3391,0,1.8574-.6654,1.8574-1.8491v-7.5501c.9647,0,1.8591-.52,1.8591-1.8524,0-1.3308-.8944-1.8508-1.8591-1.8508v-10.6965c0-.9262-.4447-1.8524-1.8574-1.8524-1.4111,0-1.8608.9262-1.8608,1.8524v10.6965h-7.2057v-13.8429c0-.9279-.4447-1.8541-1.8558-1.8541"/>
        </g>
      </g>
    </g>
  </g>
</svg>