<?xml version="1.0" encoding="UTF-8"?><svg id="Layer_1" xmlns="http://www.w3.org/2000/svg" xmlns:xlink="http://www.w3.org/1999/xlink" viewBox="0 0 357.6999 391.7997"><defs><style>.cls-1,.cls-2,.cls-3{font-family:MonsalGothic-Bold, 'Monsal Gothic';font-size:17.11px;font-weight:700;}.cls-1,.cls-2,.cls-3,.cls-4{isolation:isolate;}.cls-1,.cls-5{fill:#293458;}.cls-2,.cls-3{fill:#274666;}.cls-6,.cls-7{fill:#fff;}.cls-8{fill:#4c9bd5;}.cls-3{letter-spacing:-.026em;}.cls-9{fill:url(#radial-gradient);}.cls-7{fill-rule:evenodd;}</style><radialGradient id="radial-gradient" cx="178.8501" cy="-17176.6895" fx="178.8501" fy="-17176.6895" r="148.1684" gradientTransform="translate(0 -1510.5129) scale(1 -.1097)" gradientUnits="userSpaceOnUse"><stop offset="0" stop-color="#a7a9ac"/><stop offset=".1925" stop-color="#bfc0c2"/><stop offset=".5156" stop-color="#e1e2e3"/><stop offset=".7812" stop-color="#f7f7f7"/><stop offset=".9544" stop-color="#fff"/></radialGradient></defs><g id="Layer_1-2"><g><ellipse class="cls-9" cx="178.8501" cy="373.77" rx="150.3211" ry="18.0297"/><g><path class="cls-8" d="m327.2965,121.6969l-.5694-8.7513-3.1137-48.0601-52.9179-21.0318-5.1451-6.2069L234.3618,0l-55.175,14.1374L124.0117,0l-31.1886,37.6468-5.1451,6.2069-30.4858,12.1112-22.4322,8.9154-3.6831,56.8165L.6733,169.8237l30.4037,48.1268,3.6831,56.8114,52.9179,21.0318,36.3336,43.8538,55.175-14.1374,55.175,14.1374,36.3336-43.8538,52.9179-21.0266,3.6831-56.8165,30.4037-48.1268-30.4037-48.1268h.0003Zm-4.4115,94.8172l-.831,12.7883-2.7444,42.3354-39.4679,15.6815-11.8752,4.7193-8.1767,9.8695-27.0694,32.6762-41.1196-10.5364-11.8547-3.0368-.5591-.1436-12.4139,3.1804-41.1145,10.5364-27.0643-32.671-7.8177-9.4335-.3693-.4412-11.8752-4.7193-39.4679-15.6815-2.7393-42.3251-.831-12.7986-6.843-10.8339-22.6579-35.8566,22.6579-35.8566,6.843-10.8339.831-12.7986,2.7393-42.3251,18.1283-7.2021,21.3395-8.4794,11.8752-4.7193,8.1767-9.8695.0769-.0923L125.6584,5.063l41.1145,10.5364,12.4139,3.1804,12.4139-3.1804,41.1196-10.5364,26.9925,32.5838.0769.0923,8.1767,9.8695,11.8752,4.7193,39.4679,15.6815,2.7444,42.3354.1693,2.6008.6617,10.1876,6.8379,10.8237,22.6579,35.8668-22.6579,35.8668-6.8379,10.8237h0Z"/><path class="cls-8" d="m328.6812,131.3226h-27.245c-16.4822-51.4974-64.7452-88.7855-121.7154-88.7855s-105.2331,37.2881-121.7153,88.7855h-27.2451C48.0265,65.1822,108.1767,16.3718,179.7208,16.3718s131.6943,48.8104,148.9603,114.9509h0Z"/><path class="cls-5" d="m33.4524,218.4468h292.5368c-20.2095,61.4517-78.062,105.8149-146.2684,105.8149s-126.0589-44.3632-146.2684-105.8149h0Z"/><polygon class="cls-5" points="338.4531 174.8872 353.7125 209.3107 0 209.3107 15.2594 174.8872 17.2858 170.3168 4.0478 140.4586 0 131.3226 353.7125 131.3226 349.6647 140.4586 336.4268 170.3168 338.4531 174.8872"/><path d="m328.6812,209.3107c-.8036,3.0815-1.701,6.1285-2.692,9.1361H33.4524c-.991-3.0076-1.8884-6.0546-2.692-9.1361h297.9208Z"/><path class="cls-6" d="m314.3511,170.3168c0,14.3239-2.2384,28.1283-6.388,41.0758-.3428,1.0699-.696,2.1294-1.0647,3.189-.3895,1.1166-.7894,2.2228-1.2102,3.3291-19.2214,50.845-68.3577,87.0077-125.9388,87.0077s-106.7174-36.1627-125.9388-87.0077c-.4207-1.1063-.8206-2.2126-1.2102-3.3291-.3687-1.0595-.7219-2.119-1.0646-3.189-4.1497-12.9475-6.388-26.7519-6.388-41.0758s2.2384-28.1285,6.388-41.076c17.3621-54.2467,68.2019-93.5256,128.2136-93.5256s110.8514,39.2789,128.2136,93.5256c4.1496,12.9475,6.388,26.7521,6.388,41.076h.0001Z"/><path class="cls-5" d="m297.1072,181.9871c-4.4766,60.9056-55.309,108.9281-117.3576,108.9281s-112.8941-48.0349-117.3594-108.9516"/><g class="cls-4"><text class="cls-2" transform="translate(72.4764 164.4903) rotate(-82.6206) scale(.975 1)"><tspan x="0" y="0">F</tspan></text></g><g class="cls-4"><text class="cls-2" transform="translate(73.5193 156.0337) rotate(-77.976) scale(.975 1)"><tspan x="0" y="0">R</tspan></text></g><g class="cls-4"><text class="cls-2" transform="translate(75.628 146.0486) rotate(-72.6924) scale(.975 1)"><tspan x="0" y="0">A</tspan></text></g><g class="cls-4"><text class="cls-2" transform="translate(78.6423 136.2346) rotate(-67.2634) scale(.975 1)"><tspan x="0" y="0">U</tspan></text></g><g class="cls-4"><text class="cls-2" transform="translate(82.9495 125.8966) rotate(-61.4438) scale(.975 1)"><tspan x="0" y="0">D</tspan></text></g><g class="cls-4"><text class="cls-2" transform="translate(90.7177 112.301) rotate(-53.96) scale(.975 1)"><tspan x="0" y="0">P</tspan></text></g><g class="cls-4"><text class="cls-2" transform="translate(96.0622 104.8924) rotate(-49.029) scale(.975 1)"><tspan x="0" y="0">R</tspan></text></g><g class="cls-4"><text class="cls-2" transform="translate(102.774 97.1841) rotate(-44.0041) scale(.975 1)"><tspan x="0" y="0">E</tspan></text></g><g class="cls-4"><text class="cls-2" transform="translate(109.3116 90.8256) rotate(-39.0136) scale(.975 1)"><tspan x="0" y="0">V</tspan></text></g><g class="cls-4"><text class="cls-2" transform="translate(117.1057 84.5225) rotate(-33.9591) scale(.975 1)"><tspan x="0" y="0">E</tspan></text></g><g class="cls-4"><text class="cls-2" transform="translate(124.6451 79.3746) rotate(-28.5715) scale(.975 1)"><tspan x="0" y="0">N</tspan></text></g><g class="cls-4"><text class="cls-3" transform="translate(134.2335 74.1699) rotate(-23.1317) scale(.975 1)"><tspan x="0" y="0">T</tspan></text></g><g class="cls-4"><text class="cls-2" transform="translate(142.923 70.5336) rotate(-19.3525) scale(.975 1)"><tspan x="0" y="0">I</tspan></text></g><g class="cls-4"><text class="cls-2" transform="translate(147.301 68.8266) rotate(-14.7481) scale(.975 1)"><tspan x="0" y="0">O</tspan></text></g><g class="cls-4"><text class="cls-2" transform="translate(158.9804 65.7616) rotate(-8.4773) scale(.975 1)"><tspan x="0" y="0">N</tspan></text></g><g class="cls-4"><text class="cls-1" transform="translate(178.2043 63.7227) rotate(.9164) scale(.975 1)"><tspan x="0" y="0">•</tspan></text></g><g class="cls-4"><text class="cls-2" transform="translate(191.9199 64.2689) rotate(9.0765) scale(.975 1)"><tspan x="0" y="0">R</tspan></text></g><g class="cls-4"><text class="cls-2" transform="translate(202.0267 65.9766) rotate(13.1444) scale(.975 1)"><tspan x="0" y="0">I</tspan></text></g><g class="cls-4"><text class="cls-2" transform="translate(206.6241 66.9686) rotate(16.9153) scale(.975 1)"><tspan x="0" y="0">S</tspan></text></g><g class="cls-4"><text class="cls-2" transform="translate(215.3298 69.5679) rotate(22.2498) scale(.975 1)"><tspan x="0" y="0">K</tspan></text></g><g class="cls-4"><text class="cls-2" transform="translate(228.8479 75.2943) rotate(30.9169) scale(.975 1)"><tspan x="0" y="0">M</tspan></text></g><g class="cls-4"><text class="cls-2" transform="translate(240.3656 82.2707) rotate(37.2513) scale(.975 1)"><tspan x="0" y="0">A</tspan></text></g><g class="cls-4"><text class="cls-2" transform="translate(248.7592 88.6202) rotate(42.9146) scale(.975 1)"><tspan x="0" y="0">N</tspan></text></g><g class="cls-4"><text class="cls-2" transform="translate(256.8753 96.1695) rotate(48.5171) scale(.975 1)"><tspan x="0" y="0">A</tspan></text></g><g class="cls-4"><text class="cls-2" transform="translate(263.6162 103.7157) rotate(53.9604) scale(.975 1)"><tspan x="0" y="0">G</tspan></text></g><g class="cls-4"><text class="cls-2" transform="translate(270.2892 112.9536) rotate(59.2362) scale(.975 1)"><tspan x="0" y="0">E</tspan></text></g><g class="cls-4"><text class="cls-2" transform="translate(275.0512 120.7106) rotate(65.0298) scale(.975 1)"><tspan x="0" y="0">M</tspan></text></g><g class="cls-4"><text class="cls-2" transform="translate(280.6631 132.9896) rotate(70.8151) scale(.975 1)"><tspan x="0" y="0">E</tspan></text></g><g class="cls-4"><text class="cls-2" transform="translate(283.7146 141.5933) rotate(75.979) scale(.975 1)"><tspan x="0" y="0">N</tspan></text></g><g class="cls-4"><text class="cls-3" transform="translate(286.3524 152.2328) rotate(81.14) scale(.975 1)"><tspan x="0" y="0">T</tspan></text></g><g><path class="cls-8" d="m190.0197,94.0687h-24.0776c-3.6488,0-6.6062,2.3515-6.6062,5.2504v19.1291c0,2.8988,2.9574,5.2499,6.6062,5.2499h24.0776c3.6488,0,6.6062-2.3511,6.6062-5.2499v-19.1291c0-2.8988-2.9574-5.2504-6.6062-5.2504Zm-8.4024,23.7093h-7.2712l2.3386-11.2228c-1.5748-.4561-2.7127-1.7012-2.7127-3.1848,0-1.867,1.7943-3.3811,4.0106-3.3811,2.2127,0,4.0071,1.5142,4.0071,3.3811,0,1.5128-1.1839,2.777-2.8059,3.2092l2.4335,11.1983h0Z"/><path class="cls-8" d="m195.094,91.9456c0-9.4511-7.6612-17.1123-17.1132-17.1123s-17.1131,7.6611-17.1131,17.1123h5.3563c0-6.4928,5.2641-11.756,11.7568-11.756s11.7569,5.2632,11.7569,11.756h5.3563Z"/><path class="cls-5" d="m118.175,158.7901c0,2.1255.0926,4.205.3698,5.453h-6.3312l-.4158-2.2649h-.1386c-1.4793,1.8024-3.79,2.7732-6.4705,2.7732-4.5756,0-7.3021-3.3276-7.3021-6.9322,0-5.8695,5.2692-8.642,13.2635-8.642v-.2772c0-1.248-.6462-2.9578-4.1123-2.9578-2.3108,0-4.7601.7856-6.2393,1.7097l-1.294-4.5289c1.5711-.8782,4.6682-2.0336,8.7806-2.0336,7.5332,0,9.89,4.4363,9.89,9.7974v7.9033Zm-6.793-5.2225c-3.6981,0-6.5632.8782-6.5632,3.5587,0,1.8024,1.202,2.6798,2.7732,2.6798,1.7097,0,3.1889-1.1546,3.6513-2.5879.0919-.3691.1386-.7856.1386-1.2013v-2.4493h0Z"/><path class="cls-8" d="m145.1454,164.0805c-1.248.601-12.75.6251-15.4305.6251-7.3021,0-11.9695-4.4829-11.9695-11.5537,0-6.6092,4.5289-12.0162,12.9396-12.0162,1.849,0,3.8819.3239,5.3612.8781l-1.1087,5.2225c-.8323-.3698-2.0803-.6937-3.9286-.6937-3.6973,0-6.1007,2.6346-6.054,6.332,0,4.1131,2.7731,6.3312,6.1926,6.3312,1.6637,0,6.3764-1.0832,7.4399-1.5456l6.5581,6.4202h-.0001Z"/><path class="cls-5" d="m158.6984,156.9877c0,2.9578.0934,5.3604.1852,7.2554h-6.1007l-.3232-3.189h-.1386c-.8782,1.3866-3.0044,3.6973-7.0708,3.6973-4.6215,0-7.9491-2.8651-7.9491-9.844v-13.2635h7.0249v12.1548c0,3.2808,1.0627,5.2685,3.5581,5.2685,1.9417,0,3.0971-1.3406,3.5128-2.4493.1852-.4165.2772-.9242.2772-1.5252v-13.4488h7.0242v15.3438h0Z"/><path class="cls-5" d="m169.1227,135.3588c0,1.9409-1.4325,3.5128-3.79,3.5128-2.2188,0-3.651-1.5719-3.651-3.5128,0-1.9869,1.4789-3.5121,3.743-3.5121,2.2655,0,3.6513,1.5252,3.698,3.5121Zm-7.2564,28.8844v-22.5991h7.0245v22.5991h-7.0245Z"/><path class="cls-5" d="m178.6516,135.544v6.1h5.0373v5.1766h-5.0373v8.1796c0,2.7265.6944,3.9745,2.7732,3.9745.9702,0,1.4326-.046,2.0803-.1846l.0452,5.3144c-.8767.3231-2.5879.601-4.5281.601-2.264,0-4.159-.7863-5.3144-1.9409-1.294-1.3407-1.9417-3.5129-1.9417-6.7018v-9.2423h-3.0037v-5.1766h3.0037v-4.205l6.8855-1.895h0Z"/><path class="cls-5" d="m191.0164,141.644l3.3742,11.138c.369,1.294.8315,3.0037,1.1087,4.2058h.1852c.2772-1.248.6463-2.9117.9702-4.2517l2.8198-11.092h7.4866l-5.2692,14.8813c-3.2342,9.0118-5.4064,12.5705-7.9491,14.8346-2.4027,2.1262-4.9905,2.9117-6.747,3.0963l-1.5244-5.9154c.8767-.1846,1.9869-.6003,3.0489-1.2013,1.0635-.5544,2.2655-1.7097,2.9118-2.8191.2319-.3699.3705-.7397.3705-1.0168s-.0467-.6003-.2772-1.1553l-8.3196-20.7042h7.8104l.0002-.0002Z"/><path class="cls-8" d="m219.2385,135.544v6.1h5.0372v5.1766h-5.0372v8.1796c0,2.7265.6929,3.9745,2.7732,3.9745.9701,0,10.5617-.046,11.2095-.1846l.9044,5.2904c-.8782.3231-12.5764-.2582-14.5165-.2582-2.2655,0-4.1591-.7863-5.3145-1.9409-1.2939-1.3407-1.9417-2.6296-1.9417-5.8185v-9.2423h-3.0036v-5.1766h3.0036v-4.205l6.8856-1.895h0Z"/><path class="cls-8" d="m230.9243,154.8309c.1852,2.9111,3.0971,4.2976,6.3779,4.2976,2.4027,0,4.3443-.3239,6.2393-.9708l.9234,4.7601c-2.3108.9709-5.1292,1.4333-8.1795,1.4333-7.6719,0-12.0614-4.4369-12.0614-11.5078,0-5.7302,3.5581-12.0621,11.4152-12.0621,7.3013,0,10.0745,5.6849,10.0745,11.2765,0,1.2013-.1386,2.2648-.232,2.7732h-14.5574Zm8.2729-4.8067c0-1.7098-.7397-4.5748-3.9753-4.5748-2.957,0-4.1591,2.7264-4.3429,4.5748h8.3182,0Z"/><path class="cls-8" d="m262.649,163.2876c-1.2473.601-3.6047,1.0634-6.2846,1.0634-7.3028,0-11.9695-4.4829-11.9695-11.5538,0-6.6091,4.5281-12.0161,12.9397-12.0161,1.8483,0,3.8818.3238,5.3611.8781l-1.1087,5.2225c-.8329-.3698-2.0802-.6936-3.9285-.6936-3.6981,0-6.1008,2.6346-6.0541,6.332,0,4.1131,2.7717,6.3312,6.1926,6.3312,1.6631,0,2.957-.2772,4.0205-.7396l.8315,5.1759h0Z"/></g><g><path class="cls-6" d="m122.5382,220.0279v4.5912c0,5.5293-2.7646,8.6888-8.0963,8.6888s-8.0963-3.1595-8.0963-8.6888v-17.9697c0-5.5293,2.7646-8.6889,8.0963-8.6889s8.0963,3.1596,8.0963,8.6889v3.357h-5.1342v-3.7027c0-2.4684-1.0862-3.4062-2.814-3.4062s-2.814.9377-2.814,3.4062v18.6611c0,2.4685,1.0862,3.357,2.814,3.357s2.814-.8885,2.814-3.357v-4.9369h5.1342Z"/><path class="cls-6" d="m131.2759,212.9189h7.4544v4.937h-7.4544v10.1202h9.3799v4.9369h-14.8105v-34.5576h14.8105v4.937h-9.3799v9.6266h0Z"/><path class="cls-6" d="m155.3673,232.913c-.2962-.8885-.4936-1.4317-.4936-4.2455v-5.4306c0-3.2091-1.0861-4.3938-3.5544-4.3938h-1.876v14.0699h-5.4306v-34.5576h8.1951c5.628,0,8.0471,2.6164,8.0471,7.9482v2.7151c0,3.5548-1.1355,5.875-3.5546,7.0105,2.7153,1.1355,3.604,3.7519,3.604,7.3556v5.3319c0,1.6786.0494,2.9129.5924,4.1963h-5.5294Zm-5.924-29.6206v10.6138h2.1228c2.0241,0,3.2583-.8885,3.2583-3.6532v-3.4062c0-2.4685-.8392-3.5544-2.7646-3.5544h-2.6165Z"/><path class="cls-6" d="m162.2788,198.3554h16.7851v4.937h-5.6774v29.6206h-5.4304v-29.6206h-5.6774v-4.937h.0001Z"/><path class="cls-6" d="m181.433,198.3554h5.4305v34.5576h-5.4305v-34.5576Z"/><path class="cls-6" d="m196.243,213.7087h7.0102v4.937h-7.0102v14.2673h-5.4306v-34.5576h14.3661v4.937h-8.9355v10.4164h0Z"/><path class="cls-6" d="m207.7949,198.3554h5.4302v34.5576h-5.4302v-34.5576Z"/><path class="cls-6" d="m222.6047,212.9189h7.4546v4.937h-7.4546v10.1202h9.3799v4.9369h-14.8102v-34.5576h14.8102v4.937h-9.3799v9.6266h0Z"/><path class="cls-6" d="m235.3417,198.3554h8.5898c5.4306,0,8.0965,3.0116,8.0965,8.5406v17.4764c0,5.5293-2.6659,8.5406-8.0965,8.5406h-8.5898v-34.5576Zm5.4302,4.937v24.6837h3.0608c1.7279,0,2.7646-.8885,2.7646-3.357v-17.9697c0-2.4685-1.0368-3.357-2.7646-3.357h-3.0608Z"/></g><polygon class="cls-7" points="161.8019 252.2363 180.3956 256.697 208.2575 242.0402 189.3687 262.6279 180.3956 271.3543 171.6692 262.3812 161.8019 252.2363"/></g></g></g></svg>