<?xml version="1.0" encoding="UTF-8"?><svg id="Layer_1" xmlns="http://www.w3.org/2000/svg" xmlns:xlink="http://www.w3.org/1999/xlink" viewBox="0 0 358.0166 392.5272"><defs><style>.cls-1{font-size:34.5429px;}.cls-1,.cls-2,.cls-3{fill:#fff;}.cls-1,.cls-4{font-family:MonsalGothic-Bold, 'Monsal Gothic';font-weight:700;}.cls-5{fill:#f9cf5a;}.cls-6{fill:#a58428;}.cls-7,.cls-4{fill:#d4af37;}.cls-8{letter-spacing:-.06em;}.cls-9{letter-spacing:-.102em;}.cls-10{letter-spacing:-.073em;}.cls-11{letter-spacing:-.05em;}.cls-12{fill:url(#radial-gradient);}.cls-3{fill-rule:evenodd;}.cls-4{font-size:13.1263px;}</style><radialGradient id="radial-gradient" cx="179.1097" cy="-15856.6141" fx="179.1097" fy="-15856.6141" r="148.2163" gradientTransform="translate(0 -1364.9788) scale(1 -.1097)" gradientUnits="userSpaceOnUse"><stop offset="0" stop-color="#a7a9ac"/><stop offset=".1925" stop-color="#bfc0c2"/><stop offset=".5156" stop-color="#e1e2e3"/><stop offset=".7812" stop-color="#f7f7f7"/><stop offset=".9544" stop-color="#fff"/></radialGradient></defs><g id="Layer_1-2"><ellipse class="cls-12" cx="179.1097" cy="374.4918" rx="150.369" ry="18.0354"/></g><path class="cls-6" d="m327.586,121.8046l-.5699-8.759-3.1165-48.1026-52.9648-21.0504-5.1496-6.2124L234.5691,0l-55.2238,14.15L124.1214,0l-31.2161,37.6801-5.1496,6.2124-30.5128,12.1219-22.452,8.9233-3.6864,56.8668L.6739,169.974l30.4306,48.1694,3.6864,56.8616,52.9648,21.0504,36.3658,43.8926,55.2238-14.15,55.2238,14.15,36.3658-43.8926,52.9648-21.0452,3.6864-56.8668,30.4306-48.1694-30.4306-48.1694Zm-4.4154,94.9012l-.8317,12.7996-2.7468,42.3728-39.5028,15.6954-11.8858,4.7235-8.184,9.8783-27.0934,32.7051-41.156-10.5457-11.8652-3.0395-.5596-.1438-12.4248,3.1832-41.1509,10.5457-27.0882-32.6999-7.8246-9.4419-.3697-.4415-11.8858-4.7235-39.5028-15.6954-2.7417-42.3626-.8317-12.8099-6.8491-10.8435-22.6779-35.8883,22.6779-35.8883,6.8491-10.8435.8317-12.8099,2.7417-42.3626,18.1444-7.2085,21.3584-8.4869,11.8858-4.7235,8.184-9.8783.077-.0924L125.7695,5.0675l41.1509,10.5457,12.4248,3.1832,12.4248-3.1832,41.156-10.5457,27.0163,32.6127.077.0924,8.184,9.8783,11.8858,4.7235,39.5028,15.6954,2.7468,42.3728.1694,2.6031.6623,10.1966,6.8439,10.8332,22.6779,35.8986-22.6779,35.8986-6.8439,10.8332Z"/><path class="cls-5" d="m328.9719,131.4388h-27.2691c-16.4968-51.5429-64.8025-88.864-121.8231-88.864s-105.3263,37.3211-121.823,88.864h-27.2692C48.0689,65.2398,108.2724,16.3863,179.8798,16.3863s131.8108,48.8536,149.0921,115.0526Z"/><path class="cls-7" d="m33.482,218.6401h292.7956c-20.2273,61.5061-78.1311,105.9086-146.3978,105.9086s-126.1704-44.4025-146.3978-105.9086Z"/><polygon class="cls-7" points="338.7526 175.0419 354.0254 209.4959 0 209.4959 15.2729 175.0419 17.3011 170.4674 4.0513 140.5828 0 131.4388 354.0254 131.4388 349.974 140.5828 336.7245 170.4674 338.7526 175.0419"/><path class="cls-6" d="m328.9719,209.4959c-.8043,3.0842-1.7025,6.1339-2.6943,9.1442H33.482c-.9919-3.0102-1.89-6.06-2.6944-9.1442h298.1843Z"/><path class="cls-2" d="m314.6292,170.4674c0,14.3366-2.2404,28.1532-6.3936,41.1122-.3431,1.0709-.6966,2.1313-1.0656,3.1918-.3899,1.1176-.7901,2.2248-1.2112,3.3321-19.2384,50.8899-68.4181,87.0847-126.0502,87.0847s-106.8118-36.1947-126.0502-87.0847c-.4211-1.1073-.8214-2.2145-1.2112-3.3321-.369-1.0605-.7225-2.1209-1.0656-3.1918-4.1533-12.959-6.3937-26.7756-6.3937-41.1122s2.2404-28.1533,6.3937-41.1123c17.3775-54.2947,68.2622-93.6084,128.327-93.6084s110.9495,39.3136,128.3271,93.6084c4.1532,12.959,6.3936,26.7757,6.3936,41.1123Z"/><path class="cls-7" d="m297.3701,182.1481c-4.4805,60.9595-55.3579,109.0245-117.4615,109.0245s-112.994-48.0774-117.4632-109.048"/><path class="cls-7" d="m190.1878,94.1519h-24.0989c-3.6521,0-6.6121,2.3536-6.6121,5.255v19.146c0,2.9014,2.96,5.2546,6.6121,5.2546h24.0989c3.6521,0,6.6121-2.3532,6.6121-5.2546v-19.146c0-2.9014-2.96-5.255-6.6121-5.255Zm-8.4098,23.7302h-7.2776l2.3407-11.2327c-1.5762-.4565-2.7151-1.7027-2.7151-3.1876,0-1.8686,1.7959-3.3841,4.0141-3.3841,2.2147,0,4.0106,1.5155,4.0106,3.3841,0,1.5142-1.185,2.7795-2.8084,3.212l2.4357,11.2083Z"/><path class="cls-7" d="m195.2666,92.0269c0-9.4595-7.6679-17.1274-17.1283-17.1274s-17.1282,7.6679-17.1282,17.1274h5.361c0-6.4986,5.2687-11.7664,11.7672-11.7664s11.7673,5.2678,11.7673,11.7664h5.361Z"/><path class="cls-7" d="m118.2795,158.9306c0,2.1274.0927,4.2087.3701,5.4579h-6.3368l-.4162-2.2669h-.1387c-1.4806,1.804-3.7933,2.7757-6.4763,2.7757-4.5796,0-7.3085-3.3305-7.3085-6.9383,0-5.8747,5.2739-8.6496,13.2752-8.6496v-.2774c0-1.2491-.6468-2.9604-4.116-2.9604-2.3128,0-4.7643.7863-6.2448,1.7113l-1.2952-4.5329c1.5725-.879,4.6723-2.0354,8.7884-2.0354,7.5399,0,9.8987,4.4402,9.8987,9.806v7.9101Zm-6.7989-5.2272c-3.7014,0-6.569.879-6.569,3.5619,0,1.804,1.2031,2.6822,2.7757,2.6822,1.7112,0,3.1917-1.1557,3.6546-2.5902.092-.3694.1387-.7863.1387-1.2024v-2.4515Z"/><path class="cls-5" d="m145.2738,164.2256c-1.2491.6016-12.7612.6256-15.4442.6256-7.3085,0-11.9801-4.4868-11.9801-11.5639,0-6.615,4.5329-12.0268,12.951-12.0268,1.8507,0,3.8853.3241,5.3659.8789l-1.1097,5.2272c-.833-.3701-2.0821-.6943-3.9321-.6943-3.7006,0-6.1061,2.637-6.0594,6.3376,0,4.1167,2.7756,6.3368,6.1981,6.3368,1.6652,0,6.3821-1.0841,7.4465-1.5469l6.5639,6.4259Z"/><path class="cls-7" d="m158.8388,157.1266c0,2.9604.0934,5.3652.1854,7.2618h-6.1061l-.3235-3.1918h-.1387c-.879,1.3879-3.0071,3.7006-7.0771,3.7006-4.6256,0-7.9561-2.8676-7.9561-9.8527v-13.2752h7.0311v12.1656c0,3.2837,1.0636,5.2731,3.5612,5.2731,1.9434,0,3.0998-1.3418,3.5159-2.4515.1854-.4168.2774-.925.2774-1.5265v-13.4607h7.0304v15.3573Z"/><path class="cls-7" d="m169.2723,135.4785c0,1.9426-1.4338,3.5159-3.7933,3.5159-2.2208,0-3.6543-1.5733-3.6543-3.5159,0-1.9887,1.4802-3.5152,3.7463-3.5152,2.2675,0,3.6546,1.5265,3.7013,3.5152Zm-7.2629,28.9099v-22.6191h7.0307v22.6191h-7.0307Z"/><path class="cls-7" d="m178.8096,135.6639v6.1054h5.0418v5.1812h-5.0418v8.1868c0,2.7289.695,3.978,2.7757,3.978.971,0,1.4338-.0461,2.0821-.1847l.0452,5.3191c-.8775.3234-2.5902.6016-4.5321.6016-2.266,0-4.1627-.787-5.3191-1.9426-1.2951-1.3419-1.9434-3.516-1.9434-6.7077v-9.2504h-3.0064v-5.1812h3.0064v-4.2087l6.8916-1.8967Z"/><path class="cls-7" d="m191.1854,141.7693l3.3772,11.1478c.3694,1.2952.8323,3.0064,1.1097,4.2095h.1854c.2774-1.2491.6469-2.9143.971-4.2555l2.8223-11.1019h7.4933l-5.2739,14.8945c-3.2371,9.0197-5.4111,12.5816-7.9561,14.8477-2.4048,2.1281-4.995,2.9143-6.7529,3.099l-1.5258-5.9207c.8775-.1847,1.9887-.6008,3.0516-1.2024,1.0645-.5548,2.2675-1.7113,2.9144-2.8216.2321-.3702.3709-.7403.3709-1.0177s-.0467-.6008-.2774-1.1563l-8.327-20.7225h7.8173Z"/><path class="cls-5" d="m219.4325,135.6639v6.1054h5.0417v5.1812h-5.0417v8.1868c0,2.7289.6935,3.978,2.7756,3.978.9709,0,10.5711-.0461,11.2194-.1847l.9052,5.295c-.879.3234-12.5875-.2584-14.5294-.2584-2.2675,0-4.1628-.787-5.3192-1.9426-1.2951-1.3419-1.9434-2.6319-1.9434-5.8237v-9.2504h-3.0063v-5.1812h3.0063v-4.2087l6.8917-1.8967Z"/><path class="cls-5" d="m231.1286,154.9679c.1854,2.9137,3.0998,4.3014,6.3836,4.3014,2.4048,0,4.3482-.3241,6.2448-.9717l.9242,4.7643c-2.3128.9718-5.1337,1.4346-8.1868,1.4346-7.6787,0-12.0721-4.4409-12.0721-11.518,0-5.7353,3.5612-12.0728,11.4253-12.0728,7.3078,0,10.0834,5.69,10.0834,11.2865,0,1.2024-.1387,2.2668-.2322,2.7757h-14.5703Zm8.2802-4.811c0-1.7113-.7403-4.5789-3.9788-4.5789-2.9596,0-4.1628,2.7289-4.3467,4.5789h8.3255Z"/><path class="cls-5" d="m262.8813,163.4321c-1.2484.6016-3.6079,1.0644-6.2901,1.0644-7.3092,0-11.9801-4.4869-11.9801-11.564,0-6.6149,4.5321-12.0268,12.9511-12.0268,1.8499,0,3.8853.3241,5.3658.8789l-1.1097,5.2271c-.8337-.3701-2.0821-.6943-3.932-.6943-3.7014,0-6.1061,2.637-6.0594,6.3376,0,4.1167,2.7741,6.3368,6.1981,6.3368,1.6645,0,2.9596-.2774,4.024-.7402l.8323,5.1804Z"/><polygon class="cls-3" points="161.945 252.4595 180.5552 256.9241 208.4418 242.2543 189.5362 262.8602 180.5552 271.5943 171.821 262.6133 161.945 252.4595"/><text class="cls-4" transform="translate(72.9617 160.1535) rotate(-83.0438) scale(.975 1)"><tspan x="0" y="0">P</tspan></text><text class="cls-4" transform="translate(73.8001 153.1203) rotate(-79.3037) scale(.975 1)"><tspan x="0" y="0">R</tspan></text><text class="cls-4" transform="translate(75.2673 145.3971) rotate(-75.5175) scale(.975 1)"><tspan x="0" y="0">E</tspan></text><text class="cls-4" transform="translate(77.0149 138.5675) rotate(-71.7528) scale(.975 1)"><tspan x="0" y="0">V</tspan></text><text class="cls-4" transform="translate(79.4373 131.2414) rotate(-67.9785) scale(.975 1)"><tspan x="0" y="0">E</tspan></text><text class="cls-4" transform="translate(82.0525 124.6896) rotate(-63.9774) scale(.975 1)"><tspan x="0" y="0">N</tspan></text><text class="cls-4" transform="translate(85.8059 117.0231) rotate(-59.8211) scale(.975 1)"><tspan x="0" y="0">Ç</tspan></text><text class="cls-4" transform="translate(89.6663 110.3591) rotate(-55.7615) scale(.975 1)"><tspan x="0" y="0">Ã</tspan></text><text class="cls-4" transform="translate(94.0266 103.8776) rotate(-51.4132) scale(.975 1)"><tspan x="0" y="0">O</tspan></text><text class="cls-4" transform="translate(99.9778 96.5568) rotate(-48.1682) scale(.975 1)"><tspan x="0" y="0"> </tspan></text><text class="cls-4" transform="translate(101.9915 94.1847) rotate(-45.0521) scale(.975 1)"><tspan x="0" y="0">D</tspan></text><text class="cls-4" transform="translate(108.2468 87.9528) rotate(-40.9354) scale(.975 1)"><tspan x="0" y="0">E</tspan></text><text class="cls-4" transform="translate(113.6458 83.3288) rotate(-38.2468) scale(.975 1)"><tspan x="0" y="0"> </tspan></text><text class="cls-4" transform="translate(116.0779 81.3537) rotate(-35.6076) scale(.975 1)"><tspan x="0" y="0">F</tspan></text><text class="cls-4" transform="translate(121.3997 77.5041) rotate(-31.8631) scale(.975 1)"><tspan x="0" y="0">R</tspan></text><text class="cls-4" transform="translate(128.0603 73.3512) rotate(-27.6068) scale(.975 1)"><tspan x="0" y="0">A</tspan></text><text class="cls-4" transform="translate(135.0447 69.6706) rotate(-23.2177) scale(.975 1)"><tspan x="0" y="0">U</tspan></text><text class="cls-4" transform="translate(142.9656 66.259) rotate(-18.4832) scale(.975 1)"><tspan x="0" y="0">D</tspan></text><text class="cls-4" transform="translate(151.3674 63.4792) rotate(-14.1776) scale(.975 1)"><tspan x="0" y="0">E</tspan></text><text class="cls-4" transform="translate(158.242 61.7892) rotate(-11.4016) scale(.975 1)"><tspan x="0" y="0"> </tspan></text><text class="cls-4" transform="translate(161.3538 61.1608) rotate(-9.6754) scale(.975 1)"><tspan x="0" y="0"> </tspan></text><text class="cls-4" transform="translate(164.468 60.6188) rotate(-7.6554) scale(.975 1)"><tspan x="0" y="0">•</tspan></text><text class="cls-4" transform="translate(168.7185 60.0558) rotate(-5.6405) scale(.975 1)"><tspan x="0" y="0"> </tspan></text><text class="cls-4" transform="translate(171.8699 59.7433) rotate(-3.934) scale(.975 1)"><tspan x="0" y="0"> </tspan></text><text class="cls-4" transform="translate(174.9827 59.4606) rotate(-.9166) scale(.975 1)"><tspan x="0" y="0">G</tspan></text><text class="cls-4" transform="translate(183.7483 59.36) rotate(3.476) scale(.975 1)"><tspan x="0" y="0">E</tspan></text><text class="cls-4" transform="translate(190.7854 59.7673) rotate(7.4995) scale(.975 1)"><tspan x="0" y="0">R</tspan></text><text class="cls-4" transform="translate(198.5588 60.7985) rotate(11.5344) scale(.975 1)"><tspan x="0" y="0">E</tspan></text><text class="cls-4" transform="translate(205.4661 62.1745) rotate(15.7782) scale(.975 1)"><tspan x="0" y="0">N</tspan></text><text class="cls-4" transform="translate(213.7092 64.5148) rotate(20.1981) scale(.975 1)"><tspan x="0" y="0">C</tspan></text><text class="cls-4" transform="translate(220.9309 67.2262) rotate(23.2604) scale(.975 1)"><tspan x="0" y="0">I</tspan></text><text class="cls-4" transform="translate(224.304 68.6047) rotate(26.4366) scale(.975 1)"><tspan x="0" y="0">A</tspan></text><text class="cls-4" transform="translate(231.5823 72.1603) rotate(31.38) scale(.975 1)"><tspan x="0" y="0">M</tspan></text><text class="cls-4" transform="translate(240.4133 77.6183) rotate(35.9833) scale(.975 1)"><tspan x="0" y="0">E</tspan></text><text class="cls-4" transform="translate(246.1282 81.7272) rotate(40.0792) scale(.975 1)"><tspan x="0" y="0">N</tspan></text><text class="cls-4" transform="translate(252.5852 87.1764) rotate(44.1679) scale(.975 1)"><tspan x="0" y="0">T</tspan></text><text class="cls-4" transform="translate(257.4846 91.8508) rotate(48.2088) scale(.975 1)"><tspan x="0" y="0">O</tspan></text><text class="cls-4" transform="translate(263.6956 98.9269) rotate(51.4431) scale(.975 1)"><tspan x="0" y="0"> </tspan></text><text class="cls-4" transform="translate(265.7131 101.3288) rotate(54.5537) scale(.975 1)"><tspan x="0" y="0">D</tspan></text><text class="cls-4" transform="translate(270.8196 108.547) rotate(58.62) scale(.975 1)"><tspan x="0" y="0">E</tspan></text><text class="cls-4" transform="translate(274.47 114.6125) rotate(61.2389) scale(.975 1)"><tspan x="0" y="0"> </tspan></text><text class="cls-4" transform="translate(276.0335 117.3341) rotate(64.0698) scale(.975 1)"><tspan x="0" y="0">R</tspan></text><text class="cls-4" transform="translate(279.4426 124.4616) rotate(67.0251) scale(.975 1)"><tspan x="0" y="0">I</tspan></text><text class="cls-4" transform="translate(280.9036 127.8014) rotate(69.7643) scale(.975 1)"><tspan x="0" y="0">S</tspan></text><text class="cls-4" transform="translate(283.3508 134.3869) rotate(73.528) scale(.975 1)"><tspan x="0" y="0">C</tspan></text><text class="cls-4" transform="translate(285.5042 141.509) rotate(77.7433) scale(.975 1)"><tspan x="0" y="0">O</tspan></text><text class="cls-4" transform="translate(287.4446 150.6008) rotate(81.8476) scale(.975 1)"><tspan x="0" y="0">S</tspan></text><text class="cls-1" transform="translate(80.2962 216.0202)"><tspan class="cls-11" x="0" y="0">CE</tspan><tspan class="cls-9" x="37.1685" y="0">R</tspan><tspan class="cls-8" x="55.2686" y="0">T</tspan><tspan class="cls-11" x="73.4385" y="0">I</tspan><tspan class="cls-10" x="81.8325" y="0">F</tspan><tspan class="cls-11" x="98.2056" y="0">ICADO</tspan></text></svg>