<?xml version="1.0" encoding="UTF-8"?><svg id="Layer_1" xmlns="http://www.w3.org/2000/svg" xmlns:xlink="http://www.w3.org/1999/xlink" viewBox="0 0 359.1188 393.5829"><defs><style>.cls-1{font-size:14.8497px;}.cls-1,.cls-2{fill:#a7a9ac;}.cls-1,.cls-3{font-family:MonsalGothic-Bold, 'Monsal Gothic';font-weight:700;}.cls-4,.cls-5,.cls-3{fill:#fff;}.cls-6{fill:#d1d3d4;}.cls-7{fill:#6d6e71;}.cls-8{fill:#808285;}.cls-9{letter-spacing:-.06em;}.cls-10{letter-spacing:-.102em;}.cls-11{letter-spacing:-.073em;}.cls-12{letter-spacing:-.05em;}.cls-13{letter-spacing:-.05em;}.cls-14{fill:url(#radial-gradient);}.cls-5{fill-rule:evenodd;}.cls-3{font-size:34.6493px;}</style><radialGradient id="radial-gradient" cx="179.5594" cy="-15876.6241" fx="179.5594" fy="-15876.6241" r="148.9029" gradientTransform="translate(0 -1366.2019) scale(1 -.1097)" gradientUnits="userSpaceOnUse"><stop offset="0" stop-color="#a7a9ac"/><stop offset=".1925" stop-color="#bfc0c2"/><stop offset=".5156" stop-color="#e1e2e3"/><stop offset=".7812" stop-color="#f7f7f7"/><stop offset=".9544" stop-color="#fff"/></radialGradient></defs><g id="Layer_1-2"><ellipse class="cls-14" cx="179.5594" cy="375.4638" rx="151.0667" ry="18.1191"/></g><path class="cls-8" d="m328.5945,122.1796l-.5717-8.786-3.1261-48.2507-53.1278-21.1152-5.1655-6.2315L235.2912,0l-55.3938,14.1935L124.5035,0l-31.3122,37.7961-5.1655,6.2315-30.6067,12.1592-22.5211,8.9508-3.6977,57.0418L.676,170.4972l30.5243,48.3177,3.6977,57.0367,53.1278,21.1152,36.4777,44.0277,55.3938-14.1935,55.3938,14.1935,36.4777-44.0277,53.1278-21.11,3.6977-57.0418,30.5243-48.3177-30.5243-48.3177Zm-4.429,95.1933l-.8343,12.8391-2.7553,42.5033-39.6244,15.7437-11.9223,4.738-8.2092,9.9087-27.1768,32.8058-41.2827-10.5782-11.9017-3.0488-.5614-.1442-12.4631,3.193-41.2776,10.5782-27.1716-32.8006-7.8487-9.4709-.3708-.4429-11.9223-4.738-39.6244-15.7437-2.7501-42.493-.8343-12.8494-6.8702-10.8769-22.7477-35.9988,22.7477-35.9988,6.8702-10.8769.8343-12.8494,2.7501-42.493,18.2002-7.2307,21.4242-8.513,11.9223-4.738,8.2092-9.9087.0773-.0927L126.1567,5.0831l41.2776,10.5782,12.4631,3.193,12.4631-3.193,41.2827-10.5782,27.0995,32.7131.0773.0927,8.2092,9.9087,11.9223,4.738,39.6244,15.7437,2.7553,42.5033.17,2.6111.6644,10.228,6.865,10.8666,22.7477,36.0091-22.7477,36.0091-6.865,10.8666Z"/><path class="cls-6" d="m329.9847,131.8435h-27.353c-16.5476-51.7016-65.002-89.1376-122.1981-89.1376s-105.6505,37.436-122.198,89.1376h-27.3531C48.2169,65.4407,108.6057,16.4367,180.4335,16.4367s132.2166,49.004,149.5511,115.4067Z"/><path class="cls-2" d="m33.5851,219.3131h293.6969c-20.2896,61.6954-78.3716,106.2346-146.8485,106.2346s-126.5588-44.5392-146.8485-106.2346Z"/><polygon class="cls-2" points="339.7954 175.5808 355.1153 210.1408 0 210.1408 15.3199 175.5808 17.3543 170.9922 4.0638 141.0156 0 131.8435 355.1153 131.8435 351.0514 141.0156 337.761 170.9922 339.7954 175.5808"/><path class="cls-7" d="m329.9847,210.1408c-.8068,3.0937-1.7077,6.1528-2.7026,9.1723H33.5851c-.9949-3.0195-1.8959-6.0786-2.7027-9.1723h299.1023Z"/><path class="cls-4" d="m315.5978,170.9922c0,14.3807-2.2473,28.2399-6.4133,41.2387-.3442,1.0742-.6988,2.1379-1.0689,3.2016-.3911,1.121-.7926,2.2317-1.215,3.3423-19.2976,51.0466-68.6288,87.3528-126.4382,87.3528s-107.1406-36.3062-126.4382-87.3528c-.4223-1.1107-.8239-2.2213-1.215-3.3423-.3702-1.0637-.7247-2.1274-1.0689-3.2016-4.1661-12.9989-6.4134-26.858-6.4134-41.2387s2.2473-28.24,6.4134-41.2389c17.431-54.4619,68.4724-93.8965,128.722-93.8965s111.291,39.4347,128.7221,93.8965c4.166,12.9989,6.4133,26.8582,6.4133,41.2389Z"/><path class="cls-2" d="m298.2855,182.7088c-4.4943,61.1471-55.5283,109.3601-117.8231,109.3601s-113.3418-48.2254-117.8248-109.3837"/><path class="cls-2" d="m190.7733,94.4418h-24.1731c-3.6633,0-6.6324,2.3609-6.6324,5.2712v19.205c0,2.9103,2.9691,5.2707,6.6324,5.2707h24.1731c3.6633,0,6.6324-2.3604,6.6324-5.2707v-19.205c0-2.9103-2.9691-5.2712-6.6324-5.2712Zm-8.4357,23.8033h-7.3l2.3479-11.2673c-1.5811-.4579-2.7235-1.7079-2.7235-3.1974,0-1.8744,1.8014-3.3946,4.0265-3.3946,2.2215,0,4.0229,1.5202,4.0229,3.3946,0,1.5188-1.1886,2.788-2.817,3.2219l2.4431,11.2428Z"/><path class="cls-2" d="m195.8677,92.3102c0-9.4886-7.6915-17.1802-17.1811-17.1802s-17.181,7.6915-17.181,17.1802h5.3775c0-6.5186,5.2849-11.8026,11.8034-11.8026s11.8035,5.284,11.8035,11.8026h5.3775Z"/><path class="cls-2" d="m118.6436,159.4199c0,2.1339.093,4.2217.3713,5.4747h-6.3563l-.4175-2.2738h-.1391c-1.4851,1.8095-3.805,2.7842-6.4962,2.7842-4.5937,0-7.331-3.3408-7.331-6.9597,0-5.8928,5.2901-8.6762,13.3161-8.6762v-.2783c0-1.253-.6488-2.9695-4.1286-2.9695-2.3199,0-4.779.7887-6.264,1.7165l-1.2992-4.5468c1.5774-.8817,4.6867-2.0417,8.8154-2.0417,7.5631,0,9.9292,4.4539,9.9292,9.8362v7.9345Zm-6.8199-5.2432c-3.7128,0-6.5892.8817-6.5892,3.5728,0,1.8095,1.2068,2.6905,2.7842,2.6905,1.7165,0,3.2016-1.1592,3.6658-2.5982.0923-.3706.1392-.7887.1392-1.2061v-2.4591Z"/><path class="cls-6" d="m145.721,164.7312c-1.253.6034-12.8005.6276-15.4917.6276-7.331,0-12.017-4.5007-12.017-11.5995,0-6.6354,4.5468-12.0639,12.9909-12.0639,1.8564,0,3.8973.3251,5.3824.8816l-1.1131,5.2432c-.8356-.3713-2.0885-.6964-3.9442-.6964-3.712,0-6.1249,2.6451-6.078,6.3571,0,4.1294,2.7841,6.3563,6.2172,6.3563,1.6703,0,6.4017-1.0875,7.4694-1.5517l6.5841,6.4457Z"/><path class="cls-2" d="m159.3278,157.6104c0,2.9695.0937,5.3817.186,7.2842h-6.1249l-.3245-3.2016h-.1391c-.8817,1.3921-3.0164,3.712-7.0989,3.712-4.6398,0-7.9806-2.8764-7.9806-9.8831v-13.3161h7.0528v12.203c0,3.2938,1.0669,5.2894,3.5722,5.2894,1.9494,0,3.1093-1.3459,3.5267-2.4591.186-.4181.2783-.9278.2783-1.5312v-13.5021h7.052v15.4046Z"/><path class="cls-2" d="m169.7934,135.8956c0,1.9486-1.4382,3.5267-3.805,3.5267-2.2276,0-3.6655-1.5781-3.6655-3.5267,0-1.9948,1.4847-3.526,3.7578-3.526,2.2745,0,3.6658,1.5312,3.7127,3.526Zm-7.2852,28.9989v-22.6888h7.0524v22.6888h-7.0524Z"/><path class="cls-2" d="m179.3601,136.0816v6.1242h5.0573v5.1971h-5.0573v8.212c0,2.7373.6972,3.9903,2.7842,3.9903.974,0,1.4383-.0462,2.0885-.1853l.0454,5.3355c-.8802.3244-2.5982.6034-4.5461.6034-2.273,0-4.1755-.7894-5.3355-1.9486-1.2991-1.346-1.9494-3.5268-1.9494-6.7284v-9.2789h-3.0156v-5.1971h3.0156v-4.2217l6.9128-1.9025Z"/><path class="cls-2" d="m191.774,142.2057l3.3876,11.1822c.3705,1.2992.8348,3.0156,1.1131,4.2224h.186c.2783-1.253.6489-2.9233.974-4.2686l2.831-11.136h7.5163l-5.2901,14.9404c-3.247,9.0475-5.4278,12.6203-7.9806,14.8934-2.4122,2.1347-5.0103,2.9233-6.7737,3.1086l-1.5305-5.9389c.8802-.1853,1.9948-.6027,3.061-1.2061,1.0677-.5566,2.2745-1.7165,2.9234-2.8303.2328-.3713.372-.7426.372-1.0209s-.0469-.6027-.2783-1.1599l-8.3526-20.7863h7.8414Z"/><path class="cls-6" d="m220.108,136.0816v6.1242h5.0572v5.1971h-5.0572v8.212c0,2.7373.6956,3.9903,2.7842,3.9903.9739,0,10.6036-.0462,11.2539-.1853l.908,5.3113c-.8817.3244-12.6263-.2592-14.5741-.2592-2.2745,0-4.1756-.7894-5.3356-1.9486-1.2991-1.346-1.9494-2.64-1.9494-5.8416v-9.2789h-3.0155v-5.1971h3.0155v-4.2217l6.9129-1.9025Z"/><path class="cls-6" d="m231.8401,155.4449c.186,2.9226,3.1093,4.3147,6.4032,4.3147,2.4122,0,4.3616-.3251,6.264-.9747l.9271,4.7789c-2.32.9748-5.1495,1.439-8.212,1.439-7.7023,0-12.1092-4.4545-12.1092-11.5534,0-5.7529,3.5722-12.11,11.4604-12.11,7.3303,0,10.1145,5.7075,10.1145,11.3213,0,1.2061-.1392,2.2738-.2329,2.7842h-14.6151Zm8.3057-4.8258c0-1.7165-.7426-4.593-3.991-4.593-2.9687,0-4.1756,2.7373-4.3601,4.593h8.3512Z"/><path class="cls-6" d="m263.6906,163.9352c-1.2522.6034-3.619,1.0677-6.3095,1.0677-7.3317,0-12.017-4.5007-12.017-11.5996,0-6.6353,4.5461-12.0638,12.991-12.0638,1.8556,0,3.8972.3251,5.3823.8816l-1.1131,5.2432c-.8362-.3713-2.0885-.6964-3.9441-.6964-3.7128,0-6.1249,2.6451-6.0781,6.3571,0,4.1294,2.7827,6.3563,6.2172,6.3563,1.6697,0,2.9687-.2783,4.0364-.7425l.8348,5.1964Z"/><polygon class="cls-5" points="162.4436 253.2367 181.111 257.715 209.0834 243.0001 190.1197 263.6694 181.111 272.4304 172.35 263.4218 162.4436 253.2367"/><text class="cls-1" transform="translate(73.9417 160.6515) rotate(-82.8106) scale(.975 1)"><tspan x="0" y="0">P</tspan></text><text class="cls-1" transform="translate(74.9129 152.7355) rotate(-78.6073) scale(.975 1)"><tspan x="0" y="0">R</tspan></text><text class="cls-1" transform="translate(76.6805 144.0192) rotate(-74.3335) scale(.975 1)"><tspan x="0" y="0">E</tspan></text><text class="cls-1" transform="translate(78.8123 136.34) rotate(-70.086) scale(.975 1)"><tspan x="0" y="0">V</tspan></text><text class="cls-1" transform="translate(81.7869 128.152) rotate(-65.8349) scale(.975 1)"><tspan x="0" y="0">E</tspan></text><text class="cls-1" transform="translate(84.9988 120.8918) rotate(-61.3411) scale(.975 1)"><tspan x="0" y="0">N</tspan></text><text class="cls-1" transform="translate(89.6478 112.4113) rotate(-56.642) scale(.975 1)"><tspan x="0" y="0">C</tspan></text><text class="cls-1" transform="translate(94.5115 105.1374) rotate(-53.346) scale(.975 1)"><tspan x="0" y="0">I</tspan></text><text class="cls-1" transform="translate(96.8611 101.7887) rotate(-49.5609) scale(.975 1)"><tspan x="0" y="0">Ó</tspan></text><text class="cls-1" transform="translate(103.7161 93.7609) rotate(-44.3533) scale(.975 1)"><tspan x="0" y="0">N</tspan></text><text class="cls-1" transform="translate(110.723 87.0339) rotate(-40.9149) scale(.975 1)"><tspan x="0" y="0"> </tspan></text><text class="cls-1" transform="translate(113.305 84.6554) rotate(-37.3651) scale(.975 1)"><tspan x="0" y="0">D</tspan></text><text class="cls-1" transform="translate(121.2601 78.6213) rotate(-32.6602) scale(.975 1)"><tspan x="0" y="0">E</tspan></text><text class="cls-1" transform="translate(128.0311 74.3473) rotate(-29.5977) scale(.975 1)"><tspan x="0" y="0"> </tspan></text><text class="cls-1" transform="translate(131.076 72.549) rotate(-26.5754) scale(.975 1)"><tspan x="0" y="0">F</tspan></text><text class="cls-1" transform="translate(137.6805 69.1999) rotate(-22.2922) scale(.975 1)"><tspan x="0" y="0">R</tspan></text><text class="cls-1" transform="translate(145.8934 65.8175) rotate(-17.4163) scale(.975 1)"><tspan x="0" y="0">A</tspan></text><text class="cls-1" transform="translate(154.3973 63.1159) rotate(-12.416) scale(.975 1)"><tspan x="0" y="0">U</tspan></text><text class="cls-1" transform="translate(163.8983 61.007) rotate(-7.077) scale(.975 1)"><tspan x="0" y="0">D</tspan></text><text class="cls-1" transform="translate(173.8104 59.8112) rotate(-2.2807) scale(.975 1)"><tspan x="0" y="0">E</tspan></text><text class="cls-1" transform="translate(181.8104 59.5446) rotate(.9162) scale(.975 1)"><tspan x="0" y="0"> </tspan></text><text class="cls-1" transform="translate(185.3973 59.5968) rotate(2.6941) scale(.975 1)"><tspan x="0" y="0"> </tspan></text><text class="cls-1" transform="translate(188.9647 59.7497) rotate(4.9497) scale(.975 1)"><tspan x="0" y="0">•</tspan></text><text class="cls-1" transform="translate(193.7801 60.1769) rotate(7.2106) scale(.975 1)"><tspan x="0" y="0"> </tspan></text><text class="cls-1" transform="translate(197.3279 60.6247) rotate(9.1432) scale(.975 1)"><tspan x="0" y="0"> </tspan></text><text class="cls-1" transform="translate(200.8152 61.0773) rotate(12.7912) scale(.975 1)"><tspan x="0" y="0">G</tspan></text><text class="cls-1" transform="translate(210.4803 63.3058) rotate(17.6349) scale(.975 1)"><tspan x="0" y="0">E</tspan></text><text class="cls-1" transform="translate(218.0643 65.7111) rotate(21.926) scale(.975 1)"><tspan x="0" y="0">S</tspan></text><text class="cls-1" transform="translate(225.1717 68.5465) rotate(26.1386) scale(.975 1)"><tspan x="0" y="0">T</tspan></text><text class="cls-1" transform="translate(232.5115 72.2067) rotate(29.3868) scale(.975 1)"><tspan x="0" y="0">I</tspan></text><text class="cls-1" transform="translate(236.1277 74.109) rotate(33.2892) scale(.975 1)"><tspan x="0" y="0">Ó</tspan></text><text class="cls-1" transform="translate(244.9295 79.8996) rotate(38.5786) scale(.975 1)"><tspan x="0" y="0">N</tspan></text><text class="cls-1" transform="translate(252.4637 86.0241) rotate(42.0289) scale(.975 1)"><tspan x="0" y="0"> </tspan></text><text class="cls-1" transform="translate(255.159 88.3127) rotate(45.5645) scale(.975 1)"><tspan x="0" y="0">D</tspan></text><text class="cls-1" transform="translate(262.1268 95.4665) rotate(50.1746) scale(.975 1)"><tspan x="0" y="0">E</tspan></text><text class="cls-1" transform="translate(267.2137 101.651) rotate(53.1413) scale(.975 1)"><tspan x="0" y="0"> </tspan></text><text class="cls-1" transform="translate(269.3943 104.4274) rotate(56.3347) scale(.975 1)"><tspan x="0" y="0">R</tspan></text><text class="cls-1" transform="translate(274.2928 111.9025) rotate(59.6773) scale(.975 1)"><tspan x="0" y="0">I</tspan></text><text class="cls-1" transform="translate(276.4051 115.401) rotate(62.7608) scale(.975 1)"><tspan x="0" y="0">E</tspan></text><text class="cls-1" transform="translate(280.0613 122.4943) rotate(66.8279) scale(.975 1)"><tspan x="0" y="0">S</tspan></text><text class="cls-1" transform="translate(283.2244 129.7633) rotate(71.3767) scale(.975 1)"><tspan x="0" y="0">G</tspan></text><text class="cls-1" transform="translate(286.4129 139.1462) rotate(76.5873) scale(.975 1)"><tspan x="0" y="0">O</tspan></text><text class="cls-1" transform="translate(288.8016 149.3488) rotate(81.2027) scale(.975 1)"><tspan x="0" y="0">S</tspan></text><text class="cls-3" transform="translate(81.3152 216.6867)"><tspan class="cls-13" x="0" y="0">CE</tspan><tspan class="cls-10" x="37.2822" y="0">R</tspan><tspan class="cls-9" x="55.4385" y="0">T</tspan><tspan class="cls-13" x="73.6641" y="0">I</tspan><tspan class="cls-11" x="82.084" y="0">F</tspan><tspan class="cls-12" x="98.5073" y="0">ICADO</tspan></text></svg>