<?xml version="1.0" encoding="UTF-8"?><svg xmlns="http://www.w3.org/2000/svg" xmlns:xlink="http://www.w3.org/1999/xlink" viewBox="0 0 359.5595 395.367"><defs><style>.cls-1{font-family:MonsalGothic-Bold, 'Monsal Gothic';font-size:17.1155px;font-weight:700;}.cls-1,.cls-2{fill:#d4af37;}.cls-3{fill:#f9cf5a;}.cls-4,.cls-5{fill:#fff;}.cls-6{fill:#a58428;}.cls-7{fill:url(#radial-gradient);mix-blend-mode:multiply;}.cls-5{fill-rule:evenodd;}.cls-8{isolation:isolate;}</style><radialGradient id="radial-gradient" cx="180.6524" cy="16713.9012" fx="180.6524" fy="16713.9012" r="148.2159" gradientTransform="translate(0 -1458.9114) scale(1 .1097)" gradientUnits="userSpaceOnUse"><stop offset="0" stop-color="#a7a9ac"/><stop offset=".1925" stop-color="#bfc0c2"/><stop offset=".5156" stop-color="#e1e2e3"/><stop offset=".7812" stop-color="#f7f7f7"/><stop offset=".9544" stop-color="#fff"/></radialGradient></defs><g class="cls-8"><g id="Layer_1"><g><ellipse class="cls-7" cx="180.6524" cy="374.6036" rx="150.369" ry="18.0354"/><g><path class="cls-6" d="m329.1461,122.4502l-.5696-8.7541-3.1147-48.0754-52.9348-21.0385-5.1467-6.2089L236.1818.7145l-55.1926,14.1419L125.7966.7145l-31.1985,37.6588-5.1467,6.2089-30.4955,12.1151-22.4393,8.9183-3.6843,56.8346L2.4188,170.5923l30.4134,48.1421,3.6843,56.8295,52.9348,21.0385,36.3452,43.8677,55.1926-14.1419,55.1926,14.1419,36.3452-43.8677,52.9348-21.0333,3.6843-56.8346,30.4134-48.1421-30.4134-48.1421Zm-4.4129,94.8475l-.8313,12.7924-2.7453,42.3489-39.4805,15.6865-11.879,4.7208-8.1793,9.8727-27.078,32.6866-41.1327-10.5398-11.8585-3.0377-.5593-.1437-12.4178,3.1814-41.1276,10.5398-27.0729-32.6814-7.8201-9.4365-.3695-.4413-11.879-4.7208-39.4805-15.6865-2.7401-42.3386-.8313-12.8027-6.8452-10.8374-22.6651-35.868,22.6651-35.868,6.8452-10.8374.8313-12.8027,2.7401-42.3386,18.1341-7.2044,21.3463-8.4821,11.879-4.7208,8.1793-9.8727.077-.0924L127.4437,5.7791l41.1276,10.5398,12.4178,3.1814,12.4178-3.1814,41.1327-10.5398,27.0011,32.5942.077.0924,8.1793,9.8727,11.879,4.7208,39.4805,15.6865,2.7453,42.3489.1693,2.6016.6619,10.1908,6.8401,10.8271,22.6651,35.8783-22.6651,35.8783-6.8401,10.8271Z"/><path class="cls-3" d="m330.5312,132.079h-27.2536c-16.4875-51.5138-64.7659-88.8138-121.7542-88.8138s-105.2667,37.3-121.7541,88.8138h-27.2537C49.7871,65.9174,109.9565,17.0915,181.5234,17.0915s131.7363,48.8259,149.0078,114.9875Z"/><path class="cls-2" d="m35.2084,219.2309h292.63c-20.2159,61.4713-78.0869,105.8487-146.315,105.8487s-126.0991-44.3773-146.315-105.8487Z"/><polygon class="cls-2" points="340.3063 175.6574 355.5705 210.0919 1.7453 210.0919 17.0095 175.6574 19.0366 171.0855 5.7944 141.2178 1.7453 132.079 355.5705 132.079 351.5214 141.2178 338.2793 171.0855 340.3063 175.6574"/><path class="cls-6" d="m330.5312,210.0919c-.8039,3.0824-1.7015,6.1305-2.6928,9.139H35.2084c-.9913-3.0085-1.889-6.0565-2.6929-9.139h298.0157Z"/><path class="cls-4" d="m316.1966,171.0855c0,14.3285-2.2391,28.1373-6.39,41.0889-.3429,1.0703-.6962,2.1301-1.065,3.19-.3896,1.1169-.7897,2.2236-1.2105,3.3302-19.2275,50.8612-68.3794,87.0354-125.9789,87.0354s-106.7514-36.1743-125.9789-87.0354c-.4208-1.1066-.8209-2.2133-1.2105-3.3302-.3688-1.0599-.7221-2.1197-1.065-3.19-4.151-12.9516-6.3901-26.7604-6.3901-41.0889s2.2391-28.1374,6.3901-41.0891c17.3677-54.264,68.2236-93.5554,128.2544-93.5554s110.8867,39.2914,128.2545,93.5554c4.1509,12.9516,6.39,26.7606,6.39,41.0891Z"/><path class="cls-2" d="m298.9472,182.7595c-4.478,60.925-55.3266,108.9629-117.395,108.9629s-112.9301-48.0502-117.3968-108.9863"/><text class="cls-1" transform="translate(74.2453 165.2568) rotate(-82.6199) scale(.975 1)"><tspan x="0" y="0">F</tspan></text><text class="cls-1" transform="translate(75.2887 156.7983) rotate(-77.9759) scale(.975 1)"><tspan x="0" y="0">R</tspan></text><text class="cls-1" transform="translate(77.3971 146.8086) rotate(-72.6922) scale(.975 1)"><tspan x="0" y="0">A</tspan></text><text class="cls-1" transform="translate(80.4127 136.9922) rotate(-67.2638) scale(.975 1)"><tspan x="0" y="0">U</tspan></text><text class="cls-1" transform="translate(84.7213 126.6519) rotate(-61.4435) scale(.975 1)"><tspan x="0" y="0">D</tspan></text><text class="cls-1" transform="translate(90.3771 116.5239) rotate(-57.4315) scale(.975 1)"><tspan x="0" y="0"> </tspan></text><text class="cls-1" transform="translate(92.4918 113.0522) rotate(-53.9602) scale(.975 1)"><tspan x="0" y="0">P</tspan></text><text class="cls-1" transform="translate(97.8371 105.6401) rotate(-49.0288) scale(.975 1)"><tspan x="0" y="0">R</tspan></text><text class="cls-1" transform="translate(104.5514 97.9292) rotate(-44.0044) scale(.975 1)"><tspan x="0" y="0">E</tspan></text><text class="cls-1" transform="translate(111.0919 91.5698) rotate(-39.0136) scale(.975 1)"><tspan x="0" y="0">V</tspan></text><text class="cls-1" transform="translate(118.8873 85.2646) rotate(-33.9592) scale(.975 1)"><tspan x="0" y="0">E</tspan></text><text class="cls-1" transform="translate(126.4298 80.1147) rotate(-28.572) scale(.975 1)"><tspan x="0" y="0">N</tspan></text><text class="cls-1" transform="translate(136.0211 74.9087) rotate(-23.1318) scale(.975 1)"><tspan x="0" y="0">T</tspan></text><text class="cls-1" transform="translate(144.7311 71.2637) rotate(-19.3423) scale(.975 1)"><tspan x="0" y="0">I</tspan></text><text class="cls-1" transform="translate(149.0919 69.563) rotate(-14.7482) scale(.975 1)"><tspan x="0" y="0">O</tspan></text><text class="cls-1" transform="translate(160.776 66.4976) rotate(-8.4777) scale(.975 1)"><tspan x="0" y="0">N</tspan></text><text class="cls-1" transform="translate(171.8356 64.9712) rotate(-4.3696) scale(.975 1)"><tspan x="0" y="0"> </tspan></text><text class="cls-1" transform="translate(175.9401 64.6563) rotate(-2.1583) scale(.975 1)"><tspan x="0" y="0"> </tspan></text><text class="cls-1" transform="translate(180.0055 64.4575) rotate(.9161) scale(.975 1)"><tspan x="0" y="0">•</tspan></text><text class="cls-1" transform="translate(185.5905 64.5366) rotate(2.9957) scale(.975 1)"><tspan x="0" y="0"> </tspan></text><text class="cls-1" transform="translate(189.6911 64.7485) rotate(5.2058) scale(.975 1)"><tspan x="0" y="0"> </tspan></text><text class="cls-1" transform="translate(193.7252 65.0039) rotate(9.0765) scale(.975 1)"><tspan x="0" y="0">R</tspan></text><text class="cls-1" transform="translate(203.8356 66.7129) rotate(13.1437) scale(.975 1)"><tspan x="0" y="0">I</tspan></text><text class="cls-1" transform="translate(208.4352 67.7051) rotate(16.9148) scale(.975 1)"><tspan x="0" y="0">S</tspan></text><text class="cls-1" transform="translate(217.1452 70.3052) rotate(22.2489) scale(.975 1)"><tspan x="0" y="0">K</tspan></text><text class="cls-1" transform="translate(226.9713 74.4414) rotate(26.2123) scale(.975 1)"><tspan x="0" y="0"> </tspan></text><text class="cls-1" transform="translate(230.6666 76.0332) rotate(30.9164) scale(.975 1)"><tspan x="0" y="0">M</tspan></text><text class="cls-1" transform="translate(242.1881 83.0122) rotate(37.2505) scale(.975 1)"><tspan x="0" y="0">A</tspan></text><text class="cls-1" transform="translate(250.5827 89.3643) rotate(42.9138) scale(.975 1)"><tspan x="0" y="0">N</tspan></text><text class="cls-1" transform="translate(258.7028 96.9146) rotate(48.5164) scale(.975 1)"><tspan x="0" y="0">A</tspan></text><text class="cls-1" transform="translate(265.4459 104.4634) rotate(53.9589) scale(.975 1)"><tspan x="0" y="0">G</tspan></text><text class="cls-1" transform="translate(272.1198 113.7041) rotate(59.235) scale(.975 1)"><tspan x="0" y="0">E</tspan></text><text class="cls-1" transform="translate(276.8844 121.4639) rotate(65.029) scale(.975 1)"><tspan x="0" y="0">M</tspan></text><text class="cls-1" transform="translate(282.4967 133.7471) rotate(70.815) scale(.975 1)"><tspan x="0" y="0">E</tspan></text><text class="cls-1" transform="translate(285.5504 142.3535) rotate(75.9784) scale(.975 1)"><tspan x="0" y="0">N</tspan></text><text class="cls-1" transform="translate(288.1901 152.9956) rotate(81.1387) scale(.975 1)"><tspan x="0" y="0">T</tspan></text><g><path class="cls-2" d="m191.8256,94.8132h-24.0853c-3.65,0-6.6083,2.3523-6.6083,5.252v19.1352c0,2.8998,2.9583,5.2516,6.6083,5.2516h24.0853c3.65,0,6.6083-2.3518,6.6083-5.2516v-19.1352c0-2.8998-2.9583-5.252-6.6083-5.252Zm-8.405,23.7168h-7.2735l2.3394-11.2263c-1.5753-.4562-2.7136-1.7017-2.7136-3.1858,0-1.8676,1.7949-3.3822,4.0119-3.3822,2.2134,0,4.0083,1.5147,4.0083,3.3822,0,1.5133-1.1843,2.7779-2.8068,3.2102l2.4343,11.2019Z"/><path class="cls-2" d="m196.9015,92.6894c0-9.4542-7.6636-17.1177-17.1187-17.1177s-17.1186,7.6636-17.1186,17.1177h5.358c0-6.4949,5.2657-11.7598,11.7606-11.7598s11.7606,5.2648,11.7606,11.7598h5.358Z"/><path class="cls-2" d="m119.9579,159.5552c0,2.1262.0926,4.2064.3699,5.4548h-6.3332l-.4159-2.2656h-.1386c-1.4797,1.8029-3.7912,2.7741-6.4726,2.7741-4.577,0-7.3044-3.3286-7.3044-6.9344,0-5.8714,5.2709-8.6447,13.2677-8.6447v-.2773c0-1.2484-.6464-2.9587-4.1136-2.9587-2.3115,0-4.7616.7858-6.2413,1.7103l-1.2944-4.5303c1.5716-.8785,4.6697-2.0343,8.7834-2.0343,7.5356,0,9.8931,4.4377,9.8931,9.8005v7.9056Zm-6.7951-5.2242c-3.6993,0-6.5653.8785-6.5653,3.5599,0,1.8029,1.2024,2.6807,2.7741,2.6807,1.7102,0,3.1899-1.155,3.6525-2.5887.092-.3692.1387-.7858.1387-1.2017v-2.4501Z"/><path class="cls-3" d="m146.937,164.8472c-1.2484.6012-12.754.6253-15.4355.6253-7.3044,0-11.9733-4.4843-11.9733-11.5574,0-6.6113,4.5303-12.02,12.9437-12.02,1.8496,0,3.8831.324,5.3629.8784l-1.1091,5.2242c-.8325-.3699-2.081-.6939-3.9298-.6939-3.6985,0-6.1026,2.6355-6.0559,6.334,0,4.1144,2.774,6.3332,6.1946,6.3332,1.6643,0,6.3785-1.0835,7.4423-1.5461l6.5602,6.4223Z"/><path class="cls-2" d="m160.4943,157.7523c0,2.9587.0934,5.3621.1853,7.2577h-6.1026l-.3233-3.19h-.1386c-.8785,1.3871-3.0054,3.6985-7.0731,3.6985-4.623,0-7.9516-2.866-7.9516-9.8472v-13.2677h7.0271v12.1587c0,3.2818,1.063,5.2702,3.5592,5.2702,1.9423,0,3.098-1.3411,3.5139-2.4501.1853-.4166.2773-.9244.2773-1.5257v-13.4531h7.0264v15.3486Z"/><path class="cls-2" d="m170.9219,136.1164c0,1.9415-1.433,3.5139-3.7912,3.5139-2.2195,0-3.6522-1.5724-3.6522-3.5139,0-1.9876,1.4794-3.5132,3.7442-3.5132,2.2662,0,3.6525,1.5257,3.6992,3.5132Zm-7.2588,28.8936v-22.6064h7.0268v22.6064h-7.0268Z"/><path class="cls-2" d="m180.4538,136.3017v6.1019h5.0389v5.1782h-5.0389v8.1822c0,2.7274.6946,3.9758,2.7741,3.9758.9705,0,1.433-.046,2.0809-.1846l.0452,5.3161c-.877.3232-2.5887.6012-4.5296.6012-2.2647,0-4.1603-.7865-5.3161-1.9415-1.2944-1.3411-1.9423-3.514-1.9423-6.7039v-9.2452h-3.0047v-5.1782h3.0047v-4.2064l6.8877-1.8956Z"/><path class="cls-2" d="m192.8226,142.4036l3.3753,11.1415c.3692,1.2944.8318,3.0047,1.1091,4.2071h.1853c.2773-1.2484.6465-2.9127.9705-4.2531l2.8207-11.0956h7.489l-5.2709,14.8861c-3.2352,9.0146-5.4081,12.5745-7.9516,14.8393-2.4034,2.1269-4.9921,2.9127-6.7491,3.0973l-1.5249-5.9173c.877-.1846,1.9876-.6005,3.0499-1.2017,1.0639-.5545,2.2662-1.7103,2.9127-2.82.232-.37.3707-.7399.3707-1.0172s-.0467-.6005-.2773-1.1557l-8.3222-20.7108h7.8129Z"/><path class="cls-3" d="m221.0537,136.3017v6.1019h5.0388v5.1782h-5.0388v8.1822c0,2.7274.6931,3.9758,2.7741,3.9758.9704,0,10.5651-.046,11.213-.1846l.9047,5.292c-.8785.3232-12.5804-.2583-14.5212-.2583-2.2662,0-4.1604-.7865-5.3162-1.9415-1.2944-1.3411-1.9423-2.6304-1.9423-5.8204v-9.2452h-3.0046v-5.1782h3.0046v-4.2064l6.8878-1.8956Z"/><path class="cls-3" d="m232.7432,155.5947c.1853,2.912,3.0981,4.299,6.38,4.299,2.4034,0,4.3457-.324,6.2413-.9711l.9237,4.7616c-2.3115.9712-5.1308,1.4338-8.1822,1.4338-7.6743,0-12.0652-4.4384-12.0652-11.5114,0-5.732,3.5592-12.066,11.4188-12.066,7.3037,0,10.0777,5.6868,10.0777,11.2801,0,1.2017-.1387,2.2655-.2321,2.7741h-14.562Zm8.2755-4.8083c0-1.7103-.7399-4.5763-3.9765-4.5763-2.958,0-4.1604,2.7273-4.3443,4.5763h8.3208Z"/><path class="cls-3" d="m264.478,164.0542c-1.2477.6012-3.6059,1.0638-6.2866,1.0638-7.3051,0-11.9733-4.4844-11.9733-11.5575,0-6.6112,4.5296-12.02,12.9438-12.02,1.8489,0,3.8831.3239,5.3628.8784l-1.1091,5.2242c-.8332-.3699-2.0809-.6939-3.9298-.6939-3.6993,0-6.1027,2.6355-6.056,6.334,0,4.1144,2.7726,6.3332,6.1946,6.3332,1.6636,0,2.958-.2773,4.0217-.7398l.8318,5.1775Z"/></g><g><path class="cls-4" d="m124.3226,220.8125v4.5927c0,5.531-2.7655,8.6916-8.0989,8.6916s-8.0989-3.1605-8.0989-8.6916v-17.9755c0-5.531,2.7655-8.6916,8.0989-8.6916s8.0989,3.1606,8.0989,8.6916v3.3581h-5.1358v-3.7039c0-2.4692-1.0865-3.4073-2.8149-3.4073s-2.8149.938-2.8149,3.4073v18.6671c0,2.4693,1.0865,3.3581,2.8149,3.3581s2.8149-.8888,2.8149-3.3581v-4.9385h5.1358Z"/><path class="cls-4" d="m133.0631,213.7013h7.4568v4.9385h-7.4568v10.1234h9.3829v4.9385h-14.8152v-34.5686h14.8152v4.9385h-9.3829v9.6296Z"/><path class="cls-4" d="m157.1621,233.7017c-.2963-.8888-.4938-1.4321-.4938-4.2469v-5.4323c0-3.2101-1.0865-4.3952-3.5556-4.3952h-1.8766v14.0744h-5.4323v-34.5686h8.1977c5.6298,0,8.0497,2.6172,8.0497,7.9508v2.716c0,3.5559-1.1359,5.8769-3.5557,7.0127,2.7162,1.1359,3.6051,3.7531,3.6051,7.3579v5.3336c0,1.6792.0494,2.9138.5925,4.1977h-5.531Zm-5.9259-29.6301v10.6172h2.1234c2.0247,0,3.2593-.8888,3.2593-3.6543v-3.4073c0-2.4693-.8394-3.5556-2.7655-3.5556h-2.6172Z"/><path class="cls-4" d="m164.0758,199.1331h16.7905v4.9385h-5.6792v29.6301h-5.4321v-29.6301h-5.6792v-4.9385Z"/><path class="cls-4" d="m183.2362,199.1331h5.4323v34.5686h-5.4323v-34.5686Z"/><path class="cls-4" d="m198.0509,214.4913h7.0124v4.9385h-7.0124v14.2719h-5.4323v-34.5686h14.3706v4.9385h-8.9383v10.4197Z"/><path class="cls-4" d="m209.6064,199.1331h5.432v34.5686h-5.432v-34.5686Z"/><path class="cls-4" d="m224.421,213.7013h7.457v4.9385h-7.457v10.1234h9.3829v4.9385h-14.8149v-34.5686h14.8149v4.9385h-9.3829v9.6296Z"/><path class="cls-4" d="m237.162,199.1331h8.5925c5.4323,0,8.0991,3.0126,8.0991,8.5433v17.482c0,5.5311-2.6668,8.5433-8.0991,8.5433h-8.5925v-34.5686Zm5.432,4.9385v24.6916h3.0618c1.7284,0,2.7655-.8888,2.7655-3.3581v-17.9755c0-2.4693-1.0371-3.3581-2.7655-3.3581h-3.0618Z"/></g><polygon class="cls-5" points="163.5987 253.0312 182.1984 257.4933 210.0692 242.8318 191.1744 263.426 182.1984 272.1552 173.4692 263.1793 163.5987 253.0312"/></g></g></g></g></svg>