<?xml version="1.0" encoding="UTF-8"?><svg id="Layer_1" xmlns="http://www.w3.org/2000/svg" xmlns:xlink="http://www.w3.org/1999/xlink" viewBox="0 0 359.119 393.6688"><defs><style>.cls-1,.cls-2,.cls-3{fill:#fff;}.cls-4,.cls-5{fill:#a7a9ac;}.cls-6{fill:#d1d3d4;}.cls-7{fill:#6d6e71;}.cls-8{fill:#808285;}.cls-9{letter-spacing:-.06em;}.cls-5{font-size:13.1667px;}.cls-5,.cls-3{font-family:MonsalGothic-Bold, 'Monsal Gothic';font-weight:700;}.cls-10{letter-spacing:-.102em;}.cls-11{letter-spacing:-.073em;}.cls-12{letter-spacing:-.05em;}.cls-13{letter-spacing:-.05em;}.cls-14{fill:url(#radial-gradient);}.cls-2{fill-rule:evenodd;}.cls-3{font-size:34.6493px;}</style><radialGradient id="radial-gradient" cx="179.3818" cy="-15876.5381" fx="179.3818" fy="-15876.5381" r="148.9029" gradientTransform="translate(0 -1366.1065) scale(1 -.1097)" gradientUnits="userSpaceOnUse"><stop offset="0" stop-color="#a7a9ac"/><stop offset=".1925" stop-color="#bfc0c2"/><stop offset=".5156" stop-color="#e1e2e3"/><stop offset=".7812" stop-color="#f7f7f7"/><stop offset=".9544" stop-color="#fff"/></radialGradient></defs><g id="Layer_1-2"><ellipse class="cls-14" cx="179.3818" cy="375.5497" rx="151.0667" ry="18.1191"/></g><path class="cls-8" d="m328.5947,122.1796l-.5717-8.786-3.1261-48.2508-53.1279-21.1152-5.1655-6.2316L235.2914,0l-55.3939,14.1935L124.5036,0l-31.3123,37.7962-5.1655,6.2316-30.6067,12.1593-22.5211,8.9508-3.6977,57.0419L.676,170.4973l30.5243,48.3177,3.6977,57.0367,53.1279,21.1152,36.4778,44.0277,55.3939-14.1935,55.3939,14.1935,36.4778-44.0277,53.1279-21.11,3.6977-57.0419,30.5243-48.3177-30.5243-48.3177Zm-4.429,95.1934l-.8343,12.8391-2.7553,42.5033-39.6244,15.7437-11.9224,4.738-8.2092,9.9087-27.1768,32.8058-41.2827-10.5782-11.9018-3.0488-.5614-.1442-12.4631,3.193-41.2776,10.5782-27.1716-32.8006-7.8487-9.4709-.3708-.4429-11.9224-4.738-39.6244-15.7437-2.7501-42.493-.8343-12.8494-6.8702-10.8769-22.7477-35.9988,22.7477-35.9988,6.8702-10.8769.8343-12.8494,2.7501-42.493,18.2003-7.2307,21.4242-8.513,11.9224-4.738,8.2092-9.9087.0773-.0927L126.1568,5.0831l41.2776,10.5782,12.4631,3.193,12.4631-3.193,41.2827-10.5782,27.0995,32.7131.0773.0927,8.2092,9.9087,11.9224,4.738,39.6244,15.7437,2.7553,42.5033.17,2.6111.6644,10.228,6.865,10.8666,22.7477,36.0091-22.7477,36.0091-6.865,10.8666Z"/><path class="cls-6" d="m329.9849,131.8435h-27.353c-16.5476-51.7016-65.0021-89.1377-122.1982-89.1377s-105.6506,37.436-122.1981,89.1377h-27.3531C48.217,65.4407,108.6058,16.4367,180.4337,16.4367s132.2167,49.004,149.5512,115.4068Z"/><path class="cls-4" d="m33.5851,219.3133h293.6971c-20.2896,61.6955-78.3716,106.2347-146.8486,106.2347s-126.5589-44.5392-146.8486-106.2347Z"/><polygon class="cls-4" points="339.7956 175.5809 355.1155 210.141 0 210.141 15.3199 175.5809 17.3543 170.9923 4.0638 141.0157 0 131.8435 355.1155 131.8435 351.0516 141.0157 337.7613 170.9923 339.7956 175.5809"/><path class="cls-7" d="m329.9849,210.141c-.8068,3.0937-1.7077,6.1528-2.7026,9.1723H33.5851c-.9949-3.0195-1.8959-6.0786-2.7027-9.1723h299.1025Z"/><path class="cls-1" d="m315.598,170.9923c0,14.3807-2.2473,28.2399-6.4133,41.2387-.3442,1.0742-.6988,2.1379-1.0689,3.2016-.3911,1.121-.7926,2.2317-1.215,3.3423-19.2976,51.0466-68.6288,87.3528-126.4383,87.3528s-107.1407-36.3062-126.4383-87.3528c-.4223-1.1107-.8239-2.2213-1.215-3.3423-.3702-1.0637-.7247-2.1274-1.0689-3.2016-4.1661-12.9989-6.4134-26.858-6.4134-41.2387s2.2473-28.24,6.4134-41.2389c17.431-54.4619,68.4724-93.8966,128.7221-93.8966s111.2911,39.4347,128.7222,93.8966c4.166,12.9989,6.4133,26.8582,6.4133,41.2389Z"/><path class="cls-4" d="m298.2857,182.7089c-4.4943,61.1472-55.5284,109.3602-117.8231,109.3602s-113.3419-48.2254-117.8249-109.3838"/><path class="cls-4" d="m190.7734,94.4418h-24.1731c-3.6633,0-6.6324,2.3609-6.6324,5.2712v19.205c0,2.9103,2.9691,5.2707,6.6324,5.2707h24.1731c3.6633,0,6.6324-2.3604,6.6324-5.2707v-19.205c0-2.9103-2.9691-5.2712-6.6324-5.2712Zm-8.4357,23.8033h-7.3l2.3479-11.2673c-1.5811-.4579-2.7235-1.7079-2.7235-3.1974,0-1.8744,1.8014-3.3946,4.0265-3.3946,2.2215,0,4.0229,1.5202,4.0229,3.3946,0,1.5188-1.1886,2.788-2.817,3.2219l2.4432,11.2428Z"/><path class="cls-4" d="m195.8679,92.3103c0-9.4886-7.6915-17.1802-17.1811-17.1802s-17.181,7.6915-17.181,17.1802h5.3775c0-6.5186,5.2849-11.8026,11.8034-11.8026s11.8035,5.284,11.8035,11.8026h5.3775Z"/><path class="cls-4" d="m118.6437,159.42c0,2.1339.093,4.2217.3713,5.4747h-6.3563l-.4175-2.2738h-.1391c-1.4851,1.8095-3.805,2.7842-6.4962,2.7842-4.5937,0-7.331-3.3408-7.331-6.9597,0-5.8928,5.2901-8.6762,13.3161-8.6762v-.2783c0-1.253-.6488-2.9695-4.1286-2.9695-2.3199,0-4.779.7887-6.2641,1.7165l-1.2992-4.5468c1.5774-.8817,4.6867-2.0417,8.8154-2.0417,7.5631,0,9.9292,4.4539,9.9292,9.8362v7.9345Zm-6.8199-5.2433c-3.7128,0-6.5892.8817-6.5892,3.5728,0,1.8095,1.2068,2.6905,2.7842,2.6905,1.7165,0,3.2016-1.1592,3.6658-2.5982.0923-.3706.1392-.7887.1392-1.2061v-2.4591Z"/><path class="cls-6" d="m145.7211,164.7313c-1.253.6034-12.8005.6276-15.4917.6276-7.331,0-12.017-4.5007-12.017-11.5995,0-6.6354,4.5468-12.0639,12.9909-12.0639,1.8564,0,3.8973.3251,5.3824.8816l-1.1131,5.2433c-.8356-.3713-2.0885-.6964-3.9442-.6964-3.712,0-6.1249,2.6451-6.078,6.3571,0,4.1294,2.7841,6.3563,6.2172,6.3563,1.6703,0,6.4017-1.0875,7.4694-1.5517l6.5841,6.4457Z"/><path class="cls-4" d="m159.3279,157.6105c0,2.9695.0937,5.3817.186,7.2842h-6.1249l-.3245-3.2017h-.1391c-.8817,1.3921-3.0164,3.712-7.0989,3.712-4.6398,0-7.9806-2.8764-7.9806-9.8831v-13.3161h7.0528v12.203c0,3.2938,1.0669,5.2894,3.5722,5.2894,1.9494,0,3.1093-1.3459,3.5267-2.4591.186-.4181.2783-.9278.2783-1.5312v-13.5021h7.052v15.4046Z"/><path class="cls-4" d="m169.7935,135.8957c0,1.9486-1.4382,3.5267-3.805,3.5267-2.2276,0-3.6655-1.5781-3.6655-3.5267,0-1.9948,1.4847-3.526,3.7578-3.526,2.2745,0,3.6658,1.5312,3.7127,3.526Zm-7.2852,28.999v-22.6888h7.0524v22.6888h-7.0524Z"/><path class="cls-4" d="m179.3602,136.0816v6.1242h5.0573v5.1971h-5.0573v8.212c0,2.7373.6972,3.9903,2.7842,3.9903.974,0,1.4383-.0462,2.0885-.1853l.0454,5.3355c-.8802.3244-2.5982.6034-4.5461.6034-2.273,0-4.1755-.7894-5.3355-1.9486-1.2991-1.346-1.9494-3.5268-1.9494-6.7284v-9.2789h-3.0156v-5.1971h3.0156v-4.2217l6.9128-1.9025Z"/><path class="cls-4" d="m191.7741,142.2058l3.3876,11.1822c.3705,1.2992.8348,3.0156,1.1131,4.2225h.186c.2783-1.253.6489-2.9233.974-4.2686l2.831-11.136h7.5163l-5.2901,14.9404c-3.247,9.0475-5.4278,12.6203-7.9806,14.8934-2.4122,2.1347-5.0103,2.9233-6.7737,3.1086l-1.5305-5.9389c.8802-.1853,1.9948-.6027,3.061-1.2061,1.0677-.5566,2.2745-1.7165,2.9234-2.8303.2328-.3713.372-.7426.372-1.0209s-.0469-.6027-.2783-1.1599l-8.3526-20.7863h7.8414Z"/><path class="cls-6" d="m220.1082,136.0816v6.1242h5.0572v5.1971h-5.0572v8.212c0,2.7373.6956,3.9903,2.7842,3.9903.9739,0,10.6036-.0462,11.2539-.1853l.908,5.3113c-.8817.3244-12.6263-.2592-14.5741-.2592-2.2745,0-4.1756-.7894-5.3356-1.9486-1.2991-1.346-1.9494-2.64-1.9494-5.8416v-9.2789h-3.0155v-5.1971h3.0155v-4.2217l6.9129-1.9025Z"/><path class="cls-6" d="m231.8403,155.4451c.186,2.9226,3.1094,4.3147,6.4032,4.3147,2.4122,0,4.3616-.3251,6.2641-.9747l.9271,4.7789c-2.32.9748-5.1495,1.439-8.212,1.439-7.7023,0-12.1092-4.4545-12.1092-11.5534,0-5.7529,3.5722-12.11,11.4604-12.11,7.3303,0,10.1145,5.7075,10.1145,11.3213,0,1.2061-.1392,2.2738-.2329,2.7842h-14.6151Zm8.3057-4.8258c0-1.7165-.7426-4.593-3.991-4.593-2.9687,0-4.1756,2.7373-4.3601,4.593h8.3512Z"/><path class="cls-6" d="m263.6908,163.9353c-1.2522.6034-3.619,1.0677-6.3095,1.0677-7.3317,0-12.017-4.5007-12.017-11.5996,0-6.6353,4.5461-12.0638,12.991-12.0638,1.8556,0,3.8972.3251,5.3824.8816l-1.1131,5.2432c-.8362-.3713-2.0885-.6964-3.9441-.6964-3.7128,0-6.125,2.6451-6.0781,6.3571,0,4.1294,2.7827,6.3563,6.2172,6.3563,1.6697,0,2.9687-.2783,4.0364-.7425l.8348,5.1964Z"/><polygon class="cls-2" points="162.4437 253.2368 181.1112 257.7152 209.0836 243.0003 190.1198 263.6696 181.1112 272.4306 172.3501 263.422 162.4437 253.2368"/><text class="cls-5" transform="translate(73.9579 160.6453) rotate(-83.0436) scale(.975 1)"><tspan x="0" y="0">P</tspan></text><text class="cls-5" transform="translate(74.7988 153.5911) rotate(-79.303) scale(.975 1)"><tspan x="0" y="0">R</tspan></text><text class="cls-5" transform="translate(76.2704 145.844) rotate(-75.5172) scale(.975 1)"><tspan x="0" y="0">E</tspan></text><text class="cls-5" transform="translate(78.0244 138.993) rotate(-71.7524) scale(.975 1)"><tspan x="0" y="0">V</tspan></text><text class="cls-5" transform="translate(80.4531 131.6453) rotate(-67.9777) scale(.975 1)"><tspan x="0" y="0">E</tspan></text><text class="cls-5" transform="translate(83.0776 125.073) rotate(-63.9766) scale(.975 1)"><tspan x="0" y="0">N</tspan></text><text class="cls-5" transform="translate(86.8427 117.3826) rotate(-59.8205) scale(.975 1)"><tspan x="0" y="0">Ç</tspan></text><text class="cls-5" transform="translate(90.7255 110.6814) rotate(-55.7507) scale(.975 1)"><tspan x="0" y="0">Ã</tspan></text><text class="cls-5" transform="translate(95.1 104.1814) rotate(-51.4023) scale(.975 1)"><tspan x="0" y="0">O</tspan></text><text class="cls-5" transform="translate(101.058 96.8538) rotate(-48.1684) scale(.975 1)"><tspan x="0" y="0"> </tspan></text><text class="cls-5" transform="translate(103.0781 94.4739) rotate(-45.0515) scale(.975 1)"><tspan x="0" y="0">D</tspan></text><text class="cls-5" transform="translate(109.3671 88.2097) rotate(-40.9251) scale(.975 1)"><tspan x="0" y="0">E</tspan></text><text class="cls-5" transform="translate(114.768 83.5857) rotate(-38.2463) scale(.975 1)"><tspan x="0" y="0"> </tspan></text><text class="cls-5" transform="translate(117.2079 81.6038) rotate(-35.6074) scale(.975 1)"><tspan x="0" y="0">F</tspan></text><text class="cls-5" transform="translate(122.5458 77.7425) rotate(-31.8628) scale(.975 1)"><tspan x="0" y="0">R</tspan></text><text class="cls-5" transform="translate(129.2446 73.5672) rotate(-27.5962) scale(.975 1)"><tspan x="0" y="0">A</tspan></text><text class="cls-5" transform="translate(136.2319 69.8855) rotate(-23.2173) scale(.975 1)"><tspan x="0" y="0">U</tspan></text><text class="cls-5" transform="translate(144.1962 66.4558) rotate(-18.4727) scale(.975 1)"><tspan x="0" y="0">D</tspan></text><text class="cls-5" transform="translate(152.6054 63.6746) rotate(-14.1776) scale(.975 1)"><tspan x="0" y="0">E</tspan></text><text class="cls-5" transform="translate(159.5014 61.9793) rotate(-11.4011) scale(.975 1)"><tspan x="0" y="0"> </tspan></text><text class="cls-5" transform="translate(162.624 61.3489) rotate(-9.6749) scale(.975 1)"><tspan x="0" y="0"> </tspan></text><text class="cls-5" transform="translate(165.746 60.805) rotate(-7.6554) scale(.975 1)"><tspan x="0" y="0">•</tspan></text><text class="cls-5" transform="translate(170.0307 60.2381) rotate(-5.6294) scale(.975 1)"><tspan x="0" y="0"> </tspan></text><text class="cls-5" transform="translate(173.1708 59.927) rotate(-3.9343) scale(.975 1)"><tspan x="0" y="0"> </tspan></text><text class="cls-5" transform="translate(176.2939 59.6438) rotate(-.9162) scale(.975 1)"><tspan x="0" y="0">G</tspan></text><text class="cls-5" transform="translate(185.1064 59.5428) rotate(3.4876) scale(.975 1)"><tspan x="0" y="0">E</tspan></text><text class="cls-5" transform="translate(192.1435 59.951) rotate(7.4999) scale(.975 1)"><tspan x="0" y="0">R</tspan></text><text class="cls-5" transform="translate(199.9609 60.989) rotate(11.5454) scale(.975 1)"><tspan x="0" y="0">E</tspan></text><text class="cls-5" transform="translate(206.8906 62.3699) rotate(15.7894) scale(.975 1)"><tspan x="0" y="0">N</tspan></text><text class="cls-5" transform="translate(215.1396 64.7137) rotate(20.1979) scale(.975 1)"><tspan x="0" y="0">C</tspan></text><text class="cls-5" transform="translate(222.4033 67.4412) rotate(23.2714) scale(.975 1)"><tspan x="0" y="0">I</tspan></text><text class="cls-5" transform="translate(225.7851 68.824) rotate(26.448) scale(.975 1)"><tspan x="0" y="0">A</tspan></text><text class="cls-5" transform="translate(233.0673 72.3826) rotate(31.3786) scale(.975 1)"><tspan x="0" y="0">M</tspan></text><text class="cls-5" transform="translate(241.9257 77.8567) rotate(35.9833) scale(.975 1)"><tspan x="0" y="0">E</tspan></text><text class="cls-5" transform="translate(247.6728 81.991) rotate(40.0892) scale(.975 1)"><tspan x="0" y="0">N</tspan></text><text class="cls-5" transform="translate(254.1357 87.4446) rotate(44.1693) scale(.975 1)"><tspan x="0" y="0">T</tspan></text><text class="cls-5" transform="translate(259.0634 92.1472) rotate(48.2198) scale(.975 1)"><tspan x="0" y="0">O</tspan></text><text class="cls-5" transform="translate(265.3046 99.2625) rotate(51.4639) scale(.975 1)"><tspan x="0" y="0"> </tspan></text><text class="cls-5" transform="translate(267.3036 101.6404) rotate(54.5528) scale(.975 1)"><tspan x="0" y="0">D</tspan></text><text class="cls-5" transform="translate(272.4374 108.8982) rotate(58.6293) scale(.975 1)"><tspan x="0" y="0">E</tspan></text><text class="cls-5" transform="translate(276.1083 115.0003) rotate(61.2594) scale(.975 1)"><tspan x="0" y="0"> </tspan></text><text class="cls-5" transform="translate(277.666 117.7127) rotate(64.0801) scale(.975 1)"><tspan x="0" y="0">R</tspan></text><text class="cls-5" transform="translate(281.082 124.8631) rotate(67.0346) scale(.975 1)"><tspan x="0" y="0">I</tspan></text><text class="cls-5" transform="translate(282.5488 128.2127) rotate(69.7738) scale(.975 1)"><tspan x="0" y="0">S</tspan></text><text class="cls-5" transform="translate(285.0009 134.8186) rotate(73.5387) scale(.975 1)"><tspan x="0" y="0">C</tspan></text><text class="cls-5" transform="translate(287.166 141.9842) rotate(77.7651) scale(.975 1)"><tspan x="0" y="0">O</tspan></text><text class="cls-5" transform="translate(289.1035 151.0847) rotate(81.8582) scale(.975 1)"><tspan x="0" y="0">S</tspan></text><text class="cls-3" transform="translate(81.3154 216.6858)"><tspan class="cls-13" x="0" y="0">CE</tspan><tspan class="cls-10" x="37.2822" y="0">R</tspan><tspan class="cls-9" x="55.4385" y="0">T</tspan><tspan class="cls-13" x="73.6641" y="0">I</tspan><tspan class="cls-11" x="82.084" y="0">F</tspan><tspan class="cls-12" x="98.5073" y="0">ICADO</tspan></text></svg>