<?xml version="1.0" encoding="UTF-8"?><svg id="Layer_1" xmlns="http://www.w3.org/2000/svg" xmlns:xlink="http://www.w3.org/1999/xlink" viewBox="0 0 359.2023 393.1712"><defs><style>.cls-1,.cls-2,.cls-3{fill:#fff;}.cls-4,.cls-5{fill:#a97142;}.cls-6{fill:#dd8c4e;}.cls-7{fill:#7c5131;}.cls-8{letter-spacing:-.06em;}.cls-5{font-size:14.8531px;}.cls-5,.cls-2{font-family:MonsalGothic-Bold, 'Monsal Gothic';font-weight:700;}.cls-9{letter-spacing:-.102em;}.cls-10{letter-spacing:-.073em;}.cls-2{font-size:34.6573px;}.cls-11{letter-spacing:-.05em;}.cls-12{letter-spacing:-.05em;}.cls-13{fill:url(#radial-gradient);}.cls-3{fill-rule:evenodd;}</style><radialGradient id="radial-gradient" cx="179.103" cy="-15882.7648" fx="179.103" fy="-15882.7648" r="148.9384" gradientTransform="translate(0 -1367.2916) scale(1 -.1097)" gradientUnits="userSpaceOnUse"><stop offset="0" stop-color="#a7a9ac"/><stop offset=".1925" stop-color="#bfc0c2"/><stop offset=".5156" stop-color="#e1e2e3"/><stop offset=".7812" stop-color="#f7f7f7"/><stop offset=".9544" stop-color="#fff"/></radialGradient></defs><g id="Layer_1-2"><ellipse class="cls-13" cx="179.103" cy="375.0477" rx="151.1024" ry="18.1234"/></g><path class="cls-7" d="m328.6709,122.208l-.5718-8.788-3.1268-48.2619-53.1402-21.1201-5.1667-6.233L235.3459,0l-55.4067,14.1968L124.5325,0l-31.3195,37.8049-5.1667,6.233-30.6138,12.1621-22.5264,8.9529-3.6986,57.0551L.6761,170.5369l30.5314,48.3289,3.6986,57.05,53.1402,21.1201,36.4862,44.0379,55.4067-14.1968,55.4067,14.1968,36.4862-44.0379,53.1402-21.1149,3.6986-57.0551,30.5314-48.3289-30.5314-48.3289Zm-4.4301,95.2155l-.8345,12.842-2.7559,42.5132-39.6336,15.7473-11.9251,4.7391-8.2111,9.911-27.1831,32.8134-41.2923-10.5806-11.9045-3.0495-.5615-.1442-12.466,3.1938-41.2872,10.5806-27.1779-32.8082-7.8505-9.4731-.3709-.443-11.9251-4.7391-39.6336-15.7473-2.7508-42.5029-.8345-12.8523-6.8718-10.8794-22.753-36.0072,22.753-36.0072,6.8718-10.8794.8345-12.8523,2.7508-42.5029,18.2045-7.2323,21.4291-8.515,11.9251-4.7391,8.2111-9.911.0773-.0927L126.186,5.0843l41.2872,10.5806,12.466,3.1938,12.466-3.1938,41.2923-10.5806,27.1058,32.7207.0773.0927,8.2111,9.911,11.9251,4.7391,39.6336,15.7473,2.7559,42.5132.17,2.6117.6645,10.2304,6.8666,10.8691,22.753,36.0175-22.753,36.0175-6.8666,10.8691Z"/><path class="cls-6" d="m330.0614,131.8741h-27.3594c-16.5514-51.7136-65.0171-89.1583-122.2265-89.1583s-105.6751,37.4447-122.2265,89.1583h-27.3595C48.2281,65.4559,108.6309,16.4405,180.4755,16.4405s132.2473,49.0154,149.5859,115.4336Z"/><path class="cls-4" d="m33.5929,219.3641h293.7652c-20.2943,61.7098-78.3898,106.2593-146.8826,106.2593s-126.5883-44.5495-146.8826-106.2593Z"/><polygon class="cls-4" points="339.8744 175.6216 355.1979 210.1897 0 210.1897 15.3234 175.6216 17.3584 171.032 4.0648 141.0484 0 131.8741 355.1979 131.8741 351.133 141.0484 337.8396 171.032 339.8744 175.6216"/><path class="cls-7" d="m330.0614,210.1897c-.807,3.0944-1.7081,6.1542-2.7033,9.1744H33.5929c-.9952-3.0202-1.8963-6.08-2.7033-9.1744h299.1718Z"/><path class="cls-1" d="m315.6711,171.032c0,14.3841-2.2478,28.2464-6.4148,41.2483-.3443,1.0744-.6989,2.1384-1.0692,3.2023-.3912,1.1213-.7927,2.2322-1.2152,3.3431-19.3021,51.0585-68.6447,87.3731-126.4676,87.3731s-107.1655-36.3146-126.4676-87.3731c-.4224-1.1109-.8241-2.2219-1.2152-3.3431-.3702-1.064-.7249-2.1279-1.0691-3.2023-4.1671-13.0019-6.4149-26.8642-6.4149-41.2483s2.2478-28.2466,6.4149-41.2485c17.4351-54.4745,68.4883-93.9184,128.752-93.9184s111.3169,39.4438,128.752,93.9184c4.167,13.0019,6.4148,26.8644,6.4148,41.2485Z"/><path class="cls-4" d="m298.3549,182.7513c-4.4954,61.1613-55.5412,109.3856-117.8505,109.3856s-113.3682-48.2366-117.8522-109.4091"/><text class="cls-5" transform="translate(72.8007 160.689) rotate(-82.8109) scale(.975 1)"><tspan x="0" y="0">P</tspan></text><text class="cls-5" transform="translate(73.7719 152.7715) rotate(-78.6075) scale(.975 1)"><tspan x="0" y="0">R</tspan></text><text class="cls-5" transform="translate(75.5395 144.0523) rotate(-74.3331) scale(.975 1)"><tspan x="0" y="0">E</tspan></text><text class="cls-5" transform="translate(77.6723 136.3716) rotate(-70.0868) scale(.975 1)"><tspan x="0" y="0">V</tspan></text><text class="cls-5" transform="translate(80.6474 128.1817) rotate(-65.8352) scale(.975 1)"><tspan x="0" y="0">E</tspan></text><text class="cls-5" transform="translate(83.8603 120.919) rotate(-61.3413) scale(.975 1)"><tspan x="0" y="0">N</tspan></text><text class="cls-5" transform="translate(88.5097 112.4365) rotate(-56.6422) scale(.975 1)"><tspan x="0" y="0">C</tspan></text><text class="cls-5" transform="translate(93.375 105.1611) rotate(-53.3466) scale(.975 1)"><tspan x="0" y="0">I</tspan></text><text class="cls-5" transform="translate(95.7255 101.8115) rotate(-49.5609) scale(.975 1)"><tspan x="0" y="0">Ó</tspan></text><text class="cls-5" transform="translate(102.5815 93.7822) rotate(-44.3534) scale(.975 1)"><tspan x="0" y="0">N</tspan></text><text class="cls-5" transform="translate(109.5898 87.0537) rotate(-40.9154) scale(.975 1)"><tspan x="0" y="0"> </tspan></text><text class="cls-5" transform="translate(112.1728 84.6743) rotate(-37.3654) scale(.975 1)"><tspan x="0" y="0">D</tspan></text><text class="cls-5" transform="translate(120.1294 78.6397) rotate(-32.6606) scale(.975 1)"><tspan x="0" y="0">E</tspan></text><text class="cls-5" transform="translate(126.9023 74.3643) rotate(-29.5982) scale(.975 1)"><tspan x="0" y="0"> </tspan></text><text class="cls-5" transform="translate(129.9477 72.5659) rotate(-26.5754) scale(.975 1)"><tspan x="0" y="0">F</tspan></text><text class="cls-5" transform="translate(136.5542 69.2153) rotate(-22.2924) scale(.975 1)"><tspan x="0" y="0">R</tspan></text><text class="cls-5" transform="translate(144.7685 65.8325) rotate(-17.417) scale(.975 1)"><tspan x="0" y="0">A</tspan></text><text class="cls-5" transform="translate(153.2744 63.1304) rotate(-12.4167) scale(.975 1)"><tspan x="0" y="0">U</tspan></text><text class="cls-5" transform="translate(162.7773 61.021) rotate(-7.0769) scale(.975 1)"><tspan x="0" y="0">D</tspan></text><text class="cls-5" transform="translate(172.6919 59.8247) rotate(-2.2806) scale(.975 1)"><tspan x="0" y="0">E</tspan></text><text class="cls-5" transform="translate(180.6923 59.5581) rotate(.9165) scale(.975 1)"><tspan x="0" y="0"> </tspan></text><text class="cls-5" transform="translate(184.2822 59.6104) rotate(2.694) scale(.975 1)"><tspan x="0" y="0"> </tspan></text><text class="cls-5" transform="translate(187.8496 59.7632) rotate(4.9494) scale(.975 1)"><tspan x="0" y="0">•</tspan></text><text class="cls-5" transform="translate(192.6669 60.1909) rotate(7.2106) scale(.975 1)"><tspan x="0" y="0"> </tspan></text><text class="cls-5" transform="translate(196.2148 60.6382) rotate(9.143) scale(.975 1)"><tspan x="0" y="0"> </tspan></text><text class="cls-5" transform="translate(199.7021 61.0908) rotate(12.7913) scale(.975 1)"><tspan x="0" y="0">G</tspan></text><text class="cls-5" transform="translate(209.3701 63.3208) rotate(17.6344) scale(.975 1)"><tspan x="0" y="0">E</tspan></text><text class="cls-5" transform="translate(216.957 65.7261) rotate(21.9262) scale(.975 1)"><tspan x="0" y="0">S</tspan></text><text class="cls-5" transform="translate(224.0654 68.5625) rotate(26.1386) scale(.975 1)"><tspan x="0" y="0">T</tspan></text><text class="cls-5" transform="translate(231.4248 72.2324) rotate(29.3967) scale(.975 1)"><tspan x="0" y="0">I</tspan></text><text class="cls-5" transform="translate(235.0224 74.1255) rotate(33.2888) scale(.975 1)"><tspan x="0" y="0">Ó</tspan></text><text class="cls-5" transform="translate(243.8271 79.918) rotate(38.5786) scale(.975 1)"><tspan x="0" y="0">N</tspan></text><text class="cls-5" transform="translate(251.3642 86.044) rotate(42.0285) scale(.975 1)"><tspan x="0" y="0"> </tspan></text><text class="cls-5" transform="translate(254.0605 88.333) rotate(45.5644) scale(.975 1)"><tspan x="0" y="0">D</tspan></text><text class="cls-5" transform="translate(261.0302 95.4878) rotate(50.174) scale(.975 1)"><tspan x="0" y="0">E</tspan></text><text class="cls-5" transform="translate(266.1181 101.6738) rotate(53.1417) scale(.975 1)"><tspan x="0" y="0"> </tspan></text><text class="cls-5" transform="translate(268.2978 104.4512) rotate(56.3338) scale(.975 1)"><tspan x="0" y="0">R</tspan></text><text class="cls-5" transform="translate(273.1982 111.9282) rotate(59.677) scale(.975 1)"><tspan x="0" y="0">I</tspan></text><text class="cls-5" transform="translate(275.3115 115.4277) rotate(62.7607) scale(.975 1)"><tspan x="0" y="0">E</tspan></text><text class="cls-5" transform="translate(278.9697 122.523) rotate(66.828) scale(.975 1)"><tspan x="0" y="0">S</tspan></text><text class="cls-5" transform="translate(282.1318 129.794) rotate(71.3769) scale(.975 1)"><tspan x="0" y="0">G</tspan></text><text class="cls-5" transform="translate(285.3203 139.1782) rotate(76.5874) scale(.975 1)"><tspan x="0" y="0">O</tspan></text><text class="cls-5" transform="translate(287.7109 149.3838) rotate(81.2027) scale(.975 1)"><tspan x="0" y="0">S</tspan></text><path class="cls-6" d="m190.8177,94.4637h-24.1787c-3.6642,0-6.634,2.3614-6.634,5.2724v19.2094c0,2.911,2.9698,5.272,6.634,5.272h24.1787c3.6642,0,6.634-2.3609,6.634-5.272v-19.2094c0-2.911-2.9698-5.2724-6.634-5.2724Zm-8.4377,23.8088h-7.3017l2.3485-11.2699c-1.5814-.458-2.7241-1.7083-2.7241-3.1982,0-1.8748,1.8019-3.3953,4.0274-3.3953,2.222,0,4.0239,1.5205,4.0239,3.3953,0,1.5192-1.1889,2.7887-2.8177,3.2227l2.4437,11.2454Z"/><path class="cls-6" d="m195.9133,92.3317c0-9.4908-7.6933-17.1842-17.1851-17.1842s-17.185,7.6933-17.185,17.1842h5.3788c0-6.5201,5.2862-11.8054,11.8062-11.8054s11.8063,5.2853,11.8063,11.8054h5.3788Z"/><path class="cls-4" d="m118.6712,159.4569c0,2.1344.093,4.2227.3714,5.4759h-6.3578l-.4176-2.2744h-.1391c-1.4855,1.8099-3.8059,2.7848-6.4977,2.7848-4.5948,0-7.3327-3.3415-7.3327-6.9613,0-5.8942,5.2913-8.6783,13.3192-8.6783v-.2783c0-1.2533-.6489-2.9702-4.1296-2.9702-2.3205,0-4.7801.7889-6.2655,1.7169l-1.2995-4.5479c1.5777-.8819,4.6878-2.0421,8.8175-2.0421,7.5649,0,9.9315,4.4549,9.9315,9.8385v7.9363Zm-6.8214-5.2445c-3.7136,0-6.5907.8819-6.5907,3.5737,0,1.8099,1.207,2.6911,2.7848,2.6911,1.7169,0,3.2023-1.1595,3.6667-2.5988.0923-.3707.1392-.7889.1392-1.2064v-2.4596Z"/><path class="cls-6" d="m145.7549,164.7695c-1.2533.6036-12.8035.6277-15.4953.6277-7.3327,0-12.0198-4.5017-12.0198-11.6022,0-6.6369,4.5479-12.0667,12.9939-12.0667,1.8568,0,3.8982.3252,5.3837.8818l-1.1134,5.2445c-.8358-.3713-2.089-.6966-3.9451-.6966-3.7129,0-6.1263,2.6457-6.0794,6.3586,0,4.1304,2.7848,6.3578,6.2186,6.3578,1.6707,0,6.4032-1.0877,7.4711-1.5521l6.5856,6.4472Z"/><path class="cls-4" d="m159.3648,157.647c0,2.9702.0938,5.3829.186,7.2859h-6.1263l-.3245-3.2024h-.1391c-.8819,1.3925-3.0171,3.7129-7.1005,3.7129-4.6409,0-7.9824-2.8771-7.9824-9.8854v-13.3192h7.0544v12.2059c0,3.2946,1.0672,5.2906,3.573,5.2906,1.9498,0,3.1101-1.3463,3.5275-2.4596.186-.4182.2783-.928.2783-1.5316v-13.5052h7.0537v15.4082Z"/><path class="cls-4" d="m169.8329,135.9272c0,1.9491-1.4385,3.5275-3.8059,3.5275-2.2282,0-3.6664-1.5785-3.6664-3.5275,0-1.9953,1.4851-3.5269,3.7587-3.5269,2.275,0,3.6667,1.5316,3.7136,3.5269Zm-7.2869,29.0057v-22.6941h7.054v22.6941h-7.054Z"/><path class="cls-4" d="m179.4018,136.1132v6.1256h5.0585v5.1983h-5.0585v8.2139c0,2.738.6973,3.9912,2.7849,3.9912.9742,0,1.4386-.0462,2.089-.1853l.0454,5.3367c-.8804.3245-2.5988.6036-4.5472.6036-2.2735,0-4.1765-.7896-5.3367-1.9491-1.2994-1.3463-1.9498-3.5276-1.9498-6.7299v-9.2811h-3.0163v-5.1983h3.0163v-4.2227l6.9144-1.9029Z"/><path class="cls-4" d="m191.8186,142.2388l3.3884,11.1848c.3706,1.2995.835,3.0163,1.1134,4.2234h.186c.2783-1.2533.649-2.924.9742-4.2696l2.8317-11.1386h7.5181l-5.2913,14.9438c-3.2478,9.0496-5.4291,12.6233-7.9824,14.8969-2.4127,2.1352-5.0115,2.924-6.7753,3.1093l-1.5308-5.9403c.8804-.1853,1.9953-.6028,3.0617-1.2064,1.068-.5567,2.275-1.7169,2.924-2.831.2329-.3714.3721-.7428.3721-1.0211s-.0469-.6028-.2783-1.1602l-8.3545-20.7911h7.8432Z"/><path class="cls-6" d="m220.1592,136.1132v6.1256h5.0584v5.1983h-5.0584v8.2139c0,2.738.6958,3.9912,2.7848,3.9912.9742,0,10.6061-.0462,11.2565-.1853l.9082,5.3126c-.8819.3245-12.6292-.2593-14.5775-.2593-2.275,0-4.1766-.7896-5.3368-1.9491-1.2994-1.3463-1.9498-2.6406-1.9498-5.8429v-9.2811h-3.0162v-5.1983h3.0162v-4.2227l6.9145-1.9029Z"/><path class="cls-6" d="m231.894,155.4811c.186,2.9233,3.1101,4.3157,6.4047,4.3157,2.4127,0,4.3626-.3252,6.2655-.9749l.9273,4.78c-2.3205.975-5.1507,1.4393-8.2139,1.4393-7.7041,0-12.112-4.4556-12.112-11.5561,0-5.7543,3.573-12.1128,11.4631-12.1128,7.332,0,10.1168,5.7088,10.1168,11.3239,0,1.2064-.1392,2.2743-.233,2.7848h-14.6185Zm8.3077-4.8269c0-1.7169-.7428-4.594-3.992-4.594-2.9694,0-4.1765,2.7379-4.3611,4.594h8.3531Z"/><path class="cls-6" d="m263.7519,163.9733c-1.2525.6036-3.6199,1.0679-6.3109,1.0679-7.3334,0-12.0198-4.5018-12.0198-11.6023,0-6.6369,4.5472-12.0666,12.994-12.0666,1.8561,0,3.8981.3251,5.3836.8818l-1.1134,5.2445c-.8364-.3713-2.089-.6966-3.945-.6966-3.7136,0-6.1264,2.6457-6.0795,6.3586,0,4.1304,2.7833,6.3578,6.2186,6.3578,1.67,0,2.9694-.2783,4.0373-.7427l.835,5.1976Z"/><polygon class="cls-3" points="162.4813 243.3935 181.1532 247.8729 209.1321 233.1545 190.1639 253.8286 181.1532 262.5917 172.3901 253.5809 162.4813 243.3935"/><text class="cls-2" transform="translate(82.6142 216.7359)"><tspan class="cls-12" x="0" y="0">CE</tspan><tspan class="cls-9" x="37.2905" y="0">R</tspan><tspan class="cls-8" x="55.4512" y="0">T</tspan><tspan class="cls-12" x="73.6812" y="0">I</tspan><tspan class="cls-10" x="82.103" y="0">F</tspan><tspan class="cls-11" x="98.5303" y="0">ICADO</tspan></text></svg>