<?xml version="1.0" encoding="UTF-8"?><svg xmlns="http://www.w3.org/2000/svg" xmlns:xlink="http://www.w3.org/1999/xlink" viewBox="0 0 359.5595 395.367"><defs><style>.cls-1,.cls-2{fill:#fff;}.cls-3,.cls-4{fill:#a7a9ac;}.cls-5{fill:#d1d3d4;}.cls-6{fill:#6d6e71;}.cls-7{fill:#808285;}.cls-4{font-family:MonsalGothic-Bold, 'Monsal Gothic';font-size:17.1949px;font-weight:700;}.cls-8{fill:url(#radial-gradient);mix-blend-mode:multiply;}.cls-2{fill-rule:evenodd;}.cls-9{isolation:isolate;}</style><radialGradient id="radial-gradient" cx="179.8222" cy="16732.8099" fx="179.8222" fy="16732.8099" r="148.9037" gradientTransform="translate(0 -1458.9114) scale(1 .1097)" gradientUnits="userSpaceOnUse"><stop offset="0" stop-color="#a7a9ac"/><stop offset=".1925" stop-color="#bfc0c2"/><stop offset=".5156" stop-color="#e1e2e3"/><stop offset=".7812" stop-color="#f7f7f7"/><stop offset=".9544" stop-color="#fff"/></radialGradient></defs><g class="cls-9"><g id="Layer_1"><g><ellipse class="cls-8" cx="179.8223" cy="376.6778" rx="151.0667" ry="18.1191"/><g><path class="cls-7" d="m329.005,123.3544l-.5722-8.7947-3.1292-48.2985-53.1804-21.1361-5.1706-6.2377L235.6093,1.0539l-55.4487,14.2076L124.7119,1.0539l-31.3433,37.8336-5.1706,6.2377-30.637,12.1713-22.5434,8.9596-3.7014,57.0983L.7616,171.72l30.5545,48.3655,3.7014,57.0932,53.1804,21.1361,36.5139,44.0713,55.4487-14.2076,55.4487,14.2076,36.5139-44.0713,53.1804-21.1309,3.7014-57.0983,30.5545-48.3655-30.5545-48.3655Zm-4.4334,95.2876l-.8351,12.8518-2.758,42.5454-39.6637,15.7593-11.9342,4.7427-8.2173,9.9185-27.2037,32.8383-41.3236-10.5887-11.9135-3.0518-.5619-.1443-12.4754,3.1962-41.3185,10.5887-27.1985-32.8331-7.8564-9.4803-.3712-.4433-11.9342-4.7427-39.6637-15.7593-2.7528-42.5351-.8351-12.8621-6.877-10.8877-22.7703-36.0344,22.7703-36.0344,6.877-10.8877.8351-12.8621,2.7528-42.5351,18.2183-7.2378,21.4454-8.5214,11.9342-4.7427,8.2173-9.9185.0773-.0928L126.3667,6.142l41.3185,10.5887,12.4754,3.1962,12.4754-3.1962,41.3236-10.5887,27.1264,32.7455.0773.0928,8.2173,9.9185,11.9342,4.7427,39.6637,15.7593,2.758,42.5454.1701,2.6137.665,10.2381,6.8718,10.8773,22.7703,36.0447-22.7703,36.0447-6.8718,10.8773Z"/><path class="cls-5" d="m330.3965,133.0279h-27.3801c-16.564-51.7528-65.0664-89.2259-122.3191-89.2259s-105.7551,37.4731-122.3191,89.2259h-27.3802C48.3497,66.5593,108.7983,17.5069,180.6973,17.5069s132.3475,49.0525,149.6992,115.5211Z"/><path class="cls-3" d="m33.7033,220.5842h293.9878c-20.3097,61.7565-78.4492,106.3398-146.9939,106.3398s-126.6842-44.5833-146.9939-106.3398Z"/><polygon class="cls-3" points="340.217 176.8085 355.552 211.4028 .085 211.4028 15.42 176.8085 17.4565 172.2154 4.1528 142.2091 .085 133.0279 355.552 133.0279 351.4841 142.2091 338.1806 172.2154 340.217 176.8085"/><path class="cls-6" d="m330.3965,211.4028c-.8076,3.0967-1.7094,6.1589-2.7053,9.1814H33.7033c-.9959-3.0225-1.8977-6.0846-2.7054-9.1814h299.3985Z"/><path class="cls-1" d="m315.9954,172.2154c0,14.395-2.2495,28.2678-6.4197,41.2796-.3445,1.0752-.6994,2.14-1.07,3.2048-.3914,1.1221-.7933,2.2339-1.2162,3.3456-19.3167,51.0972-68.6967,87.4393-126.5635,87.4393s-107.2467-36.3421-126.5635-87.4393c-.4228-1.1118-.8247-2.2235-1.2162-3.3456-.3705-1.0648-.7254-2.1295-1.0699-3.2048-4.1702-13.0117-6.4197-26.8846-6.4197-41.2796s2.2495-28.268,6.4197-41.2797c17.4483-54.5158,68.5402-93.9896,128.8495-93.9896s111.4013,39.4737,128.8496,93.9896c4.1701,13.0117,6.4197,26.8848,6.4197,41.2797Z"/><path class="cls-3" d="m298.666,183.9436c-4.4988,61.2077-55.5833,109.4685-117.9398,109.4685s-113.4541-48.2732-117.9415-109.4921"/><text class="cls-4" transform="translate(72.921 166.3599) rotate(-82.62) scale(.975 1)"><tspan x="0" y="0">F</tspan></text><text class="cls-4" transform="translate(73.9728 157.8408) rotate(-77.9649) scale(.975 1)"><tspan x="0" y="0">R</tspan></text><text class="cls-4" transform="translate(76.0875 147.8262) rotate(-72.6916) scale(.975 1)"><tspan x="0" y="0">A</tspan></text><text class="cls-4" transform="translate(79.1173 137.9634) rotate(-67.2635) scale(.975 1)"><tspan x="0" y="0">U</tspan></text><text class="cls-4" transform="translate(83.4469 127.5757) rotate(-61.4441) scale(.975 1)"><tspan x="0" y="0">D</tspan></text><text class="cls-4" transform="translate(89.1281 117.4004) rotate(-57.4306) scale(.975 1)"><tspan x="0" y="0"> </tspan></text><text class="cls-4" transform="translate(91.2526 113.9121) rotate(-53.9599) scale(.975 1)"><tspan x="0" y="0">P</tspan></text><text class="cls-4" transform="translate(96.6354 106.4512) rotate(-49.0182) scale(.975 1)"><tspan x="0" y="0">R</tspan></text><text class="cls-4" transform="translate(103.3678 98.7197) rotate(-44.0039) scale(.975 1)"><tspan x="0" y="0">E</tspan></text><text class="cls-4" transform="translate(109.9684 92.3037) rotate(-38.9925) scale(.975 1)"><tspan x="0" y="0">V</tspan></text><text class="cls-4" transform="translate(117.7711 85.9966) rotate(-33.9588) scale(.975 1)"><tspan x="0" y="0">E</tspan></text><text class="cls-4" transform="translate(125.3483 80.8228) rotate(-28.572) scale(.975 1)"><tspan x="0" y="0">N</tspan></text><text class="cls-4" transform="translate(135.0207 75.5742) rotate(-23.1101) scale(.975 1)"><tspan x="0" y="0">T</tspan></text><text class="cls-4" transform="translate(143.7536 71.9229) rotate(-19.3307) scale(.975 1)"><tspan x="0" y="0">I</tspan></text><text class="cls-4" transform="translate(148.1154 70.2217) rotate(-14.7485) scale(.975 1)"><tspan x="0" y="0">O</tspan></text><text class="cls-4" transform="translate(159.8742 67.1382) rotate(-8.4662) scale(.975 1)"><tspan x="0" y="0">N</tspan></text><text class="cls-4" transform="translate(170.985 65.6069) rotate(-4.3581) scale(.975 1)"><tspan x="0" y="0"> </tspan></text><text class="cls-4" transform="translate(175.1095 65.291) rotate(-2.1467) scale(.975 1)"><tspan x="0" y="0"> </tspan></text><text class="cls-4" transform="translate(179.195 65.0928) rotate(.9162) scale(.975 1)"><tspan x="0" y="0">•</tspan></text><text class="cls-4" transform="translate(184.8043 65.1724) rotate(3.0069) scale(.975 1)"><tspan x="0" y="0"> </tspan></text><text class="cls-4" transform="translate(188.943 65.3882) rotate(5.2281) scale(.975 1)"><tspan x="0" y="0"> </tspan></text><text class="cls-4" transform="translate(192.9967 65.6465) rotate(9.0984) scale(.975 1)"><tspan x="0" y="0">R</tspan></text><text class="cls-4" transform="translate(203.153 67.3667) rotate(13.1654) scale(.975 1)"><tspan x="0" y="0">I</tspan></text><text class="cls-4" transform="translate(207.7741 68.3652) rotate(16.9372) scale(.975 1)"><tspan x="0" y="0">S</tspan></text><text class="cls-4" transform="translate(216.5221 70.9805) rotate(22.271) scale(.975 1)"><tspan x="0" y="0">K</tspan></text><text class="cls-4" transform="translate(226.3913 75.1401) rotate(26.2347) scale(.975 1)"><tspan x="0" y="0"> </tspan></text><text class="cls-4" transform="translate(230.0846 76.7319) rotate(30.9268) scale(.975 1)"><tspan x="0" y="0">M</tspan></text><text class="cls-4" transform="translate(241.6764 83.7554) rotate(37.2718) scale(.975 1)"><tspan x="0" y="0">A</tspan></text><text class="cls-4" transform="translate(250.0934 90.1274) rotate(42.9246) scale(.975 1)"><tspan x="0" y="0">N</tspan></text><text class="cls-4" transform="translate(258.2633 97.7295) rotate(48.5369) scale(.975 1)"><tspan x="0" y="0">A</tspan></text><text class="cls-4" transform="translate(265.0358 105.3149) rotate(53.9806) scale(.975 1)"><tspan x="0" y="0">G</tspan></text><text class="cls-4" transform="translate(271.7262 114.585) rotate(59.2458) scale(.975 1)"><tspan x="0" y="0">E</tspan></text><text class="cls-4" transform="translate(276.5202 122.3989) rotate(65.0502) scale(.975 1)"><tspan x="0" y="0">M</tspan></text><text class="cls-4" transform="translate(282.154 134.7417) rotate(70.8358) scale(.975 1)"><tspan x="0" y="0">E</tspan></text><text class="cls-4" transform="translate(285.2194 143.3892) rotate(75.9993) scale(.975 1)"><tspan x="0" y="0">N</tspan></text><text class="cls-4" transform="translate(287.8668 154.0825) rotate(81.1598) scale(.975 1)"><tspan x="0" y="0">T</tspan></text><g><path class="cls-3" d="m191.0472,95.5892h-24.1971c-3.6669,0-6.639,2.3632-6.639,5.2764v19.224c0,2.9132,2.9721,5.276,6.639,5.276h24.1971c3.6669,0,6.639-2.3627,6.639-5.276v-19.224c0-2.9132-2.9721-5.2764-6.639-5.2764Zm-8.444,23.8269h-7.3072l2.3502-11.2784c-1.5826-.4583-2.7262-1.7096-2.7262-3.2006,0-1.8762,1.8032-3.3979,4.0305-3.3979,2.2237,0,4.0269,1.5217,4.0269,3.3979,0,1.5203-1.1898,2.7908-2.8198,3.2251l2.4456,11.2539Z"/><path class="cls-3" d="m196.1468,93.4555c0-9.498-7.6992-17.1972-17.1981-17.1972s-17.198,7.6992-17.198,17.1972h5.3829c0-6.525,5.2902-11.8143,11.8151-11.8143s11.8152,5.2893,11.8152,11.8143h5.3829Z"/><path class="cls-3" d="m118.8461,160.6316c0,2.136.0931,4.2259.3716,5.4801h-6.3626l-.4179-2.2761h-.1392c-1.4866,1.8113-3.8088,2.787-6.5026,2.787-4.5983,0-7.3383-3.3441-7.3383-6.9666,0-5.8986,5.2954-8.6848,13.3293-8.6848v-.2786c0-1.2542-.6494-2.9724-4.1327-2.9724-2.3222,0-4.7837.7895-6.2703,1.7182l-1.3004-4.5513c1.5789-.8826,4.6913-2.0437,8.8241-2.0437,7.5706,0,9.939,4.4583,9.939,9.846v7.9423Zm-6.8266-5.2484c-3.7164,0-6.5957.8826-6.5957,3.5764,0,1.8113,1.208,2.6931,2.787,2.6931,1.7182,0,3.2047-1.1604,3.6694-2.6007.0924-.371.1393-.7895.1393-1.2073v-2.4615Z"/><path class="cls-5" d="m145.9503,165.9482c-1.2542.604-12.8132.6282-15.5071.6282-7.3383,0-12.0289-4.5051-12.0289-11.611,0-6.642,4.5513-12.0758,13.0038-12.0758,1.8582,0,3.9012.3255,5.3878.8825l-1.1142,5.2484c-.8364-.3716-2.0906-.6971-3.9481-.6971-3.7157,0-6.1309,2.6477-6.084,6.3634,0,4.1335,2.7869,6.3626,6.2233,6.3626,1.672,0,6.4081-1.0885,7.4768-1.5532l6.5906,6.4521Z"/><path class="cls-3" d="m159.5706,158.8203c0,2.9724.0938,5.387.1862,7.2914h-6.1309l-.3248-3.2048h-.1392c-.8826,1.3935-3.0193,3.7157-7.1059,3.7157-4.6444,0-7.9885-2.8793-7.9885-9.8929v-13.3293h7.0597v12.2151c0,3.2971,1.068,5.2946,3.5757,5.2946,1.9513,0,3.1124-1.3473,3.5302-2.4615.1862-.4185.2786-.9287.2786-1.5328v-13.5155h7.059v15.4199Z"/><path class="cls-3" d="m170.0466,137.084c0,1.9505-1.4396,3.5302-3.8088,3.5302-2.2298,0-3.6692-1.5797-3.6692-3.5302,0-1.9968,1.4862-3.5295,3.7616-3.5295,2.2768,0,3.6695,1.5328,3.7164,3.5295Zm-7.2924,29.0277v-22.7112h7.0594v22.7112h-7.0594Z"/><path class="cls-3" d="m179.6227,137.2702v6.1303h5.0623v5.2023h-5.0623v8.2201c0,2.74.6978,3.9942,2.787,3.9942.975,0,1.4397-.0462,2.0906-.1855l.0454,5.3408c-.8811.3247-2.6007.604-4.5506.604-2.2753,0-4.1796-.7902-5.3408-1.9505-1.3004-1.3474-1.9513-3.5303-1.9513-6.735v-9.2881h-3.0186v-5.2023h3.0186v-4.2259l6.9197-1.9044Z"/><path class="cls-3" d="m192.0489,143.4005l3.391,11.1932c.3709,1.3004.8357,3.0186,1.1142,4.2266h.1862c.2786-1.2542.6495-2.9262.975-4.2728l2.8338-11.1471h7.5238l-5.2954,14.9552c-3.2502,9.0565-5.4332,12.6328-7.9885,14.9082-2.4146,2.1368-5.0153,2.9262-6.7804,3.1117l-1.532-5.9448c.8811-.1855,1.9968-.6033,3.064-1.2073,1.0688-.5571,2.2768-1.7182,2.9263-2.8331.2331-.3717.3724-.7433.3724-1.0219s-.0469-.6033-.2786-1.161l-8.3609-20.8069h7.8492Z"/><path class="cls-5" d="m220.411,137.2702v6.1303h5.0622v5.2023h-5.0622v8.2201c0,2.74.6963,3.9942,2.7869,3.9942.9749,0,10.6141-.0462,11.2651-.1855l.9089,5.3166c-.8826.3247-12.6388-.2595-14.5886-.2595-2.2768,0-4.1797-.7902-5.3408-1.9505-1.3004-1.3474-1.9513-2.6426-1.9513-5.8474v-9.2881h-3.0185v-5.2023h3.0185v-4.2259l6.9198-1.9044Z"/><path class="cls-5" d="m232.1547,156.6528c.1862,2.9255,3.1124,4.319,6.4096,4.319,2.4146,0,4.3659-.3255,6.2703-.9756l.928,4.7837c-2.3222.9757-5.1546,1.4404-8.2201,1.4404-7.7099,0-12.1212-4.4589-12.1212-11.5649,0-5.7586,3.5757-12.122,11.4718-12.122,7.3375,0,10.1245,5.7131,10.1245,11.3325,0,1.2073-.1393,2.276-.2331,2.787h-14.6296Zm8.3139-4.8306c0-1.7182-.7433-4.5975-3.995-4.5975-2.9717,0-4.1797,2.74-4.3644,4.5975h8.3594Z"/><path class="cls-5" d="m264.0368,165.1515c-1.2535.604-3.6226,1.0687-6.3157,1.0687-7.339,0-12.0289-4.5052-12.0289-11.6111,0-6.6419,4.5506-12.0757,13.0039-12.0757,1.8575,0,3.9011.3254,5.3877.8825l-1.1142,5.2484c-.8371-.3716-2.0905-.6971-3.948-.6971-3.7164,0-6.131,2.6477-6.0841,6.3634,0,4.1335,2.7854,6.3626,6.2233,6.3626,1.6713,0,2.9717-.2786,4.0404-.7433l.8357,5.2015Z"/></g><g><path class="cls-1" d="m123.231,222.1731v4.614c0,5.5567-2.7784,8.7319-8.1365,8.7319s-8.1365-3.1752-8.1365-8.7319v-18.0589c0-5.5567,2.7784-8.732,8.1365-8.732s8.1365,3.1752,8.1365,8.732v3.3736h-5.1597v-3.7211c0-2.4807-1.0915-3.4231-2.8279-3.4231s-2.828.9424-2.828,3.4231v18.7537c0,2.4807,1.0915,3.3737,2.828,3.3737s2.8279-.893,2.8279-3.3737v-4.9614h5.1597Z"/><path class="cls-1" d="m132.0121,215.029h7.4914v4.9614h-7.4914v10.1704h9.4264v4.9614h-14.8839v-34.729h14.8839v4.9614h-9.4264v9.6743Z"/><path class="cls-1" d="m156.223,235.1222c-.2977-.8929-.4961-1.4388-.4961-4.2666v-5.4575c0-3.225-1.0915-4.4156-3.5721-4.4156h-1.8853v14.1397h-5.4575v-34.729h8.2357c5.6559,0,8.087,2.6294,8.087,7.9877v2.7286c0,3.5724-1.1412,5.9041-3.5722,7.0453,2.7288,1.1411,3.6218,3.7705,3.6218,7.392v5.3583c0,1.687.0496,2.9274.5953,4.2171h-5.5567Zm-5.9534-29.7676v10.6665h2.1333c2.0341,0,3.2744-.8929,3.2744-3.6713v-3.4231c0-2.4807-.8433-3.5721-2.7784-3.5721h-2.6294Z"/><path class="cls-1" d="m163.1687,200.3932h16.8684v4.9614h-5.7055v29.7676h-5.4573v-29.7676h-5.7055v-4.9614Z"/><path class="cls-1" d="m182.418,200.3932h5.4575v34.729h-5.4575v-34.729Z"/><path class="cls-1" d="m197.3014,215.8227h7.0449v4.9614h-7.0449v14.3381h-5.4575v-34.729h14.4373v4.9614h-8.9798v10.468Z"/><path class="cls-1" d="m208.9106,200.3932h5.4572v34.729h-5.4572v-34.729Z"/><path class="cls-1" d="m223.7939,215.029h7.4916v4.9614h-7.4916v10.1704h9.4265v4.9614h-14.8836v-34.729h14.8836v4.9614h-9.4265v9.6743Z"/><path class="cls-1" d="m236.594,200.3932h8.6324c5.4575,0,8.1367,3.0266,8.1367,8.583v17.5631c0,5.5567-2.6792,8.583-8.1367,8.583h-8.6324v-34.729Zm5.4572,4.9614v24.8061h3.076c1.7364,0,2.7784-.893,2.7784-3.3736v-18.0589c0-2.4807-1.0419-3.3736-2.7784-3.3736h-3.076Z"/></g><polygon class="cls-2" points="162.6895 254.5414 181.3754 259.0242 209.3755 244.2946 190.393 264.9844 181.3754 273.7541 172.6057 264.7366 162.6895 254.5414"/></g></g></g></g></svg>