<?xml version="1.0" encoding="UTF-8"?><svg id="Layer_1" xmlns="http://www.w3.org/2000/svg" xmlns:xlink="http://www.w3.org/1999/xlink" viewBox="0 0 357.9557 393.33"><defs><style>.cls-1{font-size:13.1241px;}.cls-1,.cls-2{fill:#a97142;}.cls-1,.cls-3{font-family:MonsalGothic-Bold, 'Monsal Gothic';font-weight:700;}.cls-4,.cls-5,.cls-3{fill:#fff;}.cls-6{fill:#dd8c4e;}.cls-7{fill:#7c5131;}.cls-8{letter-spacing:-.06em;}.cls-9{letter-spacing:-.102em;}.cls-10{letter-spacing:-.073em;}.cls-11{letter-spacing:-.05em;}.cls-12{letter-spacing:-.05em;}.cls-13{fill:url(#radial-gradient);}.cls-5{fill-rule:evenodd;}.cls-3{font-size:34.537px;}</style><radialGradient id="radial-gradient" cx="177.8564" cy="-15882.606" fx="177.8564" fy="-15882.606" r="148.9384" gradientTransform="translate(0 -1367.1153) scale(1 -.1097)" gradientUnits="userSpaceOnUse"><stop offset="0" stop-color="#a7a9ac"/><stop offset=".1925" stop-color="#bfc0c2"/><stop offset=".5156" stop-color="#e1e2e3"/><stop offset=".7812" stop-color="#f7f7f7"/><stop offset=".9544" stop-color="#fff"/></radialGradient></defs><g id="Layer_1-2"><ellipse class="cls-13" cx="177.8564" cy="375.2066" rx="151.1024" ry="18.1234"/></g><path class="cls-7" d="m327.5303,121.7838l-.5698-8.7575-3.1159-48.0945-52.9557-21.0468-5.1488-6.2114L234.5292,0l-55.2144,14.1475L124.1003,0l-31.2108,37.6737-5.1488,6.2114-30.5076,12.1199-22.4482,8.9218-3.6858,56.8571L.6738,169.945l30.4254,48.1612,3.6858,56.852,52.9557,21.0468,36.3596,43.8851,55.2144-14.1475,55.2144,14.1475,36.3596-43.8851,52.9557-21.0416,3.6858-56.8571,30.4254-48.1612-30.4254-48.1612Zm-4.4147,94.885l-.8316,12.7975-2.7463,42.3656-39.4961,15.6927-11.8837,4.7227-8.1826,9.8766-27.0887,32.6995-41.149-10.5439-11.8632-3.0389-.5595-.1437-12.4227,3.1827-41.1439,10.5439-27.0836-32.6944-7.8232-9.4403-.3696-.4415-11.8837-4.7227-39.4961-15.6927-2.7412-42.3554-.8316-12.8077-6.8479-10.8417-22.6741-35.8822,22.6741-35.8822,6.8479-10.8417.8316-12.8077,2.7412-42.3554,18.1413-7.2072,21.3548-8.4854,11.8837-4.7227,8.1826-9.8766.077-.0924L125.7481,5.0666l41.1439,10.5439,12.4227,3.1827,12.4227-3.1827,41.149-10.5439,27.0117,32.6071.077.0924,8.1826,9.8766,11.8837,4.7227,39.4961,15.6927,2.7463,42.3656.1694,2.6026.6622,10.1949,6.8428,10.8314,22.6741,35.8925-22.6741,35.8925-6.8428,10.8314Z"/><path class="cls-6" d="m328.9159,131.4164h-27.2644c-16.494-51.5342-64.7915-88.8489-121.8023-88.8489s-105.3083,37.3148-121.8023,88.8489h-27.2645C48.0608,65.2287,108.2539,16.3835,179.8492,16.3835s131.7884,48.8452,149.0668,115.033Z"/><path class="cls-2" d="m33.4763,218.6028h292.7457c-20.2239,61.4956-78.1178,105.8905-146.3729,105.8905s-126.149-44.3949-146.3729-105.8905Z"/><polygon class="cls-2" points="338.6949 175.0121 353.9652 209.4602 0 209.4602 15.2703 175.0121 17.2981 170.4384 4.0507 140.5589 0 131.4164 353.9652 131.4164 349.9145 140.5589 336.6671 170.4384 338.6949 175.0121"/><path class="cls-7" d="m328.9159,209.4602c-.8042,3.0837-1.7022,6.1329-2.6939,9.1426H33.4763c-.9917-3.0097-1.8897-6.0589-2.6939-9.1426h298.1336Z"/><path class="cls-4" d="m314.5756,170.4384c0,14.3341-2.24,28.1484-6.3925,41.1052-.3431,1.0707-.6965,2.1309-1.0654,3.1912-.3898,1.1174-.79,2.2244-1.211,3.3315-19.2351,50.8813-68.4065,87.0699-126.0287,87.0699s-106.7936-36.1886-126.0287-87.0699c-.421-1.1071-.8212-2.2141-1.211-3.3315-.369-1.0603-.7224-2.1205-1.0654-3.1912-4.1526-12.9568-6.3926-26.771-6.3926-41.1052s2.24-28.1486,6.3926-41.1053c17.3745-54.2855,68.2506-93.5924,128.3052-93.5924s110.9306,39.3069,128.3052,93.5924c4.1525,12.9568,6.3925,26.7712,6.3925,41.1053Z"/><path class="cls-2" d="m297.3194,182.1171c-4.4798,60.9491-55.3485,109.006-117.4415,109.006s-112.9748-48.0692-117.4432-109.0294"/><text class="cls-1" transform="translate(72.5654 160.1257) rotate(-83.0434) scale(.975 1)"><tspan x="0" y="0">P</tspan></text><text class="cls-1" transform="translate(73.4028 153.0939) rotate(-79.3033) scale(.975 1)"><tspan x="0" y="0">R</tspan></text><text class="cls-1" transform="translate(74.8696 145.3723) rotate(-75.5175) scale(.975 1)"><tspan x="0" y="0">E</tspan></text><text class="cls-1" transform="translate(76.6176 138.5436) rotate(-71.7532) scale(.975 1)"><tspan x="0" y="0">V</tspan></text><text class="cls-1" transform="translate(79.0385 131.2194) rotate(-67.9784) scale(.975 1)"><tspan x="0" y="0">E</tspan></text><text class="cls-1" transform="translate(81.6542 124.6682) rotate(-63.9768) scale(.975 1)"><tspan x="0" y="0">N</tspan></text><text class="cls-1" transform="translate(85.4072 117.0031) rotate(-59.8211) scale(.975 1)"><tspan x="0" y="0">Ç</tspan></text><text class="cls-1" transform="translate(89.2665 110.3405) rotate(-55.7618) scale(.975 1)"><tspan x="0" y="0">Ã</tspan></text><text class="cls-1" transform="translate(93.6259 103.8605) rotate(-51.4132) scale(.975 1)"><tspan x="0" y="0">O</tspan></text><text class="cls-1" transform="translate(99.5766 96.5407) rotate(-48.1688) scale(.975 1)"><tspan x="0" y="0"> </tspan></text><text class="cls-1" transform="translate(101.5898 94.1686) rotate(-45.0524) scale(.975 1)"><tspan x="0" y="0">D</tspan></text><text class="cls-1" transform="translate(107.8437 87.9387) rotate(-40.9362) scale(.975 1)"><tspan x="0" y="0">E</tspan></text><text class="cls-1" transform="translate(113.2421 83.3156) rotate(-38.247) scale(.975 1)"><tspan x="0" y="0"> </tspan></text><text class="cls-1" transform="translate(115.6738 81.3395) rotate(-35.608) scale(.975 1)"><tspan x="0" y="0">F</tspan></text><text class="cls-1" transform="translate(120.9941 77.4909) rotate(-31.8629) scale(.975 1)"><tspan x="0" y="0">R</tspan></text><text class="cls-1" transform="translate(127.6533 73.3395) rotate(-27.607) scale(.975 1)"><tspan x="0" y="0">A</tspan></text><text class="cls-1" transform="translate(134.6362 69.6594) rotate(-23.2179) scale(.975 1)"><tspan x="0" y="0">U</tspan></text><text class="cls-1" transform="translate(142.5551 66.2482) rotate(-18.4843) scale(.975 1)"><tspan x="0" y="0">D</tspan></text><text class="cls-1" transform="translate(150.9565 63.4689) rotate(-14.1774) scale(.975 1)"><tspan x="0" y="0">E</tspan></text><text class="cls-1" transform="translate(157.8295 61.7795) rotate(-11.4018) scale(.975 1)"><tspan x="0" y="0"> </tspan></text><text class="cls-1" transform="translate(160.9423 61.1511) rotate(-9.6752) scale(.975 1)"><tspan x="0" y="0"> </tspan></text><text class="cls-1" transform="translate(164.0546 60.6081) rotate(-7.6554) scale(.975 1)"><tspan x="0" y="0">•</tspan></text><text class="cls-1" transform="translate(168.3037 60.0461) rotate(-5.6406) scale(.975 1)"><tspan x="0" y="0"> </tspan></text><text class="cls-1" transform="translate(171.455 59.7336) rotate(-3.9343) scale(.975 1)"><tspan x="0" y="0"> </tspan></text><text class="cls-1" transform="translate(174.5663 59.4509) rotate(-.9163) scale(.975 1)"><tspan x="0" y="0">G</tspan></text><text class="cls-1" transform="translate(183.3305 59.3503) rotate(3.476) scale(.975 1)"><tspan x="0" y="0">E</tspan></text><text class="cls-1" transform="translate(190.3666 59.7575) rotate(7.5001) scale(.975 1)"><tspan x="0" y="0">R</tspan></text><text class="cls-1" transform="translate(198.1401 60.7892) rotate(11.5335) scale(.975 1)"><tspan x="0" y="0">E</tspan></text><text class="cls-1" transform="translate(205.0463 62.1638) rotate(15.7785) scale(.975 1)"><tspan x="0" y="0">N</tspan></text><text class="cls-1" transform="translate(213.2875 64.5041) rotate(20.1979) scale(.975 1)"><tspan x="0" y="0">C</tspan></text><text class="cls-1" transform="translate(220.5082 67.2155) rotate(23.2599) scale(.975 1)"><tspan x="0" y="0">I</tspan></text><text class="cls-1" transform="translate(223.8813 68.5934) rotate(26.4375) scale(.975 1)"><tspan x="0" y="0">A</tspan></text><text class="cls-1" transform="translate(231.1586 72.1491) rotate(31.3794) scale(.975 1)"><tspan x="0" y="0">M</tspan></text><text class="cls-1" transform="translate(239.9877 77.6047) rotate(35.9825) scale(.975 1)"><tspan x="0" y="0">E</tspan></text><text class="cls-1" transform="translate(245.7006 81.7131) rotate(40.0784) scale(.975 1)"><tspan x="0" y="0">N</tspan></text><text class="cls-1" transform="translate(252.1567 87.1623) rotate(44.1677) scale(.975 1)"><tspan x="0" y="0">T</tspan></text><text class="cls-1" transform="translate(257.0561 91.8351) rotate(48.209) scale(.975 1)"><tspan x="0" y="0">O</tspan></text><text class="cls-1" transform="translate(263.2651 98.9099) rotate(51.4431) scale(.975 1)"><tspan x="0" y="0"> </tspan></text><text class="cls-1" transform="translate(265.2836 101.3112) rotate(54.5537) scale(.975 1)"><tspan x="0" y="0">D</tspan></text><text class="cls-1" transform="translate(270.3891 108.529) rotate(58.6204) scale(.975 1)"><tspan x="0" y="0">E</tspan></text><text class="cls-1" transform="translate(274.0395 114.5934) rotate(61.239) scale(.975 1)"><tspan x="0" y="0"> </tspan></text><text class="cls-1" transform="translate(275.602 117.3146) rotate(64.0703) scale(.975 1)"><tspan x="0" y="0">R</tspan></text><text class="cls-1" transform="translate(279.0102 124.4401) rotate(67.0255) scale(.975 1)"><tspan x="0" y="0">I</tspan></text><text class="cls-1" transform="translate(280.4721 127.779) rotate(69.7638) scale(.975 1)"><tspan x="0" y="0">S</tspan></text><text class="cls-1" transform="translate(282.9164 134.3635) rotate(73.528) scale(.975 1)"><tspan x="0" y="0">C</tspan></text><text class="cls-1" transform="translate(285.0707 141.4851) rotate(77.7439) scale(.975 1)"><tspan x="0" y="0">O</tspan></text><text class="cls-1" transform="translate(287.0102 150.5749) rotate(81.849) scale(.975 1)"><tspan x="0" y="0">S</tspan></text><path class="cls-6" d="m190.1554,94.1359h-24.0948c-3.6514,0-6.6109,2.3532-6.6109,5.2541v19.1428c0,2.9009,2.9595,5.2537,6.6109,5.2537h24.0948c3.6514,0,6.6109-2.3528,6.6109-5.2537v-19.1428c0-2.9009-2.9595-5.2541-6.6109-5.2541Zm-8.4084,23.7262h-7.2764l2.3403-11.2308c-1.576-.4564-2.7147-1.7024-2.7147-3.1871,0-1.8683,1.7956-3.3836,4.0135-3.3836,2.2143,0,4.0099,1.5153,4.0099,3.3836,0,1.5139-1.1848,2.779-2.8079,3.2115l2.4352,11.2063Z"/><path class="cls-6" d="m195.2334,92.0112c0-9.4579-7.6666-17.1245-17.1254-17.1245s-17.1253,7.6666-17.1253,17.1245h5.3601c0-6.4975,5.2678-11.7644,11.7652-11.7644s11.7653,5.2669,11.7653,11.7644h5.3601Z"/><path class="cls-2" d="m118.2594,158.9035c0,2.127.0927,4.208.3701,5.4569h-6.3357l-.4161-2.2665h-.1387c-1.4803,1.8036-3.7927,2.7752-6.4752,2.7752-4.5788,0-7.3073-3.3299-7.3073-6.9372,0-5.8737,5.273-8.6481,13.2729-8.6481v-.2774c0-1.2489-.6467-2.9599-4.1153-2.9599-2.3124,0-4.7635.7862-6.2438,1.711l-1.2949-4.5321c1.5722-.8789,4.6715-2.0351,8.7869-2.0351,7.5386,0,9.897,4.4394,9.897,9.8044v7.9088Zm-6.7978-5.2263c-3.7007,0-6.5679.8788-6.5679,3.5613,0,1.8037,1.2029,2.6817,2.7752,2.6817,1.7109,0,3.1912-1.1555,3.6539-2.5897.092-.3694.1387-.7862.1387-1.2022v-2.4511Z"/><path class="cls-6" d="m145.2491,164.1977c-1.2489.6015-12.7591.6255-15.4416.6255-7.3073,0-11.9781-4.4861-11.9781-11.562,0-6.6139,4.5321-12.0248,12.9488-12.0248,1.8504,0,3.8847.3241,5.365.8788l-1.1095,5.2263c-.8329-.3701-2.0818-.6941-3.9314-.6941-3.7,0-6.105,2.6365-6.0583,6.3365,0,4.116,2.7751,6.3357,6.197,6.3357,1.6649,0,6.381-1.0839,7.4452-1.5467l6.5628,6.4248Z"/><path class="cls-2" d="m158.8118,157.0999c0,2.9599.0934,5.3642.1854,7.2606h-6.105l-.3234-3.1913h-.1387c-.8788,1.3876-3.0066,3.7-7.0759,3.7-4.6248,0-7.9547-2.8671-7.9547-9.8511v-13.2729h7.0299v12.1635c0,3.2831,1.0635,5.2722,3.5606,5.2722,1.9431,0,3.0993-1.3416,3.5153-2.4511.1854-.4168.2774-.9248.2774-1.5263v-13.4584h7.0292v15.3547Z"/><path class="cls-2" d="m169.2435,135.4555c0,1.9423-1.4335,3.5153-3.7927,3.5153-2.2204,0-3.6536-1.573-3.6536-3.5153,0-1.9883,1.4799-3.5146,3.7457-3.5146,2.2671,0,3.6539,1.5263,3.7007,3.5146Zm-7.2616,28.905v-22.6153h7.0295v22.6153h-7.0295Z"/><path class="cls-2" d="m178.7792,135.6408v6.1044h5.0409v5.1803h-5.0409v8.1854c0,2.7285.6949,3.9774,2.7752,3.9774.9708,0,1.4336-.046,2.0818-.1847l.0452,5.3182c-.8773.3233-2.5897.6015-4.5314.6015-2.2656,0-4.162-.7868-5.3182-1.9423-1.2949-1.3417-1.9431-3.5154-1.9431-6.7066v-9.2489h-3.0058v-5.1803h3.0058v-4.208l6.8904-1.8963Z"/><path class="cls-2" d="m191.1529,141.7452l3.3766,11.1459c.3693,1.2949.8321,3.0058,1.1095,4.2088h.1854c.2774-1.2489.6468-2.9138.9709-4.2547l2.8218-11.1h7.492l-5.273,14.892c-3.2365,9.0182-5.4102,12.5795-7.9547,14.8452-2.4044,2.1277-4.9941,2.9138-6.7518,3.0985l-1.5255-5.9197c.8773-.1847,1.9883-.6007,3.0511-1.2022,1.0643-.5548,2.2671-1.711,2.9139-2.8211.2321-.3701.3708-.7402.3708-1.0176s-.0467-.6007-.2774-1.1561l-8.3255-20.719h7.816Z"/><path class="cls-6" d="m219.3951,135.6408v6.1044h5.0408v5.1803h-5.0408v8.1854c0,2.7285.6934,3.9774,2.7752,3.9774.9708,0,10.5693-.046,11.2175-.1847l.9051,5.2941c-.8788.3233-12.5854-.2584-14.5269-.2584-2.2671,0-4.1621-.7868-5.3183-1.9423-1.2949-1.3417-1.9431-2.6314-1.9431-5.8227v-9.2489h-3.0058v-5.1803h3.0058v-4.208l6.8905-1.8963Z"/><path class="cls-6" d="m231.0892,154.9415c.1854,2.9132,3.0993,4.3007,6.3825,4.3007,2.4044,0,4.3474-.3241,6.2438-.9715l.9241,4.7635c-2.3124.9716-5.1328,1.4343-8.1854,1.4343-7.6774,0-12.07-4.4401-12.07-11.516,0-5.7343,3.5606-12.0707,11.4233-12.0707,7.3065,0,10.0817,5.689,10.0817,11.2846,0,1.2022-.1387,2.2664-.2322,2.7752h-14.5678Zm8.2788-4.8102c0-1.711-.7402-4.5781-3.9781-4.5781-2.9591,0-4.1621,2.7284-4.346,4.5781h8.3241Z"/><path class="cls-6" d="m262.8366,163.4043c-1.2482.6015-3.6073,1.0642-6.289,1.0642-7.308,0-11.9781-4.4861-11.9781-11.562,0-6.6138,4.5314-12.0247,12.9489-12.0247,1.8496,0,3.8846.324,5.3649.8788l-1.1095,5.2263c-.8335-.3701-2.0817-.6941-3.9313-.6941-3.7007,0-6.1051,2.6365-6.0584,6.3365,0,4.116,2.7737,6.3357,6.197,6.3357,1.6642,0,2.9591-.2774,4.0233-.7401l.8321,5.1796Z"/><polygon class="cls-5" points="161.9174 242.5488 180.5245 247.0126 208.4063 232.3454 189.504 252.9477 180.5245 261.6804 171.7918 252.7009 161.9174 242.5488"/><text class="cls-3" transform="translate(82.3281 215.9836)"><tspan class="cls-11" x="0" y="0">CE</tspan><tspan class="cls-9" x="37.1616" y="0">R</tspan><tspan class="cls-8" x="55.2593" y="0">T</tspan><tspan class="cls-11" x="73.4263" y="0">I</tspan><tspan class="cls-10" x="81.8184" y="0">F</tspan><tspan class="cls-12" x="98.189" y="0">ICADO</tspan></text></svg>