<?xml version="1.0" encoding="UTF-8"?><svg xmlns="http://www.w3.org/2000/svg" xmlns:xlink="http://www.w3.org/1999/xlink" viewBox="0 0 359.5595 395.367"><defs><style>.cls-1,.cls-2{fill:#fff;}.cls-3,.cls-4{fill:#a97142;}.cls-5{fill:#dd8c4e;}.cls-6{fill:#7c5131;}.cls-4{font-family:MonsalGothic-Bold, 'Monsal Gothic';font-size:17.199px;font-weight:700;}.cls-7{fill:url(#radial-gradient);mix-blend-mode:multiply;}.cls-2{fill-rule:evenodd;}.cls-8{isolation:isolate;}</style><radialGradient id="radial-gradient" cx="179.7797" cy="16737.9678" fx="179.7797" fy="16737.9678" r="148.9389" gradientTransform="translate(0 -1458.9114) scale(1 .1097)" gradientUnits="userSpaceOnUse"><stop offset="0" stop-color="#a7a9ac"/><stop offset=".1925" stop-color="#bfc0c2"/><stop offset=".5156" stop-color="#e1e2e3"/><stop offset=".7812" stop-color="#f7f7f7"/><stop offset=".9544" stop-color="#fff"/></radialGradient></defs><g class="cls-8"><g id="Layer_1"><g><ellipse class="cls-7" cx="179.7798" cy="377.2437" rx="151.1024" ry="18.1234"/><g><path class="cls-6" d="m328.9977,123.8603l-.5724-8.7968-3.1299-48.3099-53.193-21.1411-5.1718-6.2392L235.58,1.5309l-55.4618,14.2109L124.6563,1.5309l-31.3507,37.8425-5.1718,6.2392-30.6442,12.1742-22.5488,8.9618-3.7023,57.1118L.6768,172.2373l30.5617,48.377,3.7023,57.1067,53.193,21.1411,36.5225,44.0817,55.4618-14.2109,55.4618,14.2109,36.5225-44.0817,53.193-21.1359,3.7023-57.1118,30.5617-48.377-30.5617-48.377Zm-4.4345,95.3102l-.8353,12.8548-2.7587,42.5554-39.673,15.763-11.937,4.7439-8.2192,9.9208-27.2101,32.846-41.3334-10.5912-11.9163-3.0526-.562-.1444-12.4784,3.1969-41.3282,10.5912-27.205-32.8409-7.8583-9.4825-.3713-.4434-11.937-4.7439-39.673-15.763-2.7535-42.5451-.8353-12.8651-6.8786-10.8902-22.7756-36.043,22.7756-36.043,6.8786-10.8902.8353-12.8651,2.7535-42.5451,18.2226-7.2395,21.4505-8.5235,11.937-4.7439,8.2192-9.9208.0773-.0928L126.3115,6.6202l41.3282,10.5912,12.4784,3.1969,12.4784-3.1969,41.3334-10.5912,27.1328,32.7532.0773.0928,8.2192,9.9208,11.937,4.7439,39.673,15.763,2.7587,42.5554.1702,2.6143.6652,10.2405,6.8734,10.8799,22.7756,36.0533-22.7756,36.0533-6.8734,10.8799Z"/><path class="cls-5" d="m330.3896,133.5361h-27.3866c-16.5679-51.765-65.0818-89.247-122.3481-89.247s-105.7801,37.4819-122.348,89.247h-27.3867C48.2761,67.0518,108.739,17.9877,180.655,17.9877s132.3788,49.0641,149.7346,115.5484Z"/><path class="cls-3" d="m33.6263,221.1131h294.0574c-20.3145,61.7711-78.4678,106.365-147.0287,106.365s-126.7142-44.5938-147.0287-106.365Z"/><polygon class="cls-3" points="340.2124 177.3271 355.5511 211.9296 0 211.9296 15.3387 177.3271 17.3756 172.7329 4.0688 142.7195 0 133.5361 355.5511 133.5361 351.4822 142.7195 338.1755 172.7329 340.2124 177.3271"/><path class="cls-6" d="m330.3896,211.9296c-.8078,3.0975-1.7098,6.1604-2.706,9.1836H33.6263c-.9961-3.0232-1.8982-6.0861-2.706-9.1836h299.4693Z"/><path class="cls-1" d="m315.9851,172.7329c0,14.3984-2.2501,28.2745-6.4212,41.2893-.3446,1.0755-.6996,2.1405-1.0702,3.2055-.3915,1.1224-.7935,2.2344-1.2164,3.3464-19.3213,51.1093-68.713,87.46-126.5934,87.46s-107.2721-36.3507-126.5934-87.46c-.4229-1.112-.8249-2.2241-1.2164-3.3464-.3706-1.065-.7256-2.13-1.0702-3.2055-4.1712-13.0148-6.4212-26.891-6.4212-41.2893s2.25-28.2747,6.4212-41.2895c17.4524-54.5287,68.5564-94.0118,128.88-94.0118s111.4276,39.4831,128.8801,94.0118c4.1711,13.0148,6.4212,26.8911,6.4212,41.2895Z"/><path class="cls-3" d="m298.6516,184.4639c-4.4998,61.2222-55.5965,109.4943-117.9677,109.4943s-113.4809-48.2846-117.9694-109.5179"/><text class="cls-4" transform="translate(72.8537 166.876) rotate(-82.6203) scale(.975 1)"><tspan x="0" y="0">F</tspan></text><text class="cls-4" transform="translate(73.9054 158.355) rotate(-77.9649) scale(.975 1)"><tspan x="0" y="0">R</tspan></text><text class="cls-4" transform="translate(76.0211 148.3379) rotate(-72.6918) scale(.975 1)"><tspan x="0" y="0">A</tspan></text><text class="cls-4" transform="translate(79.0514 138.4731) rotate(-67.2628) scale(.975 1)"><tspan x="0" y="0">U</tspan></text><text class="cls-4" transform="translate(83.381 128.0825) rotate(-61.4443) scale(.975 1)"><tspan x="0" y="0">D</tspan></text><text class="cls-4" transform="translate(89.0636 117.9038) rotate(-57.4311) scale(.975 1)"><tspan x="0" y="0"> </tspan></text><text class="cls-4" transform="translate(91.1896 114.416) rotate(-53.9602) scale(.975 1)"><tspan x="0" y="0">P</tspan></text><text class="cls-4" transform="translate(96.5739 106.9526) rotate(-49.0184) scale(.975 1)"><tspan x="0" y="0">R</tspan></text><text class="cls-4" transform="translate(103.3073 99.2192) rotate(-44.0041) scale(.975 1)"><tspan x="0" y="0">E</tspan></text><text class="cls-4" transform="translate(109.8952 92.8154) rotate(-39.0032) scale(.975 1)"><tspan x="0" y="0">V</tspan></text><text class="cls-4" transform="translate(117.714 86.4927) rotate(-33.9587) scale(.975 1)"><tspan x="0" y="0">E</tspan></text><text class="cls-4" transform="translate(125.2931 81.3179) rotate(-28.572) scale(.975 1)"><tspan x="0" y="0">N</tspan></text><text class="cls-4" transform="translate(134.9494 76.0776) rotate(-23.1203) scale(.975 1)"><tspan x="0" y="0">T</tspan></text><text class="cls-4" transform="translate(143.7023 72.416) rotate(-19.3308) scale(.975 1)"><tspan x="0" y="0">I</tspan></text><text class="cls-4" transform="translate(148.0656 70.7148) rotate(-14.7482) scale(.975 1)"><tspan x="0" y="0">O</tspan></text><text class="cls-4" transform="translate(159.8258 67.6304) rotate(-8.4663) scale(.975 1)"><tspan x="0" y="0">N</tspan></text><text class="cls-4" transform="translate(170.9406 66.0986) rotate(-4.3585) scale(.975 1)"><tspan x="0" y="0"> </tspan></text><text class="cls-4" transform="translate(175.0661 65.7822) rotate(-2.1467) scale(.975 1)"><tspan x="0" y="0"> </tspan></text><text class="cls-4" transform="translate(179.152 65.5845) rotate(.9165) scale(.975 1)"><tspan x="0" y="0">•</tspan></text><text class="cls-4" transform="translate(184.7633 65.6641) rotate(3.0073) scale(.975 1)"><tspan x="0" y="0"> </tspan></text><text class="cls-4" transform="translate(188.904 65.8799) rotate(5.228) scale(.975 1)"><tspan x="0" y="0"> </tspan></text><text class="cls-4" transform="translate(192.9557 66.1387) rotate(9.0988) scale(.975 1)"><tspan x="0" y="0">R</tspan></text><text class="cls-4" transform="translate(203.1159 67.8584) rotate(13.166) scale(.975 1)"><tspan x="0" y="0">I</tspan></text><text class="cls-4" transform="translate(207.7379 68.8579) rotate(16.9367) scale(.975 1)"><tspan x="0" y="0">S</tspan></text><text class="cls-4" transform="translate(216.4879 71.4736) rotate(22.2716) scale(.975 1)"><tspan x="0" y="0">K</tspan></text><text class="cls-4" transform="translate(226.36 75.6338) rotate(26.2347) scale(.975 1)"><tspan x="0" y="0"> </tspan></text><text class="cls-4" transform="translate(230.0553 77.2261) rotate(30.9271) scale(.975 1)"><tspan x="0" y="0">M</tspan></text><text class="cls-4" transform="translate(241.6481 84.2515) rotate(37.2721) scale(.975 1)"><tspan x="0" y="0">A</tspan></text><text class="cls-4" transform="translate(250.067 90.625) rotate(42.924) scale(.975 1)"><tspan x="0" y="0">N</tspan></text><text class="cls-4" transform="translate(258.2399 98.229) rotate(48.5376) scale(.975 1)"><tspan x="0" y="0">A</tspan></text><text class="cls-4" transform="translate(265.0133 105.8159) rotate(53.9803) scale(.975 1)"><tspan x="0" y="0">G</tspan></text><text class="cls-4" transform="translate(271.7038 115.0884) rotate(59.2459) scale(.975 1)"><tspan x="0" y="0">E</tspan></text><text class="cls-4" transform="translate(276.5006 122.9043) rotate(65.0511) scale(.975 1)"><tspan x="0" y="0">M</tspan></text><text class="cls-4" transform="translate(282.1364 135.25) rotate(70.8353) scale(.975 1)"><tspan x="0" y="0">E</tspan></text><text class="cls-4" transform="translate(285.2018 143.9004) rotate(75.9987) scale(.975 1)"><tspan x="0" y="0">N</tspan></text><text class="cls-4" transform="translate(287.8493 154.5962) rotate(81.1591) scale(.975 1)"><tspan x="0" y="0">T</tspan></text><g><path class="cls-5" d="m191.0074,96.0885h-24.2028c-3.6678,0-6.6406,2.3638-6.6406,5.2777v19.2285c0,2.9139,2.9728,5.2772,6.6406,5.2772h24.2028c3.6678,0,6.6406-2.3633,6.6406-5.2772v-19.2285c0-2.9139-2.9728-5.2777-6.6406-5.2777Zm-8.446,23.8325h-7.309l2.3508-11.2811c-1.583-.4584-2.7268-1.71-2.7268-3.2013,0-1.8767,1.8037-3.3987,4.0314-3.3987,2.2242,0,4.0279,1.5221,4.0279,3.3987,0,1.5207-1.1901,2.7914-2.8205,3.2259l2.4461,11.2566Z"/><path class="cls-5" d="m196.1081,93.9544c0-9.5003-7.701-17.2012-17.2022-17.2012s-17.2021,7.701-17.2021,17.2012h5.3841c0-6.5266,5.2914-11.8171,11.8179-11.8171s11.818,5.2905,11.818,11.8171h5.3841Z"/><path class="cls-3" d="m118.7892,161.1464c0,2.1365.0931,4.2269.3717,5.4814h-6.3641l-.418-2.2766h-.1393c-1.4869,1.8117-3.8097,2.7876-6.5042,2.7876-4.5993,0-7.34-3.3449-7.34-6.9682,0-5.9,5.2966-8.6869,13.3324-8.6869v-.2786c0-1.2545-.6496-2.9731-4.1337-2.9731-2.3228,0-4.7849.7897-6.2717,1.7186l-1.3007-4.5524c1.5793-.8828,4.6924-2.0442,8.8262-2.0442,7.5724,0,9.9414,4.4593,9.9414,9.8483v7.9442Zm-6.8282-5.2497c-3.7173,0-6.5973.8828-6.5973,3.5772,0,1.8117,1.2082,2.6938,2.7876,2.6938,1.7186,0,3.2055-1.1606,3.6703-2.6013.0924-.371.1393-.7897.1393-1.2076v-2.4621Z"/><path class="cls-5" d="m145.8998,166.4642c-1.2545.6042-12.8162.6283-15.5107.6283-7.34,0-12.0317-4.5062-12.0317-11.6138,0-6.6435,4.5524-12.0787,13.0069-12.0787,1.8587,0,3.9021.3255,5.389.8827l-1.1145,5.2497c-.8366-.3717-2.0911-.6973-3.949-.6973-3.7166,0-6.1324,2.6483-6.0855,6.3649,0,4.1345,2.7875,6.3641,6.2248,6.3641,1.6724,0,6.4096-1.0888,7.4786-1.5536l6.5922,6.4536Z"/><path class="cls-3" d="m159.5233,159.3346c0,2.9731.0938,5.3883.1862,7.2931h-6.1324l-.3249-3.2056h-.1393c-.8828,1.3938-3.0201,3.7166-7.1076,3.7166-4.6455,0-7.9904-2.88-7.9904-9.8952v-13.3324h7.0614v12.218c0,3.2979,1.0682,5.2959,3.5765,5.2959,1.9518,0,3.1132-1.3476,3.531-2.4621.1862-.4186.2786-.929.2786-1.5331v-13.5187h7.0607v15.4235Z"/><path class="cls-3" d="m170.0017,137.5932c0,1.951-1.4399,3.531-3.8097,3.531-2.2304,0-3.67-1.58-3.67-3.531,0-1.9973,1.4866-3.5304,3.7624-3.5304,2.2773,0,3.6703,1.5331,3.7172,3.5304Zm-7.2942,29.0345v-22.7166h7.061v22.7166h-7.061Z"/><path class="cls-3" d="m179.5802,137.7794v6.1317h5.0635v5.2035h-5.0635v8.2221c0,2.7407.698,3.9952,2.7876,3.9952.9752,0,1.44-.0462,2.0911-.1855l.0454,5.342c-.8813.3248-2.6013.6042-4.5517.6042-2.2758,0-4.1806-.7904-5.342-1.951-1.3007-1.3477-1.9518-3.5311-1.9518-6.7366v-9.2903h-3.0193v-5.2035h3.0193v-4.2269l6.9213-1.9048Z"/><path class="cls-3" d="m192.0093,143.9111l3.3918,11.1959c.371,1.3007.8359,3.0193,1.1145,4.2276h.1862c.2786-1.2545.6497-2.9269.9752-4.2738l2.8345-11.1497h7.5256l-5.2966,14.9587c-3.251,9.0586-5.4345,12.6358-7.9904,14.9117-2.4151,2.1373-5.0165,2.9269-6.782,3.1124l-1.5324-5.9462c.8813-.1855,1.9972-.6034,3.0647-1.2076,1.069-.5572,2.2773-1.7186,2.927-2.8338.2331-.3718.3725-.7435.3725-1.0221s-.0469-.6034-.2786-1.1613l-8.3628-20.8118h7.851Z"/><path class="cls-5" d="m220.3781,137.7794v6.1317h5.0634v5.2035h-5.0634v8.2221c0,2.7407.6965,3.9952,2.7876,3.9952.9751,0,10.6166-.0462,11.2677-.1855l.9091,5.3179c-.8828.3248-12.6417-.2595-14.592-.2595-2.2773,0-4.1807-.7904-5.3421-1.951-1.3007-1.3477-1.9518-2.6432-1.9518-5.8487v-9.2903h-3.0192v-5.2035h3.0192v-4.2269l6.9214-1.9048Z"/><path class="cls-5" d="m232.1246,157.1666c.1862,2.9262,3.1132,4.32,6.4111,4.32,2.4151,0,4.3669-.3255,6.2717-.9759l.9282,4.7848c-2.3228.976-5.1558,1.4408-8.2221,1.4408-7.7118,0-12.1241-4.46-12.1241-11.5676,0-5.76,3.5765-12.1248,11.4745-12.1248,7.3393,0,10.1269,5.7145,10.1269,11.3351,0,1.2076-.1393,2.2765-.2332,2.7876h-14.6331Zm8.3159-4.8317c0-1.7186-.7435-4.5986-3.9959-4.5986-2.9724,0-4.1807,2.7406-4.3655,4.5986h8.3614Z"/><path class="cls-5" d="m264.0142,165.6673c-1.2537.6042-3.6235,1.069-6.3172,1.069-7.3407,0-12.0317-4.5062-12.0317-11.6138,0-6.6435,4.5517-12.0786,13.0069-12.0786,1.8579,0,3.902.3255,5.389.8827l-1.1145,5.2497c-.8373-.3717-2.091-.6973-3.9489-.6973-3.7173,0-6.1325,2.6483-6.0855,6.3649,0,4.1345,2.7861,6.3641,6.2248,6.3641,1.6717,0,2.9724-.2786,4.0414-.7434l.8359,5.2028Z"/></g><g><path class="cls-1" d="m123.1751,222.7024v4.6151c0,5.558-2.779,8.734-8.1384,8.734s-8.1384-3.176-8.1384-8.734v-18.0631c0-5.558,2.779-8.734,8.1384-8.734s8.1384,3.176,8.1384,8.734v3.3744h-5.1609v-3.722c0-2.4813-1.0918-3.4239-2.8286-3.4239s-2.8287.9426-2.8287,3.4239v18.7581c0,2.4813,1.0918,3.3745,2.8287,3.3745s2.8286-.8932,2.8286-3.3745v-4.9626h5.1609Z"/><path class="cls-1" d="m131.9583,215.5565h7.4932v4.9626h-7.4932v10.1728h9.4287v4.9626h-14.8875v-34.7372h14.8875v4.9626h-9.4287v9.6766Z"/><path class="cls-1" d="m156.1749,235.6546c-.2977-.8931-.4962-1.4391-.4962-4.2676v-5.4588c0-3.2257-1.0918-4.4166-3.5729-4.4166h-1.8857v14.143h-5.4588v-34.7372h8.2377c5.6573,0,8.0889,2.63,8.0889,7.9896v2.7292c0,3.5733-1.1414,5.9055-3.5731,7.0469,2.7294,1.1414,3.6227,3.7714,3.6227,7.3938v5.3596c0,1.6874.0496,2.928.5954,4.2181h-5.558Zm-5.9548-29.7746v10.669h2.1338c2.0346,0,3.2752-.8931,3.2752-3.6721v-3.4239c0-2.4813-.8435-3.5729-2.779-3.5729h-2.63Z"/><path class="cls-1" d="m163.1223,200.9173h16.8724v4.9626h-5.7069v29.7746h-5.4586v-29.7746h-5.7069v-4.9626Z"/><path class="cls-1" d="m182.3761,200.9173h5.4588v34.7372h-5.4588v-34.7372Z"/><path class="cls-1" d="m197.2631,216.3505h7.0466v4.9626h-7.0466v14.3415h-5.4588v-34.7372h14.4407v4.9626h-8.9819v10.4705Z"/><path class="cls-1" d="m208.875,200.9173h5.4585v34.7372h-5.4585v-34.7372Z"/><path class="cls-1" d="m223.7618,215.5565h7.4934v4.9626h-7.4934v10.1728h9.4287v4.9626h-14.8872v-34.7372h14.8872v4.9626h-9.4287v9.6766Z"/><path class="cls-1" d="m236.565,200.9173h8.6344c5.4588,0,8.1386,3.0273,8.1386,8.585v17.5673c0,5.5581-2.6798,8.585-8.1386,8.585h-8.6344v-34.7372Zm5.4585,4.9626v24.812h3.0767c1.7368,0,2.779-.8932,2.779-3.3744v-18.0631c0-2.4813-1.0422-3.3744-2.779-3.3744h-3.0767Z"/></g><polygon class="cls-2" points="162.6429 255.0783 181.3333 259.5622 209.34 244.8292 190.353 265.5238 181.3333 274.2956 172.5615 265.2759 162.6429 255.0783"/></g></g></g></g></svg>