<?xml version="1.0" encoding="UTF-8"?><svg id="Layer_1" xmlns="http://www.w3.org/2000/svg" xmlns:xlink="http://www.w3.org/1999/xlink" viewBox="0 0 357.8368 391.5149"><defs><style>.cls-1,.cls-2,.cls-3{fill:#fff;}.cls-4{fill:#293458;}.cls-5{fill:#4c9bd5;}.cls-6{letter-spacing:-.06em;}.cls-7{letter-spacing:-.102em;}.cls-8{letter-spacing:-.073em;}.cls-9{letter-spacing:-.05em;}.cls-10{letter-spacing:-.05em;}.cls-11{letter-spacing:-.05em;}.cls-2{font-size:33.5144px;}.cls-2,.cls-12{font-family:MonsalGothic-Bold, 'Monsal Gothic';font-weight:700;}.cls-13{fill:url(#radial-gradient);}.cls-3{fill-rule:evenodd;}.cls-12{fill:#274666;font-size:14.3633px;}</style><radialGradient id="radial-gradient" cx="178.987" cy="17010.8379" fx="178.987" fy="17010.8379" r="148.1681" gradientTransform="translate(0 -1492.6037) scale(1 .1097)" gradientUnits="userSpaceOnUse"><stop offset="0" stop-color="#a7a9ac"/><stop offset=".1925" stop-color="#bfc0c2"/><stop offset=".5156" stop-color="#e1e2e3"/><stop offset=".7812" stop-color="#f7f7f7"/><stop offset=".9544" stop-color="#fff"/></radialGradient></defs><g id="Layer_1-2"><ellipse class="cls-13" cx="178.987" cy="373.4852" rx="150.3211" ry="18.0297"/></g><path class="cls-5" d="m327.4218,121.7435l-.5696-8.7546-3.1149-48.0785-52.9382-21.0398-5.1471-6.2093L234.4515,0l-55.1961,14.1428L124.0592,0l-31.2005,37.6612-5.1471,6.2093-30.4975,12.1158-22.4408,8.9188-3.6845,56.8383L.6736,169.8887l30.4153,48.1452,3.6845,56.8331,52.9382,21.0398,36.3475,43.8706,55.1961-14.1428,55.1961,14.1428,36.3475-43.8706,52.9382-21.0347,3.6845-56.8382,30.4153-48.1452-30.4153-48.1452h.0003Zm-4.4132,94.8536l-.8313,12.7932-2.7455,42.3516-39.483,15.6875-11.8798,4.7211-8.1798,9.8733-27.0798,32.6887-41.1353-10.5404-11.8592-3.038-.5593-.1436-12.4186,3.1816-41.1302,10.5404-27.0747-32.6835-7.8207-9.4371-.3694-.4414-11.8797-4.7211-39.483-15.6875-2.7403-42.3413-.8313-12.8035-6.8456-10.8381-22.6666-35.8703,22.6666-35.8703,6.8456-10.838.8313-12.8035,2.7403-42.3413,18.1352-7.2049,21.3477-8.4826,11.8797-4.7211,8.1798-9.8733.0769-.0923L125.7065,5.0649l41.1302,10.5404,12.4186,3.1816,12.4186-3.1816,41.1353-10.5404,27.0028,32.5963.0769.0923,8.1798,9.8733,11.8798,4.7211,39.483,15.6875,2.7455,42.3516.1694,2.6018.662,10.1915,6.8405,10.8279,22.6666,35.8805-22.6666,35.8805-6.8405,10.8278h0Z"/><path class="cls-5" d="m328.807,131.3729h-27.2554c-16.4885-51.5171-64.77-88.8195-121.762-88.8195s-105.2734,37.3024-121.7619,88.8195h-27.2555C48.0449,65.2071,108.2181,16.3781,179.7896,16.3781s131.7447,48.8291,149.0173,114.9949h0Z"/><path class="cls-4" d="m33.4652,218.5304h292.6488c-20.2172,61.4752-78.0919,105.8554-146.3244,105.8554s-126.1071-44.3802-146.3244-105.8554h0Z"/><polygon class="cls-4" points="338.5826 174.9541 353.8479 209.3908 0 209.3908 15.2652 174.9541 17.2924 170.382 4.0493 140.5124 0 131.3729 353.8479 131.3729 349.7985 140.5124 336.5556 170.382 338.5826 174.9541"/><path d="m328.807,209.3908c-.8039,3.0827-1.7016,6.1308-2.693,9.1396H33.4652c-.9914-3.0087-1.8891-6.0569-2.693-9.1396h298.0348Z"/><path class="cls-1" d="m314.4714,170.8608c0,14.3294-2.2393,28.1391-6.3904,41.0915-.3429,1.0703-.6963,2.1302-1.0651,3.1902-.3896,1.117-.7897,2.2236-1.2107,3.3304-19.2288,50.8645-68.3839,87.041-125.987,87.041s-106.7582-36.1765-125.987-87.041c-.4209-1.1067-.8209-2.2134-1.2107-3.3304-.3688-1.0599-.7222-2.1198-1.065-3.1902-4.1513-12.9524-6.3904-26.7621-6.3904-41.0915s2.2393-28.1393,6.3904-41.0917c17.3687-54.2675,68.228-93.5614,128.2627-93.5614s110.8938,39.2939,128.2627,93.5614c4.1512,12.9524,6.3904,26.7623,6.3904,41.0917h.0001Z"/><path class="cls-4" d="m297.2209,182.0568c-4.4783,60.9289-55.3302,108.9698-117.4025,108.9698s-112.9373-48.0533-117.4043-108.9933"/><path class="cls-5" d="m190.0924,94.1047h-24.0868c-3.6502,0-6.6087,2.3524-6.6087,5.2524v19.1364c0,2.8999,2.9585,5.2519,6.6087,5.2519h24.0868c3.6502,0,6.6087-2.352,6.6087-5.2519v-19.1364c0-2.8999-2.9585-5.2524-6.6087-5.2524Zm-8.4056,23.7184h-7.274l2.3395-11.2271c-1.5754-.4563-2.7137-1.7019-2.7137-3.186,0-1.8677,1.795-3.3824,4.0121-3.3824,2.2135,0,4.0086,1.5148,4.0086,3.3824,0,1.5134-1.1844,2.7781-2.807,3.2104l2.4344,11.2026h0Z"/><path class="cls-5" d="m195.1687,91.9808c0-9.4547-7.6641-17.1189-17.1198-17.1189s-17.1196,7.664-17.1196,17.1189h5.3583c0-6.4953,5.2661-11.7605,11.7613-11.7605s11.7614,5.2652,11.7614,11.7605h5.3584Z"/><path class="cls-4" d="m118.2202,158.8509c0,2.1263.0926,4.2066.3699,5.4551h-6.3336l-.416-2.2658h-.1387c-1.4799,1.8031-3.7915,2.7743-6.473,2.7743-4.5774,0-7.3049-3.3289-7.3049-6.9349,0-5.8718,5.2712-8.6453,13.2686-8.6453v-.2773c0-1.2485-.6464-2.9589-4.1139-2.9589-2.3117,0-4.7619.7859-6.2417,1.7104l-1.2945-4.5306c1.5717-.8785,4.67-2.0344,8.784-2.0344,7.5361,0,9.8938,4.438,9.8938,9.8011v7.9063Zm-6.7955-5.2245c-3.6995,0-6.5657.8785-6.5657,3.5601,0,1.8031,1.2025,2.6808,2.7743,2.6808,1.7104,0,3.1901-1.155,3.6527-2.5889.0919-.3692.1387-.7859.1387-1.2018v-2.4502h0Z"/><path class="cls-5" d="m145.201,164.1433c-1.2485.6012-12.7549.6253-15.4364.6253-7.3049,0-11.9741-4.4846-11.9741-11.5581,0-6.6117,4.5306-12.0208,12.9446-12.0208,1.8497,0,3.8834.324,5.3633.8784l-1.1091,5.2245c-.8326-.3699-2.0811-.694-3.9301-.694-3.6987,0-6.103,2.6356-6.0563,6.3344,0,4.1147,2.7742,6.3336,6.195,6.3336,1.6643,0,6.3788-1.0836,7.4427-1.5462l6.5606,6.4227h-.0001Z"/><path class="cls-4" d="m158.7591,157.0478c0,2.9589.0934,5.3624.1853,7.2582h-6.103l-.3233-3.1902h-.1386c-.8785,1.3871-3.0055,3.6987-7.0735,3.6987-4.6233,0-7.9521-2.8662-7.9521-9.8478v-13.2686h7.0276v12.1595c0,3.2821,1.0631,5.2705,3.5595,5.2705,1.9424,0,3.0983-1.3411,3.5141-2.4502.1853-.4167.2773-.9245.2773-1.5258v-13.454h7.0269v15.3497h0Z"/><path class="cls-4" d="m169.1874,135.4106c0,1.9416-1.433,3.5141-3.7914,3.5141-2.2196,0-3.6524-1.5725-3.6524-3.5141,0-1.9877,1.4795-3.5134,3.7444-3.5134,2.2664,0,3.6527,1.5258,3.6994,3.5134Zm-7.2592,28.8955v-22.6078h7.0272v22.6078h-7.0272Z"/><path class="cls-4" d="m178.72,135.5959v6.1023h5.0392v5.1786h-5.0392v8.1827c0,2.7275.6947,3.976,2.7743,3.976.9706,0,1.4332-.046,2.0811-.1847l.0452,5.3164c-.877.3232-2.5889.6012-4.5298.6012-2.2649,0-4.1606-.7866-5.3164-1.9416-1.2945-1.3412-1.9424-3.5142-1.9424-6.7044v-9.2458h-3.0048v-5.1786h3.0048v-4.2066l6.8881-1.8957h0Z"/><path class="cls-4" d="m191.0895,141.6982l3.3755,11.1423c.3691,1.2945.8318,3.0048,1.1091,4.2074h.1853c.2773-1.2485.6465-2.9128.9706-4.2533l2.8209-11.0962h7.4895l-5.2712,14.887c-3.2354,9.0152-5.4085,12.5753-7.9521,14.8403-2.4036,2.127-4.9924,2.9128-6.7496,3.0975l-1.525-5.9177c.877-.1847,1.9877-.6005,3.0501-1.2018,1.0639-.5546,2.2664-1.7104,2.9129-2.8202.232-.37.3706-.74.3706-1.0172s-.0467-.6005-.2773-1.1557l-8.3228-20.7121h7.8134l.0002-.0002Z"/><path class="cls-5" d="m219.3224,135.5959v6.1023h5.0391v5.1786h-5.0391v8.1827c0,2.7275.6932,3.976,2.7743,3.976.9705,0,10.5657-.046,11.2138-.1847l.9047,5.2924c-.8785.3232-12.5812-.2583-14.5221-.2583-2.2664,0-4.1607-.7866-5.3165-1.9416-1.2944-1.3412-1.9424-2.6306-1.9424-5.8207v-9.2458h-3.0048v-5.1786h3.0048v-4.2066l6.8882-1.8957h0Z"/><path class="cls-5" d="m231.0127,154.8902c.1853,2.9122,3.0983,4.2993,6.3803,4.2993,2.4036,0,4.346-.324,6.2417-.9712l.9238,4.7619c-2.3117.9713-5.1312,1.4339-8.1826,1.4339-7.6748,0-12.066-4.4386-12.066-11.5122,0-5.7324,3.5595-12.0667,11.4196-12.0667,7.3041,0,10.0783,5.6871,10.0783,11.2808,0,1.2018-.1386,2.2657-.2321,2.7743h-14.563Zm8.2761-4.8085c0-1.7104-.74-4.5765-3.9768-4.5765-2.9581,0-4.1607,2.7274-4.3446,4.5765h8.3214,0Z"/><path class="cls-5" d="m262.7495,163.3501c-1.2478.6012-3.6061,1.0638-6.287,1.0638-7.3056,0-11.9741-4.4846-11.9741-11.5582,0-6.6116,4.5298-12.0207,12.9447-12.0207,1.849,0,3.8833.3239,5.3632.8784l-1.1091,5.2245c-.8332-.3699-2.081-.6939-3.93-.6939-3.6995,0-6.1031,2.6356-6.0564,6.3344,0,4.1147,2.7728,6.3336,6.195,6.3336,1.6637,0,2.9581-.2773,4.022-.7399l.8318,5.1779h0Z"/><polygon class="cls-3" points="161.8638 252.3328 180.4646 256.7952 208.3372 242.1328 189.4412 262.7284 180.4646 271.4582 171.7349 262.4816 161.8638 252.3328"/><text class="cls-12" transform="translate(75.6091 158.9288) rotate(-82.8104) scale(.975 1)"><tspan x="0" y="0">P</tspan></text><text class="cls-12" transform="translate(76.549 151.272) rotate(-78.6075) scale(.975 1)"><tspan x="0" y="0">R</tspan></text><text class="cls-12" transform="translate(78.2541 142.8604) rotate(-74.3436) scale(.975 1)"><tspan x="0" y="0">E</tspan></text><text class="cls-12" transform="translate(80.3088 135.4512) rotate(-70.1069) scale(.975 1)"><tspan x="0" y="0">V</tspan></text><text class="cls-12" transform="translate(83.1828 127.5299) rotate(-65.8557) scale(.975 1)"><tspan x="0" y="0">E</tspan></text><text class="cls-12" transform="translate(86.2956 120.4884) rotate(-61.3512) scale(.975 1)"><tspan x="0" y="0">N</tspan></text><text class="cls-12" transform="translate(90.7805 112.3018) rotate(-56.6623) scale(.975 1)"><tspan x="0" y="0">C</tspan></text><text class="cls-12" transform="translate(95.4831 105.2642) rotate(-53.3665) scale(.975 1)"><tspan x="0" y="0">I</tspan></text><text class="cls-12" transform="translate(97.7546 102.0245) rotate(-49.581) scale(.975 1)"><tspan x="0" y="0">Ó</tspan></text><text class="cls-12" transform="translate(104.3562 94.2852) rotate(-44.3945) scale(.975 1)"><tspan x="0" y="0">N</tspan></text><text class="cls-12" transform="translate(111.1286 87.7735) rotate(-40.9561) scale(.975 1)"><tspan x="0" y="0"> </tspan></text><text class="cls-12" transform="translate(113.6394 85.4586) rotate(-37.3963) scale(.975 1)"><tspan x="0" y="0">D</tspan></text><text class="cls-12" transform="translate(121.3142 79.629) rotate(-32.7019) scale(.975 1)"><tspan x="0" y="0">E</tspan></text><text class="cls-12" transform="translate(127.8605 75.4908) rotate(-29.6401) scale(.975 1)"><tspan x="0" y="0"> </tspan></text><text class="cls-12" transform="translate(130.8049 73.7486) rotate(-26.6177) scale(.975 1)"><tspan x="0" y="0">F</tspan></text><text class="cls-12" transform="translate(137.1906 70.5045) rotate(-22.3358) scale(.975 1)"><tspan x="0" y="0">R</tspan></text><text class="cls-12" transform="translate(145.1125 67.234) rotate(-17.4715) scale(.975 1)"><tspan x="0" y="0">A</tspan></text><text class="cls-12" transform="translate(153.3156 64.6187) rotate(-12.4827) scale(.975 1)"><tspan x="0" y="0">U</tspan></text><text class="cls-12" transform="translate(162.5212 62.565) rotate(-7.1321) scale(.975 1)"><tspan x="0" y="0">D</tspan></text><text class="cls-12" transform="translate(172.0856 61.4005) rotate(-2.3479) scale(.975 1)"><tspan x="0" y="0">E</tspan></text><text class="cls-12" transform="translate(179.822 61.1319) rotate(.916) scale(.975 1)"><tspan x="0" y="0"> </tspan></text><text class="cls-12" transform="translate(183.3137 61.1807) rotate(2.6383) scale(.975 1)"><tspan x="0" y="0"> </tspan></text><text class="cls-12" transform="translate(186.7443 61.3248) rotate(4.8822) scale(.975 1)"><tspan x="0" y="0">•</tspan></text><text class="cls-12" transform="translate(191.4035 61.733) rotate(7.1433) scale(.975 1)"><tspan x="0" y="0"> </tspan></text><text class="cls-12" transform="translate(194.8352 62.1617) rotate(9.0767) scale(.975 1)"><tspan x="0" y="0"> </tspan></text><text class="cls-12" transform="translate(198.2111 62.5948) rotate(12.7254) scale(.975 1)"><tspan x="0" y="0">G</tspan></text><text class="cls-12" transform="translate(207.5441 64.7359) rotate(17.5583) scale(.975 1)"><tspan x="0" y="0">E</tspan></text><text class="cls-12" transform="translate(214.8674 67.0455) rotate(21.8404) scale(.975 1)"><tspan x="0" y="0">S</tspan></text><text class="cls-12" transform="translate(221.7463 69.7784) rotate(26.0527) scale(.975 1)"><tspan x="0" y="0">T</tspan></text><text class="cls-12" transform="translate(228.8498 73.3087) rotate(29.3021) scale(.975 1)"><tspan x="0" y="0">I</tspan></text><text class="cls-12" transform="translate(232.3498 75.1431) rotate(33.205) scale(.975 1)"><tspan x="0" y="0">Ó</tspan></text><text class="cls-12" transform="translate(240.8557 80.7203) rotate(38.4851) scale(.975 1)"><tspan x="0" y="0">N</tspan></text><text class="cls-12" transform="translate(248.1535 86.6329) rotate(41.9357) scale(.975 1)"><tspan x="0" y="0"> </tspan></text><text class="cls-12" transform="translate(250.7521 88.8292) rotate(45.4617) scale(.975 1)"><tspan x="0" y="0">D</tspan></text><text class="cls-12" transform="translate(257.5031 95.7349) rotate(50.0726) scale(.975 1)"><tspan x="0" y="0">E</tspan></text><text class="cls-12" transform="translate(262.4328 101.7081) rotate(53.0392) scale(.975 1)"><tspan x="0" y="0"> </tspan></text><text class="cls-12" transform="translate(264.5471 104.3892) rotate(56.2326) scale(.975 1)"><tspan x="0" y="0">R</tspan></text><text class="cls-12" transform="translate(269.2873 111.5943) rotate(59.564) scale(.975 1)"><tspan x="0" y="0">I</tspan></text><text class="cls-12" transform="translate(271.3469 114.9908) rotate(62.6574) scale(.975 1)"><tspan x="0" y="0">E</tspan></text><text class="cls-12" transform="translate(274.8947 121.8438) rotate(66.7235) scale(.975 1)"><tspan x="0" y="0">S</tspan></text><text class="cls-12" transform="translate(277.966 128.8677) rotate(71.2724) scale(.975 1)"><tspan x="0" y="0">G</tspan></text><text class="cls-12" transform="translate(281.0539 137.8966) rotate(76.4617) scale(.975 1)"><tspan x="0" y="0">O</tspan></text><text class="cls-12" transform="translate(283.3898 147.7764) rotate(81.086) scale(.975 1)"><tspan x="0" y="0">S</tspan></text><text class="cls-2" transform="translate(82.7414 214.564)"><tspan class="cls-11" x="0" y="0">CE</tspan><tspan class="cls-7" x="36.061" y="0">R</tspan><tspan class="cls-6" x="53.6226" y="0">T</tspan><tspan class="cls-9" x="71.251" y="0">I</tspan><tspan class="cls-8" x="79.3955" y="0">F</tspan><tspan class="cls-10" x="95.2817" y="0">ICADO</tspan></text></svg>