<?xml version="1.0" encoding="UTF-8"?><svg id="Layer_1" xmlns="http://www.w3.org/2000/svg" xmlns:xlink="http://www.w3.org/1999/xlink" viewBox="0 0 356.4811 391.2875"><defs><style>.cls-1,.cls-2,.cls-3{fill:#fff;}.cls-4{fill:#293458;}.cls-5{fill:#4c9bd5;}.cls-6{letter-spacing:-.06em;}.cls-7{letter-spacing:-.102em;}.cls-2{font-size:33.3874px;}.cls-2,.cls-8{font-family:MonsalGothic-Bold, 'Monsal Gothic';font-weight:700;}.cls-9{letter-spacing:-.073em;}.cls-10{letter-spacing:-.05em;}.cls-8{fill:#274666;font-size:12.6872px;}.cls-11{fill:url(#radial-gradient);}.cls-3{fill-rule:evenodd;}</style><radialGradient id="radial-gradient" cx="177.6313" cy="17010.6105" fx="177.6313" fy="17010.6105" r="148.1681" gradientTransform="translate(0 -1492.8062) scale(1 .1097)" gradientUnits="userSpaceOnUse"><stop offset="0" stop-color="#a7a9ac"/><stop offset=".1925" stop-color="#bfc0c2"/><stop offset=".5156" stop-color="#e1e2e3"/><stop offset=".7812" stop-color="#f7f7f7"/><stop offset=".9544" stop-color="#fff"/></radialGradient></defs><g id="Layer_1-2"><ellipse class="cls-11" cx="177.6313" cy="373.2579" rx="150.3211" ry="18.0297"/></g><path class="cls-5" d="m326.1813,121.2822l-.5675-8.7215-3.1031-47.8964-52.7376-20.9601-5.1276-6.1858L233.5633,0l-54.987,14.0892L123.5892,0l-31.0823,37.5185-5.1276,6.1858-30.3819,12.0699-22.3558,8.885-3.6706,56.6229L.671,169.2451l30.3001,47.9628,3.6706,56.6178,52.7376,20.9601,36.2098,43.7044,54.987-14.0892,54.987,14.0892,36.2098-43.7044,52.7376-20.955,3.6706-56.6229,30.3001-47.9628-30.3001-47.9628h.0003Zm-4.3965,94.4942l-.8282,12.7447-2.7351,42.1911-39.3334,15.6281-11.8348,4.7032-8.1488,9.8359-26.9772,32.5649-40.9795-10.5005-11.8143-3.0265-.5572-.1431-12.3716,3.1696-40.9744,10.5005-26.9721-32.5597-7.7911-9.4014-.368-.4397-11.8347-4.7032-39.3334-15.6281-2.73-42.1809-.8282-12.755-6.8197-10.797-22.5807-35.7344,22.5807-35.7344,6.8197-10.797.8282-12.755,2.73-42.1809,18.0665-7.1776,21.2668-8.4505,11.8347-4.7032,8.1488-9.8359.0766-.092L125.2302,5.0457l40.9744,10.5005,12.3716,3.1696,12.3716-3.1696,40.9795-10.5005,26.9005,32.4728.0766.092,8.1488,9.8359,11.8348,4.7032,39.3334,15.6281,2.7351,42.1912.1687,2.5919.6595,10.1529,6.8146,10.7868,22.5807,35.7446-22.5807,35.7446-6.8146,10.7868h0Z"/><path class="cls-5" d="m327.5613,130.8751h-27.1522c-16.426-51.3219-64.5246-88.483-121.3007-88.483s-104.8745,37.1611-121.3006,88.483h-27.1523C47.8629,64.9601,107.8081,16.316,179.1084,16.316s131.2456,48.6441,148.4528,114.5592h0Z"/><path class="cls-4" d="m33.3384,217.7025h291.5401c-20.1406,61.2423-77.796,105.4544-145.77,105.4544s-125.6294-44.212-145.77-105.4544h0Z"/><polygon class="cls-4" points="337.2999 174.2913 352.5073 208.5975 0 208.5975 15.2074 174.2913 17.2269 169.7365 4.034 139.98 0 130.8751 352.5073 130.8751 348.4733 139.98 335.2805 169.7365 337.2999 174.2913"/><path d="m327.5613,208.5975c-.8009,3.071-1.6952,6.1076-2.6828,9.105H33.3384c-.9876-2.9974-1.882-6.034-2.6828-9.105h296.9057Z"/><path class="cls-1" d="m313.28,170.2134c0,14.2751-2.2308,28.0325-6.3662,40.9358-.3416,1.0663-.6936,2.1221-1.0611,3.1781-.3882,1.1128-.7867,2.2152-1.2061,3.3178-19.1559,50.6718-68.1248,86.7112-125.5097,86.7112s-106.3538-36.0395-125.5097-86.7112c-.4193-1.1025-.8178-2.2051-1.2061-3.3178-.3674-1.0559-.7194-2.1118-1.061-3.1781-4.1356-12.9034-6.3662-26.6607-6.3662-40.9358s2.2308-28.0327,6.3662-40.936c17.3029-54.0619,67.9695-93.2069,127.7767-93.2069s110.4737,39.1451,127.7767,93.2069c4.1355,12.9034,6.3662,26.661,6.3662,40.936h.0001Z"/><path class="cls-4" d="m296.0949,181.367c-4.4613,60.6981-55.1205,108.557-116.9577,108.557s-112.5094-47.8712-116.9595-108.5804"/><path class="cls-5" d="m189.3722,93.7482h-23.9956c-3.6364,0-6.5837,2.3435-6.5837,5.2325v19.0639c0,2.8889,2.9473,5.232,6.5837,5.232h23.9956c3.6364,0,6.5837-2.3431,6.5837-5.232v-19.0639c0-2.8889-2.9473-5.2325-6.5837-5.2325Zm-8.3738,23.6285h-7.2464l2.3306-11.1846c-1.5694-.4545-2.7034-1.6954-2.7034-3.1739,0-1.8606,1.7882-3.3696,3.9969-3.3696,2.2052,0,3.9934,1.509,3.9934,3.3696,0,1.5076-1.1799,2.7675-2.7963,3.1983l2.4252,11.1601h0Z"/><path class="cls-5" d="m194.4293,91.6323c0-9.4189-7.6351-17.054-17.0549-17.054s-17.0548,7.635-17.0548,17.054h5.338c0-6.4707,5.2462-11.7159,11.7167-11.7159s11.7168,5.2453,11.7168,11.7159h5.3381Z"/><path class="cls-4" d="m117.7723,158.2491c0,2.1183.0923,4.1907.3685,5.4344h-6.3096l-.4144-2.2572h-.1381c-1.4743,1.7963-3.7771,2.7637-6.4485,2.7637-4.56,0-7.2772-3.3163-7.2772-6.9086,0-5.8495,5.2512-8.6126,13.2183-8.6126v-.2763c0-1.2437-.644-2.9477-4.0983-2.9477-2.3029,0-4.7439.7829-6.218,1.7039l-1.2896-4.5135c1.5657-.8752,4.6523-2.0267,8.7507-2.0267,7.5075,0,9.8563,4.4212,9.8563,9.764v7.8764Zm-6.7698-5.2047c-3.6855,0-6.5408.8752-6.5408,3.5466,0,1.7963,1.1979,2.6707,2.7638,2.6707,1.7039,0,3.178-1.1507,3.6389-2.5791.0916-.3678.1381-.7829.1381-1.1972v-2.4409h0Z"/><path class="cls-5" d="m144.6508,163.5214c-1.2437.599-12.7066.623-15.3779.623-7.2772,0-11.9287-4.4676-11.9287-11.5143,0-6.5867,4.5135-11.9753,12.8955-11.9753,1.8427,0,3.8687.3228,5.3429.8751l-1.1049,5.2047c-.8295-.3685-2.0732-.6913-3.9152-.6913-3.6847,0-6.0799,2.6256-6.0334,6.3104,0,4.0991,2.7637,6.3096,6.1715,6.3096,1.658,0,6.3547-1.0795,7.4145-1.5403l6.5358,6.3983h-.0001Z"/><path class="cls-4" d="m158.1577,156.4528c0,2.9477.0931,5.3421.1846,7.2307h-6.0799l-.3221-3.1781h-.1381c-.8752,1.3819-2.9942,3.6847-7.0467,3.6847-4.6058,0-7.922-2.8553-7.922-9.8105v-13.2183h7.001v12.1134c0,3.2696,1.0591,5.2505,3.546,5.2505,1.9351,0,3.0866-1.336,3.5008-2.4409.1846-.4151.2763-.921.2763-1.52v-13.403h7.0003v15.2915h0Z"/><path class="cls-4" d="m168.5464,134.8976c0,1.9343-1.4276,3.5008-3.7771,3.5008-2.2112,0-3.6386-1.5665-3.6386-3.5008,0-1.9801,1.4739-3.5001,3.7302-3.5001,2.2578,0,3.6389,1.52,3.6854,3.5001Zm-7.2317,28.786v-22.5221h7.0006v22.5221h-7.0006Z"/><path class="cls-4" d="m178.0429,135.0822v6.0792h5.0201v5.159h-5.0201v8.1517c0,2.7172.692,3.961,2.7637,3.961.9669,0,1.4277-.0458,2.0732-.184l.045,5.2963c-.8737.322-2.5791.599-4.5127.599-2.2563,0-4.1448-.7836-5.2963-1.9343-1.2896-1.3361-1.9351-3.5009-1.9351-6.679v-9.2108h-2.9935v-5.159h2.9935v-4.1907l6.862-1.8885h0Z"/><path class="cls-4" d="m190.3656,141.1614l3.3627,11.1001c.3677,1.2896.8287,2.9935,1.1049,4.1915h.1846c.2763-1.2437.6441-2.9018.9669-4.2372l2.8102-11.0542h7.4611l-5.2512,14.8306c-3.2232,8.9811-5.388,12.5277-7.922,14.784-2.3945,2.119-4.9735,2.9018-6.724,3.0857l-1.5192-5.8952c.8737-.184,1.9801-.5983,3.0385-1.1972,1.0599-.5525,2.2578-1.7039,2.9019-2.8095.2311-.3686.3692-.7372.3692-1.0133s-.0465-.5983-.2763-1.1514l-8.2912-20.6336h7.7838l.0002-.0002Z"/><path class="cls-5" d="m218.4915,135.0822v6.0792h5.02v5.159h-5.02v8.1517c0,2.7172.6905,3.961,2.7637,3.961.9668,0,10.5257-.0458,11.1713-.184l.9013,5.2724c-.8752.322-12.5335-.2573-14.467-.2573-2.2578,0-4.1449-.7836-5.2964-1.9343-1.2895-1.3361-1.9351-2.6206-1.9351-5.7987v-9.2108h-2.9934v-5.159h2.9934v-4.1907l6.8621-1.8885h0Z"/><path class="cls-5" d="m230.1375,154.3033c.1846,2.9012,3.0866,4.283,6.3562,4.283,2.3945,0,4.3295-.3228,6.218-.9675l.9203,4.7439c-2.3029.9676-5.1117,1.4284-8.1516,1.4284-7.6458,0-12.0203-4.4218-12.0203-11.4686,0-5.7107,3.546-12.021,11.3763-12.021,7.2764,0,10.0402,5.6655,10.0402,11.2381,0,1.1972-.1381,2.2571-.2312,2.7637h-14.5078Zm8.2447-4.7903c0-1.704-.7372-4.5592-3.9618-4.5592-2.9469,0-4.1449,2.7171-4.3281,4.5592h8.2899,0Z"/><path class="cls-5" d="m261.7541,162.7312c-1.2431.599-3.5924,1.0598-6.2632,1.0598-7.2779,0-11.9287-4.4676-11.9287-11.5144,0-6.5866,4.5127-11.9752,12.8956-11.9752,1.842,0,3.8686.3227,5.3428.8751l-1.1049,5.2047c-.83-.3685-2.0731-.6912-3.9151-.6912-3.6855,0-6.08,2.6256-6.0335,6.3104,0,4.0991,2.7623,6.3096,6.1715,6.3096,1.6574,0,2.9469-.2763,4.0068-.7371l.8287,5.1583h0Z"/><polygon class="cls-3" points="161.2506 251.3769 179.7809 255.8224 207.5479 241.2155 188.7235 261.7331 179.7809 270.4297 171.0843 261.4872 161.2506 251.3769"/><text class="cls-8" transform="translate(75.3398 158.3211) rotate(-83.0439) scale(.975 1)"><tspan x="0" y="0">P</tspan></text><text class="cls-8" transform="translate(76.1489 151.5237) rotate(-79.3031) scale(.975 1)"><tspan x="0" y="0">R</tspan></text><text class="cls-8" transform="translate(77.5718 144.0398) rotate(-75.5064) scale(.975 1)"><tspan x="0" y="0">E</tspan></text><text class="cls-8" transform="translate(79.268 137.4207) rotate(-71.7321) scale(.975 1)"><tspan x="0" y="0">V</tspan></text><text class="cls-8" transform="translate(81.6108 130.3406) rotate(-67.9574) scale(.975 1)"><tspan x="0" y="0">E</tspan></text><text class="cls-8" transform="translate(84.1421 124.009) rotate(-63.9561) scale(.975 1)"><tspan x="0" y="0">N</tspan></text><text class="cls-8" transform="translate(87.7905 116.5657) rotate(-59.7795) scale(.975 1)"><tspan x="0" y="0">Ç</tspan></text><text class="cls-8" transform="translate(91.5263 110.1277) rotate(-55.7208) scale(.975 1)"><tspan x="0" y="0">Ã</tspan></text><text class="cls-8" transform="translate(95.7451 103.867) rotate(-51.3716) scale(.975 1)"><tspan x="0" y="0">O</tspan></text><text class="cls-8" transform="translate(101.5024 96.7957) rotate(-48.1279) scale(.975 1)"><tspan x="0" y="0"> </tspan></text><text class="cls-8" transform="translate(103.4497 94.5032) rotate(-45.011) scale(.975 1)"><tspan x="0" y="0">D</tspan></text><text class="cls-8" transform="translate(109.5278 88.4592) rotate(-40.874) scale(.975 1)"><tspan x="0" y="0">E</tspan></text><text class="cls-8" transform="translate(114.7368 84.0076) rotate(-38.1955) scale(.975 1)"><tspan x="0" y="0"> </tspan></text><text class="cls-8" transform="translate(117.1045 82.0881) rotate(-35.5456) scale(.975 1)"><tspan x="0" y="0">F</tspan></text><text class="cls-8" transform="translate(122.2524 78.3733) rotate(-31.7999) scale(.975 1)"><tspan x="0" y="0">R</tspan></text><text class="cls-8" transform="translate(128.7109 74.3567) rotate(-27.5322) scale(.975 1)"><tspan x="0" y="0">A</tspan></text><text class="cls-8" transform="translate(135.4839 70.7996) rotate(-23.1316) scale(.975 1)"><tspan x="0" y="0">U</tspan></text><text class="cls-8" transform="translate(143.1455 67.5134) rotate(-18.3965) scale(.975 1)"><tspan x="0" y="0">D</tspan></text><text class="cls-8" transform="translate(151.2715 64.8386) rotate(-14.0895) scale(.975 1)"><tspan x="0" y="0">E</tspan></text><text class="cls-8" transform="translate(157.9199 63.2151) rotate(-11.3126) scale(.975 1)"><tspan x="0" y="0"> </tspan></text><text class="cls-8" transform="translate(160.9306 62.6116) rotate(-9.5865) scale(.975 1)"><tspan x="0" y="0"> </tspan></text><text class="cls-8" transform="translate(163.9414 62.0925) rotate(-7.566) scale(.975 1)"><tspan x="0" y="0">•</tspan></text><text class="cls-8" transform="translate(168.0703 61.553) rotate(-5.5399) scale(.975 1)"><tspan x="0" y="0"> </tspan></text><text class="cls-8" transform="translate(171.1181 61.2566) rotate(-3.8331) scale(.975 1)"><tspan x="0" y="0"> </tspan></text><text class="cls-8" transform="translate(174.1494 60.9954) rotate(-.916) scale(.975 1)"><tspan x="0" y="0">G</tspan></text><text class="cls-8" transform="translate(182.5996 60.905) rotate(3.5767) scale(.975 1)"><tspan x="0" y="0">E</tspan></text><text class="cls-8" transform="translate(189.4189 61.3128) rotate(7.6108) scale(.975 1)"><tspan x="0" y="0">R</tspan></text><text class="cls-8" transform="translate(196.9658 62.3303) rotate(11.6665) scale(.975 1)"><tspan x="0" y="0">E</tspan></text><text class="cls-8" transform="translate(203.6377 63.6741) rotate(15.9095) scale(.975 1)"><tspan x="0" y="0">N</tspan></text><text class="cls-8" transform="translate(211.5801 65.9485) rotate(20.3172) scale(.975 1)"><tspan x="0" y="0">C</tspan></text><text class="cls-8" transform="translate(218.5732 68.5911) rotate(23.3889) scale(.975 1)"><tspan x="0" y="0">I</tspan></text><text class="cls-8" transform="translate(221.8467 69.9392) rotate(26.5756) scale(.975 1)"><tspan x="0" y="0">A</tspan></text><text class="cls-8" transform="translate(228.8545 73.3826) rotate(31.5054) scale(.975 1)"><tspan x="0" y="0">M</tspan></text><text class="cls-8" transform="translate(237.4101 78.697) rotate(36.1289) scale(.975 1)"><tspan x="0" y="0">E</tspan></text><text class="cls-8" transform="translate(242.9394 82.6946) rotate(40.2333) scale(.975 1)"><tspan x="0" y="0">N</tspan></text><text class="cls-8" transform="translate(249.1513 87.9661) rotate(44.3125) scale(.975 1)"><tspan x="0" y="0">T</tspan></text><text class="cls-8" transform="translate(253.8896 92.51) rotate(48.3633) scale(.975 1)"><tspan x="0" y="0">O</tspan></text><text class="cls-8" transform="translate(259.8867 99.3816) rotate(51.6074) scale(.975 1)"><tspan x="0" y="0"> </tspan></text><text class="cls-8" transform="translate(261.832 101.7088) rotate(54.7179) scale(.975 1)"><tspan x="0" y="0">D</tspan></text><text class="cls-8" transform="translate(266.749 108.7005) rotate(58.7841) scale(.975 1)"><tspan x="0" y="0">E</tspan></text><text class="cls-8" transform="translate(270.2597 114.5745) rotate(61.4029) scale(.975 1)"><tspan x="0" y="0"> </tspan></text><text class="cls-8" transform="translate(271.7734 117.2273) rotate(64.2456) scale(.975 1)"><tspan x="0" y="0">R</tspan></text><text class="cls-8" transform="translate(275.0459 124.1282) rotate(67.2019) scale(.975 1)"><tspan x="0" y="0">I</tspan></text><text class="cls-8" transform="translate(276.4502 127.3616) rotate(69.9409) scale(.975 1)"><tspan x="0" y="0">S</tspan></text><text class="cls-8" transform="translate(278.8017 133.7551) rotate(73.716) scale(.975 1)"><tspan x="0" y="0">C</tspan></text><text class="cls-8" transform="translate(280.8623 140.6506) rotate(77.9327) scale(.975 1)"><tspan x="0" y="0">O</tspan></text><text class="cls-8" transform="translate(282.709 149.448) rotate(82.0372) scale(.975 1)"><tspan x="0" y="0">S</tspan></text><text class="cls-2" transform="translate(82.4282 213.7517)"><tspan class="cls-10" x="0" y="0">CE</tspan><tspan class="cls-7" x="35.9248" y="0">R</tspan><tspan class="cls-6" x="53.4199" y="0">T</tspan><tspan class="cls-10" x="70.9824" y="0">I</tspan><tspan class="cls-9" x="79.0957" y="0">F</tspan><tspan class="cls-10" x="94.9219" y="0">ICADO</tspan></text></svg>