<?xml version="1.0" encoding="UTF-8"?><svg id="Layer_1" xmlns="http://www.w3.org/2000/svg" xmlns:xlink="http://www.w3.org/1999/xlink" viewBox="0 0 236.1585 201.8074"><defs><style>.cls-1{fill:none;}.cls-2{clip-path:url(#clippath);}.cls-3{fill:#4a9cd6;}.cls-4{fill:#4f9ed6;}.cls-5{clip-path:url(#clippath-1);}</style><clipPath id="clippath"><rect class="cls-1" y=".0059" width="236.1585" height="201.8015"/></clipPath><clipPath id="clippath-1"><path class="cls-1" d="m73.8268,0l-5.1836,50.7393c46.0688,0,83.4097,37.3468,83.4097,83.4215,0,16.978-5.0716,32.7706-13.7876,45.9508l97.3153-2.2114v-54.1715l-1.321-123.7288H73.8268Z"/></clipPath></defs><g class="cls-2"><path class="cls-3" d="m29.1769,138.2948l-12.5374,2.2881c-.6841-4.5349-.7902-9.1878-.2595-13.8584l.0236-.1769.0236-.2182.0236-.1887.0236-.2064.0295-.2005c.7666-5.8441,2.5122-11.6233,5.2957-17.0841l.0177-.0354.171-.3361.0236-.0354c2.8483-5.5198,6.5813-10.3672,10.957-14.4304l.1769-.1651.0885-.0826.0885-.0826.1769-.1592.0295-.0236c.8197-.743,1.6571-1.4566,2.5122-2.1407l-2.1407-2.5181-8.2443-9.7068c4.2814-3.4616,8.9519-6.3866,13.8938-8.7278,13.1802-6.2392,28.3183-8.3386,43.303-5.2898l.0177.0059.4895.1003.0472.0118.0413.0059c8.0968,1.7043,15.6334,4.8121,22.368,9.0286l.2182.1356.0177.0118.6664.4305c7.743,5.0008,14.2594,11.4169,19.3251,18.7707l.1415.2123.1474.2123.1003.1474.0413.0649.1415.2123.1474.2182.1179.1769.0236.0354.1415.2182.1356.2123.1356.2123.0059.0059c1.2974,2.0168,2.4945,4.1044,3.5737,6.251l-.0059.0059c.2477.4895.4836.9848.7195,1.4802l-11.5054,5.449c-.9259-1.9638-1.9697-3.8744-3.1255-5.7203l-.0236-.0413-.2182-.3479-.1061-.1651-.0059-.0118-.1121-.171-.112-.171-.1121-.171-.0118-.0236-.1003-.1474-.1121-.171-.112-.171-.0413-.0531-.0767-.1179-.1121-.1651-.1179-.171-.1179-.1651-.1179-.171-.112-.1651c-.9848-1.3976-2.0345-2.754-3.1373-4.0455-3.3732-3.9806-7.3066-7.4894-11.6764-10.4085l-.4305-.289-.1179-.0767-.4541-.289c-3.037-1.9343-6.3041-3.5973-9.7834-4.9536l.0059-.0118c-1.0261-.401-2.064-.7725-3.1196-1.1146v.0118c-1.5745-.5131-3.155-.9494-4.7354-1.3151l-.0177-.0059-.4128-.0944-.2477-.0531-.2241-.0472-.23-.0472c-1.7397-.3656-3.5088-.6487-5.3134-.8433v-.0118c-8.9932-1.0084-17.9392.2005-26.1304,3.2965l1.1676,3.096,4.4937,11.9123c-1.0261.3892-2.0345.8138-3.0253,1.2856-2.6773,1.2679-5.2249,2.8365-7.572,4.6706l-.0059-.0059c-.861.6723-1.6984,1.3858-2.5122,2.1348v.0059l-.059.0472-.1356.1297-.0236.0236-.2182.2005-.0354.0354-.1356.1297-.0413.0413-.0944.0885-.1179.1179-.0177.0177-.1356.1297-.059.059-.0708.0767-.1356.1356h-.0059l-.1297.1356c-1.5922,1.6276-3.0724,3.4086-4.417,5.3487-.8256,1.203-1.5863,2.4296-2.2645,3.6857l-.0295.0531-.1179.2182-.0295.0531-.112.2182-.0295.0531-.1179.2182-.0236.059-.112.2182-.0295.0531-.112.2241-.0236.0531-.112.2241c-.631,1.3033-1.1971,2.6537-1.6925,4.0455-.7784,2.182-1.3622,4.3875-1.7515,6.5989v.0118l-.0472.2831-.0059.0236-.0472.2713v.0295l-.0413.2595-.0059.0413-.0413.2536-.0059.0472-.0354.2477-.0059.059-.0295.2359-.0118.0649-.0295.2241c-.4423,3.5501-.3951,7.0943.0944,10.5383"/><path class="cls-3" d="m93.6054,164.7731l8.1322,9.8129c-3.615,2.8189-7.6251,5.1836-11.9595,7.0059l-.1651.0708-.2005.0826-.1769.0767-.1887.0767-.1887.0767c-5.4726,2.1879-11.3639,3.4911-17.491,3.7447h-.0413l-.3715.0118h-.0472c-6.2097.2182-12.2661-.6664-17.951-2.4886l-.23-.0767-.112-.0354-.112-.0354-.23-.0767-.0354-.0118c-1.0497-.3538-2.0817-.7313-3.096-1.1441l-1.15,3.096-4.4288,11.9418c-5.1129-2.0345-9.9485-4.6765-14.4127-7.8433-11.8887-8.433-21.1296-20.6106-25.8061-35.1708l-.0059-.0177-.1533-.4777-.0118-.0413-.0118-.0413c-2.4827-7.9022-3.4616-15.9873-3.0783-23.9249l.0118-.2654v-.0177l.0472-.7902c.572-9.1937,2.9781-18.0218,6.9115-26.0419l.1179-.2241.112-.2359.0767-.1592.0354-.0708.1179-.2241.1179-.23.0944-.1946.0236-.0354.1179-.23.1179-.2241.1179-.2241v-.0059c1.1264-2.1171,2.3648-4.187,3.7093-6.1802l.0059.0059c.3067-.4541.6192-.9082.9377-1.3563l10.3849,7.3656c-1.2561,1.775-2.4119,3.6209-3.4616,5.5316l-.0236.0413-.1946.3597-.0944.171-.0059.0118-.0944.1769-.0944.1828-.0944.1828-.0177.0236-.0767.1592-.0944.1828-.0885.1828-.0354.059-.059.1239-.0944.1828-.0885.1828-.0885.1828-.0885.1887-.0944.1828c-.7313,1.5392-1.4035,3.1196-1.9873,4.7119-1.8163,4.8888-2.9545,10.037-3.3614,15.2796l-.0413.5189-.0118.1356-.0295.5366c-.1946,3.5973-.0472,7.2653.4718,10.957l-.0177.0059c.1533,1.0851.342,2.1761.5602,3.2611l.0118-.0059c.3243,1.6217.7136,3.214,1.1676,4.7767l.0059.0177.1179.401.0767.2418.0708.2241.0649.2241c.5366,1.6925,1.1617,3.3732,1.8694,5.0421l-.0118.0059c3.5265,8.3386,8.9578,15.545,15.6688,21.1768l2.1289-2.5358,8.1853-9.7539c.8433.7077,1.7102,1.3799,2.6066,2.0109,2.4178,1.7161,5.0303,3.1668,7.7784,4.3226l-.0059.0059c1.0143.4187,2.0404.802,3.096,1.1441l.0708.0236.1828.059.0295.0059.2831.0885.0472.0118.1828.059.0531.0177.1297.0354.1533.0472.0236.0059.1828.0531.0826.0236.1002.0295.1828.0531h.0059l.1769.0472c2.1996.5897,4.476,1.0143,6.8289,1.2325,1.4507.1356,2.8955.1946,4.3226.1769l.059-.0059h.2477l.0649-.0059.2418-.0059h.0649l.2477-.0059.059-.0059.2477-.0118h.0649l.2418-.0118.0649-.0059.2418-.0118c1.4448-.0885,2.9014-.2595,4.358-.5072,2.2881-.3833,4.4937-.9553,6.6166-1.6984l.0118-.0059.2654-.0944.0236-.0118.2595-.0944.0295-.0059.2477-.0944.0354-.0177.2418-.0885.0472-.0177.23-.0885.0531-.0236.2182-.0885.0649-.0236.2123-.0885c3.3083-1.3505,6.3748-3.1255,9.1406-5.2367"/><path class="cls-3" d="m83.0995,94.809l3.9157-12.1305c4.3167,1.5451,8.4683,3.6563,12.331,6.3336l.1474.1003.1769.1238.1592.1121.1651.1179.1651.1238c4.7826,3.4381,9.0522,7.7135,12.5492,12.7438l.0236.0354.2064.3067.0295.0354c3.5088,5.1247,6.0151,10.7093,7.5248,16.4885l.0649.23.0295.1179.0295.112.0531.2359.0118.0354c.2654,1.0792.5013,2.1525.6959,3.2317l3.2317-.6959,12.4548-2.6714c1.0202,5.4077,1.3858,10.9039,1.1087,16.3706-.7371,14.5601-6.0505,28.8903-15.828,40.6493l-.0118.0118-.3185.3833-.0354.0354-.0236.0354c-5.3369,6.3277-11.6351,11.4995-18.5348,15.4329l-.23.1297-.0177.0118-.69.3833c-8.0673,4.4524-16.807,7.1533-25.6822,8.1381l-.2595.0236-.2536.0295-.1769.0177-.0767.0118-.2595.0236-.2536.0236-.2123.0177-.0413.0059-.2595.0236-.2536.0177-.2536.0236c-2.3943.1828-4.8062.2536-7.2064.1887v-.0059c-.5484-.0177-1.0969-.0413-1.6453-.0649l.6428-12.7143c2.1702.1061,4.3462.0944,6.5223-.0472h.0472l.4069-.0295.2005-.0177h.0059l.2064-.0177.2005-.0177.2064-.0118.0295-.0059.1769-.0177.2005-.0177.2064-.0177.0649-.0059.1356-.0177.2064-.0177.2005-.0236.2064-.0236.2005-.0236.2064-.0236c1.6984-.2064,3.385-.4895,5.0421-.8492,5.107-1.091,10.0606-2.8896,14.7017-5.3605l.4541-.2418.1239-.0708.4659-.2595c3.1432-1.7633,6.1567-3.8568,8.9991-6.2746l.0059.0059c.8374-.7077,1.6571-1.4507,2.4532-2.2173l-.0059-.0059c1.1971-1.1441,2.3235-2.3294,3.3968-3.5501l.0177-.0177.2713-.3126.1651-.1946.1533-.1769.1474-.1769c1.1441-1.3622,2.2291-2.7894,3.2552-4.2814l.0118.0059c5.1423-7.4481,8.315-15.8988,9.4591-24.5853l-3.2788-.4364-12.62-1.6748c.1415-1.0851.2418-2.182.2949-3.2729.1533-2.9663-.0236-5.9444-.5249-8.8812l.0059-.0059c-.1828-1.0792-.4187-2.1466-.6959-3.2199l-.0177-.0767-.0472-.1828-.0118-.0295-.0767-.289-.0118-.0472-.0472-.1828-.0177-.0531-.0354-.1297-.0472-.1533-.0059-.0236-.0531-.1828-.0236-.0826-.0295-.1003-.059-.1828-.0531-.1828c-.6841-2.1702-1.551-4.3167-2.6242-6.422-.6664-1.2974-1.3917-2.5417-2.1702-3.7388l-.0354-.0472-.1356-.2123-.0354-.0472-.1356-.2064-.0354-.0531-.1415-.2005-.0354-.0531-.1415-.2005-.0354-.0531-.1415-.2005-.0354-.0472-.1415-.2005c-.8492-1.1735-1.7751-2.3117-2.7658-3.4086-1.551-1.722-3.2199-3.2788-4.9831-4.6647l-.0118-.0118-.2241-.171-.0177-.0118-.2182-.171-.0236-.0177-.2123-.1592-.0354-.0236-.2064-.1533-.0354-.0295-.2005-.1474-.0472-.0354-.1946-.1415-.0531-.0354-.1887-.1356c-2.9132-2.064-6.0564-3.6975-9.3234-4.9006"/><path class="cls-3" d="m77.6458,131.5054c3.9747,0,7.2181-3.2435,7.2181-7.224,0-3.9747-3.2434-7.224-7.2181-7.224-3.9806,0-7.224,3.2493-7.224,7.224,0,3.9806,3.2435,7.224,7.224,7.224m-33.2601,1.2148c0-13.6697,11.1516-24.8153,24.8153-24.8153s24.8212,11.1457,24.8212,24.8153-11.1516,24.8153-24.8212,24.8153-24.8153-11.1457-24.8153-24.8153"/></g><g class="cls-5"><path class="cls-4" d="m216.2868,16.8371h-115.7853c-1.834,0-3.326,1.492-3.326,3.326v142.93c0,1.8399,1.492,3.326,3.326,3.326h115.7853c1.834,0,3.326-1.4861,3.326-3.326V20.1631c0-1.834-1.492-3.326-3.326-3.326m0-6.0918c5.1954,0,9.4178,4.2224,9.4178,9.4178v142.93c0,5.1954-4.2224,9.4178-9.4178,9.4178h-115.7853c-5.1954,0-9.4178-4.2224-9.4178-9.4178V20.1631c0-5.1954,4.2224-9.4178,9.4178-9.4178h115.7853Z"/><path class="cls-4" d="m155.9038,82.1147h-47.5608c-.8964,0-1.6276-.7312-1.6276-1.6276v-47.5608c0-.9023.7312-1.6276,1.6276-1.6276.9023,0,1.6335.7253,1.6335,1.6276v45.9272h45.9272c.9023,0,1.6276.7313,1.6276,1.6335,0,.8964-.7253,1.6276-1.6276,1.6276"/><path class="cls-4" d="m152.0606,67.5776c-.0059,1.3976.0708,2.7953-.059,4.1752-.0472.4659-.5543,1.1441-.9848,1.2738-11.6705,3.4557-23.3469,3.385-35.0175-.0531-.8492-.2477-1.0733-.6664-1.0615-1.4802.0531-2.465.0885-4.9359.0354-7.401-.1003-4.5526,3.7093-7.6486,8.0143-7.6192,2.2881.0177,4.6116.743,6.8525,1.3917,3.1314.9023,6.0623.5543,9.0817-.5602,4.358-1.6158,9.636-1.1382,12.1423,3.1137.5661.9671.8256,2.1761.973,3.3024.1592,1.2679.0295,2.5712.0236,3.8568"/><path class="cls-4" d="m123.7995,46.5388c.0413-5.8972,3.957-10.5206,8.9755-10.898,6.139-.4659,11.2931,5.0952,10.5854,11.5231-.4718,4.3521-2.4237,7.7312-6.7759,9.2763-5.7556,2.0404-11.9477-2.1702-12.7025-8.604-.059-.5307-.0708-1.0674-.0826-1.2974"/><path class="cls-4" d="m184.0599,132.6712l-11.3639,23.7421c-8.8458-4.246-14.9494-13.2805-14.9494-23.7421h26.3132Z"/><path class="cls-4" d="m187.9379,105.2482c14.5365,0,26.3132,11.7826,26.3132,26.3132s-11.7767,26.3191-26.3132,26.3191c-4.0691,0-7.9258-.9259-11.3639-2.5771l11.3639-23.7421v-26.3132Z"/><path class="cls-4" d="m183.5043,127.1308h-22.9341c.8197-12.272,10.6621-22.1144,22.9341-22.9341v22.9341Zm-24.6502,1.663h26.3132v-26.3132c-14.5307,0-26.3132,11.7826-26.3132,26.3132"/><path class="cls-4" d="m208.5308,36.7831h-38.4319c-2.1407,0-3.8804-1.7338-3.8804-3.8803,0-2.1407,1.7397-3.8744,3.8804-3.8744h38.4319c2.1407,0,3.8803,1.7338,3.8803,3.8744,0,2.1466-1.7397,3.8803-3.8803,3.8803"/><path class="cls-4" d="m208.5308,60.5829h-38.4319c-2.1407,0-3.8804-1.7338-3.8804-3.8803,0-2.1407,1.7397-3.8744,3.8804-3.8744h38.4319c2.1407,0,3.8803,1.7338,3.8803,3.8744,0,2.1466-1.7397,3.8803-3.8803,3.8803"/><path class="cls-4" d="m209.1258,84.3834h-39.6232c-1.8104,0-3.2847-1.4684-3.2847-3.2847v-1.1912c0-1.8104,1.4743-3.2788,3.2847-3.2788h39.6232c1.8104,0,3.2847,1.4684,3.2847,3.2788v1.1912c0,1.8163-1.4743,3.2847-3.2847,3.2847"/><path class="cls-4" d="m148.1773,110.2555h-38.4319c-2.1407,0-3.8804-1.7338-3.8804-3.8744,0-2.1466,1.7397-3.8803,3.8804-3.8803h38.4319c2.1407,0,3.8803,1.7338,3.8803,3.8803,0,2.1407-1.7397,3.8744-3.8803,3.8744"/></g></svg>