<?xml version="1.0" encoding="UTF-8"?><svg id="Layer_1" xmlns="http://www.w3.org/2000/svg" xmlns:xlink="http://www.w3.org/1999/xlink" viewBox="0 0 250.45 231.8088"><defs><style>.cls-1,.cls-2,.cls-3,.cls-4,.cls-5{fill:none;}.cls-6{clip-path:url(#clippath);}.cls-7{fill:#fff;}.cls-8{fill:#4a9cd6;}.cls-2{stroke-width:2px;}.cls-2,.cls-3,.cls-4,.cls-5{stroke:#fff;}.cls-3{stroke-width:10px;}.cls-4{stroke-width:11px;}.cls-5{stroke-width:3px;}</style><clipPath id="clippath"><rect class="cls-1" width="250.45" height="231.8088"/></clipPath></defs><g class="cls-6"><path class="cls-8" d="m27.5623,126.4111c-1.9668-.1264-5.7334-.2073-9.4596-.6573-5.0256-.6118-10.0259-1.5067-14.6217-3.8172-.9353-.4702-1.8302-1.082-2.5987-1.7847-1.1679-1.0617-1.1831-2.1134.0253-3.1347.9859-.8342,2.1235-1.5572,3.2965-2.0931,4.4694-2.0578,9.2574-2.9425,14.101-3.4835,9.3079-1.0365,18.6058-.9202,27.7621,1.2084,3.0184.7028,6.0165,1.7645,8.7922,3.1397,3.5038,1.7342,3.3976,3.7212.0051,5.6829-2.7706,1.6078-5.7991,2.4673-8.9136,3.1498-5.4705,1.2033-11.0067,1.6432-18.3884,1.7898"/><path class="cls-8" d="m66.9763,81.5247c-7.0833-.0859-14.1212-.6118-20.9315-2.7403-1.8404-.5764-3.6605-1.3398-5.3441-2.2802-3.2105-1.7898-3.2661-3.8273.0404-5.4705,2.7706-1.3752,5.7536-2.5381,8.772-3.1701,13.0291-2.7251,26.0481-2.6999,38.9053,1.0618,2.0325.5915,3.9992,1.6179,5.7991,2.7555,2.0274,1.2842,1.9566,2.7959-.0051,4.2268-3.0083,2.1892-6.5474,3.0993-10.1017,3.9032-5.6373,1.2741-11.3708,1.6533-17.1345,1.714"/><path class="cls-8" d="m57.4322,124.773c0,2.8971.1314,5.6576-.0809,8.3827-.0657.8292-.9455,1.7797-1.7038,2.3308-2.4622,1.7999-5.3542,2.7049-8.2917,3.3521-13.4083,2.9476-26.7812,2.983-40.0378-.8342-1.9971-.5764-3.8627-1.6685-5.7182-2.6594-1.1477-.6168-1.6381-1.6836-1.5876-3.0791.0961-2.4471.0253-4.8992.0253-7.4777,9.0097,4.8385,18.7929,5.6424,28.6317,5.6323,9.8489-.0152,19.6776-.7028,28.7631-5.6475"/><path class="cls-8" d="m.0364,153.9603c8.5445,4.5352,17.6553,5.3947,26.8672,5.6374,8.0692.2073,16.0728-.4449,23.8336-2.8263,2.2448-.6876,4.3784-1.719,6.6738-2.6392,0,2.7504.1062,5.602-.0758,8.4383-.0455.7078-.8797,1.6381-1.5876,1.9819-2.4572,1.1881-4.9295,2.5229-7.5535,3.1599-13.6055,3.3167-27.2312,3.3066-40.7507-.5258-2.0375-.5764-3.9386-1.6937-5.8345-2.6948-1.1527-.6118-1.6482-1.6836-1.5977-3.074.091-2.4471.0253-4.8992.0253-7.4575"/><path class="cls-8" d="m.0384,168.4395c6.1379,3.5391,12.6853,4.6666,19.3136,5.2986,9.6669.9202,19.3035.6826,28.7682-1.6937,3.1296-.7837,6.1328-2.0729,9.3181-3.1751v1.628c0,1.7797-.1062,3.5695.0303,5.334.1213,1.6381-.5865,2.7706-1.896,3.438-1.987,1.0112-4.0144,2.0325-6.1328,2.6796-7.9479,2.4218-16.1385,2.8515-24.3847,2.5735-6.0671-.1972-12.0786-.8949-17.8626-2.8364-1.8656-.6219-3.6453-1.5572-5.3896-2.4926-1.2741-.6775-1.8757-1.7949-1.7949-3.3571.1213-2.3965.0303-4.7981.0303-7.3968"/><path class="cls-8" d="m57.4332,139.3892c0,2.8364.0961,5.5059-.0607,8.1603-.0455.7584-.6472,1.7595-1.2943,2.1488-1.8353,1.0921-3.7515,2.1639-5.7688,2.8212-7.9884,2.6038-16.2497,3.1347-24.5819,2.8869-6.1076-.177-12.1747-.8039-18.0142-2.6999-2.0729-.6724-4.0397-1.6988-5.9812-2.7049-1.2438-.6472-1.7948-1.7645-1.7241-3.2712.1062-2.3965.0303-4.8082.0303-7.3412,9.0602,4.788,18.8232,5.6272,28.662,5.6323,9.8489.0051,19.617-.8241,28.7328-5.6323"/><path class="cls-8" d="m38.2945,94.4582c4.3329,2.5684,8.8883,3.8071,13.5751,4.5352,12.5083,1.9465,24.956,1.8707,37.2166-1.6634,2.2145-.637,4.3076-1.6937,6.6131-2.619v3.6403c0,1.0112-.1062,2.0426.0253,3.0437.273,2.0931-.7736,3.347-2.4521,4.2975-3.2054,1.8252-6.6991,2.8263-10.2837,3.4734-11.9269,2.1639-23.8285,2.1538-35.6139-.8949-2.4622-.632-4.8031-1.8252-7.1238-2.9122-1.4409-.6826-2.083-1.9263-1.987-3.6403.1264-2.3409.0303-4.6969.0303-7.2603"/><path class="cls-8" d="m38.3006,80.109c12.0685,5.7638,24.7184,6.0772,37.525,5.1368,5.4604-.4045,10.8298-1.3702,15.9514-3.4077,1.2791-.5056,2.4926-1.1679,3.8728-1.8201,0,2.9324.1668,5.7688-.0961,8.5597-.0809.8595-1.1831,1.9415-2.078,2.3459-2.6796,1.2185-5.4098,2.4976-8.2614,3.1347-13.1403,2.9324-26.2857,2.897-39.3098-.7736-2.083-.5865-4.0346-1.7038-5.9761-2.71-1.2084-.6269-1.7089-1.7342-1.6533-3.1751.091-2.4066.0253-4.8183.0253-7.2906"/><path class="cls-8" d="m60.0689,114.6637c12.3112.3489,24.2886.1871,35.5431-5.4351.0253.2932.0809.6421.086.996.0101,1.9465-.1112,3.9032.0404,5.8345.1517,1.9769-.6573,3.3672-2.3409,4.0953-2.6645,1.1477-5.3643,2.3004-8.1603,3.0639-5.2025,1.4207-10.5719,1.8606-15.9615,1.9516-2.1842.0404-4.3734-.0708-6.5575-.0556-.9252,0-1.3044-.3388-1.2084-1.2791.0809-.8393.0758-1.6887.0758-2.533.0101-2.2651.2932-4.5908-1.5168-6.6384"/><path class="cls-8" d="m95.6878,138.3102c0,2.8263.1314,5.5362-.0758,8.2209-.0657.8393-.905,1.81-1.6533,2.3662-2.5583,1.896-5.5969,2.7454-8.6406,3.4835-7.6294,1.8454-15.3852,2.1842-23.1915,1.8454-.1163-.0051-.2326-.0657-.4399-.1213v-10.213c11.6084.1416,23.1662-.0556,34.0011-5.5817"/><path class="cls-8" d="m61.6691,168.6705v-10.213c11.6236.177,23.1359-.0961,33.9808-5.5463.0152.3438.0506.723.0506,1.1072.0051,2.0274-.086,4.065.0303,6.0924.1011,1.6735-.6067,2.897-1.9819,3.5139-2.7251,1.2235-5.4705,2.5229-8.3473,3.2611-7.599,1.9415-15.375,2.3004-23.1864,1.896-.1618-.0101-.3236-.0657-.546-.1112"/><path class="cls-8" d="m95.6893,123.9089c0,2.6746.1314,5.3846-.0809,8.0642-.0657.8342-.8898,1.9415-1.6634,2.3358-2.3965,1.2134-4.8537,2.4167-7.4271,3.1347-7.8114,2.1892-15.825,2.5684-23.8943,2.2347-.2882-.0152-.5713-.0758-1.0264-.1416,0-.7331.0051-1.4359,0-2.1387-.0202-2.4066-.0354-4.8132-.0758-7.2198-.0152-.7382.1315-1.0061.996-.9657,8.6962.4146,17.3266-.0657,25.7346-2.4825,2.4976-.7179,4.8739-1.8353,7.4373-2.8212"/><path class="cls-8" d="m160.5371,43.9364v3.5139c0,13.6763.0051,27.3576,0,41.0338,0,4.8486-1.36,5.9862-5.5008,5.8547-6.8457-.2174-13.6965-.0202-20.5473.0152-3.2206.0202-6.4463.1466-9.6669.091-2.3105-.0404-3.6453-1.9819-3.6504-5.1823-.0152-12.9634-.0101-25.9217-.0101-38.88v-6.2289c-.8443-.0758-1.5724-.1921-2.3004-.2022-2.6999-.0202-5.3997-.0253-8.1046-.0051-1.7038.0152-3.0285-.7078-3.6908-2.6089-.6674-1.9061-.1062-3.4886,1.0921-4.8789,9.9349-11.573,19.8546-23.1713,29.8046-34.7291,1.987-2.3106,3.8476-2.3055,5.8497.0202,9.9501,11.5528,19.8647,23.1561,29.8046,34.7241,1.2185,1.4207,1.6685,3.074,1.0466,4.9144-.6421,1.8909-2.0274,2.5684-3.7262,2.5583-3.3774-.0303-6.7497-.0101-10.4-.0101"/><path class="cls-2" d="m134.0673,157.7062c0-7.9327-6.7598-9.581-12.1494-10.9258-3.706-.9202-6.7648-1.6331-6.7648-4.1357,0-2.1639,2.5027-3.1498,4.9902-3.1498,2.8515,0,5.3391,1.4055,5.3391,4.3633h7.5535c0-6.0671-3.4684-10.0967-9.6568-11.0573v-3.4077h-6.0722v3.3875c-6.0418.8696-9.7529,4.4593-9.7529,10.2028,0,7.6395,6.4766,9.1815,11.8005,10.4708,3.8122.9101,6.9772,1.628,6.9772,4.343,0,2.4825-2.8162,3.9335-5.6879,3.9335-3.074,0-5.8952-1.5724-5.8952-4.8587h-7.6951c0,6.5171,4.1863,10.7742,10.668,11.75v3.6605h6.0469v-3.6706c5.9255-.9101,10.2989-4.5503,10.2989-10.9056Zm0,0c0-7.9327-6.7598-9.581-12.1494-10.9258-3.706-.9202-6.7648-1.6331-6.7648-4.1357,0-2.1639,2.5027-3.1498,4.9902-3.1498,2.8515,0,5.3391,1.4055,5.3391,4.3633h7.5535c0-6.0671-3.4684-10.0967-9.6568-11.0573v-3.4077h-6.0722v3.3875c-6.0418.8696-9.7529,4.4593-9.7529,10.2028,0,7.6395,6.4766,9.1815,11.8005,10.4708,3.8122.9101,6.9772,1.628,6.9772,4.343,0,2.4825-2.8162,3.9335-5.6879,3.9335-3.074,0-5.8952-1.5724-5.8952-4.8587h-7.6951c0,6.5171,4.1863,10.7742,10.668,11.75v3.6605h6.0469v-3.6706c5.9255-.9101,10.2989-4.5503,10.2989-10.9056Zm-13.656-44.8814c-4.2166,0-8.4333-.0152-12.6499.0101-1.4814.0101-2.7504-.3741-2.8212-2.0325-.0758-1.7696,1.1932-2.3106,2.7706-2.3106h25.7144c1.4915,0,2.6999.5208,2.7201,2.1589.0152,1.6432-1.1477,2.1892-2.6695,2.1842-4.3582-.0202-8.7113-.0101-13.0645-.0101Zm.1618-6.7143c-4.6413,0-9.2827-.0404-13.924.0303-1.2438.0152-2.0072-.2882-2.6392-1.4409-3.2004-5.8244-6.4969-11.5983-9.7326-17.4025-.3337-.5915-.6168-1.2539-.7382-1.9162-.4196-2.2954.6168-3.3925,2.897-2.8364,1.9364.4702,3.8021,1.269,5.6727,1.987,3.9689,1.537,7.4676.7533,10.5618-2.0729,1.2741-1.1679,2.4521-2.4521,3.7313-3.615,2.7454-2.4875,6.0671-2.1387,8.2513.8443.7786,1.0617,1.4359,2.2094,2.2246,3.2661,3.0032,4.0195,6.8761,4.5807,10.9663,1.7645,1.6887-1.1679,3.4785-2.2701,5.3694-3.0386.8342-.3337,2.3358-.0809,2.9729.5106.4803.4449.3741,1.9971,0,2.8161-3.0588,6.6688-6.2137,13.292-9.4495,19.8799-.2882.5966-1.3297,1.1527-2.0325,1.1679-4.7071.1062-9.4192.0556-14.1313.0556Zm.1517,83.2255c-7.7305-.0607-15.1728-.5865-22.4028-2.7909-14.9908-4.5807-20.9366-15.097-20.3753-29.6378.2983-7.6395,3.0133-14.5105,7.1137-20.9366,4.9396-7.7507,11.4112-13.9948,18.6058-19.5512.8949-.6876,2.2499-1.087,3.3925-1.0971,9.0046-.086,18.0041-.086,27.0087,0,1.1376.0152,2.5583.4045,3.3622,1.1426,5.0205,4.6312,10.3747,9.0147,14.7329,14.2223,8.1046,9.672,12.5185,20.8253,10.6023,33.7735-1.6331,11.0674-8.14,18.0193-18.5198,21.5989-7.7002,2.6493-15.6936,3.2156-23.5201,3.2762Z"/><g><path class="cls-3" d="m120.7247,189.3361c-7.7305-.0607-15.1728-.5865-22.4028-2.7909-14.9908-4.5807-20.9366-15.097-20.3753-29.6378.2983-7.6395,3.0133-14.5105,7.1137-20.9366,4.9396-7.7507,11.4112-13.9948,18.6058-19.5512.8949-.6876,2.2499-1.087,3.3925-1.0971,9.0046-.086,18.0041-.086,27.0087,0,1.1376.0152,2.5583.4045,3.3622,1.1426,5.0205,4.6312,10.3747,9.0147,14.7329,14.2223,8.1046,9.672,12.5185,20.8253,10.6023,33.7735-1.6331,11.0674-8.14,18.0193-18.5198,21.5989-7.7002,2.6493-15.6936,3.2156-23.5201,3.2762"/><path class="cls-8" d="m120.7247,189.3361c-7.7305-.0607-15.1728-.5865-22.4028-2.7909-14.9908-4.5807-20.9366-15.097-20.3753-29.6378.2983-7.6395,3.0133-14.5105,7.1137-20.9366,4.9396-7.7507,11.4112-13.9948,18.6058-19.5512.8949-.6876,2.2499-1.087,3.3925-1.0971,9.0046-.086,18.0041-.086,27.0087,0,1.1376.0152,2.5583.4045,3.3622,1.1426,5.0205,4.6312,10.3747,9.0147,14.7329,14.2223,8.1046,9.672,12.5185,20.8253,10.6023,33.7735-1.6331,11.0674-8.14,18.0193-18.5198,21.5989-7.7002,2.6493-15.6936,3.2156-23.5201,3.2762"/></g><g><path class="cls-3" d="m120.5736,106.1106c-4.6413,0-9.2827-.0455-13.924.0303-1.2437.0152-2.0072-.2932-2.6392-1.4409-3.2004-5.8244-6.4969-11.5983-9.7326-17.4025-.3337-.5915-.6168-1.2539-.7382-1.9162-.4196-2.2954.6118-3.3925,2.897-2.8364,1.9364.4702,3.802,1.269,5.6677,1.987,3.974,1.537,7.4727.7533,10.5669-2.0729,1.2741-1.1679,2.4521-2.4521,3.7313-3.615,2.7454-2.4875,6.0671-2.1387,8.2513.8443.7786,1.0617,1.4359,2.2094,2.2246,3.2661,3.0032,4.0195,6.876,4.5807,10.9663,1.7645,1.6887-1.1679,3.4785-2.2701,5.3694-3.0386.8342-.3337,2.3358-.0809,2.9729.5106.4803.4449.3741,1.9971,0,2.8161-3.0588,6.6688-6.2137,13.292-9.4495,19.8799-.2882.5966-1.3297,1.1527-2.0325,1.1679-4.7071.1062-9.4192.0556-14.1313.0556"/><path class="cls-8" d="m120.5736,106.1106c-4.6413,0-9.2827-.0455-13.924.0303-1.2437.0152-2.0072-.2932-2.6392-1.4409-3.2004-5.8244-6.4969-11.5983-9.7326-17.4025-.3337-.5915-.6168-1.2539-.7382-1.9162-.4196-2.2954.6118-3.3925,2.897-2.8364,1.9364.4702,3.802,1.269,5.6677,1.987,3.974,1.537,7.4727.7533,10.5669-2.0729,1.2741-1.1679,2.4521-2.4521,3.7313-3.615,2.7454-2.4875,6.0671-2.1387,8.2513.8443.7786,1.0617,1.4359,2.2094,2.2246,3.2661,3.0032,4.0195,6.876,4.5807,10.9663,1.7645,1.6887-1.1679,3.4785-2.2701,5.3694-3.0386.8342-.3337,2.3358-.0809,2.9729.5106.4803.4449.3741,1.9971,0,2.8161-3.0588,6.6688-6.2137,13.292-9.4495,19.8799-.2882.5966-1.3297,1.1527-2.0325,1.1679-4.7071.1062-9.4192.0556-14.1313.0556"/></g><path class="cls-8" d="m120.4097,112.8259c-4.2166,0-8.4333-.0152-12.6499.0101-1.4763.0101-2.7454-.3741-2.8212-2.0325-.0758-1.7696,1.1983-2.3156,2.7706-2.3156,8.5748.0051,17.1446.0051,25.7144.0051,1.4965-.0051,2.7049.5208,2.7201,2.1589.0202,1.6432-1.1477,2.1892-2.6695,2.1791-4.3531-.0152-8.7114-.0051-13.0645-.0051"/><path class="cls-7" d="m134.0693,157.7057c0-7.9327-6.7648-9.581-12.1494-10.9208-3.706-.9252-6.7648-1.6381-6.7648-4.1408,0-2.1639,2.4976-3.1498,4.9902-3.1498,2.8465,0,5.3391,1.4055,5.3391,4.3633h7.5485c0-6.0671-3.4684-10.0967-9.6517-11.0573v-3.4077h-6.0772v3.3875c-6.0368.8696-9.7478,4.4593-9.7478,10.2028,0,7.6395,6.4766,9.1866,11.8005,10.4708,3.8071.9101,6.9721,1.628,6.9721,4.343,0,2.4825-2.8111,3.9335-5.6829,3.9335-3.074,0-5.8952-1.5724-5.8952-4.8587h-7.7002c0,6.5171,4.1913,10.7742,10.673,11.75v3.6605h6.0469v-3.6706c5.9205-.9101,10.2989-4.5503,10.2989-10.9056"/><path class="cls-5" d="m201.7933,179.6419c0-11.1837-9.5355-13.4993-17.1244-15.3953-5.2227-1.2943-9.5355-2.3055-9.5355-5.8244,0-3.0538,3.524-4.4442,7.0328-4.4442,4.0144,0,7.5232,1.9769,7.5232,6.148h10.6427c0-8.5496-4.884-14.2273-13.6055-15.5874v-4.7981h-8.5597v4.7728c-8.5091,1.2286-13.747,6.2896-13.747,14.379,0,10.7691,9.131,12.9432,16.639,14.7582,5.3643,1.2791,9.8287,2.2954,9.8287,6.1227,0,3.4987-3.9638,5.5413-8.0136,5.5413-4.3329,0-8.3119-2.2195-8.3119-6.8457h-10.8449c0,9.1815,5.9003,15.188,15.0363,16.5632v5.157h8.5243v-5.1773c8.3473-1.2791,14.5155-6.4109,14.5155-15.37Zm0,0c0-11.1837-9.5355-13.4993-17.1244-15.3953-5.2227-1.2943-9.5355-2.3055-9.5355-5.8244,0-3.0538,3.524-4.4442,7.0328-4.4442,4.0144,0,7.5232,1.9769,7.5232,6.148h10.6427c0-8.5496-4.884-14.2273-13.6055-15.5874v-4.7981h-8.5597v4.7728c-8.5091,1.2286-13.747,6.2896-13.747,14.379,0,10.7691,9.131,12.9432,16.639,14.7582,5.3643,1.2791,9.8287,2.2954,9.8287,6.1227,0,3.4987-3.9638,5.5413-8.0136,5.5413-4.3329,0-8.3119-2.2195-8.3119-6.8457h-10.8449c0,9.1815,5.9003,15.188,15.0363,16.5632v5.157h8.5243v-5.1773c8.3473-1.2791,14.5155-6.4109,14.5155-15.37Zm-19.2529-63.2546c-5.9407,0-11.8865-.0253-17.8272.0152-2.083.0152-3.8728-.5309-3.9739-2.8617-.1112-2.5027,1.6836-3.2661,3.9032-3.2661,12.0786.0051,24.1622.0051,36.2408,0,2.1083,0,3.8122.7432,3.8324,3.0487.0253,2.3105-1.6128,3.0841-3.7616,3.074-6.1379-.0253-12.2758-.0101-18.4136-.0101Zm.2326-9.4647c-6.5424,0-13.0847-.0607-19.6271.0404-1.7493.0253-2.8262-.4045-3.7161-2.0274-4.5149-8.2108-9.1563-16.3458-13.7218-24.5263-.4702-.8393-.8646-1.7696-1.0365-2.7049-.5966-3.2307.8646-4.7829,4.0801-3.9992,2.7302.6674,5.3593,1.7898,7.9934,2.806,5.5969,2.1639,10.5315,1.0617,14.8846-2.9223,1.7999-1.6482,3.4583-3.4532,5.2632-5.0913,3.8678-3.5088,8.5495-3.0184,11.6337,1.1881,1.0921,1.4915,2.0173,3.1144,3.1296,4.6009,4.2369,5.6626,9.6922,6.4564,15.456,2.4825,2.3864-1.6432,4.9042-3.2004,7.5687-4.2773,1.173-.4753,3.2965-.1163,4.1914.7179.6775.632.5309,2.8161,0,3.9689-4.3127,9.3989-8.7569,18.7372-13.3173,28.0199-.4095.8443-1.8757,1.628-2.8667,1.6482-6.6334.1466-13.2768.0758-19.9153.0758Zm.2124,117.3024c-10.9006-.086-21.3865-.8241-31.5742-3.9386-21.1337-6.4514-29.5114-21.2753-28.7176-41.7669.4196-10.7691,4.247-20.4512,10.0259-29.5114,6.962-10.9208,16.0879-19.7231,26.2251-27.5548,1.2589-.9707,3.165-1.5319,4.7778-1.5471,12.6903-.1213,25.3807-.1264,38.066.0051,1.6078.0152,3.6049.5612,4.7374,1.6078,7.0833,6.5221,14.6268,12.7055,20.7748,20.0417,11.4163,13.6358,17.635,29.3547,14.9402,47.6015-2.3004,15.5975-11.4719,25.3959-26.1088,30.4417-10.85,3.7414-22.1146,4.5352-33.1466,4.6211Z"/><g><path class="cls-4" d="m182.9853,224.225c-10.9006-.086-21.3865-.8241-31.5742-3.9386-21.1337-6.4514-29.5114-21.2753-28.7176-41.7669.4196-10.7691,4.247-20.4512,10.0259-29.5114,6.962-10.9208,16.0879-19.7231,26.2251-27.5548,1.2589-.9707,3.165-1.5319,4.7778-1.5471,12.6903-.1213,25.3807-.1264,38.066.0051,1.6078.0152,3.6049.5612,4.7374,1.6078,7.0833,6.5221,14.6268,12.7055,20.7748,20.0417,11.4163,13.6358,17.635,29.3547,14.9402,47.6015-2.3004,15.5975-11.4719,25.3959-26.1088,30.4417-10.85,3.7414-22.1146,4.5352-33.1466,4.6211"/><path class="cls-8" d="m182.9853,224.225c-10.9006-.086-21.3865-.8241-31.5742-3.9386-21.1337-6.4514-29.5114-21.2753-28.7176-41.7669.4196-10.7691,4.247-20.4512,10.0259-29.5114,6.962-10.9208,16.0879-19.7231,26.2251-27.5548,1.2589-.9707,3.165-1.5319,4.7778-1.5471,12.6903-.1213,25.3807-.1264,38.066.0051,1.6078.0152,3.6049.5612,4.7374,1.6078,7.0833,6.5221,14.6268,12.7055,20.7748,20.0417,11.4163,13.6358,17.635,29.3547,14.9402,47.6015-2.3004,15.5975-11.4719,25.3959-26.1088,30.4417-10.85,3.7414-22.1146,4.5352-33.1466,4.6211"/></g><g><path class="cls-4" d="m182.7725,106.9231c-6.5424,0-13.0847-.0607-19.622.0405-1.7544.0253-2.8313-.4095-3.7212-2.0274-4.5099-8.2108-9.1563-16.3458-13.7218-24.5263-.4702-.8393-.8646-1.7696-1.0365-2.7049-.5966-3.2307.8646-4.7829,4.0852-3.9992,2.7302.6674,5.3542,1.7898,7.9884,2.806,5.5969,2.1639,10.5315,1.0617,14.8846-2.9274,1.7999-1.6432,3.4583-3.4481,5.2632-5.0862,3.8678-3.5088,8.5496-3.0235,11.6337,1.1881,1.0971,1.4915,2.0173,3.1145,3.1296,4.5958,4.2368,5.6677,9.6922,6.4615,15.4559,2.4875,2.3864-1.6432,4.9042-3.2004,7.5687-4.2773,1.173-.4753,3.2965-.1163,4.1914.7179.6775.632.5309,2.8161,0,3.9689-4.3127,9.3989-8.7569,18.7372-13.3122,28.0199-.4146.8393-1.8808,1.623-2.8718,1.6482-6.6334.1416-13.2768.0758-19.9153.0758"/><path class="cls-8" d="m182.7725,106.9231c-6.5424,0-13.0847-.0607-19.622.0405-1.7544.0253-2.8313-.4095-3.7212-2.0274-4.5099-8.2108-9.1563-16.3458-13.7218-24.5263-.4702-.8393-.8646-1.7696-1.0365-2.7049-.5966-3.2307.8646-4.7829,4.0852-3.9992,2.7302.6674,5.3542,1.7898,7.9884,2.806,5.5969,2.1639,10.5315,1.0617,14.8846-2.9274,1.7999-1.6432,3.4583-3.4481,5.2632-5.0862,3.8678-3.5088,8.5496-3.0235,11.6337,1.1881,1.0971,1.4915,2.0173,3.1145,3.1296,4.5958,4.2368,5.6677,9.6922,6.4615,15.4559,2.4875,2.3864-1.6432,4.9042-3.2004,7.5687-4.2773,1.173-.4753,3.2965-.1163,4.1914.7179.6775.632.5309,2.8161,0,3.9689-4.3127,9.3989-8.7569,18.7372-13.3122,28.0199-.4146.8393-1.8808,1.623-2.8718,1.6482-6.6334.1416-13.2768.0758-19.9153.0758"/></g><path class="cls-8" d="m182.5409,116.3878c-5.9407,0-11.8865-.0253-17.8272.0152-2.0831.0101-3.8728-.5309-3.9739-2.8617-.1112-2.5027,1.6836-3.2661,3.9032-3.2661,12.0786.0051,24.1622.0051,36.2408,0,2.1083,0,3.8071.7432,3.8324,3.0487.0253,2.3106-1.6128,3.0841-3.7616,3.074-6.1379-.0253-12.2758-.0101-18.4136-.0101"/><path class="cls-7" d="m201.7934,179.6424c0-11.1837-9.5304-13.4993-17.1244-15.3953-5.2228-1.2994-9.5355-2.3055-9.5355-5.8295,0-3.0487,3.524-4.4391,7.0328-4.4391,4.0144,0,7.5232,1.9769,7.5232,6.148h10.6427c0-8.5496-4.884-14.2274-13.6055-15.5874v-4.8031h-8.5597v4.7778c-8.5091,1.2286-13.7471,6.2845-13.7471,14.379,0,10.7691,9.131,12.9432,16.639,14.7582,5.3694,1.2791,9.8287,2.2954,9.8287,6.1227,0,3.4987-3.9638,5.5413-8.0136,5.5413-4.3329,0-8.3119-2.2195-8.3119-6.8457h-10.8449c0,9.1815,5.9003,15.188,15.0363,16.5632v5.152h8.5243v-5.1722c8.3473-1.2791,14.5156-6.4109,14.5156-15.37"/></g></svg>