<?xml version="1.0" encoding="UTF-8"?><svg id="Layer_1" xmlns="http://www.w3.org/2000/svg" xmlns:xlink="http://www.w3.org/1999/xlink" viewBox="0 0 209.7318 205.1784"><defs><style>.cls-1,.cls-2{fill:none;}.cls-3{clip-path:url(#clippath);}.cls-4{fill:#4a9cd6;}.cls-2{stroke:#f2f7f9;stroke-width:11px;}</style><clipPath id="clippath"><rect class="cls-1" x=".0006" width="209.7251" height="205.1771"/></clipPath></defs><g class="cls-3"><path class="cls-4" d="m207.6318,164.5214h-8.3878c-1.1599,0-2.1.9157-2.1,2.0512v18.0881c0,4.4442-3.8398,8.2046-8.3878,8.2046h-18.8389c-1.1538,0-2.0939.9218-2.0939,2.0512v8.2107c0,1.1294.9401,2.0512,2.0939,2.0512h18.8389c11.5317,0,20.9756-9.2363,20.9756-20.5177v-18.0881c0-1.1355-.9401-2.0512-2.1-2.0512"/><path class="cls-4" d="m40.1442.0024h-19.1686C9.4378.0024,0,9.2327,0,20.5202v19.0953c0,1.1294.9401,2.0512,2.1,2.0512h8.3878c1.1538,0,2.0939-.9218,2.0939-2.0512v-19.0953c0-4.4503,3.8459-8.2046,8.3939-8.2046h19.1686c1.1599,0,2.1-.9218,2.1-2.0512V2.0536C42.2441.9243,41.304.0024,40.1442.0024"/><path class="cls-4" d="m188.7556.0024h-18.8389c-1.1538,0-2.0939.9218-2.0939,2.0512v8.2107c0,1.1294.9401,2.0512,2.0939,2.0512h18.8389c4.548,0,8.3878,3.7544,8.3878,8.2046v19.0953c0,1.1294.9401,2.0512,2.1,2.0512h8.3878c1.1599,0,2.1-.9218,2.1-2.0512v-19.0953C209.7312,9.2327,200.2873.0024,188.7556.0024"/><path class="cls-4" d="m40.1442,192.8671h-19.1686c-4.548,0-8.3939-3.7605-8.3939-8.2046v-18.0881c0-1.1355-.9401-2.0512-2.0939-2.0512H2.1c-1.1599,0-2.1.9157-2.1,2.0512v18.0881c0,11.2814,9.4378,20.5116,20.9756,20.5116h19.1686c1.1599,0,2.1-.9157,2.1-2.0512v-8.2046c0-1.1294-.9401-2.0512-2.1-2.0512"/><path class="cls-4" d="m132.1088,95.1562c.1648,3.3148-.1465,6.593-.6898,9.8529-.1465.8669-.2808,1.7887-1.4956,1.7276-.8668-.0488-1.1965-.8424-1.0073-2.1305,1.1721-7.936,1.0927-15.8416-.8669-23.6494-1.9108-7.5881-8.8334-13.1494-16.8061-13.9369-11.141-1.0927-21.4517,7.4599-21.3418,19.309.0183,1.8741.5738,3.6933.8058,5.5491.116.9645.1587,1.9474.177,2.918.0122.9096.0061,1.8497-.1465,2.7471-.1221.7203-.525,1.3064-1.343,1.2331-.5921-.0488-.989-.409-1.0744-.9828-.0488-.3052-.0061-.6166.0122-.9218.0366-.4273.0488-.8485.0488-1.2759.0061-1.752-.232-3.4919-.4762-5.2256-.1343-.9767-.2686-1.9535-.3663-2.9302-.5128-5.2683,1.0195-10.0116,4.1939-14.2116,5.7811-7.6491,15.6828-10.7198,24.8154-7.5087,8.2657,2.9058,13.0517,8.8334,14.5413,17.2945.7081,4.023,1.2331,8.0581,1.0195,12.1421"/><path class="cls-4" d="m141.6168,83.5934c.0061.7142-.1648,1.3369-1.0317,1.398-.873.0672-1.2942-.4701-1.4163-1.2392-.3846-2.4113-.7753-4.8349-1.6483-7.1302-4.2671-11.2325-12.4474-17.9232-24.5895-19.541-9.3523-1.2454-17.5386,1.6482-24.3392,7.9971-4.2549,3.968-7.0203,8.8517-8.2596,14.5168-.1648.7509-.3113,2.161-1.3125,2.3014-.3907.0549-.8485-.0855-1.1172-.3724-.2686-.2869-.3235-.6898-.293-1.0683.0549-.6776.2564-1.3674.4212-2.0328.1587-.6227.3358-1.2515.5311-1.868.3968-1.227.8669-2.4358,1.4102-3.6139,1.0744-2.3137,2.4357-4.493,4.0413-6.4831,1.5872-1.9718,3.4125-3.7544,5.4331-5.3049,2.0328-1.5628,4.261-2.8875,6.6174-3.9253,2.4052-1.0561,4.9387-1.8253,7.527-2.2709.3296-.061.6593-.1099.9889-.1587,10.036-1.4163,18.8573,1.2637,26.4331,7.8384,6.2817,5.4453,9.4561,12.4535,10.5671,20.4689.0244.1648.0244.3236.0366.4884"/><path class="cls-4" d="m116.6579,95.0585c-.0244,4.7616-.6654,9.5171-1.9901,14.1017-1.2942,4.4991-3.2538,8.7968-5.7445,12.7831-.7142,1.1477-1.4773,2.2709-2.277,3.3637-.6105.8302-1.575,2.5762-2.8264,1.7032-.9706-.6776-.4701-1.5078.0794-2.2343,3.1378-4.1023,5.6468-8.5404,7.3805-13.3875,3.089-8.6136,3.6933-17.4043,1.8314-26.3476-.2991-1.4468-1.4895-2.6006-2.9607-2.918-1.5079-.3174-3.0462.3419-3.9497,1.5445-.6105.818-.8974,1.8192-.6959,2.8203,1.0988,5.4148,1.1965,10.8296.1221,16.2567-.061.3235-.0855.6654-.232.9462-.232.464-.6105.8852-1.1843.8607-.5494-.0244-1.0439-.3541-1.1477-.8974-.0549-.3052.0122-.6288.0549-.934.0488-.3968.1099-.7936.1709-1.1965.116-.8119.2442-1.6238.3235-2.4357.3907-3.7422.3541-7.4721-.4273-11.1837-1.0317-4.902,2.4235-8.8395,7.1546-8.1802,2.0084.2808,3.7788,1.5628,4.7128,3.3148.5494,1.0378.702,2.1916.9035,3.3209.2381,1.3491.4334,2.7044.5616,4.0657.1465,1.5384.2076,3.089.1404,4.6334"/><path class="cls-4" d="m109.7011,49.3994c.9462-.0549,1.8924.0183,2.8325.1099.4762.0427.9462.0855,1.4163.1404.3113.0366.6288.0977.8974.2564.5494.3236.5983,1.0683.3174,1.5872-.3113.5616-1.0195.5861-1.5933.525-8.7785-.9218-16.916.8791-24.1439,5.891-8.8212,6.1107-13.7355,14.5046-14.8404,25.0535-.3602,3.4552.0671,6.8128.6349,10.1948.2747,1.636.2076,3.3148-.2747,4.902-.232.7692-.5494,1.5078-.9462,2.2038-.2076.3724-.4395.7387-.6837,1.0866-.2442.3419-.4884.7142-.7875,1.0073-.5433.5372-1.2453.9157-1.923.3602-.6654-.5372-.525-1.2698-.0183-1.868,1.1904-1.4041,2.0206-3.0829,2.2282-4.902.1038-.9401.0366-1.8741-.1282-2.802-.1892-1.0988-.3541-2.2038-.4823-3.3087-.4762-4.1328-.2808-8.3084.7142-12.3558.5555-2.2648,1.3552-4.4686,2.3564-6.5747,4.4503-9.3828,11.6599-15.9087,21.6349-19.4616,3.4735-1.2331,8.2108-2.0512,12.7892-2.0451"/><path class="cls-4" d="m147.6274,94.9132c.0366,1.7765.0183,3.5468-.0794,5.3233-.0488.8607-.116,1.7215-.2076,2.5762-.0733.7448-.1282,1.514-.3052,2.2404-.1587.6471-.5677,1.05-1.2759,1.0439-.8546,0-1.3613-.8546-1.1355-2.0817.5616-3.0645.5616-6.1718.5677-9.2485.0122-5.0486-.5311-10.0605-1.5201-15.0357-1.1538-5.8116-3.6017-10.9884-7.411-15.5546-1.8192-2.1794-3.9253-4.1389-6.2512-5.7994-2.3137-1.6544-4.841-3.0096-7.4843-4.0779-.7814-.3174-1.5811-.5738-2.3625-.873-.6532-.2503-1.1294-.7387-.9218-1.4651.3663-1.282,1.7826-.7387,2.6983-.4517,1.3369.4151,2.6311.9584,3.8765,1.5872,2.7532,1.3858,5.366,3.0401,7.7407,4.9875,2.2587,1.8436,4.2855,3.9497,6.0192,6.2756,1.7398,2.3381,3.1683,4.8837,4.2855,7.5637,1.2454,2.9974,2.0573,6.1291,2.6494,9.3096.7448,4.0107,1.166,8.0887,1.1477,12.1666-.0061.5067-.0122,1.0073-.0305,1.5139"/><path class="cls-4" d="m109.2787,69.4794c.9706.0549,2.5273.0733,2.4541,1.398-.0549,1.0561-.9157,1.1111-1.7459,1.0866-7.8017-.1954-13.6317,5.134-14.7244,11.843-.2747,1.7093-.1526,3.4003.177,5.0974,1.8314,9.395-.3968,17.85-6.2328,25.4381-1.1721,1.5323-2.4785,2.9608-3.9924,4.1939-.3724.3052-.8608.6349-1.3735.5433-.4945-.0916-.9584-.5983-1.0256-1.0805-.0733-.5372.3052-.9828.6776-1.3186.4334-.3907.8608-.7936,1.2759-1.2026,1.636-1.6055,3.1073-3.3698,4.3221-5.3049,2.4724-3.9375,4.023-8.4671,4.3648-13.0823.1953-2.6372.0061-5.2988-.5128-7.8933-1.8192-9.1936,4.0779-17.6302,13.4729-19.37.9829-.1831,1.984-.2442,2.8631-.348"/><path class="cls-4" d="m127.0877,94.1904c-.1526,11.6965-2.8326,21.995-8.4488,31.5305-.2015.3419-.4456.7203-.8119.9157-.409.2198-.8669.1038-1.2454-.1343-.7875-.4884-.5311-1.3247-.1404-1.9901,2.4358-4.2122,4.3892-8.6747,5.7384-13.3264,1.3674-4.725,2.1855-9.6026,2.3381-14.5107.0855-2.7959-.0427-5.598-.3846-8.3756-.2076-1.6605-.4762-3.3026-.7936-4.9448-.7326-3.7971-2.741-6.7639-5.9826-8.9494-.8119-.5494-2.2221-1.2148-1.4285-2.3625.2625-.3785.6471-.6166,1.1233-.5494.4823.0671.9035.3724,1.3003.6288.9645.6166,1.8985,1.2942,2.7166,2.0939,1.8741,1.8314,3.3087,4.0535,4.1573,6.5137.4762,1.3674.757,2.7959.9889,4.2244.2503,1.4956.4212,2.9974.5555,4.5113.1404,1.5689.232,3.15.3174,4.725"/><path class="cls-4" d="m109.0503,44.2623c6.5991.0855,12.5695,1.3613,18.2407,3.9314.6166.2808,1.459.702,1.3919,1.4895-.0488.6715-.6532,1.227-1.3552,1.1233-.3846-.061-.7264-.2747-1.0744-.4395-.4029-.1892-.8058-.3724-1.2148-.5433-.8302-.3541-1.6788-.6776-2.5334-.9645-.9706-.3296-1.9596-.6105-2.9607-.8424-13.3631-3.1439-25.4014-.5372-36.0601,8.0032-2.3015,1.8375-4.2977,3.9558-6.0924,6.2634-.4395.5616-1.0073,1.3003-1.8131.9096-.3602-.177-.7081-.4945-.7753-.8974-.0549-.3419.0977-.6776.2686-.9706.4456-.7326,1.0622-1.398,1.6238-2.0573.586-.6898,1.1904-1.3552,1.8192-2.0084,2.4785-2.5701,5.2988-4.8288,8.3695-6.6907,1.7642-1.0683,3.614-2.0023,5.5186-2.8081,5.4148-2.2954,11.1043-3.382,16.6474-3.498"/><path class="cls-4" d="m137.3789,95.2422c-.0855,8.5038-1.5628,16.7573-4.5968,24.736-.3358.8913-.7936,1.6605-1.8863,1.2392-1.0195-.3907-.8424-1.2698-.525-2.0817,2.0328-5.2744,3.4064-10.793,4.0474-16.3971.6349-5.5674.5494-11.2448-.1099-16.8061-.3724-3.1378-1.0317-6.2512-2.2282-9.1936-.5616-1.3674-1.2881-2.6677-2.1122-3.9009-.3297-.5006-.818-1.0256-.9035-1.636-.0855-.6044.4456-1.1233,1.0195-1.2515.6776-.1526,1.1904.4273,1.5384.9157,2.5823,3.6567,4.0291,7.7285,4.7128,12.0994.6349,4.0718,1.0561,8.1558,1.0439,12.2764"/><path class="cls-4" d="m76.6866,111.8292c-.7326-.0183-1.398-.6349-1.1538-1.3919.1221-.3785.4701-.6593.7509-.934.3235-.3174.6593-.6288.9828-.9462,2.2526-2.1855,4.0474-4.8166,5.0119-7.7834.9645-2.9485,1.0744-6.0863.5922-9.1326-.2564-1.5933-.4823-3.1805-.5433-4.7982-.0549-1.5017.0061-3.0157.2015-4.5113.3785-2.8997,1.2698-5.7201,2.6433-8.3145,1.4407-2.7288,3.3881-5.1828,5.6285-7.3378.3052-.293.6044-.6105.9523-.8669.3297-.2442.6654-.5311,1.0683-.6532.4456-.1343.8302.061,1.1171.3907.293.3358.4517.7631.2564,1.1843-.1831.3846-.5494.6593-.8669.934-4.1267,3.5102-6.8128,7.8689-7.9971,13.0762-.8608,3.791-.3968,7.582.116,11.3974,1.0378,7.6735-1.6238,14.0712-7.5209,19.2052-.3541.3052-.7509.5128-1.2392.4823"/><path class="cls-4" d="m109.04,95.1409c.1038-3.0096-.3419-5.7078-.7753-8.4061-.061-.3907-.1282-.8241-.0061-1.2148.1282-.4212.5006-.6349.9279-.702,1.0317-.1648,1.3735.702,1.5323,1.5323,1.9352,10.0177.5677,19.6081-3.8948,28.7956-1.7276,3.5468-3.8581,6.8433-6.4526,9.8407-.1892.2198-.3663.4456-.5677.6471-.5128.5189-1.1049.8119-1.7704.3174-.3846-.2869-.6044-.7264-.5006-1.2026.1221-.5433.5738-1.0012.9096-1.4285.7753-1.0073,1.5933-1.984,2.3381-3.0157,4.6029-6.3488,7.234-13.4302,8.0398-21.1648.0794-.7326.177-1.459.2137-2.1916.0366-.6898.0061-1.3858.0061-1.807"/><path class="cls-4" d="m151.8793,84.4962c0,.7142.0549,1.4529-.0183,2.161-.0488.5372-.2869,1.05-.8547,1.1965-1.6544.4212-1.6299-1.7704-1.6605-2.7837-.3663-12.4535-5.6651-22.4773-15.5791-30.218-.7509-.5861-2.5884-1.5506-1.5872-2.6677.3724-.4151.8913-.5738,1.4285-.3541.293.116.5494.3236.8119.5006.293.2014.5799.4029.8607.6105,1.0988.8058,2.1549,1.6727,3.15,2.5945,7.3317,6.8067,11.6721,15.1334,13.1128,24.907.2075,1.4041.409,2.8265.3358,4.0535"/><path class="cls-4" d="m121.8676,93.2949c0,1.0012.1953,2.7166-1.3064,2.6799-.8669-.0183-1.2026-.641-1.2148-1.4224-.0183-1.6666-.0733-3.3331-.2686-4.9936-.1465-1.3125-.293-2.625-.5189-3.9253-.1892-1.0744-.4212-2.1305-.8546-3.1378-.7203-1.6666-1.9169-3.1378-3.4857-4.1145-3.0218-1.8863-7.3134-1.7398-10.2131.3113-1.6666,1.1782-2.7898,2.9302-3.4186,4.8288-.1099.348-.2442.6959-.4334,1.0073-.2625.4334-.6898.5433-1.1904.4395-.5128-.1038-.7997-.409-.8791-.9035-.0733-.4945.0305-.9767.1648-1.4468,1.3858-4.7738,6.1474-8.1131,11.4401-8.0215,5.0363.0916,9.7369,3.6994,10.8541,8.4183.8058,3.3759,1.1355,6.8189,1.3247,10.2802"/><path class="cls-4" d="m101.1851,95.0652c-.1587,10.0666-3.8154,18.7168-11.0677,25.8837-.6776.6715-1.459,1.691-2.4907.6654-1.05-1.0378.061-1.7398.7326-2.4174,7.8689-7.8994,11.1654-17.3494,10.0788-28.295-.0855-.8974-.0366-1.7276,1.0744-1.8436,1.0317-.1038,1.282.6288,1.4041,1.4895.2198,1.4956.2442,2.9974.2686,4.5174"/><path class="cls-4" d="m66.8044,86.6084c.0061-6.9776,1.3796-12.9235,4.1328-18.5581.3907-.7875.9523-2.1,2.0817-1.5689.6898.3174.8424.9645.5738,1.6238-.3541.873-.7936,1.7093-1.1599,2.5762-.7265,1.7215-1.3613,3.4857-1.8497,5.2866-.2808,1.0378-.5128,2.0817-.6898,3.1439-.8424,5.0669-.7692,10.1215.3174,15.1578.2015.9157.6898,2.0145-.702,2.4785-.8791.293-1.398-.3174-1.7581-2.0328-.6105-2.9119-1.0073-5.8544-.9462-8.107"/><path class="cls-4" d="m109.0497,59.4147c6.4221.1465,11.7942,1.868,16.5375,5.3538.7326.5372,1.8131,1.1599,1.0317,2.2465-.8241,1.1538-1.6666.232-2.4235-.2869-7.6247-5.2805-15.7866-6.2817-24.4918-2.9363-.4151.1587-.8852.3663-1.343.3052-.4395-.0488-.7203-.3663-.873-.7509-.2625-.6654.0916-1.1782.6898-1.4895.7631-.3968,1.5933-.6959,2.4113-.9767,1.691-.5861,3.4552-.9767,5.2378-1.1843,1.2331-.1465,2.4724-.3541,3.2233-.2808"/><path class="cls-4" d="m121.4788,101.433c-.6166,5.3904-1.9962,10.5305-4.1206,15.4753-1.3613,3.1622-2.9791,6.184-4.9081,9.0532-.5433.8119-1.3735,2.0573-2.5029,1.2942-.6715-.4517-.6288-1.0866-.2381-1.7276.9584-1.5689,1.9779-3.1073,2.8814-4.7128,3.2355-5.7201,5.2744-11.843,6.2145-18.3139.0855-.5555.1282-1.166.3419-1.691.1343-.348.3968-.6471.7814-.7264.8913-.1892,1.6238.4945,1.5506,1.3491"/><path class="cls-4" d="m142.5911,94.6849c-.1587,6.7273-.7814,12.9846-2.4419,19.1136-.0549.1953-.1038.3968-.1709.586-.2625.757-.7387,1.4468-1.6544,1.1721-.8669-.2564-1.0012-1.0744-.7997-1.8375,1.0073-3.7849,1.8009-7.6064,2.1244-11.5072.3113-3.6872.6227-7.3744.2381-11.0738-.0733-.702.0244-1.6055.7509-1.9657.5616-.2747,1.2942.0366,1.5567.5738.1648.3358.1587.7203.177,1.0866.0305.4456.0549.8852.0794,1.3308.0488.8424.0916,1.6788.1404,2.5212"/><path class="cls-4" d="m80.5911,95.7972c-.1954,3.8826-1.923,7.9849-5.5186,11.2692-.6105.5555-1.3919.9706-2.0878.2808-.2869-.2869-.4884-.6654-.3724-1.0744.1099-.3907.4273-.7081.7203-.9829,4.0169-3.7788,5.4026-8.345,4.316-13.6744-.2625-1.3125-.4029-2.6494-.5311-3.9863-.0794-.8424.2076-1.636,1.2087-1.6605,1.0073-.0305,1.3064.7387,1.3125,1.5872.0183,2.4968,1.0134,4.8654.9523,8.2413"/><path class="cls-4" d="m103.4939,109.8146c-.4273,1.4102-1.0805,2.8142-1.8253,4.1756-1.9169,3.5407-4.1695,6.8372-7.0631,9.7003-.6532.6471-1.3247,1.0805-2.1183.293-.7387-.7326-.3174-1.3919.2808-2.0023,3.5102-3.6017,6.2267-7.7041,8.1375-12.3192.1648-.3968.3297-.8424.7142-1.0988.3235-.2198.7264-.2198,1.0927-.0794.5555.2198.8363.641.7814,1.3308"/><path class="cls-4" d="m89.0979,104.2863c-.464,1.3125-1.0561,2.7044-1.8619,3.9863-1.5994,2.5334-3.4674,4.8593-5.8177,6.7945-.3052.2503-.641.5128-1.0378.6044-.4273.0916-.7997-.0977-1.0927-.3907-.2869-.293-.4823-.6715-.348-1.0805.1221-.3724.4395-.6654.7326-.9218,2.8326-2.4785,5.2134-5.4514,6.6968-8.8945.177-.3968.3052-.8424.6166-1.166.3052-.3052.7203-.3968,1.1416-.3113.641.1404.9584.5983.9706,1.3796"/><path class="cls-4" d="m129.8782,112.2748c-.3358,1.111-.6837,2.4968-1.166,3.8276-.873,2.4541-1.807,4.8837-2.973,7.2218-.0916.1831-.1526.3846-.2564.5555-.4273.702-1.0622,1.2637-1.9108.8058-.7753-.409-.7203-1.1904-.3907-1.8802.9462-1.984,1.8192-3.9802,2.5762-6.0375.4273-1.166.8241-2.3442,1.2026-3.5285.1831-.5799.3052-1.1843.5616-1.7398.1831-.3968.5067-.7081.9584-.7692.3785-.0488.8302.0488,1.0805.348.2686.3235.2991.7997.3174,1.1965"/><path class="cls-4" d="m98.308,188.1971h14.0407c3.8642,0,7.0264-3.0951,7.0264-6.8738v-12.0994c0-11.4584-3.8398-25.4991-23.8875-33.4962l-11.9468-4.7616c-17.9049-8.632-30.2241-24.1744-30.2241-47.5125,0-11.5683,4.3953-23.3442,11.7026-32.8979,9.9872-12.4535,25.5113-20.4567,42.9401-20.4567,14.1261,0,26.7689,5.5003,36.6767,13.8698,4.4442,3.7483,7.7834,1.8558,9.1875.9951,1.4102-.8608,2.9363-4.3892-1.3369-7.9849-12.0994-10.1825-27.3061-17.2212-44.5273-17.2212-30.4256,0-59.9965,22.52-67.5479,50.3694-1.8436,5.189-.525,6.9044-.6776,9.6392-.1343.6837-.2625,1.3674-.3785,2.0573-1.0866,3.5773-3.2477,7.5148-15.0724,20.6398-6.5686,8.1558,6.8555,7.466,9.1326,13.7782.9218,2.5334-1.7887,4.8532-1.984,7.3927.6654,3.2843,2.9852,2.8203,4.6151,3.6994-7.8017,4.3221,1.923,7.4782,1.3858,13.5279-.2808,3.1622-4.9875,6.6113,1.4041,11.3852,5.6163,4.1939,38.4043.5494,38.4043,23.6799v5.3965c0,3.7788,3.1622,6.8738,7.0325,6.8738"/><g><path class="cls-2" d="m173.4965,116.885c0-9.8163-8.5587-11.8552-15.3715-13.5157-4.6884-1.1416-8.5526-2.0267-8.5526-5.1157,0-2.6799,3.1561-3.9009,6.3061-3.9009,3.6078,0,6.7578,1.7398,6.7578,5.3965h9.5477c0-7.5026-4.3831-12.4901-12.2093-13.6805v-4.2183h-7.6858v4.1939c-7.6369,1.0744-12.3314,5.5186-12.3314,12.6244,0,9.4561,8.1924,11.3669,14.9259,12.9602,4.8166,1.1233,8.8212,2.0145,8.8212,5.3721,0,3.0706-3.559,4.8654-7.1913,4.8654-3.8887,0-7.4538-1.9474-7.4538-6.007h-9.7369c0,8.0581,5.2988,13.3264,13.4974,14.5352v4.5296h7.643v-4.5419c7.4965-1.1233,13.0334-5.6285,13.0334-13.4974m20.4689-8.4977c0,20.2918-16.8183,36.7439-37.5558,36.7439s-37.5619-16.452-37.5619-36.7439,16.8183-36.7439,37.5619-36.7439,37.5558,16.452,37.5558,36.7439"/><path class="cls-4" d="m173.4965,116.885c0-9.8163-8.5587-11.8552-15.3715-13.5157-4.6884-1.1416-8.5526-2.0267-8.5526-5.1157,0-2.6799,3.1561-3.9009,6.3061-3.9009,3.6078,0,6.7578,1.7398,6.7578,5.3965h9.5477c0-7.5026-4.3831-12.4901-12.2093-13.6805v-4.2183h-7.6858v4.1939c-7.6369,1.0744-12.3314,5.5186-12.3314,12.6244,0,9.4561,8.1924,11.3669,14.9259,12.9602,4.8166,1.1233,8.8212,2.0145,8.8212,5.3721,0,3.0706-3.559,4.8654-7.1913,4.8654-3.8887,0-7.4538-1.9474-7.4538-6.007h-9.7369c0,8.0581,5.2988,13.3264,13.4974,14.5352v4.5296h7.643v-4.5419c7.4965-1.1233,13.0334-5.6285,13.0334-13.4974m20.4689-8.4977c0,20.2918-16.8183,36.7439-37.5558,36.7439s-37.5619-16.452-37.5619-36.7439,16.8183-36.7439,37.5619-36.7439,37.5558,16.452,37.5558,36.7439"/></g></g></svg>