<?xml version="1.0" encoding="UTF-8"?><svg id="Layer_1" xmlns="http://www.w3.org/2000/svg" xmlns:xlink="http://www.w3.org/1999/xlink" viewBox="0 0 213.8443 238.0375"><defs><style>.cls-1,.cls-2,.cls-3{fill:none;}.cls-4{clip-path:url(#clippath);}.cls-5{fill:#fff;}.cls-6{fill:#4a9cd6;}.cls-2{stroke-width:3px;}.cls-2,.cls-3{stroke:#fff;}.cls-3{stroke-miterlimit:10;stroke-width:9px;}</style><clipPath id="clippath"><rect class="cls-1" width="213.8418" height="238.0375"/></clipPath></defs><g class="cls-4"><path class="cls-6" d="m115.8447,225.0909h-25.0559c-.325.5162-.7647.8858-.7965,1.2936q-.9495,11.5084-12.8083,11.5148c-7.7041,0-15.4019-.102-23.0996.0255-4.964.0828-7.4811-1.695-7.6786-7.086-.4461-12.2412-5.5057-22.405-13.5348-31.7723-16.2111-18.913-25.6995-40.4514-22.7937-66.17.4588-4.0145,2.1984-5.0341,5.8307-6.5125,9.6604-3.9381,18.3586-2.5999,28.2102.0191,33.6267,8.9595,69.6812-7.9144,85.4781-39.0622,3.2244-6.3596,5.8115-13.1588,7.7551-20.0282,3.1479-11.1197,20.6017-23.0996,32.0846-21.0796,4.8493.8475,6.2003,3.9253,4.2312,8.5134-1.695,3.9572-3.7278,7.8762-4.6709,12.0245-1.6186,7.1306.1593,12.8338,5.6459,18.7664,7.6977,8.335,13.7769,18.2821,19.7478,28.0318,2.2685,3.6959,3.6131,5.9836,8.5134,5.3018,6.2895-.873,10.1638,2.5362,10.457,8.9913.376,8.1629.5544,16.345.4588,24.5206-.0828,7.137-3.4538,10.6609-10.731,10.5525-4.7219-.0701-6.6591,1.7333-8.2075,5.9454-4.4925,12.1838-11.9672,22.4751-21.7423,30.9821-8.9021,7.7487-13.8534,17.1479-12.974,29.1214.4715,6.5316-2.2431,9.2271-8.8129,8.9786-8.1693-.3122-16.3832-.4524-24.5334.0255-7.4301.4461-10.954-2.2048-10.2658-9.8261.0828-.8858-.4015-1.8161-.7073-3.0715"/><path class="cls-5" d="m170.8938,112.2902c0,4.8047-3.8999,8.6982-8.7046,8.6982s-8.6982-3.8935-8.6982-8.6982,3.8935-8.7046,8.6982-8.7046,8.7046,3.8998,8.7046,8.7046"/><path class="cls-2" d="m43.2501,71.6712c2.8803,0,5.6968-.0446,8.5007.051.3823.0127.9558.6627,1.0769,1.1152,2.3386,8.7747,12.7,12.7382,20.4105,7.7742,1.9181-1.2362,2.9759-2.9822,2.8739-5.3081-.102-2.2494-1.3446-3.7724-3.3837-4.4797-2.893-.9941-5.8625-1.746-8.7747-2.6827-4.1101-1.3254-8.3987-2.3131-12.2539-4.1802-9.1825-4.4479-8.1502-16.2048-2.6955-21.2134,2.6636-2.4406,5.7542-3.9891,9.259-4.6773,1.2681-.2485,1.6313-.7456,1.6186-2.02-.0446-4.2376.0064-4.2376,4.3395-4.2376,4.6072,0,4.6518,0,4.7028,4.5944.0127,1.1598.4461,1.4911,1.4975,1.7588,8.1757,2.0965,12.8529,7.1943,13.8916,15.045.0765.5926.0892,1.1916.1466,1.9436h-9.259c-.1274-.4779-.2613-.9431-.3632-1.4083-.9304-4.1356-3.5175-6.6909-7.685-7.0541-2.7656-.2421-5.6459.0573-8.386.5799-1.2681.2358-2.5744,1.3828-3.4156,2.4597-1.6568,2.1347-1.0259,4.9385,1.4847,6.0983,2.3832,1.1088,4.9895,1.7588,7.5321,2.4852,3.6513,1.0514,7.3728,1.8607,10.9859,3.0268,2.8357.9176,5.3145,2.5489,7.3218,4.843,4.1802,4.792,4.1038,13.0887-.3314,18.3714-3.0651,3.6577-7.0796,5.5821-11.6741,6.3596-1.37.2358-1.7651.7201-1.746,2.0774.051,4.0464-.0064,4.0464-3.9954,4.0464-4.913,0-4.9704,0-5.0469-4.8238-.0191-1.2745-.6627-1.4274-1.6122-1.6632-8.9021-2.1857-14.0127-8.0164-15.0068-17.0969-.0637-.5225-.0127-1.0578-.0127-1.7842Zm45.186,32.2566v-2.3578c0-9.1825-.0064-18.365,0-27.5538,0-3.2499,1.0642-4.0146,4.3077-3.9253,5.3527.1466,10.7182.0127,16.0837-.0127,2.5234-.0127,5.0469-.0956,7.5703-.0574,1.8097.0255,2.8484,1.3318,2.8548,3.4793.0127,8.6982.0064,17.3964.0064,26.101v4.1802c.6627.051,1.2299.1274,1.8034.1338,2.1156.0127,4.2312.0191,6.3404.0064,1.3382-.0127,2.3705.4716,2.893,1.7524.5225,1.2745.0828,2.3386-.8539,3.269-7.7806,7.7742-15.5421,15.5548-23.3354,23.3163-1.5548,1.5548-3.0077,1.5485-4.5753-.0127-7.7933-7.7551-15.5548-15.5484-23.3354-23.3099-.9558-.9558-1.3063-2.0646-.822-3.3009.5034-1.2681,1.5867-1.7269,2.9185-1.7142,2.6445.0191,5.2826.0064,8.1438.0064Zm30.7145-39.6103h-12.2858c-.3059-2.5234-.4907-5.0341-.9304-7.5066-3.5621-20.111-21.3855-34.831-41.8915-34.6526-20.4997.1784-38.0554,15.2171-41.2925,35.3727-4.244,26.4068,16.3386,49.8697,43.0704,49.0604,1.3828-.0446,2.3514.2995,3.3136,1.3,3.0141,3.1288,6.1302,6.1493,9.2717,9.2717-13.5348,4.5371-37.5711,2.7401-54.4259-15.695C6.928,82.8164,4.7741,55.3454,18.7104,34.0874,32.277,13.3838,58.6711,4.4179,82.1785,12.5108c23.8643,8.2139,37.3481,30.7018,36.9721,51.8068Z"/><path class="cls-6" d="m119.1506,64.3176h-12.2858c-.3059-2.5234-.4907-5.0341-.9304-7.5066-3.5621-20.111-21.3855-34.831-41.8915-34.6526-20.4997.1784-38.0554,15.2171-41.2925,35.3727-4.244,26.4068,16.3386,49.8697,43.0704,49.0604,1.3828-.0446,2.3514.2995,3.3136,1.3,3.0141,3.1288,6.1302,6.1493,9.2717,9.2717-13.5348,4.5371-37.5711,2.7401-54.4259-15.695C6.928,82.8164,4.7741,55.3454,18.7104,34.0874,32.277,13.3838,58.6711,4.4179,82.1785,12.5108c23.8643,8.2139,37.3481,30.7018,36.9721,51.8068"/><g><path class="cls-3" d="m88.4342,103.9253v-29.9052c0-3.2562,1.0642-4.0146,4.3077-3.9317,5.3591.1466,10.7246.0191,16.0837-.0127,2.5234-.0064,5.0469-.0956,7.5703-.0574,1.8097.0255,2.8548,1.3318,2.8548,3.4793.0191,8.7046.0127,17.4028.0127,26.101v4.1802c.6564.051,1.2299.1338,1.797.1338,2.1156.0191,4.2312.0191,6.3468.0064,1.3318-.0064,2.3705.4779,2.8866,1.7524.5225,1.2808.0828,2.3386-.8539,3.2754-7.7742,7.7678-15.542,15.5548-23.329,23.3099-1.5612,1.5548-3.0141,1.5548-4.5817-.0064-7.7933-7.7615-15.5484-15.5484-23.3354-23.3163-.9558-.9558-1.3063-2.0583-.8157-3.2945.5034-1.2745,1.5803-1.7269,2.9185-1.7205,2.6381.0191,5.2826.0064,8.1374.0064"/><path class="cls-6" d="m88.4342,103.9253v-29.9052c0-3.2562,1.0642-4.0146,4.3077-3.9317,5.3591.1466,10.7246.0191,16.0837-.0127,2.5234-.0064,5.0469-.0956,7.5703-.0574,1.8097.0255,2.8548,1.3318,2.8548,3.4793.0191,8.7046.0127,17.4028.0127,26.101v4.1802c.6564.051,1.2299.1338,1.797.1338,2.1156.0191,4.2312.0191,6.3468.0064,1.3318-.0064,2.3705.4779,2.8866,1.7524.5225,1.2808.0828,2.3386-.8539,3.2754-7.7742,7.7678-15.542,15.5548-23.329,23.3099-1.5612,1.5548-3.0141,1.5548-4.5817-.0064-7.7933-7.7615-15.5484-15.5484-23.3354-23.3163-.9558-.9558-1.3063-2.0583-.8157-3.2945.5034-1.2745,1.5803-1.7269,2.9185-1.7205,2.6381.0191,5.2826.0064,8.1374.0064"/></g><path class="cls-6" d="m43.2533,71.6712c2.8803,0,5.6905-.0446,8.5007.051.3823.0127.9495.6627,1.0705,1.1151,2.345,8.7747,12.7,12.7382,20.4169,7.7742,1.9181-1.2362,2.9759-2.9822,2.8675-5.3081-.102-2.2494-1.3446-3.7724-3.3837-4.4797-2.8867-1.0004-5.8625-1.746-8.7747-2.6827-4.1101-1.3254-8.3923-2.3132-12.2476-4.1802-9.1889-4.4479-8.1502-16.2048-2.6955-21.2134,2.6572-2.4406,5.7542-3.9891,9.2526-4.6773,1.2745-.2485,1.6377-.7456,1.6249-2.02-.051-4.2376.0064-4.2376,4.3395-4.2376,4.6072,0,4.6454,0,4.7028,4.5944.0127,1.1534.4397,1.4911,1.4975,1.7588,8.1757,2.0965,12.8466,7.1943,13.8853,15.045.0765.5926.0956,1.1916.1529,1.9436h-9.259c-.1274-.4779-.2613-.9431-.3696-1.4083-.924-4.1356-3.5111-6.6909-7.6786-7.0541-2.772-.2421-5.6459.0574-8.3923.5799-1.2617.2358-2.5744,1.3764-3.4156,2.4597-1.6568,2.1347-1.0196,4.9385,1.4848,6.0983,2.3832,1.1024,4.9895,1.7588,7.5321,2.4852,3.6513,1.0514,7.3791,1.8607,10.9859,3.0268,2.842.9176,5.3209,2.5489,7.3218,4.843,4.1802,4.792,4.1101,13.0887-.325,18.3714-3.0651,3.6577-7.086,5.5821-11.6741,6.3596-1.3764.2358-1.7651.7201-1.746,2.071.051,4.0528-.0064,4.0528-4.0018,4.0528-4.9067,0-4.964,0-5.0405-4.8238-.0191-1.2745-.6691-1.4274-1.6122-1.6632-8.9085-2.1857-14.0127-8.0164-15.0132-17.0969-.0574-.5225-.0064-1.0578-.0064-1.7842"/></g></svg>