<?xml version="1.0" encoding="UTF-8"?><svg id="Layer_1" xmlns="http://www.w3.org/2000/svg" viewBox="0 0 242.0899 210.6113"><defs><style>.cls-1{fill:#4a9cd5;}.cls-2{fill:none;stroke:#fff;stroke-width:9px;}</style></defs><path class="cls-1" d="m184.8136,78.9611v-27.425c19.2503,13.9836,38.11,27.6835,57.2763,41.606-19.0949,13.8746-37.9174,27.5513-57.1056,41.4937v-27.3048c-3.6512,0-7.0121-.0445-10.3713.0104-5.1131.0835-10.2631-.1121-15.3285.4416-7.382.807-13.2657,4.6403-17.9346,10.3638-.4397.5391-.8759,1.081-1.4264,1.7608-9.1444-5.4141-18.7826-7.0604-29.3333-3.7245.2537-.9191.3567-1.4958.5682-2.0295,8.0765-20.3764,28.9275-34.8187,50.857-35.1582,6.7738-.1049,13.5504-.028,20.3257-.0342.7694-.0007,1.5388-.0001,2.4725-.0001Z"/><path class="cls-1" d="m96.1749,113.6901c-5.5768-4.2163-11.5771-6.4396-18.3655-6.3707-5.6734.0576-11.3478.0117-17.0217.0116-1.0922,0-2.1844,0-3.5548,0v27.3883c-19.2465-13.9796-38.0711-27.6526-57.2329-41.5706,19.0701-13.8554,37.894-27.532,57.0743-41.4675v27.2799c1.2146,0,2.1319-.014,3.0486.0022,8.5821.1513,17.1903-.0544,25.739.5629,8.8697.6404,16.817,4.265,24.3258,9.3796-6.3167,7.3676-10.8299,15.5697-14.0129,24.7843Z"/><path class="cls-1" d="m135.22,57.5559c0,4.156-.0628,7.852.0338,11.5438.0342,1.3085-.4514,1.8741-1.5706,2.4857-3.7866,2.0695-7.5229,4.2433-11.1708,6.5476-1.1275.7123-1.7619.6854-2.8712-.011-3.7226-2.3371-7.5917-4.4404-11.3231-6.7643-.6851-.4267-1.3719-1.4516-1.4025-2.2263-.1458-3.6917-.0653-7.3923-.0653-11.3538h-27.4386c14.0041-19.4397,27.6861-38.4322,41.6224-57.7778,13.8503,19.2186,27.5361,38.209,41.4789,57.5559h-27.2932Z"/><g><g><path class="cls-2" d="m119.2167,166.2929c-.0044,1.3527.0707,2.7133-.0599,4.0538-.0438.4494-.5348,1.1082-.9516,1.2315-11.3262,3.3525-22.6559,3.2858-33.9834-.0504-.8204-.2417-1.0413-.6449-1.0255-1.4372.0477-2.3925.0817-4.7873.0308-7.1793-.094-4.4156,3.6038-7.4235,7.7763-7.3947,2.2223.0154,4.476.7234,6.6491,1.3494,3.0407.8759,5.8877.5401,8.8165-.5452,4.2266-1.5662,9.3469-1.1031,11.778,3.0258.5508.9355.8065,2.109.9464,3.2051.1567,1.2281.0274,2.4926.0234,3.7413Z"/><path class="cls-2" d="m91.7936,145.8773c.0375-5.7237,3.8373-10.2102,8.709-10.578,5.9594-.4499,10.9571,4.9444,10.2745,11.1817-.4625,4.2259-2.3543,7.5067-6.5764,9.0025-5.5851,1.9788-11.5943-2.1071-12.3243-8.3492-.0602-.5147-.0688-1.0354-.0827-1.257Z"/></g><g><path class="cls-1" d="m119.2167,166.2929c-.0044,1.3527.0707,2.7133-.0599,4.0538-.0438.4494-.5348,1.1082-.9516,1.2315-11.3262,3.3525-22.6559,3.2858-33.9834-.0504-.8204-.2417-1.0413-.6449-1.0255-1.4372.0477-2.3925.0817-4.7873.0308-7.1793-.094-4.4156,3.6038-7.4235,7.7763-7.3947,2.2223.0154,4.476.7234,6.6491,1.3494,3.0407.8759,5.8877.5401,8.8165-.5452,4.2266-1.5662,9.3469-1.1031,11.778,3.0258.5508.9355.8065,2.109.9464,3.2051.1567,1.2281.0274,2.4926.0234,3.7413Z"/><path class="cls-1" d="m91.7936,145.8773c.0375-5.7237,3.8373-10.2102,8.709-10.578,5.9594-.4499,10.9571,4.9444,10.2745,11.1817-.4625,4.2259-2.3543,7.5067-6.5764,9.0025-5.5851,1.9788-11.5943-2.1071-12.3243-8.3492-.0602-.5147-.0688-1.0354-.0827-1.257Z"/></g></g><g><g><path class="cls-2" d="m98.5079,195.3742c-.0058,1.7752.0928,3.5606-.0786,5.3197-.0575.5898-.7019,1.4543-1.2488,1.6161-14.8631,4.3994-29.731,4.3119-44.5959-.0662-1.0766-.3171-1.3665-.8463-1.3458-1.8861.0626-3.1397.1072-6.2823.0404-9.4213-.1233-5.7945,4.7292-9.7417,10.2048-9.7039,2.9163.0201,5.8738.9493,8.7255,1.7707,3.9903,1.1494,7.7264.7088,11.5698-.7154,5.5465-2.0554,12.2658-1.4475,15.456,3.9706.7228,1.2276,1.0584,2.7677,1.2419,4.206.2056,1.6116.0359,3.271.0307,4.9096Z"/><path class="cls-2" d="m62.5211,168.5831c.0492-7.5111,5.0357-13.3987,11.4286-13.8814,7.8204-.5904,14.3789,6.4885,13.483,14.6736-.607,5.5456-3.0895,9.8509-8.6301,11.8139-7.3292,2.5967-15.215-2.7651-16.173-10.9565-.079-.6754-.0902-1.3587-.1085-1.6495Z"/></g><g><path class="cls-1" d="m98.5079,195.3742c-.0058,1.7752.0928,3.5606-.0786,5.3197-.0575.5898-.7019,1.4543-1.2488,1.6161-14.8631,4.3994-29.731,4.3119-44.5959-.0662-1.0766-.3171-1.3665-.8463-1.3458-1.8861.0626-3.1397.1072-6.2823.0404-9.4213-.1233-5.7945,4.7292-9.7417,10.2048-9.7039,2.9163.0201,5.8738.9493,8.7255,1.7707,3.9903,1.1494,7.7264.7088,11.5698-.7154,5.5465-2.0554,12.2658-1.4475,15.456,3.9706.7228,1.2276,1.0584,2.7677,1.2419,4.206.2056,1.6116.0359,3.271.0307,4.9096Z"/><path class="cls-1" d="m62.5211,168.5831c.0492-7.5111,5.0357-13.3987,11.4286-13.8814,7.8204-.5904,14.3789,6.4885,13.483,14.6736-.607,5.5456-3.0895,9.8509-8.6301,11.8139-7.3292,2.5967-15.215-2.7651-16.173-10.9565-.079-.6754-.0902-1.3587-.1085-1.6495Z"/></g></g><g><g><path class="cls-2" d="m174.605,194.2246c-.0093,2.8534.1491,5.7233-.1264,8.5509-.0924.948-1.1282,2.3376-2.0073,2.5977-23.891,7.0717-47.7896,6.931-71.6833-.1064-1.7306-.5097-2.1965-1.3604-2.1632-3.0316.1007-5.0467.1723-10.0982.0649-15.1439-.1982-9.314,7.6016-15.6589,16.4031-15.598,4.6876.0324,9.4415,1.526,14.0254,2.8463,6.414,1.8475,12.4194,1.1394,18.5972-1.1499,8.9155-3.3038,19.7161-2.3268,24.844,6.3824,1.1619,1.9733,1.7013,4.4487,1.9963,6.7608.3304,2.5904.0577,5.2578.0493,7.8917Z"/><path class="cls-2" d="m116.7598,151.1606c.0791-12.0734,8.0943-21.5371,18.3704-22.3129,12.5705-.9491,23.1126,10.4296,21.6726,23.5863-.9756,8.9139-4.966,15.8343-13.8721,18.9896-11.781,4.1739-24.4565-4.4446-25.9964-17.6115-.127-1.0856-.1451-2.184-.1745-2.6514Z"/></g><g><path class="cls-1" d="m174.605,194.2246c-.0093,2.8534.1491,5.7233-.1264,8.5509-.0924.948-1.1282,2.3376-2.0073,2.5977-23.891,7.0717-47.7896,6.931-71.6833-.1064-1.7306-.5097-2.1965-1.3604-2.1632-3.0316.1007-5.0467.1723-10.0982.0649-15.1439-.1982-9.314,7.6016-15.6589,16.4031-15.598,4.6876.0324,9.4415,1.526,14.0254,2.8463,6.414,1.8475,12.4194,1.1394,18.5972-1.1499,8.9155-3.3038,19.7161-2.3268,24.844,6.3824,1.1619,1.9733,1.7013,4.4487,1.9963,6.7608.3304,2.5904.0577,5.2578.0493,7.8917Z"/><path class="cls-1" d="m116.7598,151.1606c.0791-12.0734,8.0943-21.5371,18.3704-22.3129,12.5705-.9491,23.1126,10.4296,21.6726,23.5863-.9756,8.9139-4.966,15.8343-13.8721,18.9896-11.781,4.1739-24.4565-4.4446-25.9964-17.6115-.127-1.0856-.1451-2.184-.1745-2.6514Z"/></g></g></svg>