<?xml version="1.0" encoding="UTF-8"?><svg id="Layer_1" xmlns="http://www.w3.org/2000/svg" xmlns:xlink="http://www.w3.org/1999/xlink" viewBox="0 0 230.4304 192.3413"><defs><style>.cls-1,.cls-2,.cls-3,.cls-4{fill:none;}.cls-5{clip-path:url(#clippath);}.cls-6{fill:#fff;}.cls-7{fill:#4a9cd6;}.cls-2{stroke-width:10px;}.cls-2,.cls-3,.cls-4{stroke:#fff;}.cls-2,.cls-4{stroke-miterlimit:10;}.cls-3{stroke-width:3px;}.cls-4{stroke-width:7px;}</style><clipPath id="clippath"><rect class="cls-1" width="230.4304" height="192.3413"/></clipPath></defs><g class="cls-5"><path class="cls-7" d="m115.4688,60.5228v-.0272c-27.2973,0-54.6001,0-81.8974.0054-5.214,0-6.6587,1.4447-6.6587,6.6641-.0054,29.1657-.0054,58.3367,0,87.5078,0,4.7469,1.6511,6.4088,6.3111,6.4088,54.6001.0054,109.2055,0,163.8056-.0054,5.3823,0,6.8108-1.4338,6.8108-6.8379.0054-28.8561,0-57.7176-.0054-86.5737,0-5.8657-1.2709-7.1421-7.0823-7.1421-27.0964-.0054-54.1873,0-81.2836,0M14.8772,173.4433v-3.5466c0-36.5413-.0054-73.0879,0-109.6292.0054-8.9072,3.4977-12.3289,12.5027-12.3289,59.07,0,118.1399.0054,177.2153.0109,7.4191.0054,11.2644,3.8779,11.2698,11.3567.0054,36.8563-.0054,73.7125-.0054,110.5634v3.5737H14.8772Z"/><path class="cls-7" d="m0,175.8912h85.9165c.9396,4.9424,4.2907,6.0721,8.9181,6.0124,13.9039-.1847,27.8133-.0652,41.7226-.0652,5.176,0,6.4632-.8907,8.3641-5.8929h85.3516c1.3089,7.8481-5.8223,15.7288-14.6643,16.3588-.7224.0543-1.4556.0326-2.1779.0326-65.4951,0-130.9847.0054-196.4744-.0054-8.3912,0-14.61-4.6871-16.462-12.394-.2879-1.1786-.3041-2.4278-.4942-4.0463"/><path class="cls-6" d="m163.1506,69.7966c0,24.0766-19.5198,43.5964-43.5964,43.5964s-43.591-19.5198-43.591-43.5964,19.5144-43.5964,43.591-43.5964,43.5964,19.5198,43.5964,43.5964"/><path class="cls-3" d="m125.4302,71.2913c-.9016,2.5364-2.5364,4.345-5.0782,5.214-4.0028,1.3741-8.3858-.7223-9.8794-4.6871-1.4882-3.9376.3639-8.3315,4.2146-10.0152,3.8942-1.7,8.4564-.0434,10.2161,3.8399.4345.9505.9396,1.1351,1.8629,1.1351,7.0932-.0326,14.1809-.0217,21.2687-.0163.3313,0,.6572-.0163.983.0054,1.4719.0978,2.3843.9993,2.3517,2.3191-.0272,1.3198-.9722,2.1942-2.4658,2.1996-6.5446.0109-13.0838.0054-19.6284.0054h-3.8453Zm31.7455-1.4936h-2.4766c-.0652-.4725-.0978-.9016-.1901-1.3144-.592-2.6504-2.8025-4.3884-5.6213-4.3993-6.7619-.0109-13.5292-.0163-20.291.0163-.7658,0-1.2275-.1955-1.6891-.8473-2.2214-3.1664-5.3661-4.6709-9.2602-4.8609v-28.1066c20.4811-.7061,39.9249,17.217,39.5284,39.5121Zm-38.2141-42.5862c-23.9137.1412-43.151,19.4709-42.999,43.1945.1521,23.7888,19.4492,43.0641,43.0316,42.9718,23.93-.0869,43.2162-19.4655,43.0533-43.2488-.1684-23.7833-19.5252-43.0641-43.0859-42.9175Zm-3.0143,92.787c-1.9389-.277-3.8888-.4942-5.8114-.8473-11.5576-2.1073-21.1872-7.6526-28.818-16.5544-7.9296-9.2439-12.1714-20.0412-11.927-32.2126.4073-20.5843,10.064-35.6017,28.3727-44.9814,4.9913-2.5581,10.3899-3.8996,15.9624-4.5188.2064-.0217.4182-.0597.7549-.1086v-2.8948c-.3313-.0434-.6029-.0815-.8799-.1195-1.9607-.2553-3.4054-1.6891-3.6118-3.6552-.076-.7495-.076-1.5316.0054-2.2811.2227-2.091,1.852-3.6172,3.9539-3.6444,3.3836-.0434,6.7673-.0434,10.1509.0054,2.0476.0272,3.6987,1.537,3.8942,3.5683.0978,1.0319.1358,2.1508-.1466,3.1284-.5757,1.977-2.1073,2.8677-4.2255,2.9329v2.9926c11.0417,1.1297,20.7418,5.4258,29.0082,12.9209.9993-1.0374,1.9498-2.0258,2.922-3.0306-.9396-1.6945-.9287-2.5255.1032-3.6552,1.499-1.6511,2.8677-1.6782,4.4645-.0869,1.1894,1.1786,2.368,2.368,3.552,3.5466.8473.8473,1.2112,1.814.7169,2.9709-.5268,1.2329-1.8738,2.1562-3.0904,1.9987-.6572-.0815-1.0645.0869-1.5153.5486-.831.8527-1.7434,1.6402-2.6341,2.4658,2.8242,3.4814,5.1162,7.0497,6.9139,10.9276,2.8297,6.1156,4.383,12.5353,4.5785,19.2754.0217.5757.1032,1.1514.1521,1.7271v.4345c-.0543.4291-.1521.8473-.1629,1.2763-.1086,3.9757-.6409,7.9133-1.8412,11.6989-6.083,19.2265-18.993,31.0394-38.7192,35.3138-1.9009.4128-3.8562.5757-5.7897.8581h-6.3328Z"/><g><path class="cls-2" d="m118.9616,27.2115c-23.9137.1412-43.151,19.4709-42.999,43.1945.1521,23.7888,19.4492,43.0641,43.0316,42.9718,23.93-.0869,43.2162-19.4655,43.0533-43.2488-.1684-23.7833-19.5252-43.0641-43.0859-42.9175m-3.0143,92.787c-1.9389-.277-3.8888-.4942-5.8114-.8473-11.5576-2.1073-21.1872-7.6526-28.818-16.5544-7.9296-9.2439-12.1714-20.0412-11.927-32.2126.4073-20.5843,10.064-35.6017,28.3727-44.9814,4.9913-2.5581,10.3899-3.8996,15.9624-4.5188.2064-.0217.4182-.0597.7549-.1086v-2.8948c-.3313-.0434-.6029-.0815-.8799-.1195-1.9607-.2553-3.4054-1.6891-3.6118-3.6552-.076-.7495-.076-1.5316.0054-2.2811.2227-2.091,1.852-3.6172,3.9539-3.6444,3.3836-.0434,6.7673-.0434,10.1509.0054,2.0476.0272,3.6987,1.537,3.8942,3.5683.0978,1.0319.1358,2.1508-.1466,3.1284-.5757,1.977-2.1073,2.8677-4.2255,2.9329v2.9926c11.0417,1.1297,20.7418,5.4258,29.0082,12.9209.9993-1.0374,1.9498-2.0258,2.922-3.0306-.9396-1.6945-.9287-2.5255.1032-3.6552,1.499-1.6511,2.8677-1.6782,4.4645-.0869,1.1894,1.1786,2.368,2.368,3.552,3.5466.8473.8473,1.2112,1.814.7169,2.9709-.5268,1.2329-1.8738,2.1562-3.0904,1.9987-.6572-.0815-1.0645.0869-1.5153.5486-.831.8527-1.7434,1.6402-2.6341,2.4658,2.8242,3.4814,5.1162,7.0497,6.9139,10.9276,2.8297,6.1156,4.383,12.5353,4.5785,19.2754.0217.5757.1032,1.1514.1521,1.7271v.4345c-.0543.4291-.1521.8473-.1629,1.2763-.1086,3.9757-.6409,7.9133-1.8412,11.6989-6.083,19.2265-18.993,31.0394-38.7192,35.3138-1.9009.4128-3.8562.5757-5.7897.8581h-6.3328Z"/><path class="cls-7" d="m118.9616,27.2115c-23.9137.1412-43.151,19.4709-42.999,43.1945.1521,23.7888,19.4492,43.0641,43.0316,42.9718,23.93-.0869,43.2162-19.4655,43.0533-43.2488-.1684-23.7833-19.5252-43.0641-43.0859-42.9175m-3.0143,92.787c-1.9389-.277-3.8888-.4942-5.8114-.8473-11.5576-2.1073-21.1872-7.6526-28.818-16.5544-7.9296-9.2439-12.1714-20.0412-11.927-32.2126.4073-20.5843,10.064-35.6017,28.3727-44.9814,4.9913-2.5581,10.3899-3.8996,15.9624-4.5188.2064-.0217.4182-.0597.7549-.1086v-2.8948c-.3313-.0434-.6029-.0815-.8799-.1195-1.9607-.2553-3.4054-1.6891-3.6118-3.6552-.076-.7495-.076-1.5316.0054-2.2811.2227-2.091,1.852-3.6172,3.9539-3.6444,3.3836-.0434,6.7673-.0434,10.1509.0054,2.0476.0272,3.6987,1.537,3.8942,3.5683.0978,1.0319.1358,2.1508-.1466,3.1284-.5757,1.977-2.1073,2.8677-4.2255,2.9329v2.9926c11.0417,1.1297,20.7418,5.4258,29.0082,12.9209.9993-1.0374,1.9498-2.0258,2.922-3.0306-.9396-1.6945-.9287-2.5255.1032-3.6552,1.499-1.6511,2.8677-1.6782,4.4645-.0869,1.1894,1.1786,2.368,2.368,3.552,3.5466.8473.8473,1.2112,1.814.7169,2.9709-.5268,1.2329-1.8738,2.1562-3.0904,1.9987-.6572-.0815-1.0645.0869-1.5153.5486-.831.8527-1.7434,1.6402-2.6341,2.4658,2.8242,3.4814,5.1162,7.0497,6.9139,10.9276,2.8297,6.1156,4.383,12.5353,4.5785,19.2754.0217.5757.1032,1.1514.1521,1.7271v.4345c-.0543.4291-.1521.8473-.1629,1.2763-.1086,3.9757-.6409,7.9133-1.8412,11.6989-6.083,19.2265-18.993,31.0394-38.7192,35.3138-1.9009.4128-3.8562.5757-5.7897.8581h-6.3328Z"/></g><path class="cls-7" d="m157.1773,69.7966h-2.4766c-.0706-.4725-.0978-.9016-.1901-1.3143-.592-2.645-2.8025-4.3884-5.6213-4.3993-6.7619-.0109-13.5292-.0163-20.291.0163-.7658,0-1.2275-.1901-1.6891-.8473-2.2214-3.1664-5.3661-4.6708-9.2602-4.8609v-28.1066c20.4811-.7061,39.9249,17.217,39.5284,39.5121"/><path class="cls-7" d="m125.4286,71.2897c-.8962,2.5418-2.5364,4.345-5.0728,5.214-4.0082,1.3741-8.3912-.7223-9.8848-4.6871-1.4827-3.9376.3693-8.3315,4.2201-10.0097,3.8888-1.7,8.451-.0435,10.2161,3.8344.4291.9505.9342,1.1406,1.8629,1.1351,7.0877-.0326,14.1755-.0163,21.2687-.0163.3259,0,.6517-.0163.9776.0054,1.4719.0978,2.3843.9993,2.3571,2.3246-.0326,1.3144-.9722,2.1888-2.4658,2.1942-6.5446.0109-13.0893.0054-19.6339.0054h-3.8453Z"/><path class="cls-3" d="m135.7414,119.1523c-2.683,5.0456-4.7578,8.9452-7.2235,13.5889-4.6274-14.0832-9.0158-27.444-13.6595-41.5923,14.0832,4.6057,27.5526,9.0158,41.6412,13.6215-4.4102,2.3409-8.212,4.3613-12.5461,6.6641,5.5073,5.2574,10.781,10.2867,16.0221,15.2889-3.237,3.1881-5.9472,5.8603-9.0213,8.8909-4.7795-5.176-9.7979-10.6017-15.2128-16.462Z"/><g><path class="cls-4" d="m135.7414,119.1523c-2.683,5.0456-4.7578,8.9452-7.2235,13.5889-4.6274-14.0832-9.0158-27.444-13.6595-41.5923,14.0832,4.6057,27.5526,9.0158,41.6412,13.6215-4.4102,2.3409-8.212,4.3613-12.5461,6.6641,5.5073,5.2574,10.781,10.2867,16.0221,15.2889-3.237,3.1881-5.9472,5.8603-9.0213,8.8909-4.7795-5.176-9.7979-10.6017-15.2128-16.462"/><path class="cls-7" d="m135.7414,119.1523c-2.683,5.0456-4.7578,8.9452-7.2235,13.5889-4.6274-14.0832-9.0158-27.444-13.6595-41.5923,14.0832,4.6057,27.5526,9.0158,41.6412,13.6215-4.4102,2.3409-8.212,4.3613-12.5461,6.6641,5.5073,5.2574,10.781,10.2867,16.0221,15.2889-3.237,3.1881-5.9472,5.8603-9.0213,8.8909-4.7795-5.176-9.7979-10.6017-15.2128-16.462"/></g></g></svg>