<?xml version="1.0" encoding="UTF-8"?><svg id="Layer_1" xmlns="http://www.w3.org/2000/svg" xmlns:xlink="http://www.w3.org/1999/xlink" viewBox="0 0 236.184 240.6474"><defs><style>.cls-1{fill:none;}.cls-2{clip-path:url(#clippath);}.cls-3{fill:#dbebf7;}.cls-4{fill:#4a9cd6;}.cls-5{clip-path:url(#clippath-1);}.cls-6{clip-path:url(#clippath-2);}</style><clipPath id="clippath"><rect class="cls-1" width="236.184" height="240.6474"/></clipPath><clipPath id="clippath-1"><rect class="cls-1" width="110.4343" height="239.9734"/></clipPath><clipPath id="clippath-2"><rect class="cls-1" width="236.184" height="240.6474"/></clipPath></defs><g class="cls-2"><path class="cls-3" d="m111.756,20.2926c-36.518,0-72.0113,27.6326-81.0823,61.8055-2.2076,6.3614-.6258,8.4658-.8115,11.8288-.1582.839-.3095,1.678-.4539,2.5171-1.3067,4.3945-3.9063,9.2223-18.0871,25.3219-7.895,10.0132,8.2251,9.1673,10.9623,16.9111,1.1004,3.1085-2.1526,5.9557-2.3864,9.0642.7978,4.03,3.583,3.4661,5.5362,4.5458-9.3599,5.3023,2.3176,9.1742,1.6712,16.5947-.337,3.8856-5.9901,8.1151,1.678,13.9745,6.7465,5.1441,46.0979.674,46.0979,29.0493v6.6159c0,4.649,3.8031,8.4452,8.4383,8.4452h33.6983c4.6421,0,8.4383-3.7962,8.4383-8.4452v-14.841c0-14.057-4.6077-31.2844-28.6711-41.0913l-14.339-5.8388c-21.4913-10.5978-36.2773-29.6614-36.2773-58.2981,0-14.1946,5.2748-28.6436,14.0433-40.3692,11.987-15.2812,30.6173-25.0949,51.5447-25.0949,16.9454,0,32.1234,6.7465,44.021,17.0073,2.4277,2.0976,4.5734,2.7509,6.3614,2.7509,2.1388,0,3.7481-.949,4.6696-1.5199,1.6849-1.0591,3.5211-5.3917-1.6024-9.8-14.5316-12.4959-32.7768-21.1337-53.4497-21.1337"/><path class="cls-3" d="m110.4322,53.1925c-24.8955,0-45.0801,20.1846-45.0801,45.0801s20.1846,45.0801,45.0801,45.0801,45.0801-20.1777,45.0801-45.0801-20.1846-45.0801-45.0801-45.0801m.1307,61.6198c4.3601,0,8.6309-2.2007,8.6309-5.9625,0-4.1263-4.8072-5.2198-10.5909-6.5952-8.0807-1.96-17.922-4.3051-17.922-15.9001,0-8.7203,5.6393-14.1739,14.8135-15.4875v-5.151h9.2155v5.1717c9.3943,1.4648,14.6553,7.5856,14.6553,16.7941h-11.4574c0-4.4977-3.7825-6.6227-8.1082-6.6227-3.7825,0-7.5718,1.4923-7.5718,4.7797,0,3.7962,4.6421,4.8828,10.2677,6.2789,8.177,2.0425,18.4447,4.539,18.4447,16.5878,0,9.6487-6.6434,15.178-15.6388,16.5534v5.5774h-9.1742v-5.5568c-9.8413-1.4855-16.2027-7.9501-16.2027-17.8395h11.6844c0,4.986,4.2845,7.3724,8.9541,7.3724"/></g><g class="cls-5"><path class="cls-4" d="m100.1707,226.9617h16.8492c4.6421,0,8.4383-3.7962,8.4383-8.4383v-14.841c0-14.057-4.6077-31.2844-28.678-41.0913l-14.3321-5.8456c-21.4913-10.5909-36.2773-29.6614-36.2773-58.2981,0-14.1946,5.2748-28.6436,14.0433-40.3692,11.987-15.2743,30.6173-25.0949,51.5447-25.0949,16.9455,0,32.1235,6.7534,44.021,17.0142,5.3298,4.6009,9.3393,2.2832,11.031,1.2241,1.6849-1.0522,3.5211-5.3848-1.6093-9.7931-14.5247-12.4959-32.7699-21.1337-53.4428-21.1337-36.5249,0-72.0113,27.6326-81.0823,61.7986-2.2076,6.3683-.6327,8.4727-.8115,11.8357-.1582.839-.3095,1.678-.4539,2.5171-1.3067,4.3877-3.9063,9.2223-18.0871,25.3219-7.895,10.0132,8.2183,9.1673,10.9623,16.9111,1.1004,3.1085-2.1526,5.9488-2.3864,9.0642.7978,4.03,3.5761,3.4661,5.5362,4.539-9.3668,5.3023,2.3107,9.1811,1.6712,16.6016-.337,3.8856-5.9969,8.1151,1.678,13.9745,6.7397,5.1442,46.0979.6671,46.0979,29.0493v6.6159c0,4.6421,3.7962,8.4383,8.4383,8.4383"/><path class="cls-4" d="m130.9414,108.7005c0-12.042-10.2677-14.5384-18.4447-16.5809-5.6256-1.3961-10.2745-2.4827-10.2745-6.2789,0-3.2873,3.7962-4.7797,7.5787-4.7797,4.3258,0,8.1082,2.1251,8.1082,6.6159h11.4574c0-9.2086-5.2611-15.3224-14.6553-16.7873v-5.1717h-9.2223v5.1441c-9.1673,1.3204-14.8066,6.7741-14.8066,15.4875,0,11.6019,9.8344,13.947,17.922,15.9001,5.7837,1.3823,10.5909,2.4689,10.5909,6.5952,0,3.7687-4.2707,5.9694-8.6309,5.9694-4.6696,0-8.9541-2.3864-8.9541-7.3724h-11.6844c0,9.8894,6.3545,16.354,16.2027,17.8395v5.5499h9.1742v-5.5705c8.9954-1.3754,15.6388-6.9047,15.6388-16.5603m24.5723-10.4259c0,24.8955-20.1846,45.0801-45.0801,45.0801s-45.0801-20.1846-45.0801-45.0801,20.1846-45.0801,45.0801-45.0801,45.0801,20.1846,45.0801,45.0801"/></g><g class="cls-6"><path class="cls-4" d="m172.2466,163.2079c-7.8056,0-14.1258,6.327-14.1258,14.1258,0,7.8056,6.3201,14.1258,14.1258,14.1258,7.7988,0,14.1258-6.3202,14.1258-14.1258,0-7.7988-6.327-14.1258-14.1258-14.1258m22.5504,14.1258c0,12.4546-10.0957,22.5504-22.5504,22.5504s-22.5572-10.0957-22.5572-22.5504,10.1026-22.5504,22.5572-22.5504,22.5504,10.0957,22.5504,22.5504"/><path class="cls-4" d="m213.6337,91.2675c-7.8056,0-14.1258,6.3202-14.1258,14.1258s6.3201,14.1258,14.1258,14.1258c7.7988,0,14.1258-6.3202,14.1258-14.1258s-6.327-14.1258-14.1258-14.1258m22.5504,14.1258c0,12.4546-10.0958,22.5504-22.5504,22.5504s-22.5572-10.0957-22.5572-22.5504,10.1026-22.5504,22.5572-22.5504,22.5504,10.0957,22.5504,22.5504"/><path class="cls-4" d="m172.2466,32.3779c-7.8056,0-14.1258,6.3202-14.1258,14.1258,0,7.7988,6.3201,14.1258,14.1258,14.1258,7.7988,0,14.1258-6.327,14.1258-14.1258,0-7.8056-6.327-14.1258-14.1258-14.1258m22.5504,14.1258c0,12.4546-10.0957,22.5504-22.5504,22.5504s-22.5572-10.0957-22.5572-22.5504,10.1026-22.5572,22.5572-22.5572,22.5504,10.1026,22.5504,22.5572"/><path class="cls-4" d="m106.2701,91.1567h54.1993c4.9034-.0069,9.4287-1.5611,12.9223-4.3189,3.4661-2.7234,5.9969-6.9116,5.9901-11.7394v-10.9073h-10.3089c-.0069,0-.0069,4.9035-.0069,10.9073,0,1.1623-.5639,2.4277-2.0838,3.6587-1.4924,1.1966-3.8444,2.0907-6.5127,2.0838h-54.1993v10.3158Z"/><path class="cls-4" d="m106.2701,135.043h54.1993c2.3933,0,4.5321.9491,6.1001,2.4896,1.568,1.5474,2.4964,3.5899,2.4964,5.8525v13.4931h10.3158v-13.4931c-.0275-10.3708-8.5484-18.651-18.9123-18.6579h-54.1993v10.3158Z"/><path class="cls-4" d="m111.4788,230.3763c0,2.75-1.696,5-3.7688,5s-3.7688-2.25-3.7688-5V13.3616c0-2.75,1.696-5,3.7688-5s3.7688,2.25,3.7688,5v217.0147Z"/></g><polyline class="cls-4" points="107.312 110.5512 193.0639 110.5512 193.0639 100.2353 107.312 100.2353"/></svg>