<?xml version="1.0" encoding="UTF-8"?><svg id="Layer_1" xmlns="http://www.w3.org/2000/svg" xmlns:xlink="http://www.w3.org/1999/xlink" viewBox="0 0 243.0881 168.5069"><defs><style>.cls-1,.cls-2,.cls-3{fill:none;}.cls-4{clip-path:url(#clippath);}.cls-5{fill:#4a9cd6;}.cls-2{stroke:#f2f5fc;stroke-width:2px;}.cls-3{stroke:#f2f7f9;stroke-width:10px;}</style><clipPath id="clippath"><rect class="cls-1" width="243.0875" height="168.5069"/></clipPath></defs><g class="cls-4"><path class="cls-5" d="m160.3771,103.2911l-33.795,27.1492-6.2297,5.0202c-.3642.2861-.8779.2861-1.242,0l-6.2362-5.0202-33.7885-27.1492c-.6308-.5137-1.5867-.078-1.5867.7218v46.8656c0,.5202.4292.9429.9689.9429h82.527c.5397,0,.9689-.4227.9689-.9429v-46.8656c0-.7998-.9559-1.2355-1.5867-.7218m-62.7455,38.373c0,1.1445-.9559,2.0744-2.1394,2.0744h-10.2159c-1.1835,0-2.1394-.9299-2.1394-2.0744v-7.7513c0-1.151.9559-2.0809,2.1394-2.0809h10.2159c1.1835,0,2.1394.9299,2.1394,2.0809v7.7513Zm55.885,4.4934c-.5462.5267-1.2941.8454-2.1199.8454h-14.2606c-1.6582,0-2.9978-1.2941-2.9978-2.9067,0-.7998.3381-1.5282.8779-2.0549.5397-.5267,1.2941-.8519,2.1199-.8519h14.2606c1.6517,0,2.9978,1.3006,2.9978,2.9067,0,.8063-.3381,1.5347-.8779,2.0614m0-11.692c-.5462.5267-1.2941.8519-2.1199.8519h-14.2606c-1.6582,0-2.9978-1.3006-2.9978-2.9133,0-.7998.3381-1.5282.8779-2.0549.5397-.5267,1.2941-.8519,2.1199-.8519h14.2606c1.6517,0,2.9978,1.3006,2.9978,2.9067,0,.8063-.3381,1.5347-.8779,2.0614"/><path class="cls-5" d="m229.9135,4.5624h-100.3576c-7.2636,0-13.1682,5.729-13.1682,12.7845v1.6647h8.3626v-1.6647c0-2.5816,2.1524-4.669,4.8056-4.669h100.3576c2.6596,0,4.8056,2.0874,4.8056,4.669v108.7788l-30.9338,34.2632h-74.2294c-1.5412,0-2.9198-.7023-3.7911-1.8013h-9.0454c1.3461,5.6769,6.5938,9.9168,12.8365,9.9168h100.3576c7.2636,0,13.1746-5.729,13.1746-12.778V17.3469c0-7.0555-5.911-12.7845-13.1746-12.7845"/><path class="cls-5" d="m80.1905,91.4722c-.9104,0-1.3201,1.1055-.6178,1.6647l38.6396,31.0573.8974.7218c.3577.2861.8844.2861,1.242,0l.8974-.7218,38.6396-31.0573c.7023-.5592.2926-1.6647-.6178-1.6647h-79.0805Z"/><path class="cls-5" d="m148.0478,31.0528h74.47c1.6582,0,2.9978-1.3006,2.9978-2.9067s-1.3396-2.9133-2.9978-2.9133h-74.47c-1.6517,0-2.9978,1.3071-2.9978,2.9133s1.3461,2.9067,2.9978,2.9067"/><path class="cls-5" d="m148.0478,54.7939h74.47c1.6582,0,2.9978-1.3006,2.9978-2.9067s-1.3396-2.9133-2.9978-2.9133h-74.47c-1.6517,0-2.9978,1.3071-2.9978,2.9133s1.3461,2.9067,2.9978,2.9067"/><path class="cls-5" d="m148.0478,78.5349h74.47c1.6582,0,2.9978-1.3006,2.9978-2.9067s-1.3396-2.9067-2.9978-2.9067h-74.47c-1.6517,0-2.9978,1.3006-2.9978,2.9067s1.3461,2.9067,2.9978,2.9067"/><path class="cls-2" d="m106.1269,13.044c-.5983-2.3865-2.8547-7.5432-7.7708-6.3662-1.4891.3512-3.9342,2.4646-6.3142,4.8381l22.2396,82.4945c2.8612.8389,5.2478,1.3916,6.0801,1.1835,3.9797-.9754,4.4804-5.5209,3.7521-9.7607L106.1269,13.044Zm-38.9517,74.3269c-7.2571.9429-15.2556,2.5101-21.9664,3.6286l25.1073,24.7822c3.2449,2.5621,8.9348.3251,10.1639.0195.6178-.1496,5.2413-1.2941,7.6343-2.2044.6113-.1496,2.7052-.9299,1.3981-2.2435l-22.3371-23.9823Zm69.9246-16.6276l-8.7137-3.7651c-1.203-.5202-2.5296.0975-2.9653,1.3721-.4292,1.2811.1951,2.7377,1.3916,3.2579l8.7137,3.7651c1.203.5202,2.5296-.0975,2.9653-1.3786.4292-1.2745-.1951-2.7312-1.3916-3.2514Zm-51.7427-52.1004c-2.6401,2.5296-5.2738,5.0657-7.9854,7.2961-4.0317,3.505-8.4536,6.7824-12.6479,9.6957-3.1018,2.0159-6.2037,4.0317-9.4616,5.4493-3.4985,1.7948-7.0685,3.2839-10.7166,4.4804l-13.981,3.3685c-1.2485.2991-2.2045,3.0758-2.289,4.0512l8.3431,33.2943c.3772,1.4956,3.1604,2.0874,4.2463,2.4581l1.9834-.1561,22.8053-3.2319c2.8027-.3707,18.1493.4942,18.4614.4227,5.5209,1.177,10.9637,2.0549,16.244,3.6091.7478.2146,3.9992,1.3981,7.6993,2.6401l-20.7309-75.517c-.9429,1.0404-1.6582,1.8403-1.9703,2.1394ZM25.2452,56.2485c-.6763-2.7052-4.0252-1.5802-5.2738-1.2811-7.1726,1.7297-17.2324,4.8316-12.0302,24.5871.1301.4942.2666.7673.4552,1.1575,5.4558,9.247,13.2592,9.7347,20.5423,8.7007.6243-.1561,4.2073-1.6647,3.6025-4.0642l-7.2961-29.1Zm98.0947-1.073c-.0975,1.3006.9169,2.432,2.263,2.5296l9.7542.6763c1.3526.091,2.5231-.8909,2.6141-2.1914.0976-1.3006-.9169-2.432-2.263-2.5296l-9.7542-.6763c-1.3526-.091-2.5231.8909-2.6141,2.1914Zm-3.2189-14.4427c.2406,1.3266,1.4631,2.1199,2.7312,1.7688l9.1754-2.5231c1.268-.3446,2.1004-1.7037,1.8598-3.0303-.2406-1.3201-1.4631-2.1134-2.7312-1.7688l-9.1754,2.5231c-1.268.3512-2.1004,1.7102-1.8598,3.0303Zm-1.3591-10.8597l7.088-6.7889c.9819-.9364,1.073-2.7182.2081-3.9862-.8714-1.2615-2.367-1.5281-3.3489-.5918l-7.088,6.7889c-.9819.9364-1.0665,2.7182-.2016,3.9862.8649,1.2615,2.3605,1.5282,3.3424.5918Z"/><g><path class="cls-3" d="m106.4924,12.2532c-.5983-2.4255-2.8807-7.6668-7.8489-6.4703-1.5087.3577-3.9797,2.5101-6.3857,4.9161l22.4867,83.834c2.8872.8584,5.2998,1.4176,6.1451,1.203,4.0252-.9949,4.526-5.6119,3.7911-9.9168L106.4924,12.2532Zm-39.3809,75.53c-7.3352.9624-15.4181,2.5556-22.207,3.6936l25.3869,25.1853c3.2839,2.6011,9.0324.3316,10.2744.013.6243-.1496,5.2998-1.3136,7.7188-2.237.6243-.1561,2.7377-.9429,1.4176-2.2825l-22.5907-24.3725Zm70.6984-16.8943l-8.8113-3.8236c-1.216-.5332-2.5556.091-2.9913,1.3916-.4422,1.3006.1886,2.7832,1.4046,3.3099l8.8048,3.8236c1.216.5332,2.5621-.0975,2.9978-1.3916.4357-1.3006-.1951-2.7832-1.4046-3.3099m-52.315-52.9458c-2.6661,2.5686-5.3258,5.1437-8.07,7.4132-4.0773,3.5635-8.5512,6.893-12.7845,9.8517-3.1408,2.0484-6.2752,4.0968-9.5721,5.5404-3.531,1.8208-7.1401,3.3359-10.8272,4.552l-14.1436,3.4205c-1.255.3056-2.224,3.1279-2.3085,4.1163l8.4341,33.834c.3837,1.5282,3.1994,2.1264,4.2918,2.5036l2.0029-.1561,23.0589-3.2904c2.8352-.3707,18.3509.5072,18.663.4292,5.5859,1.203,11.0873,2.0939,16.4261,3.6676.7543.2211,4.0447,1.4241,7.7773,2.6922L87.4912,15.7647c-.9559,1.0665-1.6777,1.8728-1.9964,2.1784M24.7262,56.1601c-.6828-2.7507-4.0708-1.6062-5.3323-1.3006-7.2571,1.7558-17.421,4.9096-12.1667,24.9837.1366.5007.2731.7803.4682,1.177,5.5144,9.3965,13.4023,9.8973,20.7634,8.8373.6308-.1496,4.2528-1.6907,3.6416-4.1228l-7.3742-29.5747Zm99.1676-1.0925c-.0975,1.3201.9299,2.4711,2.289,2.5686l9.8647.6893c1.3656.091,2.5491-.9039,2.6466-2.2239.0975-1.3266-.9299-2.4776-2.289-2.5686l-9.8647-.6893c-1.3656-.0976-2.5491.8974-2.6466,2.2239m-3.2514-14.6768c.2471,1.3526,1.4761,2.1524,2.7572,1.8013l9.2795-2.5621c1.2876-.3577,2.1264-1.7362,1.8858-3.0823-.2471-1.3461-1.4826-2.1524-2.7637-1.8013l-9.2795,2.5686c-1.2811.3512-2.1199,1.7297-1.8793,3.0758m-1.3721-11.0352l7.1661-6.8995c.9949-.9494,1.086-2.7637.2081-4.0512-.8779-1.2876-2.393-1.5542-3.3815-.5983l-7.1661,6.8995c-.9949.9494-1.086,2.7637-.2081,4.0447.8779,1.2876,2.393,1.5542,3.3815.6048"/><path class="cls-5" d="m106.4924,12.2532c-.5983-2.4255-2.8807-7.6668-7.8489-6.4703-1.5087.3577-3.9797,2.5101-6.3857,4.9161l22.4867,83.834c2.8872.8584,5.2998,1.4176,6.1451,1.203,4.0252-.9949,4.526-5.6119,3.7911-9.9168L106.4924,12.2532Zm-39.3809,75.53c-7.3352.9624-15.4181,2.5556-22.207,3.6936l25.3869,25.1853c3.2839,2.6011,9.0324.3316,10.2744.013.6243-.1496,5.2998-1.3136,7.7188-2.237.6243-.1561,2.7377-.9429,1.4176-2.2825l-22.5907-24.3725Zm70.6984-16.8943l-8.8113-3.8236c-1.216-.5332-2.5556.091-2.9913,1.3916-.4422,1.3006.1886,2.7832,1.4046,3.3099l8.8048,3.8236c1.216.5332,2.5621-.0975,2.9978-1.3916.4357-1.3006-.1951-2.7832-1.4046-3.3099m-52.315-52.9458c-2.6661,2.5686-5.3258,5.1437-8.07,7.4132-4.0773,3.5635-8.5512,6.893-12.7845,9.8517-3.1408,2.0484-6.2752,4.0968-9.5721,5.5404-3.531,1.8208-7.1401,3.3359-10.8272,4.552l-14.1436,3.4205c-1.255.3056-2.224,3.1279-2.3085,4.1163l8.4341,33.834c.3837,1.5282,3.1994,2.1264,4.2918,2.5036l2.0029-.1561,23.0589-3.2904c2.8352-.3707,18.3509.5072,18.663.4292,5.5859,1.203,11.0873,2.0939,16.4261,3.6676.7543.2211,4.0447,1.4241,7.7773,2.6922L87.4912,15.7647c-.9559,1.0665-1.6777,1.8728-1.9964,2.1784M24.7262,56.1601c-.6828-2.7507-4.0708-1.6062-5.3323-1.3006-7.2571,1.7558-17.421,4.9096-12.1667,24.9837.1366.5007.2731.7803.4682,1.177,5.5144,9.3965,13.4023,9.8973,20.7634,8.8373.6308-.1496,4.2528-1.6907,3.6416-4.1228l-7.3742-29.5747Zm99.1676-1.0925c-.0975,1.3201.9299,2.4711,2.289,2.5686l9.8647.6893c1.3656.091,2.5491-.9039,2.6466-2.2239.0975-1.3266-.9299-2.4776-2.289-2.5686l-9.8647-.6893c-1.3656-.0976-2.5491.8974-2.6466,2.2239m-3.2514-14.6768c.2471,1.3526,1.4761,2.1524,2.7572,1.8013l9.2795-2.5621c1.2876-.3577,2.1264-1.7362,1.8858-3.0823-.2471-1.3461-1.4826-2.1524-2.7637-1.8013l-9.2795,2.5686c-1.2811.3512-2.1199,1.7297-1.8793,3.0758m-1.3721-11.0352l7.1661-6.8995c.9949-.9494,1.086-2.7637.2081-4.0512-.8779-1.2876-2.393-1.5542-3.3815-.5983l-7.1661,6.8995c-.9949.9494-1.086,2.7637-.2081,4.0447.8779,1.2876,2.393,1.5542,3.3815.6048"/></g></g></svg>