<?xml version="1.0" encoding="UTF-8"?><svg id="Layer_1" xmlns="http://www.w3.org/2000/svg" xmlns:xlink="http://www.w3.org/1999/xlink" viewBox="0 0 228.6875 236.2232"><defs><style>.cls-1{fill:none;}.cls-2{clip-path:url(#clippath);}.cls-3{fill:#4a9cd6;}.cls-4{clip-path:url(#clippath-1);}</style><clipPath id="clippath"><path class="cls-1" d="m169.1493,150.7673c-6.3496,4.2962-14.0073,6.8054-22.2511,6.8054-21.9566,0-39.7559-17.7993-39.7559-39.7559s17.7993-39.7559,39.7559-39.7559c9.1884,0,17.6488,3.1171,24.3814,8.3516,0,0,1.4236-30.8005,1.1685-31.5658s-13.7754-21.4285-13.7754-21.4285L132.9074,0h-29.8468L0,51.7854l15.5611,111.2239,36.4794,49.7446,32.908,23.4693,53.0609-11.9897s20.4081-27.5509,20.6632-29.5917,10.4767-43.8745,10.4767-43.8745Z"/></clipPath><clipPath id="clippath-1"><rect class="cls-1" x="8.4008" y="3.3163" width="220.2867" height="221.9376"/></clipPath></defs><polygon class="cls-3" points="203.3367 101.9844 189.9584 103.8928 199.6389 113.144 197.3541 126.2054 209.3193 120.0379 221.2911 126.2054 218.9998 113.144 228.6868 103.8928 215.3085 101.9844 209.3193 90.0985 203.3367 101.9844"/><polygon class="cls-3" points="205.6446 48.065 210.2999 57.3097 220.7067 58.7954 213.179 65.9864 214.9553 76.1489 205.6446 71.3483 196.3339 76.1489 198.1168 65.9864 190.5824 58.7954 200.9892 57.3097 205.6446 48.065"/><polygon class="cls-3" points="180.5797 14.9507 184.687 23.1124 193.8854 24.4265 187.2292 30.7789 188.8008 39.7528 180.5797 35.5134 172.3586 39.7528 173.9302 30.7789 167.274 24.4265 176.4658 23.1124 180.5797 14.9507"/><polygon class="cls-3" points="180.5797 176.1899 184.687 184.3516 193.8854 185.6656 187.2292 192.018 188.8008 200.992 180.5797 196.7526 172.3586 200.992 173.9302 192.018 167.274 185.6656 176.4658 184.3516 180.5797 176.1899"/><polygon class="cls-3" points="201.3861 140.4699 205.9358 149.5098 216.1181 150.9626 208.7488 157.9951 210.4921 167.9265 201.3861 163.2381 192.2801 167.9265 194.0234 157.9951 186.6541 150.9626 196.8364 149.5098 201.3861 140.4699"/><g class="cls-2"><g class="cls-4"><path class="cls-3" d="m124.5446,198.5533c-9.4229,5.3619-20.1203,10.0965-32.4157,13.9066V18.8176c5.56,2.6413,14.0849,6.6297,24.221,11.1992h23.9106c-5.4808-2.3508-10.77-4.6818-15.7159-6.8873V3.3196l-7.1052,3.48c-.1717.0858-5.494,2.6809-14.0122,6.6627-5.7647,2.7007-12.9821,6.0288-21.1174,9.6673-20.4769,9.1522-46.5864,20.1863-68.9056,27.6349l-2.7206.9047-.5283,2.7668c-.2245,1.1886-19.0506,107.1917,72.1545,155.1186v15.6961l6.2335-1.7037c5.21-1.4329,10.1493-3.0243,14.8839-4.7346,7.6202-2.7602,14.6528-5.8637,21.1174-9.2579,11.2917-5.9298,20.8797-12.7576,29.0414-20.1599h-15.082c-4.2988,3.2158-8.9211,6.2864-13.9594,9.1588"/><path class="cls-3" d="m29.6833,85.7059c0,6.1213-.0066,12.2425.0066,18.3638.0264,13.8934,3.3017,27.0274,9.9314,39.2897,11.4634,21.2165,29.4112,35.4004,51.4399,45.0478.5811.2575,1.4857.2311,2.08-.0264,15.465-6.676,29.0744-15.8942,40.0491-28.5858,13.2991-15.3791,20.6618-33.1619,21.1834-53.3416.3896-15.2273.0792-30.4677.0726-45.695,0-1.9942-.6273-2.4696-2.6611-2.1131-20.7806,3.6847-40.2736.3962-58.3271-10.4795-.9575-.5745-1.7169-.6339-2.7074-.0726-18.2054,10.3672-37.705,13.8802-58.4856,10.5257-2.014-.3236-2.5753.1651-2.5753,2.2121-.0066,8.2938-.0066,16.5809-.0066,24.8747m-11.3049-4.8402c0-8.7758.1651-17.5516-.066-26.3142-.1255-4.8336,3.6648-7.5938,8.34-6.8212,21.5862,3.5658,41.9641-.0462,60.9486-10.7568,3.196-1.8027,5.8439-1.8027,9.0135.1057,15.4122,9.2909,32.2374,13.2132,50.2711,12.0048,3.8101-.2575,7.607-.8848,11.3907-1.4593,4.1139-.6207,7.4617,2.0206,7.4683,6.1279.0198,17.1554.317,34.3241-.066,51.4729-.5151,22.8079-8.6635,43.0008-23.3757,60.6119-12.8699,15.4055-29.0612,26.4925-47.5637,34.4759-1.7103.733-3.4205.8188-5.144.0726-23.7984-10.3012-43.5357-25.3501-57.0329-47.4911-9.456-15.5178-14.2103-32.3695-14.1839-50.4824.0066-7.1844,0-14.3622,0-21.5466"/><path class="cls-3" d="m32.7769,61.7682c10.3672,1.631,20.4967,1.4659,30.58-.383,10.0701-1.8423,19.5392-5.3289,28.5858-10.4597v134.5954c-1.116-.4952-2.1461-.9179-3.1498-1.3933-16.9639-8.0362-31.3856-19.0638-41.8915-34.5816-9.4031-13.8934-14.1641-29.2065-14.1311-45.9195.033-13.3519.0066-26.7038.0066-40.0557v-1.8027Z"/></g></g><path class="cls-3" d="m138.6732,120.536c-2.5555-2.5093-5.1176-5.0185-7.6731-7.5278-1.0829-1.0565-2.5423-1.0697-3.6318-.0198-1.1028,1.0631-2.2055,2.1395-3.2885,3.2224-1.0829,1.0895-1.0895,2.4828.0132,3.5658,4.3582,4.2789,8.7164,8.5579,13.0878,12.8236,1.116,1.0895,2.5687,1.1028,3.678.0132,8.3466-8.1617,16.68-16.3366,25.0134-24.5115.9575-.9377,1.0301-2.2848.1189-3.2686-1.149-1.2348-2.364-2.4234-3.6252-3.5526-1.1226-.9971-2.4036-.9046-3.4601.1321-4.8402,4.7346-9.6673,9.4758-14.5009,14.2103-1.7829,1.7433-3.5592,3.4932-5.4015,5.3025-.1387-.1651-.2245-.2839-.3302-.3896m40.5114-3.5724c0,18.3506-15.181,33.2279-33.9014,33.2279s-33.908-14.8773-33.908-33.2279,15.181-33.2279,33.908-33.2279,33.9014,14.8773,33.9014,33.2279"/></svg>