<?xml version="1.0" encoding="UTF-8"?><svg id="Layer_1" xmlns="http://www.w3.org/2000/svg" xmlns:xlink="http://www.w3.org/1999/xlink" viewBox="0 0 234.7801 217.6973"><defs><style>.cls-1,.cls-2,.cls-3{fill:none;}.cls-2{stroke:#f2f7f9;stroke-width:8px;}.cls-4{clip-path:url(#clippath);}.cls-5{fill:#4a9cd6;}.cls-3{stroke:#f2f5fa;stroke-width:3px;}</style><clipPath id="clippath"><rect class="cls-1" width="234.7801" height="217.6966"/></clipPath></defs><g class="cls-4"><path class="cls-5" d="m77.5395,124.5546c.3094,20.8931,17.1923,37.4152,37.9136,37.1001,20.2687-.3094,36.7965-17.5017,36.4699-37.9537-.3266-20.8931-17.2095-37.4094-37.925-37.0944-20.2687.3036-36.7678,17.473-36.4585,37.948m91.6274-40.6978c-1.1744,2.3947-2.1598,4.5716-3.2884,6.6627-3.2253,5.9924-2.8186,12.1796,1.501,17.4616.9453,1.1572,2.5379,1.9077,3.9758,2.4691,2.2285.8651,4.5831,1.3978,6.8803,2.091,3.0592.9224,4.6461,2.9847,4.6576,6.2215.0172,3.529.0401,7.0637-.0057,10.5927-.0516,3.4488-1.4666,5.3278-4.8065,6.4106-2.3775.7677-4.9497,1.1171-7.1267,2.2514-1.8046.9453-3.1566,2.767-4.7034,4.205-.0688.063-.063.1948-.1146.2807-3.8956,6.1986-3.1394,11.9447,1.0541,17.8167,2.5837,3.6206,1.9192,6.2559-1.1744,9.4297-2.1712,2.2285-4.3482,4.4571-6.5767,6.6226-2.5723,2.5035-4.9555,2.8071-8.1808,1.163-.2635-.1375-.5614-.2463-.7848-.4354-5.6315-4.6175-11.578-4.9841-17.5819-.9739-1.7817,1.1916-3.4488,2.9389-4.4628,4.8237-1.1114,2.0738-1.3692,4.606-2.0739,6.9147-1.0942,3.5863-3.0649,5.0643-6.8345,5.1159-3.2998.0458-6.5996.0573-9.8995-.0057-3.3686-.0688-5.4023-1.6327-6.4564-4.8352-.126-.3781-.1891-.7791-.2979-1.1687-3.4087-11.8186-1.8963-8.7995-12.1452-13.2165-1.6671-.7218-4.1076-.3609-5.9466.2521-2.3259.7734-4.3883,2.3603-6.5996,3.529-3.1967,1.6786-5.6028,1.3406-8.1636-1.1687-2.3717-2.3145-4.7034-4.669-7.0007-7.058-2.4348-2.5264-2.8129-5.1674-1.2718-8.2725.1776-.3552.401-.6989.5901-1.0484,4.7263-8.6219,4.8523-8.6792.7619-17.7251-.802-1.7759-2.8014-3.2998-4.606-4.2451-2.177-1.1343-4.7435-1.4895-7.121-2.2572-3.3514-1.0942-4.7492-2.9561-4.7951-6.4163-.0516-3.529-.0115-7.0637-.0115-10.5927,0-3.1051,1.5067-5.1159,4.3711-6.1413.4755-.1719.9453-.4068,1.4265-.4583,7.2527-.7161,11.3947-4.8065,13.2451-11.8244.6359-2.3889.9682-4.4513-.2979-6.6397-1.2031-2.091-2.3718-4.205-3.4832-6.3476-1.6384-3.1394-1.3062-5.7518,1.0999-8.2725,2.3546-2.4749,4.755-4.9039,7.2012-7.2814,2.4577-2.3832,4.8581-2.6811,7.9345-1.1401.3609.1776.7047.3896,1.0541.5786,8.5016,4.6576,8.5589,4.7893,17.5819.8135,1.776-.7848,3.3514-2.767,4.2795-4.5774,1.1286-2.1941,1.4265-4.8065,2.1655-7.2126,1.0026-3.2712,3.0134-4.8695,6.3533-4.9555,3.4946-.0859,7.0007-.0573,10.4953-.0115,3.1738.0458,5.2763,1.6843,6.2559,4.6977.7161,2.1999,1.3749,4.4284,1.902,6.6799.676,2.9103,2.5608,4.3597,5.093,5.8091,6.1471,3.529,11.515,2.8358,17.1809-1.163,3.9816-2.8129,6.3075-2.1598,9.7849,1.3291,2.1254,2.1311,4.3597,4.1706,6.3075,6.4622,1.0999,1.3005,1.7129,3.0306,2.6582,4.7607"/><path class="cls-5" d="m197.2423,40.9287h.0344c4.2336-.0172,8.4673-.0172,12.8498-.0115h5.1273v7.0293c-.0057,3.7238-.0057,7.5678.0229,11.3546.0229,2.5837,1.5525,4.2623,3.9014,4.2795h.0344c2.3546,0,3.9472-1.6843,3.9644-4.2107.0516-6.0497.0917-12.4889-.0115-18.8537-.0688-4.1592-3.2826-7.4762-7.3158-7.5564-7.035-.1375-13.9269-.0745-19.1401-.0115-1.3119.0229-2.4863.5901-3.2139,1.564-.7104.951-.9338,2.1941-.6015,3.4087.5328,1.9994,1.9994,3.0076,4.3482,3.0076"/><path class="cls-5" d="m215.2246,191.4865v.0344c.0172,4.2737.0172,8.5417.0115,12.9587l-.0057,5.1732h-6.9663c-3.6894-.0057-7.4991-.0057-11.2515.0229-2.5665.0229-4.2279,1.5697-4.2451,3.9357v.0344c0,2.3775,1.6728,3.9816,4.1706,3.9987,5.9981.0516,12.3801.0917,18.699-.0115,4.119-.0687,7.4074-3.3113,7.4876-7.3788.1375-7.0981.0745-14.0472.0057-19.3063-.0115-1.3234-.5786-2.5035-1.5468-3.2425-.9395-.7161-2.177-.9395-3.38-.6073-1.9764.5442-2.979,2.0166-2.979,4.3883"/><path class="cls-3" d="m198.1194,132.1195c-5.7747,0-11.0395-.1031-16.2986.0458-2.3488.063-4.0446-.4469-5.408-2.578-1.2718-1.9765-3.042-3.6264-4.6003-5.4195,1.7129-2.0395,3.2368-4.1763,5.1044-5.9466,1.0369-.9854,2.6295-1.8619,3.9987-1.9134,5.5685-.2177,11.1484-.0917,17.2095-.0917,0-1.9765-.063-3.6779.0115-5.3679.1891-4.2508,4.056-6.3476,7.5392-3.9185,6.1012,4.2508,12.1108,8.6391,18.0688,13.0962,3.191,2.3889,3.2654,5.8148.1432,8.1579-6.0382,4.5258-12.1452,8.9657-18.3438,13.2623-3.4717,2.4119-7.247.2521-7.4189-4.0503-.063-1.6041-.0057-3.2139-.0057-5.2763Zm-34.1784-.9281c9.951,9.8021,15.0955,21.953,15.7372,36.5215,1.8733,0,3.5576-.0859,5.2362.0172,4.4685.2693,6.4908,4.0961,3.9644,7.7912-4.2107,6.1643-8.5417,12.254-12.9759,18.2579-2.3488,3.1738-5.7575,3.0821-8.0834-.126-4.331-5.958-8.6506-11.9218-12.6951-18.0745-.8765-1.3234-1.3004-3.8441-.6187-5.07.7619-1.3807,2.9274-2.1827,4.6404-2.7269,1.3577-.4297,2.9446-.0859,4.7492-.0859.3036-5.9695-1.2317-11.2973-4.0503-16.0007-2.7441-4.5774-6.359-8.6277-9.676-13.016,4.2107-2.2915,8.8855-4.8294,13.7722-7.4876Zm-57.7755-7.1152c-.0344,5.9351,4.7664,10.7588,10.6614,10.713,5.2591-.0401,10.014-4.8695,10.1229-10.2661.1203-5.9351-4.6175-10.7874-10.5468-10.8104-5.5627-.0172-10.2031,4.6805-10.2375,10.3635Zm34.3502-10.2088c14.1503-5.7002,24.0555-19.7932,23.2534-33.2961-1.6499,0-3.3342.1088-5.007-.0229-4.3081-.3265-6.2674-4.0675-3.8326-7.648,4.2565-6.2731,8.662-12.4488,13.142-18.5558,2.1254-2.9045,5.4997-2.9504,7.6538-.0401,4.5086,6.084,8.9313,12.254,13.1649,18.5386,2.5264,3.7581.4297,7.5506-4.0389,7.7454-1.5983.0688-3.1967.0115-4.4341.0115-1.2661,5.6429-1.9765,11.0796-3.7238,16.1497-5.494,15.9663-16.3731,26.7538-32.1389,32.3967-1.9421.6932-2.8243,1.7473-3.4946,3.6493-4.5659,13.0389-16.9574,18.9396-27.2235,17.4501-13.7836-1.9994-22.7264-11.916-23.1389-24.7086-.4354-13.3253,7.7855-24.1414,20.5494-27.0345,10.7588-2.4405,22.4571,2.9618,27.9683,12.9186.4125.7447.802,1.5067,1.3005,2.4462Z"/><g><path class="cls-2" d="m104.9985,124.0762c-.0286,6.0554,4.8753,10.9765,10.902,10.9249,5.3737-.0401,10.2375-4.9612,10.3463-10.4723.126-6.0554-4.7206-11.0051-10.7817-11.0281-5.6888-.0172-10.4322,4.7779-10.4666,10.5755m35.1179-10.4151c14.4711-5.8148,24.594-20.1942,23.769-33.9664-1.6786,0-3.4087.1088-5.1159-.0229-4.4055-.338-6.4049-4.1477-3.9185-7.8027,4.3539-6.3991,8.8511-12.6951,13.4342-18.9339,2.177-2.9561,5.6257-3.0019,7.8256-.0401,4.6117,6.2158,9.1261,12.5004,13.4571,18.9167,2.5837,3.8326.4411,7.6996-4.1305,7.9001-1.627.0745-3.2654.0115-4.5315.0115-1.2947,5.7575-2.0166,11.303-3.804,16.4762-5.62,16.2871-16.7397,27.2923-32.855,33.0498-1.9822.7047-2.8931,1.7759-3.5748,3.718-4.669,13.3024-17.3355,19.3234-27.8308,17.8053-14.0873-2.0395-23.2305-12.1566-23.6545-25.207-.4411-13.5946,7.9631-24.6284,21.0077-27.5787,10.9994-2.4921,22.9613,3.0191,28.5927,13.1764.4239.7619.8192,1.5411,1.3291,2.4978"/><path class="cls-5" d="m104.9985,124.0762c-.0286,6.0554,4.8753,10.9765,10.902,10.9249,5.3737-.0401,10.2375-4.9612,10.3463-10.4723.126-6.0554-4.7206-11.0051-10.7817-11.0281-5.6888-.0172-10.4322,4.7779-10.4666,10.5755m35.1179-10.4151c14.4711-5.8148,24.594-20.1942,23.769-33.9664-1.6786,0-3.4087.1088-5.1159-.0229-4.4055-.338-6.4049-4.1477-3.9185-7.8027,4.3539-6.3991,8.8511-12.6951,13.4342-18.9339,2.177-2.9561,5.6257-3.0019,7.8256-.0401,4.6117,6.2158,9.1261,12.5004,13.4571,18.9167,2.5837,3.8326.4411,7.6996-4.1305,7.9001-1.627.0745-3.2654.0115-4.5315.0115-1.2947,5.7575-2.0166,11.303-3.804,16.4762-5.62,16.2871-16.7397,27.2923-32.855,33.0498-1.9822.7047-2.8931,1.7759-3.5748,3.718-4.669,13.3024-17.3355,19.3234-27.8308,17.8053-14.0873-2.0395-23.2305-12.1566-23.6545-25.207-.4411-13.5946,7.9631-24.6284,21.0077-27.5787,10.9994-2.4921,22.9613,3.0191,28.5927,13.1764.4239.7619.8192,1.5411,1.3291,2.4978"/></g><g><path class="cls-2" d="m164.0608,131.3318c10.1744,10.0026,15.4335,22.3941,16.0924,37.2548,1.9192,0,3.6378-.0859,5.3508.0172,4.5659.2807,6.634,4.1821,4.056,7.9517-4.3081,6.2903-8.7308,12.5004-13.268,18.6245-2.4004,3.2425-5.8835,3.1451-8.261-.126-4.4284-6.0783-8.8454-12.1681-12.9816-18.4355-.8937-1.352-1.3291-3.9243-.6302-5.1789.7791-1.4036,2.9905-2.2228,4.7435-2.7785,1.3864-.4411,3.0134-.0859,4.8523-.0859.3151-6.0898-1.2546-11.5265-4.142-16.3215-2.8071-4.6747-6.4965-8.8053-9.888-13.2795,4.3081-2.3374,9.0802-4.9325,14.0758-7.6423"/><path class="cls-5" d="m164.0608,131.3318c10.1744,10.0026,15.4335,22.3941,16.0924,37.2548,1.9192,0,3.6378-.0859,5.3508.0172,4.5659.2807,6.634,4.1821,4.056,7.9517-4.3081,6.2903-8.7308,12.5004-13.268,18.6245-2.4004,3.2425-5.8835,3.1451-8.261-.126-4.4284-6.0783-8.8454-12.1681-12.9816-18.4355-.8937-1.352-1.3291-3.9243-.6302-5.1789.7791-1.4036,2.9905-2.2228,4.7435-2.7785,1.3864-.4411,3.0134-.0859,4.8523-.0859.3151-6.0898-1.2546-11.5265-4.142-16.3215-2.8071-4.6747-6.4965-8.8053-9.888-13.2795,4.3081-2.3374,9.0802-4.9325,14.0758-7.6423"/></g><g><path class="cls-2" d="m199.0016,132.2788c-5.9007,0-11.2859-.1031-16.6595.0458-2.4004.0687-4.1362-.4526-5.5341-2.6295-1.2947-2.0166-3.105-3.6951-4.6919-5.5283,1.7473-2.0796,3.3055-4.2565,5.2133-6.0611,1.0598-1.0083,2.6868-1.902,4.0904-1.9593,5.6888-.2177,11.3947-.0859,17.5876-.0859,0-2.0223-.063-3.7524.0115-5.4768.1948-4.3367,4.1477-6.4793,7.711-3.9987,6.2387,4.3367,12.3801,8.811,18.4698,13.3597,3.2654,2.4348,3.3399,5.9294.149,8.3183-6.1757,4.6175-12.4144,9.149-18.7506,13.5373-3.5519,2.4519-7.4131.2521-7.585-4.1362-.0688-1.6385-.0115-3.2826-.0115-5.3851"/><path class="cls-5" d="m199.0016,132.2788c-5.9007,0-11.2859-.1031-16.6595.0458-2.4004.0687-4.1362-.4526-5.5341-2.6295-1.2947-2.0166-3.105-3.6951-4.6919-5.5283,1.7473-2.0796,3.3055-4.2565,5.2133-6.0611,1.0598-1.0083,2.6868-1.902,4.0904-1.9593,5.6888-.2177,11.3947-.0859,17.5876-.0859,0-2.0223-.063-3.7524.0115-5.4768.1948-4.3367,4.1477-6.4793,7.711-3.9987,6.2387,4.3367,12.3801,8.811,18.4698,13.3597,3.2654,2.4348,3.3399,5.9294.149,8.3183-6.1757,4.6175-12.4144,9.149-18.7506,13.5373-3.5519,2.4519-7.4131.2521-7.585-4.1362-.0688-1.6385-.0115-3.2826-.0115-5.3851"/></g></g><polygon class="cls-5" points="101.8832 6.807 89.0505 .723 92.1212 14.3061 82.4738 24.2629 96.5668 25.8555 103.4414 38.0981 109.0786 25.5003 122.9826 23.0999 112.367 13.7275 114.0914 .0011 101.8832 6.807"/><polygon class="cls-5" points="19.4174 70.1018 6.5848 64.012 9.644 77.6008 .0023 87.5519 14.0896 89.1445 20.9756 101.3871 26.6128 88.7893 40.5053 86.3832 29.9069 77.0108 31.6141 63.2901 19.4174 70.1018"/><polygon class="cls-5" points="33.283 17.8843 50.3721 25.9792 66.5963 16.9276 64.3162 35.1798 78.4321 47.6572 59.9393 50.8425 52.4288 67.6108 43.2798 51.3237 24.535 49.2098 37.3619 35.9589 33.283 17.8843"/></svg>