<?xml version="1.0" encoding="UTF-8"?><svg id="Layer_1" xmlns="http://www.w3.org/2000/svg" xmlns:xlink="http://www.w3.org/1999/xlink" viewBox="0 0 277.4234 287.9967"><defs><style>.cls-1{fill:none;}.cls-2{clip-path:url(#clippath);}.cls-3{fill:#4a9cd5;}.cls-4,.cls-5{fill:#4f9dd6;}.cls-6{opacity:.3;}.cls-7{opacity:.9;}.cls-5{fill-rule:evenodd;}</style><clipPath id="clippath"><rect class="cls-1" x="96.2044" y="38.9735" width="106.4494" height="195.8224"/></clipPath></defs><g class="cls-6"><path class="cls-5" d="m190.1503,132.0677c48.1996,0,87.2731-8.3438,87.2731-18.6366v-27.6117c0-10.2928-39.0735-18.6366-87.2731-18.6366s-87.2731,8.3438-87.2731,18.6366v27.6117c0,10.2928,39.0735,18.6366,87.2731,18.6366Zm-40.7212-13.6129c-2.5417,0-4.6021-2.0605-4.6021-4.6022s2.0604-4.6023,4.6021-4.6023,4.6022,2.0605,4.6022,4.6023-2.0604,4.6022-4.6022,4.6022Zm25.8693,2.1915c-2.5418,0-4.6022-2.0605-4.6022-4.6022s2.0604-4.6022,4.6022-4.6022,4.6022,2.0604,4.6022,4.6022-2.0605,4.6022-4.6022,4.6022Zm14.8519-46.2418c38.1031,0,68.9917,3.238,68.9917,7.2326s-30.8887,7.2326-68.9917,7.2326-68.9919-3.2382-68.9919-7.2326,30.8887-7.2326,68.9919-7.2326Zm-64.3897,27.8329c2.5417,0,4.6022,2.0605,4.6022,4.6022s-2.0605,4.6023-4.6022,4.6023-4.6022-2.0605-4.6022-4.6023,2.0604-4.6022,4.6022-4.6022Z"/><path class="cls-5" d="m277.4234,168.9041c-5.0843,2.7533-14.8121,6.2533-24.0514,8.2262-16.9652,3.6227-39.4176,5.6178-63.2215,5.6178s-46.2567-1.9951-63.2219-5.6178c-9.2394-1.973-16.3379-4.2985-21.4222-7.0519-1.7142,1.4575-2.6291,2.9829-2.6291,4.554v25.9073c0,10.2928,39.0735,18.6366,87.2731,18.6366s87.2731-8.3438,87.2731-18.6366v-31.6357Zm-102.125,30.6093c2.5417,0,4.6022,2.0604,4.6022,4.6022s-2.0605,4.6022-4.6022,4.6022-4.6022-2.0605-4.6022-4.6022,2.0604-4.6022,4.6022-4.6022Zm-25.8693-2.1916c2.5418,0,4.6022,2.0605,4.6022,4.6023s-2.0604,4.6022-4.6022,4.6022-4.6021-2.0605-4.6021-4.6022,2.0604-4.6023,4.6021-4.6023Zm-23.6684-7.0129c2.5417,0,4.6022,2.0605,4.6022,4.6022s-2.0605,4.6023-4.6022,4.6023-4.6022-2.0605-4.6022-4.6023,2.0604-4.6022,4.6022-4.6022Z"/><path class="cls-5" d="m277.4234,126.1612c-5.0843,2.7533-14.8121,6.2533-24.0514,8.2262-16.9652,3.6227-39.4176,5.6178-63.2215,5.6178s-46.2567-1.9951-63.2219-5.6178c-9.2394-1.973-16.3379-4.2985-21.4222-7.0519-1.7142,1.4575-2.6291,2.9829-2.6291,4.554v25.9073c0,10.2928,39.0735,18.6366,87.2731,18.6366s87.2731-8.3438,87.2731-18.6366v-31.6357Zm-102.125,30.6093c2.5417,0,4.6022,2.0604,4.6022,4.6022s-2.0605,4.6022-4.6022,4.6022-4.6022-2.0605-4.6022-4.6022,2.0604-4.6022,4.6022-4.6022Zm-25.8693-2.1916c2.5418,0,4.6022,2.0605,4.6022,4.6023s-2.0604,4.6022-4.6022,4.6022-4.6021-2.0605-4.6021-4.6022,2.0604-4.6023,4.6021-4.6023Zm-23.6684-7.0129c2.5417,0,4.6022,2.0605,4.6022,4.6022s-2.0605,4.6023-4.6022,4.6023-4.6022-2.0605-4.6022-4.6023,2.0604-4.6022,4.6022-4.6022Z"/></g><polygon class="cls-3" points="112.5416 51.2857 87.5059 26.2487 32.7482 26.2487 32.7482 13.737 92.6879 13.737 121.3891 42.4382 112.5416 51.2857"/><path class="cls-3" d="m19.9928,39.9857C8.969,39.9857,0,31.0167,0,19.9928S8.969,0,19.9928,0s19.9928,8.9691,19.9928,19.9928-8.969,19.9928-19.9928,19.9928Zm0-27.4739c-4.1251,0-7.4811,3.356-7.4811,7.4811s3.356,7.4811,7.4811,7.4811,7.4811-3.356,7.4811-7.4811-3.356-7.4811-7.4811-7.4811Z"/><polygon class="cls-3" points="92.6879 274.2597 32.7482 274.2597 32.7482 261.748 87.5059 261.748 112.5416 236.7116 121.3891 245.5592 92.6879 274.2597"/><path class="cls-3" d="m19.9928,287.9967c-11.0238,0-19.9928-8.9691-19.9928-19.9928s8.969-19.9928,19.9928-19.9928,19.9928,8.969,19.9928,19.9928-8.969,19.9928-19.9928,19.9928Zm0-27.4739c-4.1251,0-7.4811,3.356-7.4811,7.4811s3.356,7.4811,7.4811,7.4811,7.4811-3.356,7.4811-7.4811-3.356-7.4811-7.4811-7.4811Z"/><path class="cls-3" d="m19.9928,163.9914c-11.0238,0-19.9928-8.969-19.9928-19.9927s8.969-19.9928,19.9928-19.9928,19.9928,8.969,19.9928,19.9928-8.969,19.9927-19.9928,19.9927Zm0-27.4739c-4.1251,0-7.4811,3.3561-7.4811,7.4812s3.356,7.4811,7.4811,7.4811,7.4811-3.356,7.4811-7.4811-3.356-7.4812-7.4811-7.4812Z"/><rect class="cls-3" x="33.7297" y="137.7429" width="43.1693" height="12.5117"/><polygon class="cls-3" points="127.4076 33.492 127.4076 58.0219 102.8777 58.0219 127.4076 33.492"/><polygon class="cls-3" points="74.4497 126.6527 91.7948 143.998 74.4497 161.3432 74.4497 126.6527"/><polygon class="cls-3" points="102.8772 229.9742 127.407 229.9742 127.407 254.5042 102.8772 229.9742"/><g class="cls-2"><g class="cls-7"><path class="cls-5" d="m190.259,132.1136c48.1996,0,87.2731-8.3438,87.2731-18.6366v-27.6117c0-10.2928-39.0735-18.6366-87.2731-18.6366s-87.2731,8.3438-87.2731,18.6366v27.6117c0,10.2928,39.0735,18.6366,87.2731,18.6366Zm-40.7212-13.6129c-2.5417,0-4.6021-2.0605-4.6021-4.6022s2.0604-4.6023,4.6021-4.6023,4.6022,2.0605,4.6022,4.6023-2.0604,4.6022-4.6022,4.6022Zm25.8693,2.1915c-2.5418,0-4.6022-2.0605-4.6022-4.6022s2.0604-4.6022,4.6022-4.6022,4.6022,2.0604,4.6022,4.6022-2.0605,4.6022-4.6022,4.6022Zm14.8519-46.2418c38.1031,0,68.9917,3.238,68.9917,7.2326s-30.8887,7.2326-68.9917,7.2326-68.9919-3.2382-68.9919-7.2326,30.8887-7.2326,68.9919-7.2326Zm-64.3897,27.8329c2.5417,0,4.6022,2.0605,4.6022,4.6022s-2.0605,4.6023-4.6022,4.6023-4.6022-2.0605-4.6022-4.6023,2.0604-4.6022,4.6022-4.6022Z"/><path class="cls-5" d="m277.5321,168.95c-5.0843,2.7533-14.8121,6.2533-24.0514,8.2262-16.9652,3.6227-39.4176,5.6178-63.2215,5.6178s-46.2567-1.9951-63.2219-5.6178c-9.2394-1.973-16.3379-4.2985-21.4222-7.0519-1.7142,1.4575-2.6291,2.9829-2.6291,4.554v25.9073c0,10.2928,39.0735,18.6366,87.2731,18.6366s87.2731-8.3438,87.2731-18.6366v-31.6357Zm-102.125,30.6093c2.5417,0,4.6022,2.0604,4.6022,4.6022s-2.0605,4.6022-4.6022,4.6022-4.6022-2.0605-4.6022-4.6022,2.0604-4.6022,4.6022-4.6022Zm-25.8693-2.1916c2.5418,0,4.6022,2.0605,4.6022,4.6023s-2.0604,4.6022-4.6022,4.6022-4.6021-2.0605-4.6021-4.6022,2.0604-4.6023,4.6021-4.6023Zm-23.6684-7.0129c2.5417,0,4.6022,2.0605,4.6022,4.6022s-2.0605,4.6023-4.6022,4.6023-4.6022-2.0605-4.6022-4.6023,2.0604-4.6022,4.6022-4.6022Z"/><path class="cls-5" d="m277.5321,126.2071c-5.0843,2.7533-14.8121,6.2533-24.0514,8.2262-16.9652,3.6227-39.4176,5.6178-63.2215,5.6178s-46.2567-1.9951-63.2219-5.6178c-9.2394-1.973-16.3379-4.2985-21.4222-7.0519-1.7142,1.4575-2.6291,2.9829-2.6291,4.554v25.9073c0,10.2928,39.0735,18.6366,87.2731,18.6366s87.2731-8.3438,87.2731-18.6366v-31.6357Zm-102.125,30.6093c2.5417,0,4.6022,2.0604,4.6022,4.6022s-2.0605,4.6022-4.6022,4.6022-4.6022-2.0605-4.6022-4.6022,2.0604-4.6022,4.6022-4.6022Zm-25.8693-2.1916c2.5418,0,4.6022,2.0605,4.6022,4.6023s-2.0604,4.6022-4.6022,4.6022-4.6021-2.0605-4.6021-4.6022,2.0604-4.6023,4.6021-4.6023Zm-23.6684-7.0129c2.5417,0,4.6022,2.0605,4.6022,4.6022s-2.0605,4.6023-4.6022,4.6023-4.6022-2.0605-4.6022-4.6023,2.0604-4.6022,4.6022-4.6022Z"/></g></g><rect class="cls-4" x="197.6939" y="53.5866" width="7.7771" height="180.113" rx="2" ry="2"/></svg>