<?xml version="1.0" encoding="UTF-8"?><svg id="Layer_1" xmlns="http://www.w3.org/2000/svg" viewBox="0 0 293.9019 204.451"><defs><style>.cls-1{fill:#4a9cd5;}</style></defs><path class="cls-1" d="m146.776,204.4328c-38.021,0-76.0421-.0258-114.0631.0182-9.4775.011-17.529-3.244-24.0147-10.1206C3.1354,188.4322.0557,181.3857.0436,173.2126c-.0448-30.3788-.0149-60.7577-.0192-91.1365C.0221,65.5845.0006,49.093,0,32.6015-.0006,16.8049,9.8967,4.28,25.3026.7007,27.3643.2216,29.5377.0312,31.6596.0303,108.3961-.0028,185.1326-.0075,261.8691.01c17.7764.004,31.9701,14.1134,32.0088,31.8912.0566,26.0389-.0041,52.078-.0096,78.117-.0044,20.947.03,41.8941-.0107,62.841-.0332,17.0834-14.0489,31.4363-31.1107,31.4906-38.6566.1229-77.3139.0387-115.9709.0387v.0442Zm.0434-191.7027c-38.1966,0-76.3931-.0076-114.5897.0047-11.0731.0036-19.4243,8.3511-19.4265,19.4068-.0089,46.704-.006,93.4079.0078,140.1119.0004,1.2667.0324,2.5622.2866,3.7954,1.9643,9.5317,9.5699,15.6509,19.4602,15.6519,76.3931.0078,152.7862.0096,229.1793-.0017,10.934-.0016,19.3491-8.4237,19.3517-19.3445.0111-46.7617.0128-93.5234-.0254-140.2851-.0015-1.8242-.2266-3.7098-.721-5.4614-2.4156-8.5588-9.7943-13.8739-19.1071-13.8755-38.1387-.0064-76.2774-.0027-114.416-.0027Z"/><path class="cls-1" d="m207.2694,70.2673c-13.7754,0-27.5508.0009-41.3262-.0005-3.9808-.0004-6.8652-2.7197-6.8558-6.4554.0091-3.6414,2.8791-6.3591,6.7871-6.3603,27.5511-.008,55.1023-.0074,82.6534-.001,4.2419.001,7.12,2.5987,7.1253,6.3776.0054,3.8444-2.8191,6.4343-7.0576,6.4363-13.7754.0064-27.5508.0024-41.3262.0033Z"/><path class="cls-1" d="m207.3513,121.36c-13.8797,0-27.7593-.0024-41.639.0016-3.6757.0011-6.4929-2.5989-6.6165-6.1294-.1245-3.5563,2.4754-6.3836,6.1319-6.6599.3452-.0261.6938-.0091,1.0408-.0091,27.4155-.0003,54.8309-.0028,82.2464.002,5.0703.0009,8.218,3.8934,6.8137,8.3942-.8364,2.6807-3.1843,4.371-6.1644,4.3729-13.9377.0089-27.8753.004-41.8129.004v.0237Z"/><path class="cls-1" d="m197.8252,83.0987c10.582,0,21.1657.1077,31.7451-.0588,3.6644-.0577,6.8923,2.6615,6.9461,6.3962.0524,3.6411-2.9573,6.4296-6.9287,6.4327-21.2815.0165-42.5631.0283-63.8446.0245-3.7713-.0007-6.6704-2.8935-6.6401-6.5338.0302-3.6155,2.8188-6.2576,6.6292-6.2592,10.6977-.0046,21.3954-.0016,32.093-.0016Z"/><path class="cls-1" d="m197.6378,134.1689c10.6996,0,21.3992.005,32.0987-.0036,2.6545-.0021,4.7394,1.0531,5.998,3.397,1.1473,2.1367,1.1046,4.3485-.241,6.4186-1.4156,2.1776-3.512,3.0215-6.0648,3.0167-11.4515-.0213-22.9031-.0098-34.3547-.009-9.7165.0007-19.433.0033-29.1494.0041-3.9493.0003-6.8545-2.7643-6.8243-6.4909.0294-3.6324,2.9077-6.3289,6.7859-6.331,10.5839-.0058,21.1678-.002,31.7517-.0019Z"/><path class="cls-1" d="m127.818,140.4746c-.0309-3.4356,2.8052-6.2938,6.2563-6.305,3.5995-.0118,6.4558,2.8284,6.5223,6.4856.0597,3.2796-2.9606,6.293-6.346,6.3316-3.576.0407-6.3993-2.8175-6.4326-6.5122Z"/><path class="cls-1" d="m127.801,44.4785c.0469-3.4339,2.9457-6.2186,6.4128-6.1604,3.5508.0597,6.3956,2.9304,6.3787,6.4369-.0166,3.4361-2.998,6.3704-6.4825,6.38-3.5192.0097-6.3591-2.9866-6.309-6.6565Z"/><path class="cls-1" d="m127.8003,63.8238c.0048-3.4357,2.8318-6.3265,6.2342-6.3751,3.547-.0506,6.6254,2.9877,6.5555,6.4703-.0706,3.5191-2.9516,6.3404-6.4811,6.3466-3.5224.0062-6.3137-2.8441-6.3087-6.4419Z"/><path class="cls-1" d="m127.8005,159.6275c.0253-3.4265,2.897-6.3178,6.2842-6.3273,3.4803-.0098,6.468,2.9074,6.5068,6.3532.0399,3.5431-2.9327,6.4837-6.5339,6.4637-3.5268-.0196-6.2838-2.8791-6.2571-6.4896Z"/><path class="cls-1" d="m134.1449,19.1982c3.5486.01,6.4768,2.885,6.4518,6.3344-.0252,3.4702-2.9424,6.3951-6.4173,6.4341-3.528.0396-6.3863-2.9172-6.3771-6.5971.0085-3.4457,2.8201-6.1814,6.3427-6.1714Z"/><path class="cls-1" d="m134.14,89.3856c-3.4784.0086-6.3383-2.7883-6.3294-6.1897.0098-3.7443,2.7953-6.6206,6.3708-6.5788,3.4194.04,6.3409,2.8928,6.409,6.2583.0722,3.5644-2.8377,6.5013-6.4504,6.5102Z"/><path class="cls-1" d="m127.828,102.2381c-.0057-3.613,2.7487-6.3906,6.3276-6.3809,3.5557.0096,6.3872,2.7909,6.4409,6.3267.0525,3.4534-2.8593,6.3676-6.3887,6.3941-3.565.0268-6.3742-2.7648-6.3799-6.3399Z"/><path class="cls-1" d="m134.1343,185.237c-3.5191.007-6.2979-2.7076-6.3332-6.1868-.0367-3.6134,2.6859-6.5001,6.2073-6.5816,3.5135-.0812,6.6447,2.9853,6.5803,6.4446-.0665,3.5722-2.8676,6.3167-6.4543,6.3239Z"/><path class="cls-1" d="m127.8281,121.3065c.0116-3.5553,2.8278-6.3147,6.4132-6.2841,3.4214.0292,6.3054,2.8727,6.3554,6.2661.0515,3.4981-2.9866,6.553-6.4939,6.5296-3.4451-.023-6.2862-2.9714-6.2747-6.5116Z"/><path class="cls-1" d="m67.3969,66.7923c.3805,0,.7611,0,1.1416,0,.062.0232.1227.0513.1863.0689.4301.1185.8754.1976,1.288.3602.7155.282,1.3213.7503,1.8826,1.2689.5389.4979,1.0703,1.0046,1.5897,1.5227,3.2525,3.2437,6.5006,6.4917,9.7507,9.7379.0992.0991.2034.1932.375.3556,0-.2427,0-.3748,0-.5069.0002-.8019-.0059-1.6038.0019-2.4056.0279-2.8521,2.3184-5.1531,5.1672-5.1766,1.7665-.0146,3.5335-.0177,5.2999.0018,1.5657.0173,2.8743.634,3.9046,1.813.8881,1.0163,1.2835,2.2176,1.2832,3.5602-.0016,5.98.0012,11.9599-.006,17.9399-.0004.3054.0785.527.3013.7481,2.3633,2.3454,4.7195,4.698,7.0671,7.0591.5744.5776,1.1244,1.1811,1.6611,1.7942,1.0031,1.146,1.4781,2.4689,1.3673,4.0115-.0569.7917-.2356,1.5322-.6305,2.2097-.984,1.688-2.4808,2.5547-4.4197,2.6033-1.6298.0408-3.2613.0089-4.8921.0103-.1438.0001-.2875.0082-.4492.0132v.5765c0,10.1387.0014,20.2775-.0047,30.4162-.0003.4459-.0242.9011-.1144,1.336-.5129,2.4744-2.6236,4.2013-5.1586,4.2069-5.0825.0111-10.1651.0036-15.2476.0026-.1044,0-.2087-.0144-.3496-.0248v-.5453c0-8.3583,0-16.7167,0-25.075,0-.1767.0021-.3534-.002-.53-.0682-2.8804-2.3616-5.1459-5.2431-5.1547-3.4789-.0107-6.9579-.0098-10.4369.0003-2.1178.0061-4.0033,1.2922-4.8108,3.2473-.2899.702-.3869,1.4334-.3864,2.1906.0055,8.4399.0034,16.8798.0034,25.3197v.5731h-.5162c-4.9602,0-9.9205,0-14.8807-.0002-.1359,0-.2724.0055-.4076-.005-2.1985-.1714-3.7815-1.2345-4.6846-3.2614-.309-.6935-.3897-1.432-.3894-2.1892.0052-10.1795.0034-20.359.0034-30.5385,0-.173,0-.346,0-.5586-.1926,0-.3384,0-.4843,0-1.6308-.0007-3.2617.0144-4.8922-.0057-2.4713-.0305-4.5175-1.7688-4.974-4.1899-.0294-.1558-.1025-.3034-.1553-.4548,0-.3806,0-.7611,0-1.1417.0462-.1123.1165-.2208.1347-.3374.1672-1.0714.6936-1.9654,1.3862-2.7675.4967-.5752,1.0128-1.1359,1.5502-1.6732,11.1034-11.1023,22.2104-22.2009,33.32-33.297.5571-.5564,1.1301-1.0984,1.7192-1.6206.7406-.6565,1.5755-1.1538,2.5588-1.3632.1974-.042.395-.0829.5925-.1243Z"/></svg>