<?xml version="1.0" encoding="UTF-8"?><svg id="Layer_1" xmlns="http://www.w3.org/2000/svg" viewBox="0 0 257.2726 285.8169"><defs><style>.cls-1{fill:#4a9cd5;}</style></defs><path class="cls-1" d="m96.3899,285.8169c-2.9997-.4028-6.0777-.5053-8.9845-1.264-9.0672-2.3665-18.0831-4.9341-27.0912-7.5203-4.341-1.2463-8.5992-2.7803-12.9377-4.0361-1.5694-.4543-3.2624-.6562-4.9011-.667-9.2828-.0614-18.5663-.0472-27.8494-.0229-4.8032.0125-8.8531-1.5377-11.8524-5.4342-1.5422-2.0036-2.4503-4.2507-2.6557-6.7709-.0651-.7987-.0929-1.6026-.093-2.4042-.0048-21.8935.0287-43.7871-.0248-65.6804-.0147-6.0243,2.3594-10.6043,7.8167-13.1833,1.9397-.9167,4.2958-1.2781,6.471-1.3128,8.8798-.1419,17.7635-.0301,26.645-.1032.9216-.0076,2.1036-.367,2.7126-.999,3.0953-3.212,6.1433-6.482,9.0179-9.8918,5.2055-6.1747,10.224-12.507,15.4263-18.6845,2.5563-3.0355,3.3498-6.6802,4.2437-10.3586,1.2014-4.9438,2.2879-9.9372,3.8818-14.7578,1.6128-4.8777,4.4182-9.1353,9.2228-11.4828,1.7938-.8765,3.9329-1.4207,5.9242-1.4493,6.5135-.0938,12.7565,1.2068,18.362,4.7399,6.8534,4.3196,10.0249,10.9606,11.3237,18.6227,1.0983,6.4794,1.3239,13.0182-.2819,19.4598-.73,2.9285-1.85,5.761-2.8243,8.6264-.2712.7975-.6535,1.5572-1.1256,2.6645.8623,0,1.4599-.0027,2.0574.0004,6.0734.0319,12.1528-.0964,18.2189.1298,14.0755.5247,25.7836,13.2656,25.374,27.3582-.158,5.4349-1.4368,10.5332-4.2767,15.1856-.642,1.0518-.8105,2.0291-.5563,3.2283,1.4057,6.6321.3665,12.9511-2.4357,19.0732-.5161,1.1274-.7994,2.5061-.7193,3.7381.4898,7.5331-1.1734,14.4256-5.6075,20.6137-.4542.6338-.6106,1.5852-.6441,2.4-.2615,6.3642-1.6504,12.3826-5.4781,17.6085-5.4047,7.3789-12.9171,11.0647-21.8287,12.2189-.6159.0798-1.222.2352-1.8326.3554h-22.6973Zm1.7647-108.3563c.2096-1.5544.1671-2.9305.5971-4.1384,1.9339-5.4319,3.8009-10.9022,6.0714-16.1959,2.9685-6.9208,4.3234-13.9481,2.8825-21.4242-1.0822-5.6151-3.2086-10.3701-9.5032-11.6592-2.0065-.4109-4.0781-.5424-6.1281-.6708-.4404-.0276-1.1361.401-1.3387.807-1.0394,2.0824-2.2275,4.1485-2.8593,6.3642-1.3326,4.6731-2.318,9.4442-3.5089,14.1592-1.1374,4.5031-3.1802,8.5232-6.1982,12.1135-4.7541,5.6555-9.2409,11.5367-14.0249,17.1659-3.6661,4.3138-7.5246,8.4752-11.4701,12.5365-2.9286,3.0146-6.4765,4.9067-10.9051,4.4574-.3199-.0325-.6545.0787-1.0347.1302v67.0747c4.0618.7117,8.0665,1.0855,11.8753,2.1565,5.9398,1.6703,11.7757,3.7308,17.6043,5.7725,15.0344,5.2664,30.4959,7.1283,46.3457,5.9868,2.0468-.1474,4.1034-.3958,6.1103-.814,6.2346-1.2994,10.64-5.7806,11.5278-12.1227.4156-2.9691.0791-6.0397.1609-9.0622.0175-.6461.1663-1.5371.5998-1.8857,5.5906-4.4948,7.6607-12.3946,4.7701-18.8832-.4535-1.0178-.2984-1.5913.4231-2.3729,3.3978-3.681,4.9767-8.004,4.4377-13.0568-.357-3.3465-1.4893-6.3996-3.242-9.0335,1.1462-.745,2.4079-1.2179,3.1631-2.1166,3.0563-3.6369,4.7237-7.9259,4.3559-12.6694-.5625-7.2538-6.5398-12.5783-13.8544-12.6065-11.5765-.0446-23.1532-.0123-34.7299-.0125-.6213,0-1.2427,0-2.1277,0ZM20.2557,245.2114c-3.6784.0241-6.7694,3.1693-6.7144,6.832.0551,3.6715,3.1839,6.6775,6.9035,6.6327,3.6339-.0439,6.6032-3.0746,6.5986-6.735-.0047-3.7249-3.06-6.7541-6.7877-6.7296Z"/><path class="cls-1" d="m170.1187,199.2018c15.8378-8.3157,32.8415-20.3671,44.5995-34.245,17.3136-20.435,26.9014-44.0593,27.5783-70.8727.5106-20.2238.1084-40.4707.1019-60.7073-.0008-2.6488-.8227-3.2784-3.4663-2.8008-27.0671,4.8904-52.444.5224-75.9591-13.9278-1.2422-.7633-2.23-.8449-3.5204-.0953-23.7086,13.7738-49.101,18.4392-76.1642,13.9876-2.6242-.4316-3.3541.2176-3.3554,2.9355-.0055,11.0149-.0023,22.0298-.0022,33.0447,0,8.1331-.0125,16.2662.0025,24.3993.0065,3.4814-.0207,4.6204.2876,8.0289l-12.0241,18.0751c-2.0079-9.1587-3.0085-18.5967-2.994-28.3071.0142-9.5417.0023-19.0834.0032-28.6251,0-11.655.2122-23.3153-.084-34.9628-.1632-6.4146,4.7698-10.0892,10.8594-9.0626,28.109,4.7384,54.6456-.0581,79.3652-14.289,4.1607-2.3953,7.6154-2.3915,11.7386.1443,20.0719,12.3444,41.9777,17.5553,65.4633,15.9459,4.965-.3402,9.9034-1.176,14.8303-1.9375,5.3596-.8283,9.7209,2.6879,9.727,8.1381.0255,22.7976.4128,45.6041-.0884,68.3907-.6666,30.3041-11.2758,57.1301-30.4329,80.5259-16.0026,19.5433-35.9486,33.8534-58.6918,44.3393l2.226-18.1223Z"/><path class="cls-1" d="m162.7554,68.1996c1.115-1.4432,1.9164-2.6506,2.884-3.7055,7.0144-7.647,15.8039-9.2993,25.3138-6.5277,9.2889,2.7072,13.8671,9.9914,15.9124,18.9983,2.8682,12.6307-1.9041,23.3454-9.0072,33.2373-9.0363,12.584-20.9861,22.1404-33.4759,31.0427-.812.5788-2.6583.7689-3.3848.2484-14.9526-10.7132-29.2902-22.1096-38.4257-38.5849-5.6444-10.1793-7.3109-20.8837-2.5307-31.8759,6.8745-15.8082,26.535-19.37,38.719-7.1449,1.1857,1.1897,2.2871,2.4632,3.9952,4.3122Z"/></svg>