<?xml version="1.0" encoding="UTF-8"?><svg id="Layer_1" xmlns="http://www.w3.org/2000/svg" viewBox="0 0 290.287 291.3059"><defs><style>.cls-1{fill:#4a9cd5;}</style></defs><path class="cls-1" d="m148.1658,137.6034c1.7878,0,3.1278,0,4.4678,0,41.7201-.0004,83.4402-.0009,125.1604-.0008.9119,0,1.8242-.0096,2.7357.0123,5.5401.1333,7.826,2.4503,7.7451,8.0931-.4626,32.2541-10.6372,61.218-30.2666,86.647-24.2384,31.3997-55.8928,51.1285-95.1887,57.1639-42.3092,6.4983-80.0103-4.7928-112.3536-32.7765C22.8144,232.8181,5.9578,202.3046,1.4341,166.0575-6.0263,106.2798,15.7088,58.6471,64.5977,23.8452,86.5875,8.1915,111.6363.6983,138.6399.0104c7.2974-.1859,9.5236,2.0808,9.5241,9.5432.003,40.8967.0016,81.7935.0018,122.6902v5.3596Zm71.5142,14.1245c-.7281,26.4886-5.3527,51.8211-15.3455,76.1496.9118.355,1.6369.6577,2.3757.9219,8.1288,2.9071,16.2986,5.7058,24.3628,8.7829,2.0137.7684,3.1463.6306,4.659-.9282,17.8076-18.3497,29.9261-39.8149,35.2646-64.9135,1.3805-6.49,1.9316-13.1573,2.9019-20.0127h-54.2185Zm-70.5586.0239v67.9971c14.1514,1.4408,28.0125,2.8521,42.0598,4.2823,9.9518-22.8916,14.5249-47.0599,15.1132-72.2794h-57.173Zm-134.3127-.0059c0,2.3637-.1646,4.3115.0248,6.2241,2.7397,27.67,12.9157,52.2571,30.5612,73.7273,5.0861,6.1885,5.0655,6.1155,12.5928,3.5401,7.3028-2.4986,14.6618-4.8323,22.1888-7.3017-10.6654-24.2866-15.2204-49.8219-16.0568-76.1898H14.8086Zm63.3603-.0526c.7809,25.4496,5.1859,49.746,15.2999,72.4958,13.8226-1.415,27.1412-2.7783,40.5299-4.1489v-68.3469h-55.8298Zm-63.5701-14.4203h50.2893c.6326-25.7472,5.6367-50.2955,15.282-73.8123-8.6862-3.0348-17.1938-5.8827-25.5922-9.024-2.2498-.8415-3.5447-.6896-5.2274,1.1099-14.4399,15.4419-24.5922,33.3046-30.3462,53.6435-2.5787,9.1149-4.271,18.4035-4.4055,28.083Zm119.4808-66.0987c-.5674-.171-.9844-.3654-1.4184-.4174-12.2086-1.4647-24.4257-2.8621-36.6222-4.4209-1.9918-.2545-2.7739.3622-3.516,2.11-6.6001,15.5457-10.7828,31.7341-12.7997,48.4744-.8125,6.7437-1.1644,13.543-1.7393,20.4789h56.0955v-66.225Zm50.7853,166.2049c-12.5068-1.2092-24.3952-2.3586-36.5043-3.5293v42.3698c4.9227.465,9.412.5616,12.5561-4.0921,1.4574-2.1572,3.4283-3.959,5.0762-5.9952,7.0276-8.684,13.1795-17.9446,18.872-28.7532Zm-50.8048-180.2778V15.1778c-6.8991-1.0207-8.6815-.67-12.6719,4.4127-4.7764,6.0839-9.3031,12.3936-13.5268,18.8746-2.9935,4.5933-5.3051,9.6328-8.246,15.0742,11.9153,1.2322,22.9925,2.3778,34.4447,3.5621Zm-34.4057,180.3015c7.2931,13.5562,15.3339,25.0816,24.7846,35.6711,2.7304,3.0594,5.7449,3.6595,9.5945,3.157v-42.4165c-11.4635,1.1965-22.602,2.3592-34.3792,3.5885Zm4.2124,33.8653c-5.3996-9.0042-10.9013-17.7627-15.9233-26.7893-1.6546-2.974-3.066-3.7075-6.209-2.5579-6.2902,2.3007-12.71,4.2453-19.6422,6.5228,12.9269,10.611,26.6887,17.9615,41.7745,22.8245Zm118.6595-22.8821c-7.7839-2.5099-14.9036-4.763-21.9901-7.1171-2.0769-.6899-2.4582.7631-3.209,2.0418-4.4377,7.5577-8.91,15.0952-13.4072,22.6174-.8788,1.4699-1.9187,2.843-3.3302,4.9153,15.6071-5.0816,28.9508-12.4322,41.9364-22.4574ZM62.6161,42.9548c7.5663,2.2569,14.4229,4.2301,21.2257,6.3749,2.0568.6485,2.4936-.601,3.264-1.9239,4.6382-7.9654,9.3414-15.8928,14.0157-23.8371.4122-.7005.7727-1.4316,1.5712-2.9205-14.9302,5.1472-27.6988,12.2964-40.0765,22.3066Z"/><path class="cls-1" d="m256.877,130.9343c-2.3264-.8308-4.7847-1.4073-6.9555-2.5381-7.8736-4.1014-15.6901-8.3182-23.4367-12.6556-1.9352-1.0835-3.3603-1.0246-5.2703.0433-7.8486,4.388-15.8095,8.5737-23.7102,12.8689-4.8356,2.6289-9.6775,2.7622-14.1641-.4854-4.4976-3.2556-5.7671-7.8123-4.7414-13.3136,1.5882-8.5176,2.7847-17.1079,4.2624-25.6473.3716-2.1478-.1882-3.5847-1.7801-5.0852-6.4719-6.1001-12.8026-12.3506-19.1888-18.5423-3.5397-3.4319-5.9619-7.2685-4.2895-12.4733,1.8605-5.7898,5.8532-9.0652,11.8652-9.8733,8.7988-1.1827,17.6145-2.2584,26.38-3.6512,1.472-.2339,3.2922-1.5395,3.9898-2.8601,4.2557-8.0573,8.3028-16.2284,12.2784-24.4301,2.407-4.9657,6.1243-8.0145,11.6723-8.0656,5.5646-.0513,9.3496,2.9745,11.7789,7.9056,4.0298,8.1798,8.1916,16.2948,12.156,24.5059.9521,1.972,2.1116,2.8487,4.3295,3.1111,8.9268,1.0564,17.8255,2.3515,26.7354,3.5521,5.3228.7173,9.1765,3.406,10.8448,8.6133,1.7113,5.3416-.0617,9.9435-3.8535,13.7284-6.3758,6.3641-12.9723,12.5071-19.3035,18.9142-.9768.9885-1.6164,2.9699-1.4239,4.3542,1.2721,9.1472,2.8674,18.2487,4.2525,27.381,1.1972,7.8943-4.3256,14.22-12.4276,14.6429Zm-33.0188-110.5416c-4.7617,9.5449-9.2713,18.472-13.6604,27.4582-1.1623,2.3797-2.8204,3.7692-5.4337,4.0874-3.9559.4816-7.9107.9763-11.8585,1.5199-6.2314.8582-12.4567,1.7615-18.058,2.5568,4.8134,5.1711,9.4265,10.5346,14.468,15.4573,10.1179,9.8794,9.4838,8.3384,6.8861,22.3122-1.2805,6.8883-2.4648,13.7946-3.7871,21.2235,1.5776-.8013,2.5873-1.299,3.5834-1.8225,7.461-3.9217,14.93-7.8282,22.3739-11.7822,3.6819-1.9557,7.1874-2.1872,11.0101-.0611,7.3639,4.0958,14.89,7.8989,22.3546,11.8123,1.0294.5397,2.0919,1.0159,3.6318,1.7594-1.8144-9.9187-3.3707-19.1306-5.2316-28.2802-.836-4.1103-.0563-7.3344,3.1315-10.1279,2.8281-2.4784,5.5156-5.1345,8.1099-7.8606,3.9881-4.1905,7.8433-8.5079,11.659-12.667-9.012-1.2512-18.5735-2.684-28.1664-3.8584-3.7942-.4645-6.2896-2.2928-7.9334-5.6089-3.0393-6.1313-6.1081-12.2479-9.1702-18.3679-1.2059-2.4101-2.4268-4.8127-3.909-7.7504Z"/></svg>