<?xml version="1.0" encoding="UTF-8"?><svg id="Layer_1" xmlns="http://www.w3.org/2000/svg" viewBox="0 0 205.2239 297.4854"><defs><style>.cls-1{fill:#fff;}</style></defs><path class="cls-1" d="m134.1119,102.2552h10.3004c-.9227-1.0668-1.8779-2.0963-2.8737-3.0911-4.3031-4.3077-9.3243-7.9066-14.8802-10.6061,1.2387,1.6804,2.4125,3.4944,3.5059,5.4269,1.4433,2.5518,2.7681,5.3175,3.9475,8.2704h.0001Z"/><path class="cls-1" d="m122.6655,98.2368c-4.31-7.5882-9.7671-12.8407-15.7366-14.5745v18.5929h17.8051c-.6589-1.3991-1.3433-2.7425-2.0685-4.0185h0Z"/><path class="cls-1" d="m161.2563,231.9455c-.5276-.523-1.2655-.8507-2.0766-.8507H46.0373c-.81,0-1.5421.3277-2.0755.8507l-.0198.0208c-.5206.5323-.8506,1.2701-.8506,2.0743v23.3515c0,.8158.33,1.5537.8506,2.0801l.0198.0163c.5264.5229,1.2655.8506,2.0755.8506h113.1425c.8111,0,1.549-.3231,2.0766-.8506l.0256-.0163c.5206-.5311.8506-1.269.8506-2.0801v-23.3515c0-.8042-.33-1.5421-.8506-2.0743l-.0256-.0208h-.0001Z"/><path class="cls-1" d="m131.8586,142.424h-24.9296v22.8798h21.1135c2.1219-6.8562,3.4664-14.6095,3.8162-22.8798h0Z"/><path class="cls-1" d="m128.0424,110.894h-21.1135v22.8855h24.9296c-.3497-8.2704-1.6942-16.0283-3.8162-22.8855h0Z"/><path class="cls-1" d="m140.5044,133.7795h17.002c-.646-8.275-3.1108-16.0399-7.0188-22.8855h-13.4694c1.951,7.0153,3.17,14.7442,3.4862,22.8855Z"/><path class="cls-1" d="m122.6655,177.9668c.7252-1.2818,1.4096-2.6193,2.0685-4.0185h-17.8051v18.5907c5.9695-1.7315,11.4266-6.984,15.7366-14.5722Z"/><path class="cls-1" d="m130.1643,182.2187c-1.0934,1.9278-2.2672,3.7418-3.5059,5.4269,5.5559-2.7007,10.5771-6.2984,14.8802-10.6131.9959-.9888,1.951-2.0185,2.8737-3.0841h-10.3004c-1.1795,2.9458-2.5042,5.7185-3.9475,8.2704h-.0001Z"/><path class="cls-1" d="m137.0182,165.3038h13.4694c3.908-6.8468,6.3728-14.6048,7.0188-22.8798h-17.002c-.3162,8.1367-1.5352,15.8656-3.4862,22.8798Z"/><path class="cls-1" d="m68.1988,110.894h-13.4764c-3.8941,6.8456-6.3716,14.6105-7.0049,22.8855h16.9892c.3289-8.1414,1.5491-15.8702,3.492-22.8855h.0001Z"/><path class="cls-1" d="m64.7068,142.424h-16.9892c.6333,8.275,3.1108,16.033,7.0049,22.8798h13.4764c-1.9429-7.0143-3.1631-14.7431-3.492-22.8798h-.0001Z"/><path class="cls-1" d="m199.7414,42.4395c-3.3677-3.3723-8.0461-5.4733-13.1801-5.4733h-2.4252v-20.9124c0-1.4306-.1649-2.839-.4741-4.1974-.7913-3.4931-2.5437-6.4192-4.969-8.4899-2.5111-2.1475-5.6674-3.3665-9.1604-3.3665-1.0865,0-2.2463.1313-3.4594.4032L16.1711,34.1981c-4.4809,1.011-8.5004,3.8755-11.3998,7.6975-2.4194,3.177-4.08,7.0711-4.5865,11.1243l-.0198.1232c-.1186.81-.165,1.6397-.165,2.4798v223.2045c0,.8459.0464,1.671.165,2.4845l.0057.0674.014.0465v.0151l.0057.0616.014.0662c.0988.753.2439,1.4816.4275,2.1684.3103,1.1365.7252,2.2079,1.233,3.2026l.0255.0558.0198.0569c.917,1.8395,2.1231,3.5152,3.5595,4.9551,3.3804,3.3769,8.0461,5.4779,13.18,5.4779h167.9115c5.134,0,9.8124-2.101,13.1801-5.4779,3.3804-3.3816,5.4826-8.0461,5.4826-13.1801V55.623c0-5.1339-2.1022-9.8031-5.4826-13.1835h0Zm-28.9689,214.9527c0,3.1782-1.305,6.073-3.4072,8.1682l-.007.022c-2.1022,2.0953-5.0015,3.4013-8.1785,3.4013H46.0373c-3.1701,0-6.0694-1.3061-8.1716-3.4013l-.007-.0115v-.0105c-2.1022-2.0999-3.406-4.9956-3.406-8.1682v-23.3515c0-3.1712,1.3038-6.0706,3.3933-8.168l.0198-.0198c2.1022-2.0953,4.9887-3.3967,8.1716-3.3967h113.1425c3.177,0,6.0763,1.3061,8.1785,3.3967l.007.0198c2.1022,2.0974,3.4072,4.9922,3.4072,8.168v23.3515h-.0001ZM38.8998,138.1c0-17.5877,7.1374-33.5183,18.6638-45.0436,11.5323-11.5299,27.4536-18.6626,45.0413-18.6626s33.5231,7.1328,45.0565,18.6626c11.5183,11.5253,18.6487,27.456,18.6487,45.0436s-7.1304,33.5172-18.6487,45.046c-11.5334,11.5253-27.4675,18.658-45.0565,18.658s-33.509-7.1327-45.0413-18.658c-11.5264-11.5288-18.6638-27.4548-18.6638-45.046ZM175.4974,36.9662H43.0717l124.8932-28.1532c.5067-.1173,1.0342-.1731,1.5676-.1731,1.3782,0,2.6099.4613,3.5523,1.2701,1.0343.8866,1.8059,2.209,2.1743,3.8383.1522.6762.2382,1.4502.2382,2.3055v20.9124h0Z"/><path class="cls-1" d="m75.0596,93.9848c1.0934-1.9325,2.2672-3.7464,3.492-5.4269-5.5419,2.6995-10.5632,6.2984-14.879,10.6061-.9959.9948-1.9441,2.0243-2.861,3.0911h10.3004c1.1795-2.9529,2.5042-5.7185,3.9475-8.2704h0Z"/><path class="cls-1" d="m77.1815,165.3038h21.1076v-22.8798h-24.9296c.3487,8.2704,1.7001,16.0236,3.822,22.8798Z"/><path class="cls-1" d="m82.5526,177.9668c4.3031,7.5882,9.7729,12.8407,15.7366,14.5722v-18.5907h-17.7992c.6589,1.3991,1.3445,2.7366,2.0627,4.0185h0Z"/><path class="cls-1" d="m98.2891,83.6623c-5.9637,1.7338-11.4335,6.9863-15.7366,14.5745-.7181,1.276-1.4038,2.6193-2.0627,4.0185h17.7992v-18.5929h0Z"/><path class="cls-1" d="m71.112,173.9483h-10.3004c.9169,1.0656,1.8651,2.0953,2.861,3.0841,4.3158,4.3147,9.337,7.9124,14.879,10.6131-1.2248-1.6851-2.3986-3.499-3.492-5.4269-1.4433-2.5518-2.7681-5.3245-3.9475-8.2704h0Z"/><path class="cls-1" d="m73.3595,133.7795h24.9296v-22.8855h-21.1076c-2.1219,6.8572-3.4733,14.6152-3.822,22.8855Z"/></svg>