<?xml version="1.0" encoding="UTF-8"?><svg id="Layer_1" xmlns="http://www.w3.org/2000/svg" viewBox="0 0 293.9019 204.451"><defs><style>.cls-1{fill:#fff;}</style></defs><path class="cls-1" d="m146.776,204.4328c-38.021,0-76.0421-.0258-114.0631.0182-9.4775.011-17.529-3.244-24.0147-10.1206C3.1354,188.4322.0557,181.3857.0436,173.2126c-.0448-30.3788-.0149-60.7577-.0192-91.1365C.0221,65.5845.0006,49.093,0,32.6015-.0006,16.8049,9.8967,4.28,25.3026.7007,27.3643.2216,29.5377.0312,31.6596.0303,108.3961-.0028,185.1326-.0075,261.8691.01c17.7764.004,31.9701,14.1134,32.0088,31.8912.0566,26.0389-.0041,52.078-.0096,78.117-.0044,20.947.03,41.8941-.0107,62.841-.0332,17.0834-14.0489,31.4363-31.1107,31.4906-38.6566.1229-77.3139.0387-115.9709.0387v.0442h0Zm.0434-191.7026c-38.1966,0-76.3931-.0076-114.5897.0047-11.0731.0036-19.4243,8.3511-19.4265,19.4068-.0089,46.704-.006,93.4079.0078,140.1119.0004,1.2667.0324,2.5622.2866,3.7954,1.9643,9.5317,9.5699,15.6509,19.4602,15.6519,76.3931.0078,152.7862.0096,229.1793-.0017,10.934-.0016,19.3491-8.4237,19.3517-19.3445.0111-46.7617.0128-93.5234-.0254-140.2851-.0015-1.8242-.2266-3.7098-.721-5.4614-2.4156-8.5588-9.7943-13.8739-19.1071-13.8755-38.1387-.0064-76.2774-.0027-114.416-.0027v.0002Z"/><path class="cls-1" d="m89.3914,166.2045h-38.2885c0,1.0159.0276,1.9824-.0057,2.9469-.0708,2.0513-1.205,3.2527-3.2276,3.3114-2.0804.0604-4.1648.054-6.2458.0052-1.964-.0461-3.3186-1.2893-3.3273-3.2395-.0433-9.7166-.0735-19.4341.0394-29.1496.0166-1.4321.8077-2.8601,1.267-4.2813,1.2768-3.9504,2.5281-7.9097,3.8623-11.8408,1.9009-5.601,6.5966-8.9104,12.4725-8.9101,9.4267.0004,18.8534-.0236,28.2801-.0223,6.5758.0009,11.1505,3.4298,13.1322,9.7211,1.4723,4.6744,3.0298,9.322,4.5275,13.9885.1721.5362.2875,1.1171.2888,1.6776.0219,9.3687.0238,18.7376.0245,28.1063.0002,2.9115-1.0434,3.9544-3.9479,3.9634-1.7351.0054-3.471.0304-5.2052-.0084-2.4645-.0551-3.5824-1.1871-3.6428-3.6334-.021-.8498-.0033-1.7005-.0033-2.6348l-.0002-.0002Zm-.2247-25.7797c-1.3999-4.1026-2.7318-8.0773-4.1495-12.0211-.1094-.3044-.8223-.5542-1.2557-.5558-9.0143-.0317-18.0287-.032-27.0429.003-.4131.0016-1.0832.2989-1.1976.6159-1.4187,3.9298-2.7564,7.8889-4.1554,11.958h37.8011Zm.3735,6.5658c-3.5791-.0285-6.4418,2.7215-6.4937,6.2381-.0519,3.5213,2.9487,6.5505,6.462,6.5237,3.338-.0255,6.2884-2.9549,6.3585-6.3131.0719-3.4432-2.8496-6.421-6.3268-6.4487Zm-38.4114.0031c-3.6056-.0148-6.396,2.7658-6.3757,6.3534.0201,3.5661,2.8868,6.441,6.3835,6.402,3.532-.0394,6.3236-2.9216,6.3005-6.5049-.0226-3.4997-2.7842-6.236-6.3083-6.2505h0Z"/><path class="cls-1" d="m38.347,102.1253c.3321-6.18,3.5373-10.2692,8.7206-12.9528,2.4052-1.2453,4.9275-2.2624,7.3597-3.4582,1.3403-.6589,2.6639-1.3872,3.8885-2.2378,1.9601-1.3615,3.1781-3.1752,2.8788-5.7157-.0269-.2281-.0051-.4625.0016-.6938.0695-2.4052.1846-4.7422-1.7054-6.7492-.8118-.862-1.0694-2.2734-1.4942-3.4653-.5209-1.4612-.8123-2.8794-2.2391-3.9993-1.7249-1.354-1.8541-5.1514-.8355-7.1089.2515-.4833.1782-1.2613,0-1.8232-1.8202-5.7384-1.3194-11.1347,2.6392-15.8301,3.7643-4.465,8.9147-5.995,14.5584-6.0767.512-.0074,1.2787.6988,1.5067,1.2481.581,1.4001,1.1829,2.272,2.966,2.5022,3.66.4724,5.9002,2.9672,7.1776,6.2959,1.6763,4.3686,1.7899,8.7616-.0998,13.138,1.9732,2.4719,1.3672,6.5613-1.2452,8.5345-.3219.2431-.5921.6813-.6877,1.0771-.6714,2.7769-1.6039,5.4146-3.5198,7.6228-.263.3031-.3529.834-.3639,1.2635-.0339,1.3292.0577,2.6621.0123,3.9906-.1034,3.0274,1.4356,5.085,3.9648,6.3796,2.7693,1.4175,5.7083,2.5041,8.4734,3.9288,2.4997,1.288,5.0518,2.6002,7.2437,4.3291,3.0389,2.397,4.4238,5.8088,4.6244,9.8008h-63.8251Z"/><path class="cls-1" d="m207.2694,70.2673c-13.7754,0-27.5508.0009-41.3262-.0005-3.9808-.0004-6.8652-2.7197-6.8558-6.4554.0091-3.6414,2.8791-6.3591,6.7871-6.3603,27.5511-.008,55.1023-.0074,82.6534-.001,4.2419.001,7.12,2.5987,7.1253,6.3776.0054,3.8444-2.8191,6.4343-7.0576,6.4363-13.7754.0064-27.5508.0024-41.3262.0033h0Z"/><path class="cls-1" d="m207.3513,121.36c-13.8797,0-27.7593-.0024-41.639.0016-3.6757.0011-6.4929-2.5989-6.6165-6.1294-.1245-3.5563,2.4754-6.3836,6.1319-6.6599.3452-.0261.6938-.0091,1.0408-.0091,27.4155-.0003,54.8309-.0028,82.2464.002,5.0703.0009,8.218,3.8934,6.8137,8.3942-.8364,2.6807-3.1843,4.371-6.1644,4.3729-13.9377.0089-27.8753.004-41.8129.004v.0237h0Z"/><path class="cls-1" d="m197.8252,83.0987c10.582,0,21.1657.1077,31.7451-.0588,3.6644-.0577,6.8923,2.6615,6.9461,6.3962.0524,3.6411-2.9573,6.4296-6.9287,6.4327-21.2815.0165-42.5631.0283-63.8446.0245-3.7713-.0007-6.6704-2.8935-6.6401-6.5338.0302-3.6155,2.8188-6.2576,6.6292-6.2592,10.6977-.0046,21.3954-.0016,32.093-.0016Z"/><path class="cls-1" d="m197.6378,134.1689c10.6996,0,21.3992.005,32.0987-.0036,2.6545-.0021,4.7394,1.0531,5.998,3.397,1.1473,2.1367,1.1046,4.3485-.241,6.4186-1.4156,2.1776-3.512,3.0215-6.0648,3.0167-11.4515-.0213-22.9031-.0098-34.3547-.009-9.7165.0007-19.433.0033-29.1494.0041-3.9493.0003-6.8545-2.7643-6.8243-6.4909.0294-3.6324,2.9077-6.3289,6.7859-6.331,10.5839-.0058,21.1678-.002,31.7517-.0019h-.0001Z"/><path class="cls-1" d="m127.818,140.4746c-.0309-3.4356,2.8052-6.2938,6.2563-6.305,3.5995-.0118,6.4558,2.8284,6.5223,6.4856.0597,3.2796-2.9606,6.293-6.346,6.3316-3.576.0407-6.3993-2.8175-6.4326-6.5122Z"/><path class="cls-1" d="m127.801,44.4785c.0469-3.4339,2.9457-6.2186,6.4128-6.1604,3.5508.0597,6.3956,2.9304,6.3787,6.4369-.0166,3.4361-2.998,6.3704-6.4825,6.38-3.5192.0097-6.3591-2.9866-6.309-6.6565Z"/><path class="cls-1" d="m127.8003,63.8238c.0048-3.4357,2.8318-6.3265,6.2342-6.3751,3.547-.0506,6.6254,2.9877,6.5555,6.4703-.0706,3.5191-2.9516,6.3404-6.4811,6.3466-3.5224.0062-6.3137-2.8441-6.3087-6.4419h0Z"/><path class="cls-1" d="m127.8005,159.6275c.0253-3.4265,2.897-6.3178,6.2842-6.3273,3.4803-.0098,6.468,2.9074,6.5068,6.3532.0399,3.5431-2.9327,6.4837-6.5339,6.4637-3.5268-.0196-6.2838-2.8791-6.2571-6.4896Z"/><path class="cls-1" d="m134.1449,19.1982c3.5486.01,6.4768,2.885,6.4518,6.3344-.0252,3.4702-2.9424,6.3951-6.4173,6.4341-3.528.0396-6.3863-2.9172-6.3771-6.5971.0085-3.4457,2.8201-6.1814,6.3427-6.1714h-.0001Z"/><path class="cls-1" d="m134.14,89.3856c-3.4784.0086-6.3383-2.7883-6.3294-6.1897.0098-3.7443,2.7953-6.6206,6.3708-6.5788,3.4194.04,6.3409,2.8928,6.409,6.2583.0722,3.5644-2.8377,6.5013-6.4504,6.5102Z"/><path class="cls-1" d="m127.828,102.2381c-.0057-3.613,2.7487-6.3906,6.3276-6.3809,3.5557.0096,6.3872,2.7909,6.4409,6.3267.0525,3.4534-2.8593,6.3676-6.3887,6.3941-3.565.0268-6.3742-2.7648-6.3799-6.3399h0Z"/><path class="cls-1" d="m134.1343,185.237c-3.5191.007-6.2979-2.7076-6.3332-6.1868-.0367-3.6134,2.6859-6.5001,6.2073-6.5816,3.5135-.0812,6.6447,2.9853,6.5803,6.4446-.0665,3.5722-2.8676,6.3167-6.4543,6.3239h-.0001Z"/><path class="cls-1" d="m127.8281,121.3065c.0116-3.5553,2.8278-6.3147,6.4132-6.2841,3.4214.0292,6.3054,2.8727,6.3554,6.2661.0515,3.4981-2.9866,6.553-6.4939,6.5296-3.4451-.023-6.2862-2.9714-6.2747-6.5116Z"/></svg>