<?xml version="1.0" encoding="UTF-8"?><svg id="Layer_1" xmlns="http://www.w3.org/2000/svg" xmlns:xlink="http://www.w3.org/1999/xlink" viewBox="0 0 267.0239 295.2964"><defs><style>.cls-1{fill:none;}.cls-2{clip-path:url(#clippath);}.cls-3{fill:#4a9cd5;}.cls-4{clip-path:url(#clippath-1);}</style><clipPath id="clippath"><rect class="cls-1" x="45.5605" width="221.4634" height="135.9265"/></clipPath><clipPath id="clippath-1"><polygon class="cls-1" points="46.3528 73.4265 46.3528 129.6044 247.6112 129.6044 249.5921 291.216 225.361 295.2964 7.667 293.7117 0 283.1719 4.7541 80.8383 46.3528 73.4265"/></clipPath></defs><path class="cls-3" d="m85.994,185.5396c0-5.8368.1063-11.6763-.0421-17.5093-.0817-3.2124,2.3887-5.0527,5.4384-4.5386,14.077,2.373,27.3665-.0291,39.7461-7.1559,2.0837-1.1995,3.8138-1.1977,5.8787.0723,10.052,6.1821,21.0224,8.7917,32.784,7.9857,2.4865-.1704,4.9596-.589,7.427-.9703,2.6841-.4148,4.8682,1.3461,4.8713,4.0755.0128,11.417.2067,22.8385-.0443,34.25-.3338,15.1763-5.6469,28.6107-15.2408,40.3273-8.3937,10.2508-18.9537,17.6268-31.0206,22.9385-1.1142.4904-2.2315.5448-3.3535.0493-15.5219-6.8554-28.3903-16.8645-37.1922-31.5991-6.1671-10.324-9.2715-21.5378-9.2535-33.59.0071-4.7785.0012-9.557.0016-14.3354Zm7.3741,3.2196c0,4.0731-.0063,8.1461.0013,12.2192.0172,9.2445,2.1529,17.9818,6.4763,26.1443,7.4775,14.1173,19.1803,23.5522,33.5476,29.973.3796.1696.9693.1535,1.355-.0164,10.0853-4.4438,18.9635-10.5753,26.1211-19.0234,8.6706-10.2338,13.4722-22.0649,13.8112-35.493.2557-10.1281.0543-20.2677.0511-30.4022-.0004-1.3265-.412-1.6418-1.7359-1.4026-13.5552,2.4491-26.2639.2616-38.0403-6.9751-.6221-.3823-1.1168-.4232-1.763-.0477-11.8733,6.8979-24.5898,9.2343-38.143,7.005-1.3142-.2162-1.6797.109-1.6804,1.4701-.0027,5.5163-.0011,11.0325-.0011,16.5488Z"/><path class="cls-3" d="m95.3834,172.8326c6.7618,1.0879,13.3649.9787,19.9421-.2523,6.5672-1.2291,12.7429-3.545,18.6407-6.9588v89.5521c-.7278-.3279-1.3987-.6114-2.0536-.9279-11.0624-5.3453-20.4673-12.6826-27.3175-23.0068-6.1336-9.2442-9.2385-19.4327-9.2143-30.5557.0193-8.8833.003-17.7667.0026-26.65,0-.3733,0-.7465,0-1.2007Z"/><g class="cls-2"><g><path class="cls-3" d="m184.215,62.8625l-5.3878-1.4845c.6388-.434,1.2892-.8434,1.9558-1.2286,2.8816-1.6692,6.035-2.8581,9.3363-3.492-.894.7145-1.7736,1.5094-2.6285,2.3788-1.1286,1.1482-2.2265,2.427-3.2758,3.8263Z"/><path class="cls-3" d="m190.7905,62.3765c3.3655-3.4115,6.9891-5.4165,10.3654-5.4775l-2.7226,9.8811-9.3132-2.5661c.5495-.6486,1.1042-1.2639,1.6704-1.8375Z"/><path class="cls-3" d="m151.0261,127.8735c.3526-.2019.7865-.2697,1.2107-.1528l59.1807,16.3062c.4237.1167.7586.3964.9611.7512l.0073.0139c.1944.3579.2589.7976.1412,1.225l-3.4194,12.41c-.1195.4336-.4001.7782-.7495.9829l-.0127.0058c-.3519.202-.7865.2696-1.2102.1529l-59.1807-16.3062c-.4242-.1169-.7629-.3949-.9616-.7513l-.011-.0124c-.1945-.3573-.2591-.797-.1403-1.2281l3.4194-12.41c.1178-.4274.3984-.772.7486-.9798l.0164-.0074Z"/><path class="cls-3" d="m179.5117,84.5347l13.0398,3.5929-3.3503,12.1593-11.0437-3.0429c-.1059-3.9495.3261-8.2637,1.3542-12.7093Z"/><path class="cls-3" d="m186.1247,68.3282l11.0437,3.0429-3.3511,12.1624-13.0398-3.5929c1.394-4.3448,3.2332-8.274,5.3472-11.6124Z"/><path class="cls-3" d="m176.2552,78.6946l-8.8931-2.4503c1.5496-4.3046,3.9758-8.076,7.0224-11.1508l7.0453,1.9412c-2.0478,3.4471-3.8171,7.3788-5.1746,11.6599Z"/><path class="cls-3" d="m179.1157,104.7486c-.1916-.7857-.3538-1.5952-.4935-2.4337l9.3132,2.5661-2.7222,9.8799c-2.8689-1.7805-4.9542-5.3584-6.0974-10.0123Z"/><path class="cls-3" d="m174.5707,105.9275c.2896,1.1821.638,2.3153,1.0392,3.3894-2.5106-2.236-4.6102-4.8716-6.2292-7.7848-.3761-.669-.7249-1.3539-1.0515-2.0532l5.3878,1.4845c.1856,1.7355.4725,3.4.8538,4.9642Z"/><path class="cls-3" d="m173.4626,95.9504l-7.0453-1.9412c-1.0416-4.2019-1.1948-8.6801-.321-13.1709l8.8931,2.4503c-1.0261,4.3698-1.5202,8.6529-1.5268,12.6618Z"/><path class="cls-3" d="m217.4267,76.9529l7.049,1.9422c1.0345,4.1993,1.1933,8.683.3129,13.1719l-8.8864-2.4485c1.0201-4.3741,1.5136-8.6574,1.5246-12.6657Z"/><path class="cls-3" d="m214.6363,94.2126l8.8864,2.4485c-1.543,4.3064-3.9748,8.0723-7.0143,11.1498l-7.049-1.9422c2.0434-3.4477,3.8133-7.3793,5.1768-11.6561Z"/><path class="cls-3" d="m158.6454,21.6152c2.2553-1.3068,5.0101-1.7491,7.6955-1.0092l1.2685.3495,3.0622-11.1138c.2095-.7603.502-1.485.8626-2.1624.9254-1.7423,2.2705-3.0448,3.8423-3.7958,1.6279-.7794,3.4573-.9723,5.2844-.4689.5683.1566,1.1557.3935,1.7505.7128l73.4596,39.5641c2.1957,1.1831,3.8787,3.2847,4.8357,5.7338.8003,2.0371,1.0987,4.3459.7701,6.573l-.0077.0683c-.0566.4476-.1538.8952-.2768,1.3417l-32.6838,118.6207c-.1239.4496-.269.8814-.4501,1.2966l-.0128.035-.0142.0227-.0022.008-.012.0319-.017.0331c-.1619.3859-.3445.7522-.5412,1.0908-.3287.5593-.7026,1.0689-1.1139,1.5243l-.0215.026-.0187.0274c-.749.8455-1.6252,1.5622-2.5874,2.1203-2.2626,1.3075-5.0107,1.7516-7.6961,1.0117l-87.8283-24.1995c-2.6854-.7399-4.8249-2.5307-6.0919-4.8107-1.273-2.2843-1.6895-5.0662-.9378-7.7946l32.6838-118.6207c.7518-2.7284,2.535-4.9069,4.7982-6.2162Zm-16.323,118.4104c-.4654,1.6891-.2067,3.4155.5861,4.832l.0005.0127c.7928,1.4165,2.118,2.5284,3.7798,2.9863l59.1807,16.3062c1.6582.4569,3.366.1806,4.7723-.6299l.0054-.0051.0015-.0056c1.4071-.813,2.5131-2.164,2.9776-3.85l3.4194-12.41c.4644-1.6853.2069-3.4141-.5788-4.8299l-.0074-.0133c-.7928-1.4165-2.112-2.5241-3.7769-2.9829l-59.1807-16.3062c-1.6618-.4579-3.3696-.1816-4.7753.6265l-.0066.0095c-1.4067.8117-2.5132,2.162-2.9782,3.8498l-3.4194,12.41Zm86.4457-44.3915c2.5754-9.3469,1.1748-18.8418-3.1666-26.628-4.3438-7.7895-11.6272-13.8748-20.8267-16.4095-9.2001-2.5349-18.5791-1.0407-26.3002,3.4246-7.7125,4.465-13.7748,11.9037-16.3502,21.2505-2.5759,9.3488-1.1783,18.8402,3.1584,26.6271,4.3451,7.7873,11.6352,13.8743,20.8353,16.4093,9.1995,2.5347,18.5718,1.0387,26.2915-3.4243,7.7172-4.4657,13.7826-11.9009,16.3585-21.2496Zm-56.6401-73.4335l69.267,19.0853-61.2046-32.9616c-.2478-.1354-.5156-.2411-.7946-.3179-.7209-.1986-1.4327-.131-2.0441.163-.6708.3221-1.268.9137-1.6993,1.7265-.1786.3375-.337.7364-.4622,1.1909l-3.0622,11.1138Z"/><path class="cls-3" d="m216.3141,66.9779c-.289-1.1846-.6373-2.3178-1.0319-3.3874,2.5035,2.2333,4.6029,4.8696,6.2296,7.7809.3752.6722.7205,1.356,1.0438,2.0551l-5.3878-1.4845c-.1846-1.7393-.4725-3.4-.8538-4.9642Z"/><path class="cls-3" d="m204.7609,104.5741l-11.0406-3.042,3.3503-12.1593,13.0398,3.5929c-1.3934,4.345-3.2356,8.2706-5.3494,11.6085Z"/><path class="cls-3" d="m200.0973,110.5297c-3.3619,3.4125-6.9921,5.4156-10.365,5.4763l2.7222-9.8799,9.3101,2.5652c-.5495.6486-1.104,1.2606-1.6673,1.8383Z"/><path class="cls-3" d="m205.6751,58.1442c2.8655,1.7809,4.9574,5.3606,6.0971,10.0135.1888.7816.3507,1.5943.4905,2.4329l-9.3101-2.5652,2.7226-9.8811Z"/><path class="cls-3" d="m206.6698,110.0429l5.3878,1.4845c-.6356.4342-1.2824.8447-1.9481,1.2267-2.8893,1.671-6.0425,2.8594-9.3367,3.4959.8874-.719,1.767-1.5139,2.6212-2.3808,1.1286-1.1482,2.2275-2.4308,3.2758-3.8263Z"/><path class="cls-3" d="m211.3762,88.3715l-13.0398-3.5929,3.3511-12.1624,11.0406,3.042c.1058,3.95-.3233,8.2677-1.352,12.7132Z"/></g><path class="cls-3" d="m53.5212,116.78c-.2208-16.8434-.4477-33.6867-.6593-50.5302-.0833-6.6368,4.0222-12.1792,10.2854-13.8424,1.0808-.287,2.2305-.42,3.3511-.4361,18.6858-.2682,37.3719-.5166,56.0583-.7466,7.8102-.0961,13.9073,5.9618,14.0174,13.9158.2407,17.3928.46,34.7859.6879,52.1789.214,16.3261.437,32.6522.6375,48.9785.0866,7.0533-4.6644,12.8705-11.4648,14.0616-.854.1496-1.737.1721-2.6074.1839-18.4274.2497-36.855.4878-55.2825.7316-8.1124.1073-14.2472-5.8402-14.3584-13.9648-.2307-16.8433-.4445-33.6868-.6651-50.5302Zm7.6363-.1233c22.8546-.2996,45.5946-.5976,68.3961-.8965.0136-.3834.0382-.699.0341-1.0142-.2147-16.5205-.4258-33.041-.6532-49.5612-.0529-3.8449-2.6998-6.3951-6.5645-6.3459-18.4926.2356-36.9852.478-55.4777.7272-3.8635.0521-6.4398,2.672-6.3919,6.5198.2053,16.4882.4269,32.9763.6425,49.4644.0045.3462.0091.6923.0145,1.1064Zm31.1629,28.1044h.0039c.0822,6.268.1532,12.5363.2526,18.804.0343,2.1624,1.4873,3.6689,3.4462,3.6616,1.9513-.0073,3.4261-1.5633,3.4007-3.6995-.1493-12.5337-.309-25.0673-.5112-37.6003-.0118-.7314-.2906-1.5411-.6818-2.1662-.7755-1.239-2.3965-1.7101-3.7702-1.2753-1.4847.47-2.4022,1.8263-2.3815,3.5999.0727,6.2253.1598,12.4505.2414,18.6757Zm12.7038-.0912c.0818,6.2381.1578,12.4764.2488,18.7144.0273,1.8719.9614,3.1427,2.5563,3.5562,2.2918.5942,4.3021-1.1169,4.2702-3.6649-.1413-11.2804-.2922-22.5608-.44-33.8411-.0169-1.2929-.0107-2.5867-.0598-3.8784-.0645-1.6974-1.1696-3.0005-2.7461-3.3045-2.233-.4306-4.0964,1.1946-4.0708,3.6069.0665,6.2706.1591,12.541.2414,18.8114Zm-18.6588-8.8036c-.0436-3.3283-.0624-6.6571-.1404-9.9846-.0456-1.9458-1.5496-3.3867-3.4112-3.3752-1.869.0116-3.4082,1.4706-3.3932,3.3981.0523,6.7214.1505,13.4426.2606,20.1634.0235,1.4321.9668,2.6252,2.2761,3.0794,2.2592.7837,4.5287-.8339,4.5275-3.2963-.0016-3.3283-.0768-6.6566-.1195-9.9848Z"/><path class="cls-3" d="m72.0197,88.8964c.0002-4.48.3705-9.573,2.1631-14.4321.55-1.4909,1.4218-2.8896,2.3101-4.2211.7458-1.1179,1.9412-1.4943,3.3152-1.4185,6.7627.373,12.3203,4.9173,13.7761,11.3628.099.4382-.0138,1.0222-.2377,1.4206-2.9787,5.2996-2.9065,10.5077.3478,15.6654.1672.265.2413.6688.1898.9799-1.094,6.6088-7.3339,11.9017-14.0619,11.9765-1.4087.0157-2.4784-.6649-3.1685-1.7535-.9095-1.4348-1.7804-2.9411-2.3606-4.5289-1.6944-4.6366-2.1739-9.4935-2.2734-15.0512Z"/><path class="cls-3" d="m106.6569,100.2333c-5.3675.0528-10.6022-3.5051-12.2237-8.3856-.6739-2.0285-.5519-4.0721.252-6.0695,2.2949-5.7022,9.8131-9.1181,15.5898-7.075,5.1165,1.8096,8.137,6.973,7.2504,12.3942-.8495,5.1941-5.4756,9.0828-10.8685,9.1359Z"/></g><g class="cls-4"><path class="cls-3" d="m124.3879,291.2133c-34.4035,0-68.807.0055-103.2105-.0047-6.7432-.002-11.2181-2.865-12.839-8.3339-.4657-1.5711-.6414-3.2823-.6423-4.9293-.0316-58.7261-.0391-117.4522-.0145-176.1782.0042-9.9548,6.1472-16.1934,16.0902-16.2203,25.3636-.0686,50.7275-.0336,76.0913-.0145,4.9473.0037,9.1694,1.6066,12.716,5.2926,6.6931,6.9564,13.6457,13.6623,20.3971,20.5637,2.3074,2.3587,4.905,3.4072,8.2024,3.3984,23.345-.062,46.6902-.0352,70.0353-.0311,10.3145.0018,14.8538,3.5251,17.5257,13.4337.1649.6113,1.0792,1.406,1.6945,1.4521,8.4956.6366,14.341,7.2339,14.301,16.983-.1744,42.4857-.0712,84.9726-.0776,127.459-.0017,11.129-5.9624,17.122-17.0591,17.1258-34.4035.0117-68.807.0043-103.2105.0038Zm-93.0244-7.8936h2.6701c64.5001,0,129.0003.001,193.5004-.0019,6.7494-.0003,9.2272-2.4668,9.2283-9.1829.0045-27.1219.0021-54.2438.0021-81.3657,0-15.5359.0095-31.0717-.0052-46.6075-.0057-6.0624-2.5848-8.5947-8.6944-8.6247-.1755-.0009-.351-.0006-.5265-.0006-62.3062,0-124.6124-.001-186.9186.0014-6.8364.0003-9.255,2.4672-9.2553,9.4263-.0018,42.6578-.0009,85.3155-.0009,127.9733,0,2.6238,0,5.2476,0,8.3824Zm189.2707-153.6876c0-.7715.0587-1.1279-.009-1.4584-.7254-3.5365-3.6094-5.5154-8.1519-5.5178-23.7842-.0124-47.5686-.063-71.3523.0354-5.3546.0221-9.6801-1.7563-13.4002-5.56-6.6891-6.8395-13.5618-13.4994-20.2424-20.347-2.3096-2.3673-4.8563-3.4189-8.1719-3.4089-24.9249.0751-49.8501.0368-74.7752.0438-6.3533.0018-8.9636,2.5979-8.9641,8.9207-.0048,58.2875-.0037,116.5749.0035,174.8624.0001.9623-.0405,1.9573.1777,2.8803.4849,2.0512,1.8944,3.2033,3.9958,3.0804,1.9304-.1129,3.3183-1.1607,3.5761-3.2227.1409-1.1267.1419-2.2756.1421-3.4146.0065-43.2767.0125-86.5534-.0044-129.8301-.0018-4.7215.9097-9.0816,4.3928-12.5539,3.5302-3.5191,7.8775-4.5462,12.747-4.542,58.8018.0502,117.6036.0324,176.4054.0323,1.1236,0,2.2473,0,3.6311,0Z"/></g></svg>