<?xml version="1.0" encoding="UTF-8"?><svg id="Layer_1" xmlns="http://www.w3.org/2000/svg" viewBox="0 0 219.1415 270.901"><defs><style>.cls-1{fill:#4a9cd5;}</style></defs><path class="cls-1" d="m109.5432,270.8967c-28.5403,0-57.0805.0105-85.6208-.0052-11.2456-.0062-20.5442-7.0847-23.2228-17.7325-.4622-1.8374-.662-3.7881-.6644-5.6869-.0395-31.6627-.0454-63.3254-.02-94.9881.0106-13.2338,10.4091-23.4288,23.8867-23.4386,29.4715-.0216,58.943-.0068,88.4146-.0067,27.6638,0,55.3276-.0153,82.9914.0077,11.9513.0099,21.7011,8.188,23.568,19.7355.2345,1.4501.2531,2.9465.2537,4.4215.0137,31.2245.0081,62.4489.0118,93.6734.0016,13.7461-10.2107,24.0072-23.9775,24.0154-28.5403.0168-57.0805.0051-85.6208.0047Zm-.0393-12.9399v-115.8936c-.6492-.0316-1.1833-.0803-1.7175-.0804-27.993-.0031-55.986-.0124-83.979.0061-6.5151.0043-10.8943,4.4319-10.8967,10.9804-.0114,31.3347-.0115,62.6693,0,94.004.0024,6.5465,4.3838,10.9694,10.9037,10.9736,27.9382.0184,55.8765.0091,83.8147.0099.5866,0,1.1731,0,1.8748,0Zm48.3052-52.1708v-.0066c10.6209,0,21.2419.0188,31.8627-.0103,3.6643-.0101,6.2488-2.4383,6.2798-5.7571.0309-3.306-2.5725-5.8391-6.192-5.8435-21.2374-.0254-42.4749-.0332-63.7121.0311-1.2393.0038-2.6173.458-3.685,1.107-2.1163,1.2863-2.9504,4.0221-2.2443,6.359.7632,2.5258,3.0408,4.1102,6.046,4.1145,10.5483.015,21.0966.0058,31.645.0058Zm.1276-21.5243c10.5702,0,21.1404.0097,31.7106-.0059,3.1719-.0047,5.3456-1.5589,6.0816-4.2518,1.0575-3.8695-1.7967-7.3132-6.1142-7.3157-19.114-.0111-38.228-.0059-57.3419-.0061-2.1907,0-4.3825-.0393-6.5719.0152-2.877.0716-5.1092,1.9148-5.6593,4.5789-.7791,3.7735,1.9329,6.9664,6.0202,6.9766,10.6249.0266,21.2499.0089,31.8749.0088Zm-15.3291,31.4155c-5.6396,0-11.2796-.0422-16.9186.0161-3.2976.034-5.7721,2.5501-5.7938,5.7041-.0218,3.1667,2.4157,5.8067,5.6815,5.8241,11.3883.0607,22.7773.0436,34.1658.0063,2.4266-.0079,4.469-1.5796,5.2675-3.7878,1.3778-3.81-1.3122-7.6908-5.4839-7.7435-5.6387-.0712-11.2789-.0177-16.9185-.0194Z"/><path class="cls-1" d="m62.7148,238.9383c-7.5898-.0999-16.2099-.8403-24.4022-3.9851-2.5136-.9649-4.8638-2.4729-7.0999-4.0075-1.8773-1.2883-2.4884-3.3218-2.3296-5.6479.782-11.4488,8.6043-20.7633,19.5563-23.0866.7446-.158,1.7315.0461,2.4015.4343,8.9122,5.164,17.7372,5.1574,26.5474-.2413.4527-.2774,1.1383-.394,1.6644-.2998,11.1721,2.0002,20.0006,12.6891,19.9779,24.089-.0047,2.387-1.1815,4.1841-3.0411,5.3289-2.451,1.509-5.0222,2.951-7.725,3.8987-7.8928,2.7676-16.1317,3.4721-25.5496,3.5173Z"/><path class="cls-1" d="m82.6904,180.5091c-.0297,9.0946-6.1737,17.884-14.478,20.5226-3.4516,1.0967-6.911.8445-10.277-.5617-9.6095-4.0145-15.2296-16.8273-11.6399-26.5687,3.1794-8.628,11.994-13.6305,21.1587-12.0081,8.7808,1.5545,15.2661,9.4783,15.2362,18.6159Z"/><g><path class="cls-1" d="m100.1531,51.8923c4.1926,1.3912,5.9745,4.5388,6.6688,8.3878,1.0342,5.7335-.006,10.9989-4.3629,15.1648-1.0027.9588-2.4832,1.5096-3.8381,1.9726-.7624.2606-1.0948.4905-1.2856,1.2812-2.1536,8.9224-6.4463,16.6757-13.1989,22.9038-7.8333,7.2248-16.9792,11.3126-27.864,10.5447-7.7567-.5472-14.3549-3.8488-20.131-8.9122-7.6453-6.7021-12.7042-14.9733-15.0219-24.9011-.1115-.4776-.4139-1.1033-.8051-1.2921-2.8234-1.3626-4.545-3.6818-5.6573-6.4759-1.7864-4.4878-1.9312-9.0304.0458-13.5071.4547-1.0295,1.0738-2.0971,1.9012-2.8241,1.0981-.9649,1.1637-1.8442.8414-3.1923-2.7089-11.3335.2183-21.293,7.9448-29.775,8.8552-9.7211,19.9319-15.0274,33.146-15.7472,7.249-.3948,14.3044.3143,20.9408,3.4625,4.8852,2.3174,8.5929,5.8734,10.8881,10.8356.2077.4491.6234.9594,1.0609,1.1214,7.0687,2.6168,10.3961,8.0673,11.5041,15.1656.8093,5.1846-.086,10.1329-2.3475,14.8491-.1349.2814-.2604.5674-.4298.9377Zm-39.9516-14.6168l-.3976-.3074c-.3053.0473-.6191.0639-.9146.1462-11.1207,3.097-21.3118,8.1021-30.5678,14.9915-.4458.3318-.7618,1.1109-.7826,1.6944-.1012,2.8425-1.0104,4.0204-3.8275,4.6814-1.7819.4181-2.9139,1.4645-3.2322,3.3136-.4444,2.5812-.1267,5.0584,1.2771,7.2793.4535.7174,1.2362,1.4659,2.016,1.693,2.3102.6727,3.487,2.0858,3.9079,4.4277,1.6081,8.9494,5.9594,16.3831,12.7026,22.4302,5.2221,4.683,11.1977,7.683,18.365,7.6219,7.8653-.0671,14.5351-3.3358,20.2498-8.4461,6.5749-5.8795,10.4051-13.3994,12.0417-22.0555.5747-3.0396,1.67-3.9724,4.7034-4.155,1.6134-.0971,2.8757-.8175,3.4426-2.3195.4789-1.2687.8644-2.6332.952-3.9774.2327-3.57-1.2672-5.0298-4.8588-4.9904-2.4693.0271-4.1915-1.6033-4.2245-4.0657-.0283-2.1106.2046-4.2449-.0383-6.3267-.2456-2.1052-.6624-4.2741-1.4853-6.2107-1.6798-3.953-5.3165-5.9108-8.8473-7.919-1.0641-.6052-1.7826-.5449-2.7627.3081-5.3485,4.6553-11.5598,7.7255-18.3862,9.5485-.5923.1582-1.498-.0273-1.9629-.4109-.752-.6206-.1748-1.3704.2063-2.0815.8561-1.5976,1.6215-3.2439,2.4238-4.8703Z"/><path class="cls-1" d="m115.5552,101.4324c0,2.6614.0156,5.3229-.0053,7.9841-.0147,1.882-.7058,2.6001-2.5845,2.6084-5.3685.0237-10.7372-.0016-16.1057.0205-1.0744.0044-1.6319-.3637-1.5935-1.5175.0457-1.375.0356-2.7534.0015-4.1291-.0257-1.0391.3852-1.4915,1.4645-1.4765,2.9361.0407,5.8731.0201,8.8098.01,2.2003-.0075,2.8748-.6891,2.8783-2.8815.0047-2.9367.0359-5.8739-.0117-8.8098-.0185-1.1424.4301-1.5701,1.5476-1.5238,1.3283.0551,2.6632.0638,3.9906-.0018,1.1854-.0586,1.6488.3936,1.6243,1.5957-.0551,2.7061-.0173,5.4141-.0159,8.1214Z"/><path class="cls-1" d="m16.6111,112.0339c-2.6611,0-5.3224.0196-7.9832-.0067-1.8599-.0184-2.5887-.7459-2.5947-2.5909-.0174-5.368.0091-10.7362-.0262-16.104-.0078-1.1777.4274-1.677,1.6199-1.6224,1.282.0587,2.5713.0636,3.8526-.0012,1.2304-.0622,1.7294.3851,1.7002,1.6647-.0669,2.9348-.0268,5.8723-.0193,8.8086.0052,2.0297.7008,2.7397,2.7237,2.7496,2.9363.0144,5.8733.0385,8.8088-.0131,1.1833-.0208,1.6814.4216,1.6364,1.6073-.0487,1.2828-.0535,2.5709.0047,3.8529.0579,1.2751-.5291,1.692-1.7398,1.6702-2.6602-.0481-5.3219-.0149-7.983-.0151Z"/><path class="cls-1" d="m105.0152.0198c2.6574,0,5.315-.0171,7.9722.0058,1.8774.0162,2.5592.7086,2.5634,2.5938.0121,5.3606-.0128,10.7214.0184,16.0819.0067,1.1595-.3901,1.6966-1.6043,1.6308-1.2336-.0669-2.4733-.022-3.7104-.0222-1.691-.0002-1.8277-.1219-1.8315-1.76-.0066-2.8407.002-5.6814-.0033-8.5221-.0043-2.3011-.6082-2.8978-2.9585-2.906-2.8406-.0099-5.6823-.0483-8.5216.0149-1.2685.0282-1.7406-.465-1.679-1.6976.0594-1.1882.0087-2.3819.0114-3.5731.0038-1.6771.1435-1.834,1.7708-1.8409,2.6574-.0113,5.3148-.0031,7.9722-.0054Z"/><path class="cls-1" d="m16.6323.0179C19.2931.0179,21.9546.0555,24.6143.001c1.2231-.025,1.7855.3956,1.722,1.6688-.064,1.2814-.0563,2.5699-.0065,3.8524.0467,1.2014-.4972,1.623-1.6546,1.6087-2.9353-.0364-5.8715-.0142-8.8073.0006-2.0409.0103-2.7033.6884-2.7074,2.7449-.0058,2.936-.0445,5.873.0182,8.8077.0256,1.1972-.4227,1.6756-1.5944,1.6425-1.3751-.0388-2.7524-.0197-4.1285-.0023-.9501.0121-1.4406-.3588-1.4373-1.3788.018-5.5509-.0073-11.102.0183-16.6528.0069-1.499.7958-2.2426,2.3379-2.2589,2.7522-.0292,5.505-.0082,8.2575-.0082v-.0078Z"/><path class="cls-1" d="m56.9662,75.9048c0-1.6045-.0471-3.211.0169-4.8129.0414-1.0371-.367-1.3518-1.3663-1.3379-3.1626.044-6.327-.0239-9.4891.0357-1.1061.0209-1.5311-.2922-1.5416-1.4559-.0363-4.0061-.0742-4.0058,3.9622-4.0056,2.338,0,4.6771-.0405,7.0137.0183,1.0662.0268,1.4539-.3135,1.4326-1.4149-.0611-3.1621.0181-6.3268-.0427-9.4889-.0207-1.0787.3682-1.4458,1.4104-1.4976,4.0619-.2019,4.0609-.2251,4.0616,3.7501.0004,2.3839.0506,4.7693-.0218,7.151-.0344,1.1306.3211,1.5309,1.4739,1.5074,3.116-.0635,6.2347.0118,9.3511-.0425,1.1767-.0205,1.6997.3589,1.5882,1.5847-.0786.8639-.0563,1.743-.006,2.6111.0558.9643-.3578,1.285-1.2961,1.2751-3.2087-.034-6.4187.0291-9.6266-.0303-1.1464-.0212-1.5065.3686-1.4838,1.5037.0632,3.162-.0123,6.3266.0394,9.489.0179,1.0918-.3762,1.4882-1.4487,1.4127-.9577-.0674-1.9249-.0321-2.8866-.0025-.8286.0255-1.1502-.3584-1.1403-1.1612.021-1.696.0064-3.3924.0064-5.0886h-.0068Z"/></g><path class="cls-1" d="m162.6119,112.6561c-7.6019,0-15.2041.0329-22.8058-.0097-6.9977-.0392-10.0413-5.3972-6.4793-11.4013,7.5354-12.7017,15.0901-25.392,22.6679-38.0685,3.4636-5.7942,9.6275-5.7956,13.1079-.0028,7.6062,12.6597,15.1923,25.3315,22.7521,38.019,3.5674,5.9871.5139,11.4146-6.437,11.4536-7.6017.0427-15.2038.0097-22.8057.0097Zm-3.8923-36.2774c.4225,4.9542.7974,9.2728,1.1555,13.5927.1316,1.5875.8357,3.0277,2.4756,2.8279,1.0083-.1228,2.571-1.3574,2.6826-2.244.6547-5.2038,1.0484-10.4471,1.3278-15.6879.1065-1.9981-1.2304-3.2304-3.2263-3.495-1.9708-.2612-3.496.5716-4.1668,2.4312-.3517.9749-.2136,2.1264-.2484,2.5751Zm8.0601,24.0852c.0661-2.2001-1.8174-4.2008-4.052-4.3039-2.2278-.1028-4.2326,1.7172-4.3643,3.9619-.1386,2.363,1.7543,4.3692,4.145,4.3933,2.2686.0229,4.2039-1.8128,4.2712-4.0514Z"/></svg>