<?xml version="1.0" encoding="UTF-8"?><svg id="Layer_1" xmlns="http://www.w3.org/2000/svg" viewBox="0 0 275.5303 285.203"><defs><style>.cls-1{fill:none;stroke:#fff;stroke-miterlimit:10;stroke-width:12px;}.cls-2{fill:#fff;}.cls-3{fill:#9cdbf7;}.cls-4{fill:#4a9cd5;}</style></defs><path class="cls-4" d="m106.0238,137.3053c-27.6233,0-55.2467.0101-82.87-.005-10.8843-.006-19.8841-6.8571-22.4767-17.1628-.4474-1.7784-.6407-3.6664-.643-5.5042C-.0041,83.9879-.0098,53.3424.0148,22.697.0251,9.8883,10.0895.0209,23.1341.0114c28.5246-.0209,57.0493-.0066,85.574-.0065,26.775,0,53.55-.0148,80.325.0074,11.5673.0096,21.0039,7.9249,22.8108,19.1014.2269,1.4036.2449,2.8518.2455,4.2794.0133,30.2213.0078,60.4426.0114,90.6639.0016,13.3045-9.8826,23.2359-23.2071,23.2438-27.6233.0163-55.2466.0049-82.87.0046Zm-.0381-12.5241V12.611c-.6283-.0306-1.1453-.0777-1.6623-.0778-27.0937-.003-54.1873-.012-81.281.0059-6.3057.0042-10.5443,4.2895-10.5466,10.6276-.0111,30.328-.0111,60.6559,0,90.9839.0023,6.3361,4.243,10.6169,10.5534,10.6211,27.0406.0178,54.0813.0088,81.1219.0096.5677,0,1.1354,0,1.8146,0Zm46.7533-50.4946v-.0064c10.2797,0,20.5594.0182,30.839-.01,3.5466-.0097,6.048-2.36,6.0781-5.5721.0299-3.1998-2.4898-5.6515-5.9931-5.6557-20.5551-.0245-41.1103-.0321-61.6652.0301-1.1995.0036-2.5332.4433-3.5667,1.0714-2.0483,1.245-2.8556,3.8929-2.1722,6.1547.7387,2.4447,2.9431,3.9782,5.8517,3.9823,10.2094.0145,20.4188.0056,30.6283.0056Zm.1235-20.8328c10.2306,0,20.4612.0094,30.6918-.0057,3.07-.0045,5.1739-1.5088,5.8862-4.1152,1.0236-3.7451-1.7389-7.0782-5.9177-7.0807-18.4999-.0108-36.9998-.0057-55.4996-.0059-2.1203,0-4.2417-.038-6.3607.0147-2.7846.0693-4.9451,1.8533-5.4775,4.4318-.7541,3.6523,1.8708,6.7426,5.8268,6.7525,10.2835.0257,20.5672.0087,30.8508.0085Zm-14.8366,30.4062c-5.4584,0-10.9172-.0408-16.3751.0156-3.1916.033-5.5866,2.4681-5.6077,5.5208-.0211,3.065,2.3381,5.6201,5.499,5.637,11.0224.0588,22.0455.0422,33.0681.0061,2.3487-.0077,4.3254-1.5289,5.0983-3.6661,1.3336-3.6876-1.27-7.4437-5.3077-7.4947-5.4575-.0689-10.9166-.0171-16.375-.0187Z"/><path class="cls-4" d="m60.6999,106.3736c-7.346-.0967-15.6891-.8133-23.6182-3.8571-2.4329-.9339-4.7075-2.3935-6.8718-3.8787-1.817-1.2469-2.4085-3.2151-2.2547-5.4665.7569-11.081,8.3278-20.0962,18.928-22.3449.7207-.1529,1.6759.0446,2.3243.4203,8.6259,4.9981,17.1673,4.9917,25.6945-.2336.4381-.2685,1.1018-.3814,1.6109-.2902,10.8131,1.9359,19.358,12.2815,19.336,23.3151-.0046,2.3103-1.1436,4.0496-2.9434,5.1577-2.3723,1.4605-4.8608,2.8562-7.4769,3.7735-7.6393,2.6787-15.6134,3.3605-24.7288,3.4043Z"/><path class="cls-4" d="m80.0338,49.8217c-.0288,8.8024-5.9753,17.3094-14.0128,19.8632-3.3407,1.0615-6.689.8174-9.9468-.5436-9.3008-3.8855-14.7403-16.2867-11.266-25.7151,3.0772-8.3508,11.6087-13.1926,20.4789-11.6223,8.4987,1.5045,14.7756,9.1738,14.7467,18.0178Z"/><rect class="cls-2" x="178.6332" y="80.8913" width="34.262" height="13.8471" transform="translate(391.5283 175.6297) rotate(180)"/><rect class="cls-2" x="86.5541" y="80.8913" width="75.8658" height="13.8471" transform="translate(248.974 175.6297) rotate(180)"/><rect class="cls-2" x="100.148" y="101.1521" width="86.1329" height="13.8471" transform="translate(286.4289 216.1512) rotate(180)"/><rect class="cls-4" x="176.7212" y="149.5558" width="37.7035" height="13.8471" transform="translate(391.1459 312.9587) rotate(180)"/><rect class="cls-4" x="222.0148" y="207.5753" width="53.5155" height="6.9235" transform="translate(497.5451 422.0741) rotate(180)"/><rect class="cls-4" x="222.0148" y="218.6266" width="53.5155" height="6.9235" transform="translate(497.5451 444.1768) rotate(180)"/><rect class="cls-4" x="206.1902" y="249.0649" width="55.077" height="6.9235" transform="translate(467.4574 505.0534) rotate(180)"/><rect class="cls-4" x="220.4533" y="263.8" width="55.077" height="6.9235" transform="translate(495.9836 534.5236) rotate(180)"/><rect class="cls-4" x="158.7424" y="263.8" width="55.077" height="6.9235" transform="translate(372.5619 534.5236) rotate(180)"/><rect class="cls-4" x="220.4533" y="278.2795" width="55.077" height="6.9235" transform="translate(495.9836 563.4825) rotate(180)"/><rect class="cls-4" x="183.3748" y="278.2795" width="30.4447" height="6.9235" transform="translate(397.1942 563.4825) rotate(180)"/><rect class="cls-4" x="183.9866" y="231.3663" width="54.6815" height="6.9235" transform="translate(422.6547 469.6562) rotate(180)"/><rect class="cls-4" x="120.5508" y="231.3663" width="54.6815" height="6.9235" transform="translate(295.7831 469.6562) rotate(180)"/><rect class="cls-4" x="157.0993" y="218.6266" width="55.1075" height="6.9235" transform="translate(369.3062 444.1768) rotate(180)"/><rect class="cls-4" x="109.5022" y="171.0445" width="76.7787" height="13.8471" transform="translate(295.7831 355.9361) rotate(180)"/><rect class="cls-3" x="124.487" y="192.5332" width="61.7939" height="13.8471" transform="translate(310.7679 398.9135) rotate(180)"/><rect class="cls-4" x="92.7524" y="149.5558" width="69.3138" height="13.8471" transform="translate(254.8186 312.9587) rotate(180)"/><g><g><path class="cls-1" d="m170.6927,221.7046c50.2033-6.4415,85.3913-52.231,78.9379-102.7205-6.4006-50.0767-52.25-85.5309-102.3298-78.9926-50.8174,6.6347-85.8411,53.3875-78.5905,103.9646,7.0774,49.3687,52.2572,84.2148,101.9824,77.7485Zm-78.65-82.1918c-4.9108-36.3867,21.1596-70.91,57.2275-75.7825,37.3446-5.045,71.6907,20.5872,76.6868,57.2306,5.168,37.9044-20.3355,71.8706-57.7948,76.9722-37.365,5.0889-71.0359-20.7529-76.1195-58.4203Z"/><path class="cls-1" d="m114.9225,220.0141c-11.9289-5.9157-22.0656-13.9036-30.8492-23.9079-.6087.6253-1.0829,1.0264-1.4549,1.5071-10.8796,14.058-21.8129,28.0748-32.5984,42.2051-7.6531,10.0266-5.5914,23.0059,4.499,29.5837,8.0125,5.2232,19.2209,4.119,25.1948-3.3407,11.8535-14.8017,23.2531-29.9696,34.8307-44.9935.153-.1985.1823-.4929.3779-1.0539Z"/></g><g><path class="cls-2" d="m170.6927,221.7046c50.2033-6.4415,85.3913-52.231,78.9379-102.7205-6.4006-50.0767-52.25-85.5309-102.3298-78.9926-50.8174,6.6347-85.8411,53.3875-78.5905,103.9646,7.0774,49.3687,52.2572,84.2148,101.9824,77.7485Zm-78.65-82.1918c-4.9108-36.3867,21.1596-70.91,57.2275-75.7825,37.3446-5.045,71.6907,20.5872,76.6868,57.2306,5.168,37.9044-20.3355,71.8706-57.7948,76.9722-37.365,5.0889-71.0359-20.7529-76.1195-58.4203Z"/><path class="cls-2" d="m114.9225,220.0141c-11.9289-5.9157-22.0656-13.9036-30.8492-23.9079-.6087.6253-1.0829,1.0264-1.4549,1.5071-10.8796,14.058-21.8129,28.0748-32.5984,42.2051-7.6531,10.0266-5.5914,23.0059,4.499,29.5837,8.0125,5.2232,19.2209,4.119,25.1948-3.3407,11.8535-14.8017,23.2531-29.9696,34.8307-44.9935.153-.1985.1823-.4929.3779-1.0539Z"/></g><g><path class="cls-4" d="m170.6927,221.7046c50.2033-6.4415,85.3913-52.231,78.9379-102.7205-6.4006-50.0767-52.25-85.5309-102.3298-78.9926-50.8174,6.6347-85.8411,53.3875-78.5905,103.9646,7.0774,49.3687,52.2572,84.2148,101.9824,77.7485Zm-78.65-82.1918c-4.9108-36.3867,21.1596-70.91,57.2275-75.7825,37.3446-5.045,71.6907,20.5872,76.6868,57.2306,5.168,37.9044-20.3355,71.8706-57.7948,76.9722-37.365,5.0889-71.0359-20.7529-76.1195-58.4203Z"/><path class="cls-4" d="m114.9225,220.0141c-11.9289-5.9157-22.0656-13.9036-30.8492-23.9079-.6087.6253-1.0829,1.0264-1.4549,1.5071-10.8796,14.058-21.8129,28.0748-32.5984,42.2051-7.6531,10.0266-5.5914,23.0059,4.499,29.5837,8.0125,5.2232,19.2209,4.119,25.1948-3.3407,11.8535-14.8017,23.2531-29.9696,34.8307-44.9935.153-.1985.1823-.4929.3779-1.0539Z"/></g></g></svg>