<?xml version="1.0" encoding="UTF-8"?><svg id="Layer_1" xmlns="http://www.w3.org/2000/svg" viewBox="0 0 292.6362 189.4461"><defs><style>.cls-1{fill:#fff;}</style></defs><path class="cls-1" d="m146.2813,189.4404c-38.112,0-76.2239.014-114.3359-.007-15.017-.0083-27.4342-9.4607-31.0112-23.6796-.6173-2.4536-.884-5.0586-.8872-7.5942C-.0056,115.8782-.0135,73.5966.0205,31.315.0346,13.6429,13.9205.0289,31.9182.0157,71.2737-.0132,110.6293.0066,149.9848.0067,186.9263.0067,223.8679-.0137,260.8094.0169c15.9594.0132,28.9791,10.934,31.4722,26.3542.3131,1.9365.3379,3.9347.3388,5.9043.0184,41.6964.0108,83.3928.0158,125.0891.0022,18.3562-13.6351,32.0587-32.0189,32.0695-38.1119.0225-76.2239.0068-114.3359.0063h-.0001Zm-.0525-17.2795V17.3994c-.8669-.0422-1.5802-.1072-2.2935-.1073-37.3812-.0042-74.7623-.0166-112.1435.0081-8.7.0058-14.548,5.9183-14.5512,14.6629-.0153,41.8435-.0154,83.6871,0,125.5306.0032,8.742,5.8541,14.6482,14.5605,14.6539,37.308.0245,74.616.0121,111.924.0132h2.5037Zm64.5056-69.6675v-.0088c14.1829,0,28.3659.0251,42.5486-.0138,4.8932-.0134,8.3445-3.2561,8.3859-7.6879.0413-4.4147-3.4352-7.7974-8.2687-7.8032-28.3599-.0339-56.7199-.0443-85.0795.0416-1.655.005-3.4951.6116-4.9209,1.4782-2.826,1.7177-3.9399,5.3711-2.9969,8.4917,1.0192,3.3729,4.0606,5.4887,8.0736,5.4944,14.0859.02,28.1719.0078,42.2579.0078h0Zm.1704-28.743c14.1152,0,28.2304.013,42.3455-.0079,4.2357-.0063,7.1384-2.0817,8.1212-5.6777,1.4122-5.1672-2.3992-9.7658-8.1647-9.7692-25.5243-.0149-51.0487-.0079-76.573-.0082-2.9254,0-5.8523-.0525-8.7759.0203-3.8419.0957-6.8227,2.557-7.5573,6.1146-1.0405,5.0391,2.5811,9.3028,8.0392,9.3164,14.1882.0355,28.3766.0119,42.5649.0117h0Zm-20.47,41.9515c-7.531,0-15.0625-.0563-22.5927.0215-4.4035.0455-7.7079,3.4053-7.7369,7.6171-.0291,4.2287,3.2258,7.7541,7.587,7.7774,15.2077.0811,30.4162.0582,45.6242.0084,3.2405-.0106,5.9678-2.1094,7.0341-5.0581,1.8399-5.0878-1.7522-10.2701-7.3231-10.3405-7.5298-.0951-15.0616-.0236-22.5926-.0258h0Z"/><path class="cls-1" d="m83.7478,146.7639c-10.1352-.1334-21.6462-1.1221-32.5861-5.3216-3.3566-1.2885-6.495-3.3023-9.481-5.3515-2.5069-1.7204-3.323-4.4359-3.1108-7.5421,1.0443-15.2885,11.4899-27.7268,26.115-30.8292.9943-.2109,2.3122.0615,3.2068.5799,11.9011,6.8959,23.6858,6.8871,35.4508-.3222.6045-.3704,1.5201-.5262,2.2226-.4004,14.9189,2.671,26.7082,16.9448,26.678,32.1679-.0063,3.1875-1.5778,5.5873-4.061,7.1161-3.2731,2.0151-6.7065,3.9406-10.3158,5.2062-10.5399,3.6957-21.5419,4.6365-34.1183,4.6969h-.0002Z"/><path class="cls-1" d="m110.4227,68.7391c-.0397,12.1446-8.2442,23.8818-19.3335,27.4054-4.6091,1.4645-9.2288,1.1277-13.7237-.75-12.8323-5.3609-20.3372-22.4708-15.5437-35.4792,4.2457-11.5216,16.0166-18.2018,28.2548-16.0353,11.7257,2.0758,20.3859,12.6571,20.3461,24.8592h0Z"/></svg>