<?xml version="1.0" encoding="UTF-8"?><svg id="Layer_1" xmlns="http://www.w3.org/2000/svg" viewBox="0 0 227.8753 291.2077"><defs><style>.cls-1{fill:#4a9cd5;}</style></defs><path class="cls-1" d="m99.162,291.2077c-3.4961-1.6742-4.6436-4.4962-4.5962-8.2859.1361-10.8992.0386-21.8011.052-32.702.007-5.6527,2.2473-7.8729,7.9529-7.8861,7.3857-.0171,14.7714-.0042,22.389-.0042v-18.5905c-15.0033-2.3188-27.6595-8.3675-35.4643-22.7258-2.6806,2.6763-5.2232,5.2955-7.8553,7.8214-2.9706,2.8506-6.6202,3.0732-9.125.6658-2.397-2.3038-2.5057-5.9331.0074-8.6797,1.6438-1.7965,3.6206-3.2881,5.4482-4.9162-.1405-.2589-.281-.5177-.4215-.7766-.9773-.0437-1.9545-.1251-2.9318-.1255-16.1099-.0079-32.2199-.0011-48.3298-.0079-6.2693-.0026-8.4113-2.1217-8.4138-8.3199-.0063-15.9247-.0021-31.8495-.0022-47.7742v-3.4577c-3.5959,0-6.9753.0216-10.3544-.005-5.2764-.0415-7.461-2.1447-7.4819-7.3963-.0452-11.3746-.0506-22.7497.0044-34.1243.0241-4.9939,2.2962-7.2639,7.3542-7.2926,11.3714-.0647,22.7437-.0704,34.1149.0031,5.0011.0323,7.2117,2.3404,7.3104,7.3733.0685,3.4911.0132,6.9847.0132,10.7275h24.3913c0-1.1961-.0009-2.3823.0001-3.5684q.0124-14.5584,14.6866-14.5584c11.277,0,22.5539,0,33.8309,0,1.0249,0,2.0498,0,3.4511,0,0-5.7418-.2486-11.2256.0856-16.6736.2306-3.7592-1.0243-6.3156-3.7107-8.8705-7.2089-6.8558-14.1352-14.0091-21.1645-21.0535-4.3395-4.3488-4.3748-7.3253-.1196-11.5904,8.4344-8.454,16.8755-16.9014,25.3304-25.3349,4.0945-4.0841,7.1195-4.1024,11.1674-.0689,7.6537,7.6263,15.3214,15.2391,22.8962,22.9432,1.4404,1.465,2.8699,2.0939,4.9491,2.0847,18.1944-.0805,36.3893-.0496,54.5841-.0448,6.6926.0018,8.6619,1.9519,8.6623,8.5934.0033,49.9544.0034,99.9087-.0008,149.8631-.0006,6.6385-1.9531,8.5444-8.71,8.5466-10.4241.0034-20.8482.0009-31.2722.001-.9318,0-1.8636,0-3.4513,0,2.2562,2.3705,4.2096,4.2243,5.9235,6.2781,1.8137,2.1735,2.0555,4.6285.4692,7.103-1.5128,2.3597-3.7708,3.2396-6.3703,2.5364-1.3759-.3722-2.7256-1.317-3.7746-2.3279-2.5117-2.4205-4.8384-5.0332-7.5212-7.8655-7.8469,14.5405-20.517,20.7021-35.6991,23.0204v18.588c1.2543,0,2.4466,0,3.639,0,6.444.0002,12.8882-.0335,19.3319.0115,4.9823.0347,7.4232,2.3601,7.4485,7.2511.0592,11.4693-.0119,22.9392.0373,34.4086.0147,3.4174-1.6224,5.6663-4.501,7.2071h-64.2597ZM215.5765,40.5678c-.3897-.109-.6505-.2456-.9115-.2459-17.1515-.0167-34.3031-.0415-51.4543.0251-.8957.0035-1.9873.5909-2.6519,1.2469-7.3518,7.2568-14.646,14.5721-21.9227,21.9044-.5646.5689-1.2449,1.3803-1.2546,2.0874-.094,6.8925-.0566,13.7868-.0566,21.0159,1.4031,0,2.5111,0,3.6192,0,13.456.0003,26.912-.0182,40.3679.0097,5.7002.0118,7.8738,2.2085,7.886,7.9232.0235,10.9951.0225,21.9904.001,32.9855-.0117,5.9491-2.0408,7.9167-8.106,7.9207-13.456.009-26.9119.003-40.3679.0031-1.0887,0-2.1774,0-3.2405,0v18.7027c7.3079,1.0613,14.173,3.0284,20.4427,6.7962,6.383,3.8359,11.4616,8.8997,15.1125,16.2209,2.6634-2.8414,4.9694-5.4707,7.4734-7.8955,1.1151-1.0798,2.5265-2.117,3.9843-2.5213,2.5986-.7207,4.8566.2295,6.351,2.5894,1.5689,2.4776,1.3177,4.9283-.5045,7.1025-1.7065,2.0361-3.6298,3.8905-5.6935,6.0745h30.9262V40.5678Zm-126.2327,136.5652c8.0754-14.7963,20.7954-20.7514,35.6543-23.0476v-18.6416c-1.2073,0-2.2291,0-3.2508,0-13.5453-.0001-27.0906.0097-40.6359-.0051-5.6998-.0062-7.8327-2.1557-7.8818-7.9075-.0288-3.3748-.0052-6.7501-.0052-10.2148h-24.0395c-.1317.3291-.2571.4983-.2591.6689-.04,3.4091-.0184,6.8195-.1054,10.2273-.1284,5.0228-2.35,7.178-7.3981,7.2235-3.6657.0331-7.3319.0065-11.0508.0065v46.9646h47.0795c.1339-.2282.2677-.4564.4016-.6846-1.7635-1.5789-3.6328-3.0567-5.2635-4.7626-2.0105-2.1031-2.6078-4.6165-1.1316-7.2979,2.043-3.711,6.5082-4.2769,9.8671-1.0748,2.7221,2.5949,5.1662,5.4816,8.0192,8.5457Zm41.8908,34.5897c5.9537.0526,11.6783-1.058,17.103-3.5232,5.6629-2.5735,10.4178-6.2692,13.2218-11.9424,4.1343-8.3648.7585-18.4206-8.399-23.885-14.5095-8.6579-29.4616-8.9059-43.7847.0574-12.6591,7.9219-13.7983,21.8082-2.4177,31.2534,7.0292,5.8338,15.3352,7.9432,24.2766,8.0398Zm45.6401-88.5262v-24.0897h-91.2098v24.0897h91.2098Zm-21.4439,155.6317v-24.0346h-48.4327v24.0346h48.4327Zm-24.523-226.0031c6.3326-6.3239,12.7319-12.7145,18.9833-18.9574-6.0938-6.0957-12.436-12.4398-18.3444-18.3501-6.3316,6.2204-12.7852,12.5608-19.121,18.7854,6.234,6.2474,12.5774,12.6046,18.4822,18.5221ZM12.2622,123.1834h24.1716v-24.0577H12.2622v24.0577Z"/></svg>