<?xml version="1.0" encoding="UTF-8"?><svg id="Layer_1" xmlns="http://www.w3.org/2000/svg" viewBox="0 0 279.3345 290.3672"><defs><style>.cls-1{fill:#4a9cd5;}.cls-2{stroke:#fbfbfb;stroke-width:2px;}.cls-2,.cls-3{fill:none;}.cls-3{stroke:#fff;stroke-width:14px;}</style></defs><g><g><path class="cls-2" d="m153.7795,84.8327c-.01,3.0601.1599,6.1379-.1355,9.1704-.0991,1.0167-1.2099,2.5069-2.1527,2.7859-25.6216,7.5839-51.2515,7.4331-76.8761-.1141-1.8559-.5467-2.3557-1.459-2.3199-3.2512.108-5.4123.1848-10.8298.0696-16.2409-.2126-9.9887,8.1523-16.7932,17.5914-16.7279,5.0272.0347,10.1254,1.6365,15.0414,3.0525,6.8787,1.9814,13.3191,1.2219,19.9444-1.2332,9.5613-3.5431,21.1443-2.4953,26.6437,6.8448,1.246,2.1162,1.8245,4.771,2.1409,7.2505.3544,2.7781.0619,5.6387.0529,8.4633Z"/><path class="cls-2" d="m91.7441,38.6491c.0848-12.948,8.6807-23.0972,19.7011-23.9292,13.4811-1.0178,24.7869,11.1851,23.2426,25.2949-1.0463,9.5596-5.3257,16.9813-14.877,20.3652-12.6344,4.4763-26.2281-4.7666-27.8796-18.8873-.1362-1.1643-.1556-2.3422-.1871-2.8435Z"/></g><g><path class="cls-1" d="m153.7795,84.8327c-.01,3.0601.1599,6.1379-.1355,9.1704-.0991,1.0167-1.2099,2.5069-2.1527,2.7859-25.6216,7.5839-51.2515,7.4331-76.8761-.1141-1.8559-.5467-2.3557-1.459-2.3199-3.2512.108-5.4123.1848-10.8298.0696-16.2409-.2126-9.9887,8.1523-16.7932,17.5914-16.7279,5.0272.0347,10.1254,1.6365,15.0414,3.0525,6.8787,1.9814,13.3191,1.2219,19.9444-1.2332,9.5613-3.5431,21.1443-2.4953,26.6437,6.8448,1.246,2.1162,1.8245,4.771,2.1409,7.2505.3544,2.7781.0619,5.6387.0529,8.4633Z"/><path class="cls-1" d="m91.7441,38.6491c.0848-12.948,8.6807-23.0972,19.7011-23.9292,13.4811-1.0178,24.7869,11.1851,23.2426,25.2949-1.0463,9.5596-5.3257,16.9813-14.877,20.3652-12.6344,4.4763-26.2281-4.7666-27.8796-18.8873-.1362-1.1643-.1556-2.3422-.1871-2.8435Z"/></g></g><g><g><path class="cls-3" d="m106.9328,150.6194c-.0131,4.0157.2099,8.0547-.1779,12.0341-.13,1.3342-1.5877,3.2898-2.825,3.6559-33.6229,9.9523-67.2566,9.7543-100.8833-.1497-2.4355-.7174-3.0913-1.9146-3.0444-4.2666.1417-7.1025.2425-14.2117.0914-21.3127-.279-13.1081,10.6981-22.0374,23.0849-21.9518,6.5971.0456,13.2874,2.1475,19.7386,4.0057,9.0268,2.6001,17.4784,1.6035,26.1728-1.6184,12.5472-4.6496,27.7474-3.2745,34.9641,8.9823,1.6351,2.7771,2.3943,6.2609,2.8094,9.5147.465,3.6456.0812,7.3995.0694,11.1063Z"/><path class="cls-3" d="m25.5247,90.0134c.1113-16.9914,11.3915-30.3101,25.8535-31.402,17.691-1.3357,32.5274,14.678,30.5009,33.194-1.373,12.545-6.9889,22.2843-19.5228,26.7249-16.5799,5.8742-34.4188-6.2552-36.586-24.7855-.1787-1.5279-.2042-3.0737-.2455-3.7315Z"/></g><g><path class="cls-1" d="m106.9328,150.6194c-.0131,4.0157.2099,8.0547-.1779,12.0341-.13,1.3342-1.5877,3.2898-2.825,3.6559-33.6229,9.9523-67.2566,9.7543-100.8833-.1497-2.4355-.7174-3.0913-1.9146-3.0444-4.2666.1417-7.1025.2425-14.2117.0914-21.3127-.279-13.1081,10.6981-22.0374,23.0849-21.9518,6.5971.0456,13.2874,2.1475,19.7386,4.0057,9.0268,2.6001,17.4784,1.6035,26.1728-1.6184,12.5472-4.6496,27.7474-3.2745,34.9641,8.9823,1.6351,2.7771,2.3943,6.2609,2.8094,9.5147.465,3.6456.0812,7.3995.0694,11.1063Z"/><path class="cls-1" d="m25.5247,90.0134c.1113-16.9914,11.3915-30.3101,25.8535-31.402,17.691-1.3357,32.5274,14.678,30.5009,33.194-1.373,12.545-6.9889,22.2843-19.5228,26.7249-16.5799,5.8742-34.4188-6.2552-36.586-24.7855-.1787-1.5279-.2042-3.0737-.2455-3.7315Z"/></g></g><g><g><path class="cls-3" d="m279.0772,148.0188c-.021,6.4549.3374,12.9471-.2859,19.3436-.209,2.1446-2.5521,5.288-4.5408,5.8765-54.0454,15.9973-108.1082,15.679-162.1597-.2406-3.9149-1.1531-4.9689-3.0775-4.8935-6.8581.2277-11.4165.3898-22.8439.1469-34.258-.4484-21.0699,17.1962-35.423,37.1067-35.2853,10.6041.0733,21.3582,3.452,31.7277,6.4388,14.5096,4.1794,28.0948,2.5774,42.0701-2.6014,20.1683-7.4737,44.6011-5.2635,56.2013,14.4381,2.6283,4.4639,3.8486,10.0638,4.5159,15.294.7475,5.86.1306,11.894.1115,17.8523Z"/><path class="cls-3" d="m148.2218,50.6009c.1788-27.312,18.3107-48.7204,41.5568-50.4755,28.4366-2.147,52.2845,23.5934,49.0271,53.3561-2.207,20.1648-11.2339,35.8198-31.381,42.9576-26.6505,9.4421-55.3247-10.0545-58.8083-39.8402-.2872-2.4559-.3282-4.9406-.3947-5.998Z"/></g><g><path class="cls-1" d="m279.0772,148.0188c-.021,6.4549.3374,12.9471-.2859,19.3436-.209,2.1446-2.5521,5.288-4.5408,5.8765-54.0454,15.9973-108.1082,15.679-162.1597-.2406-3.9149-1.1531-4.9689-3.0775-4.8935-6.8581.2277-11.4165.3898-22.8439.1469-34.258-.4484-21.0699,17.1962-35.423,37.1067-35.2853,10.6041.0733,21.3582,3.452,31.7277,6.4388,14.5096,4.1794,28.0948,2.5774,42.0701-2.6014,20.1683-7.4737,44.6011-5.2635,56.2013,14.4381,2.6283,4.4639,3.8486,10.0638,4.5159,15.294.7475,5.86.1306,11.894.1115,17.8523Z"/><path class="cls-1" d="m148.2218,50.6009c.1788-27.312,18.3107-48.7204,41.5568-50.4755,28.4366-2.147,52.2845,23.5934,49.0271,53.3561-2.207,20.1648-11.2339,35.8198-31.381,42.9576-26.6505,9.4421-55.3247-10.0545-58.8083-39.8402-.2872-2.4559-.3282-4.9406-.3947-5.998Z"/></g></g><g><path class="cls-3" d="m89.9047,174.9094c24.8112-24.8112,65.0381-24.8112,89.8494,0,24.8112,24.8112,24.8112,65.0381,0,89.8494-24.8112,24.8112-65.0381,24.8112-89.8494,0-24.8112-24.8112-24.8112-65.0381,0-89.8494Zm54.4723,53.6775c5.8286-.0007,11.6591-.0902,17.485.0366,3.0562.0665,5.217-2.0493,5.0608-5.1074-.1337-2.616-.028-5.2443-.0274-7.8672.0006-2.6915-1.8873-4.5614-4.5987-4.5606-5.9735.0017-11.9471.0009-17.9206-.0006-.2563,0-.5127-.0175-.9053-.0317.042-.3187.1014-.5603.1016-.8019.0052-5.9743.0029-11.9486.0049-17.9229.0009-2.6587-1.8822-4.5602-4.5254-4.5607-2.6957-.0005-5.3914-.0008-8.0872.0002-3.1453.0011-4.8843,1.7261-4.8853,4.8516-.0018,5.8772,0,11.7543-.0012,17.6315,0,.2602-.0147.5205-.029.9941-.3082-.0588-.5711-.1523-.8341-.1526-5.9257-.0082-11.8515-.0112-17.7772-.0041-2.8844.0034-4.6684,1.8007-4.6749,4.6941-.0062,2.7686-.0046,5.5372-.0016,8.3057.0028,2.5928,1.9219,4.4967,4.5231,4.4965,5.9986-.0006,11.9972-.0008,17.9958.0006.2559,0,.5118.0185.901.0335-.0396.3685-.0976.6586-.0979.9487-.0055,5.95-.0058,11.9-.0041,17.85.0007,2.5515,1.9192,4.4804,4.4621,4.4842,2.7443.0041,5.4886.0018,8.2329-.0006,3.0382-.0026,4.7999-1.7568,4.8014-4.7881.0028-5.8772.002-11.7543-.0031-17.6315-.0002-.2659-.0572-.5318-.0969-.8772.4225-.0098.662-.0203.9014-.0203Z"/><path class="cls-1" d="m89.9047,174.9094c24.8112-24.8112,65.0381-24.8112,89.8494,0,24.8112,24.8112,24.8112,65.0381,0,89.8494-24.8112,24.8112-65.0381,24.8112-89.8494,0-24.8112-24.8112-24.8112-65.0381,0-89.8494Zm54.4723,53.6775c5.8286-.0007,11.6591-.0902,17.485.0366,3.0562.0665,5.217-2.0493,5.0608-5.1074-.1337-2.616-.028-5.2443-.0274-7.8672.0006-2.6915-1.8873-4.5614-4.5987-4.5606-5.9735.0017-11.9471.0009-17.9206-.0006-.2563,0-.5127-.0175-.9053-.0317.042-.3187.1014-.5603.1016-.8019.0052-5.9743.0029-11.9486.0049-17.9229.0009-2.6587-1.8822-4.5602-4.5254-4.5607-2.6957-.0005-5.3914-.0008-8.0872.0002-3.1453.0011-4.8843,1.7261-4.8853,4.8516-.0018,5.8772,0,11.7543-.0012,17.6315,0,.2602-.0147.5205-.029.9941-.3082-.0588-.5711-.1523-.8341-.1526-5.9257-.0082-11.8515-.0112-17.7772-.0041-2.8844.0034-4.6684,1.8007-4.6749,4.6941-.0062,2.7686-.0046,5.5372-.0016,8.3057.0028,2.5928,1.9219,4.4967,4.5231,4.4965,5.9986-.0006,11.9972-.0008,17.9958.0006.2559,0,.5118.0185.901.0335-.0396.3685-.0976.6586-.0979.9487-.0055,5.95-.0058,11.9-.0041,17.85.0007,2.5515,1.9192,4.4804,4.4621,4.4842,2.7443.0041,5.4886.0018,8.2329-.0006,3.0382-.0026,4.7999-1.7568,4.8014-4.7881.0028-5.8772.002-11.7543-.0031-17.6315-.0002-.2659-.0572-.5318-.0969-.8772.4225-.0098.662-.0203.9014-.0203Z"/></g></svg>