<?xml version="1.0" encoding="UTF-8"?><svg id="Layer_1" xmlns="http://www.w3.org/2000/svg" viewBox="0 0 272.3528 279.9531"><defs><style>.cls-1{fill:none;stroke:#fff;stroke-miterlimit:10;stroke-width:14px;}.cls-2{fill:#4a9cd5;}</style></defs><path class="cls-2" d="m143.5954,246.2719c-11.6528,6.7652-24.8724,12.7342-40.076,17.5452V19.5505c6.8759,3.3336,17.409,8.366,29.9431,14.1307h29.5599c-6.7694-2.9717-13.309-5.9052-19.4271-8.6938V0l-8.7833,4.3895c-.2171.1107-6.795,3.389-17.3238,8.4129-7.1271,3.4018-16.0551,7.5997-26.1071,12.185-25.3237,11.5464-57.6,25.4727-85.1972,34.8606l-3.3635,1.141-.6514,3.4912c-.281,1.4987-23.5569,135.2145,89.212,195.667v19.806l7.7061-2.1543c6.4374-1.8052,12.5469-3.8147,18.401-5.9733,9.4219-3.4784,18.1115-7.3911,26.1071-11.6784,13.9562-7.4805,25.8133-16.0892,35.9037-25.4259h-18.6479c-5.3134,4.0532-11.027,7.9318-17.2557,11.5507Z"/><path class="cls-2" d="m12.3363,97.8196c0-11.0656.2015-22.1363-.0798-33.1947-.1549-6.0902,4.5286-9.579,10.3103-8.6044,26.6876,4.4988,51.8822-.0552,75.3518-13.5664,3.9503-2.2741,7.2303-2.2705,11.145.137,19.0569,11.7202,39.8549,16.6676,62.1529,15.1396,4.7139-.323,9.4026-1.1166,14.0803-1.8395,5.0885-.7865,9.2293,2.552,9.2351,7.7265.0242,21.6448.3919,43.2979-.0839,64.9322-.6329,28.7717-10.7056,54.2411-28.894,76.4538-15.913,19.4339-35.933,33.4174-58.8098,43.4874-2.1123.9298-4.2306,1.0328-6.3576.0934-29.4268-12.9967-53.8233-31.9722-70.5102-59.9065-11.6918-19.5725-17.5771-40.8321-17.5431-63.6809.0135-9.0592.0022-18.1184.003-27.1776Zm13.9801,6.1039c0,7.7218-.0119,15.4436.0024,23.1654.0325,17.5261,4.0815,34.0904,12.2781,49.5652,14.1761,26.7639,36.3626,44.651,63.6007,56.8238.7197.3216,1.8376.2911,2.5689-.0311,19.12-8.4247,35.9517-20.049,49.5213-36.0651,16.4381-19.4016,25.541-41.8313,26.1837-67.2887.4847-19.2011.1029-38.4241.0968-57.6374-.0008-2.5149-.7811-3.1126-3.291-2.6591-25.6983,4.6431-49.792.496-72.1179-13.2235-1.1794-.7247-2.1172-.8022-3.3424-.0905-22.5097,13.0773-46.6181,17.5067-72.3126,13.2803-2.4915-.4098-3.1845.2066-3.1857,2.787-.0052,10.4579-.0022,20.9158-.0021,31.3737Z"/><path class="cls-2" d="m30.1371,73.7293c12.8192,2.0625,25.3377,1.8554,37.8068-.4784,12.4503-2.3302,24.1584-6.7207,35.3397-13.1927v169.7757c-1.3798-.6216-2.6516-1.1591-3.8933-1.7591-20.9723-10.1338-38.8025-24.044-51.7893-43.617-11.6282-17.5254-17.5147-36.841-17.4688-57.9284.0367-16.8412.0058-33.6826.0049-50.5239,0-.7076,0-1.4153,0-2.2763Z"/><g><path class="cls-1" d="m209.3035,139.9766c0,23.15-18.7668,41.9168-41.9168,41.9168s-41.9168-18.7668-41.9168-41.9168,18.7668-41.9168,41.9168-41.9168,41.9168,18.7668,41.9168,41.9168Zm-50.0864,4.5068c-3.1616-3.1657-6.3255-6.3291-9.4895-9.4924-1.3365-1.3362-3.1394-1.3579-4.4878-.0312-1.3666,1.3446-2.7248,2.6981-4.0658,4.0681-1.3405,1.3695-1.3445,3.1282.0171,4.4946,5.384,5.4028,10.7765,10.7971,16.1806,16.1799,1.3767,1.3712,3.1749,1.3888,4.5469.0194,10.3183-10.2982,20.6259-20.6072,30.9248-30.9248,1.1811-1.1833,1.278-2.8819.1477-4.1218-1.422-1.5599-2.9202-3.0599-4.4818-4.48-1.3852-1.2597-2.9708-1.1423-4.2783.1636-5.9803,5.9728-11.9552,11.951-17.9311,17.9282-2.2003,2.2008-4.3982,4.404-6.6773,6.6863-.1685-.205-.2752-.3593-.4056-.4899Z"/><path class="cls-2" d="m209.3035,139.9766c0,23.15-18.7668,41.9168-41.9168,41.9168s-41.9168-18.7668-41.9168-41.9168,18.7668-41.9168,41.9168-41.9168,41.9168,18.7668,41.9168,41.9168Zm-50.0864,4.5068c-3.1616-3.1657-6.3255-6.3291-9.4895-9.4924-1.3365-1.3362-3.1394-1.3579-4.4878-.0312-1.3666,1.3446-2.7248,2.6981-4.0658,4.0681-1.3405,1.3695-1.3445,3.1282.0171,4.4946,5.384,5.4028,10.7765,10.7971,16.1806,16.1799,1.3767,1.3712,3.1749,1.3888,4.5469.0194,10.3183-10.2982,20.6259-20.6072,30.9248-30.9248,1.1811-1.1833,1.278-2.8819.1477-4.1218-1.422-1.5599-2.9202-3.0599-4.4818-4.48-1.3852-1.2597-2.9708-1.1423-4.2783.1636-5.9803,5.9728-11.9552,11.951-17.9311,17.9282-2.2003,2.2008-4.3982,4.404-6.6773,6.6863-.1685-.205-.2752-.3593-.4056-.4899Z"/></g><polygon class="cls-2" points="248.4098 109.4702 255.8086 124.4618 272.3528 126.8658 260.3813 138.5351 263.2074 155.0124 248.4098 147.2329 233.6123 155.0124 236.4384 138.5351 224.4669 126.8658 241.0111 124.4618 248.4098 109.4702"/><polygon class="cls-2" points="243.8634 56.4466 249.618 68.1067 262.4857 69.9765 253.1746 79.0526 255.3726 91.8683 243.8634 85.8176 232.3542 91.8683 234.5523 79.0526 225.2411 69.9765 238.1088 68.1067 243.8634 56.4466"/><polygon class="cls-2" points="212.8746 14.6745 217.9568 24.9724 229.3211 26.6237 221.0978 34.6394 223.0391 45.9578 212.8746 40.614 202.71 45.9578 204.6513 34.6394 196.428 26.6237 207.7923 24.9724 212.8746 14.6745"/><polygon class="cls-2" points="212.8746 218.0627 217.9568 228.3606 229.3211 230.0119 221.0978 238.0276 223.0391 249.346 212.8746 244.0022 202.71 249.346 204.6513 238.0276 196.428 230.0119 207.7923 228.3606 212.8746 218.0627"/><polygon class="cls-2" points="238.599 173.0056 244.2265 184.4081 256.8099 186.2365 247.7045 195.1121 249.854 207.6447 238.599 201.7276 227.3441 207.6447 229.4936 195.1121 220.3882 186.2365 232.9716 184.4081 238.599 173.0056"/></svg>