<?xml version="1.0" encoding="UTF-8"?><svg id="Layer_1" xmlns="http://www.w3.org/2000/svg" viewBox="0 0 289.7445 269.6365"><defs><style>.cls-1{fill:#fff;}.cls-2{fill:#4a9cd5;}.cls-3{fill:none;stroke:#fff;stroke-width:13px;}</style></defs><g><path class="cls-2" d="m159.4766,48.7412c-3.686-4.018-3.5105-9.3569-2.6329-13.2911.8777-3.9341-.7765-9.1955-2.5288-11.7822-4.2287-6.242-.7829-9.2619-5.2878-17.0164-5.4298-9.3467-19.385-7.9904-22.52-1.1997-6.5177-1.3091-8.7324,3.3385-8.0719,11.1206.397,4.6776.4764,8.3469-2.3307,11.3687-2.8071,3.0219-3.9629,9.243-2.6419,13.7281,1.321,4.485,1.4861,7.2921-2.4768,9.7689-3.9629,2.4768-6.541,10.278-.7937,13.1474,4.8682,2.4305,19.6945,1.6313,24.1169,1.33l.0139.1083s17.3592-1.5411,24.3802-1.5411c7.021-5.1188,4.4596-11.7237.7736-15.7416Z"/><path class="cls-1" d="m158.2118,57.2205l-15.39-4.8704h-7.7065s-.0061.0281-.0175.081v-.081h-7.7065l-15.39,4.8704c-2.8769.9105-4.667,3.7746-4.2234,6.7594.4456,2.9984,1.0506,7.0858,1.725,11.6844,7.3245,4.7918,16.078,7.5804,25.4841,7.5804,9.5196,0,18.3708-2.856,25.7487-7.7546.664-4.5276,1.2594-8.5498,1.6994-11.5102.4436-2.9848-1.3465-5.8489-4.2234-6.7594Z"/><path class="cls-2" d="m164.4519,58.963l-10.4789-3.1734c0,12.5936-1.3839,21.2006-18.9859,21.2006-15.681,0-18.9859-8.864-18.9859-21.2006l-10.4789,3.1734c-3.5153.8984-6.1543,3.4658-6.7323,7.036,8.5467,10.5211,21.5856,17.2457,36.197,17.2457s27.6504-6.7246,36.197-17.2457c-.578-3.5702-3.217-6.1376-6.7323-7.036Z"/><path class="cls-2" d="m171.1842,65.999c-.578-3.5702-3.217-6.4678-6.7323-7.3662l-6.3181-1.7143c-.0301,4.7546-.1717,14.5035,1.6385,19.1953,4.3371-2.729,8.1932-6.1525,11.412-10.1148Z"/><path class="cls-2" d="m112.0052,56.8738l-6.4828,1.759c-3.5153.8984-6.1543,3.7961-6.7323,7.3662,3.2515,4.0027,7.1538,7.455,11.545,10.1975,1.8497-4.6737,1.6998-14.5569,1.6702-19.3227Z"/><path class="cls-2" d="m123.5774,32.6238l-.2417-.0758c-.8975.0438-2.0087-2.1048-2.095-4.0611l-.4928-3.7415c-.03-.679.1486-1.2189.6851-1.0506l.1655.0519c.9543.2993,1.6461,1.3341,1.6994,2.5417l.2795,6.3353Z"/><path class="cls-2" d="m146.4006,32.6359l.2411-.078c.8978.0357,1.9896-2.1228,2.0583-4.0798l.4591-3.7458c.0238-.6792-.1595-1.2175-.6946-1.0444l-.165.0534c-.9515.3079-1.634,1.3489-1.6765,2.5569l-.2224,6.3376Z"/><g><polygon class="cls-1" points="142.9461 35.1762 127.2219 35.1762 127.2219 53.2133 142.9461 53.1877 142.9461 35.1762"/><polygon class="cls-1" points="127.2219 42.3565 134.5045 48.185 127.2219 53.1877 127.2219 42.3565"/><path class="cls-1" d="m142.9461,42.3565v10.8312s-9.2776,1.0187-15.7243,0l15.7243-10.8312Z"/></g><path class="cls-1" d="m135.0742,3.5783c-7.2296,0-13.0904,5.4605-13.0904,12.1964,0,.6018.0487,1.1929.139,1.7713l1.2439,17.1983c.1709,2.3628,1.3308,4.5439,3.1943,6.0065l5.7417,4.5064c.7588.6138,1.7299.9518,2.7348.9518h.0732c1.0049,0,1.9761-.338,2.7348-.9518l5.7137-4.4844c1.8814-1.4766,3.0525-3.6785,3.225-6.064l1.2413-17.1629c.0903-.5783.139-1.1692.139-1.7709v-.0002c0-6.7359-5.8608-12.1964-13.0904-12.1964Z"/><g><path class="cls-2" d="m148.2322,16.2257c.266-8.2145-5.8978-13.0079-13.1731-13.0079-.0113,0-.0225.0002-.0338.0004-.0112-.0002-.0224-.0004-.0337-.0004-7.2753,0-13.4391,4.7934-13.173,13.0079l.0546.5772c-.0872,1.8295.1017,3.8239.5622,5.9428l.2282,2.4126c-.0006-.3083.0042-.7663.0267-1.3331.0024.0098.0047.0194.0072.0292,0,0,.6728-7.7023,6.0269-12.0617,10.3538,3.592,17.5042,5.4539,18.7108,12.1355.0418.8651.0268,1.407.0268,1.407l.2263-2.676c.2033-1.2.3056-2.4054.3035-3.5915l.2402-2.8419Z"/><path class="cls-2" d="m122.7049,25.5944l-.0412-.4362c.0005.2791.0055.4362.0055.4362h.0358Z"/></g></g><g><path class="cls-2" d="m230.8859,55.0434c-3.3971-16.5884-15.2854-28.1254-35.4597-28.1254-7.1004,0-14.6267,2.9433-17.2274,6.7275-10.0673-.5883-16.8187,4.8668-19.8901,13.9659-.2049.4126-.399.8353-.5747,1.2744-7.1388,17.843-15.8453,57.7082-15.8453,74.8776,0,33.0538,22.0655,55.7729,50.2774,55.7729s51.8868-18.855,51.8868-51.9086c0-15.5115-6.5137-51.6558-13.167-72.5842Z"/><path class="cls-2" d="m164.261,111.533l-.6352-.1994c-2.3579.1152-5.2775-5.5301-5.5042-10.6699l-1.2949-9.8303c-.0786-1.7841.3904-3.2026,1.8002-2.7603l.4348.1363c2.5072.7865,4.3252,3.5052,4.4651,6.678l.7343,16.6456Z"/><path class="cls-2" d="m224.2267,111.5649l.6335-.2051c2.3586.094,5.2275-5.5774,5.4079-10.7192l1.2063-9.8415c.0626-1.7847-.4193-3.199-1.825-2.744l-.4336.1402c-2.5.809-4.2933,3.5441-4.4047,6.718l-.5843,16.6515Z"/><g><polygon class="cls-1" points="215.1503 118.2391 173.8364 118.2391 173.8364 165.6297 215.1503 165.5625 215.1503 118.2391"/><polygon class="cls-1" points="173.8364 137.1045 192.9708 152.4185 173.8364 165.5625 173.8364 137.1045"/><path class="cls-1" d="m215.1503,137.1045v28.458s-24.376,2.6764-41.3138,0l41.3138-28.458Z"/></g><path class="cls-1" d="m194.4675,35.219c-18.9951,0-34.3938,14.3468-34.3938,32.0446,0,1.5813.128,3.1341.3655,4.654l3.2681,45.1867c.4491,6.208,3.4967,11.9384,8.3929,15.7814l15.0856,11.8399c1.9938,1.6128,4.5453,2.5007,7.1856,2.5007h.1923c2.6401,0,5.1917-.8879,7.1855-2.5007l15.012-11.7822c4.9431-3.8797,8.0199-9.6651,8.4733-15.9325l3.2614-45.0938c.2372-1.5196.3653-3.0722.3653-4.6531v-.0006c0-17.6978-15.3987-32.0446-34.3939-32.0446Z"/><g><path class="cls-2" d="m231.4129,68.0447c.4007-7.1719-1.4218-13.3525-4.7336-18.4098-5.8279-10.3345-16.9909-16.4049-32.0309-16.4049-13.6494,0-24.2629,5.2645-30.5174,14.0504-4.3794,5.4469-6.9117,12.4377-6.4552,20.7643.9023,16.4564,3.8278,23.2362,4.3994,24.4197-.0154-.7987-.0504-3.9858.2368-8.2534,1.5111-6.4401,5.6894-19.4612,15.9476-27.8136,4.6439,6.7774,16.3298,10.8266,16.3298,10.8266l-6.9075-7.5997h.0001c.0057.0045,14.8331,11.7936,26.3032,12.8057-2.5321-1.9938-7.2563-5.0742-10.2029-6.9551,11.9051,4.8544,20.1714,10.2307,23.2247,19.4737.2805,4.1756.214,7.0301.214,7.0301,0,0,2.1458-5.3552,3.4409-15.603.1944-1.362.3397-2.7003.4352-4.0135.1243-1.3706.2316-2.8089.3159-4.3175Z"/><path class="cls-2" d="m162.1736,92.66s-.0356-.0652-.0985-.1956c.0024.128.0043.1956.0043.1956h.0942Z"/></g><path class="cls-1" d="m133.678,178.3589l40.4357-12.7964h20.248v.2127c.0298-.139.0459-.2127.0459-.2127h20.248l40.4356,12.7964c7.5589,2.3921,12.2619,9.9173,11.0966,17.7596-1.2664,8.5216-3.0231,20.3906-4.9698,33.6873-19.2831,12.6665-42.3523,20.042-67.1473,20.042-24.4971,0-47.3114-7.1965-66.4523-19.5844-1.9736-13.4814-3.756-25.5257-5.0369-34.1449-1.1654-7.8423,3.5377-15.3675,11.0965-17.7596Z"/><path class="cls-2" d="m116.6551,182.0694l27.5322-7.4701c2.5445,31.8378,33.6735,43.0293,49.8834,43.1056,16.2099-.0762,47.3389-11.2677,49.8834-43.1056l27.5321,7.4701c9.3922,2.4004,16.4076,10.231,17.765,19.8294l.4933,1.9302c-22.4432,28.0486-56.9575,46.0188-95.6738,46.0188s-73.2305-17.9702-95.6739-46.0186l.4935-1.9303c1.3574-9.5984,8.3728-17.429,17.7649-19.8294Z"/></g><g><path class="cls-1" d="m124.8417,137.5686c-1.1044-9.7087-4.6963-18.0277-12.597-21.0887-21.4093-8.2947-27.0679-10.4872-27.0679-10.4872h-35.3109s-5.6586,2.1924-27.0679,10.4872c-7.9151,3.0666-11.5058,11.4103-12.6032,21.1418,14.3124,15.3116,34.6859,24.886,57.2987,24.886,22.639,0,43.0333-9.5966,57.3482-24.9391Z"/><path class="cls-2" d="m134.9871,124.0324c-2.4995-1.8232-5.2683-3.3268-8.2747-4.4363-11.9013-4.3923-25.2703-9.2505-28.7731-10.2235-4.065,8.869-14.4908,18.7884-30.5846,18.8343-16.0925-.046-26.242-9.9654-30.3069-18.8343-3.5028.973-16.8718,5.8311-28.7731,10.2235-3.0063,1.1095-5.7752,2.6132-8.2747,4.4363,13.6617,23.0324,38.7722,38.4753,67.4935,38.4753s53.8319-15.4429,67.4936-38.4753Z"/><g><g><rect class="cls-1" x="49.1855" y="79.882" width="37.4463" height="27.5442"/><polygon class="cls-1" points="49.1855 106.7127 86.6318 93.6541 86.6318 79.882 49.1855 79.882 49.1855 106.7127"/><polygon class="cls-1" points="49.1855 88.5328 62.9102 101.9265 76.751 97.0999 86.6318 87.5636 86.6318 79.882 49.1855 79.882 49.1855 88.5328"/></g><path class="cls-1" d="m67.8683,27.55c-12.643,0-23.4477,10.2491-23.4477,22.8921l2.5002,27.7729c0,4.3186,2.0305,8.3858,5.4821,10.9811l7.2231,6.8934c1.9137,1.4389,4.2431,2.2169,6.6374,2.2169h3.2097c2.3943,0,4.7237-.7781,6.6374-2.2169l7.2231-6.8934c3.4517-2.5954,5.4822-6.6625,5.4822-10.9811l2.5002-27.7729c0-12.643-10.8048-22.8921-23.4477-22.8921Z"/><path class="cls-2" d="m48.123,74.2492l-.4162-.0924c-2.6609-.5906-4.7807-3.2395-5.2065-6.5063l-.8083-6.2007c-.1478-1.1339.6296-2.0645,1.5531-1.8595l.2849.0632c1.6426.3645,2.9512,1.9997,3.2139,4.0162l1.379,10.5794Z"/><path class="cls-2" d="m87.3483,74.288l.4158-.0937c2.6591-.5989,4.7705-3.2545,5.186-6.5226l.7887-6.2033c.1442-1.1343-.636-2.0625-1.5589-1.8546l-.2847.0641c-1.6414.3698-2.9447,2.009-3.2013,4.0264l-1.3456,10.5837Z"/><g><path class="cls-2" d="m67.9528,26.9191v-.0011c-.0147,0-.0294.0004-.0441.0005-.0147,0-.0295-.0005-.0442-.0005v.0011c-11.1615.0465-23.7583,8.9223-23.3998,21.7598.1935,6.9299,1.378,17.3211,1.378,17.3211l1.3896.9054-.6488-11.0963,3.3336-4.4448s-1.4036-5.5435,0-7.6858c1.7553-2.679,5.2211-3.6984,17.9473-1.0367v.0181c.0151-.0031.0291-.0059.0442-.0091.015.0032.029.006.0441.0091v-.0181c12.7263-2.6617,16.1921-1.6423,17.9473,1.0367,1.4036,2.1424,0,7.6858,0,7.6858l3.3336,4.4448-.6489,11.0963,1.3897-.9054s1.1983-10.8854,1.3781-17.3211c.3585-12.8375-12.2383-21.7133-23.3999-21.7598Z"/><path class="cls-2" d="m71.493,17.8895c-3.6113-1.528-7.8921-4.7226-7.8921-4.7226,0,0-.0252,1.6667.2013,4.167,0,0-3.1434-4.3059-3.8125-6.2505,0,0-2.3867,4.8615-4.7109,6.8061,0,0-.3081-2.229.9532-3.1947-13.4298,10.282-12.039,20.0938-9.2362,24.0641,1.6482,2.5352,3.7764,3.904,3.7764,3.904h34.0549s2.1558-.7928,2.5654-2.1327c4.8075-13.5447-12.2881-21.1127-15.8995-22.6406Z"/></g><path class="cls-2" d="m89.9746,66l-1.3897.9054s-2.2755,9.6252-3.3804,10.6633l-3.2954,3.1467c-.793.745-5.2589-4.021-6.3444-4.0956l-1.7263-.3854h-9.3592l-4.2265.3854c-1.0856.0746-5.4826,5.0582-6.2757,4.3131l-4.1287-3.9801c-1.1048-1.0381-2.6158-10.0474-2.6158-10.0474l-1.3896-.9054s-1.1257,23.7933-.4776,25.8304c.6482,2.0372,10.2081,12.4084,11.6786,13.2418,1.4232.8066,10.2944.6591,10.8649.6488.5705.0103,9.4418.1578,10.8649-.6488,1.4706-.8334,11.0304-11.2045,11.6786-13.2418.6482-2.0372-.4776-25.8304-.4776-25.8304Zm-13.1621,21.848l-3.6896,3.4083c-.9422.8704-2.4744.3365-2.6715-.9311l-.2787-1.7924h-4.5282l-.2787,1.7924c-.1971,1.2675-1.7292,1.8015-2.6714.9311l-3.6896-3.4083c-1.6276-1.5034-2.5191-3.6414-2.4421-5.8556l5.7962-1.477c1.5454-.3938,3.1676-.3706,4.7012.0673l.8348.2384v-.4533l.0274.4533.8349-.2384c1.5336-.4378,3.1558-.4611,4.7012-.0673l5.7961,1.477c.0771,2.2143-.8146,4.3523-2.442,5.8556Z"/></g><path class="cls-2" d="m99.781,109.9966l-3.6836-1.2479c-2.8622,8.4487-12.1196,17.4732-28.7427,17.5139-16.622-.0406-25.6029-9.0652-28.4651-17.5139l-3.6835,1.2479c3.2881,9.7054,13.4306,20.0702,32.0373,20.1531v.0039c.0376,0,.0738-.0019.1113-.002.0375,0,.0736.002.1112.002v-.0039c18.609-.0829,29.0271-10.4478,32.3151-20.1531Z"/></g><g><path class="cls-3" d="m31.9079,176.2227c19.8827-19.8827,52.119-19.8827,72.0017,0,19.8827,19.8827,19.8827,52.119,0,72.0017-19.8827,19.8827-52.119,19.8827-72.0017,0-19.8827-19.8827-19.8827-52.119,0-72.0017Zm43.6519,43.015c4.6708-.0006,9.3432-.0723,14.0118.0294,2.4491.0533,4.1807-1.6422,4.0555-4.0928-.1071-2.0964-.0225-4.2026-.022-6.3044.0005-2.1569-1.5124-3.6553-3.6853-3.6547-4.787.0014-9.5739.0007-14.3609-.0005-.2054,0-.4109-.014-.7255-.0254.0337-.2554.0813-.449.0814-.6426.0042-4.7876.0023-9.5751.0039-14.3627.0007-2.1306-1.5083-3.6543-3.6265-3.6547-2.1602-.0004-4.3205-.0006-6.4807.0002-2.5205.0009-3.9141,1.3832-3.9149,3.8879-.0015,4.7097,0,9.4194-.001,14.1292,0,.2085-.0118.4171-.0232.7966-.247-.0471-.4577-.122-.6684-.1223-4.7486-.0066-9.4973-.009-14.2459-.0033-2.3115.0028-3.7411,1.443-3.7463,3.7617-.005,2.2186-.0037,4.4373-.0013,6.6559.0022,2.0778,1.5402,3.6035,3.6246,3.6033,4.807-.0005,9.6141-.0007,14.4211.0005.2051,0,.4101.0148.722.0268-.0317.2953-.0782.5277-.0784.7602-.0044,4.7681-.0046,9.5362-.0033,14.3043.0006,2.0447,1.538,3.5904,3.5758,3.5934,2.1992.0033,4.3983.0014,6.5975-.0005,2.4347-.0021,3.8465-1.4078,3.8476-3.837.0023-4.7097.0016-9.4195-.0024-14.1292-.0002-.2131-.0458-.4262-.0776-.7029.3386-.0079.5305-.0162.7224-.0163Z"/><path class="cls-2" d="m31.9079,176.2227c19.8827-19.8827,52.119-19.8827,72.0017,0,19.8827,19.8827,19.8827,52.119,0,72.0017-19.8827,19.8827-52.119,19.8827-72.0017,0-19.8827-19.8827-19.8827-52.119,0-72.0017Zm43.6519,43.015c4.6708-.0006,9.3432-.0723,14.0118.0294,2.4491.0533,4.1807-1.6422,4.0555-4.0928-.1071-2.0964-.0225-4.2026-.022-6.3044.0005-2.1569-1.5124-3.6553-3.6853-3.6547-4.787.0014-9.5739.0007-14.3609-.0005-.2054,0-.4109-.014-.7255-.0254.0337-.2554.0813-.449.0814-.6426.0042-4.7876.0023-9.5751.0039-14.3627.0007-2.1306-1.5083-3.6543-3.6265-3.6547-2.1602-.0004-4.3205-.0006-6.4807.0002-2.5205.0009-3.9141,1.3832-3.9149,3.8879-.0015,4.7097,0,9.4194-.001,14.1292,0,.2085-.0118.4171-.0232.7966-.247-.0471-.4577-.122-.6684-.1223-4.7486-.0066-9.4973-.009-14.2459-.0033-2.3115.0028-3.7411,1.443-3.7463,3.7617-.005,2.2186-.0037,4.4373-.0013,6.6559.0022,2.0778,1.5402,3.6035,3.6246,3.6033,4.807-.0005,9.6141-.0007,14.4211.0005.2051,0,.4101.0148.722.0268-.0317.2953-.0782.5277-.0784.7602-.0044,4.7681-.0046,9.5362-.0033,14.3043.0006,2.0447,1.538,3.5904,3.5758,3.5934,2.1992.0033,4.3983.0014,6.5975-.0005,2.4347-.0021,3.8465-1.4078,3.8476-3.837.0023-4.7097.0016-9.4195-.0024-14.1292-.0002-.2131-.0458-.4262-.0776-.7029.3386-.0079.5305-.0162.7224-.0163Z"/></g></svg>