<?xml version="1.0" encoding="UTF-8"?><svg id="Layer_1" xmlns="http://www.w3.org/2000/svg" xmlns:xlink="http://www.w3.org/1999/xlink" viewBox="0 0 286.5461 282.2503"><defs><style>.cls-1{stroke-width:7px;}.cls-1,.cls-2,.cls-3{fill:none;stroke:#fff;}.cls-2{stroke-width:8px;}.cls-4{clip-path:url(#clippath);}.cls-5{fill:#fff;}.cls-6{fill:#4a9cd5;}.cls-3{stroke-width:5px;}</style><clipPath id="clippath"><circle class="cls-6" cx="219.3903" cy="176.6729" r="45.3921"/></clipPath></defs><g><path class="cls-6" d="m228.0665,55.2747c-1.6526,2.984-3.2082,5.7929-4.7637,8.6017.0874.0566.1748.1132.2622.1698.8014-1.0691,1.606-2.1358,2.4032-3.2081.9045-1.2165,1.9996-2.3405,2.6608-3.6783,1.2663-2.5621,3.3911-2.7772,5.764-2.454.4128.0562.905.5432,1.1092.9557,1.426,2.8803,2.7839,5.7942,4.1692,8.6947.1865.3906.4043.7662.8275,1.0644-.7391-3.3453-1.4783-6.6906-2.3175-10.4889,1.3431.5146,2.4612.823,3.4663,1.348,5.5721,2.9103,10.1567,7.0869,14.4574,11.5783,9.0685,9.4706,16.6012,19.9887,21.5032,32.2405,2.36,5.8984,3.8148,11.9896,3.4258,18.4056-.4096,6.7551-3.1308,12.3957-8.2666,16.8273-2.0176,1.7409-4.5468,2.3561-7.0484,2.9423-6.5552,1.5362-13.2414,2.0862-19.9412,2.4454-9.6925.5196-19.3942.5557-29.0636-.3031-5.2931-.4701-10.552-1.3598-15.8128-2.15-6.0871-.9143-9.9726-4.7931-12.7672-9.928-3.3811-6.2125-3.4945-12.843-2.082-19.5774,1.7516-8.3512,5.514-15.8431,10.1471-22.9166,6.6167-10.1019,14.4329-19.1504,24.1066-26.454,2.1295-1.6078,4.6517-2.6959,6.9998-4.0116.1396-.0782.3385-.0506.761-.1039Zm3.4411,21.8251c-1.7804.448-3.4132.7321-4.9573,1.2708-4.8276,1.6843-7.5943,5.5645-7.798,10.7484-.2029,5.1643,2.0829,8.9586,6.7954,11.0929,1.5843.7175,3.2367,1.3077,4.9005,1.8169.8298.254,1.0639.6436,1.0573,1.4548-.0317,3.9063-.0121,7.813-.0218,11.7195-.0007.2959-.0887.5916-.1481.9629-2.0485-.5638-3.6218-1.6231-4.5532-3.422-.6293-1.2153-1.0744-2.5313-1.5407-3.8244-.7921-2.1967-2.4287-3.1965-4.5581-2.7231-2.0557.4571-3.2865,2.2023-3.055,4.4111.2255,2.1508,1.0268,4.0838,2.3404,5.8027,2.5969,3.3979,6.1191,5.2015,10.2692,5.8266.9992.1505,1.3113.5161,1.2737,1.4896-.053,1.3744.0085,2.7552.0655,4.1314.0479,1.1565.5458,1.9154,1.844,1.9284,1.3498.0136,1.742-.8482,1.7938-1.958.0643-1.3761.1045-2.759.0407-4.1336-.0446-.9597.2031-1.3452,1.2381-1.4855,1.3958-.1892,2.7967-.5591,4.115-1.0621,5.2214-1.9919,8.4539-6.8326,8.3972-12.4179-.0543-5.3504-3.1035-9.4684-8.5325-11.4499-1.3343-.487-2.7015-.8978-4.077-1.2527-.8563-.2209-1.1527-.6316-1.1377-1.5278.0521-3.1243.0164-6.2501.0142-9.3753-.0004-.5666,0-1.1332,0-1.7958.4185.1045.5984.1273.7607.1933,2.3288.9482,3.4888,2.8117,4.1929,5.1298.6642,2.1866,2.5732,3.1801,4.6277,2.5889,1.9852-.5713,3.1317-2.401,2.5934-4.5139-1.1772-4.6206-4.1425-7.5604-8.7405-8.8165-1.0923-.2984-2.2188-.4717-3.4347-.7244,0-1.1167.0207-2.1677-.0049-3.2174-.0374-1.5363-.619-2.2916-1.7577-2.3472-1.217-.0595-1.8986.676-1.9907,2.2819-.0624,1.0877-.0119,2.1819-.0119,3.1974Z"/><path class="cls-6" d="m223.2439,52.8386c-1.423-1.6809-2.7826-3.2885-4.1439-4.8947-2.9693-3.5035-5.9508-6.9968-8.9042-10.5136-1.3853-1.6495-1.5319-3.0476-.4592-4.9346,1.668-2.9343,4.2922-4.7055,7.3801-5.8874.7607-.2912,1.0497.0917,1.3514.6996,1.4896,3.0018,3.0123,5.9873,4.5253,8.9774.1426.2818.2996.5563.6832.752-.7148-2.4169-1.4213-4.8363-2.1467-7.25-.7263-2.417-1.4319-4.8414-2.2275-7.2357-.3195-.9615-.0346-1.5346.7223-2.0921,2.4543-1.8077,5.3159-2.5005,8.2342-2.8807,6.3452-.8268,12.6535-.6262,18.8147,1.2887,1.2114.3765,2.336,1.0377,3.4911,1.5876.7159.3408.7861.8108.4628,1.564-1.6247,3.7849-3.1808,7.5993-4.5275,11.5645,1.6725-2.2172,3.3449-4.4343,5.1144-6.7801,2.4877,1.5639,4.5737,3.3335,5.2901,6.2561.4769,1.9456-.2039,3.6424-1.4577,5.0983-4.0458,4.6982-8.131,9.3625-12.1797,14.0583-.4854.563-.906.7354-1.6438.4433-1.0942-.4332-2.2513-.7075-3.4824-1.08,1.0943-2.6718,2.1484-5.2455,3.2024-7.8191-.0838-.0522-.1677-.1045-.2515-.1567-1.0397,1.4944-2.2547,2.8987-3.0789,4.5038-1.308,2.5471-3.0585,3.4751-5.9786,3.0179-3.008-.4709-6.052-.0603-8.7904,1.7131Z"/><path class="cls-6" d="m235.356,103.64c4.1429.7187,6.4382,3.2675,6.2308,6.7823-.1809,3.0661-3.0997,5.8104-6.2308,5.9477v-12.73Z"/><path class="cls-6" d="m231.4022,83.3479v10.9659c-3.0849-.3776-5.2578-2.6794-5.2371-5.5246.0211-2.9104,2.0423-5.0427,5.2371-5.4413Z"/></g><g><g><path class="cls-3" d="m31.917,118.9626c-1.2304,2.2217-2.3886,4.313-3.5468,6.4043.0651.0421.1301.0843.1952.1264.5966-.796,1.1957-1.5902,1.7893-2.3885.6734-.9058,1.4888-1.7426,1.981-2.7386.9428-1.9076,2.5248-2.0677,4.2915-1.8271.3074.0419.6738.4045.8258.7116,1.0617,2.1445,2.0727,4.314,3.1041,6.4736.1389.2908.301.5705.6161.7925-.5503-2.4907-1.1006-4.9814-1.7254-7.8094,1,.3831,1.8325.6128,2.5808,1.0036,4.1486,2.1668,7.562,5.2765,10.7641,8.6205,6.7519,7.0513,12.3602,14.8824,16.01,24.0043,1.7571,4.3916,2.8403,8.9267,2.5506,13.7037-.305,5.0294-2.331,9.2291-6.1548,12.5286-1.5022,1.2962-3.3853,1.7542-5.2478,2.1907-4.8806,1.1438-9.8587,1.5533-14.847,1.8207-7.2164.3869-14.4397.4137-21.639-.2257-3.9409-.35-7.8563-1.0124-11.7732-1.6008-4.5321-.6808-7.425-3.5686-9.5057-7.3918-2.5174-4.6254-2.6018-9.5621-1.5501-14.5761,1.3042-6.2178,4.1054-11.7958,7.5549-17.0623,4.9264-7.5213,10.7458-14.2582,17.9483-19.696,1.5855-1.197,3.4634-2.0072,5.2116-2.9868.1039-.0582.252-.0376.5666-.0773Zm2.562,16.2497c-1.3256.3335-2.5413.5451-3.6909.9462-3.5943,1.2541-5.6543,4.143-5.8059,8.0026-.1511,3.8451,1.5508,6.67,5.0594,8.2591,1.1796.5342,2.4098.9736,3.6486,1.3528.6178.1891.7921.4792.7872,1.0831-.0236,2.9084-.009,5.8171-.0162,8.7256-.0006.2203-.066.4405-.1103.7169-1.5252-.4197-2.6966-1.2085-3.3901-2.5478-.4685-.9048-.7999-1.8847-1.1471-2.8474-.5897-1.6355-1.8082-2.3799-3.3937-2.0274-1.5306.3403-2.4469,1.6397-2.2746,3.2843.1679,1.6014.7645,3.0406,1.7425,4.3203,1.9335,2.5299,4.5559,3.8727,7.6458,4.3381.744.1121.9763.3842.9483,1.109-.0395,1.0233.0063,2.0513.0487,3.076.0356.8611.4064,1.4261,1.3729,1.4358,1.005.0101,1.297-.6315,1.3356-1.4578.0478-1.0246.0778-2.0541.0303-3.0776-.0332-.7145.1512-1.0015.9218-1.106,1.0392-.1409,2.0822-.4163,3.0638-.7907,3.8875-1.483,6.2943-5.0872,6.2521-9.2456-.0404-3.9836-2.3107-7.0496-6.3528-8.5249-.9934-.3626-2.0113-.6684-3.0355-.9327-.6375-.1645-.8582-.4703-.8471-1.1375.0388-2.3262.0122-4.6534.0106-6.9803-.0003-.4219,0-.8437,0-1.337.3116.0778.4455.0947.5664.1439,1.7339.706,2.5976,2.0934,3.1218,3.8193.4945,1.628,1.9158,2.3677,3.4455,1.9275,1.4781-.4253,2.3317-1.7877,1.9309-3.3608-.8765-3.4402-3.0843-5.629-6.5077-6.5642-.8133-.2222-1.652-.3512-2.5572-.5394,0-.8315.0154-1.6139-.0036-2.3955-.0278-1.1438-.4609-1.7062-1.3087-1.7476-.9061-.0443-1.4135.5033-1.4822,1.699-.0465.8098-.0089,1.6245-.0089,2.3806Z"/><path class="cls-3" d="m28.3264,117.1488c-1.0595-1.2515-2.0717-2.4484-3.0853-3.6443-2.2108-2.6085-4.4306-5.2094-6.6296-7.8278-1.0314-1.2281-1.1405-2.2691-.3419-3.674,1.2419-2.1847,3.1957-3.5035,5.4947-4.3834.5664-.2168.7816.0683,1.0062.5209,1.1091,2.235,2.2427,4.4577,3.3693,6.684.1062.2098.2231.4142.5087.5599-.5322-1.7995-1.0582-3.6008-1.5983-5.3979-.5408-1.7995-1.0661-3.6046-1.6585-5.3872-.2379-.7159-.0257-1.1426.5378-1.5576,1.8274-1.3459,3.9579-1.8617,6.1307-2.1448,4.7242-.6156,9.421-.4662,14.0083.9595.9019.2803,1.7393.7726,2.5993,1.182.533.2538.5853.6037.3446,1.1644-1.2096,2.818-2.3683,5.6579-3.3709,8.6102,1.2452-1.6508,2.4904-3.3015,3.8079-5.048,1.8522,1.1644,3.4053,2.4819,3.9386,4.6579.355,1.4486-.1518,2.7119-1.0853,3.7959-3.0123,3.498-6.0539,6.9708-9.0683,10.467-.3614.4192-.6745.5475-1.2239.33-.8147-.3226-1.6762-.5268-2.5928-.8041.8147-1.9892,1.5995-3.9054,2.3843-5.8216-.0624-.0389-.1248-.0778-.1873-.1167-.7741,1.1126-1.6787,2.1582-2.2924,3.3532-.9738,1.8964-2.2772,2.5873-4.4513,2.247-2.2395-.3506-4.506-.0449-6.5448,1.2754Z"/><path class="cls-3" d="m37.3443,154.9723c3.0845.5351,4.7935,2.4328,4.6391,5.0497-.1347,2.2829-2.3079,4.3261-4.6391,4.4283v-9.478Z"/><path class="cls-3" d="m34.4006,139.8641v8.1645c-2.2968-.2811-3.9146-1.9949-3.8993-4.1133.0157-2.1669,1.5205-3.7545,3.8993-4.0512Z"/></g><g><path class="cls-6" d="m31.917,118.9626c-1.2304,2.2217-2.3886,4.313-3.5468,6.4043.0651.0421.1301.0843.1952.1264.5966-.796,1.1957-1.5902,1.7893-2.3885.6734-.9058,1.4888-1.7426,1.981-2.7386.9428-1.9076,2.5248-2.0677,4.2915-1.8271.3074.0419.6738.4045.8258.7116,1.0617,2.1445,2.0727,4.314,3.1041,6.4736.1389.2908.301.5705.6161.7925-.5503-2.4907-1.1006-4.9814-1.7254-7.8094,1,.3831,1.8325.6128,2.5808,1.0036,4.1486,2.1668,7.562,5.2765,10.7641,8.6205,6.7519,7.0513,12.3602,14.8824,16.01,24.0043,1.7571,4.3916,2.8403,8.9267,2.5506,13.7037-.305,5.0294-2.331,9.2291-6.1548,12.5286-1.5022,1.2962-3.3853,1.7542-5.2478,2.1907-4.8806,1.1438-9.8587,1.5533-14.847,1.8207-7.2164.3869-14.4397.4137-21.639-.2257-3.9409-.35-7.8563-1.0124-11.7732-1.6008-4.5321-.6808-7.425-3.5686-9.5057-7.3918-2.5174-4.6254-2.6018-9.5621-1.5501-14.5761,1.3042-6.2178,4.1054-11.7958,7.5549-17.0623,4.9264-7.5213,10.7458-14.2582,17.9483-19.696,1.5855-1.197,3.4634-2.0072,5.2116-2.9868.1039-.0582.252-.0376.5666-.0773Zm2.562,16.2497c-1.3256.3335-2.5413.5451-3.6909.9462-3.5943,1.2541-5.6543,4.143-5.8059,8.0026-.1511,3.8451,1.5508,6.67,5.0594,8.2591,1.1796.5342,2.4098.9736,3.6486,1.3528.6178.1891.7921.4792.7872,1.0831-.0236,2.9084-.009,5.8171-.0162,8.7256-.0006.2203-.066.4405-.1103.7169-1.5252-.4197-2.6966-1.2085-3.3901-2.5478-.4685-.9048-.7999-1.8847-1.1471-2.8474-.5897-1.6355-1.8082-2.3799-3.3937-2.0274-1.5306.3403-2.4469,1.6397-2.2746,3.2843.1679,1.6014.7645,3.0406,1.7425,4.3203,1.9335,2.5299,4.5559,3.8727,7.6458,4.3381.744.1121.9763.3842.9483,1.109-.0395,1.0233.0063,2.0513.0487,3.076.0356.8611.4064,1.4261,1.3729,1.4358,1.005.0101,1.297-.6315,1.3356-1.4578.0478-1.0246.0778-2.0541.0303-3.0776-.0332-.7145.1512-1.0015.9218-1.106,1.0392-.1409,2.0822-.4163,3.0638-.7907,3.8875-1.483,6.2943-5.0872,6.2521-9.2456-.0404-3.9836-2.3107-7.0496-6.3528-8.5249-.9934-.3626-2.0113-.6684-3.0355-.9327-.6375-.1645-.8582-.4703-.8471-1.1375.0388-2.3262.0122-4.6534.0106-6.9803-.0003-.4219,0-.8437,0-1.337.3116.0778.4455.0947.5664.1439,1.7339.706,2.5976,2.0934,3.1218,3.8193.4945,1.628,1.9158,2.3677,3.4455,1.9275,1.4781-.4253,2.3317-1.7877,1.9309-3.3608-.8765-3.4402-3.0843-5.629-6.5077-6.5642-.8133-.2222-1.652-.3512-2.5572-.5394,0-.8315.0154-1.6139-.0036-2.3955-.0278-1.1438-.4609-1.7062-1.3087-1.7476-.9061-.0443-1.4135.5033-1.4822,1.699-.0465.8098-.0089,1.6245-.0089,2.3806Z"/><path class="cls-6" d="m28.3264,117.1488c-1.0595-1.2515-2.0717-2.4484-3.0853-3.6443-2.2108-2.6085-4.4306-5.2094-6.6296-7.8278-1.0314-1.2281-1.1405-2.2691-.3419-3.674,1.2419-2.1847,3.1957-3.5035,5.4947-4.3834.5664-.2168.7816.0683,1.0062.5209,1.1091,2.235,2.2427,4.4577,3.3693,6.684.1062.2098.2231.4142.5087.5599-.5322-1.7995-1.0582-3.6008-1.5983-5.3979-.5408-1.7995-1.0661-3.6046-1.6585-5.3872-.2379-.7159-.0257-1.1426.5378-1.5576,1.8274-1.3459,3.9579-1.8617,6.1307-2.1448,4.7242-.6156,9.421-.4662,14.0083.9595.9019.2803,1.7393.7726,2.5993,1.182.533.2538.5853.6037.3446,1.1644-1.2096,2.818-2.3683,5.6579-3.3709,8.6102,1.2452-1.6508,2.4904-3.3015,3.8079-5.048,1.8522,1.1644,3.4053,2.4819,3.9386,4.6579.355,1.4486-.1518,2.7119-1.0853,3.7959-3.0123,3.498-6.0539,6.9708-9.0683,10.467-.3614.4192-.6745.5475-1.2239.33-.8147-.3226-1.6762-.5268-2.5928-.8041.8147-1.9892,1.5995-3.9054,2.3843-5.8216-.0624-.0389-.1248-.0778-.1873-.1167-.7741,1.1126-1.6787,2.1582-2.2924,3.3532-.9738,1.8964-2.2772,2.5873-4.4513,2.247-2.2395-.3506-4.506-.0449-6.5448,1.2754Z"/><path class="cls-6" d="m37.3443,154.9723c3.0845.5351,4.7935,2.4328,4.6391,5.0497-.1347,2.2829-2.3079,4.3261-4.6391,4.4283v-9.478Z"/><path class="cls-6" d="m34.4006,139.8641v8.1645c-2.2968-.2811-3.9146-1.9949-3.8993-4.1133.0157-2.1669,1.5205-3.7545,3.8993-4.0512Z"/></g></g><g><g><path class="cls-1" d="m134.8654,75.6706c-3.2773,5.9177-6.3621,11.488-9.447,17.0582.1733.1122.3466.2244.5199.3367,1.5892-2.1202,3.1849-4.2356,4.7658-6.362,1.7937-2.4125,3.9654-4.6415,5.2766-7.2944,2.5111-5.0809,6.7249-5.5074,11.4307-4.8666.8187.1115,1.7947,1.0773,2.1997,1.8953,2.8279,5.7119,5.5208,11.4906,8.2679,17.2426.3699.7745.8017,1.5195,1.641,2.1108-1.4658-6.6341-2.9315-13.2682-4.5958-20.8007,2.6636,1.0205,4.8809,1.6321,6.874,2.6731,11.0501,5.7714,20.1418,14.0541,28.6707,22.9612,17.9839,18.7814,32.922,39.6399,42.6433,63.9366,4.6802,11.6973,7.5653,23.7768,6.7937,36.5004-.8123,13.3961-6.2087,24.5821-16.3937,33.3705-4.0011,3.4524-9.0168,4.6724-13.9778,5.835-12.9998,3.0465-26.2591,4.1372-39.5458,4.8495-19.2212,1.0304-38.4608,1.102-57.6365-.6012-10.4968-.9323-20.9258-2.6966-31.3586-4.2637-12.0714-1.8132-19.7768-9.5053-25.3189-19.6884-6.7051-12.3201-6.9301-25.469-4.1288-38.8242,3.4737-16.5614,10.9349-31.4186,20.1229-45.4462,13.1217-20.0332,28.622-37.9774,47.8061-52.4613,4.223-3.1884,9.2249-5.3464,13.8813-7.9554.2768-.1551.6712-.1003,1.5091-.206Z"/><path class="cls-1" d="m125.3016,70.8394c-2.8219-3.3334-5.5182-6.5215-8.2177-9.7068-5.8884-6.9479-11.801-13.8755-17.6581-20.8497-2.7471-3.2711-3.0379-6.0438-.9107-9.7859,3.3078-5.819,8.5119-9.3316,14.6355-11.6755,1.5085-.5774,2.0818.1818,2.68,1.3873,2.954,5.953,5.9737,11.8734,8.9742,17.8032.2828.5589.5942,1.1033,1.3549,1.4914-1.4175-4.793-2.8187-9.5909-4.2571-14.3776-1.4403-4.7931-2.8396-9.6011-4.4174-14.3492-.6337-1.9069-.0685-3.0434,1.4324-4.1489,4.8672-3.5849,10.5421-4.9587,16.3293-5.7128,12.5832-1.6397,25.0933-1.2418,37.3117,2.5557,2.4023.7466,4.6326,2.0578,6.9233,3.1484,1.4196.6759,1.5589,1.6079.9178,3.1015-3.2219,7.5059-6.308,15.0702-8.9785,22.9338,3.3167-4.3969,6.6334-8.7937,10.1425-13.4456,4.9334,3.1014,9.0703,6.6106,10.4908,12.4066.9457,3.8584-.4044,7.2234-2.8908,10.1106-8.0234,9.3171-16.1248,18.5669-24.1537,27.8792-.9626,1.1165-1.7967,1.4584-3.2598.8791-2.1699-.8592-4.4646-1.4031-6.9061-2.1417,2.1701-5.2985,4.2604-10.4023,6.3508-15.5062-.1663-.1036-.3325-.2072-.4988-.3108-2.0618,2.9635-4.4713,5.7485-6.1058,8.9315-2.5939,5.0512-6.0654,6.8915-11.8562,5.9849-5.9651-.9339-12.0019-.1196-17.4323,3.3972Z"/><g><path class="cls-1" d="m196.2244,213.3341h-105.5082c1.7775-2.4427,2.4095-5.3077,5.0318-7.0932,7.2169-4.914,14.2748-10.0613,21.4225-15.0779.7149-.5017.7861-.9235.5048-1.6922-2.2123-6.0451-4.3835-12.1052-6.5652-18.1615-.1318-.3658-.2455-.7382-.4651-1.4022,3.0813,2.0814,5.9127,3.9941,8.7442,5.9067-3.7643-7.5056-5.0707-15.3533-4.1107-23.6955,18.8395,3.9533,37.5641,3.9554,56.4.0118.6445,4.0516.4665,8.0903-.2389,12.1149-.7043,4.0183-2.0311,7.8353-3.8078,11.5707,2.8357-1.9182,5.6715-3.8363,8.7891-5.9451-.6064,1.6996-1.0991,3.0933-1.6006,4.4838-1.8138,5.0292-3.6111,10.0644-5.4653,15.0787-.3057.8267-.1988,1.2475.5492,1.7719,7.5077,5.2634,14.9865,10.5682,22.4566,15.8849.4527.3222.8431.7982,1.1244,1.2828.924,1.5915,1.7844,3.2199,2.7391,4.9615Zm-77.2917-55.8474c.5821,2.6836.9964,5.1639,1.6804,7.5675.5558,1.9529,1.9987,3.1564,4.0548,3.5181,1.0013.1762,1.9987.3802,3.0048.523,4.3148.6126,8.6162,1.3915,12.9522,1.7671,7.3311.6351,14.4652-1.0681,21.629-2.2655,2.3497-.3927,3.9432-2.0367,4.4202-4.3673.2259-1.1036.4494-2.2077.6769-3.3109.2236-1.084.4508-2.1673.7131-3.4269-16.4321,1.9474-32.6719,1.9683-49.1314-.0052Z"/><path class="cls-1" d="m144.9229,152.0668c-10.7621-.1139-20.0206-.6734-29.0491-3.0957-2.5101-.6734-4.9126-1.7735-7.3233-2.777-.75-.3122-1.4225-.8878-2.0296-1.4515-1.7654-1.639-1.7738-3.4322-.0035-5.084,2.0531-1.9157,4.6527-2.8116,7.2566-3.6377,1.6615-.5271,3.3633-.9391,5.0654-1.3208.6634-.1488.8985-.4101.8868-1.0847-.0352-2.0377-.0216-4.0764-.0101-6.1146.0413-7.3369,7.3817-12.0686,14.0927-9.0824,1.8279.8133,3.6401,1.6617,5.466,2.4795,2.8158,1.2611,5.6411,1.2591,8.4573.0044,1.8275-.8142,3.6391-1.6641,5.4667-2.4779,6.7149-2.9902,14.0612,1.7312,14.1045,9.0637.012,2.0382.0229,4.0769-.009,6.1147-.0103.6607.2164.908.8706,1.0999,2.9955.8787,6.0112,1.7243,8.9245,2.8322,1.3493.5131,2.6088,1.4606,3.6806,2.457,1.4813,1.3771,1.4779,3.1602-.0512,4.486-1.2419,1.0768-2.6975,1.9922-4.198,2.6697-4.4496,2.0092-9.2256,2.8743-14.0167,3.5873-2.6608.396-5.3432.6942-8.0267.8786-3.6653.2518-7.3408.3533-9.5546.4533Z"/><path class="cls-1" d="m134.6703,168.5042c-4.1789.0047-7.5054-2.194-8.6006-5.3634-.118-.3415-.2103-.6983-.2606-1.0556-.2032-1.4419.4302-2.1132,1.8611-1.8565,2.361.4235,4.7085.9226,7.0608,1.394,1.6751.3357,3.3519.6635,5.0221,1.0221,1.5008.3222,1.9089,1.2615,1.036,2.5452-1.5783,2.3213-3.8828,3.27-6.1188,3.3142Zm1.895-3.3473c.0278-1.0967-.7942-1.9964-1.8412-2.0151-1.0238-.0183-1.9279.8187-1.9521,1.8072-.0256,1.0464.8357,1.9209,1.9201,1.9496.9393.0248,1.8498-.8218,1.8732-1.7417Z"/><path class="cls-1" d="m152.8726,168.5499c-2.9823-.1963-5.3589-1.1398-6.8205-3.7014-.5755-1.0086-.1797-1.9207.9497-2.1538,4.1221-.8509,8.2489-1.6801,12.3821-2.4753,1.3311-.2561,2.0037.4523,1.8425,1.7993-.3326,2.7781-3.1956,5.6428-6.2674,6.2408-.744.1448-1.5034.2111-2.0863.2904Zm-.5942-5.3876c-.9912.01-1.859.8976-1.846,1.8882.0126.9634.9364,1.857,1.9124,1.8499,1.0032-.0073,1.8816-.8699,1.9022-1.8679.0222-1.074-.828-1.8816-1.9686-1.8701Z"/></g></g><g><path class="cls-6" d="m134.8654,75.6706c-3.2773,5.9177-6.3621,11.488-9.447,17.0582.1733.1122.3466.2244.5199.3367,1.5892-2.1202,3.1849-4.2356,4.7658-6.362,1.7937-2.4125,3.9654-4.6415,5.2766-7.2944,2.5111-5.0809,6.7249-5.5074,11.4307-4.8666.8187.1115,1.7947,1.0773,2.1997,1.8953,2.8279,5.7119,5.5208,11.4906,8.2679,17.2426.3699.7745.8017,1.5195,1.641,2.1108-1.4658-6.6341-2.9315-13.2682-4.5958-20.8007,2.6636,1.0205,4.8809,1.6321,6.874,2.6731,11.0501,5.7714,20.1418,14.0541,28.6707,22.9612,17.9839,18.7814,32.922,39.6399,42.6433,63.9366,4.6802,11.6973,7.5653,23.7768,6.7937,36.5004-.8123,13.3961-6.2087,24.5821-16.3937,33.3705-4.0011,3.4524-9.0168,4.6724-13.9778,5.835-12.9998,3.0465-26.2591,4.1372-39.5458,4.8495-19.2212,1.0304-38.4608,1.102-57.6365-.6012-10.4968-.9323-20.9258-2.6966-31.3586-4.2637-12.0714-1.8132-19.7768-9.5053-25.3189-19.6884-6.7051-12.3201-6.9301-25.469-4.1288-38.8242,3.4737-16.5614,10.9349-31.4186,20.1229-45.4462,13.1217-20.0332,28.622-37.9774,47.8061-52.4613,4.223-3.1884,9.2249-5.3464,13.8813-7.9554.2768-.1551.6712-.1003,1.5091-.206Z"/><path class="cls-6" d="m125.3016,70.8394c-2.8219-3.3334-5.5182-6.5215-8.2177-9.7068-5.8884-6.9479-11.801-13.8755-17.6581-20.8497-2.7471-3.2711-3.0379-6.0438-.9107-9.7859,3.3078-5.819,8.5119-9.3316,14.6355-11.6755,1.5085-.5774,2.0818.1818,2.68,1.3873,2.954,5.953,5.9737,11.8734,8.9742,17.8032.2828.5589.5942,1.1033,1.3549,1.4914-1.4175-4.793-2.8187-9.5909-4.2571-14.3776-1.4403-4.7931-2.8396-9.6011-4.4174-14.3492-.6337-1.9069-.0685-3.0434,1.4324-4.1489,4.8672-3.5849,10.5421-4.9587,16.3293-5.7128,12.5832-1.6397,25.0933-1.2418,37.3117,2.5557,2.4023.7466,4.6326,2.0578,6.9233,3.1484,1.4196.6759,1.5589,1.6079.9178,3.1015-3.2219,7.5059-6.308,15.0702-8.9785,22.9338,3.3167-4.3969,6.6334-8.7937,10.1425-13.4456,4.9334,3.1014,9.0703,6.6106,10.4908,12.4066.9457,3.8584-.4044,7.2234-2.8908,10.1106-8.0234,9.3171-16.1248,18.5669-24.1537,27.8792-.9626,1.1165-1.7967,1.4584-3.2598.8791-2.1699-.8592-4.4646-1.4031-6.9061-2.1417,2.1701-5.2985,4.2604-10.4023,6.3508-15.5062-.1663-.1036-.3325-.2072-.4988-.3108-2.0618,2.9635-4.4713,5.7485-6.1058,8.9315-2.5939,5.0512-6.0654,6.8915-11.8562,5.9849-5.9651-.9339-12.0019-.1196-17.4323,3.3972Z"/><g><path class="cls-5" d="m196.2244,213.3341h-105.5082c1.7775-2.4427,2.4095-5.3077,5.0318-7.0932,7.2169-4.914,14.2748-10.0613,21.4225-15.0779.7149-.5017.7861-.9235.5048-1.6922-2.2123-6.0451-4.3835-12.1052-6.5652-18.1615-.1318-.3658-.2455-.7382-.4651-1.4022,3.0813,2.0814,5.9127,3.9941,8.7442,5.9067-3.7643-7.5056-5.0707-15.3533-4.1107-23.6955,18.8395,3.9533,37.5641,3.9554,56.4.0118.6445,4.0516.4665,8.0903-.2389,12.1149-.7043,4.0183-2.0311,7.8353-3.8078,11.5707,2.8357-1.9182,5.6715-3.8363,8.7891-5.9451-.6064,1.6996-1.0991,3.0933-1.6006,4.4838-1.8138,5.0292-3.6111,10.0644-5.4653,15.0787-.3057.8267-.1988,1.2475.5492,1.7719,7.5077,5.2634,14.9865,10.5682,22.4566,15.8849.4527.3222.8431.7982,1.1244,1.2828.924,1.5915,1.7844,3.2199,2.7391,4.9615Zm-77.2917-55.8474c.5821,2.6836.9964,5.1639,1.6804,7.5675.5558,1.9529,1.9987,3.1564,4.0548,3.5181,1.0013.1762,1.9987.3802,3.0048.523,4.3148.6126,8.6162,1.3915,12.9522,1.7671,7.3311.6351,14.4652-1.0681,21.629-2.2655,2.3497-.3927,3.9432-2.0367,4.4202-4.3673.2259-1.1036.4494-2.2077.6769-3.3109.2236-1.084.4508-2.1673.7131-3.4269-16.4321,1.9474-32.6719,1.9683-49.1314-.0052Z"/><path class="cls-5" d="m144.9229,152.0668c-10.7621-.1139-20.0206-.6734-29.0491-3.0957-2.5101-.6734-4.9126-1.7735-7.3233-2.777-.75-.3122-1.4225-.8878-2.0296-1.4515-1.7654-1.639-1.7738-3.4322-.0035-5.084,2.0531-1.9157,4.6527-2.8116,7.2566-3.6377,1.6615-.5271,3.3633-.9391,5.0654-1.3208.6634-.1488.8985-.4101.8868-1.0847-.0352-2.0377-.0216-4.0764-.0101-6.1146.0413-7.3369,7.3817-12.0686,14.0927-9.0824,1.8279.8133,3.6401,1.6617,5.466,2.4795,2.8158,1.2611,5.6411,1.2591,8.4573.0044,1.8275-.8142,3.6391-1.6641,5.4667-2.4779,6.7149-2.9902,14.0612,1.7312,14.1045,9.0637.012,2.0382.0229,4.0769-.009,6.1147-.0103.6607.2164.908.8706,1.0999,2.9955.8787,6.0112,1.7243,8.9245,2.8322,1.3493.5131,2.6088,1.4606,3.6806,2.457,1.4813,1.3771,1.4779,3.1602-.0512,4.486-1.2419,1.0768-2.6975,1.9922-4.198,2.6697-4.4496,2.0092-9.2256,2.8743-14.0167,3.5873-2.6608.396-5.3432.6942-8.0267.8786-3.6653.2518-7.3408.3533-9.5546.4533Z"/><path class="cls-5" d="m134.6703,168.5042c-4.1789.0047-7.5054-2.194-8.6006-5.3634-.118-.3415-.2103-.6983-.2606-1.0556-.2032-1.4419.4302-2.1132,1.8611-1.8565,2.361.4235,4.7085.9226,7.0608,1.394,1.6751.3357,3.3519.6635,5.0221,1.0221,1.5008.3222,1.9089,1.2615,1.036,2.5452-1.5783,2.3213-3.8828,3.27-6.1188,3.3142Zm1.895-3.3473c.0278-1.0967-.7942-1.9964-1.8412-2.0151-1.0238-.0183-1.9279.8187-1.9521,1.8072-.0256,1.0464.8357,1.9209,1.9201,1.9496.9393.0248,1.8498-.8218,1.8732-1.7417Z"/><path class="cls-5" d="m152.8726,168.5499c-2.9823-.1963-5.3589-1.1398-6.8205-3.7014-.5755-1.0086-.1797-1.9207.9497-2.1538,4.1221-.8509,8.2489-1.6801,12.3821-2.4753,1.3311-.2561,2.0037.4523,1.8425,1.7993-.3326,2.7781-3.1956,5.6428-6.2674,6.2408-.744.1448-1.5034.2111-2.0863.2904Zm-.5942-5.3876c-.9912.01-1.859.8976-1.846,1.8882.0126.9634.9364,1.857,1.9124,1.8499,1.0032-.0073,1.8816-.8699,1.9022-1.8679.0222-1.074-.828-1.8816-1.9686-1.8701Z"/></g></g></g><path class="cls-6" d="m3.4108,265.3912c7.7106-18.4086,15.4404-36.8123,23.1208-55.2285,2.4901-5.9709,4.8508-11.9746,7.4372-18.3753,8.7234,0,17.227-.5819,25.4847.2769,3.4651.3604,10.1457-.0534,9.5905,5.7955.5552,3.8912-3.1455,5.6037-9.9987,5.1756-14.3389-.8958-15.9619,5.724-18.812,13.9382-4.3946,12.6651-9.6982,25.138-14.8031,38.1696h234.4463c-6.9525-16.3942-13.4316-32.2885-20.7191-47.9538-.774-1.6639-6.2173-2.5687-9.6097-2.8012-5.9112-.4052-12.2919-.4811-12.1821-6.4751.1078-5.8873,6.4625-6.2036,12.3926-6.3319q19.3217-.4181,25.3736,13.4609c7.7469,17.9292,15.4451,35.8712,23.1148,53.8205,1.0681,2.4997,1.8537,5.0729,2.9708,8.1685-3.9601.2293-6.7151.5275-9.4702.5282-86.6435.024-173.287.0241-259.9305-.004-2.802-.0009-5.6039-.335-8.4058-.5137,0-.5501,0-1.1001,0-1.6502Z"/><g><circle class="cls-6" cx="219.3903" cy="176.6729" r="45.3921"/><g class="cls-4"><g><path class="cls-5" d="m266.2165,262.3233H83.1396c3.0843-4.2386,4.181-9.2099,8.7312-12.3081,12.5228-8.5267,24.7695-17.4582,37.1721-26.1631,1.2404-.8706,1.3641-1.6025.876-2.9363-3.8387-10.4894-7.6062-21.0049-11.3919-31.5137-.2287-.6348-.426-1.2809-.807-2.4332,5.3466,3.6116,10.2597,6.9305,15.1729,10.2493-6.5317-13.0237-8.7986-26.641-7.1329-41.1162,32.6901,6.8598,65.1809,6.8634,97.8648.0206,1.1183,7.0303.8095,14.0383-.4145,21.0217-1.2221,6.9726-3.5244,13.5958-6.6073,20.0773,4.9206-3.3284,9.8411-6.6568,15.2508-10.3159-1.0522,2.9491-1.9071,5.3674-2.7773,7.7802-3.1472,8.7266-6.266,17.4637-9.4834,26.1644-.5304,1.4344-.3449,2.1646.953,3.0746,13.0273,9.133,26.0045,18.3378,38.9665,27.5634.7856.5591,1.4629,1.3851,1.9511,2.226,1.6034,2.7615,3.0963,5.5872,4.7528,8.6092Zm-134.1159-96.9059c1.0101,4.6565,1.729,8.9604,2.9159,13.1311.9644,3.3887,3.4682,5.4769,7.0358,6.1046,1.7375.3057,3.4682.6597,5.2139.9075,7.487,1.063,14.9508,2.4145,22.4746,3.0663,12.7209,1.102,25.0999-1.8533,37.5305-3.931,4.0773-.6815,6.8422-3.534,7.6698-7.5781.3919-1.915.7798-3.8307,1.1746-5.7451.3879-1.881.7822-3.7607,1.2373-5.9464-28.5129,3.3792-56.6921,3.4153-85.2525-.009Z"/><path class="cls-5" d="m177.1986,156.0126c-18.6743-.1977-34.7395-1.1686-50.4058-5.3717-4.3555-1.1685-8.5244-3.0774-12.7073-4.8186-1.3014-.5417-2.4683-1.5405-3.5218-2.5186-3.0633-2.8439-3.0779-5.9554-.006-8.8218,3.5625-3.3241,8.0733-4.8787,12.5917-6.312,2.8831-.9146,5.8359-1.6295,8.7894-2.2918,1.1511-.2581,1.559-.7116,1.5388-1.8822-.061-3.5358-.0374-7.0734-.0175-10.6101.0716-12.7309,12.8087-20.9413,24.4536-15.7597,3.1717,1.4113,6.3163,2.8835,9.4846,4.3025,4.8859,2.1883,9.7883,2.1848,14.6751.0076,3.171-1.4128,6.3145-2.8874,9.4859-4.2997,11.6517-5.1886,24.3988,3.0039,24.474,15.7273.0209,3.5367.0397,7.0742-.0156,10.6101-.0179,1.1464.3755,1.5755,1.5107,1.9085,5.1978,1.5248,10.4306,2.992,15.4856,4.9143,2.3412.8903,4.5268,2.5345,6.3865,4.2633,2.5704,2.3895,2.5645,5.4835-.0889,7.784-2.155,1.8684-4.6806,3.4568-7.2843,4.6325-7.7209,3.4864-16.0081,4.9875-24.3217,6.2247-4.617.6871-9.2715,1.2045-13.9279,1.5245-6.3599.437-12.7378.613-16.579.7866Z"/><path class="cls-5" d="m159.4084,184.5348c-7.2511.0081-13.0233-3.8071-14.9237-9.3065-.2047-.5925-.3649-1.2116-.4522-1.8316-.3525-2.502.7464-3.6668,3.2293-3.2214,4.0968.7348,8.1701,1.6009,12.2519,2.4189,2.9066.5825,5.8162,1.1513,8.7143,1.7736,2.6041.5592,3.3122,2.1889,1.7977,4.4163-2.7387,4.0279-6.7375,5.674-10.6174,5.7507Zm3.2882-5.8082c.0483-1.9029-1.3781-3.4641-3.1948-3.4966-1.7765-.0318-3.3453,1.4206-3.3872,3.1359-.0444,1.8158,1.45,3.3331,3.3317,3.3829,1.6299.0431,3.2098-1.4259,3.2503-3.0222Z"/><path class="cls-5" d="m190.993,184.6141c-5.1749-.3407-9.2987-1.9777-11.8349-6.4226-.9986-1.7501-.3118-3.3327,1.6478-3.7372,7.1526-1.4765,14.3135-2.9153,21.4853-4.2952,2.3097-.4444,3.4769.7848,3.1971,3.1221-.5771,4.8205-5.545,9.7913-10.8752,10.8289-1.291.2513-2.6086.3663-3.6202.504Zm-1.0311-9.3485c-1.7199.0173-3.2257,1.5575-3.2032,3.2764.0219,1.6718,1.6248,3.2223,3.3184,3.2099,1.7407-.0127,3.2649-1.5095,3.3007-3.2412.0384-1.8636-1.4367-3.265-3.4159-3.2451Z"/></g></g></g><g><g><path class="cls-2" d="m201.9983,238.4101c-34.3273-8.5194-55.0583-43.04-46.5062-77.4409,8.4821-34.1197,43.1669-54.9318,77.4006-46.3555,34.738,8.7026,55.2772,43.8764,46.1647,78.2734-8.8948,33.5752-43.0657,54.0209-77.0591,45.5231Zm61.2221-50.4852c6.3438-24.771-8.9673-50.7608-33.6096-57.0507-25.5145-6.5125-51.4223,8.437-57.846,33.3786-6.6447,25.8,8.3179,51.3586,33.9074,57.9195,25.5252,6.5445,50.9811-8.6046,57.5482-34.2474Z"/><path class="cls-2" d="m240.8457,241.7551c8.7572-3.1262,16.4376-7.8309,23.3414-14.0398.3721.4818.6689.7976.8883,1.1602,6.4177,10.6045,12.8761,21.1848,19.2227,31.8318,4.5034,7.5548,2.0254,16.3656-5.5092,20.0987-5.9829,2.9643-13.6738,1.2933-17.2187-4.3502-7.0338-11.1978-13.7228-22.612-20.5472-33.9412-.0902-.1497-.0868-.3557-.1773-.7596Z"/></g><g><path class="cls-5" d="m201.9983,238.4101c-34.3273-8.5194-55.0583-43.04-46.5062-77.4409,8.4821-34.1197,43.1669-54.9318,77.4006-46.3555,34.738,8.7026,55.2772,43.8764,46.1647,78.2734-8.8948,33.5752-43.0657,54.0209-77.0591,45.5231Zm61.2221-50.4852c6.3438-24.771-8.9673-50.7608-33.6096-57.0507-25.5145-6.5125-51.4223,8.437-57.846,33.3786-6.6447,25.8,8.3179,51.3586,33.9074,57.9195,25.5252,6.5445,50.9811-8.6046,57.5482-34.2474Z"/><path class="cls-5" d="m240.8457,241.7551c8.7572-3.1262,16.4376-7.8309,23.3414-14.0398.3721.4818.6689.7976.8883,1.1602,6.4177,10.6045,12.8761,21.1848,19.2227,31.8318,4.5034,7.5548,2.0254,16.3656-5.5092,20.0987-5.9829,2.9643-13.6738,1.2933-17.2187-4.3502-7.0338-11.1978-13.7228-22.612-20.5472-33.9412-.0902-.1497-.0868-.3557-.1773-.7596Z"/></g><g><path class="cls-6" d="m201.9983,238.4101c-34.3273-8.5194-55.0583-43.04-46.5062-77.4409,8.4821-34.1197,43.1669-54.9318,77.4006-46.3555,34.738,8.7026,55.2772,43.8764,46.1647,78.2734-8.8948,33.5752-43.0657,54.0209-77.0591,45.5231Zm61.2221-50.4852c6.3438-24.771-8.9673-50.7608-33.6096-57.0507-25.5145-6.5125-51.4223,8.437-57.846,33.3786-6.6447,25.8,8.3179,51.3586,33.9074,57.9195,25.5252,6.5445,50.9811-8.6046,57.5482-34.2474Z"/><path class="cls-6" d="m240.8457,241.7551c8.7572-3.1262,16.4376-7.8309,23.3414-14.0398.3721.4818.6689.7976.8883,1.1602,6.4177,10.6045,12.8761,21.1848,19.2227,31.8318,4.5034,7.5548,2.0254,16.3656-5.5092,20.0987-5.9829,2.9643-13.6738,1.2933-17.2187-4.3502-7.0338-11.1978-13.7228-22.612-20.5472-33.9412-.0902-.1497-.0868-.3557-.1773-.7596Z"/></g></g></svg>