<?xml version="1.0" encoding="UTF-8"?><svg id="Layer_1" xmlns="http://www.w3.org/2000/svg" xmlns:xlink="http://www.w3.org/1999/xlink" viewBox="0 0 292.8045 282.4894"><defs><style>.cls-1{fill:none;}.cls-2{clip-path:url(#clippath);}.cls-3{fill:#fff;}.cls-4{fill:#4a9cd5;}</style><clipPath id="clippath"><rect class="cls-1" x="35.4214" y="78.9498" width="57.2815" height="96.4045"/></clipPath></defs><path class="cls-4" d="m63.6241,160.8294c-2.5761-.0002-5.1522-.0006-7.7283-.0017-3.3528-.0014-4.4983-1.1015-4.4996-4.3194-.0034-8.2675-.0011-16.5351-.0012-24.8026v-1.7951c-1.9231,0-3.7304.0112-5.5374-.0026-2.8218-.0216-3.9901-1.1134-4.0013-3.8399-.0242-5.9053-.027-11.8108.0023-17.7161.0129-2.5927,1.228-3.7711,3.933-3.7861,6.0813-.0336,12.1631-.0365,18.2444.0016,2.6746.0168,3.8568,1.215,3.9096,3.828.0366,1.8125.007,3.6262.007,5.5693h35.0066c0-.621-.0005-1.2368,0-1.8526q.0066-7.5582,7.8543-7.5582c6.0308,0,12.0616,0,18.0925,0,.5481,0,1.0962,0,1.8456,0,0-2.9809-.1329-5.8279.0458-8.6563.1233-1.9517-.5478-3.2788-1.9845-4.6052-3.8552-3.5593-7.5594-7.273-11.3186-10.9302-2.3207-2.2577-2.3396-3.803-.0639-6.0173,4.5107-4.389,9.0249-8.7746,13.5465-13.153,2.1897-2.1203,3.8074-2.1298,5.9722-.0358,4.0931,3.9593,8.1937,7.9116,12.2447,11.9113.7703.7606,1.5348,1.0871,2.6468,1.0823,9.7302-.0418,19.4607-.0257,29.1911-.0232,3.5791.0009,4.6323,1.0134,4.6325,4.4614.0018,25.9345.0018,51.869-.0004,77.8035-.0003,3.4465-1.0445,4.4359-4.658,4.4371-5.5747.0018-11.1494.0005-16.7241.0005-.4983,0-.9966,0-1.8457,0,1.2066,1.2307,2.2513,2.1931,3.1678,3.2594.97,1.1284,1.0993,2.403.2509,3.6876-.809,1.2251-2.0166,1.6819-3.4068,1.3168-.7358-.1932-1.4576-.6837-2.0186-1.2085-1.3432-1.2566-2.5875-2.613-4.0223-4.0835-4.1964,7.5489-10.9723,10.7478-19.0916,11.9514v9.6502c.6708,0,1.3084,0,1.9461,0,3.4462,0,6.8925-.0174,10.3385.006,2.6645.018,3.9699,1.2253,3.9834,3.7645.0316,5.9544-.0064,11.9092.02,17.8637.0079,1.7742-.8676,2.9417-2.4071,3.7417h-34.3655c-1.8697-.8692-2.4833-2.3342-2.458-4.3018.0728-5.6584.0206-11.3184.0278-16.9777.0037-2.9347,1.2018-4.0873,4.2532-4.0942,3.9498-.0089,7.8996-.0022,11.9734-.0022v-9.6515c-8.0236-1.2038-14.7921-4.3441-18.966-11.7984-1.4336,1.3894-2.7933,2.7492-4.201,4.0606-1.5887,1.48-3.5404,1.5955-4.88.3456-1.2819-1.196-1.34-3.0803.004-4.5062.8791-.9327,1.9362-1.707,2.9137-2.5523-.0751-.1344-.1503-.2688-.2254-.4032-.5226-.0227-1.0452-.0649-1.5679-.0652-3.9549-.0019-7.9097-.0022-11.8646-.0023m87.2483-80.1747c-.2084-.0566-.3479-.1275-.4875-.1277-9.1725-.0087-18.345-.0215-27.5173.013-.479.0018-1.0628.3068-1.4182.6473-3.9317,3.7675-7.8326,7.5653-11.7241,11.372-.3019.2954-.6658.7166-.6709,1.0837-.0503,3.5783-.0303,7.1576-.0303,10.9107.7504,0,1.3429,0,1.9355,0,7.1961.0001,14.3923-.0094,21.5884.0051,3.0484.0061,4.2108,1.1465,4.2174,4.1134.0126,5.7083.012,11.4166.0005,17.1249-.0062,3.0885-1.0914,4.1101-4.335,4.1122-7.1961.0047-14.3923.0015-21.5884.0016-.5822,0-1.1645,0-1.733,0v9.7098c3.9082.551,7.5796,1.5722,10.9326,3.5284,3.4136,1.9915,6.1296,4.6204,8.0821,8.4213,1.4244-1.4751,2.6576-2.8402,3.9967-4.0991.5963-.5606,1.3512-1.0991,2.1308-1.309,1.3897-.3742,2.5973.1191,3.3965,1.3443.839,1.2863.7047,2.5586-.2698,3.6874-.9126,1.0571-1.9412,2.0198-3.0448,3.1537h16.539v-73.693Zm-73.8684,73.6379c.0716-.1185.1432-.2369.2148-.3554-.9431-.8197-1.9428-1.5869-2.8149-2.4726-1.0752-1.0918-1.3946-2.3967-.6052-3.7888,1.0926-1.9266,3.4805-2.2204,5.2769-.558,1.4557,1.3472,2.7628,2.8459,4.2886,4.4366,4.3187-7.6817,11.1212-10.7734,19.0676-11.9655v-9.678c-.6457,0-1.1921,0-1.7385,0-7.2439,0-14.4878.005-21.7317-.0027-3.0482-.0032-4.1889-1.1191-4.2151-4.1053-.0154-1.7521-.0028-3.5044-.0028-5.3031h-34.8185c-.0704.1709-.1375.2587-.1386.3473-.0214,1.7699-.0098,3.5405-.0564,5.3096-.0686,2.6077-1.2568,3.7265-3.9564,3.7502-1.9631.0172-3.921.0034-5.9099.0034v24.3823h47.1401Zm28.7631,15.2196c3.184.0273,6.2455-.5493,9.1466-1.8291,3.0284-1.336,5.5714-3.2548,7.0709-6.2,2.211-4.3427.4057-9.5633-4.4917-12.4002-7.7595-4.4949-15.7558-4.6236-23.4157.0298-6.77,4.1128-7.3792,11.322-1.2929,16.2256,3.7592,3.0287,8.2012,4.1238,12.9829,4.174Zm24.408-45.9596v-12.5065h-48.7782v12.5065h48.7782Zm-11.468,80.7984v-12.4779h-25.9014v12.4779h25.9014Zm-13.1147-117.3326c3.3866-3.2832,6.8089-6.6009,10.1521-9.842-3.2589-3.1646-6.6507-6.4583-9.8105-9.5267-3.3861,3.2294-6.8374,6.5211-10.2258,9.7527,3.3339,3.2434,6.7263,6.5438,9.8841,9.616Zm-85.413,36.5275h12.9268v-12.4899h-12.9268v12.4899Z"/><path class="cls-4" d="m128.8849,234.9843c-10.4591,6.0721-22.3244,11.4297-35.9705,15.7478V31.4891c6.1715,2.9921,15.6255,7.509,26.8756,12.6831h26.5317c-6.0759-2.6673-11.9456-5.3002-17.4369-7.8032V13.9414l-7.8835,3.9398c-.1949.0994-6.0989,3.0418-15.5491,7.551-6.397,3.0533-14.4104,6.8211-23.4326,10.9368-22.7295,10.3635-51.6992,22.8632-76.4693,31.2893l-3.0189,1.0241-.5846,3.1335c-.2522,1.3451-21.1436,121.3626,80.0728,175.6222v17.777l6.9167-1.9336c5.7779-1.6203,11.2616-3.4239,16.5159-5.3614,8.4567-3.1221,16.2561-6.6339,23.4326-10.482,12.5264-6.7141,23.1689-14.4409,32.2255-22.8212h-16.7376c-4.7691,3.638-9.8973,7.1192-15.488,10.3674Z"/><path class="cls-4" d="m27.0498,75.7251c11.5059,1.8512,22.742,1.6653,33.9338-.4294,11.1748-2.0915,21.6835-6.0322,31.7193-11.8412v152.3832c-1.2384-.5579-2.38-1.0404-3.4945-1.5789-18.8239-9.0957-34.8274-21.5808-46.4838-39.1487-10.437-15.7301-15.7204-33.0669-15.6792-51.994.0329-15.1159.0052-30.232.0044-45.348,0-.6352,0-1.2703,0-2.0431Z"/><g class="cls-2"><path class="cls-3" d="m63.6241,160.8294c-2.5761-.0002-5.1522-.0006-7.7283-.0017-3.3528-.0014-4.4983-1.1015-4.4996-4.3194-.0034-8.2675-.0011-16.5351-.0012-24.8026v-1.7951c-1.9231,0-3.7304.0112-5.5374-.0026-2.8218-.0216-3.9901-1.1134-4.0013-3.8399-.0242-5.9053-.027-11.8108.0023-17.7161.0129-2.5927,1.228-3.7711,3.933-3.7861,6.0813-.0336,12.1631-.0365,18.2444.0016,2.6746.0168,3.8568,1.215,3.9096,3.828.0366,1.8125.007,3.6262.007,5.5693h35.0066c0-.621-.0005-1.2368,0-1.8526q.0066-7.5582,7.8543-7.5582c6.0308,0,12.0616,0,18.0925,0,.5481,0,1.0962,0,1.8456,0,0-2.9809-.1329-5.8279.0458-8.6563.1233-1.9517-.5478-3.2788-1.9845-4.6052-3.8552-3.5593-7.5594-7.273-11.3186-10.9302-2.3207-2.2577-2.3396-3.803-.0639-6.0173,4.5107-4.389,9.0249-8.7746,13.5465-13.153,2.1897-2.1203,3.8074-2.1298,5.9722-.0358,4.0931,3.9593,8.1937,7.9116,12.2447,11.9113.7703.7606,1.5348,1.0871,2.6468,1.0823,9.7302-.0418,19.4607-.0257,29.1911-.0232,3.5791.0009,4.6323,1.0134,4.6325,4.4614.0018,25.9345.0018,51.869-.0004,77.8035-.0003,3.4465-1.0445,4.4359-4.658,4.4371-5.5747.0018-11.1494.0005-16.7241.0005-.4983,0-.9966,0-1.8457,0,1.2066,1.2307,2.2513,2.1931,3.1678,3.2594.97,1.1284,1.0993,2.403.2509,3.6876-.809,1.2251-2.0166,1.6819-3.4068,1.3168-.7358-.1932-1.4576-.6837-2.0186-1.2085-1.3432-1.2566-2.5875-2.613-4.0223-4.0835-4.1964,7.5489-10.9723,10.7478-19.0916,11.9514v9.6502c.6708,0,1.3084,0,1.9461,0,3.4462,0,6.8925-.0174,10.3385.006,2.6645.018,3.9699,1.2253,3.9834,3.7645.0316,5.9544-.0064,11.9092.02,17.8637.0079,1.7742-.8676,2.9417-2.4071,3.7417h-34.3655c-1.8697-.8692-2.4833-2.3342-2.458-4.3018.0728-5.6584.0206-11.3184.0278-16.9777.0037-2.9347,1.2018-4.0873,4.2532-4.0942,3.9498-.0089,7.8996-.0022,11.9734-.0022v-9.6515c-8.0236-1.2038-14.7921-4.3441-18.966-11.7984-1.4336,1.3894-2.7933,2.7492-4.201,4.0606-1.5887,1.48-3.5404,1.5955-4.88.3456-1.2819-1.196-1.34-3.0803.004-4.5062.8791-.9327,1.9362-1.707,2.9137-2.5523-.0751-.1344-.1503-.2688-.2254-.4032-.5226-.0227-1.0452-.0649-1.5679-.0652-3.9549-.0019-7.9097-.0022-11.8646-.0023m87.2483-80.1747c-.2084-.0566-.3479-.1275-.4875-.1277-9.1725-.0087-18.345-.0215-27.5173.013-.479.0018-1.0628.3068-1.4182.6473-3.9317,3.7675-7.8326,7.5653-11.7241,11.372-.3019.2954-.6658.7166-.6709,1.0837-.0503,3.5783-.0303,7.1576-.0303,10.9107.7504,0,1.3429,0,1.9355,0,7.1961.0001,14.3923-.0094,21.5884.0051,3.0484.0061,4.2108,1.1465,4.2174,4.1134.0126,5.7083.012,11.4166.0005,17.1249-.0062,3.0885-1.0914,4.1101-4.335,4.1122-7.1961.0047-14.3923.0015-21.5884.0016-.5822,0-1.1645,0-1.733,0v9.7098c3.9082.551,7.5796,1.5722,10.9326,3.5284,3.4136,1.9915,6.1296,4.6204,8.0821,8.4213,1.4244-1.4751,2.6576-2.8402,3.9967-4.0991.5963-.5606,1.3512-1.0991,2.1308-1.309,1.3897-.3742,2.5973.1191,3.3965,1.3443.839,1.2863.7047,2.5586-.2698,3.6874-.9126,1.0571-1.9412,2.0198-3.0448,3.1537h16.539v-73.693Zm-73.8684,73.6379c.0716-.1185.1432-.2369.2148-.3554-.9431-.8197-1.9428-1.5869-2.8149-2.4726-1.0752-1.0918-1.3946-2.3967-.6052-3.7888,1.0926-1.9266,3.4805-2.2204,5.2769-.558,1.4557,1.3472,2.7628,2.8459,4.2886,4.4366,4.3187-7.6817,11.1212-10.7734,19.0676-11.9655v-9.678c-.6457,0-1.1921,0-1.7385,0-7.2439,0-14.4878.005-21.7317-.0027-3.0482-.0032-4.1889-1.1191-4.2151-4.1053-.0154-1.7521-.0028-3.5044-.0028-5.3031h-34.8185c-.0704.1709-.1375.2587-.1386.3473-.0214,1.7699-.0098,3.5405-.0564,5.3096-.0686,2.6077-1.2568,3.7265-3.9564,3.7502-1.9631.0172-3.921.0034-5.9099.0034v24.3823h47.1401Zm28.7631,15.2196c3.184.0273,6.2455-.5493,9.1466-1.8291,3.0284-1.336,5.5714-3.2548,7.0709-6.2,2.211-4.3427.4057-9.5633-4.4917-12.4002-7.7595-4.4949-15.7558-4.6236-23.4157.0298-6.77,4.1128-7.3792,11.322-1.2929,16.2256,3.7592,3.0287,8.2012,4.1238,12.9829,4.174Zm24.408-45.9596v-12.5065h-48.7782v12.5065h48.7782Zm-11.468,80.7984v-12.4779h-25.9014v12.4779h25.9014Zm-13.1147-117.3326c3.3866-3.2832,6.8089-6.6009,10.1521-9.842-3.2589-3.1646-6.6507-6.4583-9.8105-9.5267-3.3861,3.2294-6.8374,6.5211-10.2258,9.7527,3.3339,3.2434,6.7263,6.5438,9.8841,9.616Zm-85.413,36.5275h12.9268v-12.4899h-12.9268v12.4899Z"/></g><g id="_3"><path class="cls-4" d="m119.901,272.0628c4.9115-.3781,9.7507-.7535,14.5337-.8971,4.743-.0158,9.5626-.2684,14.3198-.5442,18.9717-1.21,36.3776-6.4752,51.2026-14.1263,14.8628-7.6548,27.1795-17.6311,36.988-28.4149,9.7619-10.8263,17.3781-22.3321,22.402-34.0043,5.1475-11.5861,8.5748-23.0028,10.0274-33.8923,3.2705-21.7554.9616-40.8107-3.5726-56.375-4.5808-15.6309-11.3035-27.869-18.058-37.824-1.7854-2.4316-3.5077-4.7767-5.1733-7.0453-1.7463-2.2032-3.6429-4.1622-5.3667-6.1523-3.352-4.0831-7.1855-7.23-10.5687-10.478-14.1546-12.3213-27.5282-19.6815-43.5852-25.367-.0924.2671-.1386.4007-.1386.4007-.0462.1336-.0924.2667-.1386.4003-.0325.0936-.0649.1868-.0969.28-.0325.0936-.0649.1868-.0969.28-.0325.0936-.0649.1868-.0974.28,0,0-.032.0932-.0965.28,15.7703,5.6867,28.8776,13.0024,42.711,25.1873,3.3029,3.2131,7.0532,6.3179,10.3178,10.3494,1.6802,1.9644,3.5322,3.895,5.2328,6.0666,1.6211,2.2352,3.2971,4.5458,5.0347,6.9417,6.5668,9.8035,13.0852,21.8344,17.48,37.1595,4.3511,15.2556,6.4944,33.9152,3.1769,55.1417-1.4742,10.6245-4.8903,21.7412-9.9712,33.0065-4.9565,11.351-12.4507,22.5139-22.0112,32.9965-9.6071,10.4406-21.6422,20.071-36.1176,27.42-14.44,7.3465-31.3467,12.35-49.7392,13.416-4.5837.2388-9.2541.5774-14.1708.4548-10.6029-.2644-21.7325,5.622-14.4271,5.0597Z"/><path class="cls-4" d="m181.8741,13.0782c-1.6157-1.5133-3.6737-3.1698-6.1299-4.6702-1.2271-.7502-2.5523-1.4609-3.9616-2.0929-1.4309-.5343-2.9634-.9175-4.552-1.215-2.2032-.4003-4.3789-.5372-6.4411-.4881-1.9402-.0162-3.8035.3337-5.5186.8309-1.711.4631-3.2655,1.0099-4.624,1.5658-.273.1153-.5455.2305-.8185.3458-1.3981.6096-2.5527,1.2121-3.4294,1.7106-1.2637.7194-1.9527,1.2221-1.9527,1.2221,0,0,.1323.1169.3712.3283.2276.1893.5472.4556.94.7827.5239.4011,1.1696.8958,1.8982,1.4538.3857.2721.7935.5601,1.2183.8601.389.2571.7914.5239,1.2046.7972,1.1854.759,2.5144,1.5354,3.9579,2.2511,1.5383.7044,3.0916,1.416,4.6257,2.1183,1.7289.7327,3.5659,1.3203,5.5157,1.6698,1.406.2617,2.8128.3508,4.1855.404,1.3494.151,2.6813.1947,3.9795.1614,2.5943-.0666,5.0593-.4381,7.1976-.8846.4906-.1098.9687-.2172,1.4301-.3208.4976-.089.9753-.1743,1.4276-.2551.8829-.1743,4.929.935,7.2221,1.4397,1.8162.3999,2.5506.4282,2.8319.3528.3067-.0861.476-.1336.476-.1336,0,0-7.0702-3.3724-7.9544-4.5957-.6096-.823-1.4014-1.954-2.4666-3.0321-.211-.2022-.4219-.404-.6329-.6062Z"/><path class="cls-4" d="m213.0136,23.9723c.1648-1.1467.2201-2.4499.0566-3.8688-.3046-2.6201-1.3161-5.7342-4.0024-8.5145-1.4047-1.5258-3.1286-2.9488-5.0018-4.2475-3.4681-2.6114-7.8026-4.0061-11.4051-5.2544-.3766-.1194-.7469-.2368-1.1097-.3516-1.9327-.5596-3.6121-1.1276-5.0206-1.3024-2.011-.3141-3.2505-.4332-3.2505-.4332,0,0-.0287.1294-.0807.3645-.0333.218-.0807.5251-.1386.9033-.0566.481-.1024,1.0823-.1053,1.7742.0104.3512.0208.7232.032,1.1114.032.3474.0657.7074.0999,1.0777.2526,2.1291.999,4.4992,2.5107,7.1755.8126,1.3831,1.8687,2.7653,3.248,4.0835,1.2936,1.2366,2.7924,2.3393,4.4002,3.3217,1.6094.9782,3.1989,2.1258,4.8712,3.0075,1.7884.9911,3.593,1.8545,5.2839,2.591.5613.2368,1.1072.4664,1.634.6886.5721.2875,1.1201.5626,1.6382.823,1.0373.5097,3.833,3.5834,5.482,5.2274,1.3148,1.3082,1.9694,1.7692,2.3106,1.9107.3566.1752.5538.2721.5538.2721,0,0-.1631-.4136-.4702-.9595-.2871-.5613-.6753-1.3215-1.0831-2.1196-.7768-1.5945-1.5437-3.3445-1.3448-3.8663.2784-.7223.5771-1.6598.7847-2.7678.0354-.2155.0712-.4311.1069-.6466Z"/><path class="cls-4" d="m246.1786,52.4221c.4664-1.0997.8676-2.3871,1.091-3.8563.4302-2.8165.1989-6.3163-1.4696-10.3906-.9487-2.0742-2.3413-4.0515-3.8659-5.9996-1.4513-1.8287-3.0662-3.5846-4.7085-5.2099-1.718-1.537-3.5409-2.8556-5.2066-4.0586-.3483-.2438-.6903-.4831-1.0257-.7182-1.7792-1.2279-3.3911-2.2481-4.671-3.0233-.9042-.5863-1.723-.9229-2.2669-1.1829-.5484-.2463-.8542-.3836-.8542-.3836,0,0-.0612.1236-.1718.3483-.0878.2126-.2114.5126-.3641.8825-.1768.4756-.3724,1.0781-.5484,1.7871-.0774.3632-.1598.7477-.2459,1.1505-.0549.3657-.1115.7461-.1698,1.1372-.2563,2.2273-.3046,5.1887.5721,8.3422.4577,1.6802,1.1588,3.4365,2.1995,5.2307,2.0959,3.2676,4.5803,6.9379,7.513,9.8273.7469.7723,1.505,1.5137,2.259,2.2203.704.754,1.3885,1.4875,2.0463,2.192.4565.4635.9.9137,1.3269,1.3473.4935.4785.9657.9362,1.411,1.3681.8484.8942,2.983,4.7842,3.8726,7.2329.8105,1.8703,1.2745,2.5993,1.5487,2.8744.3017.2979.4681.4623.4681.4623,0,0-.2372-1.8104-.4976-3.8022-.2147-1.9752-.367-4.1197-.0662-4.5583.476-.6516,1.0315-1.5179,1.5408-2.5893.0945-.2101.1889-.4198.2834-.63Z"/><path class="cls-4" d="m270.1883,93.8823c.8276-.9861,1.661-2.1895,2.395-3.642.7215-1.4272,1.3465-3.0961,1.775-5.0322.409-1.9273.4099-4.0348.1918-6.4557-.253-2.5178-.8401-5.157-1.6315-7.7755-1.6864-4.8437-4.4197-9.4282-6.7769-13.2092-.2363-.3978-.5135-.7573-.7897-1.1051-1.4426-1.8529-2.777-3.4369-3.8472-4.6581-1.5441-1.7621-2.539-2.7733-2.539-2.7733,0,0-.0953.1103-.2696.3117-.1481.196-.3574.4727-.6158.8147-.3137.4461-.6849,1.0215-1.0714,1.7185-.1856.3603-.3832.7431-.5896,1.1438-.1656.3724-.3379.7594-.5151,1.1584-.9483,2.3039-1.7501,5.3139-1.7634,8.8752.0558,1.8454.0383,4.0407.4444,6.3192.7078,4.4064,2.623,8.7562,4.1305,13.0515.8505,2.1404,1.7805,4.1672,2.6942,6.003.3291.625.6233,1.2408.8509,1.8549.2892.682.5651,1.3327.8255,1.9461.5343,1.2216.885,6.1752,1.1929,8.9168.1785,2.2069.2405,3.1623.4227,3.538.1702.4186.2638.6487.2638.6487,0,0,.4623-1.9827.9695-4.1572.3774-2.0963.858-4.3494,1.3535-4.7272.6886-.5205,1.53-1.2408,2.4021-2.197.1656-.1893.3316-.3786.4972-.568Z"/><path class="cls-4" d="m278.4399,146.3066c1.2549-.7544,2.6131-1.7505,3.9766-3.067,2.648-2.4362,4.8579-5.9913,6.3042-11.0847.7319-2.7075,1.4022-5.6755,1.4825-8.6643.0008-5.6272-.3379-11.4999-1.5928-16.218-.1286-.4889-.2551-.9682-.3786-1.4376-.6691-2.4753-1.339-4.6278-1.8953-6.3021-.8056-2.4154-1.3735-3.8393-1.3735-3.8393,0,0-.129.0832-.3649.2359-.2126.1565-.5135.3778-.8859.652-.4631.3649-1.029.8467-1.6552,1.4517-.3104.3175-.6404.6545-.9866,1.0082-.2958.3366-.6042.687-.9221,1.0481-1.763,2.1108-3.6595,5.0139-5.0322,8.7662-.7365,1.9902-1.2283,4.1992-1.8591,6.7536-.5135,2.3813-.8001,4.857-.9183,7.3399-.0624,1.2416-.0695,2.4837-.0653,3.7194-.1007,1.2454-.1669,2.4816-.2043,3.6974-.0811,2.6239-.0291,5.1529.0915,7.4609.0433.7635.0849,1.5025.1248,2.2124-.0104.8031-.0208,1.5682-.0304,2.2885-.0033,1.4434-1.7567,6.645-2.6201,9.5555-.6687,2.3243-1.1018,3.3-1.0639,3.7506-.0166.4856-.0258.7515-.0258.7515,0,0,.3246-.4673.8255-1.1896.4714-.7219,1.2645-1.6823,1.8375-2.6954,1.2474-2.011,2.6576-4.1526,3.2913-4.3669.8788-.2925,1.9881-.7373,3.2255-1.416.2384-.1373.4768-.2742.7148-.4111Z"/><path class="cls-4" d="m264.733,201.5635c1.413-.2651,2.9975-.6982,4.7072-1.3868,1.8391-.7406,3.8235-1.7767,5.8902-3.2122,1.9107-1.5013,3.8538-3.4261,5.7845-5.8478,1.872-2.4832,3.935-5.2036,5.1749-8.2519,2.4649-5.7142,4.6819-11.7895,5.2906-17.096.0841-.5459.1664-1.0806.2472-1.6032.4082-2.7678.677-5.2061.8517-7.1152.1652-1.3748.1273-2.4866.1044-3.2509-.0245-.7614-.0383-1.1813-.0383-1.1813,0,0-.1569.0429-.4448.1211-.2617.0782-.6316.1997-1.0897.3749-.5771.2205-1.2949.5276-2.1121.9404-.4107.2218-.8476.4581-1.3061.7061-.4211.2447-.8592.4997-1.3128.7631-2.5964,1.5645-5.6626,3.8855-8.5931,7.24-1.6253,1.763-2.9014,3.8784-4.6157,6.2364-3.3179,4.6527-5.3846,10.2034-7.9632,15.1595-1.0848,2.3389-2.0301,4.6257-2.8407,6.7503-.285.781-.6949,1.4792-1.0044,2.1849-.3632.7935-.709,1.5487-1.034,2.2585-.7232,1.3852-4.4397,6.0417-6.9375,8.3859-1.9057,1.9198-2.5818,2.8049-2.7941,3.2364-.228.4731-.352.7307-.352.7307,0,0,2.0917-1.334,4.3744-2.7895,2.373-1.3735,4.6477-2.9996,5.3555-2.9821.9874.0329,2.2677-.0008,3.7773-.2234.2933-.0495.5871-.0986.8804-.1477Z"/><path class="cls-4" d="m228.8501,247.7243c1.4205.2929,2.9647.4099,4.7451.4182,2.2011-.0046,4.7043-.2559,7.488-.8983,2.7986-.6275,5.8823-1.6415,8.9177-3.4673,3.0125-1.7043,6.015-3.8126,8.8881-6.1157,2.5153-2.3393,4.8937-4.8733,7.0927-7.3915,1.0947-1.2628,2.1579-2.5132,3.1365-3.7598.873-1.3265,1.713-2.6035,2.5136-3.8201.3212-.513.6358-1.0148.9429-1.5054,1.6099-2.6051,2.9359-4.9344,3.9383-6.7719,1.3253-2.7179,1.9294-4.4439,1.9294-4.4439,0,0-.1748-.0096-.4951-.027-.2946-.0083-.7153-.01-1.247.0125-.6707.0283-1.5179.0953-2.5107.2334-.5043.0836-1.0415.1731-1.6061.2667-.5097.1086-1.0411.2218-1.5911.3391-3.2663.6649-7.3278,1.9078-11.7005,4.2004-2.2864,1.2354-4.6968,2.7404-7.4243,4.4409-2.7383,1.8-5.3285,3.8917-7.7942,6.0779-2.6734,2.0139-5.1874,4.1547-7.4905,6.2805-1.7879,1.773-3.6849,3.2913-5.3917,4.7426-.6803.5983-1.3373,1.1759-1.9664,1.7293-.7007.6408-1.3669,1.2499-1.9922,1.8221-1.1201,1.3157-7.4156,3.7311-10.8205,5.1529-2.7217,1.1314-3.7261,1.7979-4.178,2.0538-.4577.33-.7069.5093-.7069.5093.072.2804,10.7918-2.2531,12.3592-1.6473.9978.4369,2.3293.9312,3.9878,1.3444.3183.0728.6441.1477.9762.2243Z"/><path class="cls-4" d="m170.7587,276.4958c1.2807.8892,2.8124,1.7971,4.6278,2.6451,2.1853,1.0207,4.7834,1.9548,7.8404,2.6622,3.0549.7057,6.4415.7648,10.3578.6262,1.9107-.0924,3.8667-.2792,5.8407-.5442,1.9727-.2667,3.8568-.8617,5.7903-1.3818,3.61-1.0727,7.2579-2.2365,10.58-3.7149,3.2576-1.5978,6.3279-3.2684,9.0741-4.8616.5671-.3337,1.1218-.6599,1.6635-.9786,2.8802-1.6681,5.0655-3.6142,6.8842-4.9677,2.5681-2.0351,4.0373-3.3304,4.0373-3.3304,0,0-.171-.0803-.4856-.2284-.3017-.1207-.729-.2913-1.2612-.5039-.6882-.2513-1.5728-.5401-2.638-.8251-.5467-.1327-1.1297-.2742-1.7438-.4232-.5617-.1103-1.1484-.2251-1.7563-.3445-3.5193-.6537-7.8833-.801-13.4439-.7161-2.9022.1098-6.0321.4452-9.3737,1.1193-7.0786.89-14.0951,3.1565-20.7384,4.6182-2.7387.6387-5.2353,1.6394-7.6865,2.0771-.9549.2197-1.8762.4315-2.7587.635-.9949.2484-1.9398.4843-2.8265.7061-.878.2284-3.1348.3079-5.6418.3266-2.5136-.2359-5.3505-.5022-7.3802-.6928-3.1956-.2813-4.5034-.2442-5.0501-.1286-.5954.1311-.9191.2022-.9191.2022,0,0,2.8332.8338,5.9118,1.7405,3.0683.9441,6.4053,2.0222,6.9716,2.6551.7818.8983,1.8595,1.9773,3.2776,3.0167.2759.1993.5584.4032.8467.6117Z"/><path class="cls-4" d="m214.3214,43.6626c-1.3885.8314-3.0866,1.6115-5.0081,2.0659-.9608.2268-1.9773.3724-3.04.3994-1.1014.0828-2.2785.0911-3.4906-.0637-1.6827-.2085-3.3425-.6811-4.9394-1.3265-2.9322-1.3644-6.0504-2.6393-8.4712-4.2059-.2484-.1552-.4964-.3104-.7444-.4652-1.2961-.7818-2.3547-1.6848-3.2892-2.1782-1.3169-.7823-2.1004-1.3302-2.1004-1.3302,0,0,.0583-.1198.1639-.3366.1069-.1931.2571-.4648.4427-.8001.2467-.4169.5713-.9241.9799-1.48.2155-.2755.444-.5667.6824-.8713.2301-.2592.4689-.528.7144-.8039,1.4293-1.4958,3.5081-3.196,6.1523-3.8767,1.4143-.3932,3.0254-.5859,4.8441-.4743,2.5818.2397,5.5294.7669,8.0189,2.1782,2.5544,1.2995,4.9894,2.8773,7.0623,4.3744.4735.3537.9341.6974,1.3785,1.029.456.4319.8933.8451,1.3065,1.2358.8001.7777,4.5358,2.2793,6.6712,3.2929,1.6864.8006,2.3567,1.2649,2.5956,1.537.2393.3237.3716.5026.3716.5026,0,0-.3841-.1257-1.0315-.2268-.6358-.0865-1.4971-.2043-2.4004-.3275-1.7767-.1985-3.6208-.2763-4.0382.0928-.5813.5101-1.3506,1.118-2.2843,1.7193-.1822.1132-.3645.2264-.5467.3395Z"/><path class="cls-4" d="m240.6092,72.0167c-3.4411.6175-8.1138.6695-12.6396-1.7821-1.6228-.8105-3.2855-1.7447-4.7468-2.8856-1.3981-1.0627-2.6884-2.2527-3.863-3.4839-1.2358-1.1713-2.4778-2.264-3.5101-3.3782-.211-.2251-.4219-.4502-.6329-.6753-1.0835-1.1767-1.9931-2.2756-2.6929-3.1652-.4856-.6637-.9366-1.1301-1.2395-1.4617-.2958-.337-.4606-.5251-.4606-.5251,0,0,.0986-.0969.2779-.273.1727-.1527.4165-.3682.7169-.6341.3907-.3254.8913-.7136,1.4954-1.1226.3129-.1981.6445-.4078.9915-.6275.3229-.1781.6587-.3628,1.0036-.553,1.9881-1.0103,4.4821-1.7459,7.5346-1.6219,1.6094.0716,3.3633.3999,5.2394,1.0872,2.7986.9054,5.1891,2.8506,7.4913,4.912,2.2677,2.0934,4.4401,4.3236,5.8594,6.6774.3449.5309.6795,1.0469,1.0019,1.5437.3495.568.6836,1.111.999,1.6236.5601,1.0427,4.2183,3.65,5.8369,5.5756,1.3831,1.4513,1.8774,2.1753,2.0214,2.5336.1552.3949.2405.6121.2405.6121,0,0-1.5707-.9811-3.2526-1.8737-1.6943-.8913-3.4515-1.7155-4.0527-1.4788-.7702.2821-1.7688.5925-2.9384.8422-.2268.0449-.454.0895-.6807.1344Z"/><path class="cls-4" d="m257.2903,110.6325c-3.7323-.8151-7.9087-2.8444-12.1486-6.8622-1.4056-1.4155-2.6131-3.0196-3.6466-4.7127-2.152-3.1136-4.0257-6.4157-5.2319-9.4087-.1182-.3133-.2588-.6083-.4211-.8838-.7993-1.4875-1.4355-2.8398-1.9107-3.9221-.6849-1.5608-1.0357-2.5565-1.0357-2.5565,0,0,.1319-.0566.3724-.1602.2247-.0824.5418-.1989.9337-.3429.5014-.1669,1.1343-.3524,1.8774-.5172.3795-.0716.7823-.1477,1.2042-.2272.3824-.0474.7802-.0969,1.19-.1481,2.3413-.2176,5.2573-.0516,8.4433,1.1784,1.7542.6146,3.2501,1.7043,4.8928,3.1153,2.2644,2.0879,4.5375,4.7131,6.0699,7.6711,1.495,2.9751,2.7021,6.0916,3.6308,8.8711.2243.642.4219,1.2699.5243,1.899.134.704.2621,1.376.3832,2.0097.2209,1.2454,2.6509,5.3925,3.9404,7.9053.9895,1.9877,1.0752,2.9397,1.1222,3.3454.0046.4548.0071.7049.0071.7049,0,0-1.1322-1.6569-2.5236-3.2459-1.4938-1.5753-3.1278-3.0949-3.7498-3.1307-.863-.0528-1.9615-.1748-3.2043-.4261-.2401-.052-.4798-.104-.7194-.156Z"/><path class="cls-4" d="m259.139,156.8674c-1.5641-1.237-3.2592-2.8494-4.7788-4.8587-1.6377-2.0255-3.3108-4.4659-4.4651-7.3677-.8917-2.0122-1.1825-4.1185-1.8799-6.2331-.5638-1.9968-.9487-3.9999-1.2013-5.9372-.2255-1.9398-.3474-3.8118-.6753-5.4957-.0466-.3508-.0928-.6953-.1377-1.0319-.2218-1.783-.3333-3.3641-.3886-4.6153-.0221-.9029-.0399-1.6319-.052-2.1362.0125-.5072-.0204-.7768-.0204-.7768,0,0,.1527-.0004.4323-.0012.2538.0137.6125.0329,1.0565.0566.5513.0491,1.2383.1361,2.0247.2913.3965.0915.818.1885,1.2599.2904.3907.1169.7976.238,1.2175.3632,2.368.7881,5.1566,2.2045,7.8167,4.7905,1.3619,1.3731,2.9072,3.0508,3.8364,5.1729,1.4767,3.0495,2.4803,6.6258,3.1506,10.2234.3603,3.5984.2879,7.2125.1323,10.3732-.0474.7319-.0932,1.4409-.1373,2.1217-.0241.7731-.2147,1.4913-.3416,2.1703-.2738,1.3311.4344,6.5547.6866,9.6471.2626,2.4512-.0416,3.4465-.1639,3.8692-.176.456-.2721.7057-.2721.7057,0,0-.1194-.5384-.3046-1.371-.1656-.818-.4614-1.9211-.9042-3.0524-.8135-2.254-1.7842-4.5104-2.3646-4.8304-.8043-.4481-1.8075-1.0714-2.8985-1.8857-.2089-.1606-.4182-.3212-.6275-.4818Z"/><path class="cls-4" d="m241.8263,202.8817c-1.9278-3.9762-3.4265-9.4553-3.5201-16.3749-.0279-2.3938.5305-4.6299.6799-7.0295.4589-4.4472,1.9069-8.5082,2.5652-12.1108.0936-.3649.1852-.7219.2746-1.0714.4897-1.8429,1.0078-3.439,1.4492-4.6873.5026-1.8233.8097-2.9384.8097-2.9384,0,0,.1465.0653.4148.1856.2409.1236.5809.2983,1.0032.5151.5272.2917,1.1771.6803,1.9053,1.1825.3624.2667.7485.5505,1.1538.8484.3495.29.714.5921,1.0906.9042,1.9544,1.8121,4.0357,4.4326,5.5448,8.175.7461,1.9635,1.5458,4.3086,1.6744,6.8688.1602,3.687-.2804,7.7222-1.153,11.5902-1.1742,3.7419-2.6663,7.3565-4.1056,10.4564-.3017.7369-.7619,1.3585-1.1322,1.9931-.4465.7024-.8717,1.371-1.2716,1.9997-.8734,1.1709-2.1262,6.965-3.5156,10.0012-1.0323,2.435-1.614,3.4103-1.9319,3.764-.3528.3874-.5455.5988-.5455.5988,0,0,.5072-2.4558.873-4.9919.4469-2.4928.4182-5.2735.0183-5.8627-.5563-.8247-1.225-1.9174-1.899-3.2414-.1273-.2584-.2546-.5164-.3824-.7748Z"/><path class="cls-4" d="m206.6961,238.5994c.0441-2.3659.2455-5.2423.8879-8.2615.59-3.0886,1.82-6.0754,3.2077-9.6608,1.0307-2.4,2.3039-4.6432,3.7219-6.7111,1.1476-2.1437,2.4154-4.1355,3.7286-5.9501.6782-.8938,1.3377-1.7626,1.9739-2.601.5675-.8975,1.1363-1.7455,1.6947-2.5402.2343-.327.4635-.647.6878-.9595,1.1996-1.6423,2.3264-3.0217,3.2426-4.0844,1.1884-1.6149,1.9103-2.5956,1.9103-2.5956,0,0,.1115.1269.3162.3608.1768.2251.4269.5434.7377.9391.3795.5147.8351,1.1788,1.3178,1.991.2338.4207.4827.8684.744,1.3398.2118.4386.4327.8967.6612,1.3706,1.0848,2.6451,1.966,6.1765,1.8358,10.6058-.0466,2.3613-.3945,4.9602-1.423,7.555-2.6106,7.8046-8.9185,15.199-14.7009,19.7677-.6778.5255-1.3327,1.0332-1.9602,1.5196-.7223.5363-1.4085,1.0461-2.0534,1.525-1.1617,1.0864-5.4017,5.7358-8.048,8.3551-2.0817,2.0646-3.0416,2.8789-3.5339,3.0433-.5289.2055-.8168.3175-.8168.3175.2031.1693,6.2522-9.0808,6.0159-10.468-.1119-1.0402-.196-2.3855-.1731-3.9487.0083-.2963.0166-.5996.0254-.9092Z"/><path class="cls-4" d="m154.9609,257.2387c2.5157-4.5849,6.7382-9.6978,12.8818-14.9901,1.0798-.8651,2.1949-1.664,3.3337-2.3992,1.1205-.7952,2.2132-1.6897,3.3437-2.4375,2.1054-1.4913,4.3199-2.6006,6.3604-3.8351,2.0014-1.3253,3.9599-2.4524,5.7787-3.3991.3786-.1922.749-.3807,1.1105-.5646,1.9307-.9404,3.4527-2.0692,4.7713-2.7221,1.8595-1.0219,3.0329-1.5504,3.0329-1.5504,0,0,.0437.1685.1236.4793.0578.2896.139.6995.2405,1.2096.1086.6516.216,1.4771.2767,2.4533.0154.4981.032,1.029.0495,1.5882-.0141.5051-.0287,1.0332-.0441,1.5799-.2101,3.0574-.8388,7.2516-3.2168,11.1941-1.22,2.1562-2.8344,4.4193-4.9403,6.7199-3.1506,3.0537-7.126,5.6509-11.2095,7.8683-4.2192,1.7771-8.4953,3.4382-12.3554,4.334-.9062.1631-1.7809.3212-2.6185.4718-.9541.1527-1.8599.2975-2.71.4336-.8455.1261-2.829.9191-5.0992,1.8787-2.2777.8576-4.877,1.6115-6.7898,2.2198-3.0412.915-4.3715,1.1426-4.9203,1.1384-.6058-.0087-.9345-.0137-.9345-.0137,0,0,2.7404-1.3565,5.4508-2.891,2.7229-1.5358,5.3967-3.2409,5.7104-3.9683.4456-.9757,1.0556-2.3988,1.8836-3.9108.1598-.2892.3233-.585.4902-.8871Z"/></g></svg>