<?xml version="1.0" encoding="UTF-8"?><svg id="Layer_1" xmlns="http://www.w3.org/2000/svg" viewBox="0 0 288.9782 288.9782"><defs><style>.cls-1{fill:#4a9cd5;}.cls-2{fill:#4f9dd6;fill-rule:evenodd;}</style></defs><path class="cls-2" d="m249.1719,199.5816c-6.0464,3.2743-17.6148,7.4365-28.6025,9.7828-20.1753,4.3082-46.8762,6.6808-75.1843,6.6808s-55.0095-2.3726-75.1848-6.6808c-10.9876-2.3463-19.4294-5.1119-25.4757-8.3863-2.0386,1.7333-3.1266,3.5473-3.1266,5.4157v30.8095c0,12.2404,46.467,22.163,103.7869,22.163s103.7869-9.9226,103.7869-22.163v-37.6218Zm-121.4492,36.4013c3.0226,0,5.473,2.4503,5.473,5.473s-2.4504,5.473-5.473,5.473-5.473-2.4504-5.473-5.473,2.4503-5.473,5.473-5.473Zm-30.7643-2.6063c3.0228,0,5.473,2.4504,5.473,5.4732s-2.4503,5.473-5.473,5.473-5.4729-2.4504-5.4729-5.473,2.4503-5.4732,5.4729-5.4732Zm-28.147-8.3399c3.0226,0,5.473,2.4504,5.473,5.473s-2.4504,5.4732-5.473,5.4732-5.473-2.4504-5.473-5.4732,2.4503-5.473,5.473-5.473Z"/><path class="cls-1" d="m44.4284,176.2527V53.2713c3.37-9.0114,9.1359-14.7034,19.4362-14.6938,54.3459.0509,108.6918-.0057,163.0377.0513,9.738.0102,15.3628,4.2923,18.6846,13.6155.1366.3833.4979.6865.7546,1.0271v122.0837c-4.4807,11.587-9.2525,15.5319-19.5965,15.5423-54.2786.055-108.5574.0543-162.836-.0011-9.7572-.01-15.4039-4.2931-18.7255-13.6145-.1368-.384-.4982-.6879-.755-1.0291Zm9.3439-92.8062c-.176.6811-.316.9701-.3162,1.2592-.021,29.4671-.135,58.9352.1473,88.3995.0235,2.4486,2.2048,5.6369,4.3329,7.0965,2.2451,1.5398,5.6276,1.94,8.515,1.9457,53.3832.1057,106.7666.0866,160.15.0684,8.1832-.0028,10.7538-2.6097,10.7558-10.7176.0069-27.822.0027-55.6439.0027-83.4659,0-1.4498,0-2.8996,0-4.5858H53.7723Zm183.5873-9.241c0-5.2724.0097-10.0477-.0021-14.8229-.0221-8.9098-3.2004-12.0819-12.1299-12.0825-52.4494-.0038-104.8989-.0037-157.3483.0068-1.6391.0003-3.3039-.0315-4.9125.2269-4.9492.795-9.2404,4.8418-9.4636,9.4182-.2752,5.644-.0658,11.3116-.0658,17.2535h183.9221Z"/><path class="cls-1" d="m110.0382,54.9267c4.3273.058,7.6354,3.4466,7.5493,7.7331-.0853,4.242-3.6173,7.6571-7.8268,7.5678-4.2014-.0892-7.6641-3.6684-7.5936-7.8491.0713-4.2265,3.5393-7.5098,7.8712-7.4517Z"/><path class="cls-1" d="m67.8074,70.2341c-4.2638-.0517-7.5688-3.4647-7.5378-7.7843.0319-4.4484,3.1872-7.5458,7.6689-7.5281,4.3019.017,7.6797,3.4123,7.6281,7.6675-.0513,4.2293-3.5696,7.6958-7.7592,7.645Z"/><path class="cls-1" d="m96.5475,62.7327c-.0967,4.1789-3.7061,7.6133-7.8798,7.4978-4.1719-.1154-7.5654-3.7248-7.4607-7.9354.1071-4.307,3.4941-7.4675,7.901-7.3726,4.3857.0944,7.5414,3.4074,7.4395,7.8101Z"/><path class="cls-1" d="m286.0889,231.716h-11.5597c-1.5978,0-2.8892,1.2921-2.8892,2.8899v25.4744c0,6.265-5.2961,11.559-11.5597,11.559h-25.9535c-1.5965,0-2.8892,1.2948-2.8892,2.8899v11.559c0,1.5952,1.2928,2.8899,2.8892,2.8899h25.9535c15.8935,0,28.8978-13.0043,28.8978-28.8978v-25.4744c0-1.5978-1.2928-2.8899-2.8892-2.8899Z"/><path class="cls-1" d="m55.3122,0h-26.4144C13.0043,0,0,13.0039,0,28.8978v26.8908c0,1.5975,1.2914,2.8899,2.8899,2.8899h11.559c1.5938,0,2.8899-1.2924,2.8899-2.8899v-26.8908c0-6.265,5.2913-11.559,11.559-11.559h26.4144c1.5965,0,2.8899-1.2958,2.8899-2.8899V2.8899c0-1.5952-1.2935-2.8899-2.8899-2.8899Z"/><path class="cls-1" d="m260.0803,0h-25.9535c-1.5965,0-2.8892,1.2948-2.8892,2.8899v11.559c0,1.5941,1.2928,2.8899,2.8892,2.8899h25.9535c6.2636,0,11.5597,5.294,11.5597,11.559v26.8908c0,1.5975,1.2914,2.8899,2.8892,2.8899h11.5597c1.5965,0,2.8892-1.2924,2.8892-2.8899v-26.8908c0-15.8939-13.0043-28.8978-28.8978-28.8978Z"/><path class="cls-1" d="m55.3122,271.6393h-26.4144c-6.2677,0-11.559-5.294-11.559-11.559v-25.4744c0-1.5978-1.2961-2.8899-2.8899-2.8899H2.8899c-1.5985,0-2.8899,1.2921-2.8899,2.8899v25.4744c0,15.8935,13.0043,28.8978,28.8978,28.8978h26.4144c1.5965,0,2.8899-1.2948,2.8899-2.8899v-11.559c0-1.5952-1.2935-2.8899-2.8899-2.8899Z"/><path class="cls-1" d="m80.2078,132.8389c3.4124-3.97,7.1882-7.4431,11.1577-10.71,7.8413-6.4533,16.3201-11.8751,25.7148-15.8029,8.7899-3.6749,17.9041-5.7731,27.4758-5.5738,7.5406.157,14.786,1.8228,21.8263,4.4434,9.2116,3.4289,17.5636,8.3856,25.3413,14.3519,5.0385,3.865,9.7826,8.0508,13.9893,12.8231.1236.1403.2458.2818.4279.4906-.9545,1.0387-1.8724,2.1038-2.859,3.1008-7.1976,7.2738-15.2297,13.4673-24.1267,18.5273-7.2226,4.1077-14.8308,7.2446-22.9689,9.0299-10.6872,2.3445-21.2311,1.7333-31.6643-1.4727-10.3805-3.1897-19.7396-8.3352-28.4214-14.7783-5.5732-4.1361-10.8091-8.6546-15.4115-13.8729-.1534-.174-.3036-.3509-.4812-.5565Zm85.9102-.0081c.0757-12.3051-9.9799-22.7323-22.4821-22.9408-13.0708-.218-23.3836,10.2575-23.4334,22.932-.0483,12.2824,9.9376,22.7465,22.4567,22.9757,13.0616.2392,23.4696-10.2198,23.4588-22.9668Zm-.9858-20.5444c10.9423,11.7601,10.4959,30.1698.1244,40.98,6.5029-1.4925,28.1428-15.7799,31.0346-20.5065-9.137-8.5988-19.2761-15.6727-31.1589-20.4736Zm-44.1096,40.9947c-10.8114-11.738-10.2816-30.0555.0643-40.8703-6.1612,1.2845-27.9245,15.6513-31.0509,20.5147,9.1367,8.6011,19.2782,15.672,30.9866,20.3556Z"/><path class="cls-1" d="m156.3423,132.5007c.3658,5.6055-3.8451,11.2474-9.5299,12.8587-6.0418,1.7125-12.4327-1.0391-15.3334-6.6018-2.8744-5.5123-1.518-12.2888,3.275-16.258,5.0376-4.1717,11.7209-3.7347,16.0118-.5972-2.3986.7905-3.9738,2.3253-4.4925,4.7972-.3457,1.6476-.0054,3.1753.912,4.5833,1.6238,2.4923,5.531,3.9824,9.157,1.2177Z"/></svg>