<?xml version="1.0" encoding="UTF-8"?><svg id="Layer_1" xmlns="http://www.w3.org/2000/svg" viewBox="0 0 287.3185 263.1058"><defs><style>.cls-1{fill:none;stroke:#fff;stroke-width:8px;}.cls-2{fill:#fff;}.cls-3{fill:#4a9cd5;}.cls-4{fill:#4f9dd6;}</style></defs><g><path class="cls-3" d="m251.2599,184.6483c-1.7789-.4055-3.5808-.7304-5.3329-1.2298-10.3315-2.9444-17.735-9.3554-21.7268-19.3012-4.4001-10.9632-3.1965-21.585,3.6439-31.2096,6.7917-9.556,16.309-14.1935,28.0834-13.7551,11.0038.4097,19.6141,5.4424,25.8216,14.3951,4.6488,6.7046,6.2873,14.2999,5.2879,22.4026-1.0275,8.3301-4.8249,15.2448-11.1206,20.7382-4.4811,3.91-9.7224,6.3493-15.5926,7.407-.7709.1389-1.5258.3664-2.2882.5528h-6.7758Zm.1621-27.181c-.7424-.5814-1.3693-1.0677-1.9913-1.5602-2.321-1.8378-4.5858-3.7525-6.9757-5.4959-2.4534-1.7897-5.3587-1.365-7.0127.8459-1.8079,2.4166-1.4235,5.2288,1.0364,7.2168,3.8362,3.1001,7.7013,6.1644,11.543,9.2577,3.1085,2.5029,5.8988,2.2789,8.4938-.6541,6.2876-7.1062,12.6189-14.174,18.8614-21.3194.8284-.9482,1.5286-2.197,1.7871-3.4131.4723-2.2218-.847-4.2979-2.9355-5.252-2.0742-.9476-4.3476-.3668-6.0928,1.5916-3.6582,4.105-7.3023,8.2225-10.9559,12.3317-1.8966,2.1331-3.8011,4.2591-5.758,6.451Z"/><path class="cls-3" d="m202.1357,7.9141c1.2655.68,2.6484,1.2076,3.7714,2.0726,2.133,1.643,2.9889,4.0111,3.2355,6.6426.2463,2.6288,1.417,3.7367,4.067,3.8734,1.4075.0726,2.8267-.013,4.227.1182,3.921.3676,6.808,3.619,6.7673,7.5267-.0413,3.9581-2.9233,7.156-6.8335,7.4555-1.7773.1361-3.5699.0916-5.3556.093-9.2167.0075-18.4333.0137-27.65-.0018-3.8593-.0065-6.7579-2.0474-7.7306-5.3717-1.3626-4.6571,1.6616-9.2188,6.4899-9.7103,1.3045-.1328,2.6296-.0535,3.9444-.0967,2.848-.0936,3.9933-1.2467,4.4321-4.0675.227-1.459.5949-2.9636,1.2495-4.2724.9578-1.915,2.678-3.1012,4.7187-3.7886.346-.1166.6651-.3132.9966-.4729,1.2234,0,2.4468,0,3.6702,0Zm-1.9097,12.539c2.0509.024,3.8239-1.6827,3.84-3.6962.0151-1.8863-1.7901-3.7365-3.6838-3.7755-2.0714-.0427-3.7914,1.5993-3.8595,3.6844-.0676,2.0703,1.5871,3.7625,3.7033,3.7873Z"/><path class="cls-3" d="m213.9003,154.4045c.9737,4.2831,1.8865,8.2983,2.8318,12.4564-.345.0169-.8345.0617-1.3239.0618-20.2801.0035-40.5602-.0212-60.8401.0219-4.4349.0094-7.9895-1.524-9.9312-5.5948-.7945-1.6656-1.1106-3.707-1.1162-5.579-.0717-23.8088-.0474-47.618-.0472-71.4271,0-15.857.0165-31.7141-.0109-47.571-.0065-3.7731,1.0138-7.1136,4.0341-9.5016,1.0412-.8232,2.5011-1.5291,3.7875-1.5605,6.3954-.1559,12.7968-.0699,19.196-.0636.2273.0002.4546.0583.784.1033.0238.3856.098.7495.0604,1.1013-.7776,7.2797,4.8186,13.8585,12.5894,13.8702,10.9164.0164,21.834.1081,32.7487-.0258,7.6765-.0942,12.9475-5.9783,12.5569-13.6304-.021-.4111-.0027-.8241-.0027-1.2964.296-.0499.5185-.1211.7405-.1199,5.5043.0294,11.0162-.0985,16.5101.1576,3.9622.1847,7.5119,1.7022,9.3938,5.4875.7658,1.5404,1.1893,3.4183,1.1945,5.1444.0748,24.5617.0514,49.1237.0472,73.6856,0,.4128-.0573.8256-.0745,1.0581-4.2089.4162-8.2967.8204-12.4995,1.236v-59.0035c-.6103-.0343-1.1039-.0862-1.5976-.0862-28.4204-.0033-56.8408.0046-85.2611-.0256-1.2019-.0013-1.6134.2669-1.612,1.5532.0351,32.7021.0363,65.4043-.0047,98.1064-.0018,1.4129.6337,1.4573,1.7033,1.4561,18.1626-.0203,36.3253-.0146,54.4879-.0145.6038,0,1.2076,0,1.6555,0Z"/><path class="cls-3" d="m211.5629,96.2808c-6.4418,0-12.8836.0042-19.3254-.0021-2.435-.0024-3.3168-.8832-3.3416-3.2998-.0053-.5171-.0243-1.0362.0094-1.5513.113-1.7241,1.0494-2.6631,2.7936-2.7116,1.7385-.0483,3.4792-.0168,5.2189-.0168,11.2379-.0004,22.4758.0039,33.7137-.0051,1.3032-.001,2.7421-.0404,3.2911,1.3475.6636,1.6779.8413,3.5821-.1999,5.142-.4312.646-1.6731,1.0398-2.5529,1.0513-6.5347.0858-13.0711.0465-19.607.0459Z"/><path class="cls-3" d="m211.5931,66.0371c6.3989,0,12.7978.0025,19.1968-.0021,1.2468-.0009,2.6726-.0569,3.1548,1.307.6128,1.7335.8779,3.6969-.3091,5.2627-.4701.6202-1.7487.8647-2.663.8733-7.2452.0679-14.4913.0375-21.7372.0376-5.5991,0-11.1981.0001-16.7972.0012-1.2954.0002-2.7217.0331-3.2157-1.4448-.5552-1.661-.7898-3.5192.2807-5.0099.4577-.6374,1.7129-.9693,2.6114-.9804,6.492-.0804,12.9855-.0431,19.4785-.0445Z"/><path class="cls-3" d="m205.3827,116.4644c-4.3725,0-8.7449.0099-13.1174-.0038-2.5505-.008-3.3549-.8403-3.3677-3.4126-.0021-.4231-.0133-.847.0064-1.2693.0856-1.8362.9579-2.8025,2.7934-2.8566,2.5837-.0761,5.1709-.0391,7.7566-.0406,6.1591-.0035,12.3182.0064,18.4772-.007,1.3621-.003,3.0072.0166,3.374,1.4292.4009,1.5441.3037,3.3439-.0616,4.9198-.2804,1.2095-1.7219,1.2472-2.8846,1.2462-4.3255-.004-8.6509-.0016-12.9764-.0053Z"/><path class="cls-3" d="m202.713,139.1908c-3.5271,0-7.0544.0211-10.5813-.0074-2.3693-.0191-3.2061-.8945-3.2307-3.265-.0063-.6109-.0391-1.2285.0328-1.832.1642-1.3786.9154-2.2533,2.345-2.3784.8406-.0736,1.6905-.0553,2.5362-.0558,6.3959-.0039,12.7918.0024,19.1877-.006,1.3522-.0018,2.8228-.0078,3.3505,1.478.568,1.5994.7962,3.4323-.2523,4.8764-.4964.6836-1.7424,1.1109-2.6672,1.1444-3.5695.129-7.1465.0524-10.7206.0524v-.0065Z"/><path class="cls-3" d="m172.762,113.8686c1.8472-2.0741,3.6127-4.0638,5.3871-6.0457.8433-.9419,1.6453-1.9316,2.5711-2.7858,1.09-1.0057,2.315-.9336,3.2619.0356.8235.8429.8532,2.183-.0417,3.201-2.9714,3.3804-5.9539,6.7517-8.9803,10.0827-1.2178,1.3403-2.209,1.3735-3.6879.247-1.7169-1.3077-3.4146-2.6421-5.0862-4.007-1.3963-1.1401-1.6252-2.5572-.6702-3.6754.9007-1.0546,2.2662-1.0131,3.6243.0837,1.16.9369,2.3387,1.8506,3.6221,2.8639Z"/><path class="cls-3" d="m173.0967,141.2273c-.6763-.3406-1.2205-.5196-1.6506-.848-1.789-1.3659-3.561-2.7554-5.3053-4.178-1.3666-1.1146-1.5643-2.5421-.5845-3.6798.8755-1.0166,2.2848-.9377,3.6184.1659.9383.7765,1.926,1.4936,2.8581,2.2772.5676.4771.9453.3646,1.4067-.1663,2.03-2.3359,4.0904-4.6454,6.1455-6.9593.342-.3851.6914-.7684,1.074-1.1117,1.1222-1.0067,2.2572-1.0219,3.2421-.0716.9039.8722.9418,2.1961.024,3.303-.8971,1.082-1.8483,2.1194-2.7856,3.1676-2.0009,2.2375-3.9797,4.496-6.0322,6.6853-.5451.5815-1.3246.9433-2.0107,1.4156Z"/><path class="cls-3" d="m167.0881,65.9016c.9796.5962,1.7112.9842,2.3793,1.4613,1.0671.7621,2.1043,2.2126,3.1311,2.1926.9233-.018,1.8492-1.5919,2.7145-2.5341,1.6514-1.7981,3.2462-3.6482,4.8917-5.4518,1.2431-1.3625,2.6316-1.5435,3.6788-.5372,1.0116.9721.9469,2.3062-.2247,3.6324-2.8308,3.2044-5.6704,6.401-8.5216,9.5872-1.2256,1.3695-2.3781,1.5362-3.833.4434-1.839-1.3814-3.6254-2.8354-5.3945-4.3062-.8605-.7154-1.3498-1.7166-.7288-2.7478.4077-.677,1.2036-1.1202,1.9072-1.7399Z"/><path class="cls-3" d="m172.7829,92.3883c2.3693-2.67,4.6071-5.1945,6.8492-7.7153.3107-.3493.617-.7091.9685-1.0144,1.1388-.9893,2.4521-.9929,3.3893-.0377.8452.8614.7996,2.2484-.1419,3.307-2.8983,3.2583-5.7985,6.515-8.7153,9.7567-1.3714,1.5242-2.4157,1.6003-4.008.3498-1.658-1.3021-3.311-2.6106-4.9636-3.9196-1.3152-1.0417-1.5866-2.409-.7128-3.5597.8715-1.1477,2.1607-1.1857,3.5717-.0955,1.2164.9398,2.4263,1.8879,3.763,2.9288Z"/></g><g><path class="cls-4" d="m145.7577,0H15.0644C9.2027,0,4.4339,4.7688,4.4339,10.6306v161.3342c0,5.8617,4.7688,10.6306,10.6306,10.6306h130.6932c5.8617,0,10.6306-4.7688,10.6306-10.6306V10.6306c0-5.8617-4.7688-10.6306-10.6306-10.6306h0Z"/><path class="cls-2" d="m145.7577,6.8786c2.0722,0,3.752,1.6798,3.752,3.752v161.3342c0,2.0722-1.6798,3.752-3.752,3.752H15.0644c-2.0722,0-3.752-1.6798-3.752-3.752V10.6306c0-2.0722,1.6798-3.752,3.752-3.752h130.6932"/><g><path class="cls-4" d="m77.5996,80.5586H23.9168c-1.016,0-1.8396-.8238-1.8396-1.8396V25.0362c0-1.016.8236-1.8396,1.8396-1.8396s1.8396.8236,1.8396,1.8396v51.8431h51.8432c1.0158,0,1.8396.8236,1.8396,1.8396s-.8238,1.8396-1.8396,1.8396Z"/><path class="cls-4" d="m73.2613,64.1508c-.0051,1.5735.0822,3.1562-.0697,4.7155-.0509.5228-.6222,1.2891-1.1069,1.4326-13.175,3.8998-26.3542,3.8222-39.5306-.0587-.9543-.2811-1.2113-.7502-1.1929-1.6718.0555-2.7831.095-5.5688.0358-8.3513-.1093-5.1363,4.192-8.6353,9.0457-8.6017,2.585.0179,5.2066.8415,7.7345,1.5696,3.5371,1.0188,6.8488.6283,10.2557-.6341,4.9166-1.8219,10.8727-1.2831,13.7005,3.5197.6407,1.0882.9382,2.4533,1.1009,3.7283.1822,1.4285.0318,2.8995.0272,4.352Z"/><path class="cls-4" d="m41.362,40.4027c.0436-6.658,4.4637-11.8769,10.1306-12.3047,6.9321-.5234,12.7457,5.7515,11.9516,13.0069-.538,4.9157-2.7386,8.732-7.6499,10.472-6.4968,2.3018-13.4868-2.451-14.336-9.7121-.07-.5987-.08-1.2044-.0962-1.4622Z"/></g><g><path class="cls-4" d="m109.3821,137.6257l-12.8295,26.7957c-9.9811-4.7875-16.8735-14.9862-16.8735-26.7957h29.703Z"/><path class="cls-4" d="m113.7594,106.672c16.4046,0,29.7031,13.2985,29.7031,29.7031s-13.2985,29.703-29.7031,29.703c-4.595,0-8.9458-1.0445-12.8294-2.9073l12.8294-26.7957v-29.7031Z"/><path class="cls-4" d="m80.9298,133.2484h29.703v-29.703c-16.4046,0-29.703,13.2985-29.703,29.703Zm27.827-1.876h-25.8885c.9264-13.8527,12.0358-24.9621,25.8885-25.8885v25.8885Z"/></g><g><path class="cls-4" d="m137.0031,29.3904h-43.3813c-2.4175,0-4.3773-1.9598-4.3773-4.3773h0c0-2.4175,1.9598-4.3773,4.3773-4.3773h43.3813c2.4175,0,4.3773,1.9597,4.3773,4.3773h0c0,2.4175-1.9598,4.3773-4.3773,4.3773Z"/><path class="cls-4" d="m137.0031,56.2549h-43.3813c-2.4175,0-4.3773-1.9598-4.3773-4.3773h0c0-2.4175,1.9598-4.3773,4.3773-4.3773h43.3813c2.4175,0,4.3773,1.9597,4.3773,4.3773h0c0,2.4175-1.9598,4.3773-4.3773,4.3773Z"/><rect class="cls-4" x="89.2446" y="74.3648" width="52.1358" height="8.7546" rx=".5567" ry=".5567"/></g><g><path class="cls-4" d="m68.8789,112.3245H25.4977c-2.4175,0-4.3773-1.9598-4.3773-4.3773h0c0-2.4175,1.9598-4.3773,4.3773-4.3773h43.3813c2.4175,0,4.3773,1.9597,4.3773,4.3773h0c0,2.4175-1.9597,4.3773-4.3773,4.3773Z"/><path class="cls-4" d="m68.8789,139.1891H25.4977c-2.4175,0-4.3773-1.9598-4.3773-4.3773h0c0-2.4175,1.9598-4.3773,4.3773-4.3773h43.3813c2.4175,0,4.3773,1.9597,4.3773,4.3773h0c0,2.4175-1.9597,4.3773-4.3773,4.3773Z"/><path class="cls-4" d="m68.8789,166.0536H25.4977c-2.4175,0-4.3773-1.9598-4.3773-4.3773h0c0-2.4175,1.9598-4.3773,4.3773-4.3773h43.3813c2.4175,0,4.3773,1.9597,4.3773,4.3773h0c0,2.4175-1.9597,4.3773-4.3773,4.3773Z"/></g></g><path class="cls-3" d="m17.2921,253.0923c0,5.5-3.8907,10-8.6461,10s-8.6461-4.5-8.6461-10v-23.1195c0-5.5,3.8907-10,8.6461-10s8.6461,4.5,8.6461,10v23.1195Z"/><path class="cls-3" d="m273.08,253.0923c0,5.5-3.8907,10-8.6461,10s-8.6461-4.5-8.6461-10v-23.1195c0-5.5,3.8907-10,8.6461-10s8.6461,4.5,8.6461,10v23.1195Z"/><path class="cls-3" d="m10,263.1058C4.5,263.1058,0,259.2151,0,254.4598s4.5-8.6461,10-8.6461h253.08c5.5,0,10,3.8907,10,8.6461s-4.5,8.6461-10,8.6461H10Z"/><g><path class="cls-1" d="m127.556,204.6009v-1.1457c.0002-18.9818.0064-29.4497-.0042-48.4315-.0023-4.034,1.6857-7.0468,5.3693-8.7459,5.6697-2.6154,12.2767,1.446,12.6093,7.6816.0277.5188.0209,1.0397.0209,1.5597.001,18.7868.0008,29.0597.0009,47.8464,0,.414,0,.828,0,1.5321.4203-.4176.6668-.6404.8883-.8858,3.4179-3.7883,6.8254-7.586,10.2503-11.368,2.8733-3.173,7.0276-4.0531,10.7232-2.2992,3.5902,1.7039,5.6097,5.4979,5.0307,9.4796-.2752,1.8928-1.1433,3.496-2.4159,4.9087-8.4614,9.3929-16.9158,18.7922-25.3724,28.1894-.4565.5073-.9072,1.0199-1.3691,1.5222-3.6879,4.0101-9.7372,4.0906-13.3929.056-9.0338-9.9704-18.0316-19.9737-26.9985-30.0043-3.447-3.8559-3.0526-9.4721.7694-12.8281,3.7391-3.2832,9.2557-2.8726,12.7569.9801,3.4316,3.776,6.836,7.5768,10.2506,11.3682.213.2366.4113.4864.6165.7301.089-.0486.1779-.0971.2669-.1457Z"/><path class="cls-3" d="m127.556,204.6009v-1.1457c.0002-18.9818.0064-29.4497-.0042-48.4315-.0023-4.034,1.6857-7.0468,5.3693-8.7459,5.6697-2.6154,12.2767,1.446,12.6093,7.6816.0277.5188.0209,1.0397.0209,1.5597.001,18.7868.0008,29.0597.0009,47.8464,0,.414,0,.828,0,1.5321.4203-.4176.6668-.6404.8883-.8858,3.4179-3.7883,6.8254-7.586,10.2503-11.368,2.8733-3.173,7.0276-4.0531,10.7232-2.2992,3.5902,1.7039,5.6097,5.4979,5.0307,9.4796-.2752,1.8928-1.1433,3.496-2.4159,4.9087-8.4614,9.3929-16.9158,18.7922-25.3724,28.1894-.4565.5073-.9072,1.0199-1.3691,1.5222-3.6879,4.0101-9.7372,4.0906-13.3929.056-9.0338-9.9704-18.0316-19.9737-26.9985-30.0043-3.447-3.8559-3.0526-9.4721.7694-12.8281,3.7391-3.2832,9.2557-2.8726,12.7569.9801,3.4316,3.776,6.836,7.5768,10.2506,11.3682.213.2366.4113.4864.6165.7301.089-.0486.1779-.0971.2669-.1457Z"/></g></svg>