<?xml version="1.0" encoding="UTF-8"?><svg id="Layer_1" xmlns="http://www.w3.org/2000/svg" viewBox="0 0 215.4589 293.1536"><defs><style>.cls-1{stroke:#fff;stroke-width:8px;}.cls-1,.cls-2{fill:none;}.cls-3{fill:#fff;}.cls-4{fill:#4a9cd5;}.cls-2{stroke:#4a9cd5;stroke-miterlimit:10;stroke-width:2px;}</style></defs><g><path class="cls-4" d="m180.6447,164.2094c-1.4927,7.1339-4.1488,13.8631-7.7143,20.1967-3.4685,6.1613-7.1408,12.2085-10.7608,18.2836-2.1637,3.6311-4.3718,7.2364-6.6189,10.8164-.6356,1.0127-1.4789,1.8951-2.3464,2.9878.272,2.5626.9235,5.2441,1.5706,7.9209,2.9024,12.004,5.8863,23.9886,8.7316,36.0062,1.441,6.086,2.6753,12.2218,3.9473,18.3466.3441,1.6567.6191,3.3424.6445,5.2018-.7302.2751-1.3844.568-2.0654.7708-6.3931,1.904-12.8871,3.3845-19.4498,4.5655-7.285,1.311-14.6301,2.1697-21.9972,2.8465-2.1046.1934-4.2144.364-6.3256.4465-8.3667.3271-16.7311.8185-25.111.3833-2.7606-.1434-5.5261-.1911-8.289-.2916-1.2093-.0439-2.413-.1414-3.8453-.4811.3727-.4473.5543-.7978.8421-.9878,1.288-.8505,2.5748-1.7112,3.9193-2.4661,4.1817-2.348,8.3906-4.6472,12.5857-6.9711.7755-.4296,1.5363-.8858,2.2335-1.2891,1.0598-10.3125-2.0138-31.9242-5.2325-40.4266-1.4665.197-2.9837.3649-4.4884.6091-6.5054,1.0555-13.0515,1.7535-19.6262,2.1488-3.3263.2-6.6558.1947-9.9809-.2711-3.3328-.4669-5.9288-2.1642-8.0715-4.6071-1.4727-1.679-2.0385-3.6998-1.4113-5.9129.4644-1.6383.9641-3.2737,1.5764-4.8608.4735-1.2273.4099-2.361-.0453-3.5496-.3313-.865-.8131-1.5164-1.6361-2.0239-1.9516-1.2032-2.3433-2.6981-1.2832-4.7571,1.2358-2.4001,3.2547-4.0176,5.5732-5.2948.631-.3476,1.2891-.6461,2.1701-1.0841-.8175-.313-1.3939-.5414-1.9759-.755-2.2974-.843-4.5168-1.8369-6.4991-3.3012-1.2535-.926-2.3789-1.9758-3.1755-3.3315-.906-1.5419-.855-2.1217.2507-3.5133.0505-.0636.1049-.1244.1606-.1836,1.9389-2.0605,1.8274-3.7738-.468-5.8347-.8416-.7556-1.8289-1.3475-2.7372-2.0306-1.0379-.7805-2.1445-1.4932-3.0758-2.387-2.4933-2.393-2.9343-4.9466-1.2329-7.9293.8767-1.5369,2.0398-2.9312,3.2008-4.2802,1.5899-1.8475,3.3486-3.5495,4.9451-5.3917,1.2757-1.472,2.4815-3.015,3.604-4.6071,1.9271-2.7333,2.8833-5.7685,2.7717-9.1621-.1402-4.2651-.7317-8.4283-2.5044-12.3385-.5765-1.2716-.6027-2.5255-.3637-3.8057.2976-1.5951.3612-2.0993.8122-3.6576,1.1051-3.8186-.1928-1.7162,1.6594-5.2119l127.1326,31.4652Z"/><circle class="cls-4" cx="178.2375" cy="147.3997" r="8.5585"/><circle class="cls-4" cx="209.7532" cy="98.5733" r="5.7056"/><circle class="cls-4" cx="208.5571" cy="41.5069" r="5.7056"/><circle class="cls-4" cx="11.4113" cy="95.0511" r="11.4113"/><line class="cls-2" x1="23.4456" y1="76.9999" x2="38.6911" y2="54.1317"/><line class="cls-2" x1="210.9493" y1="87.6423" x2="208.5571" y2="50.849"/><line class="cls-2" x1="89.4614" y1="87.6167" x2="28.5279" y2="93.4207"/><path class="cls-4" d="m79.7757,24.4501c-.0516-.5386-.5007-.952-1.0416-.952h-2.2985c-1.8389,0-3.5172-1.1063-4.1842-2.8203-.0556-.1435-.1138-.2861-.1737-.4276-.7061-1.6726-.2936-3.6085.9902-4.8923l1.69-1.6903c.3806-.3803.4057-.9848.0679-1.4039-.9697-1.2013-2.0586-2.3019-3.2491-3.2847-.4179-.3455-1.029-.3229-1.4121.0608l-1.6347,1.6347c-1.2992,1.2989-3.2639,1.7028-4.9471.9671-.1657-.0727-.3329-.1424-.5015-.21-1.6886-.6718-2.7644-2.345-2.7644-4.1625v-2.3479c-.0003-.5395-.4114-.9862-.9483-1.041-.7603-.0779-1.5314-.1192-2.3119-.1192-.7811,0-1.5522.0414-2.3125.1192-.5369.0548-.9483.5015-.9483,1.041v2.3479c0,1.8175-1.0755,3.4907-2.7644,4.1628-.1686.0673-.3358.1369-.5015.2094-1.6829.736-3.6479.3321-4.9468-.9668l-1.6347-1.6347c-.3834-.3837-.9942-.4062-1.4124-.0608-1.1905.9828-2.2794,2.0834-3.2488,3.2847-.3381.4188-.3127,1.0236.0679,1.4039l1.6903,1.6903c1.2835,1.2838,1.6957,3.2197.9896,4.8923-.0599.1415-.1175.2841-.1737.4276-.6664,1.714-2.345,2.8203-4.1842,2.8203h-2.2979c-.5412,0-.9905.4134-1.0418.952-.0673.7024-.1036,1.4136-.1036,2.1333,0,.8416.0462,1.6726.1352,2.4905.0582.5349.5021.9449,1.0401.9449h2.4064c1.8098,0,3.4682,1.0701,4.1537,2.745.0445.109.0901.2174.1372.3252.7357,1.6917.3466,3.6619-.9577,4.9662l-1.6364,1.6364c-.3834.3831-.406.9942-.0605,1.4121.9825,1.1905,2.0834,2.2794,3.2847,3.2491.4188.3378,1.0236.3127,1.4042-.0679l1.688-1.688c1.2883-1.2883,3.2248-1.676,4.91-.9828l.1643.0673c1.7505.7201,2.8928,2.4255,2.8928,4.318v2.2463c0,.5398.4114.9862.9483,1.041.7603.0779,1.5314.1192,2.3122.1192s1.5519-.0414,2.3122-.1192c.5369-.0548.9483-.5012.948-1.041l.0003-2.3502c0-1.8298,1.1046-3.4787,2.7969-4.1745l.1541-.0636c1.7496-.7195,3.76-.3169,5.0974,1.0207l1.6067,1.6067c.3809.3806.9856.4057,1.4039.0679,1.2016-.9697,2.3025-2.0586,3.2853-3.2491.3452-.4179.3227-1.029-.0608-1.4124l-1.6364-1.6361c-1.3043-1.3043-1.6934-3.2745-.9574-4.9662.0468-.1078.0927-.2162.1372-.3252.6855-1.6749,2.3439-2.7453,4.1531-2.745h2.4066c.5383,0,.9822-.41,1.0404-.9449.089-.8179.1349-1.6489.1349-2.4902,0-.7203-.0362-1.4313-.1033-2.1336Zm-22.7193,10.6921c-4.7268,0-8.5585-3.8319-8.5582-8.5587-.0003-4.7268,3.8313-8.5585,8.5582-8.5585s8.5587,3.8316,8.5587,8.5587-3.8319,8.5585-8.5587,8.5585Z"/><path class="cls-4" d="m41.2399,110.1788c-.3456,1.4479-.6579,2.9304-.9491,4.4339l51.2152-20.3532-.9673-3.6725-49.2988,19.5918Z"/><line class="cls-2" x1="204.0476" y1="108.2873" x2="186.796" y2="136.8287"/></g><g><circle class="cls-4" cx="105.6358" cy="36.5168" r="23.0088"/><path class="cls-3" d="m115.6007,37.5818c-.8039-.9727-1.9232-1.6331-3.1635-1.8664,1.7662-.8192,2.7423-2.7408,2.362-4.6503-.0467-.7451-.2708-1.4682-.6538-2.109-.3709-.5906-.8862-1.077-1.4974-1.413-.6402-.358-1.3244-.6309-2.0352-.8119-.8228-.1783-1.6585-.2912-2.4991-.3375v-4.5765h-2.7733v4.4288h-2.2039v-4.4288h-2.7838v4.5765h-5.5782v2.9526h2.0035c.7917-.0986,1.5135.4633,1.6121,1.255.0004.0034.0009.0069.0013.0103v5.1775h.2847-.2847v7.2548c-.027.5351-.4827.947-1.0178.92-.0122-.0006-.0244-.0015-.0367-.0026h-2.0035l-.5589,3.3005h5.5782v4.6081h2.7838v-4.5554h2.2039v4.5343h2.7733v-4.6081c.8798-.0343,1.7566-.1223,2.6257-.2636.7515-.1323,1.4868-.3444,2.1933-.6327.6435-.2405,1.237-.598,1.7504-1.0545.4965-.4479.895-.9936,1.1705-1.6028.325-.7121.5213-1.4761.58-2.2566.2388-1.3431-.0522-2.7264-.8119-3.8594l-.0211.0105Zm-12.4113-8.0246h1.6872c.3511-.0237.7034-.0237,1.0545,0,.3754.0245.7488.0739,1.1177.1476.3387.068.6705.1669.9912.2953.3172.1135.6104.2852.8647.5062.2271.2179.4129.4751.5483.7592.157.3291.2363.6899.232,1.0545.0008.3136-.0564.6246-.1687.9174-.104.2673-.2703.5058-.4851.696-.2085.1787-.4306.3409-.6643.4851-.2737.1545-.5686.2682-.8752.3374l-.9385.2004c-.3285.0487-.6594.0804-.9912.0949h-2.3726v-5.4939Zm7.5923,12.2953c-.1072.2617-.2568.504-.4429.717-.2028.2259-.446.4118-.717.5483-.2742.1489-.5599.2758-.8541.3796-.3447.1106-.6972.1952-1.0545.2531-.3902.0738-.7381.116-1.0545.1476s-.6432.0527-1.0545.0738h-2.4148v-6.1055h3.2267c.4456.027.8892.0798,1.3287.1582.4041.0864.8021.1991,1.1916.3374.3801.1215.7367.307,1.0545.5483.2734.2319.499.5149.6643.833.334.6559.3723,1.4231.1054,2.109h.0211Z"/></g><path class="cls-4" d="m200.3492,67.31c.0153,3.5809.0215,2.3782-.0289,5.9585-.0493,3.5018-1.4974,5.4076-4.9169,6.5033-2.4312.779-5.0636,1.1323-7.2895,2.2867-1.8467.9577-3.2321,2.8063-4.8161,4.2665-.0671.0619-.0605.1968-.114.2813-3.9887,6.2877-3.2153,12.1161,1.076,18.0758,2.6453,3.6737,1.9646,6.3458-1.2004,9.5642-2.2234,2.2609-4.4499,4.5203-6.7321,6.7211-2.63,2.5362-5.0651,2.8439-8.365,1.175-.2737-.1384-.5736-.2489-.8073-.4389-5.7585-4.6836-11.8411-5.0549-17.9845-.9899-1.8255,1.2079-3.5322,2.9847-4.5671,4.8945-1.1397,2.1031-1.3996,4.673-2.1209,7.0155-1.1202,3.6382-3.1404,5.1385-6.9966,5.1889-3.3746.0442-6.7512.0566-10.1253-.0078-3.4491-.0658-5.5279-1.6567-6.6063-4.8999-.1288-.3872-.1928-.7954-.307-1.188-3.4861-11.9874-1.9405-8.9242-12.4225-13.4096-1.7068-.7304-4.2053-.3654-6.0857.2564-2.384.7883-4.4886,2.3985-6.753,3.5787-3.2734,1.7062-5.7307,1.3641-8.356-1.18-2.4238-2.3488-4.8097-4.7384-7.1601-7.1608-2.4914-2.5677-2.8749-5.2454-1.2997-8.3911.1829-.3653.4059-.7104.6039-1.0684,4.8354-8.7449,4.9645-8.8039.7798-17.9797-.8217-1.8017-2.8674-3.3444-4.7138-4.3018-2.2258-1.1542-4.856-1.5109-7.2845-2.2953-3.4292-1.1076-4.8595-2.9946-4.9101-6.5072-.0516-3.5803-.0122-.848-.0116-4.429l31.699-.4261c.3194,21.1925,17.5932,37.9502,38.7905,37.6315,20.7415-.3119,37.6488-17.7541,37.3196-38.5004l31.7062-.2237Z"/><g><path class="cls-4" d="m199.7187,26.218L174.9646,1.4654c-.9743-.9743-2.2482-1.4654-3.53-1.4654-1.2739,0-2.5557.491-3.53,1.4654l-13.5553,13.5506c-1.9502,1.9485-1.9502,5.1711,0,7.1259l2.2482,2.3047h5.1853l-4.8417-4.8965c-.3373-.3436-.3859-.7656-.3859-.9743,0-.2024.0486-.6134.3859-.9554l1.7902-1.7352,8.505,8.5615h8.1646l-12.5889-12.6485,7.6861-7.7159c.3357-.3373.7342-.3985.9366-.3985.2087,0,.6009.0424.9445.3797l24.7526,24.7463c.3374.3436.386.7358.386.9445,0,.2024-.0847.5947-.4221.9382l-1.4041,1.3665v5.1836l3.9959-3.9584c1.9486-1.9549,1.9863-5.1177.0314-7.0663h0Zm0,0"/><path class="cls-4" d="m188.1042,26.7702h-35.0054c-2.7581,0-5.1177,2.2185-5.1177,4.9766v13.2432h45.0573v-13.2432c0-2.7581-2.1761-4.9766-4.9342-4.9766h0Zm-27.8904,13.7091"/><path class="cls-4" d="m147.9811,50.9156c0,2.7581,2.3596,5.008,5.1177,5.008h35.0054c2.7581,0,4.9342-2.2498,4.9342-5.008v-.2934h-45.0573v.2934Zm0,0"/></g><g><path class="cls-1" d="m155.9268,67.31c0,13.9934-11.3439,25.3373-25.3373,25.3373s-25.3373-11.3439-25.3373-25.3373,11.3439-25.3373,25.3373-25.3373,25.3373,11.3439,25.3373,25.3373Zm-13.8102,5.8608c0-6.7703-5.7717-8.1746-10.3683-9.3206-3.1614-.7858-5.7717-1.397-5.7717-3.5289,0-1.8481,2.1319-2.6885,4.2565-2.6885,2.432,0,4.5566,1.1969,4.5566,3.7217h6.4429c0-5.1769-2.9577-8.6148-8.2383-9.437v-2.9068h-5.1823v2.8922c-5.1532.7422-8.322,3.8054-8.322,8.7058,0,6.5193,5.528,7.8363,10.0718,8.935,3.2506.7749,5.9518,1.3897,5.9518,3.7071,0,2.1173-2.4011,3.3542-4.8513,3.3542-2.623,0-5.0314-1.3424-5.0314-4.1437h-6.5684c0,5.5589,3.5743,9.1933,9.1059,10.0264v3.1214h5.1587v-3.1323c5.055-.7749,8.7894-3.8818,8.7894-9.306Z"/><path class="cls-4" d="m155.9268,67.31c0,13.9934-11.3439,25.3373-25.3373,25.3373s-25.3373-11.3439-25.3373-25.3373,11.3439-25.3373,25.3373-25.3373,25.3373,11.3439,25.3373,25.3373Zm-13.8102,5.8608c0-6.7703-5.7717-8.1746-10.3683-9.3206-3.1614-.7858-5.7717-1.397-5.7717-3.5289,0-1.8481,2.1319-2.6885,4.2565-2.6885,2.432,0,4.5566,1.1969,4.5566,3.7217h6.4429c0-5.1769-2.9577-8.6148-8.2383-9.437v-2.9068h-5.1823v2.8922c-5.1532.7422-8.322,3.8054-8.322,8.7058,0,6.5193,5.528,7.8363,10.0718,8.935,3.2506.7749,5.9518,1.3897,5.9518,3.7071,0,2.1173-2.4011,3.3542-4.8513,3.3542-2.623,0-5.0314-1.3424-5.0314-4.1437h-6.5684c0,5.5589,3.5743,9.1933,9.1059,10.0264v3.1214h5.1587v-3.1323c5.055-.7749,8.7894-3.8818,8.7894-9.306Z"/></g></svg>