<?xml version="1.0" encoding="UTF-8"?><svg id="Layer_1" xmlns="http://www.w3.org/2000/svg" viewBox="0 0 281.2315 284.1867"><defs><style>.cls-1{fill:#4a9cd5;}</style></defs><path class="cls-1" d="m144.5447,134.2405c1.7441,0,3.0513,0,4.3586,0,40.7005-.0004,81.401-.0009,122.1015-.0008.8896,0,1.7796-.0094,2.6688.012,5.4047.13,7.6347,2.3904,7.5558,7.8953-.4513,31.4658-10.3773,59.7219-29.5269,84.5294-23.646,30.6324-54.5268,49.8789-92.8623,55.7669-41.2752,6.3395-78.0549-4.6757-109.6077-31.9755C22.2568,227.1282,5.8122,197.3604,1.399,161.9992-5.879,103.6824,15.3249,57.2139,63.019,23.2624,84.4714,7.9914,108.908.6813,135.2517.0102c7.119-.1813,9.2908,2.03,9.2914,9.3099.0029,39.8973.0016,79.7945.0017,119.6918v5.2286Zm69.7664,13.7793c-.7103,25.8412-5.2219,50.5546-14.9705,74.2886.8896.3464,1.5969.6416,2.3176.8994,7.9301,2.836,15.9003,5.5664,23.7674,8.5682,1.9645.7496,3.0694.6152,4.5452-.9055,17.3724-17.9013,29.1948-38.8418,34.4028-63.327,1.3467-6.3314,1.8844-12.8357,2.831-19.5236h-52.8934Zm-68.8342.0233v66.3353c13.8056,1.4056,27.3279,2.7824,41.0319,4.1776,9.7086-22.3322,14.17-45.9097,14.7439-70.5129h-55.7758Zm-131.0302-.0058c0,2.3059-.1606,4.2061.0241,6.072,2.6727,26.9938,12.6001,50.9799,29.8143,71.9254,4.9618,6.0373,4.9417,5.966,12.285,3.4536,7.1243-2.4376,14.3035-4.7142,21.6466-7.1233-10.4047-23.693-14.8484-48.6043-15.6644-74.3278H14.4467Zm61.8119-.0514c.7618,24.8276,5.0591,48.5302,14.926,70.7241,13.4847-1.3804,26.4779-2.7104,39.5394-4.0475v-66.6766h-54.4654Zm-62.0165-14.0679h49.0603c.6172-25.118,5.4989-49.0663,14.9086-72.0084-8.4739-2.9606-16.7736-5.739-24.9668-8.8035-2.1948-.8209-3.4581-.6727-5.0997,1.0828-14.087,15.0645-23.9912,32.4907-29.6046,52.3325-2.5157,8.8922-4.1666,17.9537-4.2978,27.3966Zm116.5608-64.4833c-.5535-.1668-.9603-.3565-1.3837-.4072-11.9102-1.4289-23.8287-2.7922-35.7272-4.3128-1.9431-.2483-2.7061.3533-3.43,2.0584-6.4388,15.1658-10.5193,30.9585-12.4869,47.2897-.7926,6.5788-1.1359,13.2121-1.6968,19.9784h54.7246v-64.6065Zm49.5441,162.143c-12.2011-1.1796-23.799-2.3009-35.6121-3.443v41.3343c4.8024.4537,9.182.5479,12.2492-3.9921,1.4218-2.1045,3.3445-3.8622,4.9521-5.8487,6.8558-8.4718,12.8574-17.506,18.4108-28.0505Zm-49.5632-175.872V14.8069c-6.7305-.9958-8.4693-.6537-12.3622,4.3049-4.6597,5.9352-9.0757,12.0907-13.1962,18.4133-2.9203,4.481-5.1755,9.3974-8.0445,14.7058,11.6241,1.2021,22.4306,2.3197,33.6029,3.475Zm-33.5649,175.895c7.1148,13.2249,14.9591,24.4686,24.1789,34.7993,2.6637,2.9847,5.6045,3.5701,9.3601,3.0799v-41.3799c-11.1833,1.1673-22.0496,2.3015-33.539,3.5008Zm4.1095,33.0376c-5.2676-8.7842-10.6349-17.3286-15.5341-26.1346-1.6142-2.9013-2.9911-3.6169-6.0572-2.4954-6.1364,2.2444-12.3994,4.1415-19.1622,6.3634,12.6109,10.3517,26.0364,17.5226,40.7535,22.2666Zm115.7596-22.3229c-7.5936-2.4485-14.5394-4.6466-21.4526-6.9431-2.0261-.673-2.3981.7445-3.1305,1.9919-4.3292,7.373-8.6922,14.7262-13.0796,22.0647-.8573,1.434-1.8718,2.7735-3.2488,4.7951,15.2257-4.9574,28.2432-12.1283,40.9115-21.9086ZM61.0858,41.905c7.3814,2.2018,14.0705,4.1267,20.7069,6.2191,2.0066.6326,2.4327-.5863,3.1842-1.8769,4.5248-7.7707,9.1131-15.5044,13.6731-23.2546.4021-.6834.7538-1.3966,1.5328-2.8491-14.5653,5.0214-27.0219,11.9959-39.097,21.7615Z"/><path class="cls-1" d="m281.1362,57.6473c0,31.8378-25.8096,57.6473-57.6473,57.6473s-57.6473-25.8096-57.6473-57.6473S191.6511,0,223.4889,0s57.6473,25.8096,57.6473,57.6473Zm-31.421,13.3346c0-15.4039-13.1318-18.5989-23.59-21.2062-7.1929-1.7879-13.1318-3.1784-13.1318-8.0289,0-4.2048,4.8504-6.1169,9.6843-6.1169,5.5333,0,10.3672,2.7232,10.3672,8.4676h14.6589c0-11.7785-6.7294-19.6004-18.7437-21.4711v-6.6135h-11.7909v6.5804c-11.7247,1.6886-18.9341,8.658-18.9341,19.8074,0,14.8328,12.5772,17.8291,22.9154,20.3288,7.3957,1.763,13.5415,3.1619,13.5415,8.4345,0,4.8173-5.463,7.6316-11.0377,7.6316-5.9679,0-11.4474-3.0543-11.4474-9.4277h-14.9445c0,12.6476,8.1324,20.9165,20.7179,22.812v7.1018h11.7371v-7.1267c11.5012-1.763,19.9977-8.8318,19.9977-21.1731Z"/></svg>