<?xml version="1.0" encoding="UTF-8"?><svg id="Layer_1" xmlns="http://www.w3.org/2000/svg" xmlns:xlink="http://www.w3.org/1999/xlink" viewBox="0 0 270.5834 285.3107"><defs><style>.cls-1{fill:none;}.cls-2{clip-path:url(#clippath);}.cls-3{fill:#4a9cd5;}</style><clipPath id="clippath"><path class="cls-1" d="m43.562,161.9147c8.8627-7.4992,12.1156-11.2489,14.4092-14.6576s5.058-26.581,10.3228-29.8228,9.2739-10.1386,20.3929-9.2467,21.0044,3.6258,25.4357,9.2467,9.5444,11.4157,10.2262,23.6872c.6817,12.2714,0,19.4298,0,19.4298l23.8611,7.4992s4.8621.5551,8.8627,6.8175,8.4709,11.5897,7.3033,21.475c-1.1676,9.8853-5.5989,19.7706-5.5989,19.7706l10.2262,15.6802,89.3087-4.0905,12.2714-26.122-1.7044-189.9914-9.8853-11.5897h-32.0421L61.2874,1.7044l-14.6575,16.021-3.0679,144.1893Z"/></clipPath></defs><path class="cls-3" d="m91.9263,285.3107c-2.8608-.3841-5.7962-.4819-8.5684-1.2055-8.6473-2.257-17.2458-4.7056-25.8367-7.1721-4.14-1.1886-8.201-2.6516-12.3386-3.8492-1.4967-.4332-3.1113-.6258-4.6741-.6362-8.8529-.0586-17.7065-.045-26.5598-.0218-4.5808.012-8.4431-1.4665-11.3036-5.1826-1.4708-1.9108-2.3368-4.0538-2.5327-6.4574-.0621-.7617-.0886-1.5284-.0887-2.2929-.0045-20.8796.0274-41.7594-.0237-62.6389-.014-5.7453,2.2502-10.1132,7.4547-12.5728,1.8499-.8742,4.0968-1.2189,6.1714-1.252,8.4686-.1353,16.9409-.0287,25.4111-.0984.879-.0072,2.0062-.35,2.587-.9528,2.952-3.0633,5.8588-6.1818,8.6003-9.4337,4.9645-5.8887,9.7506-11.9279,14.7119-17.8193,2.4379-2.895,3.1947-6.3708,4.0472-9.8789,1.1458-4.7148,2.182-9.477,3.7021-14.0744,1.5381-4.6519,4.2136-8.7122,8.7957-10.951,1.7107-.8359,3.7508-1.3549,5.6499-1.3822,6.2119-.0895,12.1657,1.1509,17.5117,4.5204,6.536,4.1196,9.5607,10.453,10.7993,17.7603,1.0474,6.1793,1.2626,12.4153-.2689,18.5586-.6962,2.7929-1.7644,5.4942-2.6935,8.227-.2586.7606-.6232,1.4851-1.0735,2.5411.8224,0,1.3923-.0026,1.9621.0004,5.7921.0304,11.59-.0919,17.3752.1238,13.4237.5004,24.5897,12.6513,24.1989,26.0913-.1507,5.1832-1.3703,10.0454-4.0787,14.4824-.6123,1.0031-.773,1.9352-.5306,3.0788,1.3406,6.325.3496,12.3514-2.3229,18.19-.4922,1.0752-.7624,2.39-.686,3.565.4672,7.1842-1.119,13.7576-5.3478,19.6591-.4331.6045-.5823,1.5118-.6143,2.2888-.2494,6.0695-1.574,11.8092-5.2244,16.793-5.1544,7.0372-12.3189,10.5523-20.8179,11.653-.5874.0761-1.1654.2243-1.7478.3389h-21.6462Zm1.683-103.3385c.1998-1.4824.1594-2.7948.5695-3.9468,1.8443-5.1803,3.6249-10.3974,5.7902-15.4459,2.831-6.6003,4.1232-13.3021,2.749-20.4321-1.0321-5.355-3.06-9.8899-9.0631-11.1192-1.9135-.3919-3.8893-.5173-5.8443-.6397-.42-.0263-1.0835.3825-1.2767.7696-.9912,1.9859-2.1243,3.9564-2.7269,6.0695-1.2709,4.4567-2.2107,9.0069-3.3464,13.5035-1.0847,4.2946-3.0329,8.1285-5.9112,11.5525-4.534,5.3936-8.813,11.0025-13.3754,16.371-3.4963,4.1141-7.1761,8.0827-10.939,11.956-2.793,2.875-6.1766,4.6795-10.4001,4.251-.3051-.031-.6242.0751-.9868.1242v63.9686c3.8737.6788,7.693,1.0352,11.3254,2.0567,5.6648,1.5929,11.2304,3.558,16.7891,5.5052,14.3382,5.0225,29.0837,6.7982,44.1995,5.7096,1.952-.1406,3.9134-.3774,5.8274-.7763,5.9459-1.2392,10.1473-5.5129,10.994-11.5613.3964-2.8316.0754-5.76.1534-8.6426.0167-.6161.1586-1.4659.5721-1.7984,5.3317-4.2867,7.306-11.8206,4.5492-18.0087-.4325-.9707-.2846-1.5176.4035-2.263,3.2405-3.5105,4.7462-7.6333,4.2322-12.4521-.3404-3.1915-1.4203-6.1032-3.0918-8.6151,1.0932-.7105,2.2964-1.1615,3.0166-2.0186,2.9148-3.4685,4.505-7.5589,4.1542-12.0827-.5364-6.9179-6.2369-11.9958-13.2128-12.0227-11.0404-.0425-22.0811-.0117-33.1216-.0119-.5926,0-1.1851,0-2.0292,0ZM19.3177,246.5855c-3.508.023-6.4559,3.0225-6.4035,6.5156.0526,3.5015,3.0365,6.3683,6.5839,6.3255,3.4656-.0418,6.2974-2.9322,6.293-6.4231-.0045-3.5524-2.9183-6.4413-6.4734-6.418Z"/><g class="cls-2"><g><path class="cls-3" d="m128.5503,212.025c0,2.2653.0082,4.422-.0022,6.5786-.0118,2.4461-1.4097,3.9153-3.8394,3.9192-8.9683.0142-17.9366.0066-26.9049-.0213-2.3896-.0074-3.7844-1.4353-3.8156-3.8126-.0278-2.1171-.019-4.2347-.0308-6.352-.0004-.0789-.0483-.1576-.133-.4168-.3812,0-.822-.0006-1.2628,0-5.1484.008-10.2968.0243-15.4452.0228-10.8668-.0031-19.1515-8.3029-19.1503-19.1743.0064-56.3437.0115-112.6874.0202-169.0311.0014-9.159,5.7676-16.6698,14.4961-18.7341,1.716-.4058,3.5342-.5285,5.3055-.5298,39.2366-.0293,78.4732-.0214,117.7098-.0246,16.8985-.0014,33.7971-.0329,50.6956-.0087,8.1608.0117,15.1722,4.6411,17.9348,12.0655.8497,2.2834,1.3244,4.842,1.3397,7.2785.1072,17.1473.0436,34.2956.046,51.4436.0035,24.4555.0217,48.911.0242,73.3665.0015,14.7394-.0052,29.4788-.0267,44.2181-.013,8.9081-5.9544,16.5883-14.4399,18.5828-1.5581.3662-3.2023.4794-4.8097.5023-5.1889.0737-10.3791.0494-15.5688.068-.3645.0013-.7287.0443-1.2122.0756,0,2.1777.0076,4.2841-.0019,6.3904-.012,2.6673-1.4102,4.1011-4.0609,4.1045-8.8434.0114-17.6867.0092-26.5301-.002-2.6891-.0034-4.0829-1.4005-4.092-4.0595-.0069-2.0343.0077-4.0686.0093-6.1029,0-.0806-.036-.1611-.0803-.3469h-66.1747Zm-60.1653-65.61c-.0248.5544-.0619.9984-.062,1.4425-.0027,14.9049-.0077,29.8099.0122,44.7147.0013.9457.0916,1.9187.3251,2.8318.9853,3.8533,4.2292,6.1775,8.5744,6.1771,16.3156-.0015,32.6313-.0201,48.9469-.0241,25.6154-.0062,51.2309-.0057,76.8463-.0082,14.323-.0014,28.6459.0017,42.9689-.0074,5.6129-.0035,9.1138-3.5048,9.1137-9.0788-.0002-11.6663.0024-23.3326-.0007-34.9988-.0052-19.1395-.0182-38.2789-.0202-57.4184-.0027-25.4088.0066-50.8176,0-76.2265-.0014-5.4556-3.5137-9.0028-8.9416-9.0066-21.1323-.0147-42.2646-.0085-63.3969-.0105-34.9992-.0033-69.9985-.0096-104.9977-.0076-6.0709.0003-9.4198,3.3447-9.423,9.3972-.0076,14.7389.0149,29.478-.0365,44.2167-.0045,1.2868.3402,1.5803,1.5861,1.5702,7.3481-.0592,14.697-.0344,22.0455-.0228,1.7692.0028,2.2956.5548,2.3016,2.3144.0062,1.8268.0051,3.6536.0027,5.4804-.0028,2.1409-.4229,2.5716-2.5212,2.5723-7.3071.0024-14.6142.0016-21.9212.002-.4426,0-.8852,0-1.3816,0v55.7544c.53,0,.9747-.0002,1.4193,0,7.3901.0042,14.7802.0051,22.1702.0152,1.6789.0023,2.2228.5508,2.2343,2.2408.013,1.9097.0072,3.8197.0012,5.7295-.006,1.9017-.4363,2.3282-2.3617,2.3307-6.9749.0091-13.9497.0135-20.9246.0196-.8189.0007-1.6378,0-2.5595,0Z"/><path class="cls-3" d="m88.75,63.8116h-10.3434c0-.5115-.0001-.9571,0-1.4027.0025-6.9756.0032-13.9512.0079-20.9268.0065-9.678,6.9484-16.6127,16.6638-16.6182,21.0096-.0117,42.0191-.0102,63.0287-.0131,23.4592-.0033,46.9184-.0125,70.3776-.0045,8.1311.0027,14.656,5.2288,16.2684,13.0438.2495,1.2091.3296,2.4722.3308,3.7105.0163,17.3974-.0003,34.7948.0023,52.1922.0036,24.2483.0242,48.4966.0172,72.7449-.001,3.6096.0907,7.2364-.2149,10.8251-.6561,7.7048-7.5137,14.0575-15.2398,14.0902-18.3099.0776-36.6204.0346-54.9306.0397-26.6142.0075-53.2285.017-79.8427.0206-9.4772.0013-16.4659-6.9558-16.4788-16.405-.0097-7.1.0008-14.2001.0023-21.3002,0-.3701,0-.7401,0-1.2163h10.3713c0,.5289.0004,1.0523,0,1.5758-.0061,6.8925-.0179,13.7851-.0166,20.6776.0008,4.1291,2.1784,6.3094,6.3026,6.3084,22.0058-.0054,44.0115-.0227,66.0173-.0233,18.8913-.0005,37.7826.0178,56.6738.0229,3.612.001,7.224-.0133,10.836-.0342,3.8281-.0221,6.0977-2.3121,6.0971-6.1616-.0037-23.9575-.0156-47.9151-.0189-71.8727-.0028-20.5113.0049-41.0227.0017-61.534-.0006-4.0975-2.2213-6.3117-6.324-6.3124-44.4679-.0075-88.9358-.0124-133.4037-.0145-3.915-.0002-6.1669,2.2611-6.1739,6.202-.0124,6.9756-.0085,13.9512-.0115,20.9269-.0002.451,0,.902,0,1.459Z"/><path class="cls-3" d="m78.3625,130.1003v-43.8893h10.3244v43.8893h-10.3244Z"/><path class="cls-3" d="m222.1034,108.1875c0,31.882-25.8455,57.7275-57.7275,57.7275s-57.7275-25.8455-57.7275-57.7275,25.8455-57.7275,57.7275-57.7275,57.7275,25.8455,57.7275,57.7275Zm-31.4647,13.3531c0-15.4253-13.15-18.6247-23.6228-21.2357-7.2029-1.7904-13.15-3.1829-13.15-8.04,0-4.2107,4.8572-6.1254,9.6978-6.1254,5.541,0,10.3816,2.727,10.3816,8.4793h14.6793c0-11.7948-6.7387-19.6277-18.7698-21.5009v-6.6227h-11.8073v6.5895c-11.741,1.6909-18.9604,8.67-18.9604,19.8349,0,14.8534,12.5947,17.8539,22.9473,20.3571,7.406,1.7655,13.5603,3.1663,13.5603,8.4462,0,4.824-5.4705,7.6422-11.053,7.6422-5.9762,0-11.4633-3.0585-11.4633-9.4408h-14.9653c0,12.6651,8.1437,20.9456,20.7466,22.8437v7.1117h11.7534v-7.1366c11.5172-1.7655,20.0255-8.8441,20.0255-21.2025Z"/></g></g></svg>