<?xml version="1.0" encoding="UTF-8"?><svg id="Layer_1" xmlns="http://www.w3.org/2000/svg" xmlns:xlink="http://www.w3.org/1999/xlink" viewBox="0 0 224.3103 295.4723"><defs><style>.cls-1,.cls-2{fill:none;}.cls-3{clip-path:url(#clippath);}.cls-2{stroke:#fff;stroke-width:17px;}.cls-4{fill:#fff;}.cls-5{fill:#4a9cd5;}</style><clipPath id="clippath"><circle class="cls-1" cx="111.7254" cy="112.1721" r="70.8795"/></clipPath></defs><path class="cls-5" d="m182.2611,34.947c-.3429,6.3735.6917,7.1177,6.8067,7.684,4.1101.3807,8.165,1.6599,12.1641,2.8155,2.1359.6172,3.1686,2.4141,2.7951,4.7143-.6064,3.7353-1.0027,7.5403-2.0278,11.163-1.3137,4.6429-.4264,6.2731,4.095,8.2129,3.8109,1.635,7.3916,3.8881,10.8788,6.1665,2.2302,1.4571,2.9399,3.7597,1.5667,6.3124-1.7916,3.3309-3.4296,6.7688-5.5027,9.9176-2.354,3.5754-2.0036,5.8033,1.3054,8.4245,2.9554,2.3411,5.5794,5.1041,8.318,7.7142,2.0994,2.0009,2.1316,4.4176.4586,6.4826-2.6842,3.3133-5.476,6.6161-8.6611,9.4259-3.4036,3.0026-3.6833,4.8026-1.4223,8.6676,2.1906,3.7446,3.835,7.8454,5.3753,11.9199.8997,2.38.0412,4.5529-2.4531,5.7381-3.4153,1.6229-6.7627,3.43-10.286,4.773-3.898,1.4859-4.8403,3.5383-3.9425,7.6226.9128,4.1522,1.3022,8.4493,1.56,12.7049.1694,2.7981-1.3548,4.7911-4.3339,5.1911-3.7507.5036-7.5042,1.1126-11.2753,1.3035-4.0076.2028-5.5488,1.8405-5.9454,5.8769-.4065,4.1364-1.2398,8.2622-2.2649,12.2964-.7827,3.0803-3.0159,4.6556-6.3666,3.9976-3.5188-.691-7.0831-1.2369-10.5255-2.2079-4.0552-1.1438-5.91-.0565-7.6467,3.8501-1.7658,3.9723-4.0622,7.7383-6.4178,11.4074-1.3739,2.1402-3.6177,2.801-6.0537,1.5114-3.3427-1.7697-6.8014-3.3778-9.9374-5.4654-3.7069-2.4677-5.6304-2.0904-8.6418,1.3054-2.8202,3.1802-6.1117,5.9826-9.4209,8.6744-2.067,1.6813-4.5117,1.6367-6.5067-.4232-2.6323-2.7179-5.3608-5.3742-7.7112-8.3252-2.6626-3.3431-4.7151-3.6091-8.4178-1.4141-3.5749,2.1193-7.4304,3.8302-11.3065,5.3547-2.8084,1.1046-5.3404.3237-6.7391-2.6759-1.5572-3.3395-3.2805-6.6183-4.5805-10.0563-1.4505-3.836-3.3767-4.695-7.348-3.9214-4.5526.8868-9.2337,1.224-13.8767,1.4886-2.2267.1269-3.7417-1.3644-4.0717-3.6529-.5541-3.8426-1.2404-7.6891-1.4272-11.5554-.2052-4.2468-1.7688-5.7164-5.9351-6.1768-4.4156-.4879-8.7879-1.5713-13.1021-2.691-2.379-.6174-3.6015-2.5032-3.1593-5.0775.6568-3.8236,1.1819-7.6911,2.1778-11.4295,1.0887-4.0864.1454-5.868-3.8169-7.6235-3.8-1.6836-7.4451-3.781-10.9738-5.9912-2.4683-1.546-3.3447-3.9769-1.8678-6.7657,1.7238-3.2549,3.3389-6.5981,5.3894-9.6413,2.4663-3.6603,2.059-5.7325-1.3146-8.6678-3.1323-2.7253-5.9093-5.9109-8.5454-9.1367-1.8304-2.24-1.8456-4.8159.4548-6.9847,2.6809-2.5275,5.2531-5.2005,8.1377-7.4739,3.3682-2.6547,3.6066-4.7089,1.4554-8.4101-2.1846-3.7587-3.897-7.8271-5.4679-11.8944-.9601-2.4858-.1116-4.7664,2.488-6.007,3.4133-1.6289,6.7777-3.4039,10.3071-4.7339,3.7998-1.4319,4.8022-3.4456,3.9355-7.3509-.9008-4.0589-1.3727-8.2405-1.6804-12.3945-.2343-3.1633,1.2721-5.39,4.7135-5.8044,3.5593-.4287,7.111-1.0991,10.6808-1.2178,4.235-.1408,5.7802-1.7321,6.2174-5.8964.4542-4.326,1.4245-8.6244,2.5077-12.8481.6703-2.6136,2.6971-3.9144,5.5256-3.4031,3.7223.673,7.4944,1.1826,11.1341,2.1711,4.0629,1.1035,5.9005.0075,7.6527-3.8619,1.8707-4.131,4.3475-8.0132,6.8224-11.8338,1.2042-1.859,3.2993-2.2561,5.3507-1.203,3.3657,1.7278,6.8351,3.3274,9.9641,5.4239,3.9174,2.6246,5.8342,2.292,8.9072-1.1404,2.897-3.2357,6.3035-6.0483,9.6817-8.8072,1.8902-1.5437,4.1331-1.4927,5.968.398,2.7014,2.7836,5.528,5.4758,7.9592,8.4834,2.6752,3.3094,4.7456,3.5567,8.4616,1.4116,3.7633-2.1724,7.8373-3.852,11.8879-5.4643,2.4071-.9581,4.5861-.1366,5.7987,2.3061,1.6819,3.3879,3.5004,6.7387,4.8107,10.2721,1.5292,4.1236,3.4118,4.9817,7.7907,4.0451,4.2511-.9093,8.6618-1.1957,13.02-1.4335,2.4273-.1324,4.1551,1.2702,4.627,3.8368.6125,3.3315,1.2157,6.6647,1.8229,9.9972Zm7.7623,77.2404c-.1429-43.3019-35.0568-78.0398-78.2637-77.8691-42.9848.1699-77.6737,35.2336-77.4994,78.3369.1726,42.6819,35.1345,77.4442,77.8157,77.3712,43.1955-.0738,78.089-34.9189,77.9474-77.839Z"/><path class="cls-5" d="m129.3261,220.8677c3.674,1.6931,7.4244,3.5491,11.2759,5.1639,4.8019,2.0132,9.2876.929,12.56-2.8588,3.3551-3.8835,6.0357-8.3498,9.3368-13.0214,3.259.3379,6.5898.8363,8.7769,5.5506,7.9039,17.036,16.4149,33.7904,24.6961,50.6514.2644.5383.693,1.0634.7483,1.624.1486,1.5059.7469,3.5754.0166,4.3896-.7351.8196-3.0059.8684-4.3423.4396-6.7524-2.1665-13.4136-4.6157-20.1181-6.9329-5.8263-2.0136-10.2941.164-12.2634,5.9914-1.9513,5.7743-3.8448,11.5681-5.7641,17.3533-.1887.5688-.2645,1.217-.5924,1.6898-1.0791,1.5557-2.2502,3.0477-3.3859,4.5642-1.4075-1.3902-3.089-2.5995-4.1551-4.215-1.42-2.1518-2.3618-4.6194-3.5079-6.9519-8.4599-17.2178-16.9205-34.4353-25.3749-51.6558-.2568-.5232-.448-1.0786-.5301-1.2785,4.3696-3.6357,8.5624-7.1243,12.6235-10.5034Z"/><path class="cls-5" d="m62.1019,209.8168c1.7467,3.3385,3.2335,6.6189,5.1039,9.6636,3.8901,6.3326,8.3237,8.2089,15.504,6.1686,4.1809-1.188,8.1327-3.182,12.0856-4.7722,3.9766,3.581,8.1001,7.2943,12.5001,11.2567-3.1678,6.4678-6.5344,13.3582-9.9157,20.2415-6.3446,12.9154-12.6394,25.856-19.117,38.7044-.8613,1.7084-2.5429,3.978-4.0652,4.1619-2.6299.3177-3.0129-2.6821-3.701-4.6994-2.0963-6.1468-4.0906-12.3282-6.1542-18.4862-2.0182-6.0227-6.4499-8.215-12.4208-6.1435-6.2299,2.1613-12.4436,4.3693-18.6742,6.5288-1.0324.3579-2.1007.721-3.1768.8219-2.5873.2426-3.7452-1.1357-3.1014-3.6811.2661-1.0521.7783-2.0536,1.261-3.0377,8.7565-17.8518,17.5006-35.7097,26.3562-53.5123.5132-1.0318,1.8476-1.8735,2.989-2.3195,1.4463-.5651,3.0864-.634,4.5266-.8958Z"/><g class="cls-3"><g><path class="cls-5" d="m179.3075,177.9979H44.1434c2.2771-3.1293,3.0868-6.7996,6.4461-9.087,9.2455-6.2952,18.2871-12.8893,27.4438-19.316.9158-.6428,1.0071-1.1831.6467-2.1679-2.8341-7.7443-5.6156-15.5077-8.4106-23.2663-.1688-.4687-.3145-.9457-.5958-1.7964,3.9473,2.6664,7.5747,5.1167,11.202,7.567-4.8223-9.6153-6.4959-19.6688-5.2662-30.3557,24.1349,5.0645,48.1225,5.0672,72.2527.0152.8256,5.1904.5976,10.3644-.306,15.5201-.9023,5.1478-2.602,10.0377-4.8781,14.8229,3.6328-2.4573,7.2656-4.9146,11.2595-7.6162-.7768,2.1773-1.408,3.9627-2.0504,5.7441-2.3236,6.4428-4.6261,12.8933-7.0015,19.3169-.3916,1.059-.2547,1.5981.7036,2.2699,9.618,6.7428,19.1989,13.5387,28.7687,20.3498.58.4128,1.08,1.0226,1.4405,1.6434,1.1838,2.0388,2.286,4.125,3.509,6.3561Zm-99.0166-71.5448c.7458,3.4379,1.2765,6.6154,2.1528,9.6946.712,2.5018,2.5606,4.0436,5.1945,4.507,1.2828.2257,2.5605.487,3.8494.67,5.5276.7848,11.0381,1.7826,16.5928,2.2638,9.3918.8136,18.531-1.3683,27.7085-2.9022,3.0102-.5031,5.0515-2.6091,5.6626-5.5948.2894-1.4138.5757-2.8282.8672-4.2416.2864-1.3887.5775-2.7765.9135-4.3901-21.0508,2.4948-41.8553,2.5215-62.9412-.0066Z"/><path class="cls-5" d="m113.5864,99.5096c-13.7871-.1459-25.6479-.8627-37.2142-3.9658-3.2156-.8627-6.2935-2.272-9.3817-3.5575-.9608-.4-1.8224-1.1374-2.6001-1.8594-2.2616-2.0996-2.2724-4.3969-.0045-6.513,2.6302-2.4541,5.9604-3.6019,9.2963-4.6601,2.1286-.6752,4.3086-1.2031,6.4891-1.692.8499-.1906,1.151-.5253,1.1361-1.3896-.0451-2.6104-.0276-5.2222-.0129-7.8333.0529-9.3991,9.4566-15.4608,18.0539-11.6352,2.3416,1.042,4.6632,2.1288,7.0024,3.1765,3.6073,1.6156,7.2266,1.613,10.8345.0056,2.3412-1.0431,4.662-2.1318,7.0033-3.1744,8.6024-3.8307,18.0134,2.2178,18.069,11.6113.0154,2.6111.0293,5.2228-.0115,7.8334-.0132.8464.2773,1.1632,1.1153,1.4091,3.8375,1.1257,7.7008,2.209,11.4329,3.6282,1.7285.6573,3.3421,1.8712,4.7151,3.1476,1.8977,1.7642,1.8934,4.0484-.0656,5.7469-1.591,1.3794-3.4557,2.5521-5.3779,3.4201-5.7003,2.574-11.8187,3.6822-17.9565,4.5957-3.4087.5073-6.8451.8893-10.2828,1.1255-4.6955.3226-9.4042.4526-12.2401.5807Z"/><path class="cls-5" d="m100.452,120.5673c-5.3535.006-9.615-2.8107-11.018-6.8709-.1512-.4375-.2694-.8945-.3339-1.3522-.2603-1.8472.5511-2.7071,2.3842-2.3784,3.0246.5425,6.0319,1.1819,9.0455,1.7858,2.1459.43,4.2941.85,6.4337,1.3095,1.9226.4128,2.4454,1.616,1.3272,3.2606-2.022,2.9738-4.9742,4.1891-7.8387,4.2457Zm2.4276-4.2882c.0357-1.4049-1.0174-2.5575-2.3587-2.5815-1.3116-.0235-2.4698,1.0488-2.5007,2.3152-.0328,1.3406,1.0705,2.4608,2.4597,2.4975,1.2033.0318,2.3697-1.0528,2.3997-2.2313Z"/><path class="cls-5" d="m123.7706,120.6258c-3.8206-.2515-6.8651-1.4601-8.7376-4.7418-.7373-1.2921-.2302-2.4605,1.2166-2.7592,5.2807-1.0901,10.5675-2.1523,15.8624-3.1711,1.7052-.3281,2.5669.5794,2.3604,2.305-.4261,3.5589-4.0938,7.2288-8.0291,7.9949-.9532.1855-1.9259.2704-2.6727.3721Zm-.7613-6.9019c-1.2698.0128-2.3815,1.1499-2.3649,2.4189.0162,1.2342,1.1996,2.379,2.4499,2.3699,1.2852-.0094,2.4105-1.1144,2.4369-2.393.0284-1.3759-1.0607-2.4105-2.5219-2.3958Z"/></g></g><g><g><circle class="cls-2" cx="112.5011" cy="198.1903" r="39.1894"/><path class="cls-2" d="m112.4457,205.7881c-.1333.1679-.2244.3087-.3403.4248-2.5612,2.5656-5.1243,5.1294-7.689,7.6916-1.3228,1.3215-2.8563,1.3182-4.1826-.0058-1.198-1.1959-2.396-2.3919-3.5912-3.5907-1.1075-1.1108-1.103-2.7889.0096-3.9021,2.5945-2.5959,5.1898-5.191,7.7874-7.7838.1267-.1264.2785-.2276.4565-.3711-.1632-.1763-.2668-.2959-.3784-.4076-2.6158-2.617-5.2322-5.2333-7.8489-7.8494-1.1346-1.1344-1.1413-2.8019-.0116-3.934,1.2063-1.2089,2.4131-2.4172,3.6234-3.622,1.2649-1.2592,2.8269-1.265,4.0865-.0084,2.5877,2.5815,5.171,5.1674,7.7521,7.7556.1146.1149.1884.2703.2972.4304.2128-.2003.3327-.3075.4462-.4209,2.5639-2.5629,5.1266-5.1271,7.6908-7.6898,1.3637-1.3628,2.8745-1.3567,4.2469.0147,1.1762,1.1754,2.3519,2.3513,3.5275,3.5273,1.1527,1.1531,1.1447,2.8038-.0154,3.9631-2.6067,2.6049-5.2115,5.2118-7.8195,7.8153-.1055.1053-.2368.1847-.3941.3054.165.1775.2692.2969.381.4087,2.6048,2.6061,5.2099,5.2119,7.8161,7.8166,1.183,1.1823,1.1909,2.8213.0166,3.995-1.1443,1.1438-2.3367,2.2441-3.4194,3.4434-1.2657,1.402-3.131,1.3824-4.435.0203-2.4857-2.5964-5.0679-5.1004-7.6104-7.6424-.1045-.1044-.2134-.2043-.402-.3843Z"/></g><g><circle class="cls-5" cx="112.5011" cy="198.1903" r="39.1894"/><path class="cls-4" d="m112.4457,205.7881c-.1333.1679-.2244.3087-.3403.4248-2.5612,2.5656-5.1243,5.1294-7.689,7.6916-1.3228,1.3215-2.8563,1.3182-4.1826-.0058-1.198-1.1959-2.396-2.3919-3.5912-3.5907-1.1075-1.1108-1.103-2.7889.0096-3.9021,2.5945-2.5959,5.1898-5.191,7.7874-7.7838.1267-.1264.2785-.2276.4565-.3711-.1632-.1763-.2668-.2959-.3784-.4076-2.6158-2.617-5.2322-5.2333-7.8489-7.8494-1.1346-1.1344-1.1413-2.8019-.0116-3.934,1.2063-1.2089,2.4131-2.4172,3.6234-3.622,1.2649-1.2592,2.8269-1.265,4.0865-.0084,2.5877,2.5815,5.171,5.1674,7.7521,7.7556.1146.1149.1884.2703.2972.4304.2128-.2003.3327-.3075.4462-.4209,2.5639-2.5629,5.1266-5.1271,7.6908-7.6898,1.3637-1.3628,2.8745-1.3567,4.2469.0147,1.1762,1.1754,2.3519,2.3513,3.5275,3.5273,1.1527,1.1531,1.1447,2.8038-.0154,3.9631-2.6067,2.6049-5.2115,5.2118-7.8195,7.8153-.1055.1053-.2368.1847-.3941.3054.165.1775.2692.2969.381.4087,2.6048,2.6061,5.2099,5.2119,7.8161,7.8166,1.183,1.1823,1.1909,2.8213.0166,3.995-1.1443,1.1438-2.3367,2.2441-3.4194,3.4434-1.2657,1.402-3.131,1.3824-4.435.0203-2.4857-2.5964-5.0679-5.1004-7.6104-7.6424-.1045-.1044-.2134-.2043-.402-.3843Z"/></g></g></svg>