<?xml version="1.0" encoding="UTF-8"?><svg xmlns="http://www.w3.org/2000/svg" viewBox="0 0 246.9868 195.7587"><defs><style>.cls-1{opacity:.05;}.cls-1,.cls-2{fill:#4a9cd5;}.cls-3{fill:#fabc8a;}.cls-4{fill:#010101;}.cls-5{fill:#f4f0ef;}.cls-6{fill:#fff;}.cls-7{fill:#f1f3f7;}.cls-8{fill:#e4eef5;}.cls-9{fill:#977a5c;}.cls-10{fill:#9fbbcf;}.cls-11{fill:#89c3e0;}.cls-12{fill:#326f9b;}.cls-13{fill:#d7e6f0;}.cls-14{fill:#e0eaf1;}.cls-15{fill:#d5d5d5;}.cls-16{fill:#112840;}.cls-17{fill:#1e6fa8;}.cls-18{fill:#0a2138;}.cls-19{fill:#1b263f;}.cls-20{fill:#6da8cc;}.cls-21{fill:#536a77;}.cls-22{fill:#2b3956;}.cls-23{fill:#709bba;}.cls-24{fill:#4c6471;}.cls-25{fill:#4f83aa;}.cls-26{fill:#274666;}.cls-27{fill:#280530;}.cls-28{fill:#7aa2bf;}.cls-29{fill:#508eba;}.cls-30{stroke:#d5d5d5;}.cls-30,.cls-31{fill:none;stroke-miterlimit:10;stroke-width:7.5px;}.cls-31{stroke:#000;}.cls-32{isolation:isolate;}.cls-33{opacity:.15;}.cls-33,.cls-34,.cls-35{mix-blend-mode:multiply;}.cls-34{opacity:.3;}.cls-35{opacity:.2;}</style></defs><g class="cls-32"><g id="Layer_3"><path class="cls-1" d="m76.7232,45.5538c-16.4227-2.8915-34.8176-2.4696-47.8581,7.9233-14.4932,11.5507-18.2697,32.1978-16.7248,50.6664.4607,5.5073,1.3319,11.0892,3.8037,16.0323,3.4273,6.8541,9.7233,11.9578,16.6598,15.2153s14.5323,4.8324,22.0931,6.0812c22.6715,3.7443,47.6452,4.3139,66.722-8.4961,4.8227-3.2384,9.1362-7.2594,14.2789-9.9611,20.0779-10.548,45.917,1.7361,66.9116-6.8435,5.3336-2.1796,10.0619-5.6172,14.449-9.3524,4.1483-3.5319,8.2995-7.8754,8.7086-13.3082.4091-5.4326-3.0894-10.4082-7.1003-14.0951-11.417-10.495-27.3709-14.2923-42.7095-16.5766-16.3036-2.428-32.6072-6.8495-49.0073-8.1322-17.1531-1.3416-33.3553-6.1828-50.2264-9.1532Z"/><g><path class="cls-13" d="m75.2787,66.0681c1.3274,0,2.4074-1.08,2.4074-2.4075s-1.08-2.4076-2.4074-2.4076c-.5709,0-1.0952.2006-1.5084.5339l-7.367-7.367v-24.029c1.1591-.1728,2.052-1.1719,2.052-2.3782,0-1.3274-1.08-2.4074-2.4075-2.4074s-2.4074,1.08-2.4074,2.4074c0,1.2064.8929,2.2055,2.052,2.3782v24.1762c0,.0943.0375.1847.1041.2513l7.491,7.491c-.2624.3855-.4162.8507-.4162,1.3512,0,1.3274,1.08,2.4075,2.4075,2.4075Zm-10.9274-38.0554c0-.9355.761-1.6965,1.6965-1.6965s1.6965.761,1.6965,1.6965c0,.8823-.6772,1.6088-1.539,1.6886-.0477-.0237-.1006-.0383-.1575-.0383s-.1098.0146-.1575.0383c-.8618-.0798-1.539-.8062-1.539-1.6886Zm10.9274,33.9513c.9355,0,1.6965.7612,1.6965,1.6967s-.761,1.6965-1.6965,1.6965-1.6965-.761-1.6965-1.6965.761-1.6967,1.6965-1.6967Z"/><path class="cls-13" d="m73.1734,44.7115v-27.1117c0-.0943-.0375-.1847-.1041-.2513l-5.3616-5.3616h-1.0053l5.7601,5.7601v26.9646c-1.1591.1728-2.052,1.1719-2.052,2.3783,0,1.3274,1.08,2.4074,2.4075,2.4074s2.4076-1.08,2.4076-2.4074c0-1.2065-.893-2.2056-2.0521-2.3784Zm-.3555,4.0749c-.9355,0-1.6965-.761-1.6965-1.6965s.761-1.6967,1.6965-1.6967,1.6967.7611,1.6967,1.6967-.7612,1.6965-1.6967,1.6965Z"/><path class="cls-13" d="m126.9765,77.0498c1.3274,0,2.4074-1.08,2.4074-2.4075,0-1.2065-.8929-2.2056-2.052-2.3783v-20.738l5.2148-5.2147c.0667-.0666.1041-.157.1041-.2513v-16.6597c1.159-.1728,2.052-1.1719,2.052-2.3782,0-1.3274-1.0801-2.4075-2.4075-2.4075s-2.4075,1.08-2.4075,2.4075c0,1.2063.8929,2.2054,2.052,2.3782v16.5124l-5.2148,5.2148c-.0666.0667-.1041.157-.1041.2513v20.8852c-1.1591.1728-2.052,1.1719-2.052,2.3783,0,1.3274,1.08,2.4075,2.4075,2.4075Zm3.6224-50.0277c0-.9355.7611-1.6965,1.6965-1.6965s1.6965.761,1.6965,1.6965-.7612,1.6965-1.6965,1.6965-1.6965-.761-1.6965-1.6965Zm-3.6224,45.9236c.9354,0,1.6965.7612,1.6965,1.6967s-.7611,1.6965-1.6965,1.6965-1.6965-.761-1.6965-1.6965.7611-1.6967,1.6965-1.6967Z"/><path class="cls-13" d="m209.709,100.1559c-1.2063,0-2.2054.8929-2.3782,2.052h-27.8766l-11.9634-11.9633c-.0667-.0667-.1571-.1041-.2513-.1041h-20.4417l-14.0217-14.0216c.2234-.3652.3546-.7926.3546-1.2511,0-1.3274-1.08-2.4075-2.4077-2.4075s-2.4075,1.08-2.4075,2.4075,1.0801,2.4075,2.4075,2.4075c.6121,0,1.1699-.2315,1.5951-.609l14.0812,14.0811c.0666.0666.1571.1041.2513.1041h20.4417l11.9634,11.9633c.0667.0666.1571.1041.2513.1041h28.0238c.1728,1.159,1.1719,2.052,2.3782,2.052,1.3274,0,2.4075-1.08,2.4075-2.4074s-1.08-2.4075-2.4075-2.4075Zm-78.9861-23.5917c-.9354,0-1.6965-.761-1.6965-1.6965s.7612-1.6965,1.6965-1.6965,1.6968.761,1.6968,1.6965-.7611,1.6965-1.6968,1.6965Zm78.9861,27.6956c-.9354,0-1.6965-.7611-1.6965-1.6965s.7612-1.6965,1.6965-1.6965,1.6965.7611,1.6965,1.6965-.7611,1.6965-1.6965,1.6965Z"/><path class="cls-13" d="m115.0736,74.2075c1.3277,0,2.4077-1.0801,2.4077-2.4075,0-1.2064-.893-2.2055-2.0522-2.3782v-20.3589l4.1244-4.1242c.0667-.0666.1041-.157.1041-.2513v-24.0336c1.159-.1728,2.052-1.1719,2.052-2.3782,0-1.3274-1.08-2.4075-2.4075-2.4075s-2.4075,1.08-2.4075,2.4075c0,1.2063.8929,2.2055,2.052,2.3782v23.8863l-4.1244,4.1244c-.0667.0666-.1041.157-.1041.2513v20.5061c-1.159.1728-2.052,1.1719-2.052,2.3782,0,1.3274,1.08,2.4075,2.4074,2.4075Zm2.532-55.932c0-.9355.7611-1.6965,1.6965-1.6965s1.6965.761,1.6965,1.6965-.7611,1.6965-1.6965,1.6965-1.6965-.761-1.6965-1.6965Zm-2.532,51.828c.9356,0,1.6968.761,1.6968,1.6965s-.7611,1.6965-1.6968,1.6965-1.6965-.761-1.6965-1.6965.7611-1.6965,1.6965-1.6965Z"/><path class="cls-13" d="m105.1107,11.9868v21.3491l-11.3187,11.3187c-.0667.0666-.1041.157-.1041.2513v23.5105l-14.1951,14.1951c-.2927-.1268-.6148-.1979-.9535-.1979-1.3274,0-2.4075,1.08-2.4075,2.4074s1.08,2.4075,2.4075,2.4075,2.4074-1.08,2.4074-2.4075c0-.7274-.3256-1.3791-.8373-1.8209l14.1853-14.1853c.0666-.0666.1041-.157.1041-.2513v-23.5105l11.3187-11.3186c.0667-.0666.1041-.157.1041-.2513V11.9868h-.7109Zm-24.875,72.8343c0,.9355-.761,1.6965-1.6965,1.6965s-1.6965-.761-1.6965-1.6965.761-1.6965,1.6965-1.6965,1.6965.761,1.6965,1.6965Z"/><path class="cls-13" d="m109.8336,158.7947c-.6622,0-1.2626.2689-1.6983.7031l-5.1337-5.1336v-23.4969c0-.0942-.0375-.1847-.1041-.2513l-13.9794-13.9795c.3454-.4168.5534-.9514.5534-1.5337,0-1.3274-1.0801-2.4075-2.4076-2.4075s-2.4075,1.08-2.4075,2.4075,1.08,2.4075,2.4075,2.4075c.4889,0,.9437-.1474,1.3239-.3988l13.9029,13.903v23.4969c0,.0942.0375.1847.1041.2513l5.3128,5.3127c-.1791.3365-.2814.7197-.2814,1.1268,0,1.3274,1.0799,2.4075,2.4073,2.4075s2.4077-1.0801,2.4077-2.4075-1.08-2.4075-2.4077-2.4075Zm-24.4662-43.6919c0-.9354.761-1.6965,1.6965-1.6965s1.6967.7611,1.6967,1.6965-.7612,1.6965-1.6967,1.6965-1.6965-.7611-1.6965-1.6965Zm24.4662,47.7959c-.9354,0-1.6964-.7612-1.6964-1.6965s.761-1.6965,1.6964-1.6965,1.6968.7611,1.6968,1.6965-.7611,1.6965-1.6968,1.6965Z"/><path class="cls-13" d="m143.2871,30.5269v22.8198c0,.0943.0375.1847.1041.2513l4.6196,4.6195v21.0879c-1.1591.1728-2.052,1.1719-2.052,2.3782,0,1.3274,1.08,2.4075,2.4075,2.4075s2.4074-1.08,2.4074-2.4075c0-1.2063-.8929-2.2055-2.052-2.3782v-21.2351c0-.0943-.0375-.1847-.1041-.2513l-4.6196-4.6196v-22.5792c1.3062-.0246,2.3619-1.0931,2.3619-2.4052,0-1.3274-1.0801-2.4074-2.4075-2.4074s-2.4075,1.08-2.4075,2.4074c0,1.0965.7376,2.0222,1.7421,2.3119Zm6.7757,51.1567c0,.9355-.7611,1.6965-1.6965,1.6965s-1.6965-.761-1.6965-1.6965.7611-1.6965,1.6965-1.6965,1.6965.761,1.6965,1.6965Zm-6.1104-55.1651c.9354,0,1.6965.761,1.6965,1.6965s-.7612,1.6965-1.6965,1.6965-1.6965-.761-1.6965-1.6965.7611-1.6965,1.6965-1.6965Z"/><path class="cls-13" d="m174.6296,11.9868v14.2659l-12.5751,12.5748c-.0177.0177-.0266.0398-.0398.06-.2695-.1045-.5612-.1641-.8671-.1641-1.3274,0-2.4075,1.08-2.4075,2.4076s1.08,2.4074,2.4075,2.4074,2.4077-1.08,2.4077-2.4074c0-.7633-.3582-1.4435-.9141-1.8848l12.5952-12.595c.0667-.0666.1041-.157.1041-.2513v-14.4131h-.7109Zm-11.7852,29.1442c0,.9355-.7612,1.6965-1.6968,1.6965s-1.6965-.761-1.6965-1.6965.7611-1.6967,1.6965-1.6967,1.6968.7611,1.6968,1.6967Z"/><path class="cls-13" d="m6.4024,64.4772c1.2335,0,2.252-.933,2.3902-2.1301h22.3914l4.6583,4.6583c.0666.0666.157.1041.2513.1041h10.7197c.0943,0,.1847-.0375.2513-.1041l10.3294-10.3294c.3903.2729.864.4344,1.3754.4344,1.3274,0,2.4075-1.08,2.4075-2.4075s-1.0801-2.4074-2.4075-2.4074-2.4075,1.08-2.4075,2.4074c0,.56.1938,1.0746.5157,1.4841l-10.2116,10.2116h-10.4253l-4.6583-4.6582c-.0666-.0666-.157-.1041-.2513-.1041H8.7687c-.205-1.1209-1.187-1.9739-2.3662-1.9739-1.3274,0-2.4075,1.08-2.4075,2.4074s1.08,2.4075,2.4075,2.4075Zm52.367-11.4709c.9355,0,1.6965.761,1.6965,1.6965s-.761,1.6965-1.6965,1.6965-1.6965-.761-1.6965-1.6965.761-1.6965,1.6965-1.6965Zm-52.367,7.3669c.9355,0,1.6965.761,1.6965,1.6965s-.761,1.6965-1.6965,1.6965-1.6965-.761-1.6965-1.6965.761-1.6965,1.6965-1.6965Z"/><path class="cls-13" d="m6.4024,57.1103c1.113,0,2.0495-.7604,2.3238-1.7883h22.4578l4.6583,4.6583c.0666.0667.157.1041.2513.1041h10.7197c.0943,0,.1847-.0375.2513-.1041l10.3383-10.3384c.3886.2691.8591.4278,1.3665.4278,1.3274,0,2.4075-1.0801,2.4075-2.4075s-1.0801-2.4076-2.4075-2.4076-2.4075,1.08-2.4075,2.4076c0,.5639.1963,1.0821.5224,1.4929l-10.2184,10.2184h-10.4252l-4.6583-4.6583c-.0666-.0667-.157-.1041-.2513-.1041H8.8053c-.0488-1.2847-1.1064-2.3157-2.4028-2.3157-1.3274,0-2.4075,1.08-2.4075,2.4074s1.08,2.4075,2.4075,2.4075Zm52.367-11.1447c.9355,0,1.6965.7611,1.6965,1.6967s-.761,1.6965-1.6965,1.6965-1.6965-.761-1.6965-1.6965.761-1.6967,1.6965-1.6967Zm-52.367,7.0407c.9355,0,1.6965.761,1.6965,1.6965s-.761,1.6965-1.6965,1.6965-1.6965-.761-1.6965-1.6965.761-1.6965,1.6965-1.6965Z"/><path class="cls-13" d="m6.4024,48.3171c1.1503,0,2.1136-.8116,2.3504-1.8919h22.4311l4.6583,4.6583c.0666.0666.157.1041.2513.1041h10.7197c.0943,0,.1847-.0375.2513-.1041l10.3345-10.3346c.3893.2707.8612.4306,1.3703.4306,1.3274,0,2.4075-1.08,2.4075-2.4074s-1.0801-2.4076-2.4075-2.4076-2.4075,1.08-2.4075,2.4076c0,.5622.1953,1.0789.5195,1.4892l-10.2154,10.2155h-10.4253l-4.6583-4.6583c-.0666-.0666-.157-.1041-.2513-.1041H8.8c-.1-1.2362-1.1361-2.2121-2.3976-2.2121-1.3274,0-2.4075,1.08-2.4075,2.4075s1.08,2.4075,2.4075,2.4075Zm52.367-11.2416c.9355,0,1.6965.7611,1.6965,1.6967s-.761,1.6965-1.6965,1.6965-1.6965-.761-1.6965-1.6965.761-1.6967,1.6965-1.6967Zm-52.367,7.1377c.9355,0,1.6965.761,1.6965,1.6965s-.761,1.6965-1.6965,1.6965-1.6965-.761-1.6965-1.6965.761-1.6965,1.6965-1.6965Z"/><path class="cls-13" d="m80.5118,39.9335V12.7778c0-.0943-.0375-.1847-.1041-.2513l-.5397-.5397h-1.0053l.9382.9382v27.0085c-1.1591.1728-2.052,1.1719-2.052,2.3782,0,1.3274,1.08,2.4075,2.4075,2.4075s2.4076-1.0801,2.4076-2.4075c0-1.2064-.8929-2.2055-2.0521-2.3782Zm-.3555,4.0748c-.9355,0-1.6965-.761-1.6965-1.6965s.761-1.6965,1.6965-1.6965,1.6966.761,1.6966,1.6965-.7611,1.6965-1.6966,1.6965Z"/><path class="cls-13" d="m73.8172,124.4869v-25.3529c0-.0943-.0375-.1847-.1041-.2513l-8.6634-8.6635c.5068-.4417.8291-1.0901.8291-1.8135,0-1.3274-1.08-2.4075-2.4075-2.4075s-2.4076,1.08-2.4076,2.4075,1.08,2.4076,2.4076,2.4076c.3429,0,.6686-.0732.9641-.203l8.6709,8.671v25.2057c-1.1591.1728-2.052,1.1719-2.052,2.3782,0,1.3274,1.08,2.4075,2.4075,2.4075s2.4075-1.08,2.4075-2.4075c0-1.2063-.893-2.2054-2.052-2.3782Zm-12.0426-36.0812c0-.9355.7611-1.6965,1.6967-1.6965s1.6965.761,1.6965,1.6965c0,.5844-.297,1.1007-.7479,1.4059-.0687.0125-.1354.0388-.1886.0919-.0073.0073-.0099.017-.0164.0248-.2249.1103-.4767.174-.7436.174-.9355,0-1.6967-.7611-1.6967-1.6967Zm11.6871,40.1559c-.9355,0-1.6965-.7611-1.6965-1.6965s.761-1.6965,1.6965-1.6965,1.6965.7611,1.6965,1.6965-.761,1.6965-1.6965,1.6965Z"/><path class="cls-13" d="m31.4838,90.1729h11.5187c.1727,1.1592,1.1719,2.0521,2.3782,2.0521,1.3274,0,2.4075-1.08,2.4075-2.4076s-1.08-2.4075-2.4075-2.4075c-1.2063,0-2.2055.893-2.3782,2.052h-11.3716l-15.3983-15.3983c.3644-.422.5865-.9702.5865-1.5702,0-1.3274-1.08-2.4074-2.4074-2.4074s-2.4076,1.08-2.4076,2.4074,1.08,2.4075,2.4076,2.4075c.4708,0,.9091-.1379,1.2805-.3724l15.5402,15.5402c.0667.0666.157.1041.2513.1041Zm-18.7687-17.6794c0-.9355.7611-1.6965,1.6967-1.6965s1.6965.761,1.6965,1.6965-.761,1.6965-1.6965,1.6965-1.6967-.761-1.6967-1.6965Zm32.6656,15.6274c.9355,0,1.6965.761,1.6965,1.6965s-.761,1.6967-1.6965,1.6967-1.6965-.7611-1.6965-1.6967.761-1.6965,1.6965-1.6965Z"/><path class="cls-13" d="m49.5632,152.8687c-1.2064,0-2.2055.8929-2.3782,2.052h-25.3529c-.0943,0-.1847.0375-.2513.1041l-8.6635,8.6634c-.4417-.5069-1.0901-.8292-1.8135-.8292-1.3274,0-2.4074,1.08-2.4074,2.4077s1.08,2.4075,2.4074,2.4075,2.4075-1.08,2.4075-2.4075c0-.3429-.0732-.6687-.2029-.9642l8.671-8.6709h25.2057c.1728,1.1591,1.1719,2.052,2.3782,2.052,1.3274,0,2.4074-1.08,2.4074-2.4075s-1.08-2.4074-2.4074-2.4074Zm-38.4594,14.0946c-.9355,0-1.6965-.7611-1.6965-1.6965s.761-1.6968,1.6965-1.6968c.5844,0,1.1007.2971,1.406.7481.0125.0686.0388.1353.0919.1884.0073.0073.0169.0099.0246.0164.1104.225.1741.4768.1741.7439,0,.9354-.761,1.6965-1.6965,1.6965Zm38.4594-9.9906c-.9355,0-1.6965-.7611-1.6965-1.6965s.761-1.6965,1.6965-1.6965,1.6965.7611,1.6965,1.6965-.761,1.6965-1.6965,1.6965Z"/><path class="cls-13" d="m181.6675,132.0331c-1.3274,0-2.4075,1.08-2.4075,2.4075,0,.5091.1599.981.4306,1.3703l-10.3346,10.3344c-.0667.0666-.1041.1571-.1041.2513v10.7198c0,.0942.0375.1847.1041.2513l4.6692,4.669c-.5789.4401-.955,1.1338-.955,1.9154,0,1.3274,1.08,2.4074,2.4075,2.4074s2.4077-1.08,2.4077-2.4074-1.08-2.4075-2.4077-2.4075c-.2865,0-.5601.0529-.8151.1451-.0135-.021-.023-.0439-.0414-.0623l-4.6585-4.6582v-10.4254l10.2156-10.2153c.4102.3243.9269.5196,1.4892.5196,1.3274,0,2.4075-1.08,2.4075-2.4075s-1.08-2.4075-2.4075-2.4075Zm-4.493,31.919c0,.9354-.7611,1.6965-1.6968,1.6965s-1.6965-.7611-1.6965-1.6965.7611-1.6965,1.6965-1.6965,1.6968.7611,1.6968,1.6965Zm4.493-27.815c-.9354,0-1.6965-.7611-1.6965-1.6965s.7611-1.6965,1.6965-1.6965,1.6965.7611,1.6965,1.6965-.7611,1.6965-1.6965,1.6965Z"/><path class="cls-13" d="m159.0808,161.5446c-.145,0-.2864.0151-.4244.0398l-4.6154-4.6152v-10.4254l10.2117-10.2115c.4094.3219.9241.5157,1.484.5157,1.3277,0,2.4077-1.08,2.4077-2.4075s-1.08-2.4075-2.4077-2.4075-2.4074,1.08-2.4074,2.4075c0,.5114.1615.9851.4344,1.3755l-10.3295,10.3293c-.0667.0666-.1041.1571-.1041.2513v10.7198c0,.0942.0375.1847.1041.2513l4.4802,4.48c-.7392.4114-1.241,1.2001-1.241,2.1044,0,1.3274,1.0801,2.4074,2.4075,2.4074s2.4075-1.08,2.4075-2.4074-1.08-2.4075-2.4075-2.4075Zm6.6558-28.8006c.9356,0,1.6968.7611,1.6968,1.6965s-.7611,1.6965-1.6968,1.6965-1.6965-.7611-1.6965-1.6965.7611-1.6965,1.6965-1.6965Zm-6.6558,32.9045c-.9354,0-1.6965-.7611-1.6965-1.6965s.7612-1.6965,1.6965-1.6965,1.6965.7611,1.6965,1.6965-.7611,1.6965-1.6965,1.6965Z"/><path class="cls-13" d="m167.3954,161.5446c-.2461,0-.4837.0375-.7075.1065-.0063-.0074-.0087-.0167-.0157-.0236l-4.6582-4.6582v-10.4254l10.2182-10.2182c.4108.3261.929.5224,1.493.5224,1.3274,0,2.4075-1.08,2.4075-2.4075s-1.0801-2.4075-2.4075-2.4075-2.4075,1.08-2.4075,2.4075c0,.5074.1587.9779.4277,1.3665l-10.3383,10.3383c-.0666.0666-.1041.1571-.1041.2513v10.7198c0,.0942.0375.1847.1041.2513l4.6119,4.6119c-.6224.4357-1.0312,1.1567-1.0312,1.9724,0,1.3274,1.08,2.4074,2.4074,2.4074s2.4077-1.08,2.4077-2.4074-1.08-2.4075-2.4077-2.4075Zm6.3298-28.8006c.9354,0,1.6965.7611,1.6965,1.6965s-.7612,1.6965-1.6965,1.6965-1.6965-.7611-1.6965-1.6965.7611-1.6965,1.6965-1.6965Zm-6.3298,32.9045c-.9354,0-1.6965-.7611-1.6965-1.6965s.7611-1.6965,1.6965-1.6965,1.6968.7611,1.6968,1.6965-.7611,1.6965-1.6968,1.6965Z"/><path class="cls-13" d="m104.0552,164.5732c-.6622,0-1.2627.2689-1.6984.7031l-5.1337-5.1338v-23.4967c0-.0942-.0375-.1847-.1041-.2513l-13.9794-13.9795c.3454-.4168.5534-.9514.5534-1.5337,0-1.3277-1.08-2.4077-2.4075-2.4077s-2.4076,1.08-2.4076,2.4077,1.0801,2.4074,2.4076,2.4074c.4889,0,.9436-.1473,1.3238-.3988l13.9029,13.903v23.4967c0,.0942.0375.1847.1041.2513l5.3129,5.313c-.1791.3365-.2815.7197-.2815,1.1267,0,1.3274,1.08,2.4075,2.4075,2.4075s2.4074-1.08,2.4074-2.4075-1.08-2.4074-2.4074-2.4074Zm-24.4663-43.6919c0-.9356.7612-1.6968,1.6967-1.6968s1.6965.7611,1.6965,1.6968-.761,1.6965-1.6965,1.6965-1.6967-.7611-1.6967-1.6965Zm24.4663,47.7959c-.9355,0-1.6965-.7611-1.6965-1.6965s.761-1.6965,1.6965-1.6965,1.6965.7611,1.6965,1.6965-.761,1.6965-1.6965,1.6965Z"/><path class="cls-13" d="m128.3696,118.4891c.379.2491.8315.3952,1.318.3952,1.3274,0,2.4075-1.08,2.4075-2.4075s-1.08-2.4075-2.4075-2.4075-2.4075,1.0801-2.4075,2.4075c0,.5847.2099,1.121.5578,1.5386l-5.6882,5.6879c-.0667.0667-.1041.1571-.1041.2513v25.6964c-1.159.1728-2.052,1.1719-2.052,2.3782,0,1.3274,1.08,2.4074,2.4074,2.4074s2.4077-1.08,2.4077-2.4074c0-1.2064-.893-2.2055-2.0522-2.3782v-25.5492l5.613-5.6128Zm1.318-3.7088c.9354,0,1.6965.7612,1.6965,1.6965s-.7611,1.6965-1.6965,1.6965-1.6965-.7611-1.6965-1.6965.7611-1.6965,1.6965-1.6965Zm-5.5897,37.249c0,.9354-.7611,1.6965-1.6968,1.6965s-1.6965-.7611-1.6965-1.6965.7611-1.6965,1.6965-1.6965,1.6968.7611,1.6968,1.6965Z"/><path class="cls-13" d="m142.9041,125.826c-1.3274,0-2.4074,1.08-2.4074,2.4075,0,1.2063.8929,2.2054,2.052,2.3782v24.1191l-8.4744,8.4744c-.3776-.2464-.8274-.391-1.3109-.391-1.3274,0-2.4075,1.08-2.4075,2.4075s1.08,2.4075,2.4075,2.4075,2.4075-1.08,2.4075-2.4075c0-.5876-.2122-1.1261-.5632-1.5445l8.5479-8.5479c.0666-.0666.1041-.1571.1041-.2513v-24.2662c1.1591-.1728,2.052-1.1719,2.052-2.3782,0-1.3274-1.08-2.4075-2.4075-2.4075Zm-10.1408,41.0922c-.9354,0-1.6965-.7611-1.6965-1.6965s.7611-1.6965,1.6965-1.6965c.3982,0,.764.1388,1.0538.3694.0102.0137.0156.0298.0281.0423.025.025.055.0402.0846.0562.3257.3093.5301.7452.5301,1.2287,0,.9354-.7612,1.6965-1.6965,1.6965Zm10.1408-36.9882c-.9354,0-1.6965-.7611-1.6965-1.6965s.7611-1.6965,1.6965-1.6965,1.6965.7611,1.6965,1.6965-.7611,1.6965-1.6965,1.6965Z"/><path class="cls-13" d="m130.7229,80.3281c-1.3274,0-2.4075,1.08-2.4075,2.4075s1.0801,2.4076,2.4075,2.4076c.6121,0,1.1699-.2315,1.5952-.6091l14.0812,14.0811c.0666.0667.1571.1041.2513.1041h20.4417l11.9634,11.9634c.0667.0667.1571.1041.2513.1041h28.0238c.1728,1.1591,1.1719,2.052,2.3782,2.052,1.3274,0,2.4075-1.08,2.4075-2.4075s-1.08-2.4077-2.4075-2.4077c-1.2064,0-2.2055.893-2.3782,2.0522h-27.8765l-11.9634-11.9634c-.0667-.0666-.1571-.1041-.2513-.1041h-20.4417l-14.0217-14.0216c.2234-.3652.3546-.7926.3546-1.2511,0-1.3274-1.08-2.4075-2.4077-2.4075Zm78.9861,28.4064c.9354,0,1.6965.7612,1.6965,1.6968s-.7611,1.6965-1.6965,1.6965-1.6965-.7611-1.6965-1.6965.7612-1.6968,1.6965-1.6968Zm-78.9861-24.3024c-.9354,0-1.6965-.7611-1.6965-1.6966s.7612-1.6965,1.6965-1.6965,1.6968.761,1.6968,1.6965-.7611,1.6966-1.6968,1.6966Z"/><path class="cls-13" d="m179.0557,118.5504c.0667.0667.1571.1041.2513.1041h28.0238c.1728,1.159,1.1719,2.052,2.3782,2.052,1.3274,0,2.4075-1.0801,2.4075-2.4075s-1.08-2.4075-2.4075-2.4075c-1.2063,0-2.2054.8929-2.3782,2.052h-27.8766l-11.9634-11.9632c-.0667-.0667-.1571-.1041-.2513-.1041h-20.4417l-14.0217-14.0217c.2234-.3652.3546-.7926.3546-1.2511,0-1.3274-1.08-2.4075-2.4077-2.4075s-2.4075,1.0801-2.4075,2.4075,1.0801,2.4076,2.4075,2.4076c.6121,0,1.1699-.2315,1.5952-.6091l14.0812,14.0812c.0666.0666.1571.1041.2513.1041h20.4417l11.9634,11.9632Zm30.6533-1.9478c.9354,0,1.6965.7611,1.6965,1.6965s-.7611,1.6965-1.6965,1.6965-1.6965-.7612-1.6965-1.6965.7612-1.6965,1.6965-1.6965Zm-78.9861-24.3025c-.9354,0-1.6965-.7611-1.6965-1.6967s.7612-1.6965,1.6965-1.6965,1.6968.761,1.6968,1.6965-.7611,1.6967-1.6968,1.6967Z"/><path class="cls-13" d="m164.7137,81.5334c-.1728-1.1591-1.1719-2.052-2.3782-2.052-1.3274,0-2.4075,1.08-2.4075,2.4075s1.0801,2.4076,2.4075,2.4076c1.2064,0,2.2055-.8929,2.3782-2.0521h22.093c.0942,0,.1847-.0375.2513-.1041l5.7124-5.7123c.4171.3463.9523.5549,1.5354.5549,1.3277,0,2.4077-1.08,2.4077-2.4076s-1.08-2.4075-2.4077-2.4075-2.4074,1.08-2.4074,2.4075c0,.4881.1469.9421.3975,1.3219l-5.6364,5.6363h-21.9458Zm-2.3782,2.0521c-.9354,0-1.6965-.7611-1.6965-1.6966s.7611-1.6965,1.6965-1.6965,1.6965.761,1.6965,1.6965-.7611,1.6966-1.6965,1.6966Zm31.9703-10.7068c.9356,0,1.6968.761,1.6968,1.6965s-.7611,1.6966-1.6968,1.6966-1.6965-.7611-1.6965-1.6966.7611-1.6965,1.6965-1.6965Z"/><path class="cls-13" d="m201.3834,66.0882l-3.9994-3.9994c-.0667-.0666-.1571-.1041-.2513-.1041h-11.9817c-.0942,0-.1847.0375-.2513.1041l-10.1283,10.1281c-.355-.2065-.7661-.3268-1.2055-.3268-1.3274,0-2.4075,1.08-2.4075,2.4074s1.0801,2.4076,2.4075,2.4076,2.4075-1.08,2.4075-2.4076c0-.6306-.2457-1.2036-.644-1.6333l9.9687-9.9686h11.6873l3.9994,3.9994c.0666.0667.1571.1041.2513.1041h21.1875c.1598,1.1736,1.166,2.0818,2.3828,2.0818,1.3274,0,2.4075-1.08,2.4075-2.4075s-1.08-2.4074-2.4075-2.4074c-1.196,0-2.1883.8777-2.3736,2.0221h-21.0494Zm-27.8175,9.906c-.9354,0-1.6965-.7611-1.6965-1.6967s.7612-1.6965,1.6965-1.6965,1.6965.761,1.6965,1.6965-.7611,1.6967-1.6965,1.6967Zm51.2406-11.2172c.9354,0,1.6965.761,1.6965,1.6965s-.7611,1.6965-1.6965,1.6965-1.6965-.761-1.6965-1.6965.7611-1.6965,1.6965-1.6965Z"/><path class="cls-13" d="m183.6003,11.9868v14.2659l-12.5751,12.5748c-.0177.0177-.0267.0399-.0399.06-.2694-.1045-.5611-.1642-.867-.1642-1.3274,0-2.4075,1.08-2.4075,2.4076s1.08,2.4074,2.4075,2.4074,2.4074-1.08,2.4074-2.4074c0-.7633-.3581-1.4434-.9139-1.8848l12.5953-12.595c.0666-.0666.1041-.157.1041-.2513v-14.4131h-.7109Zm-11.7855,29.1442c0,.9355-.7611,1.6965-1.6965,1.6965s-1.6965-.761-1.6965-1.6965.7611-1.6967,1.6965-1.6967,1.6965.7611,1.6965,1.6967Z"/><path class="cls-13" d="m198.537,53.7961c1.3274,0,2.4075-1.0801,2.4075-2.4075,0-.6961-.2987-1.3222-.7726-1.7622l8.4242-8.4242c.0667-.0666.1041-.157.1041-.2513v-22.3641c1.2044-.1312,2.1452-1.1537,2.1452-2.3925,0-1.3274-1.08-2.4075-2.4074-2.4075s-2.4075,1.08-2.4075,2.4075c0,1.1739.8452,2.1529,1.9587,2.3639v22.2455l-8.4154,8.4154c-.3145-.151-.6653-.2381-1.0369-.2381-1.3276,0-2.4077,1.08-2.4077,2.4076s1.0801,2.4075,2.4077,2.4075Zm8.2045-37.6018c0-.9355.7611-1.6965,1.6965-1.6965s1.6965.761,1.6965,1.6965-.7611,1.6965-1.6965,1.6965-1.6965-.761-1.6965-1.6965Zm-8.2045,33.4977c.9354,0,1.6965.7611,1.6965,1.6967s-.7611,1.6965-1.6965,1.6965-1.6968-.761-1.6968-1.6965.7612-1.6967,1.6968-1.6967Z"/><path class="cls-13" d="m192.1748,11.9868v14.2659l-12.5751,12.5748c-.0177.0177-.0267.0399-.0399.06-.2694-.1045-.5611-.1642-.867-.1642-1.3274,0-2.4075,1.08-2.4075,2.4076s1.08,2.4074,2.4075,2.4074,2.4074-1.08,2.4074-2.4074c0-.7633-.3581-1.4434-.9139-1.8848l12.5953-12.595c.0666-.0666.1041-.157.1041-.2513v-14.4131h-.7109Zm-11.7855,29.1442c0,.9355-.7611,1.6965-1.6965,1.6965s-1.6965-.761-1.6965-1.6965.7611-1.6967,1.6965-1.6967,1.6965.7611,1.6965,1.6967Z"/><path class="cls-13" d="m13.0705,86.3505c1.1591-.1728,2.052-1.1719,2.052-2.3782,0-1.3275-1.08-2.4076-2.4075-2.4076s-2.4074,1.08-2.4074,2.4076c0,1.2063.8929,2.2054,2.052,2.3782v25.7704c0,.0241.0025.0477.0071.0705-1.1625.1697-2.0591,1.1705-2.0591,2.3794,0,1.3274,1.08,2.4074,2.4074,2.4074s2.4075-1.08,2.4075-2.4074c0-1.2089-.8966-2.2097-2.0591-2.3794.0046-.0228.0071-.0464.0071-.0705v-25.7704Zm-2.052-2.3782c0-.9355.761-1.6967,1.6965-1.6967s1.6965.7611,1.6965,1.6967-.761,1.6965-1.6965,1.6965-1.6965-.761-1.6965-1.6965Zm3.3931,30.5985c0,.9354-.761,1.6965-1.6965,1.6965s-1.6965-.7611-1.6965-1.6965.761-1.6967,1.6965-1.6967,1.6965.7611,1.6965,1.6967Z"/><path class="cls-13" d="m4.0818,26.5185c1.2063,0,2.2055-.893,2.3782-2.052h25.4442c.1728,1.159,1.1719,2.052,2.3782,2.052,1.3274,0,2.4074-1.0801,2.4074-2.4075s-1.08-2.4075-2.4074-2.4075c-1.2064,0-2.2055.8929-2.3782,2.052H6.46c-.1728-1.1591-1.1719-2.052-2.3782-2.052-1.3274,0-2.4075,1.08-2.4075,2.4075s1.08,2.4075,2.4075,2.4075Zm30.2007-4.104c.9355,0,1.6965.761,1.6965,1.6965s-.761,1.6965-1.6965,1.6965-1.6965-.761-1.6965-1.6965.761-1.6965,1.6965-1.6965Zm-30.2007,0c.9355,0,1.6965.761,1.6965,1.6965s-.761,1.6965-1.6965,1.6965-1.6965-.761-1.6965-1.6965.761-1.6965,1.6965-1.6965Z"/><path class="cls-13" d="m226.8732,98.3292c0-1.3274-1.0801-2.4075-2.4075-2.4075s-2.4075,1.0801-2.4075,2.4075c0,1.2065.8929,2.2056,2.052,2.3783v25.4442c-1.1591.1728-2.052,1.1719-2.052,2.3782,0,1.3274,1.08,2.4074,2.4075,2.4074s2.4075-1.08,2.4075-2.4074c0-1.2064-.8929-2.2055-2.052-2.3782v-25.4442c1.1591-.1728,2.052-1.1719,2.052-2.3783Zm-4.104,0c0-.9355.7611-1.6965,1.6965-1.6965s1.6965.761,1.6965,1.6965-.7612,1.6967-1.6965,1.6967-1.6965-.7611-1.6965-1.6967Zm3.3931,30.2008c0,.9354-.7612,1.6965-1.6965,1.6965s-1.6965-.7611-1.6965-1.6965.7611-1.6965,1.6965-1.6965,1.6965.7611,1.6965,1.6965Z"/><path class="cls-13" d="m70.7961,153.0835c-.5491,0-1.0542.1869-1.4597.4975l-6.191-6.1911v-9.0876c0-.0942-.0375-.1847-.1041-.2513l-5.3693-5.3694c.2631-.3859.4174-.8516.4174-1.3528,0-1.3274-1.0801-2.4075-2.4075-2.4075s-2.4075,1.08-2.4075,2.4075,1.08,2.4077,2.4075,2.4077c.5702,0,1.0939-.2002,1.5068-.5328l5.2458,5.2459v9.0876c0,.0942.0375.1847.1041.2513l6.3027,6.3028c-.2837.395-.4526.8775-.4526,1.3998,0,1.3274,1.08,2.4075,2.4075,2.4075s2.4076-1.08,2.4076-2.4075-1.08-2.4075-2.4076-2.4075Zm-16.8108-21.7548c0-.9354.761-1.6965,1.6965-1.6965s1.6965.7611,1.6965,1.6965c0,.3943-.1364.7568-.3629,1.0452-.0326.0166-.0652.0341-.0925.0614-.0372.0371-.0627.0808-.0799.127-.3038.2863-.7119.4631-1.1613.4631-.9355,0-1.6965-.7611-1.6965-1.6968Zm16.8108,25.8588c-.9355,0-1.6965-.7611-1.6965-1.6965s.761-1.6965,1.6965-1.6965,1.6966.7611,1.6966,1.6965-.7611,1.6965-1.6966,1.6965Z"/><path class="cls-13" d="m243.3471,162.6397c-1.2065,0-2.2057.8929-2.3784,2.052h-16.5125l-9.2644-9.2644c-.0666-.0666-.1571-.1041-.2513-.1041h-9.5702c-.1728-1.1591-1.1719-2.052-2.3782-2.052-1.3274,0-2.4075,1.08-2.4075,2.4075s1.08,2.4075,2.4075,2.4075c1.2063,0,2.2055-.893,2.3782-2.052h9.423l9.2644,9.2644c.0667.0667.1571.1041.2513.1041h16.6597c.1728,1.159,1.1719,2.052,2.3784,2.052,1.3274,0,2.4075-1.08,2.4075-2.4074s-1.08-2.4075-2.4075-2.4075Zm-40.3551-5.2645c-.9354,0-1.6965-.7612-1.6965-1.6965s.7611-1.6965,1.6965-1.6965,1.6965.7611,1.6965,1.6965-.7611,1.6965-1.6965,1.6965Zm40.3551,9.3685c-.9356,0-1.6968-.7611-1.6968-1.6965s.7611-1.6965,1.6968-1.6965,1.6965.7611,1.6965,1.6965-.7611,1.6965-1.6965,1.6965Z"/><path class="cls-13" d="m243.3471,155.4356c-1.2065,0-2.2057.8929-2.3784,2.052h-16.5125l-9.2644-9.2644c-.0666-.0666-.1571-.1041-.2513-.1041h-9.5702c-.1728-1.1591-1.1719-2.052-2.3782-2.052-1.3274,0-2.4075,1.08-2.4075,2.4075s1.08,2.4075,2.4075,2.4075c1.2063,0,2.2055-.893,2.3782-2.052h9.423l9.2644,9.2644c.0667.0667.1571.1041.2513.1041h16.6597c.1728,1.159,1.1719,2.052,2.3784,2.052,1.3274,0,2.4075-1.0801,2.4075-2.4075s-1.08-2.4075-2.4075-2.4075Zm-40.3551-5.2645c-.9354,0-1.6965-.7611-1.6965-1.6965s.7611-1.6965,1.6965-1.6965,1.6965.7611,1.6965,1.6965-.7611,1.6965-1.6965,1.6965Zm40.3551,9.3685c-.9356,0-1.6968-.7612-1.6968-1.6965s.7611-1.6965,1.6968-1.6965,1.6965.7611,1.6965,1.6965-.7611,1.6965-1.6965,1.6965Z"/><path class="cls-13" d="m243.3471,148.2315c-1.2065,0-2.2057.8929-2.3784,2.052h-16.5125l-9.2644-9.2644c-.0666-.0667-.1571-.1041-.2513-.1041h-9.5702c-.1728-1.1591-1.1719-2.052-2.3782-2.052-1.3274,0-2.4075,1.08-2.4075,2.4075s1.08,2.4075,2.4075,2.4075c1.2063,0,2.2055-.8929,2.3782-2.052h9.423l9.2644,9.2644c.0667.0667.1571.1041.2513.1041h16.6597c.1728,1.159,1.1719,2.052,2.3784,2.052,1.3274,0,2.4075-1.0801,2.4075-2.4075s-1.08-2.4075-2.4075-2.4075Zm-40.3551-5.2645c-.9354,0-1.6965-.7611-1.6965-1.6965s.7611-1.6965,1.6965-1.6965,1.6965.7611,1.6965,1.6965-.7611,1.6965-1.6965,1.6965Zm40.3551,9.3685c-.9356,0-1.6968-.7612-1.6968-1.6965s.7611-1.6965,1.6968-1.6965,1.6965.7611,1.6965,1.6965-.7611,1.6965-1.6965,1.6965Z"/><path class="cls-13" d="m80.8493,139.5257c1.159-.1728,2.052-1.1719,2.052-2.3782,0-1.3274-1.08-2.4075-2.4075-2.4075s-2.4075,1.08-2.4075,2.4075c0,1.2063.8929,2.2054,2.052,2.3782v16.2464c0,.0196.0027.0384.0058.0571-1.1618.1703-2.0578,1.1707-2.0578,2.3791,0,1.3274,1.08,2.4075,2.4075,2.4075s2.4075-1.0801,2.4075-2.4075c0-1.2083-.8959-2.2088-2.0578-2.3791.003-.0187.0058-.0375.0058-.0571v-16.2464Zm-2.052-2.3782c0-.9354.761-1.6965,1.6965-1.6965s1.6965.7611,1.6965,1.6965-.761,1.6965-1.6965,1.6965-1.6965-.7611-1.6965-1.6965Zm3.3931,21.0607c0,.9354-.761,1.6965-1.6965,1.6965s-1.6965-.7611-1.6965-1.6965.761-1.6965,1.6965-1.6965,1.6965.7611,1.6965,1.6965Z"/><path class="cls-13" d="m99.4155,89.9238c1.1591-.1727,2.0521-1.1719,2.0521-2.3783,0-1.3274-1.08-2.4075-2.4076-2.4075s-2.4075,1.0801-2.4075,2.4075c0,1.2065.8929,2.2056,2.052,2.3783v16.2464c0,.0195.0027.0384.0057.057-1.1618.1703-2.0577,1.1707-2.0577,2.3791,0,1.3274,1.08,2.4075,2.4075,2.4075s2.4076-1.08,2.4076-2.4075c0-1.2083-.8959-2.2088-2.0579-2.3791.003-.0187.0058-.0375.0058-.057v-16.2464Zm-2.052-2.3783c0-.9355.761-1.6965,1.6965-1.6965s1.6966.761,1.6966,1.6965-.7611,1.6967-1.6966,1.6967-1.6965-.7611-1.6965-1.6967Zm3.3932,21.0609c0,.9354-.7611,1.6965-1.6966,1.6965s-1.6965-.7611-1.6965-1.6965.761-1.6965,1.6965-1.6965,1.6966.7611,1.6966,1.6965Z"/><path class="cls-13" d="m121.0304,94.4655c0-1.3275-1.0801-2.4076-2.4075-2.4076s-2.4075,1.08-2.4075,2.4076c0,1.2063.8929,2.2054,2.052,2.3782v9.5583l-8.0057,8.0056c-.0667.0667-.1041.1571-.1041.2513v11.9584c-1.159.1728-2.0519,1.1719-2.0519,2.3782,0,1.3274,1.0799,2.4075,2.4073,2.4075s2.4077-1.0801,2.4077-2.4075c0-1.2064-.893-2.2055-2.0522-2.3782v-11.8112l8.0057-8.0056c.0667-.0666.1041-.157.1041-.2513v-9.7055c1.159-.1728,2.052-1.1719,2.052-2.3782Zm-8.8205,34.53c0,.9354-.7611,1.6965-1.6968,1.6965s-1.6964-.7612-1.6964-1.6965.761-1.6965,1.6964-1.6965,1.6968.7611,1.6968,1.6965Zm4.7165-34.53c0-.9355.7611-1.6967,1.6965-1.6967s1.6965.7611,1.6965,1.6967-.7612,1.6965-1.6965,1.6965-1.6965-.761-1.6965-1.6965Z"/><path class="cls-13" d="m215.1654,22.4724v22.2455l-8.4154,8.4156c-.3146-.151-.6654-.2381-1.0371-.2381-1.3274,0-2.4075,1.08-2.4075,2.4075s1.08,2.4075,2.4075,2.4075,2.4077-1.0801,2.4077-2.4075c0-.696-.2987-1.3221-.7726-1.7621l8.4242-8.4243c.0666-.0666.1041-.157.1041-.2513v-22.3641c1.2045-.1312,2.1453-1.1537,2.1453-2.3925,0-1.3274-1.0801-2.4075-2.4075-2.4075s-2.4075,1.08-2.4075,2.4075c0,1.1739.8452,2.1529,1.9587,2.3639Zm-9.4525,34.5269c-.9354,0-1.6965-.761-1.6965-1.6965s.7611-1.6965,1.6965-1.6965,1.6968.761,1.6968,1.6965-.7611,1.6965-1.6968,1.6965Zm9.9013-38.5874c.9354,0,1.6965.761,1.6965,1.6965s-.7612,1.6965-1.6965,1.6965-1.6965-.761-1.6965-1.6965.7611-1.6965,1.6965-1.6965Z"/></g><path class="cls-19" d="m31.5182,64.3884v-15.9386l18.5172-.2335c-.359-2.193-1.7838-4.9681-4.3-6.9713-2.9242-2.328-9.0489-4.6401-9.0489-4.6401,0,0-3.4026-.6997-6.629-.1183-4.9955.9002-8.3298,5.8745-10.6767,12.2257-3.0411,8.2301-4.5815,14.4771-2.271,16.1304,2.3105,1.6534,14.4083,3.2083,14.4083,3.2083v-3.6626Z"/><g><path class="cls-29" d="m40.4598,29.9644s.0166-1.0036.4123-2.0958,2.0083-.5556,2.2483-.4567c.24.099-.8998,1.25-.8998,1.25l-1.7608,1.3025Z"/><path class="cls-3" d="m51.0959,36.5621c.411-.7359.4247-2.2075,1.0885-3.5221s1.4448-2.6465,1.4448-2.6465c0,0-4.4893-2.7137-10.4921-2.8342,0,0-.5897.4858-.9165,1.1027-.0796.1503-.0845-.5551-.5931-.6232-.3512-.047-1.095.0959-1.1678,1.9257-.0764,1.9202.753,1.8048.8482,2.1731.0952.3683-.1618,1.6187-1.3016,2.7277-1.1398,1.1089-2.289,1.8285-3.4214,1.7664,0,0-.7812,2.2653,1.9273,4.5088,2.7085,2.2435,5.4779.9191,5.7861.754,0,0-.4294-.4606.2009-1.4446.1659-.259.2701-.4269.3391-.5358-.532-.4114-1.0079-.8937-1.4075-1.4964-.7913-1.1938-1.3864-2.5555-1.6951-3.9539-.0447-.2028.2683-.2803.3132-.0772.2855,1.2936.8216,2.5286,1.5225,3.6517.5057.8103,1.0887,1.4932,1.8696,1.9075.5139.2727,1.6381.5578,2.5217.011,1.3618-.8426,2.722-2.6587,3.133-3.3947Z"/><path class="cls-19" d="m40.872,27.8686c.1095.0805,2.641-.4852,6.9883.7561,4.3473,1.2412,5.6849,2.4059,5.8642,2.4232s.5795-.6389.8727-1.234c.2932-.5952.3885-1.6585.3095-1.7143-.079-.0559-4.7113-2.0548-6.6086-2.6214-1.8973-.5665-6.739-.7348-6.9305-.6058-.1915.129-.5772.9323-.6889,1.4643-.1117.532-.1306,1.2937.1934,1.5319Z"/><path class="cls-19" d="m41.75,25.0467s1.344-3.2208,4.5363-3.5387,4.9039.725,6.2624,1.5416c1.3585.8167,2.4411,3.0141,2.0878,4.775s-12.8865-2.7778-12.8865-2.7778Z"/><path class="cls-19" d="m53.5581,32.2028c-.0536-.093-1.9421-1.3825-4.5656-2.0349-2.6236-.6524-5.042-1.0496-6.4498-1.1362-.1796-.011-.2805,2.0327.2462,2.8459s1.7297,1.9944,3.0172,1.6928,2.0773-1.3406,2.6348-1.1942c.5576.1464.5942,1.6137,1.1569,2.1034.5627.4897,1.5934.8238,2.2053.2832.6118-.5406,1.8087-2.467,1.7551-2.56Zm-6.9793.0012c-1.1756.5904-2.788-.4277-2.4787-1.7768.0203-.0884.0699-.1402.1306-.1636.224-.1696.7163-.116.9819-.0876.4193.0448.8367.1336,1.2377.2643.2803.0914.7043.1926.8695.4668.3002.498-.3373,1.0942-.741,1.2969Zm5.2227,1.4959c-.5889.3551-1.1816.339-1.6939-.1373-.4088-.38-.5889-.8829-.3868-1.3893.0062-.0978.0619-.1916.1552-.2333.0358-.0186.0743-.0258.1131-.0218.006.0001.0115-.0007.0176-.0002.401.0312.7882.1172,1.1707.2405.3538.1141.8508.2289,1.1465.4603.484.3787-.1944.8833-.5224,1.0811Z"/><path class="cls-18" d="m46.4203,37.0761c-.5063-.3823-.8588-.9072-1.0191-1.5182-.0165-.0628-.0609-.1086-.1227-.1252-.0637-.0174-.1333-.0006-.1774.043-.0394.039-.0532.0946-.038.1524.1857.7083.575,1.2903,1.157,1.7298.0076.0058.0153.0107.023.015.0794.0436.1626.0108.2081-.0494.0522-.0691.0591-.1793-.031-.2473Z"/><path class="cls-18" d="m48.5428,34.4182c-.0581-.0193-.1186-.0063-.1658.0357-.1323.1176-.277.2129-.4419.2916-.0964.0459-.111.1448-.0757.2188.0166.0349.0444.0655.0793.0847.0439.0241.099.03.1564.0027.1852-.0884.3592-.2043.517-.3445.0459-.0407.0654-.0963.0537-.1529-.0127-.0621-.061-.1158-.123-.1361Z"/><path class="cls-18" d="m46.3946,30.9523c-.5187.1259-1.0169-.0276-1.4717-.2797-.1335-.074-.2532.1306-.1196.2046.1463.0811.2977.1482.4515.2046-.0516.2443.0947.5007.3433.5538.1115.0238.2298-.0011.3225-.0673.1238-.0884.1342-.1981.1788-.331.1192-.0141.2382-.0275.3582-.0567.1481-.0359.0854-.2645-.063-.2285Z"/><path class="cls-18" d="m51.6336,32.8042c-.3174-.037-.7213-.1931-.9376-.4388-.101-.1147-.268.0534-.1676.1676.0419.0476.0905.0907.1417.1317-.0069.0104-.0137.0211-.0175.0354-.0259.0976-.0597.2052-.0171.3027.0378.0864.1287.1574.2096.2014.2057.1117.3746.0116.4791-.1766.0082-.0148.0076-.0291.0096-.0436.102.0269.2034.0461.2997.0573.1512.0176.1499-.2195,0-.237Z"/></g><g class="cls-33"><path class="cls-20" d="m110.1189,171.6616c-13.7546.1897-45.3575-.2511-65.338.0451-18.195.2697-41.1583.4833-42.9878,5.9149-2.0744,6.1586,23.2846,6.0726,57.4088,7.8292,25.1921,1.2968,39.7686,4.551,56.2969,5.1544,33.8644,1.2364,43.1277-4.6422,56.6136-6.2205,23.9577-2.804,59.257,2.2512,59.2553-4.4013-.0021-8.2148-21.4113-9.6986-121.2486-8.3218Z"/></g><g><polygon class="cls-28" points="27.073 49.4729 27.073 130.6308 191.7449 130.4927 191.7449 49.4729 27.073 49.4729"/><g><path class="cls-16" d="m191.7082,49.4729h.0367v-5.1705c0-1.5525-1.2593-2.8143-2.8144-2.8143H29.8874c-1.5551,0-2.8144,1.2619-2.8144,2.8143v5.1705h164.6352Z"/><g><path class="cls-16" d="m27.073,130.6308v14.8571c0,1.5551,1.2593,2.8143,2.8144,2.8143h159.0432c1.5551,0,2.8144-1.2593,2.8144-2.8143v-14.9952l-164.6719.1381Z"/><path class="cls-16" d="m127.9934,166.5399c-3.4488-2.1153-3.51-7.373-3.51-7.373v-10.5459h-30.1488v10.415s-.1595,5.3744-3.7116,7.5039h37.3704Z"/><path class="cls-16" d="m132.4028,166.89h-.254c-.2248,0-.442-.0078-.6539-.021h-44.9901c-.0034,0-.0034.021-.0034.021h-.0864c-1.254,0-2.2698,1.0158-2.2698,2.2698v7.5058c0,1.2514,1.0158,2.2672,2.2698,2.2672h45.9877c1.254,0,2.2698-1.0158,2.2698-2.2672v-7.5058c0-1.254-1.0158-2.2698-2.2698-2.2698Z"/></g></g></g><g class="cls-35"><rect class="cls-12" x="36.8497" y="87.1785" width="74.9082" height="31.0631" rx="11.4871" ry="11.4871"/></g><path class="cls-7" d="m188.6513,41.251H29.9176c-1.8365,0-3.3307,1.4942-3.3307,3.3308v100.6267c0,1.8365,1.4942,3.3306,3.3307,3.3306h64.0882v8.5234c.0021.053.1601,5.3449-2.4262,8.0254-.9886,1.0245-2.2652,1.544-3.7944,1.544h-1.2376c-1.4553,0-2.6392,1.1839-2.6392,2.6393v7.2911c0,1.4554,1.1839,2.6393,2.6392,2.6393h45.7229c1.4552,0,2.6391-1.1839,2.6391-2.6393v-7.2911c0-1.4554-1.1839-2.6393-2.6391-2.6393h-1.3661c-1.5292,0-2.8057-.5195-3.7944-1.544-2.5863-2.6805-2.4283-7.9724-2.4262-8.0339v-8.5148h63.9675c1.8365,0,3.3306-1.494,3.3306-3.3306V44.5818c0-1.8367-1.494-3.3308-3.3306-3.3308Zm-56.3809,125.8548c1.1939,0,2.1652.9715,2.1652,2.1654v7.2911c0,1.1939-.9713,2.1654-2.1652,2.1654h-45.7229c-1.1939,0-2.1653-.9715-2.1653-2.1654v-7.2911c0-1.1939.9714-2.1654,2.1653-2.1654h45.7229Zm-8.0603-10.0605c-.0083.2249-.1682,5.5439,2.5579,8.3704.5126.5316,1.0972.9346,1.7452,1.2161h-38.3368c.6479-.2815,1.2325-.6845,1.7452-1.2161,2.7262-2.8265,2.5661-8.1455,2.5581-8.3619v-8.5148h29.7302l.0002,8.5063Zm67.2978-11.8369c0,1.5753-1.2816,2.8566-2.8566,2.8566H29.9176c-1.5752,0-2.8568-1.2814-2.8568-2.8566V44.5818c0-1.5753,1.2816-2.8569,2.8568-2.8569h158.7337c1.575,0,2.8566,1.2816,2.8566,2.8569v100.6267Z"/><g><path class="cls-10" d="m166.6718,51.3331c-1.0111-.3-2.0774-.1891-3.0043.3131-.9268.5022-1.6023,1.3351-1.9025,2.3453-.3004,1.0103-.1893,2.0769.3129,3.0035.5019.9266,1.3351,1.6022,2.3452,1.9025.3724.1107.7523.1655,1.1302.1655.6473,0,1.2883-.1611,1.8736-.4781.9264-.5018,1.6019-1.3346,1.902-2.3447.3006-1.0103.1895-2.0771-.3124-3.004-.502-.927-1.3346-1.6027-2.3448-1.903Zm1.9759,4.7043c-.2462.8283-.8,1.5109-1.5595,1.9224-.7591.4116-1.634.5026-2.4625.2562-.8283-.2461-1.5112-.8-1.9226-1.5596-.4117-.7596-.5026-1.634-.2566-2.4623.2462-.8282.8-1.511,1.56-1.9227.48-.2601,1.0057-.3923,1.5368-.3923.3097,0,.6209.0449.9259.1356.8282.2461,1.5109.8001,1.9224,1.56.4115.76.5024,1.6345.2562,2.4627Z"/><path class="cls-10" d="m157.87,56.7155c-.1048-.6277-.2335-1.3656-.187-1.9805.0123-.1654-.0911-.3117-.2413-.3624-.0395-.0378-.0871-.0681-.1431-.0847l-2.6801-.7969,1.1536-3.8818,3.0999.9209c.0307.0091.0614.0125.0919.0133.0139.0014.0187,0,.0237-.0003.0174-.0007.0343-.0027.0512-.0059.0083-.0016.0165-.0031.0248-.0052.0175-.0046.0343-.0109.0508-.0182.007-.003.0141-.0054.0209-.0089.0228-.0117.0446-.0254.0644-.0418.0212-.018.0385-.0369.0543-.0573.2871-.3863.5197-.6121.8688-.9379h-1.0117c-.0903.0973-.1791.1981-.2699.3113l-1.0478-.3113h-2.7209l-1.2366,4.1611c-.056.1882.0511.386.2393.442l2.8852.858c-.0164.4865.0337.8741.1082,1.333l-2.6234,1.2831c-.0847.0414-.1495.1149-.1801.204-.0305.0892-.0245.1869.0169.2716l2.0923,4.2765c.0414.0847.1148.1495.2041.18.0375.0128.0764.0192.1152.0192.0537,0,.1071-.0122.1562-.0362l2.6466-1.2949c.3388.3533.6232.5956,1.0177.8698l-.8715,2.9328c-.056.1881.0511.386.2393.442l2.2816.6781s2.214.6578,2.214.6578c.0331.0098.0671.0147.1011.0147.0586,0,.1169-.0145.1694-.0429.0828-.0449.1444-.1209.1712-.2113l.8711-2.9322c.4814-.0143.8522-.062,1.3279-.1729l1.5096,2.5302c.0484.081.1268.1394.2182.1624.0287.0073.0578.0109.087.0109.0637,0,.1266-.0171.1821-.0502l4.0885-2.4397c.081-.0482.1393-.1268.1625-.2182.0231-.0914.009-.1883-.0393-.2691l-1.496-2.5069c.3127-.3435.5666-.6415.8186-1.0583l2.8858.8573c.0338.0101.0678.0148.1014.0148.1532,0,.2946-.0999.3404-.2543l1.3566-4.5625c.056-.1883-.0512-.3861-.2393-.4421l-3.2082-.9539c-.034-.3408-.0917-.6265-.1664-.9403l2.5549-1.4804c.0817-.0472.1409-.125.1652-.2161.0243-.0911.0113-.188-.0359-.2696l-1.0703-1.8471h-.8216l1.0987,1.8959-2.3029,1.3343c-.0666.0386-.1152.0958-.1447.1609-.1415.0743-.2204.237-.1804.3991.1109.4499.1858.7804.2143,1.256.0024.0208.0048.0329.0072.0452.002.0106.0037.0213.0066.0314.0031.0107.0073.0209.0114.0312.0043.0109.0083.0218.0136.0321.0048.0095.0107.0182.0163.0273.0062.0099.0123.0197.0195.0289.0068.0087.0143.0166.0218.0247.0077.0082.0153.0163.0237.0238.0083.0074.0173.014.0264.0206.0094.0068.0187.0134.0287.0192.0091.0054.0186.01.0283.0146.0115.0055.0232.0103.0354.0145.005.0017.0093.0044.0144.0059l3.1006.9219-1.1541,3.8814-2.6805-.7964c-.0561-.0166-.1125-.0173-.1663-.0071-.1534-.0394-.3198.0265-.3998.1718-.2983.5424-.5839.8532-1.0164,1.3238-.1333.1451-.1236.3697.021.5025.0037.0034.0086.0045.0124.0077.0061.0466.0214.0927.0471.1357l1.3198,2.2116-3.478,2.0755-1.3691-2.2948c-.0225-.0379-.0517-.0691-.0842-.095-.0633-.167-.2417-.2644-.4189-.219-.6165.1578-.9919.2079-1.607.2144-.0901.0009-.1712.0365-.2333.0924-.0819.043-.1472.1173-.1757.213l-.8289,2.79-1.872-.5562c-.0009-.0004-1.9418-.5772-1.9418-.5772l.829-2.79c.0282-.0946.015-.1915-.0289-.2717-.021-.0819-.0699-.157-.1459-.2076-.5107-.3405-.7982-.5877-1.23-1.0577-.1219-.1326-.3175-.1457-.4609-.0463-.0445.003-.0892.0141-.1318.0349l-2.4,1.1742-1.7799-3.6378,2.3144-1.132c.1709-.0837.4786-.1803.4786-.1803Z"/><path class="cls-10" d="m146.6653,49.4681h-1.0616c.2755.1582.5035.3884.6585.6748.2206.4072.2694.8758.1375,1.3196-.1319.4437-.4288.8096-.8356,1.0301-.4068.2203-.8757.269-1.3196.1371-.4439-.1318-.8097-.4286-1.0301-.8355-.2205-.407-.2694-.8754-.1375-1.3193.1276-.4292.4103-.7841.7969-1.0067h-1.0641c-.1843.237-.3261.5076-.4141.804-.1863.6259-.1173,1.2866.1935,1.8606.311.5739.8271.9924,1.4529,1.1784.2307.0686.4661.1025.7.1025.4011,0,.7982-.0997,1.1606-.2961.5739-.3109.9925-.8268,1.1784-1.4525.1863-.6258.1173-1.2866-.1935-1.8607-.0648-.1196-.1405-.2308-.2222-.3362Z"/><path class="cls-10" d="m151.44,50.8609l-1.7723-.527c-.0161-.1255-.0377-.2411-.0639-.3588l.875-.507h-1.4035c-.0288.0241-.0545.0506-.0742.0812-.1153.0821-.1755.2285-.1396.3743.0643.2617.1046.4397.1206.704.0023.0206.0047.0324.0069.0443.0021.0111.0039.0222.0069.0328.0029.01.0069.0195.0106.0292.0045.0116.0089.0232.0145.0342.0045.0088.0099.0169.0151.0253.0066.0105.0131.021.0207.0308.0064.0082.0136.0157.0207.0234.008.0086.016.0171.0248.0249.0081.0072.0168.0135.0256.02.0096.007.0192.0136.0294.0197.009.0053.0184.0099.028.0145.0116.0055.0234.0104.0356.0146.005.0017.0093.0044.0144.0059l1.6611.4939-.5867,1.9729-1.4165-.4209c-.0466-.0138-.0938-.0174-.1393-.0125-.1425-.0209-.2894.0453-.3632.1792-.1652.3004-.3265.4759-.5707.7415-.1214.1321-.1182.3283-.0073.4631.0083.0305.0193.0606.0363.0891l.6917,1.1589-1.7681,1.055-.7202-1.2073c-.0148-.0249-.0328-.0464-.0522-.0662-.0735-.1459-.24-.2266-.4051-.1843-.3494.0896-.5512.1164-.8995.1201-.084.0009-.1599.0321-.2202.0815-.0736.0441-.1322.1139-.1586.2026l-.4399,1.4805-.9462-.2811c-.0008-.0003-.9876-.2935-.9876-.2935l.4399-1.4806c.0261-.0876.0156-.1767-.0207-.2532-.0232-.0756-.0701-.1444-.141-.1916-.2891-.1927-.4434-.3255-.6885-.5922-.1113-.1213-.2843-.1415-.4233-.0691-.0326.0056-.065.0142-.0963.0294l-1.2626.6178-.9049-1.8491,1.2129-.5931c.1602-.0784.2338-.2611.1814-.4262l.1437-.0249c-.059-.3545-.0981-.5887-.0727-.9286.0113-.152-.0753-.2878-.206-.3482-.0354-.0289-.0768-.0515-.1233-.0654l-1.4167-.4212.1353-.4553h-.7416l-.1764.5935c-.056.1881.0511.386.2393.442l1.5718.4674c.0006.2055.0197.389.0483.5793l-1.4278.6983c-.0847.0414-.1495.1148-.1801.204-.0305.0892-.0245.1869.0169.2716l1.2173,2.4879c.0414.0847.1148.1495.2041.1801.0375.0128.0764.0192.1152.0192.0537,0,.1072-.0122.1562-.0362l1.4437-.7064c.1464.1464.2851.2644.45.3844l-.477,1.605c-.0268.0904-.0169.1877.028.2705.0451.083.121.1446.2113.1715l1.3274.3945,1.2881.3826c.0331.0098.0671.0147.1011.0147.0586,0,.1169-.0145.1694-.0429.0828-.0449.1444-.1209.1712-.2113l.4765-1.604c.2055-.0105.3842-.0336.5875-.0765l.8232,1.38c.0484.081.1268.1394.2182.1625.0287.0073.0578.0109.087.0109.0636,0,.1266-.0171.1821-.0502l2.3785-1.4194c.081-.0484.1395-.1268.1624-.2182.0232-.0914.009-.1883-.0393-.2691l-.8142-1.3642c.1282-.1441.2444-.2865.3575-.4593l1.5712.4669c.0338.01.068.0148.1016.0148.1532,0,.2946-.0999.3404-.2543l.7891-2.6544c.056-.1881-.0511-.386-.2393-.442Z"/><path class="cls-10" d="m126.1074,49.4681h-1.0616c.2755.1582.5036.3884.6585.6748.2206.4072.2694.8758.1375,1.3196-.1319.4437-.4288.8096-.8357,1.0301-.4068.2203-.8757.269-1.3195.1371-.4439-.1318-.8097-.4286-1.0301-.8355-.2206-.407-.2694-.8754-.1375-1.3193.1276-.4292.4103-.7841.7969-1.0067h-1.0641c-.1843.237-.3261.5076-.4141.804-.1863.6259-.1173,1.2866.1935,1.8606.311.5739.8271.9924,1.4529,1.1784.2307.0686.4661.1025.7.1025.4011,0,.7981-.0997,1.1606-.2961.5739-.3109.9926-.8268,1.1784-1.4525.1863-.6258.1173-1.2866-.1935-1.8607-.0648-.1196-.1405-.2308-.2222-.3362Z"/><path class="cls-10" d="m130.8821,50.8609l-1.7723-.527c-.0161-.1255-.0377-.2411-.0639-.3588l.875-.507h-1.4035c-.0287.0241-.0545.0506-.0742.0812-.1153.0821-.1755.2285-.1396.3743.0643.2617.1046.4397.1206.704.0023.0206.0047.0324.0069.0443.0021.0111.0039.0222.0069.0328.0029.01.0069.0195.0106.0292.0045.0116.0089.0232.0145.0342.0045.0088.0099.0169.0151.0253.0066.0105.0131.021.0207.0308.0064.0082.0136.0157.0207.0234.008.0086.016.0171.0248.0249.0081.0072.0168.0135.0257.02.0096.007.0191.0136.0294.0197.009.0053.0184.0099.028.0145.0116.0055.0234.0104.0357.0146.005.0017.0093.0044.0144.0059l1.6611.4939-.5867,1.9729-1.4165-.4209c-.0466-.0138-.0937-.0174-.1393-.0125-.1425-.0209-.2894.0453-.3631.1792-.1652.3004-.3265.4759-.5707.7415-.1214.1321-.1182.3283-.0074.4631.0083.0305.0193.0606.0363.0891l.6917,1.1589-1.768,1.055-.7202-1.2073c-.0148-.0249-.0328-.0464-.0522-.0662-.0735-.1459-.24-.2266-.4051-.1843-.3494.0896-.5512.1164-.8995.1201-.084.0009-.1599.0321-.2202.0815-.0736.0441-.1322.1139-.1586.2026l-.4399,1.4805-.9462-.2811c-.0008-.0003-.9876-.2935-.9876-.2935l.4399-1.4806c.0261-.0876.0156-.1767-.0207-.2532-.0232-.0756-.0701-.1444-.141-.1916-.289-.1927-.4434-.3255-.6885-.5922-.1113-.1213-.2843-.1415-.4233-.0691-.0326.0056-.065.0142-.0963.0294l-1.2626.6178-.9048-1.8491,1.2129-.5931c.1602-.0784.2338-.2611.1814-.4262l.1437-.0249c-.059-.3545-.0981-.5887-.0727-.9286.0113-.152-.0753-.2878-.206-.3482-.0354-.0289-.0768-.0515-.1233-.0654l-1.4167-.4212.1353-.4553h-.7416l-.1764.5935c-.056.1881.0511.386.2393.442l1.5718.4674c.0006.2055.0197.389.0483.5793l-1.4277.6983c-.0847.0414-.1495.1148-.1801.204-.0305.0892-.0245.1869.0169.2716l1.2173,2.4879c.0414.0847.1148.1495.2041.1801.0375.0128.0764.0192.1153.0192.0537,0,.1071-.0122.1562-.0362l1.4437-.7064c.1464.1464.2851.2644.45.3844l-.477,1.605c-.0268.0904-.0169.1877.028.2705.0451.083.121.1446.2113.1715l1.3274.3945,1.2881.3826c.0331.0098.0671.0147.1011.0147.0586,0,.1169-.0145.1694-.0429.0829-.0449.1444-.1209.1713-.2113l.4765-1.604c.2055-.0105.3842-.0336.5875-.0765l.8232,1.38c.0484.081.1268.1394.2182.1625.0287.0073.0578.0109.087.0109.0636,0,.1266-.0171.1821-.0502l2.3785-1.4194c.081-.0484.1396-.1268.1625-.2182.0231-.0914.009-.1883-.0394-.2691l-.8141-1.3642c.1282-.1441.2444-.2865.3575-.4593l1.5712.4669c.0338.01.068.0148.1016.0148.1532,0,.2946-.0999.3404-.2543l.7891-2.6544c.056-.1881-.0511-.386-.2393-.442Z"/><path class="cls-10" d="m148.4739,65.6782c-1.086-.3227-2.2318.2984-2.5542,1.384-.1564.5259-.0986,1.0812.1629,1.5636.2613.4824.6949.834,1.2207.9904.1939.0576.3918.0862.5885.0862.3369,0,.6706-.0839.9754-.2489.4823-.2613.8338-.6947.99-1.2206.1564-.5259.0988-1.0813-.1624-1.5639-.2615-.4825-.6949-.8343-1.221-.9907Zm.7021,2.3519c-.1023.344-.3321.6274-.6475.7983-.3152.1709-.6788.2086-1.0226.1062-.3439-.1022-.6274-.3321-.7982-.6475-.171-.3154-.2087-.6785-.1067-1.0224.1733-.5828.7093-.9607,1.2885-.9607.1264,0,.2548.0179.3818.0558.3439.1022.6274.3322.7982.6477.171.3156.2087.6788.1064,1.0226Z"/><path class="cls-10" d="m153.3578,67.4962l-1.4009-.4166c-.0102-.0708-.0224-.1394-.0366-.2067l1.0902-.6318c.1699-.0985.2277-.3159.1294-.4857l-1.1293-1.9489c-.0472-.0816-.125-.141-.2162-.1654-.0912-.0241-.1881-.0111-.2696.036l-1.1056.6408c-.023-.0187-.0474-.0376-.0714-.0561l.3487-1.1735c.0268-.0904.0169-.1877-.0282-.2706-.0449-.0829-.1208-.1445-.2113-.1714l-1.047-.3109-1.0795-.3209c-.1877-.0555-.3862.0513-.442.2394l-.3488,1.1731c-.0294.0023-.0599.0053-.0901.0085l-.5763-1.141c-.0426-.0841-.1166-.148-.2062-.1774-.09-.0295-.1872-.0222-.2715.0204l-2.0108,1.0158c-.084.0425-.1479.1167-.1773.2063-.0294.0896-.0222.1871.0204.2713l.5683,1.1245c-.0488.0487-.0966.0995-.1437.1531l-1.4007-.4162c-.09-.0267-.1877-.0167-.2705.0282-.0828.0449-.1444.1209-.1712.2113l-.6415,2.159c-.056.1882.0511.386.2393.442l1.231.366c.0028.1341.0154.2576.0332.3829l-1.1181.5469c-.0847.0414-.1495.1149-.1801.204-.0305.0892-.0245.1869.0169.2716l.99,2.0232c.0618.1261.1881.1994.3196.1994.0525,0,.1058-.0117.156-.0364l1.1318-.5538c.0985.096.1931.1775.302.2588l-.3744,1.2598c-.056.1882.0511.386.2393.442l1.0469.3112,1.0798.3209c.0333.0098.0673.0147.1014.0147.0586,0,.1169-.0145.1694-.0429.0828-.0449.1444-.1209.1712-.2113l.3743-1.2596c.136-.0087.2597-.0253.3944-.0519l.6458,1.0822c.0484.081.1268.1394.2182.1626.0287.0072.0578.0108.087.0108.0637,0,.1266-.0171.1821-.0502l1.9342-1.1544c.081-.0484.1396-.1268.1625-.2182.0231-.0914.009-.1883-.0394-.2693l-.6377-1.0682c.0834-.0954.1615-.1921.237-.303l1.2314.3659c.0336.01.0678.0148.1014.0148.1532,0,.2946-.0999.3404-.2543l.6417-2.1587c.056-.1882-.0512-.386-.2393-.442Zm-.9826,2.0574l-1.0886-.3234c-.0421-.0127-.0846-.0159-.1262-.0129-.1414-.0192-.2862.0474-.3594.1801-.1301.2367-.2522.3697-.4545.5898-.1165.1268-.1172.312-.0196.446.0083.0282.0189.0559.0347.0823l.5286.8855-1.3237.7901-.5519-.925c-.0138-.0232-.0303-.0437-.0481-.0625-.0769-.1372-.2376-.212-.3971-.1715-.2782.0712-.4388.0926-.7158.0956-.0832.0009-.1584.0314-.2184.0799-.0707.0444-.127.1124-.1526.1987l-.339,1.1404-.7061-.2099-.7392-.2197.3388-1.1404c.0254-.0851.0159-.1716-.018-.2467-.0235-.0746-.0701-.1424-.1403-.1892-.2298-.1532-.3527-.259-.5478-.4713-.1087-.1184-.2764-.1411-.4137-.0749-.0295.0058-.0588.0141-.0871.028l-.9671.4731-.6776-1.3844.9268-.4534c.1567-.0767.2311-.2532.1855-.4153l.1156-.0195c-.0493-.2947-.0789-.4725-.0588-.7418.0112-.151-.0739-.2861-.203-.3471-.033-.025-.0702-.0454-.1122-.0579l-1.0883-.3235.439-1.4776,1.2871.3824c.0305.0091.0611.0124.0915.0132.0146.0015.0197,0,.0249-.0003.0164-.0007.0324-.0026.0484-.0055.0095-.0017.0188-.0035.0281-.0059.0155-.0042.0304-.0099.0451-.0161.0089-.0037.0179-.0068.0265-.0112.02-.0104.0389-.0227.0566-.0367.0059-.0046.0112-.0099.0168-.0149.0154-.0138.0298-.0286.0427-.0451.1305-.1746.2351-.2761.3927-.4232.1056-.0986.1363-.2462.0926-.3746-.001-.0517-.0121-.1039-.037-.1531l-.4834-.9565,1.3763-.6953.4649.9207c.0112.0221.0244.0425.0392.0612.0419.1561.1803.2649.3392.2649.0213,0,.0426-.002.0641-.0059.1708-.0311.3043-.0436.5096-.0479.1783-.0037.3217-.1383.3438-.31.0045-.011.0119-.0199.0154-.0315l.2934-.9863.7385.2196c.0012.0002.7067.2097.7067.2097l-.2932.987c-.0041.0139-.0056.0279-.008.0419-.0704.1547-.0224.3418.123.4406.1657.1126.274.1988.3997.318.0687.0651.1567.0974.2446.0974.0872,0,.1733-.0333.2412-.0965.0205-.0073.0407-.016.0601-.0273l.8923-.5172.7729,1.3338-.9273.5375c-.0464.0269-.0835.0631-.1123.1043-.1091.0833-.1647.2259-.1296.3676.0514.2086.0836.3505.0963.5605.0023.0205.0047.0324.0069.0443.0021.0111.0039.0222.0069.0328.0029.01.0069.0195.0106.0292.0045.0116.0089.0232.0145.0342.0045.0088.0099.0169.0151.0253.0066.0105.0131.021.0207.0308.0064.0082.0136.0157.0207.0234.008.0086.016.0171.0248.0249.0081.0072.0168.0136.0256.02.0096.007.0192.0137.0294.0197.009.0053.0184.0099.028.0145.0116.0055.0234.0104.0356.0146.005.0017.0093.0044.0144.0059l1.2874.3828-.4392,1.4772Z"/></g><g class="cls-34"><polygon class="cls-17" points="27.1097 130.6308 191.7449 49.4729 191.7449 130.4927 27.1097 130.6308"/></g><g><path class="cls-11" d="m163.0339,32.2663c0-3.3896-2.7479-6.1375-6.1375-6.1375s-6.1375,2.7479-6.1375,6.1375v5.4673h12.275v-5.4673Z"/><rect class="cls-18" x="149.6655" y="38.6954" width="14.4619" height="2.7927" rx="1.3963" ry="1.3963"/><rect class="cls-18" x="150.3885" y="37.2243" width="13.0157" height="1.9698" rx=".9849" ry=".9849"/><path class="cls-6" d="m153.4737,30.4462c-.09,0-.1801-.0362-.2461-.1075-.1261-.136-.118-.3483.0179-.4744l2.0226-1.8749c.1355-.1259.3484-.118.4743.018.1261.1359.118.3483-.0179.4744l-2.0226,1.875c-.0645.0599-.1464.0895-.2282.0895Z"/><g><path class="cls-18" d="m156.9252,23.3134c-.1854,0-.3357-.1503-.3357-.3357v-3.151c0-.1854.1504-.3357.3357-.3357s.3357.1503.3357.3357v3.151c0,.1855-.1504.3357-.3357.3357Z"/><path class="cls-18" d="m169.5765,32.7666h-3.1512c-.1853,0-.3357-.1503-.3357-.3357s.1504-.3357.3357-.3357h3.1512c.1854,0,.3357.1503.3357.3357s-.1504.3357-.3357.3357Z"/><path class="cls-18" d="m161.6875,24.5605c-.0621,0-.1248-.0172-.181-.0531-.1561-.1001-.2015-.3077-.1014-.4638l1.7006-2.6527c.0999-.1562.3077-.2013.4638-.1014.156.1001.2015.3077.1014.4638l-1.7006,2.6527c-.064.1-.1724.1545-.2828.1545Z"/><path class="cls-18" d="m165.0759,28.1429c-.1139,0-.2249-.0579-.2879-.1625-.0955-.1589-.0444-.3652.1145-.4608l2.6995-1.6255c.1587-.0956.3652-.0445.4607.1144.0955.1589.0444.3652-.1145.4608l-2.6995,1.6255c-.0542.0326-.1139.0481-.1729.0481Z"/><path class="cls-18" d="m147.3674,32.7666h-3.151c-.1853,0-.3357-.1503-.3357-.3357s.1504-.3357.3357-.3357h3.151c.1853,0,.3357.1503.3357.3357s-.1504.3357-.3357.3357Z"/><path class="cls-18" d="m152.1055,24.5605c-.1104,0-.2188-.0545-.2828-.1545l-1.7006-2.6527c-.1001-.156-.0546-.3637.1014-.4638.156-.0999.3637-.0548.4638.1014l1.7006,2.6527c.1001.1561.0546.3637-.1014.4638-.0562.0359-.1189.0531-.181.0531Z"/><path class="cls-18" d="m148.7171,28.1429c-.059,0-.1187-.0155-.1729-.0481l-2.6995-1.6255c-.1589-.0956-.21-.3019-.1145-.4608.0957-.1589.3023-.2097.4607-.1144l2.6995,1.6255c.1589.0956.21.3019.1145.4608-.063.1046-.1742.1625-.2879.1625Z"/></g><g class="cls-35"><path class="cls-9" d="m163.0339,32.2663c0-2.0014-.9584-3.7785-2.4408-4.8989l-9.8342,9.8342v.0227h12.275v-4.958Z"/></g></g><g><rect class="cls-2" x="57.195" y="55.8686" width="38.9501" height="10.6354" rx="5.2552" ry="5.2552"/><rect class="cls-2" x="57.195" y="69.3449" width="38.9501" height="10.6354" rx="5.2552" ry="5.2552"/><g><path class="cls-18" d="m63.4037,66.504c-.1329-1.5203-.8975-2.9719-2.228-3.9409-2.4412-1.7779-5.8614-1.2402-7.6393,1.2009l-1.5504,2.1288-.219-.1595c-.3959-.2883-.9505-.2011-1.2388.1947l-5.0173,6.889c-.2883.3959-.2011.9505.1947,1.2388l9.2782,6.7574c.3959.2883.9505.2011,1.2388-.1947l5.0173-6.889c.2883-.3959.2011-.9505-.1947-1.2388l-.219-.1595,1.5504-2.1288c.1993-.2736.3715-.5629.5132-.8575h-2.0209l-1.4359,1.9715-6.0538-4.409,1.7337-2.3804c1.1534-1.5837,3.4157-1.6573,4.9994-.5038.8468.6167,1.4189,1.5256,1.5921,2.48l1.6993.0007Z"/><path class="cls-8" d="m55.2219,72.9624c.4258-.5846.297-1.4038-.2876-1.8296-.5846-.4258-1.4037-.297-1.8295.2876-.2704.3713-.3164.8369-.1647,1.2365l-1.9032,2.1886.7798.568.7799.568,1.4991-2.483c.4269.0217.8559-.1649,1.1264-.5362Z"/></g></g><path class="cls-2" d="m44.02,67.26c-1.6073-.4075-3.2406.5651-3.6481,2.1723-.4076,1.6075.565,3.2408,2.1723,3.6483,1.1299.2865,2.2719-.1096,2.9927-.928-.0002.0011,1.7218.4377,1.7218.4377l.6265-.5429.7388.1873,1.5838,1.0605,1.2799-.5807,1.187,1.0001,1.7856-.8823-1.2624-1.4563-6.9659-1.7662c-.2117-1.1103-1.0438-2.0538-2.2119-2.35Zm-2.4665,2.4773c.0927-.3656.4644-.5869.83-.4942.3658.0928.5871.4644.4944.83-.0927.3658-.4644.5869-.8302.4942-.3656-.0927-.587-.4642-.4942-.83Z"/><g><path class="cls-8" d="m70.1589,63.3838v-4.101h.5107v3.6329h1.6009v.468h-2.1117Z"/><path class="cls-8" d="m75.239,62.0381c0,.899-.202,1.383-1.33,1.383s-1.3297-.484-1.3297-1.383v-1.4308c0-.8988.2023-1.383,1.3297-1.383s1.33.4841,1.33,1.383v1.4308Zm-.5107-1.4362c0-.6489-.0532-.9148-.8192-.9148s-.819.2659-.819.9148v1.4415c0,.6489.0532.9043.819.9043s.8192-.2554.8192-.9043v-1.4415Z"/><path class="cls-8" d="m78.0214,60.3839c-.0106-.4735-.1384-.6915-.8192-.6915s-.8192.2552-.8192.9201v1.4362c0,.6489.0532.9043.8192.9043s.8192-.1544.8192-.8033v-.5584h-.7979v-.4575h1.3084v1.0159c0,.7926-.0958,1.2766-1.3297,1.2766-1.1275,0-1.3298-.484-1.3298-1.383v-1.4255c0-.8988.2023-1.383,1.3298-1.383,1.0745,0,1.2927.3404,1.314,1.149h-.4948Z"/><path class="cls-8" d="m79.1919,63.3891v-4.0957h.5161v4.0957h-.5161Z"/><path class="cls-8" d="m82.3147,62.4211l-.0745-1.3936v-1.7447h.5052v4.101h-.4733l-1.351-2.9468.0319,1.3457v1.6011h-.5054v-4.101h.4786l1.3885,3.1383Z"/></g><g><path class="cls-8" d="m65.6867,72.3933c.7183,0,1.165.2925,1.165,1.1171v.4467c0,.8457-.3244,1.1861-1.165,1.1861h-.5957v1.3617h-.5052v-4.1063l1.1009-.0053Zm-.5957.4787v1.7873h.5957c.4522,0,.6595-.1383.6595-.7021v-.4467c0-.5639-.2074-.6118-.6595-.6384h-.5957Z"/><path class="cls-8" d="m69.049,76.4996l-.2076-.7607h-1.2286l-.2074.7607h-.5265l1.0902-4.0903h.5158l1.0854,4.0903h-.5214Zm-.8245-3.4308l-.2765,1.3351-.2074.8563h.968l-.2129-.8723-.2712-1.3191Z"/><path class="cls-8" d="m71.6823,73.4092c-.0266-.3351-.1437-.5744-.6544-.5744-.5688,0-.6808.2606-.6808.6702,0,.5691.4948.5637,1.0109.617.4735.0479.9627.2819.9627,1.1382,0,.883-.3351,1.2607-1.1807,1.2607h-.1014c-.8403,0-1.2233-.4096-1.2603-1.1064h.5476c.0268.3457.181.6118.7077.6118h.1009c.5531,0,.6651-.2607.6651-.7394,0-.6702-.4415-.6808-.9523-.7234-.4788-.0371-1.0266-.2712-1.0266-1.0531,0-.7607.3457-1.1543,1.2073-1.1543.8139,0,1.1437.3777,1.1809,1.0532h-.5265Z"/><path class="cls-8" d="m74.6987,73.4092c-.0264-.3351-.1435-.5744-.6542-.5744-.5691,0-.6808.2606-.6808.6702,0,.5691.4945.5637,1.0106.617.4735.0479.9627.2819.9627,1.1382,0,.883-.3351,1.2607-1.1807,1.2607h-.1011c-.8403,0-1.2235-.4096-1.2605-1.1064h.5478c.0266.3457.1807.6118.7074.6118h.1011c.5531,0,.6649-.2607.6649-.7394,0-.6702-.4416-.6808-.9521-.7234-.4788-.0371-1.0266-.2712-1.0266-1.0531,0-.7607.3457-1.1543,1.2073-1.1543.8139,0,1.1437.3777,1.1809,1.0532h-.5267Z"/><path class="cls-8" d="m77.481,72.6168h.3937l.7021,3.0425.2979-1.5319.3936-1.734h.5212l-.9784,4.1116h-.4628l-.3457-1.3776-.3244-1.4733-.3245,1.4733-.3457,1.3776h-.4629l-.9787-4.1116h.5214l.3934,1.734.2981,1.5319.7019-3.0425Z"/><path class="cls-8" d="m82.7264,75.1539c0,.899-.202,1.383-1.33,1.383s-1.3297-.484-1.3297-1.383v-1.4309c0-.8988.2023-1.383,1.3297-1.383s1.33.4841,1.33,1.383v1.4309Zm-.5107-1.4362c0-.6489-.0532-.9148-.8192-.9148s-.819.2659-.819.9148v1.4415c0,.6489.0532.9043.819.9043s.8192-.2554.8192-.9043v-1.4415Z"/><path class="cls-8" d="m84.9288,74.9518l.8884,1.5478h-.5959l-.8243-1.5159h-.4628v1.5212h-.5052v-4.1116l1.1009-.0053c.7183,0,1.165.2979,1.165,1.1224v.2872c0,.6542-.1967,1.0425-.766,1.1542Zm-.9946-2.0798v1.6277h.5957c.4522,0,.6595-.1383.6595-.7021v-.2872c0-.5639-.2074-.6118-.6595-.6384h-.5957Z"/><path class="cls-8" d="m86.3071,76.4996v-4.101h1.2446c1.0955,0,1.2925.484,1.2925,1.3723v1.351c0,.8936-.202,1.3883-1.3297,1.3776h-1.2073Zm1.2073-.484c.7658,0,.819-.2394.819-.8883v-1.3617c0-.6489-.0532-.8883-.819-.8883h-.7021v3.1383h.7021Z"/></g><path class="cls-3" d="m45.2248,70.0775c.0669-.2774-.0417-2.4698-.2832-2.8838-.2416-.414-1.8355-1.6327-2.4673-1.8793-.6318-.2466-3.156-.2798-3.156-.2798l-.4235,2.9334s.3638-.0013.9262.1767c.8886.2814,1.3975,1.4692,1.7148,1.7156.1533.1191.3122.107.4724.094.3114-.475-.5216-1.8231-.7345-2.1713-.1006-.1646.1572-.3172.2578-.1525.3068.502.5911,1.0474.7537,1.6158.0554.1938.0955.3944.0832.5773.0289.0899.0754.1643.1325.231.0068.005.0137.0074.0205.0131.1355.114.2692.1605.4022.1814.418-.1778.2772-1.0306.1675-1.3824-.1486-.4765-.3738-.908-.7387-1.2528-.1402-.1325.0698-.3461.21-.2137.5335.504.8867,1.2658.9318,1.9999.0102.1662.0013.3447-.0326.513.0335.1806.1611.3281.3236.4094.0293.0066.0581.0101.0877.0114.0722-.0106.1439-.0308.2141-.0544.2718-.5121.2473-1.0826.0757-1.6321-.1837-.5886-.4926-.9329-.9572-1.3105-.1496-.1215.0614-.3344.21-.2137.5488.446.8944.8882,1.0755,1.5829.0775.297.1116.6031.1019.9098-.0066.2085-.0366.3603-.092.5071.0261.0906.061.1601.13.2312.24.1506.5332-.0251.5939-.2768Z"/><polygon class="cls-18" points="27.073 67.4291 38.8286 69.1371 39.4013 64.4595 26.8238 61.9289 27.073 67.4291"/><path class="cls-29" d="m60.1583,98.744s-.4689-.8874-.6483-2.0353c-.1794-1.1478,1.4924-1.4543,1.7503-1.4832.258-.0289-.1864,1.5288-.1864,1.5288l-.9156,1.9896Z"/><g><path class="cls-17" d="m127.9697,94.2474c-.322-.4153-.8803-.2819-4.1175-.9581-1.6019-.3347-2.7078-.8917-3.4918-1.3712l1.2183,1.1109c.0938.0855.1409.2107.1268.3369-.0141.1262-.0879.2378-.1984.3005l-3.8571,2.1869,3.1309,3.4031c.0733.0796.1107.1858.1038.294-.0071.1079-.0581.2085-.141.2778l-3.3443,2.8008,3.2064,3.8681c.1266.1527.1208.3755-.0136.5214l-3.3822,3.6722,2.3382,1.8596c8.95-4.1655,8.7289-17.9064,8.4215-18.3029Z"/><path class="cls-8" d="m126.9483,95.0882c-.2873-.3705-.7854-.2515-3.6734-.8548-.6996-.1461-1.2914-.3402-1.7974-.5501l-3.8274,2.17,3.1309,3.4031c.0733.0796.1107.1858.1038.294-.0071.1079-.0581.2085-.141.2778l-3.3443,2.8008,3.2064,3.8681c.1266.1527.1208.3755-.0136.5214l-3.3822,3.6722,1.3606,1.0822c8.8622-3.2048,8.6614-16.3186,8.3776-16.6846Z"/><g class="cls-35"><path class="cls-29" d="m127.0413,96.1633l-6.3944,2.9474.1341.1457c.0733.0796.1107.1858.1038.294-.0071.1079-.0581.2085-.141.2778l-3.3443,2.8008,3.2064,3.8681c.1266.1527.1208.3755-.0136.5214l-3.3822,3.6722,1.3561,1.0786c7.4359-2.6882,8.4957-12.3468,8.4752-15.6059Z"/></g></g><g><path class="cls-17" d="m116.384,111.1986c-.0938-.0576-.1596-.1515-.1813-.2593-.0218-.108.0023-.22.0665-.3096l2.9569-4.1212-3.6881-3.4822c-.1586-.1498-.1663-.3994-.0174-.5585l2.9645-3.1715-3.5854-3.0512c-.092-.0782-.1432-.1943-.1391-.3151.0041-.1207.063-.233.1601-.305l3.5242-2.6116-2.5315-1.7972c-.6935.4751-1.9064,1.7024-4.4786,2.4302-3.1821.9003-3.7483.8062-4.0406,1.2429-.2923.4367.5303,15.4752,11.0495,18.1038.1634-.0763.3231-.1558.48-.2377l-2.5397-1.5569Z"/><path class="cls-8" d="m116.2027,110.9393c-.0218-.108.0023-.22.0665-.3096l2.9569-4.1212-3.6881-3.4822c-.1586-.1498-.1663-.3994-.0174-.5585l2.9645-3.1715-3.5854-3.0512c-.092-.0782-.1432-.1943-.1391-.3151.0041-.1207.063-.233.1601-.305l3.4914-2.5873c-1.0529-.4157-1.6393-.8634-1.9674-.8318-.5453.0524-1.529,1.5389-4.368,2.3421-2.839.8032-3.3441.7192-3.6049,1.1089-.24.3585.3628,11.7456,7.7714,15.3894-.018-.0336-.0328-.0689-.0405-.107Z"/><g class="cls-35"><path class="cls-29" d="m116.2027,110.9393c-.0218-.108.0023-.22.0665-.3096l2.9569-4.1212-3.6881-3.4822c-.1586-.1498-.1663-.3994-.0174-.5585l2.9645-3.1715-.0293-.0249-8.1511,5.041c1.1711,2.6803,3.0308,5.301,5.9372,6.7315-.0173-.0329-.0317-.0674-.0392-.1045Z"/></g></g><path class="cls-12" d="m111.7337,49.4729v3.5177c.4476.1493.7711.5722.7711,1.0692,0,.6211-.5054,1.1265-1.1266,1.1265-.3402,0-.6584-.1512-.8736-.415-.124-.1522-.1011-.3761.0509-.5001.1527-.1243.3763-.1012.5003.0509.0794.0974.1969.1533.3224.1533.2291,0,.4157-.1864.4157-.4156s-.1865-.4156-.4157-.4156c-.1962,0-.3555-.1591-.3555-.3555v-3.8158c0-.1964.7109-.1964.7109,0Z"/><g><path class="cls-29" d="m232.5818,117.1206l.2074,2.0371s.9775.1549,1.5848-.7634-1.7921-1.2737-1.7921-1.2737Z"/><path class="cls-18" d="m208.7211,174.6248s.3576,4.875-.3264,4.9996c-1.2015.2189-10.4884.2038-11.0733.0314-.5849-.1724,3.0919-1.5113,5.4184-2.1034,2.4031-.6116,2.7037-2.2534,2.706-2.9276h3.2753Z"/><path class="cls-18" d="m230.4187,171.7679l-1.7935,2.2011s.2185,3.1145.02,3.7845c-.1985.67-3.9445,1.3419-4.2423,2.1111,0,0,4.3179.0006,4.9879-.1483.67-.1489,4.5368-3.932,4.636-4.2298s-3.492-3.7187-3.6081-3.7187Z"/><path class="cls-3" d="m221.5847,121.4347c-.0132-.8259.6577-2.1023.6947-3.5449s-.0191-2.9545-.0191-2.9545c0,0,5.1337-.2593,10.3704,2.4219,0,0,.2836.6928.2794,1.3769-.001.1667.3304-.4399.801-.2627.325.1224.9006.5908.1144,2.2038-.825,1.6927-1.4873,1.2083-1.7404,1.482-.2531.2737-.3799.9382.0893,2.4242.4692,1.4859,1.6125,1.7678,2.6187,2.2396,0,0-1.0937,3.7238-4.4722,4.4035-3.3785.6796-3.9864.216-4.1758-.0695,0,0,.1503-.5999-.1244-2.4227-.1423-.944-.5907-1.5014-.5907-1.5014.6501-.1082,1.2846-.3037,1.909-.6385,1.2368-.6632,2.3823-1.5624,3.2975-2.6261.1327-.1542-.1015-.3664-.2345-.2119-.8466.984-1.8823,1.8012-3.0083,2.4453-.8124.4647-1.6324.7836-2.4986.7789-.57-.0031-1.6726-.2786-2.1816-1.1605-.7844-1.359-1.1157-3.5576-1.129-4.3835Z"/><path class="cls-18" d="m234.4421,118.6751c-.1318.0187-2.0543-1.644-6.3823-2.5898-4.328-.9458-6.0227-.5612-6.1855-.6294-.1627-.0682-.2037-.8203-.1806-1.47.0231-.6497.4342-1.6116.5283-1.6232.0941-.0116,5.0195.4124,6.9199.8037,1.9004.3913,6.1571,2.4925,6.2626,2.6927.1055.2002.0656,1.0724-.0848,1.5834-.1504.5109-.4875,1.1771-.8777,1.2324Z"/><path class="cls-18" d="m234.9937,115.8323s.3343-3.4033-2.2733-5.1589c-2.6077-1.7555-4.5688-1.6496-6.1202-1.575s-3.5053,1.4688-4.0174,3.1525c-.512,1.6837,12.4108,3.5815,12.4108,3.5815Z"/><path class="cls-18" d="m221.837,119.7558c.306.7392,1.3571.8886,2.0632.6997.7061-.189,1.3698-1.4649,1.9236-1.3539.5538.1111.802,1.3657,1.8056,2.1852s2.5709.2974,3.3846-.1918,1.6043-2.3318,1.4414-2.3993c-1.2766-.5296-3.5765-1.2207-6.1669-1.7754-2.5904-.5546-4.8077-.2322-4.8949-.1734-.0872.0588.1375,2.2697.4434,3.0089Zm5.6058-1.465c.2635-.1703.6803-.077.9664-.0368.4093.0575.815.1589,1.2033.2999.246.0893.7024.254.8266.4997.0433.0467.0648.1137.0446.2003-.3083,1.3207-2.1658,1.5231-2.9467.4975-.2682-.3522-.5728-1.1514-.0943-1.4606Zm-5.1418-.6466c.3598-.0764.8468.0364,1.2073.0882.3898.056.7677.147,1.1342.292.0056.0022.0101.0053.0154.0078.0359.0132.0667.0361.0902.0679.0642.0768.0729.1833.0362.2721-.04.5327-.415.8979-.9383,1.0565-.656.1988-1.1846-.0421-1.5503-.6081-.2037-.3152-.5837-1.0514.0053-1.1765Z"/><path class="cls-18" d="m224.9341,121.5095c-.0437-.1737-.0622-.3424-.0562-.5158.0022-.0619-.0258-.1157-.0766-.1474-.0541-.034-.1248-.0369-.1796-.0077-.05.0266-.0798.0761-.0818.1362-.0072.2067.0141.4104.0631.6054.0153.0604.0541.0982.0998.1163.0363.0143.0768.0163.1135.0069.0779-.0196.1434-.0925.1178-.1939Z"/><g><path class="cls-2" d="m207.7789,115.8515c-.3381-.1932-.564.0867-.564.0867,0,0-.7137-1.0609-1.7782-1.4225-1.6041-.5449-4.6192-1.086-5.261-1.086-.4535,0-1.0605,2.2864-1.1324,2.665-.0157-.0214-.0328-.0435-.0474-.0643l-1.0903-.4146c-.0139.7123-1.5873,2.713-.9753,3.886.6121,1.173,2.5286,1.8592,3.4115,2.3136.8828.4543,1.6245.7976,1.558,1.4279-.0665.6302-.514.6515-.5342,1.107-.0202.4555.4256.6495.431,1.0141.0054.3646-.3379.8175-.3245,1.2236.0133.406,1.1699.8295,2.0808.8698.911.0404,1.2341.0429,1.3875-.5026.1535-.5455.453-2.7966.299-4.2724-.154-1.4759-.4816-1.9507-.1895-2.2218l.2921-.2711-.273-.3568c.2281-.02.3426-.0651.3426-.0651,0,0-.0361.3725.1281.5561.1642.1836,1.2446-.2387,1.82-.7146.5754-.4759.9997-1.7401.9997-1.7401,0,0-.2424-1.8245-.5805-2.0178Zm-6.3937,5.2369c-.2687.1967-2.9702-.7692-3.5453-1.5176-.5751-.7485.0212-2.1091.299-2.0373.9673.25,3.1517,1.3795,3.4351,1.68.2834.3005.0799,1.6782-.1888,1.8749Z"/><path class="cls-22" d="m203.7037,114.0383s.531-.41.1281-.8276c-.4029-.4176.6643-.7405,1.8861-.2006s1.312,1.1785,1.207,1.36c-.105.1814-.6506.028-.7022.2637-.0516.2357-.0092.285-.0092.285,0,0-1.4531-.6044-2.5099-.8804Z"/><path class="cls-25" d="m194.5254,112.5296c-.1681.3856-.7512,1.3451-.3347,1.6638.4165.3187.7552.2372.8264.2595.0712.0224.3058.4718.5248.5719.219.1001.8882.0129,1.1932.1385.3049.1256.7292.6688,1.1029.9741s1.0122.4279,1.0122.4279l1.4811-3.1356s-.4495-.4617-.9209-.5649c-.4714-.1032-1.1606-.0979-1.4485-.2588-.2879-.1609-.6354-.7394-.8499-.8488-.2145-.1094-.7124-.014-.7742-.0559-.0618-.0419-.2084-.3579-.7169-.4862-.5085-.1283-.8979.9433-1.0955,1.3146h0Z"/><path class="cls-22" d="m202.2078,121.5651c-.2084.1169.2571,1.0045.1878,2.4372-.0694,1.4327-.326,2.4496-.1777,2.5502s1.6446.5018,2.0851.3314.3711-1.8777.4468-3.0535c.0756-1.1758-.3088-2.844-.4245-2.8864s-1.768.425-2.1175.6211Z"/><path class="cls-24" d="m208.3199,117.6037s.713-.0357,1.09.4727c.3771.5084-.5891,2.199-1.1011,1.9961-.512-.2029-.7594-.6528-.7594-.6528l.7705-1.816Z"/><path class="cls-4" d="m199.6936,118.1546s.0706.4945-.2414,1.0544c-.312.5598-.7904.926-.7408.9527.0496.0266.7058.3163,1.3069-.4502.6011-.7666.5944-1.0959.5944-1.0959l-.919-.4609Z"/><path class="cls-4" d="m195.0599,111.5332s-.5516-.4005-.6767-.2958c-.1251.1046-1.0016,1.7163-.9959,1.7878.0056.0715.7369.4045.7369.4045l.9356-1.8964Z"/></g><path class="cls-3" d="m205.2708,127.9808l1.8052-4.1644s-1.3219-.8198-1.7272-1.4267c-.4053-.6069-.8309-1.7422-1.5151-2.0773-.6841-.3352-2.0898-1.0172-3.2788-1.2429-1.189-.2257-2.7109-.4013-2.7714.5524-.0073.1142.3342.6053,1.1478.6224.5248.011.8573.0744,1.0289.1183.2476-.1453.4816-.2276.6621-.1837.1249.0306.2147.1177.256.2512.0087.0283.0121.0626.011.1019.19-.0939.4621-.1805.6786-.0577.2563.1476.0515.7387-.5793,2.2216.5124-.5627,1.2569-1.2455,1.6749-1.0049.1699.0964.2767.2238.3173.379.0667.2545-.0586.529-.1969.7713.2697-.1552.5681-.264.731-.1183.1688.1519.0538.5471-.2486,1.413-.1428.4081-.338.967-.297,1.099.065.2087.419.339.829.4898.1703.0627.3465.1274.5256.2056.6683.2916,1.004.708,1.0178.7254.0404.0507.0319.1243-.0187.1645-.0316.0252-.0722.0316-.1081.0205-.0217-.0067-.0416-.0199-.0568-.0388-.0031-.0041-.3164-.3897-.9279-.6565-.173-.0755-.346-.1391-.5131-.2005-.4683-.1722-.8727-.321-.972-.6404-.0608-.1959.074-.601.2994-1.246.1373-.3928.3671-1.0506.3074-1.1682-.0786-.0667-.5262.1615-.9188.4814-.0256.0314-.0487.0607-.0765.0944-.3365.407-.845,1.0219-.8587,1.8792-.0009.0647-.0544.1165-.1191.1154-.0114-.0002-.0227-.002-.0329-.0052-.0486-.0151-.0834-.0607-.0824-.1139.015-.9396.5551-1.5927.9124-2.025.1048-.1265.1951-.236.2432-.3189.0219-.0381.0457-.0777.0704-.1187.1431-.2375.321-.5333.2644-.7497-.0245-.0928-.0919-.1693-.2063-.2344-.3171-.1803-1.2847.7839-1.8728,1.5354-.1384.3255-.2722.6459-.3808.929-.0223.0578-.0856.0881-.1443.0699-.0678-.0258-.0979-.0935-.0747-.1542.1564-.4073.3623-.8875.5615-1.352.3538-.8254.8885-2.0725.7998-2.2591-.1587-.0875-.4819.0885-.6101.1762-.236.7523-1.0661,2.1152-1.2638,2.4344-.0287.0463-.0846.0656-.1346.0501-.0092-.0029-.0182-.0069-.0269-.0122-.0551-.0341-.0722-.1066-.0382-.1615.5584-.9013,1.1031-1.9187,1.2547-2.4034.0011-.0089.0045-.017.0076-.0254.0304-.1032.0421-.1806.029-.2231-.0209-.0679-.0564-.0849-.0872-.0923-.2005-.0488-.7501.2153-1.6386,1.1199-.0036.0036-.0082.0052-.0122.0082-.0834.1016-.1509.1904-.1931.2543-.2608.395-.9203,1.7283-.5842,2.4263.3361.6981,1.5768,2.373,2.2124,2.8978.6355.5248,1.9688.8761,2.6799.9956,1.2725.2139,2.045,1.7202,2.045,1.7202,0,0,.3899-1.1456.5625-1.6139l-.3678-.2344Z"/><g><path class="cls-18" d="m205.4813,128.6667l-.5228,1.4998s6.7948,7.8924,9.5958,8.7618c2.4325.755,4.7378-.2481,6.0365-.8808-1.8809-.9478-13.7909-8.5396-15.1095-9.3808Z"/><path class="cls-18" d="m238.9129,134.8505c-1.2476-6.4676-2.9649-7.8604-4.6783-8.1773s-5.4341,1.8755-7.2539,2.6925c-1.8198.817-4.8652,1.1308-7.5058-.0573-2.6407-1.1881-12.2946-5.7355-12.2946-5.7355l-1.9106,4.407.3431.2189c.0061.0031.013.0035.019.0072.1348.086,13.4899,8.609,15.2191,9.4473,2.2988,1.1137,4.6689,1.0951,7.25-.0561,3.1534-1.4059,5.5474-2.9854,5.5712-3.0011.1077-.0717.2533-.043.325.0659.0718.1079.0422.2535-.0659.325-.024.0161-2.4505,1.6171-5.6391,3.039-2.2236.9914-4.3748,1.171-6.4119.5387-.2459-.0763-.4895-.1682-.7319-.2682l.8339,10.9319s10.7758,4.2967,18.0668,5.7716c0,0,.1114-13.682-1.1362-20.1495Z"/></g><path class="cls-29" d="m240.0491,155l-13.0598-3.8957-5.007-1.8759c-.054-.7082-.1639-2.1485-.1639-2.1485,0,0-5.5615-4.3373-8.0032-5.1771s-6.0103-.5553-6.9416,2.8406c-.9313,3.396-1.4401,6.8821-1.7791,12.5911-.339,5.7089-.1201,17.2902-.1201,17.2902h4.1618s2.8909-21.1573,4.0011-21.304c.7758-.1026,1.3724.8181,1.6621,1.3827,2.031-1.4269,9.0849-3.1377,9.386-3.2102.1258-.0305.2526.0472.283.1733.0302.126-.0472.2526-.1733.283-.0731.0176-7.3403,1.7792-9.2547,3.1569-.506.3642-.868.6959-1.1332,1.0071-.244.3424-.7377,1.3244-.9642,2.491-.4161,2.1436.4238,3.9576,4.7158,7.8504,4.6328,4.2018,10.7906,7.7762,10.7906,7.7762l2.4576-3.0755s-10.1424-9.6941-9.7998-9.8744c.3425-.1803,4.5614,2.8489,8.7353,3.1208,4.1739.2719,6.1314-.7583,8.3286-3.3519,2.1972-2.5936,1.8779-6.0502,1.8779-6.0502Z"/><path class="cls-18" d="m227.3107,122.352c-.0699.0069-.1264.0484-.1557.1136-.2842.6334-.7612,1.1388-1.3792,1.4617-.1101.0575-.1225.1783-.0784.2626.0384.0735.1227.1242.2166.0912.0091-.0032.0184-.0072.0277-.0121.7104-.3712,1.2377-.9318,1.5671-1.6662.027-.0599.022-.1226-.0136-.1721-.0399-.0552-.1123-.0861-.1845-.0787Z"/><path class="cls-18" d="m224.0813,118.4206c-.4305-.2008-.8327-.3043-1.309-.2906-.1522.0044-.1528.2414,0,.237.0578-.0017.1114.0031.1669.0049-.0559.2492.1484.5465.4282.4689.1273-.0353.2412-.1426.2762-.271.0066-.0242.006-.0473.0057-.0703.1032.0354.2066.0765.3124.1258.1374.0641.2579-.1401.1196-.2046Z"/><path class="cls-18" d="m229.2703,119.5313c-.2115-.112-.4174-.2331-.621-.3583.0661.0069.1317.014.1943.0185.1869.0133.3739.0266.5609.04.1518.0108.1736-.2252.0209-.2361-.3882-.0277-.8321-.1181-1.2184-.0654-.0993.0136-.1334.1569-.0492.2128.3332.221.6764.4234,1.0297.6105.1344.0711.216-.1515.0829-.222Z"/></g><g><path class="cls-8" d="m174.6766,107.064c-.0011.0055-.003.0106-.0038.0162l-.9339,7.2538,4.7735-3.4968c-1.2861-1.1729-3.0402-2.9559-3.8358-3.7732Z"/><path class="cls-8" d="m185.3825,115.8331l.9339-7.2538c.0007-.0056.0001-.0111.0005-.0167-.9767.5891-3.1252,1.8697-4.6665,2.6786l3.7321,4.5919Z"/><path class="cls-8" d="m181.3191,111.4122c-.6746.3428-1.1883.5642-1.3557.5426-.1673-.0215-.6082-.3658-1.174-.8683l-4.8202,3.5311,11.1185,1.4315-3.7686-4.6368Z"/><path class="cls-8" d="m180.0154,111.5937c.3675-.0018,3.3506-1.6798,6.0419-3.3008l-11.0613-1.4241c2.1929,2.2498,4.6541,4.6287,5.0194,4.7249Z"/></g><g><path class="cls-24" d="m168.7979,87.063c-.004.0048-.0087.0088-.0125.0139l-4.8338,6.6384,6.5871-.8673c-.6334-1.8488-1.3984-4.5509-1.7409-5.785Z"/><path class="cls-24" d="m174.6074,101.4744l4.8338-6.6384c.0038-.0052.0061-.0109.0095-.0162-1.2796.053-4.0861.1545-6.0402.1193l1.1969,6.5353Z"/><path class="cls-24" d="m172.9921,94.9288c-.8492-.0265-1.4745-.0857-1.6276-.1972-.1531-.1115-.4014-.6884-.6874-1.4885l-6.6516.8757,10.1752,7.4091-1.2086-6.5992Z"/><path class="cls-24" d="m171.6104,94.404c.3628.1965,4.2056.1541,7.7302.0102l-10.1229-7.371c.9452,3.3986,2.0848,7.069,2.3926,7.3608Z"/></g><g><path class="cls-18" d="m139.066,95.3589c-.0033.0065-.0076.0122-.0106.0189l-3.7881,8.7426,7.2378-2.6536c-1.1864-1.9325-2.7382-4.7977-3.4391-6.108Z"/><path class="cls-18" d="m149.3007,110.2011l3.7881-8.7426c.003-.0068.0041-.0139.0066-.0207-1.4353.3847-4.5871,1.2119-6.8084,1.6679l3.0136,7.0954Z"/><path class="cls-18" d="m145.8107,103.2001c-.9682.1855-1.6911.2772-1.8928.1898-.2017-.0874-.6292-.6775-1.156-1.5108l-7.3086,2.6795,13.4005,5.8064-3.0431-7.1648Z"/><path class="cls-18" d="m144.1132,102.9566c.4607.1305,4.8006-.8928,8.7547-1.9501l-13.3316-5.7765c1.9327,3.608,4.1544,7.4744,4.5769,7.7267Z"/></g><path class="cls-22" d="m128.8078,88.3771c-.0535-.0268-.1119-.042-.1718-.0448-2.7778-.1291-4.1542-1.2091-4.8346-2.1798.1169-.3074.1761-.4972.1761-.4972,0,0,.3331-1.0987.2752-2.5461.0445-.0258.0863-.0574.1203-.1.0207-.0257,2.0908-2.5593,5.9405-2.2582.1125.0065.2237-.027.3097-.0999.1618-.1368,3.9418-3.4418,2.0659-11.3086-.0549-.2302-.2867-.3723-.5159-.3172-.2301.0549-.3723.2859-.3174.5161,1.5619,6.5496-1.0728,9.7252-1.6699,10.3426-.0317-.0018-.0635-.0034-.0952-.0049-3.1202-.145-5.1314,1.3612-5.9585,2.1439-.0695-.3807-.1687-.7705-.3148-1.1607-.2031-.542-.4844-.9922-.8122-1.3714,1.2936-.8773,3.6564-2.173,6.0192-1.8984.193.0221.3776-.088.4483-.2696.0349-.0891,3.4075-8.9722-3.099-14.3073-.1828-.1502-.4526-.1235-.6029.0596-.15.1828-.1232.4528.0596.6027,5.3707,4.4038,3.4489,11.4941,2.9483,13.033-2.6316-.156-5.1126,1.2663-6.41,2.1734-1.0569-.8228-2.3723-1.119-3.3632-1.165-.9743-.0453-2.2843.1189-3.4008.81-1.2073-1.0147-3.4773-2.593-6.0289-2.7116-.0343-.0016-.068-.0029-.102-.004-.3577-1.5775-1.621-8.8102,4.1448-12.7034.196-.1323.2477-.3986.1153-.5945-.1327-.1963-.3986-.2479-.5948-.1153-6.9733,4.7086-4.4392,13.8662-4.4127,13.9581.0536.1873.23.3137.4213.31,2.3349-.0553,4.5347,1.4052,5.7559,2.3992-.3803.3548-.7179.7918-.9809,1.3345-.1678.3462-.295.6956-.3963,1.0405-.799-.8791-2.6393-2.4563-5.6528-2.5964-.0318-.0015-.0635-.0028-.0953-.004-.539-.673-2.8648-4.079-.703-10.4528.076-.2241-.0442-.4673-.268-.5433-.2255-.0761-.4674.0441-.5433.268-2.5975,7.6589.8593,11.3002,1.0078,11.4514.0789.0806.1857.125.2991.1282,3.8305.0641,5.6289,2.6846,5.7059,2.8001.0044.0066.0103.0113.015.0176-.2138,1.4779.0269,2.6482.0269,2.6482,0,0,.0278.1303.0851.3485-.728.946-2.2041,2.0135-5.1419,1.8769-.0599-.0028-.1195.007-.1752.0287-.1441.0561-3.5282,1.4907-3.6785,11.7225-.0035.2318.1781.4234.408.4341.0046.0002.0092.0004.0139.0004.2364.0036.431-.1854.4344-.422.1287-8.7548,2.6468-10.6461,3.0721-10.9032,2.7822.1028,4.4112-.8165,5.3535-1.792.151.4428.352.9614.6098,1.4962-.012.0587-.5552,2.5223-4.2723,2.3496-.0513-.0024-.1024.0045-.1511.02-.2154.0693-2.108.8147-2.2697,5.59-.0078.2345.1742.4314.4082.4423.2419.0082.4401-.1769.448-.4134.1265-3.7359,1.3681-4.6318,1.6282-4.7791,2.9607.104,4.222-1.3091,4.7314-2.2473.7523,1.2456.9584,1.0977.7667,2.8018-.0792.7035.2852,1.1696.7681,1.4777.0337.3121.2825,1.9193.7862,2.2011.6297.3523.6847-.2433.6572-.4241-.0205-.1346.0211-.9824.0108-1.2538.2671.0484.4475.0613.4475.0613,0,0,.1808.0039.4513-.0196-.0354.2692-.2125,1.1107-.2453,1.2429-.0441.1774-.0446.7756.615.4832.5277-.2339,1.0642-1.8046,1.1268-2.1122.5094-.262.9154-.6922.9018-1.4001-.0346-1.8065.18-1.5257,1.1686-2.9202.3443.9558,1.4061,2.7058,4.5891,2.8889.2509.1688,1.3976,1.1551,1.1754,4.9094-.0141.236.1661.4389.4024.4529.2393.0111.4388-.168.4528-.4023.2823-4.7697-1.5333-5.6875-1.7413-5.7764-.0471-.0201-.0973-.0316-.1486-.034-3.7085-.1724-4.0246-2.6331-4.0363-2.7404-.0091-.0883-.0444-.1677-.0973-.2312.2181-.3802.4031-.7482.5558-1.0802.8688,1.0121,2.3912,1.9955,5.0507,2.145.4158.3085,2.7314,2.439,2.0495,11.1413-.0185.2359.1575.4421.3934.4604.0047.0005.0092.0007.0139.0009.2301.0107.4285-.1632.4466-.3943.7996-10.2017-2.437-11.9439-2.5753-12.0132Z"/><path class="cls-20" d="m120.1844,84.8062c-.0373.802-.7176,1.4219-1.5196,1.3846-.8019-.0373-1.4218-.7176-1.3846-1.5196.0373-.8019.7176-1.4218,1.5196-1.3846.8019.0373,1.4218.7176,1.3846,1.5195Z"/><path class="cls-8" d="m119.4293,88.3723c-.0222.4771-.4269.8459-.9041.8238-.4771-.0222-.8459-.427-.8238-.9041s.427-.8459.9041-.8238.8459.4269.8238.9041Z"/><path class="cls-14" d="m40.3142,91.774c-.7991,0-1.4494-.6502-1.4494-1.4494s.6503-1.4493,1.4494-1.4493,1.4491.6502,1.4491,1.4493-.65,1.4494-1.4491,1.4494Zm0-2.4247c-.5378,0-.9754.4375-.9754.9753s.4376.9754.9754.9754.9752-.4376.9752-.9754-.4374-.9753-.9752-.9753Z"/><path class="cls-14" d="m44.6531,91.774c-.7991,0-1.4492-.6502-1.4492-1.4494s.6501-1.4493,1.4492-1.4493,1.4494.6502,1.4494,1.4493-.6503,1.4494-1.4494,1.4494Zm0-2.4247c-.5378,0-.9752.4375-.9752.9753s.4374.9754.9752.9754.9754-.4376.9754-.9754-.4376-.9753-.9754-.9753Z"/><path class="cls-14" d="m48.7193,91.774c-.7991,0-1.4494-.6502-1.4494-1.4494s.6503-1.4493,1.4494-1.4493,1.4492.6502,1.4492,1.4493-.6501,1.4494-1.4492,1.4494Zm0-2.4247c-.5378,0-.9754.4375-.9754.9753s.4376.9754.9754.9754.9752-.4376.9752-.9754-.4374-.9753-.9752-.9753Z"/><g><rect class="cls-8" x="145.5961" y="69.6717" width="11.3032" height="16.6319" transform="translate(-13.3166 121.3065) rotate(-42.0245)"/><path class="cls-23" d="m144.3861,76.4333c-.097,0-.1939-.0396-.2641-.1174-.1314-.1459-.1196-.3706.0261-.5021l3.8201-3.4426c.1451-.1313.3703-.1202.5019.026.1314.1459.1196.3706-.0261.5021l-3.82,3.4426c-.0678.0612-.153.0914-.2379.0914Z"/><path class="cls-23" d="m145.9611,78.1811c-.0969,0-.1939-.0396-.264-.1176-.1314-.1458-.1196-.3705.0261-.5019l3.8203-3.4426c.1449-.1312.3703-.1202.502.0262.1314.1458.1196.3705-.0262.5019l-3.8203,3.4426c-.0678.0612-.153.0914-.2379.0914Z"/><path class="cls-23" d="m150.1931,82.8772c-.0969,0-.1939-.0396-.264-.1176-.1314-.1458-.1196-.3705.0261-.5019l3.8203-3.4426c.1451-.1312.3703-.1202.502.0262.1314.1458.1196.3705-.0262.5019l-3.8203,3.4426c-.0678.0612-.153.0914-.2379.0914Z"/></g><g><rect class="cls-20" x="141.2165" y="80.8647" width="8.6316" height="12.7009" transform="translate(22.624 204.1753) rotate(-74.5131)"/><path class="cls-18" d="m140.2436,89.0691c-.0315,0-.0634-.0043-.0951-.0131-.1893-.0524-.3002-.2482-.2476-.4374l1.0486-3.7844c.0523-.1894.2488-.2998.4374-.2476.1893.0524.3002.2482.2476.4374l-1.0486,3.7844c-.0435.1575-.1865.2607-.3423.2607Z"/><path class="cls-18" d="m142.0609,89.6348c-.0315,0-.0634-.0043-.0951-.0131-.1893-.0524-.3002-.2482-.2476-.4374l1.0486-3.7844c.0523-.1894.2486-.2998.4374-.2476.1893.0524.3002.2482.2476.4374l-1.0486,3.7844c-.0435.1575-.1865.2607-.3423.2607Z"/><path class="cls-18" d="m146.627,90.8378c-.0315,0-.0634-.0042-.0951-.0131-.1893-.0524-.3002-.2482-.2476-.4374l1.0488-3.7844c.0523-.1893.2483-.3011.4374-.2476.1893.0524.3002.2482.2476.4374l-1.0488,3.7844c-.0435.1575-.1865.2607-.3423.2607Z"/></g><g><rect class="cls-18" x="182.7007" y="95.5286" width="8.6316" height="12.7009" transform="translate(-18.0143 159.4716) rotate(-44.2697)"/><path class="cls-8" d="m181.5138,100.8168c-.0272-.0159-.0526-.0356-.0756-.0592-.1371-.1406-.1343-.3656.0064-.5026l2.8119-2.7412c.1406-.1373.3659-.1337.5026.0064.1371.1406.1343.3656-.0064.5026l-2.812,2.7412c-.1169.1141-.2924.1313-.427.0528Z"/><path class="cls-8" d="m182.7989,102.2209c-.0272-.0159-.0526-.0356-.0756-.0592-.1371-.1406-.1343-.3656.0064-.5026l2.8119-2.7412c.1406-.1373.3657-.1338.5026.0064.1371.1406.1343.3656-.0064.5026l-2.8119,2.7412c-.1169.1141-.2924.1313-.427.0528Z"/><path class="cls-8" d="m186.1376,105.56c-.0272-.0159-.0527-.0355-.0756-.0592-.1371-.1406-.1343-.3656.0064-.5026l2.8122-2.7411c.1405-.1372.3662-.135.5026.0064.1371.1406.1343.3656-.0064.5026l-2.8122,2.7411c-.1169.1141-.2924.1313-.427.0528Z"/></g><g><rect class="cls-28" x="159.1835" y="91.0626" width="8.6316" height="12.7009" transform="translate(1.5618 197.4008) rotate(-62.4797)"/><rect class="cls-28" x="148.1621" y="89.4398" width="7.3432" height="10.8051" transform="translate(-2.434 185.672) rotate(-62.4795)"/><rect class="cls-28" x="157.2619" y="108.8093" width="6.2801" height="9.2408" transform="translate(38.5988 267.5693) rotate(-86.9501)"/><path class="cls-8" d="m156.6435,98.0961c-.0308-.0066-.0611-.0174-.0903-.0326-.1742-.0907-.2418-.3053-.151-.4794l1.8145-3.4826c.0906-.1744.3058-.2414.4794-.151.1742.0907.2418.3053.151.4794l-1.8145,3.4826c-.0754.145-.2368.2161-.3891.1836Z"/><path class="cls-8" d="m158.303,99.0282c-.0308-.0066-.0611-.0174-.0903-.0326-.1742-.0907-.2418-.3053-.151-.4794l1.8145-3.4826c.0906-.1744.3056-.2414.4794-.151.1742.0907.2418.3053.151.4794l-1.8145,3.4826c-.0754.145-.2368.2161-.3891.1836Z"/><path class="cls-8" d="m162.518,101.1568c-.0308-.0066-.0611-.0173-.0903-.0326-.1742-.0907-.2418-.3053-.151-.4794l1.8147-3.4826c.0906-.1742.3056-.2427.4794-.151.1742.0907.2418.3053.151.4794l-1.8147,3.4826c-.0754.145-.2368.2161-.3891.1836Z"/></g><g><rect class="cls-8" x="161.4899" y="103.0115" width="8.454" height="12.4396" transform="translate(47.8233 268.9018) rotate(-86.9501)"/><path class="cls-23" d="m161.0749,112.1996c-.0063,0-.0127-.0002-.0192-.0005-.196-.0104-.3464-.178-.336-.374l.2046-3.8409c.0106-.1958.1775-.3418.374-.336.196.0104.3465.1779.336.374l-.2046,3.8409c-.0102.1895-.1671.3365-.3547.3365Z"/><path class="cls-23" d="m162.8321,112.2931c-.0063,0-.0127-.0002-.0192-.0005-.196-.0104-.3464-.178-.336-.374l.2048-3.8406c.0107-.1958.1726-.3423.374-.336.196.0104.3464.1779.336.374l-.2048,3.8406c-.0102.1895-.1671.3365-.3548.3365Z"/><path class="cls-23" d="m167.5535,112.5446c-.0062,0-.0127-.0002-.0192-.0005-.196-.0104-.3464-.178-.336-.374l.2048-3.8406c.0106-.1958.1775-.3425.374-.336.196.0104.3464.178.336.374l-.2048,3.8406c-.0102.1895-.1671.3365-.3548.3365Z"/></g><path class="cls-2" d="m196.186,96.1663c.8815.4142,1.18,2.235.7982,4.8679-.4165,2.8874-1.5756,6.4482-3.2646,10.0297-3.651,7.7438-8.158,12.2115-9.9233,11.3809l-5.4579-2.5728c2.8921-1.1869,6.5754-6.3695,9.1158-11.7626,1.726-3.6602,2.9152-7.3158,3.3456-10.2912.2591-1.7931.2291-3.216-.0833-4.2294l5.4695,2.5774Z"/><path class="cls-2" d="m183.4053,87.3767c2.3923,1.1268,1.7052,9.2176-3.1257,19.4671-2.191,4.6481-4.8008,8.7526-7.3482,11.5567-2.3923,2.6353-4.4631,3.8199-5.68,3.2438l-6.742-3.179c1.3142-.4466,2.8458-1.6172,4.5417-3.4821,2.6052-2.8689,5.2682-7.0544,7.4986-11.7835,2.2281-4.7291,3.762-9.4467,4.3173-13.2827.3609-2.4964.2869-4.4214-.2059-5.7217l6.7443,3.1813Z"/><path class="cls-2" d="m168.8408,74.1426c1.7561.8283,2.353,4.1438,1.6381,9.0973-.7543,5.1988-2.8389,11.6123-5.8767,18.0535-6.152,13.049-13.4863,20.7512-17.2807,20.7512-.354,0-.6779-.0671-.9671-.2036l-10.6521-5.0207c1.8903-.4835,4.1738-2.1401,6.6657-4.8841,3.5931-3.9564,7.2649-9.7266,10.3398-16.2488,5.4579-11.5799,7.5171-22.1972,5.4695-26.5724l10.6636,5.0253v.0023Z"/><g><g><rect class="cls-25" x="157.475" y="152.746" width="6.2683" height="9.2233" transform="translate(4.653 -4.6128) rotate(1.6696)"/><path class="cls-18" d="m158.3845,153.9497c-.0055-.0222-.008-.0455-.0073-.0693.0041-.1426.123-.2547.2655-.2505l2.8505.0831c.1426.004.2546.1234.2505.2655-.0041.1426-.123.2547-.2655.2505l-2.8505-.0831c-.1186-.0034-.2162-.0863-.2432-.1961Z"/><path class="cls-18" d="m158.3007,155.3294c-.0055-.0222-.008-.0455-.0073-.0693.0041-.1426.123-.2547.2655-.2505l2.8505.0831c.1427.004.2545.1233.2505.2655-.0041.1426-.123.2547-.2655.2505l-2.8505-.0831c-.1186-.0034-.2162-.0863-.2432-.1961Z"/><path class="cls-18" d="m158.2443,158.758c-.0055-.0222-.0081-.0454-.0073-.0693.0041-.1426.123-.2547.2655-.2505l2.8506.0832c.1425.0041.2554.1229.2505.2655-.0041.1426-.123.2547-.2655.2505l-2.8506-.0832c-.1186-.0034-.2162-.0863-.2432-.1962Z"/></g><g><rect class="cls-25" x="143.962" y="150.5409" width="8.1843" height="12.0427" transform="translate(-62.8043 112.172) rotate(-34.7115)"/><path class="cls-18" d="m143.0763,154.7027c-.0229-.0191-.0436-.0416-.0613-.0673-.1061-.1531-.068-.363.0851-.4689l3.0608-2.1203c.1531-.1062.3632-.0674.4689.0851.1061.1531.068.363-.0851.4689l-3.0608,2.1203c-.1273.0883-.2941.0767-.4076-.0178Z"/><path class="cls-18" d="m144.0568,156.2179c-.0229-.0191-.0436-.0416-.0613-.0673-.1061-.1531-.068-.363.0851-.4689l3.0608-2.1203c.1531-.1062.363-.0675.4689.0851.1061.1531.068.363-.0851.4689l-3.0608,2.1203c-.1273.0883-.2941.0767-.4076-.0178Z"/><path class="cls-18" d="m146.6528,159.8657c-.0229-.0191-.0437-.0415-.0614-.0673-.1061-.1531-.068-.363.0851-.4689l3.061-2.1202c.153-.1062.3636-.0686.4689.0851.1061.1531.068.363-.0851.4689l-3.061,2.1202c-.1273.0883-.2941.0767-.4075-.0178Z"/></g><g><rect class="cls-18" x="149.5252" y="147.651" width="7.7917" height="11.465" transform="translate(-39.8951 54.9285) rotate(-18.0035)"/><path class="cls-8" d="m149.391,150.3254c-.0157-.0237-.0284-.0499-.0375-.0781-.0548-.1686.0373-.3496.2059-.4043l3.3713-1.0956c.1686-.055.3496.0379.4043.2059.0548.1686-.0373.3496-.206.4043l-3.3713,1.0956c-.1402.0457-.2892-.0106-.3667-.1278Z"/><path class="cls-8" d="m149.8703,151.9753c-.0157-.0237-.0283-.0499-.0375-.0781-.0548-.1686.0373-.3496.206-.4043l3.3713-1.0956c.1687-.055.3495.0378.4043.2059.0548.1686-.0373.3496-.2059.4043l-3.3713,1.0956c-.1402.0457-.2892-.0106-.3667-.1278Z"/><path class="cls-8" d="m151.239,156.0121c-.0157-.0237-.0285-.0498-.0375-.0781-.0548-.1686.0373-.3496.2059-.4043l3.3714-1.0955c.1686-.0549.3503.037.4043.2059.0548.1686-.0373.3496-.2059.4043l-3.3714,1.0955c-.1402.0457-.2892-.0106-.3667-.1278Z"/></g><g><rect class="cls-8" x="151.7348" y="154.0819" width="7.3121" height="10.7593" transform="translate(8.9 -8.213) rotate(3.1168)"/><path class="cls-23" d="m156.4576,155.9801c-.0065,0-.013-.0002-.0197-.0005l-3.3218-.181c-.196-.0106-.3462-.1782-.3356-.3744.0109-.196.1724-.3418.3744-.3356l3.3218.181c.196.0106.3462.1782.3356.3744-.0104.1893-.1673.336-.3548.336Z"/><path class="cls-23" d="m156.375,157.4999c-.0065,0-.013-.0002-.0197-.0005l-3.3218-.181c-.196-.0106-.3462-.1782-.3356-.3744.0109-.196.1719-.3446.3744-.3356l3.3218.181c.196.0106.3462.1782.3356.3744-.0104.1893-.1673.336-.3547.336Z"/><path class="cls-23" d="m156.1526,161.5833c-.0065,0-.013-.0002-.0197-.0005l-3.3218-.181c-.196-.0106-.3462-.1782-.3356-.3744.0106-.196.1726-.3416.3744-.3356l3.3218.181c.196.0106.3462.1782.3356.3744-.0104.1893-.1673.336-.3547.336Z"/></g><path class="cls-18" d="m142.7986,162.5575c-.7499,1.4462-1.9283,11.4092-1.9283,12.4805s-1.6069,1.8212-1.3927,2.8389c.2142,1.0177,1.3391.2678,2.9996.857,1.6605.5892,7.5525,1.8747,11.7841,1.9819,4.2316.1071,10.3915-2.1426,11.1414-2.0355.7499.1071,2.5175,0,2.5711-.7499.0536-.7499-.6428-2.1426-1.3927-2.5711s-.7499-5.41-1.4462-9.1059c-.6963-3.6959-1.0713-3.6959-1.0713-3.6959h-21.265Z"/><path class="cls-21" d="m142.4237,157.0404c-.5939-.3126-2.2497,4.178-1.4998,5.5171.7499,1.3391,8.356,2.089,12.1055,2.1961,3.7495.1071,11.8377-.3214,12.5876-1.7676.7499-1.4462-.2142-4.8743-.5356-5.035s-6.2982,1.7676-10.8623,1.3927c-4.5642-.375-9.7599-1.232-11.7953-2.3033Z"/><g><path class="cls-18" d="m185.9114,176.0848c-.5421-.3098-.5421-3.9112-1.0455-6.5832-.5034-2.672-.7839-3.8358-1.3178-5.0628-.7165-1.6467-2.3041-5.0063-4.8347-5.3129-.1379-.0167-.2718-.0318-.402-.0455.6868-.9297,1.3218-1.8389,1.199-2.6376-.0286-.1856-1.4876-.85-1.8329-.755-.3453.095-1.1688.2503-1.7001.0378-.5313-.2125-2.4705.5047-2.7096,1.3016-.1556.5188.6913,1.5846,1.3014,2.2656-.1171.0386-.2321.0799-.3451.1252-1.0599.425-4.7367,3.709-5.5063,7.4114-.5421,1.0455-1.3941,8.2483-1.3941,9.0228s-1.1617,1.3166-1.0068,2.0524c.1549.7358.9681.1936,2.1686.6196,1.2005.426,5.4602,1.3553,8.5194,1.4328,3.0593.0774,7.5125-1.549,8.0547-1.4715s1.8201,0,1.8588-.5421c.0387-.5421-.4647-1.549-1.0068-1.8588Z"/><path class="cls-8" d="m178.1847,158.8154c-1.0594.5673-2.6415.3317-3.7456.0583-.531-.1315-.7576.6881-.226.8197,1.3669.3384,3.1095.5474,4.4007-.144.4825-.2583.0536-.9924-.429-.734Z"/></g></g><g><g><g class="cls-34"><path d="m54.1832,95.66h29.307c.7829,0,1.4185.6356,1.4185,1.4185v52.5313c0,.7829-.6356,1.4185-1.4185,1.4185h-29.3071c-.7829,0-1.4185-.6356-1.4185-1.4185v-52.5313c0-.7829.6356-1.4185,1.4185-1.4185Z"/><rect x="58.0777" y="105.6545" width="6.0936" height="35.3792" rx="1.3854" ry="1.3854"/><rect x="65.7899" y="105.6545" width="6.0936" height="35.3792" rx="1.3854" ry="1.3854"/><rect x="73.5022" y="105.6545" width="6.0936" height="35.3792" rx="1.3854" ry="1.3854"/><path d="m68.8367,136.8059c.4802,0,.8695.3893.8695.8695s-.3892.8695-.8695.8695-.8695-.3893-.8695-.8695.3893-.8695.8695-.8695Z"/><circle cx="68.8367" cy="134.391" r=".8695"/><circle cx="68.8367" cy="131.1065" r=".8695"/><circle cx="68.8367" cy="127.8221" r=".8695"/><circle cx="68.8367" cy="124.5376" r=".8695"/><circle cx="68.8367" cy="121.2532" r=".8695"/></g><g><path class="cls-5" d="m53.6273,94.5482h29.307c.7829,0,1.4185.6356,1.4185,1.4185v52.5313c0,.7829-.6356,1.4185-1.4185,1.4185h-29.3071c-.7829,0-1.4185-.6356-1.4185-1.4185v-52.5313c0-.7829.6356-1.4185,1.4185-1.4185Z"/><g><rect class="cls-15" x="57.5218" y="104.5427" width="6.0936" height="35.3792" rx="1.3854" ry="1.3854"/><rect class="cls-15" x="65.234" y="104.5427" width="6.0936" height="35.3792" rx="1.3854" ry="1.3854"/><rect class="cls-2" x="72.9463" y="104.5427" width="6.0936" height="35.3792" rx="1.3854" ry="1.3854"/></g><g><path class="cls-27" d="m68.2808,135.6941c.4802,0,.8695.3893.8695.8695s-.3892.8695-.8695.8695-.8695-.3893-.8695-.8695.3893-.8695.8695-.8695Z"/><circle class="cls-27" cx="68.2808" cy="133.2792" r=".8695"/><circle class="cls-27" cx="68.2808" cy="129.9948" r=".8695"/><circle class="cls-27" cx="68.2808" cy="126.7103" r=".8695"/><circle class="cls-27" cx="68.2808" cy="123.4258" r=".8695"/><circle class="cls-27" cx="68.2808" cy="120.1414" r=".8695"/></g></g></g><g><g class="cls-34"><path d="m35.1655,110.5656h25.211c1.1814,0,2.1405.9591,2.1405,2.1405v42.0604c0,1.1814-.9591,2.1406-2.1406,2.1406h-25.211c-1.1814,0-2.1405-.9591-2.1405-2.1405v-42.0605c0-1.1814.9591-2.1405,2.1405-2.1405Z"/><rect x="52.7928" y="110.5656" width="5.7782" height="46.3415"/><path d="m38.509,153.572c-1.4363,0-2.6006-1.1643-2.6006-2.6006s1.1643-2.6006,2.6006-2.6006,2.6006,1.1643,2.6006,2.6006-1.1643,2.6006-2.6006,2.6006Z"/><rect x="44.2512" y="116.1235" width="3.6567" height="19.1404"/></g><g><path class="cls-2" d="m34.6096,109.4538h25.2111c1.1814,0,2.1405.9591,2.1405,2.1405v42.0605c0,1.1814-.9591,2.1406-2.1406,2.1406h-25.211c-1.1814,0-2.1405-.9591-2.1405-2.1405v-42.0605c0-1.1814.9591-2.1405,2.1405-2.1405Z"/><rect class="cls-26" x="52.2369" y="109.4538" width="5.7782" height="46.3415"/><path class="cls-20" d="m37.9531,152.4602c-1.4363,0-2.6006-1.1643-2.6006-2.6006s1.1643-2.6006,2.6006-2.6006,2.6006,1.1643,2.6006,2.6006-1.1643,2.6006-2.6006,2.6006Z"/><rect class="cls-20" x="43.6953" y="115.0117" width="3.6567" height="19.1404"/></g></g><g><g class="cls-34"><path d="m48.6298,168.7601H11.5468c-.4636,0-.8395-.3758-.8395-.8394v-41.9012c0-.2978.2414-.5392.5392-.5392h37.6834c.2978,0,.5392.2414.5392.5392v41.9012c0,.4636-.3758.8394-.8394.8394Z"/><rect x="14.2587" y="133.2159" width="21.1061" height="2.1859"/><rect x="41.2436" y="133.2159" width="4.6742" height="2.1859"/><rect x="14.2587" y="137.6" width="21.1061" height="2.1859"/><rect x="41.2436" y="137.6" width="4.6742" height="2.1859"/><rect x="14.2587" y="141.9842" width="21.1061" height="2.1859"/><rect x="41.2436" y="141.9842" width="4.6742" height="2.1859"/><rect x="14.2587" y="158.8233" width="21.1061" height="2.1858"/><rect x="41.2436" y="158.8233" width="4.6742" height="2.1858"/><rect x="14.2587" y="149.2354" width="11.6403" height="2.1859"/><line class="cls-31" x1="14.2587" y1="154.9841" x2="45.9178" y2="154.9841"/></g><g><path class="cls-5" d="m48.0739,167.6483H10.9909c-.4636,0-.8395-.3758-.8395-.8394v-41.9012c0-.2978.2414-.5392.5392-.5392h37.6834c.2978,0,.5392.2414.5392.5392v41.9012c0,.4636-.3758.8394-.8394.8394Z"/><g><g><rect class="cls-15" x="13.7028" y="132.1041" width="21.1061" height="2.1859"/><rect class="cls-15" x="40.6877" y="132.1041" width="4.6742" height="2.1859"/></g><g><rect class="cls-15" x="13.7028" y="136.4882" width="21.1061" height="2.1859"/><rect class="cls-15" x="40.6877" y="136.4882" width="4.6742" height="2.1859"/></g><g><rect class="cls-15" x="13.7028" y="140.8724" width="21.1061" height="2.1859"/><rect class="cls-15" x="40.6877" y="140.8724" width="4.6742" height="2.1859"/></g><g><rect class="cls-15" x="13.7028" y="157.7115" width="21.1061" height="2.1858"/><rect class="cls-15" x="40.6877" y="157.7115" width="4.6742" height="2.1858"/></g><rect class="cls-15" x="13.7028" y="148.1236" width="11.6403" height="2.1859"/><line class="cls-30" x1="13.7028" y1="153.8723" x2="45.3619" y2="153.8723"/></g></g></g></g></g></g></svg>