<?xml version="1.0" encoding="UTF-8"?><svg id="Layer_1" xmlns="http://www.w3.org/2000/svg" xmlns:xlink="http://www.w3.org/1999/xlink" viewBox="0 0 270.0233 290.5198"><defs><style>.cls-1,.cls-2{fill:none;}.cls-3{clip-path:url(#clippath);}.cls-4{fill:#4a9cd5;}.cls-2{stroke:#fff;stroke-width:13px;}.cls-5{opacity:.2;}</style><clipPath id="clippath"><rect class="cls-1" width="138.7385" height="261.9682"/></clipPath></defs><g class="cls-5"><path class="cls-4" d="m270.0233,243.1413H7.4537c4.4235-6.079,5.9964-13.2089,12.5223-17.6524,17.9602-12.229,35.5245-25.0387,53.3123-37.5232,1.779-1.2486,1.9564-2.2983,1.2563-4.2113-5.5055-15.044-10.9088-30.1253-16.3384-45.197-.328-.9104-.6109-1.837-1.1573-3.4896,7.6681,5.1798,14.7145,9.9397,21.761,14.6996-9.3678-18.6787-12.619-38.2086-10.23-58.969,46.8843,9.8383,93.4826,9.8435,140.358.0295,1.6038,10.0829,1.161,20.1338-.5945,30.1493-1.7527,10.0001-5.0547,19.4991-9.4762,28.795,7.0571-4.7736,14.1142-9.5472,21.8727-14.7952-1.5091,4.2296-2.7351,7.698-3.9832,11.1585-4.5138,12.5157-8.9867,25.0465-13.6011,37.525-.7607,2.0572-.4947,3.1045,1.3669,4.4096,18.6839,13.0986,37.2957,26.3002,55.886,39.5315,1.1267.8019,2.0981,1.9865,2.7983,3.1925,2.2996,3.9606,4.4408,8.0132,6.8165,12.3473ZM77.6737,104.1585c1.4487,6.6784,2.4797,12.851,4.1819,18.8327,1.3831,4.8601,4.9741,7.855,10.0908,8.7552,2.4919.4384,4.974.9461,7.4778,1.3016,10.7379,1.5246,21.4426,3.4629,32.2332,4.3977,18.2444,1.5805,35.9984-2.6581,53.8265-5.6379,5.8476-.9774,9.813-5.0685,11.0001-10.8685.5621-2.7464,1.1184-5.4941,1.6847-8.2397.5563-2.6978,1.1219-5.3937,1.7745-8.5283-40.8933,4.8464-81.308,4.8983-122.2694-.0128Z"/><path class="cls-4" d="m142.3536,90.6701c-26.7828-.2835-49.8236-1.6759-72.2922-7.704-6.2467-1.6759-12.2257-4.4136-18.2248-6.9108-1.8665-.777-3.5401-2.2094-5.051-3.6122-4.3934-4.0787-4.4144-8.5413-.0087-12.6522,5.1094-4.7674,11.5787-6.9971,18.059-9.0528,4.1349-1.3117,8.3699-2.3371,12.6058-3.2869,1.651-.3702,2.2359-1.0205,2.2069-2.6994-.0875-5.071-.0536-10.1447-.0251-15.217.1027-18.2587,18.3703-30.0341,35.0715-22.6026,4.5488,2.0241,9.0588,4.1355,13.6028,6.1706,7.0074,3.1384,14.0385,3.1334,21.0471.0109,4.5479-2.0262,9.0563-4.1412,13.6046-6.1666,16.7109-7.4415,34.9929,4.3082,35.1007,22.5561.03,5.0724.0569,10.1458-.0224,15.2171-.0257,1.6442.5386,2.2596,2.1666,2.7372,7.4547,2.1868,14.9596,4.2912,22.2096,7.0482,3.3578,1.2769,6.4924,3.6349,9.1595,6.1145,3.6865,3.4271,3.678,7.8644-.1275,11.1639-3.0907,2.6797-6.713,4.9578-10.4472,6.6439-11.0733,5.0002-22.9589,7.1531-34.8822,8.9275-6.6217.9854-13.2972,1.7276-19.9755,2.1865-9.1214.6267-18.2685.8792-23.7777,1.1281Z"/><path class="cls-4" d="m116.8387,131.5768c-10.3996.0117-18.6781-5.4601-21.4036-13.3475-.2936-.8498-.5233-1.7377-.6486-2.6269-.5056-3.5883,1.0705-5.2589,4.6315-4.6202,5.8757,1.0538,11.7176,2.2959,17.5717,3.4691,4.1686.8354,8.3416,1.6512,12.4981,2.5437,3.7348.8019,4.7504,3.1393,2.5783,6.3339-3.9278,5.7768-9.6629,8.1377-15.2275,8.2477Zm4.7159-8.3302c.0693-2.7292-1.9764-4.9682-4.5819-5.0148-2.5478-.0456-4.7978,2.0375-4.8579,4.4975-.0637,2.6042,2.0796,4.7804,4.7783,4.8517,2.3376.0618,4.6034-2.0451,4.6616-4.3345Z"/><path class="cls-4" d="m162.1374,131.6905c-7.4218-.4886-13.3362-2.8364-16.9736-9.2113-1.4322-2.51-.4472-4.7798,2.3633-5.36,10.2583-2.1176,20.5285-4.1811,30.8144-6.1601,3.3126-.6374,4.9866,1.1256,4.5852,4.4778-.8277,6.9136-7.9527,14.0428-15.5972,15.5309-1.8516.3604-3.7413.5253-5.1921.7228Zm-1.4788-13.4076c-2.4666.0248-4.6263,2.2338-4.594,4.699.0314,2.3976,2.3303,4.6214,4.7593,4.6037,2.4965-.0182,4.6826-2.1649,4.7339-4.6486.0551-2.6728-2.0605-4.6826-4.8991-4.6541Z"/></g><g class="cls-3"><g><path class="cls-4" d="m270.0233,243.1413H7.4537c4.4235-6.079,5.9964-13.2089,12.5223-17.6524,17.9602-12.229,35.5245-25.0387,53.3123-37.5232,1.779-1.2486,1.9564-2.2983,1.2563-4.2113-5.5055-15.044-10.9088-30.1253-16.3384-45.197-.328-.9104-.6109-1.837-1.1573-3.4896,7.6681,5.1798,14.7145,9.9397,21.761,14.6996-9.3678-18.6787-12.619-38.2086-10.23-58.969,46.8843,9.8383,93.4826,9.8435,140.358.0295,1.6038,10.0829,1.161,20.1338-.5945,30.1493-1.7527,10.0001-5.0547,19.4991-9.4762,28.795,7.0571-4.7736,14.1142-9.5472,21.8727-14.7952-1.5091,4.2296-2.7351,7.698-3.9832,11.1585-4.5138,12.5157-8.9867,25.0465-13.6011,37.525-.7607,2.0572-.4947,3.1045,1.3669,4.4096,18.6839,13.0986,37.2957,26.3002,55.886,39.5315,1.1267.8019,2.0981,1.9865,2.7983,3.1925,2.2996,3.9606,4.4408,8.0132,6.8165,12.3473ZM77.6737,104.1585c1.4487,6.6784,2.4797,12.851,4.1819,18.8327,1.3831,4.8601,4.9741,7.855,10.0908,8.7552,2.4919.4384,4.974.9461,7.4778,1.3016,10.7379,1.5246,21.4426,3.4629,32.2332,4.3977,18.2444,1.5805,35.9984-2.6581,53.8265-5.6379,5.8476-.9774,9.813-5.0685,11.0001-10.8685.5621-2.7464,1.1184-5.4941,1.6847-8.2397.5563-2.6978,1.1219-5.3937,1.7745-8.5283-40.8933,4.8464-81.308,4.8983-122.2694-.0128Z"/><path class="cls-4" d="m142.3536,90.6701c-26.7828-.2835-49.8236-1.6759-72.2922-7.704-6.2467-1.6759-12.2257-4.4136-18.2248-6.9108-1.8665-.777-3.5401-2.2094-5.051-3.6122-4.3934-4.0787-4.4144-8.5413-.0087-12.6522,5.1094-4.7674,11.5787-6.9971,18.059-9.0528,4.1349-1.3117,8.3699-2.3371,12.6058-3.2869,1.651-.3702,2.2359-1.0205,2.2069-2.6994-.0875-5.071-.0536-10.1447-.0251-15.217.1027-18.2587,18.3703-30.0341,35.0715-22.6026,4.5488,2.0241,9.0588,4.1355,13.6028,6.1706,7.0074,3.1384,14.0385,3.1334,21.0471.0109,4.5479-2.0262,9.0563-4.1412,13.6046-6.1666,16.7109-7.4415,34.9929,4.3082,35.1007,22.5561.03,5.0724.0569,10.1458-.0224,15.2171-.0257,1.6442.5386,2.2596,2.1666,2.7372,7.4547,2.1868,14.9596,4.2912,22.2096,7.0482,3.3578,1.2769,6.4924,3.6349,9.1595,6.1145,3.6865,3.4271,3.678,7.8644-.1275,11.1639-3.0907,2.6797-6.713,4.9578-10.4472,6.6439-11.0733,5.0002-22.9589,7.1531-34.8822,8.9275-6.6217.9854-13.2972,1.7276-19.9755,2.1865-9.1214.6267-18.2685.8792-23.7777,1.1281Z"/><path class="cls-4" d="m116.8387,131.5768c-10.3996.0117-18.6781-5.4601-21.4036-13.3475-.2936-.8498-.5233-1.7377-.6486-2.6269-.5056-3.5883,1.0705-5.2589,4.6315-4.6202,5.8757,1.0538,11.7176,2.2959,17.5717,3.4691,4.1686.8354,8.3416,1.6512,12.4981,2.5437,3.7348.8019,4.7504,3.1393,2.5783,6.3339-3.9278,5.7768-9.6629,8.1377-15.2275,8.2477Zm4.7159-8.3302c.0693-2.7292-1.9764-4.9682-4.5819-5.0148-2.5478-.0456-4.7978,2.0375-4.8579,4.4975-.0637,2.6042,2.0796,4.7804,4.7783,4.8517,2.3376.0618,4.6034-2.0451,4.6616-4.3345Z"/><path class="cls-4" d="m162.1374,131.6905c-7.4218-.4886-13.3362-2.8364-16.9736-9.2113-1.4322-2.51-.4472-4.7798,2.3633-5.36,10.2583-2.1176,20.5285-4.1811,30.8144-6.1601,3.3126-.6374,4.9866,1.1256,4.5852,4.4778-.8277,6.9136-7.9527,14.0428-15.5972,15.5309-1.8516.3604-3.7413.5253-5.1921.7228Zm-1.4788-13.4076c-2.4666.0248-4.6263,2.2338-4.594,4.699.0314,2.3976,2.3303,4.6214,4.7593,4.6037,2.4965-.0182,4.6826-2.1649,4.7339-4.6486.0551-2.6728-2.0605-4.6826-4.8991-4.6541Z"/></g></g><g><path class="cls-2" d="m138.8956,193.2676c25.0605,0,45.3761,20.3156,45.3761,45.3761,0,25.0605-20.3156,45.3761-45.3761,45.3761-25.0605,0-45.3761-20.3156-45.3761-45.3761,0-25.0605,20.3156-45.3761,45.3761-45.3761Zm.4014,54.6182c2.9439,2.9432,5.9337,5.8426,8.8118,8.8488,1.5099,1.5771,3.6697,1.5998,5.1351-.0235,1.2537-1.3887,2.6343-2.6627,3.9593-3.987,1.3596-1.359,1.3505-3.2567-.0193-4.6257-3.0177-3.0159-6.034-6.0331-9.05-9.0506-.1294-.1295-.2501-.2677-.4412-.4732.1822-.1397.3342-.2317.4563-.3536,3.0198-3.0145,6.0358-6.0329,9.054-9.049,1.3432-1.3423,1.3524-3.2536.0178-4.5887-1.3612-1.3617-2.7224-2.7232-4.0843-4.0841-1.589-1.5879-3.3384-1.595-4.9173-.017-2.969,2.9672-5.9362,5.9362-8.9049,8.9037-.1314.1314-.2703.2554-.5167.4874-.126-.1853-.2115-.3653-.3442-.4983-2.9885-2.9968-5.9796-5.9909-8.9758-8.98-1.4584-1.455-3.267-1.4483-4.7316.0097-1.4013,1.395-2.7987,2.7941-4.1954,4.1938-1.308,1.3108-1.3003,3.2416.0134,4.5551,3.0298,3.0291,6.0593,6.0584,9.088,9.0886.1292.1293.2491.2678.4381.4719-.2061.1661-.3819.2833-.5285.4297-3.0077,3.0021-6.0127,6.0069-9.0168,9.0126-1.2882,1.2889-1.2935,3.2319-.0111,4.5181,1.3839,1.388,2.771,2.7728,4.1581,4.1575,1.5357,1.5331,3.3113,1.5369,4.8429.0067,2.9695-2.9667,5.9372-5.9352,8.9028-8.9059.1342-.1344.2397-.2975.3941-.4919.2184.2084.3446.3241.4655.445Z"/><path class="cls-4" d="m138.8956,193.2676c25.0605,0,45.3761,20.3156,45.3761,45.3761,0,25.0605-20.3156,45.3761-45.3761,45.3761-25.0605,0-45.3761-20.3156-45.3761-45.3761,0-25.0605,20.3156-45.3761,45.3761-45.3761Zm.4014,54.6182c2.9439,2.9432,5.9337,5.8426,8.8118,8.8488,1.5099,1.5771,3.6697,1.5998,5.1351-.0235,1.2537-1.3887,2.6343-2.6627,3.9593-3.987,1.3596-1.359,1.3505-3.2567-.0193-4.6257-3.0177-3.0159-6.034-6.0331-9.05-9.0506-.1294-.1295-.2501-.2677-.4412-.4732.1822-.1397.3342-.2317.4563-.3536,3.0198-3.0145,6.0358-6.0329,9.054-9.049,1.3432-1.3423,1.3524-3.2536.0178-4.5887-1.3612-1.3617-2.7224-2.7232-4.0843-4.0841-1.589-1.5879-3.3384-1.595-4.9173-.017-2.969,2.9672-5.9362,5.9362-8.9049,8.9037-.1314.1314-.2703.2554-.5167.4874-.126-.1853-.2115-.3653-.3442-.4983-2.9885-2.9968-5.9796-5.9909-8.9758-8.98-1.4584-1.455-3.267-1.4483-4.7316.0097-1.4013,1.395-2.7987,2.7941-4.1954,4.1938-1.308,1.3108-1.3003,3.2416.0134,4.5551,3.0298,3.0291,6.0593,6.0584,9.088,9.0886.1292.1293.2491.2678.4381.4719-.2061.1661-.3819.2833-.5285.4297-3.0077,3.0021-6.0127,6.0069-9.0168,9.0126-1.2882,1.2889-1.2935,3.2319-.0111,4.5181,1.3839,1.388,2.771,2.7728,4.1581,4.1575,1.5357,1.5331,3.3113,1.5369,4.8429.0067,2.9695-2.9667,5.9372-5.9352,8.9028-8.9059.1342-.1344.2397-.2975.3941-.4919.2184.2084.3446.3241.4655.445Z"/></g></svg>