<?xml version="1.0" encoding="UTF-8"?><svg id="Layer_1" xmlns="http://www.w3.org/2000/svg" viewBox="0 0 275.0171 288.9822"><defs><style>.cls-1{fill:#4a9cd5;}</style></defs><path class="cls-1" d="m93.5185,275.0456c0,3.0013.0109,5.8588-.0029,8.7162-.0156,3.2408-1.8677,5.1875-5.0869,5.1926-11.8823.0188-23.7647.0087-35.6469-.0283-3.166-.0099-5.0141-1.9016-5.0554-5.0513-.0368-2.805-.0251-5.6106-.0408-8.4159-.0006-.1045-.064-.2088-.1762-.5523-.5051,0-1.0891-.0008-1.6731.0001-6.8212.0107-13.6425.0322-20.4637.0302C10.975,274.9328-.0016,263.9363,0,249.5325.0084,174.8814.0153,100.2304.0268,25.5793.0286,13.4443,7.6684,3.4931,19.2329.7581,21.5065.2203,23.9155.0579,26.2623.0561c51.9855-.0388,103.9709-.0284,155.9564-.0325,22.3893-.0018,44.7786-.0435,67.1678-.0115,10.8124.0155,20.1019,6.1492,23.7622,15.9859,1.1258,3.0254,1.7548,6.4153,1.775,9.6435.1421,22.7189.0577,45.4391.061,68.1589.0047,32.4017.0288,64.8033.0321,97.205.002,19.5286-.0069,39.0571-.0353,58.5856-.0172,11.8025-7.8891,21.9783-19.1318,24.6208-2.0644.4852-4.2428.6352-6.3724.6655-6.8749.0977-13.7516.0654-20.6275.0901-.4829.0017-.9655.0586-1.6061.1001,0,2.8853.0101,5.6761-.0025,8.4667-.016,3.534-1.8684,5.4336-5.3803,5.4382-11.7168.0152-23.4336.0121-35.1503-.0026-3.5628-.0045-5.4096-1.8555-5.4216-5.3785-.0092-2.6952.0103-5.3906.0123-8.0859,0-.1067-.0477-.2135-.1064-.4596h-87.6764ZM13.8042,188.1174c-.0328.7346-.082,1.3229-.0821,1.9111-.0036,19.7479-.0102,39.4958.0161,59.2436.0017,1.2529.1214,2.5422.4307,3.752,1.3055,5.1053,5.6033,8.1847,11.3605,8.1842,21.617-.002,43.2339-.0267,64.8509-.0319,33.9385-.0082,67.8769-.0075,101.8154-.0109,18.9768-.0019,37.9537.0022,56.9305-.0098,7.4367-.0047,12.0751-4.6435,12.075-12.0287-.0002-15.4569.0032-30.9138-.0009-46.3708-.0068-25.3583-.0242-50.7166-.0268-76.0749-.0035-33.6647.0087-67.3295,0-100.9942-.0019-7.2282-4.6554-11.928-11.847-11.9331-27.9987-.0195-55.9973-.0113-83.996-.0139-46.3713-.0043-92.7426-.0127-139.1139-.01-8.0435.0005-12.4806,4.4315-12.4847,12.4505-.0101,19.528.0198,39.056-.0483,58.5838-.0059,1.7049.4507,2.0938,2.1015,2.0805,9.7357-.0785,19.4724-.0456,29.2087-.0303,2.344.0037,3.0415.7351,3.0494,3.0664.0082,2.4203.0067,4.8407.0035,7.2611-.0037,2.8365-.5603,3.4072-3.3404,3.4081-9.6813.0032-19.3626.0021-29.0439.0027-.5864,0-1.1728,0-1.8305,0v73.8703c.7022,0,1.2914-.0003,1.8805,0,9.7913.0056,19.5826.0067,29.3739.0202,2.2244.003,2.945.7298,2.9602,2.9689.0172,2.5303.0095,5.0608.0015,7.5911-.008,2.5196-.5781,3.0846-3.1291,3.088-9.2412.012-18.4823.018-27.7235.0259-1.085.0009-2.1699.0001-3.3912.0001Z"/><path class="cls-1" d="m40.7862,78.6742h-13.7043c0-.6777-.0002-1.268,0-1.8584.0032-9.2421.0042-18.4843.0104-27.7264.0086-12.8226,9.2061-22.0106,22.0782-22.0178,27.8361-.0156,55.6721-.0135,83.5082-.0174,31.0816-.0044,62.1632-.0165,93.2449-.006,10.7731.0036,19.4181,6.9278,21.5543,17.282.3305,1.6019.4367,3.2755.4383,4.9161.0216,23.0502-.0004,46.1005.003,69.1507.0048,32.1271.032,64.2542.0228,96.3813-.0013,4.7824.1202,9.5877-.2847,14.3424-.8692,10.2083-9.9551,18.6251-20.1916,18.6685-24.2593.1028-48.5192.0458-72.7789.0526-35.2618.01-70.5236.0225-105.7854.0272-12.5566.0017-21.816-9.2159-21.8331-21.7353-.0128-9.407.001-18.8141.003-28.2211.0001-.4903,0-.9806,0-1.6115h13.7412c0,.7007.0005,1.3943,0,2.0878-.0081,9.1321-.0237,18.2641-.0219,27.3962.0011,5.4707,2.8861,8.3594,8.3505,8.3581,29.156-.0072,58.3119-.03,87.4679-.0308,25.0295-.0007,50.059.0236,75.0885.0304,4.7856.0013,9.5713-.0177,14.3568-.0453,5.072-.0293,8.079-3.0634,8.0782-8.1637-.0049-31.7419-.0207-63.4838-.025-95.2257-.0037-27.1759.0065-54.3519.0023-81.5278-.0008-5.4288-2.943-8.3626-8.3788-8.3635-58.9165-.01-117.8331-.0164-176.7496-.0192-5.187-.0002-8.1706,2.9958-8.1799,8.2172-.0164,9.2421-.0113,18.4843-.0152,27.7265-.0002.5976,0,1.1951,0,1.9331Z"/><path class="cls-1" d="m27.0235,166.5017v-58.1499h13.6791v58.1499h-13.6791Z"/><path class="cls-1" d="m217.4692,137.469c0,42.2412-34.2432,76.4844-76.4844,76.4844s-76.4844-34.2432-76.4844-76.4844,34.2432-76.4844,76.4844-76.4844,76.4844,34.2432,76.4844,76.4844Zm-41.6883,17.6918c0-20.4373-17.4228-24.6763-31.2984-28.1356-9.5433-2.3721-17.4228-4.2171-17.4228-10.6524,0-5.5788,6.4354-8.1156,12.8488-8.1156,7.3414,0,13.7548,3.613,13.7548,11.2345h19.449c0-15.6272-8.9283-26.0051-24.8685-28.4871v-8.7745h-15.6437v8.7306c-15.5559,2.2403-25.1211,11.4871-25.1211,26.2797,0,19.6796,16.687,23.655,30.4034,26.9716,9.8123,2.3391,17.9664,4.1951,17.9664,11.1906,0,6.3915-7.2481,10.1253-14.6444,10.1253-7.918,0-15.188-4.0523-15.188-12.5084h-19.8278c0,16.7803,10.7897,27.7513,27.4877,30.2661v9.4225h15.5723v-9.4554c15.2594-2.3391,26.5323-11.7177,26.5323-28.0917Z"/></svg>