<?xml version="1.0" encoding="UTF-8"?><svg id="Layer_1" xmlns="http://www.w3.org/2000/svg" viewBox="0 0 284.5417 273.7485"><defs><style>.cls-1{fill:none;stroke:#fff;stroke-width:16px;}.cls-2{fill:#4a9cd5;}</style></defs><path class="cls-2" d="m174.5979,84.5885c-1.6743,3.3839-3.0718,6.453-4.6781,9.4085-4.5961,8.4566-4.0199,17.1927,2.1368,24.6506,1.3429,1.6267,3.6127,2.6933,5.6616,3.4837,3.1714,1.2234,6.5241,1.9734,9.7924,2.9494,4.3537,1.3,6.6133,4.2148,6.6328,8.7841.0213,4.9833.0597,9.9676-.0104,14.95-.0686,4.8732-2.0838,7.5253-6.8424,9.0501-3.3833,1.0841-7.0466,1.5757-10.1442,3.1822-2.5699,1.3328-4.4979,3.9053-6.7022,5.9374-.0934.0861-.0841.2739-.1587.3915-5.5508,8.7501-4.4745,16.8611,1.4974,25.1547,3.6812,5.1124,2.734,8.8309-1.6706,13.3097-3.0941,3.1463-6.1926,6.2905-9.3686,9.3533-3.6599,3.5294-7.0487,3.9577-11.6408,1.6351-.3808-.1926-.7983-.3463-1.1234-.6108-8.0136-6.5179-16.4783-7.0345-25.0276-1.3776-2.5404,1.6809-4.9154,4.1535-6.3557,6.8114-1.586,2.9267-1.9478,6.5031-2.9515,9.7629-1.5589,5.063-4.3702,7.1508-9.7367,7.2211-4.6962.0615-9.3952.0787-14.0905-.0109-4.7998-.0916-7.6927-2.3055-9.1935-6.8188-.1792-.5388-.2684-1.1069-.4273-1.6533-4.8514-16.6819-2.7005-12.4191-17.2874-18.6611-2.3752-1.0164-5.8522-.5085-8.469.3568-3.3177,1.0971-6.2464,3.3377-9.3976,4.9802-4.5554,2.3743-7.975,1.8983-11.6284-1.6421-3.373-3.2686-6.6933-6.5941-9.9642-9.9651-3.4671-3.5733-4.0008-7.2996-1.8087-11.6772.2546-.5084.5649-.9886.8404-1.4869,6.7291-12.1695,6.9087-12.2517,1.0851-25.021-1.1435-2.5073-3.9903-4.6541-6.5598-5.9865-3.0975-1.6062-6.7577-2.1027-10.1373-3.1942-4.7722-1.5413-6.7626-4.1673-6.833-9.0556-.0718-4.9824-.017-9.9666-.0162-14.95.0007-4.3831,2.1489-7.2261,6.2313-8.6731.6697-.2374,1.3375-.5762,2.0281-.6439,10.3278-1.0134,16.2198-6.7842,18.861-16.6936.8999-3.3763,1.3712-6.2867-.4256-9.3735-1.7173-2.9501-3.3751-5.9378-4.9641-8.959-2.3302-4.4304-1.8595-8.1222,1.5657-11.683,3.3546-3.4875,6.7738-6.9167,10.2591-10.2733,3.4927-3.3637,6.9143-3.7886,11.2965-1.6107.5092.2531.999.545,1.499.8166,12.1054,6.5765,12.1845,6.7576,25.0313,1.1453,2.5297-1.1051,4.7712-3.9025,6.0992-6.4625,1.6039-3.0919,2.0298-6.782,3.0803-10.1777,1.4282-4.6165,4.2854-6.8779,9.0458-6.9944,4.9787-.1219,9.9634-.0859,14.9441-.0164,4.517.063,7.5147,2.3728,8.9069,6.6288,1.0163,3.1068,1.9582,6.2495,2.706,9.4297.9658,4.1071,3.6493,6.153,7.2542,8.2052,8.748,4.9799,16.3964,4.0035,24.4586-1.6445,5.6741-3.975,8.9824-3.05,13.9333,1.8733,3.0281,3.0112,6.2122,5.8921,8.9802,9.1278,1.5715,1.8371,2.4448,4.2717,3.7862,6.7174Zm-130.4642,57.4549c.4445,29.492,24.4831,52.8124,53.9817,52.3688,28.8644-.4341,52.3929-24.707,51.9348-53.578-.468-29.4959-24.5071-52.8076-53.9996-52.3656-28.866.4326-52.3526,24.6693-51.917,53.5749Z"/><path class="cls-2" d="m274.0216,26.2629c-1.0869,1.9883-2.0002,3.7946-3.0359,5.5277-2.9634,4.9589-2.8318,10.212.6777,14.8353.7655,1.0084,2.1006,1.7037,3.31,2.2278,1.8719.8113,3.8642,1.3433,5.8003,2.0086,2.5791.8863,3.8628,2.6896,3.7626,5.4302-.1093,2.989-.2083,5.979-.3724,8.9653-.1605,2.9208-1.434,4.4619-4.3251,5.2598-2.0555.5673-4.2645.7724-6.1614,1.6599-1.5738.7363-2.793,2.2319-4.1647,3.3965-.0581.0493-.0572.1622-.1048.2309-3.5431,5.1115-3.0963,10.002.2819,15.1219,2.0824,3.1561,1.4233,5.3629-1.3278,7.9409-1.9326,1.811-3.8678,3.6208-5.8474,5.3797-2.2813,2.0269-4.324,2.2008-7.0211.6955-.2237-.1248-.4702-.2272-.6587-.3938-4.6462-4.105-9.7098-4.6222-14.9753-1.4391-1.5646.9458-3.0495,2.3705-3.9783,3.9291-1.0228,1.7163-1.3273,3.8522-2.0091,5.7826-1.0589,2.9981-2.7959,4.1813-6.0159,4.092-2.8178-.0781-5.6362-.1829-8.4498-.3516-2.8762-.1725-4.5569-1.571-5.3464-4.3144-.0943-.3275-.1338-.6704-.2157-1.0019-2.5008-10.123-1.3153-7.5139-9.9103-11.6144-1.3995-.6677-3.4971-.4483-5.0876.0066-2.0165.5767-3.8277,1.8487-5.7577,2.7565-2.79,1.3123-4.8291.9431-6.9334-1.2695-1.9427-2.0428-3.8525-4.1184-5.7315-6.2201-1.9917-2.2278-2.2205-4.4756-.7987-7.0471.1651-.2987.363-.579.5404-.8711,4.3335-7.1333,4.4432-7.1782,1.2635-14.9785-.6243-1.5316-2.279-2.8888-3.7873-3.7507-1.8182-1.0391-4.0011-1.4265-6.0011-2.1638-2.8241-1.0412-3.9535-2.6648-3.876-5.598.079-2.9897.2339-5.9774.3564-8.9659.1078-2.6285,1.4657-4.2809,3.9493-5.0487.4074-.126.8162-.3128,1.232-.3365,6.2184-.3548,9.8932-3.6713,11.7198-9.5493.6223-2.0027.9763-3.7366-.0257-5.6317-.9576-1.8113-1.8787-3.6436-2.7576-5.4943-1.2889-2.714-.9162-4.9164,1.2251-6.968,2.0972-2.0093,4.2316-3.982,6.404-5.9096,2.177-1.9317,4.2393-2.1027,6.8139-.6893.2992.1642.5858.3513.879.5265,7.0985,4.2404,7.1416,4.351,14.9832,1.2998,1.5441-.6008,2.9569-2.2235,3.816-3.7262,1.0376-1.8149,1.3834-4.0174,2.0965-6.0281.9695-2.7336,2.7384-4.0197,5.5961-3.973,2.9887.0488,5.9772.1925,8.9624.3562,2.7073.1484,4.4485,1.607,5.1792,4.1934.5334,1.888,1.0213,3.7958,1.3919,5.7213.4786,2.4867,2.0378,3.7793,4.1494,5.0983,5.1242,3.2007,9.7349,2.8024,14.7081-.3872,3.5001-2.2449,5.4615-1.6091,8.3099,1.4647,1.7422,1.88,3.5812,3.6856,5.1619,5.6939.8974,1.1402,1.3615,2.6216,2.1061,4.1212Zm-79.6465,31.2607c-.4557,17.6973,13.3892,32.2712,31.0904,32.7276,17.3206.4466,32.0251-13.5337,32.4575-30.8589.4417-17.7002-13.4037-32.2689-31.1012-32.7261-17.3215-.4475-32,13.5121-32.4467,30.8575Z"/><path class="cls-2" d="m225.4249,78.9637c-11.3669-.4399-20.1491-9.8552-19.8008-21.2281.3447-11.2556,9.9229-20.1751,21.2428-19.7819,11.3132.393,20.1681,9.8836,19.8037,21.2253-.362,11.2678-9.9763,20.2209-21.2457,19.7848Z"/><g><g><g><path class="cls-1" d="m76.6904,167.296c-10.5207-6.4031-15.6407-22.1903-11.2717-35.2756,4.4148-13.2225,13.9011-20.9649,27.5589-22.8086,13.3341-1.8,24.4255,3.0724,32.1097,14.1617,7.5286,10.8648,7.7697,22.475,1.747,34.2954-1.8961,3.7214-4.2605,5.1139-8.6528,2.7427,0-6.4992.0816-13.3207-.0194-20.1395-.1472-9.9377-6.631-17.9523-15.9082-19.8618-9.7483-2.0065-19.5859,2.8071-23.3212,11.8743-1.2179,2.9564-1.6982,6.3747-1.8016,9.6047-.2592,8.0985-.1081,16.21-.1339,24.3163-.0008.2544-.1382.5084-.3069,1.0904Z"/><path class="cls-1" d="m76.6904,167.296c-10.5207-6.4031-15.6407-22.1903-11.2717-35.2756,4.4148-13.2225,13.9011-20.9649,27.5589-22.8086,13.3341-1.8,24.4255,3.0724,32.1097,14.1617,7.5286,10.8648,7.7697,22.475,1.747,34.2954-1.8961,3.7214-4.2605,5.1139-8.6528,2.7427,0-6.4992.0816-13.3207-.0194-20.1395-.1472-9.9377-6.631-17.9523-15.9082-19.8618-9.7483-2.0065-19.5859,2.8071-23.3212,11.8743-1.2179,2.9564-1.6982,6.3747-1.8016,9.6047-.2592,8.0985-.1081,16.21-.1339,24.3163-.0008.2544-.1382.5084-.3069,1.0904Z"/></g><path class="cls-1" d="m143.5425,273.7485h-43.6135c-8.0151-2.7934-13.6478-8.4769-18.0666-15.4215-3.2348-5.0838-6.2621-10.3266-9.0095-15.6901-6.6843-13.0492-13.1603-26.2058-19.7032-39.3276-3.298-6.6142-1.8139-13.792,3.63-17.7498,5.6061-4.0758,13.1514-3.3776,18.2928,1.8543,2.7171,2.765,5.2139,5.7474,7.8102,8.6317.3821-.2681.7641-.5362,1.1462-.8042,0-1.47-.0001-2.94,0-4.4101.0019-16.6271-.0645-33.2546.0343-49.8812.0497-8.3615,5.9361-14.1835,13.886-14.0895,7.8017.0922,13.3603,5.8918,13.4738,14.0944.0399,2.8852.0077,5.7713.0078,8.657.0002,6.5137,0,13.0274,0,19.8298,9.0603-3.1326,15.5483-.552,19.8963,7.172,10.1197-3.3383,13.7228-2.1167,20.8392,6.9075,9.9203-3.7509,15.5546-1.4482,21.0003,8.5826v45.3582c-2.5198,12.4871-8.8507,22.5209-19.3206,29.8028-3.3282,2.3148-6.8633,4.331-10.3037,6.4838Z"/></g><g><path class="cls-2" d="m76.6904,167.296c-10.5207-6.4031-15.6407-22.1903-11.2717-35.2756,4.4148-13.2225,13.9011-20.9649,27.5589-22.8086,13.3341-1.8,24.4255,3.0724,32.1097,14.1617,7.5286,10.8648,7.7697,22.475,1.747,34.2954-1.8961,3.7214-4.2605,5.1139-8.6528,2.7427,0-6.4992.0816-13.3207-.0194-20.1395-.1472-9.9377-6.631-17.9523-15.9082-19.8618-9.7483-2.0065-19.5859,2.8071-23.3212,11.8743-1.2179,2.9564-1.6982,6.3747-1.8016,9.6047-.2592,8.0985-.1081,16.21-.1339,24.3163-.0008.2544-.1382.5084-.3069,1.0904Z"/><path class="cls-2" d="m143.5425,273.7485h-43.6135c-8.0151-2.7934-13.6478-8.4769-18.0666-15.4215-3.2348-5.0838-6.2621-10.3266-9.0095-15.6901-6.6843-13.0492-13.1603-26.2058-19.7032-39.3276-3.298-6.6142-1.8139-13.792,3.63-17.7498,5.6061-4.0758,13.1514-3.3776,18.2928,1.8543,2.7171,2.765,5.2139,5.7474,7.8102,8.6317.3821-.2681.7641-.5362,1.1462-.8042,0-1.47-.0001-2.94,0-4.4101.0019-16.6271-.0645-33.2546.0343-49.8812.0497-8.3615,5.9361-14.1835,13.886-14.0895,7.8017.0922,13.3603,5.8918,13.4738,14.0944.0399,2.8852.0077,5.7713.0078,8.657.0002,6.5137,0,13.0274,0,19.8298,9.0603-3.1326,15.5483-.552,19.8963,7.172,10.1197-3.3383,13.7228-2.1167,20.8392,6.9075,9.9203-3.7509,15.5546-1.4482,21.0003,8.5826v45.3582c-2.5198,12.4871-8.8507,22.5209-19.3206,29.8028-3.3282,2.3148-6.8633,4.331-10.3037,6.4838Z"/></g></g></svg>