<?xml version="1.0" encoding="UTF-8"?><svg id="Layer_1" xmlns="http://www.w3.org/2000/svg" viewBox="0 0 221.9516 276.855"><defs><style>.cls-1{fill:#4a9cd5;}</style></defs><path class="cls-1" d="m108.0314,276.855c-2.8878-.3877-5.851-.4865-8.6493-1.2168-8.7289-2.2783-17.4086-4.75-26.0807-7.2398-4.179-1.1998-8.2784-2.6766-12.4551-3.8856-1.5108-.4373-3.1407-.6317-4.7182-.6422-8.9365-.0591-17.8737-.0454-26.8106-.022-4.624.0121-8.5228-1.4804-11.4103-5.2315-1.4847-1.9288-2.3589-4.0921-2.5566-6.5184-.0627-.7689-.0894-1.5429-.0896-2.3145-.0046-21.0768.0276-42.1537-.0239-63.2304-.0142-5.7996,2.2714-10.2087,7.5251-12.6915,1.8673-.8825,4.1355-1.2304,6.2296-1.2639,8.5486-.1366,17.1009-.0289,25.6511-.0993.8873-.0073,2.0251-.3533,2.6114-.9618,2.9799-3.0922,5.9141-6.2402,8.6815-9.5228,5.0114-5.9443,9.8426-12.0405,14.8508-17.9876,2.4609-2.9223,3.2248-6.431,4.0854-9.9722,1.1566-4.7594,2.2026-9.5665,3.737-14.2073,1.5526-4.6958,4.2534-8.7945,8.8788-11.0545,1.7269-.8438,3.7862-1.3677,5.7032-1.3953,6.2706-.0903,12.2806,1.1618,17.6771,4.5631,6.5978,4.1585,9.651,10.5517,10.9013,17.928,1.0573,6.2377,1.2745,12.5325-.2714,18.7339-.7028,2.8192-1.781,5.5461-2.7189,8.3046-.261.7678-.6291,1.4991-1.0836,2.5651.8302,0,1.4054-.0026,1.9807.0004,5.8468.0307,11.6994-.0928,17.5393.1249,13.5505.5051,24.8219,12.7707,24.4275,26.3377-.1521,5.2322-1.3832,10.1402-4.1172,14.6192-.6181,1.0126-.7803,1.9534-.5356,3.1079,1.3532,6.3848.3529,12.468-2.3448,18.3617-.4968,1.0854-.7696,2.4126-.6925,3.5987.4716,7.2521-1.1296,13.8875-5.3983,19.8447-.4372.6102-.5878,1.5261-.6201,2.3104-.2518,6.1268-1.5888,11.9207-5.2738,16.9516-5.2031,7.1036-12.4353,10.6519-21.0144,11.7631-.5929.0768-1.1764.2264-1.7643.3421h-21.8506Zm1.6988-104.3143c.2017-1.4964.1609-2.8212.5749-3.9841,1.8617-5.2292,3.6591-10.4955,5.8449-15.5917,2.8577-6.6626,4.1621-13.4278,2.775-20.625-1.0418-5.4056-3.0889-9.9833-9.1487-11.2242-1.9316-.3956-3.926-.5222-5.8995-.6458-.4239-.0266-1.0937.3861-1.2888.7769-1.0006,2.0047-2.1444,3.9938-2.7527,6.1268-1.2829,4.4988-2.2315,9.0919-3.378,13.631-1.095,4.3351-3.0615,8.2053-5.967,11.6616-4.5768,5.4445-8.8962,11.1064-13.5017,16.5256-3.5293,4.1529-7.2439,8.159-11.0423,12.0689-2.8194,2.9021-6.2349,4.7237-10.4983,4.2911-.308-.0313-.6301.0758-.9961.1254v64.5726c3.9102.6852,7.7656,1.045,11.4324,2.0761,5.7183,1.608,11.3364,3.5916,16.9476,5.5571,14.4736,5.07,29.3584,6.8624,44.6169,5.7635,1.9704-.1419,3.9503-.381,5.8824-.7836,6.002-1.2509,10.2431-5.565,11.0978-11.6705.4001-2.8583.0761-5.8144.1549-8.7242.0168-.622.1601-1.4798.5775-1.8154,5.382-4.3271,7.375-11.9322,4.5921-18.1788-.4365-.9799-.2873-1.5319.4073-2.2844,3.2711-3.5437,4.791-7.7054,4.2722-12.5697-.3436-3.2216-1.4338-6.1608-3.121-8.6965,1.1035-.7172,2.3181-1.1725,3.0451-2.0376,2.9423-3.5012,4.5475-7.6302,4.1934-12.1968-.5415-6.9832-6.2958-12.1091-13.3376-12.1362-11.1446-.0429-22.2896-.0118-33.4344-.0121-.5982,0-1.1963,0-2.0484,0Zm-74.993,65.2234c-3.5411.0232-6.5169,3.0511-6.464,6.5772.0531,3.5346,3.0651,6.4284,6.646,6.3852,3.4983-.0422,6.3569-2.9599,6.3524-6.4838-.0045-3.586-2.9458-6.5021-6.5345-6.4786Z"/><path class="cls-1" d="m106.8503,12.4014c1.1887-1.5386,2.043-2.8258,3.0746-3.9504C117.4029.2986,126.7733-1.4629,136.9117,1.4919c9.9027,2.8861,14.7835,10.6518,16.964,20.2538,3.0578,13.4655-2.0299,24.8882-9.6025,35.4339-9.6335,13.4157-22.3731,23.6036-35.6883,33.0942-.8657.617-2.834.8197-3.6085.2648-15.9408-11.4212-31.226-23.5708-40.9652-41.1349-6.0174-10.8521-7.7941-22.2639-2.6979-33.9825,7.3289-16.8529,28.2887-20.6501,41.2778-7.6171,1.264,1.2683,2.4383,2.626,4.2593,4.5972Z"/><path class="cls-1" d="m193.8532,77.9436c.6969-.902,1.1977-1.6567,1.8025-2.316,4.3841-4.7794,9.8776-5.8121,15.8213-4.0799,5.8056,1.692,8.667,6.2447,9.9454,11.8741,1.7927,7.8943-1.1901,14.591-5.6296,20.7736-5.6477,7.8651-13.1165,13.8379-20.9227,19.4019-.5075.3617-1.6615.4806-2.1156.1552-9.3455-6.6958-18.3066-13.8187-24.0164-24.1159-3.5278-6.3622-4.5694-13.0525-1.5817-19.9227,4.2966-9.8802,16.5846-12.1064,24.1997-4.4656.741.7436,1.4295,1.5396,2.4971,2.6952Z"/><path class="cls-1" d="m28.4467,77.9436c.6969-.902,1.1977-1.6567,1.8025-2.316,4.3841-4.7794,9.8776-5.8121,15.8213-4.0799,5.8056,1.692,8.667,6.2447,9.9454,11.8741,1.7927,7.8943-1.1901,14.591-5.6296,20.7736-5.6477,7.8651-13.1165,13.8379-20.9227,19.4019-.5075.3617-1.6615.4806-2.1156.1552-9.3455-6.6958-18.3066-13.8187-24.0164-24.1159-3.5278-6.3622-4.5694-13.0525-1.5817-19.9227,4.2966-9.8802,16.5846-12.1064,24.1997-4.4656.741.7436,1.4295,1.5396,2.4971,2.6952Z"/></svg>