<?xml version="1.0" encoding="UTF-8"?><svg id="Layer_1" xmlns="http://www.w3.org/2000/svg" viewBox="0 0 208.0321 286.8277"><defs><style>.cls-1{fill:#4a9cd5;}.cls-2{fill:none;stroke:#fff;stroke-width:13px;}</style></defs><path class="cls-1" d="m76.9945,13.4982c0,7.4863,6.0656,13.5519,13.4967,13.5519v2.2951c-16.0656,2.0765-31.2563,7.8689-44.5901,16.8853l-6.2841-6.2841c-1.2574-1.2568-2.9508-1.9126-4.6448-1.9126s-3.3333.6557-4.6448,1.9126l-19.8361,19.836c-2.5677,2.5683-2.5677,6.6667,0,9.235l6.4486,6.4481C5.9011,92.2413,0,111.8588,0,132.4052c0,27.7595,10.8191,53.8797,30.4366,73.4972,19.6175,19.6175,45.7383,30.4372,73.4972,30.4372s54.0437-10.7104,73.6617-30.3825c19.6175-19.6175,30.4366-45.7377,30.4366-73.4972s-10.8191-53.8798-30.4371-73.4973c-16.3934-16.3934-37.3229-26.6666-59.9459-29.5628v-2.2951c7.4869-.0546,13.4978-6.1202,13.4978-13.5519C131.1469,6.0665,125.0814.0004,117.5945.0004h-26.9945c-7.4858-.0541-13.6054,6.0115-13.6054,13.4978Zm27.1033,37.4863c45.0273,0,81.4754,36.5027,81.4754,81.4754,0,45.0273-36.5033,81.4754-81.4754,81.4754S22.6224,177.4325,22.6224,132.4598,59.0705,50.9845,104.0978,50.9845Z"/><g><path class="cls-1" d="m140.4442,147.1547c.2601,5.2504-.2309,10.4423-1.0725,15.6086-.2238,1.3736-.4314,2.8313-2.3112,2.73-1.3482-.0726-1.8563-1.3287-1.5618-3.373,1.8099-12.5652,1.6951-25.0896-1.346-37.4542-2.9572-12.0236-13.6892-20.8336-26.041-22.0758-17.2653-1.7364-33.2376,11.8188-33.0703,30.5788.0265,2.9756.8879,5.8517,1.247,8.7893.1871,1.5304.2522,3.0878.2755,4.6287.0218,1.4397.0117,2.9247-.2262,4.3485-.1901,1.1377-.8154,2.0649-2.0837,1.9553-.9177-.0793-1.5248-.6507-1.6619-1.5571-.074-.4893-.0122-.9773.0241-1.4667.0498-.6708.073-1.3435.0744-2.0161.0058-2.7753-.363-5.532-.736-8.2767-.21-1.5452-.4219-3.0907-.5699-4.6434-.7956-8.3424,1.5765-15.86,6.4986-22.5127,8.9575-12.1071,24.2952-16.9791,38.4513-11.892,12.8067,4.6022,20.221,13.9989,22.5311,27.4007,1.0968,6.3628,1.9085,12.7544,1.5786,19.2277Z"/><path class="cls-1" d="m155.1775,128.8394c.0086,1.1324-.2571,2.1169-1.6003,2.2189-1.3538.1028-2.002-.7471-2.1921-1.9656-.5967-3.8253-1.2048-7.6637-2.5553-11.2981-6.6096-17.7879-19.2859-28.3854-38.101-30.9447-14.4883-1.9708-27.1757,2.604-37.7178,12.6636-6.5883,6.2867-10.8765,14.0189-12.7939,22.9897-.2549,1.1926-.4856,3.4279-2.0311,3.6476-.6048.086-1.3195-.1352-1.737-.5894-.4169-.4534-.5007-1.0964-.4535-1.6881.0858-1.0761.3978-2.1734.6547-3.2199.2441-.9945.519-1.9815.8242-2.959.6095-1.9522,1.3399-3.8666,2.1856-5.7286,1.6621-3.6594,3.7688-7.1149,6.2575-10.2708,2.4608-3.1205,5.2931-5.9469,8.4195-8.4004,3.1533-2.4746,6.6044-4.5683,10.2585-6.2161,3.7197-1.6773,7.6468-2.8899,11.665-3.5998.5087-.0899,1.0189-.1717,1.5302-.2456,15.552-2.2456,29.2216,2.0033,40.9573,12.4108,9.7317,8.6303,14.6493,19.7296,16.3739,32.4222.0347.255.0382.5143.0557.7733Z"/><path class="cls-1" d="m116.5036,146.9998c-.0363,7.54-1.0262,15.075-3.0791,22.3347-2.0143,7.1228-5.0424,13.9368-8.9041,20.2488-1.1111,1.8162-2.2899,3.5909-3.5288,5.3223-.9421,1.3165-2.438,4.0891-4.3843,2.6983-1.5014-1.0729-.7285-2.3848.1278-3.5319,4.8561-6.5055,8.749-13.5284,11.4374-21.2035,4.7821-13.6525,5.7202-27.5743,2.8342-41.7367-.4668-2.2908-2.3097-4.1226-4.5889-4.6183-2.3374-.5084-4.7203.5426-6.1174,2.4453-.9504,1.2943-1.3918,2.8759-1.0761,4.4661,1.7013,8.5709,1.8541,17.1553.1895,25.7515-.0976.5037-.136,1.0459-.3578,1.4928-.3658.7369-.9517,1.4082-1.8435,1.368-.8499-.0383-1.6146-.5594-1.7696-1.4209-.088-.4891.0154-.9956.0778-1.4816.0812-.6317.1715-1.2621.263-1.8924.1866-1.2852.3786-2.5703.5093-3.8627.5992-5.9296.5458-11.838-.665-17.7081-1.6017-7.7656,3.7528-14.0059,11.0834-12.9624,3.1095.4426,5.8607,2.481,7.3026,5.2552.8509,1.6371,1.0923,3.4631,1.4002,5.2603.3658,2.1351.6735,4.2813.8753,6.4385.228,2.4376.3199,4.8899.2142,7.3368Z"/><path class="cls-1" d="m105.7243,74.6787c1.4627-.0906,2.9353.0344,4.3908.1737.732.0701,1.466.1372,2.1961.2256.4764.0577.9753.1521,1.3915.4043.8469.5133.925,1.6901.485,2.5109-.4779.8915-1.577.9305-2.4658.835-13.6057-1.4616-26.2116,1.3874-37.4148,9.3278-13.6632,9.6839-21.2809,22.9721-22.9931,39.6841-.5604,5.47.1047,10.7944.9872,16.148.4263,2.5863.3174,5.2471-.4265,7.766-.3584,1.2136-.8561,2.384-1.4662,3.4921-.3252.5907-.682,1.1638-1.0654,1.7184-.3723.5387-.756,1.1313-1.2172,1.5985-.8382.8491-1.9255,1.4472-2.981.5664-1.0256-.8558-.8115-2.0159-.029-2.9579,1.8446-2.2206,3.1303-4.8805,3.4523-7.767.1661-1.4888.0575-2.9639-.1913-4.4363-.294-1.7402-.5534-3.4867-.7506-5.2406-.7356-6.5436-.4386-13.1639,1.1071-19.5743.8636-3.5814,2.0965-7.0703,3.6481-10.411,6.9005-14.8577,18.0666-25.1959,33.5266-30.8225,5.3807-1.9583,12.723-3.2463,19.8161-3.2412Z"/><path class="cls-1" d="m164.4917,146.7694c.0553,2.8092.0323,5.6209-.1205,8.4269-.0744,1.3654-.1795,2.7292-.3205,4.0893-.1218,1.1753-.2024,2.3978-.4803,3.5494-.2469,1.0233-.879,1.6587-1.9731,1.6525-1.3207-.0074-2.111-1.3625-1.7625-3.2975.8742-4.8539.8749-9.777.8843-14.6529.0155-7.9927-.8221-15.9372-2.3565-23.8176-1.7909-9.1981-5.5809-17.3992-11.481-24.6302-2.8233-3.4601-6.0812-6.5586-9.689-9.1913-3.5859-2.6167-7.5007-4.7651-11.6007-6.4612-1.2065-.4991-2.4468-.9011-3.6591-1.3807-1.0085-.399-1.7513-1.1731-1.4309-2.3196.5685-2.0338,2.7659-1.1728,4.1822-.718,2.071.665,4.0773,1.5229,6.01,2.5191,4.2632,2.1975,8.3154,4.8169,11.9958,7.897,3.4932,2.9235,6.6391,6.2585,9.3211,9.9418,2.695,3.701,4.9117,7.739,6.6396,11.9771,1.9375,4.7523,3.1938,9.7098,4.1085,14.7514,1.1526,6.3526,1.8084,12.806,1.7763,19.2659-.004.7997-.0184,1.5994-.0438,2.3987Z"/><path class="cls-1" d="m105.0688,106.4838c1.5079.0876,3.9162.114,3.805,2.2133-.089,1.6784-1.4177,1.7589-2.7114,1.7253-12.0824-.3141-21.1217,8.1255-22.8097,18.7542-.4296,2.7047-.2361,5.3866.2759,8.0761,2.8317,14.8747-.6168,28.2708-9.6603,40.2937-1.821,2.421-3.8445,4.6864-6.1882,6.6419-.577.4814-1.3297.9985-2.1235.8521-.7742-.1428-1.4886-.9374-1.5923-1.7097-.1129-.8417.4737-1.5528,1.05-2.0865.6711-.6214,1.334-1.2508,1.9786-1.8997,2.5307-2.5476,4.8152-5.3461,6.6954-8.4093,3.8286-6.2375,6.2289-13.4119,6.7624-20.717.3052-4.1798.0062-8.3898-.7914-12.5013-2.8253-14.5642,6.3116-27.9302,20.8755-30.684,1.5159-.2866,3.0677-.3842,4.434-.5491Z"/><path class="cls-1" d="m132.6639,145.6243c-.2342,18.5285-4.3864,34.8421-13.091,49.9384-.3138.5443-.6913,1.1428-1.2591,1.4527-.6318.3448-1.3472.1614-1.9263-.2072-1.2273-.7812-.8225-2.1017-.2218-3.1613,3.7784-6.6649,6.8058-13.7321,8.8919-21.1074,2.1165-7.4825,3.3916-15.2065,3.6268-22.9834.1339-4.4271-.0667-8.8634-.6007-13.2603-.3193-2.6292-.7399-5.2306-1.2282-7.8292-1.1305-6.0154-4.2464-10.7184-9.2665-14.1844-1.2601-.87-3.4474-1.9178-2.2173-3.7418.4031-.5977,1.0046-.9684,1.7384-.863.7495.1076,1.4002.5893,2.0181.992,1.4975.976,2.9393,2.0508,4.2063,3.3162,2.9049,2.9013,5.1265,6.4256,6.4487,10.3147.7383,2.1717,1.1685,4.4321,1.5321,6.6926.381,2.3684.6521,4.7535.8581,7.1431.2149,2.4925.3559,4.9904.4905,7.4883Z"/><path class="cls-1" d="m104.7154,66.5438c10.2219.1365,19.4741,2.1587,28.2679,6.2289.9496.4395,2.2541,1.1132,2.1572,2.3534-.0835,1.0677-1.0211,1.9514-2.101,1.7817-.5959-.0937-1.1316-.4339-1.6668-.6918-.6232-.3003-1.2521-.589-1.8862-.8654-1.2867-.5608-2.5955-1.0713-3.923-1.5273-1.5078-.518-3.0399-.9656-4.5901-1.3381-20.6994-4.9736-39.3548-.844-55.8718,12.6764-3.5639,2.9173-6.6628,6.2724-9.4461,9.9288-.6732.8844-1.5607,2.0575-2.8065,1.4325-.5548-.2784-1.0927-.7742-1.1956-1.4125-.0874-.5423.1453-1.0809.4154-1.5376.6897-1.1664,1.6441-2.2225,2.5089-3.261.9075-1.0898,1.8482-2.1521,2.822-3.1831,3.8459-4.0721,8.2084-7.6474,12.9721-10.5951,2.7346-1.6921,5.5957-3.1778,8.5466-4.4553,8.3878-3.631,17.2068-5.3531,25.7971-5.5346Z"/><path class="cls-1" d="m148.611,147.2904c-.1309,13.4688-2.421,26.5431-7.1238,39.1836-.5216,1.4019-1.226,2.6248-2.9174,1.9623-1.5888-.6224-1.3074-2.0154-.8221-3.3031,3.1498-8.3562,5.2814-17.0905,6.2719-25.9673.984-8.8181.8568-17.8112-.1669-26.622-.5772-4.9676-1.6-9.9049-3.4567-14.5619-.8646-2.1686-1.9944-4.2221-3.2657-6.1772-.5143-.7909-1.2676-1.6282-1.4005-2.5964-.1309-.9527.6871-1.7711,1.575-1.9755,1.051-.242,1.849.6723,2.3835,1.4461,4.0011,5.7926,6.2482,12.2467,7.3039,19.17.9828,6.4452,1.6388,12.9121,1.6187,19.4413Z"/><path class="cls-1" d="m54.5675,173.5619c-1.134-.024-2.171-1.002-1.7897-2.2028.1893-.596.7336-1.0479,1.1606-1.4792.5028-.5078,1.0238-.997,1.5307-1.5006,3.485-3.4629,6.2645-7.6325,7.7661-12.3312,1.4912-4.6661,1.6657-9.6399.913-14.4594-.3946-2.527-.7471-5.0383-.8387-7.5983-.0853-2.3849.0097-4.7774.3115-7.1451.5852-4.5917,1.9656-9.0616,4.0913-13.1745,2.2358-4.3258,5.2526-8.2096,8.7206-11.6161.4745-.4661.9455-.9737,1.4758-1.3765.5101-.3875,1.034-.8447,1.6583-1.0346.6879-.2093,1.2849.0907,1.732.619.4521.5341.7035,1.2031.3934,1.8702-.283.6088-.8482,1.0525-1.343,1.483-6.3878,5.5566-10.5538,12.46-12.3855,20.7074-1.335,6.0108-.6191,12.0084.1796,18.0566,1.6056,12.1588-2.5196,22.2892-11.6539,30.4179-.5486.4882-1.1617.8098-1.922.7643Z"/><path class="cls-1" d="m104.6994,147.1292c.1586-4.7713-.528-9.041-1.2-13.3093-.0985-.6254-.2048-1.3137-.0152-1.9326.2036-.6649.7783-1.0034,1.4381-1.1111,1.6051-.262,2.1316,1.115,2.3799,2.4295,2.9977,15.8655.8799,31.0579-6.0408,45.6068-2.6719,5.6169-5.9715,10.8392-9.9973,15.5919-.2916.3443-.5688.7027-.8815,1.0267-.7879.8162-1.7065,1.2855-2.7342.5005-.6031-.4606-.942-1.1497-.7754-1.9092.1881-.8577.8884-1.5828,1.4037-2.2621,1.2066-1.5907,2.4674-3.141,3.6225-4.7703,7.1344-10.0642,11.215-21.2745,12.4643-33.5316.1176-1.154.2654-2.3071.3241-3.4644.0555-1.0941.0119-2.1932.0119-2.8648Z"/><path class="cls-1" d="m171.0787,130.2698c0,1.1314.0837,2.2972-.0237,3.4248-.0805.8444-.4467,1.6638-1.3323,1.8937-2.5602.6646-2.5259-2.8071-2.5715-4.4059-.5634-19.7314-8.7739-35.6041-24.1416-47.8676-1.156-.9225-4.0075-2.4573-2.459-4.2198.5803-.6605,1.3862-.912,2.2123-.5683.4579.1905.8606.5144,1.2635.7981.45.3169.8955.64,1.3363.9695,1.7037,1.2732,3.3369,2.6414,4.8793,4.1061,11.3553,10.7836,18.0865,23.974,20.3173,39.4497.3202,2.2216.6333,4.4715.5194,6.4197Z"/><path class="cls-1" d="m124.5752,144.206c0,1.5902.3031,4.3026-2.0273,4.249-1.3442-.031-1.8587-1.017-1.875-2.2562-.0348-2.6444-.1223-5.2814-.4165-7.9153-.232-2.0765-.4572-4.1556-.8114-6.2157-.2912-1.6939-.6503-3.3759-1.3198-4.9652-1.1148-2.6464-2.9711-4.9744-5.4014-6.5239-4.6788-2.983-11.3318-2.7506-15.8266.4986-2.5825,1.8668-4.3208,4.6439-5.2922,7.6468-.1773.5482-.3818,1.1023-.672,1.5958-.4075.6929-1.0753.8645-1.8485.7007-.7908-.1674-1.2394-.6526-1.359-1.4373-.1192-.7827.0417-1.5395.2542-2.2898,2.1421-7.5639,9.5205-12.854,17.723-12.7047,7.8076.1421,15.0889,5.8646,16.8244,13.33,1.2443,5.352,1.7584,10.8083,2.048,16.2871Z"/><path class="cls-1" d="m92.5275,147.0102c-.2447,15.9472-5.9074,29.6423-17.1454,41.0003-1.0515,1.0628-2.2659,2.6758-3.8663,1.0524-1.6242-1.6474.0964-2.7577,1.1374-3.8262,12.189-12.5118,17.2975-27.4887,15.6191-44.826-.1368-1.4133-.0607-2.729,1.6646-2.9124,1.6002-.17,1.981.9963,2.1753,2.3551.3394,2.3737.3799,4.7527.4154,7.1568Z"/><path class="cls-1" d="m39.2546,133.6148c.0126-11.0567,2.137-20.4667,6.409-29.3901.6-1.2534,1.4671-3.3341,3.2248-2.4934,1.0611.5075,1.3021,1.5298.8862,2.5764-.5478,1.3785-1.2279,2.7101-1.7947,4.0828-1.1263,2.7274-2.1104,5.5166-2.8686,8.3695-.4361,1.6408-.7973,3.3019-1.0698,4.9778-1.3061,8.0322-1.1939,16.037.4935,24.0148.3068,1.4505,1.0628,3.1843-1.0889,3.9199-1.3612.4654-2.1685-.4978-2.7249-3.2144-.946-4.6187-1.5604-9.277-1.4665-12.8432Z"/><path class="cls-1" d="m104.7143,90.5431c9.9556.2289,18.271,2.9594,25.6213,8.4783,1.1379.8544,2.8144,1.8373,1.6066,3.5621-1.2787,1.8261-2.5878.3695-3.7633-.4625-11.8156-8.3625-24.4579-9.9475-37.945-4.6442-.6481.2549-1.3713.5774-2.0853.4872-.6746-.0852-1.1156-.583-1.3499-1.1938-.4029-1.0502.1374-1.8695,1.0666-2.3603,1.1842-.6254,2.4737-1.1062,3.7352-1.5498,2.6262-.9233,5.3544-1.5471,8.1184-1.874,1.9146-.2265,3.8337-.5565,4.9954-.4431Z"/><path class="cls-1" d="m123.9729,157.0961c-.9591,8.5395-3.0971,16.6774-6.3878,24.5139-2.102,5.0058-4.6151,9.7949-7.5995,14.3328-.8468,1.2875-2.1334,3.2647-3.8822,2.0573-1.0413-.7189-.9703-1.7298-.3682-2.7358,1.4892-2.488,3.0614-4.9296,4.4645-7.465,5.0168-9.0656,8.1729-18.7601,9.6331-29.0129.1255-.8813.1984-1.8414.5235-2.6767.215-.5525.6198-1.0239,1.2185-1.1537,1.3745-.298,2.5147.7913,2.3981,2.1402Z"/><path class="cls-1" d="m156.687,146.4078c-.2424,10.6552-1.2074,20.567-3.7869,30.2732-.0827.3112-.1537.6266-.2574.9308-.4064,1.1931-1.1507,2.2873-2.5673,1.8583-1.3442-.4071-1.5525-1.7027-1.2372-2.9164,1.5571-5.9929,2.7845-12.0478,3.2935-18.2265.481-5.8379.9633-11.6805.3607-17.5421-.1136-1.1051.0454-2.5387,1.1653-3.1055.8737-.4422,2.0111.0535,2.4141.9066.2522.5338.2411,1.1405.2771,1.717.0439.7033.0848,1.4068.124,2.1104.0741,1.3312.1407,2.6629.2139,3.9942Z"/><path class="cls-1" d="m60.6171,148.1697c-.3047,6.1537-2.9793,12.645-8.5471,17.8459-.9499.8874-2.16,1.5404-3.2359.4502-.4502-.4562-.7582-1.0565-.5807-1.7043.1706-.6227.667-1.1245,1.1191-1.5594,6.2203-5.9832,8.365-13.2107,6.6899-21.6528-.4123-2.0781-.6292-4.2012-.824-6.3139-.1231-1.3354.3225-2.591,1.8728-2.6387,1.5538-.0478,2.0248,1.1772,2.0335,2.5218.0254,3.9512,1.5648,7.7053,1.4725,13.0511Z"/><path class="cls-1" d="m96.1055,170.3715c-.6667,2.2318-1.6773,4.4555-2.825,6.618-2.9715,5.5991-6.4654,10.825-10.9437,15.3556-1.0178,1.0297-2.0604,1.7193-3.2884.4721-1.1448-1.1626-.4921-2.2046.4366-3.1788,5.4364-5.7029,9.6447-12.2024,12.611-19.5045.2585-.6363.5122-1.3362,1.1013-1.7441.5088-.3524,1.1323-.3464,1.6927-.122.8656.3467,1.3026,1.0103,1.2155,2.1037Z"/><path class="cls-1" d="m73.7987,161.615c-.7222,2.0776-1.6395,4.2789-2.8898,6.3093-2.4769,4.0221-5.3689,7.7065-9.0108,10.7691-.4694.3947-.9956.8112-1.6071.9494-.6606.1493-1.2436-.1459-1.6964-.6161-.4449-.4619-.7468-1.0607-.54-1.7054.1906-.5943.6853-1.0606,1.1379-1.4646,4.3934-3.9216,8.0776-8.637,10.3822-14.0823.2681-.6335.4656-1.3411.9556-1.8478.4687-.4847,1.1115-.6351,1.7625-.4942.9961.2156,1.4914.9457,1.506,2.1826Z"/><path class="cls-1" d="m136.9883,174.2689c-.5177,1.7631-1.0605,3.9494-1.8027,6.0658-1.3611,3.8812-2.8079,7.734-4.6134,11.4389-.1407.2887-.2363.602-.3987.8768-.6563,1.1107-1.646,1.9981-2.9595,1.2797-1.1976-.6549-1.111-1.8879-.6006-2.9847,1.4601-3.1378,2.8149-6.3026,3.9858-9.5613.6642-1.8483,1.283-3.7126,1.868-5.5874.286-.9165.4761-1.874.8699-2.7538.2813-.6284.7816-1.1231,1.4847-1.2196.5835-.0801,1.2887.0778,1.6744.551.4176.5124.4635,1.2632.4922,1.8944Z"/></g><g><g><g><path class="cls-2" d="m89.2316,205.141c-8.0731-4.9134-12.0019-17.0278-8.6494-27.0689,3.3877-10.1464,10.667-16.0875,21.1474-17.5022,10.232-1.3812,18.743,2.3576,24.6394,10.867,5.7771,8.3371,5.9621,17.2462,1.3406,26.3167-1.455,2.8556-3.2693,3.9242-6.6397,2.1046,0-4.9872.0627-10.2217-.0149-15.4541-.113-7.6257-5.0883-13.7757-12.2072-15.241-7.4804-1.5397-15.0293,2.154-17.8956,9.1117-.9346,2.2686-1.3031,4.8916-1.3825,7.3702-.1989,6.2144-.0829,12.4388-.1028,18.6592-.0006.1952-.106.3902-.2355.8367Z"/><path class="cls-2" d="m89.2316,205.141c-8.0731-4.9134-12.0019-17.0278-8.6494-27.0689,3.3877-10.1464,10.667-16.0875,21.1474-17.5022,10.232-1.3812,18.743,2.3576,24.6394,10.867,5.7771,8.3371,5.9621,17.2462,1.3406,26.3167-1.455,2.8556-3.2693,3.9242-6.6397,2.1046,0-4.9872.0627-10.2217-.0149-15.4541-.113-7.6257-5.0883-13.7757-12.2072-15.241-7.4804-1.5397-15.0293,2.154-17.8956,9.1117-.9346,2.2686-1.3031,4.8916-1.3825,7.3702-.1989,6.2144-.0829,12.4388-.1028,18.6592-.0006.1952-.106.3902-.2355.8367Z"/></g><path class="cls-2" d="m140.5308,286.8277h-33.467c-6.1504-2.1435-10.4727-6.5048-13.8635-11.8337-2.4822-3.9011-4.8052-7.9242-6.9134-12.0399-5.1292-10.0133-10.0986-20.1091-15.1193-30.1781-2.5308-5.0754-1.3919-10.5833,2.7855-13.6204,4.3018-3.1276,10.0918-2.5918,14.037,1.4229,2.085,2.1217,4.0009,4.4103,5.9931,6.6235.2932-.2057.5864-.4114.8795-.6171,0-1.128-.0001-2.256,0-3.3841.0014-12.7589-.0495-25.5181.0263-38.2765.0381-6.4162,4.5551-10.8838,10.6555-10.8117,5.9866.0708,10.2521,4.5211,10.3392,10.8154.0306,2.2139.0059,4.4286.006,6.643.0002,4.9983,0,9.9966,0,15.2165,6.9524-2.4038,11.9311-.4236,15.2675,5.5034,7.7654-2.5617,10.5302-1.6242,15.991,5.3005,7.6124-2.8782,11.9359-1.1113,16.1146,6.5859v34.8058c-1.9335,9.582-6.7916,17.2815-14.8257,22.8693-2.5539,1.7763-5.2666,3.3234-7.9066,4.9754Z"/></g><g><path class="cls-1" d="m89.2316,205.141c-8.0731-4.9134-12.0019-17.0278-8.6494-27.0689,3.3877-10.1464,10.667-16.0875,21.1474-17.5022,10.232-1.3812,18.743,2.3576,24.6394,10.867,5.7771,8.3371,5.9621,17.2462,1.3406,26.3167-1.455,2.8556-3.2693,3.9242-6.6397,2.1046,0-4.9872.0627-10.2217-.0149-15.4541-.113-7.6257-5.0883-13.7757-12.2072-15.241-7.4804-1.5397-15.0293,2.154-17.8956,9.1117-.9346,2.2686-1.3031,4.8916-1.3825,7.3702-.1989,6.2144-.0829,12.4388-.1028,18.6592-.0006.1952-.106.3902-.2355.8367Z"/><path class="cls-1" d="m140.5308,286.8277h-33.467c-6.1504-2.1435-10.4727-6.5048-13.8635-11.8337-2.4822-3.9011-4.8052-7.9242-6.9134-12.0399-5.1292-10.0133-10.0986-20.1091-15.1193-30.1781-2.5308-5.0754-1.3919-10.5833,2.7855-13.6204,4.3018-3.1276,10.0918-2.5918,14.037,1.4229,2.085,2.1217,4.0009,4.4103,5.9931,6.6235.2932-.2057.5864-.4114.8795-.6171,0-1.128-.0001-2.256,0-3.3841.0014-12.7589-.0495-25.5181.0263-38.2765.0381-6.4162,4.5551-10.8838,10.6555-10.8117,5.9866.0708,10.2521,4.5211,10.3392,10.8154.0306,2.2139.0059,4.4286.006,6.643.0002,4.9983,0,9.9966,0,15.2165,6.9524-2.4038,11.9311-.4236,15.2675,5.5034,7.7654-2.5617,10.5302-1.6242,15.991,5.3005,7.6124-2.8782,11.9359-1.1113,16.1146,6.5859v34.8058c-1.9335,9.582-6.7916,17.2815-14.8257,22.8693-2.5539,1.7763-5.2666,3.3234-7.9066,4.9754Z"/></g></g></svg>