<?xml version="1.0" encoding="UTF-8"?><svg id="Layer_1" xmlns="http://www.w3.org/2000/svg" viewBox="0 0 296.3943 271.7831"><defs><style>.cls-1{fill:#fff;}.cls-2{fill:#4a9cd5;}</style></defs><path class="cls-2" d="m183.5145,271.7831h-70.627c-.5779-.3177-1.1733-.6076-1.7305-.9582-1.9241-1.2107-2.7293-2.9894-2.2848-5.1873.4459-2.205,1.8744-3.5595,4.1498-3.8059,1.3359-.1447,2.6926-.1269,4.0401-.1313,4.3926-.0144,8.7854-.0054,14.0934-.0054-31.0513-22.514-49.5114-51.9757-56.1333-88.8712-5.9055,0-11.6478.5368-17.2474-.1277-8.1042-.9616-14.3308,1.3417-19.1485,7.9566-1.0663,1.4641-1.6362,2.3031-.802,4.1743,4.5752,10.2626-.4834,22.1787-10.9324,26.1705-10.5997,4.0494-22.318-1.5607-25.8281-12.3643C.7125,197.5525.3547,196.4739,0,195.3943c0-1.929,0-3.858,0-5.787.1873-.4227.4369-.829.5526-1.2705,2.2271-8.4972,7.6647-13.5825,16.2736-15.2425,4.6332-.8934,8.9267.4297,13.2422,2.5057,3.4473-3.5179,6.6807-7.111,10.2591-10.3195,1.3598-1.2193,3.4863-2.1014,5.3096-2.1906,5.6765-.2775,11.3752-.1018,17.0653-.1019,3.7286,0,7.4573,0,11.2287,0v-19.553h-35.0253c-.2972.7816-.5245,1.4156-.7774,2.0393-3.2913,8.1166-10.882,12.9343-19.6086,12.4494-8.436-.4687-15.4953-6.2022-17.8586-14.4907-.1799-.6309-.439-1.2392-.6612-1.858,0-2.1219,0-4.2438,0-6.3657.2592-.8154.5255-1.6287.7765-2.4466,2.5383-8.2715,9.8708-13.9405,18.4197-14.2379,8.1838-.2847,15.8031,4.7996,18.9648,12.6542.2835.7044.571,1.4072.814,2.0055h34.9053v-19.5335c-9.1068,0-17.9755-.1064-26.8393.0557-3.2571.0596-5.711-.9101-7.8869-3.3267-2.9517-3.2782-6.155-6.3302-9.1627-9.3899-11.1084,5.6159-20.3401,1.673-24.5811-3.7413-2.4094-3.0759-3.6458-7.07-5.4104-10.6505,0-1.7361,0-3.4722,0-5.2083,1.6377-3.4397,2.7093-7.3308,5.0231-10.2316,6.0792-7.6212,17.1269-9.0328,25.358-3.8102,8.2776,5.252,11.3791,15.5067,7.4042,24.5978-.512,1.171-.9885,2.0274.1715,3.3002,7.7345,8.4873,7.6958,8.5225,19.1685,8.5225h16.9979c0-1.6547-.0108-2.9807.0017-4.3065.0861-9.071,6.1661-15.271,15.218-15.4106,5.3049-.0818,10.6121-.0172,15.9182-.0181,2.6796-.0005,5.3593,0,8.3068,0,0-7.5517.0149-14.7645-.0321-21.9769-.0033-.5027-.3568-1.1103-.7308-1.4875-7.8691-7.9348-15.7646-15.8433-23.5731-23.6749-10.9599,4.6164-20.1764,2.6207-26.1033-5.4736-5.4148-7.3949-4.9448-17.7067,1.1203-24.5822C70.3695-.1003,80.4132-1.8983,88.4906,2.507c4.0411,2.2039,6.9745,5.4356,8.7591,9.6681,2.5596,6.0704,1.8754,12.0041-1.1633,17.7279,8.3111,8.2877,16.3942,16.4355,24.5948,24.4633,2.0191,1.9765,2.8976,4.0912,2.83,6.9088-.1458,6.0723-.0447,12.1505-.0447,18.2263,0,1.4068,0,2.8137,0,4.3723h19.5138c.102-.7861.2587-1.4337.2594-2.0815.0145-13.5981-.0297-27.1966.0591-40.7942.0123-1.8926-.9535-2.381-2.3887-2.9628-8.7848-3.5613-13.8715-12.6783-12.1622-21.6477C130.565,6.8527,138.524.1005,148.063.0011c9.5757-.0998,17.7404,6.7371,19.5899,16.4041,1.7109,8.9425-3.3791,18.1192-12.1943,21.6048-1.8726.7404-2.3569,1.7007-2.346,3.5907.0766,13.212.0373,26.4246.0487,39.637.0007.8363.1152,1.6724.1784,2.5304h19.5958c0-4.3068.4871-8.4221-.095-12.3803-1.502-10.2125,2.0053-17.8085,9.9996-24.2899,6.3232-5.1265,11.6878-11.4346,17.4043-17.1444-4.6021-10.857-2.5869-20.1653,5.4844-26.0722,7.3742-5.3967,17.6989-4.9231,24.6019,1.1285,6.9181,6.0649,8.725,16.176,4.3232,24.2353-2.2056,4.0384-5.4369,6.9605-9.6706,8.7558-6.0799,2.5783-12.0056,1.8554-17.6891-1.1326-7.8962,7.8939-15.6102,15.5913-23.2933,23.3195-.5094.5124-1.1091,1.2555-1.1161,1.8973-.079,7.2074-.05,14.4159-.05,21.9481,1.3365,0,2.3761-.0003,3.4158,0,7.0427.0023,14.0875-.1015,21.1276.0342,8.7125.1679,14.7724,6.4216,14.8983,15.142.0205,1.4173.0029,2.8352.0029,4.5592,5.7915,0,11.3355-.5411,16.7293.1277,7.9595.9869,13.9404-1.4843,18.6716-7.8447,1.1409-1.5338,1.7407-2.4191.8447-4.4228-4.5329-10.1374.5311-21.9889,10.8785-25.9636,10.5563-4.055,22.1919,1.3112,25.8271,11.9112,3.6005,10.4988-2.1647,21.9322-12.7258,25.229-5.5393,1.7292-10.8287.9312-16.0531-1.8442-1.4011,1.4525-2.6954,2.8784-4.0773,4.2137-10.7,10.3396-5.498,8.2517-20.4707,8.4611-6.4366.09-12.8756.0151-19.446.0151v19.6172h34.8161c5.8921-11.9898,13.9324-16.6759,24.2184-14.1232,8.7312,2.1668,14.9753,10.2741,14.9014,19.3481-.0746,9.1545-6.5692,17.1185-15.5748,19.0985-9.9749,2.1931-18.1778-2.7578-23.4436-14.1381h-34.8853v19.5348c9.4593,0,18.7109.054,27.9612-.0369,2.3989-.0236,4.2542.6761,5.9033,2.4153,3.3083,3.4891,6.733,6.8679,10.0423,10.2239,1.111-.4868,1.8988-.8463,2.6974-1.1798,7.8024-3.2577,16.4749-1.288,22.1718,5.031,5.6866,6.3076,6.6759,15.454,2.4726,22.8593-4.1287,7.2739-12.4744,11.2118-20.6237,9.7312-12.5324-2.2769-19.6211-15.5365-14.6501-27.2813.3758-.888.6278-2.4294.1475-2.9855-4.7268-5.4729-9.4351-11.0045-18.0368-9.0214-2.2901.5279-4.8054.0798-7.2172.0798h-12.0099c-6.6747,37.0731-25.1568,66.3738-55.8267,88.6988,1.5433.0787,2.4614.1607,3.38.1664,4.6303.0288,9.2833-.2164,13.8785.1932,1.5847.1412,3.679,1.5912,4.3386,3.004.5983,1.2813-.1762,3.4402-.856,4.9881-.3823.8705-1.7981,1.2875-2.7483,1.9088ZM138.3508,19.7067c-.0533,5.4618,4.3596,9.9784,9.7923,10.0225,5.3984.0438,9.9108-4.4712,9.9073-9.913-.0034-5.3929-4.2493-9.6989-9.6533-9.7899-5.5531-.0935-9.9927,4.1844-10.0463,9.6804ZM29.6315,138.357c.0288-5.49-4.3843-9.9715-9.8157-9.9679-5.3874.0036-9.939,4.5869-9.8959,9.965.0428,5.3486,4.3667,9.6675,9.7498,9.7387,5.5647.0736,9.9327-4.1953,9.9618-9.7357Zm246.7996,9.7426c5.5188.0597,9.9997-4.2825,10.0494-9.7381.0489-5.3669-4.5107-9.9633-9.8928-9.9724-5.3249-.009-9.722,4.3253-9.8123,9.6721-.0943,5.5886,4.1284,9.9786,9.6557,10.0384Zm-9.647-64.2041c-.0449,5.5479,4.3354,9.9688,9.8476,9.9392,5.3498-.0288,9.7687-4.404,9.837-9.7396.0694-5.4258-4.4553-9.9557-9.93-9.9413-5.3863.0141-9.7109,4.333-9.7546,9.7418ZM29.6123,192.5463c-.0175-5.4131-4.3091-9.77-9.6897-9.8372-5.4064-.0675-10.0165,4.5021-9.9935,9.9057.0232,5.4573,4.5444,9.8506,10.0651,9.7804,5.4121-.0688,9.6358-4.3938,9.6181-9.849Zm246.8629,9.8535c5.506.0383,10.0233-4.4213,9.9857-9.8581-.0366-5.3008-4.4926-9.7774-9.7838-9.8289-5.3526-.052-9.8334,4.3036-9.9007,9.6241-.0712,5.6303,4.1638,10.0244,9.6987,10.0629ZM29.6273,83.9969c-.03-5.5611-4.446-9.9249-9.9546-9.8369-5.3622.0857-9.7414,4.5059-9.7395,9.8309.0019,5.4536,4.5563,9.9075,10.0291,9.8078,5.4626-.0995,9.6941-4.391,9.6649-9.8018ZM227.133,19.784c-.0164-5.4289-4.2685-9.697-9.7134-9.75-5.5114-.0537-10.013,4.3944-9.9698,9.8512.0421,5.3176,4.4536,9.7498,9.7802,9.8262,5.4463.0781,9.9196-4.4062,9.9029-9.9273Zm-157.8627.1088c.0358,5.3975,4.3427,9.7319,9.731,9.7931,5.4068.0614,10.0614-4.572,9.9604-9.9152-.1045-5.526-4.5627-9.8279-10.0919-9.7382-5.4173.0879-9.6355,4.4208-9.5994,9.8603Z"/><path class="cls-1" d="m132.8784,172.3325c-6.2394-6.2548-12.4788-12.4942-18.7336-18.7336-2.6279-2.6433-6.1933-2.6894-8.8519-.0615-2.6894,2.6587-5.3788,5.3173-8.0221,8.0221-2.6433,2.7047-2.6587,6.1779.0307,8.8673,10.6346,10.6654,21.2693,21.3154,31.9346,31.9346,2.7201,2.7048,6.2701,2.7509,8.9749.0461,20.3626-20.3318,40.7098-40.679,61.0262-61.0416,2.3359-2.3359,2.5357-5.6861.3074-8.1296-2.8123-3.0736-5.7784-6.0396-8.852-8.8366-2.7355-2.4896-5.8706-2.2591-8.437.3227-11.818,11.7872-23.6052,23.5898-35.3924,35.3771-4.3492,4.3492-8.6829,8.6983-13.1857,13.2011-.3227-.4149-.5379-.7069-.7991-.9682"/></svg>