<?xml version="1.0" encoding="UTF-8"?><svg id="Layer_1" xmlns="http://www.w3.org/2000/svg" viewBox="0 0 197.0056 285.9853"><defs><style>.cls-1,.cls-2{fill:#4a9cd5;}.cls-3{fill:none;stroke:#fff;stroke-width:15px;}.cls-2{fill-rule:evenodd;}</style></defs><g><path class="cls-1" d="m152.0927,106.9384c.2329,4.7014-.2068,9.3503-.9603,13.9764-.2004,1.2299-.3863,2.5352-2.0695,2.4446-1.2072-.065-1.6622-1.1898-1.3985-3.0203,1.6206-11.2513,1.5178-22.4659-1.2052-33.5376-2.648-10.7663-12.2577-18.655-23.3179-19.7673-15.4599-1.5548-29.7619,10.5829-29.6121,27.3811.0238,2.6645.795,5.2398,1.1166,7.8702.1675,1.3704.2258,2.7649.2467,4.1447.0195,1.2891.0105,2.6189-.2026,3.8938-.1702,1.0187-.7302,1.8489-1.8658,1.7509-.8218-.071-1.3653-.5827-1.4881-1.3943-.0663-.4381-.0109-.8751.0216-1.3133.0446-.6007.0654-1.203.0666-1.8053.0052-2.4851-.325-4.9535-.659-7.4112-.188-1.3836-.3778-2.7675-.5103-4.1578-.7124-7.47,1.4117-14.2015,5.819-20.1585,8.0208-10.8411,21.7546-15.2036,34.4304-10.6485,11.4675,4.1209,18.1065,12.535,20.175,24.5354.9821,5.6974,1.7089,11.4206,1.4135,17.217Z"/><path class="cls-1" d="m165.2853,90.5384c.0077,1.014-.2302,1.8956-1.433,1.9869-1.2122.092-1.7926-.669-1.9628-1.7601-.5343-3.4253-1.0788-6.8623-2.2881-10.1167-5.9184-15.9278-17.2691-25.4171-34.1167-27.7088-12.9732-1.7647-24.3339,2.3317-33.7737,11.3393-5.8993,5.6293-9.7391,12.5529-11.456,20.5857-.2283,1.0679-.4348,3.0695-1.8187,3.2662-.5416.077-1.1815-.1211-1.5554-.5277-.3733-.406-.4483-.9817-.4061-1.5116.0769-.9635.3562-1.9461.5862-2.8832.2186-.8905.4647-1.7743.738-2.6496.5458-1.748,1.1998-3.4623,1.9571-5.1296,1.4883-3.2768,3.3747-6.3709,5.6031-9.1968,2.2034-2.7942,4.7396-5.325,7.539-7.5219,2.8235-2.2158,5.9137-4.0906,9.1858-5.5661,3.3307-1.5019,6.8471-2.5877,10.4451-3.2233.4555-.0805.9124-.1538,1.3702-.2199,13.9257-2.0107,26.1659,1.7938,36.6744,11.113,8.714,7.7278,13.1174,17.6664,14.6617,29.0318.031.2284.0342.4605.0498.6924Z"/><path class="cls-1" d="m130.6556,106.7997c-.0325,6.7516-.9189,13.4986-2.7571,19.9991-1.8036,6.378-4.5151,12.4794-7.973,18.1313-.9949,1.6262-2.0504,3.2154-3.1598,4.7658-.8435,1.1789-2.183,3.6615-3.9258,2.4162-1.3444-.9607-.6523-2.1355.1144-3.1626,4.3483-5.8252,7.8341-12.1137,10.2414-18.9863,4.282-12.2248,5.122-24.6908,2.5378-37.3722-.418-2.0512-2.0682-3.6915-4.109-4.1354-2.093-.4552-4.2267.4859-5.4777,2.1896-.851,1.159-1.2462,2.5752-.9636,3.9991,1.5234,7.6746,1.6602,15.3614.1697,23.0587-.0874.451-.1218.9366-.3204,1.3367-.3275.6599-.8521,1.2609-1.6507,1.225-.761-.0343-1.4457-.5009-1.5845-1.2724-.0788-.4379.0138-.8915.0697-1.3267.0727-.5656.1535-1.1302.2355-1.6945.1671-1.1508.339-2.3015.456-3.4588.5365-5.3095.4887-10.6-.5954-15.8564-1.4342-6.9535,3.3604-12.5413,9.9244-11.6069,2.7843.3964,5.2478,2.2216,6.539,4.7057.7619,1.4659.978,3.101,1.2538,4.7102.3276,1.9119.603,3.8336.7837,5.7652.2042,2.1827.2865,4.3786.1918,6.5696Z"/><path class="cls-1" d="m121.0034,42.0413c1.3097-.0811,2.6283.0308,3.9317.1555.6555.0627,1.3127.1229,1.9664.202.4266.0517.8734.1362,1.246.362.7583.4596.8283,1.5134.4343,2.2483-.4279.7983-1.4121.8332-2.2079.7477-12.183-1.3088-23.4706,1.2423-33.5023,8.3524-12.2344,8.6712-19.0555,20.5698-20.5887,35.5343-.5018,4.898.0937,9.6657.884,14.4594.3818,2.3158.2842,4.6984-.3819,6.9539-.3209,1.0867-.7666,2.1347-1.3129,3.127-.2912.5289-.6107,1.0421-.954,1.5387-.3334.4824-.6769,1.013-1.0899,1.4314-.7506.7603-1.7241,1.2958-2.6693.5071-.9184-.7663-.7266-1.8051-.026-2.6486,1.6517-1.9884,2.803-4.3702,3.0913-6.9548.1487-1.3331.0514-2.654-.1713-3.9724-.2632-1.5582-.4955-3.1221-.6721-4.6926-.6587-5.8593-.3928-11.7874.9913-17.5274.7733-3.2069,1.8773-6.3309,3.2666-9.3223,6.1789-13.304,16.1774-22.5611,30.0207-27.5993,4.8181-1.7535,11.3925-2.9069,17.7439-2.9023Z"/><path class="cls-1" d="m173.6255,106.5934c.0495,2.5154.0289,5.0332-.1079,7.5457-.0666,1.2226-.1607,2.4438-.287,3.6617-.1091,1.0524-.1812,2.1471-.4301,3.1782-.2211.9163-.7871,1.4852-1.7668,1.4797-1.1826-.0067-1.8902-1.22-1.5782-2.9527.7828-4.3463.7834-8.7546.7918-13.1207.0139-7.1569-.7362-14.2706-2.1101-21.327-1.6036-8.2362-4.9973-15.5798-10.2804-22.0546-2.528-3.0982-5.4453-5.8728-8.6758-8.2302-3.2109-2.3431-6.7164-4.2668-10.3876-5.7855-1.0803-.4469-2.1909-.8069-3.2765-1.2364-.903-.3572-1.5682-1.0505-1.2812-2.077.509-1.8211,2.4766-1.0502,3.7449-.6429,1.8544.5955,3.6509,1.3636,5.3815,2.2557,3.8174,1.9677,7.4459,4.3132,10.7414,7.0712,3.1279,2.6178,5.9448,5.6041,8.3464,8.9022,2.4132,3.314,4.3981,6.9297,5.9453,10.7246,1.7349,4.2554,2.8598,8.6945,3.6789,13.2088,1.0321,5.6883,1.6193,11.4669,1.5906,17.2513-.0036.7161-.0165,1.4321-.0392,2.1479Z"/><path class="cls-1" d="m120.4165,70.5205c1.3502.0785,3.5067.102,3.4071,1.9819-.0797,1.5029-1.2695,1.575-2.4279,1.5449-10.8189-.2812-18.9129,7.2758-20.4245,16.7931-.3846,2.4218-.2114,4.8233.2471,7.2316,2.5356,13.3192-.5523,25.3145-8.6501,36.0801-1.6306,2.1678-3.4425,4.1964-5.5411,5.9473-.5166.431-1.1907.8941-1.9014.763-.6932-.1278-1.333-.8394-1.4258-1.5309-.1011-.7537.4241-1.3904.9402-1.8683.6009-.5564,1.1945-1.12,1.7717-1.701,2.2661-2.2812,4.3117-4.787,5.9953-7.5299,3.4282-5.5853,5.5776-12.0094,6.0552-18.5506.2733-3.7427.0055-7.5124-.7087-11.194-2.5299-13.0412,5.6516-25.0095,18.6925-27.4753,1.3574-.2567,2.7469-.344,3.9703-.4917Z"/><path class="cls-1" d="m145.1259,105.568c-.2097,16.591-3.9277,31.1986-11.7221,44.7163-.281.4873-.619,1.0233-1.1274,1.3008-.5657.3088-1.2063.1445-1.7249-.1856-1.099-.6995-.7365-1.8819-.1986-2.8308,3.3833-5.9679,6.0941-12.2961,7.9621-18.9001,1.8952-6.7001,3.037-13.6163,3.2476-20.58.1199-3.9641-.0598-7.9366-.5379-11.8736-.2859-2.3542-.6625-4.6837-1.0998-7.0105-1.0123-5.3863-3.8024-9.5976-8.2975-12.7011-1.1283-.7791-3.0869-1.7172-1.9854-3.3505.3609-.5352.8996-.8671,1.5566-.7728.6711.0964,1.2538.5277,1.807.8882,1.3409.8739,2.6319,1.8364,3.7664,2.9695,2.6011,2.5979,4.5904,5.7537,5.7743,9.2361.6611,1.9446,1.0463,3.9687,1.3719,5.9928.3411,2.1208.5839,4.2564.7684,6.3962.1924,2.2319.3187,4.4685.4392,6.7052Z"/><path class="cls-1" d="m120.1,34.7571c9.153.1222,17.4376,1.933,25.3119,5.5776.8503.3936,2.0184.9967,1.9316,2.1073-.0748.956-.9143,1.7474-1.8813,1.5954-.5336-.0839-1.0132-.3885-1.4925-.6194-.5581-.2689-1.1211-.5274-1.689-.7749-1.1522-.5022-2.3241-.9593-3.5128-1.3676-1.3502-.4638-2.722-.8646-4.1101-1.1982-18.5349-4.4535-35.2395-.7557-50.0292,11.3508-3.1912,2.6123-5.9661,5.6165-8.4583,8.8905-.6028.7919-1.3975,1.8424-2.513,1.2827-.4968-.2493-.9785-.6932-1.0706-1.2648-.0782-.4856.1301-.9679.3719-1.3768.6176-1.0444,1.4722-1.9901,2.2465-2.92.8126-.9759,1.6549-1.927,2.5269-2.8503,3.4437-3.6463,7.35-6.8477,11.6156-9.4872,2.4487-1.5152,5.0105-2.8455,7.6529-3.9894,7.5107-3.2513,15.4074-4.7933,23.0994-4.9558Z"/><path class="cls-1" d="m159.4055,107.0599c-.1172,12.0604-2.1678,23.7675-6.3788,35.0862-.467,1.2553-1.0978,2.3503-2.6123,1.7571-1.4227-.5573-1.1707-1.8046-.7361-2.9577,2.8204-7.4824,4.7291-15.3034,5.6161-23.2519.8811-7.896.7672-15.9486-.1495-23.8381-.5168-4.4482-1.4327-8.8692-3.0952-13.0391-.7742-1.9418-1.7859-3.7806-2.9242-5.5312-.4605-.7082-1.135-1.4579-1.2541-2.3248-.1172-.8531.6152-1.5859,1.4103-1.7689.9411-.2167,1.6556.602,2.1342,1.2949,3.5827,5.1868,5.5949,10.966,6.5401,17.1653.88,5.7712,1.4675,11.5618,1.4495,17.4083Z"/><path class="cls-1" d="m75.1961,130.5841c-1.0155-.0215-1.944-.8972-1.6025-1.9724.1695-.5337.6569-.9383,1.0393-1.3245.4502-.4547.9168-.8927,1.3706-1.3437,3.1206-3.1008,5.6094-6.8344,6.954-11.0417,1.3353-4.1782,1.4915-8.6318.8175-12.9474-.3534-2.2628-.669-4.5115-.751-6.8038-.0764-2.1355.0087-4.2778.2789-6.398.524-4.1116,1.7601-8.114,3.6635-11.7968,2.002-3.8735,4.7033-7.3511,7.8087-10.4014.4249-.4174.8466-.8719,1.3215-1.2326.4567-.3469.9259-.7563,1.4848-.9264.616-.1874,1.1505.0812,1.5509.5543.4048.4783.6299,1.0773.3523,1.6746-.2534.5452-.7595.9425-1.2025,1.3279-5.7198,4.9756-9.4502,11.1571-11.0903,18.542-1.1954,5.3823-.5543,10.7526.1608,16.1684,1.4377,10.8873-2.2562,19.9584-10.4352,27.2371-.4912.4372-1.0402.7251-1.721.6844Z"/><path class="cls-1" d="m120.0858,106.9155c.1421-4.2724-.4728-8.0955-1.0745-11.9175-.0882-.56-.1834-1.1764-.0137-1.7305.1824-.5954.6969-.8985,1.2877-.9949,1.4373-.2346,1.9087.9984,2.1311,2.1755,2.6842,14.2064.7879,27.8102-5.4091,40.8376-2.3925,5.0295-5.347,9.7058-8.9519,13.9615-.2611.3083-.5093.6292-.7894.9193-.7055.7308-1.5281,1.151-2.4483.4482-.54-.4125-.8435-1.0294-.6943-1.7096.1684-.768.7955-1.4172,1.2569-2.0256,1.0804-1.4244,2.2094-2.8125,3.2437-4.2715,6.3884-9.0118,10.0423-19.0498,11.1609-30.0252.1053-1.0333.2377-2.0658.2902-3.1021.0497-.9797.0107-1.9639.0107-2.5652Z"/><path class="cls-1" d="m179.5237,91.8191c0,1.0131.0749,2.057-.0213,3.0667-.072.7561-.4,1.4898-1.1929,1.6957-2.2924.5951-2.2617-2.5135-2.3026-3.9452-.5045-17.668-7.8564-31.8809-21.6171-42.8621-1.0351-.8261-3.5885-2.2004-2.2018-3.7785.5196-.5914,1.2412-.8166,1.981-.5089.41.1706.7706.4606,1.1314.7146.4029.2837.8019.5731,1.1966.8681,1.5256,1.1401,2.988,2.3652,4.3691,3.6767,10.1679,9.6559,16.1952,21.467,18.1927,35.3244.2868,1.9893.5671,4.0039.4651,5.7484Z"/><path class="cls-1" d="m137.8831,104.2981c0,1.4239.2714,3.8527-1.8153,3.8046-1.2036-.0277-1.6643-.9107-1.6789-2.0202-.0311-2.3678-.1095-4.7291-.3729-7.0876-.2077-1.8593-.4094-3.721-.7266-5.5657-.2608-1.5168-.5823-3.0228-1.1818-4.446-.9983-2.3697-2.6604-4.4542-4.8366-5.8417-4.1895-2.6711-10.1468-2.463-14.1716.4464-2.3124,1.6716-3.869,4.1583-4.7387,6.8472-.1588.4909-.3418.987-.6017,1.4289-.3649.6204-.9628.7741-1.6552.6275-.7081-.1499-1.1098-.5844-1.2168-1.287-.1067-.7008.0374-1.3785.2276-2.0503,1.9181-6.7729,8.5249-11.5098,15.8697-11.3761,6.9912.1273,13.511,5.2514,15.0651,11.936,1.1142,4.7923,1.5745,9.6781,1.8339,14.5839Z"/><path class="cls-1" d="m109.1867,106.809c-.2191,14.2796-5.2897,26.5426-15.3525,36.7128-.9416.9516-2.029,2.396-3.462.9424-1.4543-1.4752.0863-2.4693,1.0184-3.4261,10.9144-11.2034,15.4887-24.6141,13.9858-40.1385-.1225-1.2655-.0543-2.4437,1.4905-2.6078,1.4329-.1522,1.7738.8921,1.9478,2.1088.3039,2.1255.3402,4.2557.372,6.4084Z"/><path class="cls-1" d="m61.4846,94.8144c.0113-9.9005,1.9135-18.3265,5.7388-26.3167.5373-1.1223,1.3137-2.9855,2.8875-2.2327.9501.4545,1.1659,1.3698.7935,2.3069-.4906,1.2344-1.0995,2.4267-1.6071,3.6558-1.0085,2.4422-1.8897,4.9397-2.5686,7.4943-.3905,1.4693-.7139,2.9566-.9579,4.4573-1.1696,7.1923-1.0691,14.36.4419,21.5035.2747,1.2988.9516,2.8513-.975,3.51-1.2188.4167-1.9417-.4457-2.4399-2.8783-.8471-4.1357-1.3972-8.3069-1.3132-11.5002Z"/><path class="cls-1" d="m120.0991,56.2468c8.9145.205,16.3604,2.65,22.942,7.5917,1.0189.765,2.5201,1.6452,1.4386,3.1896-1.145,1.6351-2.3172.3309-3.3698-.4141-10.58-7.488-21.9003-8.9073-33.977-4.1585-.5804.2282-1.2279.517-1.8672.4363-.6041-.0763-.9989-.522-1.2088-1.0689-.3608-.9404.123-1.674.955-2.1134,1.0604-.56,2.2151-.9906,3.3446-1.3877,2.3515-.8268,4.7945-1.3853,7.2695-1.6781,1.7144-.2028,3.4328-.4983,4.473-.3967Z"/><path class="cls-1" d="m137.3438,115.8402c-.8588,7.6466-2.7732,14.9335-5.7198,21.9504-1.8822,4.4823-4.1325,8.7706-6.8048,12.834-.7582,1.1529-1.9103,2.9233-3.4763,1.8422-.9324-.6437-.8689-1.5489-.3297-2.4497,1.3334-2.2278,2.7413-4.4141,3.9976-6.6844,4.4922-8.1176,7.3182-16.7984,8.6257-25.979.1124-.7891.1776-1.6488.4687-2.3968.1925-.4947.555-.9168,1.0911-1.033,1.2308-.2669,2.2517.7086,2.1473,1.9164Z"/><path class="cls-1" d="m166.637,106.2696c-.2171,9.541-1.0812,18.4163-3.3909,27.1075-.074.2786-.1377.5611-.2304.8335-.3639,1.0683-1.0304,2.0482-2.2988,1.6639-1.2037-.3646-1.3902-1.5246-1.1078-2.6114,1.3943-5.3662,2.4933-10.788,2.9491-16.3205.4307-5.2274.8625-10.4591.323-15.7077-.1017-.9895.0406-2.2732,1.0435-2.7807.7823-.3959,1.8008.0479,2.1616.8118.2258.478.2159,1.0212.2482,1.5374.0393.6298.076,1.2597.1111,1.8897.0664,1.192.126,2.3845.1916,3.5765Z"/><path class="cls-1" d="m80.6131,107.8472c-.2728,5.5102-2.6677,11.3227-7.6533,15.9797-.8506.7946-1.9342,1.3793-2.8975.4031-.4031-.4085-.6789-.946-.52-1.5261.1527-.5576.5973-1.007,1.0021-1.3963,5.5698-5.3575,7.4902-11.8292,5.9903-19.3886-.3692-1.8608-.5634-3.7618-.7379-5.6536-.1103-1.1958.2888-2.32,1.677-2.3627,1.3914-.0428,1.8131,1.0541,1.8208,2.2581.0228,3.538,1.4012,6.8996,1.3185,11.6864Z"/><path class="cls-1" d="m112.3905,127.7274c-.597,1.9984-1.5019,3.9896-2.5296,5.9259-2.6608,5.0136-5.7893,9.693-9.7993,13.7498-.9114.922-1.8449,1.5395-2.9445.4227-1.0251-1.0411-.4407-1.974.3909-2.8464,4.8679-5.1065,8.6362-10.9264,11.2922-17.4649.2315-.5698.4587-1.1965.9861-1.5618.4556-.3155,1.0139-.3102,1.5157-.1092.7751.3104,1.1664.9046,1.0884,1.8837Z"/><path class="cls-1" d="m92.4164,119.8865c-.6467,1.8603-1.4681,3.8315-2.5876,5.6495-2.2179,3.6015-4.8075,6.9006-8.0685,9.643-.4203.3535-.8915.7264-1.439.8501-.5915.1337-1.1135-.1307-1.519-.5517-.3984-.4136-.6687-.9498-.4835-1.5271.1707-.5321.6136-.9497,1.0189-1.3114,3.934-3.5115,7.2329-7.7338,9.2965-12.6097.2401-.5673.4169-1.2009.8556-1.6546.4197-.434.9953-.5687,1.5782-.4425.8919.193,1.3355.8468,1.3485,1.9544Z"/><path class="cls-1" d="m148.9982,131.2172c-.4636,1.5787-.9496,3.5364-1.6142,5.4315-1.2188,3.4753-2.5142,6.9253-4.131,10.2427-.126.2585-.2116.5391-.357.7851-.5876.9945-1.4739,1.7891-2.65,1.1459-1.0724-.5864-.9948-1.6905-.5378-2.6726,1.3074-2.8096,2.5205-5.6435,3.569-8.5614.5947-1.655,1.1488-3.3244,1.6727-5.0031.2561-.8206.4263-1.6781.7789-2.4658.2518-.5627.6999-1.0056,1.3295-1.0921.5225-.0717,1.1539.0697,1.4993.4934.3739.4588.415,1.1311.4407,1.6963Z"/></g><path class="cls-2" d="m105.1954,238.894h19.4774c5.3637,0,9.7517-4.3883,9.7517-9.7518v-17.1586c0-16.2493-5.326-36.1639-33.1451-47.501l-16.574-6.7536c-24.8413-12.2465-41.9342-34.2861-41.9342-67.3869,0-16.4085,6.1-33.1103,16.2393-46.6634,13.8533-17.6611,35.3895-29.0083,59.5763-29.0083,19.5951,0,37.1372,7.802,50.8907,19.6672,6.1623,5.3162,10.7964,2.6333,12.7476,1.4138,1.9512-1.2195,4.0707-6.2276-1.8544-11.3226C163.5767,9.9875,142.4839,0,118.5869,0,76.3705,0,35.3457,31.9421,24.8631,71.4382c-2.5538,7.3572-.7269,9.7905-.9355,13.675-.1879.9694-.363,1.9408-.5248,2.9154-1.5126,5.0723-4.513,10.6591-20.9115,29.2687-9.1215,11.5747,9.5052,10.5944,12.6708,19.5437,1.2719,3.5965-2.4855,6.883-2.7546,10.4842.9251,4.656,4.1374,4.0027,6.3984,5.2477-10.8256,6.1291,2.6746,10.6102,1.9295,19.1898-.3895,4.4854-6.9269,9.377,1.942,16.1477,7.7928,5.9494,53.2891.7775,53.2891,33.5781v7.6536c0,5.3635,4.3881,9.7518,9.7518,9.7518h0"/><g><g><path class="cls-3" d="m40.643,222.7524l-1.6831,15.0354,10.8799-9.5995,5.3393,8.7056-14.4395,5.7339,14.3428,5.8386-5.2427,8.6089-10.8799-9.6961,1.6831,15.1321h-9.4948l1.6791-15.0354-10.7793,9.5995-5.2427-8.6089,14.2422-5.9352-14.3428-5.6373,5.3433-8.8988,10.6826,9.7927-1.5825-15.0354h9.4948Z"/><g><rect class="cls-3" x="12.8093" y="276.9052" width="46.2653" height="9.0801" rx=".5" ry=".5"/><rect class="cls-3" x="12.8093" y="276.9052" width="46.2653" height="9.0801" rx=".5" ry=".5"/></g><path class="cls-3" d="m109.6086,222.7524l-1.6831,15.0354,10.8799-9.5995,5.3393,8.7056-14.4395,5.7339,14.3428,5.8386-5.2427,8.6089-10.8799-9.6961,1.6831,15.1321h-9.4948l1.6791-15.0354-10.7793,9.5995-5.2427-8.6089,14.2422-5.9352-14.3428-5.6373,5.3433-8.8988,10.6826,9.7927-1.5825-15.0354h9.4948Z"/><g><rect class="cls-3" x="81.7748" y="276.9052" width="46.2653" height="9.0801" rx=".5" ry=".5"/><rect class="cls-3" x="81.7748" y="276.9052" width="46.2653" height="9.0801" rx=".5" ry=".5"/></g><g><rect class="cls-3" x="150.7404" y="276.9052" width="46.2653" height="9.0801" rx=".5" ry=".5"/><rect class="cls-3" x="150.7404" y="276.9052" width="46.2653" height="9.0801" rx=".5" ry=".5"/></g></g><g><path class="cls-1" d="m40.643,222.7524l-1.6831,15.0354,10.8799-9.5995,5.3393,8.7056-14.4395,5.7339,14.3428,5.8386-5.2427,8.6089-10.8799-9.6961,1.6831,15.1321h-9.4948l1.6791-15.0354-10.7793,9.5995-5.2427-8.6089,14.2422-5.9352-14.3428-5.6373,5.3433-8.8988,10.6826,9.7927-1.5825-15.0354h9.4948Z"/><rect class="cls-1" x="12.8093" y="276.9052" width="46.2653" height="9.0801" rx=".5" ry=".5"/><path class="cls-1" d="m109.6086,222.7524l-1.6831,15.0354,10.8799-9.5995,5.3393,8.7056-14.4395,5.7339,14.3428,5.8386-5.2427,8.6089-10.8799-9.6961,1.6831,15.1321h-9.4948l1.6791-15.0354-10.7793,9.5995-5.2427-8.6089,14.2422-5.9352-14.3428-5.6373,5.3433-8.8988,10.6826,9.7927-1.5825-15.0354h9.4948Z"/><rect class="cls-1" x="81.7748" y="276.9052" width="46.2653" height="9.0801" rx=".5" ry=".5"/><rect class="cls-1" x="150.7404" y="276.9052" width="46.2653" height="9.0801" rx=".5" ry=".5"/></g></g></svg>