<?xml version="1.0" encoding="UTF-8"?><svg id="Layer_1" xmlns="http://www.w3.org/2000/svg" viewBox="0 0 274.5962 261.701"><defs><style>.cls-1{stroke-width:16px;}.cls-1,.cls-2,.cls-3{fill:none;stroke:#fff;}.cls-4{fill:#4a9cd5;}.cls-2{stroke-width:10px;}.cls-3{stroke-width:9px;}</style></defs><g><path class="cls-4" d="m106.6109,26.5098c-.9591-3.8083-1.4607-7.9839-.7323-12.2164.5614-3.262,1.8293-6.0563,5.3512-7.2415.3334-.1122.63-.4227.8676-.7034,5.0114-5.9206,11.5469-7.6447,18.7192-5.404,7.5509,2.3591,13.1341,7.3766,14.8375,15.2692.7321,3.3923.0386,7.0815-.0099,10.843,1.5874.2985,2.0996,1.8126,1.7903,3.5752-.6362,3.6245-.8539,7.4197-3.9996,10.1443-.5491.4756-.6538,1.4686-.9158,2.2385-2.4088,7.0783-6.9147,11.999-14.6088,13.5278-3.3003.6558-6.38-.2387-9.2416-1.837-4.9347-2.7562-7.9711-6.9634-9.6069-12.2478-.2411-.7787-.8161-1.4708-1.2969-2.1626-2.4267-3.4916-3.7011-7.3224-3.217-11.5519.0805-.7031,1.1616-1.2957,2.063-2.2334Z"/><path class="cls-4" d="m111.2747,54.6317c2.8936,8.9683,5.7371,17.7816,8.6126,26.6936,3.3748-1.2223,6.6405-2.405,10.1241-3.6668.4992,1.2648.9724,2.464,1.4457,3.6632.1511.0282.3022.0563.4533.0845,2.8558-8.8264,5.7116-17.6528,8.6283-26.6675,1.976,1.0958,3.7765,2.2841,5.7289,3.1366,3.8006,1.6593,7.5802,3.5112,11.5638,4.5822,4.9143,1.3212,8.2795,3.8194,8.8066,10.4884.3195,4.0418-.374,8.1591-.5818,12.244-.0716,1.4064-1.0952,1.1343-1.9499,1.1353-8.409.0097-16.8181.0092-25.2271.0083-16.9465-.0019-33.893-.0058-50.8395-.0089-.6316-.0001-1.2631,0-2.0961,0-.6422-5.6245-1.7607-11.0941-.1456-16.5891,1.0554-3.5905,3.374-5.9397,7.18-6.9136,6.5004-1.6633,12.4845-4.5216,18.2968-8.1903Z"/><path class="cls-4" d="m123.7687,73.5237c-.3494-.994-.6128-1.8827-.9707-2.733-.7525-1.7875-1.7591-3.4991-2.2804-5.3457-.5527-1.9582.4548-3.4283,2.3861-4.1541.5345-.2009,1.1012-.3696,1.6669-.4309,2.292-.2484,4.6473-.2308,6.1618,1.7359,1.4159,1.8385.4566,3.818-.2706,5.7325-1.1986,3.1555-3.551,4.7747-6.693,5.1953Z"/><path class="cls-4" d="m121.0493,79.226c2.7971-1.0123,5.5942-2.0246,8.3913-3.0368.079.2011.158.4022.2369.6032-2.8026,1.024-5.6053,2.0479-8.4079,3.0719-.0735-.2128-.1469-.4255-.2204-.6383Z"/><path class="cls-4" d="m121.7233,77.2226c2.362-.8538,4.7239-1.7075,7.0859-2.5613.0892.2294.1784.4588.2676.6883-2.3649.8487-4.7298,1.6975-7.0947,2.5462-.0863-.2244-.1725-.4488-.2588-.6732Z"/><path class="cls-4" d="m128.5953,73.7289c-1.9496.7168-3.8991,1.4337-5.8487,2.1505-.0945-.2426-.189-.4852-.2834-.7277,1.9477-.7228,3.8954-1.4457,5.8431-2.1685.0964.2486.1927.4972.2891.7457Z"/></g><g><path class="cls-3" d="m61.1001,156.3868c-3.6993-10.799-7.3976-21.5984-11.0988-32.3968-.8582-2.5039-1.8444-4.971-2.5634-7.5139-1.2249-4.3318-2.2848-8.7102-3.5689-13.6671-6.1656-.0668-13.0278.1742-19.5901,2.7166,1.1177-5.3079,2.7525-10.4923,3.1984-15.7771.7179-8.5079.9552-17.0865.8279-25.6267-.1202-8.057-.8372-16.0957,1.1537-24.0361,3.8048-15.1747,18.4314-25.097,33.3185-22.4295,2.3464.4204,4.8449,1.2068,6.7539,2.5577,2.606,1.8441,5.2116,2.725,8.3783,2.9735,6.6523.5222,11.0786,4.488,13.8076,10.3301,4.3547,9.3223,4.6207,19.2556,3.9461,29.2791-.4548,6.7566-1.101,13.4412,1.1713,20.1204,1.6611,4.8828,4.4362,8.5548,9.105,11.2784-4.0214,3.3338-8.1697,5.8075-13.2244,6.5702-4.7758.7207-9.5417,1.5071-13.9803,2.2119-2.2168,14.6517-8.7156,27.9908-12.9707,42.0013-1.1811,3.8888-2.5826,7.7106-3.277,11.875.6753-.7621,1.3783-1.5017,2.0215-2.2901,5.025-6.1592,10.1195-12.2644,15.0119-18.5274,1.7302-2.215,3.4123-3.2325,6.395-2.8026,5.0645.73,5.504-.0227,3.8803-4.8526-1.08-3.2125-2.2233-6.4057-3.2026-9.6484-.2356-.7801.0669-1.7228.1219-2.5907.7855.0724,1.6762-.0719,2.3402.2505,7.0505,3.4229,14.1194,6.8154,21.0709,10.4322,4.8511,2.524,8.0478,6.6543,9.2351,11.9656,1.385,6.1963,2.2897,12.4989,3.4618,18.7443.4839,2.5785-.3232,3.7217-3.0966,3.7185-38.7987-.0447-77.5975-.0456-116.3962-.0004-2.6892.0031-3.7044-.9837-3.2094-3.6311,1.1679-6.2456,2.1065-12.5403,3.4813-18.739,1.2348-5.5675,4.638-9.7346,9.7241-12.3324,6.7898-3.4679,13.6494-6.8005,20.5145-10.1176.7506-.3627,1.7352-.2413,2.6112-.3445.0453.892.3456,1.8651.0923,2.6623-1.1859,3.7326-2.5645,7.4034-3.7952,11.1225-.9569,2.8918-.2542,4.0959,2.7015,3.44,4.5518-1.0102,6.9467,1.1356,9.4185,4.4217,4.3293,5.7554,9.0269,11.234,13.5818,16.8191.6476.7941,1.3598,1.5355,2.0421,2.3013.2023-.1561.4046-.3122.6069-.4683Zm28.1682-.0405c2.5423,0,5.1003.1596,7.6183-.0879.8632-.0849,1.6262-1.1888,2.435-1.8271-.7909-.6681-1.5613-1.8841-2.376-1.9145-4.866-.1814-9.7464-.194-14.6109.006-.8933.0367-1.7358,1.3089-2.6017,2.0108.848.6063,1.6498,1.6377,2.5529,1.7356,2.3034.2499,4.6519.0832,6.9823.077Z"/><path class="cls-4" d="m61.1001,156.3868c-3.6993-10.799-7.3976-21.5984-11.0988-32.3968-.8582-2.5039-1.8444-4.971-2.5634-7.5139-1.2249-4.3318-2.2848-8.7102-3.5689-13.6671-6.1656-.0668-13.0278.1742-19.5901,2.7166,1.1177-5.3079,2.7525-10.4923,3.1984-15.7771.7179-8.5079.9552-17.0865.8279-25.6267-.1202-8.057-.8372-16.0957,1.1537-24.0361,3.8048-15.1747,18.4314-25.097,33.3185-22.4295,2.3464.4204,4.8449,1.2068,6.7539,2.5577,2.606,1.8441,5.2116,2.725,8.3783,2.9735,6.6523.5222,11.0786,4.488,13.8076,10.3301,4.3547,9.3223,4.6207,19.2556,3.9461,29.2791-.4548,6.7566-1.101,13.4412,1.1713,20.1204,1.6611,4.8828,4.4362,8.5548,9.105,11.2784-4.0214,3.3338-8.1697,5.8075-13.2244,6.5702-4.7758.7207-9.5417,1.5071-13.9803,2.2119-2.2168,14.6517-8.7156,27.9908-12.9707,42.0013-1.1811,3.8888-2.5826,7.7106-3.277,11.875.6753-.7621,1.3783-1.5017,2.0215-2.2901,5.025-6.1592,10.1195-12.2644,15.0119-18.5274,1.7302-2.215,3.4123-3.2325,6.395-2.8026,5.0645.73,5.504-.0227,3.8803-4.8526-1.08-3.2125-2.2233-6.4057-3.2026-9.6484-.2356-.7801.0669-1.7228.1219-2.5907.7855.0724,1.6762-.0719,2.3402.2505,7.0505,3.4229,14.1194,6.8154,21.0709,10.4322,4.8511,2.524,8.0478,6.6543,9.2351,11.9656,1.385,6.1963,2.2897,12.4989,3.4618,18.7443.4839,2.5785-.3232,3.7217-3.0966,3.7185-38.7987-.0447-77.5975-.0456-116.3962-.0004-2.6892.0031-3.7044-.9837-3.2094-3.6311,1.1679-6.2456,2.1065-12.5403,3.4813-18.739,1.2348-5.5675,4.638-9.7346,9.7241-12.3324,6.7898-3.4679,13.6494-6.8005,20.5145-10.1176.7506-.3627,1.7352-.2413,2.6112-.3445.0453.892.3456,1.8651.0923,2.6623-1.1859,3.7326-2.5645,7.4034-3.7952,11.1225-.9569,2.8918-.2542,4.0959,2.7015,3.44,4.5518-1.0102,6.9467,1.1356,9.4185,4.4217,4.3293,5.7554,9.0269,11.234,13.5818,16.8191.6476.7941,1.3598,1.5355,2.0421,2.3013.2023-.1561.4046-.3122.6069-.4683Zm28.1682-.0405c2.5423,0,5.1003.1596,7.6183-.0879.8632-.0849,1.6262-1.1888,2.435-1.8271-.7909-.6681-1.5613-1.8841-2.376-1.9145-4.866-.1814-9.7464-.194-14.6109.006-.8933.0367-1.7358,1.3089-2.6017,2.0108.848.6063,1.6498,1.6377,2.5529,1.7356,2.3034.2499,4.6519.0832,6.9823.077Z"/></g><g><g><path class="cls-2" d="m145.8393,110.2212c-2.0544-8.303-3.1288-17.407-1.5685-26.6347,1.2025-7.1119,3.9185-13.2042,11.4624-15.7884.7141-.2446,1.3495-.9216,1.8583-1.5335,10.7345-12.9083,24.7338-16.6674,40.0971-11.782,16.1744,5.1433,28.1336,16.0828,31.7823,33.2906,1.5682,7.396.0826,15.4395-.0213,23.6405,3.4003.6508,4.4975,3.9519,3.8348,7.7949-1.3627,7.9022-1.8291,16.1769-8.5673,22.117-1.1762,1.0369-1.4004,3.202-1.9616,4.8804-5.1597,15.4324-14.8115,26.1608-31.2924,29.494-7.0693,1.4298-13.6661-.5205-19.7957-4.0052-10.5703-6.0092-17.0744-15.1818-20.5783-26.7032-.5164-1.6979-1.7481-3.2068-2.778-4.715-5.198-7.6125-7.9279-15.9646-6.8908-25.1861.1724-1.533,2.4882-2.825,4.4189-4.8693Z"/><path class="cls-2" d="m155.8292,171.5338c6.1981,19.5531,12.2891,38.7683,18.4483,58.1988,7.2289-2.6649,14.2241-5.2436,21.6862-7.9945,1.0692,2.7577,2.0829,5.3721,3.0967,7.9866.3236.0614.6473.1228.9709.1841,6.1172-19.2438,12.2344-38.4875,18.4821-58.1417,4.2327,2.3891,8.0893,4.98,12.2714,6.8385,8.1409,3.6176,16.237,7.6553,24.77,9.9904,10.5265,2.8805,17.735,8.3273,18.864,22.8674.6843,8.8122-.8011,17.7888-1.2463,26.6949-.1533,3.0662-2.346,2.473-4.1768,2.4752-18.0124.0212-36.0248.0201-54.0373.018-36.2999-.0041-72.5998-.0127-108.8996-.0194-1.3528-.0002-2.7057,0-4.4899,0-1.3755-12.2629-3.7715-24.1879-.3118-36.1683,2.2606-7.8281,7.2272-12.95,15.3797-15.0733,13.924-3.6265,26.7422-9.8583,39.1924-17.8569Z"/><path class="cls-2" d="m182.5918,212.723c-.7484-2.1672-1.3127-4.1047-2.0794-5.9585-1.6118-3.8972-3.7681-7.6289-4.8846-11.655-1.184-4.2693.9742-7.4745,5.111-9.0569,1.1449-.438,2.3588-.8058,3.5705-.9395,4.9096-.5415,9.9547-.5032,13.1988,3.7846,3.0328,4.0084.978,8.3242-.5797,12.4983-2.5674,6.8797-7.6064,10.41-14.3366,11.327Z"/><path class="cls-2" d="m176.7667,225.1555c5.9915-2.207,11.983-4.414,17.9745-6.6211.1692.4384.3384.8768.5075,1.3152-6.0033,2.2325-12.0067,4.465-18.01,6.6975-.1573-.4639-.3147-.9278-.472-1.3916Z"/><path class="cls-2" d="m178.2103,220.7875c5.0594-1.8614,10.1188-3.7229,15.1783-5.5843.1911.5002.3821,1.0004.5732,1.5006-5.0657,1.8505-10.1313,3.7009-15.197,5.5514-.1848-.4893-.3696-.9785-.5544-1.4678Z"/><path class="cls-2" d="m192.9305,213.1704c-4.176,1.5629-8.352,3.1258-12.5281,4.6886-.2024-.5289-.4048-1.0578-.6072-1.5867,4.172-1.576,8.344-3.1519,12.516-4.7279.2064.542.4128,1.0839.6192,1.6259Z"/></g><g><path class="cls-4" d="m145.8393,110.2212c-2.0544-8.303-3.1288-17.407-1.5685-26.6347,1.2025-7.1119,3.9185-13.2042,11.4624-15.7884.7141-.2446,1.3495-.9216,1.8583-1.5335,10.7345-12.9083,24.7338-16.6674,40.0971-11.782,16.1744,5.1433,28.1336,16.0828,31.7823,33.2906,1.5682,7.396.0826,15.4395-.0213,23.6405,3.4003.6508,4.4975,3.9519,3.8348,7.7949-1.3627,7.9022-1.8291,16.1769-8.5673,22.117-1.1762,1.0369-1.4004,3.202-1.9616,4.8804-5.1597,15.4324-14.8115,26.1608-31.2924,29.494-7.0693,1.4298-13.6661-.5205-19.7957-4.0052-10.5703-6.0092-17.0744-15.1818-20.5783-26.7032-.5164-1.6979-1.7481-3.2068-2.778-4.715-5.198-7.6125-7.9279-15.9646-6.8908-25.1861.1724-1.533,2.4882-2.825,4.4189-4.8693Z"/><path class="cls-4" d="m155.8292,171.5338c6.1981,19.5531,12.2891,38.7683,18.4483,58.1988,7.2289-2.6649,14.2241-5.2436,21.6862-7.9945,1.0692,2.7577,2.0829,5.3721,3.0967,7.9866.3236.0614.6473.1228.9709.1841,6.1172-19.2438,12.2344-38.4875,18.4821-58.1417,4.2327,2.3891,8.0893,4.98,12.2714,6.8385,8.1409,3.6176,16.237,7.6553,24.77,9.9904,10.5265,2.8805,17.735,8.3273,18.864,22.8674.6843,8.8122-.8011,17.7888-1.2463,26.6949-.1533,3.0662-2.346,2.473-4.1768,2.4752-18.0124.0212-36.0248.0201-54.0373.018-36.2999-.0041-72.5998-.0127-108.8996-.0194-1.3528-.0002-2.7057,0-4.4899,0-1.3755-12.2629-3.7715-24.1879-.3118-36.1683,2.2606-7.8281,7.2272-12.95,15.3797-15.0733,13.924-3.6265,26.7422-9.8583,39.1924-17.8569Z"/><path class="cls-4" d="m182.5918,212.723c-.7484-2.1672-1.3127-4.1047-2.0794-5.9585-1.6118-3.8972-3.7681-7.6289-4.8846-11.655-1.184-4.2693.9742-7.4745,5.111-9.0569,1.1449-.438,2.3588-.8058,3.5705-.9395,4.9096-.5415,9.9547-.5032,13.1988,3.7846,3.0328,4.0084.978,8.3242-.5797,12.4983-2.5674,6.8797-7.6064,10.41-14.3366,11.327Z"/><path class="cls-4" d="m176.7667,225.1555c5.9915-2.207,11.983-4.414,17.9745-6.6211.1692.4384.3384.8768.5075,1.3152-6.0033,2.2325-12.0067,4.465-18.01,6.6975-.1573-.4639-.3147-.9278-.472-1.3916Z"/><path class="cls-4" d="m178.2103,220.7875c5.0594-1.8614,10.1188-3.7229,15.1783-5.5843.1911.5002.3821,1.0004.5732,1.5006-5.0657,1.8505-10.1313,3.7009-15.197,5.5514-.1848-.4893-.3696-.9785-.5544-1.4678Z"/><path class="cls-4" d="m192.9305,213.1704c-4.176,1.5629-8.352,3.1258-12.5281,4.6886-.2024-.5289-.4048-1.0578-.6072-1.5867,4.172-1.576,8.344-3.1519,12.516-4.7279.2064.542.4128,1.0839.6192,1.6259Z"/></g></g><g><path class="cls-1" d="m27.089,170.7079c18.9858-18.9858,49.7679-18.9858,68.7537,0,18.9858,18.9858,18.9858,49.7679,0,68.7537-18.9858,18.9858-49.7679,18.9858-68.7537,0-18.9858-18.9858-18.9858-49.7679,0-68.7537Zm41.6828,41.0746c4.4601-.0005,8.9217-.069,13.3797.028,2.3387.0509,3.9921-1.5682,3.8725-3.9082-.1023-2.0018-.0215-4.013-.021-6.0201.0005-2.0596-1.4442-3.4904-3.519-3.4898-4.571.0013-9.142.0007-13.713-.0004-.1962,0-.3923-.0134-.6927-.0243.0321-.2439.0776-.4287.0778-.6136.004-4.5716.0022-9.1432.0038-13.7148.0007-2.0345-1.4403-3.4895-3.4629-3.4899-2.0628-.0004-4.1256-.0006-6.1884.0002-2.4068.0009-3.7375,1.3208-3.7383,3.7125-.0014,4.4973,0,8.9945-.0009,13.4918,0,.1991-.0112.3983-.0222.7607-.2358-.045-.437-.1165-.6383-.1168-4.5344-.0063-9.0689-.0085-13.6033-.0031-2.2072.0026-3.5723,1.3779-3.5773,3.592-.0048,2.1185-.0035,4.2371-.0012,6.3556.0021,1.984,1.4707,3.441,3.4611,3.4407,4.5902-.0005,9.1804-.0006,13.7706.0005.1958,0,.3916.0141.6894.0256-.0303.282-.0747.5039-.0749.7259-.0042,4.553-.0044,9.106-.0032,13.6591.0005,1.9525,1.4686,3.4285,3.4145,3.4313,2.1.0031,4.1999.0013,6.2999-.0005,2.3249-.002,3.673-1.3443,3.6741-3.6639.0022-4.4973.0016-8.9945-.0023-13.4918-.0002-.2035-.0438-.4069-.0741-.6712.3233-.0075.5066-.0155.6898-.0155Z"/><path class="cls-4" d="m27.089,170.7079c18.9858-18.9858,49.7679-18.9858,68.7537,0,18.9858,18.9858,18.9858,49.7679,0,68.7537-18.9858,18.9858-49.7679,18.9858-68.7537,0-18.9858-18.9858-18.9858-49.7679,0-68.7537Zm41.6828,41.0746c4.4601-.0005,8.9217-.069,13.3797.028,2.3387.0509,3.9921-1.5682,3.8725-3.9082-.1023-2.0018-.0215-4.013-.021-6.0201.0005-2.0596-1.4442-3.4904-3.519-3.4898-4.571.0013-9.142.0007-13.713-.0004-.1962,0-.3923-.0134-.6927-.0243.0321-.2439.0776-.4287.0778-.6136.004-4.5716.0022-9.1432.0038-13.7148.0007-2.0345-1.4403-3.4895-3.4629-3.4899-2.0628-.0004-4.1256-.0006-6.1884.0002-2.4068.0009-3.7375,1.3208-3.7383,3.7125-.0014,4.4973,0,8.9945-.0009,13.4918,0,.1991-.0112.3983-.0222.7607-.2358-.045-.437-.1165-.6383-.1168-4.5344-.0063-9.0689-.0085-13.6033-.0031-2.2072.0026-3.5723,1.3779-3.5773,3.592-.0048,2.1185-.0035,4.2371-.0012,6.3556.0021,1.984,1.4707,3.441,3.4611,3.4407,4.5902-.0005,9.1804-.0006,13.7706.0005.1958,0,.3916.0141.6894.0256-.0303.282-.0747.5039-.0749.7259-.0042,4.553-.0044,9.106-.0032,13.6591.0005,1.9525,1.4686,3.4285,3.4145,3.4313,2.1.0031,4.1999.0013,6.2999-.0005,2.3249-.002,3.673-1.3443,3.6741-3.6639.0022-4.4973.0016-8.9945-.0023-13.4918-.0002-.2035-.0438-.4069-.0741-.6712.3233-.0075.5066-.0155.6898-.0155Z"/></g></svg>