<?xml version="1.0" encoding="UTF-8"?><svg id="Layer_1" xmlns="http://www.w3.org/2000/svg" xmlns:xlink="http://www.w3.org/1999/xlink" viewBox="0 0 287.3155 272.6187"><defs><style>.cls-1,.cls-2{fill:none;}.cls-3{clip-path:url(#clippath);}.cls-4{fill:#fff;}.cls-5{fill:#9cdbf7;}.cls-6{fill:#4a9cd5;}.cls-2{stroke:#fff;stroke-miterlimit:10;stroke-width:10px;}</style><clipPath id="clippath"><rect class="cls-1" width="161.986" height="257.9776"/></clipPath></defs><g class="cls-3"><g><path class="cls-6" d="m54.3922,93.6387c-2.2438-9.0686-3.4173-19.0121-1.7131-29.0908,1.3134-7.7677,4.2798-14.4218,12.5194-17.2443.78-.2672,1.4739-1.0066,2.0297-1.6749,11.7244-14.0986,27.0145-18.2044,43.7946-12.8684,17.6659,5.6176,30.7279,17.5658,34.7131,36.3604,1.7129,8.078.0902,16.8632-.0233,25.8204,3.7139.7108,4.9122,4.3163,4.1884,8.5137-1.4883,8.6309-1.9978,17.6686-9.3573,24.1565-1.2846,1.1325-1.5296,3.4973-2.1425,5.3304-5.6355,16.8555-16.1773,28.5732-34.178,32.2138-7.7212,1.5616-14.9263-.5685-21.6211-4.3745-11.545-6.5633-18.6489-16.5818-22.476-29.1656-.564-1.8544-1.9093-3.5025-3.0341-5.1498-5.6774-8.3144-8.659-17.4368-7.5262-27.5086.1883-1.6744,2.7176-3.0854,4.8264-5.3183Z"/><path class="cls-6" d="m65.3033,160.6052c6.7696,21.3561,13.4223,42.3432,20.1495,63.5655,7.8955-2.9106,15.5357-5.7271,23.6859-8.7317,1.1678,3.012,2.275,5.8675,3.3822,8.7231.3535.067.7069.1341,1.0604.2011,6.6813-21.0183,13.3626-42.0366,20.1864-63.5031,4.623,2.6094,8.8353,5.4392,13.403,7.4691,8.8916,3.9512,17.7343,8.3613,27.0541,10.9117,11.4972,3.1462,19.3704,9.0952,20.6035,24.9761.7474,9.6248-.875,19.4292-1.3612,29.1565-.1674,3.349-2.5623,2.7011-4.562,2.7035-19.6734.0231-39.3468.0219-59.0202.0197-39.6472-.0045-79.2944-.0138-118.9417-.0212-1.4776-.0002-2.9552,0-4.9039,0-1.5024-13.3937-4.1193-26.4184-.3406-39.5035,2.4691-8.55,7.8936-14.1441,16.7979-16.4632,15.2079-3.9609,29.2082-10.7673,42.8065-19.5035Z"/><path class="cls-6" d="m94.5337,205.5926c-.8174-2.3671-1.4337-4.4832-2.2711-6.508-1.7604-4.2566-4.1156-8.3324-5.3351-12.7297-1.2932-4.663,1.0641-8.1637,5.5823-9.8921,1.2505-.4784,2.5764-.8802,3.8998-1.0261,5.3623-.5915,10.8727-.5495,14.4159,4.1336,3.3125,4.378,1.0682,9.0918-.6332,13.6508-2.8042,7.5141-8.3078,11.3699-15.6587,12.3715Z"/><path class="cls-6" d="m88.1715,219.1715c6.544-2.4106,13.088-4.8211,19.632-7.2316.1848.4788.3696.9577.5544,1.4365-6.5569,2.4384-13.1138,4.8768-19.6708,7.3151-.1719-.5066-.3437-1.0133-.5156-1.52Z"/><path class="cls-6" d="m89.7483,214.4007c5.526-2.0331,11.0519-4.0662,16.5779-6.0992.2087.5463.4173,1.0927.626,1.639-5.5328,2.0211-11.0656,4.0422-16.5984,6.0634-.2018-.5344-.4037-1.0687-.6055-1.6031Z"/><path class="cls-6" d="m105.8259,206.0813c-4.5611,1.707-9.1222,3.414-13.6833,5.121-.221-.5776-.4421-1.1553-.6631-1.733,4.5567-1.7213,9.1134-3.4426,13.6702-5.1639.2254.592.4509,1.1839.6763,1.7758Z"/></g></g><rect class="cls-4" x="218.072" y="126.6161" width="24.4839" height="9.8952" transform="translate(460.6279 263.1274) rotate(180)"/><rect class="cls-4" x="152.2717" y="126.6161" width="54.2143" height="9.8952" transform="translate(358.7576 263.1274) rotate(180)"/><rect class="cls-4" x="161.986" y="141.0946" width="61.5512" height="9.8952" transform="translate(385.5231 292.0843) rotate(180)"/><rect class="cls-6" x="216.7057" y="175.6843" width="26.9432" height="9.8952" transform="translate(460.3547 361.2637) rotate(180)"/><rect class="cls-6" x="249.0729" y="217.1454" width="38.2426" height="4.9476" transform="translate(536.3883 439.2384) rotate(180)"/><rect class="cls-6" x="249.0729" y="225.0428" width="38.2426" height="4.9476" transform="translate(536.3883 455.0331) rotate(180)"/><rect class="cls-6" x="237.7645" y="246.7942" width="39.3585" height="4.9476" transform="translate(514.8875 498.536) rotate(180)"/><rect class="cls-6" x="247.957" y="257.324" width="39.3585" height="4.9476" transform="translate(535.2725 519.5956) rotate(180)"/><rect class="cls-6" x="203.858" y="257.324" width="39.3585" height="4.9476" transform="translate(447.0744 519.5956) rotate(180)"/><rect class="cls-6" x="247.957" y="267.6711" width="39.3585" height="4.9476" transform="translate(535.2725 540.2899) rotate(180)"/><rect class="cls-6" x="221.4604" y="267.6711" width="21.756" height="4.9476" transform="translate(464.6768 540.2899) rotate(180)"/><rect class="cls-6" x="221.8976" y="234.1467" width="39.0758" height="4.9476" transform="translate(482.8711 473.2409) rotate(180)"/><rect class="cls-6" x="176.5659" y="234.1467" width="39.0758" height="4.9476" transform="translate(392.2077 473.2409) rotate(180)"/><rect class="cls-6" x="202.6838" y="225.0428" width="39.3802" height="4.9476" transform="translate(444.7478 455.0331) rotate(180)"/><rect class="cls-6" x="168.6705" y="191.0402" width="54.8667" height="9.8952" transform="translate(392.2077 391.9757) rotate(180)"/><rect class="cls-5" x="179.3788" y="206.3962" width="44.1584" height="9.8952" transform="translate(402.916 422.6876) rotate(180)"/><rect class="cls-6" x="156.701" y="175.6843" width="49.5322" height="9.8952" transform="translate(362.9341 361.2637) rotate(180)"/><rect class="cls-6" x="154.6127" y="146.0422" width="73.1154" height="21.2112" transform="translate(382.3408 313.2956) rotate(180)"/><rect class="cls-6" x="180.1481" y="116.4001" width="73.1154" height="21.2112" transform="translate(433.4115 254.0114) rotate(180)"/><g><g><path class="cls-2" d="m212.3977,227.2423c35.8757-4.6032,61.0213-37.3247,56.4096-73.4048-4.5739-35.7852-37.3383-61.1211-73.1256-56.4487-36.3145,4.7412-61.3427,38.1511-56.1614,74.2939,5.0575,35.2792,37.3434,60.1805,72.8774,55.5597Zm-56.2039-58.7349c-3.5093-26.0022,15.1208-50.6728,40.8952-54.1547,26.6867-3.6052,51.2307,14.7118,54.801,40.8974,3.6931,27.0868-14.5319,51.3592-41.3006,55.0049-26.7013,3.6365-50.7628-14.8302-54.3956-41.7476Z"/><path class="cls-2" d="m172.5439,226.0342c-8.5245-4.2274-15.7682-9.9356-22.0451-17.0847-.435.4468-.7738.7334-1.0397,1.077-7.7747,10.0459-15.5877,20.0624-23.2951,30.1601-5.469,7.1651-3.9957,16.4402,3.215,21.1407,5.7258,3.7326,13.7354,2.9435,18.0044-2.3873,8.4706-10.5774,16.6168-21.4165,24.8903-32.1527.1093-.1418.1303-.3522.2701-.7532Z"/></g><g><path class="cls-4" d="m212.3977,227.2423c35.8757-4.6032,61.0213-37.3247,56.4096-73.4048-4.5739-35.7852-37.3383-61.1211-73.1256-56.4487-36.3145,4.7412-61.3427,38.1511-56.1614,74.2939,5.0575,35.2792,37.3434,60.1805,72.8774,55.5597Zm-56.2039-58.7349c-3.5093-26.0022,15.1208-50.6728,40.8952-54.1547,26.6867-3.6052,51.2307,14.7118,54.801,40.8974,3.6931,27.0868-14.5319,51.3592-41.3006,55.0049-26.7013,3.6365-50.7628-14.8302-54.3956-41.7476Z"/><path class="cls-4" d="m172.5439,226.0342c-8.5245-4.2274-15.7682-9.9356-22.0451-17.0847-.435.4468-.7738.7334-1.0397,1.077-7.7747,10.0459-15.5877,20.0624-23.2951,30.1601-5.469,7.1651-3.9957,16.4402,3.215,21.1407,5.7258,3.7326,13.7354,2.9435,18.0044-2.3873,8.4706-10.5774,16.6168-21.4165,24.8903-32.1527.1093-.1418.1303-.3522.2701-.7532Z"/></g><g><path class="cls-6" d="m212.3977,227.2423c35.8757-4.6032,61.0213-37.3247,56.4096-73.4048-4.5739-35.7852-37.3383-61.1211-73.1256-56.4487-36.3145,4.7412-61.3427,38.1511-56.1614,74.2939,5.0575,35.2792,37.3434,60.1805,72.8774,55.5597Zm-56.2039-58.7349c-3.5093-26.0022,15.1208-50.6728,40.8952-54.1547,26.6867-3.6052,51.2307,14.7118,54.801,40.8974,3.6931,27.0868-14.5319,51.3592-41.3006,55.0049-26.7013,3.6365-50.7628-14.8302-54.3956-41.7476Z"/><path class="cls-6" d="m172.5439,226.0342c-8.5245-4.2274-15.7682-9.9356-22.0451-17.0847-.435.4468-.7738.7334-1.0397,1.077-7.7747,10.0459-15.5877,20.0624-23.2951,30.1601-5.469,7.1651-3.9957,16.4402,3.215,21.1407,5.7258,3.7326,13.7354,2.9435,18.0044-2.3873,8.4706-10.5774,16.6168-21.4165,24.8903-32.1527.1093-.1418.1303-.3522.2701-.7532Z"/></g></g></svg>