<?xml version="1.0" encoding="UTF-8"?><svg id="Layer_1" xmlns="http://www.w3.org/2000/svg" viewBox="0 0 289.0903 263.8072"><defs><style>.cls-1{fill:#4a9cd5;}.cls-2{fill:none;stroke:#fff;stroke-miterlimit:10;stroke-width:11px;}.cls-3{opacity:.3;}</style></defs><g><rect class="cls-1" y="112.7689" width="193.8394" height="31.696" rx="10" ry="10"/><rect class="cls-1" y="205.6476" width="113.2702" height="31.696" rx="10" ry="10"/><rect class="cls-1" y="26.4636" width="138.6037" height="31.696" rx="10" ry="10"/></g><g class="cls-3"><rect class="cls-1" x="173.4889" y="112.7689" width="115.6014" height="31.696" rx="10" ry="10"/><rect class="cls-1" x="91.4127" y="205.6476" width="197.6776" height="31.696" rx="10" ry="10"/><rect class="cls-1" x="108.5481" y="26.4636" width="180.5422" height="31.696" rx="10" ry="10"/></g><g><path class="cls-2" d="m189.0979,157.3864c-8.6448,0-17.2899.0374-25.9345-.011-7.9577-.0446-11.4188-6.1377-7.3682-12.9654,8.5692-14.4443,17.1604-28.8756,25.7777-43.2912,3.9388-6.5891,10.9483-6.5907,14.9062-.0032,8.6497,14.3964,17.2765,28.8067,25.8734,43.2348,4.0568,6.8085.5844,12.9805-7.3201,13.025-8.6446.0486-17.2896.0111-25.9345.0111Zm-4.4263-41.2543c.4804,5.6339.9068,10.5449,1.3141,15.4575.1497,1.8053.9504,3.443,2.8152,3.2158,1.1466-.1397,2.9238-1.5437,3.0506-2.5519.7445-5.9177,1.1922-11.8804,1.5099-17.8401.1211-2.2723-1.3992-3.6736-3.6689-3.9744-2.2412-.2971-3.9756.65-4.7384,2.7648-.3999,1.1087-.2429,2.4181-.2824,2.9284Zm9.1659,27.3895c.0752-2.502-2.0668-4.7771-4.6078-4.8943-2.5335-.1169-4.8133,1.9528-4.963,4.5054-.1576,2.6871,1.9949,4.9687,4.7137,4.9961,2.5798.026,4.7807-2.0615,4.8572-4.6072Z"/><path class="cls-1" d="m189.0979,157.3864c-8.6448,0-17.2899.0374-25.9345-.011-7.9577-.0446-11.4188-6.1377-7.3682-12.9654,8.5692-14.4443,17.1604-28.8756,25.7777-43.2912,3.9388-6.5891,10.9483-6.5907,14.9062-.0032,8.6497,14.3964,17.2765,28.8067,25.8734,43.2348,4.0568,6.8085.5844,12.9805-7.3201,13.025-8.6446.0486-17.2896.0111-25.9345.0111Zm-4.4263-41.2543c.4804,5.6339.9068,10.5449,1.3141,15.4575.1497,1.8053.9504,3.443,2.8152,3.2158,1.1466-.1397,2.9238-1.5437,3.0506-2.5519.7445-5.9177,1.1922-11.8804,1.5099-17.8401.1211-2.2723-1.3992-3.6736-3.6689-3.9744-2.2412-.2971-3.9756.65-4.7384,2.7648-.3999,1.1087-.2429,2.4181-.2824,2.9284Zm9.1659,27.3895c.0752-2.502-2.0668-4.7771-4.6078-4.8943-2.5335-.1169-4.8133,1.9528-4.963,4.5054-.1576,2.6871,1.9949,4.9687,4.7137,4.9961,2.5798.026,4.7807-2.0615,4.8572-4.6072Z"/></g><g><path class="cls-2" d="m98.3742,188.3416c19.3205,0,34.9828,15.6623,34.9828,34.9828,0,19.3205-15.6623,34.9828-34.9828,34.9828-19.3205,0-34.9828-15.6623-34.9828-34.9828,0-19.3205,15.6623-34.9828,34.9828-34.9828Zm.3095,42.108c2.2696,2.2691,4.5746,4.5043,6.7935,6.822,1.164,1.2159,2.8291,1.2333,3.959-.0181.9665-1.0706,2.031-2.0528,3.0524-3.0738,1.0482-1.0477,1.0411-2.5108-.0149-3.5662-2.3265-2.3251-4.6519-4.6512-6.9772-6.9776-.0998-.0998-.1928-.2064-.3401-.3648.1404-.1077.2576-.1787.3518-.2726,2.3281-2.324,4.6533-4.651,6.9802-6.9764,1.0355-1.0348,1.0427-2.5084.0137-3.5377-1.0494-1.0498-2.0989-2.0995-3.1488-3.1487-1.225-1.2242-2.5738-1.2296-3.791-.0131-2.289,2.2876-4.5766,4.5765-6.8653,6.8643-.1013.1013-.2084.1969-.3983.3758-.0971-.1429-.1631-.2816-.2653-.3842-2.304-2.3104-4.61-4.6187-6.9199-6.9231-1.1244-1.1217-2.5187-1.1165-3.6478.0075-1.0804,1.0755-2.1577,2.1541-3.2344,3.2332-1.0084,1.0106-1.0025,2.4991.0104,3.5117,2.3358,2.3353,4.6714,4.6708,7.0064,7.0069.0996.0997.1921.2064.3378.3638-.1589.1281-.2944.2184-.4075.3313-2.3188,2.3145-4.6355,4.631-6.9515,6.9483-.9932.9937-.9972,2.4917-.0086,3.4832,1.0669,1.0701,2.1363,2.1377,3.2057,3.2052,1.184,1.1819,2.5529,1.1848,3.7337.0052,2.2894-2.2872,4.5773-4.5758,6.8636-6.866.1035-.1036.1848-.2293.3038-.3792.1683.1607.2656.2499.3589.3431Z"/><path class="cls-1" d="m98.3742,188.3416c19.3205,0,34.9828,15.6623,34.9828,34.9828,0,19.3205-15.6623,34.9828-34.9828,34.9828-19.3205,0-34.9828-15.6623-34.9828-34.9828,0-19.3205,15.6623-34.9828,34.9828-34.9828Zm.3095,42.108c2.2696,2.2691,4.5746,4.5043,6.7935,6.822,1.164,1.2159,2.8291,1.2333,3.959-.0181.9665-1.0706,2.031-2.0528,3.0524-3.0738,1.0482-1.0477,1.0411-2.5108-.0149-3.5662-2.3265-2.3251-4.6519-4.6512-6.9772-6.9776-.0998-.0998-.1928-.2064-.3401-.3648.1404-.1077.2576-.1787.3518-.2726,2.3281-2.324,4.6533-4.651,6.9802-6.9764,1.0355-1.0348,1.0427-2.5084.0137-3.5377-1.0494-1.0498-2.0989-2.0995-3.1488-3.1487-1.225-1.2242-2.5738-1.2296-3.791-.0131-2.289,2.2876-4.5766,4.5765-6.8653,6.8643-.1013.1013-.2084.1969-.3983.3758-.0971-.1429-.1631-.2816-.2653-.3842-2.304-2.3104-4.61-4.6187-6.9199-6.9231-1.1244-1.1217-2.5187-1.1165-3.6478.0075-1.0804,1.0755-2.1577,2.1541-3.2344,3.2332-1.0084,1.0106-1.0025,2.4991.0104,3.5117,2.3358,2.3353,4.6714,4.6708,7.0064,7.0069.0996.0997.1921.2064.3378.3638-.1589.1281-.2944.2184-.4075.3313-2.3188,2.3145-4.6355,4.631-6.9515,6.9483-.9932.9937-.9972,2.4917-.0086,3.4832,1.0669,1.0701,2.1363,2.1377,3.2057,3.2052,1.184,1.1819,2.5529,1.1848,3.7337.0052,2.2894-2.2872,4.5773-4.5758,6.8636-6.866.1035-.1036.1848-.2293.3038-.3792.1683.1607.2656.2499.3589.3431Z"/></g><g><path class="cls-2" d="m168.3398,40.4828c0,19.3205-15.6623,34.9828-34.9828,34.9828s-34.9828-15.6623-34.9828-34.9828S114.0365,5.5,133.357,5.5s34.9828,15.6623,34.9828,34.9828Zm-40.9855,3.4477c-2.4454-2.4486-4.8925-4.8954-7.3398-7.342-1.0337-1.0335-2.4282-1.0503-3.4711-.0241-1.057,1.04-2.1075,2.0869-3.1448,3.1466-1.0368,1.0593-1.0399,2.4195.0133,3.4764,4.1644,4.1788,8.3353,8.3512,12.5151,12.5145,1.0648,1.0606,2.4556,1.0742,3.5169.015,7.9809-7.9653,15.9534-15.9389,23.9193-23.9192.9135-.9152.9885-2.2291.1142-3.1881-1.0998-1.2065-2.2587-2.3667-3.4665-3.4651-1.0714-.9744-2.2978-.8835-3.3091.1266-4.6255,4.6198-9.2469,9.2437-13.8691,13.8668-1.7019,1.7022-3.4018,3.4063-5.1646,5.1716-.1303-.1586-.2129-.2779-.3137-.3789Z"/><path class="cls-1" d="m168.3398,40.4828c0,19.3205-15.6623,34.9828-34.9828,34.9828s-34.9828-15.6623-34.9828-34.9828S114.0365,5.5,133.357,5.5s34.9828,15.6623,34.9828,34.9828Zm-40.9855,3.4477c-2.4454-2.4486-4.8925-4.8954-7.3398-7.342-1.0337-1.0335-2.4282-1.0503-3.4711-.0241-1.057,1.04-2.1075,2.0869-3.1448,3.1466-1.0368,1.0593-1.0399,2.4195.0133,3.4764,4.1644,4.1788,8.3353,8.3512,12.5151,12.5145,1.0648,1.0606,2.4556,1.0742,3.5169.015,7.9809-7.9653,15.9534-15.9389,23.9193-23.9192.9135-.9152.9885-2.2291.1142-3.1881-1.0998-1.2065-2.2587-2.3667-3.4665-3.4651-1.0714-.9744-2.2978-.8835-3.3091.1266-4.6255,4.6198-9.2469,9.2437-13.8691,13.8668-1.7019,1.7022-3.4018,3.4063-5.1646,5.1716-.1303-.1586-.2129-.2779-.3137-.3789Z"/></g></svg>