<?xml version="1.0" encoding="UTF-8"?><svg id="Layer_1" xmlns="http://www.w3.org/2000/svg" viewBox="0 0 270.6884 278.2423"><defs><style>.cls-1{fill:none;stroke:#fff;stroke-miterlimit:10;stroke-width:14px;}.cls-2{fill:#4a9cd5;}</style></defs><path class="cls-2" d="m142.7178,244.7669c-11.5816,6.7238-24.7204,12.6564-39.8311,17.438V19.4311c6.8339,3.3133,17.3026,8.3149,29.7601,14.0443h29.3793c-6.7281-2.9536-13.2277-5.8691-19.3083-8.6407V0l-8.7296,4.3627c-.2158.11-6.7534,3.3683-17.218,8.3614-7.0836,3.381-15.957,7.5532-25.9476,12.1106-25.169,11.4758-57.2479,25.317-84.6765,34.6475l-3.3429,1.134-.6474,3.4698c-.2793,1.4895-23.4129,134.3882,88.6668,194.4713v19.6849l7.659-2.1411c6.398-1.7941,12.4702-3.7914,18.2886-5.9368,9.3643-3.4571,18.0008-7.3459,25.9475-11.607,13.8709-7.4347,25.6556-15.9908,35.6842-25.2705h-18.534c-5.2809,4.0284-10.9596,7.8833-17.1503,11.4801Z"/><path class="cls-2" d="m12.2609,97.2218c0-10.998.2003-22.001-.0793-32.9919-.154-6.053,4.5009-9.5204,10.2473-8.5518,26.5245,4.4713,51.5651-.0548,74.8913-13.4835,3.9261-2.2602,7.1861-2.2567,11.0769.1362,18.9405,11.6486,39.6114,16.5657,61.773,15.047,4.6851-.3211,9.3452-1.1098,13.9943-1.8283,5.0574-.7816,9.1729,2.5364,9.1787,7.6793.024,21.5125.3895,43.0333-.0834,64.5354-.629,28.5959-10.6402,53.9096-28.7174,75.9866-15.8157,19.3151-35.7134,33.2132-58.4504,43.2217-2.0993.9241-4.2048,1.0265-6.3187.0928-29.247-12.9173-53.4943-31.7768-70.0793-59.5404-11.6204-19.4529-17.4697-40.5826-17.4359-63.2917.0134-9.0038.0022-18.0077.003-27.0115Zm13.8947,6.0666c0,7.6746-.0118,15.3493.0024,23.0239.0323,17.419,4.0565,33.8821,12.203,49.2623,14.0894,26.6004,36.1404,44.3781,63.212,56.4765.7153.3196,1.8263.2893,2.5532-.0309,19.0032-8.3732,35.732-19.9265,49.2186-35.8447,16.3376-19.283,25.3849-41.5757,26.0237-66.8775.4818-19.0837.1023-38.1893.0962-57.2852-.0008-2.4995-.7763-3.0936-3.2709-2.6429-25.5413,4.6147-49.4877.4929-71.6772-13.1427-1.1722-.7203-2.1043-.7973-3.3219-.0899-22.3722,12.9973-46.3332,17.3997-71.8707,13.1991-2.4763-.4073-3.165.2053-3.1663,2.77-.0052,10.394-.0022,20.7879-.0021,31.1819Z"/><path class="cls-2" d="m29.9529,73.2787c12.7408,2.0499,25.1828,1.844,37.5758-.4755,12.3742-2.316,24.0108-6.6796,35.1237-13.1121v168.7381c-1.3713-.6178-2.6354-1.152-3.8695-1.7483-20.8442-10.0719-38.5653-23.8971-51.4728-43.3505-11.5572-17.4183-17.4077-36.6159-17.3621-57.5743.0364-16.7383.0057-33.4767.0048-50.2151,0-.7033,0-1.4066,0-2.2624Z"/><g><path class="cls-1" d="m208.0244,139.1211c0,23.0085-18.6521,41.6606-41.6606,41.6606s-41.6606-18.6521-41.6606-41.6606,18.6521-41.6606,41.6606-41.6606,41.6606,18.6521,41.6606,41.6606Zm-49.7803,4.4792c-3.1423-3.1464-6.2868-6.2904-9.4315-9.4344-1.3283-1.328-3.1202-1.3496-4.4603-.031-1.3582,1.3364-2.7082,2.6816-4.041,4.0433-1.3323,1.3611-1.3363,3.1091.017,4.4671,5.3511,5.3697,10.7107,10.7311,16.0817,16.081,1.3682,1.3629,3.1555,1.3803,4.5191.0193,10.2553-10.2353,20.4999-20.4812,30.7358-30.7358,1.1739-1.176,1.2702-2.8643.1468-4.0966-1.4133-1.5504-2.9024-3.0412-4.4544-4.4526-1.3767-1.252-2.9526-1.1353-4.2521.1626-5.9437,5.9363-11.8821,11.878-17.8215,17.8187-2.1869,2.1873-4.3713,4.377-6.6365,6.6454-.1675-.2037-.2735-.3571-.4032-.4869Z"/><path class="cls-2" d="m208.0244,139.1211c0,23.0085-18.6521,41.6606-41.6606,41.6606s-41.6606-18.6521-41.6606-41.6606,18.6521-41.6606,41.6606-41.6606,41.6606,18.6521,41.6606,41.6606Zm-49.7803,4.4792c-3.1423-3.1464-6.2868-6.2904-9.4315-9.4344-1.3283-1.328-3.1202-1.3496-4.4603-.031-1.3582,1.3364-2.7082,2.6816-4.041,4.0433-1.3323,1.3611-1.3363,3.1091.017,4.4671,5.3511,5.3697,10.7107,10.7311,16.0817,16.081,1.3682,1.3629,3.1555,1.3803,4.5191.0193,10.2553-10.2353,20.4999-20.4812,30.7358-30.7358,1.1739-1.176,1.2702-2.8643.1468-4.0966-1.4133-1.5504-2.9024-3.0412-4.4544-4.4526-1.3767-1.252-2.9526-1.1353-4.2521.1626-5.9437,5.9363-11.8821,11.878-17.8215,17.8187-2.1869,2.1873-4.3713,4.377-6.6365,6.6454-.1675-.2037-.2735-.3571-.4032-.4869Z"/></g><polygon class="cls-2" points="246.8918 108.8012 254.2453 123.7011 270.6884 126.0905 258.7901 137.6885 261.5989 154.0651 246.8918 146.3331 232.1846 154.0651 234.9935 137.6885 223.0951 126.0905 239.5382 123.7011 246.8918 108.8012"/><polygon class="cls-2" points="242.3731 56.1016 248.0926 67.6905 260.8816 69.5489 251.6274 78.5695 253.812 91.3069 242.3731 85.2931 230.9343 91.3069 233.1189 78.5695 223.8646 69.5489 236.6537 67.6905 242.3731 56.1016"/><polygon class="cls-2" points="211.5736 14.5849 216.6249 24.8197 227.9197 26.461 219.7467 34.4277 221.6761 45.6769 211.5736 40.3658 201.4712 45.6769 203.4006 34.4277 195.2276 26.461 206.5224 24.8197 211.5736 14.5849"/><polygon class="cls-2" points="211.5736 216.7301 216.6249 226.965 227.9197 228.6062 219.7467 236.573 221.6761 247.8222 211.5736 242.511 201.4712 247.8222 203.4006 236.573 195.2276 228.6062 206.5224 226.965 211.5736 216.7301"/><polygon class="cls-2" points="237.1409 171.9483 242.734 183.2811 255.2405 185.0984 246.1907 193.9198 248.327 206.3757 237.1409 200.4948 225.9548 206.3757 228.0911 193.9198 219.0414 185.0984 231.5479 183.2811 237.1409 171.9483"/></svg>