<?xml version="1.0" encoding="UTF-8"?><svg id="Layer_1" xmlns="http://www.w3.org/2000/svg" xmlns:xlink="http://www.w3.org/1999/xlink" viewBox="0 0 287.8681 294.3544"><defs><style>.cls-1,.cls-2{fill:none;}.cls-3{clip-path:url(#clippath);}.cls-4{fill:#4a9cd5;}.cls-2{stroke:#fff;stroke-miterlimit:10;stroke-width:13px;}</style><clipPath id="clippath"><rect class="cls-1" y="23.8667" width="149.8261" height="238.6119"/></clipPath></defs><g class="cls-3"><g><path class="cls-4" d="m50.3091,110.4761c-2.0754-8.3879-3.1608-17.585-1.5845-26.907,1.2148-7.1846,3.9586-13.3392,11.5796-15.9498.7215-.2471,1.3633-.931,1.8773-1.5492,10.8443-13.0403,24.9866-16.8378,40.507-11.9024,16.3397,5.1959,28.4212,16.2472,32.1073,33.6309,1.5843,7.4716.0834,15.5974-.0215,23.8822,3.4351.6574,4.5434,3.9923,3.874,7.8746-1.3766,7.983-1.8478,16.3423-8.6548,22.3431-1.1882,1.0475-1.4147,3.2347-1.9816,4.9303-5.2125,15.5902-14.9629,26.4283-31.6124,29.7955-7.1416,1.4444-13.8058-.5258-19.9981-4.0461-10.6783-6.0706-17.249-15.3371-20.7887-26.9763-.5216-1.7152-1.766-3.2396-2.8064-4.7632-5.2512-7.6903-8.009-16.1279-6.9613-25.4436.1742-1.5487,2.5136-2.8538,4.4641-4.9191Z"/><path class="cls-4" d="m60.4011,172.4156c6.2615,19.753,12.4147,39.1646,18.637,58.7938,7.3028-2.6921,14.3695-5.2972,21.9079-8.0762,1.0802,2.7859,2.1042,5.4271,3.1283,8.0683.3269.062.6539.124.9808.186,6.1798-19.4405,12.3595-38.881,18.671-58.7361,4.276,2.4135,8.172,5.0309,12.3969,6.9084,8.2242,3.6546,16.403,7.7336,25.0232,10.0925,10.6341,2.91,17.9163,8.4125,19.0569,23.1012.6913,8.9023-.8093,17.9707-1.259,26.9678-.1548,3.0976-2.37,2.4983-4.2195,2.5005-18.1965.0214-36.3931.0203-54.5897.0182-36.671-.0041-73.342-.0128-110.013-.0196-1.3667-.0002-2.7334,0-4.5358,0-1.3896-12.3883-3.81-24.4352-.315-36.538,2.2837-7.9081,7.3011-13.0824,15.5369-15.2274,14.0663-3.6635,27.0156-9.959,39.5931-18.0395Z"/><path class="cls-4" d="m87.4373,214.0259c-.7561-2.1894-1.3261-4.1467-2.1006-6.0194-1.6283-3.937-3.8066-7.7069-4.9346-11.7741-1.1961-4.3129.9842-7.5509,5.1633-9.1495,1.1566-.4424,2.383-.8141,3.607-.9491,4.9598-.5471,10.0565-.5083,13.3337,3.8233,3.0638,4.0494.988,8.4093-.5856,12.6261-2.5937,6.95-7.6842,10.5164-14.4832,11.4428Z"/><path class="cls-4" d="m81.5526,226.5855c6.0527-2.2296,12.1055-4.4592,18.1582-6.6888.1709.4429.3418.8858.5127,1.3287-6.0647,2.2553-12.1294,4.5107-18.1941,6.766-.159-.4686-.3179-.9373-.4769-1.4059Z"/><path class="cls-4" d="m83.0111,222.1729c5.1111-1.8805,10.2223-3.7609,15.3334-5.6414.193.5053.386,1.0106.579,1.516-5.1175,1.8694-10.2349,3.7388-15.3524,5.6082-.1867-.4943-.3734-.9885-.5601-1.4828Z"/><path class="cls-4" d="m97.8818,214.4779c-4.2187,1.5789-8.4374,3.1577-12.6561,4.7366-.2045-.5343-.4089-1.0686-.6134-1.6029,4.2147-1.5921,8.4293-3.1842,12.644-4.7762.2085.5475.417,1.095.6255,1.6425Z"/></g></g><g><path class="cls-2" d="m134.1766,85.9915c.0292-4.7705-1.0776-7.3652-5.7386-9.6407-16.0123-7.8173-23.6065-24.7317-19.5486-41.7458,3.9221-16.4445,18.7095-28.04,35.8412-28.1047,17.058-.0644,31.6269,11.3398,35.8538,28.0655,4.2279,16.7297-3.3926,33.8024-19.4575,41.7783-4.6544,2.3108-5.8718,4.9611-5.7408,9.7028l.1561,47.2171c-.0095,5.677-.0657,11.462-.0657,17.4728,17.4799,0,34.068.1873,50.6387-.2634,1.8408-.0501,4.0569-3.4796,5.2936-5.7757,8.1884-15.2032,24.85-22.9811,41.5-19.1176,16.044,3.7229,27.8632,18.2441,28.4253,34.9237.5588,16.5783-10.2508,31.5088-26.3637,36.4142-17.1403,5.2183-35.2851-2.3556-43.4314-18.7736-2.2473-4.5291-4.7536-5.9551-9.6228-5.854-15.0328.312-30.0763.1139-45.5973.1139,0,17.144-.9339,33.2774.2779,49.2481,1.0859,14.313,6.9987,18.3584,21.3715,18.3571,7.6649-.0007,15.3466-.3071,22.989.1082,5.3954.2932,8.3447-1.3098,10.9402-6.4431,7.5511-14.9349,24.1572-22.4503,39.9217-19.0239,16.1722,3.515,27.9753,16.8585,29.4129,33.2515,1.416,16.1464-8.3281,31.5447-23.7108,37.4697-17.2155,6.6309-37.091-.3594-45.399-16.9434-2.8998-5.7884-6.2457-7.2648-12.1365-6.9863-9.2299.4365-18.497.0205-27.7464.1288-14.8389.1737-25.8856-6.6914-31.4356-19.9111-3.7841-9.0135-6.1762-19.2402-6.4221-28.9943-.6331-25.1098-.5082-50.2407-.3342-75.3685l.1294-51.3057Zm125.5206,75.6024c.0098-8.2509-6.7665-15.3068-14.9168-15.5324-8.4245-.2332-15.7394,6.9567-15.758,15.4888-.0187,8.6144,7.1604,15.6894,15.7024,15.4746,8.2453-.2073,14.9625-7.1303,14.9724-15.431Zm-99.6801-117.8959c.1708-8.6671-6.8107-15.8712-15.3414-15.8306-8.106.0386-15.1074,6.9593-15.3319,15.1554-.2351,8.581,6.7638,15.6989,15.441,15.7035,8.3673.0044,15.0663-6.6049,15.2323-15.0282Zm84.4483,191.8873c-8.7466-.0454-15.5918,6.862-15.4489,15.5891.1354,8.2692,6.9745,15.0564,15.2231,15.1076,8.2632.0513,15.2162-6.6445,15.4529-14.8812.2512-8.7413-6.5162-15.7702-15.2271-15.8155Z"/><path class="cls-4" d="m134.1766,85.9915c.0292-4.7705-1.0776-7.3652-5.7386-9.6407-16.0123-7.8173-23.6065-24.7317-19.5486-41.7458,3.9221-16.4445,18.7095-28.04,35.8412-28.1047,17.058-.0644,31.6269,11.3398,35.8538,28.0655,4.2279,16.7297-3.3926,33.8024-19.4575,41.7783-4.6544,2.3108-5.8718,4.9611-5.7408,9.7028l.1561,47.2171c-.0095,5.677-.0657,11.462-.0657,17.4728,17.4799,0,34.068.1873,50.6387-.2634,1.8408-.0501,4.0569-3.4796,5.2936-5.7757,8.1884-15.2032,24.85-22.9811,41.5-19.1176,16.044,3.7229,27.8632,18.2441,28.4253,34.9237.5588,16.5783-10.2508,31.5088-26.3637,36.4142-17.1403,5.2183-35.2851-2.3556-43.4314-18.7736-2.2473-4.5291-4.7536-5.9551-9.6228-5.854-15.0328.312-30.0763.1139-45.5973.1139,0,17.144-.9339,33.2774.2779,49.2481,1.0859,14.313,6.9987,18.3584,21.3715,18.3571,7.6649-.0007,15.3466-.3071,22.989.1082,5.3954.2932,8.3447-1.3098,10.9402-6.4431,7.5511-14.9349,24.1572-22.4503,39.9217-19.0239,16.1722,3.515,27.9753,16.8585,29.4129,33.2515,1.416,16.1464-8.3281,31.5447-23.7108,37.4697-17.2155,6.6309-37.091-.3594-45.399-16.9434-2.8998-5.7884-6.2457-7.2648-12.1365-6.9863-9.2299.4365-18.497.0205-27.7464.1288-14.8389.1737-25.8856-6.6914-31.4356-19.9111-3.7841-9.0135-6.1762-19.2402-6.4221-28.9943-.6331-25.1098-.5082-50.2407-.3342-75.3685l.1294-51.3057Zm125.5206,75.6024c.0098-8.2509-6.7665-15.3068-14.9168-15.5324-8.4245-.2332-15.7394,6.9567-15.758,15.4888-.0187,8.6144,7.1604,15.6894,15.7024,15.4746,8.2453-.2073,14.9625-7.1303,14.9724-15.431Zm-99.6801-117.8959c.1708-8.6671-6.8107-15.8712-15.3414-15.8306-8.106.0386-15.1074,6.9593-15.3319,15.1554-.2351,8.581,6.7638,15.6989,15.441,15.7035,8.3673.0044,15.0663-6.6049,15.2323-15.0282Zm84.4483,191.8873c-8.7466-.0454-15.5918,6.862-15.4489,15.5891.1354,8.2692,6.9745,15.0564,15.2231,15.1076,8.2632.0513,15.2162-6.6445,15.4529-14.8812.2512-8.7413-6.5162-15.7702-15.2271-15.8155Z"/></g></svg>