<?xml version="1.0" encoding="UTF-8"?><svg id="Layer_1" xmlns="http://www.w3.org/2000/svg" viewBox="0 0 246.7454 283.9965"><defs><style>.cls-1{fill:#4a9cd5;}</style></defs><path class="cls-1" d="m209.2351,36.8678c-3.8853,0-7.1004.022-10.3151-.0065-2.9507-.0261-4.6828-1.4234-4.7099-3.7272-.0276-2.3477,1.6643-3.8115,4.6054-3.8287,6.2687-.0367,12.5379-.0415,18.8065-.0022,3.317.0208,4.598,1.3063,4.6161,4.5923.0328,5.9204.0255,11.8413-.0016,17.7617-.0133,2.9069-1.4926,4.653-3.7975,4.6077-2.2853-.045-3.6371-1.778-3.6587-4.7518-.0208-2.8622-.0045-5.7246-.0045-9.2386-1.0398.9722-1.7058,1.5597-2.3327,2.1863-15.087,15.08-30.1698,30.1642-45.2534,45.2477-.3694.3694-.7252.7534-1.1094,1.1065-1.8864,1.7337-4.0177,1.8574-5.5786.3342-1.5563-1.5186-1.5383-3.7605.2064-5.5697,2.7192-2.8197,5.5243-5.5566,8.2952-8.3263,12.7465-12.7414,25.4945-25.4811,38.2379-38.2256.5336-.5336,1.0259-1.1085,1.9938-2.1598Z"/><path class="cls-1" d="m101.4086,7.5973c0,3.536.0213,6.7303-.0062,9.9242-.0255,2.9701-1.3873,4.6773-3.6849,4.7068-2.3242.0298-3.7464-1.6714-3.7644-4.6055-.0266-4.3441-.0323-8.6887.001-13.0328.0243-3.167,1.285-4.5062,4.373-4.5472,4.4304-.0588,8.8625-.0505,13.2932-.0054,2.7591.0281,4.3824,1.4511,4.4242,3.7167.0435,2.3614-1.62,3.798-4.5573,3.8342-3.2079.0396-6.4167.009-10.0785.009Z"/><path class="cls-1" d="m239.2122,7.601c-3.5488,0-6.761.0241-9.9726-.0071-2.959-.0287-4.6686-1.4328-4.6745-3.7598-.0059-2.3432,1.6853-3.7719,4.6399-3.7969,4.3563-.037,8.7138-.0549,13.0696.007,3.1018.0441,4.4039,1.4086,4.4294,4.5401.0354,4.3563.0328,8.7134.0021,13.0698-.0203,2.8825-1.5461,4.6525-3.8526,4.5837-2.2094-.0659-3.5913-1.7334-3.6305-4.5319-.0461-3.29-.0108-6.5811-.0108-10.1048Z"/><path class="cls-1" d="m239.2109,145.1001c0-3.5447-.0211-6.741.0061-9.937.0258-3.0296,1.3237-4.6714,3.6567-4.7149,2.4335-.0453,3.8158,1.6637,3.8323,4.8151.0219,4.1736.0283,8.3475.0038,12.521-.0205,3.4904-1.2526,4.7472-4.6709,4.7876-4.4325.0524-8.8653.0893-13.298.0978-2.5548.0049-4.3669-1.6257-4.3528-3.835.0132-2.0638,1.7283-3.6631,4.2052-3.7164,3.3843-.0728,6.7713-.0182,10.6176-.0182Z"/><path class="cls-1" d="m203.0671,7.5971c-2.2553,0-4.5115.0377-6.7658-.0098-2.669-.0562-4.3844-1.5836-4.3689-3.7977.0147-2.1039,1.6742-3.6987,4.1711-3.7364,4.683-.0707,9.3689-.0726,14.0516.0118,2.3374.0421,3.9163,1.6208,3.9709,3.6525.0573,2.1299-1.5883,3.7744-4.0333,3.859-2.3393.0809-4.6835.0175-7.0256.0206Z"/><path class="cls-1" d="m137.624,7.5891c-2.3529,0-4.7079.0638-7.058-.0173-2.5171-.0869-4.0982-1.6568-4.0509-3.8465.0449-2.0753,1.5768-3.6154,3.9641-3.6587,4.7042-.0854,9.412-.0888,14.1163-.0093,2.5098.0424,4.0899,1.6667,4.0483,3.8509-.041,2.1561-1.6604,3.6115-4.2229,3.6764-2.2643.0574-4.5312.012-6.7969.0045Z"/><path class="cls-1" d="m170.306,7.5905c-2.2657,0-4.533.0546-6.7966-.0145-2.5509-.0778-4.1253-1.5703-4.1237-3.7638.0016-2.1924,1.5738-3.7147,4.1318-3.752,4.6175-.0672,9.2374-.069,13.8549-.0013,2.5793.0378,4.103,1.5294,4.107,3.761.004,2.2166-1.5412,3.6823-4.1154,3.7563-2.3509.0675-4.7052.0143-7.0581.0143Z"/><path class="cls-1" d="m170.2043,152.6905c-2.2546,0-4.5099.0339-6.7638-.009-2.5532-.0485-4.0016-1.4302-4.0471-3.7665-.043-2.2055,1.5009-3.934,3.9208-3.9588,4.8421-.0495,9.6879.0297,14.5286.1758,2.2244.0671,3.5232,1.3697,3.6202,3.6395.0882,2.0649-1.5092,3.7934-3.7155,3.8903-2.5103.1102-5.0292.0255-7.5432.0287Z"/><path class="cls-1" d="m202.5843,152.5235c-2.3488,0-4.7028.0981-7.045-.027-2.4452-.1306-3.6351-1.4553-3.5163-3.5931.1429-2.5704,1.5325-3.9625,3.9111-3.9369,4.4264.0475,8.853.0858,13.2794.1302,3.0755.0309,4.7621,1.2385,4.909,3.5097.153,2.3656-1.5391,3.8138-4.7399,4.0506-.3473.0257-.6965.0336-1.0449.0342-1.9175.0032-3.835.0015-5.7525.0015-.0004-.0564-.0007-.1128-.0011-.1692Z"/><path class="cls-1" d="m246.7166,108.9166c0,2.3527.0558,4.7072-.0157,7.0577-.0718,2.3617-1.5617,3.9421-3.6241,4.0151-2.1594.0765-3.8013-1.537-3.8396-4.0409-.072-4.7043-.0706-9.4114.0065-14.1156.0391-2.3872,1.5635-3.9652,3.5989-4.0287,2.1361-.0667,3.7852,1.6044,3.8569,4.0546.0688,2.3507.0149,4.705.0171,7.0577Z"/><path class="cls-1" d="m101.4027,43.8728c0,2.3503.0646,4.7028-.0181,7.0501-.0835,2.3692-1.5945,3.8637-3.7146,3.8615-2.1438-.0022-3.6608-1.4739-3.6963-3.8665-.0711-4.7865-.0688-9.5755-.0001-14.3621.0345-2.4026,1.5221-3.8396,3.6992-3.8444,2.1519-.0048,3.6177,1.4356,3.7055,3.8503.0886,2.434.0195,4.8738.0244,7.3111Z"/><path class="cls-1" d="m239.2273,43.5823c0-2.3512-.0702-4.7051.0195-7.0529.0922-2.4135,1.557-3.8313,3.7339-3.8183,2.146.0128,3.6695,1.4785,3.7073,3.865.076,4.7883.0776,9.5797-.0016,14.3679-.0384,2.3204-1.6651,3.8618-3.7527,3.8531-2.1127-.0088-3.6001-1.5005-3.6851-3.9005-.0863-2.4352-.019-4.8759-.0214-7.3142Z"/><path class="cls-1" d="m239.2174,76.2336c0-2.2642-.0482-4.5297.0127-6.7922.0701-2.6063,1.4833-4.1608,3.6752-4.1841,2.2046-.0234,3.7509,1.5509,3.7855,4.0829.063,4.6147.0607,9.2311.0095,13.846-.0287,2.5918-1.4717,4.1307-3.695,4.1565-2.258.0263-3.6839-1.4434-3.7674-4.0559-.0751-2.3489-.0158-4.702-.0205-7.0532Z"/><path class="cls-1" d="m101.406,76.4812c0,2.2636.0475,4.5285-.0126,6.7905-.0679,2.5554-1.545,4.1043-3.7621,4.0776-2.229-.0269-3.646-1.5565-3.6708-4.1516-.0441-4.6138-.0449-9.2289.0079-13.8426.0292-2.5544,1.5248-4.1155,3.7362-4.0961,2.1974.0192,3.6228,1.5845,3.6818,4.1705.0536,2.3495.0113,4.7011.0113,7.0518h.0083Z"/><path class="cls-1" d="m33.6267,102.5922c.6668,10.9274,6.0284,15.9776,16.4511,15.9968,12.6213.0233,25.2426.0163,37.864.0068,10.388-.0078,15.792-5.0858,16.4408-15.6428.7125-.1129,1.4762-.3351,2.2409-.339,5.7262-.0294,11.4535-.0797,17.1787.0002,7.7093.1075,13.5188,5.5837,14.1348,13.2373.1122,1.3946.0833,2.8023.0836,4.204.0041,21.1524.0021,42.3048.0016,63.4572-.0005,27.9141.0029,55.8283-.0033,83.7424-.0025,11.3206-5.4043,16.7283-16.773,16.7325-35.0591.0129-70.1183.0118-105.1774-.0037-10.3598-.0046-16.0523-5.6767-16.0614-16.0349-.0201-22.6716.0084-45.3432.01-68.0148.0019-26.8616-.0077-53.7231-.0038-80.5847.0017-11.4705,5.2717-16.7568,16.6728-16.7572,5.5804-.0002,11.1609,0,16.9406,0Zm-20.1637,36.4737v131.7193h111.1032v-131.7193H13.463Z"/><path class="cls-1" d="m78.2963,94.4408c3.509,0,7.0976-.0371,10.6852.008,6.5942.083,10.8449,3.9185,10.8893,9.7653.0457,6.0158-4.252,9.9909-11.0164,10.0126-13.197.0424-26.3944.0406-39.5914-.0117-6.8497-.0272-11.125-3.9096-11.1124-9.904.0126-5.9895,4.311-9.8082,11.1472-9.8661,3.4769-.0295,6.9542-.0052,10.3486-.0052,1.7539-8.9649,4.2692-12.0534,9.4893-11.9462,5.2555.1079,7.7482,3.263,9.1607,11.9472Zm-4.8912-.1366c-.7962-2.2627-1.0724-4.4644-2.2731-5.8842-.6359-.7519-3.6051-.7631-4.2404-.0175-1.1991,1.4073-1.4725,3.6032-2.2824,5.9017h8.7959Z"/><path class="cls-1" d="m105.434,202.3138v5.309h-51.2546v-5.309h51.2546Z"/><path class="cls-1" d="m105.4012,237.843v5.4754h-51.2479v-5.4754h51.2479Z"/><path class="cls-1" d="m105.4155,166.5578v5.3927h-51.1963v-5.3927h51.1963Z"/><path class="cls-1" d="m29.5263,165.5739c1.5526,2.2155,3.0453,4.3455,4.6977,6.7033,4.1247-5.4633,6.9792-12.1153,15.1633-13.4316-.3988.8534-.5023,1.4051-.8307,1.7283-4.9429,4.8645-8.8915,10.4194-11.9114,16.6669-.4634.9587-1.4954,1.6425-2.2645,2.4535-.7955-.7761-1.782-1.4343-2.3488-2.3517-1.4008-2.2676-2.4665-4.7489-3.937-6.965-1.3585-2.0473-.8702-3.3386,1.4315-4.8036Z"/><path class="cls-1" d="m33.9999,215.6835c-2.3077-3.817-4.6332-7.4087-6.6145-11.1813-.3465-.6597.7541-2.0795,1.5638-4.0815,2.0875,2.9457,3.5854,5.0595,5.2489,7.4069,4.3344-5.0276,6.531-12.4004,14.7249-13.146-4.9689,6.993-9.795,13.7848-14.9232,21.0019Z"/><path class="cls-1" d="m34.3081,243.5672c4.0357-5.577,6.8817-12.2415,14.7416-13.3522-4.9964,6.9835-9.8313,13.7413-15.0837,21.0827-2.2972-3.8416-4.6325-7.5087-6.6354-11.3493-.3058-.5865.9257-1.9748,1.7932-3.6704,2.019,2.8387,3.5294,4.9624,5.1843,7.2892Z"/></svg>