<?xml version="1.0" encoding="UTF-8"?><svg id="Layer_1" xmlns="http://www.w3.org/2000/svg" xmlns:xlink="http://www.w3.org/1999/xlink" viewBox="0 0 185.7142 203.6545"><defs><style>.cls-1,.cls-2{fill:none;}.cls-3{clip-path:url(#clippath);}.cls-4{fill:#4a9cd5;}.cls-2{stroke:#fff;stroke-miterlimit:10;stroke-width:10px;}</style><clipPath id="clippath"><circle class="cls-1" cx="81.4087" cy="122.2488" r="62.1936"/></clipPath></defs><path class="cls-4" d="m162.8159,122.4813c-.2686,45.1223-36.8353,81.4324-81.7456,81.1718C36.0909,203.3921-.1988,166.8485.0008,122.0163.2015,76.9504,36.8171,40.5954,81.7546,40.8444c44.9628.2491,81.3278,36.8723,81.0613,81.6369Zm-79.9969,70.1963c17.8863-.3267,34.6885-6.9582,48.3359-20.7155,15.1198-15.2415,21.8501-33.8044,20.3892-55.2213-2.3546-34.5206-31.4401-64.7365-70.09-64.8875-37.9307-.1482-71.9808,30.9932-70.3447,73.5315,1.3938,36.2359,31.1224,67.0073,71.7095,67.2928Z"/><g class="cls-3"><g><path class="cls-4" d="m55.2801,101.7377c-1.3024-5.2638-1.9835-11.0353-.9944-16.8854.7624-4.5087,2.4842-8.3709,7.2667-10.0092.4527-.1551.8555-.5843,1.1781-.9722,6.8053-8.1834,15.6802-10.5665,25.42-7.4693,10.2539,3.2607,17.8356,10.1959,20.1488,21.1049.9942,4.6888.0524,9.788-.0135,14.9871,2.1557.4126,2.8512,2.5053,2.4311,4.9417-.8639,5.0097-1.1596,10.2555-5.4313,14.0213-.7456.6573-.8878,2.0299-1.2436,3.094-3.2711,9.7835-9.3899,16.5849-19.8382,18.698-4.4817.9064-8.6637-.33-12.5497-2.5391-6.7011-3.8096-10.8245-9.6247-13.0459-16.9288-.3273-1.0764-1.1082-2.033-1.7611-2.9891-3.2953-4.826-5.026-10.121-4.3685-15.967.1093-.9719,1.5774-1.7909,2.8014-3.087Z"/><path class="cls-4" d="m61.6133,140.6075c3.9293,12.3959,7.7908,24.5775,11.6955,36.8957,4.5828-1.6894,9.0175-3.3242,13.7482-5.0682.6779,1.7483,1.3205,3.4057,1.9632,5.0632.2052.0389.4103.0778.6155.1167,3.8781-12.1998,7.7561-24.3996,11.7169-36.8595,2.6834,1.5146,5.1283,3.1571,7.7796,4.3353,5.161,2.2934,10.2936,4.8532,15.7032,6.3335,6.6734,1.8261,11.2433,5.2792,11.959,14.497.4338,5.5866-.5079,11.2774-.7901,16.9235-.0972,1.9439-1.4873,1.5678-2.6479,1.5692-11.4191.0134-22.8383.0127-34.2575.0114-23.0127-.0026-46.0254-.008-69.0381-.0123-.8576-.0001-1.7153,0-2.8464,0-.872-7.7742-2.391-15.3342-.1977-22.9293,1.4331-4.9627,4.5817-8.2098,9.7501-9.5559,8.8272-2.299,16.9535-6.2497,24.8464-11.3206Z"/><path class="cls-4" d="m78.5797,166.7198c-.4745-1.3739-.8322-2.6022-1.3182-3.7775-1.0218-2.4707-2.3888-4.8364-3.0967-7.3888-.7506-2.7066.6176-4.7385,3.2402-5.7417.7258-.2777,1.4954-.5109,2.2636-.5956,3.1125-.3433,6.3109-.319,8.3675,2.3993,1.9227,2.5412.62,5.2772-.3675,7.9234-1.6277,4.3615-4.8222,6.5995-9.0889,7.1808Z"/><path class="cls-4" d="m74.8868,174.6015c3.7984-1.3992,7.5967-2.7983,11.3951-4.1975.1073.2779.2145.5559.3218.8338-3.8059,1.4153-7.6117,2.8306-11.4176,4.2459-.0998-.2941-.1995-.5882-.2993-.8822Z"/><path class="cls-4" d="m75.8021,171.8324c3.2075-1.1801,6.4149-2.3601,9.6224-3.5402.1211.3171.2422.6342.3634.9513-3.2114,1.1731-6.4229,2.3463-9.6343,3.5194-.1172-.3102-.2343-.6203-.3515-.9305Z"/><path class="cls-4" d="m85.1341,167.0034c-2.6474.9908-5.2949,1.9816-7.9423,2.9724-.1283-.3353-.2566-.6706-.3849-1.0059,2.6449-.9991,5.2898-1.9982,7.9347-2.9973.1308.3436.2617.6872.3925,1.0308Z"/></g></g><g><path class="cls-2" d="m180.7142,124.489c0,15.7019-12.7289,28.4307-28.4307,28.4307s-28.4307-12.7289-28.4307-28.4307,12.7289-28.4307,28.4307-28.4307,28.4307,12.7289,28.4307,28.4307Zm-33.9719,3.0568c-2.1444-2.1472-4.2904-4.2928-6.4364-6.4384-.9065-.9063-2.1294-.921-3.0439-.0212-.9269.912-1.8481,1.83-2.7577,2.7593-.9092.9289-.9119,2.1217.0116,3.0485,3.6518,3.6645,7.3094,7.3233,10.9747,10.9743.9337.9301,2.1534.942,3.084.0132,6.9986-6.9849,13.9899-13.9772,20.9753-20.9752.8011-.8026.8668-1.9547.1002-2.7957-.9645-1.058-1.9807-2.0754-3.0398-3.0386-.9395-.8544-2.015-.7748-2.9018.111-4.0562,4.0512-8.1088,8.106-12.1621,12.1601-1.4924,1.4927-2.9831,2.9871-4.529,4.5351-.1143-.139-.1867-.2437-.2751-.3323Z"/><path class="cls-4" d="m180.7142,124.489c0,15.7019-12.7289,28.4307-28.4307,28.4307s-28.4307-12.7289-28.4307-28.4307,12.7289-28.4307,28.4307-28.4307,28.4307,12.7289,28.4307,28.4307Zm-33.9719,3.0568c-2.1444-2.1472-4.2904-4.2928-6.4364-6.4384-.9065-.9063-2.1294-.921-3.0439-.0212-.9269.912-1.8481,1.83-2.7577,2.7593-.9092.9289-.9119,2.1217.0116,3.0485,3.6518,3.6645,7.3094,7.3233,10.9747,10.9743.9337.9301,2.1534.942,3.084.0132,6.9986-6.9849,13.9899-13.9772,20.9753-20.9752.8011-.8026.8668-1.9547.1002-2.7957-.9645-1.058-1.9807-2.0754-3.0398-3.0386-.9395-.8544-2.015-.7748-2.9018.111-4.0562,4.0512-8.1088,8.106-12.1621,12.1601-1.4924,1.4927-2.9831,2.9871-4.529,4.5351-.1143-.139-.1867-.2437-.2751-.3323Z"/></g><polygon class="cls-4" points="64.2951 12.0696 75.4875 10.251 80.3346 0 85.5228 10.0827 96.7699 11.5248 88.784 19.5747 90.888 30.717 80.7643 25.6095 70.8175 31.0538 72.5466 19.8472 64.2951 12.0696"/><polygon class="cls-4" points="30.4043 24.9996 38.313 21.0964 39.5812 12.3687 45.7372 18.6841 54.4297 17.1933 50.3256 24.9996 54.4297 32.8059 45.7372 31.315 39.5812 37.6305 38.313 28.9027 30.4043 24.9996"/><polygon class="cls-4" points="2.2896 45.5663 8.2454 40.5467 7.4868 32.7947 14.1011 36.9079 21.2393 33.7909 19.3714 41.3526 24.5416 47.1782 16.7728 47.7384 12.83 54.4557 9.8965 47.2403 2.2896 45.5663"/><polygon class="cls-4" points="141.0793 33.7391 148.2028 36.8895 154.8364 32.8074 154.0415 40.5557 159.9737 45.6031 152.359 47.2415 149.3917 54.4431 145.4805 47.7074 137.7144 47.1108 142.9118 41.3095 141.0793 33.7391"/><polygon class="cls-4" points="108.9952 17.5603 117.4869 19.0679 123.5429 12.9273 124.7332 21.4693 132.4446 25.3314 124.6885 29.103 123.3984 37.6305 117.4147 31.4195 108.9059 32.8277 112.9638 25.2174 108.9952 17.5603"/></svg>