<?xml version="1.0" encoding="UTF-8"?><svg id="Layer_1" xmlns="http://www.w3.org/2000/svg" viewBox="0 0 293.0514 284.1186"><defs><style>.cls-1{stroke-width:12px;}.cls-1,.cls-2{fill:none;stroke:#fff;stroke-miterlimit:10;}.cls-3{fill:#fff;}.cls-4{fill:#4a9cd5;}.cls-2{stroke-width:13px;}</style></defs><path class="cls-4" d="m135.1127,61.4603c-5.07-3.8991-11.4189-6.2173-18.3092-6.2173-16.6019,0-30.0605,13.4585-30.0605,30.0605s13.4585,30.0605,30.0605,30.0605c6.7513,0,13.2912-2.4436,18.3092-6.2012v-47.7024Z"/><path class="cls-4" d="m135.1127,191.5388c-5.07-3.8991-11.4189-6.2173-18.3092-6.2173-16.6019,0-30.0605,13.4585-30.0605,30.0605s13.4585,30.0605,30.0605,30.0605c6.7513,0,13.2912-2.4436,18.3092-6.2012v-47.7024Z"/><g><path class="cls-1" d="m136.5581,114.1964c-7.9019-6.077-17.7971-9.6901-28.5362-9.6901-25.8753,0-46.8514,20.9761-46.8514,46.8514s20.9761,46.8514,46.8514,46.8514c10.5224,0,20.7153-3.8085,28.5362-9.665v-74.3476Z"/><path class="cls-4" d="m136.5581,114.1964c-7.9019-6.077-17.7971-9.6901-28.5362-9.6901-25.8753,0-46.8514,20.9761-46.8514,46.8514s20.9761,46.8514,46.8514,46.8514c10.5224,0,20.7153-3.8085,28.5362-9.665v-74.3476Z"/></g><path class="cls-3" d="m128.3128,153.5263c-1.637-1.9807-3.9162-3.3254-6.4415-3.8005,3.5965-1.668,5.584-5.5809,4.8097-9.469-.095-1.5171-.5515-2.9895-1.3313-4.2944-.7552-1.2027-1.8046-2.1929-3.049-2.8772-1.3036-.7289-2.6967-1.2847-4.1441-1.6533-1.6754-.3631-3.377-.5929-5.0888-.6871v-9.3187h-5.6471v9.0181h-4.4876v-9.0181h-5.6685v9.3187h-11.3586v6.0121h4.0796c1.6122-.2008,3.0818.9434,3.2826,2.5555.0009.007.0017.014.0026.0211v10.5426h.5797-.5797v14.7726c-.055,1.0896-.9829,1.9283-2.0725,1.8732-.0249-.0013-.0498-.003-.0746-.0052h-4.0796l-1.138,6.7207h11.3586v9.3832h5.6685v-9.2758h4.4876v9.2329h5.6471v-9.3832c1.7914-.0698,3.5769-.2491,5.3465-.5368,1.5303-.2695,3.0274-.7013,4.4661-1.2883,1.3104-.4897,2.5189-1.2177,3.5643-2.1472,1.0109-.912,1.8223-2.0232,2.3834-3.2637.6617-1.45,1.0615-3.0056,1.181-4.595.4863-2.7348-.1063-5.5516-1.6533-7.8587l-.043.0215Zm-25.2723-16.34h3.4355c.7149-.0483,1.4323-.0483,2.1472,0,.7645.05,1.5248.1504,2.276.3006.6897.1385,1.3653.3398,2.0184.6012.6458.2311,1.243.5806,1.7607,1.0307.4625.4436.8408.9674,1.1165,1.546.3197.6702.4813,1.4047.4724,2.1472.0017.6385-.1148,1.2719-.3436,1.868-.2118.5442-.5505,1.03-.9877,1.4171-.4245.364-.8768.6942-1.3527.9877-.5574.3146-1.1578.5461-1.7822.6871l-1.911.408c-.669.0993-1.3427.1638-2.0184.1932h-4.8311v-11.1868Zm15.4597,25.0361c-.2183.533-.523,1.0263-.9018,1.4601-.4129.4599-.9081.8386-1.4601,1.1165-.5584.3031-1.14.5616-1.7392.773-.7018.2252-1.4196.3974-2.1472.5153-.7945.1503-1.503.2362-2.1472.3006s-1.3098.1074-2.1472.1503h-4.917v-12.4322h6.5704c.9073.0549,1.8106.1625,2.7054.3221.8229.176,1.6334.4055,2.4263.6871.774.2475,1.5001.625,2.1472,1.1165.5567.4723,1.0162,1.0484,1.3527,1.6963.68,1.3355.7581,2.8977.2147,4.2944h.043Z"/><path class="cls-3" d="m115.0316,236.8726c3.6479-5.1625,7.2959-10.325,10.9438-15.4875-.1479.0086-.2431.0592-.3362.1137-3.453,2.0215-6.9039,4.0468-10.3629,6.0581-.2477.144-.3165.2978-.3159.5689.007,2.9156.0009,5.8312-.0016,8.7468h.0726Z"/><path class="cls-3" d="m114.2327,236.8726c-.0005-2.9265-.0048-5.8531.0052-8.7795.0009-.2656-.0839-.4016-.3112-.534-3.4666-2.0188-6.9269-4.0484-10.3892-6.0746-.0873-.0511-.1801-.093-.3514-.1808.1165.1775.1779.2774.2455.373,1.9958,2.8229,3.9938,5.6442,5.988,8.4682,1.5825,2.2409,3.1604,4.485,4.7404,6.7278h.0726Z"/><path class="cls-3" d="m114.9768,199.8541c-.0034.0359-.0097.0718-.0097.1077-.0005,4.3079.002,8.6159-.0072,12.9238-.0005.2504.1214.3234.311.4061,3.4219,1.4939,6.8416,2.9929,10.2621,4.4901.1049.0459.2131.0845.4029.1592-3.6619-6.0906-7.2772-12.1036-10.8924-18.1166-.0222.0099-.0444.0198-.0666.0298Z"/><path class="cls-3" d="m103.7466,217.7526c3.4075-1.4924,6.813-2.9893,10.2252-4.4706.2505-.1087.2617-.2598.2616-.4741-.0029-4.2212-.002-8.4424-.003-12.6636,0-.0993-.0132-.1986-.0265-.3861-3.607,6.059-7.1659,12.0375-10.7847,18.1164.1767-.0656.2538-.0899.3274-.1221Z"/><path class="cls-3" d="m114.9974,225.4041c3.7289-2.1816,7.4177-4.3397,11.1727-6.5366-3.7619-1.6476-7.4522-3.2638-11.1727-4.8933v11.4299Z"/><path class="cls-3" d="m103.0405,218.8644c3.7605,2.2023,7.447,4.3614,11.171,6.5424v-11.4349c-3.7234,1.6307-7.4112,3.2458-11.171,4.8925Z"/><path class="cls-3" d="m107.5287,92.2762c.1154-.2151.3114-.3755.545-.446l21.5533-6.5119c.2433-.0735.5002.0641.5737.3074.0353.1169.0227.2431-.035.3507l-2.9732,5.5423c-.1153.2151-.3114.3755-.545.4461l-21.5533,6.5119c-.2434.0735-.5002-.0642-.5737-.3075-.0353-.1169-.0227-.2431.035-.3507l2.9732-5.5423Z"/><path class="cls-3" d="m102.7253,76.3779c.1154-.215.3114-.3755.545-.4461l21.5533-6.5119c.2434-.0735.5002.0642.5737.3075.0353.1169.0227.2431-.035.3507l-2.9732,5.5422c-.1154.215-.3114.3755-.545.446l-21.5533,6.5119c-.2433.0735-.5002-.0641-.5737-.3074-.0353-.1169-.0227-.2431.035-.3507l2.9732-5.5423Z"/><path class="cls-3" d="m123.3405,78.7689c-.2151-.1152-.4672-.1402-.7008-.0696l-21.5533,6.5119c-.2433.0735-.381.3304-.3075.5737.0353.1169.1157.215.2233.2726l5.5446,2.9688c.2151.1152.4672.1402.7008.0696l21.5533-6.5119c.2434-.0735.381-.3304.3075-.5738-.0353-.1169-.1157-.215-.2233-.2726l-5.5446-2.9688Z"/><g><path class="cls-2" d="m144.7148,83.0996c.0281-4.5969-1.0384-7.0972-5.5298-9.29-15.4298-7.5329-22.7477-23.832-18.8374-40.2271,3.7794-15.8463,18.0288-27.0199,34.5373-27.0822,16.4374-.0621,30.4763,10.9273,34.5494,27.0445,4.0741,16.1211-3.2692,32.5726-18.7496,40.2584-4.4851,2.2268-5.6581,4.7806-5.532,9.3498l.1505,45.4993c-.0091,5.4705-.0633,11.045-.0633,16.8371,16.844,0,32.8286.1805,48.7965-.2538,1.7738-.0482,3.9093-3.3531,5.101-5.5656,7.8905-14.6501,23.9459-22.1451,39.9902-18.4221,15.4603,3.5875,26.8495,17.5804,27.3912,33.6532.5384,15.9752-9.8779,30.3625-25.4046,35.0895-16.5167,5.0284-34.0015-2.2699-41.8514-18.0906-2.1655-4.3643-4.5807-5.7384-9.2727-5.641-14.4859.3006-28.9821.1097-43.9385.1097,0,16.5203-.8999,32.0668.2678,47.4564,1.0464,13.7923,6.7441,17.6905,20.594,17.6893,7.386-.0007,14.7883-.296,22.1526.1043,5.1991.2825,8.0412-1.2621,10.5421-6.2087,7.2764-14.3915,23.2784-21.6335,38.4693-18.3318,15.5838,3.3871,26.9575,16.2452,28.3429,32.0418,1.3645,15.559-8.0251,30.3971-22.8482,36.1065-16.5892,6.3896-35.7416-.3464-43.7473-16.327-2.7943-5.5778-6.0185-7.0005-11.695-6.7321-8.8942.4206-17.8241.0198-26.737.1241-14.299.1674-24.9439-6.448-30.292-19.1868-3.6464-8.6855-5.9515-18.5403-6.1885-27.9394-.61-24.1963-.4897-48.4129-.3221-72.6266l.1247-49.4392Zm120.9541,72.8519c.0094-7.9507-6.5203-14.7499-14.3741-14.9673-8.118-.2247-15.1668,6.7036-15.1847,14.9253-.018,8.301,6.8999,15.1186,15.1311,14.9116,7.9453-.1998,14.4182-6.8709,14.4277-14.8696Zm-96.0537-113.6068c.1646-8.3518-6.5629-15.2938-14.7833-15.2547-7.8111.0372-14.5577,6.7061-14.7742,14.604-.2266,8.2688,6.5178,15.1278,14.8793,15.1322,8.0628.0042,14.5182-6.3646,14.6781-14.4815Zm81.376,184.9064c-8.4284-.0437-15.0246,6.6123-14.8869,15.022.1305,7.9683,6.7208,14.5086,14.6693,14.558,7.9626.0495,14.6626-6.4027,14.8907-14.3399.2421-8.4233-6.2791-15.1965-14.6731-15.2401Z"/><path class="cls-4" d="m144.7148,83.0996c.0281-4.5969-1.0384-7.0972-5.5298-9.29-15.4298-7.5329-22.7477-23.832-18.8374-40.2271,3.7794-15.8463,18.0288-27.0199,34.5373-27.0822,16.4374-.0621,30.4763,10.9273,34.5494,27.0445,4.0741,16.1211-3.2692,32.5726-18.7496,40.2584-4.4851,2.2268-5.6581,4.7806-5.532,9.3498l.1505,45.4993c-.0091,5.4705-.0633,11.045-.0633,16.8371,16.844,0,32.8286.1805,48.7965-.2538,1.7738-.0482,3.9093-3.3531,5.101-5.5656,7.8905-14.6501,23.9459-22.1451,39.9902-18.4221,15.4603,3.5875,26.8495,17.5804,27.3912,33.6532.5384,15.9752-9.8779,30.3625-25.4046,35.0895-16.5167,5.0284-34.0015-2.2699-41.8514-18.0906-2.1655-4.3643-4.5807-5.7384-9.2727-5.641-14.4859.3006-28.9821.1097-43.9385.1097,0,16.5203-.8999,32.0668.2678,47.4564,1.0464,13.7923,6.7441,17.6905,20.594,17.6893,7.386-.0007,14.7883-.296,22.1526.1043,5.1991.2825,8.0412-1.2621,10.5421-6.2087,7.2764-14.3915,23.2784-21.6335,38.4693-18.3318,15.5838,3.3871,26.9575,16.2452,28.3429,32.0418,1.3645,15.559-8.0251,30.3971-22.8482,36.1065-16.5892,6.3896-35.7416-.3464-43.7473-16.327-2.7943-5.5778-6.0185-7.0005-11.695-6.7321-8.8942.4206-17.8241.0198-26.737.1241-14.299.1674-24.9439-6.448-30.292-19.1868-3.6464-8.6855-5.9515-18.5403-6.1885-27.9394-.61-24.1963-.4897-48.4129-.3221-72.6266l.1247-49.4392Zm120.9541,72.8519c.0094-7.9507-6.5203-14.7499-14.3741-14.9673-8.118-.2247-15.1668,6.7036-15.1847,14.9253-.018,8.301,6.8999,15.1186,15.1311,14.9116,7.9453-.1998,14.4182-6.8709,14.4277-14.8696Zm-96.0537-113.6068c.1646-8.3518-6.5629-15.2938-14.7833-15.2547-7.8111.0372-14.5577,6.7061-14.7742,14.604-.2266,8.2688,6.5178,15.1278,14.8793,15.1322,8.0628.0042,14.5182-6.3646,14.6781-14.4815Zm81.376,184.9064c-8.4284-.0437-15.0246,6.6123-14.8869,15.022.1305,7.9683,6.7208,14.5086,14.6693,14.558,7.9626.0495,14.6626-6.4027,14.8907-14.3399.2421-8.4233-6.2791-15.1965-14.6731-15.2401Z"/></g><polygon class="cls-4" points="23.9743 171.2119 16.5659 156.2007 0 153.7935 11.9872 142.1089 9.1574 125.61 23.9743 133.3997 38.7913 125.61 35.9615 142.1089 47.9487 153.7935 31.3828 156.2007 23.9743 171.2119"/><polygon class="cls-4" points="28.5267 224.305 22.7646 212.6296 9.88 210.7573 19.2034 201.6693 17.0024 188.8368 28.5267 194.8955 40.051 188.8368 37.8501 201.6693 47.1734 210.7573 34.2889 212.6296 28.5267 224.305"/><polygon class="cls-4" points="59.5562 266.1318 54.4673 255.8205 43.0881 254.167 51.3221 246.1407 49.3783 234.8075 59.5562 240.1583 69.7341 234.8075 67.7903 246.1407 76.0243 254.167 64.6451 255.8205 59.5562 266.1318"/><polygon class="cls-4" points="59.5562 62.477 54.4673 52.1657 43.0881 50.5122 51.3221 42.486 49.3783 31.1527 59.5562 36.5036 69.7341 31.1527 67.7903 42.486 76.0243 50.5122 64.6451 52.1657 59.5562 62.477"/><polygon class="cls-4" points="33.798 107.5932 28.1632 96.1758 15.5633 94.3449 24.6807 85.4577 22.5283 72.9087 33.798 78.8335 45.0677 72.9087 42.9154 85.4577 52.0327 94.3449 39.4328 96.1758 33.798 107.5932"/></svg>