<?xml version="1.0" encoding="UTF-8"?><svg id="Layer_1" xmlns="http://www.w3.org/2000/svg" viewBox="0 0 271.0529 288.0037"><defs><style>.cls-1{fill:#fff;}.cls-2{fill:#4a9cd5;}.cls-3{fill:none;stroke:#fff;stroke-width:15px;}</style></defs><path class="cls-2" d="m271.0529,246.1726H0c4.5664-6.2754,6.1901-13.6357,12.9268-18.2227,18.5405-12.6241,36.6722-25.8476,55.0348-38.7356,1.8365-1.289,2.0196-2.3726,1.2969-4.3474-5.6833-15.53-11.2613-31.0986-16.8662-46.6573-.3386-.9398-.6306-1.8964-1.1947-3.6024,7.9158,5.3472,15.1899,10.2609,22.4641,15.1746-9.6705-19.2822-13.0267-39.4431-10.5605-60.8742,48.3991,10.1562,96.503,10.1615,144.8929.0304,1.6556,10.4086,1.1985,20.7843-.6137,31.1234-1.8093,10.3232-5.218,20.1291-9.7824,29.7253,7.2851-4.9278,14.5702-9.8556,22.5794-15.2732-1.5578,4.3663-2.8235,7.9467-4.1119,11.519-4.6596,12.9201-9.2771,25.8558-14.0406,38.7374-.7853,2.1237-.5107,3.2048,1.411,4.552,19.2875,13.5218,38.5007,27.1499,57.6916,40.8087,1.1631.8278,2.1659,2.0507,2.8887,3.2956,2.3739,4.0886,4.5842,8.2721,7.0367,12.7462ZM72.4887,102.6994c1.4955,6.8941,2.5598,13.2663,4.3171,19.4412,1.4278,5.0171,5.1348,8.1088,10.4168,9.0381,2.5724.4526,5.1347.9767,7.7194,1.3436,11.0849,1.5739,22.1353,3.5748,33.2746,4.5398,18.8339,1.6316,37.1614-2.7439,55.5655-5.82,6.0366-1.009,10.1301-5.2323,11.3555-11.2197.5803-2.8352,1.1546-5.6716,1.7391-8.5059.5743-2.7849,1.1581-5.5679,1.8319-8.8038-42.2145,5.003-83.935,5.0565-126.2198-.0133Z"/><path class="cls-2" d="m139.2583,88.7753c-27.6481-.2927-51.4333-1.7301-74.6279-7.953-6.4485-1.7301-12.6207-4.5562-18.8136-7.1341-1.9268-.8021-3.6545-2.2808-5.2142-3.7289-4.5353-4.2105-4.557-8.8173-.0089-13.061,5.2744-4.9214,11.9528-7.2231,18.6425-9.3453,4.2685-1.3541,8.6403-2.4126,13.013-3.3931,1.7043-.3822,2.3082-1.0535,2.2782-2.7867-.0904-5.2348-.0554-10.4724-.0259-15.7087.106-18.8487,18.9638-31.0044,36.2046-23.3329,4.6958,2.0895,9.3515,4.2691,14.0423,6.37,7.2339,3.2398,14.492,3.2347,21.7271.0112,4.6949-2.0917,9.349-4.275,14.0442-6.3658,17.2508-7.6819,36.1234,4.4474,36.2348,23.2849.0309,5.2362.0588,10.4736-.0231,15.7088-.0265,1.6973.556,2.3327,2.2366,2.8257,7.6956,2.2575,15.4429,4.4298,22.9271,7.2759,3.4663,1.3182,6.7021,3.7524,9.4555,6.312,3.8056,3.5378,3.7969,8.1185-.1316,11.5246-3.1906,2.7663-6.9299,5.1179-10.7847,6.8586-11.4311,5.1617-23.7007,7.3842-36.0092,9.216-6.8357,1.0173-13.7268,1.7834-20.6208,2.2571-9.4161.647-18.8588.9076-24.5459,1.1646Z"/><path class="cls-2" d="m112.9191,131.0036c-10.7356.0121-19.2816-5.6365-22.0951-13.7787-.3031-.8773-.5402-1.7939-.6695-2.7117-.5219-3.7042,1.1051-5.4288,4.7811-4.7695,6.0655,1.0879,12.0962,2.3701,18.1395,3.5812,4.3033.8624,8.6111,1.7046,12.9019,2.6259,3.8555.8278,4.9039,3.2407,2.6616,6.5386-4.0547,5.9635-9.9751,8.4007-15.7194,8.5142Zm4.8683-8.5993c.0715-2.8174-2.0403-5.1287-4.73-5.1768-2.6302-.047-4.9528,2.1033-5.0149,4.6428-.0657,2.6883,2.1468,4.9348,4.9327,5.0085,2.4131.0638,4.7522-2.1112,4.8122-4.4745Z"/><path class="cls-2" d="m159.6814,131.1209c-7.6616-.5044-13.7671-2.9281-17.522-9.5089-1.4785-2.5911-.4617-4.9342,2.4397-5.5331,10.5898-2.186,21.1917-4.3162,31.8099-6.3591,3.4196-.658,5.1477,1.1619,4.7334,4.6224-.8545,7.137-8.2096,14.4965-16.1012,16.0326-1.9114.3721-3.8622.5423-5.3598.7462Zm-1.5266-13.8408c-2.5463.0256-4.7758,2.306-4.7424,4.8508.0324,2.4751,2.4056,4.7708,4.913,4.7525,2.5772-.0188,4.8339-2.2349,4.8868-4.7988.0569-2.7592-2.1271-4.8339-5.0574-4.8045Z"/><g><circle class="cls-3" cx="225.3163" cy="231.9564" r="39.7405"/><circle class="cls-2" cx="225.3163" cy="231.9564" r="39.7405"/></g><g><g><circle class="cls-3" cx="42.748" cy="231.9564" r="39.7405"/><path class="cls-3" d="m25.4777,240.0323c.252-.2518.5937-.3933.95-.3932h32.8714c.3711,0,.672.3008.672.672,0,.1783-.0709.3494-.197.4754l-6.4953,6.4902c-.252.2519-.5937.3933-.95.3933H19.4574c-.3711,0-.672-.3009-.672-.6721,0-.1783.0709-.3493.197-.4754l6.4953-6.4902Z"/><path class="cls-3" d="m25.4778,215.7854c.252-.2518.5937-.3933.95-.3933h32.8714c.3711,0,.672.3009.672.6721,0,.1783-.0709.3493-.197.4754l-6.4953,6.4901c-.252.2518-.5937.3932-.95.3932H19.4574c-.3711,0-.672-.3009-.672-.672,0-.1783.0709-.3493.197-.4754l6.4953-6.4902Z"/><path class="cls-3" d="m53.2788,227.8316c-.252-.2518-.5937-.3932-.95-.3932H19.4574c-.3711,0-.672.3008-.672.6719,0,.1783.0709.3493.197.4753l6.4953,6.4903c.252.2518.5937.3932.95.3932h32.8714c.3711,0,.672-.3009.672-.672,0-.1783-.0709-.3493-.197-.4753l-6.4953-6.4902Z"/></g><g><circle class="cls-2" cx="42.748" cy="231.9564" r="39.7405"/><path class="cls-1" d="m25.4777,240.0323c.252-.2518.5937-.3933.95-.3932h32.8714c.3711,0,.672.3008.672.672,0,.1783-.0709.3494-.197.4754l-6.4953,6.4902c-.252.2519-.5937.3933-.95.3933H19.4574c-.3711,0-.672-.3009-.672-.6721,0-.1783.0709-.3493.197-.4754l6.4953-6.4902Z"/><path class="cls-1" d="m25.4778,215.7854c.252-.2518.5937-.3933.95-.3933h32.8714c.3711,0,.672.3009.672.6721,0,.1783-.0709.3493-.197.4754l-6.4953,6.4901c-.252.2518-.5937.3932-.95.3932H19.4574c-.3711,0-.672-.3009-.672-.672,0-.1783.0709-.3493.197-.4754l6.4953-6.4902Z"/><path class="cls-1" d="m53.2788,227.8316c-.252-.2518-.5937-.3932-.95-.3932H19.4574c-.3711,0-.672.3008-.672.6719,0,.1783.0709.3493.197.4753l6.4953,6.4903c.252.2518.5937.3932.95.3932h32.8714c.3711,0,.672-.3009.672-.672,0-.1783-.0709-.3493-.197-.4753l-6.4953-6.4902Z"/></g></g><g><g><circle class="cls-3" cx="135.5265" cy="230.6262" r="57.3776"/><path class="cls-3" d="m160.0896,221.3897c1.1413-7.6246-4.6627-11.7302-12.6026-14.4574l2.5758-10.3299-6.2879-1.5665-2.5073,10.0562c-1.652-.4106-3.3504-.7991-5.0342-1.1852l2.522-10.1222-6.283-1.5689-2.5757,10.3274c-1.3685-.3128-2.7126-.6207-4.0151-.9433v-.0318l-8.6705-2.1652-1.674,6.7155s4.6652,1.0679,4.565,1.1339c2.5489.6354,3.0083,2.3216,2.9325,3.6657l-2.9325,11.7668c.2221.0576.4408.1278.6549.2102-.2102-.0513-.435-.11-.6647-.1637l-4.108,16.4833c-.3104.7747-1.0997,1.933-2.8788,1.4931.0611.0929-4.5723-1.1413-4.5723-1.1413l-3.1207,7.1994,8.1818,2.0406c1.5225.3812,3.0132.782,4.4819,1.1559l-2.6026,10.4399,6.2805,1.5665,2.5757-10.3396c1.7106.4668,3.3822.8944,5.0098,1.3025l-2.566,10.2859,6.2879,1.5689,2.6002-10.4203c10.7209,2.0283,18.7854,1.2097,22.1773-8.4848,2.7346-7.8079-.1369-12.3118-5.7771-15.2492,4.108-.9482,7.2018-3.6583,8.0278-9.2424Zm-14.3646,20.1441c-1.9428,7.8054-15.0879,3.5875-19.3523,2.5293l3.4457-13.8416c4.2693,1.063,17.9374,3.172,15.9066,11.3123Zm1.955-20.2565c-1.7742,7.1041-12.7077,3.4946-16.2634,2.61l3.1305-12.5537c3.5386.8846,14.9706,2.5342,13.1231,9.9438h.0098Z"/></g><g><circle class="cls-2" cx="135.5265" cy="230.6262" r="57.3776"/><path class="cls-1" d="m160.0896,221.3897c1.1413-7.6246-4.6627-11.7302-12.6026-14.4574l2.5758-10.3299-6.2879-1.5665-2.5073,10.0562c-1.652-.4106-3.3504-.7991-5.0342-1.1852l2.522-10.1222-6.283-1.5689-2.5757,10.3274c-1.3685-.3128-2.7126-.6207-4.0151-.9433v-.0318l-8.6705-2.1652-1.674,6.7155s4.6652,1.0679,4.565,1.1339c2.5489.6354,3.0083,2.3216,2.9325,3.6657l-2.9325,11.7668c.2221.0576.4408.1278.6549.2102-.2102-.0513-.435-.11-.6647-.1637l-4.108,16.4833c-.3104.7747-1.0997,1.933-2.8788,1.4931.0611.0929-4.5723-1.1413-4.5723-1.1413l-3.1207,7.1994,8.1818,2.0406c1.5225.3812,3.0132.782,4.4819,1.1559l-2.6026,10.4399,6.2805,1.5665,2.5757-10.3396c1.7106.4668,3.3822.8944,5.0098,1.3025l-2.566,10.2859,6.2879,1.5689,2.6002-10.4203c10.7209,2.0283,18.7854,1.2097,22.1773-8.4848,2.7346-7.8079-.1369-12.3118-5.7771-15.2492,4.108-.9482,7.2018-3.6583,8.0278-9.2424Zm-14.3646,20.1441c-1.9428,7.8054-15.0879,3.5875-19.3523,2.5293l3.4457-13.8416c4.2693,1.063,17.9374,3.172,15.9066,11.3123Zm1.955-20.2565c-1.7742,7.1041-12.7077,3.4946-16.2634,2.61l3.1305-12.5537c3.5386.8846,14.9706,2.5342,13.1231,9.9438h.0098Z"/></g></g><path class="cls-1" d="m228.1218,258.0861c5.2986-7.4984,10.5972-14.9969,15.8957-22.4954-.2148.0124-.3531.086-.4883.1651-5.0155,2.9363-10.0278,5.8779-15.0519,8.7994-.3598.2092-.4597.4326-.4588.8263.0102,4.2348.0013,8.4697-.0023,12.7046h.1055Z"/><path class="cls-1" d="m226.9614,258.0861c-.0007-4.2507-.007-8.5015.0076-12.7521.0013-.3858-.1218-.5833-.452-.7757-5.0352-2.9322-10.0612-5.8802-15.0901-8.8233-.1269-.0742-.2615-.1351-.5103-.2626.1692.2578.2584.403.3566.5418,2.8989,4.1002,5.801,8.1981,8.6975,12.2999,2.2985,3.2549,4.5905,6.5145,6.8853,9.772h.1055Z"/><path class="cls-1" d="m228.0423,204.3172c-.0049.0521-.014.1043-.014.1564-.0008,6.2572.0029,12.5144-.0105,18.7716-.0008.3638.1763.4697.4517.5899,4.9703,2.1699,9.9373,4.3471,14.9055,6.5218.1524.0667.3095.1227.5853.2313-5.3188-8.8464-10.57-17.5803-15.8211-26.3141-.0323.0144-.0645.0288-.0968.0432Z"/><path class="cls-1" d="m211.7306,230.3147c4.9493-2.1677,9.8957-4.3419,14.852-6.4935.3638-.1579.3801-.3774.3799-.6886-.0042-6.1312-.0029-12.2625-.0044-18.3937,0-.1443-.0191-.2885-.0384-.5608-5.239,8.8007-10.4084,17.4843-15.6646,26.3139.2567-.0952.3687-.1305.4756-.1774Z"/><path class="cls-1" d="m228.0722,241.4283c5.4162-3.1687,10.7741-6.3034,16.2282-9.4943-5.4641-2.3931-10.8243-4.7407-16.2282-7.1074v16.6017Z"/><path class="cls-1" d="m210.705,231.9295c5.462,3.1989,10.8166,6.3348,16.2257,9.5027v-16.609c-5.4082,2.3686-10.7646,4.7145-16.2257,7.1063Z"/></svg>