<?xml version="1.0" encoding="UTF-8"?><svg id="Layer_1" xmlns="http://www.w3.org/2000/svg" xmlns:xlink="http://www.w3.org/1999/xlink" viewBox="0 0 287.9944 278.4472"><defs><style>.cls-1,.cls-2,.cls-3{fill:none;}.cls-4{clip-path:url(#clippath);}.cls-5{fill:#fff;}.cls-6{fill:#4a9cd5;}.cls-2,.cls-3{stroke:#fff;stroke-width:10px;}.cls-7{clip-path:url(#clippath-1);}.cls-3{stroke-miterlimit:10;}</style><clipPath id="clippath"><path class="cls-1" d="m130.5289,102.435c4.0772-13.9278,1.1098-28.9687-7.9516-40.3044l8.2866-9.9791,14.1048-5.9945s18.6889,1.3576,19.2883,1.3576,17.9131,6.8937,18.4949,8.075c.5818,1.1813-.1939,25.6002,0,26.5699s-11.6012,18.5125-11.6012,18.5125l-22.0564,7.4755-18.5654-5.7124Z"/></clipPath><clipPath id="clippath-1"><path class="cls-1" d="m95.4962,46.1569c9.8307,1.7058,18.7997,6.6748,25.4591,14.1048l-2.3273.2821c5.3397-10.6659,16.0939-17.5488,28.0156-17.9307l-1.622-16.15-8.8155-16.15-31.8416-4.7251s-18.107,8.8155-17.5076,10.5786,3.3499,17.631,3.7378,18.9886,4.9014,11.0017,4.9014,11.0017Z"/></clipPath></defs><path class="cls-6" d="m103.4851,6.1032c-10.8179,9.2871-15.5634,23.2347-15.8937,34.2785-26.3237.3945-47.7419,22.4966-47.3446,48.8565.4053,26.8946,22.3269,48.1611,49.2275,47.7566,17.9768-.2703,33.6928-10.6756,41.7038-25.6408,0,0,10.1884,4.2916,24.2548.6286.1121-.0292-.0767.2498-.1447.357-5.062,7.9795-4.0804,15.3761,1.3655,22.9393,3.357,4.6621,2.4932,8.0532-1.5234,12.1375-2.8216,2.8692-5.6472,5.7365-8.5435,8.5295-3.3376,3.2185-6.4279,3.6091-10.6156,1.4911-.3473-.1757-.728-.3158-1.0245-.557-7.3079-5.9438-15.0271-6.415-22.8234-1.2563-2.3167,1.5329-4.4825,3.7877-5.796,6.2115-1.4463,2.6689-1.7762,5.9303-2.6915,8.9031-1.4216,4.6171-3.9853,6.521-8.8791,6.5851-4.2826.0561-8.5677.0718-12.8496-.0099-4.3771-.0835-7.0152-2.1025-8.3839-6.2183-.1634-.4914-.2447-1.0094-.3896-1.5077-4.4241-15.2127-2.4626-11.3254-15.7649-17.0176-2.166-.9269-5.3368-.4637-7.7231.3254-3.0255,1.0004-5.6963,3.0438-8.5699,4.5416-4.1542,2.1652-7.2726,1.7311-10.6043-1.4974-3.0759-2.9808-6.1039-6.0133-9.0866-9.0874-3.1617-3.2586-3.6485-6.6568-1.6494-10.6488.2322-.4636.5152-.9016.7664-1.3559,6.1364-11.0978,6.3003-11.1727.9896-22.8174-1.0428-2.2865-3.6389-4.2442-5.982-5.4592-2.8247-1.4648-6.1626-1.9175-9.2445-2.9129C1.913,102.2522.0979,99.8575.0337,95.3997c-.0654-4.5436-.0155-9.0888-.0147-13.6333.0007-3.9971,1.9596-6.5897,5.6825-7.9093.6107-.2165,1.2197-.5254,1.8495-.5872,9.4182-.9242,14.7913-6.1867,17.1999-15.2234.8206-3.079,1.2505-5.733-.3881-8.548-1.566-2.6903-3.0779-5.4149-4.5269-8.17-2.1249-4.0402-1.6957-7.4069,1.4278-10.6541,3.0592-3.1803,6.1772-6.3075,9.3556-9.3685,3.1851-3.0675,6.3053-3.455,10.3016-1.4688.4643.2308.911.497,1.367.7447,11.0393,5.9973,11.1114,6.1625,22.8268,1.0444,2.3069-1.0078,4.351-3.5588,5.5621-5.8934,1.4627-2.8196,1.8511-6.1847,2.809-9.2813,1.3024-4.21,3.9079-6.2721,8.2491-6.3784,4.5402-.1112,9.0859-.0783,13.6279-.0149,4.1192.0575,6.8529,2.1638,8.1225,6.045"/><g><circle class="cls-6" cx="88.2851" cy="89.2294" r="38.4708"/><path class="cls-5" d="m104.9464,91.0101c-1.3442-1.6264-3.2157-2.7306-5.2893-3.1207,2.9532-1.3696,4.5852-4.5826,3.9493-7.7753-.078-1.2457-.4528-2.4548-1.0931-3.5262-.6201-.9875-1.4818-1.8007-2.5036-2.3625-1.0704-.5985-2.2143-1.0549-3.4028-1.3576-1.3758-.2982-2.773-.4868-4.1785-.5642v-7.6518h-4.637v7.405h-3.6849v-7.405h-4.6546v7.6518h-9.3268v4.9367h3.3499c1.3238-.1649,2.5306.7746,2.6954,2.0984.0007.0058.0014.0115.0021.0173v8.6568h.476-.476v12.1301c-.0452.8947-.8071,1.5833-1.7018,1.5382-.0204-.001-.0409-.0025-.0613-.0043h-3.3499l-.9344,5.5185h9.3268v7.7047h4.6546v-7.6166h3.6849v7.5813h4.637v-7.7047c1.471-.0573,2.9371-.2045,4.3901-.4408,1.2565-.2213,2.4859-.5759,3.6672-1.0579,1.076-.4021,2.0683-.9999,2.9267-1.7631.8301-.7489,1.4964-1.6613,1.957-2.6799.5433-1.1906.8716-2.468.9697-3.773.3993-2.2456-.0873-4.5586-1.3576-6.4529l-.0353.0176Zm-20.7517-13.4172h2.821c.587-.0396,1.1761-.0396,1.7631,0,.6277.041,1.252.1235,1.8689.2468.5663.1137,1.1211.279,1.6573.4937.5303.1898,1.0206.4768,1.4457.8463.3798.3643.6904.7944.9168,1.2694.2625.5503.3952,1.1535.3879,1.7631.0014.5243-.0942,1.0444-.2821,1.5339-.174.4469-.452.8458-.811,1.1637-.3486.2988-.7199.57-1.1107.811-.4577.2583-.9507.4484-1.4634.5642l-1.5692.335c-.5493.0815-1.1025.1345-1.6573.1587h-3.967v-9.1858Zm12.6943,20.5577c-.1793.4376-.4294.8427-.7405,1.1989-.339.3776-.7456.6886-1.1989.9168-.4585.2489-.9361.4611-1.4281.6347-.5763.1849-1.1657.3263-1.7631.4231-.6524.1234-1.2342.1939-1.7631.2468s-1.0755.0882-1.7631.1234h-4.0375v-10.2083h5.3951c.745.0451,1.4867.1334,2.2215.2645.6757.1445,1.3412.3329,1.9923.5642.6355.2032,1.2318.5132,1.7631.9168.4571.3878.8344.8609,1.1107,1.3928.5584,1.0966.6225,2.3793.1763,3.5262h.0353Z"/><g class="cls-4"><g><path class="cls-2" d="m174.9414,75.0364c.0097,14.7228-11.9176,26.6659-26.6404,26.6757-14.7228.0097-26.6659-11.9176-26.6757-26.6404-.0097-14.7228,11.9176-26.6659,26.6404-26.6757.0118,0,.0235,0,.0352,0,14.7131,0,26.6404,11.9273,26.6404,26.6404h0Z"/><path class="cls-6" d="m174.9414,75.0364c.0097,14.7228-11.9176,26.6659-26.6404,26.6757-14.7228.0097-26.6659-11.9176-26.6757-26.6404-.0097-14.7228,11.9176-26.6659,26.6404-26.6757.0118,0,.0235,0,.0352,0,14.7131,0,26.6404,11.9273,26.6404,26.6404h0Z"/></g><polygon class="cls-5" points="147.3489 82.2651 148.9886 75.2128 152.1974 74.0667 152.1974 70.5405 149.8701 71.4221 152.4266 60.2793 142.9588 60.2793 139.4326 75.3538 136.2237 76.5703 136.2237 80.0965 138.5687 79.1974 136.6821 87.7308 158.9677 87.7308 160.3253 82.2651 147.3489 82.2651"/></g><g class="cls-7"><path class="cls-6" d="m138.2866,36.3349c0,11.2953-9.1566,20.4519-20.4519,20.452-11.2953,0-20.4519-9.1566-20.452-20.4519,0-11.2953,9.1566-20.452,20.4519-20.452h0c11.2953,0,20.4519,9.1566,20.4519,20.4519Zm-20.1017,15.2481c2.9975-4.2419,5.9949-8.4839,8.9924-12.7258-.1215.007-.1998.0487-.2762.0934-2.8373,1.6611-5.6728,3.3252-8.515,4.9779-.2035.1184-.2601.2447-.2595.4674.0057,2.3957.0008,4.7914-.0013,7.1871h.0597Zm-.6565,0c-.0004-2.4047-.004-4.8094.0043-7.214.0008-.2182-.0689-.33-.2557-.4388-2.8485-1.6588-5.6917-3.3265-8.5366-4.9914-.0718-.042-.1479-.0764-.2887-.1485.0957.1458.1462.228.2017.3065,1.6399,2.3195,3.2817,4.6377,4.9203,6.9582,1.3003,1.8413,2.5969,3.6853,3.8951,5.5281h.0597Zm.6115-30.4175c-.0028.0295-.0079.059-.0079.0885-.0004,3.5398.0016,7.0795-.0059,10.6193-.0004.2058.0998.2657.2555.3337,2.8117,1.2275,5.6216,2.4592,8.4322,3.6894.0862.0377.1751.0694.3311.1308-3.0089-5.0045-5.9795-9.9453-8.9501-14.8861-.0183.0082-.0365.0163-.0548.0245Zm-9.2277,14.707c2.7999-1.2263,5.5981-2.4562,8.4019-3.6734.2058-.0893.215-.2135.2149-.3895-.0024-3.4685-.0016-6.937-.0025-10.4055,0-.0816-.0108-.1632-.0217-.3172-2.9638,4.9786-5.8881,9.891-8.8616,14.886.1452-.0539.2086-.0738.269-.1003Zm9.2446,6.2871c3.064-1.7926,6.095-3.5659,9.1805-5.371-3.0911-1.3538-6.1234-2.6819-9.1805-4.0207v9.3918Zm-9.8248-5.3736c3.0899,1.8096,6.1191,3.5837,9.1791,5.3758v-9.3959c-3.0595,1.3399-6.0896,2.667-9.1791,4.0201Z"/></g></g><path class="cls-6" d="m229.8247,35.1176c-1.081,0-1.8234-.0001-2.5659,0-19.7693.0031-39.5385.0002-59.3077.0136-5.1263.0035-9.0612-3.6245-9.2174-8.5572-.1576-4.9781,3.7402-9.0727,8.9803-9.1632,6.3971-.1105,12.7976-.0233,19.1967-.0231,16.8099.0004,33.6198-.0004,50.4297,0,6.7895.0001,10.1959,3.3987,10.1972,10.19.0033,17.0958.0051,66.2842-.0016,83.38-.0023,5.7594-3.4399,9.5196-8.7191,9.5756-5.3414.0566-8.9826-3.8231-8.9878-9.6387-.013-14.4158-.0043-60.9242-.0043-75.777Z"/><path class="cls-6" d="m61.6343,225.5567c4.4306,0,8.5175.002,12.6043-.0003,16.4195-.0094,64.9319-.0491,81.3513-.0126,4.9073.0109,8.6612,3.2817,9.1739,7.7375.5127,4.4545-2.1015,8.5149-6.2995,9.6567-.9012.2452-1.8797.2851-2.8227.2857-23.4872.0161-79.0671.0247-102.5542.0077-5.4877-.004-9.185-3.6151-9.1971-9.1099-.0391-17.6643-.0327-35.3288.023-52.9931.0154-4.8903,4.0231-8.8995,8.6521-8.9125,5.1102-.0144,9.0332,3.8391,9.0499,9.0709.0434,13.6541.0174,27.3085.019,40.9628.0001.9441,0,1.8883,0,3.3071Z"/><path class="cls-6" d="m230.7149,224.022c-10.6989,0-21.398.0463-32.0966-.0136-9.8484-.0551-14.132-7.596-9.1189-16.046,10.6053-17.8763,21.2377-35.7365,31.9026-53.5772,4.8747-8.1546,13.5496-8.1566,18.4479-.004,10.7049,17.8171,21.3815,35.6513,32.021,53.5075,5.0207,8.4262.7232,16.0647-9.0594,16.1197-10.6985.0601-21.3977.0137-32.0966.0137Zm-5.478-51.0565c.5946,6.9726,1.1223,13.0504,1.6263,19.1302.1852,2.2342,1.1762,4.2611,3.4841,3.9799,1.419-.1729,3.6185-1.9105,3.7754-3.1582.9214-7.3237,1.4755-14.7031,1.8687-22.079.1499-2.8122-1.7317-4.5465-4.5406-4.9188-2.7737-.3676-4.9202.8044-5.8643,3.4217-.4949,1.3721-.3006,2.9927-.3496,3.6242Zm11.3438,33.8973c.0931-3.0964-2.5579-5.9122-5.7027-6.0572-3.1354-.1446-5.9569,2.4168-6.1422,5.576-.1951,3.3256,2.4689,6.1492,5.8337,6.1831,3.1928.0322,5.9166-2.5514,6.0113-5.7019Z"/><g><g><path class="cls-3" d="m239.197,247.2653c30.7373-3.9439,52.2814-31.9788,48.3303-62.8913-3.9188-30.6598-31.9905-52.3669-62.6521-48.3638-31.1133,4.0621-52.5568,32.6869-48.1176,63.653,4.3332,30.2263,31.9949,51.5611,62.4394,47.6021Zm-48.154-50.3225c-3.0067-22.278,12.9551-43.4151,35.038-46.3984,22.8645-3.0888,43.8932,12.6047,46.952,35.0398,3.1641,23.2073-12.4506,44.0033-35.3853,47.1268-22.877,3.1157-43.4922-12.7061-46.6047-35.7682Z"/><path class="cls-3" d="m205.0513,246.2303c-7.3036-3.6219-13.5098-8.5126-18.8876-14.6378-.3727.3828-.663.6284-.8908.9227-6.6611,8.6071-13.3551,17.189-19.9586,25.8404-4.6857,6.1389-3.4234,14.0855,2.7546,18.1128,4.9057,3.198,11.7681,2.5219,15.4257-2.0453,7.2574-9.0624,14.2368-18.3491,21.3254-27.5476.0937-.1215.1116-.3018.2314-.6453Z"/></g><g><path class="cls-5" d="m239.197,247.2653c30.7373-3.9439,52.2814-31.9788,48.3303-62.8913-3.9188-30.6598-31.9905-52.3669-62.6521-48.3638-31.1133,4.0621-52.5568,32.6869-48.1176,63.653,4.3332,30.2263,31.9949,51.5611,62.4394,47.6021Zm-48.154-50.3225c-3.0067-22.278,12.9551-43.4151,35.038-46.3984,22.8645-3.0888,43.8932,12.6047,46.952,35.0398,3.1641,23.2073-12.4506,44.0033-35.3853,47.1268-22.877,3.1157-43.4922-12.7061-46.6047-35.7682Z"/><path class="cls-5" d="m205.0513,246.2303c-7.3036-3.6219-13.5098-8.5126-18.8876-14.6378-.3727.3828-.663.6284-.8908.9227-6.6611,8.6071-13.3551,17.189-19.9586,25.8404-4.6857,6.1389-3.4234,14.0855,2.7546,18.1128,4.9057,3.198,11.7681,2.5219,15.4257-2.0453,7.2574-9.0624,14.2368-18.3491,21.3254-27.5476.0937-.1215.1116-.3018.2314-.6453Z"/></g><g><path class="cls-6" d="m239.197,247.2653c30.7373-3.9439,52.2814-31.9788,48.3303-62.8913-3.9188-30.6598-31.9905-52.3669-62.6521-48.3638-31.1133,4.0621-52.5568,32.6869-48.1176,63.653,4.3332,30.2263,31.9949,51.5611,62.4394,47.6021Zm-48.154-50.3225c-3.0067-22.278,12.9551-43.4151,35.038-46.3984,22.8645-3.0888,43.8932,12.6047,46.952,35.0398,3.1641,23.2073-12.4506,44.0033-35.3853,47.1268-22.877,3.1157-43.4922-12.7061-46.6047-35.7682Z"/><path class="cls-6" d="m205.0513,246.2303c-7.3036-3.6219-13.5098-8.5126-18.8876-14.6378-.3727.3828-.663.6284-.8908.9227-6.6611,8.6071-13.3551,17.189-19.9586,25.8404-4.6857,6.1389-3.4234,14.0855,2.7546,18.1128,4.9057,3.198,11.7681,2.5219,15.4257-2.0453,7.2574-9.0624,14.2368-18.3491,21.3254-27.5476.0937-.1215.1116-.3018.2314-.6453Z"/></g></g></svg>