<?xml version="1.0" encoding="UTF-8"?><svg id="Layer_1" xmlns="http://www.w3.org/2000/svg" xmlns:xlink="http://www.w3.org/1999/xlink" viewBox="0 0 289.6432 259.0889"><defs><style>.cls-1,.cls-2,.cls-3,.cls-4,.cls-5,.cls-6{fill:none;}.cls-2,.cls-3{stroke:#4a9cd5;stroke-miterlimit:10;}.cls-2,.cls-6{stroke-width:3px;}.cls-3{stroke-width:6px;}.cls-7{clip-path:url(#clippath);}.cls-8{fill:#fff;}.cls-9{fill:#4a9cd5;}.cls-4{stroke:#fbfbfb;stroke-width:2px;}.cls-10{clip-path:url(#clippath-1);}.cls-11{clip-path:url(#clippath-2);}.cls-5{stroke-width:13px;}.cls-5,.cls-6{stroke:#fff;}</style><clipPath id="clippath"><circle class="cls-1" cx="42.34" cy="215.381" r="42.34"/></clipPath><clipPath id="clippath-1"><circle class="cls-1" cx="144.7033" cy="215.381" r="42.34"/></clipPath><clipPath id="clippath-2"><circle class="cls-1" cx="247.0667" cy="215.381" r="42.34"/></clipPath></defs><g class="cls-7"><g><g><path class="cls-4" d="m76.9944,244.1189c-.0085,2.6067.1363,5.2285-.1155,7.8117-.0844.8661-1.0306,2.1355-1.8338,2.3732-21.8255,6.4603-43.658,6.3318-65.4859-.0972-1.581-.4657-2.0066-1.2428-1.9762-2.7695.092-4.6104.1574-9.2252.0593-13.8346-.1811-8.5088,6.9444-14.3051,14.985-14.2495,4.2823.0296,8.6252,1.394,12.8128,2.6002,5.8595,1.6878,11.3457,1.0408,16.9894-1.0505,8.1447-3.0181,18.0115-2.1256,22.6961,5.8306,1.0614,1.8027,1.5542,4.0641,1.8237,6.1763.3019,2.3665.0527,4.8032.045,7.2094Z"/><path class="cls-4" d="m24.1503,204.778c.0722-11.0296,7.3945-19.6751,16.7821-20.3838,11.4837-.867,21.1144,9.5279,19.7989,21.5471-.8913,8.1433-4.5367,14.4653-12.6728,17.3478-10.7624,3.8131-22.3421-4.0604-23.7489-16.0889-.116-.9918-.1325-1.9952-.1594-2.4222Z"/></g><g><path class="cls-9" d="m76.9944,244.1189c-.0085,2.6067.1363,5.2285-.1155,7.8117-.0844.8661-1.0306,2.1355-1.8338,2.3732-21.8255,6.4603-43.658,6.3318-65.4859-.0972-1.581-.4657-2.0066-1.2428-1.9762-2.7695.092-4.6104.1574-9.2252.0593-13.8346-.1811-8.5088,6.9444-14.3051,14.985-14.2495,4.2823.0296,8.6252,1.394,12.8128,2.6002,5.8595,1.6878,11.3457,1.0408,16.9894-1.0505,8.1447-3.0181,18.0115-2.1256,22.6961,5.8306,1.0614,1.8027,1.5542,4.0641,1.8237,6.1763.3019,2.3665.0527,4.8032.045,7.2094Z"/><path class="cls-9" d="m24.1503,204.778c.0722-11.0296,7.3945-19.6751,16.7821-20.3838,11.4837-.867,21.1144,9.5279,19.7989,21.5471-.8913,8.1433-4.5367,14.4653-12.6728,17.3478-10.7624,3.8131-22.3421-4.0604-23.7489-16.0889-.116-.9918-.1325-1.9952-.1594-2.4222Z"/></g></g></g><path class="cls-9" d="m84.9165,215.5593c0,23.3837-18.9563,42.34-42.34,42.34S.2366,238.943.2366,215.5593s18.9563-42.34,42.34-42.34,42.34,18.9563,42.34,42.34Zm-42.34-39.1574c-21.626,0-39.1574,17.5313-39.1574,39.1574s17.5313,39.1574,39.1574,39.1574,39.1574-17.5313,39.1574-39.1574-17.5313-39.1574-39.1574-39.1574Z"/><g class="cls-10"><g><g><path class="cls-4" d="m179.3578,244.1189c-.0085,2.6067.1363,5.2285-.1155,7.8117-.0844.8661-1.0306,2.1355-1.8338,2.3732-21.8255,6.4603-43.658,6.3318-65.4859-.0972-1.581-.4657-2.0066-1.2428-1.9762-2.7695.092-4.6104.1574-9.2252.0593-13.8346-.1811-8.5088,6.9444-14.3051,14.985-14.2495,4.2823.0296,8.6252,1.394,12.8128,2.6002,5.8595,1.6878,11.3457,1.0408,16.9894-1.0505,8.1447-3.0181,18.0115-2.1256,22.6961,5.8306,1.0614,1.8027,1.5542,4.0641,1.8237,6.1763.3019,2.3665.0527,4.8032.045,7.2094Z"/><path class="cls-4" d="m126.5137,204.778c.0722-11.0296,7.3945-19.6751,16.7821-20.3838,11.4837-.867,21.1144,9.5279,19.7989,21.5471-.8913,8.1433-4.5367,14.4653-12.6728,17.3478-10.7624,3.8131-22.3421-4.0604-23.7489-16.0889-.116-.9918-.1325-1.9952-.1594-2.4222Z"/></g><g><path class="cls-9" d="m179.3578,244.1189c-.0085,2.6067.1363,5.2285-.1155,7.8117-.0844.8661-1.0306,2.1355-1.8338,2.3732-21.8255,6.4603-43.658,6.3318-65.4859-.0972-1.581-.4657-2.0066-1.2428-1.9762-2.7695.092-4.6104.1574-9.2252.0593-13.8346-.1811-8.5088,6.9444-14.3051,14.985-14.2495,4.2823.0296,8.6252,1.394,12.8128,2.6002,5.8595,1.6878,11.3457,1.0408,16.9894-1.0505,8.1447-3.0181,18.0115-2.1256,22.6961,5.8306,1.0614,1.8027,1.5542,4.0641,1.8237,6.1763.3019,2.3665.0527,4.8032.045,7.2094Z"/><path class="cls-9" d="m126.5137,204.778c.0722-11.0296,7.3945-19.6751,16.7821-20.3838,11.4837-.867,21.1144,9.5279,19.7989,21.5471-.8913,8.1433-4.5367,14.4653-12.6728,17.3478-10.7624,3.8131-22.3421-4.0604-23.7489-16.0889-.116-.9918-.1325-1.9952-.1594-2.4222Z"/></g></g></g><path class="cls-9" d="m187.2799,215.5593c0,23.3837-18.9563,42.34-42.34,42.34s-42.34-18.9563-42.34-42.34,18.9563-42.34,42.34-42.34,42.34,18.9563,42.34,42.34Zm-42.34-39.1574c-21.626,0-39.1574,17.5313-39.1574,39.1574s17.5313,39.1574,39.1574,39.1574,39.1574-17.5313,39.1574-39.1574-17.5313-39.1574-39.1574-39.1574Z"/><g class="cls-11"><g><g><path class="cls-4" d="m281.7212,244.1189c-.0085,2.6067.1363,5.2285-.1155,7.8117-.0844.8661-1.0306,2.1355-1.8338,2.3732-21.8255,6.4603-43.658,6.3318-65.4859-.0972-1.581-.4657-2.0066-1.2428-1.9762-2.7695.092-4.6104.1574-9.2252.0593-13.8346-.1811-8.5088,6.9444-14.3051,14.985-14.2495,4.2823.0296,8.6252,1.394,12.8128,2.6002,5.8595,1.6878,11.3457,1.0408,16.9894-1.0505,8.1447-3.0181,18.0115-2.1256,22.6961,5.8306,1.0614,1.8027,1.5542,4.0641,1.8237,6.1763.3019,2.3665.0527,4.8032.045,7.2094Z"/><path class="cls-4" d="m228.8771,204.778c.0722-11.0296,7.3945-19.6751,16.7821-20.3838,11.4837-.867,21.1144,9.5279,19.7989,21.5471-.8913,8.1433-4.5367,14.4653-12.6728,17.3478-10.7624,3.8131-22.3421-4.0604-23.7489-16.0889-.116-.9918-.1325-1.9952-.1594-2.4222Z"/></g><g><path class="cls-9" d="m281.7212,244.1189c-.0085,2.6067.1363,5.2285-.1155,7.8117-.0844.8661-1.0306,2.1355-1.8338,2.3732-21.8255,6.4603-43.658,6.3318-65.4859-.0972-1.581-.4657-2.0066-1.2428-1.9762-2.7695.092-4.6104.1574-9.2252.0593-13.8346-.1811-8.5088,6.9444-14.3051,14.985-14.2495,4.2823.0296,8.6252,1.394,12.8128,2.6002,5.8595,1.6878,11.3457,1.0408,16.9894-1.0505,8.1447-3.0181,18.0115-2.1256,22.6961,5.8306,1.0614,1.8027,1.5542,4.0641,1.8237,6.1763.3019,2.3665.0527,4.8032.045,7.2094Z"/><path class="cls-9" d="m228.8771,204.778c.0722-11.0296,7.3945-19.6751,16.7821-20.3838,11.4837-.867,21.1144,9.5279,19.7989,21.5471-.8913,8.1433-4.5367,14.4653-12.6728,17.3478-10.7624,3.8131-22.3421-4.0604-23.7489-16.0889-.116-.9918-.1325-1.9952-.1594-2.4222Z"/></g></g></g><path class="cls-9" d="m289.6432,215.5593c0,23.3837-18.9563,42.34-42.34,42.34s-42.34-18.9563-42.34-42.34,18.9563-42.34,42.34-42.34,42.34,18.9563,42.34,42.34Zm-42.34-39.1574c-21.626,0-39.1574,17.5313-39.1574,39.1574s17.5313,39.1574,39.1574,39.1574,39.1574-17.5313,39.1574-39.1574-17.5313-39.1574-39.1574-39.1574Z"/><g><circle class="cls-6" cx="235.3465" cy="57.8099" r="39.1328"/><circle class="cls-9" cx="235.3465" cy="57.8099" r="39.1328"/></g><g><g><circle class="cls-6" cx="55.5703" cy="57.8099" r="39.1328"/><path class="cls-6" d="m39.2811,68.4021c.2752-.275.6483-.4294,1.0373-.4294h35.8904c.4052,0,.7337.3285.7337.7337,0,.1947-.0774.3814-.2151.5191l-7.0919,7.0863c-.2752.275-.6482.4295-1.0373.4295h-35.8904c-.4052,0-.7337-.3286-.7337-.7338,0-.1947.0774-.3814.2151-.519l7.0919-7.0863Z"/><path class="cls-6" d="m39.2811,41.9284c.2752-.275.6483-.4294,1.0373-.4294h35.8904c.4052,0,.7337.3286.7337.7338,0,.1947-.0774.3814-.2151.519l-7.0919,7.0862c-.2752.2749-.6483.4294-1.0373.4294h-35.8904c-.4052,0-.7337-.3285-.7337-.7337,0-.1947.0774-.3814.2151-.519l7.0919-7.0863Z"/><path class="cls-6" d="m69.6355,55.081c-.2752-.2749-.6483-.4294-1.0373-.4294h-35.8904c-.4052,0-.7337.3284-.7337.7336,0,.1947.0774.3814.2151.519l7.0919,7.0863c.2752.2749.6483.4294,1.0373.4294h35.8904c.4052,0,.7337-.3285.7337-.7338,0-.1947-.0774-.3814-.2151-.519l-7.0919-7.0862Z"/></g><g><circle class="cls-9" cx="55.5703" cy="57.8099" r="39.1328"/><path class="cls-8" d="m39.2811,68.4021c.2752-.275.6483-.4294,1.0373-.4294h35.8904c.4052,0,.7337.3285.7337.7337,0,.1947-.0774.3814-.2151.5191l-7.0919,7.0863c-.2752.275-.6482.4295-1.0373.4295h-35.8904c-.4052,0-.7337-.3286-.7337-.7338,0-.1947.0774-.3814.2151-.519l7.0919-7.0863Z"/><path class="cls-8" d="m39.2811,41.9284c.2752-.275.6483-.4294,1.0373-.4294h35.8904c.4052,0,.7337.3286.7337.7338,0,.1947-.0774.3814-.2151.519l-7.0919,7.0862c-.2752.2749-.6483.4294-1.0373.4294h-35.8904c-.4052,0-.7337-.3285-.7337-.7337,0-.1947.0774-.3814.2151-.519l7.0919-7.0863Z"/><path class="cls-8" d="m69.6355,55.081c-.2752-.2749-.6483-.4294-1.0373-.4294h-35.8904c-.4052,0-.7337.3284-.7337.7336,0,.1947.0774.3814.2151.519l7.0919,7.0863c.2752.2749.6483.4294,1.0373.4294h35.8904c.4052,0,.7337-.3285.7337-.7338,0-.1947-.0774-.3814-.2151-.519l-7.0919-7.0862Z"/></g></g><g><g><circle class="cls-5" cx="146.9299" cy="56.5001" r="56.5001"/><path class="cls-5" d="m171.1174,47.4049c1.1238-7.508-4.5914-11.5508-12.4099-14.2363l2.5364-10.1719-6.1917-1.5425-2.469,9.9024c-1.6267-.4043-3.2992-.7869-4.9572-1.1671l2.4834-9.9674-6.1869-1.5449-2.5364,10.1695c-1.3476-.308-2.6711-.6112-3.9537-.9289v-.0313l-8.5379-2.1321-1.6484,6.6128s4.5938,1.0516,4.4952,1.1166c2.5099.6257,2.9623,2.2861,2.8877,3.6096l-2.8877,11.5869c.2187.0568.434.1259.6449.207-.207-.0505-.4283-.1083-.6545-.1612l-4.0452,16.2312c-.3056.7628-1.0829,1.9035-2.8348,1.4703.0602.0914-4.5024-1.1238-4.5024-1.1238l-3.073,7.0893,8.0567,2.0094c1.4992.3754,2.9671.7701,4.4134,1.1382l-2.5628,10.2802,6.1845,1.5425,2.5364-10.1815c1.6845.4596,3.3305.8807,4.9331,1.2826l-2.5267,10.1286,6.1917,1.5449,2.5604-10.2609c10.5569,1.9973,18.4981,1.1912,21.8382-8.3551,2.6928-7.6885-.1348-12.1235-5.6888-15.016,4.0452-.9337,7.0917-3.6024,7.9051-9.101Zm-14.1449,19.836c-1.9131,7.6861-14.8572,3.5326-19.0564,2.4906l3.393-13.6299c4.204,1.0468,17.6631,3.1235,15.6633,11.1393Zm1.9251-19.9467c-1.7471,6.9954-12.5133,3.4412-16.0147,2.57l3.0826-12.3617c3.4845.8711,14.7417,2.4954,12.9224,9.7917h.0096Z"/></g><g><circle class="cls-9" cx="146.9299" cy="56.5001" r="56.5001"/><path class="cls-8" d="m171.1174,47.4049c1.1238-7.508-4.5914-11.5508-12.4099-14.2363l2.5364-10.1719-6.1917-1.5425-2.469,9.9024c-1.6267-.4043-3.2992-.7869-4.9572-1.1671l2.4834-9.9674-6.1869-1.5449-2.5364,10.1695c-1.3476-.308-2.6711-.6112-3.9537-.9289v-.0313l-8.5379-2.1321-1.6484,6.6128s4.5938,1.0516,4.4952,1.1166c2.5099.6257,2.9623,2.2861,2.8877,3.6096l-2.8877,11.5869c.2187.0568.434.1259.6449.207-.207-.0505-.4283-.1083-.6545-.1612l-4.0452,16.2312c-.3056.7628-1.0829,1.9035-2.8348,1.4703.0602.0914-4.5024-1.1238-4.5024-1.1238l-3.073,7.0893,8.0567,2.0094c1.4992.3754,2.9671.7701,4.4134,1.1382l-2.5628,10.2802,6.1845,1.5425,2.5364-10.1815c1.6845.4596,3.3305.8807,4.9331,1.2826l-2.5267,10.1286,6.1917,1.5449,2.5604-10.2609c10.5569,1.9973,18.4981,1.1912,21.8382-8.3551,2.6928-7.6885-.1348-12.1235-5.6888-15.016,4.0452-.9337,7.0917-3.6024,7.9051-9.101Zm-14.1449,19.836c-1.9131,7.6861-14.8572,3.5326-19.0564,2.4906l3.393-13.6299c4.204,1.0468,17.6631,3.1235,15.6633,11.1393Zm1.9251-19.9467c-1.7471,6.9954-12.5133,3.4412-16.0147,2.57l3.0826-12.3617c3.4845.8711,14.7417,2.4954,12.9224,9.7917h.0096Z"/></g></g><path class="cls-8" d="m238.1092,83.5401c5.2175-7.3838,10.4351-14.7676,15.6526-22.1513-.2115.0122-.3477.0847-.4808.1626-4.9388,2.8914-9.8744,5.788-14.8217,8.6648-.3543.206-.4527.426-.4518.8136.01,4.1701.0013,8.3402-.0022,12.5103h.1039Z"/><path class="cls-8" d="m236.9665,83.5401c-.0007-4.1857-.0069-8.3715.0075-12.5571.0013-.3799-.1199-.5744-.4451-.7638-4.9582-2.8874-9.9074-5.7902-14.8593-8.6883-.1249-.0731-.2575-.1331-.5025-.2586.1667.2539.2545.3968.3511.5335,2.8545,4.0375,5.7122,8.0727,8.5645,12.1118,2.2634,3.2051,4.5203,6.4148,6.78,9.6225h.1039Z"/><path class="cls-8" d="m238.0308,30.5935c-.0048.0513-.0138.1027-.0138.154-.0007,6.1615.0028,12.323-.0103,18.4845-.0008.3582.1736.4625.4448.5809,4.8943,2.1367,9.7854,4.2806,14.6776,6.422.1501.0657.3047.1208.5763.2277-5.2375-8.7111-10.4083-17.3114-15.5792-25.9117-.0318.0142-.0635.0284-.0953.0426Z"/><path class="cls-8" d="m221.9686,56.1934c4.8736-2.1345,9.7444-4.2755,14.6248-6.3942.3582-.1555.3743-.3716.3741-.678-.0041-6.0375-.0029-12.0749-.0043-18.1124,0-.142-.0189-.2841-.0378-.5522-5.1589,8.6661-10.2492,17.2169-15.4251,25.9114.2528-.0938.363-.1285.4683-.1746Z"/><path class="cls-8" d="m238.0604,67.137c5.3334-3.1203,10.6094-6.207,15.9801-9.3491-5.3805-2.3565-10.6587-4.6682-15.9801-6.9987v16.3478Z"/><path class="cls-8" d="m220.9587,57.7835c5.3785,3.1499,10.6512,6.2379,15.9776,9.3574v-16.355c-5.3255,2.3324-10.6,4.6424-15.9776,6.9976Z"/><path class="cls-3" d="m122.2643,102.0143v10.9096c0,5.5-4.5,10-10,10h-59.6877c-5.5,0-10,4.5-10,10v40.2954"/><path class="cls-3" d="m170.1175,102.0143v10.9096c0,5.5,4.5,10,10,10h55.9329c5.5,0,10,4.5,10,10v40.2954"/><line class="cls-3" x1="144.9299" y1="113.0002" x2="144.9299" y2="173.81"/><path class="cls-2" d="m55.5703,96.9427v39.8538c0,5.5,4.5,10,10,10h157.0976c5.5,0,10,4.5,10,10v19.6054"/><path class="cls-2" d="m215.8191,83.5401v42.2628c0,5.5-4.5,10-10,10h-114.0852c-5.5,0-10,4.5-10,10v30.599c0,5.5-2.4848,10-5.5218,10h-5.5218"/><path class="cls-2" d="m247.3033,95.0752v12.925c0,2.75,2.25,5,5,5h3.7415c2.75,0,5,2.25,5,5v58.4017"/></svg>