<?xml version="1.0" encoding="UTF-8"?><svg id="Layer_1" xmlns="http://www.w3.org/2000/svg" xmlns:xlink="http://www.w3.org/1999/xlink" viewBox="0 0 497.8105 297.78"><defs><style>.cls-1{fill:none;}.cls-2{letter-spacing:-.01em;}.cls-3{letter-spacing:-.023em;}.cls-4{clip-path:url(#clippath);}.cls-5{letter-spacing:-.02em;}.cls-6{letter-spacing:.007em;}.cls-7{fill:#f28c63;}.cls-8,.cls-9{fill:#f7941d;}.cls-10{fill:#fff;}.cls-11{fill:#fb9b67;}.cls-12{fill:#00a651;}.cls-13{fill:#e07f57;}.cls-14,.cls-15{fill:#71a600;}.cls-16{fill:#3d2d2c;}.cls-17{fill:#4a9cd5;}.cls-18,.cls-19{fill:#4f9dd6;}.cls-20,.cls-21,.cls-22{fill:#274666;}.cls-21{font-family:MonsalGothic-Bold, 'Monsal Gothic';font-size:15px;font-weight:700;}.cls-23{letter-spacing:-.012em;}.cls-24{fill:#be1e2d;}.cls-24,.cls-25,.cls-9,.cls-15{opacity:.3;}.cls-24,.cls-25,.cls-9,.cls-15,.cls-26{isolation:isolate;}.cls-25{fill:#9cb505;}.cls-27{letter-spacing:-.024em;}.cls-22{font-family:MonsalGothic-Regular, 'Monsal Gothic';font-size:17px;}.cls-26{opacity:.1;}.cls-28{clip-path:url(#clippath-1);}.cls-29{clip-path:url(#clippath-2);}.cls-30{letter-spacing:-.004em;}.cls-31{letter-spacing:-.016em;}.cls-32{letter-spacing:-.016em;}.cls-33{letter-spacing:-.008em;}.cls-19{fill-rule:evenodd;}.cls-34{letter-spacing:-.01em;}.cls-35{letter-spacing:-.013em;}</style><clipPath id="clippath"><rect class="cls-1" x="276.4" y="176.88" width="32.5" height="28.2"/></clipPath><clipPath id="clippath-1"><rect class="cls-1" x="277.5" y="238.58" width="29.2" height="31.4"/></clipPath><clipPath id="clippath-2"><path class="cls-1" d="m285.2,117.68l7,10.4,7.6-9.9,3.6-.3,4.4,1s.3,4.1.2,4.4.4,9.5.1,9.9-3.8,2.2-3.8,2.2c0,0-13.8,2.6-14,2.4-.1-.1-8.3-1.6-8.6-1.8-.3-.2-3.4-.9-3.5-1.2s-1.1-4.9-1.1-4.9l.4-6.6.2-4.8,3-1.4,4.5.6Z"/></clipPath></defs><path class="cls-20" d="m283.2,26.08c2.4-1.6,4.1-3.9,4.1-6.8,0-4.2-3.3-6.5-9.1-6.5-2.4,0-6.1.5-8,1l.9,5.5c1.5-.5,4.2-1,6.2-1,2.9,0,3.6,1,3.6,2.4,0,1.8-1.7,3.8-7.8,3.8v4.7c5.2-.2,8.7,1.5,8.7,3.9,0,2.1-2,3.3-4.6,3.3-2.4,0-4.8-.5-7.1-1.3l-1,5.5c2.2.6,4.8,1.5,8.1,1.5,7.6,0,11.2-3.9,11.2-8.6-.1-3.2-1.9-5.7-5.2-7.4h0Zm24.5.7c1.9-1.3,3.8-3.5,3.8-6.5,0-4.2-3.8-7.5-9.4-7.5-5.4,0-9.9,2.9-9.9,7.8,0,2.8,1.6,4.7,4,6.4-3.2,1.8-4.6,4.3-4.6,6.9,0,4.9,4.6,8.2,10.4,8.2,5.6,0,10.5-3.1,10.5-8.4,0-3.4-2.2-5.4-4.8-6.9h0Zm-5.8-9.3c2,0,3.8,1.3,3.8,4,0,1.5-.7,2.6-1.8,3.4-3.2-1.4-5.5-2.5-5.5-4.6.1-1.6,1.5-2.8,3.5-2.8Zm.1,19.8c-2.2,0-4.5-1.3-4.5-4.4,0-1.6.9-2.9,2.6-3.9.2.1.4.2.6.3,3.1,1.5,5.5,2.5,5.5,4.7,0,2-2,3.3-4.2,3.3h0Zm18.2,4.8c2,0,3.6-1.6,3.6-3.7s-1.6-3.8-3.6-3.8-3.6,1.7-3.6,3.8c0,2,1.6,3.7,3.6,3.7Zm20.9-28.8h-3.6l-10.9,3.7,1.6,4.9,6.7-2.2v21.8h6.3l-.1-28.2h0Zm23.5.1h-18.1v5.2h11.3l-9.4,23h6.5l10.5-25.2-.8-3h0Z"/><path class="cls-12" d="m274.2,55.58h26c3.6,0,6.5,2.9,6.5,6.5h0c0,3.6-2.9,6.5-6.5,6.5h-26c-3.6,0-6.5-2.9-6.5-6.5h0c0-3.6,2.9-6.5,6.5-6.5Z"/><path class="cls-25" d="m360.9,55.58h26c3.6,0,6.5,2.9,6.5,6.5h0c0,3.6-2.9,6.5-6.5,6.5h-26c-3.6,0-6.5-2.9-6.5-6.5h0c0-3.6,2.9-6.5,6.5-6.5Z"/><path class="cls-15" d="m317.5,55.58h26c3.6,0,6.5,2.9,6.5,6.5h0c0,3.6-2.9,6.5-6.5,6.5h-26c-3.6,0-6.5-2.9-6.5-6.5h0c0-3.6,3-6.5,6.5-6.5Z"/><path class="cls-9" d="m404.2,55.58h26c3.6,0,6.5,2.9,6.5,6.5h0c0,3.6-2.9,6.5-6.5,6.5h-26c-3.6,0-6.5-2.9-6.5-6.5h0c0-3.6,2.9-6.5,6.5-6.5Z"/><path class="cls-24" d="m448.6,55.58h26c3.6,0,6.5,2.9,6.5,6.5h0c0,3.6-2.9,6.5-6.5,6.5h-26c-3.6,0-6.5-2.9-6.5-6.5h0c0-3.6,2.9-6.5,6.5-6.5Z"/><path class="cls-14" d="m340.3,68.58h-22.7c-3.6,0-6.5-2.9-6.5-6.5h0c0-3.6,2.9-6.5,6.5-6.5h22.7v13Z"/><path class="cls-10" d="m273.1,93.48h189.5c3,0,5.4,2.4,5.4,5.4v47.6c0,3-2.4,5.4-5.4,5.4h-189.5c-3,0-5.4-2.4-5.4-5.4v-47.6c0-3,2.5-5.4,5.4-5.4Z"/><path class="cls-12" d="m326.6,127.08h-1.8l-5.5,1.8.8,2.5,3.3-1.1v10.9h3.2v-14.1h0Zm9.6,0h-1.8l-5.5,1.8.8,2.5,3.3-1.1v10.9h3.2v-14.1h0Zm4.8,14.3c1,0,1.8-.8,1.8-1.9,0-1-.8-1.9-1.8-1.9s-1.8.8-1.8,1.9c0,1.1.8,1.9,1.8,1.9Zm11.9-7.6c1-.7,1.9-1.7,1.9-3.2,0-2.1-1.9-3.7-4.7-3.7-2.7,0-4.9,1.5-4.9,3.9,0,1.4.8,2.4,2,3.2-1.6.9-2.3,2.2-2.3,3.5,0,2.4,2.3,4.1,5.2,4.1,2.8,0,5.2-1.5,5.2-4.2,0-1.9-1.1-2.9-2.4-3.6h0Zm-2.9-4.7c1,0,1.9.7,1.9,2,0,.8-.4,1.3-.9,1.7-1.6-.7-2.7-1.2-2.7-2.3,0-.8.7-1.4,1.7-1.4Zm0,9.9c-1.1,0-2.3-.7-2.3-2.2,0-.8.5-1.4,1.3-1.9.1.1.2.1.3.2,1.6.8,2.8,1.2,2.8,2.3,0,1-1,1.6-2.1,1.6h0Zm11.6-12.2c-3.6,0-5,2.6-5,4.7,0,2.6,1.9,4.3,4.4,4.3.6,0,1.4-.1,2.1-.4-.8,1.8-2.6,3.2-5.5,3.6l.5,2.6c5.6-.6,8.8-3.8,8.8-8.7.1-3.5-1.6-6.1-5.3-6.1h0Zm.3,7.1c-1.2,0-2.1-.8-2.1-2.2,0-1.3.6-2.3,1.8-2.3s2,1.2,2,3.4v.6c-.6.3-1.1.5-1.7.5h0Z"/><path class="cls-10" d="m273.1,159.58h189.5c3,0,5.4,2.4,5.4,5.4v47.6c0,3-2.4,5.4-5.4,5.4h-189.5c-3,0-5.4-2.4-5.4-5.4v-47.6c0-3,2.5-5.4,5.4-5.4Z"/><path class="cls-10" d="m273.1,225.58h189.5c3,0,5.4,2.4,5.4,5.4v47.6c0,3-2.4,5.4-5.4,5.4h-189.5c-3,0-5.4-2.4-5.4-5.4v-47.6c0-3,2.5-5.4,5.4-5.4Z"/><path class="cls-12" d="m328.8,193.08h-9.1v2.6h5.7l-4.7,11.5h3.3l5.2-12.6-.4-1.5Zm3.2,14.4c1,0,1.8-.8,1.8-1.9s-.8-1.9-1.8-1.9-1.8.8-1.8,1.9.8,1.9,1.8,1.9Zm9-14.6c-3.6,0-5,2.6-5,4.7,0,2.6,1.9,4.3,4.4,4.3.6,0,1.4-.1,2.1-.4-.8,1.8-2.6,3.2-5.5,3.6l.5,2.6c5.6-.6,8.8-3.8,8.8-8.7,0-3.6-1.7-6.1-5.3-6.1h0Zm.3,7c-1.2,0-2.1-.8-2.1-2.2,0-1.3.6-2.3,1.8-2.3s2,1.2,2,3.4v.6c-.6.4-1.2.5-1.7.5h0Zm14.8-.1c1-.7,1.9-1.7,1.9-3.2,0-2.1-1.9-3.7-4.7-3.7-2.7,0-4.9,1.5-4.9,3.9,0,1.4.8,2.4,2,3.2-1.6.9-2.3,2.2-2.3,3.5,0,2.4,2.3,4.1,5.2,4.1,2.8,0,5.2-1.5,5.2-4.2-.1-1.8-1.1-2.8-2.4-3.6h0Zm-2.9-4.6c1,0,1.9.7,1.9,2,0,.8-.4,1.3-.9,1.7-1.6-.7-2.7-1.2-2.7-2.3-.1-.8.6-1.4,1.7-1.4h0Zm0,9.9c-1.1,0-2.3-.7-2.3-2.2,0-.8.5-1.4,1.3-1.9.1.1.2.1.3.2,1.6.8,2.8,1.2,2.8,2.3,0,1-1,1.6-2.1,1.6h0Z"/><path class="cls-8" d="m324.3,264.38c-.5,0-.8,0-1.2.1l.2-2.7h5.4v-2.6h-7.8l-.4,6.9,1.2,1.5c.7-.3,1.5-.4,2.2-.4,1.3,0,2.1.6,2.1,1.7,0,1.2-1,1.8-2.6,1.8-1.1,0-2.1-.3-3.2-.6l-.5,2.7c1.2.4,2.3.8,4,.8,3.5,0,5.5-1.9,5.5-4.7.1-2.6-1.6-4.5-4.9-4.5h0Zm12,6.3c1.3-1.4,2.5-2.8,3.4-4.1,1-1.4,1.5-2.7,1.5-3.9,0-1.7-1.2-3.7-4.4-3.7-1.6,0-3.2.2-5.3.9l.6,2.6c1.4-.5,2.7-.8,3.9-.8,1.3,0,1.9.5,1.9,1.5,0,.7-.5,1.7-1.3,2.8-1.3,1.8-3.3,3.9-5.1,5.8l.3,1.6h9.6v-2.6l-5.1-.1h0Zm9.1,2.9c1,0,1.8-.8,1.8-1.9s-.8-1.9-1.8-1.9-1.8.8-1.8,1.9.8,1.9,1.8,1.9Zm10.4-14.4h-1.8l-5.5,1.8.8,2.5,3.3-1.1v10.9h3.2v-14.1h0Zm8.4,5.3c-.6,0-1.4.1-2.1.4.8-1.8,2.6-3.2,5.5-3.6l-.5-2.6c-5.6.6-8.8,3.8-8.8,8.7,0,3.4,1.7,6,5.3,6s5-2.6,5-4.7c0-2.4-1.9-4.2-4.4-4.2Zm-.7,6.5c-1.2,0-2-1.2-2-3.4v-.6c.6-.3,1.2-.5,1.7-.5,1.2,0,2.1.8,2.1,2.2,0,1.3-.6,2.3-1.8,2.3h0Z"/><path class="cls-10" d="m481.6,93.48h0c1.5,0,2.7,1.2,2.7,2.7v185.2c0,1.5-1.2,2.7-2.7,2.7h0c-1.5,0-2.7-1.2-2.7-2.7V96.18c0-1.5,1.2-2.7,2.7-2.7h0Z"/><path class="cls-26" d="m481.6,93.48h0c1.5,0,2.7,1.2,2.7,2.7v39c0,1.5-1.2,2.7-2.7,2.7h0c-1.5,0-2.7-1.2-2.7-2.7v-39c0-1.5,1.2-2.7,2.7-2.7Z"/><g class="cls-4"><path class="cls-17" d="m302.8,204.48h-23.9v.6h23.9v-.6Z"/><path class="cls-17" d="m300.4,200.98v-1.8h-.8v1.6h-17.4v-10.4h.6l-.4-.9h-.5c-.3,0-.5.2-.5.5v10.9h0l-2.4,3.1h8.8l.6-.8h5l.6.8h8.8l-2.4-3h0Z"/><path class="cls-17" d="m279.9,176.88h-1.7c-1,0-1.8.8-1.8,1.9v1.7c0,.1.1.2.2.2h.7c.1,0,.2-.1.2-.2v-1.7c0-.4.3-.7.7-.7h1.7c.1,0,.2-.1.2-.2v-.7c0-.2-.1001-.3-.2001-.3h0Z"/><path class="cls-17" d="m298.3,176.88h-1.7c-.1,0-.2.1-.2.2v.7c0,.1.1.2.2.2h1.7c.4,0,.7.3.7.7v1.7c0,.1.1.2.2.2h.7c.1,0,.2-.1.2-.2v-1.7c0-1-.8-1.8-1.8-1.8h0Z"/><path class="cls-17" d="m279.9,194.38h-1.7c-.4,0-.7-.3-.7-.7v-1.6c0-.1-.1-.2-.2-.2h-.7c-.1,0-.2.1-.2.2v1.6c0,1,.8,1.9,1.8,1.9h1.7c.1,0,.2-.1.2-.2v-.7c0-.2-.0999-.3-.2-.3Z"/><path class="cls-17" d="m306.1,191.08c.1,0,.3-.1.3-.3,0-.1-.1-.3-.3-.3s-.3.1-.3.3c0,.1.2.3.3.3Z"/><path class="cls-17" d="m308.4,181.48h-4.5c-.3,0-.5.2-.5.5v9c0,.3.2.5.5.5h4.5c.3,0,.5-.2.5-.5v-9c0-.2-.3-.5-.5-.5h0Zm-2.9.4h1.1q.1,0,.1.1t-.1.1h-1.1s-.1,0,0-.2c-.1.1,0,0,0,0Zm.6,9.3c-.2,0-.4-.2-.4-.4s.2-.4.4-.4.4.2.4.4-.2.4-.4.4Zm2.3-1.1h-4.6v-7.6h4.6v7.6Z"/><path class="cls-17" d="m304.5,192.28v4.4h-9.1v-11.4h7.3v-.9h-7.6c-.3,0-.5.2-.5.5v12.7c0,.3.2.5.5.5h9.8c.3,0,.5-.2.5-.5v-5.3h-.9Zm-4.6,5.5c-.2,0-.4-.2-.4-.4s.2-.4.4-.4.4.2.4.4-.1.4-.4.4Z"/><path class="cls-17" d="m284.7,189.58c2.1-.5,5.3-1.3,5.4-5.9,0-.5-.2-1-.5-1.4-.4-.4-.9-.6-1.5-.6s-1.1.2-1.5.6c-.4.4-.5.9-.5,1.3-.3,1.5-1.3,2.3-3,2.3-.3,0-.5.2-.5.5s.2.5.5.5c2.2,0,3.5-1.1,3.9-3.1.1-.4.1-.6.3-.8.2-.2.5-.3.8-.3s.6.1.8.3c.2.2.3.5.3.7-.1,3.9-2.7,4.5-4.7,5.1-.4.1-.8.2-1.1.3-.2.1-.4.3-.3.6.1.2.2.3.4.3h.1c.4001-.2.7001-.3,1.1001-.4h0Z"/><path class="cls-17" d="m293.1,187.48c-.8-.3-1.6-.6-1.5-1.9v-.7c0-.3.1-.6,0-1.2,0-2-1.6-3.6-3.5-3.6-1.8,0-3.1,1.2-3.5,3.1-.2,1.1-.8,1.2-1.3,1.1-.3,0-.5.2-.5.4,0,.3.2.5.4.5,1.6.2,2.1-.9,2.3-1.8.3-1.4,1.3-2.3,2.6-2.3,1.4,0,2.6,1.2,2.6,2.7v1.9c0,2.1,1.5,2.6,2.2,2.8h.1c.2,0,.4-.1.4-.3.1-.4,0-.6-.3-.7h0Z"/><path class="cls-17" d="m293.3,185.98s-.2-.2-.2-.6c.1-.6.1-1.6.1-1.6h0c0-2.8-2.3-5.1-5.1-5.1-2.1,0-4,1.3-4.7,3.3-.1.2-.2.5-.2.7,0,.1-.1.3-.1.3-.1.2,0,.5.3.6.2.1.5,0,.6-.3,0-.1.1-.3.1-.5.1-.2.1-.5.2-.6.6-1.6,2.2-2.7,3.9-2.7,2.3,0,4.2,1.9,4.2,4.2,0,.1,0,1-.1,1.6-.1,1,.5,1.5.9,1.6h.1c.2,0,.4-.1.5-.4-.2-.2-.3-.5-.5-.5h0Z"/><path class="cls-17" d="m283.4,188.38c.1,0,.2,0,.3-.1,1.8-.4,4.8-1,4.9-4.7,0-.3-.2-.5-.4-.5-.3,0-.5.2-.5.4-.1,2.9-2.5,3.4-4.2,3.8-.1,0-.2,0-.3.1-.2.1-.4.3-.4.6.1.3.2.4.6.4q-.1,0,0,0Z"/><path class="cls-17" d="m292.8,188.98c-.5-.1-.9-.3-1.4-.5-.4-.2-.8-.5-1.1-.8-.2-.2-.5-.2-.7,0s-.2.5,0,.7c.4.5.9.9,1.4,1.1.5.2,1,.4,1.5.5h.1c.2,0,.4-.1.5-.4.1-.3,0-.5-.3-.6Z"/><path class="cls-17" d="m292.4,190.48c-.9-.2-1.5-.5-2-.8s-1-.5-1.5-.5c-.4,0-.9.2-1.6.4-.8.3-1.9.6-3.3.9-.3.1-.4.3-.4.6s.3.4.5.4c1.5-.3,2.6-.7,3.4-.9.6-.2,1.1-.4,1.4-.4s.6.2,1.1.4c.5.3,1.2.7,2.2.9h.1c.2,0,.4-.2.5-.4,0-.3-.2-.5-.4-.6h0Z"/><path class="cls-17" d="m291.5,191.78c-.3-.1-.7-.3-1.1-.5-.6-.3-1.1-.5-1.6-.5-.4,0-1,.2-1.9.5-.7.2-1.5.4-2,.5-.3,0-.4.3-.4.5,0,.3.3.4.5.4.6-.1,1.4-.3,2.1-.6.7-.2,1.4-.4,1.7-.4s.8.2,1.2.4c.4.2.9.4,1.3.5h.1c.2,0,.4-.1.4-.3.1-.2-.1-.4-.3-.5h0Z"/><path class="cls-17" d="m290.3,192.98c-.1,0-.2-.1-.3-.1-.4-.2-.8-.4-1.4-.4-.3,0-.6.1-1.2.2-.4.1-.9.2-1.3.3-.3,0-.4.3-.4.5,0,.3.3.4.5.4.4,0,.9-.2,1.4-.3.4-.1.8-.2,1-.2.4,0,.7.1,1,.3.1.1.3.1.4.2h.2c.2,0,.4-.1.4-.3.1-.3-.1-.6-.3-.6h0Z"/></g><g class="cls-28"><path class="cls-17" d="m277.5,269.68c.8-2.4,1.6-4.9,2.4-7.3.3-.8.5-1.6.8-2.4.9,0,1.8-.1,2.7,0,.4,0,1.1,0,1,.8.1.5-.3.7-1.1.7-1.5-.1-1.7.8-2,1.9-.5,1.7-1,3.3-1.6,5.1h24.7c-.7-2.2-1.4-4.3-2.2-6.4-.1-.2-.7-.3-1-.4-.6-.1-1.3-.1-1.3-.9s.7-.8,1.3-.8q2-.1,2.7,1.8c.8,2.4,1.6,4.8,2.4,7.2.1.3.2.7.3,1.1-.4,0-.7.1-1,.1h-27.4c-.3,0-.6,0-.9-.1l.2-.4001h0Z"/><path class="cls-17" d="m291.1,238.58h1.8q.1,0,.2.1c1.9.2,3.7.8,5.2,1.9,2.9,2,4.5,4.8,4.4,8.4,0,1.9-.4,3.6-1.1,5.4-1.8,4.5-4.8,8.2-8.4,11.4-.8.7-1.9.6-2.6-.1-1.8-1.7-3.4-3.5-4.9-5.4-1.7-2.3-3.2-4.8-4-7.6-.5-1.8-.8-3.6-.5-5.4.8-4.3,3.5-6.9,7.6-8.2.9-.3,1.6-.3,2.3-.5h0Zm9.5,9.9c0-4.7-3.9-8.5-8.6-8.4-4.7,0-8.6,3.8-8.6,8.5s3.9,8.5,8.6,8.5c4.8-.1,8.6-3.9,8.6-8.6h0Z"/><path class="cls-17" d="m291.7,242.68h.3c.1,0,.2.1.2.2l.2.2c.4.4.8.8,1.3,1.2h0v-.4c0-.4.3-.7.7-.7h.7c.2,0,.4.1.5.2s.2.3.2.5v2.4l.9.9.2.2c.1.1.2.3.2.5,0,.1,0,.2-.1.3-.1.2-.3.3-.6.3h-.7v4.1c-.1.3-.3.5-.7.5h-2v-3.3c0-.4-.3-.7-.7-.7h-1.3c-.3,0-.5.2-.6.4v3.6h-2.1c-.3,0-.5-.2-.6-.4v-4.3h-.7c-.3,0-.6-.2-.6-.5v-.2h0c0-.1.1-.2.2-.4l.2-.2c1.4-1.4,2.8-2.8,4.3-4.2l.2-.2c.1.1.2.1.4,0h0Z"/></g><path class="cls-16" d="m185.7,73.78c-1.1-41.6-9.7-52.1-22.9-53.3-6.9-12.8-23.2-25.6-52.4-18.4-7.2,1.8-13.8,5-19.4,9.3-12.4,9.5-20.7,24.5-22.9,42-1.1,5.4-1.8,11.8-2.3,19.2-7.9,129.6-50.3,177.8,58.2,173.4,126.3-5.2,65.6-26.3,61.7-172.2Z"/><path class="cls-7" d="m87.4,111.58l-.8-.3c-3.1.2-7-7.3-7.3-14.1l-1.7-13c-.1-2.4.5-4.2,2.4-3.6l.6.2c3.3,1,5.7,4.6,5.9,8.8l.9,22h0Z"/><path class="cls-7" d="m166.6,111.68l.8-.3c3.1.1,6.9-7.4,7.1-14.2l1.6-13c.1-2.4-.6-4.2-2.4-3.6l-.6.2c-3.3,1.1-5.7,4.7-5.8,8.9l-.7,22h0Z"/><polygon class="cls-13" points="154.7 120.48 100.1 120.48 100.1 183.08 154.7 182.98 154.7 120.48"/><polygon class="cls-7" points="100.1 145.38 125.3 165.58 100.1 182.98 100.1 145.38"/><path class="cls-11" d="m154.7,145.38v37.6s-32.2,3.5-54.6,0l54.6-37.6Z"/><path class="cls-11" d="m127.3,10.78c-25.1,0-45.4,19-45.4,42.3,0,2.1.2,4.1.5,6.1l4.3,59.7c.6,8.2,4.6,15.8,11.1,20.8l19.9,15.6c2.6,2.1,6,3.3,9.5,3.3h.3c3.5,0,6.9-1.2,9.5-3.3l19.8-15.6c6.5-5.1,10.6-12.8,11.2-21l4.3-59.6c.3-2,.5-4.1.5-6.1h0c0-23.2-20.4-42.2-45.5-42.2h0Z"/><path class="cls-16" d="m83.3,82.58c.1-1,.5-25.9,22.3-43.6,26.4,6.6,55.8,18.9,65.9,42.3,13.9-36.4-5.5-72.9-44.1-72.9s-57.8,24.1-44.1,74.2h0Z"/><path class="cls-11" d="m207.4,199.88l-53.4-16.9h-26.7s0,.1-.1.3v-.3h-26.7l-53.4,16.9c-10,3.2-16.2,13.1-14.7,23.5,1.8,12.1,4.3,29.3,7.2,48.5,25.3,16.4,55.4,25.9,87.8,25.9,32.3,0,62.4-9.5,87.6-25.8,2.8-19.2,5.4-36.5,7.2-48.6,1.4-10.4-4.8-20.3-14.8-23.5h0Z"/><path class="cls-17" d="m253.5,237.18l-.1-2.1c-.7-14-10.3-26-23.8-29.8-9.6-2.7-21.2-5.8-32.4-8.7-33.5,45-110.1,44.4-140,0l-34.5,9.1c-12.9,3.4-22,14.8-22.6,28.1l-.1,2c29.6,37.6,75.6,61.8,127.2,61.8,51.1.2,96.6-23.5,126.3-60.4h0Z"/><path class="cls-16" d="m62.3,147.08c-5.7,41.1,18.4,70.3,44.2,68-8.1-26.4-6.6-50-6.6-50l-37.6-18h0Z"/><path class="cls-12" d="m250.3,42.08c0,15.5-12.5,28-28,28s-28-12.5-28-28,12.5-28,28-28c15.5,0,28,12.5,28,28Zm-32.8,2.7c-2-2-3.9-3.9-5.9-5.9-.8-.8-1.9-.8-2.8,0l-2.5,2.5c-.8.8-.8,1.9,0,2.8l10,10c.9.8,2,.9,2.8,0,6.4-6.4,12.8-12.8,19.1-19.1.7-.7.8-1.8.1-2.6-.9-1-1.8-1.9-2.8-2.8-.9-.8-1.8-.7-2.6.1-3.7,3.7-7.4,7.4-11.1,11.1-1.4,1.4-2.7,2.7-4.1,4.1,0,0-.1-.1-.2-.2Z"/><path class="cls-19" d="m292.5,110.08c-2.2,0-4,1.8-4,4s1.8,4,4,4,4-1.8,4-4-1.7-4-4-4m0-2.6c-3.6,0-6.6,3-6.6,6.6,0,1.5.6,2.9,1.4,4l5.2,7.3,5.2-7.3c.8-1.1,1.4-2.5,1.4-4,0-3.6-2.9-6.6-6.6-6.6Z"/><path class="cls-19" d="m292.5,112.28c-1,0-1.9.8-1.9,1.9s.8,1.9,1.9,1.9c1,0,1.9-.8,1.9-1.9s-.8-1.9-1.9-1.9"/><g class="cls-29"><path class="cls-18" d="m288.9,129.18l-.6-.3c0,.2,0,.3.1.5.1,0,.3-.1.5-.2Z"/><path class="cls-18" d="m302,126.88c0,1.2-.3,2.4-.8,3.5.2.1.4.1.7.2.6-1.5.9-3,.8-4.6-.5.3-1,.6-1.5.9h.8Z"/><path class="cls-18" d="m299.3,133.08c-.9.9-2,1.7-3.2,2.2-.5.2-1,.4-1.5.5.6-.5,1.1-1.2,1.5-2.2.2-.4.4-.9.5-1.3-.2-.1-.4-.1-.6-.2-.2.4-.3.9-.5,1.2-.7,1.5-1.7,2.5-2.7,2.7v-5h.1-.1c-.2.1-.5.2-.7.3v4.8c-.4-.1-.7-.2-1.1-.5-.5-.4-1-1.1-1.5-1.9-.2-.4-.3-.7-.5-1.1-.2.1-.4.2-.6.2.2.4.3.8.5,1.2.4.8.9,1.5,1.4,1.9-1.7-.4-3.2-1.2-4.4-2.4-.3.1-.5.1-.7.2q.1.1.2.2c2,1.9,4.5,2.9,7.1,2.9h0c2.7,0,5.3-1,7.3-3.1.1-.1.2-.2.3-.3-.1999-.2-.4999-.2-.7999-.3.1,0,0,0,0,0Z"/><path class="cls-18" d="m288.3,129.38c0-.2,0-.3-.1-.5-.2-.1-.5-.2-.7-.3,0,.4.1.7.1,1.1.3-.1.5-.2.7-.3Z"/><path class="cls-18" d="m284,130.78c-.6-1.2-.9-2.5-1-3.9h1.2c-.6-.3-1.2-.7-1.8-1-.1,1.7.2,3.5,1,5.1.2,0,.3-.1.5-.1,0-.1.1-.1.1-.1Z"/><path class="cls-18" d="m283.7,123.08c.2-.4.3-.8.5-1.1.6.2,1.8.5,3.6.7-.2.8-.3,1.7-.4,2.6.2.1.4.2.7.3.1-1,.2-1.9.4-2.8,1,.1,2.2.2,3.7.2v3.4h-2.5c.5.2,1,.5,1.5.7h1v.4c.1,0,.2.1.3.1.1.1.3.1.4.2v-.7h1.6c.5-.2,1-.4,1.4-.7h-3v-3.4c1.4,0,2.6-.1,3.7-.2.2,1,.3,2,.4,3,.2-.1.4-.2.7-.3-.1-.9-.2-1.9-.4-2.8,1.9-.2,3-.5,3.6-.7.2.4.4.8.6,1.2.2-.1.4-.2.6-.4-.5-1.3-1.3-2.5-2.4-3.6-2-1.9-4.5-2.9-7.1-2.9h0c-2.7,0-5.3,1-7.3,3.1-.9,1-1.6,2-2.1,3.2.1.1.3.2.4.3q0,.2.0999.2Zm15.4-3.3c.5.5,1,1,1.3,1.6-.6.2-1.7.4-3.4.6-.2-1-.6-1.9-1-2.7s-.9-1.5-1.4-1.9c1.7.3,3.2,1.2,4.5,2.4Zm-6.2-2.6c.4.1.7.2,1.1.5.5.4,1,1.1,1.5,1.9.4.7.7,1.5.9,2.4-1,.1-2.2.1-3.5.2v-5Zm-.7,0v5c-1.3,0-2.5-.1-3.5-.2.2-.8.5-1.6.8-2.2.7-1.5,1.7-2.5,2.7-2.6Zm-6.5,2.8c.9-.9,2-1.7,3.2-2.2.5-.2,1-.4,1.5-.5-.6.5-1.1,1.2-1.5,2.2-.4.7-.7,1.6-.9,2.4-1.7-.2-2.8-.4-3.4-.6.3-.4.7-.9,1.1-1.3Z"/><path class="cls-18" d="m296.9,129.08c.2.1.3.1.5.2,0-.2,0-.3.1-.5-.2.2-.4.2-.6.3Z"/><path class="cls-18" d="m280.3,133.78c.9,0,2.1-.2,3.6-.5,2.3-.6,5.2-1.5,8.1-2.7-.2-.1-.5-.2-.7-.3-.5-.2-1-.4-1.5-.6-2.1.8-4,1.4-5.7,1.9-1.9.5-3.1.6-3.8.6-.3,0-.5,0-.7-.1.2-.3.9-1.2,2.6-2.4-.2-.5-.4-1.2-.4-1.8-2.9,2-4.3,3.7-3.8,4.8.3.8,1,1.1,2.3,1.1Z"/><path class="cls-18" d="m293.7,127.98c.8.3,1.5.6,2.2.8,3.1-1.4,5.9-3,7.9-4.4,3-2.1,4.1-3.5,3.6-4.7-.3-.7-1-1-2.3-1-.9,0-2.4.3-3.8.6-.2.1-.4.1-.7.2.3.3.9,1.4.9,1.5,1.7-.4,3-.6,3.6-.6.3,0,.5,0,.7.1-.2.3-.9,1.2-3.4,2.9-2.2,1.5-5.3,3.1-8.7,4.6Z"/><path class="cls-18" d="m304.2,127.78c-.1-.1-.6-.4-.7-.5-.1.6-.3,1.1-.5,1.7,2.1,1.4,3.1,2.4,3.3,2.7-.1,0-.4.1-.8.1-.7,0-1.8-.1-3.6-.5-2.7-.6-6.1-1.8-9.6-3.2s-6.6-3-9-4.5c-2.6-1.6-3.3-2.5-3.5-2.8.1,0,.4-.1.8-.1.5,0,1.7.1,2.9.3.1-.1.6-1.2.9-1.5h-.5c-1.4-.3-2.5-.4-3.4-.4-1.4,0-2.2.4-2.5,1.1-.5,1.2.6,2.6,3.7,4.6,2.5,1.6,6,3.4,9.8,5s7.5,2.8,10.5,3.4c1.4.3,2.5.4,3.4.4,1.4,0,2.2-.4,2.5-1.1.5001-1.3-.7-2.7-3.7-4.7Z"/></g><text class="cls-21" transform="translate(375.3525 25.0213)"><tspan x="0" y="0">P</tspan><tspan class="cls-30" x="8.625" y="0">O</tspan><tspan class="cls-2" x="19.7549" y="0">N</tspan><tspan x="29.8193" y="0">T</tspan><tspan class="cls-32" x="38.6094" y="0">U</tspan><tspan class="cls-27" x="48.6895" y="0">A</tspan><tspan x="58.0195" y="0">Ç</tspan><tspan class="cls-27" x="67.2295" y="0">Ã</tspan><tspan x="76.5605" y="0">O </tspan><tspan class="cls-30" x="0" y="18">D</tspan><tspan x="10.5449" y="18">E RIS</tspan><tspan class="cls-5" x="44.9541" y="18">C</tspan><tspan x="53.8643" y="18">O</tspan></text><text class="cls-22" transform="translate(318.4703 116.0738)"><tspan x="0" y="0">G</tspan><tspan class="cls-33" x="11.6113" y="0">e</tspan><tspan x="20.4004" y="0">ol</tspan><tspan class="cls-33" x="34.0342" y="0">oc</tspan><tspan x="51.4238" y="0">ali</tspan><tspan class="cls-31" x="68.7461" y="0">z</tspan><tspan x="75.9541" y="0">a</tspan><tspan class="cls-33" x="84.709" y="0">ç</tspan><tspan x="92.665" y="0">ão</tspan></text><text class="cls-22" transform="translate(318.4703 182.631)"><tspan x="0" y="0">ID de Dis</tspan><tspan class="cls-33" x="68.2539" y="0">p</tspan><tspan class="cls-35" x="77.7744" y="0">o</tspan><tspan x="87.124" y="0">siti</tspan><tspan class="cls-3" x="109.7676" y="0">v</tspan><tspan x="117.7734" y="0">o</tspan></text><text class="cls-22" transform="translate(318.4703 248.531)"><tspan class="cls-6" x="0" y="0">E</tspan><tspan x="9.6387" y="0">nde</tspan><tspan class="cls-23" x="38.0117" y="0">r</tspan><tspan class="cls-33" x="44.1318" y="0">e</tspan><tspan class="cls-34" x="52.9209" y="0">ç</tspan><tspan x="60.8428" y="0">o</tspan></text></svg>