<?xml version="1.0" encoding="utf-8"?>
<!-- Generator: Adobe Illustrator 27.5.0, SVG Export Plug-In . SVG Version: 6.00 Build 0)  -->
<svg version="1.1" id="Layer_1" xmlns="http://www.w3.org/2000/svg" xmlns:xlink="http://www.w3.org/1999/xlink" x="0px" y="0px"
	 viewBox="0 0 450 332" style="enable-background:new 0 0 450 332;" xml:space="preserve">
<style type="text/css">
	.st0{fill:#273358;}
	.st1{fill:#00A651;}
	.st2{fill:#F7941D;}
	.st3{fill:#F5F5F5;}
	.st4{fill:#BE1E2D;}
	.st5{fill:#274666;}
	.st6{clip-path:url(#SVGID_00000065068980086970969510000014654077369450645126_);}
	.st7{clip-path:url(#SVGID_00000058549693029026898500000007481906041048499125_);}
	.st8{clip-path:url(#SVGID_00000014599331074741147110000005084535555597821322_);}
	.st9{fill:#FFFFFF;}
	.st10{font-family:'MonsalGothic-Bold';}
	.st11{font-size:25px;}
	.st12{letter-spacing:-1;}
</style>
<path class="st0" d="M8,48h434c4.4,0,8,3.6,8,8v16c0,4.4-3.6,8-8,8H8c-4.4,0-8-3.6-8-8V56C0,51.6,3.6,48,8,48z"/>
<path class="st1" d="M8,48h209c4.4,0,8,3.6,8,8v16c0,4.4-3.6,8-8,8H8c-4.4,0-8-3.6-8-8V56C0,51.6,3.6,48,8,48z"/>
<path class="st0" d="M8,174h434c4.4,0,8,3.6,8,8v16c0,4.4-3.6,8-8,8H8c-4.4,0-8-3.6-8-8v-16C0,177.6,3.6,174,8,174z"/>
<path class="st0" d="M8,300h434c4.4,0,8,3.6,8,8v16c0,4.4-3.6,8-8,8H8c-4.4,0-8-3.6-8-8v-16C0,303.6,3.6,300,8,300z"/>
<path class="st2" d="M233,174h96c4.4,0,8,3.6,8,8v16c0,4.4-3.6,8-8,8h-96c-4.4,0-8-3.6-8-8v-16C225,177.6,228.6,174,233,174z"/>
<path class="st3" d="M275,0h167c4.4,0,8,3.6,8,8v23c0,4.4-3.6,8-8,8H275c-4.4,0-8-3.6-8-8V8C267,3.6,270.6,0,275,0z"/>
<path class="st4" d="M345,300h97c4.4,0,8,3.6,8,8v16c0,4.4-3.6,8-8,8h-97c-4.4,0-8-3.6-8-8v-16C337,303.6,340.6,300,345,300z"/>
<path class="st3" d="M275,126h167c4.4,0,8,3.6,8,8v23c0,4.4-3.6,8-8,8H275c-4.4,0-8-3.6-8-8v-23C267,129.6,270.6,126,275,126z"/>
<path class="st5" d="M313.7,11.5c-3.9,0-6.1,3.4-6.1,8.4c0,5,2.2,8.4,6.1,8.4c3.9,0,6.1-3.4,6.1-8.4
	C319.9,14.9,317.6,11.5,313.7,11.5z M313.7,13.5c2.3,0,3.7,2.5,3.7,6.3c0,3.9-1.4,6.4-3.7,6.4c-2.4,0-3.8-2.5-3.8-6.4
	C310,16,311.4,13.5,313.7,13.5z M323.8,28.3c0.8,0,1.5-0.7,1.5-1.5s-0.6-1.5-1.5-1.5s-1.5,0.7-1.5,1.5S323,28.3,323.8,28.3z
	 M334,11.5c-3.9,0-6.1,3.4-6.1,8.4c0,5.1,2.2,8.4,6.1,8.4c3.9,0,6.1-3.4,6.1-8.4C340.1,14.9,337.8,11.5,334,11.5z M334,13.5
	c2.3,0,3.7,2.5,3.7,6.3c0,3.9-1.4,6.4-3.7,6.4c-2.4,0-3.8-2.5-3.8-6.4C330.2,16,331.6,13.5,334,13.5z M348.5,11.5
	c-3.9,0-6.1,3.4-6.1,8.4c0,5.1,2.2,8.4,6.1,8.4c3.9,0,6.1-3.4,6.1-8.4C354.6,14.9,352.4,11.5,348.5,11.5z M348.5,13.5
	c2.3,0,3.7,2.5,3.7,6.3c0,3.9-1.4,6.4-3.7,6.4c-2.4,0-3.8-2.5-3.8-6.4C344.7,16,346.2,13.5,348.5,13.5z M370,20.6h-6.3v1.8h6.3V20.6
	z M391.3,22.1h-2.7V11.8h-2l-7.6,11l0.2,1.2h7.2V28h2.2v-4h2.7L391.3,22.1L391.3,22.1L391.3,22.1z M381.6,22.1l4.8-7.1v7.1H381.6z
	 M398.5,11.5c-3.7,0-5.3,2.8-5.3,5.2c0,3,2.1,5,5.1,5c0.8,0,2-0.2,3-0.6c-1,2.7-3.3,4.8-7,5.4l0.3,1.9c6.1-0.9,9.6-4.7,9.6-10.2
	C404.2,14.1,402.3,11.5,398.5,11.5L398.5,11.5L398.5,11.5z M398.9,20c-2,0-3.3-1.2-3.3-3.3c0-1.7,1-3.3,3-3.3c2,0,3.2,1.5,3.2,4.7
	c0,0.4,0,0.7,0,1.1C400.8,19.7,399.8,20,398.9,20z M407.9,28.3c0.8,0,1.5-0.7,1.5-1.5s-0.6-1.5-1.5-1.5s-1.5,0.7-1.5,1.5
	S407.1,28.3,407.9,28.3z M417.7,11.5c-3.7,0-5.3,2.8-5.3,5.2c0,3,2.1,5,5.1,5c0.8,0,2-0.2,3-0.6c-1,2.7-3.3,4.8-7,5.4l0.3,1.9
	c6.1-0.9,9.6-4.7,9.6-10.2C423.3,14.1,421.4,11.5,417.7,11.5L417.7,11.5L417.7,11.5z M418,20c-2,0-3.3-1.2-3.3-3.3
	c0-1.7,1-3.3,3-3.3c2,0,3.2,1.5,3.2,4.7c0,0.4,0,0.7,0,1.1C419.9,19.7,418.9,20,418,20z M431.1,11.5c-3.7,0-5.3,2.8-5.3,5.2
	c0,3,2.1,5,5.1,5c0.8,0,2-0.2,3-0.6c-1,2.7-3.3,4.8-7,5.4l0.3,1.9c6.1-0.9,9.6-4.7,9.6-10.2C436.8,14.1,434.9,11.5,431.1,11.5
	L431.1,11.5L431.1,11.5z M431.5,20c-2,0-3.3-1.2-3.3-3.3c0-1.7,1-3.3,3-3.3c2,0,3.2,1.5,3.2,4.7c0,0.4,0,0.7,0,1.1
	C433.4,19.7,432.4,20,431.5,20z"/>
<g>
	<defs>
		<rect id="SVGID_1_" y="133" width="27" height="23.6"/>
	</defs>
	<clipPath id="SVGID_00000174584288389031342310000000210313609722002608_">
		<use xlink:href="#SVGID_1_"  style="overflow:visible;"/>
	</clipPath>
	<g style="clip-path:url(#SVGID_00000174584288389031342310000000210313609722002608_);">
		<path class="st2" d="M13.5,156.6c-3.3,0-6.7,0-10,0c-3.1,0-4.4-2.4-2.8-5c3.3-5.6,6.6-11.1,9.9-16.7c1.5-2.5,4.2-2.5,5.8,0
			c3.3,5.6,6.7,11.1,10,16.7c1.6,2.6,0.2,5-2.8,5C20.2,156.6,16.8,156.6,13.5,156.6L13.5,156.6L13.5,156.6z M11.8,140.7
			c0.2,2.2,0.3,4.1,0.5,6c0.1,0.7,0.4,1.3,1.1,1.2c0.4-0.1,1.1-0.6,1.2-1c0.3-2.3,0.5-4.6,0.6-6.9c0-0.9-0.5-1.4-1.4-1.5
			c-0.9-0.1-1.5,0.3-1.8,1.1C11.8,140,11.8,140.5,11.8,140.7z M15.3,151.3c0-1-0.8-1.8-1.8-1.9c-1,0-1.9,0.8-1.9,1.7
			c-0.1,1,0.8,1.9,1.8,1.9C14.5,153.1,15.3,152.3,15.3,151.3L15.3,151.3L15.3,151.3z"/>
	</g>
</g>
<path class="st5" d="M301.9,144.1c-0.8,0-1.5,0.1-2,0.2l0.3-4.6h6.1v-2h-8l-0.6,7.8l1,1c0.9-0.4,1.8-0.5,2.7-0.5
	c2,0,3.1,1.1,3.1,3.1c0,2.1-1.5,3.1-3.6,3.1c-1.2,0-2.4-0.3-3.7-0.8l-0.4,2.1c1.2,0.4,2.5,0.8,4.3,0.8c3.8,0,5.8-2.1,5.8-5.2
	C307.1,146.2,305.3,144.1,301.9,144.1L301.9,144.1L301.9,144.1z M315.8,137.5c-3.9,0-6.1,3.4-6.1,8.4c0,5.1,2.2,8.4,6.1,8.4
	c3.9,0,6.1-3.4,6.1-8.4C321.9,140.8,319.6,137.5,315.8,137.5z M315.8,139.5c2.3,0,3.7,2.5,3.7,6.4c0,3.9-1.4,6.4-3.7,6.4
	c-2.4,0-3.8-2.5-3.8-6.4C312,142,313.4,139.5,315.8,139.5z M325.9,154.3c0.8,0,1.5-0.7,1.5-1.5s-0.6-1.6-1.5-1.6s-1.5,0.7-1.5,1.6
	S325.1,154.3,325.9,154.3z M336,137.5c-3.9,0-6.1,3.4-6.1,8.4c0,5.1,2.2,8.4,6.1,8.4c3.9,0,6.1-3.4,6.1-8.4
	C342.1,140.8,339.9,137.5,336,137.5z M336,139.5c2.3,0,3.7,2.5,3.7,6.4c0,3.9-1.4,6.4-3.7,6.4c-2.4,0-3.8-2.5-3.8-6.4
	C332.2,142,333.7,139.5,336,139.5z M350.5,137.5c-3.9,0-6.1,3.4-6.1,8.4c0,5.1,2.2,8.4,6.1,8.4c3.9,0,6.1-3.4,6.1-8.4
	C356.6,140.8,354.4,137.5,350.5,137.5z M350.5,139.5c2.3,0,3.7,2.5,3.7,6.4c0,3.9-1.4,6.4-3.7,6.4c-2.4,0-3.8-2.5-3.8-6.4
	C346.7,142,348.2,139.5,350.5,139.5z M372.1,146.6h-6.3v1.8h6.3V146.6z M391.1,137.8h-9.7v2h7.3l-6,14.3h2.4l6.4-15.1L391.1,137.8
	L391.1,137.8L391.1,137.8z M404,148.1h-2.7v-10.3h-2l-7.6,11l0.2,1.2h7.2v4.1h2.2V150h2.7L404,148.1L404,148.1L404,148.1z
	 M394.4,148.1l4.8-7.1v7.1H394.4z M407.9,154.3c0.8,0,1.5-0.7,1.5-1.5s-0.6-1.6-1.5-1.6s-1.5,0.7-1.5,1.6S407.1,154.3,407.9,154.3z
	 M417.7,137.5c-3.7,0-5.3,2.8-5.3,5.2c0,3,2.1,5,5.1,5c0.8,0,2-0.2,3-0.6c-1,2.7-3.3,4.8-7,5.4l0.3,1.9c6.1-0.9,9.6-4.7,9.6-10.2
	C423.3,140.1,421.4,137.5,417.7,137.5L417.7,137.5L417.7,137.5z M418,146c-2,0-3.3-1.2-3.3-3.3c0-1.7,1-3.3,3-3.3
	c2,0,3.2,1.5,3.2,4.7c0,0.4,0,0.7,0,1.1C419.9,145.7,418.9,146,418,146z M431.1,137.5c-3.7,0-5.3,2.8-5.3,5.2c0,3,2.1,5,5.1,5
	c0.8,0,2-0.2,3-0.6c-1,2.7-3.3,4.8-7,5.4l0.3,1.9c6.1-0.9,9.6-4.7,9.6-10.2C436.8,140.1,434.9,137.5,431.1,137.5L431.1,137.5
	L431.1,137.5z M431.5,146c-2,0-3.3-1.2-3.3-3.3c0-1.7,1-3.3,3-3.3c2,0,3.2,1.5,3.2,4.7c0,0.4,0,0.7,0,1.1
	C433.4,145.7,432.4,146,431.5,146z"/>
<g>
	<defs>
		<rect id="SVGID_00000029747246195057615170000004224797044788787895_" x="3" y="7" width="25" height="25"/>
	</defs>
	<clipPath id="SVGID_00000122691769435843429680000003286823359630885760_">
		<use xlink:href="#SVGID_00000029747246195057615170000004224797044788787895_"  style="overflow:visible;"/>
	</clipPath>
	<g style="clip-path:url(#SVGID_00000122691769435843429680000003286823359630885760_);">
		<path class="st1" d="M28,19.5C28,26.4,22.4,32,15.5,32S3,26.4,3,19.5S8.6,7,15.5,7S28,12.6,28,19.5z M13.4,20.7
			c-0.9-0.9-1.7-1.7-2.6-2.6c-0.4-0.4-0.9-0.4-1.2,0c-0.4,0.4-0.8,0.7-1.1,1.1c-0.4,0.4-0.4,0.9,0,1.2c1.5,1.5,3,3,4.5,4.5
			c0.4,0.4,0.9,0.4,1.3,0c2.9-2.8,5.7-5.7,8.5-8.5c0.3-0.3,0.4-0.8,0-1.1c-0.4-0.4-0.8-0.8-1.2-1.2c-0.4-0.3-0.8-0.3-1.2,0
			c-1.7,1.7-3.3,3.3-5,5c-0.6,0.6-1.2,1.2-1.8,1.8C13.4,20.8,13.4,20.8,13.4,20.7z"/>
	</g>
</g>
<path class="st3" d="M275,252h167c4.4,0,8,3.6,8,8v23c0,4.4-3.6,8-8,8H275c-4.4,0-8-3.6-8-8v-23C267,255.6,270.6,252,275,252z"/>
<g>
	<defs>
		<rect id="SVGID_00000067211832299465722010000015157366204364325823_" x="3" y="259" width="25" height="25"/>
	</defs>
	<clipPath id="SVGID_00000163065565749132414760000001000084842586666633_">
		<use xlink:href="#SVGID_00000067211832299465722010000015157366204364325823_"  style="overflow:visible;"/>
	</clipPath>
	<g style="clip-path:url(#SVGID_00000163065565749132414760000001000084842586666633_);">
		<path class="st4" d="M15.5,284c6.9,0,12.5-5.6,12.5-12.5S22.4,259,15.5,259S3,264.6,3,271.5S8.6,284,15.5,284z"/>
		<path class="st9" d="M15.5,273.9c0,0.1-0.1,0.1-0.1,0.1c-0.8,0.8-1.6,1.6-2.5,2.5c-0.4,0.4-0.9,0.4-1.3,0
			c-0.4-0.4-0.8-0.8-1.1-1.1c-0.4-0.4-0.4-0.9,0-1.2c0.8-0.8,1.7-1.7,2.5-2.5c0,0,0.1-0.1,0.1-0.1c-0.1-0.1-0.1-0.1-0.1-0.1
			c-0.8-0.8-1.7-1.7-2.5-2.5c-0.4-0.4-0.4-0.9,0-1.3c0.4-0.4,0.8-0.8,1.2-1.2c0.4-0.4,0.9-0.4,1.3,0c0.8,0.8,1.6,1.6,2.5,2.5
			c0,0,0.1,0.1,0.1,0.1c0.1-0.1,0.1-0.1,0.1-0.1c0.8-0.8,1.6-1.6,2.5-2.5c0.4-0.4,0.9-0.4,1.4,0c0.4,0.4,0.8,0.8,1.1,1.1
			c0.4,0.4,0.4,0.9,0,1.3c-0.8,0.8-1.7,1.7-2.5,2.5c0,0-0.1,0.1-0.1,0.1c0.1,0.1,0.1,0.1,0.1,0.1c0.8,0.8,1.7,1.7,2.5,2.5
			c0.4,0.4,0.4,0.9,0,1.3c-0.4,0.4-0.7,0.7-1.1,1.1c-0.4,0.4-1,0.4-1.4,0c-0.8-0.8-1.6-1.6-2.4-2.4C15.6,274,15.5,274,15.5,273.9
			L15.5,273.9L15.5,273.9z"/>
	</g>
</g>
<path class="st5" d="M292.6,263.8h-9.7v2h7.3l-6,14.3h2.4l6.4-15.1L292.6,263.8L292.6,263.8L292.6,263.8z M300.1,270.1
	c-0.8,0-1.5,0.1-2,0.2l0.3-4.5h6.1v-2h-8l-0.6,7.8l1,1c0.9-0.4,1.8-0.5,2.7-0.5c2,0,3.1,1.1,3.1,3c0,2.1-1.5,3.1-3.6,3.1
	c-1.2,0-2.4-0.3-3.7-0.8l-0.4,2c1.2,0.4,2.5,0.8,4.3,0.8c3.8,0,5.8-2.1,5.8-5.2C305.3,272.2,303.4,270.1,300.1,270.1L300.1,270.1
	L300.1,270.1z M309.8,280.3c0.8,0,1.5-0.7,1.5-1.5s-0.6-1.5-1.5-1.5s-1.5,0.7-1.5,1.5S309,280.3,309.8,280.3z M320,263.5
	c-3.9,0-6.1,3.4-6.1,8.4c0,5,2.2,8.4,6.1,8.4c3.9,0,6.1-3.4,6.1-8.4C326.1,266.9,323.8,263.5,320,263.5z M320,265.5
	c2.3,0,3.7,2.5,3.7,6.4c0,3.9-1.4,6.4-3.7,6.4c-2.4,0-3.8-2.5-3.8-6.4C316.2,268,317.6,265.5,320,265.5z M334.5,263.5
	c-3.9,0-6.1,3.4-6.1,8.4c0,5,2.2,8.4,6.1,8.4c3.9,0,6.1-3.4,6.1-8.4C340.6,266.9,338.4,263.5,334.5,263.5z M334.5,265.5
	c2.3,0,3.7,2.5,3.7,6.4c0,3.9-1.4,6.4-3.7,6.4c-2.4,0-3.8-2.5-3.8-6.4C330.7,268,332.2,265.5,334.5,265.5z M356,272.6h-6.3v1.8h6.3
	V272.6z M372.2,263.7h-1.3l-5.9,2l0.6,1.9l4.4-1.5V280h2.3L372.2,263.7L372.2,263.7L372.2,263.7z M381.5,263.5
	c-3.9,0-6.1,3.4-6.1,8.4c0,5,2.2,8.4,6.1,8.4c3.9,0,6.1-3.4,6.1-8.4C387.6,266.9,385.3,263.5,381.5,263.5z M381.5,265.5
	c2.3,0,3.7,2.5,3.7,6.4c0,3.9-1.4,6.4-3.7,6.4c-2.4,0-3.8-2.5-3.8-6.4C377.7,268,379.1,265.5,381.5,265.5z M396,263.5
	c-3.9,0-6.1,3.4-6.1,8.4c0,5,2.2,8.4,6.1,8.4c3.9,0,6.1-3.4,6.1-8.4C402.1,266.9,399.9,263.5,396,263.5z M396,265.5
	c2.3,0,3.7,2.5,3.7,6.4c0,3.9-1.4,6.4-3.7,6.4c-2.4,0-3.8-2.5-3.8-6.4C392.2,268,393.7,265.5,396,265.5z M406.1,280.3
	c0.8,0,1.5-0.7,1.5-1.5s-0.6-1.5-1.5-1.5s-1.5,0.7-1.5,1.5S405.3,280.3,406.1,280.3z M416.2,263.5c-3.9,0-6.1,3.4-6.1,8.4
	c0,5,2.2,8.4,6.1,8.4c3.9,0,6.1-3.4,6.1-8.4C422.3,266.9,420.1,263.5,416.2,263.5z M416.2,265.5c2.3,0,3.7,2.5,3.7,6.4
	c0,3.9-1.4,6.4-3.7,6.4c-2.4,0-3.8-2.5-3.8-6.4C412.4,268,413.9,265.5,416.2,265.5z M430.7,263.5c-3.9,0-6.1,3.4-6.1,8.4
	c0,5,2.2,8.4,6.1,8.4c3.9,0,6.1-3.4,6.1-8.4C436.9,266.9,434.6,263.5,430.7,263.5z M430.7,265.5c2.3,0,3.7,2.5,3.7,6.4
	c0,3.9-1.4,6.4-3.7,6.4c-2.4,0-3.8-2.5-3.8-6.4C427,268,428.4,265.5,430.7,265.5z"/>
<text transform="matrix(1 0 0 1 35.5248 28.2733)" class="st5 st10 st11">A</text>
<text transform="matrix(1 0 0 1 51.6747 28.2733)" class="st5 st10 st11">P</text>
<text transform="matrix(1 0 0 1 65.7499 28.2733)" class="st5 st10 st11">R</text>
<text transform="matrix(1 0 0 1 81.1498 28.2733)" class="st5 st10 st11">O</text>
<text transform="matrix(1 0 0 1 99.7001 28.2733)" class="st5 st10 st11">BADO</text>
<text transform="matrix(1 0 0 1 35.5248 155.4748)" class="st5 st10 st11">A</text>
<text transform="matrix(1 0 0 1 51.6747 155.4748)" class="st5 st10 st11">D</text>
<text transform="matrix(1 0 0 1 68.85 155.4748)" class="st5 st10 st11">VE</text>
<text transform="matrix(1 0 0 1 98.2499 155.4748)" class="st5 st10 st11 st12">R</text>
<text transform="matrix(1 0 0 1 112.6 155.4748)" class="st5 st10 st11">T</text>
<text transform="matrix(1 0 0 1 126.9999 155.4748)" class="st5 st10 st11">ENCIA</text>
<text transform="matrix(1 0 0 1 35.5248 282.6754)" class="st5 st10 st11">F</text>
<text transform="matrix(1 0 0 1 48.5248 282.6754)" class="st5 st10 st11">ALLIDO</text>
</svg>
