<?xml version="1.0" encoding="UTF-8"?><svg id="Layer_1" xmlns="http://www.w3.org/2000/svg" xmlns:xlink="http://www.w3.org/1999/xlink" viewBox="0 0 450 332"><defs><style>.cls-1{fill:none;}.cls-2{clip-path:url(#clippath);}.cls-3{letter-spacing:-.02em;}.cls-4{fill:#f7941d;}.cls-5{fill:#f5f5f5;}.cls-6{fill:#fff;}.cls-7{fill:#00a651;}.cls-8{fill:#be1e2d;}.cls-9{fill:#273358;}.cls-10,.cls-11{fill:#274666;}.cls-12{letter-spacing:-.054em;}.cls-13{letter-spacing:-.012em;}.cls-14{clip-path:url(#clippath-1);}.cls-15{clip-path:url(#clippath-2);}.cls-16{letter-spacing:-.027em;}.cls-11{font-family:MonsalGothic-Bold, 'Monsal Gothic';font-size:25px;font-weight:700;}.cls-17{letter-spacing:-.01em;}</style><clipPath id="clippath"><rect class="cls-1" x="0" y="133" width="27" height="23.6268"/></clipPath><clipPath id="clippath-1"><rect class="cls-1" x="3" y="7" width="25" height="25"/></clipPath><clipPath id="clippath-2"><rect class="cls-1" x="3" y="259" width="25" height="25"/></clipPath></defs><rect class="cls-9" x="0" y="48" width="450" height="32" rx="8" ry="8"/><rect class="cls-7" x="0" y="48" width="225" height="32" rx="8" ry="8"/><rect class="cls-9" x="0" y="174" width="450" height="32" rx="8" ry="8"/><rect class="cls-9" x="0" y="300" width="450" height="32" rx="8" ry="8"/><rect class="cls-4" x="225" y="174" width="112" height="32" rx="8" ry="8"/><rect class="cls-5" x="267" width="183" height="39" rx="8" ry="8"/><rect class="cls-8" x="337" y="300" width="113" height="32" rx="8" ry="8"/><rect class="cls-5" x="267" y="126" width="183" height="39" rx="8" ry="8"/><path class="cls-10" d="m313.732,11.475c-3.9,0-6.15,3.375-6.15,8.4,0,5.05,2.25,8.4,6.15,8.4,3.875,0,6.125-3.35,6.125-8.4,0-5.025-2.25-8.4-6.125-8.4Zm0,2.05c2.325,0,3.725,2.5,3.725,6.35,0,3.875-1.425,6.35-3.725,6.35-2.35,0-3.775-2.475-3.775-6.35,0-3.85,1.45-6.35,3.775-6.35Zm10.11,14.75c.8,0,1.45-.675,1.45-1.525s-.65-1.55-1.45-1.55-1.475.7-1.475,1.55.675,1.525,1.475,1.525Zm10.129-16.8c-3.9,0-6.15,3.375-6.15,8.4,0,5.05,2.25,8.4,6.15,8.4,3.875,0,6.125-3.35,6.125-8.4,0-5.025-2.25-8.4-6.125-8.4Zm0,2.05c2.325,0,3.725,2.5,3.725,6.35,0,3.875-1.425,6.35-3.725,6.35-2.35,0-3.775-2.475-3.775-6.35,0-3.85,1.45-6.35,3.775-6.35Zm14.527-2.05c-3.9,0-6.15,3.375-6.15,8.4,0,5.05,2.25,8.4,6.15,8.4,3.875,0,6.125-3.35,6.125-8.4,0-5.025-2.25-8.4-6.125-8.4Zm0,2.05c2.325,0,3.725,2.5,3.725,6.35,0,3.875-1.425,6.35-3.725,6.35-2.35,0-3.775-2.475-3.775-6.35,0-3.85,1.45-6.35,3.775-6.35Zm21.535,7.05h-6.325v1.825h6.325v-1.825Zm21.282,1.5h-2.675v-10.325h-2.05l-7.625,10.975.25,1.225h7.225v4.05h2.2v-4.05h2.675v-1.875h0Zm-9.675,0l4.8-7.05v7.05h-4.8Zm16.864-10.6c-3.7,0-5.3,2.825-5.3,5.2,0,3,2.125,5,5.15,5,.825,0,1.975-.175,2.95-.65-.95,2.725-3.325,4.75-7.05,5.375l.325,1.925c6.125-.875,9.6-4.675,9.6-10.2,0-4.025-1.9-6.65-5.675-6.65h0Zm.375,8.55c-1.95,0-3.325-1.2-3.325-3.3,0-1.725,1.025-3.275,2.975-3.275,2,0,3.25,1.525,3.25,4.675,0,.375-.025.725-.05,1.075-.95.525-1.95.825-2.85.825Zm9.045,8.25c.8,0,1.45-.675,1.45-1.525s-.65-1.55-1.45-1.55-1.475.7-1.475,1.55.675,1.525,1.475,1.525Zm9.746-16.8c-3.7,0-5.3,2.825-5.3,5.2,0,3,2.125,5,5.15,5,.825,0,1.975-.175,2.95-.65-.95,2.725-3.325,4.75-7.05,5.375l.325,1.925c6.125-.875,9.6-4.675,9.6-10.2,0-4.025-1.9-6.65-5.675-6.65h0Zm.375,8.55c-1.95,0-3.325-1.2-3.325-3.3,0-1.725,1.025-3.275,2.975-3.275,2,0,3.25,1.525,3.25,4.675,0,.375-.025.725-.05,1.075-.95.525-1.95.825-2.85.825Zm13.052-8.55c-3.7,0-5.3,2.825-5.3,5.2,0,3,2.125,5,5.15,5,.825,0,1.975-.175,2.95-.65-.95,2.725-3.325,4.75-7.05,5.375l.325,1.925c6.125-.875,9.6-4.675,9.6-10.2,0-4.025-1.9-6.65-5.675-6.65h0Zm.375,8.55c-1.95,0-3.325-1.2-3.325-3.3,0-1.725,1.025-3.275,2.975-3.275,2,0,3.25,1.525,3.25,4.675,0,.375-.025.725-.05,1.075-.95.525-1.95.825-2.85.825Z"/><g class="cls-2"><path class="cls-4" d="m13.5088,156.622c-3.336,0-6.6723.014-10.0083-.005-3.0708-.017-4.4066-2.368-2.8435-5.003,3.3068-5.574,6.6223-11.144,9.9479-16.707,1.5199-2.542,4.225-2.543,5.7524-.001,3.338,5.556,6.6671,11.117,9.9848,16.685,1.5657,2.627.2256,5.009-2.8248,5.026-3.336.019-6.6725.005-10.0085.005h0Zm-1.7082-15.921c.1853,2.174.3499,4.069.5072,5.965.0577.697.3669,1.329,1.0864,1.241.4425-.054,1.1283-.596,1.1773-.985.2872-2.283.46-4.584.5826-6.884.0467-.877-.5399-1.418-1.4158-1.534-.8648-.114-1.5341.251-1.8286,1.067-.1543.428-.0939.933-.1091,1.13Zm3.5373,10.57c.029-.966-.7977-1.844-1.7781-1.889-.9778-.045-1.8576.754-1.9153,1.739-.0609,1.037.77,1.917,1.8191,1.928.9955.01,1.8448-.796,1.8743-1.778h0Z"/></g><path class="cls-10" d="m301.94,144.075c-.8,0-1.45.075-1.95.2l.325-4.55h6.15v-1.975h-7.975l-.575,7.825,1,.975c.85-.35,1.8-.525,2.7-.525,2,0,3.15,1.15,3.15,3.05,0,2.075-1.525,3.075-3.6,3.075-1.2,0-2.425-.3-3.7-.75l-.4,2.05c1.25.425,2.525.8,4.275.8,3.75,0,5.8-2.1,5.8-5.2,0-2.875-1.825-4.975-5.2-4.975h0Zm13.818-6.6c-3.9,0-6.15,3.375-6.15,8.4,0,5.05,2.25,8.4,6.15,8.4,3.875,0,6.125-3.35,6.125-8.4,0-5.025-2.25-8.4-6.125-8.4Zm0,2.05c2.325,0,3.725,2.5,3.725,6.35,0,3.875-1.425,6.35-3.725,6.35-2.35,0-3.775-2.475-3.775-6.35,0-3.85,1.45-6.35,3.775-6.35Zm10.111,14.75c.8,0,1.45-.675,1.45-1.525s-.65-1.55-1.45-1.55-1.475.7-1.475,1.55.675,1.525,1.475,1.525Zm10.129-16.8c-3.9,0-6.15,3.375-6.15,8.4,0,5.05,2.25,8.4,6.15,8.4,3.875,0,6.125-3.35,6.125-8.4,0-5.025-2.25-8.4-6.125-8.4Zm0,2.05c2.325,0,3.725,2.5,3.725,6.35,0,3.875-1.425,6.35-3.725,6.35-2.35,0-3.775-2.475-3.775-6.35,0-3.85,1.45-6.35,3.775-6.35Zm14.526-2.05c-3.9,0-6.15,3.375-6.15,8.4,0,5.05,2.25,8.4,6.15,8.4,3.875,0,6.125-3.35,6.125-8.4,0-5.025-2.25-8.4-6.125-8.4Zm0,2.05c2.325,0,3.725,2.5,3.725,6.35,0,3.875-1.425,6.35-3.725,6.35-2.35,0-3.775-2.475-3.775-6.35,0-3.85,1.45-6.35,3.775-6.35Zm21.536,7.05h-6.325v1.825h6.325v-1.825Zm19.057-8.825h-9.7v1.975h7.275l-5.95,14.275h2.375l6.375-15.15-.375-1.1h0Zm12.918,10.325h-2.675v-10.325h-2.05l-7.625,10.975.25,1.225h7.225v4.05h2.2v-4.05h2.675v-1.875h0Zm-9.675,0l4.8-7.05v7.05h-4.8Zm13.564,6.2c.8,0,1.45-.675,1.45-1.525s-.65-1.55-1.45-1.55-1.475.7-1.475,1.55.675,1.525,1.475,1.525Zm9.746-16.8c-3.7,0-5.3,2.825-5.3,5.2,0,3,2.125,5,5.15,5,.825,0,1.975-.175,2.95-.65-.95,2.725-3.325,4.75-7.05,5.375l.325,1.925c6.125-.875,9.6-4.675,9.6-10.2,0-4.025-1.9-6.65-5.675-6.65h0Zm.375,8.55c-1.95,0-3.325-1.2-3.325-3.3,0-1.725,1.025-3.275,2.975-3.275,2,0,3.25,1.525,3.25,4.675,0,.375-.025.725-.05,1.075-.95.525-1.95.825-2.85.825Zm13.052-8.55c-3.7,0-5.3,2.825-5.3,5.2,0,3,2.125,5,5.15,5,.825,0,1.975-.175,2.95-.65-.95,2.725-3.325,4.75-7.05,5.375l.325,1.925c6.125-.875,9.6-4.675,9.6-10.2,0-4.025-1.9-6.65-5.675-6.65h0Zm.375,8.55c-1.95,0-3.325-1.2-3.325-3.3,0-1.725,1.025-3.275,2.975-3.275,2,0,3.25,1.525,3.25,4.675,0,.375-.025.725-.05,1.075-.95.525-1.95.825-2.85.825Z"/><g class="cls-14"><path class="cls-7" d="m28,19.5001c0,6.9037-5.5965,12.4999-12.5001,12.4999S3,26.4035,3,19.5001,8.5965,7,15.5001,7s12.4999,5.5965,12.4999,12.5001Zm-14.6449,1.2321c-.8738-.8751-1.7481-1.7491-2.6227-2.6235-.3693-.3692-.8676-.3753-1.2404-.0085-.3776.3716-.7531.7457-1.1235,1.1243-.3705.3785-.3716.8646.0046,1.2422,1.488,1.4931,2.9783,2.9841,4.4719,4.4717.3804.379.8776.3839,1.2566.0053,2.8516-2.8461,5.7005-5.6952,8.5468-8.5468.3265-.327.3531-.7964.041-1.1391-.3929-.431-.8071-.8456-1.2388-1.2381-.3829-.3482-.8211-.3156-1.1823.0454-1.6529,1.6508-3.3042,3.303-4.9557,4.955-.6082.6081-1.2156,1.2172-1.8455,1.8478-.0465-.0567-.0759-.0994-.112-.1357Z"/></g><rect class="cls-5" x="267" y="252" width="183" height="39" rx="8" ry="8"/><g class="cls-15"><path class="cls-8" d="m15.5001,284c6.9036,0,12.5001-5.596,12.5001-12.5s-5.5965-12.5-12.5001-12.5-12.5001,5.596-12.5001,12.5,5.5965,12.5,12.5001,12.5Z"/><path class="cls-6" d="m15.4823,273.924c-.0426.053-.0717.098-.1085.135-.817.818-1.6344,1.636-2.4525,2.453-.422.422-.9111.421-1.334-.001-.382-.382-.7643-.763-1.1456-1.146-.3533-.354-.3517-.889.003-1.244.8276-.828,1.6555-1.656,2.484-2.483.0405-.04.0888-.073.1457-.118-.0521-.057-.0851-.095-.1207-.13-.8343-.835-1.6689-1.67-2.5037-2.504-.3619-.362-.3639-.894-.0037-1.255.3848-.385.7698-.771,1.1558-1.155.4035-.402.9016-.404,1.3035-.003.8253.824,1.6494,1.648,2.4726,2.474.0365.037.0601.086.0948.137.068-.063.1062-.098.1425-.134.8179-.817,1.6351-1.635,2.453-2.453.4349-.434.9168-.432,1.3546.005.375.375.7501.75,1.1252,1.125.3676.368.3651.894-.0049,1.264-.8315.831-1.6624,1.662-2.4941,2.493-.0336.033-.0757.059-.1258.097.0527.057.0858.095.1216.131.8308.831,1.6617,1.662,2.493,2.493.3774.377.3799.9.0053,1.274-.3649.365-.7453.716-1.0908,1.099-.4037.447-.9987.441-1.4147.006-.7929-.828-1.6163-1.627-2.4275-2.438-.0333-.033-.0678-.065-.1281-.122h0Z"/></g><path class="cls-10" d="m292.63,263.75h-9.7v1.975h7.275l-5.95,14.275h2.375l6.375-15.15-.375-1.1h0Zm7.431,6.325c-.8,0-1.45.075-1.95.2l.325-4.55h6.15v-1.975h-7.975l-.575,7.825,1,.975c.85-.35,1.8-.525,2.7-.525,2,0,3.15,1.15,3.15,3.05,0,2.075-1.525,3.075-3.6,3.075-1.2,0-2.425-.3-3.7-.75l-.4,2.05c1.25.425,2.525.8,4.275.8,3.75,0,5.8-2.1,5.8-5.2,0-2.875-1.825-4.975-5.2-4.975h0Zm9.768,10.2c.8,0,1.45-.675,1.45-1.525s-.65-1.55-1.45-1.55-1.475.7-1.475,1.55.675,1.525,1.475,1.525Zm10.129-16.8c-3.9,0-6.15,3.375-6.15,8.4,0,5.05,2.25,8.4,6.15,8.4,3.875,0,6.125-3.35,6.125-8.4,0-5.025-2.25-8.4-6.125-8.4Zm0,2.05c2.325,0,3.725,2.5,3.725,6.35,0,3.875-1.425,6.35-3.725,6.35-2.35,0-3.775-2.475-3.775-6.35,0-3.85,1.45-6.35,3.775-6.35Zm14.526-2.05c-3.9,0-6.15,3.375-6.15,8.4,0,5.05,2.25,8.4,6.15,8.4,3.875,0,6.125-3.35,6.125-8.4,0-5.025-2.25-8.4-6.125-8.4Zm0,2.05c2.325,0,3.725,2.5,3.725,6.35,0,3.875-1.425,6.35-3.725,6.35-2.35,0-3.775-2.475-3.775-6.35,0-3.85,1.45-6.35,3.775-6.35Zm21.536,7.05h-6.325v1.825h6.325v-1.825Zm16.157-8.85h-1.325l-5.925,2,.575,1.875,4.35-1.45v13.85h2.325v-16.275h0Zm9.28-.25c-3.9,0-6.15,3.375-6.15,8.4,0,5.05,2.25,8.4,6.15,8.4,3.875,0,6.125-3.35,6.125-8.4,0-5.025-2.25-8.4-6.125-8.4Zm0,2.05c2.325,0,3.725,2.5,3.725,6.35,0,3.875-1.425,6.35-3.725,6.35-2.35,0-3.775-2.475-3.775-6.35,0-3.85,1.45-6.35,3.775-6.35Zm14.526-2.05c-3.9,0-6.15,3.375-6.15,8.4,0,5.05,2.25,8.4,6.15,8.4,3.875,0,6.125-3.35,6.125-8.4,0-5.025-2.25-8.4-6.125-8.4Zm0,2.05c2.325,0,3.725,2.5,3.725,6.35,0,3.875-1.425,6.35-3.725,6.35-2.35,0-3.775-2.475-3.775-6.35,0-3.85,1.45-6.35,3.775-6.35Zm10.11,14.75c.8,0,1.45-.675,1.45-1.525s-.65-1.55-1.45-1.55-1.475.7-1.475,1.55.675,1.525,1.475,1.525Zm10.129-16.8c-3.9,0-6.15,3.375-6.15,8.4,0,5.05,2.25,8.4,6.15,8.4,3.875,0,6.125-3.35,6.125-8.4,0-5.025-2.25-8.4-6.125-8.4Zm0,2.05c2.325,0,3.725,2.5,3.725,6.35,0,3.875-1.425,6.35-3.725,6.35-2.35,0-3.775-2.475-3.775-6.35,0-3.85,1.45-6.35,3.775-6.35Zm14.527-2.05c-3.9,0-6.15,3.375-6.15,8.4,0,5.05,2.25,8.4,6.15,8.4,3.875,0,6.125-3.35,6.125-8.4,0-5.025-2.25-8.4-6.125-8.4Zm0,2.05c2.325,0,3.725,2.5,3.725,6.35,0,3.875-1.425,6.35-3.725,6.35-2.35,0-3.775-2.475-3.775-6.35,0-3.85,1.45-6.35,3.775-6.35Z"/><text class="cls-11" transform="translate(35.5248 28.2733)"><tspan x="0" y="0">A</tspan><tspan class="cls-13" x="16.1499" y="0">P</tspan><tspan class="cls-17" x="30.2251" y="0">R</tspan><tspan class="cls-3" x="45.625" y="0">O</tspan><tspan class="cls-12" x="63.7754" y="0">V</tspan><tspan x="77.7759" y="0">AR</tspan></text><text class="cls-11" transform="translate(35.5248 155.4748)"><tspan class="cls-12" x="0" y="0">A</tspan><tspan x="14.8003" y="0">VISO</tspan></text><text class="cls-11" transform="translate(35.5248 282.6754)"><tspan class="cls-16" x="0" y="0">F</tspan><tspan x="13" y="0">ALHAR</tspan></text></svg>