<?xml version="1.0" encoding="utf-8"?>
<!-- Generator: Adobe Illustrator 27.2.0, SVG Export Plug-In . SVG Version: 6.00 Build 0)  -->
<svg version="1.1" id="Layer_1" xmlns="http://www.w3.org/2000/svg" xmlns:xlink="http://www.w3.org/1999/xlink" x="0px" y="0px"
	 viewBox="0 0 554.8 349.3" style="enable-background:new 0 0 554.8 349.3;" xml:space="preserve">
<style type="text/css">
	.st0{fill:#274666;}
	.st1{fill:#00A651;}
	.st2{opacity:0.3;fill:#9CB505;enable-background:new    ;}
	.st3{opacity:0.3;fill:#71A600;enable-background:new    ;}
	.st4{opacity:0.3;fill:#F7941D;enable-background:new    ;}
	.st5{opacity:0.3;fill:#BE1E2D;enable-background:new    ;}
	.st6{fill:#71A600;}
	.st7{fill:#FFFFFF;}
	.st8{fill:#F7941D;}
	.st9{opacity:0.1;enable-background:new    ;}
	.st10{clip-path:url(#SVGID_00000080175892548315859360000001445153906446795671_);}
	.st11{fill:#4A9CD5;}
	.st12{clip-path:url(#SVGID_00000145034221331677398550000011469954597161310648_);}
	.st13{fill:#3D2D2C;}
	.st14{fill:#F28C63;}
	.st15{fill:#E07F57;}
	.st16{fill:#FB9B67;}
	.st17{fill-rule:evenodd;clip-rule:evenodd;fill:#4F9DD6;}
	.st18{clip-path:url(#SVGID_00000153696686720790249330000003063636633395875770_);}
	.st19{fill:#4F9DD6;}
</style>
<path class="st0" d="M302.3,52.7c2.4-1.6,4.1-3.9,4.1-6.8c0-4.2-3.3-6.5-9.1-6.5c-2.4,0-6.1,0.5-8,1l0.9,5.5c1.5-0.5,4.2-1,6.2-1
	c2.9,0,3.6,1,3.6,2.4c0,1.8-1.7,3.8-7.8,3.8v4.7c5.2-0.2,8.7,1.5,8.7,3.9c0,2.1-2,3.3-4.6,3.3c-2.4,0-4.8-0.5-7.1-1.3l-1,5.5
	c2.2,0.6,4.8,1.5,8.1,1.5c7.6,0,11.2-3.9,11.2-8.6C307.4,56.9,305.6,54.4,302.3,52.7L302.3,52.7z M326.8,53.4
	c1.9-1.3,3.8-3.5,3.8-6.5c0-4.2-3.8-7.5-9.4-7.5c-5.4,0-9.9,2.9-9.9,7.8c0,2.8,1.6,4.7,4,6.4c-3.2,1.8-4.6,4.3-4.6,6.9
	c0,4.9,4.6,8.2,10.4,8.2c5.6,0,10.5-3.1,10.5-8.4C331.6,56.9,329.4,54.9,326.8,53.4L326.8,53.4z M321,44.1c2,0,3.8,1.3,3.8,4
	c0,1.5-0.7,2.6-1.8,3.4c-3.2-1.4-5.5-2.5-5.5-4.6C317.6,45.3,319,44.1,321,44.1z M321.1,63.9c-2.2,0-4.5-1.3-4.5-4.4
	c0-1.6,0.9-2.9,2.6-3.9c0.2,0.1,0.4,0.2,0.6,0.3c3.1,1.5,5.5,2.5,5.5,4.7C325.3,62.6,323.3,63.9,321.1,63.9L321.1,63.9z M339.3,68.7
	c2,0,3.6-1.6,3.6-3.7c0-2.1-1.6-3.8-3.6-3.8s-3.6,1.7-3.6,3.8C335.7,67,337.3,68.7,339.3,68.7z M360.2,39.9h-3.6l-10.9,3.7l1.6,4.9
	l6.7-2.2v21.8h6.3L360.2,39.9L360.2,39.9z M383.7,40h-18.1v5.2h11.3l-9.4,23h6.5l10.5-25.2L383.7,40L383.7,40z M405.2,57
	c-1.3,0-2.8,0.6-4.1,1.8l-0.2-1.5h-2.7v10.8h3.1V61c1.2-0.8,2.8-0.9,3.7-0.9L405.2,57z M408.8,56c1,0,1.8-0.8,1.8-1.9
	c0-1-0.8-1.9-1.8-1.9c-1,0-1.8,0.8-1.8,1.9C407,55.2,407.8,56,408.8,56z M410.3,57.3h-3.1v10.8h3.1V57.3z M417.1,57
	c-2.7,0-4.4,1.2-4.4,3.2c0,1.6,1,2.4,3.3,3.6c1.5,0.7,2.1,1,2.1,1.6c0,0.6-0.5,0.8-1.4,0.8c-1,0-2.5-0.4-3.5-0.9l-0.5,2.3
	c1.5,0.6,2.8,0.8,4.1,0.8c2.6,0,4.2-1.2,4.2-3.1c0-1.7-1.2-2.8-3.8-4c-1.1-0.5-1.7-0.7-1.7-1.2c0-0.6,0.6-0.8,1.5-0.8
	c1,0,2.3,0.3,3.1,0.7l0.5-2.4C419.5,57.2,418.2,57,417.1,57L417.1,57z M430.5,68.1h3.3l-4.1-6.8l4-4h-3.6l-3.7,3.6v-8.4l-3.1,0.4
	v15.2h3.1v-3.6l1.3-1.3C427.7,63.3,430.5,68.1,430.5,68.1z M444.9,57c-2.7,0-4.4,1.2-4.4,3.2c0,1.6,1,2.4,3.3,3.6
	c1.5,0.7,2.1,1,2.1,1.6c0,0.6-0.5,0.8-1.4,0.8c-1,0-2.5-0.4-3.5-0.9l-0.5,2.3c1.5,0.6,2.8,0.8,4.1,0.8c2.6,0,4.2-1.2,4.2-3.1
	c0-1.7-1.2-2.8-3.8-4c-1.1-0.5-1.7-0.7-1.7-1.2c0-0.6,0.6-0.8,1.5-0.8c1,0,2.3,0.3,3.1,0.7l0.5-2.4C447.2,57.2,445.9,57,444.9,57
	L444.9,57z M455.8,57c-2.9,0-5.5,1.6-5.5,5.7c0,4.1,2.6,5.7,5.4,5.7c1.2,0,2.6-0.3,3.5-0.7l-0.3-2.2c-0.7,0.3-1.6,0.4-2.4,0.4
	c-1.8,0-3.1-1-3.1-3.2c0-2.4,1.3-3.2,3.2-3.2c0.6,0,1.3,0.1,2.1,0.3l0.5-2.2C458.1,57.2,456.9,57,455.8,57L455.8,57z M465.9,57
	c-3.4,0-5.4,2.5-5.4,5.7c0,3.2,2,5.7,5.4,5.7c3.4,0,5.4-2.4,5.4-5.7C471.3,59.5,469.3,57,465.9,57z M465.9,59.4
	c1.4,0,2.3,1.2,2.3,3.3c0,2.1-0.9,3.3-2.3,3.3c-1.4,0-2.3-1.2-2.3-3.3C463.6,60.6,464.5,59.4,465.9,59.4z M480.5,57
	c-1.3,0-2.8,0.6-4.1,1.8l-0.2-1.5h-2.7v10.8h3.1V61c1.2-0.8,2.8-0.9,3.7-0.9L480.5,57L480.5,57z M486.6,57c-2.8,0-5.1,2-5.1,5.7
	c0,3.9,2.6,5.7,5.5,5.7c1.3,0,2.9-0.3,3.7-0.7l-0.3-2.3c-0.8,0.3-1.8,0.5-2.6,0.5c-1.7,0-2.9-0.8-3.3-2.5h6.9
	C491.8,59.7,490.2,57,486.6,57z M486.6,59.3c1.1,0,1.8,0.8,1.9,2.2h-4.1C484.7,60.3,485.5,59.3,486.6,59.3L486.6,59.3z"/>
<path class="st1" d="M293.3,82.2h26c3.6,0,6.5,2.9,6.5,6.5l0,0c0,3.6-2.9,6.5-6.5,6.5h-26c-3.6,0-6.5-2.9-6.5-6.5l0,0
	C286.8,85.1,289.7,82.2,293.3,82.2z"/>
<path class="st2" d="M380,82.2h26c3.6,0,6.5,2.9,6.5,6.5l0,0c0,3.6-2.9,6.5-6.5,6.5h-26c-3.6,0-6.5-2.9-6.5-6.5l0,0
	C373.5,85.1,376.4,82.2,380,82.2z"/>
<path class="st3" d="M336.6,82.2h26c3.6,0,6.5,2.9,6.5,6.5l0,0c0,3.6-2.9,6.5-6.5,6.5h-26c-3.6,0-6.5-2.9-6.5-6.5l0,0
	C330.1,85.1,333.1,82.2,336.6,82.2z"/>
<path class="st4" d="M423.3,82.2h26c3.6,0,6.5,2.9,6.5,6.5l0,0c0,3.6-2.9,6.5-6.5,6.5h-26c-3.6,0-6.5-2.9-6.5-6.5l0,0
	C416.8,85.1,419.7,82.2,423.3,82.2z"/>
<path class="st5" d="M467.7,82.2h26c3.6,0,6.5,2.9,6.5,6.5l0,0c0,3.6-2.9,6.5-6.5,6.5h-26c-3.6,0-6.5-2.9-6.5-6.5l0,0
	C461.2,85.1,464.1,82.2,467.7,82.2z"/>
<path class="st6" d="M359.4,95.2h-22.7c-3.6,0-6.5-2.9-6.5-6.5l0,0c0-3.6,2.9-6.5,6.5-6.5h22.7V95.2z"/>
<path class="st7" d="M292.2,120.1h189.5c3,0,5.4,2.4,5.4,5.4v47.6c0,3-2.4,5.4-5.4,5.4H292.2c-3,0-5.4-2.4-5.4-5.4v-47.6
	C286.8,122.5,289.3,120.1,292.2,120.1z"/>
<path class="st1" d="M345.7,153.7h-1.8l-5.5,1.8l0.8,2.5l3.3-1.1v10.9h3.2V153.7L345.7,153.7z M355.3,153.7h-1.8l-5.5,1.8l0.8,2.5
	l3.3-1.1v10.9h3.2V153.7L355.3,153.7z M360.1,168c1,0,1.8-0.8,1.8-1.9c0-1-0.8-1.9-1.8-1.9c-1,0-1.8,0.8-1.8,1.9
	C358.3,167.2,359.1,168,360.1,168z M372,160.4c1-0.7,1.9-1.7,1.9-3.2c0-2.1-1.9-3.7-4.7-3.7c-2.7,0-4.9,1.5-4.9,3.9
	c0,1.4,0.8,2.4,2,3.2c-1.6,0.9-2.3,2.2-2.3,3.5c0,2.4,2.3,4.1,5.2,4.1c2.8,0,5.2-1.5,5.2-4.2C374.4,162.1,373.3,161.1,372,160.4
	L372,160.4z M369.1,155.7c1,0,1.9,0.7,1.9,2c0,0.8-0.4,1.3-0.9,1.7c-1.6-0.7-2.7-1.2-2.7-2.3C367.4,156.3,368.1,155.7,369.1,155.7z
	 M369.1,165.6c-1.1,0-2.3-0.7-2.3-2.2c0-0.8,0.5-1.4,1.3-1.9c0.1,0.1,0.2,0.1,0.3,0.2c1.6,0.8,2.8,1.2,2.8,2.3
	C371.2,165,370.2,165.6,369.1,165.6L369.1,165.6z M380.7,153.4c-3.6,0-5,2.6-5,4.7c0,2.6,1.9,4.3,4.4,4.3c0.6,0,1.4-0.1,2.1-0.4
	c-0.8,1.8-2.6,3.2-5.5,3.6l0.5,2.6c5.6-0.6,8.8-3.8,8.8-8.7C386.1,156,384.4,153.4,380.7,153.4L380.7,153.4z M381,160.5
	c-1.2,0-2.1-0.8-2.1-2.2c0-1.3,0.6-2.3,1.8-2.3c1.2,0,2,1.2,2,3.4c0,0.2,0,0.4,0,0.6C382.1,160.3,381.6,160.5,381,160.5L381,160.5z
	 M397.3,159.4c-1,0-2.1,0.5-3,1.3l-0.2-1.1h-2v8.1h2.3v-5.3c0.9-0.6,2.1-0.7,2.8-0.7L397.3,159.4L397.3,159.4z M400,158.7
	c0.7,0,1.3-0.6,1.3-1.4s-0.6-1.4-1.3-1.4c-0.7,0-1.3,0.6-1.3,1.4S399.2,158.7,400,158.7z M401.1,159.6h-2.3v8.1h2.3V159.6z
	 M406.2,159.4c-2,0-3.3,0.9-3.3,2.4c0,1.2,0.7,1.8,2.5,2.7c1.1,0.6,1.5,0.8,1.5,1.2c0,0.4-0.4,0.6-1.1,0.6c-0.7,0-1.9-0.3-2.6-0.7
	l-0.3,1.7c1.2,0.4,2.1,0.6,3,0.6c2,0,3.2-0.9,3.2-2.3c0-1.3-0.9-2.1-2.8-3c-0.8-0.4-1.3-0.6-1.3-0.9c0-0.5,0.4-0.6,1.1-0.6
	c0.8,0,1.7,0.3,2.3,0.5l0.3-1.8C408,159.6,407,159.4,406.2,159.4L406.2,159.4z M416.3,167.8h2.5l-3-5.1l3-3H416l-2.8,2.7v-6.3
	l-2.3,0.3v11.4h2.3v-2.7l1-0.9L416.3,167.8L416.3,167.8z M427.1,159.4c-2,0-3.3,0.9-3.3,2.4c0,1.2,0.7,1.8,2.5,2.7
	c1.1,0.6,1.5,0.8,1.5,1.2c0,0.4-0.4,0.6-1.1,0.6c-0.7,0-1.9-0.3-2.6-0.7l-0.3,1.7c1.2,0.4,2.1,0.6,3,0.6c2,0,3.2-0.9,3.2-2.3
	c0-1.3-0.9-2.1-2.8-3c-0.8-0.4-1.3-0.6-1.3-0.9c0-0.5,0.4-0.6,1.1-0.6c0.8,0,1.7,0.3,2.3,0.5l0.3-1.8
	C428.8,159.6,427.8,159.4,427.1,159.4L427.1,159.4z M435.2,159.4c-2.2,0-4.1,1.2-4.1,4.3c0,3.1,1.9,4.3,4.1,4.3
	c0.9,0,1.9-0.2,2.6-0.5l-0.3-1.7c-0.5,0.2-1.2,0.3-1.8,0.3c-1.3,0-2.3-0.8-2.3-2.4c0-1.8,1-2.4,2.4-2.4c0.5,0,1,0.1,1.6,0.2l0.4-1.7
	C436.9,159.6,436.1,159.4,435.2,159.4L435.2,159.4z M442.8,159.4c-2.5,0-4,1.9-4,4.3c0,2.4,1.5,4.3,4,4.3c2.5,0,4-1.8,4-4.3
	C446.8,161.3,445.3,159.4,442.8,159.4z M442.8,161.2c1,0,1.7,0.9,1.7,2.5c0,1.6-0.7,2.5-1.7,2.5s-1.7-0.9-1.7-2.5
	C441.1,162.1,441.8,161.2,442.8,161.2z M453.7,159.4c-1,0-2.1,0.5-3,1.3l-0.2-1.1h-2v8.1h2.3v-5.3c0.9-0.6,2.1-0.7,2.8-0.7
	L453.7,159.4L453.7,159.4z M458.3,159.4c-2.1,0-3.8,1.5-3.8,4.3c0,2.9,2,4.3,4.1,4.3c1,0,2.1-0.2,2.8-0.5l-0.2-1.7
	c-0.6,0.2-1.3,0.4-1.9,0.4c-1.3,0-2.2-0.6-2.5-1.9h5.2C462.2,161.5,461.1,159.4,458.3,159.4L458.3,159.4z M458.3,161.2
	c0.8,0,1.4,0.6,1.4,1.7h-3.1C456.9,161.9,457.5,161.2,458.3,161.2z"/>
<path class="st0" d="M344.3,136v1.3h2.2v2.5c-0.6,0.6-1.6,0.9-2.6,0.9c-2.3,0-3.7-1.5-3.7-4.1c0-2.7,1.5-4.1,3.8-4.1
	c0.9,0,1.9,0.2,2.6,0.5l0.4-1.2c-0.8-0.4-2-0.6-3.1-0.6c-3.3,0-5.3,2.1-5.3,5.5c0,3.2,1.8,5.5,5.2,5.5c1.9,0,3.3-0.6,4.2-1.8V136
	H344.3z M351.7,140.5v-3.4h4.7v-1.3h-4.7v-3.3h5.1v-1.3h-6.6v10.6h6.8v-1.3L351.7,140.5L351.7,140.5z M363.9,131
	c-3,0-5.2,2.3-5.2,5.5c0,3.2,2.2,5.4,5.2,5.4c3,0,5.2-2.3,5.2-5.4C369.1,133.3,366.9,131,363.9,131z M363.9,132.4
	c2.1,0,3.6,1.7,3.6,4.1c0,2.4-1.5,4.1-3.6,4.1c-2.1,0-3.6-1.7-3.6-4.1C360.3,134.1,361.8,132.4,363.9,132.4z M377.3,140.5v-9.3h-1.5
	v10.6h6.5v-1.3H377.3z M388.1,131c-3,0-5.2,2.3-5.2,5.5c0,3.2,2.2,5.4,5.2,5.4c3,0,5.2-2.3,5.2-5.4C393.3,133.3,391.2,131,388.1,131
	z M388.1,132.4c2.1,0,3.6,1.7,3.6,4.1c0,2.4-1.5,4.1-3.6,4.1s-3.6-1.7-3.6-4.1C384.5,134.1,386,132.4,388.1,132.4z M400.2,141.9
	c1,0,2.2-0.2,3.1-0.7l-0.5-1.2c-0.7,0.3-1.6,0.5-2.5,0.5c-2.4,0-3.8-1.5-3.8-4.1c0-2.7,1.5-4.1,3.8-4.1c0.8,0,1.8,0.1,2.5,0.4
	l0.4-1.2c-0.8-0.4-1.9-0.6-3-0.6c-3.3,0-5.2,2.2-5.2,5.5C395,139.6,396.7,141.9,400.2,141.9L400.2,141.9z M412.1,141.8h1.5
	l-3.7-10.6h-1.8l-3.8,10.6h1.5l1-2.9h4.2L412.1,141.8z M409,132.7l1.7,4.9h-3.4L409,132.7z M421.4,131.2h-8.2v1.3h3.3v9.3h1.5v-9.3
	h3.3L421.4,131.2L421.4,131.2z M424.6,131.2h-1.5v10.6h1.5V131.2z M432,131c-3,0-5.2,2.3-5.2,5.5c0,3.2,2.2,5.4,5.2,5.4
	c3,0,5.2-2.3,5.2-5.4C437.2,133.3,435,131,432,131z M432,132.4c2.1,0,3.6,1.7,3.6,4.1c0,2.4-1.5,4.1-3.6,4.1c-2.1,0-3.6-1.7-3.6-4.1
	C428.3,134.1,429.9,132.4,432,132.4z M446,131.2v7.6l-5.7-7.6h-1.1v10.6h1.5v-7.6l5.7,7.6h1.1v-10.6H446z"/>
<path class="st7" d="M292.2,186.2h189.5c3,0,5.4,2.4,5.4,5.4v47.6c0,3-2.4,5.4-5.4,5.4H292.2c-3,0-5.4-2.4-5.4-5.4v-47.6
	C286.8,188.6,289.3,186.2,292.2,186.2z"/>
<path class="st7" d="M292.2,252.2h189.5c3,0,5.4,2.4,5.4,5.4v47.6c0,3-2.4,5.4-5.4,5.4H292.2c-3,0-5.4-2.4-5.4-5.4v-47.6
	C286.8,254.6,289.3,252.2,292.2,252.2z"/>
<path class="st1" d="M347.9,219.7h-9.1v2.6h5.7l-4.7,11.5h3.3l5.2-12.6L347.9,219.7z M351.1,234.1c1,0,1.8-0.8,1.8-1.9
	s-0.8-1.9-1.8-1.9c-1,0-1.8,0.8-1.8,1.9S350.1,234.1,351.1,234.1z M360.1,219.5c-3.6,0-5,2.6-5,4.7c0,2.6,1.9,4.3,4.4,4.3
	c0.6,0,1.4-0.1,2.1-0.4c-0.8,1.8-2.6,3.2-5.5,3.6l0.5,2.6c5.6-0.6,8.8-3.8,8.8-8.7C365.4,222,363.7,219.5,360.1,219.5L360.1,219.5z
	 M360.4,226.5c-1.2,0-2.1-0.8-2.1-2.2c0-1.3,0.6-2.3,1.8-2.3c1.2,0,2,1.2,2,3.4c0,0.2,0,0.4,0,0.6
	C361.5,226.4,360.9,226.5,360.4,226.5L360.4,226.5z M375.2,226.4c1-0.7,1.9-1.7,1.9-3.2c0-2.1-1.9-3.7-4.7-3.7
	c-2.7,0-4.9,1.5-4.9,3.9c0,1.4,0.8,2.4,2,3.2c-1.6,0.9-2.3,2.2-2.3,3.5c0,2.4,2.3,4.1,5.2,4.1c2.8,0,5.2-1.5,5.2-4.2
	C377.5,228.2,376.5,227.2,375.2,226.4L375.2,226.4z M372.3,221.8c1,0,1.9,0.7,1.9,2c0,0.8-0.4,1.3-0.9,1.7c-1.6-0.7-2.7-1.2-2.7-2.3
	C370.5,222.4,371.2,221.8,372.3,221.8L372.3,221.8z M372.3,231.7c-1.1,0-2.3-0.7-2.3-2.2c0-0.8,0.5-1.4,1.3-1.9
	c0.1,0.1,0.2,0.1,0.3,0.2c1.6,0.8,2.8,1.2,2.8,2.3C374.4,231.1,373.4,231.7,372.3,231.7L372.3,231.7z M388.8,225.5
	c-1,0-2.1,0.5-3,1.3l-0.2-1.1h-2v8.1h2.3v-5.3c0.9-0.6,2.1-0.7,2.8-0.7L388.8,225.5L388.8,225.5z M391.5,224.7
	c0.7,0,1.3-0.6,1.3-1.4s-0.6-1.4-1.3-1.4c-0.7,0-1.3,0.6-1.3,1.4S390.7,224.7,391.5,224.7z M392.6,225.7h-2.3v8.1h2.3V225.7z
	 M397.7,225.5c-2,0-3.3,0.9-3.3,2.4c0,1.2,0.7,1.8,2.5,2.7c1.1,0.6,1.5,0.8,1.5,1.2c0,0.4-0.4,0.6-1.1,0.6c-0.7,0-1.9-0.3-2.6-0.7
	l-0.3,1.7c1.2,0.4,2.1,0.6,3,0.6c2,0,3.2-0.9,3.2-2.3c0-1.3-0.9-2.1-2.8-3c-0.8-0.4-1.3-0.6-1.3-0.9c0-0.5,0.4-0.6,1.1-0.6
	c0.8,0,1.7,0.3,2.3,0.5l0.3-1.8C399.5,225.6,398.5,225.5,397.7,225.5L397.7,225.5z M407.8,233.8h2.5l-3-5.1l3-3h-2.7l-2.8,2.7v-6.3
	l-2.3,0.3v11.4h2.3v-2.7l1-0.9L407.8,233.8L407.8,233.8z M418.6,225.5c-2,0-3.3,0.9-3.3,2.4c0,1.2,0.7,1.8,2.5,2.7
	c1.1,0.6,1.5,0.8,1.5,1.2c0,0.4-0.4,0.6-1.1,0.6c-0.7,0-1.9-0.3-2.6-0.7l-0.3,1.7c1.2,0.4,2.1,0.6,3,0.6c2,0,3.2-0.9,3.2-2.3
	c0-1.3-0.9-2.1-2.8-3c-0.8-0.4-1.3-0.6-1.3-0.9c0-0.5,0.4-0.6,1.1-0.6c0.8,0,1.7,0.3,2.3,0.5l0.3-1.8
	C420.3,225.6,419.3,225.5,418.6,225.5L418.6,225.5z M426.7,225.5c-2.2,0-4.1,1.2-4.1,4.3c0,3.1,1.9,4.3,4.1,4.3
	c0.9,0,1.9-0.2,2.6-0.5l-0.3-1.7c-0.5,0.2-1.2,0.3-1.8,0.3c-1.3,0-2.3-0.8-2.3-2.4c0-1.8,1-2.4,2.4-2.4c0.5,0,1,0.1,1.6,0.2l0.4-1.7
	C428.4,225.6,427.5,225.5,426.7,225.5L426.7,225.5z M434.3,225.5c-2.5,0-4,1.9-4,4.3c0,2.4,1.5,4.3,4,4.3c2.5,0,4-1.8,4-4.3
	C438.3,227.3,436.8,225.5,434.3,225.5z M434.3,227.2c1,0,1.7,0.9,1.7,2.5c0,1.6-0.7,2.5-1.7,2.5c-1,0-1.7-0.9-1.7-2.5
	C432.6,228.2,433.3,227.2,434.3,227.2z M445.2,225.5c-1,0-2.1,0.5-3,1.3l-0.2-1.1h-2v8.1h2.3v-5.3c0.9-0.6,2.1-0.7,2.8-0.7
	L445.2,225.5L445.2,225.5z M449.8,225.5c-2.1,0-3.8,1.5-3.8,4.3c0,2.9,2,4.3,4.1,4.3c1,0,2.1-0.2,2.8-0.5l-0.2-1.7
	c-0.6,0.2-1.3,0.4-1.9,0.4c-1.3,0-2.2-0.6-2.5-1.9h5.2C453.7,227.5,452.6,225.5,449.8,225.5L449.8,225.5z M449.8,227.2
	c0.8,0,1.4,0.6,1.4,1.7h-3.1C448.4,227.9,449,227.2,449.8,227.2z"/>
<path class="st8" d="M343.4,291c-0.5,0-0.8,0-1.2,0.1l0.2-2.7h5.4v-2.6H340l-0.4,6.9l1.2,1.5c0.7-0.3,1.5-0.4,2.2-0.4
	c1.3,0,2.1,0.6,2.1,1.7c0,1.2-1,1.8-2.6,1.8c-1.1,0-2.1-0.3-3.2-0.6l-0.5,2.7c1.2,0.4,2.3,0.8,4,0.8c3.5,0,5.5-1.9,5.5-4.7
	C348.4,292.9,346.7,291,343.4,291L343.4,291z M355.4,297.3c1.3-1.4,2.5-2.8,3.4-4.1c1-1.4,1.5-2.7,1.5-3.9c0-1.7-1.2-3.7-4.4-3.7
	c-1.6,0-3.2,0.2-5.3,0.9l0.6,2.6c1.4-0.5,2.7-0.8,3.9-0.8c1.3,0,1.9,0.5,1.9,1.5c0,0.7-0.5,1.7-1.3,2.8c-1.3,1.8-3.3,3.9-5.1,5.8
	l0.3,1.6h9.6v-2.6L355.4,297.3L355.4,297.3z M364.5,300.2c1,0,1.8-0.8,1.8-1.9s-0.8-1.9-1.8-1.9c-1,0-1.8,0.8-1.8,1.9
	S363.5,300.2,364.5,300.2z M374.9,285.8h-1.8l-5.5,1.8l0.8,2.5l3.3-1.1v10.9h3.2V285.8L374.9,285.8z M383.3,291.1
	c-0.6,0-1.4,0.1-2.1,0.4c0.8-1.8,2.6-3.2,5.5-3.6l-0.5-2.6c-5.6,0.6-8.8,3.8-8.8,8.7c0,3.4,1.7,6,5.3,6c3.6,0,5-2.6,5-4.7
	C387.7,292.9,385.8,291.1,383.3,291.1z M382.6,297.6c-1.2,0-2-1.2-2-3.4c0-0.2,0-0.4,0-0.6c0.6-0.3,1.2-0.5,1.7-0.5
	c1.2,0,2.1,0.8,2.1,2.2C384.4,296.6,383.8,297.6,382.6,297.6L382.6,297.6z M398.9,291.5c-1,0-2.1,0.5-3,1.3l-0.2-1.1h-2v8.1h2.3
	v-5.3c0.9-0.6,2.1-0.7,2.8-0.7L398.9,291.5L398.9,291.5z M401.6,290.8c0.7,0,1.3-0.6,1.3-1.4s-0.6-1.4-1.3-1.4
	c-0.7,0-1.3,0.6-1.3,1.4S400.8,290.8,401.6,290.8z M402.7,291.7h-2.3v8.1h2.3V291.7z M407.8,291.5c-2,0-3.3,0.9-3.3,2.4
	c0,1.2,0.7,1.8,2.5,2.7c1.1,0.6,1.5,0.8,1.5,1.2c0,0.4-0.4,0.6-1.1,0.6c-0.7,0-1.9-0.3-2.6-0.7l-0.3,1.7c1.2,0.4,2.1,0.6,3,0.6
	c2,0,3.2-0.9,3.2-2.3c0-1.3-0.9-2.1-2.8-3c-0.8-0.4-1.3-0.6-1.3-0.9c0-0.5,0.4-0.6,1.1-0.6c0.8,0,1.7,0.3,2.3,0.5l0.3-1.8
	C409.6,291.7,408.6,291.5,407.8,291.5L407.8,291.5z M417.9,299.9h2.5l-3-5.1l3-3h-2.7l-2.8,2.7v-6.3l-2.3,0.3v11.4h2.3v-2.7l1-0.9
	L417.9,299.9L417.9,299.9z M428.7,291.5c-2,0-3.3,0.9-3.3,2.4c0,1.2,0.7,1.8,2.5,2.7c1.1,0.6,1.5,0.8,1.5,1.2c0,0.4-0.4,0.6-1.1,0.6
	c-0.7,0-1.9-0.3-2.6-0.7l-0.3,1.7c1.2,0.4,2.1,0.6,3,0.6c2,0,3.2-0.9,3.2-2.3c0-1.3-0.9-2.1-2.8-3c-0.8-0.4-1.3-0.6-1.3-0.9
	c0-0.5,0.4-0.6,1.1-0.6c0.8,0,1.7,0.3,2.3,0.5l0.3-1.8C430.4,291.7,429.5,291.5,428.7,291.5L428.7,291.5z M436.8,291.5
	c-2.2,0-4.1,1.2-4.1,4.3c0,3.1,1.9,4.3,4.1,4.3c0.9,0,1.9-0.2,2.6-0.5l-0.3-1.7c-0.5,0.2-1.2,0.3-1.8,0.3c-1.3,0-2.3-0.8-2.3-2.4
	c0-1.8,1-2.4,2.4-2.4c0.5,0,1,0.1,1.6,0.2l0.4-1.7C438.6,291.7,437.7,291.5,436.8,291.5L436.8,291.5z M444.4,291.5
	c-2.5,0-4,1.9-4,4.3c0,2.4,1.5,4.3,4,4.3s4-1.8,4-4.3C448.5,293.4,447,291.5,444.4,291.5z M444.4,293.3c1,0,1.7,0.9,1.7,2.5
	c0,1.6-0.7,2.5-1.7,2.5s-1.7-0.9-1.7-2.5C442.7,294.2,443.4,293.3,444.4,293.3z M455.4,291.5c-1,0-2.1,0.5-3,1.3l-0.2-1.1h-2v8.1
	h2.3v-5.3c0.9-0.6,2.1-0.7,2.8-0.7L455.4,291.5L455.4,291.5z M460,291.5c-2.1,0-3.8,1.5-3.8,4.3c0,2.9,2,4.3,4.1,4.3
	c1,0,2.1-0.2,2.8-0.5l-0.2-1.7c-0.6,0.2-1.3,0.4-1.9,0.4c-1.3,0-2.2-0.6-2.5-1.9h5.2C463.8,293.6,462.7,291.5,460,291.5L460,291.5z
	 M460,293.3c0.8,0,1.4,0.6,1.4,1.7h-3.1C458.5,294,459.1,293.3,460,293.3L460,293.3z"/>
<path class="st0" d="M343.1,197.3h-4v10.6h4c3.5,0,5.2-2.6,5.2-5.3C348.3,199.9,346.6,197.3,343.1,197.3z M343.1,206.5h-2.5v-8h2.5
	c2.5,0,3.7,2,3.7,4C346.8,204.5,345.6,206.5,343.1,206.5z M351.9,206.5v-3.4h4.7v-1.3h-4.7v-3.3h5.1v-1.3h-6.6v10.6h6.8v-1.3
	L351.9,206.5L351.9,206.5z M365.6,197.3l-2.7,8.6l-2.7-8.6h-1.5l3.4,10.6h1.8l3.4-10.6H365.6z M370.4,197.3h-1.5v10.6h1.5V197.3z
	 M377.8,208c1,0,2.2-0.2,3.1-0.7l-0.5-1.2c-0.7,0.3-1.6,0.5-2.5,0.5c-2.4,0-3.8-1.5-3.8-4.1c0-2.7,1.5-4.1,3.8-4.1
	c0.8,0,1.8,0.1,2.5,0.4l0.4-1.2c-0.8-0.4-1.9-0.6-3-0.6c-3.3,0-5.2,2.2-5.2,5.5C372.6,205.7,374.4,208,377.8,208L377.8,208z
	 M384.5,206.5v-3.4h4.7v-1.3h-4.7v-3.3h5.1v-1.3H383v10.6h6.8v-1.3L384.5,206.5L384.5,206.5z M398.1,197.3h-1.5v10.6h1.5V197.3z
	 M404.8,197.3h-4v10.6h4c3.5,0,5.2-2.6,5.2-5.3C410,199.9,408.3,197.3,404.8,197.3z M404.8,206.5h-2.5v-8h2.5c2.5,0,3.7,2,3.7,4
	C408.5,204.5,407.3,206.5,404.8,206.5z"/>
<path class="st0" d="M345.9,273.9h1.5l-3.7-10.6h-1.8l-3.8,10.6h1.5l1-2.9h4.2L345.9,273.9z M342.8,264.8l1.7,4.9h-3.4L342.8,264.8z
	 M353.2,263.3h-4v10.6h4c3.5,0,5.2-2.6,5.2-5.3C358.4,266,356.7,263.3,353.2,263.3z M353.2,272.6h-2.5v-8h2.5c2.5,0,3.7,2,3.7,4
	C356.8,270.6,355.6,272.6,353.2,272.6z M364.5,263.3h-4v10.6h4c3.5,0,5.2-2.6,5.2-5.3C369.7,266,367.9,263.3,364.5,263.3z
	 M364.5,272.6H362v-8h2.5c2.5,0,3.7,2,3.7,4C368.1,270.6,366.9,272.6,364.5,272.6z M377.6,273.9h1.7l-2.9-4.2
	c1.6-0.4,2.3-1.8,2.3-3.1c0-1.6-1.1-3.3-3.3-3.3h-3.7v10.6h1.5v-3.9h1.6L377.6,273.9L377.6,273.9z M373.3,264.6h2c1.3,0,1.9,1,1.9,2
	c0,1-0.6,2-1.9,2h-2V264.6z M382.9,272.6v-3.4h4.7v-1.3h-4.7v-3.3h5.1v-1.3h-6.6v10.6h6.8v-1.3H382.9L382.9,272.6z M393.8,263.1
	c-2.1,0-3.6,1.2-3.6,2.9c0,1.6,1.4,2.4,3.1,3.1c1.3,0.6,2.4,1.1,2.4,2.1c0,1-0.8,1.5-2.1,1.5c-0.9,0-2-0.4-3.1-1.4l-0.5,1.2
	c1.1,1,2.5,1.4,3.7,1.4c2,0,3.6-0.9,3.6-2.8c0-1.8-1.5-2.7-3.2-3.4c-1.4-0.6-2.3-1.1-2.3-1.9c0-0.9,0.9-1.5,2.2-1.5
	c0.7,0,1.6,0.2,2.3,0.6l0.4-1.2C395.7,263.3,394.7,263.1,393.8,263.1L393.8,263.1z M402.6,263.1c-2.1,0-3.6,1.2-3.6,2.9
	c0,1.6,1.4,2.4,3.1,3.1c1.3,0.6,2.4,1.1,2.4,2.1c0,1-0.8,1.5-2.1,1.5c-0.9,0-2-0.4-3.1-1.4l-0.5,1.2c1.1,1,2.5,1.4,3.7,1.4
	c2,0,3.6-0.9,3.6-2.8c0-1.8-1.5-2.7-3.2-3.4c-1.4-0.6-2.3-1.1-2.3-1.9c0-0.9,0.9-1.5,2.2-1.5c0.7,0,1.6,0.2,2.3,0.6l0.4-1.2
	C404.6,263.3,403.6,263.1,402.6,263.1L402.6,263.1z M418.6,263.3l-2.7,8.6l-2.7-8.6h-1.5l3.4,10.6h1.8l3.4-10.6H418.6z M423.5,272.6
	v-3.4h4.7v-1.3h-4.7v-3.3h5.1v-1.3H422v10.6h6.8v-1.3H423.5L423.5,272.6z M436.9,273.9h1.7l-2.9-4.2c1.6-0.4,2.3-1.8,2.3-3.1
	c0-1.6-1.1-3.3-3.3-3.3h-3.7v10.6h1.5v-3.9h1.6L436.9,273.9L436.9,273.9z M432.6,264.6h2c1.3,0,1.9,1,1.9,2c0,1-0.6,2-1.9,2h-2
	V264.6z M442.1,263.3h-1.5v10.6h1.5V263.3z M451.6,264.6v-1.3h-6.6v10.6h1.5v-4.3h4.7v-1.3h-4.7v-3.7H451.6L451.6,264.6z
	 M459.4,263.3l-2.5,4.7l-2.5-4.7h-1.6l3.3,6.3v4.2l1.5,0v-4.2l3.4-6.4H459.4z"/>
<path class="st7" d="M500.7,120.1L500.7,120.1c1.5,0,2.7,1.2,2.7,2.7V308c0,1.5-1.2,2.7-2.7,2.7l0,0c-1.5,0-2.7-1.2-2.7-2.7V122.8
	C498,121.3,499.2,120.1,500.7,120.1L500.7,120.1z"/>
<path class="st9" d="M500.7,120.1L500.7,120.1c1.5,0,2.7,1.2,2.7,2.7v39c0,1.5-1.2,2.7-2.7,2.7l0,0c-1.5,0-2.7-1.2-2.7-2.7v-39
	C498,121.3,499.2,120.1,500.7,120.1z"/>
<g>
	<defs>
		<rect id="SVGID_1_" x="295.5" y="203.5" width="32.5" height="28.2"/>
	</defs>
	<clipPath id="SVGID_00000142146314542323041200000005381098312195053955_">
		<use xlink:href="#SVGID_1_"  style="overflow:visible;"/>
	</clipPath>
	<g style="clip-path:url(#SVGID_00000142146314542323041200000005381098312195053955_);">
		<path class="st11" d="M321.9,231.1H298v0.6h23.9V231.1z"/>
		<path class="st11" d="M319.5,227.6v-1.8h-0.8v1.6h-17.4V217h0.6l-0.4-0.9H301c-0.3,0-0.5,0.2-0.5,0.5v10.9h0l-2.4,3.1h8.8l0.6-0.8
			h5l0.6,0.8h8.8L319.5,227.6L319.5,227.6z"/>
		<path class="st11" d="M299,203.5h-1.7c-1,0-1.8,0.8-1.8,1.9v1.7c0,0.1,0.1,0.2,0.2,0.2h0.7c0.1,0,0.2-0.1,0.2-0.2v-1.7
			c0-0.4,0.3-0.7,0.7-0.7h1.7c0.1,0,0.2-0.1,0.2-0.2v-0.7C299.2,203.6,299.1,203.5,299,203.5L299,203.5z"/>
		<path class="st11" d="M317.4,203.5h-1.7c-0.1,0-0.2,0.1-0.2,0.2v0.7c0,0.1,0.1,0.2,0.2,0.2h1.7c0.4,0,0.7,0.3,0.7,0.7v1.7
			c0,0.1,0.1,0.2,0.2,0.2h0.7c0.1,0,0.2-0.1,0.2-0.2v-1.7C319.2,204.3,318.4,203.5,317.4,203.5L317.4,203.5z"/>
		<path class="st11" d="M299,221h-1.7c-0.4,0-0.7-0.3-0.7-0.7v-1.6c0-0.1-0.1-0.2-0.2-0.2h-0.7c-0.1,0-0.2,0.1-0.2,0.2v1.6
			c0,1,0.8,1.9,1.8,1.9h1.7c0.1,0,0.2-0.1,0.2-0.2v-0.7C299.2,221.1,299.1,221,299,221z"/>
		<path class="st11" d="M325.2,217.7c0.1,0,0.3-0.1,0.3-0.3c0-0.1-0.1-0.3-0.3-0.3s-0.3,0.1-0.3,0.3
			C324.9,217.5,325.1,217.7,325.2,217.7z"/>
		<path class="st11" d="M327.5,208.1H323c-0.3,0-0.5,0.2-0.5,0.5v9c0,0.3,0.2,0.5,0.5,0.5h4.5c0.3,0,0.5-0.2,0.5-0.5v-9
			C328,208.4,327.7,208.1,327.5,208.1L327.5,208.1z M324.6,208.5h1.1c0.1,0,0.1,0,0.1,0.1s0,0.1-0.1,0.1h-1.1
			C324.6,208.7,324.5,208.7,324.6,208.5C324.5,208.6,324.6,208.5,324.6,208.5z M325.2,217.8c-0.2,0-0.4-0.2-0.4-0.4
			c0-0.2,0.2-0.4,0.4-0.4c0.2,0,0.4,0.2,0.4,0.4C325.6,217.6,325.4,217.8,325.2,217.8z M327.5,216.7h-4.6v-7.6h4.6V216.7z"/>
		<path class="st11" d="M323.6,218.9v4.4h-9.1v-11.4h7.3v-0.9h-7.6c-0.3,0-0.5,0.2-0.5,0.5v12.7c0,0.3,0.2,0.5,0.5,0.5h9.8
			c0.3,0,0.5-0.2,0.5-0.5v-5.3H323.6L323.6,218.9z M319,224.4c-0.2,0-0.4-0.2-0.4-0.4c0-0.2,0.2-0.4,0.4-0.4c0.2,0,0.4,0.2,0.4,0.4
			C319.4,224.2,319.3,224.4,319,224.4z"/>
		<path class="st11" d="M303.8,216.2c2.1-0.5,5.3-1.3,5.4-5.9c0-0.5-0.2-1-0.5-1.4c-0.4-0.4-0.9-0.6-1.5-0.6c-0.6,0-1.1,0.2-1.5,0.6
			c-0.4,0.4-0.5,0.9-0.5,1.3c-0.3,1.5-1.3,2.3-3,2.3c-0.3,0-0.5,0.2-0.5,0.5c0,0.3,0.2,0.5,0.5,0.5c2.2,0,3.5-1.1,3.9-3.1
			c0.1-0.4,0.1-0.6,0.3-0.8c0.2-0.2,0.5-0.3,0.8-0.3c0.3,0,0.6,0.1,0.8,0.3c0.2,0.2,0.3,0.5,0.3,0.7c-0.1,3.9-2.7,4.5-4.7,5.1
			c-0.4,0.1-0.8,0.2-1.1,0.3c-0.2,0.1-0.4,0.3-0.3,0.6c0.1,0.2,0.2,0.3,0.4,0.3c0,0,0.1,0,0.1,0
			C303.1,216.4,303.4,216.3,303.8,216.2L303.8,216.2z"/>
		<path class="st11" d="M312.2,214.1c-0.8-0.3-1.6-0.6-1.5-1.9c0-0.3,0-0.5,0-0.7c0-0.3,0.1-0.6,0-1.2c0-2-1.6-3.6-3.5-3.6
			c-1.8,0-3.1,1.2-3.5,3.1c-0.2,1.1-0.8,1.2-1.3,1.1c-0.3,0-0.5,0.2-0.5,0.4c0,0.3,0.2,0.5,0.4,0.5c1.6,0.2,2.1-0.9,2.3-1.8
			c0.3-1.4,1.3-2.3,2.6-2.3c1.4,0,2.6,1.2,2.6,2.7c0,0.6,0,0.8,0,1.1c0,0.2,0,0.4,0,0.8c0,2.1,1.5,2.6,2.2,2.8c0,0,0.1,0,0.1,0
			c0.2,0,0.4-0.1,0.4-0.3C312.6,214.4,312.5,214.2,312.2,214.1L312.2,214.1z"/>
		<path class="st11" d="M312.4,212.6c0,0-0.2-0.2-0.2-0.6c0.1-0.6,0.1-1.6,0.1-1.6v0c0-2.8-2.3-5.1-5.1-5.1c-2.1,0-4,1.3-4.7,3.3
			c-0.1,0.2-0.2,0.5-0.2,0.7c0,0.1-0.1,0.3-0.1,0.3c-0.1,0.2,0,0.5,0.3,0.6c0.2,0.1,0.5,0,0.6-0.3c0-0.1,0.1-0.3,0.1-0.5
			c0.1-0.2,0.1-0.5,0.2-0.6c0.6-1.6,2.2-2.7,3.9-2.7c2.3,0,4.2,1.9,4.2,4.2c0,0.1,0,1-0.1,1.6c-0.1,1,0.5,1.5,0.9,1.6
			c0,0,0.1,0,0.1,0c0.2,0,0.4-0.1,0.5-0.4C312.7,212.9,312.6,212.6,312.4,212.6L312.4,212.6z"/>
		<path class="st11" d="M302.5,215c0.1,0,0.2,0,0.3-0.1c1.8-0.4,4.8-1,4.9-4.7c0-0.3-0.2-0.5-0.4-0.5c-0.3,0-0.5,0.2-0.5,0.4
			c-0.1,2.9-2.5,3.4-4.2,3.8c-0.1,0-0.2,0-0.3,0.1c-0.2,0.1-0.4,0.3-0.4,0.6C302,214.9,302.1,215,302.5,215
			C302.4,215,302.4,215,302.5,215z"/>
		<path class="st11" d="M311.9,215.6c-0.5-0.1-0.9-0.3-1.4-0.5c-0.4-0.2-0.8-0.5-1.1-0.8c-0.2-0.2-0.5-0.2-0.7,0
			c-0.2,0.2-0.2,0.5,0,0.7c0.4,0.5,0.9,0.9,1.4,1.1c0.5,0.2,1,0.4,1.5,0.5c0,0,0.1,0,0.1,0c0.2,0,0.4-0.1,0.5-0.4
			C312.3,215.9,312.2,215.7,311.9,215.6z"/>
		<path class="st11" d="M311.5,217.1c-0.9-0.2-1.5-0.5-2-0.8c-0.5-0.3-1-0.5-1.5-0.5c-0.4,0-0.9,0.2-1.6,0.4
			c-0.8,0.3-1.9,0.6-3.3,0.9c-0.3,0.1-0.4,0.3-0.4,0.6s0.3,0.4,0.5,0.4c1.5-0.3,2.6-0.7,3.4-0.9c0.6-0.2,1.1-0.4,1.4-0.4
			c0.3,0,0.6,0.2,1.1,0.4c0.5,0.3,1.2,0.7,2.2,0.9c0,0,0.1,0,0.1,0c0.2,0,0.4-0.2,0.5-0.4C311.9,217.4,311.7,217.2,311.5,217.1
			L311.5,217.1z"/>
		<path class="st11" d="M310.6,218.4c-0.3-0.1-0.7-0.3-1.1-0.5c-0.6-0.3-1.1-0.5-1.6-0.5c-0.4,0-1,0.2-1.9,0.5
			c-0.7,0.2-1.5,0.4-2,0.5c-0.3,0-0.4,0.3-0.4,0.5c0,0.3,0.3,0.4,0.5,0.4c0.6-0.1,1.4-0.3,2.1-0.6c0.7-0.2,1.4-0.4,1.7-0.4
			c0.3,0,0.8,0.2,1.2,0.4c0.4,0.2,0.9,0.4,1.3,0.5c0,0,0.1,0,0.1,0c0.2,0,0.4-0.1,0.4-0.3C311,218.7,310.8,218.5,310.6,218.4
			L310.6,218.4z"/>
		<path class="st11" d="M309.4,219.6c-0.1,0-0.2-0.1-0.3-0.1c-0.4-0.2-0.8-0.4-1.4-0.4c-0.3,0-0.6,0.1-1.2,0.2
			c-0.4,0.1-0.9,0.2-1.3,0.3c-0.3,0-0.4,0.3-0.4,0.5c0,0.3,0.3,0.4,0.5,0.4c0.4,0,0.9-0.2,1.4-0.3c0.4-0.1,0.8-0.2,1-0.2
			c0.4,0,0.7,0.1,1,0.3c0.1,0.1,0.3,0.1,0.4,0.2c0.1,0,0.1,0,0.2,0c0.2,0,0.4-0.1,0.4-0.3C309.8,219.9,309.6,219.6,309.4,219.6
			L309.4,219.6z"/>
	</g>
</g>
<g>
	<defs>
		<rect id="SVGID_00000018920292672199664120000016537972375028862879_" x="296.6" y="265.2" width="29.2" height="31.4"/>
	</defs>
	<clipPath id="SVGID_00000114070191332571136200000004104992975134217878_">
		<use xlink:href="#SVGID_00000018920292672199664120000016537972375028862879_"  style="overflow:visible;"/>
	</clipPath>
	<g style="clip-path:url(#SVGID_00000114070191332571136200000004104992975134217878_);">
		<path class="st11" d="M296.6,296.3c0.8-2.4,1.6-4.9,2.4-7.3c0.3-0.8,0.5-1.6,0.8-2.4c0.9,0,1.8-0.1,2.7,0c0.4,0,1.1,0,1,0.8
			c0.1,0.5-0.3,0.7-1.1,0.7c-1.5-0.1-1.7,0.8-2,1.9c-0.5,1.7-1,3.3-1.6,5.1h24.7c-0.7-2.2-1.4-4.3-2.2-6.4c-0.1-0.2-0.7-0.3-1-0.4
			c-0.6-0.1-1.3-0.1-1.3-0.9c0-0.8,0.7-0.8,1.3-0.8c2-0.1,2-0.1,2.7,1.8c0.8,2.4,1.6,4.8,2.4,7.2c0.1,0.3,0.2,0.7,0.3,1.1
			c-0.4,0-0.7,0.1-1,0.1c-9.1,0-18.2,0-27.4,0c-0.3,0-0.6,0-0.9-0.1L296.6,296.3L296.6,296.3z"/>
		<path class="st11" d="M310.2,265.2h1.8c0.1,0,0.1,0,0.2,0.1c1.9,0.2,3.7,0.8,5.2,1.9c2.9,2,4.5,4.8,4.4,8.4c0,1.9-0.4,3.6-1.1,5.4
			c-1.8,4.5-4.8,8.2-8.4,11.4c-0.8,0.7-1.9,0.6-2.6-0.1c-1.8-1.7-3.4-3.5-4.9-5.4c-1.7-2.3-3.2-4.8-4-7.6c-0.5-1.8-0.8-3.6-0.5-5.4
			c0.8-4.3,3.5-6.9,7.6-8.2C308.8,265.4,309.5,265.4,310.2,265.2L310.2,265.2z M319.7,275.1c0-4.7-3.9-8.5-8.6-8.4
			c-4.7,0-8.6,3.8-8.6,8.5c0,4.7,3.9,8.5,8.6,8.5C315.9,283.6,319.7,279.8,319.7,275.1L319.7,275.1z"/>
		<path class="st11" d="M310.8,269.3h0.1c0,0,0,0,0,0c0.1,0,0.1,0,0.2,0c0.1,0,0.2,0.1,0.2,0.2c0.1,0.1,0.1,0.1,0.2,0.2
			c0.4,0.4,0.8,0.8,1.3,1.2c0,0,0,0,0,0v-0.1c0-0.1,0-0.2,0-0.3c0-0.4,0.3-0.7,0.7-0.7c0.2,0,0.5,0,0.7,0c0.2,0,0.4,0.1,0.5,0.2
			c0.1,0.1,0.2,0.3,0.2,0.5c0,0.8,0,1.5,0,2.3c0,0,0,0.1,0,0.1c0.3,0.3,0.6,0.6,0.9,0.9c0.1,0.1,0.1,0.1,0.2,0.2
			c0.1,0.1,0.2,0.3,0.2,0.5c0,0.1,0,0.2-0.1,0.3c-0.1,0.2-0.3,0.3-0.6,0.3c-0.2,0-0.4,0-0.6,0c0,0,0,0-0.1,0v3.9c0,0.1,0,0.1,0,0.2
			c-0.1,0.3-0.3,0.5-0.7,0.5c-0.7,0-1.3,0-2,0c0,0,0,0,0,0v-3.2c0,0,0,0,0-0.1c0-0.4-0.3-0.7-0.7-0.7c-0.4,0-0.9,0-1.3,0
			c-0.3,0-0.5,0.2-0.6,0.4c0,0.1,0,0.2,0,0.3c0,1.1,0,2.1,0,3.2v0.1h-2c0,0,0,0-0.1,0c-0.3,0-0.5-0.2-0.6-0.4c0-0.1,0-0.2,0-0.3
			c0-1.3,0-2.6,0-3.9v-0.1h-0.1c-0.2,0-0.4,0-0.6,0c-0.3,0-0.6-0.2-0.6-0.5c0,0,0,0,0-0.1v-0.1c0,0,0,0,0,0c0-0.1,0.1-0.2,0.2-0.4
			c0.1-0.1,0.1-0.1,0.2-0.2c1.4-1.4,2.8-2.8,4.3-4.2c0.1-0.1,0.1-0.1,0.2-0.2C310.5,269.4,310.6,269.4,310.8,269.3
			C310.8,269.3,310.8,269.3,310.8,269.3L310.8,269.3z"/>
	</g>
</g>
<g>
	<g>
		<g>
			<path class="st13" d="M204.8,100.4c-1.1-41.6-9.7-52.1-22.9-53.3c-6.9-12.8-23.2-25.6-52.4-18.4c-7.2,1.8-13.8,5-19.4,9.3
				c-12.4,9.5-20.7,24.5-22.9,42c-1.1,5.4-1.8,11.8-2.3,19.2c-7.9,129.6-50.3,177.8,58.2,173.4C269.4,267.4,208.7,246.3,204.8,100.4
				z"/>
			<path class="st14" d="M106.5,138.2l-0.8-0.3c-3.1,0.2-7-7.3-7.3-14.1l-1.7-13c-0.1-2.4,0.5-4.2,2.4-3.6l0.6,0.2
				c3.3,1,5.7,4.6,5.9,8.8L106.5,138.2L106.5,138.2z"/>
			<path class="st14" d="M185.7,138.3l0.8-0.3c3.1,0.1,6.9-7.4,7.1-14.2l1.6-13c0.1-2.4-0.6-4.2-2.4-3.6l-0.6,0.2
				c-3.3,1.1-5.7,4.7-5.8,8.9L185.7,138.3L185.7,138.3z"/>
			<g>
				<polygon class="st15" points="173.8,147.1 119.2,147.1 119.2,209.7 173.8,209.6 				"/>
				<polygon class="st14" points="119.2,172 144.4,192.2 119.2,209.6 				"/>
				<path class="st16" d="M173.8,172v37.6c0,0-32.2,3.5-54.6,0L173.8,172z"/>
			</g>
			<path class="st16" d="M146.4,37.4c-25.1,0-45.4,19-45.4,42.3c0,2.1,0.2,4.1,0.5,6.1l4.3,59.7c0.6,8.2,4.6,15.8,11.1,20.8
				l19.9,15.6c2.6,2.1,6,3.3,9.5,3.3h0.3c3.5,0,6.9-1.2,9.5-3.3l19.8-15.6c6.5-5.1,10.6-12.8,11.2-21l4.3-59.6
				c0.3-2,0.5-4.1,0.5-6.1v0C191.9,56.4,171.5,37.4,146.4,37.4L146.4,37.4z"/>
			<path class="st13" d="M102.4,109.2c0.1-1,0.5-25.9,22.3-43.6c26.4,6.6,55.8,18.9,65.9,42.3c13.9-36.4-5.5-72.9-44.1-72.9
				S88.7,59.1,102.4,109.2L102.4,109.2z"/>
			<path class="st16" d="M226.5,226.5l-53.4-16.9h-26.7c0,0,0,0.1-0.1,0.3v-0.3h-26.7l-53.4,16.9c-10,3.2-16.2,13.1-14.7,23.5
				c1.8,12.1,4.3,29.3,7.2,48.5c25.3,16.4,55.4,25.9,87.8,25.9c32.3,0,62.4-9.5,87.6-25.8c2.8-19.2,5.4-36.5,7.2-48.6
				C242.7,239.6,236.5,229.7,226.5,226.5L226.5,226.5z"/>
			<path class="st11" d="M272.6,263.8l-0.1-2.1c-0.7-14-10.3-26-23.8-29.8c-9.6-2.7-21.2-5.8-32.4-8.7c-33.5,45-110.1,44.4-140,0
				l-34.5,9.1c-12.9,3.4-22,14.8-22.6,28.1l-0.1,2c29.6,37.6,75.6,61.8,127.2,61.8C197.4,324.4,242.9,300.7,272.6,263.8L272.6,263.8
				z"/>
			<path class="st13" d="M81.4,173.7c-5.7,41.1,18.4,70.3,44.2,68c-8.1-26.4-6.6-50-6.6-50L81.4,173.7L81.4,173.7z"/>
		</g>
	</g>
</g>
<g>
	<path class="st1" d="M269.4,68.7c0,15.5-12.5,28-28,28c-15.5,0-28-12.5-28-28s12.5-28,28-28C256.9,40.7,269.4,53.2,269.4,68.7z
		 M236.6,71.4c-2-2-3.9-3.9-5.9-5.9c-0.8-0.8-1.9-0.8-2.8,0c-0.8,0.8-1.7,1.7-2.5,2.5c-0.8,0.8-0.8,1.9,0,2.8c3.3,3.3,6.7,6.7,10,10
		c0.9,0.8,2,0.9,2.8,0c6.4-6.4,12.8-12.8,19.1-19.1c0.7-0.7,0.8-1.8,0.1-2.6c-0.9-1-1.8-1.9-2.8-2.8c-0.9-0.8-1.8-0.7-2.6,0.1
		c-3.7,3.7-7.4,7.4-11.1,11.1c-1.4,1.4-2.7,2.7-4.1,4.1C236.8,71.6,236.7,71.5,236.6,71.4z"/>
</g>
<g>
	<g>
		<path class="st17" d="M311.6,136.7c-2.2,0-4,1.8-4,4s1.8,4,4,4c2.2,0,4-1.8,4-4S313.9,136.7,311.6,136.7 M311.6,134.1
			c-3.6,0-6.6,3-6.6,6.6c0,1.5,0.6,2.9,1.4,4c5.2,7.3,5.2,7.3,5.2,7.3s0,0,5.2-7.3c0.8-1.1,1.4-2.5,1.4-4
			C318.2,137.1,315.3,134.1,311.6,134.1z"/>
	</g>
	<g>
		<path class="st17" d="M311.6,138.9c-1,0-1.9,0.8-1.9,1.9s0.8,1.9,1.9,1.9c1,0,1.9-0.8,1.9-1.9S312.7,138.9,311.6,138.9"/>
	</g>
	<g>
		<defs>
			<path id="SVGID_00000053544210679399898100000004596976925655835530_" d="M304.3,144.3l7,10.4l7.6-9.9l3.6-0.3l4.4,1
				c0,0,0.3,4.1,0.2,4.4s0.4,9.5,0.1,9.9s-3.8,2.2-3.8,2.2s-13.8,2.6-14,2.4c-0.1-0.1-8.3-1.6-8.6-1.8c-0.3-0.2-3.4-0.9-3.5-1.2
				s-1.1-4.9-1.1-4.9l0.4-6.6l0.2-4.8l3-1.4L304.3,144.3z"/>
		</defs>
		<clipPath id="SVGID_00000157995133705669752030000015413880483253926273_">
			<use xlink:href="#SVGID_00000053544210679399898100000004596976925655835530_"  style="overflow:visible;"/>
		</clipPath>
		<g style="clip-path:url(#SVGID_00000157995133705669752030000015413880483253926273_);">
			<path class="st19" d="M308,155.8c-0.2-0.1-0.4-0.2-0.6-0.3c0,0.2,0,0.3,0.1,0.5C307.6,156,307.8,155.9,308,155.8z"/>
			<path class="st19" d="M321.1,153.5c0,1.2-0.3,2.4-0.8,3.5c0.2,0.1,0.4,0.1,0.7,0.2c0.6-1.5,0.9-3,0.8-4.6c-0.5,0.3-1,0.6-1.5,0.9
				H321.1z"/>
			<path class="st19" d="M318.4,159.7c-0.9,0.9-2,1.7-3.2,2.2c-0.5,0.2-1,0.4-1.5,0.5c0.6-0.5,1.1-1.2,1.5-2.2
				c0.2-0.4,0.4-0.9,0.5-1.3c-0.2-0.1-0.4-0.1-0.6-0.2c-0.2,0.4-0.3,0.9-0.5,1.2c-0.7,1.5-1.7,2.5-2.7,2.7v-5c0,0,0.1,0,0.1,0
				c0,0-0.1,0-0.1,0c-0.2,0.1-0.5,0.2-0.7,0.3v4.8c-0.4-0.1-0.7-0.2-1.1-0.5c-0.5-0.4-1-1.1-1.5-1.9c-0.2-0.4-0.3-0.7-0.5-1.1
				c-0.2,0.1-0.4,0.2-0.6,0.2c0.2,0.4,0.3,0.8,0.5,1.2c0.4,0.8,0.9,1.5,1.4,1.9c-1.7-0.4-3.2-1.2-4.4-2.4c-0.3,0.1-0.5,0.1-0.7,0.2
				c0.1,0.1,0.1,0.1,0.2,0.2c2,1.9,4.5,2.9,7.1,2.9c0,0,0,0,0,0c0,0,0,0,0,0c0,0,0,0,0,0c2.7,0,5.3-1,7.3-3.1
				c0.1-0.1,0.2-0.2,0.3-0.3C319,159.8,318.7,159.8,318.4,159.7C318.5,159.7,318.4,159.7,318.4,159.7z"/>
			<path class="st19" d="M307.4,156c0-0.2,0-0.3-0.1-0.5c-0.2-0.1-0.5-0.2-0.7-0.3c0,0.4,0.1,0.7,0.1,1.1
				C307,156.2,307.2,156.1,307.4,156z"/>
			<path class="st19" d="M303.1,157.4c-0.6-1.2-0.9-2.5-1-3.9h1.2c-0.6-0.3-1.2-0.7-1.8-1c-0.1,1.7,0.2,3.5,1,5.1
				c0.2,0,0.3-0.1,0.5-0.1C303,157.4,303.1,157.4,303.1,157.4z"/>
			<path class="st19" d="M302.8,149.7c0.2-0.4,0.3-0.8,0.5-1.1c0.6,0.2,1.8,0.5,3.6,0.7c-0.2,0.8-0.3,1.7-0.4,2.6
				c0.2,0.1,0.4,0.2,0.7,0.3c0.1-1,0.2-1.9,0.4-2.8c1,0.1,2.2,0.2,3.7,0.2v3.4h-2.5c0.5,0.2,1,0.5,1.5,0.7h1v0.4
				c0.1,0,0.2,0.1,0.3,0.1c0.1,0.1,0.3,0.1,0.4,0.2v-0.7h1.6c0.5-0.2,1-0.4,1.4-0.7h-3v-3.4c1.4,0,2.6-0.1,3.7-0.2
				c0.2,1,0.3,2,0.4,3c0.2-0.1,0.4-0.2,0.7-0.3c-0.1-0.9-0.2-1.9-0.4-2.8c1.9-0.2,3-0.5,3.6-0.7c0.2,0.4,0.4,0.8,0.6,1.2
				c0.2-0.1,0.4-0.2,0.6-0.4c-0.5-1.3-1.3-2.5-2.4-3.6c-2-1.9-4.5-2.9-7.1-2.9c0,0,0,0,0,0c0,0,0,0,0,0c0,0,0,0,0,0
				c-2.7,0-5.3,1-7.3,3.1c-0.9,1-1.6,2-2.1,3.2c0.1,0.1,0.3,0.2,0.4,0.3C302.7,149.7,302.7,149.7,302.8,149.7z M318.2,146.4
				c0.5,0.5,1,1,1.3,1.6c-0.6,0.2-1.7,0.4-3.4,0.6c-0.2-1-0.6-1.9-1-2.7c-0.4-0.8-0.9-1.5-1.4-1.9
				C315.4,144.3,316.9,145.2,318.2,146.4z M312,143.8c0.4,0.1,0.7,0.2,1.1,0.5c0.5,0.4,1,1.1,1.5,1.9c0.4,0.7,0.7,1.5,0.9,2.4
				c-1,0.1-2.2,0.1-3.5,0.2V143.8z M311.3,143.8v5c-1.3,0-2.5-0.1-3.5-0.2c0.2-0.8,0.5-1.6,0.8-2.2
				C309.3,144.9,310.3,143.9,311.3,143.8z M304.8,146.6c0.9-0.9,2-1.7,3.2-2.2c0.5-0.2,1-0.4,1.5-0.5c-0.6,0.5-1.1,1.2-1.5,2.2
				c-0.4,0.7-0.7,1.6-0.9,2.4c-1.7-0.2-2.8-0.4-3.4-0.6C304,147.5,304.4,147,304.8,146.6z"/>
			<path class="st19" d="M316,155.7c0.2,0.1,0.3,0.1,0.5,0.2c0-0.2,0-0.3,0.1-0.5C316.4,155.6,316.2,155.6,316,155.7z"/>
			<path class="st19" d="M299.4,160.4c0.9,0,2.1-0.2,3.6-0.5c2.3-0.6,5.2-1.5,8.1-2.7c-0.2-0.1-0.5-0.2-0.7-0.3
				c-0.5-0.2-1-0.4-1.5-0.6c-2.1,0.8-4,1.4-5.7,1.9c-1.9,0.5-3.1,0.6-3.8,0.6c-0.3,0-0.5,0-0.7-0.1c0.2-0.3,0.9-1.2,2.6-2.4
				c-0.2-0.5-0.4-1.2-0.4-1.8c-2.9,2-4.3,3.7-3.8,4.8C297.4,160.1,298.1,160.4,299.4,160.4z"/>
			<path class="st19" d="M312.8,154.6c0.8,0.3,1.5,0.6,2.2,0.8c3.1-1.4,5.9-3,7.9-4.4c3-2.1,4.1-3.5,3.6-4.7c-0.3-0.7-1-1-2.3-1
				c-0.9,0-2.4,0.3-3.8,0.6c-0.2,0.1-0.4,0.1-0.7,0.2c0.3,0.3,0.9,1.4,0.9,1.5c1.7-0.4,3-0.6,3.6-0.6c0.3,0,0.5,0,0.7,0.1
				c-0.2,0.3-0.9,1.2-3.4,2.9C319.3,151.5,316.2,153.1,312.8,154.6z"/>
			<path class="st19" d="M323.3,154.4c-0.1-0.1-0.6-0.4-0.7-0.5c-0.1,0.6-0.3,1.1-0.5,1.7c2.1,1.4,3.1,2.4,3.3,2.7
				c-0.1,0-0.4,0.1-0.8,0.1c-0.7,0-1.8-0.1-3.6-0.5c-2.7-0.6-6.1-1.8-9.6-3.2s-6.6-3-9-4.5c-2.6-1.6-3.3-2.5-3.5-2.8
				c0.1,0,0.4-0.1,0.8-0.1c0.5,0,1.7,0.1,2.9,0.3c0.1-0.1,0.6-1.2,0.9-1.5c0,0-0.4,0-0.5,0c-1.4-0.3-2.5-0.4-3.4-0.4
				c-1.4,0-2.2,0.4-2.5,1.1c-0.5,1.2,0.6,2.6,3.7,4.6c2.5,1.6,6,3.4,9.8,5c3.8,1.6,7.5,2.8,10.5,3.4c1.4,0.3,2.5,0.4,3.4,0.4
				c1.4,0,2.2-0.4,2.5-1.1C327.5,157.8,326.3,156.4,323.3,154.4z"/>
		</g>
	</g>
</g>
</svg>
