<?xml version="1.0" encoding="UTF-8"?><svg id="Layer_1" xmlns="http://www.w3.org/2000/svg" xmlns:xlink="http://www.w3.org/1999/xlink" viewBox="0 0 589.067 380.9723"><defs><style>.cls-1,.cls-2,.cls-3,.cls-4{fill:none;}.cls-5{clip-path:url(#clippath);}.cls-6{mask:url(#mask);}.cls-7{fill:#fff;}.cls-8{fill:#bfbfbf;}.cls-9{fill:#4a9cd5;}.cls-10{fill:#274666;}.cls-11{clip-path:url(#clippath-1);}.cls-12{clip-path:url(#clippath-3);}.cls-13{clip-path:url(#clippath-2);}.cls-2{stroke:#4f9dd6;stroke-miterlimit:10;stroke-width:2px;}.cls-3,.cls-4{stroke:#fff;}.cls-4{stroke-width:1.5px;}.cls-14{mask:url(#mask-2);}.cls-15{mask:url(#mask-1);}</style><clipPath id="clippath"><rect class="cls-1" x="339.6537" y="11.3881" width="54.6628" height="50.1076"/></clipPath><mask id="mask" x="369.1329" y="28.0352" width="25.1834" height="25.4376" maskUnits="userSpaceOnUse"><g id="mask0_302_136"><path class="cls-7" d="m372.7885,51.128c1.6729-5.7145.4555-11.8869-3.265-16.5378l3.4016-4.0951,5.7908-2.4598s7.671.5569,7.9181.5569c.246,0,7.3533,2.8288,7.5913,3.3139.2391.484-.0786,10.5044,0,10.903.0797.3974-4.7625,7.5959-4.7625,7.5959l-9.0535,3.068-7.6209-2.3448Z"/></g></mask><mask id="mask-1" x="354.8542" y="11.3881" width="24.5496" height="22.5507" maskUnits="userSpaceOnUse"><g id="mask1_302_136"><path class="cls-7" d="m358.4064,28.0352c4.0359.7004,7.7177,2.7388,10.4508,5.7874l-.9543.1162c2.1911-4.3764,6.6062-7.2007,11.5008-7.3578l-.6662-6.6267-3.6191-6.6279-13.0712-1.9382s-7.433,3.6169-7.187,4.3411c.246.7232,1.3745,7.2348,1.534,7.7917.1594.5569,2.0123,4.5142,2.0123,4.5142Z"/></g></mask><clipPath id="clippath-1"><rect class="cls-1" x="191.7634" y="13.6657" width="51.2464" height="45.5523"/></clipPath><mask id="mask-2" x="210.5842" y="29.059" width="32.4256" height="27.9714" maskUnits="userSpaceOnUse"><g id="mask2_302_136"><path class="cls-7" d="m243.0098,29.059h-24.2566v27.9714h24.2566v-27.9714Z"/></g></mask><clipPath id="clippath-2"><rect class="cls-1" x="47.1918" y="12.5269" width="43.2747" height="46.6912"/></clipPath><clipPath id="clippath-3"><rect class="cls-1" x="499.2822" y="12.5269" width="47.83" height="47.83"/></clipPath></defs><path class="cls-10" d="m14.423,164.3l-2.178,8.514-2.232-8.514h-1.98l-2.25,8.532-2.16-8.55H1.499l3.114,11.718h2.178l2.232-8.514,2.214,8.514h2.196l3.114-11.7h-2.124Zm9.2122,2.484c-1.116,0-2.322.522-3.402,1.494l-.162-1.278h-1.836v9h2.07v-6.066c.972-.792,2.34-1.08,3.204-1.08l.126-2.07Zm2.8209-.936c.702,0,1.26-.594,1.26-1.332s-.558-1.332-1.26-1.332-1.26.594-1.26,1.332.558,1.332,1.26,1.332Zm1.044,1.152h-2.088v9h2.088v-9Zm7.583,7.272c-.54.18-.99.234-1.332.234-.936,0-1.242-.684-1.242-2.322v-3.546h2.628v-1.638h-2.628v-2.286l-2.07.396v1.89h-1.17v1.638h1.17v3.492c0,2.718.702,4.086,2.736,4.086.666,0,1.332-.09,2.16-.36l-.252-1.584Zm5.4393-7.488c-2.358,0-4.176,1.71-4.176,4.716,0,3.15,1.962,4.734,4.446,4.734,1.098,0,2.376-.234,3.024-.576l-.234-1.584c-.612.252-1.566.45-2.304.45-1.548,0-2.7-.936-2.934-2.538h5.994c.288-3.06-.918-5.202-3.816-5.202Zm.018,1.62c1.116,0,1.782.756,1.854,2.196h-4.032c.216-1.278.99-2.196,2.178-2.196Zm16.0366,7.812c1.098,0,2.412-.198,3.564-.81l-.684-1.674c-.792.36-1.764.576-2.646.576-2.394,0-3.87-1.548-3.87-4.176,0-2.826,1.584-4.158,3.87-4.158.864,0,1.872.162,2.61.468l.54-1.746c-.972-.414-2.196-.612-3.33-.612-3.582,0-5.886,2.358-5.886,6.066,0,3.492,1.854,6.066,5.832,6.066Zm10.9156-9.432c-1.116,0-2.322.522-3.402,1.494l-.162-1.278h-1.836v9h2.07v-6.066c.972-.792,2.34-1.08,3.204-1.08l.126-2.07Zm7.1761.216l-2.178,6.408-2.142-6.408h-2.07l3.186,9c-.486,1.026-1.152,1.512-2.178,2.142l.9,1.548c1.854-1.044,2.844-2.34,3.438-3.978l3.132-8.712h-2.088Zm8.4153-.216c-1.008,0-1.9617.414-2.7537,1.152l-.18-.936h-1.71v12.816l2.07-.288v-3.744c.666.288,1.368.432,2.0517.432,2.196,0,4.266-1.53,4.266-4.788,0-2.97-1.71-4.644-3.744-4.644Zm-1.0257,7.758c-.504,0-1.026-.108-1.548-.288v-4.95c.666-.486,1.386-.792,2.0517-.792,1.26,0,2.178,1.008,2.178,2.916,0,2.178-1.206,3.114-2.6817,3.114Zm11.6127-.27c-.54.18-.99.234-1.332.234-.936,0-1.242-.684-1.242-2.322v-3.546h2.628v-1.638h-2.628v-2.286l-2.07.396v1.89h-1.17v1.638h1.17v3.492c0,2.718.702,4.086,2.736,4.086.666,0,1.332-.09,2.16-.36l-.252-1.584Zm5.619-7.488c-2.7,0-4.356,1.998-4.356,4.716,0,2.736,1.638,4.716,4.356,4.716,2.7,0,4.356-1.98,4.356-4.716s-1.656-4.716-4.356-4.716Zm0,1.638c1.368,0,2.268,1.17,2.268,3.078s-.9,3.078-2.268,3.078c-1.386,0-2.268-1.17-2.268-3.078s.882-3.078,2.268-3.078Zm10.162-1.638c-2.376,0-4.41,1.314-4.41,4.716,0,3.258,1.944,4.734,4.356,4.734.972,0,2.214-.234,2.862-.576l-.234-1.566c-.576.234-1.512.414-2.178.414-1.566,0-2.736-1.044-2.736-3.06,0-2.214,1.224-2.97,2.772-2.97.576,0,1.278.126,1.944.342l.396-1.53c-.864-.342-1.836-.504-2.772-.504Zm10.107.216v6.48c-.702.702-1.584,1.026-2.232,1.026-.702,0-1.332-.468-1.332-1.998v-5.508h-2.07v5.58c0,2.376.954,3.636,2.808,3.636,1.098,0,2.052-.45,2.988-1.314l.198,1.098h1.71v-9h-2.07Zm9.984-.216c-1.116,0-2.322.522-3.402,1.494l-.162-1.278h-1.836v9h2.07v-6.066c.972-.792,2.34-1.08,3.204-1.08l.126-2.07Zm6.961,0c-1.116,0-2.322.522-3.402,1.494l-.162-1.278h-1.836v9h2.07v-6.066c.972-.792,2.34-1.08,3.204-1.08l.126-2.07Zm5.04,0c-2.358,0-4.176,1.71-4.176,4.716,0,3.15,1.962,4.734,4.446,4.734,1.098,0,2.376-.234,3.024-.576l-.234-1.584c-.612.252-1.566.45-2.304.45-1.548,0-2.7-.936-2.934-2.538h5.994c.288-3.06-.918-5.202-3.816-5.202Zm.018,1.62c1.116,0,1.782.756,1.854,2.196h-4.032c.216-1.278.99-2.196,2.178-2.196Zm10.985-1.62c-1.152,0-2.196.468-3.204,1.332l-.198-1.116h-1.728v9h2.07v-6.462c.81-.72,1.782-1.044,2.484-1.044.864,0,1.512.468,1.512,1.998v5.508h2.088v-5.58c0-2.376-1.008-3.636-3.024-3.636Zm9.34,0c-2.376,0-4.41,1.314-4.41,4.716,0,3.258,1.944,4.734,4.356,4.734.972,0,2.214-.234,2.862-.576l-.234-1.566c-.576.234-1.512.414-2.178.414-1.566,0-2.736-1.044-2.736-3.06,0-2.214,1.224-2.97,2.772-2.97.576,0,1.278.126,1.944.342l.396-1.53c-.864-.342-1.836-.504-2.772-.504Zm10.288.216l-2.178,6.408-2.142-6.408h-2.07l3.186,9c-.486,1.026-1.152,1.512-2.178,2.142l.9,1.548c1.854-1.044,2.844-2.34,3.438-3.978l3.132-8.712h-2.088Zm15.213,9h2.34l-3.006-4.482c1.584-.558,2.322-1.98,2.322-3.42,0-1.908-1.278-3.798-3.852-3.798h-4.302v11.7h2.142v-4.068h1.566l2.79,4.068Zm-4.356-9.99h1.962c1.26,0,1.89,1.044,1.89,2.07s-.63,2.07-1.89,2.07h-1.962v-4.14Zm13.607.99v6.48c-.702.702-1.584,1.026-2.232,1.026-.702,0-1.332-.468-1.332-1.998v-5.508h-2.07v5.58c0,2.376.954,3.636,2.808,3.636,1.098,0,2.052-.45,2.988-1.314l.198,1.098h1.71v-9h-2.07Zm6.654-3.906l-2.07.306v12.6h2.07v-12.906Zm6.19,3.69c-2.358,0-4.176,1.71-4.176,4.716,0,3.15,1.962,4.734,4.446,4.734,1.098,0,2.376-.234,3.024-.576l-.234-1.584c-.612.252-1.566.45-2.304.45-1.548,0-2.7-.936-2.934-2.538h5.994c.288-3.06-.918-5.202-3.816-5.202Zm.018,1.62c1.116,0,1.782.756,1.854,2.196h-4.032c.216-1.278.99-2.196,2.178-2.196Z"/><rect class="cls-7" x=".067" y="192" width="159.5867" height="29.1309" rx="12.6656" ry="12.6656"/><path class="cls-9" d="m24.5049,201.5625h-3.8364v10.7025h2.3875v-3.2601h1.4489c2.5851,0,3.8858-1.8935,3.8858-3.7541s-1.2843-3.6882-3.8858-3.6882Zm-.1482,5.4665h-1.3008v-3.5894h1.3008c1.0702,0,1.5971.8727,1.5971,1.7782,0,.8891-.5269,1.8112-1.5971,1.8112Zm10.9198-3.2107c-.9879,0-2.1076.4775-3.079,1.3337l-.1811-1.1196h-2.0252v8.2326h2.3381v-5.3842c.8891-.6092,2.124-.708,2.7991-.708l.1482-2.3545Zm4.6684,0c-2.1076,0-3.9023,1.4984-3.9023,4.3468,0,2.9802,1.9923,4.3304,4.1822,4.3304,1.0208,0,2.1734-.1976,2.832-.5269l-.247-1.7288c-.5763.2141-1.3502.3623-1.9758.3623-1.2678,0-2.2393-.6422-2.5192-1.8771h5.2524c.3128-2.8485-.8562-4.9067-3.6224-4.9067Zm.0165,1.7618c.8562,0,1.3831.5763,1.4654,1.696h-3.1284c.1811-.955.7739-1.696,1.663-1.696Zm9.5689,1.5807h-4.5444v1.7947h4.5444v-1.7947Zm6.2744-5.5982h-4.2316v10.7025h4.2316c3.6553,0,5.4994-2.6838,5.4994-5.3677,0-2.6674-1.8441-5.3348-5.4994-5.3348Zm0,8.7266h-1.8441v-6.7508h1.8441c1.9923,0,2.9967,1.6795,2.9967,3.3589,0,1.696-1.0044,3.3919-2.9967,3.3919Zm10.7194-6.4709c-2.1076,0-3.9023,1.4984-3.9023,4.3468,0,2.9802,1.9923,4.3304,4.1822,4.3304,1.0208,0,2.1734-.1976,2.832-.5269l-.247-1.7288c-.5763.2141-1.3502.3623-1.9758.3623-1.2678,0-2.2393-.6422-2.5192-1.8771h5.2524c.3128-2.8485-.8562-4.9067-3.6224-4.9067Zm.0165,1.7618c.8562,0,1.3831.5763,1.4654,1.696h-3.1284c.1811-.955.7739-1.696,1.663-1.696Zm10.0793,4.8244c-.4446.1482-.8233.1811-1.1032.1811-.8068,0-1.0702-.5763-1.0702-1.8277v-2.9144h2.2557v-1.8112h-2.2557v-2.1076l-2.3545.4281v1.6794h-1.0538v1.8112h1.0538v2.8485c0,2.5686.8233,3.787,2.7168,3.787.6915,0,1.3172-.0823,2.0911-.3623l-.2799-1.7124Zm5.051-6.5861c-2.1076,0-3.9023,1.4984-3.9023,4.3468,0,2.9802,1.9923,4.3304,4.1822,4.3304,1.0208,0,2.1734-.1976,2.832-.5269l-.247-1.7288c-.5763.2141-1.3501.3623-1.9758.3623-1.2678,0-2.2393-.6422-2.5192-1.8771h5.2524c.3128-2.8485-.8562-4.9067-3.6224-4.9067Zm.0165,1.7618c.8562,0,1.3831.5763,1.4654,1.696h-3.1284c.1811-.955.7739-1.696,1.663-1.696Zm10.6227-1.7618c-.9879,0-2.1076.4775-3.079,1.3337l-.1811-1.1196h-2.0252v8.2326h2.3381v-5.3842c.8891-.6092,2.124-.708,2.7991-.708l.1482-2.3545Zm11.1359,0c-1.0208,0-1.877.4281-2.7497,1.3337-.4281-.8727-1.1855-1.3337-2.3216-1.3337-.955,0-1.7618.3787-2.5686,1.1526l-.1811-.9385h-1.9594v8.2326h2.3381v-5.7958c.5763-.5598,1.1855-.7574,1.6301-.7574.6422,0,1.1032.3952,1.1032,1.5642v4.989h2.3381v-5.0878c0-.2305,0-.461-.0329-.6751.5763-.5763,1.202-.7904,1.663-.7904.6422,0,1.1032.3952,1.1032,1.5642v4.989h2.3385v-5.0878c0-2.157-.8891-3.3589-2.7007-3.3589Zm6.1217-.7739c.7574,0,1.3666-.6257,1.3666-1.416s-.6092-1.4325-1.3666-1.4325-1.3666.6421-1.3666,1.4325.6092,1.416,1.3666,1.416Zm1.169.9879h-2.3381v8.2326h2.3381v-8.2326Zm7.3423-.2141c-1.0702,0-1.9758.4281-2.8485,1.202l-.1976-.9879h-1.9594v8.2326h2.3381v-5.7628c.708-.5763,1.4325-.7904,1.9264-.7904.6915,0,1.1855.3623,1.1855,1.5642v4.989h2.3545v-5.0878c0-2.157-.9056-3.3589-2.7991-3.3589Zm8.3086,0c-2.1076,0-3.9023,1.4984-3.9023,4.3468,0,2.9802,1.9923,4.3304,4.1822,4.3304,1.0208,0,2.1734-.1976,2.832-.5269l-.247-1.7288c-.5763.2141-1.3502.3623-1.9758.3623-1.2678,0-2.2393-.6422-2.5192-1.8771h5.2524c.3128-2.8485-.8562-4.9067-3.6224-4.9067Zm.0165,1.7618c.8562,0,1.3831.5763,1.4654,1.696h-3.1284c.1811-.955.7739-1.696,1.663-1.696Zm10.4593-4.8408v3.4248c-.5763-.247-1.1855-.3458-1.7453-.3458-2.0252,0-3.8858,1.3996-3.8858,4.3962,0,2.7332,1.5313,4.2645,3.3754,4.2645.9056,0,1.7618-.3787,2.4863-1.0373l.1646.8233h1.9594v-11.855l-2.3545.3293Zm-3.2931,7.4917c0-1.7947.9715-2.5521,2.1734-2.5521.3622,0,.7409.0494,1.1196.1811v4.1493c-.5269.3458-1.0867.5434-1.5807.5434-.9879,0-1.7124-.7904-1.7124-2.3216Z"/><rect class="cls-7" x="169.7862" y="192" width="129.1893" height="29.1309" rx="12.6656" ry="12.6656"/><path class="cls-9" d="m198.3979,201.5625v4.2316h-4.4127v-4.2316h-2.3875v10.7025h2.3875v-4.495h4.4127v4.495h2.4039v-10.7025h-2.4039Zm8.3821,2.2558c-.9385,0-2.1075.1482-3.4248.494l.3458,1.8112c.9385-.2964,2.0252-.494,2.6674-.494,1.0373,0,1.1196.494,1.1196,1.5972-2.7168.1482-4.989.9056-4.989,2.7991,0,1.6301,1.2184,2.4533,2.618,2.4533.9221,0,1.8935-.3293,2.618-.955l.1482.7409h1.9594v-4.8079c0-1.5478.0988-3.6389-3.0626-3.6389Zm-1.0373,6.9977c-.6092,0-1.0044-.3128-1.0044-.8068,0-.9385,1.2678-1.3008,2.7497-1.3831v1.3172c-.4775.5104-1.1361.8727-1.7453.8727Zm11.4459-6.9977c-.9879,0-2.1076.4775-3.079,1.3337l-.1811-1.1196h-2.0252v8.2326h2.3381v-5.3842c.8891-.6092,2.124-.708,2.7991-.708l.1482-2.3545Zm6.3974-3.079v3.4248c-.5763-.247-1.1855-.3458-1.7453-.3458-2.0252,0-3.8858,1.3996-3.8858,4.3962,0,2.7332,1.5313,4.2645,3.3754,4.2645.9056,0,1.7618-.3787,2.4863-1.0373l.1647.8233h1.9594v-11.855l-2.3545.3293Zm-3.2931,7.4917c0-1.7947.9715-2.5521,2.1734-2.5521.3622,0,.7409.0494,1.1196.1811v4.1493c-.5269.3458-1.0867.5434-1.5807.5434-.9879,0-1.7124-.7904-1.7124-2.3216Zm16.9897,4.2481c.9879,0,2.2228-.1647,3.3918-.7903l-.7739-1.8606c-.7245.3293-1.5642.5269-2.3052.5269-1.9758,0-3.2272-1.2514-3.2272-3.4742,0-2.3874,1.3666-3.4083,3.2107-3.4083.7739,0,1.6301.1152,2.3052.3951l.5598-1.9594c-.9385-.3952-2.0582-.5598-3.079-.5598-3.2601,0-5.4994,2.1076-5.4994,5.5652,0,3.1943,1.63,5.5653,5.4171,5.5653Zm8.3758-8.6608c-2.5521,0-4.0834,1.877-4.0834,4.3304,0,2.4698,1.5148,4.3304,4.0834,4.3304s4.0999-1.8606,4.0999-4.3304c0-2.4533-1.5313-4.3304-4.0999-4.3304Zm0,1.7947c1.0538,0,1.7453.9221,1.7453,2.5357,0,1.5971-.6915,2.5357-1.7453,2.5357s-1.7289-.9386-1.7289-2.5357c0-1.6136.6751-2.5357,1.7289-2.5357Zm10.9064-4.8737v3.4248c-.5763-.247-1.1855-.3458-1.7453-.3458-2.0252,0-3.8858,1.3996-3.8858,4.3962,0,2.7332,1.5313,4.2645,3.3754,4.2645.9056,0,1.7618-.3787,2.4863-1.0373l.1646.8233h1.9594v-11.855l-2.3545.3293Zm-3.2931,7.4917c0-1.7947.9715-2.5521,2.1734-2.5521.3623,0,.7409.0494,1.1196.1811v4.1493c-.5269.3458-1.0867.5434-1.5807.5434-.9879,0-1.7124-.7904-1.7124-2.3216Zm11.2281-4.4127c-2.1076,0-3.9023,1.4984-3.9023,4.3468,0,2.9802,1.9923,4.3304,4.1822,4.3304,1.0208,0,2.1734-.1976,2.832-.5269l-.247-1.7288c-.5763.2141-1.3502.3623-1.9759.3623-1.2678,0-2.2393-.6422-2.5192-1.8771h5.2524c.3128-2.8485-.8562-4.9067-3.6224-4.9067Zm.0165,1.7618c.8562,0,1.3831.5763,1.4654,1.696h-3.1284c.1811-.955.7739-1.696,1.663-1.696Zm10.4593-4.8408v3.4248c-.5763-.247-1.1855-.3458-1.7453-.3458-2.0252,0-3.8858,1.3996-3.8858,4.3962,0,2.7332,1.5313,4.2645,3.3754,4.2645.9056,0,1.7618-.3787,2.4863-1.0373l.1647.8233h1.9594v-11.855l-2.3545.3293Zm-3.293,7.4917c0-1.7947.9715-2.5521,2.1734-2.5521.3622,0,.7409.0494,1.1196.1811v4.1493c-.5269.3458-1.0867.5434-1.5807.5434-.9879,0-1.7124-.7904-1.7124-2.3216Z"/><rect class="cls-9" x="309.108" y="192" width="187.4511" height="29.1309" rx="12.6656" ry="12.6656"/><path class="cls-7" d="m336.2188,203.5384v-1.9758h-7.113v10.7025h2.3875v-3.8858h4.2645v-1.9758h-4.2645v-2.865h4.7255Zm7.0294.2799c-.9879,0-2.1076.4775-3.079,1.3337l-.1811-1.1196h-2.0252v8.2326h2.338v-5.3842c.8891-.6092,2.124-.708,2.7991-.708l.1482-2.3545Zm4.6673,0c-2.1076,0-3.9023,1.4984-3.9023,4.3468,0,2.9802,1.9923,4.3304,4.1822,4.3304,1.0208,0,2.1734-.1976,2.832-.5269l-.247-1.7288c-.5763.2141-1.3502.3623-1.9758.3623-1.2678,0-2.2393-.6422-2.5192-1.8771h5.2524c.3129-2.8485-.8562-4.9067-3.6223-4.9067Zm.0165,1.7618c.8562,0,1.3831.5763,1.4654,1.696h-3.1284c.1811-.955.7739-1.696,1.663-1.696Zm8.7317-1.7618c-2.1076,0-3.9023,1.4984-3.9023,4.3468,0,2.9802,1.9923,4.3304,4.1822,4.3304,1.0208,0,2.1734-.1976,2.832-.5269l-.247-1.7288c-.5763.2141-1.3501.3623-1.9758.3623-1.2678,0-2.2393-.6422-2.5192-1.8771h5.2524c.3128-2.8485-.8562-4.9067-3.6224-4.9067Zm.0165,1.7618c.8562,0,1.3831.5763,1.4654,1.696h-3.1284c.1811-.955.7739-1.696,1.663-1.696Zm16.763-2.0417v-1.9758h-7.113v10.7025h2.3875v-3.8858h4.2645v-1.9758h-4.2645v-2.865h4.7256Zm4.9801.2799c-2.5521,0-4.0834,1.877-4.0834,4.3304,0,2.4698,1.5148,4.3304,4.0834,4.3304s4.0999-1.8606,4.0999-4.3304c0-2.4533-1.5313-4.3304-4.0999-4.3304Zm0,1.7947c1.0538,0,1.7453.9221,1.7453,2.5357,0,1.5971-.6916,2.5357-1.7453,2.5357s-1.7288-.9386-1.7288-2.5357c0-1.6136.6751-2.5357,1.7288-2.5357Zm11.0685-1.7947c-.9879,0-2.1076.4775-3.079,1.3337l-.1811-1.1196h-2.0252v8.2326h2.3381v-5.3842c.8891-.6092,2.124-.708,2.7991-.708l.1482-2.3545Zm11.1356,0c-1.0208,0-1.877.4281-2.7497,1.3337-.4281-.8727-1.1855-1.3337-2.3216-1.3337-.955,0-1.7618.3787-2.5686,1.1526l-.1811-.9385h-1.9594v8.2326h2.338v-5.7958c.5763-.5598,1.1855-.7574,1.6301-.7574.6421,0,1.1032.3952,1.1032,1.5642v4.989h2.338v-5.0878c0-.2305,0-.461-.0329-.6751.5763-.5763,1.202-.7904,1.663-.7904.6421,0,1.1032.3952,1.1032,1.5642v4.989h2.3381v-5.0878c0-2.157-.8892-3.3589-2.7003-3.3589Zm12.658-2.4698c-2.3381,0-3.9352,1.3666-3.9352,3.1449,0,1.4819,1.1361,2.4039,3.1119,3.2601,1.3337.5763,2.0911.9056,2.0911,1.663,0,.6915-.5763,1.0373-1.6136,1.0373-.8727,0-1.8112-.2799-3.2272-1.1032l-.5763,1.9429c1.3337.8233,2.7168,1.1855,3.9517,1.1855,2.3216,0,3.9517-1.0373,3.9517-3.0131,0-1.7947-1.3008-2.865-3.4742-3.7212-1.169-.4775-1.7288-.7903-1.7288-1.3666,0-.5598.5269-1.0538,1.5313-1.0538.6916,0,1.6301.1811,2.6509.6092l.5269-1.9429c-1.1855-.4775-2.2392-.6421-3.2601-.6421Zm9.1965,2.4698c-2.2228,0-4.1657,1.1855-4.1657,4.3468,0,3.1119,1.9758,4.3304,4.1163,4.3304.8891,0,1.9594-.1976,2.6344-.5269l-.2634-1.6959c-.5104.1976-1.2349.3129-1.7947.3129-1.3501,0-2.371-.7904-2.371-2.4533,0-1.8441,1.0208-2.4369,2.4204-2.4369.4775,0,1.0208.0988,1.5807.247l.3787-1.6794c-.7904-.3129-1.6795-.4446-2.5357-.4446Zm9.5081,0c-.9879,0-2.1076.4775-3.079,1.3337l-.1811-1.1196h-2.0253v8.2326h2.3381v-5.3842c.8891-.6092,2.124-.708,2.7991-.708l.1482-2.3545Zm2.7219-.7739c.7574,0,1.3666-.6257,1.3666-1.416s-.6092-1.4325-1.3666-1.4325-1.3666.6421-1.3666,1.4325.6092,1.416,1.3666,1.416Zm1.169.9879h-2.3381v8.2326h2.3381v-8.2326Zm6.9306-.2141c-.9056,0-1.7618.3787-2.4862,1.0373l-.1482-.8233h-1.9594v11.7398l2.338-.3129v-3.326c.5763.247,1.1855.3458,1.7453.3458,2.0252,0,3.9023-1.3996,3.9023-4.3962,0-2.7332-1.5478-4.2645-3.3919-4.2645Zm-1.1361,6.8002c-.3622,0-.7409-.0494-1.1196-.1811v-4.1493c.5434-.3458,1.0867-.5434,1.5807-.5434,1.0044,0,1.7124.7904,1.7124,2.3216,0,1.7947-.955,2.5521-2.1734,2.5521Zm10.9482-.2141c-.4446.1482-.8233.1811-1.1032.1811-.8068,0-1.0702-.5763-1.0702-1.8277v-2.9144h2.2558v-1.8112h-2.2558v-2.1076l-2.3545.4281v1.6794h-1.0538v1.8112h1.0538v2.8485c0,2.5686.8233,3.787,2.7168,3.787.6915,0,1.3172-.0823,2.0911-.3623l-.2799-1.7124Zm3.1841-7.36c.7574,0,1.3666-.6257,1.3666-1.416s-.6092-1.4325-1.3666-1.4325-1.3666.6421-1.3666,1.4325.6092,1.416,1.3666,1.416Zm1.169.9879h-2.338v8.2326h2.338v-8.2326Zm7.3423-.2141c-1.0702,0-1.9759.4281-2.8485,1.202l-.1976-.9879h-1.9594v8.2326h2.3381v-5.7628c.708-.5763,1.4325-.7904,1.9264-.7904.6916,0,1.1855.3623,1.1855,1.5642v4.989h2.3545v-5.0878c0-2.157-.9056-3.3589-2.7991-3.3589Zm13.2976.2141h-3.2107c-.4446-.1482-.9385-.2141-1.4654-.2141-2.1076,0-3.6882,1.2184-3.6882,3.0461,0,.7903.2799,1.449.7903,1.9429-.6586.6422-.9056,1.169-.9056,1.696,0,.6092.3458,1.0044.8562,1.2843-.9221.5763-1.202,1.2514-1.202,1.8277,0,1.6465,2.0417,2.5521,4.2316,2.5521,2.0582,0,4.0505-.955,4.0505-2.7991,0-1.9758-2.5192-2.4533-4.3139-2.7168-1.0373-.1482-1.7289-.2964-1.7289-.6586,0-.1153.0659-.247.247-.4116.4939.1811,1.0538.2634,1.663.2634,2.124,0,3.5895-1.1361,3.5895-2.9802,0-.3622-.0494-.708-.1647-1.0208h1.2514v-1.8112Zm-4.6597,4.1493c-.9056,0-1.5642-.5104-1.5642-1.3666,0-.8233.6421-1.3337,1.5313-1.3337s1.5478.5104,1.5478,1.3666c0,.8397-.6257,1.3337-1.5148,1.3337Zm1.7947,5.2195c0,.7574-.8398,1.1032-1.7783,1.1032-.9715,0-1.91-.3623-1.91-1.1196,0-.3293.2305-.708.8068-1.0867.1811.0329.3623.0494.5434.0823,1.2678.1811,2.3381.3458,2.3381,1.0208Z"/><path class="cls-7" d="m5.0091,0h128.2323c2.7664,0,5.0091,2.3844,5.0091,5.3257v127.8167c0,2.9413-2.2426,5.3257-5.0091,5.3257H5.0091c-2.7664,0-5.0091-2.3844-5.0091-5.3257V5.3257C0,2.3844,2.2426,0,5.0091,0Z"/><path class="cls-10" d="m34.0144,87.8807c.8883,0,1.9986-.1481,3.0497-.7106l-.6958-1.6729c-.6514.2961-1.4064.4737-2.0726.4737-1.7765,0-2.9017-1.1252-2.9017-3.1238,0-2.1466,1.2288-3.0645,2.8869-3.0645.6958,0,1.4656.1036,2.0726.3553l.5034-1.7617c-.8439-.3553-1.8506-.5034-2.7684-.5034-2.9313,0-4.9447,1.895-4.9447,5.0039,0,2.8721,1.4656,5.0039,4.8707,5.0039Zm9.301-7.7872c-.8883,0-1.895.4293-2.7684,1.1992l-.1629-1.0067h-1.821v7.4023h2.1022v-4.8411c.7994-.5478,1.9098-.6366,2.5168-.6366l.1332-2.1171Zm4.1975,0c-1.895,0-3.5087,1.3472-3.5087,3.9084,0,2.6796,1.7914,3.8936,3.7603,3.8936.9179,0,1.9542-.1777,2.5464-.4737l-.2221-1.5545c-.5182.1925-1.214.3257-1.7765.3257-1.1399,0-2.0134-.5774-2.2651-1.6877h4.7226c.2813-2.5612-.7698-4.4118-3.257-4.4118Zm.0148,1.5841c.7698,0,1.2436.5182,1.3176,1.5249h-2.8129c.1628-.8587.6958-1.5249,1.4953-1.5249Zm9.4046-4.3525v3.0794c-.5182-.2221-1.0659-.3109-1.5693-.3109-1.821,0-3.4939,1.2584-3.4939,3.9528,0,2.4576,1.3768,3.8344,3.0349,3.8344.8142,0,1.5841-.3405,2.2355-.9327l.1481.7402h1.7617v-10.6592l-2.117.2961Zm-2.9609,6.7361c0-1.6137.8735-2.2947,1.9542-2.2947.3257,0,.6662.0444,1.0067.1628v3.7307c-.4737.3109-.9771.4885-1.4212.4885-.8883,0-1.5397-.7106-1.5397-2.0874Zm8.2152-4.6634c.681,0,1.2288-.5626,1.2288-1.2732s-.5478-1.288-1.2288-1.288-1.2288.5774-1.2288,1.288.5478,1.2732,1.2288,1.2732Zm1.0511.8883h-2.1022v7.4023h2.1022v-7.4023Zm6.3643,5.7294c-.3997.1332-.7402.1628-.9919.1628-.7254,0-.9623-.5182-.9623-1.6433v-2.6204h2.0282v-1.6285h-2.0282v-1.895l-2.117.3849v1.5101h-.9475v1.6285h.9475v2.5612c0,2.3095.7402,3.405,2.4427,3.405.6218,0,1.1844-.074,1.8802-.3257l-.2517-1.5397Zm9.9245,1.8654c.8883,0,1.9986-.1481,3.0502-.7106l-.6963-1.6729c-.6514.2961-1.4064.4737-2.0726.4737-1.7765,0-2.9017-1.1252-2.9017-3.1238,0-2.1466,1.2288-3.0645,2.8869-3.0645.6958,0,1.4656.1036,2.0726.3553l.5034-1.7617c-.8439-.3553-1.8506-.5034-2.7684-.5034-2.9313,0-4.9447,1.895-4.9447,5.0039,0,2.8721,1.4656,5.0039,4.8707,5.0039Zm7.7068-7.7872c-.8439,0-1.895.1332-3.0793.4441l.3109,1.6285c.8439-.2665,1.821-.4441,2.3983-.4441.9327,0,1.0067.4441,1.0067,1.436-2.4427.1332-4.4858.8142-4.4858,2.5168,0,1.4656,1.0955,2.2059,2.3539,2.2059.829,0,1.7025-.2961,2.3539-.8587l.1332.6662h1.7617v-4.3229c0-1.3916.0888-3.2718-2.7536-3.2718Zm-.9327,6.2919c-.5478,0-.9031-.2813-.9031-.7254,0-.8439,1.1399-1.1695,2.4724-1.2436v1.1844c-.4293.4589-1.0215.7846-1.5693.7846Zm10.2903-6.2919c-.8883,0-1.895.4293-2.7684,1.1992l-.1628-1.0067h-1.821v7.4023h2.1022v-4.8411c.7994-.5478,1.9098-.6366,2.5168-.6366l.1332-2.1171Zm5.7521-2.7684v3.0794c-.5182-.2221-1.0659-.3109-1.5693-.3109-1.821,0-3.4939,1.2584-3.4939,3.9528,0,2.4576,1.3768,3.8344,3.0349,3.8344.8142,0,1.5841-.3405,2.2355-.9327l.148.7402h1.7617v-10.6592l-2.117.2961Zm-2.9609,6.7361c0-1.6137.8735-2.2947,1.9542-2.2947.3257,0,.6662.0444,1.0067.1628v3.7307c-.4737.3109-.9771.4885-1.4212.4885-.8883,0-1.5397-.7106-1.5397-2.0874Zm-42.055,20.7092h2.3391l-2.3243-3.5827c1.1696-.5478,1.6877-1.6729,1.6877-2.7981,0-1.6285-1.0955-3.2422-3.3162-3.2422h-3.7307v9.6229h2.1467v-3.0941h1.1548l2.043,3.0941Zm-3.1978-7.9352h1.3472c.9179,0,1.3768.7698,1.3768,1.5249,0,.7698-.4589,1.5397-1.3768,1.5397h-1.3472v-3.0645Zm10.9781.533v5.1964c-.5182.5182-1.0955.6958-1.4953.6958-.5034,0-.9179-.3257-.9179-1.4064v-4.4858h-2.1022v4.5746c0,1.9394.7698,3.0201,2.3539,3.0201.8883,0,1.6285-.3701,2.3539-1.0511l.1628.8587h1.7617v-7.4023h-2.117Zm6.1499-3.2422l-2.1022.2813v10.3632h2.1022v-10.6444Zm5.0404,3.0497c-1.895,0-3.5087,1.3472-3.5087,3.9084,0,2.6796,1.7913,3.8936,3.7603,3.8936.9179,0,1.9542-.1777,2.5464-.4737l-.2221-1.5545c-.5182.1925-1.214.3257-1.7765.3257-1.1399,0-2.0134-.5774-2.2651-1.6877h4.7226c.2813-2.5612-.7698-4.4118-3.257-4.4118Zm.0148,1.5841c.7698,0,1.2436.5182,1.3176,1.5249h-2.8129c.1628-.8587.6958-1.5249,1.4953-1.5249Zm7.1718-1.5841c-1.8505,0-2.9756.7995-2.9756,2.1615,0,1.0807.6514,1.6137,2.2798,2.4427,1.0363.5034,1.4064.7106,1.4064,1.0955,0,.3997-.3701.5626-.9623.5626-.681,0-1.6876-.2813-2.3834-.6218l-.3109,1.5841c1.0511.3849,1.9246.5626,2.7683.5626,1.8062,0,2.9017-.7995,2.9017-2.1171,0-1.1547-.8439-1.9098-2.5908-2.7536-.7254-.3257-1.1398-.5034-1.1398-.829,0-.4145.3848-.5626,1.0066-.5626.7106,0,1.5841.2369,2.117.4589l.3109-1.6581c-.8439-.2073-1.7321-.3257-2.4279-.3257Z"/><path class="cls-10" d="m40.5199,119.9978h-1.2299v-4.7716h-.6947l-3.5417,4.988.1025.4783h3.3253v1.936h.8086v-1.936h1.2299v-.6947Zm-4.4641,0l2.4257-3.462v3.462h-2.4257Zm7.5825-1.8449c-.4214,0-.7516.0569-.9908.1367l.1822-2.3573h2.7787v-.7061h-3.4506l-.2847,3.5417.3872.3189c.3872-.1708.8313-.2619,1.2527-.2619.9908,0,1.5602.6263,1.5602,1.5943,0,1.0591-.763,1.5716-1.7652,1.5716-.5239,0-1.0933-.1367-1.6854-.3303l-.1481.7175c.5466.1822,1.1388.353,1.879.353,1.6627,0,2.5623-.9338,2.5623-2.3345,0-1.3096-.8086-2.2435-2.2776-2.2435Zm11.9704,4.4755h.8086l-2.6193-7.4023h-.9908l-2.6762,7.4023h.7972l.7858-2.1865h3.1317l.763,2.1865Zm-2.3004-6.5937l1.2869,3.6898h-2.6193l1.3324-3.6898Zm6.2869.7858c-1.4349,0-2.6307.8313-2.6307,2.9267,0,1.9018,1.0135,3.0064,2.5965,3.0064.6377,0,1.4691-.1822,1.7993-.3644l-.0911-.6491c-.3872.1708-1.1046.3303-1.5829.3303-1.116,0-1.9018-.8541-1.9018-2.3687,0-1.6285.8883-2.2093,1.8904-2.2093.4327,0,.9566.1139,1.4463.3075l.2278-.6264c-.5239-.2164-1.1502-.353-1.7538-.353Zm5.7926,5.0677c-.3872.1139-.7175.1594-.9566.1594-.6605,0-.8541-.4783-.8541-1.8107v-2.6306h1.8221v-.6719h-1.8221v-1.4121l-.7972.1481v1.2641h-.763v.6719h.763v2.6193c0,1.6057.2278,2.5281,1.4691,2.5281.3302,0,.7516-.0569,1.2413-.205l-.1025-.6605Zm1.9519-5.7738c.2961,0,.558-.2733.558-.5922,0-.3075-.2619-.5694-.558-.5694-.3189,0-.5694.2619-.5694.5694,0,.3189.2505.5922.5694.5922Zm.3986.8199h-.8086v5.694h.8086v-5.694Zm5.3514,0l-1.5716,4.9083-1.5716-4.9083h-.7972l1.8563,5.694h1.0135l1.8676-5.694h-.7972Zm3.9973-.1253c-1.5374,0-2.5509,1.1502-2.5509,2.9609,0,1.8449,1.0249,2.9837,2.6876,2.9837.6719,0,1.5032-.1822,1.8335-.3644l-.0911-.6491c-.3872.1708-1.1046.3303-1.6399.3303-1.1388,0-1.936-.8541-1.9929-2.1638h4.02c.1367-1.8335-.5466-3.0975-2.2662-3.0975Zm.0114.6719c.8997,0,1.4349.6263,1.4463,1.7993h-3.1887c.1365-1.0819.7744-1.7993,1.7424-1.7993Zm7.5238,5.1474l2.2093-8.5411h-.8199l-2.1865,8.5411h.7972Zm10.1593-3.7239c.615-.41,1.1502-1.025,1.1502-1.9246,0-1.1046-.8199-1.879-2.141-1.879-1.2527,0-2.2207.7061-2.2207,1.879,0,.8427.5011,1.3324,1.173,1.7196-.9224.4556-1.4121,1.1616-1.4121,1.9929,0,1.3324,1.1844,2.0499,2.437,2.0499,1.2185,0,2.437-.6719,2.437-1.9816,0-.9452-.6491-1.4577-1.4235-1.8562Zm-1.0022-3.109c.7744,0,1.3438.4669,1.3438,1.2413,0,.6947-.4783,1.1844-.9908,1.5488l-.0114-.0114c-.8997-.4214-1.731-.7972-1.731-1.6171,0-.6833.5922-1.1616,1.3893-1.1616Zm.0342,6.2407c-.8427,0-1.6627-.4783-1.6627-1.4577,0-.7061.5011-1.1844,1.2527-1.5374.0911.0342.1708.0797.2619.1139.8883.41,1.6968.763,1.6968,1.5943,0,.8541-.7858,1.2869-1.5488,1.2869Zm8.918-2.0385h-1.2299v-4.7716h-.6947l-3.5417,4.988.1025.4783h3.3253v1.936h.8086v-1.936h1.2299v-.6947Zm-4.4641,0l2.4257-3.462v3.462h-2.4257Z"/><path class="cls-7" d="m153.2776,0h128.2323c2.7664,0,5.0091,2.3844,5.0091,5.3257v127.8167c0,2.9413-2.2426,5.3257-5.0091,5.3257h-128.2323c-2.7664,0-5.0091-2.3844-5.0091-5.3257V5.3257c0-2.9413,2.2426-5.3257,5.0091-5.3257Z"/><path class="cls-9" d="m304.5516,0h128.2323c2.7664,0,5.0091,2.3844,5.0091,5.3257v127.8167c0,2.9413-2.2426,5.3257-5.0091,5.3257h-128.2323c-2.7664,0-5.0091-2.3844-5.0091-5.3257V5.3257c0-2.9413,2.2426-5.3257,5.0091-5.3257Z"/><path class="cls-7" d="m455.8257,0h128.2323c2.7664,0,5.0091,2.3844,5.0091,5.3257v127.8167c0,2.9413-2.2426,5.3257-5.0091,5.3257h-128.2323c-2.7664,0-5.0091-2.3844-5.0091-5.3257V5.3257c0-2.9413,2.2426-5.3257,5.0091-5.3257Z"/><path class="cls-10" d="m189.7261,82.4919c.6366-.5034.9179-1.0807.9179-1.8358,0-1.4064-1.1103-2.5908-3.1237-2.5908h-3.7307v9.6229h4.2341c2.1318,0,3.2422-1.2436,3.2422-2.7536,0-1.0807-.4589-1.895-1.5397-2.4427Zm-1.288-1.6581c0,.5034-.3257,1.0363-1.0067,1.0363h-1.4953v-2.0726h1.4953c.681,0,1.0067.5034,1.0067,1.0363Zm-.5922,5.1224h-1.9098v-2.4131h1.9098c.8142,0,1.2288.6218,1.2288,1.2288s-.3997,1.1844-1.2288,1.1844Zm8.163-5.8626c-.8439,0-1.895.1332-3.0793.4441l.3109,1.6285c.8439-.2665,1.821-.4441,2.3983-.4441.9327,0,1.0067.4441,1.0067,1.436-2.4427.1332-4.4858.8142-4.4858,2.5168,0,1.4656,1.0955,2.2059,2.3539,2.2059.8291,0,1.7025-.2961,2.3539-.8587l.1332.6662h1.7617v-4.3229c0-1.3916.0888-3.2718-2.7536-3.2718Zm-.9327,6.2919c-.5478,0-.9031-.2813-.9031-.7254,0-.8439,1.14-1.1695,2.4724-1.2436v1.1844c-.4293.4589-1.0215.7846-1.5693.7846Zm10.0397-6.2919c-.9623,0-1.7766.3849-2.5612,1.0807l-.1776-.8883h-1.7618v7.4023h2.1023v-5.1816c.6366-.5182,1.288-.7106,1.7321-.7106.6218,0,1.0659.3257,1.0659,1.4064v4.4858h2.117v-4.5746c0-1.9394-.8142-3.0201-2.5168-3.0201Zm9.2619,7.5947h2.2355l-2.7684-4.6782,2.7092-2.724h-2.4279l-2.5464,2.4724v-5.7145l-2.1023.2813v10.3632h2.1023v-2.4279l.8735-.8587,1.9246,3.2866Zm13.4903,0h2.1023l-3.257-9.6229h-2.3983l-3.2866,9.6229h2.1023l.7254-2.1615h3.3014l.7106,2.1615Zm-1.2732-3.9528h-2.1763l1.0955-3.5383,1.0807,3.5383Zm8.8394,4.1453c.8883,0,1.9986-.1481,3.0497-.7106l-.6958-1.6729c-.6514.2961-1.4064.4737-2.0726.4737-1.7765,0-2.9017-1.1252-2.9017-3.1238,0-2.1466,1.2288-3.0645,2.8869-3.0645.6958,0,1.4656.1036,2.0726.3553l.5034-1.7617c-.8439-.3553-1.8506-.5034-2.7684-.5034-2.9313,0-4.9447,1.895-4.9447,5.0039,0,2.8721,1.4656,5.0039,4.8707,5.0039Zm10.7959-9.8154v3.8048h-3.9676v-3.8048h-2.1466v9.6229h2.1466v-4.0416h3.9676v4.0416h2.1615v-9.6229h-2.1615Zm-39.7763,26.7051h2.3391l-2.3243-3.5827c1.1696-.5478,1.6877-1.6729,1.6877-2.7981,0-1.6285-1.0955-3.2422-3.3162-3.2422h-3.7307v9.6229h2.1466v-3.0941h1.1548l2.043,3.0941Zm-3.1978-7.9352h1.3472c.9179,0,1.3768.7698,1.3768,1.5249,0,.7698-.4589,1.5397-1.3768,1.5397h-1.3472v-3.0645Zm10.9781.533v5.1964c-.5182.5182-1.0955.6958-1.4952.6958-.5034,0-.9179-.3257-.9179-1.4064v-4.4858h-2.1023v4.5746c0,1.9394.7698,3.0201,2.3539,3.0201.8883,0,1.6285-.3701,2.3539-1.0511l.1629.8587h1.7617v-7.4023h-2.1171Zm6.1496-3.2422l-2.1023.2813v10.3632h2.1023v-10.6444Zm5.0404,3.0497c-1.895,0-3.5087,1.3472-3.5087,3.9084,0,2.6796,1.7913,3.8936,3.7603,3.8936.9179,0,1.9542-.1777,2.5464-.4737l-.2221-1.5545c-.5182.1925-1.214.3257-1.7766.3257-1.1399,0-2.0134-.5774-2.2651-1.6877h4.7226c.2813-2.5612-.7698-4.4118-3.257-4.4118Zm.0148,1.5841c.7698,0,1.2436.5182,1.3176,1.5249h-2.8129c.1629-.8587.6958-1.5249,1.4953-1.5249Zm7.1722-1.5841c-1.8506,0-2.9757.7995-2.9757,2.1615,0,1.0807.6514,1.6137,2.2799,2.4427,1.0363.5034,1.4064.7106,1.4064,1.0955,0,.3997-.3701.5626-.9623.5626-.681,0-1.6877-.2813-2.3835-.6218l-.3109,1.5841c1.0511.3849,1.9246.5626,2.7684.5626,1.8061,0,2.9017-.7995,2.9017-2.1171,0-1.1547-.8439-1.9098-2.5908-2.7536-.7254-.3257-1.1399-.5034-1.1399-.829,0-.4145.3849-.5626,1.0067-.5626.7106,0,1.5841.2369,2.117.4589l.3109-1.6581c-.8439-.2073-1.7321-.3257-2.4279-.3257Z"/><path class="cls-10" d="m187.5635,118.5971c.7288-.3644,1.2982-1.0249,1.2982-1.9246,0-1.0135-.7061-1.5715-1.9815-1.5715-.6491,0-1.3893.1139-1.9018.2505l.1139.7289c.3872-.1139.9794-.2505,1.6285-.2505,1.0819,0,1.3096.353,1.3096.9452,0,.8541-.8769,1.526-2.2093,1.526v.6833c1.5032-.0114,2.4029.7061,2.4029,1.5944,0,.8996-.763,1.4121-1.731,1.4121-.6377,0-1.2185-.1253-1.8221-.3303l-.1481.7175c.5352.1708,1.1502.353,1.9701.353,1.9132,0,2.5737-.9338,2.5737-2.1068,0-.8769-.5011-1.6285-1.5032-2.0271Zm4.0826,3.3253c.9338-1.0477,1.7765-2.0043,2.3801-2.8698.5352-.7744.8655-1.4804.8655-2.1182,0-1.0477-.7402-1.8335-1.9815-1.8335-.8313,0-1.6285.148-2.5396.4783l.1594.6833c.7744-.2961,1.5146-.4442,2.3004-.4442.8086,0,1.2185.3986,1.2185,1.173,0,.4783-.2961,1.0933-.7516,1.7765-.6947,1.0022-1.7765,2.1865-2.904,3.3709l.1025.4897h4.6008v-.7061h-3.4506Zm13.0006.7061h.8085l-2.6192-7.4023h-.9908l-2.6762,7.4023h.7972l.7858-2.1865h3.1317l.763,2.1865Zm-2.3004-6.5937l1.2869,3.6898h-2.6193l1.3324-3.6898Zm6.2862.7858c-1.4349,0-2.6306.8313-2.6306,2.9267,0,1.9018,1.0135,3.0064,2.5965,3.0064.6377,0,1.4691-.1822,1.7993-.3644l-.0911-.6491c-.3872.1708-1.1046.3303-1.5829.3303-1.116,0-1.9018-.8541-1.9018-2.3687,0-1.6285.8883-2.2093,1.8904-2.2093.4328,0,.9566.1139,1.4463.3075l.2278-.6264c-.5238-.2164-1.1502-.353-1.7538-.353Zm5.7931,5.0677c-.3872.1139-.7174.1594-.9566.1594-.6605,0-.8541-.4783-.8541-1.8107v-2.6306h1.8221v-.6719h-1.8221v-1.4121l-.7972.1481v1.2641h-.763v.6719h.763v2.6193c0,1.6057.2278,2.5281,1.4691,2.5281.3303,0,.7516-.0569,1.2413-.205l-.1025-.6605Zm1.9519-5.7738c.2961,0,.558-.2733.558-.5922,0-.3075-.2619-.5694-.558-.5694-.3189,0-.5694.2619-.5694.5694,0,.3189.2505.5922.5694.5922Zm.3986.8199h-.8086v5.694h.8086v-5.694Zm5.3513,0l-1.5715,4.9083-1.5716-4.9083h-.7972l1.8562,5.694h1.0136l1.8676-5.694h-.7972Zm3.9972-.1253c-1.5374,0-2.5509,1.1502-2.5509,2.9609,0,1.8449,1.0249,2.9837,2.6876,2.9837.6719,0,1.5032-.1822,1.8335-.3644l-.0911-.6491c-.3872.1708-1.1046.3303-1.6399.3303-1.1388,0-1.936-.8541-1.9929-2.1638h4.02c.1367-1.8335-.5466-3.0975-2.2662-3.0975Zm.0114.6719c.8997,0,1.4349.6263,1.4463,1.7993h-3.1887c.1367-1.0819.7744-1.7993,1.7424-1.7993Zm7.5241,5.1474l2.2093-8.5411h-.8199l-2.1865,8.5411h.7972Zm12.0258-2.6306h-1.2299v-4.7716h-.6947l-3.5417,4.988.1025.4783h3.3253v1.936h.8085v-1.936h1.2299v-.6947Zm-4.4641,0l2.4257-3.462v3.462h-2.4257Zm7.5833-1.8449c-.4214,0-.7516.0569-.9908.1367l.1822-2.3573h2.7787v-.7061h-3.4506l-.2847,3.5417.3872.3189c.3872-.1708.8313-.2619,1.2527-.2619.9908,0,1.5602.6263,1.5602,1.5943,0,1.0591-.763,1.5716-1.7651,1.5716-.5239,0-1.0933-.1367-1.6854-.3303l-.1481.7175c.5466.1822,1.1388.353,1.879.353,1.6627,0,2.5623-.9338,2.5623-2.3345,0-1.3096-.8085-2.2435-2.2776-2.2435Z"/><path class="cls-7" d="m319.983,87.8807c.8883,0,1.9986-.1481,3.0497-.7106l-.6958-1.6729c-.6514.2961-1.4064.4737-2.0726.4737-1.7765,0-2.9017-1.1252-2.9017-3.1238,0-2.1466,1.2288-3.0645,2.8869-3.0645.6958,0,1.4656.1036,2.0726.3553l.5033-1.7617c-.8439-.3553-1.8506-.5034-2.7684-.5034-2.9313,0-4.9447,1.895-4.9447,5.0039,0,2.8721,1.4656,5.0039,4.8707,5.0039Zm9.3007-7.7872c-.8883,0-1.895.4293-2.7684,1.1992l-.1629-1.0067h-1.821v7.4023h2.1022v-4.8411c.7995-.5478,1.9098-.6366,2.5168-.6366l.1332-2.1171Zm5.8364.1925l-1.5693,4.6486-1.5693-4.6486h-2.1023l2.6352,7.195c-.4441.8735-1.0215,1.2436-1.8506,1.7469l.8587,1.5545c1.5693-.829,2.576-2.0134,3.0942-3.4346l2.6056-7.0618h-2.1022Zm7.4785-.1925c-.8142,0-1.5841.3405-2.2355.9327l-.1332-.7402h-1.7617v10.5556l2.1022-.2813v-2.9905c.5182.2221,1.0659.3109,1.5693.3109,1.821,0,3.5087-1.2584,3.5087-3.9528,0-2.4576-1.3916-3.8344-3.0497-3.8344Zm-1.0215,6.1143c-.3257,0-.6662-.0444-1.0067-.1628v-3.7307c.4886-.3109.9771-.4885,1.4213-.4885.9031,0,1.5397.7106,1.5397,2.0874,0,1.6137-.8587,2.2947-1.9542,2.2947Zm9.8439-.1924c-.3997.1332-.7402.1628-.9919.1628-.7254,0-.9623-.5182-.9623-1.6433v-2.6204h2.0282v-1.6285h-2.0282v-1.895l-2.1171.3849v1.5101h-.9475v1.6285h.9475v2.5612c0,2.3095.7402,3.405,2.4428,3.405.6218,0,1.1843-.074,1.8801-.3257l-.2517-1.5397Zm4.7044-5.9218c-2.2947,0-3.6715,1.6877-3.6715,3.8936,0,2.2207,1.362,3.8936,3.6715,3.8936s3.6863-1.6729,3.6863-3.8936c0-2.2059-1.3768-3.8936-3.6863-3.8936Zm0,1.6137c.9475,0,1.5693.829,1.5693,2.2799,0,1.436-.6218,2.2799-1.5693,2.2799s-1.5545-.8439-1.5545-2.2799c0-1.4508.607-2.2799,1.5545-2.2799Zm8.4887-1.6137c-1.9986,0-3.7455,1.0659-3.7455,3.9084,0,2.7981,1.7765,3.8936,3.7011,3.8936.7994,0,1.7617-.1777,2.3687-.4737l-.2369-1.5249c-.459.1776-1.1103.2813-1.6137.2813-1.214,0-2.1319-.7106-2.1319-2.2059,0-1.6581.9179-2.1911,2.1762-2.1911.4293,0,.9179.0888,1.4213.2221l.3405-1.51c-.7106-.2813-1.5101-.3997-2.2799-.3997Zm8.1334.1925v5.1964c-.5181.5182-1.0955.6958-1.4952.6958-.5034,0-.9179-.3257-.9179-1.4064v-4.4858h-2.1023v4.5746c0,1.9394.7698,3.0201,2.3539,3.0201.8883,0,1.6285-.3701,2.3539-1.0511l.1629.8587h1.7617v-7.4023h-2.1171Zm8.8007-.1925c-.8883,0-1.895.4293-2.7684,1.1992l-.1629-1.0067h-1.821v7.4023h2.1023v-4.8411c.7994-.5478,1.9098-.6366,2.5168-.6366l.1332-2.1171Zm5.9708,0c-.8883,0-1.895.4293-2.7684,1.1992l-.1629-1.0067h-1.821v7.4023h2.1023v-4.8411c.7994-.5478,1.9098-.6366,2.5168-.6366l.1332-2.1171Zm4.1977,0c-1.895,0-3.5087,1.3472-3.5087,3.9084,0,2.6796,1.7914,3.8936,3.7603,3.8936.9179,0,1.9542-.1777,2.5464-.4737l-.2221-1.5545c-.5182.1925-1.214.3257-1.7765.3257-1.14,0-2.0134-.5774-2.2651-1.6877h4.7226c.2813-2.5612-.7698-4.4118-3.257-4.4118Zm.0148,1.5841c.7698,0,1.2436.5182,1.3176,1.5249h-2.8129c.1629-.8587.6958-1.5249,1.4953-1.5249Zm9.2995-1.5841c-.9623,0-1.7765.3849-2.5612,1.0807l-.1777-.8883h-1.7617v7.4023h2.1023v-5.1816c.6366-.5182,1.288-.7106,1.7321-.7106.6218,0,1.0659.3257,1.0659,1.4064v4.4858h2.117v-4.5746c0-1.9394-.8142-3.0201-2.5168-3.0201Zm7.7075,0c-1.9986,0-3.7455,1.0659-3.7455,3.9084,0,2.7981,1.7765,3.8936,3.7011,3.8936.7994,0,1.7617-.1777,2.3687-.4737l-.2368-1.5249c-.459.1776-1.1103.2813-1.6137.2813-1.2139,0-2.1318-.7106-2.1318-2.2059,0-1.6581.9179-2.1911,2.1762-2.1911.4293,0,.9179.0888,1.4213.2221l.3405-1.51c-.7106-.2813-1.51-.3997-2.2799-.3997Zm8.3703.1925l-1.5693,4.6486-1.5693-4.6486h-2.1023l2.6352,7.195c-.4442.8735-1.0215,1.2436-1.8506,1.7469l.8587,1.5545c1.5693-.829,2.576-2.0134,3.0941-3.4346l2.6056-7.0618h-2.1022Zm-61.6255,24.4844h2.3391l-2.3243-3.5827c1.1696-.5478,1.6877-1.6729,1.6877-2.7981,0-1.6285-1.0955-3.2422-3.3162-3.2422h-3.7307v9.6229h2.1467v-3.0941h1.1547l2.043,3.0941Zm-3.1978-7.9352h1.3472c.9179,0,1.3768.7698,1.3768,1.5249,0,.7698-.459,1.5397-1.3768,1.5397h-1.3472v-3.0645Zm10.9781.533v5.1964c-.5181.5182-1.0955.6958-1.4952.6958-.5034,0-.9179-.3257-.9179-1.4064v-4.4858h-2.1023v4.5746c0,1.9394.7698,3.0201,2.3539,3.0201.8883,0,1.6285-.3701,2.3539-1.0511l.1629.8587h1.7617v-7.4023h-2.1171Zm6.1496-3.2422l-2.1022.2813v10.3632h2.1022v-10.6444Zm5.0404,3.0497c-1.895,0-3.5087,1.3472-3.5087,3.9084,0,2.6796,1.7913,3.8936,3.7603,3.8936.9179,0,1.9542-.1777,2.5464-.4737l-.2221-1.5545c-.5182.1925-1.214.3257-1.7765.3257-1.14,0-2.0134-.5774-2.2651-1.6877h4.7226c.2813-2.5612-.7698-4.4118-3.257-4.4118Zm.0148,1.5841c.7698,0,1.2436.5182,1.3176,1.5249h-2.8129c.1629-.8587.6958-1.5249,1.4953-1.5249Zm7.1722-1.5841c-1.8506,0-2.9757.7995-2.9757,2.1615,0,1.0807.6514,1.6137,2.2799,2.4427,1.0363.5034,1.4064.7106,1.4064,1.0955,0,.3997-.3701.5626-.9623.5626-.681,0-1.6877-.2813-2.3835-.6218l-.3109,1.5841c1.0511.3849,1.9246.5626,2.7684.5626,1.8061,0,2.9017-.7995,2.9017-2.1171,0-1.1547-.8439-1.9098-2.5908-2.7536-.7254-.3257-1.14-.5034-1.14-.829,0-.4145.3849-.5626,1.0067-.5626.7106,0,1.5841.2369,2.1171.4589l.3109-1.6581c-.8439-.2073-1.7321-.3257-2.428-.3257Z"/><path class="cls-7" d="m336.6757,118.5971c.7288-.3644,1.2982-1.0249,1.2982-1.9246,0-1.0135-.7061-1.5715-1.9815-1.5715-.6491,0-1.3893.1139-1.9018.2505l.1139.7289c.3872-.1139.9794-.2505,1.6285-.2505,1.0819,0,1.3097.353,1.3097.9452,0,.8541-.8769,1.526-2.2093,1.526v.6833c1.5032-.0114,2.4029.7061,2.4029,1.5944,0,.8996-.763,1.4121-1.731,1.4121-.6377,0-1.2185-.1253-1.8221-.3303l-.1481.7175c.5352.1708,1.1502.353,1.9702.353,1.9132,0,2.5737-.9338,2.5737-2.1068,0-.8769-.501-1.6285-1.5032-2.0271Zm6.0994.3075c.615-.41,1.1502-1.025,1.1502-1.9246,0-1.1046-.8199-1.879-2.141-1.879-1.2527,0-2.2207.7061-2.2207,1.879,0,.8427.5011,1.3324,1.173,1.7196-.9224.4556-1.4121,1.1616-1.4121,1.9929,0,1.3324,1.1844,2.0499,2.4371,2.0499,1.2185,0,2.437-.6719,2.437-1.9816,0-.9452-.6491-1.4577-1.4235-1.8562Zm-1.0022-3.109c.7744,0,1.3438.4669,1.3438,1.2413,0,.6947-.4783,1.1844-.9908,1.5488l-.0114-.0114c-.8997-.4214-1.731-.7972-1.731-1.6171,0-.6833.5922-1.1616,1.3893-1.1616Zm.0342,6.2407c-.8427,0-1.6627-.4783-1.6627-1.4577,0-.7061.5011-1.1844,1.2527-1.5374.0911.0342.1708.0797.2619.1139.8883.41,1.6968.763,1.6968,1.5943,0,.8541-.7858,1.2869-1.5488,1.2869Zm12.0406.5922h.8086l-2.6193-7.4023h-.9908l-2.6762,7.4023h.7972l.7858-2.1865h3.1317l.763,2.1865Zm-2.3004-6.5937l1.2869,3.6898h-2.6193l1.3324-3.6898Zm6.2874.7858c-1.4349,0-2.6306.8313-2.6306,2.9267,0,1.9018,1.0136,3.0064,2.5965,3.0064.6377,0,1.4691-.1822,1.7993-.3644l-.0911-.6491c-.3872.1708-1.1046.3303-1.5829.3303-1.116,0-1.9018-.8541-1.9018-2.3687,0-1.6285.8883-2.2093,1.8904-2.2093.4328,0,.9566.1139,1.4463.3075l.2278-.6264c-.5238-.2164-1.1502-.353-1.7538-.353Zm5.792,5.0677c-.3872.1139-.7175.1594-.9566.1594-.6605,0-.8541-.4783-.8541-1.8107v-2.6306h1.8221v-.6719h-1.8221v-1.4121l-.7972.1481v1.2641h-.763v.6719h.763v2.6193c0,1.6057.2278,2.5281,1.4691,2.5281.3303,0,.7516-.0569,1.2413-.205l-.1025-.6605Zm1.9519-5.7738c.2961,0,.558-.2733.558-.5922,0-.3075-.2619-.5694-.558-.5694-.3189,0-.5694.2619-.5694.5694,0,.3189.2505.5922.5694.5922Zm.3986.8199h-.8085v5.694h.8085v-5.694Zm5.3513,0l-1.5716,4.9083-1.5716-4.9083h-.7971l1.8563,5.694h1.0135l1.8677-5.694h-.7972Zm3.9972-.1253c-1.5374,0-2.5509,1.1502-2.5509,2.9609,0,1.8449,1.0249,2.9837,2.6876,2.9837.6719,0,1.5032-.1822,1.8335-.3644l-.0911-.6491c-.3872.1708-1.1046.3303-1.6399.3303-1.1388,0-1.936-.8541-1.9929-2.1638h4.02c.1367-1.8335-.5466-3.0975-2.2662-3.0975Zm.0114.6719c.8996,0,1.4349.6263,1.4463,1.7993h-3.1887c.1367-1.0819.7744-1.7993,1.7424-1.7993Zm7.5241,5.1474l2.2093-8.5411h-.8199l-2.1865,8.5411h.7972Zm8.8952-4.4755c-.4214,0-.7516.0569-.9908.1367l.1822-2.3573h2.7787v-.7061h-3.4506l-.2847,3.5417.3872.3189c.3872-.1708.8313-.2619,1.2527-.2619.9908,0,1.5602.6263,1.5602,1.5943,0,1.0591-.763,1.5716-1.7651,1.5716-.5238,0-1.0932-.1367-1.6854-.3303l-.1481.7175c.5466.1822,1.1388.353,1.8791.353,1.6627,0,2.5623-.9338,2.5623-2.3345,0-1.3096-.8086-2.2435-2.2776-2.2435Zm4.964,3.7695c.9338-1.0477,1.7765-2.0043,2.3801-2.8698.5352-.7744.8655-1.4804.8655-2.1182,0-1.0477-.7402-1.8335-1.9815-1.8335-.8313,0-1.6285.148-2.5396.4783l.1594.6833c.7744-.2961,1.5146-.4442,2.3004-.4442.8085,0,1.2185.3986,1.2185,1.173,0,.4783-.2961,1.0933-.7516,1.7765-.6947,1.0022-1.7765,2.1865-2.904,3.3709l.1025.4897h4.6008v-.7061h-3.4506Z"/><path class="cls-10" d="m495.4376,78.0653h-3.4494v9.6229h2.1467v-2.9313h1.3028c2.3243,0,3.4939-1.7025,3.4939-3.3754s-1.1547-3.3162-3.4939-3.3162Zm-.1332,4.9151h-1.1695v-3.2274h1.1695c.9623,0,1.4361.7846,1.4361,1.5989,0,.7994-.4738,1.6285-1.4361,1.6285Zm9.8177-2.8869c-.8883,0-1.895.4293-2.7685,1.1992l-.1629-1.0067h-1.821v7.4023h2.1023v-4.8411c.7995-.5478,1.9098-.6366,2.5168-.6366l.1332-2.1171Zm4.3605,0c-2.2947,0-3.6715,1.6877-3.6715,3.8936,0,2.2207,1.362,3.8936,3.6715,3.8936s3.6863-1.6729,3.6863-3.8936c0-2.2059-1.3768-3.8936-3.6863-3.8936Zm0,1.6137c.9475,0,1.5693.829,1.5693,2.2799,0,1.436-.6217,2.2799-1.5693,2.2799s-1.5545-.8439-1.5545-2.2799c0-1.4508.607-2.2799,1.5545-2.2799Zm8.4887-1.6137c-1.9986,0-3.7455,1.0659-3.7455,3.9084,0,2.7981,1.7765,3.8936,3.7011,3.8936.7994,0,1.7617-.1777,2.3687-.4737l-.2369-1.5249c-.4589.1776-1.1103.2813-1.6137.2813-1.2139,0-2.1319-.7106-2.1319-2.2059,0-1.6581.9179-2.1911,2.1763-2.1911.4293,0,.9179.0888,1.4212.2221l.3405-1.51c-.7106-.2813-1.51-.3997-2.2798-.3997Zm6.7599,0c-1.895,0-3.5087,1.3472-3.5087,3.9084,0,2.6796,1.7913,3.8936,3.7603,3.8936.9178,0,1.9542-.1777,2.5463-.4737l-.222-1.5545c-.5182.1925-1.214.3257-1.7765.3257-1.14,0-2.0134-.5774-2.2651-1.6877h4.7226c.2813-2.5612-.7698-4.4118-3.257-4.4118Zm.0148,1.5841c.7699,0,1.2436.5182,1.3176,1.5249h-2.8128c.1629-.8587.6958-1.5249,1.4952-1.5249Zm7.1722-1.5841c-1.8506,0-2.9757.7995-2.9757,2.1615,0,1.0807.6514,1.6137,2.2799,2.4427,1.0363.5034,1.4064.7106,1.4064,1.0955,0,.3997-.3701.5626-.9623.5626-.681,0-1.6878-.2813-2.3835-.6218l-.3109,1.5841c1.0511.3849,1.9246.5626,2.7684.5626,1.8062,0,2.9017-.7995,2.9017-2.1171,0-1.1547-.8439-1.9098-2.5908-2.7536-.7254-.3257-1.1399-.5034-1.1399-.829,0-.4145.3849-.5626,1.0067-.5626.7106,0,1.5841.2369,2.1171.4589l.3109-1.6581c-.8438-.2073-1.7321-.3257-2.428-.3257Zm6.7224,0c-1.8506,0-2.9757.7995-2.9757,2.1615,0,1.0807.6514,1.6137,2.2799,2.4427,1.0363.5034,1.4064.7106,1.4064,1.0955,0,.3997-.3701.5626-.9623.5626-.681,0-1.6877-.2813-2.3835-.6218l-.3109,1.5841c1.0511.3849,1.9246.5626,2.7684.5626,1.8061,0,2.9017-.7995,2.9017-2.1171,0-1.1547-.8439-1.9098-2.5908-2.7536-.7254-.3257-1.1399-.5034-1.1399-.829,0-.4145.3849-.5626,1.0067-.5626.7106,0,1.5841.2369,2.1171.4589l.3109-1.6581c-.8439-.2073-1.7321-.3257-2.428-.3257Zm7.3476,0c-2.2947,0-3.6715,1.6877-3.6715,3.8936,0,2.2207,1.362,3.8936,3.6715,3.8936s3.6863-1.6729,3.6863-3.8936c0-2.2059-1.3769-3.8936-3.6863-3.8936Zm0,1.6137c.9475,0,1.5693.829,1.5693,2.2799,0,1.436-.6218,2.2799-1.5693,2.2799s-1.5545-.8439-1.5545-2.2799c0-1.4508.6069-2.2799,1.5545-2.2799Zm9.952-1.6137c-.8882,0-1.8949.4293-2.7684,1.1992l-.1629-1.0067h-1.821v7.4023h2.1023v-4.8411c.7994-.5478,1.9098-.6366,2.5168-.6366l.1332-2.1171Zm-44.2449,24.6769h2.3391l-2.3243-3.5827c1.1695-.5478,1.6877-1.6729,1.6877-2.7981,0-1.6285-1.0956-3.2422-3.3163-3.2422h-3.7307v9.6229h2.1467v-3.0941h1.1548l2.043,3.0941Zm-3.1978-7.9352h1.3473c.9178,0,1.3768.7698,1.3768,1.5249,0,.7698-.459,1.5397-1.3768,1.5397h-1.3473v-3.0645Zm10.9781.533v5.1964c-.5182.5182-1.0955.6958-1.4952.6958-.5034,0-.9179-.3257-.9179-1.4064v-4.4858h-2.1022v4.5746c0,1.9394.7698,3.0201,2.3539,3.0201.8883,0,1.6285-.3701,2.3539-1.0511l.1629.8587h1.7617v-7.4023h-2.1171Zm6.1496-3.2422l-2.1023.2813v10.3632h2.1023v-10.6444Zm5.0403,3.0497c-1.895,0-3.5087,1.3472-3.5087,3.9084,0,2.6796,1.7913,3.8936,3.7603,3.8936.9179,0,1.9542-.1777,2.5464-.4737l-.2221-1.5545c-.5182.1925-1.2139.3257-1.7765.3257-1.14,0-2.0134-.5774-2.2651-1.6877h4.7227c.2812-2.5612-.7699-4.4118-3.257-4.4118Zm.0148,1.5841c.7699,0,1.2436.5182,1.3177,1.5249h-2.8129c.1629-.8587.6958-1.5249,1.4952-1.5249Zm7.1723-1.5841c-1.8506,0-2.9757.7995-2.9757,2.1615,0,1.0807.6514,1.6137,2.2799,2.4427,1.0364.5034,1.4064.7106,1.4064,1.0955,0,.3997-.3701.5626-.9623.5626-.681,0-1.6877-.2813-2.3835-.6218l-.3109,1.5841c1.0512.3849,1.9246.5626,2.7685.5626,1.8061,0,2.9017-.7995,2.9017-2.1171,0-1.1547-.8438-1.9098-2.5907-2.7536-.7254-.3257-1.14-.5034-1.14-.829,0-.4145.3849-.5626,1.0067-.5626.7106,0,1.5841.2369,2.1171.4589l.3108-1.6581c-.8438-.2073-1.7321-.3257-2.4279-.3257Z"/><path class="cls-10" d="m493.5141,115.2034h-.4669l-2.642.8996.2164.6719,2.0612-.6947v6.5368h.8313v-7.4136Zm6.8841,4.7944h-1.2299v-4.7716h-.6947l-3.5417,4.988.1025.4783h3.3253v1.936h.8086v-1.936h1.2299v-.6947Zm-4.4641,0l2.4257-3.462v3.462h-2.4257Zm13.8366,2.6306h.8085l-2.6192-7.4023h-.9908l-2.6762,7.4023h.7971l.7858-2.1865h3.1317l.7631,2.1865Zm-2.3004-6.5937l1.2869,3.6898h-2.6192l1.3324-3.6898Zm6.2874.7858c-1.4349,0-2.6306.8313-2.6306,2.9267,0,1.9018,1.0136,3.0064,2.5965,3.0064.6377,0,1.469-.1822,1.7993-.3644l-.0911-.6491c-.3872.1708-1.1047.3303-1.583.3303-1.1161,0-1.9019-.8541-1.9019-2.3687,0-1.6285.8883-2.2093,1.8905-2.2093.4328,0,.9566.1139,1.4463.3075l.2277-.6264c-.5238-.2164-1.1501-.353-1.7537-.353Zm5.792,5.0677c-.3872.1139-.7175.1594-.9566.1594-.6605,0-.8541-.4783-.8541-1.8107v-2.6306h1.8221v-.6719h-1.8221v-1.4121l-.7971.1481v1.2641h-.7631v.6719h.7631v2.6193c0,1.6057.2277,2.5281,1.469,2.5281.3302,0,.7516-.0569,1.2413-.205l-.1025-.6605Zm1.9519-5.7738c.2961,0,.558-.2733.558-.5922,0-.3075-.2619-.5694-.558-.5694-.3188,0-.5694.2619-.5694.5694,0,.3189.2506.5922.5694.5922Zm.3986.8199h-.8086v5.694h.8086v-5.694Zm5.3523,0l-1.5715,4.9083-1.5716-4.9083h-.7972l1.8563,5.694h1.0135l1.8677-5.694h-.7972Zm3.9972-.1253c-1.5374,0-2.5509,1.1502-2.5509,2.9609,0,1.8449,1.025,2.9837,2.6876,2.9837.6719,0,1.5032-.1822,1.8335-.3644l-.0911-.6491c-.3872.1708-1.1047.3303-1.6399.3303-1.1388,0-1.936-.8541-1.9929-2.1638h4.02c.1367-1.8335-.5466-3.0975-2.2662-3.0975Zm.0114.6719c.8996,0,1.4349.6263,1.4463,1.7993h-3.1887c.1367-1.0819.7744-1.7993,1.7423-1.7993Zm7.523,5.1474l2.2093-8.5411h-.82l-2.1865,8.5411h.7972Zm8.1436-.7061c.9338-1.0477,1.7765-2.0043,2.3801-2.8698.5353-.7744.8655-1.4804.8655-2.1182,0-1.0477-.7402-1.8335-1.9815-1.8335-.8313,0-1.6285.148-2.5395.4783l.1594.6833c.7745-.2961,1.5146-.4442,2.3004-.4442.8086,0,1.2185.3986,1.2185,1.173,0,.4783-.2961,1.0933-.7516,1.7765-.6947,1.0022-1.7765,2.1865-2.904,3.3709l.1025.4897h4.6008v-.7061h-3.4506Zm8.9214-6.6962h-4.2933v.7061h3.4392l-2.8128,6.6962h.8541l2.9495-7.0265-.1367-.3758Z"/><g class="cls-5"><g><path class="cls-7" d="m355.4467,61.4957c8.7221,0,15.7918-7.0674,15.7918-15.7862s-7.0697-15.7862-15.7918-15.7862-15.793,7.0674-15.793,15.7862,7.0709,15.7862,15.793,15.7862Z"/><path class="cls-9" d="m362.2863,46.4406c-.5523-.6673-1.3199-1.1206-2.1717-1.2812,1.2128-.5614,1.8824-1.8802,1.6216-3.1898-.0319-.5113-.1868-1.0079-.4487-1.4474-.2551-.4054-.6081-.7391-1.0284-.9691-.4396-.246-.9088-.4327-1.3962-.5569-.5649-.123-1.1388-.2004-1.7162-.2323v-3.1397h-1.9029v3.0383h-1.5123v-3.0383h-1.9109v3.1397h-3.8287v2.0259h1.3745c.5432-.0672,1.0386.3177,1.1069.861,0,.0023,0,.0046.0011.0068v8.5308c-.0194.3667-.3314.6491-.6992.6309-.008-.0011-.0171-.0011-.0251-.0023h-1.3745l-.3838,2.2651h3.8287v3.1613h1.9109v-3.126h1.5123v3.1112h1.9029v-3.1613c.6047-.0239,1.206-.0843,1.8027-.1811.5159-.0911,1.0204-.2357,1.5055-.4339.4419-.1651.8496-.41,1.2015-.7232.3405-.3075.6138-.6821.804-1.1001.222-.4885.3576-1.0124.3974-1.5488.164-.9213-.0353-1.8699-.5569-2.6477l-.0148.008Zm-8.5194-5.5061h1.1582c.2414-.016.4829-.016.7243,0,.2574.0171.5136.0512.7664.1013.2323.0467.4601.115.681.2027.2175.0774.4191.1959.5933.3473.156.1492.2836.3257.3758.5204.1082.2266.1629.4737.1594.7243.0011.2141-.0388.4282-.1162.6286-.0706.1833-.1845.3473-.3325.4783-.1435.1218-.2961.2335-.4555.3325-.1879.1059-.3906.1834-.6013.2312l-.6434.1378c-.2255.033-.4532.0547-.681.0649h-1.6285v-3.7695Zm5.2112,8.4363c-.0729.1788-.1765.3451-.3041.492-.1389.1549-.3063.2824-.492.3758-.1879.1025-.3838.189-.5865.2608-.2369.0752-.4783.1332-.7232.1731-.2676.0512-.5068.0797-.7243.1014-.2175.0216-.4419.0364-.7232.0512h-1.6581v-4.1897h2.215c.3052.0194.6104.0547.9122.1093.2767.0592.55.1367.8176.2312.2608.0831.5056.2107.7232.3758.1879.1594.3428.353.4567.5717.2289.4498.2551.976.0717,1.4474h.0148Z"/><g class="cls-6"><g><path class="cls-7" d="m391.0196,39.8856c.0046,6.0414-4.8923,10.9417-10.936,10.9462-6.0437.0034-10.9462-4.8901-10.9508-10.9314-.0034-6.0414,4.8923-10.9428,10.936-10.9462h.0148c6.0391,0,10.936,4.8935,10.936,10.9314Z"/><path class="cls-9" d="m379.693,42.8522l.673-2.8948,1.3165-.4692v-1.4474l-.9555.3621,1.05-4.5723h-3.8868l-1.4474,6.1849-1.3176.4999v1.4463l.9634-.369-.7744,3.5019h9.148l.5569-2.2423h-5.3262Z"/></g></g><g class="cls-15"><path class="cls-7" d="m375.9726,24.0049c0,4.635-3.7592,8.3919-8.3953,8.3919s-8.3964-3.7569-8.3964-8.3919,3.7592-8.393,8.3964-8.393,8.3953,3.7581,8.3953,8.393Zm-8.2518,6.2566c1.2299-1.7401,2.461-3.4813,3.6909-5.2214-.049.0023-.082.0194-.1127.0376-1.165.6821-2.3288,1.3643-3.4962,2.043-.0831.0478-.1059.1002-.1059.1913.0023.9828,0,1.9667-.0011,2.9495h.0251Zm-.2699,0c0-.9862-.0011-1.9736.0023-2.9598,0-.09-.0285-.1355-.1048-.1811-1.1696-.6799-2.3368-1.3643-3.5053-2.0476-.0296-.0171-.0604-.0319-.1184-.0615.0399.0604.0604.0945.0831.1264.673.952,1.3472,1.9029,2.0191,2.855.5341.7562,1.0671,1.5123,1.6,2.2685h.0239Zm.2517-12.4813c-.0011.0114-.0034.0239-.0034.0364,0,1.452,0,2.9051-.0034,4.3571,0,.0843.041.1093.1059.1367,1.1536.5045,2.3072,1.009,3.4608,1.5146.0353.0148.0717.0285.1355.0535-1.2345-2.0533-2.4541-4.0815-3.6738-6.1086-.008.0034-.0148.0068-.0216.0103Zm-3.7888,6.0345c1.1491-.5034,2.2981-1.0079,3.4494-1.5066.0843-.0376.0877-.0877.0877-.1606v-4.2694c0-.0342-.0046-.0672-.0091-.1298-1.2174,2.0419-2.4177,4.0587-3.6385,6.1074.0604-.0216.0854-.0296.1105-.041Zm3.7956,2.5805c1.2572-.7357,2.502-1.4634,3.7683-2.2047-1.2686-.5546-2.5134-1.1001-3.7683-1.6501v3.8549Zm-4.0337-2.2059c1.2686.7425,2.5122,1.4713,3.7683,2.2059v-3.8549c-1.2561.55-2.4997,1.0944-3.7683,1.649Z"/></g></g></g><g class="cls-11"><g><path class="cls-9" d="m215.8686,13.6657c2.0168.9213,4.0257,1.8642,6.055,2.7616,4.7363,2.0954,9.476,4.1817,14.2294,6.2361.6241.2699.8826.5774.8541,1.2755-.0581,1.4691-.0171,2.9416-.0171,4.4778h-42.4946c0-1.3597.0729-2.74-.0239-4.1077-.0683-.9646.2665-1.4019,1.1479-1.7822,6.4548-2.7867,12.8833-5.6337,19.3188-8.4659.2596-.115.5045-.2631.7562-.3952h.1742Z"/><path class="cls-9" d="m239.8621,58.4824c-.3587.5671-.8609.7368-1.5363.7357-15.0311-.0171-30.0634-.0137-45.0957-.0114-.558,0-1.2561.0672-1.395-.5751-.1446-.6673-.0444-1.411.0706-2.1.0319-.1913.4885-.3428.7733-.4487.1788-.0672.4009-.0182.6036-.0182,14.9742-.0011,29.9484.0034,44.9214-.0137.689-.0011,1.2333.1549,1.6581.6947v1.7367Z"/><path class="cls-9" d="m199.0051,32.1235c-.205-.0239-.4043-.0216-.5876-.074-.6138-.1788-.9076-.6059-.845-1.2379.0581-.5979.4134-.9828,1.0135-.9885,2.3175-.0228,4.6338-.0262,6.9501.0023.6457.008.9828.4498,1.0147,1.083.0376.714-.3952,1.0807-1.436,1.2128v16.1381c.016.0137.0569.0786.1014.0809.7972.0421,1.3586.3473,1.3324,1.2447-.0194.7118-.5273,1.0637-1.4918,1.0659-1.9405.0034-3.8811-.008-5.8205.0057-.7664.0057-1.4975-.0228-1.6604-.9805-.1298-.7573.2927-1.1627,1.4292-1.3985v-16.154Z"/><path class="cls-9" d="m212.7141,48.3333v-16.2144c-.2164-.0228-.4191-.0137-.6024-.0672-.6081-.1788-.9293-.607-.8644-1.2299.0604-.5762.4077-.9931,1.0158-.9987,2.3163-.0228,4.6327-.0216,6.949-.0011.6002.0057.9589.3826,1.0204.9817.0649.6309-.2221,1.0614-.8347,1.2447-.189.0558-.3952.0547-.6207.0843v16.1711c.2289.0364.4271.049.615.1002.6275.1708.8997.6058.8404,1.2345-.0558.6036-.4339.9874-1.0158.9953-2.3152.0307-4.6327.0342-6.949-.0011-.6286-.0103-1.0033-.4612-1.0238-1.0876-.0205-.6241.3086-1.0374.9475-1.1536.164-.0296.3314-.0376.5227-.0581Z"/><path class="cls-9" d="m232.7059,48.2434c.3952.1458.8587.1788,1.0557.4236.2369.2961.4248.8404.3075,1.1547-.1321.3473-.6252.779-.9737.7892-2.2856.0706-4.5735.0512-6.8613.0285-.6355-.0068-1.0306-.4145-1.0762-1.0386-.0478-.6628.287-1.1001.9737-1.2128.1401-.0228.2824-.0285.476-.0478v-16.1995c-.1014-.0182-.2289-.049-.3587-.0626-.73-.0706-1.1251-.4965-1.0898-1.2003.0364-.7106.4874-1.0716,1.2174-1.0693,2.0852.0034,4.1692-.0011,6.2543.0011,1.0226.0011,1.46.3007,1.518,1.0238.0592.7573-.3587,1.1502-1.4429,1.3051v16.105Z"/><path class="cls-9" d="m215.7854,54.7813c-6.5743,0-13.1487.0011-19.723-.0023-1.2846,0-1.6433-.4009-1.5681-1.6866.0421-.7323.4248-1.1046,1.1422-1.1536.1731-.0114.3473-.0046.5216-.0046h39.1841c1.3643,0,1.7002.3314,1.6467,1.6012-.0376.894-.3701,1.2299-1.3073,1.2402-1.5055.0171-3.0122.0046-4.5176.0046-5.1269,0-10.2527.0011-15.3785.0011Z"/><g class="cls-14"><g><path class="cls-7" d="m218.7532,32.9207l5.694,2.3437,7.8441-.0137.8347.377.4179.8621-.0672,2.4507.755.4043.3906.5649-.0672.8757-.796,1.6695-.3496,3.2991-.1355,1.8187-.6594.714-3.2217.0535-10.9291-.041.2893-15.3785Z"/><path class="cls-4" d="m212.9259,47.026c0-.1389-.0102-.2779.0034-.4157.0638-.6412.0046-1.124-.7357-1.4543-.8211-.3667-1.0557-1.4144-.6958-2.3186.4248-1.0648.8769-2.1182,1.2982-3.1841.0945-.2369.1481-.5045.1526-.7596.0205-1.0933.0125-2.1865.0205-3.2786.0103-1.3267.7197-2.0635,2.0373-2.0886.2619-.0046.3599-.1116.4441-.328.2528-.6434.5216-1.28.7869-1.9189.4874-1.1775,1.518-1.6023,2.7081-1.1149,2.6249,1.0727,5.2454,2.1535,7.8749,3.216.2847.115.6115.1765.9202.1788,2.7958.0251,5.5927.0296,8.3885.041,1.4372.0068,2.1626.7425,2.158,2.1831-.0011.6491.0034,1.3005-.0103,1.9496-.0046.2323.049.3701.2881.4749,1.2083.5273,1.5886,1.4873,1.0921,2.7069-.41,1.0101-.8359,2.0146-1.2333,3.0292-.0991.2505-.156.5318-.1617.8006-.0216,1.0921-.0137,2.1854-.0194,3.2775-.008,1.2914-.7277,2.043-2.0168,2.0703-.2733.0068-.3861.1105-.476.3462-.2312.607-.4863,1.2049-.7334,1.8061-.5352,1.3051-1.5306,1.7105-2.8482,1.1707-2.5976-1.0659-5.1941-2.1341-7.7974-3.1852-.2733-.1105-.5853-.1685-.8814-.1708-2.7958-.0228-5.5927-.0262-8.3885-.0398-1.4656-.008-2.1842-.738-2.1785-2.2059.0011-.2631.0023-.525.0034-.788Zm12.6374,2.2605c3.5155.0137,7.0321.0273,10.5477.041.9224.0034,1.3586-.4179,1.3609-1.3301.0023-1.6456-.0068-3.2912,0-4.9356.0103-2.4336.0319-4.8673.0456-7.3009.0057-.9725-.4065-1.3848-1.3848-1.3882-7.0048-.0285-14.0096-.0558-21.0133-.082-.9509-.0034-1.3768.4134-1.3791,1.3529-.0034,1.8528.0046,3.7057-.0034,5.5597-.0091,2.2241-.0319,4.4493-.0444,6.6746-.0057.9441.4157,1.3631,1.3643,1.3666,3.5019.0148,7.0037.0273,10.5066.0421Zm9.4817.837l-8.7962-.0342c.0342.049.0433.082.0626.09,2.1353.8746,4.2683,1.7549,6.4092,2.6181.5967.2403,1.2015-.0011,1.46-.5785.2984-.6673.5592-1.3518.8644-2.0954Zm-18.8803-16.6266l8.7836.0342c-.0103-.0387-.0103-.0592-.0182-.0615-2.1842-.8974-4.365-1.805-6.5573-2.683-.5261-.2095-1.1046.0763-1.3415.6115-.2972.6685-.5603,1.3518-.8666,2.0988Zm22.1555,5.472l-.0114,2.9324c.2915-.5056.5398-1.0124.7266-1.5408.2107-.5956-.0888-1.1502-.7152-1.3916Zm-25.3863,5.7032c.0046-1.0272.008-2.002.0103-2.9757,0-.0342-.0239-.0683-.0786-.2084-.2631.7288-.5307,1.3575-.7129,2.01-.1401.5034.164.9236.7812,1.1741Z"/><path class="cls-4" d="m236.1701,44.8816c-.0011.3599.0182.7209-.016,1.0773-.0114.1196-.1424.295-.2528.328-3.0133.8905-6.0266.8735-9.0398-.0137-.2187-.0649-.2779-.172-.2733-.3826.0125-.6355.0216-1.2721.008-1.9075-.0251-1.1741.9589-1.9735,2.0692-1.9656.591.0034,1.1901.1913,1.7686.3576.8086.2334,1.5659.1446,2.3448-.1446,1.124-.4157,2.4871-.2927,3.1329.8051.1469.2483.2152.5603.2517.8518.0421.3257.008.6628.0068.9942Z"/><path class="cls-4" d="m228.8749,39.4552c.0103-1.5214,1.0215-2.7149,2.3175-2.8129,1.5852-.1196,2.9142,1.3142,2.7331,2.9723-.123,1.124-.6263,1.9963-1.7492,2.3938-1.4861.525-3.085-.5603-3.2786-2.2195-.016-.1367-.0182-.2756-.0228-.3337Z"/><path class="cls-4" d="m225.0531,37.6536c-.0011.3041-.5705.5512-1.2652.5489l-7.0139-.0273c-.6947-.0034-1.2618-.254-1.2607-.5592.0023-.3041.5706-.5512,1.2652-.5489l7.0139.0273c.6947.0023,1.2618.254,1.2607.5592Z"/><path class="cls-4" d="m225.0531,37.6536c-.0011.3041-.5705.5512-1.2652.5489l-7.0139-.0273c-.6947-.0034-1.2618-.254-1.2607-.5592.0023-.3041.5706-.5512,1.2652-.5489l7.0139.0273c.6947.0023,1.2618.254,1.2607.5592Z"/><path class="cls-4" d="m225.0428,40.3913c-.0011.3052-.5706.5523-1.2652.5489l-7.0139-.0273c-.6947-.0023-1.2618-.2539-1.2607-.5592.0011-.3041.5706-.5512,1.2652-.5489l7.0139.0273c.6947.0034,1.2618.2551,1.2607.5592Z"/><path class="cls-4" d="m225.0428,40.3913c-.0011.3052-.5706.5523-1.2652.5489l-7.0139-.0273c-.6947-.0023-1.2618-.2539-1.2607-.5592.0011-.3041.5706-.5512,1.2652-.5489l7.0139.0273c.6947.0034,1.2618.2551,1.2607.5592Z"/><path class="cls-4" d="m225.0326,43.1301c-.0023.3041-.5706.5512-1.2652.5489l-7.0139-.0273c-.6947-.0034-1.2618-.2551-1.2607-.5592.0011-.3052.5705-.5523,1.2652-.5489l7.0139.0273c.6935.0023,1.2618.2539,1.2607.5592Z"/><path class="cls-4" d="m225.0326,43.1301c-.0023.3041-.5706.5512-1.2652.5489l-7.0139-.0273c-.6947-.0034-1.2618-.2551-1.2607-.5592.0011-.3052.5705-.5523,1.2652-.5489l7.0139.0273c.6935.0023,1.2618.2539,1.2607.5592Z"/><path class="cls-4" d="m225.0212,45.8678c-.0011.3041-.5705.5512-1.2652.5489l-7.0139-.0273c-.6935-.0023-1.2618-.254-1.2607-.5592.0023-.3041.5717-.5512,1.2652-.5489l7.0139.0273c.6947.0034,1.2618.254,1.2607.5592Z"/><path class="cls-4" d="m225.0212,45.8678c-.0011.3041-.5705.5512-1.2652.5489l-7.0139-.0273c-.6935-.0023-1.2618-.254-1.2607-.5592.0023-.3041.5717-.5512,1.2652-.5489l7.0139.0273c.6947.0034,1.2618.254,1.2607.5592Z"/><path class="cls-9" d="m212.9259,47.026c0-.1389-.0102-.2779.0034-.4157.0638-.6412.0046-1.124-.7357-1.4543-.8211-.3667-1.0557-1.4144-.6958-2.3186.4248-1.0648.8769-2.1182,1.2982-3.1841.0945-.2369.1481-.5045.1526-.7596.0205-1.0933.0125-2.1865.0205-3.2786.0103-1.3267.7197-2.0635,2.0373-2.0886.2619-.0046.3599-.1116.4441-.328.2528-.6434.5216-1.28.7869-1.9189.4874-1.1775,1.518-1.6023,2.7081-1.1149,2.6249,1.0727,5.2454,2.1535,7.8749,3.216.2847.115.6115.1765.9202.1788,2.7958.0251,5.5927.0296,8.3885.041,1.4372.0068,2.1626.7425,2.158,2.1831-.0011.6491.0034,1.3005-.0103,1.9496-.0046.2323.049.3701.2881.4749,1.2083.5273,1.5886,1.4873,1.0921,2.7069-.41,1.0101-.8359,2.0146-1.2333,3.0292-.0991.2505-.156.5318-.1617.8006-.0216,1.0921-.0137,2.1854-.0194,3.2775-.008,1.2914-.7277,2.043-2.0168,2.0703-.2733.0068-.3861.1105-.476.3462-.2312.607-.4863,1.2049-.7334,1.8061-.5352,1.3051-1.5306,1.7105-2.8482,1.1707-2.5976-1.0659-5.1941-2.1341-7.7974-3.1852-.2733-.1105-.5853-.1685-.8814-.1708-2.7958-.0228-5.5927-.0262-8.3885-.0398-1.4656-.008-2.1842-.738-2.1785-2.2059.0011-.2631.0023-.525.0034-.788Zm12.6374,2.2605c3.5155.0137,7.0321.0273,10.5477.041.9224.0034,1.3586-.4179,1.3609-1.3301.0023-1.6456-.0068-3.2912,0-4.9356.0103-2.4336.0319-4.8673.0456-7.3009.0057-.9725-.4065-1.3848-1.3848-1.3882-7.0048-.0285-14.0096-.0558-21.0133-.082-.9509-.0034-1.3768.4134-1.3791,1.3529-.0034,1.8528.0046,3.7057-.0034,5.5597-.0091,2.2241-.0319,4.4493-.0444,6.6746-.0057.9441.4157,1.3631,1.3643,1.3666,3.5019.0148,7.0037.0273,10.5066.0421Zm9.4817.837l-8.7962-.0342c.0342.049.0433.082.0626.09,2.1353.8746,4.2683,1.7549,6.4092,2.6181.5967.2403,1.2015-.0011,1.46-.5785.2984-.6673.5592-1.3518.8644-2.0954Zm-18.8803-16.6266l8.7836.0342c-.0103-.0387-.0103-.0592-.0182-.0615-2.1842-.8974-4.365-1.805-6.5573-2.683-.5261-.2095-1.1046.0763-1.3415.6115-.2972.6685-.5603,1.3518-.8666,2.0988Zm22.1555,5.472l-.0114,2.9324c.2915-.5056.5398-1.0124.7266-1.5408.2107-.5956-.0888-1.1502-.7152-1.3916Zm-25.3863,5.7032c.0046-1.0272.008-2.002.0103-2.9757,0-.0342-.0239-.0683-.0786-.2084-.2631.7288-.5307,1.3575-.7129,2.01-.1401.5034.164.9236.7812,1.1741Z"/><path class="cls-9" d="m236.1701,44.8816c-.0011.3599.0182.7209-.016,1.0773-.0114.1196-.1424.295-.2528.328-3.0133.8905-6.0266.8735-9.0398-.0137-.2187-.0649-.2779-.172-.2733-.3826.0125-.6355.0216-1.2721.008-1.9075-.0251-1.1741.9589-1.9735,2.0692-1.9656.591.0034,1.1901.1913,1.7686.3576.8086.2334,1.5659.1446,2.3448-.1446,1.124-.4157,2.4871-.2927,3.1329.8051.1469.2483.2152.5603.2517.8518.0421.3257.008.6628.0068.9942Z"/><path class="cls-9" d="m228.8749,39.4552c.0103-1.5214,1.0215-2.7149,2.3175-2.8129,1.5852-.1196,2.9142,1.3142,2.7331,2.9723-.123,1.124-.6263,1.9963-1.7492,2.3938-1.4861.525-3.085-.5603-3.2786-2.2195-.016-.1367-.0182-.2756-.0228-.3337Z"/><path class="cls-9" d="m225.0531,37.6536c-.0011.3041-.5705.5512-1.2652.5489l-7.0139-.0273c-.6947-.0034-1.2618-.254-1.2607-.5592.0023-.3041.5706-.5512,1.2652-.5489l7.0139.0273c.6947.0023,1.2618.254,1.2607.5592Z"/><path class="cls-9" d="m225.0428,40.3913c-.0011.3052-.5706.5523-1.2652.5489l-7.0139-.0273c-.6947-.0023-1.2618-.2539-1.2607-.5592.0011-.3041.5706-.5512,1.2652-.5489l7.0139.0273c.6947.0034,1.2618.2551,1.2607.5592Z"/><path class="cls-9" d="m225.0326,43.1301c-.0023.3041-.5706.5512-1.2652.5489l-7.0139-.0273c-.6947-.0034-1.2618-.2551-1.2607-.5592.0011-.3052.5705-.5523,1.2652-.5489l7.0139.0273c.6935.0023,1.2618.2539,1.2607.5592Z"/><path class="cls-9" d="m225.0212,45.8678c-.0011.3041-.5705.5512-1.2652.5489l-7.0139-.0273c-.6935-.0023-1.2618-.254-1.2607-.5592.0023-.3041.5717-.5512,1.2652-.5489l7.0139.0273c.6947.0034,1.2618.254,1.2607.5592Z"/></g></g><path class="cls-3" d="m201.0834,22.6919h-1.091l-.443,1.7891h-1.0181l.4419-1.7891h-.7812v-1.1103h1.0602l.3075-1.2345h-.853v-1.1001h1.132l.4111-1.6456h.9874l-.4009,1.6456h1.1012l.4111-1.6456h.9885l-.402,1.6456h.7209l-.0102,1.1001h-.9782l-.2984,1.2345h.8131v1.1103h-1.091l-.4328,1.7891h-1.0181l.443-1.7891Zm.5865-2.3448h-1.1012l-.3086,1.2345h1.1012l.3086-1.2345Z"/><path class="cls-3" d="m208.4618,22.6919h-1.091l-.4419,1.7891h-1.0192l.443-1.7891h-.7824v-1.1103h1.0591l.3098-1.2345h-.8541v-1.1001h1.132l.4111-1.6456h.9885l-.402,1.6456h1.1012l.4122-1.6456h.9874l-.4009,1.6456h.7197l-.0103,1.1001h-.9782l-.2984,1.2345h.8131v1.1103h-1.091l-.4316,1.7891h-1.0192l.443-1.7891Zm.5865-2.3448h-1.1012l-.3086,1.2345h1.1012l.3086-1.2345Z"/><path class="cls-3" d="m215.8413,22.6919h-1.091l-.443,1.7891h-1.0192l.443-1.7891h-.7824v-1.1103h1.0602l.3086-1.2345h-.8541v-1.1001h1.132l.4122-1.6456h.9874l-.4009,1.6456h1.1001l.4122-1.6456h.9874l-.4009,1.6456h.7197l-.0103,1.1001h-.9771l-.2984,1.2345h.8131v1.1103h-1.091l-.4328,1.7891h-1.0192l.4441-1.7891Zm.5865-2.3448h-1.1012l-.3086,1.2345h1.1001l.3098-1.2345Z"/><path class="cls-3" d="m223.2196,22.6919h-1.091l-.443,1.7891h-1.0181l.4419-1.7891h-.7812v-1.1103h1.0591l.3086-1.2345h-.853v-1.1001h1.132l.4111-1.6456h.9874l-.4009,1.6456h1.1012l.4111-1.6456h.9885l-.402,1.6456h.7209l-.0103,1.1001h-.9782l-.2984,1.2345h.8131v1.1103h-1.091l-.4328,1.7891h-1.0181l.443-1.7891Zm.5865-2.3448h-1.1012l-.3086,1.2345h1.1012l.3086-1.2345Z"/><path class="cls-3" d="m230.5979,22.6919h-1.091l-.4419,1.7891h-1.0192l.4419-1.7891h-.7812v-1.1103h1.0602l.3086-1.2345h-.8541v-1.1001h1.132l.4111-1.6456h.9885l-.402,1.6456h1.1012l.4122-1.6456h.9874l-.4009,1.6456h.7197l-.0103,1.1001h-.9782l-.2984,1.2345h.8131v1.1103h-1.091l-.4316,1.7891h-1.0192l.443-1.7891Zm.5865-2.3448h-1.1001l-.3097,1.2345h1.1012l.3086-1.2345Z"/><path class="cls-9" d="m201.0834,22.6919h-1.091l-.443,1.7891h-1.0181l.4419-1.7891h-.7812v-1.1103h1.0602l.3075-1.2345h-.853v-1.1001h1.132l.4111-1.6456h.9874l-.4009,1.6456h1.1012l.4111-1.6456h.9885l-.402,1.6456h.7209l-.0102,1.1001h-.9782l-.2984,1.2345h.8131v1.1103h-1.091l-.4328,1.7891h-1.0181l.443-1.7891Zm.5865-2.3448h-1.1012l-.3086,1.2345h1.1012l.3086-1.2345Z"/><path class="cls-9" d="m208.4618,22.6919h-1.091l-.4419,1.7891h-1.0192l.443-1.7891h-.7824v-1.1103h1.0591l.3098-1.2345h-.8541v-1.1001h1.132l.4111-1.6456h.9885l-.402,1.6456h1.1012l.4122-1.6456h.9874l-.4009,1.6456h.7197l-.0103,1.1001h-.9782l-.2984,1.2345h.8131v1.1103h-1.091l-.4316,1.7891h-1.0192l.443-1.7891Zm.5865-2.3448h-1.1012l-.3086,1.2345h1.1012l.3086-1.2345Z"/><path class="cls-9" d="m215.8413,22.6919h-1.091l-.443,1.7891h-1.0192l.443-1.7891h-.7824v-1.1103h1.0602l.3086-1.2345h-.8541v-1.1001h1.132l.4122-1.6456h.9874l-.4009,1.6456h1.1001l.4122-1.6456h.9874l-.4009,1.6456h.7197l-.0103,1.1001h-.9771l-.2984,1.2345h.8131v1.1103h-1.091l-.4328,1.7891h-1.0192l.4441-1.7891Zm.5865-2.3448h-1.1012l-.3086,1.2345h1.1001l.3098-1.2345Z"/><path class="cls-9" d="m223.2196,22.6919h-1.091l-.443,1.7891h-1.0181l.4419-1.7891h-.7812v-1.1103h1.0591l.3086-1.2345h-.853v-1.1001h1.132l.4111-1.6456h.9874l-.4009,1.6456h1.1012l.4111-1.6456h.9885l-.402,1.6456h.7209l-.0103,1.1001h-.9782l-.2984,1.2345h.8131v1.1103h-1.091l-.4328,1.7891h-1.0181l.443-1.7891Zm.5865-2.3448h-1.1012l-.3086,1.2345h1.1012l.3086-1.2345Z"/><path class="cls-9" d="m230.5979,22.6919h-1.091l-.4419,1.7891h-1.0192l.4419-1.7891h-.7812v-1.1103h1.0602l.3086-1.2345h-.8541v-1.1001h1.132l.4111-1.6456h.9885l-.402,1.6456h1.1012l.4122-1.6456h.9874l-.4009,1.6456h.7197l-.0103,1.1001h-.9782l-.2984,1.2345h.8131v1.1103h-1.091l-.4316,1.7891h-1.0192l.443-1.7891Zm.5865-2.3448h-1.1001l-.3097,1.2345h1.1012l.3086-1.2345Z"/></g></g><g class="cls-13"><g><path class="cls-9" d="m89.2878,34.4171l-20.141-20.6671c-.7928-.8131-1.8293-1.2231-2.8721-1.2231-1.0365,0-2.0796.41-2.8721,1.2231l-11.0295,11.3141c-1.5868,1.6262-1.5868,4.3172,0,5.9491l1.8294,1.9246h4.2191l-3.9394-4.0883c-.2745-.287-.3139-.6389-.3139-.8131,0-.1697.0394-.5125.3139-.7983l1.4565-1.4486,6.9201,7.1483h6.643l-10.2431-10.5613,6.2539-6.4411c.2733-.2824.5974-.3337.7621-.3337.1698,0,.4888.0353.7686.3177l20.1399,20.6603c.2745.287.3143.6149.3143.7892,0,.1686-.0683.4965-.3439.7835l-1.1422,1.14v4.3286l3.2513-3.3048c1.5852-1.6319,1.616-4.2728.025-5.899Z"/><path class="cls-9" d="m79.8381,34.8772h-28.4822c-2.2443,0-4.1642,1.8528-4.1642,4.1555v11.0567h36.6605v-11.0567c0-2.3027-1.7702-4.1555-4.0142-4.1555Z"/><path class="cls-9" d="m47.1918,55.0363c0,2.3038,1.9199,4.1817,4.1642,4.1817h28.4822c2.244,0,4.0142-1.8779,4.0142-4.1817v-.2448h-36.6605v.2448Z"/></g></g><g class="cls-12"><g><path class="cls-2" d="m522.1096,59.2693c1.8016,0,3.2616-1.46,3.2616-3.2604,0-1.8016-1.4599-3.2616-3.2616-3.2616-1.8004,0-3.2604,1.46-3.2604,3.2616,0,1.8004,1.4599,3.2604,3.2604,3.2604Z"/><path class="cls-2" d="m524.2848,20.1364c1.8004,0,3.2604-1.46,3.2604-3.2616,0-1.8004-1.4599-3.2604-3.2604-3.2604-1.8016,0-3.2616,1.46-3.2616,3.2604,0,1.8016,1.4599,3.2616,3.2616,3.2616Z"/><path class="cls-2" d="m542.7642,40.7898c1.8004,0,3.2604-1.46,3.2604-3.2604,0-1.8016-1.4599-3.2615-3.2604-3.2615-1.8016,0-3.2616,1.46-3.2616,3.2615,0,1.8004,1.4599,3.2604,3.2616,3.2604Z"/><path class="cls-2" d="m503.6302,38.6159c1.8016,0,3.2616-1.46,3.2616-3.2615,0-1.8004-1.4599-3.2604-3.2616-3.2604-1.8004,0-3.2604,1.46-3.2604,3.2604,0,1.8016,1.4599,3.2615,3.2604,3.2615Z"/><path class="cls-2" d="m514.5013,13.6145l3.2604,3.2604-3.2604,3.2616"/><path class="cls-2" d="m517.7617,16.8749h-4.348c-5.4036,0-9.7835,4.3799-9.7835,9.7835v3.2615"/><path class="cls-2" d="m531.8931,59.2693l-3.2604-3.2604,3.2604-3.2616"/><path class="cls-2" d="m528.6327,56.0089h4.348c5.4036,0,9.7835-4.3799,9.7835-9.7835v-3.2615"/><path class="cls-2" d="m546.0246,27.7459l-3.2604,3.2604-3.2616-3.2604"/><path class="cls-2" d="m542.7642,31.0063v-4.348c0-5.4036-4.381-9.7835-9.7835-9.7835h-3.2616"/><path class="cls-2" d="m500.3698,45.1378l3.2604-3.2604,3.2616,3.2604"/><path class="cls-2" d="m503.6302,41.8774v4.348c0,5.4025,4.3799,9.7835,9.7835,9.7835h3.2616"/><path class="cls-9" d="m535.6979,36.4419c0,6.9046-5.5961,12.5007-12.5007,12.5007s-12.5007-5.5961-12.5007-12.5007,5.5961-12.5007,12.5007-12.5007,12.5007,5.5961,12.5007,12.5007Zm-6.8135,2.8914c0-3.3401-2.847-4.0325-5.1155-4.5985-1.5602-.3872-2.847-.689-2.847-1.7412,0-.9111,1.0511-1.3267,2.1-1.3267,1.1991,0,2.248.591,2.248,1.8369h3.1784c0-2.5543-1.4588-4.25-4.0644-4.6566v-1.4337h-2.5566v1.4269c-2.5429.3667-4.1066,1.8779-4.1066,4.2956,0,3.216,2.7275,3.8663,4.9698,4.4083,1.6035.3826,2.937.6856,2.937,1.8289,0,1.0443-1.1854,1.6547-2.3938,1.6547-1.2948,0-2.4826-.6616-2.4826-2.0442h-3.2411c0,2.7423,1.764,4.5359,4.4926,4.947v1.5397h2.5452v-1.5454c2.494-.3826,4.3366-1.9155,4.3366-4.5917Z"/></g></g><rect class="cls-7" x=".067" y="260" width="589" height="34" rx="5" ry="5"/><path class="cls-8" d="m12.8723,279.4006v-2.3247h4.2104v-1.9508h-4.2104v-2.3897h4.6819v-1.9508h-7.0391v10.5667h7.1203v-1.9508h-4.7632Zm11.8526-6.3888c-1.0567,0-1.9508.4227-2.8124,1.1867l-.1951-.9754h-1.9345v8.1283h2.3084v-5.6898c.699-.569,1.4143-.7803,1.902-.7803.6828,0,1.1705.3577,1.1705,1.5444v4.9257h2.3247v-5.0233c0-2.1296-.8941-3.3163-2.7636-3.3163Zm9.4715,6.5026c-.4389.1463-.8128.1788-1.0892.1788-.7966,0-1.0567-.569-1.0567-1.8045v-2.8774h2.2271v-1.7882h-2.2271v-2.0808l-2.3247.4227v1.6581h-1.0404v1.7882h1.0404v2.8124c0,2.536.8128,3.739,2.6823,3.739.6828,0,1.3005-.0813,2.0646-.3577l-.2764-1.6907Zm4.987-6.5026c-2.0808,0-3.8528,1.4794-3.8528,4.2917,0,2.9424,1.967,4.2755,4.1292,4.2755,1.0079,0,2.1459-.1951,2.7961-.5202l-.2438-1.7069c-.569.2113-1.333.3577-1.9508.3577-1.2518,0-2.2109-.634-2.4872-1.8533h5.1858c.3089-2.8124-.8453-4.8444-3.5764-4.8444Zm.0163,1.7394c.8453,0,1.3655.569,1.4468,1.6744h-3.0887c.1788-.9429.7641-1.6744,1.6419-1.6744Zm10.4879-1.7394c-.9754,0-2.0808.4715-3.04,1.3168l-.1788-1.1054h-1.9996v8.1283h2.3084v-5.3159c.8779-.6015,2.0971-.699,2.7636-.699l.1463-2.3247Zm11.465,8.3396h2.5685l-2.5523-3.9341c1.2843-.6015,1.8532-1.837,1.8532-3.0725,0-1.7882-1.203-3.5602-3.6415-3.5602h-4.0966v10.5667h2.3572v-3.3976h1.268l2.2434,3.3976Zm-3.5114-8.7135h1.4794c1.0079,0,1.5119.8453,1.5119,1.6744,0,.8453-.504,1.6907-1.5119,1.6907h-1.4794v-3.3651Zm12.0548.5852v5.706c-.569.569-1.203.7641-1.6419.7641-.5527,0-1.0079-.3577-1.0079-1.5444v-4.9257h-2.3084v5.0233c0,2.1296.8453,3.3163,2.5848,3.3163.9754,0,1.7882-.4064,2.5848-1.1542l.1788.9429h1.9345v-8.1283h-2.3247Zm6.7531-3.5602l-2.3084.3088v11.3796h2.3084v-11.6884Zm5.5347,3.3488c-2.0808,0-3.8528,1.4794-3.8528,4.2917,0,2.9424,1.967,4.2755,4.1292,4.2755,1.0079,0,2.1459-.1951,2.7961-.5202l-.2438-1.7069c-.569.2113-1.333.3577-1.9508.3577-1.2518,0-2.2109-.634-2.4872-1.8533h5.1858c.3089-2.8124-.8453-4.8444-3.5764-4.8444Zm.0163,1.7394c.8453,0,1.3656.569,1.4468,1.6744h-3.0887c.1788-.9429.7641-1.6744,1.6419-1.6744Zm15.949-3.9666v6.2262l-4.8444-6.2262h-1.5769v10.5667h2.2597v-6.2262l4.8279,6.2262h1.5931v-10.5667h-2.2594Zm8.1555,2.2271c-.9266,0-2.0808.1463-3.3814.4877l.3414,1.7882c.9266-.2926,1.9995-.4877,2.6336-.4877,1.0242,0,1.1054.4877,1.1054,1.5769-2.6823.1463-4.9257.8941-4.9257,2.7636,0,1.6094,1.203,2.4222,2.5848,2.4222.9104,0,1.8695-.3251,2.5848-.9429l.1463.7315h1.9345v-4.7469c0-1.5281.0975-3.5927-3.0237-3.5927Zm-1.0242,6.909c-.6015,0-.9916-.3088-.9916-.7966,0-.9266,1.2518-1.2843,2.7148-1.3655v1.3005c-.4714.504-1.1217.8616-1.7232.8616Zm15.7388-6.909c-1.0079,0-1.8532.4227-2.7148,1.3168-.4227-.8616-1.1705-1.3168-2.2922-1.3168-.9429,0-1.7394.3739-2.536,1.138l-.1788-.9266h-1.9345v8.1283h2.3084v-5.7223c.569-.5527,1.1705-.7478,1.6094-.7478.634,0,1.0892.3902,1.0892,1.5444v4.9257h2.3084v-5.0233c0-.2276,0-.4552-.0325-.6665.569-.569,1.1867-.7803,1.6419-.7803.634,0,1.0892.3902,1.0892,1.5444v4.9257h2.3084v-5.0233c0-2.1296-.8779-3.3163-2.6661-3.3163Zm8.1082,0c-2.0808,0-3.8528,1.4794-3.8528,4.2917,0,2.9424,1.967,4.2755,4.1292,4.2755,1.0079,0,2.1459-.1951,2.7961-.5202l-.2438-1.7069c-.569.2113-1.333.3577-1.9508.3577-1.2518,0-2.2109-.634-2.4873-1.8533h5.1858c.3089-2.8124-.8453-4.8444-3.5764-4.8444Zm.0163,1.7394c.8453,0,1.3656.569,1.4468,1.6744h-3.0887c.1788-.9429.7641-1.6744,1.6419-1.6744Z"/><path class="cls-7" d="m5.067,306h579c2.7614,0,5,2.268,5,5.0657v64.8409c0,2.7977-2.2386,5.0657-5,5.0657H5.067c-2.7614,0-5-2.268-5-5.0657v-64.8409c0-2.7977,2.2386-5.0657,5-5.0657Z"/><path class="cls-8" d="m14.059,318.9707c-2.3084,0-3.8853,1.3493-3.8853,3.105,0,1.4631,1.1217,2.3734,3.0725,3.2188,1.3168.569,2.0646.8941,2.0646,1.6419,0,.6828-.569,1.0242-1.5931,1.0242-.8616,0-1.7882-.2764-3.1863-1.0892l-.569,1.9183c1.3168.8128,2.6823,1.1705,3.9016,1.1705,2.2922,0,3.9016-1.0242,3.9016-2.9749,0-1.772-1.2843-2.8286-3.4301-3.674-1.1542-.4714-1.7069-.7803-1.7069-1.3493,0-.5527.5202-1.0404,1.5119-1.0404.6828,0,1.6094.1788,2.6173.6015l.5202-1.9183c-1.1705-.4715-2.2109-.634-3.2188-.634Zm9.0804,2.4385c-2.1946,0-4.1129,1.1705-4.1129,4.2917,0,3.0725,1.9508,4.2755,4.0641,4.2755.8779,0,1.9345-.1951,2.601-.5202l-.2601-1.6744c-.504.1951-1.2192.3089-1.772.3089-1.333,0-2.3409-.7803-2.3409-2.4222,0-1.8207,1.0079-2.406,2.3897-2.406.4714,0,1.0079.0975,1.5606.2439l.3739-1.6581c-.7803-.3089-1.6582-.4389-2.5035-.4389Zm9.3869,0c-.9754,0-2.0808.4715-3.04,1.3168l-.1788-1.1054h-1.9995v8.1283h2.3084v-5.3159c.8779-.6015,2.0971-.699,2.7636-.699l.1463-2.3247Zm2.6876-.764c.7478,0,1.3493-.6177,1.3493-1.3981s-.6015-1.4143-1.3493-1.4143-1.3493.634-1.3493,1.4143.6015,1.3981,1.3493,1.3981Zm1.1542.9754h-2.3084v8.1283h2.3084v-8.1283Zm6.8422-.2113c-.8941,0-1.7394.3739-2.4547,1.0242l-.1463-.8128h-1.9345v11.5909l2.3084-.3089v-3.2838c.569.2439,1.1705.3414,1.7232.3414,1.9995,0,3.8528-1.3818,3.8528-4.3405,0-2.6986-1.5281-4.2104-3.3488-4.2104Zm-1.1217,6.714c-.3576,0-.7315-.0488-1.1054-.1788v-4.0966c.5365-.3414,1.0729-.5365,1.5606-.5365.9916,0,1.6907.7803,1.6907,2.2922,0,1.7719-.9429,2.5198-2.1459,2.5198Zm10.8092-.2113c-.4389.1463-.8128.1788-1.0892.1788-.7966,0-1.0567-.569-1.0567-1.8045v-2.8774h2.2271v-1.7882h-2.2271v-2.0808l-2.3247.4227v1.6581h-1.0404v1.7882h1.0404v2.8124c0,2.536.8128,3.739,2.6823,3.739.6828,0,1.3005-.0813,2.0646-.3577l-.2764-1.6907Zm11.922,1.837h2.5685l-2.5523-3.9341c1.2843-.6015,1.8532-1.837,1.8532-3.0725,0-1.7882-1.203-3.5602-3.6415-3.5602h-4.0966v10.5667h2.3572v-3.3976h1.268l2.2434,3.3976Zm-3.5114-8.7135h1.4793c1.0079,0,1.5119.8453,1.5119,1.6744,0,.8453-.504,1.6907-1.5119,1.6907h-1.4793v-3.3651Zm12.0548.5852v5.706c-.569.569-1.203.7641-1.6419.7641-.5527,0-1.0079-.3577-1.0079-1.5444v-4.9257h-2.3084v5.0233c0,2.1296.8453,3.3163,2.5848,3.3163.9754,0,1.7882-.4064,2.5848-1.1542l.1788.9429h1.9345v-8.1283h-2.3247Zm6.7531-3.5602l-2.3084.3088v11.3796h2.3084v-11.6884Zm5.5347,3.3488c-2.0808,0-3.8528,1.4794-3.8528,4.2917,0,2.9424,1.967,4.2755,4.1292,4.2755,1.0079,0,2.1459-.1951,2.7961-.5202l-.2438-1.7069c-.569.2113-1.333.3577-1.9508.3577-1.2518,0-2.2109-.634-2.4873-1.8533h5.1858c.3089-2.8124-.8453-4.8444-3.5764-4.8444Zm.0163,1.7394c.8453,0,1.3656.569,1.4468,1.6744h-3.0887c.1788-.9429.7641-1.6744,1.6419-1.6744Z"/></svg>