<?xml version="1.0" encoding="utf-8"?>
<!-- Generator: Adobe Illustrator 27.5.0, SVG Export Plug-In . SVG Version: 6.00 Build 0)  -->
<svg version="1.1" id="Layer_1" xmlns="http://www.w3.org/2000/svg" xmlns:xlink="http://www.w3.org/1999/xlink" x="0px" y="0px"
	 viewBox="0 0 580.8 355" style="enable-background:new 0 0 580.8 355;" xml:space="preserve">
<style type="text/css">
	.st0{fill:#FFFFFF;}
	.st1{fill:#4A9CD5;}
	.st2{fill:#274666;}
	.st3{clip-path:url(#SVGID_00000077295976512143916980000002781114108285718715_);}
	.st4{clip-path:url(#SVGID_00000061465720328618233770000001075155379644199044_);}
	.st5{fill:none;stroke:#4F9DD6;stroke-width:2;stroke-miterlimit:10;}
	.st6{fill:#BFBFBF;}
	.st7{clip-path:url(#SVGID_00000152247343154776827460000003401218491322187151_);}
	.st8{fill:none;stroke:#FFFFFF;stroke-width:1.5;}
	.st9{fill:none;stroke:#FFFFFF;}
	.st10{clip-path:url(#SVGID_00000004510291000600689740000016983889981369033614_);}
	.st11{fill:none;}
	.st12{font-family:'MonsalGothic-Bold';}
	.st13{font-size:17px;}
</style>
<path class="st0" d="M9.9,189.3h104.5c5.4,0,9.9,4.4,9.9,9.9v3c0,5.4-4.4,9.9-9.9,9.9H9.9c-5.4,0-9.9-4.4-9.9-9.9v-3
	C0,193.7,4.4,189.3,9.9,189.3z"/>
<path class="st1" d="M18.5,196.8c2,0,3,1.4,3,2.9s-1,2.9-3,2.9h-1.1v2.5h-1.9v-8.3L18.5,196.8L18.5,196.8z M18.4,201
	c0.8,0,1.2-0.7,1.2-1.4s-0.4-1.4-1.2-1.4h-1v2.8L18.4,201L18.4,201z M26.9,198.5l-0.1,1.8c-0.5,0-1.5,0.1-2.2,0.6v4.2h-1.8v-6.4h1.6
	l0.1,0.9C25.3,198.9,26.1,198.5,26.9,198.5L26.9,198.5z M30.5,198.5c2.2,0,3.1,1.6,2.8,3.8h-4.1c0.2,1,1,1.5,2,1.5
	c0.5,0,1.1-0.1,1.5-0.3l0.2,1.3c-0.5,0.3-1.4,0.4-2.2,0.4c-1.7,0-3.3-1.1-3.3-3.4C27.5,199.7,28.9,198.5,30.5,198.5L30.5,198.5z
	 M30.5,199.9c-0.7,0-1.2,0.6-1.3,1.3h2.4C31.6,200.4,31.2,199.9,30.5,199.9z M38.7,196.1l1.8-0.3v9.2H39l-0.1-0.6
	c-0.6,0.5-1.2,0.8-1.9,0.8c-1.4,0-2.6-1.2-2.6-3.3c0-2.3,1.4-3.4,3-3.4c0.4,0,0.9,0.1,1.4,0.3L38.7,196.1L38.7,196.1z M36.1,202
	c0,1.2,0.6,1.8,1.3,1.8c0.4,0,0.8-0.2,1.2-0.4v-3.2c-0.3-0.1-0.6-0.1-0.9-0.1C36.9,200,36.1,200.6,36.1,202L36.1,202z M44.9,198.5
	c2.2,0,3.1,1.6,2.8,3.8h-4.1c0.2,1,1,1.5,2,1.5c0.5,0,1.1-0.1,1.5-0.3l0.2,1.3c-0.5,0.3-1.4,0.4-2.2,0.4c-1.7,0-3.3-1.1-3.3-3.4
	C41.8,199.7,43.2,198.5,44.9,198.5L44.9,198.5z M44.9,199.9c-0.7,0-1.2,0.6-1.3,1.3H46C46,200.4,45.5,199.9,44.9,199.9z M52.7,203.7
	l0.2,1.3c-0.6,0.2-1.1,0.3-1.6,0.3c-1.5,0-2.1-0.9-2.1-2.9v-2.2h-0.8v-1.4h0.8v-1.3l1.8-0.3v1.6h1.8v1.4H51v2.3c0,1,0.2,1.4,0.8,1.4
	C52.1,203.8,52.4,203.8,52.7,203.7L52.7,203.7z M56.7,198.5c2.2,0,3.1,1.6,2.8,3.8h-4.1c0.2,1,1,1.5,2,1.5c0.5,0,1.1-0.1,1.5-0.3
	l0.2,1.3c-0.5,0.3-1.4,0.4-2.2,0.4c-1.7,0-3.3-1.1-3.3-3.4C53.6,199.7,55,198.5,56.7,198.5L56.7,198.5z M56.7,199.9
	c-0.7,0-1.2,0.6-1.3,1.3h2.4C57.7,200.4,57.3,199.9,56.7,199.9z M64.9,198.5l-0.1,1.8c-0.5,0-1.5,0.1-2.2,0.6v4.2h-1.8v-6.4h1.6
	l0.1,0.9C63.3,198.9,64.2,198.5,64.9,198.5L64.9,198.5z M73.6,198.5c1.4,0,2.1,0.9,2.1,2.6v4h-1.8v-3.9c0-0.9-0.4-1.2-0.9-1.2
	c-0.4,0-0.8,0.2-1.3,0.6c0,0.2,0,0.3,0,0.5v4h-1.8v-3.9c0-0.9-0.4-1.2-0.9-1.2c-0.3,0-0.8,0.2-1.3,0.6v4.5H66v-6.4h1.5l0.1,0.7
	c0.6-0.6,1.3-0.9,2-0.9c0.9,0,1.5,0.4,1.8,1C72.1,198.9,72.8,198.5,73.6,198.5L73.6,198.5z M78.4,197.9c-0.6,0-1.1-0.5-1.1-1.1
	s0.5-1.1,1.1-1.1s1.1,0.5,1.1,1.1S79,197.9,78.4,197.9z M79.3,198.7v6.4h-1.8v-6.4H79.3z M85,198.5c1.5,0,2.2,0.9,2.2,2.6v4h-1.8
	v-3.9c0-0.9-0.4-1.2-0.9-1.2c-0.4,0-0.9,0.2-1.5,0.6v4.5h-1.8v-6.4h1.5l0.2,0.8C83.5,198.9,84.2,198.5,85,198.5L85,198.5z
	 M91.7,198.5c2.5,0,2.4,1.6,2.4,2.8v3.7h-1.5l-0.1-0.6c-0.6,0.5-1.3,0.7-2,0.7c-1.1,0-2-0.6-2-1.9c0-1.5,1.8-2.1,3.9-2.2
	c0-0.9-0.1-1.2-0.9-1.2c-0.5,0-1.3,0.2-2.1,0.4l-0.3-1.4C90,198.7,90.9,198.5,91.7,198.5z M90.9,204c0.5,0,1-0.3,1.4-0.7v-1
	c-1.2,0.1-2.1,0.3-2.1,1.1C90.1,203.7,90.4,204,90.9,204L90.9,204z M99.7,196.1l1.8-0.3v9.2H100l-0.1-0.6c-0.6,0.5-1.2,0.8-1.9,0.8
	c-1.4,0-2.6-1.2-2.6-3.3c0-2.3,1.4-3.4,3-3.4c0.4,0,0.9,0.1,1.4,0.3L99.7,196.1L99.7,196.1z M97.1,202c0,1.2,0.6,1.8,1.3,1.8
	c0.4,0,0.8-0.2,1.2-0.4v-3.2c-0.3-0.1-0.6-0.1-0.9-0.1C97.9,200,97.1,200.6,97.1,202L97.1,202z M106,198.5c2,0,3.2,1.5,3.2,3.4
	s-1.2,3.4-3.2,3.4s-3.2-1.4-3.2-3.4C102.8,200,104,198.5,106,198.5z M106,199.9c-0.8,0-1.3,0.7-1.3,2c0,1.2,0.5,2,1.3,2
	s1.4-0.7,1.4-2C107.4,200.7,106.8,199.9,106,199.9z"/>
<path class="st0" d="M142,189.3h100.6c5.4,0,9.9,4.4,9.9,9.9v3c0,5.4-4.4,9.9-9.9,9.9H142c-5.4,0-9.9-4.4-9.9-9.9v-3
	C132.1,193.7,136.6,189.3,142,189.3z"/>
<path class="st1" d="M149.8,205.3c-2.9,0-4.2-1.8-4.2-4.3c0-2.7,1.7-4.3,4.3-4.3c0.8,0,1.7,0.1,2.4,0.4l-0.4,1.5
	c-0.5-0.2-1.2-0.3-1.8-0.3c-1.4,0-2.5,0.8-2.5,2.7c0,1.7,1,2.7,2.5,2.7c0.6,0,1.2-0.2,1.8-0.4l0.6,1.4
	C151.5,205.1,150.6,205.3,149.8,205.3L149.8,205.3z M156.3,198.5c2,0,3.2,1.5,3.2,3.4s-1.2,3.4-3.2,3.4s-3.2-1.4-3.2-3.4
	C153.1,200,154.3,198.5,156.3,198.5z M156.3,199.9c-0.8,0-1.3,0.7-1.3,2c0,1.2,0.5,2,1.3,2s1.4-0.7,1.4-2
	C157.7,200.6,157.1,199.9,156.3,199.9z M164.8,196.1l1.8-0.3v9.2h-1.5l-0.1-0.6c-0.6,0.5-1.2,0.8-1.9,0.8c-1.4,0-2.6-1.2-2.6-3.3
	c0-2.3,1.4-3.4,3-3.4c0.4,0,0.9,0.1,1.4,0.3L164.8,196.1L164.8,196.1z M162.2,202c0,1.2,0.6,1.8,1.3,1.8c0.4,0,0.8-0.2,1.2-0.4v-3.2
	c-0.3-0.1-0.6-0.1-0.9-0.1C163,200,162.2,200.6,162.2,202L162.2,202z M169.4,197.9c-0.6,0-1.1-0.5-1.1-1.1s0.5-1.1,1.1-1.1
	s1.1,0.5,1.1,1.1S170,197.9,169.4,197.9z M170.3,198.7v6.4h-1.8v-6.4H170.3z M175.5,197.4c-0.7,0-1.2,0.3-1.3,1.3h1.5v1.4h-1.5v5
	h-1.8v-5h-1v-1.4h1c0.1-2.1,1.3-2.7,2.7-2.7c0.4,0,0.9,0,1.3,0.1l-0.2,1.4C176,197.4,175.8,197.4,175.5,197.4L175.5,197.4z
	 M177.8,197.9c-0.6,0-1.1-0.5-1.1-1.1s0.5-1.1,1.1-1.1s1.1,0.5,1.1,1.1S178.4,197.9,177.8,197.9z M178.7,198.7v6.4h-1.8v-6.4H178.7z
	 M183.5,198.5c0.7,0,1.4,0.1,2,0.3l-0.3,1.3c-0.4-0.1-0.9-0.2-1.2-0.2c-1.1,0-1.9,0.5-1.9,1.9c0,1.3,0.8,1.9,1.8,1.9
	c0.4,0,1-0.1,1.4-0.2l0.2,1.3c-0.5,0.3-1.4,0.4-2.1,0.4c-1.7,0-3.2-0.9-3.2-3.4C180.2,199.5,181.7,198.5,183.5,198.5L183.5,198.5z
	 M189.6,198.5c2.5,0,2.4,1.6,2.4,2.8v3.7h-1.5l-0.1-0.6c-0.6,0.5-1.3,0.7-2,0.7c-1.1,0-2-0.6-2-1.9c0-1.5,1.8-2.1,3.9-2.2
	c0-0.9-0.1-1.2-0.9-1.2c-0.5,0-1.3,0.2-2.1,0.4l-0.3-1.4C187.9,198.7,188.8,198.5,189.6,198.5L189.6,198.5z M188.8,204
	c0.5,0,1-0.3,1.4-0.7v-1c-1.2,0.1-2.1,0.3-2.1,1.1C188,203.7,188.3,204,188.8,204z M197.6,196.1l1.8-0.3v9.2h-1.5l-0.1-0.6
	c-0.6,0.5-1.2,0.8-1.9,0.8c-1.4,0-2.6-1.2-2.6-3.3c0-2.3,1.4-3.4,3-3.4c0.4,0,0.9,0.1,1.4,0.3L197.6,196.1L197.6,196.1z M195,202
	c0,1.2,0.6,1.8,1.3,1.8c0.4,0,0.8-0.2,1.2-0.4v-3.2c-0.3-0.1-0.6-0.1-0.9-0.1C195.8,200,195,200.6,195,202L195,202z M203.9,198.5
	c2,0,3.2,1.5,3.2,3.4s-1.2,3.4-3.2,3.4s-3.2-1.4-3.2-3.4C200.7,200,201.9,198.5,203.9,198.5z M203.9,199.9c-0.8,0-1.3,0.7-1.3,2
	c0,1.2,0.5,2,1.3,2s1.4-0.7,1.4-2C205.3,200.7,204.7,199.9,203.9,199.9z M215.1,196.8c2.8,0,4.3,2.1,4.3,4.2c0,2.1-1.4,4.2-4.3,4.2
	h-3.3v-8.3L215.1,196.8L215.1,196.8z M215.1,203.6c1.6,0,2.3-1.3,2.3-2.6s-0.8-2.6-2.3-2.6h-1.4v5.3L215.1,203.6L215.1,203.6z
	 M224.5,198.7h1.8v6.4h-1.5l-0.1-0.7c-0.6,0.6-1.3,0.9-2,0.9c-1.4,0-2-0.9-2-2.6v-4h1.8v3.9c0,0.9,0.4,1.2,0.8,1.2
	c0.3,0,0.8-0.2,1.3-0.6L224.5,198.7L224.5,198.7z M232.1,198.5l-0.1,1.8c-0.5,0-1.5,0.1-2.2,0.6v4.2H228v-6.4h1.6l0.1,0.9
	C230.5,198.9,231.3,198.5,232.1,198.5L232.1,198.5z M235.9,198.5c2,0,3.2,1.5,3.2,3.4s-1.2,3.4-3.2,3.4s-3.2-1.4-3.2-3.4
	C232.7,200,233.9,198.5,235.9,198.5z M235.9,199.9c-0.8,0-1.3,0.7-1.3,2c0,1.2,0.5,2,1.3,2s1.4-0.7,1.4-2
	C237.2,200.7,236.7,199.9,235.9,199.9z"/>
<path class="st1" d="M270.2,189.3H424c5.4,0,9.9,4.4,9.9,9.9v3c0,5.4-4.4,9.9-9.9,9.9H270.2c-5.4,0-9.9-4.4-9.9-9.9v-3
	C260.3,193.7,264.7,189.3,270.2,189.3z"/>
<path class="st0" d="M277.4,196.6c0.8,0,1.6,0.1,2.5,0.5l-0.4,1.5c-0.8-0.3-1.5-0.5-2.1-0.5c-0.8,0-1.2,0.4-1.2,0.8
	c0,0.4,0.4,0.7,1.3,1.1c1.7,0.7,2.7,1.5,2.7,2.9c0,1.5-1.3,2.3-3.1,2.3c-1,0-2-0.3-3.1-0.9l0.4-1.5c1.1,0.6,1.8,0.9,2.5,0.9
	c0.8,0,1.3-0.3,1.3-0.8c0-0.6-0.6-0.8-1.6-1.3c-1.5-0.7-2.4-1.4-2.4-2.5C274.3,197.7,275.5,196.6,277.4,196.6L277.4,196.6z
	 M284.3,198.5c2.2,0,3.1,1.6,2.8,3.8H283c0.2,1,1,1.5,2,1.5c0.5,0,1.1-0.1,1.5-0.3l0.2,1.3c-0.5,0.3-1.4,0.4-2.2,0.4
	c-1.7,0-3.3-1.1-3.3-3.4C281.3,199.7,282.7,198.5,284.3,198.5L284.3,198.5z M284.3,199.9c-0.7,0-1.2,0.6-1.3,1.3h2.4
	C285.4,200.4,285,199.9,284.3,199.9z M291.3,198.5c0.7,0,1.4,0.1,2,0.3l-0.3,1.3c-0.4-0.1-0.9-0.2-1.2-0.2c-1.1,0-1.9,0.5-1.9,1.9
	c0,1.3,0.8,1.9,1.8,1.9c0.4,0,1-0.1,1.4-0.2l0.2,1.3c-0.5,0.3-1.4,0.4-2.1,0.4c-1.7,0-3.2-0.9-3.2-3.4
	C288.1,199.5,289.6,198.5,291.3,198.5L291.3,198.5z M298.4,198.7h1.8v6.4h-1.5l-0.1-0.7c-0.6,0.6-1.3,0.9-2,0.9c-1.4,0-2-0.9-2-2.6
	v-4h1.8v3.9c0,0.9,0.4,1.2,0.8,1.2c0.3,0,0.8-0.2,1.3-0.6L298.4,198.7L298.4,198.7z M304.6,198.5c2.2,0,3.1,1.6,2.8,3.8h-4.1
	c0.2,1,1,1.5,2,1.5c0.5,0,1.1-0.1,1.5-0.3l0.2,1.3c-0.5,0.3-1.4,0.4-2.2,0.4c-1.7,0-3.3-1.1-3.3-3.4
	C301.5,199.7,302.9,198.5,304.6,198.5L304.6,198.5z M304.6,199.9c-0.7,0-1.2,0.6-1.3,1.3h2.4C305.7,200.4,305.3,199.9,304.6,199.9z
	 M312.6,198.5c1.5,0,2.2,0.9,2.2,2.6v4H313v-3.9c0-0.9-0.4-1.2-0.9-1.2c-0.4,0-0.9,0.2-1.5,0.6v4.5h-1.8v-6.4h1.5l0.2,0.8
	C311.1,198.9,311.8,198.5,312.6,198.5L312.6,198.5z M319.3,198.5c0.7,0,1.4,0.1,2,0.3l-0.3,1.3c-0.4-0.1-0.9-0.2-1.2-0.2
	c-1.1,0-1.9,0.5-1.9,1.9c0,1.3,0.8,1.9,1.8,1.9c0.4,0,1-0.1,1.4-0.2l0.2,1.3c-0.5,0.3-1.4,0.4-2.1,0.4c-1.7,0-3.2-0.9-3.2-3.4
	C316.1,199.5,317.6,198.5,319.3,198.5L319.3,198.5z M323.7,197.9c-0.6,0-1.1-0.5-1.1-1.1s0.5-1.1,1.1-1.1s1.1,0.5,1.1,1.1
	S324.3,197.9,323.7,197.9z M324.6,198.7v6.4h-1.8v-6.4H324.6z M329.3,198.5c2.5,0,2.4,1.6,2.4,2.8v3.7h-1.5l-0.1-0.6
	c-0.6,0.5-1.3,0.7-2,0.7c-1.1,0-2-0.6-2-1.9c0-1.5,1.8-2.1,3.9-2.2c0-0.9-0.1-1.2-0.9-1.2c-0.5,0-1.3,0.2-2.1,0.4l-0.3-1.4
	C327.6,198.7,328.5,198.5,329.3,198.5L329.3,198.5z M328.5,204c0.5,0,1-0.3,1.4-0.7v-1c-1.2,0.1-2.1,0.3-2.1,1.1
	C327.7,203.7,328,204,328.5,204L328.5,204z M335.5,198.5c0.6,0,1.4,0.1,2.1,0.3l-0.3,1.4c-0.5-0.2-1.2-0.4-1.8-0.4
	c-0.5,0-0.9,0.1-0.9,0.5c0,0.3,0.4,0.4,1,0.7c1.5,0.7,2.2,1.4,2.2,2.4c0,1.1-0.9,1.8-2.5,1.8c-0.7,0-1.5-0.2-2.4-0.5l0.3-1.4
	c0.6,0.3,1.5,0.5,2.1,0.5c0.5,0,0.8-0.1,0.8-0.5c0-0.3-0.3-0.5-1.2-0.9c-1.4-0.7-2-1.2-2-2.1C332.9,199.2,333.9,198.5,335.5,198.5
	L335.5,198.5z M346.4,196.1l1.8-0.3v9.2h-1.5l-0.1-0.6c-0.6,0.5-1.2,0.8-1.9,0.8c-1.4,0-2.6-1.2-2.6-3.3c0-2.3,1.4-3.4,3-3.4
	c0.4,0,0.9,0.1,1.4,0.3L346.4,196.1L346.4,196.1z M343.9,202c0,1.2,0.6,1.8,1.3,1.8c0.4,0,0.8-0.2,1.2-0.4v-3.2
	c-0.3-0.1-0.6-0.1-0.9-0.1C344.6,200,343.9,200.6,343.9,202L343.9,202z M352.6,198.5c2.2,0,3.1,1.6,2.8,3.8h-4.1c0.2,1,1,1.5,2,1.5
	c0.5,0,1.1-0.1,1.5-0.3l0.2,1.3c-0.5,0.3-1.4,0.4-2.2,0.4c-1.7,0-3.3-1.1-3.3-3.4C349.6,199.7,351,198.5,352.6,198.5L352.6,198.5z
	 M352.6,199.9c-0.7,0-1.2,0.6-1.3,1.3h2.4C353.7,200.4,353.3,199.9,352.6,199.9z M364,205.3c-2.9,0-4.2-1.8-4.2-4.3
	c0-2.7,1.7-4.3,4.3-4.3c0.8,0,1.7,0.1,2.4,0.4l-0.4,1.5c-0.5-0.2-1.2-0.3-1.8-0.3c-1.4,0-2.5,0.8-2.5,2.7c0,1.7,1,2.7,2.5,2.7
	c0.6,0,1.2-0.2,1.8-0.4l0.6,1.4C365.7,205.1,364.7,205.3,364,205.3L364,205.3z M370.5,198.5c2,0,3.2,1.5,3.2,3.4s-1.2,3.4-3.2,3.4
	s-3.2-1.4-3.2-3.4C367.3,200,368.5,198.5,370.5,198.5z M370.5,199.9c-0.8,0-1.3,0.7-1.3,2c0,1.2,0.5,2,1.3,2s1.4-0.7,1.4-2
	C371.8,200.7,371.3,199.9,370.5,199.9z M382.6,198.5c1.4,0,2.1,0.9,2.1,2.6v4h-1.8v-3.9c0-0.9-0.4-1.2-0.9-1.2
	c-0.4,0-0.8,0.2-1.3,0.6c0,0.2,0,0.3,0,0.5v4h-1.8v-3.9c0-0.9-0.4-1.2-0.9-1.2c-0.3,0-0.8,0.2-1.3,0.6v4.5H375v-6.4h1.5l0.1,0.7
	c0.6-0.6,1.3-0.9,2-0.9c0.9,0,1.5,0.4,1.8,1C381.1,198.9,381.8,198.5,382.6,198.5L382.6,198.5z M389.2,198.5c2.5,0,2.4,1.6,2.4,2.8
	v3.7H390l-0.1-0.6c-0.6,0.5-1.3,0.7-2,0.7c-1.1,0-2-0.6-2-1.9c0-1.5,1.8-2.1,3.9-2.2c0-0.9-0.1-1.2-0.9-1.2c-0.5,0-1.3,0.2-2.1,0.4
	l-0.3-1.4C387.5,198.7,388.4,198.5,389.2,198.5L389.2,198.5z M388.4,204c0.5,0,1-0.3,1.4-0.7v-1c-1.2,0.1-2.1,0.3-2.1,1.1
	C387.6,203.7,387.9,204,388.4,204z M397.1,198.5c1.5,0,2.2,0.9,2.2,2.6v4h-1.8v-3.9c0-0.9-0.4-1.2-0.9-1.2c-0.4,0-0.9,0.2-1.5,0.6
	v4.5h-1.8v-6.4h1.5l0.2,0.8C395.5,198.9,396.2,198.5,397.1,198.5L397.1,198.5z M404.9,196.1l1.8-0.3v9.2h-1.5l-0.1-0.6
	c-0.6,0.5-1.2,0.8-1.9,0.8c-1.4,0-2.6-1.2-2.6-3.3c0-2.3,1.4-3.4,3-3.4c0.4,0,0.9,0.1,1.4,0.3L404.9,196.1L404.9,196.1z M402.3,202
	c0,1.2,0.6,1.8,1.3,1.8c0.4,0,0.8-0.2,1.2-0.4v-3.2c-0.3-0.1-0.6-0.1-0.9-0.1C403.1,200,402.3,200.6,402.3,202L402.3,202z
	 M411.2,198.5c2,0,3.2,1.5,3.2,3.4s-1.2,3.4-3.2,3.4s-3.2-1.4-3.2-3.4C408,200,409.2,198.5,411.2,198.5z M411.2,199.9
	c-0.8,0-1.3,0.7-1.3,2c0,1.2,0.5,2,1.3,2s1.4-0.7,1.4-2C412.6,200.7,412,199.9,411.2,199.9z M417.8,198.5c0.6,0,1.4,0.1,2.1,0.3
	l-0.3,1.4c-0.5-0.2-1.2-0.4-1.8-0.4c-0.5,0-0.9,0.1-0.9,0.5c0,0.3,0.4,0.4,1,0.7c1.5,0.7,2.2,1.4,2.2,2.4c0,1.1-0.9,1.8-2.5,1.8
	c-0.7,0-1.5-0.2-2.4-0.5l0.3-1.4c0.6,0.3,1.5,0.5,2.1,0.5c0.5,0,0.8-0.1,0.8-0.5c0-0.3-0.3-0.5-1.2-0.9c-1.4-0.7-2-1.2-2-2.1
	C415.2,199.2,416.2,198.5,417.8,198.5L417.8,198.5z"/>
<path class="st0" d="M5.9,0h126.2c2.7,0,4.9,2.2,4.9,4.9v118.3c0,2.7-2.2,4.9-4.9,4.9H5.9c-2.7,0-4.9-2.2-4.9-4.9V4.9
	C1,2.2,3.2,0,5.9,0z"/>
<path class="st2" d="M24.4,67.6v1.5h-2.5v6.8H20v-6.8h-2.5v-1.5H24.4z M27.4,69.4c2.5,0,2.4,1.6,2.4,2.8v3.7h-1.5l-0.1-0.6
	c-0.6,0.5-1.3,0.7-2,0.7c-1.1,0-2-0.6-2-1.9c0-1.5,1.8-2.1,3.9-2.2c0-0.9-0.1-1.2-0.9-1.2c-0.5,0-1.3,0.2-2.1,0.4l-0.3-1.4
	C25.8,69.5,26.7,69.4,27.4,69.4z M26.6,74.8c0.5,0,1-0.3,1.4-0.7v-1c-1.2,0.1-2.1,0.3-2.1,1.1C25.8,74.6,26.1,74.8,26.6,74.8
	L26.6,74.8z M35.5,69.4l-0.1,1.8c-0.5,0-1.5,0.1-2.2,0.6V76h-1.8v-6.4H33l0.1,0.9C33.9,69.7,34.7,69.4,35.5,69.4L35.5,69.4z
	 M37.6,68.8c-0.6,0-1.1-0.5-1.1-1.1s0.5-1.1,1.1-1.1s1.1,0.5,1.1,1.1S38.2,68.8,37.6,68.8z M38.5,69.5v5.8c0,2.4-1.1,3.3-2.7,3.3
	l-0.3-1.2c0.8-0.2,1.1-0.7,1.1-2.1v-5.9C36.7,69.5,38.5,69.5,38.5,69.5z M43,69.4c2.2,0,3.1,1.6,2.8,3.8h-4.1c0.2,1,1,1.5,2,1.5
	c0.5,0,1.1-0.1,1.5-0.3l0.2,1.3c-0.5,0.3-1.4,0.4-2.2,0.4c-1.7,0-3.3-1.1-3.3-3.4C40,70.5,41.4,69.4,43,69.4L43,69.4z M43.1,70.7
	c-0.7,0-1.2,0.6-1.3,1.3h2.4C44.1,71.2,43.7,70.7,43.1,70.7z M50.9,74.5l0.2,1.3c-0.6,0.2-1.1,0.3-1.6,0.3c-1.5,0-2.1-0.9-2.1-2.9
	V71h-0.8v-1.4h0.8v-1.3l1.8-0.3v1.6H51V71h-1.8v2.3c0,1,0.2,1.4,0.8,1.4C50.3,74.6,50.6,74.6,50.9,74.5z M55.2,69.4
	c2.5,0,2.4,1.6,2.4,2.8v3.7h-1.5L56,75.3c-0.6,0.5-1.3,0.7-2,0.7c-1.1,0-2-0.6-2-1.9c0-1.5,1.8-2.1,3.9-2.2c0-0.9-0.1-1.2-0.9-1.2
	c-0.5,0-1.3,0.2-2.1,0.4l-0.3-1.4C53.6,69.5,54.5,69.4,55.2,69.4z M54.4,74.8c0.5,0,1-0.3,1.4-0.7v-1c-1.2,0.1-2.1,0.3-2.1,1.1
	C53.6,74.6,53.9,74.8,54.4,74.8L54.4,74.8z M66.5,67l1.8-0.3v9.2h-1.5l-0.1-0.6c-0.6,0.5-1.2,0.8-1.9,0.8c-1.4,0-2.6-1.2-2.6-3.3
	c0-2.3,1.4-3.4,3-3.4c0.4,0,0.9,0.1,1.4,0.3L66.5,67L66.5,67z M63.9,72.8c0,1.2,0.6,1.8,1.3,1.8c0.4,0,0.8-0.2,1.2-0.4V71
	c-0.3-0.1-0.6-0.1-0.9-0.1C64.7,70.8,63.9,71.4,63.9,72.8z M72.6,69.4c2.2,0,3.1,1.6,2.8,3.8h-4.1c0.2,1,1,1.5,2,1.5
	c0.5,0,1.1-0.1,1.5-0.3l0.2,1.3c-0.5,0.3-1.4,0.4-2.2,0.4c-1.7,0-3.3-1.1-3.3-3.4C69.6,70.5,71,69.4,72.6,69.4L72.6,69.4z
	 M72.7,70.7c-0.7,0-1.2,0.6-1.3,1.3h2.4C73.7,71.2,73.3,70.7,72.7,70.7z M83,69.4c0.7,0,1.4,0.1,2,0.3L84.6,71
	c-0.4-0.1-0.9-0.2-1.2-0.2c-1.1,0-1.9,0.5-1.9,1.9c0,1.3,0.8,1.9,1.8,1.9c0.4,0,1-0.1,1.4-0.2l0.2,1.3c-0.5,0.3-1.4,0.4-2.1,0.4
	c-1.7,0-3.2-0.9-3.2-3.4C79.7,70.3,81.2,69.4,83,69.4L83,69.4z M90.4,69.4l-0.1,1.8c-0.5,0-1.5,0.1-2.2,0.6V76h-1.8v-6.4h1.6
	l0.1,0.9C88.7,69.7,89.6,69.4,90.4,69.4L90.4,69.4z M95.8,66.3l-1.1,2.4h-1.5l0.7-2.4H95.8L95.8,66.3z M94,69.4
	c2.2,0,3.1,1.6,2.8,3.8h-4.1c0.2,1,1,1.5,2,1.5c0.5,0,1.1-0.1,1.5-0.3l0.2,1.3c-0.5,0.3-1.4,0.4-2.2,0.4c-1.7,0-3.3-1.1-3.3-3.4
	C91,70.5,92.4,69.4,94,69.4L94,69.4z M94,70.7c-0.7,0-1.2,0.6-1.3,1.3h2.4C95.1,71.2,94.7,70.7,94,70.7z M102.1,67l1.8-0.3v9.2h-1.5
	l-0.1-0.6c-0.6,0.5-1.2,0.8-1.9,0.8c-1.4,0-2.6-1.2-2.6-3.3c0-2.3,1.4-3.4,3-3.4c0.4,0,0.9,0.1,1.4,0.3L102.1,67L102.1,67z
	 M99.6,72.8c0,1.2,0.6,1.8,1.3,1.8c0.4,0,0.8-0.2,1.2-0.4V71c-0.3-0.1-0.6-0.1-0.9-0.1C100.3,70.8,99.6,71.4,99.6,72.8z M106.7,68.8
	c-0.6,0-1.1-0.5-1.1-1.1s0.5-1.1,1.1-1.1s1.1,0.5,1.1,1.1S107.3,68.8,106.7,68.8z M107.6,69.5v6.4h-1.8v-6.4H107.6z M113.1,74.5
	l0.2,1.3c-0.6,0.2-1.1,0.3-1.6,0.3c-1.5,0-2.1-0.9-2.1-2.9V71h-0.8v-1.4h0.8v-1.3l1.8-0.3v1.6h1.8V71h-1.8v2.3c0,1,0.2,1.4,0.8,1.4
	C112.5,74.6,112.8,74.6,113.1,74.5z M117.2,69.4c2,0,3.2,1.5,3.2,3.4s-1.2,3.4-3.2,3.4s-3.2-1.4-3.2-3.4S115.2,69.4,117.2,69.4z
	 M117.2,70.8c-0.8,0-1.3,0.7-1.3,2c0,1.2,0.5,2,1.3,2s1.4-0.7,1.4-2S118,70.8,117.2,70.8z M52.4,82.4h1.8v8.3h-1.3l-3.8-4.9v4.9
	h-1.8v-8.3h1.2l3.8,4.9C52.4,87.3,52.4,82.4,52.4,82.4z M58.8,84.1c2,0,3.2,1.5,3.2,3.4s-1.2,3.4-3.2,3.4s-3.2-1.4-3.2-3.4
	C55.6,85.6,56.8,84.1,58.8,84.1z M58.8,85.5c-0.8,0-1.3,0.7-1.3,2c0,1.2,0.5,2,1.3,2s1.4-0.7,1.4-2C60.1,86.3,59.6,85.5,58.8,85.5z
	 M67.4,84.1L67.3,86c-0.5,0-1.5,0.1-2.2,0.6v4.2h-1.8v-6.4h1.6l0.1,0.9C65.7,84.5,66.6,84.1,67.4,84.1L67.4,84.1z M76.1,84.1
	c1.4,0,2.1,0.9,2.1,2.6v4h-1.8v-3.9c0-0.9-0.4-1.2-0.9-1.2c-0.4,0-0.8,0.2-1.3,0.6c0,0.2,0,0.3,0,0.5v4h-1.8v-3.9
	c0-0.9-0.4-1.2-0.9-1.2c-0.3,0-0.8,0.2-1.3,0.6v4.5h-1.8v-6.4H70l0.1,0.7c0.6-0.6,1.3-0.9,2-0.9c0.9,0,1.5,0.4,1.8,1
	C74.6,84.5,75.3,84.1,76.1,84.1L76.1,84.1z M82.6,84.1c2.5,0,2.4,1.6,2.4,2.8v3.7h-1.5L83.4,90c-0.6,0.5-1.3,0.7-2,0.7
	c-1.1,0-2-0.6-2-1.9c0-1.5,1.8-2.1,3.9-2.2c0-0.9-0.1-1.2-0.9-1.2c-0.5,0-1.3,0.2-2.1,0.4L80,84.5C81,84.3,81.9,84.1,82.6,84.1z
	 M81.8,89.6c0.5,0,1-0.3,1.4-0.7v-1C82,88,81.1,88.2,81.1,89C81.1,89.4,81.4,89.6,81.8,89.6L81.8,89.6z M88.8,84.1
	c0.6,0,1.4,0.1,2.1,0.3l-0.3,1.4c-0.5-0.2-1.2-0.4-1.8-0.4c-0.5,0-0.9,0.1-0.9,0.5c0,0.3,0.4,0.4,1,0.7c1.5,0.7,2.2,1.4,2.2,2.4
	c0,1.1-0.9,1.8-2.5,1.8c-0.7,0-1.5-0.2-2.4-0.5l0.3-1.4c0.6,0.3,1.5,0.5,2.1,0.5c0.5,0,0.8-0.1,0.8-0.5c0-0.3-0.3-0.5-1.2-0.9
	c-1.4-0.7-2-1.2-2-2.1C86.3,84.8,87.2,84.1,88.8,84.1L88.8,84.1z"/>
<path class="st2" d="M44.3,109.2v0.6h-1.1v1.7h-0.7v-1.7h-2.9l-0.1-0.4l3.1-4.3h0.6v4.1C43.3,109.2,44.3,109.2,44.3,109.2z
	 M40.5,109.2h2.1v-3L40.5,109.2z M47,107.6c1.3,0,2,0.8,2,1.9c0,1.2-0.8,2-2.2,2c-0.6,0-1.2-0.1-1.6-0.3l0.1-0.6
	c0.5,0.2,1,0.3,1.5,0.3c0.9,0,1.5-0.4,1.5-1.4c0-0.8-0.5-1.4-1.4-1.4c-0.4,0-0.7,0.1-1.1,0.2l-0.3-0.3l0.2-3.1h3v0.6h-2.4l-0.2,2
	C46.4,107.6,46.7,107.6,47,107.6L47,107.6z M57.4,111.4l-0.7-1.9H54l-0.7,1.9h-0.7L55,105h0.9l2.3,6.4H57.4L57.4,111.4z M55.4,105.7
	l-1.2,3.2h2.3L55.4,105.7L55.4,105.7z M60.8,106.4c0.5,0,1.1,0.1,1.5,0.3l-0.2,0.5c-0.4-0.2-0.9-0.3-1.3-0.3c-0.9,0-1.6,0.5-1.6,1.9
	c0,1.3,0.7,2.1,1.6,2.1c0.4,0,1-0.1,1.4-0.3l0.1,0.6c-0.3,0.2-1,0.3-1.6,0.3c-1.4,0-2.2-1-2.2-2.6C58.6,107.1,59.6,106.4,60.8,106.4
	L60.8,106.4z M65.9,110.8l0.1,0.6c-0.4,0.1-0.8,0.2-1.1,0.2c-1.1,0-1.3-0.8-1.3-2.2v-2.3h-0.7v-0.6h0.7v-1.1l0.7-0.1v1.2h1.6v0.6
	h-1.6v2.3c0,1.2,0.2,1.6,0.7,1.6C65.2,110.9,65.5,110.9,65.9,110.8L65.9,110.8z M67.6,105.8c-0.3,0-0.5-0.2-0.5-0.5s0.2-0.5,0.5-0.5
	s0.5,0.2,0.5,0.5C68,105.6,67.8,105.8,67.6,105.8z M67.9,106.5v4.9h-0.7v-4.9H67.9z M72.5,106.5h0.7l-1.6,4.9h-0.9l-1.6-4.9h0.7
	l1.4,4.3L72.5,106.5z M76.1,106.4c1.4,0,2.3,1,2.3,2.6c0,1.5-0.9,2.6-2.3,2.6s-2.3-1-2.3-2.6S74.7,106.4,76.1,106.4z M76.1,107
	c-1,0-1.6,0.8-1.6,2s0.6,2,1.6,2c0.9,0,1.6-0.8,1.6-2S77,107,76.1,107z M82.9,111.4h-0.7l1.9-7.4h0.7L82.9,111.4L82.9,111.4z
	 M91.7,108.2c0.7,0.3,1.2,0.8,1.2,1.6c0,1.1-1.1,1.7-2.1,1.7c-1.1,0-2.1-0.6-2.1-1.8c0-0.7,0.4-1.3,1.2-1.7c-0.6-0.3-1-0.8-1-1.5
	c0-1,0.8-1.6,1.9-1.6s1.9,0.7,1.9,1.6C92.7,107.3,92.2,107.9,91.7,108.2L91.7,108.2z M90.8,105.5c-0.7,0-1.2,0.4-1.2,1
	c0,0.7,0.7,1,1.5,1.4l0,0c0.4-0.3,0.9-0.7,0.9-1.3C92,105.9,91.5,105.5,90.8,105.5z M90.8,110.9c0.7,0,1.3-0.4,1.3-1.1
	s-0.7-1-1.5-1.4c-0.1,0-0.1-0.1-0.2-0.1c-0.7,0.3-1.1,0.7-1.1,1.3C89.4,110.5,90.1,110.9,90.8,110.9L90.8,110.9z M98.6,109.2v0.6
	h-1.1v1.7h-0.7v-1.7h-2.9l-0.1-0.4l3.1-4.3h0.6v4.1C97.5,109.2,98.6,109.2,98.6,109.2z M94.7,109.2h2.1v-3L94.7,109.2z"/>
<path class="st0" d="M151.9,0h126.2c2.7,0,4.9,2.2,4.9,4.9v118.3c0,2.7-2.2,4.9-4.9,4.9H151.9c-2.7,0-4.9-2.2-4.9-4.9V4.9
	C146.9,2.2,149.1,0,151.9,0z"/>
<path class="st1" d="M300.8,0H427c2.7,0,4.9,2.2,4.9,4.9v118.3c0,2.7-2.2,4.9-4.9,4.9H300.8c-2.7,0-4.9-2.2-4.9-4.9V4.9
	C295.8,2.2,298,0,300.8,0z"/>
<path class="st0" d="M449.7,0h126.2c2.7,0,4.9,2.2,4.9,4.9v118.3c0,2.7-2.2,4.9-4.9,4.9H449.7c-2.7,0-4.9-2.2-4.9-4.9V4.9
	C444.7,2.2,446.9,0,449.7,0z"/>
<path class="st2" d="M189.1,71.4c0.9,0.5,1.3,1.2,1.3,2.1c0,1.3-1,2.4-2.8,2.4H184v-8.3h3.2c1.7,0,2.7,1,2.7,2.2
	C189.9,70.5,189.7,71,189.1,71.4L189.1,71.4z M188,70c0-0.5-0.3-0.9-0.9-0.9h-1.3v1.8h1.3C187.7,70.9,188,70.4,188,70L188,70z
	 M187.5,74.4c0.7,0,1.1-0.5,1.1-1s-0.4-1.1-1.1-1.1h-1.7v2.1H187.5z M194.6,69.4c2.5,0,2.4,1.6,2.4,2.8v3.7h-1.5l-0.1-0.6
	c-0.6,0.5-1.3,0.7-2,0.7c-1.1,0-2-0.6-2-1.9c0-1.5,1.8-2.1,3.9-2.2c0-0.9-0.1-1.2-0.9-1.2c-0.5,0-1.3,0.2-2.1,0.4l-0.3-1.4
	C192.9,69.5,193.8,69.4,194.6,69.4L194.6,69.4z M193.7,74.8c0.5,0,1-0.3,1.4-0.7v-1c-1.2,0.1-2.1,0.3-2.1,1.1
	C193,74.6,193.3,74.8,193.7,74.8z M202.4,69.4c1.5,0,2.2,0.9,2.2,2.6v4h-1.8v-4c0-0.9-0.4-1.2-0.9-1.2c-0.4,0-0.9,0.2-1.5,0.6v4.5
	h-1.8v-6.4h1.5l0.2,0.8C200.9,69.7,201.6,69.4,202.4,69.4L202.4,69.4z M209.1,69.4c0.7,0,1.4,0.1,2,0.3l-0.3,1.3
	c-0.4-0.1-0.9-0.2-1.2-0.2c-1.1,0-1.9,0.5-1.9,1.9c0,1.3,0.8,1.9,1.8,1.9c0.4,0,1-0.1,1.4-0.2l0.2,1.3c-0.5,0.3-1.4,0.4-2.1,0.4
	c-1.7,0-3.2-0.9-3.2-3.4C205.9,70.3,207.4,69.4,209.1,69.4L209.1,69.4z M215.1,69.4c2,0,3.2,1.5,3.2,3.4s-1.2,3.4-3.2,3.4
	s-3.2-1.4-3.2-3.4C211.9,70.8,213.1,69.4,215.1,69.4z M215.1,70.8c-0.8,0-1.3,0.7-1.3,2c0,1.2,0.5,2,1.3,2s1.4-0.7,1.4-2
	S215.9,70.8,215.1,70.8z M228.2,75.9l-0.6-1.9h-2.9l-0.6,1.9h-1.8l2.8-8.3h2.1l2.8,8.3H228.2L228.2,75.9z M227.1,72.5l-0.9-3.1
	l-0.9,3.1H227.1L227.1,72.5z M234.8,76.1c-2.9,0-4.2-1.8-4.2-4.3c0-2.7,1.7-4.3,4.3-4.3c0.8,0,1.7,0.1,2.4,0.4l-0.4,1.5
	c-0.5-0.2-1.2-0.3-1.8-0.3c-1.4,0-2.5,0.8-2.5,2.7c0,1.7,1,2.7,2.5,2.7c0.6,0,1.2-0.2,1.8-0.4l0.6,1.4
	C236.5,76,235.5,76.1,234.8,76.1L234.8,76.1z M244.1,67.6h1.9v8.3h-1.9v-3.5h-3.4v3.5h-1.9v-8.3h1.9v3.3h3.4V67.6z M198.3,82.4h1.8
	v8.3h-1.3l-3.8-4.9v4.9h-1.8v-8.3h1.2l3.8,4.9v-4.9H198.3z M204.7,84.1c2,0,3.2,1.5,3.2,3.4s-1.2,3.4-3.2,3.4s-3.2-1.4-3.2-3.4
	C201.5,85.6,202.7,84.1,204.7,84.1z M204.7,85.5c-0.8,0-1.3,0.7-1.3,2c0,1.2,0.5,2,1.3,2s1.4-0.7,1.4-2
	C206.1,86.3,205.5,85.5,204.7,85.5z M213.3,84.1l-0.1,1.8c-0.5,0-1.5,0.1-2.2,0.6v4.2h-1.8v-6.4h1.6l0.1,0.9
	C211.7,84.5,212.6,84.1,213.3,84.1L213.3,84.1z M222,84.1c1.4,0,2.1,0.9,2.1,2.6v4h-1.8v-3.9c0-0.9-0.4-1.2-0.9-1.2
	c-0.4,0-0.8,0.2-1.3,0.6c0,0.2,0,0.3,0,0.5v4h-1.8v-3.9c0-0.9-0.4-1.2-0.9-1.2c-0.3,0-0.8,0.2-1.3,0.6v4.5h-1.8v-6.4h1.5l0.1,0.7
	c0.6-0.6,1.3-0.9,2-0.9c0.9,0,1.5,0.4,1.8,1C220.5,84.5,221.2,84.1,222,84.1L222,84.1z M228.6,84.1c2.5,0,2.4,1.6,2.4,2.8v3.7h-1.5
	l-0.1-0.6c-0.6,0.5-1.3,0.7-2,0.7c-1.1,0-2-0.6-2-1.9c0-1.5,1.8-2.1,3.9-2.2c0-0.9-0.1-1.2-0.9-1.2c-0.5,0-1.3,0.2-2.1,0.4l-0.3-1.4
	C226.9,84.3,227.9,84.1,228.6,84.1L228.6,84.1z M227.8,89.6c0.5,0,1-0.3,1.4-0.7v-1C228,88,227,88.2,227,89
	C227,89.4,227.3,89.6,227.8,89.6z M234.8,84.1c0.6,0,1.4,0.1,2.1,0.3l-0.3,1.4c-0.5-0.2-1.2-0.4-1.8-0.4c-0.5,0-0.9,0.1-0.9,0.5
	c0,0.3,0.4,0.4,1,0.7c1.5,0.7,2.2,1.4,2.2,2.4c0,1.1-0.9,1.8-2.5,1.8c-0.7,0-1.5-0.2-2.4-0.5l0.3-1.4c0.6,0.3,1.5,0.5,2.1,0.5
	c0.5,0,0.8-0.1,0.8-0.5c0-0.3-0.3-0.5-1.2-0.9c-1.4-0.7-2-1.2-2-2.1C232.2,84.8,233.2,84.1,234.8,84.1L234.8,84.1z"/>
<path class="st2" d="M188.5,107.9c0.9,0.3,1.3,1,1.3,1.8c0,1-0.6,1.8-2.2,1.8c-0.7,0-1.2-0.2-1.7-0.3l0.1-0.6c0.5,0.2,1,0.3,1.6,0.3
	c0.8,0,1.5-0.4,1.5-1.2c0-0.8-0.8-1.4-2.1-1.4v-0.6c1.2,0,1.9-0.6,1.9-1.3c0-0.5-0.2-0.8-1.1-0.8c-0.6,0-1.1,0.1-1.4,0.2l-0.1-0.6
	c0.4-0.1,1.1-0.2,1.6-0.2c1.1,0,1.7,0.5,1.7,1.4C189.6,107.1,189.1,107.6,188.5,107.9L188.5,107.9z M192,110.8h3v0.6h-4l-0.1-0.4
	c1-1,1.9-2.1,2.5-2.9c0.4-0.6,0.7-1.1,0.7-1.5c0-0.7-0.4-1-1.1-1c-0.7,0-1.3,0.1-2,0.4l-0.1-0.6c0.8-0.3,1.5-0.4,2.2-0.4
	c1.1,0,1.7,0.7,1.7,1.6c0,0.6-0.3,1.2-0.7,1.8C193.5,109.1,192.8,109.9,192,110.8L192,110.8z M203.3,111.4l-0.7-1.9h-2.7l-0.7,1.9
	h-0.7l2.3-6.4h0.9l2.3,6.4H203.3L203.3,111.4z M201.3,105.7l-1.2,3.2h2.3L201.3,105.7L201.3,105.7z M206.7,106.4
	c0.5,0,1.1,0.1,1.5,0.3l-0.2,0.5c-0.4-0.2-0.9-0.3-1.3-0.3c-0.9,0-1.6,0.5-1.6,1.9c0,1.3,0.7,2.1,1.6,2.1c0.4,0,1-0.1,1.4-0.3
	l0.1,0.6c-0.3,0.2-1,0.3-1.6,0.3c-1.4,0-2.2-1-2.2-2.6C204.4,107.1,205.5,106.4,206.7,106.4L206.7,106.4z M211.7,110.8l0.1,0.6
	c-0.4,0.1-0.8,0.2-1.1,0.2c-1.1,0-1.3-0.8-1.3-2.2v-2.3h-0.7v-0.6h0.7v-1.1l0.7-0.1v1.2h1.6v0.6h-1.6v2.3c0,1.2,0.2,1.6,0.7,1.6
	C211.1,110.9,211.4,110.9,211.7,110.8L211.7,110.8z M213.4,105.8c-0.3,0-0.5-0.2-0.5-0.5s0.2-0.5,0.5-0.5s0.5,0.2,0.5,0.5
	C213.9,105.6,213.7,105.8,213.4,105.8z M213.8,106.5v4.9h-0.7v-4.9H213.8z M218.4,106.5h0.7l-1.6,4.9h-0.9l-1.6-4.9h0.7l1.4,4.3
	L218.4,106.5L218.4,106.5z M221.9,106.4c1.4,0,2.3,1,2.3,2.6c0,1.5-0.9,2.6-2.3,2.6s-2.3-1-2.3-2.6S220.5,106.4,221.9,106.4z
	 M221.9,107c-1,0-1.6,0.8-1.6,2s0.6,2,1.6,2c0.9,0,1.6-0.8,1.6-2S222.9,107,221.9,107z M228.8,111.4h-0.7l1.9-7.4h0.7L228.8,111.4
	L228.8,111.4z M239.2,109.2v0.6h-1.1v1.7h-0.7v-1.7h-2.9l-0.1-0.4l3.1-4.3h0.6v4.1C238.1,109.2,239.2,109.2,239.2,109.2z
	 M235.3,109.2h2.1v-3L235.3,109.2z M241.9,107.6c1.3,0,2,0.8,2,1.9c0,1.2-0.8,2-2.2,2c-0.6,0-1.2-0.1-1.6-0.3l0.1-0.6
	c0.5,0.2,1,0.3,1.5,0.3c0.9,0,1.5-0.4,1.5-1.4c0-0.8-0.5-1.4-1.4-1.4c-0.4,0-0.7,0.1-1.1,0.2l-0.3-0.3l0.2-3.1h3v0.6h-2.4l-0.2,2
	C241.2,107.6,241.5,107.6,241.9,107.6L241.9,107.6z"/>
<path class="st0" d="M326.6,76.1c-2.9,0-4.2-1.8-4.2-4.3c0-2.7,1.7-4.3,4.3-4.3c0.8,0,1.7,0.1,2.4,0.4l-0.4,1.5
	c-0.5-0.2-1.2-0.3-1.8-0.3c-1.4,0-2.5,0.8-2.5,2.7c0,1.7,1,2.7,2.5,2.7c0.6,0,1.2-0.2,1.8-0.4l0.6,1.4
	C328.3,76,327.3,76.1,326.6,76.1L326.6,76.1z M334.6,69.4l-0.1,1.8c-0.5,0-1.5,0.1-2.2,0.6V76h-1.8v-6.4h1.6l0.1,0.9
	C333,69.7,333.8,69.4,334.6,69.4L334.6,69.4z M336.7,68.8c-0.6,0-1.1-0.5-1.1-1.1s0.5-1.1,1.1-1.1s1.1,0.5,1.1,1.1
	S337.3,68.8,336.7,68.8z M337.6,69.5v6.4h-1.8v-6.4H337.6z M343,69.4c1.4,0,2.6,1.2,2.6,3.3c0,2.3-1.5,3.4-3,3.4
	c-0.4,0-0.9-0.1-1.4-0.3v2.6l-1.8,0.2v-9.1h1.5l0.1,0.6C341.7,69.6,342.3,69.4,343,69.4L343,69.4z M342.2,74.6c0.9,0,1.7-0.6,1.7-2
	c0-1.2-0.6-1.8-1.3-1.8c-0.4,0-0.8,0.2-1.2,0.4v3.2C341.6,74.6,341.9,74.6,342.2,74.6z M350.7,74.5l0.2,1.3
	c-0.6,0.2-1.1,0.3-1.6,0.3c-1.5,0-2.1-0.9-2.1-2.9V71h-0.8v-1.4h0.8v-1.3L349,68v1.6h1.8V71H349v2.3c0,1,0.2,1.4,0.8,1.4
	C350,74.6,350.3,74.6,350.7,74.5L350.7,74.5z M354.8,69.4c2,0,3.2,1.5,3.2,3.4s-1.2,3.4-3.2,3.4s-3.2-1.4-3.2-3.4
	C351.6,70.8,352.8,69.4,354.8,69.4z M354.8,70.8c-0.8,0-1.3,0.7-1.3,2c0,1.2,0.5,2,1.3,2s1.4-0.7,1.4-2
	C356.1,71.5,355.6,70.8,354.8,70.8z M366.9,69.4c1.4,0,2.1,0.9,2.1,2.6v4h-1.8v-4c0-0.9-0.4-1.2-0.9-1.2c-0.4,0-0.8,0.2-1.3,0.6
	c0,0.2,0,0.3,0,0.5v4h-1.8V72c0-0.9-0.4-1.2-0.9-1.2c-0.3,0-0.8,0.2-1.3,0.6v4.5h-1.8v-6.4h1.5l0.1,0.7c0.6-0.6,1.3-0.9,2-0.9
	c0.9,0,1.5,0.4,1.8,1C365.4,69.7,366.1,69.4,366.9,69.4L366.9,69.4z M373.4,69.4c2,0,3.2,1.5,3.2,3.4s-1.2,3.4-3.2,3.4
	s-3.2-1.4-3.2-3.4C370.2,70.8,371.4,69.4,373.4,69.4z M373.4,70.8c-0.8,0-1.3,0.7-1.3,2c0,1.2,0.5,2,1.3,2s1.4-0.7,1.4-2
	S374.2,70.8,373.4,70.8z M381.8,69.4c1.5,0,2.2,0.9,2.2,2.6v4h-1.8v-4c0-0.9-0.4-1.2-0.9-1.2c-0.4,0-0.9,0.2-1.5,0.6v4.5H378v-6.4
	h1.5l0.2,0.8C380.3,69.7,381,69.4,381.8,69.4L381.8,69.4z M388.3,69.4c2.2,0,3.1,1.6,2.8,3.8H387c0.2,1,1,1.5,2,1.5
	c0.5,0,1.1-0.1,1.5-0.3l0.2,1.3c-0.5,0.3-1.4,0.4-2.2,0.4c-1.7,0-3.3-1.1-3.3-3.4C385.2,70.5,386.6,69.4,388.3,69.4L388.3,69.4z
	 M388.3,70.7c-0.7,0-1.2,0.6-1.3,1.3h2.4C389.4,71.2,389,70.7,388.3,70.7z M396.4,67l1.8-0.3v9.2h-1.5l-0.1-0.6
	c-0.6,0.5-1.2,0.8-1.9,0.8c-1.4,0-2.6-1.2-2.6-3.3c0-2.3,1.4-3.4,3-3.4c0.4,0,0.9,0.1,1.4,0.3L396.4,67L396.4,67z M393.9,72.8
	c0,1.2,0.6,1.8,1.3,1.8c0.4,0,0.8-0.2,1.2-0.4V71c-0.3-0.1-0.6-0.1-0.9-0.1C394.6,70.8,393.9,71.4,393.9,72.8z M402.8,69.4
	c2.5,0,2.4,1.6,2.4,2.8v3.7h-1.5l-0.1-0.6c-0.6,0.5-1.3,0.7-2,0.7c-1.1,0-2-0.6-2-1.9c0-1.5,1.8-2.1,3.9-2.2c0-0.9-0.1-1.2-0.9-1.2
	c-0.5,0-1.3,0.2-2.1,0.4l-0.3-1.4C401.2,69.5,402.1,69.4,402.8,69.4L402.8,69.4z M402,74.8c0.5,0,1-0.3,1.4-0.7v-1
	c-1.2,0.1-2.1,0.3-2.1,1.1C401.2,74.6,401.5,74.8,402,74.8L402,74.8z M347.2,82.4h1.8v8.3h-1.3l-3.8-4.9v4.9h-1.8v-8.3h1.2l3.8,4.9
	C347.2,87.3,347.2,82.4,347.2,82.4z M353.6,84.1c2,0,3.2,1.5,3.2,3.4s-1.2,3.4-3.2,3.4s-3.2-1.4-3.2-3.4
	C350.4,85.6,351.6,84.1,353.6,84.1z M353.6,85.5c-0.8,0-1.3,0.7-1.3,2c0,1.2,0.5,2,1.3,2s1.4-0.7,1.4-2
	C355,86.3,354.4,85.5,353.6,85.5z M362.2,84.1l-0.1,1.8c-0.5,0-1.5,0.1-2.2,0.6v4.2h-1.8v-6.4h1.6l0.1,0.9
	C360.6,84.5,361.5,84.1,362.2,84.1z M370.9,84.1c1.4,0,2.1,0.9,2.1,2.6v4h-1.8v-3.9c0-0.9-0.4-1.2-0.9-1.2c-0.4,0-0.8,0.2-1.3,0.6
	c0,0.2,0,0.3,0,0.5v4h-1.8v-3.9c0-0.9-0.4-1.2-0.9-1.2c-0.3,0-0.8,0.2-1.3,0.6v4.5h-1.8v-6.4h1.5L365,85c0.6-0.6,1.3-0.9,2-0.9
	c0.9,0,1.5,0.4,1.8,1C369.4,84.5,370.1,84.1,370.9,84.1L370.9,84.1z M377.5,84.1c2.5,0,2.4,1.6,2.4,2.8v3.7h-1.5l-0.1-0.6
	c-0.6,0.5-1.3,0.7-2,0.7c-1.1,0-2-0.6-2-1.9c0-1.5,1.8-2.1,3.9-2.2c0-0.9-0.1-1.2-0.9-1.2c-0.5,0-1.3,0.2-2.1,0.4l-0.3-1.4
	C375.8,84.3,376.8,84.1,377.5,84.1L377.5,84.1z M376.7,89.6c0.5,0,1-0.3,1.4-0.7v-1c-1.2,0.1-2.1,0.3-2.1,1.1
	C375.9,89.4,376.2,89.6,376.7,89.6L376.7,89.6z M383.7,84.1c0.6,0,1.4,0.1,2.1,0.3l-0.3,1.4c-0.5-0.2-1.2-0.4-1.8-0.4
	c-0.5,0-0.9,0.1-0.9,0.5c0,0.3,0.4,0.4,1,0.7c1.5,0.7,2.2,1.4,2.2,2.4c0,1.1-0.9,1.8-2.5,1.8c-0.7,0-1.5-0.2-2.4-0.5l0.3-1.4
	c0.6,0.3,1.5,0.5,2.1,0.5c0.5,0,0.8-0.1,0.8-0.5c0-0.3-0.3-0.5-1.2-0.9c-1.4-0.7-2-1.2-2-2.1C381.1,84.8,382.1,84.1,383.7,84.1
	L383.7,84.1z"/>
<path class="st0" d="M337.4,107.9c0.9,0.3,1.3,1,1.3,1.8c0,1-0.6,1.8-2.2,1.8c-0.7,0-1.2-0.2-1.7-0.3l0.1-0.6c0.5,0.2,1,0.3,1.6,0.3
	c0.8,0,1.5-0.4,1.5-1.2c0-0.8-0.8-1.4-2.1-1.4v-0.6c1.2,0,1.9-0.6,1.9-1.3c0-0.5-0.2-0.8-1.1-0.8c-0.6,0-1.1,0.1-1.4,0.2l-0.1-0.6
	c0.4-0.1,1.1-0.2,1.6-0.2c1.1,0,1.7,0.5,1.7,1.4C338.6,107.1,338.1,107.6,337.4,107.9L337.4,107.9z M342.7,108.2
	c0.7,0.3,1.2,0.8,1.2,1.6c0,1.1-1.1,1.7-2.1,1.7c-1.1,0-2.1-0.6-2.1-1.8c0-0.7,0.4-1.3,1.2-1.7c-0.6-0.3-1-0.8-1-1.5
	c0-1,0.8-1.6,1.9-1.6s1.9,0.7,1.9,1.6C343.7,107.3,343.3,107.9,342.7,108.2L342.7,108.2z M341.9,105.5c-0.7,0-1.2,0.4-1.2,1
	c0,0.7,0.7,1,1.5,1.4l0,0c0.4-0.3,0.9-0.7,0.9-1.3C343,105.9,342.5,105.5,341.9,105.5L341.9,105.5z M341.9,110.9
	c0.7,0,1.3-0.4,1.3-1.1s-0.7-1-1.5-1.4c-0.1,0-0.1-0.1-0.2-0.1c-0.7,0.3-1.1,0.7-1.1,1.3C340.4,110.5,341.2,110.9,341.9,110.9
	L341.9,110.9z M352.3,111.4l-0.7-1.9h-2.7l-0.7,1.9h-0.7l2.3-6.4h0.9l2.3,6.4H352.3L352.3,111.4z M350.3,105.7l-1.2,3.2h2.3
	L350.3,105.7z M355.8,106.4c0.5,0,1.1,0.1,1.5,0.3l-0.2,0.5c-0.4-0.2-0.9-0.3-1.3-0.3c-0.9,0-1.6,0.5-1.6,1.9c0,1.3,0.7,2.1,1.6,2.1
	c0.4,0,1-0.1,1.4-0.3l0.1,0.6c-0.3,0.2-1,0.3-1.6,0.3c-1.4,0-2.2-1-2.2-2.6C353.5,107.1,354.5,106.4,355.8,106.4L355.8,106.4z
	 M360.8,110.8l0.1,0.6c-0.4,0.1-0.8,0.2-1.1,0.2c-1.1,0-1.3-0.8-1.3-2.2v-2.3h-0.7v-0.6h0.7v-1.1l0.7-0.1v1.2h1.6v0.6h-1.6v2.3
	c0,1.2,0.2,1.6,0.7,1.6C360.2,110.9,360.4,110.9,360.8,110.8L360.8,110.8z M362.5,105.8c-0.3,0-0.5-0.2-0.5-0.5s0.2-0.5,0.5-0.5
	s0.5,0.2,0.5,0.5C363,105.6,362.7,105.8,362.5,105.8z M362.8,106.5v4.9h-0.7v-4.9H362.8z M367.5,106.5h0.7l-1.6,4.9h-0.9l-1.6-4.9
	h0.7l1.4,4.3L367.5,106.5L367.5,106.5z M371,106.4c1.4,0,2.3,1,2.3,2.6c0,1.5-0.9,2.6-2.3,2.6s-2.3-1-2.3-2.6S369.6,106.4,371,106.4
	z M371,107c-1,0-1.6,0.8-1.6,2s0.6,2,1.6,2c0.9,0,1.6-0.8,1.6-2S371.9,107,371,107z M377.8,111.4h-0.7l1.9-7.4h0.7L377.8,111.4z
	 M385.5,107.6c1.3,0,2,0.8,2,1.9c0,1.2-0.8,2-2.2,2c-0.6,0-1.2-0.1-1.6-0.3l0.1-0.6c0.5,0.2,1,0.3,1.5,0.3c0.9,0,1.5-0.4,1.5-1.4
	c0-0.8-0.5-1.4-1.4-1.4c-0.4,0-0.7,0.1-1.1,0.2L384,108l0.2-3.1h3v0.6h-2.4l-0.2,2C384.9,107.6,385.1,107.6,385.5,107.6L385.5,107.6
	z M389.8,110.8h3v0.6h-4l-0.1-0.4c1-1,1.9-2.1,2.5-2.9c0.4-0.6,0.7-1.1,0.7-1.5c0-0.7-0.4-1-1.1-1s-1.3,0.1-2,0.4l-0.1-0.6
	c0.8-0.3,1.5-0.4,2.2-0.4c1.1,0,1.7,0.7,1.7,1.6c0,0.6-0.3,1.2-0.7,1.8C391.3,109.1,390.6,109.9,389.8,110.8L389.8,110.8z"/>
<path class="st2" d="M454.4,75.9l-1.8-2.7h-1v2.7h-1.9v-8.3h3.2c1.9,0,2.9,1.4,2.9,2.8c0,1-0.4,1.9-1.5,2.4l2,3.1H454.4L454.4,75.9z
	 M451.6,69.1v2.7h1.2c0.8,0,1.2-0.7,1.2-1.3c0-0.7-0.4-1.3-1.2-1.3C452.8,69.1,451.6,69.1,451.6,69.1z M460,69.4
	c2.2,0,3.1,1.6,2.8,3.8h-4.1c0.2,1,1,1.5,2,1.5c0.5,0,1.1-0.1,1.5-0.3l0.2,1.3c-0.5,0.3-1.4,0.4-2.2,0.4c-1.7,0-3.3-1.1-3.3-3.4
	C457,70.5,458.4,69.4,460,69.4L460,69.4z M460.1,70.7c-0.7,0-1.2,0.6-1.3,1.3h2.4C461.1,71.2,460.7,70.7,460.1,70.7z M470.7,69.5
	v1.4h-1c0.1,0.2,0.1,0.5,0.1,0.8c0,1.4-1.1,2.3-2.8,2.3c-0.5,0-0.9-0.1-1.3-0.2c-0.1,0.1-0.2,0.2-0.2,0.3c0,0.3,0.5,0.4,1.3,0.5
	c1.4,0.2,3.4,0.6,3.4,2.1c0,1.4-1.6,2.2-3.2,2.2c-1.7,0-3.3-0.7-3.3-2c0-0.4,0.2-1,0.9-1.4c-0.4-0.2-0.7-0.5-0.7-1
	c0-0.4,0.2-0.8,0.7-1.3c-0.4-0.4-0.6-0.9-0.6-1.5c0-1.4,1.2-2.4,2.9-2.4c0.4,0,0.8,0.1,1.1,0.2H470.7L470.7,69.5z M467.1,72.8
	c0.7,0,1.2-0.4,1.2-1c0-0.7-0.5-1.1-1.2-1.1s-1.2,0.4-1.2,1C465.9,72.4,466.4,72.8,467.1,72.8L467.1,72.8z M468.5,76.8
	c0-0.5-0.8-0.7-1.8-0.8c-0.1,0-0.3,0-0.4-0.1c-0.4,0.3-0.6,0.6-0.6,0.8c0,0.6,0.7,0.9,1.5,0.9C467.8,77.7,468.5,77.4,468.5,76.8
	L468.5,76.8z M473.5,66.7v9.2h-1.8v-9L473.5,66.7z M478,69.4c2.5,0,2.4,1.6,2.4,2.8v3.7h-1.5l-0.1-0.6c-0.6,0.5-1.3,0.7-2,0.7
	c-1.1,0-2-0.6-2-1.9c0-1.5,1.8-2.1,3.9-2.2c0-0.9-0.1-1.2-0.9-1.2c-0.5,0-1.3,0.2-2.1,0.4l-0.3-1.4C476.4,69.5,477.3,69.4,478,69.4
	L478,69.4z M477.2,74.8c0.5,0,1-0.3,1.4-0.7v-1c-1.2,0.1-2.1,0.3-2.1,1.1C476.5,74.6,476.8,74.8,477.2,74.8z M484.2,69.4
	c0.6,0,1.4,0.1,2.1,0.3l-0.3,1.4c-0.5-0.2-1.2-0.4-1.8-0.4c-0.5,0-0.9,0.1-0.9,0.5c0,0.3,0.4,0.4,1,0.7c1.5,0.7,2.2,1.4,2.2,2.4
	c0,1.1-0.9,1.8-2.5,1.8c-0.7,0-1.5-0.2-2.4-0.5l0.3-1.4c0.6,0.3,1.5,0.5,2.1,0.5c0.5,0,0.8-0.1,0.8-0.5c0-0.3-0.3-0.5-1.2-0.9
	c-1.4-0.7-2-1.2-2-2.1C481.7,70,482.6,69.4,484.2,69.4L484.2,69.4z M495.2,67l1.8-0.3v9.2h-1.5l-0.1-0.6c-0.6,0.5-1.2,0.8-1.9,0.8
	c-1.4,0-2.6-1.2-2.6-3.3c0-2.3,1.4-3.4,3-3.4c0.4,0,0.9,0.1,1.4,0.3L495.2,67L495.2,67z M492.6,72.8c0,1.2,0.6,1.8,1.3,1.8
	c0.4,0,0.8-0.2,1.2-0.4V71c-0.3-0.1-0.6-0.1-0.9-0.1C493.4,70.8,492.6,71.4,492.6,72.8z M501.4,69.4c2.2,0,3.1,1.6,2.8,3.8h-4.1
	c0.2,1,1,1.5,2,1.5c0.5,0,1.1-0.1,1.5-0.3l0.2,1.3c-0.5,0.3-1.4,0.4-2.2,0.4c-1.7,0-3.3-1.1-3.3-3.4
	C498.3,70.5,499.7,69.4,501.4,69.4L501.4,69.4z M501.4,70.7c-0.7,0-1.2,0.6-1.3,1.3h2.4C502.5,71.2,502.1,70.7,501.4,70.7z
	 M507.4,66.7v9.2h-1.8v-9L507.4,66.7z M515.4,67.6c2,0,3,1.4,3,2.9s-1,2.9-3,2.9h-1.1v2.5h-1.9v-8.3H515.4L515.4,67.6z M515.3,71.9
	c0.8,0,1.2-0.7,1.2-1.4c0-0.7-0.4-1.4-1.2-1.4h-1v2.8H515.3z M523.8,69.4l-0.1,1.8c-0.5,0-1.5,0.1-2.2,0.6V76h-1.8v-6.4h1.6l0.1,0.9
	C522.1,69.7,523,69.4,523.8,69.4L523.8,69.4z M527.5,69.4c2,0,3.2,1.5,3.2,3.4s-1.2,3.4-3.2,3.4s-3.2-1.4-3.2-3.4
	C524.4,70.8,525.6,69.4,527.5,69.4z M527.5,70.8c-0.8,0-1.3,0.7-1.3,2c0,1.2,0.5,2,1.3,2s1.4-0.7,1.4-2S528.4,70.8,527.5,70.8z
	 M534.9,69.4c0.7,0,1.4,0.1,2,0.3l-0.3,1.3c-0.4-0.1-0.9-0.2-1.2-0.2c-1.1,0-1.9,0.5-1.9,1.9c0,1.3,0.8,1.9,1.8,1.9
	c0.4,0,1-0.1,1.4-0.2l0.2,1.3c-0.5,0.3-1.4,0.4-2.1,0.4c-1.7,0-3.2-0.9-3.2-3.4C531.7,70.3,533.2,69.4,534.9,69.4L534.9,69.4z
	 M540.8,69.4c2.2,0,3.1,1.6,2.8,3.8h-4.1c0.2,1,1,1.5,2,1.5c0.5,0,1.1-0.1,1.5-0.3l0.2,1.3c-0.5,0.3-1.4,0.4-2.2,0.4
	c-1.7,0-3.3-1.1-3.3-3.4C537.7,70.5,539.1,69.4,540.8,69.4L540.8,69.4z M540.8,70.7c-0.7,0-1.2,0.6-1.3,1.3h2.4
	C541.8,71.2,541.4,70.7,540.8,70.7z M547,69.4c0.6,0,1.4,0.1,2.1,0.3l-0.3,1.4c-0.5-0.2-1.2-0.4-1.8-0.4c-0.5,0-0.9,0.1-0.9,0.5
	c0,0.3,0.4,0.4,1,0.7c1.5,0.7,2.2,1.4,2.2,2.4c0,1.1-0.9,1.8-2.5,1.8c-0.7,0-1.5-0.2-2.4-0.5l0.3-1.4c0.6,0.3,1.5,0.5,2.1,0.5
	c0.5,0,0.8-0.1,0.8-0.5c0-0.3-0.3-0.5-1.2-0.9c-1.4-0.7-2-1.2-2-2.1C544.4,70,545.4,69.4,547,69.4L547,69.4z M553.5,69.4
	c2.5,0,2.4,1.6,2.4,2.8v3.7h-1.5l-0.1-0.6c-0.6,0.5-1.3,0.7-2,0.7c-1.1,0-2-0.6-2-1.9c0-1.5,1.8-2.1,3.9-2.2c0-0.9-0.1-1.2-0.9-1.2
	c-0.5,0-1.3,0.2-2.1,0.4l-0.3-1.4C551.9,69.5,552.8,69.4,553.5,69.4z M552.7,74.8c0.5,0,1-0.3,1.4-0.7v-1c-1.2,0.1-2.1,0.3-2.1,1.1
	C551.9,74.6,552.3,74.8,552.7,74.8L552.7,74.8z M561.6,67l1.8-0.3v9.2h-1.5l-0.1-0.6c-0.6,0.5-1.2,0.8-1.9,0.8
	c-1.4,0-2.6-1.2-2.6-3.3c0-2.3,1.4-3.4,3-3.4c0.4,0,0.9,0.1,1.4,0.3L561.6,67L561.6,67z M559,72.8c0,1.2,0.6,1.8,1.3,1.8
	c0.4,0,0.8-0.2,1.2-0.4V71c-0.3-0.1-0.6-0.1-0.9-0.1C559.8,70.8,559,71.4,559,72.8z M567.9,69.4c2,0,3.2,1.5,3.2,3.4
	s-1.2,3.4-3.2,3.4s-3.2-1.4-3.2-3.4S565.9,69.4,567.9,69.4z M567.9,70.8c-0.8,0-1.3,0.7-1.3,2c0,1.2,0.5,2,1.3,2s1.4-0.7,1.4-2
	C569.2,71.5,568.7,70.8,567.9,70.8z M576.5,69.4l-0.1,1.8c-0.5,0-1.5,0.1-2.2,0.6V76h-1.8v-6.4h1.6l0.1,0.9
	C574.9,69.7,575.7,69.4,576.5,69.4L576.5,69.4z M491.6,81.7l1.8-0.3v9.2h-1.5l-0.1-0.6c-0.6,0.5-1.2,0.8-1.9,0.8
	c-1.4,0-2.6-1.2-2.6-3.3c0-2.3,1.4-3.4,3-3.4c0.4,0,0.9,0.1,1.4,0.3L491.6,81.7L491.6,81.7z M489,87.6c0,1.2,0.6,1.8,1.3,1.8
	c0.4,0,0.8-0.2,1.2-0.4v-3.2c-0.3-0.1-0.6-0.1-0.9-0.1C489.7,85.6,489,86.2,489,87.6z M497.7,84.1c2.2,0,3.1,1.6,2.8,3.8h-4.1
	c0.2,1,1,1.5,2,1.5c0.5,0,1.1-0.1,1.5-0.3l0.2,1.3c-0.5,0.3-1.4,0.4-2.2,0.4c-1.7,0-3.3-1.1-3.3-3.4
	C494.7,85.3,496.1,84.1,497.7,84.1L497.7,84.1z M497.7,85.5c-0.7,0-1.2,0.6-1.3,1.3h2.4C498.8,86,498.4,85.5,497.7,85.5z
	 M508.2,82.4c2,0,3,1.4,3,2.9s-1,2.9-3,2.9h-1.1v2.5h-1.9v-8.3H508.2L508.2,82.4z M508.1,86.6c0.8,0,1.2-0.7,1.2-1.4
	c0-0.7-0.4-1.4-1.2-1.4h-1v2.8H508.1z M515.1,84.1c2.5,0,2.4,1.6,2.4,2.8v3.7H516l-0.1-0.6c-0.6,0.5-1.3,0.7-2,0.7
	c-1.1,0-2-0.6-2-1.9c0-1.5,1.8-2.1,3.9-2.2c0-0.9-0.1-1.2-0.9-1.2c-0.5,0-1.3,0.2-2.1,0.4l-0.3-1.4
	C513.5,84.3,514.4,84.1,515.1,84.1L515.1,84.1z M514.3,89.6c0.5,0,1-0.3,1.4-0.7v-1c-1.2,0.1-2.1,0.3-2.1,1.1
	C513.5,89.4,513.8,89.6,514.3,89.6L514.3,89.6z M525.7,84.3v1.4h-1c0.1,0.2,0.1,0.5,0.1,0.8c0,1.4-1.1,2.3-2.8,2.3
	c-0.5,0-0.9-0.1-1.3-0.2c-0.1,0.1-0.2,0.2-0.2,0.3c0,0.3,0.5,0.4,1.3,0.5c1.4,0.2,3.4,0.6,3.4,2.1c0,1.4-1.6,2.2-3.2,2.2
	c-1.7,0-3.3-0.7-3.3-2c0-0.4,0.2-1,0.9-1.4c-0.4-0.2-0.7-0.5-0.7-1c0-0.4,0.2-0.8,0.7-1.3c-0.4-0.4-0.6-0.9-0.6-1.5
	c0-1.4,1.2-2.4,2.9-2.4c0.4,0,0.8,0.1,1.1,0.2H525.7L525.7,84.3z M522,87.5c0.7,0,1.2-0.4,1.2-1c0-0.7-0.5-1.1-1.2-1.1
	s-1.2,0.4-1.2,1C520.8,87.1,521.3,87.5,522,87.5L522,87.5z M523.4,91.6c0-0.5-0.8-0.7-1.8-0.8c-0.1,0-0.3,0-0.4-0.1
	c-0.4,0.3-0.6,0.6-0.6,0.8c0,0.6,0.7,0.9,1.5,0.9C522.8,92.5,523.4,92.2,523.4,91.6L523.4,91.6z M529.5,84.1c2,0,3.2,1.5,3.2,3.4
	s-1.2,3.4-3.2,3.4s-3.2-1.4-3.2-3.4C526.3,85.6,527.5,84.1,529.5,84.1z M529.5,85.5c-0.8,0-1.3,0.7-1.3,2c0,1.2,0.5,2,1.3,2
	s1.4-0.7,1.4-2C530.8,86.3,530.3,85.5,529.5,85.5z M536,84.1c0.6,0,1.4,0.1,2.1,0.3l-0.3,1.4c-0.5-0.2-1.2-0.4-1.8-0.4
	c-0.5,0-0.9,0.1-0.9,0.5c0,0.3,0.4,0.4,1,0.7c1.5,0.7,2.2,1.4,2.2,2.4c0,1.1-0.9,1.8-2.5,1.8c-0.7,0-1.5-0.2-2.4-0.5l0.3-1.4
	c0.6,0.3,1.5,0.5,2.1,0.5c0.5,0,0.8-0.1,0.8-0.5c0-0.3-0.3-0.5-1.2-0.9c-1.4-0.7-2-1.2-2-2.1C533.5,84.8,534.4,84.1,536,84.1
	L536,84.1z"/>
<path class="st2" d="M486.9,105v6.4h-0.7v-5.7l-1.8,0.6l-0.2-0.6l2.3-0.8L486.9,105L486.9,105z M492.9,109.2v0.6h-1.1v1.7h-0.7v-1.7
	h-2.9l-0.1-0.4l3.1-4.3h0.6v4.1C491.8,109.2,492.9,109.2,492.9,109.2z M489,109.2h2.1v-3L489,109.2z M501,111.4l-0.7-1.9h-2.7
	l-0.7,1.9h-0.7l2.3-6.4h0.9l2.3,6.4H501L501,111.4z M499,105.7l-1.2,3.2h2.3L499,105.7L499,105.7z M504.4,106.4
	c0.5,0,1.1,0.1,1.5,0.3l-0.2,0.5c-0.4-0.2-0.9-0.3-1.3-0.3c-0.9,0-1.6,0.5-1.6,1.9c0,1.3,0.7,2.1,1.6,2.1c0.4,0,1-0.1,1.4-0.3
	l0.1,0.6c-0.3,0.2-1,0.3-1.6,0.3c-1.4,0-2.2-1-2.2-2.6C502.1,107.1,503.2,106.4,504.4,106.4L504.4,106.4z M509.4,110.8l0.1,0.6
	c-0.4,0.1-0.8,0.2-1.1,0.2c-1.1,0-1.3-0.8-1.3-2.2v-2.3h-0.7v-0.6h0.7v-1.1l0.7-0.1v1.2h1.6v0.6h-1.6v2.3c0,1.2,0.2,1.6,0.7,1.6
	C508.8,110.9,509.1,110.9,509.4,110.8z M511.1,105.8c-0.3,0-0.5-0.2-0.5-0.5s0.2-0.5,0.5-0.5s0.5,0.2,0.5,0.5
	C511.6,105.6,511.4,105.8,511.1,105.8z M511.5,106.5v4.9h-0.7v-4.9H511.5z M516.1,106.5h0.7l-1.6,4.9h-0.9l-1.6-4.9h0.7l1.4,4.3
	L516.1,106.5L516.1,106.5z M519.6,106.4c1.4,0,2.3,1,2.3,2.6c0,1.5-0.9,2.6-2.3,2.6s-2.3-1-2.3-2.6S518.2,106.4,519.6,106.4z
	 M519.6,107c-1,0-1.6,0.8-1.6,2s0.6,2,1.6,2c0.9,0,1.6-0.8,1.6-2S520.6,107,519.6,107z M526.5,111.4h-0.7l1.9-7.4h0.7L526.5,111.4z
	 M533.5,110.8h3v0.6h-4l-0.1-0.4c1-1,1.9-2.1,2.5-2.9c0.4-0.6,0.7-1.1,0.7-1.5c0-0.7-0.4-1-1.1-1c-0.7,0-1.3,0.1-2,0.4l-0.1-0.6
	c0.8-0.3,1.5-0.4,2.2-0.4c1.1,0,1.7,0.7,1.7,1.6c0,0.6-0.3,1.2-0.7,1.8C535,109.1,534.3,109.9,533.5,110.8L533.5,110.8z M541.2,105
	l0.1,0.3l-2.6,6.1H538l2.4-5.8h-3V105H541.2z"/>
<g>
	<g>
		<defs>
			<rect id="SVGID_1_" x="50.3" y="10.8" width="37.5" height="40.4"/>
		</defs>
		<clipPath id="SVGID_00000080184942690350684790000000598734848738836354_">
			<use xlink:href="#SVGID_1_"  style="overflow:visible;"/>
		</clipPath>
		<g style="clip-path:url(#SVGID_00000080184942690350684790000000598734848738836354_);">
			<path class="st1" d="M86.7,29.8L69.3,11.9c-0.7-0.7-1.6-1.1-2.5-1.1s-1.8,0.4-2.5,1.1l-9.6,9.8c-1.4,1.4-1.4,3.7,0,5.2l1.6,1.7
				H60L56.6,25c-0.2-0.2-0.3-0.6-0.3-0.7s0-0.4,0.3-0.7l1.3-1.3l6,6.2h5.8l-8.9-9.1l5.4-5.6c0.2-0.2,0.5-0.3,0.7-0.3
				c0.1,0,0.4,0,0.7,0.3L85,31.7c0.2,0.2,0.3,0.5,0.3,0.7c0,0.1-0.1,0.4-0.3,0.7l-1,1v3.7l2.8-2.9C88.1,33.5,88.1,31.2,86.7,29.8
				L86.7,29.8z"/>
			<path class="st1" d="M78.6,30.2H53.9c-1.9,0-3.6,1.6-3.6,3.6v9.6H82v-9.6C82,31.8,80.5,30.2,78.6,30.2L78.6,30.2z"/>
			<path class="st1" d="M50.3,47.7c0,2,1.7,3.6,3.6,3.6h24.7c1.9,0,3.5-1.6,3.5-3.6v-0.2H50.3V47.7L50.3,47.7z"/>
		</g>
	</g>
</g>
<g>
	<g>
		<defs>
			<rect id="SVGID_00000135662226045580477560000001886470476217096373_" x="492.1" y="10.8" width="41.4" height="41.4"/>
		</defs>
		<clipPath id="SVGID_00000155838281932036774600000012038068842097961601_">
			<use xlink:href="#SVGID_00000135662226045580477560000001886470476217096373_"  style="overflow:visible;"/>
		</clipPath>
		<g style="clip-path:url(#SVGID_00000155838281932036774600000012038068842097961601_);">
			<path class="st5" d="M511.8,51.3c1.6,0,2.8-1.3,2.8-2.8c0-1.6-1.3-2.8-2.8-2.8c-1.6,0-2.8,1.3-2.8,2.8
				C509,50.1,510.3,51.3,511.8,51.3L511.8,51.3z"/>
			<path class="st5" d="M513.7,17.4c1.6,0,2.8-1.3,2.8-2.8c0-1.6-1.3-2.8-2.8-2.8c-1.6,0-2.8,1.3-2.8,2.8
				C510.9,16.2,512.2,17.4,513.7,17.4z"/>
			<path class="st5" d="M529.7,35.3c1.6,0,2.8-1.3,2.8-2.8c0-1.6-1.3-2.8-2.8-2.8c-1.6,0-2.8,1.3-2.8,2.8
				C526.9,34.1,528.2,35.3,529.7,35.3z"/>
			<path class="st5" d="M495.8,33.4c1.6,0,2.8-1.3,2.8-2.8c0-1.6-1.3-2.8-2.8-2.8c-1.6,0-2.8,1.3-2.8,2.8
				C493,32.2,494.3,33.4,495.8,33.4z"/>
			<path class="st5" d="M505.2,11.8l2.8,2.8l-2.8,2.8"/>
			<path class="st5" d="M508.1,14.6h-3.8c-4.7,0-8.5,3.8-8.5,8.5v2.8"/>
			<path class="st5" d="M520.3,51.3l-2.8-2.8l2.8-2.8"/>
			<path class="st5" d="M517.5,48.5h3.8c4.7,0,8.5-3.8,8.5-8.5v-2.8"/>
			<path class="st5" d="M532.5,24l-2.8,2.8l-2.8-2.8"/>
			<path class="st5" d="M529.7,26.8V23c0-4.7-3.8-8.5-8.5-8.5h-2.8"/>
			<path class="st5" d="M493,39.1l2.8-2.8l2.8,2.8"/>
			<path class="st5" d="M495.8,36.3V40c0,4.7,3.8,8.5,8.5,8.5h2.8"/>
			<path class="st1" d="M523.6,31.6c0,6-4.8,10.8-10.8,10.8S502,37.5,502,31.6s4.8-10.8,10.8-10.8S523.6,25.6,523.6,31.6z
				 M517.7,34.1c0-2.9-2.5-3.5-4.4-4c-1.4-0.3-2.5-0.6-2.5-1.5c0-0.8,0.9-1.1,1.8-1.1c1,0,1.9,0.5,1.9,1.6h2.8c0-2.2-1.3-3.7-3.5-4
				v-1.2h-2.2V25c-2.2,0.3-3.6,1.6-3.6,3.7c0,2.8,2.4,3.3,4.3,3.8c1.4,0.3,2.5,0.6,2.5,1.6c0,0.9-1,1.4-2.1,1.4
				c-1.1,0-2.1-0.6-2.1-1.8h-2.8c0,2.4,1.5,3.9,3.9,4.3v1.3h2.2V38C516.1,37.7,517.7,36.4,517.7,34.1L517.7,34.1z"/>
		</g>
	</g>
</g>
<path class="st0" d="M4.9,236.7h571c2.7,0,4.9,2.2,4.9,4.9v23.7c0,2.7-2.2,4.9-4.9,4.9H4.9c-2.7,0-4.9-2.2-4.9-4.9v-23.7
	C0,238.9,2.2,236.7,4.9,236.7z"/>
<path class="st6" d="M13.7,250v8.3h-1.9V250H13.7z M20.6,250h1.8v8.3h-1.3l-3.8-4.9v4.9h-1.8V250h1.2l3.8,4.9V250H20.6z M28.3,253.5
	h3.4v3.3c-0.7,1.1-1.8,1.7-3.5,1.7c-2.8,0-4.3-1.8-4.3-4.3c0-2.8,1.7-4.3,4.4-4.3c0.8,0,1.9,0.1,2.6,0.4l-0.4,1.5
	c-0.6-0.2-1.3-0.3-2-0.3c-1.5,0-2.6,0.8-2.6,2.7c0,1.8,1,2.7,2.4,2.7c0.7,0,1.3-0.2,1.7-0.7V255h-1.6L28.3,253.5L28.3,253.5z
	 M37.9,258.4l-1.8-2.7h-1v2.7h-1.9V250h3.2c1.9,0,2.9,1.4,2.9,2.8c0,1-0.4,1.9-1.5,2.4l2,3.1h-1.9V258.4z M35.1,251.5v2.7h1.2
	c0.8,0,1.2-0.7,1.2-1.3c0-0.7-0.4-1.3-1.2-1.3L35.1,251.5L35.1,251.5z M43.1,256.8h3.8v1.5h-5.6V250h5.6v1.5h-3.7v1.9h3.3v1.5h-3.3
	L43.1,256.8L43.1,256.8z M51.2,249.9c0.8,0,1.6,0.1,2.5,0.5l-0.4,1.5c-0.8-0.3-1.5-0.5-2.1-0.5c-0.8,0-1.2,0.4-1.2,0.8
	c0,0.4,0.4,0.7,1.3,1.1c1.7,0.7,2.7,1.5,2.7,2.9c0,1.5-1.3,2.3-3.1,2.3c-1,0-2-0.3-3.1-0.9l0.4-1.5c1.1,0.6,1.8,0.9,2.5,0.9
	c0.8,0,1.3-0.3,1.3-0.8c0-0.6-0.6-0.8-1.6-1.3c-1.5-0.7-2.4-1.4-2.4-2.5C48.2,250.9,49.4,249.9,51.2,249.9L51.2,249.9z M57.5,256.8
	h3.8v1.5h-5.6V250h5.6v1.5h-3.7v1.9h3.3v1.5h-3.3L57.5,256.8L57.5,256.8z M67.9,256.8h3.8v1.5h-5.6V250h5.6v1.5H68v1.9h3.3v1.5H68
	v1.9H67.9z M75.1,256.8h3.7v1.5h-5.6V250h1.9V256.8L75.1,256.8z M88.4,250h1.8v8.3H89l-3.8-4.9v4.9h-1.8V250h1.2l3.8,4.9L88.4,250
	L88.4,250z M95.9,249.9c2.5,0,4.2,1.8,4.2,4.3c0,2.5-1.7,4.3-4.2,4.3s-4.2-1.8-4.2-4.3S93.4,249.9,95.9,249.9L95.9,249.9z
	 M95.9,251.5c-1.4,0-2.3,1.1-2.3,2.7c0,1.6,0.9,2.7,2.3,2.7s2.3-1.1,2.3-2.7C98.2,252.6,97.3,251.5,95.9,251.5z M110.6,258.4h-1.7
	l-0.4-5.2l-1.6,5.2h-1.7l-1.6-5.2l-0.4,5.2h-1.7l0.7-8.3h2.2l1.8,5.7l1.8-5.7h2.2L110.6,258.4L110.6,258.4z M117.4,253.9
	c0.9,0.5,1.3,1.2,1.3,2.1c0,1.3-1,2.4-2.8,2.4h-3.7V250h3.2c1.7,0,2.7,1,2.7,2.2C118.2,252.9,117.9,253.4,117.4,253.9L117.4,253.9z
	 M116.3,252.4c0-0.5-0.3-0.9-0.9-0.9h-1.3v1.8h1.3C116,253.3,116.3,252.9,116.3,252.4z M115.8,256.9c0.7,0,1.1-0.5,1.1-1
	s-0.4-1.1-1.1-1.1h-1.7v2.1H115.8z M124.7,258.4l-1.8-2.7h-1v2.7H120V250h3.2c1.9,0,2.9,1.4,2.9,2.8c0,1-0.4,1.9-1.5,2.4l2,3.1h-1.9
	V258.4z M122,251.5v2.7h1.2c0.8,0,1.2-0.7,1.2-1.3c0-0.7-0.4-1.3-1.2-1.3L122,251.5L122,251.5z M130,256.8h3.8v1.5h-5.6V250h5.6v1.5
	H130v1.9h3.3v1.5H130V256.8L130,256.8z M141.9,250c2.8,0,4.3,2.1,4.3,4.2s-1.4,4.2-4.3,4.2h-3.3V250H141.9L141.9,250z M141.9,256.8
	c1.6,0,2.3-1.3,2.3-2.6s-0.8-2.6-2.3-2.6h-1.4v5.3L141.9,256.8L141.9,256.8z M149.4,256.8h3.8v1.5h-5.6V250h5.6v1.5h-3.7v1.9h3.3
	v1.5h-3.3v1.9H149.4z M159.9,256.8h3.7v1.5H158V250h1.9V256.8L159.9,256.8z M170.1,258.4l-0.6-1.9h-2.9l-0.6,1.9h-1.8l2.8-8.3h2.1
	l2.8,8.3H170.1L170.1,258.4z M169,254.9l-0.9-3.1l-0.9,3.1H169L169,254.9z M181,258.4l-1.8-2.7h-1v2.7h-1.9V250h3.2
	c1.9,0,2.9,1.4,2.9,2.8c0,1-0.4,1.9-1.5,2.4l2,3.1H181V258.4z M178.3,251.5v2.7h1.2c0.8,0,1.2-0.7,1.2-1.3c0-0.7-0.4-1.3-1.2-1.3
	L178.3,251.5L178.3,251.5z M186.3,256.8h3.8v1.5h-5.6V250h5.6v1.5h-3.7v1.9h3.3v1.5h-3.3v1.9H186.3z M195.6,253.5h3.4v3.3
	c-0.7,1.1-1.8,1.7-3.5,1.7c-2.8,0-4.3-1.8-4.3-4.3c0-2.8,1.7-4.3,4.4-4.3c0.8,0,1.9,0.1,2.6,0.4l-0.4,1.5c-0.6-0.2-1.3-0.3-2-0.3
	c-1.5,0-2.6,0.8-2.6,2.7c0,1.8,1,2.7,2.4,2.7c0.7,0,1.3-0.2,1.7-0.7V255h-1.6L195.6,253.5L195.6,253.5z M202.5,256.8h3.7v1.5h-5.6
	V250h1.9L202.5,256.8L202.5,256.8z M212.7,258.4l-0.6-1.9h-2.9l-0.6,1.9h-1.8l2.8-8.3h2.1l2.8,8.3H212.7L212.7,258.4z M211.6,254.9
	l-0.9-3.1l-0.9,3.1H211.6L211.6,254.9z"/>
<path class="st0" d="M4.9,282h571c2.7,0,4.9,2.2,4.9,4.9V350c0,2.7-2.2,4.9-4.9,4.9H4.9c-2.7,0-4.9-2.2-4.9-4.9v-63
	C0,284.2,2.2,282,4.9,282z"/>
<path class="st6" d="M16.4,303.7l-1.8-2.7h-1v2.7h-1.9v-8.3H15c1.9,0,2.9,1.4,2.9,2.8c0,1-0.4,1.9-1.5,2.4l2,3.1H16.4L16.4,303.7z
	 M13.7,296.9v2.7h1.2c0.8,0,1.2-0.7,1.2-1.3c0-0.7-0.4-1.3-1.2-1.3h-1.2V296.9z M21.7,302.2h3.8v1.5h-5.6v-8.3h5.6v1.5h-3.7v1.9H25
	v1.5h-3.3V302.2L21.7,302.2z M31,298.9h3.4v3.3c-0.7,1.1-1.8,1.7-3.5,1.7c-2.8,0-4.3-1.8-4.3-4.3c0-2.8,1.7-4.3,4.4-4.3
	c0.8,0,1.9,0.1,2.6,0.4l-0.4,1.5c-0.6-0.2-1.3-0.3-2-0.3c-1.5,0-2.6,0.8-2.6,2.7c0,1.8,1,2.7,2.4,2.7c0.7,0,1.3-0.2,1.7-0.7v-1.3H31
	V298.9L31,298.9z M37.8,302.2h3.7v1.5H36v-8.3h1.9L37.8,302.2L37.8,302.2z M48.1,303.7l-0.6-1.9h-2.9l-0.6,1.9h-1.8l2.8-8.3h2.1
	l2.8,8.3C49.9,303.7,48.1,303.7,48.1,303.7z M47,300.3l-0.9-3.1l-0.9,3.1H47L47,300.3z M57.7,295.4c2.8,0,4.3,2.1,4.3,4.2
	s-1.4,4.2-4.3,4.2h-3.3v-8.3L57.7,295.4L57.7,295.4z M57.7,302.2c1.6,0,2.3-1.3,2.3-2.6c0-1.3-0.8-2.6-2.3-2.6h-1.4v5.3L57.7,302.2
	L57.7,302.2z M65.2,302.2H69v1.5h-5.6v-8.3H69v1.5h-3.7v1.9h3.3v1.5h-3.3v1.9H65.2z M72.4,302.2h3.7v1.5h-5.6v-8.3h1.9V302.2
	L72.4,302.2z M84.7,298.9h3.4v3.3c-0.7,1.1-1.8,1.7-3.5,1.7c-2.8,0-4.3-1.8-4.3-4.3c0-2.8,1.7-4.3,4.4-4.3c0.8,0,1.9,0.1,2.6,0.4
	l-0.4,1.5c-0.6-0.2-1.3-0.3-2-0.3c-1.5,0-2.6,0.8-2.6,2.7c0,1.8,1,2.7,2.4,2.7c0.7,0,1.3-0.2,1.7-0.7v-1.3h-1.6L84.7,298.9
	L84.7,298.9z M96.5,295.4v4.2c0,2.5-0.8,4.3-3.5,4.3c-2.6,0-3.4-1.7-3.4-4.3v-4.2h1.9v4.3c0,1.9,0.6,2.6,1.6,2.6s1.6-0.7,1.6-2.6
	v-4.3H96.5z M100.3,295.4v8.3h-1.9v-8.3H100.3z M106.5,292.4h2l-1.8,2.2h-1.5L106.5,292.4z M106,295.2c2.5,0,4.2,1.8,4.2,4.3
	s-1.7,4.3-4.2,4.3s-4.2-1.8-4.2-4.3S103.5,295.2,106,295.2z M106,296.9c-1.4,0-2.3,1.1-2.3,2.7s0.9,2.7,2.3,2.7s2.3-1.1,2.3-2.7
	C108.3,297.9,107.4,296.9,106,296.9z M116.8,295.4h1.8v8.3h-1.3l-3.8-4.9v4.9h-1.8v-8.3h1.2l3.8,4.9
	C116.8,300.3,116.8,295.4,116.8,295.4z"/>
<g>
	<g>
		<defs>
			<rect id="SVGID_00000139981237794815780780000014248836582888778387_" x="189.4" y="8.3" width="51.2" height="45.6"/>
		</defs>
		<clipPath id="SVGID_00000015353396391690387090000000040443811098935431_">
			<use xlink:href="#SVGID_00000139981237794815780780000014248836582888778387_"  style="overflow:visible;"/>
		</clipPath>
		<g style="clip-path:url(#SVGID_00000015353396391690387090000000040443811098935431_);">
			<path class="st1" d="M213.5,8.3c2,0.9,4,1.9,6.1,2.8c4.7,2.1,9.5,4.2,14.2,6.2c0.6,0.3,0.9,0.6,0.9,1.3c-0.1,1.5,0,2.9,0,4.5
				h-42.5c0-1.4,0.1-2.7,0-4.1c-0.1-1,0.3-1.4,1.1-1.8c6.5-2.8,12.9-5.6,19.3-8.5C212.9,8.6,213.1,8.4,213.5,8.3L213.5,8.3
				L213.5,8.3z"/>
			<path class="st1" d="M237.5,53.2c-0.4,0.6-0.9,0.7-1.5,0.7c-15,0-30.1,0-45.1,0c-0.6,0-1.3,0.1-1.4-0.6c-0.1-0.7,0-1.4,0.1-2.1
				c0-0.2,0.5-0.3,0.8-0.4c0.2-0.1,0.4,0,0.6,0c15,0,29.9,0,44.9,0c0.7,0,1.2,0.2,1.7,0.7C237.5,51.4,237.5,53.2,237.5,53.2z"/>
			<path class="st1" d="M196.6,26.8c-0.2,0-0.4,0-0.6-0.1c-0.6-0.2-0.9-0.6-0.8-1.2c0.1-0.6,0.4-1,1-1c2.3,0,4.6,0,7,0
				c0.6,0,1,0.4,1,1.1s-0.4,1.1-1.4,1.2v16.1l0.1,0.1c0.8,0,1.4,0.3,1.3,1.2c0,0.7-0.5,1.1-1.5,1.1c-1.9,0-3.9,0-5.8,0
				c-0.8,0-1.5,0-1.7-1c-0.1-0.8,0.3-1.2,1.4-1.4V26.8L196.6,26.8L196.6,26.8z"/>
			<path class="st1" d="M210.3,43V26.8c-0.2,0-0.4,0-0.6-0.1c-0.6-0.2-0.9-0.6-0.9-1.2c0.1-0.6,0.4-1,1-1c2.3,0,4.6,0,6.9,0
				c0.6,0,1,0.4,1,1c0.1,0.6-0.2,1.1-0.8,1.2c-0.2,0.1-0.4,0.1-0.6,0.1V43c0.2,0,0.4,0,0.6,0.1c0.6,0.2,0.9,0.6,0.8,1.2
				c-0.1,0.6-0.4,1-1,1c-2.3,0-4.6,0-6.9,0c-0.6,0-1-0.5-1-1.1s0.3-1,0.9-1.2C210,43,210.1,43,210.3,43L210.3,43L210.3,43z"/>
			<path class="st1" d="M230.3,42.9c0.4,0.1,0.9,0.2,1.1,0.4c0.2,0.3,0.4,0.8,0.3,1.2c-0.1,0.3-0.6,0.8-1,0.8
				c-2.3,0.1-4.6,0.1-6.9,0c-0.6,0-1-0.4-1.1-1c0-0.7,0.3-1.1,1-1.2c0.1,0,0.3,0,0.5,0V26.8c-0.1,0-0.2,0-0.4-0.1
				c-0.7-0.1-1.1-0.5-1.1-1.2s0.5-1.1,1.2-1.1c2.1,0,4.2,0,6.3,0c1,0,1.5,0.3,1.5,1c0.1,0.8-0.4,1.2-1.4,1.3L230.3,42.9L230.3,42.9
				L230.3,42.9z"/>
			<path class="st1" d="M213.4,49.5c-6.6,0-13.1,0-19.7,0c-1.3,0-1.6-0.4-1.6-1.7c0-0.7,0.4-1.1,1.1-1.2c0.2,0,0.3,0,0.5,0h39.2
				c1.4,0,1.7,0.3,1.6,1.6c0,0.9-0.4,1.2-1.3,1.2c-1.5,0-3,0-4.5,0C223.6,49.5,218.5,49.5,213.4,49.5L213.4,49.5z"/>
			<path class="st0" d="M216.4,27.6l5.7,2.3h7.8l0.8,0.4l0.4,0.9l-0.1,2.5l0.8,0.4l0.4,0.6l-0.1,0.9l-0.8,1.7l-0.3,3.3l-0.1,1.8
				l-0.7,0.7L227,43h-10.9L216.4,27.6L216.4,27.6L216.4,27.6z"/>
			<path class="st8" d="M210.5,41.7c0-0.1,0-0.3,0-0.4c0.1-0.6,0-1.1-0.7-1.5c-0.8-0.4-1.1-1.4-0.7-2.3c0.4-1.1,0.9-2.1,1.3-3.2
				c0.1-0.2,0.1-0.5,0.2-0.8c0-1.1,0-2.2,0-3.3c0-1.3,0.7-2.1,2-2.1c0.3,0,0.4-0.1,0.4-0.3c0.3-0.6,0.5-1.3,0.8-1.9
				c0.5-1.2,1.5-1.6,2.7-1.1c2.6,1.1,5.2,2.2,7.9,3.2c0.3,0.1,0.6,0.2,0.9,0.2c2.8,0,5.6,0,8.4,0c1.4,0,2.2,0.7,2.2,2.2
				c0,0.6,0,1.3,0,1.9c0,0.2,0,0.4,0.3,0.5c1.2,0.5,1.6,1.5,1.1,2.7c-0.4,1-0.8,2-1.2,3c-0.1,0.3-0.2,0.5-0.2,0.8c0,1.1,0,2.2,0,3.3
				c0,1.3-0.7,2-2,2.1c-0.3,0-0.4,0.1-0.5,0.3c-0.2,0.6-0.5,1.2-0.7,1.8c-0.5,1.3-1.5,1.7-2.8,1.2c-2.6-1.1-5.2-2.1-7.8-3.2
				c-0.3-0.1-0.6-0.2-0.9-0.2c-2.8,0-5.6,0-8.4,0c-1.5,0-2.2-0.7-2.2-2.2C210.5,42.2,210.5,42,210.5,41.7L210.5,41.7L210.5,41.7z
				 M223.2,44c3.5,0,7,0,10.5,0c0.9,0,1.4-0.4,1.4-1.3c0-1.6,0-3.3,0-4.9c0-2.4,0-4.9,0-7.3c0-1-0.4-1.4-1.4-1.4c-7,0-14-0.1-21-0.1
				c-1,0-1.4,0.4-1.4,1.4c0,1.9,0,3.7,0,5.6c0,2.2,0,4.4,0,6.7c0,0.9,0.4,1.4,1.4,1.4C216.2,43.9,219.7,44,223.2,44L223.2,44
				L223.2,44z M232.6,44.8h-8.8c0,0,0,0.1,0.1,0.1c2.1,0.9,4.3,1.8,6.4,2.6c0.6,0.2,1.2,0,1.5-0.6C232.1,46.2,232.3,45.6,232.6,44.8
				z M213.8,28.2h8.8v-0.1c-2.2-0.9-4.4-1.8-6.6-2.7c-0.5-0.2-1.1,0.1-1.3,0.6C214.3,26.8,214.1,27.4,213.8,28.2z M235.9,33.7v2.9
				c0.3-0.5,0.5-1,0.7-1.5C236.8,34.4,236.5,33.9,235.9,33.7z M210.5,39.4c0-1,0-2,0-3c0,0,0-0.1-0.1-0.2c-0.3,0.7-0.5,1.4-0.7,2
				C209.6,38.7,209.9,39.1,210.5,39.4z"/>
			<path class="st8" d="M233.8,39.6c0,0.4,0,0.7,0,1.1c0,0.1-0.1,0.3-0.3,0.3c-3,0.9-6,0.9-9,0c-0.2-0.1-0.3-0.2-0.3-0.4
				c0-0.6,0-1.3,0-1.9c0-1.2,1-2,2.1-2c0.6,0,1.2,0.2,1.8,0.4c0.8,0.2,1.6,0.1,2.3-0.1c1.1-0.4,2.5-0.3,3.1,0.8
				c0.1,0.2,0.2,0.6,0.3,0.9C233.8,38.9,233.8,39.2,233.8,39.6L233.8,39.6L233.8,39.6z"/>
			<path class="st8" d="M226.5,34.1c0-1.5,1-2.7,2.3-2.8c1.6-0.1,2.9,1.3,2.7,3c-0.1,1.1-0.6,2-1.7,2.4c-1.5,0.5-3.1-0.6-3.3-2.2
				C226.5,34.3,226.5,34.2,226.5,34.1z"/>
			<path class="st8" d="M222.7,32.3c0,0.3-0.6,0.6-1.3,0.5h-7c-0.7,0-1.3-0.3-1.3-0.6s0.6-0.6,1.3-0.5h7
				C222.1,31.8,222.7,32,222.7,32.3z"/>
			<path class="st8" d="M222.7,32.3c0,0.3-0.6,0.6-1.3,0.5h-7c-0.7,0-1.3-0.3-1.3-0.6s0.6-0.6,1.3-0.5h7
				C222.1,31.8,222.7,32,222.7,32.3z"/>
			<path class="st8" d="M222.6,35.1c0,0.3-0.6,0.6-1.3,0.5h-7c-0.7,0-1.3-0.3-1.3-0.6s0.6-0.6,1.3-0.5h7
				C222.1,34.5,222.6,34.8,222.6,35.1z"/>
			<path class="st8" d="M222.6,35.1c0,0.3-0.6,0.6-1.3,0.5h-7c-0.7,0-1.3-0.3-1.3-0.6s0.6-0.6,1.3-0.5h7
				C222.1,34.5,222.6,34.8,222.6,35.1z"/>
			<path class="st8" d="M222.6,37.8c0,0.3-0.6,0.6-1.3,0.5h-7c-0.7,0-1.3-0.3-1.3-0.6s0.6-0.6,1.3-0.5h7
				C222.1,37.3,222.6,37.5,222.6,37.8z"/>
			<path class="st8" d="M222.6,37.8c0,0.3-0.6,0.6-1.3,0.5h-7c-0.7,0-1.3-0.3-1.3-0.6s0.6-0.6,1.3-0.5h7
				C222.1,37.3,222.6,37.5,222.6,37.8z"/>
			<path class="st8" d="M222.6,40.6c0,0.3-0.6,0.6-1.3,0.5h-7c-0.7,0-1.3-0.3-1.3-0.6s0.6-0.6,1.3-0.5h7
				C222.1,40,222.6,40.2,222.6,40.6z"/>
			<path class="st8" d="M222.6,40.6c0,0.3-0.6,0.6-1.3,0.5h-7c-0.7,0-1.3-0.3-1.3-0.6s0.6-0.6,1.3-0.5h7
				C222.1,40,222.6,40.2,222.6,40.6z"/>
			<path class="st1" d="M210.5,41.7c0-0.1,0-0.3,0-0.4c0.1-0.6,0-1.1-0.7-1.5c-0.8-0.4-1.1-1.4-0.7-2.3c0.4-1.1,0.9-2.1,1.3-3.2
				c0.1-0.2,0.1-0.5,0.2-0.8c0-1.1,0-2.2,0-3.3c0-1.3,0.7-2.1,2-2.1c0.3,0,0.4-0.1,0.4-0.3c0.3-0.6,0.5-1.3,0.8-1.9
				c0.5-1.2,1.5-1.6,2.7-1.1c2.6,1.1,5.2,2.2,7.9,3.2c0.3,0.1,0.6,0.2,0.9,0.2c2.8,0,5.6,0,8.4,0c1.4,0,2.2,0.7,2.2,2.2
				c0,0.6,0,1.3,0,1.9c0,0.2,0,0.4,0.3,0.5c1.2,0.5,1.6,1.5,1.1,2.7c-0.4,1-0.8,2-1.2,3c-0.1,0.3-0.2,0.5-0.2,0.8c0,1.1,0,2.2,0,3.3
				c0,1.3-0.7,2-2,2.1c-0.3,0-0.4,0.1-0.5,0.3c-0.2,0.6-0.5,1.2-0.7,1.8c-0.5,1.3-1.5,1.7-2.8,1.2c-2.6-1.1-5.2-2.1-7.8-3.2
				c-0.3-0.1-0.6-0.2-0.9-0.2c-2.8,0-5.6,0-8.4,0c-1.5,0-2.2-0.7-2.2-2.2C210.5,42.2,210.5,42,210.5,41.7L210.5,41.7L210.5,41.7z
				 M223.2,44c3.5,0,7,0,10.5,0c0.9,0,1.4-0.4,1.4-1.3c0-1.6,0-3.3,0-4.9c0-2.4,0-4.9,0-7.3c0-1-0.4-1.4-1.4-1.4c-7,0-14-0.1-21-0.1
				c-1,0-1.4,0.4-1.4,1.4c0,1.9,0,3.7,0,5.6c0,2.2,0,4.4,0,6.7c0,0.9,0.4,1.4,1.4,1.4C216.2,43.9,219.7,44,223.2,44L223.2,44
				L223.2,44z M232.6,44.8h-8.8c0,0,0,0.1,0.1,0.1c2.1,0.9,4.3,1.8,6.4,2.6c0.6,0.2,1.2,0,1.5-0.6C232.1,46.2,232.3,45.6,232.6,44.8
				z M213.8,28.2h8.8v-0.1c-2.2-0.9-4.4-1.8-6.6-2.7c-0.5-0.2-1.1,0.1-1.3,0.6C214.3,26.8,214.1,27.4,213.8,28.2z M235.9,33.7v2.9
				c0.3-0.5,0.5-1,0.7-1.5C236.8,34.4,236.5,33.9,235.9,33.7z M210.5,39.4c0-1,0-2,0-3c0,0,0-0.1-0.1-0.2c-0.3,0.7-0.5,1.4-0.7,2
				C209.6,38.7,209.9,39.1,210.5,39.4z"/>
			<path class="st1" d="M233.8,39.6c0,0.4,0,0.7,0,1.1c0,0.1-0.1,0.3-0.3,0.3c-3,0.9-6,0.9-9,0c-0.2-0.1-0.3-0.2-0.3-0.4
				c0-0.6,0-1.3,0-1.9c0-1.2,1-2,2.1-2c0.6,0,1.2,0.2,1.8,0.4c0.8,0.2,1.6,0.1,2.3-0.1c1.1-0.4,2.5-0.3,3.1,0.8
				c0.1,0.2,0.2,0.6,0.3,0.9C233.8,38.9,233.8,39.2,233.8,39.6L233.8,39.6L233.8,39.6z"/>
			<path class="st1" d="M226.5,34.1c0-1.5,1-2.7,2.3-2.8c1.6-0.1,2.9,1.3,2.7,3c-0.1,1.1-0.6,2-1.7,2.4c-1.5,0.5-3.1-0.6-3.3-2.2
				C226.5,34.3,226.5,34.2,226.5,34.1z"/>
			<path class="st1" d="M222.7,32.3c0,0.3-0.6,0.6-1.3,0.5h-7c-0.7,0-1.3-0.3-1.3-0.6s0.6-0.6,1.3-0.5h7
				C222.1,31.8,222.7,32,222.7,32.3z"/>
			<path class="st1" d="M222.6,35.1c0,0.3-0.6,0.6-1.3,0.5h-7c-0.7,0-1.3-0.3-1.3-0.6s0.6-0.6,1.3-0.5h7
				C222.1,34.5,222.6,34.8,222.6,35.1z"/>
			<path class="st1" d="M222.6,37.8c0,0.3-0.6,0.6-1.3,0.5h-7c-0.7,0-1.3-0.3-1.3-0.6s0.6-0.6,1.3-0.5h7
				C222.1,37.3,222.6,37.5,222.6,37.8z"/>
			<path class="st1" d="M222.6,40.6c0,0.3-0.6,0.6-1.3,0.5h-7c-0.7,0-1.3-0.3-1.3-0.6s0.6-0.6,1.3-0.5h7
				C222.1,40,222.6,40.2,222.6,40.6z"/>
			<path class="st9" d="M198.7,17.4h-1.1l-0.4,1.8h-1l0.4-1.8h-0.8v-1.1h1.1l0.3-1.2h-0.9V14h1.1l0.4-1.6h1l-0.4,1.6h1.1l0.4-1.6h1
				l-0.4,1.6h0.7v1.1h-1l-0.3,1.2h0.8v1.1h-1.1l-0.4,1.8h-1L198.7,17.4z M199.3,15h-1.1l-0.3,1.2h1.1L199.3,15z"/>
			<path class="st9" d="M206.1,17.4H205l-0.4,1.8h-1l0.4-1.8h-0.8v-1.1h1.1l0.3-1.2h-0.9V14h1.1l0.4-1.6h1l-0.4,1.6h1.1l0.4-1.6h1
				l-0.4,1.6h0.7v1.1h-1l-0.3,1.2h0.8v1.1H207l-0.4,1.8h-1L206.1,17.4L206.1,17.4L206.1,17.4z M206.7,15h-1.1l-0.3,1.2h1.1L206.7,15
				z"/>
			<path class="st9" d="M213.4,17.4h-1.1l-0.4,1.8h-1l0.4-1.8h-0.8v-1.1h1.1l0.3-1.2H211V14h1.1l0.4-1.6h1l-0.4,1.6h1.1l0.4-1.6h1
				l-0.4,1.6h0.7v1.1h-1l-0.3,1.2h0.8v1.1h-1.1l-0.4,1.8h-1L213.4,17.4L213.4,17.4L213.4,17.4z M214,15h-1.1l-0.3,1.2h1.1L214,15
				L214,15z"/>
			<path class="st9" d="M220.8,17.4h-1.1l-0.4,1.8h-1l0.4-1.8h-0.8v-1.1h1.1l0.3-1.2h-0.9V14h1.1l0.4-1.6h1l-0.4,1.6h1.1l0.4-1.6h1
				l-0.4,1.6h0.7v1.1h-1l-0.3,1.2h0.8v1.1h-1.1l-0.4,1.8h-1L220.8,17.4L220.8,17.4z M221.4,15h-1.1l-0.3,1.2h1.1L221.4,15z"/>
			<path class="st9" d="M228.2,17.4h-1.1l-0.4,1.8h-1l0.4-1.8h-0.8v-1.1h1.1l0.3-1.2h-0.9V14h1.1l0.4-1.6h1l-0.4,1.6h1.1l0.4-1.6h1
				L230,14h0.7v1.1h-1l-0.3,1.2h0.8v1.1h-1.1l-0.4,1.8h-1L228.2,17.4L228.2,17.4z M228.8,15h-1.1l-0.3,1.2h1.1L228.8,15L228.8,15z"
				/>
			<path class="st1" d="M198.7,17.4h-1.1l-0.4,1.8h-1l0.4-1.8h-0.8v-1.1h1.1l0.3-1.2h-0.9V14h1.1l0.4-1.6h1l-0.4,1.6h1.1l0.4-1.6h1
				l-0.4,1.6h0.7v1.1h-1l-0.3,1.2h0.8v1.1h-1.1l-0.4,1.8h-1L198.7,17.4z M199.3,15h-1.1l-0.3,1.2h1.1L199.3,15z"/>
			<path class="st1" d="M206.1,17.4H205l-0.4,1.8h-1l0.4-1.8h-0.8v-1.1h1.1l0.3-1.2h-0.9V14h1.1l0.4-1.6h1l-0.4,1.6h1.1l0.4-1.6h1
				l-0.4,1.6h0.7v1.1h-1l-0.3,1.2h0.8v1.1H207l-0.4,1.8h-1L206.1,17.4L206.1,17.4L206.1,17.4z M206.7,15h-1.1l-0.3,1.2h1.1L206.7,15
				z"/>
			<path class="st1" d="M213.4,17.4h-1.1l-0.4,1.8h-1l0.4-1.8h-0.8v-1.1h1.1l0.3-1.2H211V14h1.1l0.4-1.6h1l-0.4,1.6h1.1l0.4-1.6h1
				l-0.4,1.6h0.7v1.1h-1l-0.3,1.2h0.8v1.1h-1.1l-0.4,1.8h-1L213.4,17.4L213.4,17.4L213.4,17.4z M214,15h-1.1l-0.3,1.2h1.1L214,15
				L214,15z"/>
			<path class="st1" d="M220.8,17.4h-1.1l-0.4,1.8h-1l0.4-1.8h-0.8v-1.1h1.1l0.3-1.2h-0.9V14h1.1l0.4-1.6h1l-0.4,1.6h1.1l0.4-1.6h1
				l-0.4,1.6h0.7v1.1h-1l-0.3,1.2h0.8v1.1h-1.1l-0.4,1.8h-1L220.8,17.4L220.8,17.4z M221.4,15h-1.1l-0.3,1.2h1.1L221.4,15z"/>
			<path class="st1" d="M228.2,17.4h-1.1l-0.4,1.8h-1l0.4-1.8h-0.8v-1.1h1.1l0.3-1.2h-0.9V14h1.1l0.4-1.6h1l-0.4,1.6h1.1l0.4-1.6h1
				L230,14h0.7v1.1h-1l-0.3,1.2h0.8v1.1h-1.1l-0.4,1.8h-1L228.2,17.4L228.2,17.4z M228.8,15h-1.1l-0.3,1.2h1.1L228.8,15L228.8,15z"
				/>
		</g>
	</g>
</g>
<g>
	<g>
		<defs>
			<rect id="SVGID_00000050644167790903377990000002860025390041546926_" x="339.3" y="5.5" width="54.7" height="50.1"/>
		</defs>
		<clipPath id="SVGID_00000160906149850546723650000009295608609543965833_">
			<use xlink:href="#SVGID_00000050644167790903377990000002860025390041546926_"  style="overflow:visible;"/>
		</clipPath>
		<g style="clip-path:url(#SVGID_00000160906149850546723650000009295608609543965833_);">
			<path class="st0" d="M355.1,55.6c8.7,0,15.8-7.1,15.8-15.8S363.8,24,355.1,24s-15.8,7.1-15.8,15.8S346.3,55.6,355.1,55.6z"/>
			<path class="st1" d="M361.9,40.6c-0.6-0.7-1.3-1.1-2.2-1.3c1.2-0.6,1.9-1.9,1.6-3.2c0-0.5-0.2-1-0.4-1.4c-0.3-0.4-0.6-0.7-1-1
				c-0.4-0.2-0.9-0.4-1.4-0.6c-0.6-0.1-1.1-0.2-1.7-0.2v-3.1h-1.9v3h-1.5v-3h-1.9v3.1h-3.8v2h1.4c0.5-0.1,1,0.3,1.1,0.9l0,0v8.5
				c0,0.4-0.3,0.6-0.7,0.6l0,0H348l-0.4,2.3h3.8v3.2h1.9v-3.1h1.5v3.1h1.9v-3.2c0.6,0,1.2-0.1,1.8-0.2c0.5-0.1,1-0.2,1.5-0.4
				c0.4-0.2,0.8-0.4,1.2-0.7c0.3-0.3,0.6-0.7,0.8-1.1c0.2-0.5,0.4-1,0.4-1.5C362.6,42.3,362.4,41.3,361.9,40.6L361.9,40.6
				L361.9,40.6L361.9,40.6z M353.4,35h1.2c0.2,0,0.5,0,0.7,0c0.3,0,0.5,0.1,0.8,0.1c0.2,0,0.5,0.1,0.7,0.2c0.2,0.1,0.4,0.2,0.6,0.3
				s0.3,0.3,0.4,0.5s0.2,0.5,0.2,0.7s0,0.4-0.1,0.6c-0.1,0.2-0.2,0.3-0.3,0.5c-0.1,0.1-0.3,0.2-0.5,0.3s-0.4,0.2-0.6,0.2l-0.6,0.1
				c-0.2,0-0.5,0.1-0.7,0.1h-1.6L353.4,35L353.4,35L353.4,35z M358.6,43.5c-0.1,0.2-0.2,0.3-0.3,0.5c-0.1,0.2-0.3,0.3-0.5,0.4
				c-0.2,0.1-0.4,0.2-0.6,0.3s-0.5,0.1-0.7,0.2c-0.3,0.1-0.5,0.1-0.7,0.1s-0.4,0-0.7,0.1h-1.7v-4.2h2.2c0.3,0,0.6,0.1,0.9,0.1
				c0.3,0.1,0.5,0.1,0.8,0.2c0.3,0.1,0.5,0.2,0.7,0.4s0.3,0.4,0.5,0.6C358.7,42.5,358.8,43,358.6,43.5L358.6,43.5L358.6,43.5z"/>
			<path class="st0" d="M390.6,34c0,6-4.9,10.9-10.9,10.9s-10.9-4.9-11-10.9c0-6,4.9-10.9,10.9-10.9l0,0
				C385.7,23.1,390.6,28,390.6,34z"/>
			<path class="st1" d="M379.3,37l0.7-2.9l1.3-0.5v-1.4l-1,0.4l1-4.6h-3.9l-1.4,6.2l-1.3,0.5v1.4l1-0.4l-0.8,3.5h9.1l0.6-2.2
				L379.3,37L379.3,37L379.3,37z"/>
			<path class="st0" d="M375.6,18.1c0,4.6-3.8,8.4-8.4,8.4s-8.4-3.8-8.4-8.4s3.8-8.4,8.4-8.4S375.6,13.5,375.6,18.1z M367.3,24.4
				c1.2-1.7,2.5-3.5,3.7-5.2h-0.1c-1.2,0.7-2.3,1.4-3.5,2c-0.1,0-0.1,0.1-0.1,0.2C367.3,22.4,367.3,23.4,367.3,24.4L367.3,24.4
				L367.3,24.4L367.3,24.4z M367.1,24.4c0-1,0-2,0-3c0-0.1,0-0.1-0.1-0.2c-1.2-0.7-2.3-1.4-3.5-2c0,0-0.1,0-0.1-0.1
				c0,0.1,0.1,0.1,0.1,0.1c0.7,1,1.3,1.9,2,2.9C366,22.9,366.5,23.6,367.1,24.4L367.1,24.4L367.1,24.4z M367.3,11.9L367.3,11.9
				c0,1.5,0,2.9,0,4.4c0,0.1,0,0.1,0.1,0.1c1.2,0.5,2.3,1,3.5,1.5c0,0,0.1,0,0.1,0.1C369.8,15.9,368.6,13.9,367.3,11.9L367.3,11.9z
				 M363.5,17.9c1.1-0.5,2.3-1,3.4-1.5c0.1,0,0.1-0.1,0.1-0.2V12v-0.1c-1.2,2-2.4,4.1-3.6,6.1C363.5,17.9,363.5,17.9,363.5,17.9
				L363.5,17.9L363.5,17.9z M367.3,20.5c1.3-0.7,2.5-1.5,3.8-2.2c-1.3-0.6-2.5-1.1-3.8-1.7V20.5L367.3,20.5L367.3,20.5z M363.3,18.3
				c1.3,0.7,2.5,1.5,3.8,2.2v-3.9C365.8,17.2,364.6,17.7,363.3,18.3z"/>
		</g>
	</g>
</g>
<rect x="0.9" y="161.4" class="st11" width="260.3" height="26.6"/>
<text transform="matrix(1 0 0 1 0.9278 173.6038)" class="st2 st12 st13">Escribir Regla de Criptomoneda</text>
</svg>
