<?xml version="1.0" encoding="utf-8"?>
<!-- Generator: Adobe Illustrator 27.5.0, SVG Export Plug-In . SVG Version: 6.00 Build 0)  -->
<svg version="1.1" id="Layer_1" xmlns="http://www.w3.org/2000/svg" xmlns:xlink="http://www.w3.org/1999/xlink" x="0px" y="0px"
	 viewBox="0 0 582.5 356" style="enable-background:new 0 0 582.5 356;" xml:space="preserve">
<style type="text/css">
	.st0{fill:#FFFFFF;}
	.st1{fill:#4A9CD5;}
	.st2{fill:#274666;}
	.st3{clip-path:url(#SVGID_00000072989182065063260850000010271501654205239183_);}
	.st4{clip-path:url(#SVGID_00000166667767844353161090000001924898520566229133_);}
	.st5{fill:none;stroke:#4F9DD6;stroke-width:2;stroke-miterlimit:10;}
	.st6{fill:#BFBFBF;}
	.st7{clip-path:url(#SVGID_00000080911442831154023570000012665949442020081046_);}
	.st8{fill:none;stroke:#FFFFFF;stroke-width:1.5;}
	.st9{fill:none;stroke:#FFFFFF;}
	.st10{clip-path:url(#SVGID_00000012452888400292833440000013304246278568014516_);}
	.st11{fill:none;}
	.st12{font-family:'MonsalGothic-Bold';}
	.st13{font-size:17px;}
</style>
<path class="st0" d="M9.9,189.9h104.8c5.5,0,9.9,4.4,9.9,9.9v3c0,5.5-4.4,9.9-9.9,9.9H9.9c-5.5,0-9.9-4.4-9.9-9.9v-3
	C0,194.3,4.4,189.9,9.9,189.9z"/>
<path class="st1" d="M15.4,197.3c2,0,3,1.4,3,2.9s-1,2.9-3,2.9h-1.1v2.5h-1.9v-8.4L15.4,197.3L15.4,197.3z M15.3,201.6
	c0.8,0,1.2-0.7,1.2-1.4c0-0.7-0.4-1.4-1.2-1.4h-1v2.8H15.3z M23.8,199.1l-0.1,1.8c-0.5,0-1.5,0.1-2.2,0.6v4.2h-1.8v-6.4h1.6l0.1,0.9
	C22.1,199.5,23,199.1,23.8,199.1L23.8,199.1z M29.2,196l-1.1,2.4h-1.5l0.7-2.4H29.2z M27.4,199.1c2.2,0,3.1,1.6,2.8,3.8h-4.1
	c0.2,1,1,1.5,2,1.5c0.5,0,1.1-0.1,1.5-0.3l0.2,1.3c-0.5,0.3-1.4,0.4-2.2,0.4c-1.7,0-3.3-1.1-3.3-3.4
	C24.4,200.3,25.8,199.1,27.4,199.1L27.4,199.1z M27.4,200.5c-0.7,0-1.2,0.6-1.3,1.3h2.4C28.5,200.9,28.1,200.5,27.4,200.5
	L27.4,200.5z M34.9,201.7v1.4h-3.5v-1.4H34.9z M39.8,197.3c2.9,0,4.3,2.1,4.3,4.2c0,2.1-1.4,4.2-4.3,4.2h-3.3v-8.4H39.8z
	 M39.8,204.2c1.6,0,2.3-1.3,2.3-2.6c0-1.3-0.8-2.6-2.3-2.6h-1.4v5.3L39.8,204.2L39.8,204.2z M48.2,199.1c2.2,0,3.1,1.6,2.8,3.8h-4.1
	c0.2,1,1,1.5,2,1.5c0.5,0,1.1-0.1,1.5-0.3l0.2,1.3c-0.5,0.3-1.4,0.4-2.2,0.4c-1.7,0-3.3-1.1-3.3-3.4
	C45.1,200.3,46.5,199.1,48.2,199.1L48.2,199.1z M48.2,200.5c-0.7,0-1.2,0.6-1.3,1.3h2.4C49.3,200.9,48.9,200.5,48.2,200.5
	L48.2,200.5z M56.1,204.2l0.2,1.3c-0.6,0.2-1.1,0.3-1.6,0.3c-1.5,0-2.1-1-2.1-3v-2.2h-0.8v-1.4h0.8V198l1.8-0.3v1.6h1.8v1.4h-1.8
	v2.3c0,1,0.2,1.4,0.8,1.4C55.4,204.4,55.7,204.4,56.1,204.2L56.1,204.2z M60,199.1c2.2,0,3.1,1.6,2.8,3.8h-4.1c0.2,1,1,1.5,2,1.5
	c0.5,0,1.1-0.1,1.5-0.3l0.2,1.3c-0.5,0.3-1.4,0.4-2.2,0.4c-1.7,0-3.3-1.1-3.3-3.4C57,200.3,58.4,199.1,60,199.1L60,199.1z M60,200.5
	c-0.7,0-1.2,0.6-1.3,1.3h2.4C61.1,200.9,60.7,200.5,60,200.5L60,200.5z M68.3,199.1l-0.1,1.8c-0.5,0-1.5,0.1-2.2,0.6v4.2h-1.8v-6.4
	h1.6l0.1,0.9C66.7,199.5,67.5,199.1,68.3,199.1L68.3,199.1z M77,199.1c1.4,0,2.1,0.9,2.1,2.6v4h-1.8v-3.9c0-0.9-0.4-1.2-0.9-1.2
	c-0.4,0-0.8,0.2-1.3,0.6c0,0.2,0,0.3,0,0.5v4h-1.8v-3.9c0-0.9-0.4-1.2-0.9-1.2c-0.3,0-0.8,0.2-1.3,0.6v4.5h-1.8v-6.4h1.5L71,200
	c0.6-0.6,1.3-0.9,2-0.9c0.9,0,1.5,0.4,1.8,1C75.5,199.4,76.2,199.1,77,199.1L77,199.1z M81.8,198.5c-0.6,0-1.1-0.5-1.1-1.1
	s0.5-1.1,1.1-1.1s1.1,0.5,1.1,1.1S82.4,198.5,81.8,198.5z M82.7,199.3v6.4h-1.8v-6.4H82.7z M88.4,199.1c1.5,0,2.2,0.9,2.2,2.6v4
	h-1.8v-3.9c0-0.9-0.4-1.2-0.9-1.2c-0.4,0-1,0.2-1.5,0.6v4.5h-1.8v-6.4h1.5l0.2,0.8C86.9,199.4,87.6,199.1,88.4,199.1L88.4,199.1z
	 M95.1,199.1c2.5,0,2.4,1.6,2.4,2.8v3.8H96l-0.1-0.6c-0.6,0.5-1.3,0.7-2,0.7c-1.1,0-2-0.6-2-1.9c0-1.5,1.8-2.1,3.9-2.2
	c0-0.9-0.1-1.2-0.9-1.2c-0.5,0-1.3,0.2-2.1,0.4l-0.3-1.4C93.5,199.2,94.4,199.1,95.1,199.1L95.1,199.1z M94.3,204.6
	c0.5,0,1-0.3,1.4-0.7v-1c-1.2,0.1-2.1,0.3-2.1,1.1C93.5,204.3,93.8,204.6,94.3,204.6L94.3,204.6z M103.2,196.7l1.8-0.3v9.3h-1.5
	l-0.1-0.6c-0.6,0.5-1.2,0.8-1.9,0.8c-1.4,0-2.6-1.2-2.6-3.3c0-2.3,1.5-3.4,3-3.4c0.4,0,0.9,0.1,1.4,0.3L103.2,196.7L103.2,196.7z
	 M100.6,202.5c0,1.2,0.6,1.8,1.3,1.8c0.4,0,0.8-0.2,1.2-0.4v-3.2c-0.3-0.1-0.6-0.1-0.9-0.1C101.3,200.6,100.6,201.1,100.6,202.5z
	 M109.5,199.1c2,0,3.2,1.5,3.2,3.4c0,1.9-1.2,3.4-3.2,3.4s-3.2-1.5-3.2-3.4C106.3,200.6,107.5,199.1,109.5,199.1z M109.5,200.5
	c-0.8,0-1.3,0.7-1.3,2c0,1.2,0.5,2,1.3,2s1.4-0.7,1.4-2C110.9,201.2,110.3,200.5,109.5,200.5z"/>
<path class="st0" d="M142.4,189.9h81.1c5.5,0,9.9,4.4,9.9,9.9v3c0,5.5-4.4,9.9-9.9,9.9h-81.1c-5.5,0-9.9-4.4-9.9-9.9v-3
	C132.5,194.3,136.9,189.9,142.4,189.9z"/>
<path class="st1" d="M156.4,205.9c-3,0-4.2-1.9-4.2-4.3c0-2.7,1.7-4.3,4.3-4.3c0.8,0,1.7,0.1,2.4,0.4l-0.4,1.5
	c-0.5-0.2-1.2-0.3-1.8-0.3c-1.4,0-2.5,0.8-2.5,2.7c0,1.7,1,2.7,2.5,2.7c0.6,0,1.2-0.2,1.8-0.4l0.6,1.5
	C158.1,205.7,157.1,205.9,156.4,205.9L156.4,205.9z M162.9,199.1c2,0,3.2,1.5,3.2,3.4c0,1.9-1.2,3.4-3.2,3.4s-3.2-1.5-3.2-3.4
	C159.7,200.6,160.9,199.1,162.9,199.1z M162.9,200.5c-0.8,0-1.3,0.7-1.3,2c0,1.2,0.5,2,1.3,2s1.4-0.7,1.4-2
	C164.3,201.2,163.7,200.5,162.9,200.5z M171.4,196.7l1.8-0.3v9.3h-1.5l-0.1-0.6c-0.6,0.5-1.2,0.8-1.9,0.8c-1.4,0-2.6-1.2-2.6-3.3
	c0-2.3,1.5-3.4,3-3.4c0.4,0,0.9,0.1,1.4,0.3L171.4,196.7L171.4,196.7z M168.8,202.5c0,1.2,0.6,1.8,1.3,1.8c0.4,0,0.8-0.2,1.2-0.4
	v-3.2c-0.3-0.1-0.6-0.1-0.9-0.1C169.6,200.6,168.8,201.1,168.8,202.5z M176,198.5c-0.6,0-1.1-0.5-1.1-1.1s0.5-1.1,1.1-1.1
	s1.1,0.5,1.1,1.1S176.6,198.5,176,198.5z M176.9,199.3v6.4h-1.8v-6.4H176.9z M182.2,198c-0.7,0-1.2,0.3-1.3,1.3h1.5v1.4h-1.5v5h-1.8
	v-5h-1v-1.4h1c0.1-2.1,1.3-2.7,2.7-2.7c0.4,0,0.9,0,1.3,0.1l-0.2,1.4C182.7,198,182.4,198,182.2,198L182.2,198z M184.5,198.5
	c-0.6,0-1.1-0.5-1.1-1.1s0.5-1.1,1.1-1.1s1.1,0.5,1.1,1.1S185.1,198.5,184.5,198.5z M185.4,199.3v6.4h-1.8v-6.4H185.4z M190.1,199.1
	c0.7,0,1.4,0.1,2,0.3l-0.3,1.3c-0.4-0.1-0.9-0.2-1.2-0.2c-1.1,0-1.9,0.5-1.9,1.9c0,1.3,0.8,1.9,1.9,1.9c0.4,0,1-0.1,1.4-0.2l0.2,1.3
	c-0.5,0.3-1.4,0.4-2.1,0.4c-1.7,0-3.2-1-3.2-3.4C186.9,200,188.4,199.1,190.1,199.1L190.1,199.1z M196.3,199.1
	c2.5,0,2.4,1.6,2.4,2.8v3.8h-1.5l-0.1-0.6c-0.6,0.5-1.3,0.7-2,0.7c-1.1,0-2-0.6-2-1.9c0-1.5,1.8-2.1,3.9-2.2c0-0.9-0.1-1.2-0.9-1.2
	c-0.5,0-1.3,0.2-2.1,0.4l-0.3-1.4C194.6,199.2,195.5,199.1,196.3,199.1L196.3,199.1z M195.4,204.6c0.5,0,1-0.3,1.4-0.7v-1
	c-1.2,0.1-2.1,0.3-2.1,1.1C194.7,204.3,195,204.6,195.4,204.6L195.4,204.6z M204.3,196.7l1.8-0.3v9.3h-1.5l-0.1-0.6
	c-0.6,0.5-1.2,0.8-1.9,0.8c-1.4,0-2.6-1.2-2.6-3.3c0-2.3,1.5-3.4,3-3.4c0.4,0,0.9,0.1,1.4,0.3L204.3,196.7L204.3,196.7z
	 M201.7,202.5c0,1.2,0.6,1.8,1.3,1.8c0.4,0,0.8-0.2,1.2-0.4v-3.2c-0.3-0.1-0.6-0.1-0.9-0.1C202.5,200.6,201.7,201.1,201.7,202.5z
	 M210.6,199.1c2,0,3.2,1.5,3.2,3.4c0,1.9-1.2,3.4-3.2,3.4s-3.2-1.5-3.2-3.4C207.4,200.6,208.6,199.1,210.6,199.1z M210.6,200.5
	c-0.8,0-1.3,0.7-1.3,2c0,1.2,0.5,2,1.3,2s1.4-0.7,1.4-2C212,201.2,211.5,200.5,210.6,200.5z"/>
<path class="st1" d="M251.2,189.9h126.6c5.5,0,9.9,4.4,9.9,9.9v3c0,5.5-4.4,9.9-9.9,9.9H251.2c-5.5,0-9.9-4.4-9.9-9.9v-3
	C241.3,194.3,245.7,189.9,251.2,189.9z"/>
<path class="st0" d="M270.3,197.2c0.8,0,1.6,0.1,2.5,0.5l-0.4,1.5c-0.8-0.3-1.5-0.5-2.1-0.5c-0.8,0-1.2,0.4-1.2,0.8
	c0,0.4,0.4,0.7,1.3,1.1c1.7,0.7,2.7,1.5,2.7,2.9c0,1.5-1.3,2.4-3.1,2.4c-1,0-2-0.3-3.1-0.9l0.5-1.5c1.1,0.6,1.8,0.9,2.5,0.9
	c0.8,0,1.3-0.3,1.3-0.8c0-0.6-0.6-0.8-1.6-1.3c-1.5-0.7-2.4-1.4-2.4-2.5C267.2,198.2,268.5,197.2,270.3,197.2L270.3,197.2z
	 M277.5,199.1c0.7,0,1.4,0.1,2,0.3l-0.3,1.3c-0.4-0.1-0.9-0.2-1.2-0.2c-1.1,0-1.9,0.5-1.9,1.9c0,1.3,0.8,1.9,1.9,1.9
	c0.4,0,1-0.1,1.4-0.2l0.2,1.3c-0.5,0.3-1.4,0.4-2.1,0.4c-1.7,0-3.2-1-3.2-3.4C274.2,200,275.7,199.1,277.5,199.1L277.5,199.1z
	 M284.9,199.1l-0.1,1.8c-0.5,0-1.5,0.1-2.2,0.6v4.2h-1.8v-6.4h1.6l0.1,0.9C283.2,199.5,284.1,199.1,284.9,199.1L284.9,199.1z
	 M287,198.5c-0.6,0-1.1-0.5-1.1-1.1s0.5-1.1,1.1-1.1s1.1,0.5,1.1,1.1S287.6,198.5,287,198.5z M287.9,199.3v6.4h-1.8v-6.4H287.9z
	 M293.3,199.1c1.4,0,2.6,1.2,2.6,3.3c0,2.3-1.5,3.4-3,3.4c-0.4,0-0.9-0.1-1.4-0.3v2.6l-1.8,0.2v-9.2h1.5l0.1,0.6
	C292,199.4,292.6,199.1,293.3,199.1L293.3,199.1z M292.5,204.4c1,0,1.7-0.6,1.7-2c0-1.2-0.6-1.8-1.3-1.8c-0.4,0-0.8,0.2-1.2,0.4v3.2
	C291.9,204.4,292.2,204.4,292.5,204.4z M301,204.2l0.2,1.3c-0.6,0.2-1.1,0.3-1.6,0.3c-1.5,0-2.1-1-2.1-3v-2.2h-0.8v-1.4h0.8V198
	l1.8-0.3v1.6h1.8v1.4h-1.8v2.3c0,1,0.2,1.4,0.8,1.4C300.4,204.4,300.7,204.4,301,204.2L301,204.2z M309.7,196.7l1.8-0.3v9.3H310
	l-0.1-0.6c-0.6,0.5-1.2,0.8-1.9,0.8c-1.4,0-2.6-1.2-2.6-3.3c0-2.3,1.5-3.4,3-3.4c0.4,0,0.9,0.1,1.4,0.3L309.7,196.7L309.7,196.7z
	 M307.1,202.5c0,1.2,0.6,1.8,1.3,1.8c0.4,0,0.8-0.2,1.2-0.4v-3.2c-0.3-0.1-0.6-0.1-0.9-0.1C307.9,200.6,307.1,201.1,307.1,202.5z
	 M315.9,199.1c2.2,0,3.1,1.6,2.8,3.8h-4.1c0.2,1,1,1.5,2,1.5c0.5,0,1.1-0.1,1.5-0.3l0.2,1.3c-0.5,0.3-1.4,0.4-2.2,0.4
	c-1.7,0-3.3-1.1-3.3-3.4C312.9,200.3,314.3,199.1,315.9,199.1L315.9,199.1z M315.9,200.5c-0.7,0-1.2,0.6-1.3,1.3h2.4
	C317,200.9,316.6,200.5,315.9,200.5z M328.1,205.7l-1.8-2.7h-1v2.7h-1.9v-8.4h3.2c1.9,0,2.9,1.4,2.9,2.8c0,1-0.4,2-1.5,2.4l2,3.1
	H328.1L328.1,205.7z M325.3,198.8v2.7h1.2c0.8,0,1.2-0.7,1.2-1.3c0-0.7-0.4-1.3-1.2-1.3L325.3,198.8L325.3,198.8z M333.8,199.1
	c2.2,0,3.1,1.6,2.8,3.8h-4.1c0.2,1,1,1.5,2,1.5c0.5,0,1.1-0.1,1.5-0.3l0.2,1.3c-0.5,0.3-1.4,0.4-2.2,0.4c-1.7,0-3.3-1.1-3.3-3.4
	C330.7,200.3,332.1,199.1,333.8,199.1L333.8,199.1z M333.8,200.5c-0.7,0-1.2,0.6-1.3,1.3h2.4C334.8,200.9,334.4,200.5,333.8,200.5z
	 M344.5,199.3v1.4h-1c0.1,0.2,0.1,0.5,0.1,0.8c0,1.4-1.1,2.3-2.8,2.3c-0.5,0-0.9-0.1-1.3-0.2c-0.1,0.1-0.2,0.2-0.2,0.3
	c0,0.3,0.5,0.4,1.3,0.5c1.4,0.2,3.4,0.6,3.4,2.1c0,1.4-1.6,2.2-3.2,2.2c-1.7,0-3.3-0.7-3.3-2c0-0.4,0.2-1,0.9-1.4
	c-0.4-0.2-0.7-0.5-0.7-1c0-0.4,0.2-0.8,0.7-1.3c-0.4-0.4-0.6-0.9-0.6-1.5c0-1.4,1.2-2.4,2.9-2.4c0.4,0,0.8,0.1,1.1,0.2L344.5,199.3
	L344.5,199.3z M340.8,202.5c0.7,0,1.2-0.4,1.2-1c0-0.7-0.5-1.1-1.2-1.1s-1.2,0.4-1.2,1C339.6,202.1,340.1,202.5,340.8,202.5
	L340.8,202.5z M342.2,206.6c0-0.5-0.8-0.7-1.8-0.8c-0.1,0-0.3,0-0.4-0.1c-0.5,0.3-0.6,0.6-0.6,0.8c0,0.6,0.7,0.9,1.5,0.9
	C341.6,207.4,342.2,207.2,342.2,206.6L342.2,206.6z M349.5,199.1l-0.1,1.8c-0.5,0-1.5,0.1-2.2,0.6v4.2h-1.8v-6.4h1.6l0.1,0.9
	C347.9,199.5,348.8,199.1,349.5,199.1L349.5,199.1z M353.4,199.1c2.5,0,2.4,1.6,2.4,2.8v3.8h-1.5l-0.1-0.6c-0.6,0.5-1.3,0.7-2,0.7
	c-1.1,0-2-0.6-2-1.9c0-1.5,1.8-2.1,3.9-2.2c0-0.9-0.1-1.2-0.9-1.2c-0.5,0-1.3,0.2-2.1,0.4l-0.3-1.4
	C351.7,199.2,352.6,199.1,353.4,199.1L353.4,199.1z M352.5,204.6c0.5,0,1-0.3,1.4-0.7v-1c-1.2,0.1-2.1,0.3-2.1,1.1
	C351.8,204.3,352.1,204.6,352.5,204.6L352.5,204.6z M359.6,199.1c0.6,0,1.4,0.1,2.1,0.3l-0.3,1.4c-0.5-0.2-1.2-0.4-1.8-0.4
	c-0.5,0-0.9,0.1-0.9,0.5c0,0.3,0.4,0.4,1,0.7c1.5,0.7,2.2,1.4,2.2,2.4c0,1.1-1,1.8-2.5,1.8c-0.7,0-1.5-0.2-2.4-0.5l0.3-1.4
	c0.6,0.3,1.5,0.5,2.1,0.5c0.5,0,0.8-0.1,0.8-0.5c0-0.3-0.3-0.5-1.2-1c-1.4-0.7-2-1.2-2-2.1C357,199.8,358,199.1,359.6,199.1
	L359.6,199.1z"/>
<path class="st0" d="M5.9,0h126.6c2.7,0,4.9,2.2,4.9,4.9v118.7c0,2.7-2.2,4.9-4.9,4.9H5.9c-2.7,0-4.9-2.2-4.9-4.9V4.9
	C1,2.2,3.2,0,5.9,0z"/>
<path class="st2" d="M22.1,76.3c-3,0-4.2-1.9-4.2-4.3c0-2.7,1.7-4.3,4.3-4.3c0.8,0,1.7,0.1,2.4,0.4l-0.4,1.5
	c-0.5-0.2-1.2-0.3-1.8-0.3c-1.4,0-2.5,0.8-2.5,2.7c0,1.7,1,2.7,2.5,2.7c0.6,0,1.2-0.2,1.8-0.4l0.6,1.5
	C23.9,76.2,22.9,76.3,22.1,76.3L22.1,76.3z M28.8,69.6c2.5,0,2.4,1.6,2.4,2.8v3.8h-1.5l-0.1-0.6c-0.6,0.5-1.3,0.7-2,0.7
	c-1.1,0-2-0.6-2-1.9c0-1.5,1.8-2.1,3.9-2.2c0-0.9-0.1-1.2-0.9-1.2c-0.5,0-1.3,0.2-2.1,0.4l-0.3-1.4C27.2,69.7,28.1,69.6,28.8,69.6
	L28.8,69.6z M28,75c0.5,0,1-0.3,1.4-0.7v-1c-1.2,0.1-2.1,0.3-2.1,1.1C27.2,74.8,27.5,75,28,75z M36.9,69.6l-0.1,1.8
	c-0.5,0-1.5,0.1-2.2,0.6v4.2h-1.8v-6.4h1.6l0.1,0.9C35.3,69.9,36.2,69.6,36.9,69.6L36.9,69.6z M41.9,74.7l0.2,1.3
	c-0.6,0.2-1.1,0.3-1.6,0.3c-1.5,0-2.1-1-2.1-3v-2.2h-0.8v-1.4h0.8v-1.3l1.8-0.3v1.6H42v1.4h-1.8v2.3c0,1,0.2,1.4,0.8,1.4
	C41.2,74.8,41.5,74.8,41.9,74.7L41.9,74.7z M45,68.2c-0.2,0-0.4,0.1-0.4,0.5h-1.1c0-1.1,0.6-1.7,1.4-1.7c0.5,0,0.9,0.3,1.2,0.4
	c0.2,0.1,0.4,0.3,0.6,0.3c0.2,0,0.4-0.1,0.4-0.5h1.1c0,1.1-0.6,1.7-1.4,1.7c-0.6,0-1-0.3-1.3-0.4C45.4,68.3,45.2,68.2,45,68.2
	L45,68.2z M46.2,69.6c2.5,0,2.4,1.6,2.4,2.8v3.8h-1.5L47,75.6c-0.6,0.5-1.3,0.7-2,0.7c-1.1,0-2-0.6-2-1.9c0-1.5,1.8-2.1,3.9-2.2
	c0-0.9-0.1-1.2-0.9-1.2c-0.5,0-1.3,0.2-2.1,0.4l-0.3-1.4C44.6,69.7,45.5,69.6,46.2,69.6L46.2,69.6z M45.4,75c0.5,0,1-0.3,1.4-0.7v-1
	c-1.2,0.1-2.1,0.3-2.1,1.1C44.6,74.8,44.9,75,45.4,75z M53,69.6c2,0,3.2,1.5,3.2,3.4c0,1.9-1.2,3.4-3.2,3.4s-3.2-1.5-3.2-3.4
	C49.9,71,51.1,69.6,53,69.6z M53,71c-0.8,0-1.3,0.7-1.3,2c0,1.2,0.5,2,1.3,2s1.4-0.7,1.4-2C54.4,71.7,53.9,71,53,71z M64.9,67.1
	l1.8-0.3v9.3h-1.5L65,75.5c-0.6,0.5-1.2,0.8-1.9,0.8c-1.4,0-2.6-1.2-2.6-3.3c0-2.3,1.5-3.4,3-3.4c0.4,0,0.9,0.1,1.4,0.3L64.9,67.1
	L64.9,67.1z M62.3,73c0,1.2,0.6,1.8,1.3,1.8c0.4,0,0.8-0.2,1.2-0.4v-3.2C64.6,71,64.3,71,64,71C63.1,71,62.3,71.6,62.3,73L62.3,73z
	 M71.1,69.6c2.2,0,3.1,1.6,2.8,3.8h-4.1c0.2,1,1,1.5,2,1.5c0.5,0,1.1-0.1,1.5-0.3l0.2,1.3c-0.5,0.3-1.4,0.4-2.2,0.4
	c-1.7,0-3.3-1.1-3.3-3.4C68,70.7,69.4,69.6,71.1,69.6L71.1,69.6z M71.1,70.9c-0.7,0-1.2,0.6-1.3,1.3h2.4
	C72.2,71.4,71.7,70.9,71.1,70.9z M82.4,76.3c-3,0-4.2-1.9-4.2-4.3c0-2.7,1.7-4.3,4.3-4.3c0.8,0,1.7,0.1,2.4,0.4l-0.4,1.5
	c-0.5-0.2-1.2-0.3-1.8-0.3c-1.4,0-2.5,0.8-2.5,2.7c0,1.7,1,2.7,2.5,2.7c0.6,0,1.2-0.2,1.8-0.4l0.6,1.5
	C84.2,76.2,83.2,76.3,82.4,76.3L82.4,76.3z M90.5,69.6l-0.1,1.8c-0.5,0-1.5,0.1-2.2,0.6v4.2h-1.8v-6.4H88l0.1,0.9
	C88.9,69.9,89.7,69.6,90.5,69.6L90.5,69.6z M96,66.5l-1.1,2.4h-1.5l0.7-2.4H96L96,66.5z M94.2,69.6c2.2,0,3.1,1.6,2.8,3.8h-4.1
	c0.2,1,1,1.5,2,1.5c0.5,0,1.1-0.1,1.5-0.3l0.2,1.3c-0.5,0.3-1.4,0.4-2.2,0.4c-1.7,0-3.3-1.1-3.3-3.4C91.1,70.7,92.5,69.6,94.2,69.6
	L94.2,69.6z M94.2,70.9c-0.7,0-1.2,0.6-1.3,1.3h2.4C95.3,71.4,94.8,70.9,94.2,70.9z M102.3,67.1l1.8-0.3v9.3h-1.5l-0.1-0.6
	c-0.6,0.5-1.2,0.8-1.9,0.8c-1.4,0-2.6-1.2-2.6-3.3c0-2.3,1.5-3.4,3-3.4c0.4,0,0.9,0.1,1.4,0.3L102.3,67.1L102.3,67.1z M99.8,73
	c0,1.2,0.6,1.8,1.3,1.8c0.4,0,0.8-0.2,1.2-0.4v-3.2c-0.3-0.1-0.6-0.1-0.9-0.1C100.5,71,99.8,71.6,99.8,73L99.8,73z M106.9,68.9
	c-0.6,0-1.1-0.5-1.1-1.1s0.5-1.1,1.1-1.1s1.1,0.5,1.1,1.1S107.5,68.9,106.9,68.9z M107.8,69.7v6.4H106v-6.4H107.8z M113.3,74.7
	l0.2,1.3c-0.6,0.2-1.1,0.3-1.6,0.3c-1.5,0-2.1-1-2.1-3v-2.2H109v-1.4h0.8v-1.3l1.8-0.3v1.6h1.8v1.4h-1.8v2.3c0,1,0.2,1.4,0.8,1.4
	C112.7,74.8,113,74.8,113.3,74.7L113.3,74.7z M117.4,69.6c2,0,3.2,1.5,3.2,3.4c0,1.9-1.2,3.4-3.2,3.4s-3.2-1.5-3.2-3.4
	C114.2,71,115.4,69.6,117.4,69.6z M117.4,71c-0.8,0-1.3,0.7-1.3,2c0,1.2,0.5,2,1.3,2s1.4-0.7,1.4-2C118.8,71.7,118.2,71,117.4,71z
	 M54.9,91l-1.8-2.7h-1V91h-1.9v-8.4h3.2c1.9,0,2.9,1.4,2.9,2.8c0,1-0.5,2-1.5,2.4l2,3.1C56.9,91,54.9,91,54.9,91z M52.1,84.1v2.7
	h1.2c0.8,0,1.2-0.7,1.2-1.3c0-0.7-0.4-1.3-1.2-1.3H52.1z M60.5,84.4c2.2,0,3.1,1.6,2.8,3.8h-4.1c0.2,1,1,1.5,2,1.5
	c0.5,0,1.1-0.1,1.5-0.3l0.2,1.3c-0.5,0.3-1.4,0.4-2.2,0.4c-1.7,0-3.3-1.1-3.3-3.4C57.5,85.6,58.9,84.4,60.5,84.4L60.5,84.4z
	 M60.5,85.8c-0.7,0-1.2,0.6-1.3,1.3h2.4C61.6,86.2,61.2,85.8,60.5,85.8z M71.2,84.6V86h-1c0.1,0.2,0.1,0.5,0.1,0.8
	c0,1.4-1.1,2.3-2.8,2.3c-0.5,0-0.9-0.1-1.3-0.2c-0.1,0.1-0.2,0.2-0.2,0.3c0,0.3,0.5,0.4,1.3,0.5c1.4,0.2,3.4,0.6,3.4,2.1
	c0,1.4-1.6,2.2-3.2,2.2c-1.7,0-3.3-0.7-3.3-2c0-0.4,0.2-1,0.9-1.4c-0.4-0.2-0.7-0.5-0.7-1c0-0.4,0.2-0.8,0.7-1.3
	c-0.4-0.4-0.6-0.9-0.6-1.5c0-1.4,1.2-2.4,2.9-2.4c0.4,0,0.8,0.1,1.1,0.2L71.2,84.6L71.2,84.6z M67.6,87.8c0.7,0,1.2-0.4,1.2-1
	c0-0.7-0.5-1.1-1.2-1.1s-1.2,0.4-1.2,1C66.4,87.4,66.9,87.8,67.6,87.8L67.6,87.8z M69,91.9c0-0.5-0.8-0.7-1.8-0.8
	c-0.1,0-0.3,0-0.4-0.1c-0.4,0.3-0.6,0.6-0.6,0.8c0,0.6,0.7,0.9,1.5,0.9C68.3,92.7,69,92.5,69,91.9L69,91.9z M76.3,84.4l-0.1,1.8
	c-0.5,0-1.5,0.1-2.2,0.6V91h-1.8v-6.4h1.6l0.1,0.9C74.7,84.8,75.5,84.4,76.3,84.4L76.3,84.4z M80.1,84.4c2.5,0,2.4,1.6,2.4,2.8V91
	H81l-0.1-0.6c-0.6,0.5-1.3,0.7-2,0.7c-1.1,0-2-0.6-2-1.9c0-1.5,1.8-2.1,3.9-2.2c0-0.9-0.1-1.2-0.9-1.2c-0.5,0-1.3,0.2-2.1,0.4
	l-0.3-1.4C78.5,84.5,79.4,84.4,80.1,84.4L80.1,84.4z M79.3,89.8c0.5,0,1-0.3,1.4-0.7v-1c-1.2,0.1-2.1,0.3-2.1,1.1
	C78.5,89.6,78.8,89.8,79.3,89.8z M86.3,84.4c0.6,0,1.4,0.1,2.1,0.3l-0.3,1.4c-0.5-0.2-1.2-0.4-1.8-0.4c-0.5,0-0.9,0.1-0.9,0.5
	c0,0.3,0.4,0.4,1,0.7c1.5,0.7,2.2,1.4,2.2,2.4c0,1.1-1,1.8-2.5,1.8c-0.7,0-1.5-0.2-2.4-0.5l0.3-1.4c0.6,0.3,1.5,0.5,2.1,0.5
	c0.5,0,0.8-0.1,0.8-0.5c0-0.3-0.3-0.5-1.2-1c-1.4-0.7-2-1.2-2-2.1C83.7,85.1,84.7,84.4,86.3,84.4L86.3,84.4z"/>
<path class="st2" d="M46.8,109.5v0.6h-1.1v1.7H45v-1.7h-2.9l-0.1-0.4l3.1-4.3h0.6v4.1L46.8,109.5L46.8,109.5z M42.9,109.5H45v-3
	L42.9,109.5z M49.5,107.9c1.3,0,2,0.8,2,1.9c0,1.2-0.8,2-2.2,2c-0.6,0-1.2-0.1-1.6-0.3l0.1-0.6c0.5,0.2,1,0.3,1.5,0.3
	c0.9,0,1.5-0.4,1.5-1.4c0-0.8-0.5-1.4-1.4-1.4c-0.4,0-0.8,0.1-1.1,0.2l-0.3-0.3l0.2-3.1h3v0.6h-2.4l-0.2,2
	C48.8,107.9,49.1,107.9,49.5,107.9L49.5,107.9z M59.9,111.7l-0.7-1.9h-2.7l-0.7,1.9h-0.7l2.3-6.4h0.9l2.3,6.4H59.9L59.9,111.7z
	 M57.9,106l-1.2,3.2H59C59,109.2,57.9,106,57.9,106z M63.7,111.1l0.1,0.6c-0.4,0.1-0.8,0.2-1.1,0.2c-1.1,0-1.3-0.8-1.3-2.2v-2.3
	h-0.7v-0.6h0.7v-1.1l0.7-0.1v1.2h1.6v0.6h-1.6v2.3c0,1.2,0.2,1.6,0.7,1.6C63.1,111.2,63.4,111.2,63.7,111.1L63.7,111.1z M65.4,106.1
	c-0.3,0-0.5-0.2-0.5-0.5c0-0.3,0.2-0.5,0.5-0.5c0.3,0,0.5,0.2,0.5,0.5C65.9,105.9,65.7,106.1,65.4,106.1z M65.8,106.8v4.9h-0.7v-4.9
	H65.8z M70.4,106.8h0.7l-1.6,4.9h-0.9l-1.6-4.9h0.7l1.4,4.3L70.4,106.8z M74,106.7c1.4,0,2.3,1,2.3,2.6c0,1.6-0.9,2.6-2.3,2.6
	s-2.3-1-2.3-2.6S72.6,106.7,74,106.7z M74,107.3c-1,0-1.6,0.8-1.6,2s0.6,2,1.6,2c0.9,0,1.6-0.8,1.6-2S74.9,107.3,74,107.3z
	 M80.8,111.7h-0.7l1.9-7.4h0.7L80.8,111.7z M89.6,108.5c0.7,0.3,1.2,0.8,1.2,1.6c0,1.1-1.1,1.7-2.1,1.7c-1.1,0-2.1-0.6-2.1-1.8
	c0-0.7,0.4-1.3,1.2-1.7c-0.6-0.3-1-0.8-1-1.5c0-1,0.8-1.6,1.9-1.6c1.1,0,1.9,0.7,1.9,1.6C90.6,107.6,90.2,108.2,89.6,108.5
	L89.6,108.5z M88.8,105.8c-0.7,0-1.2,0.4-1.2,1c0,0.7,0.7,1,1.5,1.4l0,0c0.4-0.3,0.9-0.7,0.9-1.3C89.9,106.2,89.4,105.8,88.8,105.8
	L88.8,105.8z M88.8,111.2c0.7,0,1.3-0.4,1.3-1.1c0-0.7-0.7-1-1.5-1.4c-0.1,0-0.1-0.1-0.2-0.1c-0.7,0.3-1.1,0.7-1.1,1.3
	C87.3,110.8,88.1,111.2,88.8,111.2L88.8,111.2z M96.5,109.5v0.6h-1.1v1.7h-0.7v-1.7h-2.9l-0.1-0.4l3.1-4.3h0.6v4.1
	C95.5,109.5,96.5,109.5,96.5,109.5z M92.7,109.5h2.1v-3L92.7,109.5z"/>
<path class="st0" d="M152.3,0h126.6c2.7,0,4.9,2.2,4.9,4.9v118.7c0,2.7-2.2,4.9-4.9,4.9H152.3c-2.7,0-4.9-2.2-4.9-4.9V4.9
	C147.3,2.2,149.6,0,152.3,0z"/>
<path class="st1" d="M301.6,0h126.6c2.7,0,4.9,2.2,4.9,4.9v118.7c0,2.7-2.2,4.9-4.9,4.9H301.6c-2.7,0-4.9-2.2-4.9-4.9V4.9
	C296.7,2.2,298.9,0,301.6,0z"/>
<path class="st0" d="M450.9,0h126.6c2.7,0,4.9,2.2,4.9,4.9v118.7c0,2.7-2.2,4.9-4.9,4.9H450.9c-2.7,0-4.9-2.2-4.9-4.9V4.9
	C446,2.2,448.2,0,450.9,0z"/>
<path class="st2" d="M189.7,71.6c0.9,0.5,1.3,1.2,1.3,2.1c0,1.3-1,2.4-2.8,2.4h-3.7v-8.4h3.2c1.7,0,2.7,1,2.7,2.2
	C190.4,70.7,190.2,71.2,189.7,71.6L189.7,71.6z M188.5,70.2c0-0.5-0.3-0.9-0.9-0.9h-1.3v1.8h1.3C188.3,71.1,188.5,70.6,188.5,70.2z
	 M188,74.6c0.7,0,1.1-0.5,1.1-1s-0.4-1.1-1.1-1.1h-1.7v2.1C186.4,74.6,188,74.6,188,74.6z M195.1,69.6c2.5,0,2.4,1.6,2.4,2.8v3.8
	H196l-0.1-0.6c-0.6,0.5-1.3,0.7-2,0.7c-1.1,0-2-0.6-2-1.9c0-1.5,1.8-2.1,3.9-2.2c0-0.9-0.1-1.2-0.9-1.2c-0.5,0-1.3,0.2-2.1,0.4
	l-0.3-1.4C193.5,69.7,194.4,69.6,195.1,69.6L195.1,69.6z M194.3,75c0.5,0,1-0.3,1.4-0.7v-1c-1.2,0.1-2.1,0.3-2.1,1.1
	C193.5,74.8,193.8,75,194.3,75L194.3,75z M203,69.6c1.5,0,2.2,0.9,2.2,2.6v4h-1.8v-3.9c0-0.9-0.4-1.2-0.9-1.2c-0.4,0-1,0.2-1.5,0.6
	v4.5h-1.8v-6.4h1.5l0.2,0.8C201.5,69.9,202.2,69.6,203,69.6L203,69.6z M209.7,69.6c0.7,0,1.4,0.1,2,0.3l-0.3,1.3
	c-0.4-0.1-0.9-0.2-1.2-0.2c-1.1,0-1.9,0.5-1.9,1.9c0,1.3,0.8,1.9,1.9,1.9c0.4,0,1-0.1,1.4-0.2l0.2,1.3c-0.5,0.3-1.4,0.4-2.1,0.4
	c-1.7,0-3.2-1-3.2-3.4C206.5,70.5,208,69.6,209.7,69.6L209.7,69.6z M215.7,69.6c2,0,3.2,1.5,3.2,3.4c0,1.9-1.2,3.4-3.2,3.4
	s-3.2-1.5-3.2-3.4C212.5,71,213.7,69.6,215.7,69.6z M215.7,71c-0.8,0-1.3,0.7-1.3,2c0,1.2,0.5,2,1.3,2s1.4-0.7,1.4-2
	C217.1,71.7,216.5,71,215.7,71z M228.9,76.1l-0.6-1.9h-2.9l-0.6,1.9h-1.8l2.9-8.4h2.1l2.8,8.4H228.9L228.9,76.1z M227.8,72.7
	l-0.9-3.1l-1,3.1H227.8z M235.4,76.3c-3,0-4.2-1.9-4.2-4.3c0-2.7,1.7-4.3,4.3-4.3c0.8,0,1.7,0.1,2.4,0.4l-0.4,1.5
	c-0.5-0.2-1.2-0.3-1.8-0.3c-1.4,0-2.5,0.8-2.5,2.7c0,1.7,1,2.7,2.5,2.7c0.6,0,1.2-0.2,1.8-0.4l0.6,1.5
	C237.2,76.2,236.2,76.3,235.4,76.3L235.4,76.3z M244.8,67.8h1.9v8.4h-1.9v-3.5h-3.4v3.5h-1.9v-8.4h1.9v3.3h3.4V67.8z M201.2,91
	l-1.8-2.7h-1V91h-1.9v-8.4h3.2c1.9,0,2.9,1.4,2.9,2.8c0,1-0.4,2-1.5,2.4l2,3.1H201.2L201.2,91z M198.4,84.1v2.7h1.2
	c0.8,0,1.2-0.7,1.2-1.3c0-0.7-0.4-1.3-1.2-1.3H198.4z M206.9,84.4c2.2,0,3.1,1.6,2.8,3.8h-4.1c0.2,1,1,1.5,2,1.5
	c0.5,0,1.1-0.1,1.5-0.3l0.2,1.3c-0.5,0.3-1.4,0.4-2.2,0.4c-1.7,0-3.3-1.1-3.3-3.4C203.8,85.6,205.2,84.4,206.9,84.4L206.9,84.4z
	 M206.9,85.8c-0.7,0-1.2,0.6-1.3,1.3h2.4C208,86.2,207.6,85.8,206.9,85.8z M217.6,84.6V86h-1c0.1,0.2,0.1,0.5,0.1,0.8
	c0,1.4-1.1,2.3-2.8,2.3c-0.5,0-0.9-0.1-1.3-0.2c-0.1,0.1-0.2,0.2-0.2,0.3c0,0.3,0.5,0.4,1.3,0.5c1.4,0.2,3.4,0.6,3.4,2.1
	c0,1.4-1.6,2.2-3.2,2.2c-1.7,0-3.3-0.7-3.3-2c0-0.4,0.2-1,0.9-1.4c-0.4-0.2-0.7-0.5-0.7-1c0-0.4,0.2-0.8,0.7-1.3
	c-0.4-0.4-0.6-0.9-0.6-1.5c0-1.4,1.2-2.4,2.9-2.4c0.4,0,0.8,0.1,1.1,0.2L217.6,84.6L217.6,84.6z M213.9,87.8c0.7,0,1.2-0.4,1.2-1
	c0-0.7-0.5-1.1-1.2-1.1s-1.2,0.4-1.2,1C212.7,87.4,213.2,87.8,213.9,87.8L213.9,87.8z M215.3,91.9c0-0.5-0.8-0.7-1.8-0.8
	c-0.1,0-0.3,0-0.4-0.1c-0.4,0.3-0.6,0.6-0.6,0.8c0,0.6,0.7,0.9,1.5,0.9C214.7,92.7,215.3,92.5,215.3,91.9L215.3,91.9z M222.7,84.4
	l-0.1,1.8c-0.5,0-1.5,0.1-2.2,0.6V91h-1.8v-6.4h1.6l0.1,0.9C221,84.8,221.9,84.4,222.7,84.4L222.7,84.4z M226.5,84.4
	c2.5,0,2.4,1.6,2.4,2.8V91h-1.5l-0.1-0.6c-0.6,0.5-1.3,0.7-2,0.7c-1.1,0-2-0.6-2-1.9c0-1.5,1.8-2.1,3.9-2.2c0-0.9-0.1-1.2-0.9-1.2
	c-0.5,0-1.3,0.2-2.1,0.4l-0.3-1.4C224.8,84.5,225.7,84.4,226.5,84.4L226.5,84.4z M225.7,89.8c0.5,0,1-0.3,1.4-0.7v-1
	c-1.2,0.1-2.1,0.3-2.1,1.1C224.9,89.6,225.2,89.8,225.7,89.8L225.7,89.8z M232.7,84.4c0.6,0,1.4,0.1,2.1,0.3l-0.3,1.4
	c-0.5-0.2-1.2-0.4-1.8-0.4c-0.5,0-0.9,0.1-0.9,0.5c0,0.3,0.4,0.4,1,0.7c1.5,0.7,2.2,1.4,2.2,2.4c0,1.1-1,1.8-2.5,1.8
	c-0.7,0-1.5-0.2-2.4-0.5l0.3-1.4c0.6,0.3,1.5,0.5,2.1,0.5c0.5,0,0.8-0.1,0.8-0.5c0-0.3-0.3-0.5-1.2-1c-1.4-0.7-2-1.2-2-2.1
	C230.1,85.1,231.1,84.4,232.7,84.4L232.7,84.4z"/>
<path class="st2" d="M191.3,108.2c0.9,0.3,1.3,1,1.3,1.8c0,1-0.6,1.8-2.2,1.8c-0.7,0-1.2-0.2-1.7-0.3l0.1-0.6c0.5,0.2,1,0.3,1.6,0.3
	c0.8,0,1.5-0.4,1.5-1.2c0-0.8-0.8-1.4-2.1-1.4V108c1.2,0,1.9-0.6,1.9-1.3c0-0.5-0.2-0.8-1.1-0.8c-0.6,0-1.1,0.1-1.4,0.2l-0.1-0.6
	c0.4-0.1,1.1-0.2,1.7-0.2c1.1,0,1.7,0.5,1.7,1.4C192.5,107.4,192,107.9,191.3,108.2L191.3,108.2z M194.9,111.1h3v0.6h-4l-0.1-0.4
	c1-1,1.9-2.1,2.5-2.9c0.4-0.6,0.7-1.1,0.7-1.5c0-0.7-0.4-1-1.1-1c-0.7,0-1.3,0.1-2,0.4l-0.1-0.6c0.8-0.3,1.5-0.4,2.2-0.4
	c1.1,0,1.7,0.7,1.7,1.6c0,0.6-0.3,1.2-0.8,1.8C196.4,109.4,195.7,110.2,194.9,111.1L194.9,111.1z M206.2,111.7l-0.7-1.9h-2.7
	l-0.7,1.9h-0.7l2.3-6.4h0.9l2.3,6.4H206.2L206.2,111.7z M204.2,106l-1.2,3.2h2.3L204.2,106L204.2,106z M210,111.1l0.1,0.6
	c-0.4,0.1-0.8,0.2-1.1,0.2c-1.1,0-1.3-0.8-1.3-2.2v-2.3h-0.7v-0.6h0.7v-1.1l0.7-0.1v1.2h1.6v0.6h-1.6v2.3c0,1.2,0.2,1.6,0.7,1.6
	C209.4,111.2,209.7,111.2,210,111.1L210,111.1z M211.7,106.1c-0.3,0-0.5-0.2-0.5-0.5c0-0.3,0.2-0.5,0.5-0.5c0.3,0,0.5,0.2,0.5,0.5
	C212.2,105.9,212,106.1,211.7,106.1z M212.1,106.8v4.9h-0.7v-4.9H212.1z M216.7,106.8h0.7l-1.6,4.9h-0.9l-1.6-4.9h0.7l1.4,4.3
	L216.7,106.8L216.7,106.8z M220.3,106.7c1.4,0,2.3,1,2.3,2.6c0,1.6-0.9,2.6-2.3,2.6s-2.3-1-2.3-2.6S218.9,106.7,220.3,106.7z
	 M220.3,107.3c-1,0-1.6,0.8-1.6,2s0.6,2,1.6,2c0.9,0,1.6-0.8,1.6-2S221.2,107.3,220.3,107.3z M227.1,111.7h-0.7l1.9-7.4h0.7
	L227.1,111.7z M237.5,109.5v0.6h-1.1v1.7h-0.7v-1.7h-2.9l-0.1-0.4l3.1-4.3h0.6v4.1C236.5,109.5,237.5,109.5,237.5,109.5z
	 M233.7,109.5h2.1v-3L233.7,109.5z M240.2,107.9c1.3,0,2,0.8,2,1.9c0,1.2-0.8,2-2.2,2c-0.6,0-1.2-0.1-1.6-0.3l0.1-0.6
	c0.5,0.2,1,0.3,1.5,0.3c0.9,0,1.5-0.4,1.5-1.4c0-0.8-0.5-1.4-1.4-1.4c-0.4,0-0.8,0.1-1.1,0.2l-0.3-0.3l0.2-3.1h3v0.6h-2.4l-0.2,2
	C239.6,107.9,239.9,107.9,240.2,107.9L240.2,107.9z"/>
<path class="st0" d="M331.4,76.3c-3,0-4.2-1.9-4.2-4.3c0-2.7,1.7-4.3,4.3-4.3c0.8,0,1.7,0.1,2.4,0.4l-0.4,1.5
	c-0.5-0.2-1.2-0.3-1.8-0.3c-1.4,0-2.5,0.8-2.5,2.7c0,1.7,1,2.7,2.5,2.7c0.6,0,1.2-0.2,1.8-0.4l0.6,1.5
	C333.1,76.2,332.1,76.3,331.4,76.3L331.4,76.3z M339.4,69.6l-0.1,1.8c-0.5,0-1.5,0.1-2.2,0.6v4.2h-1.8v-6.4h1.6l0.1,0.9
	C337.8,69.9,338.7,69.6,339.4,69.6L339.4,69.6z M341.6,68.9c-0.6,0-1.1-0.5-1.1-1.1s0.5-1.1,1.1-1.1s1.1,0.5,1.1,1.1
	S342.2,68.9,341.6,68.9z M342.5,69.7v6.4h-1.8v-6.4H342.5z M347.9,69.6c1.4,0,2.6,1.2,2.6,3.3c0,2.3-1.5,3.4-3,3.4
	c-0.4,0-0.9-0.1-1.4-0.3v2.6l-1.8,0.2v-9.2h1.5l0.1,0.6C346.5,69.8,347.2,69.6,347.9,69.6L347.9,69.6z M347,74.9c1,0,1.7-0.6,1.7-2
	c0-1.2-0.6-1.8-1.3-1.8c-0.4,0-0.8,0.2-1.2,0.4v3.2C346.4,74.8,346.7,74.9,347,74.9L347,74.9z M355.6,74.7l0.2,1.3
	c-0.6,0.2-1.1,0.3-1.6,0.3c-1.5,0-2.1-1-2.1-3v-2.2h-0.8v-1.4h0.8v-1.3l1.8-0.3v1.6h1.8v1.4h-1.8v2.3c0,1,0.2,1.4,0.8,1.4
	C354.9,74.8,355.2,74.8,355.6,74.7L355.6,74.7z M359.6,69.6c2,0,3.2,1.5,3.2,3.4c0,1.9-1.2,3.4-3.2,3.4s-3.2-1.5-3.2-3.4
	C356.4,71,357.6,69.6,359.6,69.6z M359.6,71c-0.8,0-1.3,0.7-1.3,2c0,1.2,0.5,2,1.3,2s1.4-0.7,1.4-2C361,71.7,360.5,71,359.6,71z
	 M371.8,69.6c1.4,0,2.1,0.9,2.1,2.6v4h-1.8v-3.9c0-0.9-0.4-1.2-0.9-1.2c-0.4,0-0.8,0.2-1.3,0.6c0,0.2,0,0.3,0,0.5v4h-1.8v-3.9
	c0-0.9-0.4-1.2-0.9-1.2c-0.3,0-0.8,0.2-1.3,0.6v4.5h-1.8v-6.4h1.5l0.1,0.7c0.6-0.6,1.3-0.9,2-0.9c0.9,0,1.5,0.4,1.8,1
	C370.3,69.9,371,69.6,371.8,69.6L371.8,69.6z M378.3,69.6c2,0,3.2,1.5,3.2,3.4c0,1.9-1.2,3.4-3.2,3.4s-3.2-1.5-3.2-3.4
	C375.2,71,376.4,69.6,378.3,69.6z M378.3,71c-0.8,0-1.3,0.7-1.3,2c0,1.2,0.5,2,1.3,2s1.4-0.7,1.4-2C379.7,71.7,379.2,71,378.3,71z
	 M385.5,69.6c2.2,0,3.1,1.6,2.8,3.8h-4.1c0.2,1,1,1.5,2,1.5c0.5,0,1.1-0.1,1.5-0.3l0.2,1.3c-0.5,0.3-1.4,0.4-2.2,0.4
	c-1.7,0-3.3-1.1-3.3-3.4C382.5,70.7,383.9,69.6,385.5,69.6L385.5,69.6z M385.5,70.9c-0.7,0-1.2,0.6-1.3,1.3h2.4
	C386.6,71.4,386.2,70.9,385.5,70.9z M393.7,67.1l1.8-0.3v9.3H394l-0.1-0.6c-0.6,0.5-1.2,0.8-1.9,0.8c-1.4,0-2.6-1.2-2.6-3.3
	c0-2.3,1.5-3.4,3-3.4c0.4,0,0.9,0.1,1.4,0.3L393.7,67.1L393.7,67.1z M391.1,73c0,1.2,0.6,1.8,1.3,1.8c0.4,0,0.8-0.2,1.2-0.4v-3.2
	c-0.3-0.1-0.6-0.1-0.9-0.1C391.9,71,391.1,71.6,391.1,73L391.1,73z M400.1,69.6c2.5,0,2.4,1.6,2.4,2.8v3.8h-1.5l-0.1-0.6
	c-0.6,0.5-1.3,0.7-2,0.7c-1.1,0-2-0.6-2-1.9c0-1.5,1.8-2.1,3.9-2.2c0-0.9-0.1-1.2-0.9-1.2c-0.5,0-1.3,0.2-2.1,0.4l-0.3-1.4
	C398.4,69.7,399.3,69.6,400.1,69.6L400.1,69.6z M399.3,75c0.5,0,1-0.3,1.4-0.7v-1c-1.2,0.1-2.1,0.3-2.1,1.1
	C398.5,74.8,398.8,75,399.3,75z M350.5,91l-1.8-2.7h-1V91h-1.9v-8.4h3.2c1.9,0,2.9,1.4,2.9,2.8c0,1-0.5,2-1.5,2.4l2,3.1H350.5
	L350.5,91z M347.8,84.1v2.7h1.2c0.8,0,1.2-0.7,1.2-1.3c0-0.7-0.4-1.3-1.2-1.3H347.8z M356.2,84.4c2.2,0,3.1,1.6,2.8,3.8h-4.1
	c0.2,1,1,1.5,2,1.5c0.5,0,1.1-0.1,1.5-0.3l0.2,1.3c-0.5,0.3-1.4,0.4-2.2,0.4c-1.7,0-3.3-1.1-3.3-3.4
	C353.2,85.6,354.6,84.4,356.2,84.4L356.2,84.4z M356.2,85.8c-0.7,0-1.2,0.6-1.3,1.3h2.4C357.3,86.2,356.9,85.8,356.2,85.8
	L356.2,85.8z M366.9,84.6V86h-1c0.1,0.2,0.1,0.5,0.1,0.8c0,1.4-1.1,2.3-2.8,2.3c-0.5,0-0.9-0.1-1.3-0.2c-0.1,0.1-0.2,0.2-0.2,0.3
	c0,0.3,0.5,0.4,1.3,0.5c1.4,0.2,3.4,0.6,3.4,2.1c0,1.4-1.6,2.2-3.2,2.2c-1.7,0-3.3-0.7-3.3-2c0-0.4,0.2-1,0.9-1.4
	c-0.4-0.2-0.7-0.5-0.7-1c0-0.4,0.2-0.8,0.7-1.3c-0.4-0.4-0.6-0.9-0.6-1.5c0-1.4,1.2-2.4,2.9-2.4c0.4,0,0.8,0.1,1.1,0.2L366.9,84.6
	L366.9,84.6z M363.3,87.8c0.7,0,1.2-0.4,1.2-1c0-0.7-0.5-1.1-1.2-1.1s-1.2,0.4-1.2,1C362,87.4,362.6,87.8,363.3,87.8L363.3,87.8z
	 M364.7,91.9c0-0.5-0.8-0.7-1.8-0.8c-0.1,0-0.3,0-0.4-0.1c-0.4,0.3-0.6,0.6-0.6,0.8c0,0.6,0.7,0.9,1.5,0.9
	C364,92.7,364.7,92.5,364.7,91.9L364.7,91.9z M372,84.4l-0.1,1.8c-0.5,0-1.5,0.1-2.2,0.6V91h-1.8v-6.4h1.6l0.1,0.9
	C370.3,84.8,371.2,84.4,372,84.4L372,84.4z M375.8,84.4c2.5,0,2.4,1.6,2.4,2.8V91h-1.5l-0.1-0.6c-0.6,0.5-1.3,0.7-2,0.7
	c-1.1,0-2-0.6-2-1.9c0-1.5,1.8-2.1,3.9-2.2c0-0.9-0.1-1.2-0.9-1.2c-0.5,0-1.3,0.2-2.1,0.4l-0.3-1.4
	C374.2,84.5,375.1,84.4,375.8,84.4L375.8,84.4z M375,89.8c0.5,0,1-0.3,1.4-0.7v-1c-1.2,0.1-2.1,0.3-2.1,1.1
	C374.2,89.6,374.5,89.8,375,89.8z M382,84.4c0.6,0,1.4,0.1,2.1,0.3l-0.3,1.4c-0.5-0.2-1.2-0.4-1.8-0.4c-0.5,0-0.9,0.1-0.9,0.5
	c0,0.3,0.4,0.4,1,0.7c1.5,0.7,2.2,1.4,2.2,2.4c0,1.1-1,1.8-2.5,1.8c-0.7,0-1.5-0.2-2.4-0.5l0.3-1.4c0.6,0.3,1.5,0.5,2.1,0.5
	c0.5,0,0.8-0.1,0.8-0.5c0-0.3-0.3-0.5-1.2-1c-1.4-0.7-2-1.2-2-2.1C379.4,85.1,380.4,84.4,382,84.4L382,84.4z"/>
<path class="st0" d="M340.7,108.2c0.9,0.3,1.3,1,1.3,1.8c0,1-0.6,1.8-2.2,1.8c-0.7,0-1.2-0.2-1.7-0.3l0.1-0.6c0.5,0.2,1,0.3,1.6,0.3
	c0.8,0,1.5-0.4,1.5-1.2c0-0.8-0.8-1.4-2.1-1.4V108c1.2,0,1.9-0.6,1.9-1.3c0-0.5-0.2-0.8-1.1-0.8c-0.6,0-1.1,0.1-1.4,0.2l-0.1-0.6
	c0.4-0.1,1.1-0.2,1.7-0.2c1.1,0,1.7,0.5,1.7,1.4C341.9,107.4,341.4,107.9,340.7,108.2L340.7,108.2z M346,108.5
	c0.7,0.3,1.2,0.8,1.2,1.6c0,1.1-1.1,1.7-2.1,1.7c-1.1,0-2.1-0.6-2.1-1.8c0-0.7,0.4-1.3,1.2-1.7c-0.6-0.3-1-0.8-1-1.5
	c0-1,0.8-1.6,1.9-1.6c1.1,0,1.9,0.7,1.9,1.6C347,107.6,346.6,108.2,346,108.5L346,108.5z M345.2,105.8c-0.7,0-1.2,0.4-1.2,1
	c0,0.7,0.7,1,1.5,1.4l0,0c0.4-0.3,0.9-0.7,0.9-1.3C346.3,106.2,345.8,105.8,345.2,105.8L345.2,105.8z M345.2,111.2
	c0.7,0,1.3-0.4,1.3-1.1c0-0.7-0.7-1-1.5-1.4c-0.1,0-0.1-0.1-0.2-0.1c-0.7,0.3-1.1,0.7-1.1,1.3C343.7,110.8,344.5,111.2,345.2,111.2
	L345.2,111.2z M355.6,111.7l-0.7-1.9h-2.7l-0.7,1.9h-0.7l2.3-6.4h0.9l2.3,6.4H355.6L355.6,111.7z M353.6,106l-1.2,3.2h2.3L353.6,106
	z M359.5,111.1l0.1,0.6c-0.4,0.1-0.8,0.2-1.1,0.2c-1.1,0-1.3-0.8-1.3-2.2v-2.3h-0.7v-0.6h0.7v-1.1l0.7-0.1v1.2h1.6v0.6h-1.6v2.3
	c0,1.2,0.2,1.6,0.7,1.6C358.9,111.2,359.2,111.2,359.5,111.1L359.5,111.1z M361.2,106.1c-0.3,0-0.5-0.2-0.5-0.5
	c0-0.3,0.2-0.5,0.5-0.5c0.3,0,0.5,0.2,0.5,0.5C361.7,105.9,361.4,106.1,361.2,106.1z M361.5,106.8v4.9h-0.7v-4.9H361.5z
	 M366.2,106.8h0.7l-1.6,4.9h-0.9l-1.6-4.9h0.7l1.4,4.3L366.2,106.8L366.2,106.8z M369.7,106.7c1.4,0,2.3,1,2.3,2.6
	c0,1.6-0.9,2.6-2.3,2.6s-2.3-1-2.3-2.6S368.3,106.7,369.7,106.7z M369.7,107.3c-1,0-1.6,0.8-1.6,2s0.6,2,1.6,2c0.9,0,1.6-0.8,1.6-2
	S370.7,107.3,369.7,107.3z M376.6,111.7h-0.7l1.9-7.4h0.7L376.6,111.7L376.6,111.7z M384.3,107.9c1.3,0,2,0.8,2,1.9
	c0,1.2-0.8,2-2.2,2c-0.6,0-1.2-0.1-1.6-0.3l0.1-0.6c0.5,0.2,1,0.3,1.5,0.3c0.9,0,1.5-0.4,1.5-1.4c0-0.8-0.5-1.4-1.4-1.4
	c-0.4,0-0.8,0.1-1.1,0.2l-0.3-0.3l0.2-3.1h3v0.6h-2.4l-0.2,2C383.6,107.9,383.9,107.9,384.3,107.9L384.3,107.9z M388.6,111.1h3v0.6
	h-4l-0.1-0.4c1-1,1.9-2.1,2.5-2.9c0.4-0.6,0.7-1.1,0.7-1.5c0-0.7-0.4-1-1.1-1c-0.7,0-1.3,0.1-2,0.4l-0.1-0.6
	c0.8-0.3,1.5-0.4,2.2-0.4c1.1,0,1.7,0.7,1.7,1.6c0,0.6-0.3,1.2-0.8,1.8C390.1,109.4,389.4,110.2,388.6,111.1L388.6,111.1z"/>
<path class="st2" d="M453.5,76.1l-1.8-2.7h-1v2.7h-1.9v-8.4h3.2c1.9,0,2.9,1.4,2.9,2.8c0,1-0.5,2-1.5,2.4l2,3.1H453.5L453.5,76.1z
	 M450.7,69.3v2.7h1.2c0.8,0,1.2-0.7,1.2-1.3c0-0.7-0.4-1.3-1.2-1.3H450.7z M459.2,69.6c2.2,0,3.1,1.6,2.8,3.8h-4.1
	c0.2,1,1,1.5,2,1.5c0.5,0,1.1-0.1,1.5-0.3l0.2,1.3c-0.5,0.3-1.4,0.4-2.2,0.4c-1.7,0-3.3-1.1-3.3-3.4
	C456.1,70.7,457.5,69.6,459.2,69.6L459.2,69.6z M459.2,70.9c-0.7,0-1.2,0.6-1.3,1.3h2.4C460.3,71.4,459.9,70.9,459.2,70.9
	L459.2,70.9z M469.9,69.7v1.4h-1c0.1,0.2,0.1,0.5,0.1,0.8c0,1.4-1.1,2.3-2.8,2.3c-0.5,0-0.9-0.1-1.3-0.2c-0.1,0.1-0.2,0.2-0.2,0.3
	c0,0.3,0.5,0.4,1.3,0.5c1.4,0.2,3.4,0.6,3.4,2.1c0,1.4-1.6,2.2-3.2,2.2c-1.7,0-3.3-0.7-3.3-2c0-0.4,0.2-1,0.9-1.4
	c-0.4-0.2-0.7-0.5-0.7-1c0-0.4,0.2-0.8,0.7-1.3c-0.4-0.4-0.6-0.9-0.6-1.5c0-1.4,1.2-2.4,2.9-2.4c0.4,0,0.8,0.1,1.1,0.2L469.9,69.7
	L469.9,69.7z M466.2,73c0.7,0,1.2-0.4,1.2-1c0-0.7-0.5-1.1-1.2-1.1s-1.2,0.4-1.2,1C465,72.6,465.5,73,466.2,73L466.2,73z M467.6,77
	c0-0.5-0.8-0.7-1.8-0.8c-0.1,0-0.3,0-0.4-0.1c-0.4,0.3-0.6,0.6-0.6,0.8c0,0.6,0.7,0.9,1.5,0.9C467,77.9,467.6,77.6,467.6,77
	L467.6,77z M475,69.6l-0.1,1.8c-0.5,0-1.5,0.1-2.2,0.6v4.2h-1.8v-6.4h1.6l0.1,0.9C473.3,69.9,474.2,69.6,475,69.6L475,69.6z
	 M478.8,69.6c2.5,0,2.4,1.6,2.4,2.8v3.8h-1.5l-0.1-0.6c-0.6,0.5-1.3,0.7-2,0.7c-1.1,0-2-0.6-2-1.9c0-1.5,1.8-2.1,3.9-2.2
	c0-0.9-0.1-1.2-0.9-1.2c-0.5,0-1.3,0.2-2.1,0.4l-0.3-1.4C477.1,69.7,478,69.6,478.8,69.6L478.8,69.6z M478,75c0.5,0,1-0.3,1.4-0.7
	v-1c-1.2,0.1-2.1,0.3-2.1,1.1C477.2,74.8,477.5,75,478,75z M485,69.6c0.6,0,1.4,0.1,2.1,0.3l-0.3,1.4c-0.5-0.2-1.2-0.4-1.8-0.4
	c-0.5,0-0.9,0.1-0.9,0.5c0,0.3,0.4,0.4,1,0.7c1.5,0.7,2.2,1.4,2.2,2.4c0,1.1-1,1.8-2.5,1.8c-0.7,0-1.5-0.2-2.4-0.5l0.3-1.4
	c0.6,0.3,1.5,0.5,2.1,0.5c0.5,0,0.8-0.1,0.8-0.5c0-0.3-0.3-0.5-1.2-1c-1.4-0.7-2-1.2-2-2.1C482.4,70.2,483.4,69.6,485,69.6L485,69.6
	z M496,67.1l1.8-0.3v9.3h-1.5l-0.1-0.6c-0.6,0.5-1.2,0.8-1.9,0.8c-1.4,0-2.6-1.2-2.6-3.3c0-2.3,1.5-3.4,3-3.4c0.4,0,0.9,0.1,1.4,0.3
	L496,67.1L496,67.1z M493.4,73c0,1.2,0.6,1.8,1.3,1.8c0.4,0,0.8-0.2,1.2-0.4v-3.2c-0.3-0.1-0.6-0.1-0.9-0.1
	C494.2,71,493.4,71.6,493.4,73L493.4,73z M502.3,69.6c2,0,3.2,1.5,3.2,3.4c0,1.9-1.2,3.4-3.2,3.4s-3.2-1.5-3.2-3.4
	C499.1,71,500.3,69.6,502.3,69.6z M502.3,71c-0.8,0-1.3,0.7-1.3,2c0,1.2,0.5,2,1.3,2s1.4-0.7,1.4-2C503.7,71.7,503.1,71,502.3,71z
	 M513.2,67.8c2,0,3,1.4,3,2.9s-1,2.9-3,2.9h-1.1v2.5h-1.9v-8.4H513.2z M513.1,72.1c0.8,0,1.2-0.7,1.2-1.4c0-0.7-0.4-1.4-1.2-1.4h-1
	v2.8L513.1,72.1L513.1,72.1z M521.6,69.6l-0.1,1.8c-0.5,0-1.5,0.1-2.2,0.6v4.2h-1.8v-6.4h1.6l0.1,0.9
	C520,69.9,520.8,69.6,521.6,69.6L521.6,69.6z M525.4,69.6c2,0,3.2,1.5,3.2,3.4c0,1.9-1.2,3.4-3.2,3.4s-3.2-1.5-3.2-3.4
	C522.2,71,523.4,69.6,525.4,69.6z M525.4,71c-0.8,0-1.3,0.7-1.3,2c0,1.2,0.5,2,1.3,2s1.4-0.7,1.4-2C526.8,71.7,526.2,71,525.4,71z
	 M532.8,69.6c0.7,0,1.4,0.1,2,0.3l-0.3,1.3c-0.4-0.1-0.9-0.2-1.2-0.2c-1.1,0-1.9,0.5-1.9,1.9c0,1.3,0.8,1.9,1.9,1.9
	c0.4,0,1-0.1,1.4-0.2l0.2,1.3c-0.5,0.3-1.4,0.4-2.1,0.4c-1.7,0-3.2-1-3.2-3.4C529.5,70.5,531,69.6,532.8,69.6L532.8,69.6z
	 M538.6,69.6c2.2,0,3.1,1.6,2.8,3.8h-4.1c0.2,1,1,1.5,2,1.5c0.5,0,1.1-0.1,1.5-0.3l0.2,1.3c-0.5,0.3-1.4,0.4-2.2,0.4
	c-1.7,0-3.3-1.1-3.3-3.4C535.6,70.7,537,69.6,538.6,69.6L538.6,69.6z M538.6,70.9c-0.7,0-1.2,0.6-1.3,1.3h2.4
	C539.7,71.4,539.3,70.9,538.6,70.9L538.6,70.9z M544.9,69.6c0.6,0,1.4,0.1,2.1,0.3l-0.3,1.4c-0.5-0.2-1.2-0.4-1.8-0.4
	c-0.5,0-0.9,0.1-0.9,0.5c0,0.3,0.4,0.4,1,0.7c1.5,0.7,2.2,1.4,2.2,2.4c0,1.1-1,1.8-2.5,1.8c-0.7,0-1.5-0.2-2.4-0.5l0.3-1.4
	c0.6,0.3,1.5,0.5,2.1,0.5c0.5,0,0.8-0.1,0.8-0.5c0-0.3-0.3-0.5-1.2-1c-1.4-0.7-2-1.2-2-2.1C542.3,70.2,543.3,69.6,544.9,69.6
	L544.9,69.6z M550.7,69.6c0.6,0,1.4,0.1,2.1,0.3l-0.3,1.4c-0.5-0.2-1.2-0.4-1.8-0.4c-0.5,0-0.9,0.1-0.9,0.5c0,0.3,0.4,0.4,1,0.7
	c1.5,0.7,2.2,1.4,2.2,2.4c0,1.1-1,1.8-2.5,1.8c-0.7,0-1.5-0.2-2.4-0.5l0.3-1.4c0.6,0.3,1.5,0.5,2.1,0.5c0.5,0,0.8-0.1,0.8-0.5
	c0-0.3-0.3-0.5-1.2-1c-1.4-0.7-2-1.2-2-2.1C548.1,70.2,549.1,69.6,550.7,69.6L550.7,69.6z M557.3,69.6c2.5,0,2.4,1.6,2.4,2.8v3.8
	h-1.5l-0.1-0.6c-0.6,0.5-1.3,0.7-2,0.7c-1.1,0-2-0.6-2-1.9c0-1.5,1.8-2.1,3.9-2.2c0-0.9-0.1-1.2-0.9-1.2c-0.5,0-1.3,0.2-2.1,0.4
	l-0.3-1.4C555.6,69.7,556.6,69.6,557.3,69.6L557.3,69.6z M556.5,75c0.5,0,1-0.3,1.4-0.7v-1c-1.2,0.1-2.1,0.3-2.1,1.1
	C555.7,74.8,556,75,556.5,75L556.5,75z M565.3,67.1l1.8-0.3v9.3h-1.5l-0.1-0.6c-0.6,0.5-1.2,0.8-1.9,0.8c-1.4,0-2.6-1.2-2.6-3.3
	c0-2.3,1.5-3.4,3-3.4c0.4,0,0.9,0.1,1.4,0.3L565.3,67.1L565.3,67.1z M562.8,73c0,1.2,0.6,1.8,1.3,1.8c0.4,0,0.8-0.2,1.2-0.4v-3.2
	c-0.3-0.1-0.6-0.1-0.9-0.1C563.5,71,562.8,71.6,562.8,73L562.8,73z M571.7,69.6c2,0,3.2,1.5,3.2,3.4c0,1.9-1.2,3.4-3.2,3.4
	s-3.2-1.5-3.2-3.4C568.5,71,569.7,69.6,571.7,69.6z M571.7,71c-0.8,0-1.3,0.7-1.3,2c0,1.2,0.5,2,1.3,2s1.4-0.7,1.4-2
	C573,71.7,572.5,71,571.7,71z M580.3,69.6l-0.1,1.8c-0.5,0-1.5,0.1-2.2,0.6v4.2h-1.8v-6.4h1.6l0.1,0.9
	C578.7,69.9,579.6,69.6,580.3,69.6z M476.9,82l1.8-0.3V91h-1.5l-0.1-0.6c-0.6,0.5-1.2,0.8-1.9,0.8c-1.4,0-2.6-1.2-2.6-3.3
	c0-2.3,1.5-3.4,3-3.4c0.4,0,0.9,0.1,1.4,0.3V82L476.9,82z M474.4,87.8c0,1.2,0.6,1.8,1.3,1.8c0.4,0,0.8-0.2,1.2-0.4V86
	c-0.3-0.1-0.6-0.1-0.9-0.1C475.1,85.8,474.4,86.4,474.4,87.8L474.4,87.8z M483.1,84.4c2.2,0,3.1,1.6,2.8,3.8h-4.1c0.2,1,1,1.5,2,1.5
	c0.5,0,1.1-0.1,1.5-0.3l0.2,1.3c-0.5,0.3-1.4,0.4-2.2,0.4c-1.7,0-3.3-1.1-3.3-3.4C480.1,85.6,481.5,84.4,483.1,84.4L483.1,84.4z
	 M483.2,85.8c-0.7,0-1.2,0.6-1.3,1.3h2.4C484.2,86.2,483.8,85.8,483.2,85.8z M493.7,82.6c2,0,3,1.4,3,2.9s-1,2.9-3,2.9h-1.1V91h-1.9
	v-8.4H493.7z M493.6,86.9c0.8,0,1.2-0.7,1.2-1.4c0-0.7-0.4-1.4-1.2-1.4h-1v2.8L493.6,86.9L493.6,86.9z M500.6,84.4
	c2.5,0,2.4,1.6,2.4,2.8V91h-1.5l-0.1-0.6c-0.6,0.5-1.3,0.7-2,0.7c-1.1,0-2-0.6-2-1.9c0-1.5,1.8-2.1,3.9-2.2c0-0.9-0.1-1.2-0.9-1.2
	c-0.5,0-1.3,0.2-2.1,0.4l-0.3-1.4C498.9,84.5,499.8,84.4,500.6,84.4L500.6,84.4z M499.8,89.8c0.5,0,1-0.3,1.4-0.7v-1
	c-1.2,0.1-2.1,0.3-2.1,1.1C499,89.6,499.3,89.8,499.8,89.8L499.8,89.8z M511.2,84.6V86h-1c0.1,0.2,0.1,0.5,0.1,0.8
	c0,1.4-1.1,2.3-2.8,2.3c-0.5,0-0.9-0.1-1.3-0.2c-0.1,0.1-0.2,0.2-0.2,0.3c0,0.3,0.5,0.4,1.3,0.5c1.4,0.2,3.4,0.6,3.4,2.1
	c0,1.4-1.6,2.2-3.2,2.2c-1.7,0-3.3-0.7-3.3-2c0-0.4,0.2-1,0.9-1.4c-0.4-0.2-0.7-0.5-0.7-1c0-0.4,0.2-0.8,0.7-1.3
	c-0.4-0.4-0.6-0.9-0.6-1.5c0-1.4,1.2-2.4,2.9-2.4c0.4,0,0.8,0.1,1.1,0.2L511.2,84.6L511.2,84.6z M507.5,87.8c0.7,0,1.2-0.4,1.2-1
	c0-0.7-0.5-1.1-1.2-1.1s-1.2,0.4-1.2,1C506.3,87.4,506.8,87.8,507.5,87.8L507.5,87.8z M508.9,91.9c0-0.5-0.8-0.7-1.8-0.8
	c-0.1,0-0.3,0-0.4-0.1c-0.5,0.3-0.6,0.6-0.6,0.8c0,0.6,0.7,0.9,1.5,0.9C508.3,92.7,508.9,92.5,508.9,91.9L508.9,91.9z M515,84.4
	c2.5,0,2.4,1.6,2.4,2.8V91h-1.5l-0.1-0.6c-0.6,0.5-1.3,0.7-2,0.7c-1.1,0-2-0.6-2-1.9c0-1.5,1.8-2.1,3.9-2.2c0-0.9-0.1-1.2-0.9-1.2
	c-0.5,0-1.3,0.2-2.1,0.4l-0.3-1.4C513.4,84.5,514.3,84.4,515,84.4L515,84.4z M514.2,89.8c0.5,0,1-0.3,1.4-0.7v-1
	c-1.2,0.1-2.1,0.3-2.1,1.1C513.4,89.6,513.7,89.8,514.2,89.8L514.2,89.8z M526.7,84.4c1.4,0,2.1,0.9,2.1,2.6v4h-1.8v-3.9
	c0-0.9-0.4-1.2-0.9-1.2c-0.4,0-0.8,0.2-1.3,0.6c0,0.2,0,0.3,0,0.5v4H523v-3.9c0-0.9-0.4-1.2-0.9-1.2c-0.3,0-0.8,0.2-1.3,0.6V91H519
	v-6.4h1.5l0.1,0.7c0.6-0.6,1.3-0.9,2-0.9c0.9,0,1.5,0.4,1.8,1C525.2,84.7,525.9,84.4,526.7,84.4L526.7,84.4z M533.1,84.4
	c2.2,0,3.1,1.6,2.8,3.8h-4.1c0.2,1,1,1.5,2,1.5c0.5,0,1.1-0.1,1.5-0.3l0.2,1.3c-0.5,0.3-1.4,0.4-2.2,0.4c-1.7,0-3.3-1.1-3.3-3.4
	C530,85.6,531.4,84.4,533.1,84.4L533.1,84.4z M533.1,85.8c-0.7,0-1.2,0.6-1.3,1.3h2.4C534.2,86.2,533.8,85.8,533.1,85.8z
	 M541.2,84.4c1.5,0,2.2,0.9,2.2,2.6v4h-1.8v-3.9c0-0.9-0.4-1.2-0.9-1.2c-0.4,0-1,0.2-1.5,0.6V91h-1.8v-6.4h1.5l0.2,0.8
	C539.6,84.7,540.3,84.4,541.2,84.4L541.2,84.4z M548.7,89.5l0.2,1.3c-0.6,0.2-1.1,0.3-1.6,0.3c-1.5,0-2.1-1-2.1-3V86h-0.8v-1.4h0.8
	v-1.3l1.8-0.3v1.6h1.8V86H547v2.3c0,1,0.2,1.4,0.8,1.4C548,89.7,548.3,89.6,548.7,89.5L548.7,89.5z M552.7,84.4c2,0,3.2,1.5,3.2,3.4
	c0,1.9-1.2,3.4-3.2,3.4s-3.2-1.5-3.2-3.4C549.5,85.9,550.7,84.4,552.7,84.4z M552.7,85.8c-0.8,0-1.3,0.7-1.3,2c0,1.2,0.5,2,1.3,2
	s1.4-0.7,1.4-2C554.1,86.5,553.6,85.8,552.7,85.8z"/>
<path class="st2" d="M490.6,105.3v6.4h-0.7v-5.7l-1.8,0.6l-0.2-0.6l2.3-0.8H490.6L490.6,105.3z M496.6,109.5v0.6h-1.1v1.7h-0.7v-1.7
	h-2.9l-0.1-0.4l3.1-4.3h0.6v4.1L496.6,109.5L496.6,109.5z M492.7,109.5h2.1v-3L492.7,109.5z M504.7,111.7l-0.7-1.9h-2.7l-0.7,1.9
	H500l2.3-6.4h0.9l2.3,6.4H504.7L504.7,111.7z M502.7,106l-1.2,3.2h2.3L502.7,106z M508.6,111.1l0.1,0.6c-0.4,0.1-0.8,0.2-1.1,0.2
	c-1.1,0-1.3-0.8-1.3-2.2v-2.3h-0.7v-0.6h0.7v-1.1l0.7-0.1v1.2h1.6v0.6H507v2.3c0,1.2,0.2,1.6,0.7,1.6
	C507.9,111.2,508.2,111.2,508.6,111.1L508.6,111.1z M510.3,106.1c-0.3,0-0.5-0.2-0.5-0.5c0-0.3,0.2-0.5,0.5-0.5
	c0.3,0,0.5,0.2,0.5,0.5C510.8,105.9,510.5,106.1,510.3,106.1z M510.6,106.8v4.9h-0.7v-4.9H510.6z M515.3,106.8h0.7l-1.6,4.9h-0.9
	l-1.6-4.9h0.7l1.4,4.3L515.3,106.8L515.3,106.8z M518.8,106.7c1.4,0,2.3,1,2.3,2.6c0,1.6-0.9,2.6-2.3,2.6s-2.3-1-2.3-2.6
	S517.4,106.7,518.8,106.7z M518.8,107.3c-1,0-1.6,0.8-1.6,2s0.6,2,1.6,2c0.9,0,1.6-0.8,1.6-2S519.8,107.3,518.8,107.3z M525.6,111.7
	h-0.7l1.9-7.4h0.7L525.6,111.7L525.6,111.7z M532.7,111.1h3v0.6h-4l-0.1-0.4c1-1,1.9-2.1,2.5-2.9c0.4-0.6,0.7-1.1,0.7-1.5
	c0-0.7-0.4-1-1.1-1c-0.7,0-1.3,0.1-2,0.4l-0.1-0.6c0.8-0.3,1.5-0.4,2.2-0.4c1.1,0,1.7,0.7,1.7,1.6c0,0.6-0.3,1.2-0.8,1.8
	C534.3,109.4,533.5,110.2,532.7,111.1z M540.5,105.3l0.1,0.3l-2.6,6.1h-0.7l2.4-5.8h-3v-0.6H540.5L540.5,105.3z"/>
<g>
	<defs>
		<rect id="SVGID_1_" x="50.4" y="10.9" width="37.6" height="40.5"/>
	</defs>
	<clipPath id="SVGID_00000112613222228671925300000009178296833306730665_">
		<use xlink:href="#SVGID_1_"  style="overflow:visible;"/>
	</clipPath>
	<g style="clip-path:url(#SVGID_00000112613222228671925300000009178296833306730665_);">
		<path class="st1" d="M87,29.9L69.5,11.9c-0.7-0.7-1.6-1.1-2.5-1.1c-0.9,0-1.8,0.4-2.5,1.1l-9.6,9.8c-1.4,1.4-1.4,3.7,0,5.2
			l1.6,1.7h3.7l-3.4-3.6c-0.2-0.2-0.3-0.6-0.3-0.7c0-0.1,0-0.4,0.3-0.7l1.3-1.3l6,6.2h5.8l-8.9-9.2l5.4-5.6c0.2-0.2,0.5-0.3,0.7-0.3
			c0.1,0,0.4,0,0.7,0.3l17.5,17.9c0.2,0.2,0.3,0.5,0.3,0.7c0,0.1-0.1,0.4-0.3,0.7l-1,1v3.8L87,35C88.3,33.6,88.4,31.3,87,29.9z"/>
		<path class="st1" d="M78.8,30.3H54.1c-1.9,0-3.6,1.6-3.6,3.6v9.6h31.8v-9.6C82.3,31.9,80.7,30.3,78.8,30.3z"/>
		<path class="st1" d="M50.4,47.8c0,2,1.7,3.6,3.6,3.6h24.7c1.9,0,3.5-1.6,3.5-3.6v-0.2H50.4C50.4,47.6,50.4,47.8,50.4,47.8z"/>
	</g>
</g>
<g>
	<defs>
		<rect id="SVGID_00000147940006907570555890000004157016332336551344_" x="493.5" y="10.9" width="41.5" height="41.5"/>
	</defs>
	<clipPath id="SVGID_00000049913916590132780310000015613061348518115735_">
		<use xlink:href="#SVGID_00000147940006907570555890000004157016332336551344_"  style="overflow:visible;"/>
	</clipPath>
	<g style="clip-path:url(#SVGID_00000049913916590132780310000015613061348518115735_);">
		<path class="st5" d="M513.3,51.5c1.6,0,2.8-1.3,2.8-2.8c0-1.6-1.3-2.8-2.8-2.8c-1.6,0-2.8,1.3-2.8,2.8
			C510.5,50.2,511.7,51.5,513.3,51.5z"/>
		<path class="st5" d="M515.2,17.5c1.6,0,2.8-1.3,2.8-2.8c0-1.6-1.3-2.8-2.8-2.8c-1.6,0-2.8,1.3-2.8,2.8
			C512.4,16.2,513.6,17.5,515.2,17.5z"/>
		<path class="st5" d="M531.2,35.4c1.6,0,2.8-1.3,2.8-2.8c0-1.6-1.3-2.8-2.8-2.8c-1.6,0-2.8,1.3-2.8,2.8
			C528.4,34.2,529.7,35.4,531.2,35.4z"/>
		<path class="st5" d="M497.2,33.5c1.6,0,2.8-1.3,2.8-2.8c0-1.6-1.3-2.8-2.8-2.8c-1.6,0-2.8,1.3-2.8,2.8
			C494.4,32.3,495.7,33.5,497.2,33.5z"/>
		<path class="st5" d="M506.7,11.8l2.8,2.8l-2.8,2.8"/>
		<path class="st5" d="M509.5,14.7h-3.8c-4.7,0-8.5,3.8-8.5,8.5V26"/>
		<path class="st5" d="M521.8,51.5l-2.8-2.8l2.8-2.8"/>
		<path class="st5" d="M519,48.6h3.8c4.7,0,8.5-3.8,8.5-8.5v-2.8"/>
		<path class="st5" d="M534.1,24.1l-2.8,2.8l-2.8-2.8"/>
		<path class="st5" d="M531.2,26.9v-3.8c0-4.7-3.8-8.5-8.5-8.5h-2.8"/>
		<path class="st5" d="M494.4,39.2l2.8-2.8l2.8,2.8"/>
		<path class="st5" d="M497.2,36.4v3.8c0,4.7,3.8,8.5,8.5,8.5h2.8"/>
		<path class="st1" d="M525.1,31.6c0,6-4.9,10.9-10.9,10.9s-10.9-4.9-10.9-10.9s4.9-10.9,10.9-10.9
			C520.2,20.8,525.1,25.6,525.1,31.6z M519.2,34.2c0-2.9-2.5-3.5-4.4-4c-1.4-0.3-2.5-0.6-2.5-1.5c0-0.8,0.9-1.2,1.8-1.2
			c1,0,2,0.5,2,1.6h2.8c0-2.2-1.3-3.7-3.5-4v-1.2H513V25c-2.2,0.3-3.6,1.6-3.6,3.7c0,2.8,2.4,3.4,4.3,3.8c1.4,0.3,2.6,0.6,2.6,1.6
			c0,0.9-1,1.4-2.1,1.4c-1.1,0-2.2-0.6-2.2-1.8h-2.8c0,2.4,1.5,3.9,3.9,4.3v1.3h2.2v-1.3C517.6,37.8,519.2,36.5,519.2,34.2
			L519.2,34.2z"/>
	</g>
</g>
<path class="st0" d="M4.9,237.3h572.6c2.7,0,4.9,2.2,4.9,4.9V266c0,2.7-2.2,4.9-4.9,4.9H4.9C2.2,271,0,268.8,0,266v-23.7
	C0,239.6,2.2,237.3,4.9,237.3z"/>
<path class="st6" d="M15.1,250.7c2.9,0,4.3,2.1,4.3,4.2c0,2.1-1.4,4.2-4.3,4.2h-3.3v-8.4L15.1,250.7L15.1,250.7z M15.1,257.6
	c1.6,0,2.3-1.3,2.3-2.6c0-1.3-0.8-2.6-2.3-2.6h-1.4v5.3L15.1,257.6L15.1,257.6z M21.9,251.9c-0.6,0-1.1-0.5-1.1-1.1s0.5-1.1,1.1-1.1
	s1.1,0.5,1.1,1.1S22.5,251.9,21.9,251.9z M22.8,252.7v6.4H21v-6.4H22.8z M31.1,252.7v1.4h-1c0.1,0.2,0.1,0.5,0.1,0.8
	c0,1.4-1.1,2.3-2.8,2.3c-0.5,0-0.9-0.1-1.3-0.2c-0.1,0.1-0.2,0.2-0.2,0.3c0,0.3,0.5,0.4,1.3,0.5c1.4,0.2,3.4,0.6,3.4,2.1
	c0,1.4-1.6,2.2-3.2,2.2c-1.7,0-3.3-0.7-3.3-2c0-0.5,0.2-1,0.9-1.4c-0.4-0.2-0.7-0.5-0.7-1c0-0.4,0.2-0.8,0.7-1.3
	c-0.4-0.4-0.6-0.9-0.6-1.5c0-1.4,1.2-2.4,2.9-2.4c0.4,0,0.8,0.1,1.1,0.2L31.1,252.7L31.1,252.7z M27.5,255.9c0.7,0,1.2-0.4,1.2-1
	c0-0.7-0.5-1.1-1.2-1.1s-1.2,0.4-1.2,1C26.3,255.5,26.8,255.9,27.5,255.9L27.5,255.9z M28.9,260c0-0.5-0.8-0.7-1.8-0.8
	c-0.1,0-0.3,0-0.4-0.1c-0.5,0.3-0.6,0.6-0.6,0.8c0,0.6,0.7,0.9,1.5,0.9C28.2,260.8,28.9,260.6,28.9,260L28.9,260z M33.2,251.9
	c-0.6,0-1.1-0.5-1.1-1.1s0.5-1.1,1.1-1.1s1.1,0.5,1.1,1.1S33.7,251.9,33.2,251.9z M34.1,252.7v6.4h-1.8v-6.4L34.1,252.7L34.1,252.7z
	 M39.6,257.6l0.2,1.3c-0.6,0.2-1.1,0.3-1.6,0.3c-1.5,0-2.1-1-2.1-3v-2.2h-0.8v-1.4h0.8v-1.3l1.8-0.3v1.6h1.8v1.4h-1.8v2.3
	c0,1,0.2,1.4,0.8,1.4C39,257.8,39.2,257.8,39.6,257.6L39.6,257.6z M43.5,252.5c2.2,0,3.1,1.6,2.8,3.8h-4.1c0.2,1,1,1.5,2,1.5
	c0.5,0,1.1-0.1,1.5-0.3l0.2,1.3c-0.5,0.3-1.4,0.4-2.2,0.4c-1.7,0-3.3-1.1-3.3-3.4C40.5,253.7,41.9,252.5,43.5,252.5L43.5,252.5z
	 M43.6,253.9c-0.7,0-1.2,0.6-1.3,1.3h2.4C44.6,254.3,44.2,253.9,43.6,253.9L43.6,253.9z M53.8,252.5c2,0,3.2,1.5,3.2,3.4
	c0,1.9-1.2,3.4-3.2,3.4s-3.2-1.5-3.2-3.4C50.6,254,51.8,252.5,53.8,252.5z M53.8,253.9c-0.8,0-1.3,0.7-1.3,2c0,1.2,0.5,2,1.3,2
	s1.4-0.7,1.4-2C55.2,254.6,54.6,253.9,53.8,253.9z M66.8,250.7h1.8v8.4h-1.3l-3.8-4.9v4.9h-1.8v-8.4h1.2l3.8,4.9V250.7L66.8,250.7z
	 M73.2,252.5c2,0,3.2,1.5,3.2,3.4c0,1.9-1.2,3.4-3.2,3.4s-3.2-1.5-3.2-3.4C70,254,71.2,252.5,73.2,252.5L73.2,252.5z M73.2,253.9
	c-0.8,0-1.3,0.7-1.3,2c0,1.2,0.5,2,1.3,2s1.4-0.7,1.4-2C74.5,254.6,74,253.9,73.2,253.9L73.2,253.9z M85.3,252.5
	c1.4,0,2.1,0.9,2.1,2.6v4h-1.8v-3.9c0-0.9-0.4-1.2-0.9-1.2c-0.4,0-0.8,0.2-1.3,0.6c0,0.2,0,0.3,0,0.5v4h-1.8v-3.9
	c0-0.9-0.4-1.2-0.9-1.2c-0.3,0-0.8,0.2-1.3,0.6v4.5h-1.8v-6.4h1.5l0.1,0.7c0.6-0.6,1.3-0.9,2-0.9c0.9,0,1.5,0.4,1.8,1
	C83.9,252.8,84.5,252.5,85.3,252.5L85.3,252.5z M91.7,252.5c2.2,0,3.1,1.6,2.8,3.8h-4.1c0.2,1,1,1.5,2,1.5c0.5,0,1.1-0.1,1.5-0.3
	l0.2,1.3c-0.5,0.3-1.4,0.4-2.2,0.4c-1.7,0-3.3-1.1-3.3-3.4C88.7,253.7,90.1,252.5,91.7,252.5L91.7,252.5z M91.8,253.9
	c-0.7,0-1.2,0.6-1.3,1.3h2.4C92.8,254.3,92.4,253.9,91.8,253.9L91.8,253.9z M103.2,250.1l1.8-0.3v9.3h-1.5l-0.1-0.6
	c-0.6,0.5-1.2,0.8-1.9,0.8c-1.4,0-2.6-1.2-2.6-3.3c0-2.3,1.5-3.4,3-3.4c0.4,0,0.9,0.1,1.4,0.3L103.2,250.1L103.2,250.1z
	 M100.6,255.9c0,1.2,0.6,1.8,1.3,1.8c0.4,0,0.8-0.2,1.2-0.4v-3.2c-0.3-0.1-0.6-0.1-0.9-0.1C101.4,254,100.6,254.5,100.6,255.9
	L100.6,255.9z M109.6,252.5c2.5,0,2.4,1.6,2.4,2.8v3.8h-1.5l-0.1-0.6c-0.6,0.5-1.3,0.7-2,0.7c-1.1,0-2-0.6-2-1.9
	c0-1.5,1.8-2.1,3.9-2.2c0-0.9-0.1-1.2-0.9-1.2c-0.5,0-1.3,0.2-2.1,0.4l-0.3-1.4C108,252.6,108.9,252.5,109.6,252.5L109.6,252.5z
	 M108.8,258c0.5,0,1-0.3,1.4-0.7v-1c-1.2,0.1-2.1,0.3-2.1,1.1C108,257.7,108.3,258,108.8,258L108.8,258z M121.6,259.1l-1.8-2.7h-1
	v2.7H117v-8.4h3.2c1.9,0,2.9,1.4,2.9,2.8c0,1-0.4,2-1.5,2.4l2,3.1C123.6,259.1,121.6,259.1,121.6,259.1z M118.8,252.2v2.7h1.2
	c0.8,0,1.2-0.7,1.2-1.3c0-0.7-0.4-1.3-1.2-1.3L118.8,252.2L118.8,252.2z M127.3,252.5c2.2,0,3.1,1.6,2.8,3.8H126c0.2,1,1,1.5,2,1.5
	c0.5,0,1.1-0.1,1.5-0.3l0.2,1.3c-0.5,0.3-1.4,0.4-2.2,0.4c-1.7,0-3.3-1.1-3.3-3.4C124.2,253.7,125.6,252.5,127.3,252.5L127.3,252.5z
	 M127.3,253.9c-0.7,0-1.2,0.6-1.3,1.3h2.4C128.4,254.3,127.9,253.9,127.3,253.9z M138,252.7v1.4h-1c0.1,0.2,0.1,0.5,0.1,0.8
	c0,1.4-1.1,2.3-2.8,2.3c-0.5,0-0.9-0.1-1.3-0.2c-0.1,0.1-0.2,0.2-0.2,0.3c0,0.3,0.5,0.4,1.3,0.5c1.4,0.2,3.4,0.6,3.4,2.1
	c0,1.4-1.6,2.2-3.2,2.2c-1.7,0-3.3-0.7-3.3-2c0-0.5,0.2-1,0.9-1.4c-0.4-0.2-0.7-0.5-0.7-1c0-0.4,0.2-0.8,0.7-1.3
	c-0.4-0.4-0.6-0.9-0.6-1.5c0-1.4,1.2-2.4,2.9-2.4c0.4,0,0.8,0.1,1.1,0.2L138,252.7L138,252.7z M134.3,255.9c0.7,0,1.2-0.4,1.2-1
	c0-0.7-0.5-1.1-1.2-1.1s-1.2,0.4-1.2,1C133.1,255.5,133.6,255.9,134.3,255.9L134.3,255.9z M135.7,260c0-0.5-0.8-0.7-1.8-0.8
	c-0.1,0-0.3,0-0.4-0.1c-0.4,0.3-0.6,0.6-0.6,0.8c0,0.6,0.7,0.9,1.5,0.9C135.1,260.8,135.7,260.6,135.7,260L135.7,260z M143.1,252.5
	l-0.1,1.8c-0.5,0-1.5,0.1-2.2,0.6v4.2h-1.8v-6.4h1.6l0.1,0.9C141.4,252.9,142.3,252.5,143.1,252.5L143.1,252.5z M146.9,252.5
	c2.5,0,2.4,1.6,2.4,2.8v3.8h-1.5l-0.1-0.6c-0.6,0.5-1.3,0.7-2,0.7c-1.1,0-2-0.6-2-1.9c0-1.5,1.8-2.1,3.9-2.2c0-0.9-0.1-1.2-0.9-1.2
	c-0.5,0-1.3,0.2-2.1,0.4l-0.3-1.4C145.2,252.6,146.1,252.5,146.9,252.5L146.9,252.5z M146.1,258c0.5,0,1-0.3,1.4-0.7v-1
	c-1.2,0.1-2.1,0.3-2.1,1.1C145.3,257.7,145.6,258,146.1,258L146.1,258z"/>
<path class="st0" d="M4.9,282.8h572.6c2.7,0,4.9,2.2,4.9,4.9v63.3c0,2.7-2.2,4.9-4.9,4.9H4.9c-2.7,0-4.9-2.2-4.9-4.9v-63.3
	C0,285,2.2,282.8,4.9,282.8z"/>
<path class="st6" d="M16.5,304.6l-1.8-2.7h-1v2.7h-1.9v-8.4h3.2c1.9,0,2.9,1.4,2.9,2.8c0,1-0.5,2-1.5,2.4l2,3.1
	C18.5,304.6,16.5,304.6,16.5,304.6z M13.7,297.7v2.7h1.2c0.8,0,1.2-0.7,1.2-1.3c0-0.7-0.4-1.3-1.2-1.3H13.7z M22.1,298
	c2.2,0,3.1,1.6,2.8,3.8h-4.1c0.2,1,1,1.5,2,1.5c0.5,0,1.1-0.1,1.5-0.3l0.2,1.3c-0.5,0.3-1.4,0.4-2.2,0.4c-1.7,0-3.3-1.1-3.3-3.4
	C19.1,299.2,20.5,298,22.1,298L22.1,298z M22.1,299.4c-0.7,0-1.2,0.6-1.3,1.3h2.4C23.2,299.8,22.8,299.4,22.1,299.4L22.1,299.4z
	 M32.8,298.2v1.4h-1c0.1,0.2,0.1,0.5,0.1,0.8c0,1.4-1.1,2.3-2.8,2.3c-0.5,0-0.9-0.1-1.3-0.2c-0.1,0.1-0.2,0.2-0.2,0.3
	c0,0.3,0.5,0.4,1.3,0.5c1.4,0.2,3.4,0.6,3.4,2.1c0,1.4-1.6,2.2-3.2,2.2c-1.7,0-3.3-0.7-3.3-2c0-0.5,0.2-1,0.9-1.4
	c-0.4-0.2-0.7-0.5-0.7-1c0-0.4,0.2-0.8,0.7-1.3c-0.4-0.4-0.6-0.9-0.6-1.5c0-1.4,1.2-2.4,2.9-2.4c0.4,0,0.8,0.1,1.1,0.2L32.8,298.2
	L32.8,298.2z M29.2,301.4c0.7,0,1.2-0.4,1.2-1c0-0.7-0.5-1.1-1.2-1.1s-1.2,0.4-1.2,1C28,301,28.5,301.4,29.2,301.4L29.2,301.4z
	 M30.6,305.5c0-0.5-0.8-0.7-1.8-0.8c-0.1,0-0.3,0-0.4-0.1c-0.5,0.3-0.6,0.6-0.6,0.8c0,0.6,0.7,0.9,1.5,0.9
	C29.9,306.3,30.6,306.1,30.6,305.5L30.6,305.5z M37.9,298l-0.1,1.8c-0.5,0-1.5,0.1-2.2,0.6v4.2h-1.8v-6.4h1.6l0.1,0.9
	C36.3,298.4,37.1,298,37.9,298L37.9,298z M41.7,298c2.5,0,2.4,1.6,2.4,2.8v3.8h-1.5l-0.1-0.6c-0.6,0.5-1.3,0.7-2,0.7
	c-1.1,0-2-0.6-2-1.9c0-1.5,1.8-2.1,3.9-2.2c0-0.9-0.1-1.2-0.9-1.2c-0.5,0-1.3,0.2-2.1,0.4l-0.3-1.4C40.1,298.1,41,298,41.7,298
	L41.7,298z M40.9,303.5c0.5,0,1-0.3,1.4-0.7v-1c-1.2,0.1-2.1,0.3-2.1,1.1C40.1,303.2,40.4,303.5,40.9,303.5L40.9,303.5z M53,295.6
	l1.8-0.3v9.3h-1.5l-0.1-0.6c-0.6,0.5-1.2,0.8-1.9,0.8c-1.4,0-2.6-1.2-2.6-3.3c0-2.3,1.5-3.4,3-3.4c0.4,0,0.9,0.1,1.4,0.3L53,295.6
	L53,295.6z M50.5,301.4c0,1.2,0.6,1.8,1.3,1.8c0.4,0,0.8-0.2,1.2-0.4v-3.2c-0.3-0.1-0.6-0.1-0.9-0.1C51.2,299.4,50.5,300,50.5,301.4
	L50.5,301.4z M59.2,298c2.2,0,3.1,1.6,2.8,3.8h-4.1c0.2,1,1,1.5,2,1.5c0.5,0,1.1-0.1,1.5-0.3l0.2,1.3c-0.5,0.3-1.4,0.4-2.2,0.4
	c-1.7,0-3.3-1.1-3.3-3.4C56.2,299.2,57.6,298,59.2,298L59.2,298z M59.2,299.4c-0.7,0-1.2,0.6-1.3,1.3h2.4
	C60.3,299.8,59.9,299.4,59.2,299.4z M69.6,296.1c0.8,0,1.6,0.1,2.5,0.5l-0.4,1.5c-0.8-0.3-1.5-0.5-2.1-0.5c-0.8,0-1.2,0.4-1.2,0.8
	c0,0.4,0.4,0.7,1.3,1.1c1.7,0.7,2.7,1.5,2.7,2.9c0,1.5-1.3,2.4-3.1,2.4c-1,0-2-0.3-3.1-0.9l0.4-1.5c1.1,0.6,1.8,0.9,2.5,0.9
	c0.8,0,1.3-0.3,1.3-0.8c0-0.6-0.6-0.8-1.6-1.3c-1.5-0.7-2.4-1.4-2.4-2.5C66.5,297.1,67.7,296.1,69.6,296.1L69.6,296.1z M76.8,298
	c0.7,0,1.4,0.1,2,0.3l-0.3,1.3c-0.4-0.1-0.9-0.2-1.2-0.2c-1.1,0-1.9,0.5-1.9,1.9c0,1.3,0.8,1.9,1.9,1.9c0.4,0,1-0.1,1.4-0.2l0.2,1.3
	c-0.5,0.3-1.4,0.4-2.1,0.4c-1.7,0-3.2-1-3.2-3.4C73.5,298.9,75,298,76.8,298L76.8,298z M84.2,298l-0.1,1.8c-0.5,0-1.5,0.1-2.2,0.6
	v4.2H80v-6.4h1.6l0.1,0.9C82.5,298.4,83.4,298,84.2,298L84.2,298z M86.3,297.4c-0.6,0-1.1-0.5-1.1-1.1s0.5-1.1,1.1-1.1
	s1.1,0.5,1.1,1.1S86.9,297.4,86.3,297.4z M87.2,298.2v6.4h-1.8v-6.4H87.2z M92.6,298c1.4,0,2.6,1.2,2.6,3.3c0,2.3-1.5,3.4-3,3.4
	c-0.4,0-0.9-0.1-1.4-0.3v2.6l-1.8,0.2v-9.2h1.5l0.1,0.6C91.2,298.3,91.9,298,92.6,298L92.6,298z M91.7,303.3c1,0,1.7-0.6,1.7-2
	c0-1.2-0.6-1.8-1.3-1.8c-0.4,0-0.8,0.2-1.2,0.4v3.2C91.2,303.3,91.5,303.3,91.7,303.3L91.7,303.3z M100.3,303.1l0.2,1.3
	c-0.6,0.2-1.1,0.3-1.6,0.3c-1.5,0-2.1-1-2.1-3v-2.2h-0.8v-1.4h0.8v-1.3l1.8-0.3v1.6h1.8v1.4h-1.8v2.3c0,1,0.2,1.4,0.8,1.4
	C99.6,303.3,99.9,303.3,100.3,303.1L100.3,303.1z"/>
<g>
	<defs>
		<rect id="SVGID_00000150096770950858173110000003387219842002521771_" x="190.1" y="11" width="51.2" height="45.6"/>
	</defs>
	<clipPath id="SVGID_00000011024867434575307320000005200646155109074599_">
		<use xlink:href="#SVGID_00000150096770950858173110000003387219842002521771_"  style="overflow:visible;"/>
	</clipPath>
	<g style="clip-path:url(#SVGID_00000011024867434575307320000005200646155109074599_);">
		<path class="st1" d="M214.2,11c2,0.9,4,1.9,6.1,2.8c4.7,2.1,9.5,4.2,14.2,6.2c0.6,0.3,0.9,0.6,0.9,1.3c-0.1,1.5,0,2.9,0,4.5h-42.5
			c0-1.4,0.1-2.7,0-4.1c-0.1-1,0.3-1.4,1.1-1.8c6.5-2.8,12.9-5.6,19.3-8.5c0.3-0.1,0.5-0.3,0.8-0.4L214.2,11L214.2,11z"/>
		<path class="st1" d="M238.2,55.8c-0.4,0.6-0.9,0.7-1.5,0.7c-15,0-30.1,0-45.1,0c-0.6,0-1.3,0.1-1.4-0.6c-0.1-0.7,0-1.4,0.1-2.1
			c0-0.2,0.5-0.3,0.8-0.4c0.2-0.1,0.4,0,0.6,0c15,0,29.9,0,44.9,0c0.7,0,1.2,0.2,1.7,0.7C238.2,54.1,238.2,55.8,238.2,55.8z"/>
		<path class="st1" d="M197.3,29.5c-0.2,0-0.4,0-0.6-0.1c-0.6-0.2-0.9-0.6-0.8-1.2c0.1-0.6,0.4-1,1-1c2.3,0,4.6,0,7,0
			c0.6,0,1,0.4,1,1.1c0,0.7-0.4,1.1-1.4,1.2v16.1c0,0,0.1,0.1,0.1,0.1c0.8,0,1.4,0.3,1.3,1.2c0,0.7-0.5,1.1-1.5,1.1
			c-1.9,0-3.9,0-5.8,0c-0.8,0-1.5,0-1.7-1c-0.1-0.8,0.3-1.2,1.4-1.4L197.3,29.5L197.3,29.5L197.3,29.5z"/>
		<path class="st1" d="M211.1,45.7V29.5c-0.2,0-0.4,0-0.6-0.1c-0.6-0.2-0.9-0.6-0.9-1.2c0.1-0.6,0.4-1,1-1c2.3,0,4.6,0,6.9,0
			c0.6,0,1,0.4,1,1c0.1,0.6-0.2,1.1-0.8,1.2c-0.2,0.1-0.4,0.1-0.6,0.1v16.2c0.2,0,0.4,0,0.6,0.1c0.6,0.2,0.9,0.6,0.8,1.2
			c-0.1,0.6-0.4,1-1,1c-2.3,0-4.6,0-6.9,0c-0.6,0-1-0.5-1-1.1c0-0.6,0.3-1,0.9-1.2C210.7,45.7,210.9,45.7,211.1,45.7L211.1,45.7
			L211.1,45.7z"/>
		<path class="st1" d="M231,45.6c0.4,0.1,0.9,0.2,1.1,0.4c0.2,0.3,0.4,0.8,0.3,1.2c-0.1,0.3-0.6,0.8-1,0.8c-2.3,0.1-4.6,0.1-6.9,0
			c-0.6,0-1-0.4-1.1-1c0-0.7,0.3-1.1,1-1.2c0.1,0,0.3,0,0.5,0V29.5c-0.1,0-0.2,0-0.4-0.1c-0.7-0.1-1.1-0.5-1.1-1.2
			c0-0.7,0.5-1.1,1.2-1.1c2.1,0,4.2,0,6.3,0c1,0,1.5,0.3,1.5,1c0.1,0.8-0.4,1.2-1.4,1.3V45.6L231,45.6L231,45.6z"/>
		<path class="st1" d="M214.1,52.1c-6.6,0-13.1,0-19.7,0c-1.3,0-1.6-0.4-1.6-1.7c0-0.7,0.4-1.1,1.1-1.2c0.2,0,0.3,0,0.5,0h39.2
			c1.4,0,1.7,0.3,1.6,1.6c0,0.9-0.4,1.2-1.3,1.2c-1.5,0-3,0-4.5,0C224.4,52.1,219.3,52.1,214.1,52.1L214.1,52.1z"/>
		<path class="st0" d="M217.1,30.3l5.7,2.3l7.8,0l0.8,0.4l0.4,0.9l-0.1,2.5l0.8,0.4l0.4,0.6l-0.1,0.9l-0.8,1.7l-0.3,3.3l-0.1,1.8
			l-0.7,0.7l-3.2,0.1l-10.9,0L217.1,30.3L217.1,30.3L217.1,30.3z"/>
		<path class="st8" d="M211.3,44.4c0-0.1,0-0.3,0-0.4c0.1-0.6,0-1.1-0.7-1.5c-0.8-0.4-1.1-1.4-0.7-2.3c0.4-1.1,0.9-2.1,1.3-3.2
			c0.1-0.2,0.1-0.5,0.2-0.8c0-1.1,0-2.2,0-3.3c0-1.3,0.7-2.1,2-2.1c0.3,0,0.4-0.1,0.4-0.3c0.3-0.6,0.5-1.3,0.8-1.9
			c0.5-1.2,1.5-1.6,2.7-1.1c2.6,1.1,5.2,2.2,7.9,3.2c0.3,0.1,0.6,0.2,0.9,0.2c2.8,0,5.6,0,8.4,0c1.4,0,2.2,0.7,2.2,2.2
			c0,0.6,0,1.3,0,1.9c0,0.2,0,0.4,0.3,0.5c1.2,0.5,1.6,1.5,1.1,2.7c-0.4,1-0.8,2-1.2,3c-0.1,0.3-0.2,0.5-0.2,0.8c0,1.1,0,2.2,0,3.3
			c0,1.3-0.7,2-2,2.1c-0.3,0-0.4,0.1-0.5,0.3c-0.2,0.6-0.5,1.2-0.7,1.8c-0.5,1.3-1.5,1.7-2.8,1.2c-2.6-1.1-5.2-2.1-7.8-3.2
			c-0.3-0.1-0.6-0.2-0.9-0.2c-2.8,0-5.6,0-8.4,0c-1.5,0-2.2-0.7-2.2-2.2C211.3,44.9,211.3,44.6,211.3,44.4L211.3,44.4L211.3,44.4z
			 M223.9,46.6c3.5,0,7,0,10.5,0c0.9,0,1.4-0.4,1.4-1.3c0-1.6,0-3.3,0-4.9c0-2.4,0-4.9,0-7.3c0-1-0.4-1.4-1.4-1.4
			c-7,0-14-0.1-21-0.1c-1,0-1.4,0.4-1.4,1.4c0,1.9,0,3.7,0,5.6c0,2.2,0,4.4,0,6.7c0,0.9,0.4,1.4,1.4,1.4
			C216.9,46.6,220.4,46.6,223.9,46.6L223.9,46.6L223.9,46.6z M233.4,47.5l-8.8,0c0,0,0,0.1,0.1,0.1c2.1,0.9,4.3,1.8,6.4,2.6
			c0.6,0.2,1.2,0,1.5-0.6C232.8,48.9,233.1,48.2,233.4,47.5z M214.5,30.8l8.8,0c0,0,0-0.1,0-0.1c-2.2-0.9-4.4-1.8-6.6-2.7
			c-0.5-0.2-1.1,0.1-1.3,0.6C215.1,29.4,214.8,30.1,214.5,30.8z M236.7,36.3l0,2.9c0.3-0.5,0.5-1,0.7-1.5
			C237.6,37.1,237.3,36.6,236.7,36.3z M211.3,42c0-1,0-2,0-3c0,0,0-0.1-0.1-0.2c-0.3,0.7-0.5,1.4-0.7,2
			C210.4,41.3,210.7,41.8,211.3,42z"/>
		<path class="st8" d="M234.5,42.2c0,0.4,0,0.7,0,1.1c0,0.1-0.1,0.3-0.3,0.3c-3,0.9-6,0.9-9,0c-0.2-0.1-0.3-0.2-0.3-0.4
			c0-0.6,0-1.3,0-1.9c0-1.2,1-2,2.1-2c0.6,0,1.2,0.2,1.8,0.4c0.8,0.2,1.6,0.1,2.3-0.1c1.1-0.4,2.5-0.3,3.1,0.8
			c0.1,0.2,0.2,0.6,0.3,0.9C234.5,41.6,234.5,41.9,234.5,42.2L234.5,42.2L234.5,42.2z"/>
		<path class="st8" d="M227.2,36.8c0-1.5,1-2.7,2.3-2.8c1.6-0.1,2.9,1.3,2.7,3c-0.1,1.1-0.6,2-1.7,2.4c-1.5,0.5-3.1-0.6-3.3-2.2
			C227.2,37,227.2,36.9,227.2,36.8z"/>
		<path class="st8" d="M223.4,35c0,0.3-0.6,0.6-1.3,0.5l-7,0c-0.7,0-1.3-0.3-1.3-0.6c0-0.3,0.6-0.6,1.3-0.5l7,0
			C222.8,34.4,223.4,34.7,223.4,35z"/>
		<path class="st8" d="M223.4,35c0,0.3-0.6,0.6-1.3,0.5l-7,0c-0.7,0-1.3-0.3-1.3-0.6c0-0.3,0.6-0.6,1.3-0.5l7,0
			C222.8,34.4,223.4,34.7,223.4,35z"/>
		<path class="st8" d="M223.4,37.7c0,0.3-0.6,0.6-1.3,0.5l-7,0c-0.7,0-1.3-0.3-1.3-0.6c0-0.3,0.6-0.6,1.3-0.5l7,0
			C222.8,37.2,223.4,37.4,223.4,37.7z"/>
		<path class="st8" d="M223.4,37.7c0,0.3-0.6,0.6-1.3,0.5l-7,0c-0.7,0-1.3-0.3-1.3-0.6c0-0.3,0.6-0.6,1.3-0.5l7,0
			C222.8,37.2,223.4,37.4,223.4,37.7z"/>
		<path class="st8" d="M223.4,40.5c0,0.3-0.6,0.6-1.3,0.5l-7,0c-0.7,0-1.3-0.3-1.3-0.6c0-0.3,0.6-0.6,1.3-0.5l7,0
			C222.8,39.9,223.4,40.2,223.4,40.5z"/>
		<path class="st8" d="M223.4,40.5c0,0.3-0.6,0.6-1.3,0.5l-7,0c-0.7,0-1.3-0.3-1.3-0.6c0-0.3,0.6-0.6,1.3-0.5l7,0
			C222.8,39.9,223.4,40.2,223.4,40.5z"/>
		<path class="st8" d="M223.4,43.2c0,0.3-0.6,0.6-1.3,0.5l-7,0c-0.7,0-1.3-0.3-1.3-0.6c0-0.3,0.6-0.6,1.3-0.5l7,0
			C222.8,42.7,223.4,42.9,223.4,43.2z"/>
		<path class="st8" d="M223.4,43.2c0,0.3-0.6,0.6-1.3,0.5l-7,0c-0.7,0-1.3-0.3-1.3-0.6c0-0.3,0.6-0.6,1.3-0.5l7,0
			C222.8,42.7,223.4,42.9,223.4,43.2z"/>
		<path class="st1" d="M211.3,44.4c0-0.1,0-0.3,0-0.4c0.1-0.6,0-1.1-0.7-1.5c-0.8-0.4-1.1-1.4-0.7-2.3c0.4-1.1,0.9-2.1,1.3-3.2
			c0.1-0.2,0.1-0.5,0.2-0.8c0-1.1,0-2.2,0-3.3c0-1.3,0.7-2.1,2-2.1c0.3,0,0.4-0.1,0.4-0.3c0.3-0.6,0.5-1.3,0.8-1.9
			c0.5-1.2,1.5-1.6,2.7-1.1c2.6,1.1,5.2,2.2,7.9,3.2c0.3,0.1,0.6,0.2,0.9,0.2c2.8,0,5.6,0,8.4,0c1.4,0,2.2,0.7,2.2,2.2
			c0,0.6,0,1.3,0,1.9c0,0.2,0,0.4,0.3,0.5c1.2,0.5,1.6,1.5,1.1,2.7c-0.4,1-0.8,2-1.2,3c-0.1,0.3-0.2,0.5-0.2,0.8c0,1.1,0,2.2,0,3.3
			c0,1.3-0.7,2-2,2.1c-0.3,0-0.4,0.1-0.5,0.3c-0.2,0.6-0.5,1.2-0.7,1.8c-0.5,1.3-1.5,1.7-2.8,1.2c-2.6-1.1-5.2-2.1-7.8-3.2
			c-0.3-0.1-0.6-0.2-0.9-0.2c-2.8,0-5.6,0-8.4,0c-1.5,0-2.2-0.7-2.2-2.2C211.3,44.9,211.3,44.6,211.3,44.4L211.3,44.4L211.3,44.4z
			 M223.9,46.6c3.5,0,7,0,10.5,0c0.9,0,1.4-0.4,1.4-1.3c0-1.6,0-3.3,0-4.9c0-2.4,0-4.9,0-7.3c0-1-0.4-1.4-1.4-1.4
			c-7,0-14-0.1-21-0.1c-1,0-1.4,0.4-1.4,1.4c0,1.9,0,3.7,0,5.6c0,2.2,0,4.4,0,6.7c0,0.9,0.4,1.4,1.4,1.4
			C216.9,46.6,220.4,46.6,223.9,46.6L223.9,46.6L223.9,46.6z M233.4,47.5l-8.8,0c0,0,0,0.1,0.1,0.1c2.1,0.9,4.3,1.8,6.4,2.6
			c0.6,0.2,1.2,0,1.5-0.6C232.8,48.9,233.1,48.2,233.4,47.5z M214.5,30.8l8.8,0c0,0,0-0.1,0-0.1c-2.2-0.9-4.4-1.8-6.6-2.7
			c-0.5-0.2-1.1,0.1-1.3,0.6C215.1,29.4,214.8,30.1,214.5,30.8z M236.7,36.3l0,2.9c0.3-0.5,0.5-1,0.7-1.5
			C237.6,37.1,237.3,36.6,236.7,36.3z M211.3,42c0-1,0-2,0-3c0,0,0-0.1-0.1-0.2c-0.3,0.7-0.5,1.4-0.7,2
			C210.4,41.3,210.7,41.8,211.3,42z"/>
		<path class="st1" d="M234.5,42.2c0,0.4,0,0.7,0,1.1c0,0.1-0.1,0.3-0.3,0.3c-3,0.9-6,0.9-9,0c-0.2-0.1-0.3-0.2-0.3-0.4
			c0-0.6,0-1.3,0-1.9c0-1.2,1-2,2.1-2c0.6,0,1.2,0.2,1.8,0.4c0.8,0.2,1.6,0.1,2.3-0.1c1.1-0.4,2.5-0.3,3.1,0.8
			c0.1,0.2,0.2,0.6,0.3,0.9C234.5,41.6,234.5,41.9,234.5,42.2L234.5,42.2L234.5,42.2z"/>
		<path class="st1" d="M227.2,36.8c0-1.5,1-2.7,2.3-2.8c1.6-0.1,2.9,1.3,2.7,3c-0.1,1.1-0.6,2-1.7,2.4c-1.5,0.5-3.1-0.6-3.3-2.2
			C227.2,37,227.2,36.9,227.2,36.8z"/>
		<path class="st1" d="M223.4,35c0,0.3-0.6,0.6-1.3,0.5l-7,0c-0.7,0-1.3-0.3-1.3-0.6c0-0.3,0.6-0.6,1.3-0.5l7,0
			C222.8,34.4,223.4,34.7,223.4,35z"/>
		<path class="st1" d="M223.4,37.7c0,0.3-0.6,0.6-1.3,0.5l-7,0c-0.7,0-1.3-0.3-1.3-0.6c0-0.3,0.6-0.6,1.3-0.5l7,0
			C222.8,37.2,223.4,37.4,223.4,37.7z"/>
		<path class="st1" d="M223.4,40.5c0,0.3-0.6,0.6-1.3,0.5l-7,0c-0.7,0-1.3-0.3-1.3-0.6c0-0.3,0.6-0.6,1.3-0.5l7,0
			C222.8,39.9,223.4,40.2,223.4,40.5z"/>
		<path class="st1" d="M223.4,43.2c0,0.3-0.6,0.6-1.3,0.5l-7,0c-0.7,0-1.3-0.3-1.3-0.6c0-0.3,0.6-0.6,1.3-0.5l7,0
			C222.8,42.7,223.4,42.9,223.4,43.2z"/>
		<path class="st9" d="M199.4,20h-1.1l-0.4,1.8h-1l0.4-1.8h-0.8v-1.1h1.1l0.3-1.2H197v-1.1h1.1l0.4-1.6h1l-0.4,1.6h1.1l0.4-1.6h1
			l-0.4,1.6h0.7l0,1.1h-1l-0.3,1.2h0.8V20h-1.1l-0.4,1.8h-1L199.4,20z M200,17.7h-1.1l-0.3,1.2h1.1L200,17.7z"/>
		<path class="st9" d="M206.8,20h-1.1l-0.4,1.8h-1l0.4-1.8h-0.8v-1.1h1.1l0.3-1.2h-0.9v-1.1h1.1l0.4-1.6h1l-0.4,1.6h1.1l0.4-1.6h1
			l-0.4,1.6h0.7l0,1.1h-1l-0.3,1.2h0.8V20h-1.1l-0.4,1.8h-1L206.8,20L206.8,20L206.8,20z M207.4,17.7h-1.1l-0.3,1.2h1.1L207.4,17.7z
			"/>
		<path class="st9" d="M214.2,20h-1.1l-0.4,1.8h-1l0.4-1.8h-0.8v-1.1h1.1l0.3-1.2h-0.9v-1.1h1.1l0.4-1.6h1l-0.4,1.6h1.1l0.4-1.6h1
			l-0.4,1.6h0.7l0,1.1h-1l-0.3,1.2h0.8V20h-1.1l-0.4,1.8h-1L214.2,20L214.2,20L214.2,20z M214.8,17.7h-1.1l-0.3,1.2h1.1L214.8,17.7
			L214.8,17.7z"/>
		<path class="st9" d="M221.6,20h-1.1l-0.4,1.8h-1l0.4-1.8h-0.8v-1.1h1.1l0.3-1.2h-0.9v-1.1h1.1l0.4-1.6h1l-0.4,1.6h1.1l0.4-1.6h1
			l-0.4,1.6h0.7l0,1.1h-1l-0.3,1.2h0.8V20h-1.1l-0.4,1.8h-1L221.6,20L221.6,20z M222.1,17.7H221l-0.3,1.2h1.1L222.1,17.7z"/>
		<path class="st9" d="M228.9,20h-1.1l-0.4,1.8h-1l0.4-1.8H226v-1.1h1.1l0.3-1.2h-0.9v-1.1h1.1l0.4-1.6h1l-0.4,1.6h1.1l0.4-1.6h1
			l-0.4,1.6h0.7l0,1.1h-1l-0.3,1.2h0.8V20h-1.1l-0.4,1.8h-1L228.9,20L228.9,20z M229.5,17.7h-1.1l-0.3,1.2h1.1L229.5,17.7
			L229.5,17.7z"/>
		<path class="st1" d="M199.4,20h-1.1l-0.4,1.8h-1l0.4-1.8h-0.8v-1.1h1.1l0.3-1.2H197v-1.1h1.1l0.4-1.6h1l-0.4,1.6h1.1l0.4-1.6h1
			l-0.4,1.6h0.7l0,1.1h-1l-0.3,1.2h0.8V20h-1.1l-0.4,1.8h-1L199.4,20z M200,17.7h-1.1l-0.3,1.2h1.1L200,17.7z"/>
		<path class="st1" d="M206.8,20h-1.1l-0.4,1.8h-1l0.4-1.8h-0.8v-1.1h1.1l0.3-1.2h-0.9v-1.1h1.1l0.4-1.6h1l-0.4,1.6h1.1l0.4-1.6h1
			l-0.4,1.6h0.7l0,1.1h-1l-0.3,1.2h0.8V20h-1.1l-0.4,1.8h-1L206.8,20L206.8,20L206.8,20z M207.4,17.7h-1.1l-0.3,1.2h1.1L207.4,17.7z
			"/>
		<path class="st1" d="M214.2,20h-1.1l-0.4,1.8h-1l0.4-1.8h-0.8v-1.1h1.1l0.3-1.2h-0.9v-1.1h1.1l0.4-1.6h1l-0.4,1.6h1.1l0.4-1.6h1
			l-0.4,1.6h0.7l0,1.1h-1l-0.3,1.2h0.8V20h-1.1l-0.4,1.8h-1L214.2,20L214.2,20L214.2,20z M214.8,17.7h-1.1l-0.3,1.2h1.1L214.8,17.7
			L214.8,17.7z"/>
		<path class="st1" d="M221.6,20h-1.1l-0.4,1.8h-1l0.4-1.8h-0.8v-1.1h1.1l0.3-1.2h-0.9v-1.1h1.1l0.4-1.6h1l-0.4,1.6h1.1l0.4-1.6h1
			l-0.4,1.6h0.7l0,1.1h-1l-0.3,1.2h0.8V20h-1.1l-0.4,1.8h-1L221.6,20L221.6,20z M222.1,17.7H221l-0.3,1.2h1.1L222.1,17.7z"/>
		<path class="st1" d="M228.9,20h-1.1l-0.4,1.8h-1l0.4-1.8H226v-1.1h1.1l0.3-1.2h-0.9v-1.1h1.1l0.4-1.6h1l-0.4,1.6h1.1l0.4-1.6h1
			l-0.4,1.6h0.7l0,1.1h-1l-0.3,1.2h0.8V20h-1.1l-0.4,1.8h-1L228.9,20L228.9,20z M229.5,17.7h-1.1l-0.3,1.2h1.1L229.5,17.7
			L229.5,17.7z"/>
	</g>
</g>
<g>
	<defs>
		<rect id="SVGID_00000049934855649075718520000005607350687828842145_" x="342.5" y="6.7" width="54.7" height="50.1"/>
	</defs>
	<clipPath id="SVGID_00000180346696819301956520000008590753916951772081_">
		<use xlink:href="#SVGID_00000049934855649075718520000005607350687828842145_"  style="overflow:visible;"/>
	</clipPath>
	<g style="clip-path:url(#SVGID_00000180346696819301956520000008590753916951772081_);">
		<path class="st0" d="M358.3,56.8c8.7,0,15.8-7.1,15.8-15.8s-7.1-15.8-15.8-15.8s-15.8,7.1-15.8,15.8S349.6,56.8,358.3,56.8z"/>
		<path class="st1" d="M365.1,41.8c-0.6-0.7-1.3-1.1-2.2-1.3c1.2-0.6,1.9-1.9,1.6-3.2c0-0.5-0.2-1-0.4-1.4c-0.3-0.4-0.6-0.7-1-1
			c-0.4-0.2-0.9-0.4-1.4-0.6c-0.6-0.1-1.1-0.2-1.7-0.2V31h-1.9v3h-1.5v-3h-1.9v3.1h-3.8v2h1.4c0.5-0.1,1,0.3,1.1,0.9c0,0,0,0,0,0
			v8.5c0,0.4-0.3,0.6-0.7,0.6c0,0,0,0,0,0h-1.4l-0.4,2.3h3.8v3.2h1.9v-3.1h1.5v3.1h1.9v-3.2c0.6,0,1.2-0.1,1.8-0.2
			c0.5-0.1,1-0.2,1.5-0.4c0.4-0.2,0.8-0.4,1.2-0.7c0.3-0.3,0.6-0.7,0.8-1.1c0.2-0.5,0.4-1,0.4-1.5C365.9,43.5,365.7,42.6,365.1,41.8
			L365.1,41.8L365.1,41.8L365.1,41.8z M356.6,36.3h1.2c0.2,0,0.5,0,0.7,0c0.3,0,0.5,0.1,0.8,0.1c0.2,0,0.5,0.1,0.7,0.2
			c0.2,0.1,0.4,0.2,0.6,0.3c0.2,0.1,0.3,0.3,0.4,0.5c0.1,0.2,0.2,0.5,0.2,0.7c0,0.2,0,0.4-0.1,0.6c-0.1,0.2-0.2,0.3-0.3,0.5
			c-0.1,0.1-0.3,0.2-0.5,0.3c-0.2,0.1-0.4,0.2-0.6,0.2l-0.6,0.1c-0.2,0-0.5,0.1-0.7,0.1h-1.6L356.6,36.3L356.6,36.3L356.6,36.3z
			 M361.8,44.7c-0.1,0.2-0.2,0.3-0.3,0.5c-0.1,0.2-0.3,0.3-0.5,0.4c-0.2,0.1-0.4,0.2-0.6,0.3c-0.2,0.1-0.5,0.1-0.7,0.2
			c-0.3,0.1-0.5,0.1-0.7,0.1c-0.2,0-0.4,0-0.7,0.1h-1.7V42h2.2c0.3,0,0.6,0.1,0.9,0.1c0.3,0.1,0.5,0.1,0.8,0.2
			c0.3,0.1,0.5,0.2,0.7,0.4c0.2,0.2,0.3,0.4,0.5,0.6C362,43.7,362,44.2,361.8,44.7L361.8,44.7L361.8,44.7z"/>
		<path class="st0" d="M393.9,35.2c0,6-4.9,10.9-10.9,10.9c-6,0-10.9-4.9-11-10.9c0-6,4.9-10.9,10.9-10.9h0
			C389,24.3,393.9,29.2,393.9,35.2z"/>
		<path class="st1" d="M382.6,38.2l0.7-2.9l1.3-0.5v-1.4l-1,0.4l1-4.6h-3.9l-1.4,6.2l-1.3,0.5v1.4l1-0.4l-0.8,3.5h9.1l0.6-2.2
			L382.6,38.2L382.6,38.2L382.6,38.2z"/>
		<path class="st0" d="M378.8,19.3c0,4.6-3.8,8.4-8.4,8.4S362,24,362,19.3s3.8-8.4,8.4-8.4S378.8,14.7,378.8,19.3z M370.6,25.6
			c1.2-1.7,2.5-3.5,3.7-5.2c0,0-0.1,0-0.1,0c-1.2,0.7-2.3,1.4-3.5,2c-0.1,0-0.1,0.1-0.1,0.2C370.6,23.6,370.6,24.6,370.6,25.6
			L370.6,25.6L370.6,25.6L370.6,25.6z M370.3,25.6c0-1,0-2,0-3c0-0.1,0-0.1-0.1-0.2c-1.2-0.7-2.3-1.4-3.5-2c0,0-0.1,0-0.1-0.1
			c0,0.1,0.1,0.1,0.1,0.1c0.7,1,1.3,1.9,2,2.9C369.2,24.1,369.8,24.8,370.3,25.6L370.3,25.6L370.3,25.6z M370.6,13.1
			C370.6,13.1,370.6,13.1,370.6,13.1c0,1.5,0,2.9,0,4.4c0,0.1,0,0.1,0.1,0.1c1.2,0.5,2.3,1,3.5,1.5c0,0,0.1,0,0.1,0.1
			C373,17.2,371.8,15.1,370.6,13.1C370.6,13.1,370.6,13.1,370.6,13.1z M366.8,19.2c1.1-0.5,2.3-1,3.4-1.5c0.1,0,0.1-0.1,0.1-0.2
			v-4.3c0,0,0-0.1,0-0.1c-1.2,2-2.4,4.1-3.6,6.1C366.7,19.2,366.8,19.2,366.8,19.2L366.8,19.2L366.8,19.2z M370.6,21.7
			c1.3-0.7,2.5-1.5,3.8-2.2c-1.3-0.6-2.5-1.1-3.8-1.7V21.7L370.6,21.7L370.6,21.7z M366.5,19.5c1.3,0.7,2.5,1.5,3.8,2.2v-3.9
			C369.1,18.4,367.8,19,366.5,19.5z"/>
	</g>
</g>
<rect x="2.4" y="161.3" class="st11" width="260.3" height="26.6"/>
<text transform="matrix(1 0 0 1 2.3502 173.5374)" class="st2 st12 st13">Escrever Regra de Criptomoeda</text>
</svg>
