<?xml version="1.0" encoding="UTF-8"?><svg id="Layer_1" xmlns="http://www.w3.org/2000/svg" xmlns:xlink="http://www.w3.org/1999/xlink" viewBox="0 0 612 392.256"><defs><style>.cls-1,.cls-2,.cls-3,.cls-4{fill:none;}.cls-5{clip-path:url(#clippath);}.cls-2{stroke:rgba(0,0,0,.1);stroke-width:.5px;}.cls-6{fill:#f7941d;}.cls-7{fill:#fff;}.cls-8{fill:#00a651;}.cls-9{fill:#be1e2d;}.cls-10,.cls-11{fill:#4a9cd5;}.cls-12{fill:#4c9bd5;}.cls-13,.cls-14{fill:#274666;}.cls-11,.cls-14{isolation:isolate;opacity:.3;}.cls-15{clip-path:url(#clippath-1);}.cls-16{clip-path:url(#clippath-4);}.cls-17{clip-path:url(#clippath-3);}.cls-18{clip-path:url(#clippath-2);}.cls-19{clip-path:url(#clippath-6);}.cls-20{clip-path:url(#clippath-5);}.cls-3{stroke-miterlimit:10;stroke-width:2px;}.cls-3,.cls-4{stroke:#fff;}.cls-4{stroke-width:3px;}</style><clipPath id="clippath"><rect class="cls-1" x="230" y="237.256" width="27" height="23.6268"/></clipPath><clipPath id="clippath-1"><rect class="cls-1" x="21" y="237.256" width="25" height="25"/></clipPath><clipPath id="clippath-2"><rect class="cls-1" x="439" y="237.256" width="25" height="25"/></clipPath><clipPath id="clippath-3"><rect class="cls-1" x="176" y="341.256" width="8" height="8"/></clipPath><clipPath id="clippath-4"><rect class="cls-1" x="17" y="351.256" width="28" height="27"/></clipPath><clipPath id="clippath-5"><rect class="cls-1" x="230" y="350.256" width="19.7486" height="29.0648"/></clipPath><clipPath id="clippath-6"><rect class="cls-1" x="440" y="351.256" width="25.0261" height="26.5236"/></clipPath></defs><rect class="cls-7" x="1" y="97.472" width="611" height="34" rx="5" ry="5"/><rect class="cls-7" x="220" y="21.472" width="175" height="28" rx="5" ry="5"/><rect class="cls-7" x="437" y="21.472" width="175" height="28" rx="5" ry="5"/><path class="cls-13" d="m8.888,86.472h1.856l-3.584-10.4h-2.144l-3.632,10.4h1.84l.896-2.608h3.888l.88,2.608Zm-2.8-8.512l1.408,4.32h-2.832l1.424-4.32Zm10.2694.32c-.896,0-1.744.368-2.448,1.024l-.16-.832h-1.52v11.392l1.84-.256v-3.328c.592.256,1.216.384,1.824.384,1.952,0,3.792-1.36,3.792-4.256,0-2.64-1.52-4.128-3.328-4.128Zm-.912,6.896c-.448,0-.912-.096-1.376-.256v-4.4c.592-.432,1.232-.704,1.824-.704,1.12,0,1.936.896,1.936,2.592,0,1.936-1.072,2.768-2.384,2.768Zm10.1464-6.896c-.896,0-1.744.368-2.448,1.024l-.16-.832h-1.52v11.392l1.84-.256v-3.328c.592.256,1.216.384,1.824.384,1.952,0,3.792-1.36,3.792-4.256,0-2.64-1.52-4.128-3.328-4.128Zm-.912,6.896c-.448,0-.912-.096-1.376-.256v-4.4c.592-.432,1.232-.704,1.824-.704,1.12,0,1.936.896,1.936,2.592,0,1.936-1.072,2.768-2.384,2.768Zm7.8583-10.176l-1.84.272v11.2h1.84v-11.472Zm7.1982,3.472l-1.936,5.696-1.904-5.696h-1.84l2.832,8c-.432.912-1.024,1.344-1.936,1.904l.8,1.376c1.648-.928,2.528-2.08,3.056-3.536l2.784-7.744h-1.856Zm11.8908,6.464c-.48.16-.88.208-1.184.208-.832,0-1.104-.608-1.104-2.064v-3.152h2.336v-1.456h-2.336v-2.032l-1.84.352v1.68h-1.04v1.456h1.04v3.104c0,2.416.624,3.632,2.432,3.632.592,0,1.184-.08,1.92-.32l-.224-1.408Zm4.995-6.656c-2.4,0-3.872,1.776-3.872,4.192,0,2.432,1.456,4.192,3.872,4.192,2.4,0,3.872-1.76,3.872-4.192s-1.472-4.192-3.872-4.192Zm0,1.456c1.216,0,2.016,1.04,2.016,2.736s-.8,2.736-2.016,2.736c-1.232,0-2.016-1.04-2.016-2.736s.784-2.736,2.016-2.736Zm18.9285-1.264l-1.552,5.808-1.632-5.808h-1.664l-1.616,5.808-1.552-5.808h-1.744l2.224,8h1.968l1.552-5.2,1.568,5.2h1.952l2.256-8h-1.76Zm7.8169-.192c-.976,0-1.856.368-2.72,1.072v-4.352l-1.84.272v11.248h1.84v-5.792c.72-.64,1.584-.928,2.208-.928.768,0,1.344.416,1.344,1.776v4.896h1.856v-4.96c0-2.112-.896-3.232-2.688-3.232Zm5.9506-.832c.624,0,1.1199-.528,1.1199-1.184s-.4959-1.184-1.1199-1.184-1.12.528-1.12,1.184.496,1.184,1.12,1.184Zm.9279,1.024h-1.8559v8h1.8559v-8Zm5.909-.192c-2.112,0-3.92,1.168-3.92,4.192,0,2.896,1.728,4.208,3.872,4.208.864,0,1.968-.208,2.544-.512l-.208-1.392c-.512.208-1.344.368-1.936.368-1.392,0-2.432-.928-2.432-2.72,0-1.968,1.088-2.64,2.464-2.64.512,0,1.136.112,1.728.304l.352-1.36c-.768-.304-1.632-.448-2.464-.448Zm8.744,0c-.976,0-1.856.368-2.72,1.072v-4.352l-1.84.272v11.248h1.84v-5.792c.72-.64,1.584-.928,2.208-.928.768,0,1.344.416,1.344,1.776v4.896h1.856v-4.96c0-2.112-.896-3.232-2.688-3.232Zm12.537,0c-2.112,0-3.92,1.168-3.92,4.192,0,2.896,1.728,4.208,3.872,4.208.864,0,1.968-.208,2.544-.512l-.208-1.392c-.512.208-1.344.368-1.936.368-1.392,0-2.432-.928-2.432-2.72,0-1.968,1.088-2.64,2.464-2.64.512,0,1.136.112,1.728.304l.352-1.36c-.768-.304-1.632-.448-2.464-.448Zm7.452,0c-2.4,0-3.872,1.776-3.872,4.192,0,2.432,1.456,4.192,3.872,4.192,2.4,0,3.872-1.76,3.872-4.192s-1.472-4.192-3.872-4.192Zm0,1.456c1.216,0,2.016,1.04,2.016,2.736s-.8,2.736-2.016,2.736c-1.232,0-2.016-1.04-2.016-2.736s.784-2.736,2.016-2.736Zm10.454-1.264v5.76c-.624.624-1.408.912-1.984.912-.624,0-1.184-.416-1.184-1.776v-4.896h-1.84v4.96c0,2.112.848,3.232,2.496,3.232.976,0,1.824-.4,2.656-1.168l.176.976h1.52v-8h-1.84Zm8.635-.192c-1.024,0-1.952.416-2.848,1.184l-.176-.992h-1.536v8h1.84v-5.744c.72-.64,1.584-.928,2.208-.928.768,0,1.344.416,1.344,1.776v4.896h1.856v-4.96c0-2.112-.896-3.232-2.688-3.232Zm9.135,6.656c-.48.16-.88.208-1.184.208-.832,0-1.104-.608-1.104-2.064v-3.152h2.336v-1.456h-2.336v-2.032l-1.84.352v1.68h-1.04v1.456h1.04v3.104c0,2.416.624,3.632,2.432,3.632.592,0,1.184-.08,1.92-.32l-.224-1.408Zm6.621-6.656c-.992,0-2.064.464-3.024,1.328l-.144-1.136h-1.632v8h1.84v-5.392c.864-.704,2.08-.96,2.848-.96l.112-1.84Zm2.507-.832c.624,0,1.12-.528,1.12-1.184s-.496-1.184-1.12-1.184-1.12.528-1.12,1.184.496,1.184,1.12,1.184Zm.928,1.024h-1.856v8h1.856v-8Zm5.7-.192c-2.096,0-3.712,1.52-3.712,4.192,0,2.8,1.744,4.208,3.952,4.208.976,0,2.112-.208,2.688-.512l-.208-1.408c-.544.224-1.392.4-2.048.4-1.376,0-2.4-.832-2.608-2.256h5.328c.256-2.72-.816-4.624-3.392-4.624Zm.016,1.44c.992,0,1.584.672,1.648,1.952h-3.584c.192-1.136.88-1.952,1.936-1.952Zm7.562-1.44c-1.904,0-3.072.832-3.072,2.256,0,1.152.752,1.68,2.416,2.528,1.184.576,1.696.848,1.696,1.392s-.496.832-1.28.832c-.752,0-1.728-.304-2.496-.672l-.336,1.424c1.056.416,2,.624,2.912.624,1.824,0,2.976-.832,2.976-2.24,0-1.232-.928-1.984-2.72-2.864-.976-.464-1.424-.656-1.424-1.104,0-.544.496-.8,1.312-.8.736,0,1.632.24,2.192.464l.32-1.472c-.768-.24-1.744-.368-2.496-.368Zm5.337,4.864h1.856v-.848c0-.752.496-1.216,1.136-1.696.8-.64,1.616-1.28,1.616-2.688,0-1.792-1.44-2.832-3.36-2.832-.944,0-2.016.24-2.848.64l.448,1.36c.624-.336,1.472-.544,2.208-.544,1.072,0,1.696.48,1.696,1.328,0,.912-.64,1.424-1.312,1.968-.72.592-1.44,1.232-1.44,2.464v.848Zm.944,3.52c.608,0,1.12-.528,1.12-1.184,0-.64-.512-1.168-1.12-1.168-.624,0-1.136.528-1.136,1.168,0,.656.512,1.184,1.136,1.184Z"/><path class="cls-13" d="m12.872,198.856l-1.936,7.568-1.984-7.568h-1.76l-2,7.584-1.92-7.6h-1.888l2.768,10.416h1.936l1.984-7.568,1.968,7.568h1.952l2.768-10.4h-1.888Zm7.9486,2.208c-.976,0-1.856.368-2.72,1.072v-4.352l-1.84.272v11.248h1.84v-5.792c.72-.64,1.584-.928,2.208-.928.768,0,1.344.416,1.344,1.776v4.896h1.856v-4.96c0-2.112-.896-3.232-2.688-3.232Zm8.1907,0c-.88,0-1.952.144-3.088.448l.272,1.456c.912-.272,1.952-.464,2.576-.464,1.184,0,1.28.64,1.28,1.936-2.624.096-4.9921.768-4.9921,2.72,0,1.52,1.1361,2.288,2.4961,2.288.928,0,1.968-.352,2.672-.976l.144.784h1.536v-4.656c0-1.6.048-3.536-2.896-3.536Zm-1.008,7.024c-.736,0-1.168-.368-1.168-.944,0-1.136,1.616-1.472,3.216-1.52v1.504c-.544.56-1.344.96-2.048.96Zm10.3582-.368c-.48.16-.88.208-1.184.208-.832,0-1.104-.608-1.104-2.064v-3.152h2.336v-1.456h-2.336v-2.032l-1.84.352v1.68h-1.04v1.456h1.04v3.104c0,2.416.624,3.632,2.432,3.632.592,0,1.184-.08,1.92-.32l-.224-1.408Zm10.8554-6.656c-.992,0-2.064.464-3.024,1.328l-.144-1.136h-1.632v8h1.84v-5.392c.864-.704,2.08-.96,2.848-.96l.112-1.84Zm2.5075-.832c.624,0,1.12-.528,1.12-1.184s-.496-1.184-1.12-1.184-1.12.528-1.12,1.184.496,1.184,1.12,1.184Zm.928,1.024h-1.856v8h1.856v-8Zm4.9964-.192c-1.904,0-3.072.832-3.072,2.256,0,1.152.752,1.68,2.416,2.528,1.184.576,1.696.848,1.696,1.392s-.4961.832-1.28.832c-.752,0-1.728-.304-2.496-.672l-.336,1.424c1.056.416,2,.624,2.912.624,1.824,0,2.976-.832,2.976-2.24,0-1.232-.928-1.984-2.72-2.864-.976-.464-1.4241-.656-1.4241-1.104,0-.544.4961-.8,1.3121-.8.736,0,1.632.24,2.192.464l.32-1.472c-.768-.24-1.744-.368-2.496-.368Zm9.7806,8.192h1.984l-3.152-4.992,3.072-3.008h-2.192l-3.072,2.912v-6.384l-1.84.272v11.2h1.84v-2.848l.944-.928,2.416,3.776Zm10.3131-8.192c-1.904,0-3.072.832-3.072,2.256,0,1.152.752,1.68,2.416,2.528,1.184.576,1.696.848,1.696,1.392s-.496.832-1.28.832c-.752,0-1.728-.304-2.496-.672l-.336,1.424c1.056.416,2,.624,2.912.624,1.824,0,2.976-.832,2.976-2.24,0-1.232-.928-1.984-2.72-2.864-.976-.464-1.424-.656-1.424-1.104,0-.544.496-.8,1.312-.8.736,0,1.632.24,2.192.464l.32-1.472c-.768-.24-1.744-.368-2.496-.368Zm7.8495,0c-2.112,0-3.92,1.168-3.92,4.192,0,2.896,1.728,4.208,3.872,4.208.864,0,1.968-.208,2.544-.512l-.208-1.392c-.512.208-1.344.368-1.936.368-1.392,0-2.432-.928-2.432-2.72,0-1.968,1.088-2.64,2.464-2.64.512,0,1.136.112,1.728.304l.352-1.36c-.768-.304-1.632-.448-2.464-.448Zm7.452,0c-2.4,0-3.872,1.776-3.872,4.192,0,2.432,1.456,4.192,3.872,4.192,2.4,0,3.872-1.76,3.872-4.192s-1.472-4.192-3.872-4.192Zm0,1.456c1.216,0,2.016,1.04,2.016,2.736s-.8,2.736-2.016,2.736c-1.232,0-2.016-1.04-2.016-2.736s.784-2.736,2.016-2.736Zm10.454-1.456c-.992,0-2.064.464-3.024,1.328l-.144-1.136h-1.632v8h1.84v-5.392c.864-.704,2.08-.96,2.848-.96l.112-1.84Zm4.48,0c-2.096,0-3.712,1.52-3.712,4.192,0,2.8,1.744,4.208,3.952,4.208.976,0,2.112-.208,2.688-.512l-.208-1.408c-.544.224-1.392.4-2.048.4-1.376,0-2.4-.832-2.608-2.256h5.328c.256-2.72-.816-4.624-3.392-4.624Zm.016,1.44c.992,0,1.584.672,1.648,1.952h-3.584c.192-1.136.88-1.952,1.936-1.952Zm14.591-4.448v3.392c-.592-.256-1.216-.384-1.824-.384-1.952,0-3.776,1.36-3.776,4.256,0,2.64,1.504,4.128,3.312,4.128.912,0,1.744-.368,2.464-1.024l.144.832h1.536v-11.472l-1.856.272Zm-3.76,7.264c0-1.936,1.088-2.768,2.4-2.768.432,0,.912.096,1.36.256v4.4c-.592.432-1.232.704-1.824.704-1.104,0-1.936-.896-1.936-2.592Zm11.266-4.256c-2.4,0-3.872,1.776-3.872,4.192,0,2.432,1.456,4.192,3.872,4.192,2.4,0,3.872-1.76,3.872-4.192s-1.472-4.192-3.872-4.192Zm0,1.456c1.216,0,2.016,1.04,2.016,2.736s-.8,2.736-2.016,2.736c-1.232,0-2.016-1.04-2.016-2.736s.784-2.736,2.016-2.736Zm14.848-1.264l-1.936,5.696-1.904-5.696h-1.84l2.832,8c-.432.912-1.024,1.344-1.936,1.904l.8,1.376c1.648-.928,2.528-2.08,3.056-3.536l2.784-7.744h-1.856Zm6.433-.192c-2.4,0-3.872,1.776-3.872,4.192,0,2.432,1.456,4.192,3.872,4.192,2.4,0,3.872-1.76,3.872-4.192s-1.472-4.192-3.872-4.192Zm0,1.456c1.216,0,2.016,1.04,2.016,2.736s-.8,2.736-2.016,2.736c-1.232,0-2.016-1.04-2.016-2.736s.784-2.736,2.016-2.736Zm10.454-1.264v5.76c-.624.624-1.408.912-1.984.912-.624,0-1.184-.416-1.184-1.776v-4.896h-1.84v4.96c0,2.112.848,3.232,2.496,3.232.976,0,1.824-.4,2.656-1.168l.176.976h1.52v-8h-1.84Zm17.35,0l-1.552,5.808-1.632-5.808h-1.664l-1.616,5.808-1.552-5.808h-1.744l2.224,8h1.968l1.552-5.2,1.568,5.2h1.952l2.256-8h-1.76Zm6.304-.192c-.88,0-1.952.144-3.088.448l.272,1.456c.912-.272,1.952-.464,2.576-.464,1.184,0,1.28.64,1.28,1.936-2.624.096-4.992.768-4.992,2.72,0,1.52,1.136,2.288,2.496,2.288.928,0,1.968-.352,2.672-.976l.144.784h1.536v-4.656c0-1.6.048-3.536-2.896-3.536Zm-1.008,7.024c-.736,0-1.168-.368-1.168-.944,0-1.136,1.616-1.472,3.216-1.52v1.504c-.544.56-1.344.96-2.048.96Zm10.614-7.024c-1.024,0-1.952.416-2.848,1.184l-.176-.992h-1.536v8h1.84v-5.744c.72-.64,1.584-.928,2.208-.928.768,0,1.344.416,1.344,1.776v4.896h1.856v-4.96c0-2.112-.896-3.232-2.688-3.232Zm9.135,6.656c-.48.16-.88.208-1.184.208-.832,0-1.104-.608-1.104-2.064v-3.152h2.336v-1.456h-2.336v-2.032l-1.84.352v1.68h-1.04v1.456h1.04v3.104c0,2.416.624,3.632,2.432,3.632.592,0,1.184-.08,1.92-.32l-.224-1.408Zm10.359,0c-.48.16-.88.208-1.184.208-.832,0-1.104-.608-1.104-2.064v-3.152h2.336v-1.456h-2.336v-2.032l-1.84.352v1.68h-1.04v1.456h1.04v3.104c0,2.416.624,3.632,2.432,3.632.592,0,1.184-.08,1.92-.32l-.224-1.408Zm4.995-6.656c-2.4,0-3.872,1.776-3.872,4.192,0,2.432,1.456,4.192,3.872,4.192,2.4,0,3.872-1.76,3.872-4.192s-1.472-4.192-3.872-4.192Zm0,1.456c1.216,0,2.016,1.04,2.016,2.736s-.8,2.736-2.016,2.736c-1.232,0-2.016-1.04-2.016-2.736s.784-2.736,2.016-2.736Zm14.017-1.456c-.832,0-1.616.32-2.288.88v-4.16l-1.84.272v10.528c.928.544,2.096.864,3.264.864,2.32,0,4.16-1.424,4.16-4.304,0-2.608-1.504-4.08-3.296-4.08Zm-.944,6.896c-.448,0-.864-.08-1.344-.224v-4.432c.592-.432,1.232-.704,1.824-.704,1.104,0,1.92.896,1.92,2.592,0,1.936-1.056,2.768-2.4,2.768Zm9.205-6.896c-2.096,0-3.712,1.52-3.712,4.192,0,2.8,1.744,4.208,3.952,4.208.976,0,2.112-.208,2.688-.512l-.208-1.408c-.544.224-1.392.4-2.048.4-1.376,0-2.4-.832-2.608-2.256h5.328c.256-2.72-.816-4.624-3.392-4.624Zm.016,1.44c.992,0,1.584.672,1.648,1.952h-3.584c.192-1.136.88-1.952,1.936-1.952Zm12.799-1.44c-.88,0-1.952.144-3.088.448l.272,1.456c.912-.272,1.952-.464,2.576-.464,1.184,0,1.28.64,1.28,1.936-2.624.096-4.993.768-4.993,2.72,0,1.52,1.137,2.288,2.497,2.288.928,0,1.968-.352,2.672-.976l.144.784h1.536v-4.656c0-1.6.048-3.536-2.896-3.536Zm-1.008,7.024c-.736,0-1.168-.368-1.168-.944,0-1.136,1.616-1.472,3.216-1.52v1.504c-.544.56-1.344.96-2.048.96Zm7.894-10.304l-1.84.272v11.2h1.84v-11.472Zm5.502,3.28c-2.096,0-3.712,1.52-3.712,4.192,0,2.8,1.744,4.208,3.952,4.208.976,0,2.112-.208,2.688-.512l-.208-1.408c-.544.224-1.392.4-2.048.4-1.376,0-2.4-.832-2.608-2.256h5.328c.256-2.72-.816-4.624-3.392-4.624Zm.016,1.44c.992,0,1.584.672,1.648,1.952h-3.584c.192-1.136.88-1.952,1.936-1.952Zm10.004-1.44c-.992,0-2.064.464-3.024,1.328l-.144-1.136h-1.632v8h1.84v-5.392c.864-.704,2.08-.96,2.848-.96l.112-1.84Zm5.848,6.656c-.48.16-.88.208-1.184.208-.832,0-1.104-.608-1.104-2.064v-3.152h2.336v-1.456h-2.336v-2.032l-1.84.352v1.68h-1.04v1.456h1.04v3.104c0,2.416.624,3.632,2.432,3.632.592,0,1.184-.08,1.92-.32l-.224-1.408Zm4.835-6.656c-2.096,0-3.712,1.52-3.712,4.192,0,2.8,1.744,4.208,3.952,4.208.976,0,2.112-.208,2.688-.512l-.208-1.408c-.544.224-1.392.4-2.048.4-1.376,0-2.4-.832-2.608-2.256h5.328c.256-2.72-.816-4.624-3.392-4.624Zm.016,1.44c.992,0,1.584.672,1.648,1.952h-3.584c.192-1.136.88-1.952,1.936-1.952Zm10.263-4.448v3.392c-.592-.256-1.216-.384-1.824-.384-1.952,0-3.776,1.36-3.776,4.256,0,2.64,1.504,4.128,3.312,4.128.912,0,1.744-.368,2.464-1.024l.144.832h1.536v-11.472l-1.856.272Zm-3.76,7.264c0-1.936,1.088-2.768,2.4-2.768.432,0,.912.096,1.36.256v4.4c-.592.432-1.232.704-1.824.704-1.104,0-1.936-.896-1.936-2.592Zm15.436-4.256c-.88,0-1.952.144-3.088.448l.272,1.456c.912-.272,1.952-.464,2.576-.464,1.184,0,1.28.64,1.28,1.936-2.624.096-4.992.768-4.992,2.72,0,1.52,1.136,2.288,2.496,2.288.928,0,1.968-.352,2.672-.976l.144.784h1.536v-4.656c0-1.6.048-3.536-2.896-3.536Zm-1.008,7.024c-.736,0-1.168-.368-1.168-.944,0-1.136,1.616-1.472,3.216-1.52v1.504c-.544.56-1.344.96-2.048.96Zm10.359-.368c-.48.16-.88.208-1.184.208-.832,0-1.104-.608-1.104-2.064v-3.152h2.336v-1.456h-2.336v-2.032l-1.84.352v1.68h-1.04v1.456h1.04v3.104c0,2.416.624,3.632,2.432,3.632.592,0,1.184-.08,1.92-.32l-.224-1.408Zm2.781-1.792h1.856v-.848c0-.752.496-1.216,1.136-1.696.8-.64,1.616-1.28,1.616-2.688,0-1.792-1.44-2.832-3.36-2.832-.944,0-2.016.24-2.848.64l.448,1.36c.624-.336,1.472-.544,2.208-.544,1.072,0,1.696.48,1.696,1.328,0,.912-.64,1.424-1.312,1.968-.72.592-1.44,1.232-1.44,2.464v.848Zm.944,3.52c.608,0,1.12-.528,1.12-1.184,0-.64-.512-1.168-1.12-1.168-.624,0-1.136.528-1.136,1.168,0,.656.512,1.184,1.136,1.184Zm12.493,1.84l.384-.832c-1.68-.704-2.336-2.304-2.336-4.176,0-3.168,1.504-6.448,4.352-7.472l-.224-.896c-3.328,1.008-5.28,4.672-5.28,8.304,0,2.336.928,4.368,3.104,5.072Zm6.871-12.608c-2.08,0-3.632,1.2-3.664,2.96-.032,1.472,1.088,2.08,2.432,2.768,1.216.608,1.92,1.056,1.92,2.032,0,1.168-1.024,2-2.4,2-.88,0-1.936-.352-2.768-1.44l-.608.832c.784,1.04,1.983,1.6,3.36,1.6,1.968,0,3.52-1.072,3.552-2.96.048-1.68-1.184-2.32-2.416-2.976-1.2-.624-1.904-1.024-1.904-1.92,0-1.104,1.104-1.904,2.528-1.904.656,0,1.456.176,2.048.512l.448-.912c-.672-.352-1.664-.592-2.528-.592Zm9.716,6.784c.64-2.624-.112-4.384-2.336-4.384-2.624,0-4.176,2.512-4.176,5.04,0,2.192,1.12,3.312,3.072,3.312,1.12,0,2.128-.368,2.656-.64l-.048-.912c-.528.256-1.44.608-2.352.608-1.488,0-2.224-.928-2.224-2.448,0-.192.016-.4.032-.608l5.376.032Zm-2.416-3.456c1.184,0,1.728.864,1.44,2.544h-4.208c.416-1.376,1.392-2.544,2.768-2.544Zm6.66-4.144l-1.168.192-1.872,11.2h1.12l1.92-11.392Zm6.99,7.6c.64-2.624-.112-4.384-2.336-4.384-2.624,0-4.176,2.512-4.176,5.04,0,2.192,1.12,3.312,3.072,3.312,1.12,0,2.128-.368,2.656-.64l-.048-.912c-.528.256-1.44.608-2.352.608-1.488,0-2.224-.928-2.224-2.448,0-.192.016-.4.032-.608l5.376.032Zm-2.416-3.456c1.184,0,1.728.864,1.44,2.544h-4.208c.416-1.376,1.392-2.544,2.768-2.544Zm7.876-.912c-2.864,0-4.096,2.528-4.096,4.848,0,2.48,1.424,3.488,3.232,3.488.624,0,1.408-.112,2.144-.464l-.048-.928c-.688.288-1.36.448-1.952.448-1.216,0-2.24-.704-2.24-2.56,0-1.76.896-3.904,3.024-3.904.56,0,1.248.144,1.824.432l.4-.832c-.656-.32-1.456-.528-2.288-.528Zm5.268,1.088h2.4l.144-.928h-2.384l.336-1.984-1.184.208-.288,1.776h-1.008l-.16.928h1.008l-.608,3.648c-.432,2.496-.208,3.6,1.584,3.6.4,0,.912-.064,1.552-.272l-.048-.944c-.496.16-.896.24-1.2.24-1.024,0-1.184-.624-.784-2.528l.64-3.744Zm11.256-1.104c-2.88,0-4.464,2.448-4.464,5.088,0,2.208,1.088,3.264,2.576,3.264.88,0,1.776-.384,2.576-1.072l-.032.896h.928l1.232-7.408c-.816-.448-1.808-.768-2.816-.768Zm.768,6.272c-.736.656-1.648,1.12-2.448,1.12-.992,0-1.664-.704-1.664-2.272,0-2.048,1.136-4.176,3.328-4.176.576,0,1.056.144,1.632.352l-.848,4.976Zm6.133-9.488l-1.168.192-1.872,11.2h1.12l1.92-11.392Zm3.39,0l-1.168.192-1.872,11.2h1.12l1.92-11.392Zm6.532,4.32h2.4l.144-.928h-2.384l.336-1.984-1.184.208-.288,1.776h-1.008l-.16.928h1.008l-.608,3.648c-.432,2.496-.208,3.6,1.584,3.6.4,0,.912-.064,1.552-.272l-.048-.944c-.496.16-.896.24-1.2.24-1.024,0-1.184-.624-.784-2.528l.64-3.744Zm7.906-1.104c-.88,0-1.792.368-2.752,1.104l.736-4.32-1.168.192-1.888,11.264h1.12l1.008-6.016c.816-.784,1.92-1.28,2.72-1.28.96,0,1.616.48,1.264,2.224l-.848,5.008h1.12l.832-4.944c.4-2.128-.368-3.232-2.144-3.232Zm8.177,0c-2.88,0-4.464,2.448-4.464,5.088,0,2.208,1.088,3.264,2.576,3.264.88,0,1.776-.384,2.576-1.072l-.032.896h.928l1.232-7.408c-.816-.448-1.808-.768-2.816-.768Zm.768,6.272c-.736.656-1.648,1.12-2.448,1.12-.992,0-1.664-.704-1.664-2.272,0-2.048,1.136-4.176,3.328-4.176.576,0,1.056.144,1.632.352l-.848,4.976Zm5.32-5.168h2.4l.144-.928h-2.384l.336-1.984-1.184.208-.288,1.776h-1.008l-.16.928h1.008l-.608,3.648c-.432,2.496-.208,3.6,1.584,3.6.4,0,.912-.064,1.552-.272l-.048-.944c-.496.16-.896.24-1.2.24-1.024,0-1.184-.624-.784-2.528l.64-3.744Zm11.256-1.104c-2.88,0-4.464,2.448-4.464,5.088,0,2.208,1.088,3.264,2.576,3.264.88,0,1.776-.384,2.576-1.072l-.032.896h.928l1.232-7.408c-.816-.448-1.808-.768-2.816-.768Zm.768,6.272c-.736.656-1.648,1.12-2.448,1.12-.992,0-1.664-.704-1.664-2.272,0-2.048,1.136-4.176,3.328-4.176.576,0,1.056.144,1.632.352l-.848,4.976Zm7.797-6.272c-.864,0-1.728.368-2.512,1.024l.016-.848h-.912l-1.904,11.376,1.152-.192.592-3.52c.544.32,1.2.512,1.888.512,2.576,0,4.336-2.432,4.336-5.184,0-2.032-1.12-3.168-2.656-3.168Zm-1.824,7.408c-.528,0-1.088-.128-1.6-.384l.832-4.992c.736-.64,1.6-1.072,2.384-1.072,1.056,0,1.76.736,1.76,2.176,0,2.144-1.2,4.272-3.376,4.272Zm10.261-7.408c-.864,0-1.728.368-2.512,1.024l.016-.848h-.912l-1.904,11.376,1.152-.192.592-3.52c.544.32,1.2.512,1.888.512,2.576,0,4.336-2.432,4.336-5.184,0-2.032-1.12-3.168-2.656-3.168Zm-1.824,7.408c-.528,0-1.088-.128-1.6-.384l.832-4.992c.736-.64,1.6-1.072,2.384-1.072,1.056,0,1.76.736,1.76,2.176,0,2.144-1.2,4.272-3.376,4.272Zm8.598-10.624l-1.168.192-1.872,11.2h1.12l1.92-11.392Zm6.414,3.392l-3.376,6.864-.96-6.864h-1.136l1.28,8.368c-.48.816-1.056,1.36-2.08,1.984l.464.832c1.648-.976,2.368-1.904,2.992-3.2l3.952-7.984h-1.136Zm.215,10.064c3.328-.976,5.28-4.656,5.28-8.272,0-2.352-.928-4.4-3.104-5.104l-.384.832c1.68.688,2.336,2.304,2.336,4.192,0,3.12-1.536,6.432-4.352,7.44l.224.912Z"/><path class="cls-13" d="m8.968,310.856v4.144h-4.784v-4.144h-1.904v10.4h1.904v-4.656h4.784v4.656h1.904v-10.4h-1.904Zm7.7323,2.208c-2.4,0-3.872,1.776-3.872,4.192,0,2.432,1.456,4.192,3.872,4.192,2.4,0,3.872-1.76,3.872-4.192s-1.472-4.192-3.872-4.192Zm0,1.456c1.216,0,2.016,1.04,2.016,2.736s-.8,2.736-2.016,2.736c-1.232,0-2.016-1.04-2.016-2.736s.784-2.736,2.016-2.736Zm14.3503-1.264l-1.552,5.808-1.632-5.808h-1.664l-1.616,5.808-1.552-5.808h-1.744l2.224,8h1.968l1.552-5.2,1.568,5.2h1.952l2.256-8h-1.76Zm12.6433-3.2v3.392c-.592-.256-1.216-.384-1.824-.384-1.952,0-3.776,1.36-3.776,4.256,0,2.64,1.504,4.128,3.312,4.128.912,0,1.744-.368,2.464-1.024l.144.832h1.536v-11.472l-1.856.272Zm-3.76,7.264c0-1.936,1.088-2.768,2.4-2.768.432,0,.912.096,1.36.256v4.4c-.592.432-1.232.704-1.824.704-1.104,0-1.936-.896-1.936-2.592Zm11.2664-4.256c-2.4,0-3.872,1.776-3.872,4.192,0,2.432,1.456,4.192,3.872,4.192,2.4,0,3.872-1.76,3.872-4.192s-1.472-4.192-3.872-4.192Zm0,1.456c1.216,0,2.016,1.04,2.016,2.736s-.8,2.736-2.016,2.736c-1.232,0-2.016-1.04-2.016-2.736s.784-2.736,2.016-2.736Zm14.8485-1.264l-1.936,5.696-1.904-5.696h-1.84l2.832,8c-.432.912-1.024,1.344-1.936,1.904l.8,1.376c1.648-.928,2.528-2.08,3.056-3.536l2.784-7.744h-1.856Zm6.4327-.192c-2.4,0-3.872,1.776-3.872,4.192,0,2.432,1.456,4.192,3.872,4.192,2.4,0,3.872-1.76,3.872-4.192s-1.472-4.192-3.872-4.192Zm0,1.456c1.216,0,2.016,1.04,2.016,2.736s-.8,2.736-2.016,2.736c-1.232,0-2.016-1.04-2.016-2.736s.784-2.736,2.016-2.736Zm10.4541-1.264v5.76c-.624.624-1.408.912-1.984.912-.624,0-1.184-.416-1.184-1.776v-4.896h-1.84v4.96c0,2.112.848,3.232,2.496,3.232.976,0,1.824-.4,2.656-1.168l.176.976h1.52v-8h-1.84Zm17.3494,0l-1.552,5.808-1.632-5.808h-1.664l-1.616,5.808-1.552-5.808h-1.744l2.224,8h1.968l1.552-5.2,1.568,5.2h1.952l2.256-8h-1.76Zm6.304-.192c-.88,0-1.952.144-3.088.448l.272,1.456c.912-.272,1.952-.464,2.576-.464,1.184,0,1.28.64,1.28,1.936-2.624.096-4.992.768-4.992,2.72,0,1.52,1.136,2.288,2.496,2.288.928,0,1.968-.352,2.672-.976l.144.784h1.536v-4.656c0-1.6.048-3.536-2.896-3.536Zm-1.008,7.024c-.736,0-1.168-.368-1.168-.944,0-1.136,1.616-1.472,3.216-1.52v1.504c-.544.56-1.344.96-2.048.96Zm10.615-7.024c-1.024,0-1.952.416-2.848,1.184l-.176-.992h-1.536v8h1.84v-5.744c.72-.64,1.584-.928,2.208-.928.768,0,1.344.416,1.344,1.776v4.896h1.856v-4.96c0-2.112-.896-3.232-2.688-3.232Zm9.134,6.656c-.48.16-.88.208-1.184.208-.832,0-1.104-.608-1.104-2.064v-3.152h2.336v-1.456h-2.336v-2.032l-1.84.352v1.68h-1.04v1.456h1.04v3.104c0,2.416.624,3.632,2.432,3.632.592,0,1.184-.08,1.92-.32l-.224-1.408Zm10.36,0c-.48.16-.88.208-1.184.208-.832,0-1.104-.608-1.104-2.064v-3.152h2.336v-1.456h-2.336v-2.032l-1.84.352v1.68h-1.04v1.456h1.04v3.104c0,2.416.624,3.632,2.432,3.632.592,0,1.184-.08,1.92-.32l-.224-1.408Zm4.995-6.656c-2.4,0-3.872,1.776-3.872,4.192,0,2.432,1.456,4.192,3.872,4.192,2.4,0,3.872-1.76,3.872-4.192s-1.472-4.192-3.872-4.192Zm0,1.456c1.216,0,2.016,1.04,2.016,2.736s-.8,2.736-2.016,2.736c-1.232,0-2.016-1.04-2.016-2.736s.784-2.736,2.016-2.736Zm14.016-1.456c-.832,0-1.616.32-2.288.88v-4.16l-1.84.272v10.528c.928.544,2.096.864,3.264.864,2.32,0,4.16-1.424,4.16-4.304,0-2.608-1.504-4.08-3.296-4.08Zm-.944,6.896c-.448,0-.864-.08-1.344-.224v-4.432c.592-.432,1.232-.704,1.824-.704,1.104,0,1.92.896,1.92,2.592,0,1.936-1.056,2.768-2.4,2.768Zm9.205-6.896c-2.096,0-3.712,1.52-3.712,4.192,0,2.8,1.744,4.208,3.952,4.208.976,0,2.112-.208,2.688-.512l-.208-1.408c-.544.224-1.392.4-2.048.4-1.376,0-2.4-.832-2.608-2.256h5.328c.256-2.72-.816-4.624-3.392-4.624Zm.016,1.44c.992,0,1.584.672,1.648,1.952h-3.584c.192-1.136.88-1.952,1.936-1.952Zm12.799-1.44c-.88,0-1.952.144-3.088.448l.272,1.456c.912-.272,1.952-.464,2.576-.464,1.184,0,1.28.64,1.28,1.936-2.624.096-4.992.768-4.992,2.72,0,1.52,1.136,2.288,2.496,2.288.928,0,1.968-.352,2.672-.976l.144.784h1.536v-4.656c0-1.6.048-3.536-2.896-3.536Zm-1.008,7.024c-.736,0-1.168-.368-1.168-.944,0-1.136,1.616-1.472,3.216-1.52v1.504c-.544.56-1.344.96-2.048.96Zm7.894-10.304l-1.84.272v11.2h1.84v-11.472Zm5.502,3.28c-2.096,0-3.712,1.52-3.712,4.192,0,2.8,1.744,4.208,3.952,4.208.976,0,2.112-.208,2.688-.512l-.208-1.408c-.544.224-1.392.4-2.048.4-1.376,0-2.4-.832-2.608-2.256h5.328c.256-2.72-.816-4.624-3.392-4.624Zm.016,1.44c.992,0,1.584.672,1.648,1.952h-3.584c.192-1.136.88-1.952,1.936-1.952Zm10.005-1.44c-.992,0-2.064.464-3.024,1.328l-.144-1.136h-1.632v8h1.84v-5.392c.864-.704,2.08-.96,2.848-.96l.112-1.84Zm5.847,6.656c-.48.16-.88.208-1.184.208-.832,0-1.104-.608-1.104-2.064v-3.152h2.336v-1.456h-2.336v-2.032l-1.84.352v1.68h-1.04v1.456h1.04v3.104c0,2.416.624,3.632,2.432,3.632.592,0,1.184-.08,1.92-.32l-.224-1.408Zm4.835-6.656c-2.096,0-3.712,1.52-3.712,4.192,0,2.8,1.744,4.208,3.952,4.208.976,0,2.112-.208,2.688-.512l-.208-1.408c-.544.224-1.392.4-2.048.4-1.376,0-2.4-.832-2.608-2.256h5.328c.256-2.72-.816-4.624-3.392-4.624Zm.016,1.44c.992,0,1.584.672,1.648,1.952h-3.584c.192-1.136.88-1.952,1.936-1.952Zm10.263-4.448v3.392c-.592-.256-1.216-.384-1.824-.384-1.952,0-3.776,1.36-3.776,4.256,0,2.64,1.504,4.128,3.312,4.128.912,0,1.744-.368,2.464-1.024l.144.832h1.536v-11.472l-1.856.272Zm-3.76,7.264c0-1.936,1.088-2.768,2.4-2.768.432,0,.912.096,1.36.256v4.4c-.592.432-1.232.704-1.824.704-1.104,0-1.936-.896-1.936-2.592Zm8.802.608h1.856v-.848c0-.752.496-1.216,1.136-1.696.8-.64,1.616-1.28,1.616-2.688,0-1.792-1.44-2.832-3.36-2.832-.944,0-2.016.24-2.848.64l.448,1.36c.624-.336,1.472-.544,2.208-.544,1.072,0,1.696.48,1.696,1.328,0,.912-.64,1.424-1.312,1.968-.72.592-1.44,1.232-1.44,2.464v.848Zm.944,3.52c.608,0,1.12-.528,1.12-1.184,0-.64-.512-1.168-1.12-1.168-.624,0-1.136.528-1.136,1.168,0,.656.512,1.184,1.136,1.184Zm12.494,1.84l.384-.832c-1.68-.704-2.336-2.304-2.336-4.176,0-3.168,1.504-6.448,4.352-7.472l-.224-.896c-3.328,1.008-5.28,4.672-5.28,8.304,0,2.336.928,4.368,3.104,5.072Zm9.206-12.432l-3.328,4.96-1.648-4.96h-1.184l2.08,6.192-.72,4.208,1.152-.016.704-4.16,4.192-6.224h-1.248Zm3.938,2.224c-2.64,0-4.272,2.464-4.272,5.024,0,2.128,1.12,3.328,2.976,3.328,2.624,0,4.24-2.416,4.24-5.008,0-2.144-1.104-3.344-2.944-3.344Zm-.08.944c1.216,0,1.92.896,1.92,2.368,0,1.904-1.184,4.096-3.088,4.096-1.216,0-1.904-.912-1.904-2.368,0-1.904,1.152-4.096,3.072-4.096Zm10.261-.768l-.992,5.936c-.752.784-1.776,1.296-2.544,1.296-.784,0-1.456-.48-1.12-2.224l.832-5.008h-1.12l-.832,4.944c-.384,2.128.368,3.232,2,3.232.864,0,1.744-.384,2.672-1.152l-.032.976h.912l1.344-8h-1.12Zm4.494-3.328l-1.072.112c.016,1.008-.288,1.968-.768,2.832l.608.496c.752-.864,1.232-2.304,1.232-3.44Zm3.371-.064l-1.168.192-1.872,11.2h1.12l1.92-11.392Zm3.391,0l-1.169.192-1.871,11.2h1.12l1.92-11.392Zm8.755,3.216c-2.88,0-4.464,2.448-4.464,5.088,0,2.208,1.088,3.264,2.576,3.264.88,0,1.776-.384,2.576-1.072l-.032.896h.928l1.232-7.408c-.816-.448-1.808-.768-2.816-.768Zm.768,6.272c-.736.656-1.648,1.12-2.448,1.12-.992,0-1.664-.704-1.664-2.272,0-2.048,1.136-4.176,3.328-4.176.576,0,1.056.144,1.632.352l-.848,4.976Zm6.133-9.488l-1.168.192-1.872,11.2h1.12l1.92-11.392Zm10.19,3.392l-2.848,6.624-.64-6.624h-1.184l-2.88,6.624-.608-6.624h-1.088l.816,8h1.264l2.816-6.384.672,6.384h1.264l3.504-8h-1.088Zm5.549-.176c-2.88,0-4.464,2.448-4.464,5.088,0,2.208,1.088,3.264,2.576,3.264.88,0,1.776-.384,2.576-1.072l-.032.896h.928l1.232-7.408c-.816-.448-1.808-.768-2.816-.768Zm.768,6.272c-.736.656-1.648,1.12-2.448,1.12-.992,0-1.664-.704-1.664-2.272,0-2.048,1.136-4.176,3.328-4.176.576,0,1.056.144,1.632.352l-.848,4.976Zm8.923-6.096l-3.376,6.864-.96-6.864h-1.136l1.28,8.368c-.48.816-1.056,1.36-2.08,1.984l.464.832c1.648-.976,2.368-1.904,2.992-3.2l3.952-7.984h-1.136Zm4.483-.176c-1.68,0-2.992.8-2.992,2.24,0,.976.592,1.408,1.92,2.192,1.008.576,1.52.912,1.52,1.6,0,.816-.736,1.408-1.84,1.408-.688,0-1.44-.24-2.096-.624l-.416.848c.768.432,1.648.688,2.528.688,1.68,0,2.928-.928,2.928-2.4,0-1.152-.72-1.616-2.096-2.416-.944-.56-1.36-.848-1.36-1.376,0-.752.784-1.248,1.872-1.248.608,0,1.376.176,1.888.384l.352-.88c-.528-.24-1.424-.416-2.208-.416Zm11.424,0c-.816,0-1.648.336-2.4.928l.672-4.144-1.152.192-1.744,10.64c.8.448,1.728.736,2.688.736,2.8,0,4.592-2.24,4.592-5.184,0-2.016-1.104-3.168-2.656-3.168Zm-1.856,7.408c-.544,0-1.008-.128-1.568-.336l.832-5.056c.736-.624,1.616-1.056,2.384-1.056,1.056,0,1.76.752,1.76,2.192,0,2.16-1.168,4.256-3.408,4.256Zm12.228-3.024c.64-2.624-.112-4.384-2.336-4.384-2.624,0-4.176,2.512-4.176,5.04,0,2.192,1.12,3.312,3.072,3.312,1.12,0,2.128-.368,2.656-.64l-.048-.912c-.528.256-1.44.608-2.352.608-1.488,0-2.224-.928-2.224-2.448,0-.192.016-.4.032-.608l5.376.032Zm-2.416-3.456c1.184,0,1.728.864,1.44,2.544h-4.208c.416-1.376,1.392-2.544,2.768-2.544Zm12.024-.928c-2.88,0-4.464,2.448-4.464,5.088,0,2.208,1.088,3.264,2.576,3.264.88,0,1.776-.384,2.576-1.072l-.032.896h.928l1.232-7.408c-.816-.448-1.808-.768-2.816-.768Zm.768,6.272c-.736.656-1.648,1.12-2.448,1.12-.992,0-1.664-.704-1.664-2.272,0-2.048,1.136-4.176,3.328-4.176.576,0,1.056.144,1.632.352l-.848,4.976Zm6.134-9.488l-1.169.192-1.871,11.2h1.12l1.92-11.392Zm6.99,7.6c.64-2.624-.112-4.384-2.336-4.384-2.624,0-4.176,2.512-4.176,5.04,0,2.192,1.12,3.312,3.072,3.312,1.12,0,2.128-.368,2.656-.64l-.048-.912c-.528.256-1.44.608-2.352.608-1.488,0-2.224-.928-2.224-2.448,0-.192.016-.4.032-.608l5.376.032Zm-2.416-3.456c1.184,0,1.728.864,1.44,2.544h-4.208c.416-1.376,1.392-2.544,2.768-2.544Zm8.98-.928c-.976,0-2.064.448-3.168,1.376l.064-1.2h-.96l-1.344,8h1.12l.944-5.632c.976-.944,2.288-1.488,3.168-1.488l.176-1.056Zm2.32,1.104h2.4l.144-.928h-2.384l.336-1.984-1.184.208-.288,1.776h-1.008l-.16.928h1.008l-.608,3.648c-.432,2.496-.208,3.6,1.584,3.6.4,0,.912-.064,1.552-.272l-.048-.944c-.496.16-.896.24-1.2.24-1.024,0-1.184-.624-.784-2.528l.64-3.744Zm9.194,3.28c.64-2.624-.112-4.384-2.336-4.384-2.624,0-4.176,2.512-4.176,5.04,0,2.192,1.12,3.312,3.072,3.312,1.12,0,2.128-.368,2.656-.64l-.048-.912c-.528.256-1.44.608-2.352.608-1.488,0-2.224-.928-2.224-2.448,0-.192.016-.4.032-.608l5.376.032Zm-2.416-3.456c1.184,0,1.728.864,1.44,2.544h-4.208c.416-1.376,1.392-2.544,2.768-2.544Zm10.564-3.952l-.592,3.52c-.544-.304-1.184-.496-1.904-.496-2.72,0-4.32,2.56-4.32,5.12,0,2.144,1.136,3.232,2.656,3.232.88,0,1.744-.368,2.528-1.024l-.032.848h.928l1.888-11.392-1.152.192Zm-1.552,9.328c-.736.656-1.616,1.088-2.4,1.088-1.04,0-1.744-.704-1.744-2.256,0-2.016,1.168-4.192,3.36-4.192.544,0,1.104.128,1.616.384l-.832,4.976Zm9.017-7.296c.448,0,.848-.432.848-.88,0-.416-.304-.736-.672-.736-.464,0-.88.416-.88.896,0,.416.304.72.704.72Zm.304,1.168h-1.12l-1.344,8h1.12l1.344-8Zm5.951-.176c-.896,0-1.824.384-2.8,1.152l.048-.976h-.96l-1.344,8h1.12l.992-5.936c.816-.8,1.92-1.296,2.72-1.296.944,0,1.616.48,1.28,2.224l-.848,5.008h1.12l.832-4.944c.384-2.128-.384-3.232-2.16-3.232Zm12.182,0c-.816,0-1.648.336-2.4.928l.672-4.144-1.152.192-1.744,10.64c.8.448,1.728.736,2.688.736,2.8,0,4.592-2.24,4.592-5.184,0-2.016-1.104-3.168-2.656-3.168Zm-1.856,7.408c-.544,0-1.008-.128-1.568-.336l.832-5.056c.736-.624,1.616-1.056,2.384-1.056,1.056,0,1.76.752,1.76,2.192,0,2.16-1.168,4.256-3.408,4.256Zm10.18-7.408c-2.88,0-4.464,2.448-4.464,5.088,0,2.208,1.088,3.264,2.576,3.264.88,0,1.776-.384,2.576-1.072l-.032.896h.928l1.232-7.408c-.816-.448-1.808-.768-2.816-.768Zm.768,6.272c-.736.656-1.648,1.12-2.448,1.12-.992,0-1.664-.704-1.664-2.272,0-2.048,1.136-4.176,3.328-4.176.576,0,1.056.144,1.632.352l-.848,4.976Zm7.349-6.256c-2.864,0-4.096,2.528-4.096,4.848,0,2.48,1.424,3.488,3.232,3.488.624,0,1.408-.112,2.144-.464l-.048-.928c-.688.288-1.36.448-1.952.448-1.216,0-2.24-.704-2.24-2.56,0-1.76.896-3.904,3.024-3.904.56,0,1.248.144,1.824.432l.4-.832c-.656-.32-1.456-.528-2.288-.528Zm10.197.16h-1.456l-3.936,3.344,1.136-6.736-1.169.192-1.871,11.2h1.12l.544-3.248,1.056-.896,2.096,4.144h1.232l-2.464-4.88,3.712-3.12Zm4.002,3.328h-3.728l-.16.928h3.712l.176-.928Zm5.445-3.504c-2.64,0-4.272,2.464-4.272,5.024,0,2.128,1.12,3.328,2.976,3.328,2.624,0,4.24-2.416,4.24-5.008,0-2.144-1.104-3.344-2.944-3.344Zm-.08.944c1.216,0,1.92.896,1.92,2.368,0,1.904-1.184,4.096-3.088,4.096-1.216,0-1.904-.912-1.904-2.368,0-1.904,1.152-4.096,3.072-4.096Zm13.093.16l.16-.928h-1.968l.016-.144c.304-1.76,1.04-2.304,2.048-2.304.24,0,.512.032.672.08l.16-.912c-.208-.064-.544-.096-.944-.096-1.456,0-2.656.752-3.056,3.168l-.032.208h-3.344l.032-.144c.288-1.76,1.024-2.304,2.048-2.304.24,0,.528.032.832.08l.16-.912c-.368-.064-.72-.096-1.104-.096-1.472,0-2.656.752-3.056,3.168l-.032.208h-1.168l-.16.928h1.168l-1.184,7.072h1.12l1.2-7.072h3.328l-1.184,7.072h1.136l1.184-7.072h1.968Zm2.272-3.712c-.464,0-.864.416-.864.896,0,.416.304.72.704.72.432,0,.848-.432.848-.88,0-.416-.304-.736-.688-.736Zm-2.32,10.784h1.12l1.344-8h-1.12l-1.344,8Zm7.782-8.16c-2.864,0-4.096,2.528-4.096,4.848,0,2.48,1.424,3.488,3.232,3.488.624,0,1.408-.112,2.144-.464l-.048-.928c-.688.288-1.36.448-1.952.448-1.216,0-2.24-.704-2.24-2.56,0-1.76.896-3.904,3.024-3.904.56,0,1.248.144,1.824.432l.4-.832c-.656-.32-1.456-.528-2.288-.528Zm9.384,4.368c.64-2.624-.112-4.384-2.336-4.384-2.624,0-4.176,2.512-4.176,5.04,0,2.192,1.12,3.312,3.072,3.312,1.12,0,2.128-.368,2.656-.64l-.048-.912c-.528.256-1.44.608-2.352.608-1.488,0-2.224-.928-2.224-2.448,0-.192.016-.4.032-.608l5.376.032Zm-2.416-3.456c1.184,0,1.728.864,1.44,2.544h-4.208c.416-1.376,1.392-2.544,2.768-2.544Zm2.211,9.312c3.328-.976,5.28-4.656,5.28-8.272,0-2.352-.928-4.4-3.104-5.104l-.384.832c1.68.688,2.336,2.304,2.336,4.192,0,3.12-1.536,6.432-4.352,7.44l.224.912Z"/><path class="cls-11" d="m12.847,117.912v-1.859h3.367v-1.56h-3.367v-1.911h3.744v-1.56h-5.629v8.45h5.694v-1.56h-3.809Zm9.4783-5.109c-.845,0-1.56.338-2.249.949l-.156-.78h-1.547v6.5h1.846v-4.55c.559-.455,1.131-.624,1.521-.624.546,0,.936.286.936,1.235v3.939h1.859v-4.017c0-1.703-.715-2.652-2.21-2.652Zm7.5742,5.2c-.351.117-.65.143-.871.143-.637,0-.845-.455-.845-1.443v-2.301h1.781v-1.43h-1.781v-1.664l-1.859.338v1.326h-.832v1.43h.832v2.249c0,2.028.65,2.99,2.145,2.99.546,0,1.04-.065,1.651-.286l-.221-1.352Zm3.988-5.2c-1.664,0-3.081,1.183-3.081,3.432,0,2.353,1.573,3.419,3.302,3.419.806,0,1.716-.156,2.236-.416l-.195-1.365c-.455.169-1.066.286-1.56.286-1.001,0-1.768-.507-1.989-1.482h4.147c.247-2.249-.676-3.874-2.86-3.874Zm.013,1.391c.676,0,1.092.455,1.157,1.339h-2.47c.143-.754.611-1.339,1.313-1.339Zm8.387-1.391c-.78,0-1.664.377-2.431,1.053l-.143-.884h-1.599v6.5h1.846v-4.251c.702-.481,1.677-.559,2.21-.559l.117-1.859Zm8.3493,6.838c.78,0,1.755-.13,2.678-.624l-.611-1.469c-.572.26-1.235.416-1.82.416-1.56,0-2.548-.988-2.548-2.743,0-1.885,1.079-2.691,2.535-2.691.611,0,1.287.091,1.82.312l.442-1.547c-.741-.312-1.625-.442-2.431-.442-2.574,0-4.342,1.664-4.342,4.394,0,2.522,1.287,4.394,4.277,4.394Zm6.6134-6.838c-2.015,0-3.224,1.482-3.224,3.419,0,1.95,1.196,3.419,3.224,3.419s3.237-1.469,3.237-3.419c0-1.937-1.209-3.419-3.237-3.419Zm0,1.417c.832,0,1.378.728,1.378,2.002,0,1.261-.546,2.002-1.378,2.002s-1.365-.741-1.365-2.002c0-1.274.533-2.002,1.365-2.002Zm8.3755-1.248v4.563c-.455.455-.962.611-1.313.611-.442,0-.806-.286-.806-1.235v-3.939h-1.846v4.017c0,1.703.676,2.652,2.067,2.652.78,0,1.43-.325,2.067-.923l.143.754h1.547v-6.5h-1.859Zm7.5063-.169c-.845,0-1.56.338-2.249.949l-.156-.78h-1.547v6.5h1.846v-4.55c.559-.455,1.131-.624,1.521-.624.546,0,.936.286.936,1.235v3.939h1.859v-4.017c0-1.703-.715-2.652-2.21-2.652Zm7.5742,5.2c-.351.117-.65.143-.871.143-.637,0-.845-.455-.845-1.443v-2.301h1.781v-1.43h-1.781v-1.664l-1.859.338v1.326h-.832v1.43h.832v2.249c0,2.028.65,2.99,2.145,2.99.546,0,1.04-.065,1.651-.286l-.221-1.352Zm5.6087-5.2c-.78,0-1.664.377-2.431,1.053l-.143-.884h-1.599v6.5h1.846v-4.251c.702-.481,1.677-.559,2.21-.559l.117-1.859Zm2.1491-.611c.598,0,1.079-.494,1.079-1.118s-.481-1.131-1.079-1.131-1.079.507-1.079,1.131.481,1.118,1.079,1.118Zm.923.78h-1.846v6.5h1.846v-6.5Zm4.575-.169c-1.664,0-3.081,1.183-3.081,3.432,0,2.353,1.573,3.419,3.302,3.419.806,0,1.716-.156,2.236-.416l-.195-1.365c-.455.169-1.066.286-1.56.286-1.001,0-1.768-.507-1.989-1.482h4.147c.247-2.249-.676-3.874-2.86-3.874Zm.013,1.391c.676,0,1.092.455,1.157,1.339h-2.47c.143-.754.611-1.339,1.313-1.339Zm6.297-1.391c-1.625,0-2.613.702-2.613,1.898,0,.949.572,1.417,2.002,2.145.91.442,1.235.624,1.235.962,0,.351-.325.494-.845.494-.598,0-1.482-.247-2.093-.546l-.273,1.391c.923.338,1.69.494,2.431.494,1.586,0,2.548-.702,2.548-1.859,0-1.014-.741-1.677-2.275-2.418-.637-.286-1.001-.442-1.001-.728,0-.364.338-.494.884-.494.624,0,1.391.208,1.859.403l.273-1.456c-.741-.182-1.521-.286-2.132-.286Z"/><path class="cls-13" d="m8.968,1.072v4.144h-4.784V1.072h-1.904v10.4h1.904v-4.656h4.784v4.656h1.904V1.072h-1.904Zm7.7323,2.208c-2.4,0-3.872,1.776-3.872,4.192,0,2.432,1.456,4.192,3.872,4.192,2.4,0,3.872-1.76,3.872-4.192s-1.472-4.192-3.872-4.192Zm0,1.456c1.216,0,2.016,1.04,2.016,2.736s-.8,2.736-2.016,2.736c-1.232,0-2.016-1.04-2.016-2.736s.784-2.736,2.016-2.736Zm14.3503-1.264l-1.552,5.808-1.632-5.808h-1.664l-1.616,5.808-1.552-5.808h-1.744l2.224,8h1.968l1.552-5.2,1.568,5.2h1.952l2.256-8h-1.76Zm9.3313-3.472l-1.84.272v11.2h1.84V0Zm5.6621,3.28c-2.4,0-3.872,1.776-3.872,4.192,0,2.432,1.456,4.192,3.872,4.192,2.4,0,3.872-1.76,3.872-4.192s-1.472-4.192-3.872-4.192Zm0,1.456c1.216,0,2.016,1.04,2.016,2.736s-.8,2.736-2.016,2.736c-1.232,0-2.016-1.04-2.016-2.736s.784-2.736,2.016-2.736Zm10.2141-1.456c-1.024,0-1.952.416-2.848,1.184l-.176-.992h-1.536v8h1.84v-5.744c.72-.64,1.584-.928,2.208-.928.768,0,1.344.416,1.344,1.776v4.896h1.856v-4.96c0-2.112-.896-3.232-2.688-3.232Zm12.7347.192h-3.056c-.416-.128-.864-.192-1.344-.192-2,0-3.488,1.168-3.488,2.928,0,.768.288,1.424.768,1.904-.64.592-.88,1.088-.88,1.6,0,.576.32.944.8,1.2-.88.592-1.136,1.264-1.136,1.792,0,1.584,1.92,2.432,3.968,2.432,1.952,0,3.7919-.864,3.7919-2.576,0-1.824-2.2559-2.272-4.0159-2.512-1.088-.144-1.856-.288-1.856-.704,0-.16.096-.336.352-.544.496.192,1.072.304,1.696.304,2,0,3.408-1.104,3.408-2.896,0-.464-.112-.896-.288-1.28h1.28v-1.456Zm-4.4,4.272c-1.056,0-1.76-.608-1.76-1.552s.688-1.552,1.744-1.552,1.76.608,1.76,1.568c0,.944-.704,1.536-1.744,1.536Zm1.984,4.848c0,.8-.928,1.184-1.968,1.184-1.104,0-2.16-.4-2.16-1.248,0-.352.24-.752.88-1.168.256.032.528.08.8.112,1.344.16,2.448.352,2.448,1.12Zm10.4938-9.312c-1.904,0-3.072.832-3.072,2.256,0,1.152.752,1.68,2.416,2.528,1.184.576,1.696.848,1.696,1.392s-.496.832-1.28.832c-.752,0-1.728-.304-2.496-.672l-.336,1.424c1.056.416,2,.624,2.912.624,1.824,0,2.976-.832,2.976-2.24,0-1.232-.928-1.984-2.72-2.864-.976-.464-1.424-.656-1.424-1.104,0-.544.496-.8,1.312-.8.736,0,1.632.24,2.192.464l.32-1.472c-.768-.24-1.744-.368-2.496-.368Zm9.1407,0c-.9761,0-1.856.368-2.72,1.072V0l-1.84.272v11.248h1.84v-5.792c.72-.64,1.584-.928,2.208-.928.768,0,1.344.416,1.344,1.776v4.896h1.856v-4.96c0-2.112-.896-3.232-2.688-3.232Zm8.2547,0c-2.4,0-3.872,1.776-3.872,4.192,0,2.432,1.456,4.192,3.872,4.192,2.4,0,3.872-1.76,3.872-4.192s-1.472-4.192-3.872-4.192Zm0,1.456c1.216,0,2.016,1.04,2.016,2.736s-.8,2.736-2.016,2.736c-1.232,0-2.016-1.04-2.016-2.736s.784-2.736,2.016-2.736Zm10.454-1.264v5.76c-.624.624-1.408.912-1.984.912-.624,0-1.184-.416-1.184-1.776V3.472h-1.84v4.96c0,2.112.848,3.232,2.496,3.232.976,0,1.824-.4,2.656-1.168l.176.976h1.52V3.472h-1.84Zm5.915-3.472l-1.84.272v11.2h1.84V0Zm7.39.272v3.392c-.592-.256-1.216-.384-1.824-.384-1.952,0-3.776,1.36-3.776,4.256,0,2.64,1.504,4.128,3.312,4.128.912,0,1.744-.368,2.464-1.024l.144.832h1.536V0l-1.856.272Zm-3.76,7.264c0-1.936,1.088-2.768,2.4-2.768.432,0,.912.096,1.36.256v4.4c-.592.432-1.232.704-1.824.704-1.104,0-1.936-.896-1.936-2.592Zm16.381,2.4c-.48.16-.88.208-1.184.208-.832,0-1.104-.608-1.104-2.064v-3.152h2.336v-1.456h-2.336V1.44l-1.84.352v1.68h-1.04v1.456h1.04v3.104c0,2.416.624,3.632,2.432,3.632.592,0,1.184-.08,1.92-.32l-.224-1.408Zm6.381-6.656c-.976,0-1.856.368-2.72,1.072V0l-1.84.272v11.248h1.84v-5.792c.72-.64,1.584-.928,2.208-.928.768,0,1.344.416,1.344,1.776v4.896h1.856v-4.96c0-2.112-.896-3.232-2.688-3.232Zm8.095,0c-2.096,0-3.712,1.52-3.712,4.192,0,2.8,1.744,4.208,3.952,4.208.976,0,2.112-.208,2.688-.512l-.208-1.408c-.544.224-1.392.4-2.048.4-1.376,0-2.4-.832-2.608-2.256h5.328c.256-2.72-.816-4.624-3.392-4.624Zm.016,1.44c.992,0,1.584.672,1.648,1.952h-3.584c.192-1.136.88-1.952,1.936-1.952Zm14.238-1.44c-.992,0-2.064.464-3.024,1.328l-.144-1.136h-1.632v8h1.84v-5.392c.864-.704,2.08-.96,2.848-.96l.112-1.84Zm6.188.192v5.76c-.624.624-1.408.912-1.984.912-.624,0-1.184-.416-1.184-1.776V3.472h-1.84v4.96c0,2.112.848,3.232,2.496,3.232.976,0,1.824-.4,2.656-1.168l.176.976h1.52V3.472h-1.84Zm5.915-3.472l-1.84.272v11.2h1.84V0Zm5.502,3.28c-2.096,0-3.712,1.52-3.712,4.192,0,2.8,1.744,4.208,3.952,4.208.976,0,2.112-.208,2.688-.512l-.208-1.408c-.544.224-1.392.4-2.048.4-1.376,0-2.4-.832-2.608-2.256h5.328c.256-2.72-.816-4.624-3.392-4.624Zm.016,1.44c.992,0,1.584.672,1.648,1.952h-3.584c.192-1.136.88-1.952,1.936-1.952Zm14.239-1.44c-.992,0-2.064.464-3.024,1.328l-.144-1.136h-1.632v8h1.84v-5.392c.864-.704,2.08-.96,2.848-.96l.112-1.84Zm6.187.192v5.76c-.624.624-1.408.912-1.984.912-.624,0-1.184-.416-1.184-1.776V3.472h-1.84v4.96c0,2.112.848,3.232,2.496,3.232.976,0,1.824-.4,2.656-1.168l.176.976h1.52V3.472h-1.84Zm8.635-.192c-1.024,0-1.952.416-2.848,1.184l-.176-.992h-1.536v8h1.84v-5.744c.72-.64,1.584-.928,2.208-.928.768,0,1.344.416,1.344,1.776v4.896h1.856v-4.96c0-2.112-.896-3.232-2.688-3.232Zm5.666,4.864h1.856v-.848c0-.752.496-1.216,1.136-1.696.8-.64,1.616-1.28,1.616-2.688,0-1.792-1.44-2.832-3.36-2.832-.944,0-2.016.24-2.848.64l.448,1.36c.624-.336,1.472-.544,2.208-.544,1.072,0,1.696.48,1.696,1.328,0,.912-.64,1.424-1.312,1.968-.72.592-1.44,1.232-1.44,2.464v.848Zm.944,3.52c.608,0,1.12-.528,1.12-1.184,0-.64-.512-1.168-1.12-1.168-.624,0-1.136.528-1.136,1.168,0,.656.512,1.184,1.136,1.184Z"/><path class="cls-13" d="m26.991,31.022h-3.029v8.45h1.885v-2.574h1.144c2.041,0,3.068-1.495,3.068-2.964s-1.014-2.912-3.068-2.912Zm-.117,4.316h-1.027v-2.834h1.027c.845,0,1.261.689,1.261,1.404,0,.702-.416,1.43-1.261,1.43Zm7.0008-2.535c-1.664,0-3.081,1.183-3.081,3.432,0,2.353,1.573,3.419,3.302,3.419.806,0,1.716-.156,2.236-.416l-.195-1.365c-.455.169-1.066.286-1.56.286-1.001,0-1.768-.507-1.989-1.482h4.147c.247-2.249-.676-3.874-2.86-3.874Zm.013,1.391c.676,0,1.092.455,1.157,1.339h-2.47c.143-.754.611-1.339,1.313-1.339Zm8.387-1.391c-.78,0-1.664.377-2.431,1.053l-.143-.884h-1.599v6.5h1.846v-4.251c.702-.481,1.677-.559,2.21-.559l.117-1.859Zm8.7922,0c-.806,0-1.482.338-2.171,1.053-.338-.689-.936-1.053-1.833-1.053-.754,0-1.391.299-2.028.91l-.143-.741h-1.547v6.5h1.846v-4.576c.455-.442.936-.598,1.287-.598.507,0,.871.312.871,1.235v3.939h1.846v-4.017c0-.182,0-.364-.026-.533.455-.455.949-.624,1.313-.624.507,0,.871.312.871,1.235v3.939h1.846v-4.017c0-1.703-.702-2.652-2.132-2.652Zm6.6796,0c-.741,0-1.664.117-2.704.39l.273,1.43c.741-.234,1.599-.39,2.106-.39.819,0,.884.39.884,1.261-2.145.117-3.939.715-3.939,2.21,0,1.287.962,1.937,2.067,1.937.728,0,1.495-.26,2.067-.754l.117.585h1.547v-3.796c0-1.222.078-2.873-2.418-2.873Zm-.819,5.525c-.481,0-.793-.247-.793-.637,0-.741,1.001-1.027,2.171-1.092v1.04c-.377.403-.897.689-1.378.689Zm8.8157-5.525c-.845,0-1.56.338-2.249.949l-.156-.78h-1.547v6.5h1.846v-4.55c.559-.455,1.131-.624,1.521-.624.546,0,.936.286.936,1.235v3.939h1.859v-4.017c0-1.703-.715-2.652-2.21-2.652Zm6.5602,0c-1.664,0-3.081,1.183-3.081,3.432,0,2.353,1.573,3.419,3.302,3.419.806,0,1.716-.156,2.236-.416l-.195-1.365c-.455.169-1.066.286-1.56.286-1.001,0-1.768-.507-1.989-1.482h4.147c.247-2.249-.676-3.874-2.86-3.874Zm.013,1.391c.676,0,1.092.455,1.157,1.339h-2.47c.143-.754.611-1.339,1.313-1.339Zm8.166-1.391c-.845,0-1.56.338-2.249.949l-.156-.78h-1.547v6.5h1.846v-4.55c.559-.455,1.131-.624,1.521-.624.546,0,.936.286.936,1.235v3.939h1.859v-4.017c0-1.703-.715-2.652-2.21-2.652Zm7.5743,5.2c-.351.117-.65.143-.871.143-.637,0-.845-.455-.845-1.443v-2.301h1.781v-1.43h-1.781v-1.664l-1.859.338v1.326h-.832v1.43h.832v2.249c0,2.028.65,2.99,2.145,2.99.546,0,1.04-.065,1.651-.286l-.221-1.352Z"/><path class="cls-13" d="m159.836,39.641c.78,0,1.755-.13,2.678-.624l-.611-1.469c-.572.26-1.235.416-1.82.416-1.56,0-2.548-.988-2.548-2.743,0-1.885,1.079-2.691,2.535-2.691.611,0,1.287.091,1.82.312l.442-1.547c-.741-.312-1.625-.442-2.431-.442-2.574,0-4.342,1.664-4.342,4.394,0,2.522,1.287,4.394,4.277,4.394Zm7.803-6.669v4.563c-.455.455-.962.611-1.313.611-.442,0-.806-.286-.806-1.235v-3.939h-1.846v4.017c0,1.703.676,2.652,2.067,2.652.78,0,1.43-.325,2.067-.923l.143.754h1.547v-6.5h-1.859Zm5.791-.169c-1.625,0-2.613.702-2.613,1.898,0,.949.572,1.417,2.002,2.145.91.442,1.235.624,1.235.962,0,.351-.325.494-.845.494-.598,0-1.482-.247-2.093-.546l-.273,1.391c.923.338,1.69.494,2.431.494,1.586,0,2.548-.702,2.548-1.859,0-1.014-.741-1.677-2.275-2.418-.637-.286-1.001-.442-1.001-.728,0-.364.338-.494.884-.494.624,0,1.391.208,1.859.403l.273-1.456c-.741-.182-1.521-.286-2.132-.286Zm7.474,5.2c-.351.117-.65.143-.871.143-.637,0-.845-.455-.845-1.443v-2.301h1.781v-1.43h-1.781v-1.664l-1.859.338v1.326h-.832v1.43h.832v2.249c0,2.028.65,2.99,2.145,2.99.546,0,1.04-.065,1.651-.286l-.221-1.352Zm4.131-5.2c-2.015,0-3.224,1.482-3.224,3.419,0,1.95,1.196,3.419,3.224,3.419s3.237-1.469,3.237-3.419c0-1.937-1.209-3.419-3.237-3.419Zm0,1.417c.832,0,1.378.728,1.378,2.002,0,1.261-.546,2.002-1.378,2.002s-1.365-.741-1.365-2.002c0-1.274.533-2.002,1.365-2.002Zm12.289-1.417c-.806,0-1.482.338-2.171,1.053-.338-.689-.936-1.053-1.833-1.053-.754,0-1.391.299-2.028.91l-.143-.741h-1.547v6.5h1.846v-4.576c.455-.442.936-.598,1.287-.598.507,0,.871.312.871,1.235v3.939h1.846v-4.017c0-.182,0-.364-.026-.533.455-.455.949-.624,1.313-.624.507,0,.871.312.871,1.235v3.939h1.846v-4.017c0-1.703-.702-2.652-2.132-2.652Z"/><path class="cls-13" d="m236.581,39.472l-.611-8.45h-1.599l-2.171,6.916-2.171-6.916h-1.586l-.611,8.45h1.144l.468-6.721,2.119,6.721h1.274l2.132-6.721.468,6.721h1.144Zm4.352-6.643c-.702,0-1.521.117-2.327.325l.169.949c.754-.208,1.56-.338,2.067-.338,1.118,0,1.196.637,1.196,1.846-2.106.052-4.16.533-4.16,2.21,0,1.183.897,1.794,1.976,1.794.793,0,1.703-.312,2.288-.832l.104.689h.962v-3.77c0-1.378.026-2.873-2.275-2.873Zm-.819,5.876c-.702,0-1.092-.364-1.092-.897,0-1.092,1.612-1.352,3.016-1.365v1.404c-.481.507-1.274.858-1.924.858Zm8.589-5.876c-.806,0-1.69.377-2.483,1.105l-.078-.962h-1.079v6.5h1.17v-4.511c.702-.663,1.716-.988,2.405-.988l.065-1.144Zm8.091-1.82h-.689l-3.081,1.04.299.975,2.262-.754v7.202h1.209v-8.463Zm3.201,6.994l-1.092.182c.182.949.065,1.716-.221,2.47l.637.429c.598-.767.845-2.015.676-3.081Zm7.248.442c.988-1.092,1.898-2.119,2.535-3.042.598-.871.975-1.664.975-2.405,0-1.144-.819-2.119-2.379-2.119-.949,0-1.872.143-2.964.533l.234,1.001c.871-.338,1.703-.494,2.548-.494.884,0,1.326.416,1.326,1.209,0,.52-.325,1.183-.832,1.924-.793,1.131-2.015,2.457-3.263,3.744l.13.676h5.395v-1.027h-3.705Zm8.05-7.566c-2.028,0-3.198,1.755-3.198,4.368,0,2.626,1.17,4.368,3.198,4.368,2.015,0,3.185-1.742,3.185-4.368,0-2.613-1.17-4.368-3.185-4.368Zm0,1.066c1.209,0,1.937,1.3,1.937,3.302,0,2.015-.741,3.302-1.937,3.302-1.222,0-1.963-1.287-1.963-3.302,0-2.002.754-3.302,1.963-3.302Zm6.435,6.5c.988-1.092,1.898-2.119,2.535-3.042.598-.871.975-1.664.975-2.405,0-1.144-.819-2.119-2.379-2.119-.949,0-1.872.143-2.964.533l.234,1.001c.871-.338,1.703-.494,2.548-.494.884,0,1.326.416,1.326,1.209,0,.52-.325,1.183-.832,1.924-.793,1.131-2.015,2.457-3.263,3.744l.13.676h5.395v-1.027h-3.705Zm8.362-3.575c.793-.442,1.391-1.17,1.391-2.158,0-1.183-.858-1.833-2.392-1.833-.728,0-1.651.13-2.236.286l.169,1.066c.455-.143,1.157-.286,1.859-.286,1.144,0,1.378.377,1.378.975,0,.845-.858,1.56-2.47,1.56v.962c1.664-.026,2.704.702,2.704,1.638,0,.91-.806,1.43-1.807,1.43-.741,0-1.404-.156-2.093-.39l-.208,1.066c.611.195,1.339.416,2.301.416,2.21,0,3.042-1.092,3.042-2.444,0-.988-.546-1.82-1.638-2.288Z"/><path class="cls-13" d="m413.589,38.003c-.351.117-.65.143-.871.143-.637,0-.845-.455-.845-1.443v-2.301h1.781v-1.43h-1.781v-1.664l-1.859.338v1.326h-.832v1.43h.832v2.249c0,2.028.65,2.99,2.145,2.99.546,0,1.04-.065,1.651-.286l-.221-1.352Zm4.131-5.2c-2.015,0-3.224,1.482-3.224,3.419,0,1.95,1.196,3.419,3.224,3.419s3.237-1.469,3.237-3.419c0-1.937-1.209-3.419-3.237-3.419Zm0,1.417c.832,0,1.378.728,1.378,2.002,0,1.261-.546,2.002-1.378,2.002s-1.365-.741-1.365-2.002c0-1.274.533-2.002,1.365-2.002Z"/><path class="cls-13" d="m455.5,31.022v6.11l-4.524-6.11h-.845v8.45h1.17v-6.11l4.524,6.11h.845v-8.45h-1.17Zm5.964,1.807c-1.898,0-3.081,1.391-3.081,3.393s1.183,3.393,3.081,3.393,3.068-1.378,3.068-3.393c0-2.002-1.17-3.393-3.068-3.393Zm0,.949c1.131,0,1.885.962,1.885,2.444s-.754,2.444-1.885,2.444c-1.144,0-1.898-.962-1.898-2.444s.754-2.444,1.898-2.444Zm8.229-.806l-1.664,5.265-1.677-5.265h-1.157l2.145,6.5h1.365l2.158-6.5h-1.17Zm9.406-1.963h-.689l-3.081,1.04.299.975,2.262-.754v7.202h1.209v-8.463Zm3.201,6.994l-1.092.182c.182.949.065,1.716-.221,2.47l.637.429c.598-.767.845-2.015.676-3.081Zm7.248.442c.988-1.092,1.898-2.119,2.535-3.042.598-.871.975-1.664.975-2.405,0-1.144-.819-2.119-2.379-2.119-.949,0-1.872.143-2.964.533l.234,1.001c.871-.338,1.703-.494,2.548-.494.884,0,1.326.416,1.326,1.209,0,.52-.325,1.183-.832,1.924-.793,1.131-2.015,2.457-3.263,3.744l.13.676h5.395v-1.027h-3.705Zm8.049-7.566c-2.028,0-3.198,1.755-3.198,4.368,0,2.626,1.17,4.368,3.198,4.368,2.015,0,3.185-1.742,3.185-4.368,0-2.613-1.17-4.368-3.185-4.368Zm0,1.066c1.209,0,1.937,1.3,1.937,3.302,0,2.015-.741,3.302-1.937,3.302-1.222,0-1.963-1.287-1.963-3.302,0-2.002.754-3.302,1.963-3.302Zm6.436,6.5c.988-1.092,1.898-2.119,2.535-3.042.598-.871.975-1.664.975-2.405,0-1.144-.819-2.119-2.379-2.119-.949,0-1.872.143-2.964.533l.234,1.001c.871-.338,1.703-.494,2.548-.494.884,0,1.326.416,1.326,1.209,0,.52-.325,1.183-.832,1.924-.793,1.131-2.015,2.457-3.263,3.744l.13.676h5.395v-1.027h-3.705Zm8.362-3.575c.793-.442,1.391-1.17,1.391-2.158,0-1.183-.858-1.833-2.392-1.833-.728,0-1.651.13-2.236.286l.169,1.066c.455-.143,1.157-.286,1.8589-.286,1.144,0,1.3781.377,1.3781.975,0,.845-.858,1.56-2.47,1.56v.962c1.664-.026,2.704.702,2.704,1.638,0,.91-.806,1.43-1.8069,1.43-.741,0-1.4041-.156-2.093-.39l-.208,1.066c.611.195,1.339.416,2.301.416,2.21,0,3.042-1.092,3.042-2.444,0-.988-.546-1.82-1.638-2.288Z"/><rect class="cls-10" y="141.472" width="118" height="23" rx="10" ry="10"/><path class="cls-7" d="m16.982,149.022h-1.898v4.381c0,1.937-.585,2.678-1.599,2.678-1.027,0-1.638-.741-1.638-2.678v-4.381h-1.885v4.29c0,2.561.832,4.329,3.497,4.329,2.678,0,3.523-1.781,3.523-4.329v-4.29Zm5.7652,1.781c-.845,0-1.56.338-2.249.949l-.156-.78h-1.547v6.5h1.846v-4.55c.559-.455,1.131-.624,1.521-.624.546,0,.936.286.936,1.235v3.939h1.859v-4.017c0-1.703-.715-2.652-2.21-2.652Zm4.9092-.611c.598,0,1.079-.494,1.079-1.118s-.481-1.131-1.079-1.131-1.079.507-1.079,1.131.481,1.118,1.079,1.118Zm.923.78h-1.846v6.5h1.846v-6.5Zm5.5887,5.031c-.351.117-.65.143-.871.143-.637,0-.845-.455-.845-1.443v-2.301h1.781v-1.43h-1.781v-1.664l-1.859.338v1.326h-.832v1.43h.832v2.249c0,2.028.65,2.99,2.145,2.99.546,0,1.04-.065,1.651-.286l-.221-1.352Zm3.988-5.2c-1.664,0-3.081,1.183-3.081,3.432,0,2.353,1.573,3.419,3.302,3.419.806,0,1.716-.156,2.236-.416l-.195-1.365c-.455.169-1.066.286-1.56.286-1.001,0-1.768-.507-1.989-1.482h4.147c.247-2.249-.676-3.874-2.86-3.874Zm.013,1.391c.676,0,1.092.455,1.157,1.339h-2.47c.143-.754.611-1.339,1.313-1.339Zm8.2582-3.822v2.704c-.455-.195-.936-.273-1.378-.273-1.599,0-3.068,1.105-3.068,3.471,0,2.158,1.209,3.367,2.665,3.367.715,0,1.391-.299,1.963-.819l.13.65h1.547v-9.36l-1.859.26Zm-2.6,5.915c0-1.417.767-2.015,1.716-2.015.286,0,.585.039.884.143v3.276c-.416.273-.858.429-1.248.429-.78,0-1.352-.624-1.352-1.833Zm12.374-5.434c-1.846,0-3.107,1.079-3.107,2.483,0,1.17.897,1.898,2.457,2.574,1.053.455,1.651.715,1.651,1.313,0,.546-.455.819-1.274.819-.689,0-1.43-.221-2.548-.871l-.455,1.534c1.053.65,2.145.936,3.12.936,1.833,0,3.12-.819,3.12-2.379,0-1.417-1.027-2.262-2.743-2.938-.923-.377-1.365-.624-1.365-1.079,0-.442.416-.832,1.209-.832.546,0,1.287.143,2.093.481l.416-1.534c-.936-.377-1.768-.507-2.574-.507Zm8.0674,7.15c-.351.117-.65.143-.871.143-.637,0-.845-.455-.845-1.443v-2.301h1.781v-1.43h-1.781v-1.664l-1.859.338v1.326h-.832v1.43h.832v2.249c0,2.028.65,2.99,2.145,2.99.546,0,1.04-.065,1.651-.286l-.221-1.352Zm4.3607-5.2c-.741,0-1.664.117-2.704.39l.273,1.43c.741-.234,1.599-.39,2.106-.39.819,0,.884.39.884,1.261-2.145.117-3.939.715-3.939,2.21,0,1.287.962,1.937,2.067,1.937.728,0,1.495-.26,2.067-.754l.117.585h1.547v-3.796c0-1.222.078-2.873-2.418-2.873Zm-.819,5.525c-.481,0-.793-.247-.793-.637,0-.741,1.001-1.027,2.171-1.092v1.04c-.377.403-.897.689-1.378.689Zm8.6077-.325c-.351.117-.65.143-.871.143-.637,0-.845-.455-.845-1.443v-2.301h1.781v-1.43h-1.781v-1.664l-1.859.338v1.326h-.832v1.43h.832v2.249c0,2.028.65,2.99,2.145,2.99.546,0,1.04-.065,1.651-.286l-.221-1.352Zm3.988-5.2c-1.664,0-3.081,1.183-3.081,3.432,0,2.353,1.573,3.419,3.302,3.419.806,0,1.716-.156,2.236-.416l-.195-1.365c-.455.169-1.066.286-1.56.286-1.001,0-1.768-.507-1.989-1.482h4.147c.247-2.249-.676-3.874-2.86-3.874Zm.013,1.391c.676,0,1.092.455,1.157,1.339h-2.47c.143-.754.611-1.339,1.313-1.339Zm6.2976-1.391c-1.625,0-2.613.702-2.613,1.898,0,.949.572,1.417,2.002,2.145.91.442,1.235.624,1.235.962,0,.351-.325.494-.845.494-.598,0-1.482-.247-2.093-.546l-.273,1.391c.923.338,1.69.494,2.431.494,1.586,0,2.548-.702,2.548-1.859,0-1.014-.741-1.677-2.275-2.418-.637-.286-1.001-.442-1.001-.728,0-.364.338-.494.884-.494.624,0,1.391.208,1.859.403l.273-1.456c-.741-.182-1.521-.286-2.132-.286Zm19.6533,6.669l-2.249-3.341,2.197-3.159h-2.067l-1.222,1.755-1.235-1.755h-2.067l2.249,3.133-2.249,3.367h2.054l1.274-1.911,1.261,1.911h2.054Z"/><rect class="cls-10" x="123" y="141.472" width="83" height="23" rx="10" ry="10"/><path class="cls-7" d="m136.836,157.641c.78,0,1.755-.13,2.678-.624l-.611-1.469c-.572.26-1.235.416-1.82.416-1.56,0-2.548-.988-2.548-2.743,0-1.885,1.079-2.691,2.535-2.691.611,0,1.287.091,1.82.312l.442-1.547c-.741-.312-1.625-.442-2.431-.442-2.574,0-4.342,1.664-4.342,4.394,0,2.522,1.287,4.394,4.277,4.394Zm6.767-6.838c-.741,0-1.664.117-2.704.39l.273,1.43c.741-.234,1.599-.39,2.106-.39.819,0,.884.39.884,1.261-2.145.117-3.939.715-3.939,2.21,0,1.287.962,1.937,2.067,1.937.728,0,1.495-.26,2.067-.754l.117.585h1.547v-3.796c0-1.222.078-2.873-2.418-2.873Zm-.819,5.525c-.481,0-.793-.247-.793-.637,0-.741,1.001-1.027,2.171-1.092v1.04c-.377.403-.897.689-1.378.689Zm8.816-5.525c-.845,0-1.56.338-2.249.949l-.156-.78h-1.547v6.5h1.846v-4.55c.559-.455,1.131-.624,1.521-.624.546,0,.936.286.936,1.235v3.939h1.859v-4.017c0-1.703-.715-2.652-2.21-2.652Zm6.755,0c-.741,0-1.664.117-2.704.39l.273,1.43c.741-.234,1.599-.39,2.106-.39.819,0,.884.39.884,1.261-2.145.117-3.939.715-3.939,2.21,0,1.287.962,1.937,2.067,1.937.728,0,1.495-.26,2.067-.754l.117.585h1.547v-3.796c0-1.222.078-2.873-2.418-2.873Zm-.819,5.525c-.481,0-.793-.247-.793-.637,0-.741,1.001-1.027,2.171-1.092v1.04c-.377.403-.897.689-1.378.689Zm8.959-7.956v2.704c-.455-.195-.936-.273-1.378-.273-1.599,0-3.068,1.105-3.068,3.471,0,2.158,1.209,3.367,2.665,3.367.715,0,1.391-.299,1.963-.819l.13.65h1.547v-9.36l-1.859.26Zm-2.6,5.915c0-1.417.767-2.015,1.716-2.015.286,0,.585.039.884.143v3.276c-.416.273-.858.429-1.248.429-.78,0-1.352-.624-1.352-1.833Zm9.06-3.484c-.741,0-1.664.117-2.704.39l.273,1.43c.741-.234,1.599-.39,2.106-.39.819,0,.884.39.884,1.261-2.145.117-3.939.715-3.939,2.21,0,1.287.962,1.937,2.067,1.937.728,0,1.495-.26,2.067-.754l.117.585h1.547v-3.796c0-1.222.078-2.873-2.418-2.873Zm-.819,5.525c-.481,0-.793-.247-.793-.637,0-.741,1.001-1.027,2.171-1.092v1.04c-.377.403-.897.689-1.378.689Zm20.786,1.144l-2.249-3.341,2.197-3.159h-2.067l-1.222,1.755-1.235-1.755h-2.067l2.249,3.133-2.249,3.367h2.054l1.274-1.911,1.261,1.911h2.054Z"/><rect class="cls-10" x="211" y="141.472" width="76" height="23" rx="10" ry="10"/><path class="cls-7" d="m222.847,155.912v-1.859h3.367v-1.56h-3.367v-1.911h3.744v-1.56h-5.629v8.45h5.694v-1.56h-3.809Zm9.107-4.94v4.563c-.455.455-.962.611-1.313.611-.442,0-.806-.286-.806-1.235v-3.939h-1.846v4.017c0,1.703.676,2.652,2.067,2.652.78,0,1.43-.325,2.067-.923l.143.754h1.547v-6.5h-1.859Zm7.727-.169c-.78,0-1.664.377-2.431,1.053l-.143-.884h-1.599v6.5h1.846v-4.251c.702-.481,1.677-.559,2.21-.559l.117-1.859Zm3.829,0c-2.015,0-3.224,1.482-3.224,3.419,0,1.95,1.196,3.419,3.224,3.419s3.237-1.469,3.237-3.419c0-1.937-1.209-3.419-3.237-3.419Zm0,1.417c.832,0,1.378.728,1.378,2.002,0,1.261-.546,2.002-1.378,2.002s-1.365-.741-1.365-2.002c0-1.274.533-2.002,1.365-2.002Zm8.193-1.417c-.715,0-1.391.299-1.963.819l-.117-.65h-1.547v9.269l1.846-.247v-2.626c.455.195.936.273,1.378.273,1.599,0,3.081-1.105,3.081-3.471,0-2.158-1.222-3.367-2.678-3.367Zm-.897,5.369c-.286,0-.585-.039-.884-.143v-3.276c.429-.273.858-.429,1.248-.429.793,0,1.352.624,1.352,1.833,0,1.417-.754,2.015-1.716,2.015Zm7.58-5.369c-1.664,0-3.081,1.183-3.081,3.432,0,2.353,1.573,3.419,3.302,3.419.806,0,1.716-.156,2.236-.416l-.195-1.365c-.455.169-1.066.286-1.56.286-1.001,0-1.768-.507-1.989-1.482h4.147c.247-2.249-.676-3.874-2.86-3.874Zm.013,1.391c.676,0,1.092.455,1.157,1.339h-2.47c.143-.754.611-1.339,1.313-1.339Zm16.848,5.278l-2.249-3.341,2.197-3.159h-2.067l-1.222,1.755-1.235-1.755h-2.067l2.249,3.133-2.249,3.367h2.054l1.274-1.911,1.261,1.911h2.054Z"/><circle class="cls-7" cx="8.5" cy="34.972" r="6.5"/><circle class="cls-2" cx="8.5" cy="34.972" r="6.25"/><circle class="cls-7" cx="140.5" cy="34.972" r="6.5"/><circle class="cls-2" cx="140.5" cy="34.972" r="6.25"/><circle class="cls-10" cx="140.5" cy="34.972" r="3.5"/><rect class="cls-7" x="3" y="220.256" width="188" height="58" rx="5" ry="5"/><rect class="cls-7" x="214" y="220.256" width="187" height="58" rx="5" ry="5"/><rect class="cls-7" x="424" y="220.256" width="188" height="58" rx="5" ry="5"/><rect class="cls-7" x="3" y="334.256" width="188" height="58" rx="5" ry="5"/><rect class="cls-7" x="214" y="334.256" width="187" height="58" rx="5" ry="5"/><rect class="cls-7" x="424" y="334.256" width="188" height="58" rx="5" ry="5"/><path class="cls-13" d="m63.762,245.256h1.988l-3.08-9.1h-2.268l-3.108,9.1h1.988l.686-2.044h3.122l.672,2.044Zm-1.204-3.738h-2.058l1.036-3.346,1.022,3.346Zm7.7908-5.362h-3.262v9.1h2.03v-2.772h1.232c2.198,0,3.304-1.61,3.304-3.192s-1.092-3.136-3.304-3.136Zm-.126,4.648h-1.106v-3.052h1.106c.91,0,1.358.742,1.358,1.512,0,.756-.448,1.54-1.358,1.54Zm8.0147-4.648h-3.262v9.1h2.03v-2.772h1.232c2.198,0,3.304-1.61,3.304-3.192s-1.092-3.136-3.304-3.136Zm-.126,4.648h-1.106v-3.052h1.106c.91,0,1.358.742,1.358,1.512,0,.756-.448,1.54-1.358,1.54Zm9.8066,4.452h2.2119l-2.1979-3.388c1.106-.518,1.596-1.582,1.596-2.646,0-1.54-1.036-3.066-3.136-3.066h-3.528v9.1h2.03v-2.926h1.092l1.932,2.926Zm-3.024-7.504h1.274c.868,0,1.302.728,1.302,1.442,0,.728-.434,1.456-1.302,1.456h-1.274v-2.898Zm10.7829-1.778c-2.73,0-4.62,1.988-4.62,4.732s1.89,4.732,4.62,4.732,4.634-1.988,4.634-4.732-1.904-4.732-4.634-4.732Zm0,1.778c1.498,0,2.492,1.19,2.492,2.94,0,1.778-.994,2.968-2.492,2.968s-2.492-1.19-2.492-2.968c0-1.75.994-2.94,2.492-2.94Zm11.152-1.596l-1.904,6.16-1.904-6.16h-2.1l2.912,9.1h2.184l2.912-9.1h-2.1Zm5.464,7.42v-2.002h3.626v-1.68h-3.626v-2.058h4.032v-1.68h-6.062v9.1h6.132v-1.68h-4.102Zm9.429-7.42h-3.598v9.1h3.598c3.108,0,4.676-2.282,4.676-4.564,0-2.268-1.568-4.536-4.676-4.536Zm0,7.42h-1.568v-5.74h1.568c1.694,0,2.548,1.428,2.548,2.856,0,1.442-.854,2.884-2.548,2.884Zm-60.648,8.426c-2.184,0-3.444,1.89-3.444,4.704,0,2.828,1.26,4.704,3.444,4.704,2.17,0,3.43-1.876,3.43-4.704,0-2.814-1.26-4.704-3.43-4.704Zm0,1.148c1.302,0,2.086,1.4,2.086,3.556,0,2.17-.798,3.556-2.086,3.556-1.316,0-2.114-1.386-2.114-3.556,0-2.156.812-3.556,2.114-3.556Zm5.6617,8.26c.448,0,.812-.378.812-.854s-.364-.868-.812-.868-.826.392-.826.868.378.854.826.854Zm5.6723-9.408c-2.184,0-3.444,1.89-3.444,4.704,0,2.828,1.26,4.704,3.444,4.704,2.17,0,3.43-1.876,3.43-4.704,0-2.814-1.26-4.704-3.43-4.704Zm0,1.148c1.302,0,2.086,1.4,2.086,3.556,0,2.17-.798,3.556-2.086,3.556-1.316,0-2.114-1.386-2.114-3.556,0-2.156.812-3.556,2.114-3.556Zm8.1348-1.148c-2.184,0-3.444,1.89-3.444,4.704,0,2.828,1.26,4.704,3.444,4.704,2.17,0,3.43-1.876,3.43-4.704,0-2.814-1.26-4.704-3.43-4.704Zm0,1.148c1.302,0,2.086,1.4,2.086,3.556,0,2.17-.798,3.556-2.086,3.556-1.316,0-2.114-1.386-2.114-3.556,0-2.156.812-3.556,2.114-3.556Zm12.0602,3.948h-3.5423v1.022h3.5423v-1.022Zm11.918.84h-1.498v-5.782h-1.148l-4.27,6.146.14.686h4.046v2.268h1.232v-2.268h1.498v-1.05Zm-5.418,0l2.688-3.948v3.948h-2.688Zm9.444-5.936c-2.072,0-2.968,1.582-2.968,2.912,0,1.68,1.19,2.8,2.884,2.8.462,0,1.106-.098,1.652-.364-.532,1.526-1.862,2.66-3.948,3.01l.182,1.078c3.43-.49,5.376-2.618,5.376-5.712,0-2.254-1.064-3.724-3.178-3.724Zm.21,4.788c-1.092,0-1.862-.672-1.862-1.848,0-.966.574-1.834,1.666-1.834,1.12,0,1.82.854,1.82,2.618,0,.21-.014.406-.028.602-.532.294-1.092.462-1.596.462Zm5.065,4.62c.448,0,.812-.378.812-.854s-.364-.868-.812-.868-.826.392-.826.868.378.854.826.854Zm5.457-9.408c-2.072,0-2.968,1.582-2.968,2.912,0,1.68,1.19,2.8,2.884,2.8.462,0,1.106-.098,1.652-.364-.532,1.526-1.862,2.66-3.948,3.01l.182,1.078c3.43-.49,5.376-2.618,5.376-5.712,0-2.254-1.064-3.724-3.178-3.724Zm.21,4.788c-1.092,0-1.862-.672-1.862-1.848,0-.966.574-1.834,1.666-1.834,1.12,0,1.82.854,1.82,2.618,0,.21-.014.406-.028.602-.532.294-1.092.462-1.596.462Zm7.31-4.788c-2.072,0-2.968,1.582-2.968,2.912,0,1.68,1.19,2.8,2.884,2.8.462,0,1.106-.098,1.652-.364-.532,1.526-1.862,2.66-3.948,3.01l.182,1.078c3.43-.49,5.376-2.618,5.376-5.712,0-2.254-1.064-3.724-3.178-3.724Zm.21,4.788c-1.092,0-1.862-.672-1.862-1.848,0-.966.574-1.834,1.666-1.834,1.12,0,1.82.854,1.82,2.618,0,.21-.014.406-.028.602-.532.294-1.092.462-1.596.462Z"/><path class="cls-13" d="m274.29,236.156l-1.498,5.908-1.596-5.908h-1.75l-1.61,5.908-1.484-5.908h-2.058l2.492,9.1h1.918l1.61-5.978,1.624,5.978h1.932l2.478-9.1h-2.058Zm8.367,9.1h1.988l-3.08-9.1h-2.268l-3.108,9.1h1.988l.686-2.044h3.122l.672,2.044Zm-1.204-3.738h-2.058l1.036-3.346,1.022,3.346Zm9.582,3.738h2.212l-2.198-3.388c1.106-.518,1.596-1.582,1.596-2.646,0-1.54-1.036-3.066-3.136-3.066h-3.528v9.1h2.03v-2.926h1.092l1.932,2.926Zm-3.024-7.504h1.274c.868,0,1.302.728,1.302,1.442,0,.728-.434,1.456-1.302,1.456h-1.274v-2.898Zm12.264-1.596v5.362l-4.172-5.362h-1.358v9.1h1.946v-5.362l4.158,5.362h1.372v-9.1h-1.946Zm6.029,0h-2.03v9.1h2.03v-9.1Zm7.602,0v5.362l-4.172-5.362h-1.358v9.1h1.946v-5.362l4.158,5.362h1.372v-9.1h-1.946Zm8.353,3.836v1.582h1.75v1.372c-.364.462-1.05.714-1.82.714-1.484,0-2.59-.98-2.59-2.954,0-2.058,1.19-2.954,2.842-2.954.728,0,1.582.126,2.198.364l.49-1.666c-.854-.322-1.96-.476-2.884-.476-2.898,0-4.774,1.694-4.774,4.732,0,2.716,1.582,4.732,4.69,4.732,1.848,0,3.038-.714,3.808-1.876v-3.57h-3.71Zm-54.759,15.706c-.448,0-.812.042-1.092.112l.182-2.548h3.444v-1.106h-4.466l-.322,4.382.56.546c.476-.196,1.008-.294,1.512-.294,1.12,0,1.764.644,1.764,1.708,0,1.162-.854,1.722-2.016,1.722-.672,0-1.358-.168-2.072-.42l-.224,1.148c.7.238,1.414.448,2.394.448,2.1,0,3.248-1.176,3.248-2.912,0-1.61-1.022-2.786-2.912-2.786Zm7.738-3.696c-2.184,0-3.444,1.89-3.444,4.704,0,2.828,1.26,4.704,3.444,4.704,2.17,0,3.43-1.876,3.43-4.704,0-2.814-1.26-4.704-3.43-4.704Zm0,1.148c1.302,0,2.086,1.4,2.086,3.556,0,2.17-.798,3.556-2.086,3.556-1.316,0-2.114-1.386-2.114-3.556,0-2.156.812-3.556,2.114-3.556Zm5.662,8.26c.448,0,.812-.378.812-.854s-.364-.868-.812-.868-.826.392-.826.868.378.854.826.854Zm5.672-9.408c-2.184,0-3.444,1.89-3.444,4.704,0,2.828,1.26,4.704,3.444,4.704,2.17,0,3.43-1.876,3.43-4.704,0-2.814-1.26-4.704-3.43-4.704Zm0,1.148c1.302,0,2.086,1.4,2.086,3.556,0,2.17-.798,3.556-2.086,3.556-1.316,0-2.114-1.386-2.114-3.556,0-2.156.812-3.556,2.114-3.556Zm8.135-1.148c-2.184,0-3.444,1.89-3.444,4.704,0,2.828,1.26,4.704,3.444,4.704,2.17,0,3.43-1.876,3.43-4.704,0-2.814-1.26-4.704-3.43-4.704Zm0,1.148c1.302,0,2.086,1.4,2.086,3.556,0,2.17-.798,3.556-2.086,3.556-1.316,0-2.114-1.386-2.114-3.556,0-2.156.812-3.556,2.114-3.556Zm12.06,3.948h-3.542v1.022h3.542v-1.022Zm10.672-4.942h-5.432v1.106h4.074l-3.332,7.994h1.33l3.57-8.484-.21-.616Zm7.234,5.782h-1.498v-5.782h-1.148l-4.27,6.146.14.686h4.046v2.268h1.232v-2.268h1.498v-1.05Zm-5.418,0l2.688-3.948v3.948h-2.688Zm7.596,3.472c.448,0,.812-.378.812-.854s-.364-.868-.812-.868-.826.392-.826.868.378.854.826.854Zm5.457-9.408c-2.072,0-2.968,1.582-2.968,2.912,0,1.68,1.19,2.8,2.884,2.8.462,0,1.106-.098,1.652-.364-.532,1.526-1.862,2.66-3.948,3.01l.182,1.078c3.43-.49,5.376-2.618,5.376-5.712,0-2.254-1.064-3.724-3.178-3.724Zm.21,4.788c-1.092,0-1.862-.672-1.862-1.848,0-.966.574-1.834,1.666-1.834,1.12,0,1.82.854,1.82,2.618,0,.21-.014.406-.028.602-.532.294-1.092.462-1.596.462Zm7.31-4.788c-2.072,0-2.968,1.582-2.968,2.912,0,1.68,1.19,2.8,2.884,2.8.462,0,1.106-.098,1.652-.364-.532,1.526-1.862,2.66-3.948,3.01l.182,1.078c3.43-.49,5.376-2.618,5.376-5.712,0-2.254-1.064-3.724-3.178-3.724Zm.21,4.788c-1.092,0-1.862-.672-1.862-1.848,0-.966.574-1.834,1.666-1.834,1.12,0,1.82.854,1.82,2.618,0,.21-.014.406-.028.602-.532.294-1.092.462-1.596.462Z"/><path class="cls-13" d="m484.084,237.836v-1.68h-6.048v9.1h2.03v-3.304h3.626v-1.68h-3.626v-2.436h4.018Zm6.951,7.42h1.988l-3.08-9.1h-2.268l-3.108,9.1h1.988l.686-2.044h3.122l.672,2.044Zm-1.204-3.738h-2.058l1.036-3.346,1.022,3.346Zm6.559-5.362h-2.03v9.1h2.03v-9.1Zm4.102,7.42v-7.42h-2.03v9.1h6.104v-1.68h-4.074Zm7.492,0v-2.002h3.626v-1.68h-3.626v-2.058h4.032v-1.68h-6.062v9.1h6.132v-1.68h-4.102Zm9.429-7.42h-3.598v9.1h3.598c3.108,0,4.676-2.282,4.676-4.564,0-2.268-1.568-4.536-4.676-4.536Zm0,7.42h-1.5681v-5.74h1.5681c1.694,0,2.548,1.428,2.548,2.856,0,1.442-.854,2.884-2.548,2.884Zm-34.197,8.58h-5.432v1.106h4.074l-3.332,7.994h1.33l3.57-8.484-.21-.616Zm4.161,3.542c-.448,0-.812.042-1.092.112l.182-2.548h3.444v-1.106h-4.466l-.322,4.382.56.546c.476-.196,1.008-.294,1.512-.294,1.12,0,1.764.644,1.764,1.708,0,1.162-.854,1.722-2.016,1.722-.672,0-1.358-.168-2.072-.42l-.224,1.148c.7.238,1.414.448,2.394.448,2.1,0,3.248-1.176,3.248-2.912,0-1.61-1.022-2.786-2.912-2.786Zm5.47,5.712c.448,0,.812-.378.812-.854s-.364-.868-.812-.868-.826.392-.826.868.378.854.826.854Zm5.672-9.408c-2.184,0-3.444,1.89-3.444,4.704,0,2.828,1.26,4.704,3.444,4.704,2.17,0,3.43-1.876,3.43-4.704,0-2.814-1.26-4.704-3.43-4.704Zm0,1.148c1.302,0,2.086,1.4,2.086,3.556,0,2.17-.798,3.556-2.086,3.556-1.316,0-2.114-1.386-2.114-3.556,0-2.156.812-3.556,2.114-3.556Zm8.135-1.148c-2.184,0-3.444,1.89-3.444,4.704,0,2.828,1.2599,4.704,3.444,4.704,2.17,0,3.43-1.876,3.43-4.704,0-2.814-1.26-4.704-3.43-4.704Zm0,1.148c1.302,0,2.086,1.4,2.086,3.556,0,2.17-.798,3.556-2.086,3.556-1.316,0-2.114-1.386-2.114-3.556,0-2.156.812-3.556,2.114-3.556Zm12.06,3.948h-3.542v1.022h3.542v-1.022Zm9.048-4.956h-.742l-3.318,1.12.322,1.05,2.436-.812v7.756h1.302v-9.114Zm5.197-.14c-2.184,0-3.444,1.89-3.444,4.704,0,2.828,1.26,4.704,3.444,4.704,2.17,0,3.43-1.876,3.43-4.704,0-2.814-1.2599-4.704-3.43-4.704Zm0,1.148c1.302,0,2.086,1.4,2.086,3.556,0,2.17-.798,3.556-2.086,3.556-1.316,0-2.114-1.386-2.114-3.556,0-2.156.812-3.556,2.114-3.556Zm8.135-1.148c-2.184,0-3.444,1.89-3.444,4.704,0,2.828,1.2599,4.704,3.444,4.704,2.17,0,3.43-1.876,3.43-4.704,0-2.814-1.26-4.704-3.43-4.704Zm0,1.148c1.302,0,2.086,1.4,2.086,3.556,0,2.17-.798,3.556-2.086,3.556-1.316,0-2.114-1.386-2.114-3.556,0-2.156.812-3.556,2.114-3.556Zm5.661,8.26c.448,0,.812-.378.812-.854s-.364-.868-.812-.868-.826.392-.826.868.378.854.826.854Zm5.673-9.408c-2.184,0-3.444,1.89-3.444,4.704,0,2.828,1.26,4.704,3.444,4.704,2.17,0,3.43-1.876,3.43-4.704,0-2.814-1.2599-4.704-3.43-4.704Zm0,1.148c1.302,0,2.086,1.4,2.086,3.556,0,2.17-.798,3.556-2.086,3.556-1.316,0-2.114-1.386-2.114-3.556,0-2.156.812-3.556,2.114-3.556Zm8.134-1.148c-2.184,0-3.444,1.89-3.444,4.704,0,2.828,1.26,4.704,3.444,4.704,2.17,0,3.43-1.876,3.43-4.704,0-2.814-1.26-4.704-3.43-4.704Zm0,1.148c1.302,0,2.086,1.4,2.086,3.556,0,2.17-.798,3.556-2.086,3.556-1.316,0-2.114-1.386-2.114-3.556,0-2.156.812-3.556,2.114-3.556Z"/><g class="cls-5"><path class="cls-6" d="m243.509,260.878c-3.336,0-6.672.014-10.008-.005-3.071-.017-4.407-2.368-2.844-5.003,3.307-5.574,6.622-11.144,9.948-16.707,1.52-2.542,4.225-2.543,5.752-.001,3.338,5.556,6.667,11.117,9.985,16.685,1.566,2.627.226,5.009-2.825,5.026-3.336.019-6.672.005-10.008.005Zm-1.708-15.921c.185,2.174.349,4.069.507,5.965.058.697.367,1.329,1.086,1.241.443-.054,1.129-.596,1.177-.985.288-2.283.46-4.584.583-6.884.047-.877-.54-1.418-1.416-1.534-.865-.114-1.534.251-1.828,1.067-.155.428-.094.933-.109,1.13Zm3.537,10.57c.029-.966-.798-1.844-1.778-1.889-.978-.045-1.858.754-1.915,1.739-.061,1.037.769,1.917,1.819,1.928.995.01,1.844-.796,1.874-1.778Z"/></g><g class="cls-15"><path class="cls-8" d="m46,249.756c0,6.904-5.5965,12.5-12.5001,12.5s-12.4999-5.596-12.4999-12.5,5.5965-12.5,12.5001-12.5,12.4999,5.596,12.4999,12.5Zm-14.6449,1.232c-.8738-.875-1.7481-1.749-2.6227-2.623-.3693-.37-.8676-.376-1.2404-.009-.3776.372-.7531.746-1.1235,1.124-.3705.379-.3716.865.0046,1.243,1.488,1.493,2.9783,2.984,4.4719,4.471.3804.379.8776.384,1.2566.006,2.8516-2.846,5.7005-5.695,8.5468-8.547.3265-.327.3531-.797.041-1.139-.3929-.431-.8071-.846-1.2388-1.238-.3829-.349-.8211-.316-1.1823.045-1.6529,1.651-3.3042,3.303-4.9557,4.955-.6082.608-1.2156,1.217-1.8455,1.848-.0465-.057-.0759-.1-.112-.136Z"/></g><g class="cls-18"><path class="cls-9" d="m451.5,262.256c6.904,0,12.5-5.596,12.5-12.5s-5.596-12.5-12.5-12.5-12.5,5.596-12.5,12.5,5.596,12.5,12.5,12.5Z"/><path class="cls-7" d="m451.482,252.18c-.042.053-.071.098-.108.135-.817.818-1.635,1.636-2.453,2.453-.422.422-.911.421-1.334-.001-.382-.382-.764-.763-1.145-1.146-.354-.354-.352-.889.003-1.244.827-.828,1.655-1.656,2.484-2.483.04-.04.089-.073.145-.118-.052-.057-.085-.095-.12-.13-.835-.835-1.669-1.67-2.504-2.504-.362-.362-.364-.894-.004-1.255.385-.385.77-.771,1.156-1.155.404-.402.902-.404,1.304-.003.825.824,1.649,1.648,2.472,2.474.037.037.06.086.095.137.068-.063.106-.098.143-.134l2.453-2.453c.434-.434.916-.432,1.354.005l1.125,1.125c.368.368.365.894-.005,1.264-.831.831-1.662,1.662-2.494,2.493-.033.033-.075.059-.125.097.052.057.085.095.121.131.831.831,1.662,1.662,2.493,2.493.378.377.38.9.005,1.274-.364.365-.745.716-1.09,1.099-.404.447-.999.441-1.415.006-.793-.828-1.616-1.627-2.428-2.438-.033-.033-.067-.065-.128-.122Z"/></g><path class="cls-14" d="m62.65,357.342c.602-.476.868-1.022.868-1.736,0-1.33-1.05-2.45-2.954-2.45h-3.528v9.1h4.004c2.016,0,3.066-1.176,3.066-2.604,0-1.022-.434-1.792-1.456-2.31Zm-1.218-1.568c0,.476-.308.98-.952.98h-1.414v-1.96h1.414c.644,0,.952.476.952.98Zm-.56,4.844h-1.806v-2.282h1.806c.77,0,1.162.588,1.162,1.162s-.378,1.12-1.162,1.12Zm10.4759,1.638h1.988l-3.08-9.1h-2.268l-3.108,9.1h1.988l.686-2.044h3.122l.672,2.044Zm-1.204-3.738h-2.058l1.036-3.346,1.022,3.346Zm8.359,3.92c.84,0,1.89-.14,2.884-.672l-.658-1.582c-.616.28-1.33.448-1.96.448-1.68,0-2.744-1.064-2.744-2.954,0-2.03,1.162-2.898,2.73-2.898.658,0,1.386.098,1.96.336l.476-1.666c-.798-.336-1.75-.476-2.618-.476-2.772,0-4.676,1.792-4.676,4.732,0,2.716,1.386,4.732,4.606,4.732Zm9.8176-.182h2.3385l-3.4585-5.362,3.0105-3.738h-2.2825l-2.968,3.64v-3.64h-2.03v9.1h2.03v-2.562l.966-1.204,2.394,3.766Zm7.1875-5.32h-3.864v1.526h3.864v-1.526Zm5.868-3.962c-2.73,0-4.62,1.988-4.62,4.732s1.89,4.732,4.62,4.732,4.634-1.988,4.634-4.732-1.904-4.732-4.634-4.732Zm0,1.778c1.498,0,2.492,1.19,2.492,2.94,0,1.778-.994,2.968-2.492,2.968s-2.492-1.19-2.492-2.968c0-1.75.994-2.94,2.492-2.94Zm12.253.084v-1.68h-6.048v9.1h2.03v-3.304h3.626v-1.68h-3.626v-2.436h4.018Zm7.328,0v-1.68h-6.048v9.1h2.03v-3.304h3.626v-1.68h-3.626v-2.436h4.018Zm3.31-1.68h-2.03v9.1h2.03v-9.1Zm6.244,9.282c.84,0,1.89-.14,2.884-.672l-.658-1.582c-.616.28-1.33.448-1.96.448-1.68,0-2.744-1.064-2.744-2.954,0-2.03,1.162-2.898,2.73-2.898.658,0,1.386.098,1.96.336l.476-1.666c-.798-.336-1.75-.476-2.618-.476-2.772,0-4.676,1.792-4.676,4.732,0,2.716,1.386,4.732,4.606,4.732Zm6.457-1.862v-2.002h3.626v-1.68h-3.626v-2.058h4.032v-1.68h-6.062v9.1h6.132v-1.68h-4.102Zm-76.32,8.58h-3.43v9.1h3.43c2.982,0,4.48-2.268,4.48-4.55,0-2.268-1.484-4.55-4.48-4.55Zm0,7.994h-2.142v-6.888h2.142c2.114,0,3.15,1.722,3.15,3.444,0,1.708-1.05,3.444-3.15,3.444Zm9.0178-6.048c-1.876,0-3.192,1.372-3.192,3.654,0,2.352,1.372,3.668,3.374,3.668.84,0,1.848-.21,2.296-.448l-.14-.994c-.476.196-1.302.378-1.918.378-1.316,0-2.254-.896-2.38-2.352h4.83c.196-2.31-.7-3.906-2.87-3.906Zm.014,1.008c.994,0,1.596.686,1.638,2.002h-3.584c.1679-1.19.882-2.002,1.946-2.002Zm7.5654-2.772c.322,0,.7.042,1.106.14l.14-1.008c-.518-.14-.966-.168-1.456-.168-1.414,0-2.506.686-2.506,2.912v.042h-1.078v1.036h1.078v5.964h1.26v-5.964h1.778v-1.036h-1.778v-.07c0-1.442.56-1.848,1.456-1.848Zm4.3008,1.764c-.756,0-1.638.126-2.506.35l.182,1.022c.812-.224,1.68-.364,2.226-.364,1.204,0,1.288.686,1.288,1.988-2.268.056-4.48.574-4.48,2.38,0,1.274.966,1.932,2.128,1.932.854,0,1.834-.336,2.464-.896l.112.742h1.036v-4.06c0-1.484.028-3.094-2.45-3.094Zm-.882,6.328c-.756,0-1.176-.392-1.176-.966,0-1.176,1.736-1.456,3.248-1.47v1.512c-.518.546-1.372.924-2.072.924Zm9.613-6.174v5.152c-.588.616-1.414.952-2.03.952s-1.176-.42-1.176-1.792v-4.312h-1.274v4.354c0,1.848.77,2.8,2.17,2.8.84,0,1.638-.35,2.408-1.036l.126.882h1.05v-7h-1.274Zm4.605-2.996l-1.26.196v9.8h1.26v-9.996Zm5.604,8.89c-.448.14-.826.182-1.106.182-.77,0-1.008-.56-1.008-2.03v-3.01h2.142v-1.036h-2.142v-1.75l-1.274.224v1.526h-.91v1.036h.91v2.982c0,2.044.406,3.136,1.96,3.136.448,0,.966-.07,1.596-.266l-.168-.994Zm9.653-8.148c-2.604,0-4.466,1.988-4.466,4.718,0,2.716,1.862,4.69,4.466,4.69,2.618,0,4.466-1.974,4.466-4.69,0-2.73-1.848-4.718-4.466-4.718Zm0,1.148c1.848,0,3.136,1.47,3.136,3.542,0,2.1-1.302,3.57-3.136,3.57s-3.136-1.47-3.136-3.57c0-2.072,1.302-3.542,3.136-3.542Zm9.971.952c-.896,0-1.736.364-2.562,1.05l-.14-.896h-1.05v7h1.26v-5.138c.672-.63,1.554-.966,2.212-.966.742,0,1.33.42,1.33,1.792v4.312h1.26v-4.354c0-1.848-.784-2.8-2.31-2.8Z"/><path class="cls-13" d="m267.066,360.576v-2.002h3.626v-1.68h-3.626v-2.058h4.032v-1.68h-6.062v9.1h6.132v-1.68h-4.102Zm15.603,1.68l-.728-9.1h-2.38l-1.918,6.244-1.918-6.244h-2.38l-.714,9.1h1.904l.406-5.712,1.75,5.712h1.904l1.75-5.712.42,5.712h1.904Zm7.521,0h1.988l-3.08-9.1h-2.268l-3.108,9.1h1.988l.686-2.044h3.122l.672,2.044Zm-1.204-3.738h-2.058l1.036-3.346,1.022,3.346Zm6.559-5.362h-2.03v9.1h2.03v-9.1Zm4.101,7.42v-7.42h-2.03v9.1h6.104v-1.68h-4.074Zm-33.672,9.714c.448,0,.812-.378.812-.854s-.364-.868-.812-.868c-.462,0-.826.392-.826.868s.364.854.826.854Zm.63.966h-1.26v6.664c0,1.596-.406,2.184-1.274,2.38l.182.91c1.358,0,2.352-1.064,2.352-3.318v-6.636Zm5.172-.154c-2.044,0-3.318,1.498-3.318,3.654s1.274,3.654,3.318,3.654,3.304-1.484,3.304-3.654c0-2.156-1.26-3.654-3.304-3.654Zm0,1.022c1.218,0,2.03,1.036,2.03,2.632s-.812,2.632-2.03,2.632c-1.232,0-2.044-1.036-2.044-2.632s.812-2.632,2.044-2.632Zm8.729-1.022c-.868,0-1.694.336-2.492.994v-3.836l-1.26.196v9.856h1.26v-5.194c.672-.63,1.554-.966,2.212-.966.742,0,1.33.42,1.33,1.792v4.312h1.26v-4.354c0-1.848-.784-2.8-2.31-2.8Zm5.084,7.308c.448,0,.812-.378.812-.854s-.364-.868-.812-.868-.826.392-.826.868.378.854.826.854Zm3.61,0c.448,0,.812-.378.812-.854s-.364-.868-.812-.868-.826.392-.826.868.378.854.826.854Zm7.753,2.52c.574,0,1.064-.084,1.554-.238l-.112-.882c-.462.168-.896.238-1.4.238-2.408,0-4.354-1.722-4.354-4.424,0-2.52,1.694-4.606,4.592-4.606,2.45,0,3.906,1.414,3.906,3.682,0,1.554-.882,2.59-2.044,2.59v-4.018c-.616-.49-1.344-.714-2.044-.714-1.61,0-2.814,1.288-2.814,3.052,0,1.498.854,2.772,2.408,2.772.602,0,1.218-.238,1.512-.798l.112.672h.658c1.764-.028,3.234-1.414,3.234-3.598,0-2.828-2.212-4.522-5.012-4.522-3.276,0-5.544,2.324-5.544,5.516,0,3.262,2.436,5.278,5.348,5.278Zm-.154-3.486c-.952,0-1.456-.742-1.456-1.82,0-1.246.686-2.114,1.722-2.114.308,0,.658.07.924.28v3.094c-.224.35-.742.56-1.19.56Zm10.398-6.342c-.756,0-1.47.294-2.086.826v-3.682l-1.26.21v9.254c.826.434,1.764.7,2.716.7,1.946,0,3.556-1.204,3.556-3.738,0-2.282-1.33-3.57-2.926-3.57Zm-.672,6.258c-.476,0-.91-.098-1.414-.252v-4.172c.56-.462,1.218-.77,1.848-.77,1.078,0,1.904.882,1.904,2.534,0,1.876-1.05,2.66-2.338,2.66Zm6.096-7.07c.448,0,.812-.378.812-.854s-.364-.868-.812-.868-.826.392-.826.868.378.854.826.854Zm.63.966h-1.26v7h1.26v-7Zm3.383,5.964l3.458-5.446-.154-.518h-4.746v1.036h3.206l-3.43,5.418.154.546h4.984v-1.036h-3.472Zm8.378-6.118c-.812,0-1.554.336-2.184.924l-.112-.77h-1.05v9.954l1.26-.196v-2.982c.546.252,1.12.378,1.694.378,1.708,0,3.332-1.19,3.332-3.71,0-2.296-1.33-3.598-2.94-3.598Zm-.644,6.258c-.462,0-.966-.098-1.442-.294v-4.13c.574-.462,1.218-.77,1.848-.77,1.078,0,1.904.882,1.904,2.534,0,1.876-1.064,2.66-2.31,2.66Zm8.013-6.258c-.756,0-1.638.126-2.506.35l.182,1.022c.812-.224,1.68-.364,2.226-.364,1.204,0,1.288.686,1.288,1.988-2.268.056-4.48.574-4.48,2.38,0,1.274.966,1.932,2.128,1.932.854,0,1.834-.336,2.464-.896l.112.742h1.036v-4.06c0-1.484.028-3.094-2.45-3.094Zm-.882,6.328c-.756,0-1.176-.392-1.176-.966,0-1.176,1.736-1.456,3.248-1.47v1.512c-.518.546-1.372.924-2.072.924Zm9.711-6.174l-1.904,5.544-1.834-5.544h-1.274l2.464,7.196c-.336.742-.812,1.162-1.624,1.68l.574.938c1.414-.84,2.016-1.75,2.436-2.954l2.422-6.86h-1.26Zm3.074,7.154c.448,0,.812-.378.812-.854s-.364-.868-.812-.868-.826.392-.826.868.378.854.826.854Zm5.642-7.308c-1.806,0-3.318,1.022-3.318,3.626,0,2.436,1.372,3.696,3.276,3.696.77,0,1.778-.21,2.226-.448l-.14-.994c-.462.21-1.288.364-1.848.364-1.302,0-2.24-.924-2.24-2.66,0-1.876,1.022-2.534,2.254-2.534.504,0,1.092.126,1.652.336l.294-.966c-.644-.266-1.414-.42-2.156-.42Zm6.521,0c-2.044,0-3.318,1.498-3.318,3.654s1.274,3.654,3.318,3.654,3.304-1.484,3.304-3.654c0-2.156-1.26-3.654-3.304-3.654Zm0,1.022c1.218,0,2.03,1.036,2.03,2.632s-.812,2.632-2.03,2.632c-1.232,0-2.044-1.036-2.044-2.632s.812-2.632,2.044-2.632Zm12.887-1.022c-.896,0-1.708.392-2.506,1.19-.336-.798-.98-1.19-1.904-1.19-.826,0-1.568.336-2.31,1.008l-.14-.854h-1.05v7h1.26v-5.166c.574-.602,1.344-.938,1.946-.938.672,0,1.204.434,1.204,1.792v4.312h1.26v-4.354c0-.266-.014-.518-.042-.756.574-.644,1.372-.994,1.988-.994.672,0,1.204.434,1.204,1.792v4.312h1.26v-4.354c0-1.848-.742-2.8-2.17-2.8Z"/><path class="cls-13" d="m481.088,352.974c-1.988,0-3.346,1.162-3.346,2.674,0,1.26.966,2.044,2.646,2.772,1.134.49,1.778.77,1.778,1.414,0,.588-.49.882-1.372.882-.742,0-1.54-.238-2.744-.938l-.49,1.652c1.134.7,2.31,1.008,3.36,1.008,1.974,0,3.36-.882,3.36-2.562,0-1.526-1.106-2.436-2.954-3.164-.994-.406-1.47-.672-1.47-1.162,0-.476.448-.896,1.302-.896.588,0,1.386.154,2.254.518l.448-1.652c-1.008-.406-1.904-.546-2.772-.546Zm14.554,9.282l-.728-9.1h-2.38l-1.918,6.244-1.918-6.244h-2.38l-.714,9.1h1.904l.406-5.712,1.75,5.712h1.904l1.75-5.712.42,5.712h1.904Zm4.846-9.282c-1.988,0-3.346,1.162-3.346,2.674,0,1.26.966,2.044,2.646,2.772,1.134.49,1.778.77,1.778,1.414,0,.588-.49.882-1.372.882-.742,0-1.54-.238-2.744-.938l-.49,1.652c1.134.7,2.31,1.008,3.36,1.008,1.974,0,3.36-.882,3.36-2.562,0-1.526-1.106-2.436-2.954-3.164-.994-.406-1.47-.672-1.47-1.162,0-.476.448-.896,1.302-.896.588,0,1.386.154,2.254.518l.448-1.652c-1.008-.406-1.904-.546-2.772-.546Zm-19.666,18.128c-1.876,0-3.192,1.372-3.192,3.654,0,2.352,1.372,3.668,3.374,3.668.84,0,1.848-.21,2.296-.448l-.14-.994c-.476.196-1.302.378-1.918.378-1.316,0-2.254-.896-2.38-2.352h4.83c.196-2.31-.7-3.906-2.87-3.906Zm.014,1.008c.994,0,1.596.686,1.638,2.002h-3.584c.168-1.19.882-2.002,1.946-2.002Zm8.307-1.008c-.896,0-1.736.364-2.562,1.05l-.14-.896h-1.05v7h1.26v-5.138c.672-.63,1.554-.966,2.212-.966.742,0,1.33.42,1.33,1.792v4.312h1.26v-4.354c0-1.848-.784-2.8-2.31-2.8Zm8.935-2.646v3.024c-.546-.252-1.134-.378-1.694-.378-1.708,0-3.332,1.19-3.332,3.71,0,2.296,1.33,3.598,2.94,3.598.798,0,1.554-.336,2.184-.924l.112.77h1.05v-10.01l-1.26.21Zm-3.752,6.356c0-1.876,1.064-2.66,2.31-2.66.462,0,.966.098,1.442.294v4.13c-.574.462-1.218.77-1.848.77-1.078,0-1.904-.882-1.904-2.534Zm7.915-4.522c.448,0,.812-.378.812-.854s-.364-.868-.812-.868-.826.392-.826.868.378.854.826.854Zm.6299.966h-1.26v7h1.26v-7Zm6.001-.154c-.896,0-1.736.364-2.562,1.05l-.14-.896h-1.05v7h1.26v-5.138c.672-.63,1.554-.966,2.212-.966.742,0,1.33.42,1.33,1.792v4.312h1.26v-4.354c0-1.848-.784-2.8-2.31-2.8Zm11.006.154h-2.646c-.336-.098-.714-.154-1.106-.154-1.7079,0-2.968,1.008-2.968,2.548,0,.672.252,1.246.672,1.68-.56.476-.77.896-.77,1.33,0,.504.266.826.672,1.036-.756.546-.966,1.12-.966,1.582,0,1.358,1.61,2.072,3.36,2.072,1.652,0,3.192-.714,3.192-2.128,0-1.526-1.806-1.904-3.36-2.086-1.022-.112-1.778-.252-1.778-.686,0-.154.098-.364.406-.588.434.196.966.308,1.54.308,1.708,0,2.912-.966,2.912-2.52,0-.518-.14-.98-.392-1.358h1.232v-1.036Zm-3.752,3.934c-1.078,0-1.75-.616-1.75-1.554s.658-1.554,1.736-1.554,1.75.616,1.75,1.568c0,.924-.672,1.54-1.736,1.54Zm1.932,4.06c0,.756-.91,1.134-1.932,1.134-1.106,0-2.128-.392-2.128-1.218,0-.336.196-.7.826-1.134l.938.126c1.2599.14,2.296.308,2.296,1.092Zm7.685-8.96c.448,0,.812-.378.812-.854s-.364-.868-.812-.868-.826.392-.826.868.378.854.826.854Zm.63.966h-1.26v7h1.26v-7Zm6.001-.154c-.896,0-1.736.364-2.562,1.05l-.14-.896h-1.05v7h1.26v-5.138c.672-.63,1.554-.966,2.212-.966.742,0,1.33.42,1.33,1.792v4.312h1.26v-4.354c0-1.848-.784-2.8-2.31-2.8Zm12.033-1.05l-.294-.938-1.386.546.084-1.512h-.924l.0699,1.526-1.386-.56-.294.952,1.428.378-.924,1.162.756.574.812-1.274.798,1.274.756-.574-.924-1.162,1.428-.392Zm5.647,0l-.294-.938-1.386.546.084-1.512h-.924l.07,1.526-1.386-.56-.294.952,1.428.378-.924,1.162.756.574.812-1.274.798,1.274.756-.574-.924-1.162,1.428-.392Zm5.646,0l-.294-.938-1.386.546.084-1.512h-.924l.07,1.526-1.386-.56-.294.952,1.428.378-.924,1.162.756.574.812-1.274.798,1.274.756-.574-.924-1.162,1.428-.392Zm5.647,0l-.294-.938-1.386.546.084-1.512h-.924l.0699,1.526-1.386-.56-.294.952,1.428.378-.924,1.162.756.574.812-1.274.798,1.274.756-.574-.924-1.162,1.428-.392Zm3.63,7.098c1.064-1.176,2.044-2.282,2.73-3.276.644-.938,1.05-1.792,1.05-2.59,0-1.232-.882-2.282-2.562-2.282-1.022,0-2.016.154-3.192.574l.252,1.078c.938-.364,1.834-.532,2.744-.532.952,0,1.428.448,1.428,1.302,0,.56-.35,1.274-.896,2.072-.854,1.218-2.17,2.646-3.514,4.032l.14.728h5.81v-1.106h-3.99Zm9.005-3.85c.854-.476,1.498-1.26,1.498-2.324,0-1.274-.924-1.974-2.576-1.974-.784,0-1.778.14-2.408.308l.182,1.148c.4901-.154,1.246-.308,2.002-.308,1.232,0,1.484.406,1.484,1.05,0,.91-.924,1.68-2.66,1.68v1.036c1.792-.028,2.912.756,2.912,1.764,0,.98-.868,1.54-1.946,1.54-.798,0-1.512-.168-2.254-.42l-.224,1.148c.658.21,1.442.448,2.478.448,2.38,0,3.276-1.176,3.276-2.632,0-1.064-.588-1.96-1.764-2.464Zm9.861,1.638h-1.498v-5.782h-1.1479l-4.27,6.146.14.686h4.046v2.268h1.232v-2.268h1.498v-1.05Zm-5.418,0l2.688-3.948v3.948h-2.688Zm8.455,2.212c1.064-1.176,2.044-2.282,2.73-3.276.644-.938,1.05-1.792,1.05-2.59,0-1.232-.882-2.282-2.562-2.282-1.022,0-2.0161.154-3.192.574l.252,1.078c.938-.364,1.834-.532,2.744-.532.952,0,1.428.448,1.428,1.302,0,.56-.35,1.274-.896,2.072-.854,1.218-2.17,2.646-3.514,4.032l.14.728h5.81v-1.106h-3.99Z"/><g class="cls-17"><path class="cls-8" d="m184,345.256c0,2.209-1.791,4-4,4s-4-1.791-4-4,1.791-4,4-4,4,1.791,4,4Zm-4.686.394c-.28-.28-.56-.559-.84-.839-.118-.118-.277-.12-.397-.003-.12.119-.241.239-.359.36-.119.121-.119.277.001.397.477.478.953.955,1.431,1.431.122.122.281.123.403.002.912-.911,1.824-1.822,2.734-2.735.105-.105.113-.255.014-.365-.126-.137-.259-.27-.397-.396-.122-.111-.263-.101-.378.015-.529.528-1.057,1.057-1.586,1.585-.195.195-.389.39-.591.592-.014-.018-.024-.032-.035-.044Z"/></g><g class="cls-16"><path class="cls-10" d="m45,377.591h-28v.665h28v-.665Z"/><path class="cls-10" d="m42.2283,373.52v-2.119h-.9956v1.859h-20.4134v-12.324h6.7814v-1.014h-7.1547c-.3438,0-.6223.284-.6223.634v12.915h-.015l-2.8087,3.72h10.3748l.6928-.918h5.8648l.6928.918h10.3748l-2.7717-3.671Z"/><path class="cls-12" d="m40.4917,358.521h-8.9307c-1.3534,0-2.4504.888-2.4504,1.983v7.224c0,1.095,1.0969,1.983,2.4504,1.983h8.9307c1.3534,0,2.4504-.888,2.4504-1.983v-7.224c0-1.095-1.0969-1.983-2.4504-1.983Zm-3.1166,8.954h-2.697l.8675-4.238c-.5842-.173-1.0062-.643-1.0062-1.203,0-.705.6656-1.277,1.4876-1.277.8208,0,1.4862.572,1.4862,1.277,0,.571-.4391,1.049-1.0407,1.212l.9026,4.229Z"/><path class="cls-12" d="m42.3738,357.719c0-3.57-2.8415-6.463-6.3475-6.463s-6.3476,2.893-6.3476,6.463h1.9867c0-2.452,1.9525-4.44,4.3608-4.44s4.3607,1.988,4.3607,4.44h1.9869Z"/></g><g class="cls-20"><path class="cls-10" d="m232.476,369.142v-4.702c0-.671.546-1.217,1.217-1.217h12.196c.67,0,1.216.546,1.216,1.217v4.702c.099-.068,2.244-1.542,2.351-1.615l-1.571-1.305v-1.782c0-1.102-.894-1.996-1.996-1.996h-2.556l-3.02-2.507c-.303-.251-.742-.251-1.044,0l-3.02,2.507h-2.556c-1.103,0-1.996.893-1.996,1.996v1.782l-1.572,1.305c.039.026,2.336,1.605,2.351,1.615Z"/><path class="cls-10" d="m240.253,374.579c-.278.192-.646.192-.925,0-.165-.114-9.201-6.324-9.328-6.411v9.989c0,.643.521,1.164,1.164,1.164h17.253c.643,0,1.164-.521,1.164-1.164v-9.989c-.51.35-8.817,6.06-9.328,6.411Z"/><path class="cls-10" d="m239.785,371.855c.402,0,.728-.326.728-.727,0-.402-.326-.728-.728-.728s-.727.326-.727.728c0,.401.325.727.727.727Z"/><path class="cls-10" d="m239.785,369.818c.402,0,.728-.325.728-.727s-.326-.727-.728-.727-.727.325-.727.727.325.727.727.727Z"/><path class="cls-10" d="m239.785,367.781c.402,0,.728-.325.728-.727s-.326-.727-.728-.727-.727.325-.727.727.325.727.727.727Z"/><path class="cls-4" d="m245.67,363.29h1.667c-.522,1.059-1.323,1.889-2.404,2.49-1.237.689-2.745,1.033-4.525,1.033-1.723,0-3.211-.291-4.464-.873-1.252-.582-2.184-1.44-2.795-2.576-.611-1.135-.916-2.371-.916-3.707,0-1.467.347-2.834,1.041-4.1.695-1.265,1.645-2.215,2.851-2.85,1.205-.634,2.584-.951,4.134-.951,1.315,0,2.485.256,3.508.767,1.023.512,1.805,1.239,2.345,2.181.54.942.81,1.972.81,3.089,0,1.331-.41,2.534-1.229,3.61-1.028,1.357-2.347,2.035-3.954,2.035-.434,0-.76-.075-.979-.227-.219-.151-.365-.373-.439-.665-.616.595-1.326.892-2.129.892-.867,0-1.586-.298-2.158-.896-.571-.598-.857-1.393-.857-2.385,0-1.226.345-2.346,1.034-3.359.835-1.232,1.905-1.848,3.21-1.848.929,0,1.616.355,2.059,1.065l.196-.869h2.067l-1.182,5.615c-.073.355-.11.584-.11.689,0,.13.03.228.09.293s.132.098.216.098c.25,0,.574-.151.971-.454.532-.397.963-.929,1.292-1.598.328-.668.493-1.359.493-2.075,0-1.284-.465-2.358-1.394-3.222-.929-.863-2.226-1.296-3.892-1.296-1.414,0-2.614.289-3.598.866-.984.577-1.725,1.388-2.223,2.435-.499,1.047-.748,2.136-.748,3.269,0,1.102.278,2.104.834,3.007.556.903,1.336,1.562,2.341,1.977,1.005.415,2.154.622,3.449.622,1.248,0,2.32-.173,3.218-.52.898-.347,1.621-.868,2.17-1.562Zm-8.465-3.218c0,.663.134,1.151.403,1.464s.602.47.999.47c.297,0,.576-.073.838-.22.198-.104.394-.268.587-.493.276-.318.515-.783.716-1.394.201-.61.302-1.179.302-1.707,0-.59-.137-1.042-.411-1.358-.274-.316-.62-.474-1.038-.474-.449,0-.864.174-1.245.521s-.668.841-.861,1.484c-.193.642-.29,1.211-.29,1.707Z"/><path class="cls-10" d="m245.67,363.29h1.667c-.522,1.059-1.323,1.889-2.404,2.49-1.237.689-2.745,1.033-4.525,1.033-1.723,0-3.211-.291-4.464-.873-1.252-.582-2.184-1.44-2.795-2.576-.611-1.135-.916-2.371-.916-3.707,0-1.467.347-2.834,1.041-4.1.695-1.265,1.645-2.215,2.851-2.85,1.205-.634,2.584-.951,4.134-.951,1.315,0,2.485.256,3.508.767,1.023.512,1.805,1.239,2.345,2.181.54.942.81,1.972.81,3.089,0,1.331-.41,2.534-1.229,3.61-1.028,1.357-2.347,2.035-3.954,2.035-.434,0-.76-.075-.979-.227-.219-.151-.365-.373-.439-.665-.616.595-1.326.892-2.129.892-.867,0-1.586-.298-2.158-.896-.571-.598-.857-1.393-.857-2.385,0-1.226.345-2.346,1.034-3.359.835-1.232,1.905-1.848,3.21-1.848.929,0,1.616.355,2.059,1.065l.196-.869h2.067l-1.182,5.615c-.073.355-.11.584-.11.689,0,.13.03.228.09.293s.132.098.216.098c.25,0,.574-.151.971-.454.532-.397.963-.929,1.292-1.598.328-.668.493-1.359.493-2.075,0-1.284-.465-2.358-1.394-3.222-.929-.863-2.226-1.296-3.892-1.296-1.414,0-2.614.289-3.598.866-.984.577-1.725,1.388-2.223,2.435-.499,1.047-.748,2.136-.748,3.269,0,1.102.278,2.104.834,3.007.556.903,1.336,1.562,2.341,1.977,1.005.415,2.154.622,3.449.622,1.248,0,2.32-.173,3.218-.52.898-.347,1.621-.868,2.17-1.562Zm-8.465-3.218c0,.663.134,1.151.403,1.464s.602.47.999.47c.297,0,.576-.073.838-.22.198-.104.394-.268.587-.493.276-.318.515-.783.716-1.394.201-.61.302-1.179.302-1.707,0-.59-.137-1.042-.411-1.358-.274-.316-.62-.474-1.038-.474-.449,0-.864.174-1.245.521s-.668.841-.861,1.484c-.193.642-.29,1.211-.29,1.707Z"/></g><g class="cls-19"><path class="cls-10" d="m455.122,364.339v-11.339c0-.341-.1-.656-.271-.925-.14-.221-.327-.408-.549-.548-.268-.169-.583-.271-.923-.271h-11.634c-.965,0-1.745.781-1.745,1.744v23.033c0,.23.047.446.127.647.176.444.529.795.973.972.201.08.416.128.645.128h11.634c.962,0,1.743-.782,1.743-1.747v-11.694Zm-6.608-11.81h2.045c.159,0,.289.129.289.288,0,.16-.13.288-.289.288h-5.996c-.158,0-.287-.128-.287-.288,0-.159.129-.288.287-.288h3.951Zm-.954,24.232c-.499,0-.904-.404-.904-.904s.405-.904.904-.904c.502,0,.905.404.905.904s-.403.904-.905.904Zm6.15-2.92h-12.298v-19.711h12.298v19.711Z"/><path class="cls-3" d="m450.236,369.075h7.622c.922,0,1.775-.557,1.775-1.34v-6.318c0-.8-.853-1.6-1.775-1.6h-10.424c-.905,0-1.966.8-1.966,1.6v6.318c0,.713.887,1.235,1.757,1.323l-.557,2.105,3.568-2.088Z"/><path class="cls-10" d="m450.236,369.075h7.622c.922,0,1.775-.557,1.775-1.34v-6.318c0-.8-.853-1.6-1.775-1.6h-10.424c-.905,0-1.966.8-1.966,1.6v6.318c0,.713.887,1.235,1.757,1.323l-.557,2.105,3.568-2.088Z"/><path class="cls-7" d="m448.409,366.414c-.825,0-1.47-.41-1.497-1.186h.994c.028.295.214.437.476.437.273,0,.448-.137.448-.36,0-.711-1.918-.328-1.907-1.689,0-.726.596-1.131,1.399-1.131.836,0,1.399.415,1.437,1.148h-1.011c-.016-.246-.191-.394-.443-.399-.224-.006-.393.109-.393.349,0,.667,1.896.366,1.896,1.65,0,.645-.503,1.181-1.399,1.181Z"/><path class="cls-7" d="m450.383,362.54h1.104l1.076,2.655,1.066-2.655h1.098v3.836h-.934v-2.301l-.858,2.301h-.754l-.863-2.306v2.306h-.935v-3.836Z"/><path class="cls-7" d="m456.79,366.414c-.825,0-1.47-.41-1.497-1.186h.994c.028.295.213.437.476.437.273,0,.448-.137.448-.36,0-.711-1.918-.328-1.907-1.689,0-.726.595-1.131,1.399-1.131.836,0,1.398.415,1.437,1.148h-1.011c-.017-.246-.192-.394-.443-.399-.224-.006-.393.109-.393.349,0,.667,1.896.366,1.896,1.65,0,.645-.503,1.181-1.399,1.181Z"/><path class="cls-10" d="m458.07,354.289c1.01-.066,1.894.115,2.735.497,1.378.625,2.486,1.575,3.314,2.84.526.802.849,1.682.903,2.646.013.24-.006.491-.062.725-.065.273-.358.437-.649.419-.284-.017-.524-.219-.585-.495-.015-.069-.032-.14-.028-.209.055-.862-.211-1.636-.678-2.339-.801-1.205-1.872-2.083-3.246-2.566-.613-.215-1.244-.279-1.889-.147-.3.061-.577.022-.767-.252-.286-.413-.046-.948.467-1.044.188-.035.378-.059.485-.075Z"/><path class="cls-10" d="m457.796,357.437c-.036-.427.315-.759.759-.717,1.923.178,3.521,1.551,3.996,3.434.088.35-.1.704-.43.809-.349.112-.698-.053-.829-.4-.084-.221-.133-.458-.237-.668-.515-1.033-1.334-1.663-2.49-1.829-.115-.017-.232-.032-.341-.07-.25-.085-.406-.298-.428-.559Z"/></g><path class="cls-10" d="m599.987,36.234c-.018-.024-.031-.05-.051-.07-.805-.807-1.61-1.614-2.416-2.42-.402-.402-1.047-.349-1.365.112-.242.352-.197.823.11,1.131.813.814,1.626,1.628,2.438,2.441.219.219.437.437.655.656.369.369.912.37,1.281.001.863-.863,1.725-1.727,2.588-2.591.17-.17.341-.338.508-.51.244-.252.324-.553.221-.887-.101-.332-.334-.538-.675-.606-.297-.059-.563.021-.78.232-.312.304-.617.615-.925.924-.512.512-1.023,1.025-1.535,1.537-.013.013-.027.025-.054.05Z"/><path class="cls-10" d="m378.987,36.234c-.017-.024-.031-.05-.051-.07-.805-.807-1.61-1.614-2.416-2.42-.402-.402-1.047-.349-1.365.112-.242.352-.197.823.11,1.131.813.814,1.626,1.628,2.439,2.441.218.219.436.437.654.656.369.369.912.37,1.281.001.863-.863,1.725-1.727,2.588-2.591.17-.17.342-.338.509-.51.243-.252.323-.553.22-.887-.101-.332-.334-.538-.675-.606-.297-.059-.563.021-.779.232-.312.304-.618.615-.926.924-.512.512-1.023,1.025-1.535,1.537-.013.013-.026.025-.054.05Z"/></svg>