<?xml version="1.0" encoding="UTF-8"?><svg id="Layer_1" xmlns="http://www.w3.org/2000/svg" viewBox="0 0 226.348 281.5977"><defs><style>.cls-1{fill:#4a9cd5;}.cls-2{fill:none;stroke:#fff;stroke-width:22px;}</style></defs><path class="cls-1" d="m175.238,190.6167c-3.6943-1.8279-7.045-3.3536-10.2717-5.1073-9.2325-5.0178-18.7701-4.3888-26.9122,2.3328-1.776,1.4661-2.9404,3.9442-3.8033,6.181-1.3357,3.4624-2.1545,7.1227-3.22,10.6909-1.4193,4.7531-4.6015,7.22-9.59,7.2414-5.4405.0233-10.8821.0652-16.3216-.0114-5.3202-.0749-8.2157-2.275-9.8804-7.4702-1.1836-3.6937-1.7203-7.6931-3.4741-11.0749-1.455-2.8056-4.2636-4.9106-6.4821-7.3171-.094-.1019-.299-.0918-.4274-.1733-9.5529-6.0601-18.408-4.885-27.4625,1.6347-5.5814,4.019-9.6411,2.9848-14.5308-1.8238-3.4349-3.378-6.8677-6.7607-10.2114-10.2281-3.8532-3.9957-4.3208-7.6954-1.7851-12.7089.2103-.4158.3781-.8715.6668-1.2265,7.1158-8.7489,7.6799-17.9902,1.504-27.3238-1.8352-2.7735-4.5346-5.3664-7.4363-6.9388-3.1952-1.7315-7.0997-2.1265-10.6586-3.2223-5.5275-1.7019-7.8069-4.7712-7.8836-10.63-.0671-5.1271-.0859-10.2572.0119-15.3833.1-5.2402,2.517-8.3985,7.4445-10.037.5883-.1956,1.2085-.293,1.805-.4665,18.2124-5.2965,13.5585-2.9482,20.3732-18.8735,1.1097-2.5931.5551-6.3891-.3895-9.246-1.1977-3.6221-3.644-6.8195-5.4371-10.2598-2.5922-4.9733-2.0725-8.7067,1.7927-12.6953,3.5685-3.6825,7.199-7.3074,10.8793-10.8783,3.9011-3.7852,7.9694-4.3679,12.7485-1.9746.5551.278,1.0793.6167,1.6233.9175,13.286,7.3464,13.3758,7.5426,27.3166,1.1847,2.7373-1.2484,5.0811-4.3564,6.5357-7.1616,1.7536-3.3817,2.2956-7.3777,3.4873-11.0674C96.9317,2.2902,99.7986.1172,105.1354.0403c5.4395-.0783,10.881-.0185,16.3216-.0176,4.7853.0008,7.8891,2.3461,9.4688,6.803.2591.7311.629,1.4602.703,2.2142,1.1064,11.2753,7.4066,17.708,18.2252,20.5914,3.6861.9824,6.8635,1.497,10.2335-.4646,3.2208-1.8748,6.4826-3.6848,9.781-5.4196,4.8369-2.544,8.8674-2.0301,12.7549,1.7093,3.8074,3.6624,7.5513,7.3953,11.2158,11.2004,3.6723,3.8132,4.1362,7.5486,1.7584,12.3329-.2763.5559-.595,1.0907-.8916,1.6366-7.1799,13.216-7.3776,13.3024-1.2504,27.3278,1.2065,2.7618,4.2605,5.2089,7.0555,6.6588,3.3755,1.7511,7.4042,2.2161,11.1114,3.3629,5.0401,1.5592,7.5089,4.6785,7.6362,9.8757.1331,5.4355.0938,10.8775.0179,16.3151-.0688,4.9314-2.5904,8.2042-7.237,9.7241-3.3919,1.1095-6.8229,2.1379-10.2949,2.9543-4.4839,1.0544-6.7176,3.9841-8.958,7.9198-5.4368,9.5506-4.3708,17.9008,1.7954,26.7026,4.3397,6.1947,3.3298,9.8066-2.0452,15.2116-3.2875,3.3059-6.4327,6.7822-9.9652,9.8041-2.0056,1.7156-4.6636,2.6691-7.3337,4.1336ZM112.5118,48.1828c-32.1978.4853-57.6577,26.7294-57.1734,58.9344.4739,31.5126,26.9738,57.1998,58.4937,56.6997,32.2021-.5109,57.6525-26.7555,57.17-58.9539-.4723-31.5143-26.9326-57.1558-58.4902-56.6802Z"/><g><g><path class="cls-2" d="m129.3037,145.4598c8.9579,22.4907,31.1221,38.2288,52.3482,36.9496,0-2.6149-.169-5.2996.033-7.956.5205-6.8467,6.3966-9.9552,12.031-6.0899,9.8607,6.7646,19.5663,13.7641,29.1749,20.8837,4.5643,3.382,4.6335,8.7451.0636,12.1662-9.5735,7.1668-19.2672,14.1897-29.1542,20.9148-5.9061,4.0173-11.8644.6853-12.1756-6.4171-.1111-2.5349-.0178-5.0788-.0178-7.0424-8.8704-2.0137-17.416-3.1403-25.3886-5.9142-25.1046-8.7346-42.065-26.0255-50.9353-51.0772-1.0911-3.0815-2.7436-4.4919-5.7351-5.5507-20.5045-7.2573-29.7831-26.9511-27.4414-43.2648,3.1441-21.9033,18.7417-36.1094,38.8506-36.7707,20.949-.6889,37.9571,12.3785,42.5076,32.6589,3.8357,17.0949-4.6599,35.6881-20.3125,44.4419-1.1744.6567-2.3703,1.275-3.8484,2.0679Zm-16.0529-54.5855c-9.3268-.0532-16.9117,7.5769-16.84,16.9403.064,8.3549,7.6514,15.9166,16.1441,16.0894,9.3281.1897,16.9606-7.3385,16.9928-16.7606.0302-8.8439-7.3565-16.2181-16.2968-16.269Z"/><path class="cls-2" d="m102.0693,182.68c-15.4118,15.8183-34.5169,23.9893-57.4194,25.0171,0,2.9769.1345,5.6537-.026,8.3126-.4288,7.1038-6.4449,10.3188-12.2502,6.3077-9.6939-6.6978-19.2707-13.5753-28.7095-20.628-4.9932-3.7309-4.8414-9.1406.1994-12.8425,9.3637-6.8765,18.7465-13.7443,28.4134-20.1768,2.0807-1.3845,6.0462-2.0612,7.9775-.9803,2.1643,1.2113,3.4293,4.6556,4.2847,7.3797.6746,2.1485.1356,4.6781.1356,7.5385,9.3837.4863,17.7576-1.9529,25.1537-6.4345,7.201-4.3634,13.566-10.1066,20.4651-15.3715,3.6016,6.6914,7.5975,14.1153,11.7757,21.8779Z"/><path class="cls-2" d="m100.6103,236.9944c0-9.1757.1569-17.5414-.0714-25.8966-.1021-3.7343.6955-6.4255,4.0491-8.5984,3.1098-2.0149,5.6996-4.8323,8.525-7.302,3.204,2.7218,6.5633,5.1433,9.3438,8.1076,1.5486,1.651,2.9301,4.1757,3.0131,6.3589.3362,8.8475.1397,17.7153.1397,27.3416,3.1094,0,5.7796-.1004,8.4397.0197,6.6857.3021,9.9796,6.4414,6.1605,11.9816-6.6833,9.6952-13.5798,19.2486-20.5878,28.7126-3.7565,5.073-9.1448,5.1894-12.8248.2291-7.1181-9.5945-14.0967-19.3003-20.8571-29.1493-3.7867-5.5167-.3927-11.5157,6.3738-11.7884,2.5224-.1017,5.0524-.0164,8.2964-.0164Z"/></g><g><path class="cls-1" d="m129.3037,145.4598c8.9579,22.4907,31.1221,38.2288,52.3482,36.9496,0-2.6149-.169-5.2996.033-7.956.5205-6.8467,6.3966-9.9552,12.031-6.0899,9.8607,6.7646,19.5663,13.7641,29.1749,20.8837,4.5643,3.382,4.6335,8.7451.0636,12.1662-9.5735,7.1668-19.2672,14.1897-29.1542,20.9148-5.9061,4.0173-11.8644.6853-12.1756-6.4171-.1111-2.5349-.0178-5.0788-.0178-7.0424-8.8704-2.0137-17.416-3.1403-25.3886-5.9142-25.1046-8.7346-42.065-26.0255-50.9353-51.0772-1.0911-3.0815-2.7436-4.4919-5.7351-5.5507-20.5045-7.2573-29.7831-26.9511-27.4414-43.2648,3.1441-21.9033,18.7417-36.1094,38.8506-36.7707,20.949-.6889,37.9571,12.3785,42.5076,32.6589,3.8357,17.0949-4.6599,35.6881-20.3125,44.4419-1.1744.6567-2.3703,1.275-3.8484,2.0679Zm-16.0529-54.5855c-9.3268-.0532-16.9117,7.5769-16.84,16.9403.064,8.3549,7.6514,15.9166,16.1441,16.0894,9.3281.1897,16.9606-7.3385,16.9928-16.7606.0302-8.8439-7.3565-16.2181-16.2968-16.269Z"/><path class="cls-1" d="m102.0693,182.68c-15.4118,15.8183-34.5169,23.9893-57.4194,25.0171,0,2.9769.1345,5.6537-.026,8.3126-.4288,7.1038-6.4449,10.3188-12.2502,6.3077-9.6939-6.6978-19.2707-13.5753-28.7095-20.628-4.9932-3.7309-4.8414-9.1406.1994-12.8425,9.3637-6.8765,18.7465-13.7443,28.4134-20.1768,2.0807-1.3845,6.0462-2.0612,7.9775-.9803,2.1643,1.2113,3.4293,4.6556,4.2847,7.3797.6746,2.1485.1356,4.6781.1356,7.5385,9.3837.4863,17.7576-1.9529,25.1537-6.4345,7.201-4.3634,13.566-10.1066,20.4651-15.3715,3.6016,6.6914,7.5975,14.1153,11.7757,21.8779Z"/><path class="cls-1" d="m100.6103,236.9944c0-9.1757.1569-17.5414-.0714-25.8966-.1021-3.7343.6955-6.4255,4.0491-8.5984,3.1098-2.0149,5.6996-4.8323,8.525-7.302,3.204,2.7218,6.5633,5.1433,9.3438,8.1076,1.5486,1.651,2.9301,4.1757,3.0131,6.3589.3362,8.8475.1397,17.7153.1397,27.3416,3.1094,0,5.7796-.1004,8.4397.0197,6.6857.3021,9.9796,6.4414,6.1605,11.9816-6.6833,9.6952-13.5798,19.2486-20.5878,28.7126-3.7565,5.073-9.1448,5.1894-12.8248.2291-7.1181-9.5945-14.0967-19.3003-20.8571-29.1493-3.7867-5.5167-.3927-11.5157,6.3738-11.7884,2.5224-.1017,5.0524-.0164,8.2964-.0164Z"/></g></g></svg>