<?xml version="1.0" encoding="UTF-8"?><svg id="Layer_1" xmlns="http://www.w3.org/2000/svg" xmlns:xlink="http://www.w3.org/1999/xlink" viewBox="0 0 289.7541 228.6875"><defs><style>.cls-1{fill:none;}.cls-2{clip-path:url(#clippath);}.cls-3{fill:#fff;}.cls-4{fill:#4a9cd5;}</style><clipPath id="clippath"><path class="cls-1" d="m129.6271,22.6528c-15.987,17.4511-25.7426,40.7049-25.7426,66.2372,0,23.34,8.1522,44.776,21.7646,61.6159l-22.9692,33.932-102.6798-1.0549V8.7335h133.9904l-4.3632,13.9193Z"/></clipPath></defs><g><g><path class="cls-3" d="m116.6523,104.553C107.1505,57.0509,137.8026,11.2009,185.4149,1.6965c47.223-9.4267,93.2695,21.3812,102.6462,68.8006,9.5147,48.1178-22.0584,94.1119-69.9933,102.9197-46.7896,8.5973-92.0819-21.7881-101.4155-68.8639Zm98.3098,46.346c34.3926-6.6137,57.6433-40.7655,51.038-74.9672-6.8391-35.4122-40.495-58.7726-75.1456-52.1581-35.8431,6.8421-58.7632,40.3102-51.9403,75.8437,6.8057,35.4441,40.4449,58.1281,76.048,51.2816Z"/><path class="cls-3" d="m135.205,154.6313c8.9892,9.022,19.3045,15.7876,31.0296,20.7126-.3794.7424-.5973,1.2946-.9183,1.7783-9.3873,14.1459-18.7209,28.328-28.2024,42.4106-6.7278,9.9927-19.0904,12.0706-28.117,4.9178-7.1677-5.6797-9.591-16.1835-4.671-23.872,9.7623-15.2557,19.9942-30.2108,30.0416-45.2839.1327-.1991.3899-.3153.8374-.6635Z"/></g><g><path class="cls-4" d="m116.6523,104.553C107.1505,57.0509,137.8026,11.2009,185.4149,1.6965c47.223-9.4267,93.2695,21.3812,102.6462,68.8006,9.5147,48.1178-22.0584,94.1119-69.9933,102.9197-46.7896,8.5973-92.0819-21.7881-101.4155-68.8639Zm98.3098,46.346c34.3926-6.6137,57.6433-40.7655,51.038-74.9672-6.8391-35.4122-40.495-58.7726-75.1456-52.1581-35.8431,6.8421-58.7632,40.3102-51.9403,75.8437,6.8057,35.4441,40.4449,58.1281,76.048,51.2816Z"/><path class="cls-4" d="m135.205,154.6313c8.9892,9.022,19.3045,15.7876,31.0296,20.7126-.3794.7424-.5973,1.2946-.9183,1.7783-9.3873,14.1459-18.7209,28.328-28.2024,42.4106-6.7278,9.9927-19.0904,12.0706-28.117,4.9178-7.1677-5.6797-9.591-16.1835-4.671-23.872,9.7623-15.2557,19.9942-30.2108,30.0416-45.2839.1327-.1991.3899-.3153.8374-.6635Z"/></g></g><path class="cls-4" d="m229.3113,107.1999h8.4776c-2.6536,5.3862-6.7264,9.6051-12.2189,12.6567-6.2886,3.5025-13.9571,5.2537-23.005,5.2537-8.7562,0-16.3184-1.4795-22.6866-4.4378-6.3682-2.9589-11.1045-7.3234-14.209-13.0945-3.1045-5.7711-4.6567-12.0528-4.6567-18.8458,0-7.4558,1.7643-14.4011,5.2935-20.8358,3.5286-6.4341,8.3582-11.2637,14.4876-14.4876,6.1294-3.2239,13.1343-4.8358,21.0149-4.8358,6.6866,0,12.63,1.3004,17.8308,3.9005,5.2002,2.6007,9.1741,6.2954,11.9204,11.0846,2.7463,4.7898,4.1194,10.0236,4.1194,15.7015,0,6.7662-2.0833,12.8825-6.2488,18.3483-5.2276,6.8992-11.9272,10.3483-20.0995,10.3483-2.2027,0-3.8607-.3843-4.9751-1.1542-1.1144-.7693-1.8576-1.8968-2.2289-3.3831-3.1312,3.0249-6.7401,4.5373-10.8259,4.5373-4.4049,0-8.0597-1.5187-10.9652-4.5572-2.9055-3.0379-4.3582-7.0777-4.3582-12.1194,0-6.2351,1.7512-11.9266,5.2537-17.0746,4.245-6.2618,9.6847-9.393,16.3184-9.393,4.7226,0,8.2121,1.8047,10.4677,5.4129l.995-4.4179h10.5075l-6.01,28.5373c-.3719,1.8047-.5572,2.972-.5572,3.5025,0,.6636.1524,1.1611.4577,1.4925.3047.3321.6698.4975,1.0945.4975,1.2736,0,2.9185-.7693,4.9353-2.3085,2.7065-2.0162,4.8955-4.7227,6.5672-8.1194,1.6716-3.3961,2.5075-6.9117,2.5075-10.5473,0-6.5274-2.3619-11.9863-7.0846-16.3781-4.7233-4.3912-11.3172-6.5871-19.7811-6.5871-7.1909,0-13.2873,1.4664-18.2886,4.398-5.0019,2.9322-8.7699,7.0584-11.3035,12.3781-2.5342,5.3203-3.801,10.8594-3.801,16.6169,0,5.5989,1.4129,10.6934,4.2388,15.2836,2.8259,4.5902,6.7923,7.9403,11.9005,10.0498,5.1076,2.1095,10.9515,3.1642,17.5323,3.1642,6.3414,0,11.7942-.8825,16.3582-2.6468,4.5634-1.7649,8.2388-4.4117,11.0249-7.9403Zm-43.0249-16.3582c0,3.37.6828,5.8507,2.0498,7.4428,1.3663,1.592,3.0578,2.3881,5.0746,2.3881,1.5124,0,2.9316-.3713,4.2587-1.1144,1.0081-.5305,2.0031-1.3663,2.9851-2.5075,1.4061-1.6182,2.62-3.9801,3.6418-7.0846,1.0211-3.1045,1.5323-5.9963,1.5323-8.6766,0-2.9981-.6965-5.2998-2.0895-6.9055-1.393-1.6051-3.1511-2.408-5.2736-2.408-2.2823,0-4.3918.8825-6.3284,2.6468-1.9372,1.7649-3.3968,4.2786-4.3781,7.5423-.982,3.2637-1.4726,6.1561-1.4726,8.6766Z"/><g class="cls-2"><path class="cls-4" d="m23.882,94.6382v-39.6866c0-5.6614,4.6059-10.2673,10.2673-10.2673h102.9235c5.6614,0,10.2673,4.6059,10.2673,10.2673v39.6866c.8372-.5754,18.9353-13.014,19.8394-13.6354l-13.2617-11.0082v-15.043c0-9.3005-7.5379-16.845-16.845-16.845h-21.5708l-25.4861-21.1554c-2.554-2.12-6.2559-2.12-8.8099,0l-25.4861,21.1554h-21.5707c-9.3052,0-16.845,7.5424-16.845,16.845v15.043l-13.2617,11.0082c.3292.2263,19.7073,13.5446,19.8394,13.6354Z"/><path class="cls-4" d="m89.5174,140.5186c-2.353,1.6172-5.4595,1.6173-7.8127,0-1.3931-.9575-77.6505-53.3683-78.7196-54.103v84.3005c0,5.4239,4.3969,9.8209,9.8209,9.8209h145.6101c5.4239,0,9.8209-4.3969,9.8209-9.8209v-84.3005c-4.3013,2.9562-74.4109,51.1417-78.7196,54.103Z"/></g></svg>