<?xml version="1.0" encoding="UTF-8"?><svg id="Layer_1" xmlns="http://www.w3.org/2000/svg" xmlns:xlink="http://www.w3.org/1999/xlink" viewBox="0 0 295.5518 287.6898"><defs><style>.cls-1{clip-path:url(#clippath);}.cls-2,.cls-3{fill:#4f9dd6;}.cls-4{clip-rule:evenodd;fill:none;}.cls-3{fill-rule:evenodd;}</style><clipPath id="clippath"><path class="cls-4" d="m77.2742,96.6891l66.3903,98.8361,72.1648-94.4598,34.2416-2.9658,41.5676,9.3111s2.4398,38.8681,1.9952,41.5676,3.6971,90.3924.9976,94.4417c-2.6995,4.0493-35.9144,20.9501-35.9144,20.9501,0,0-131.3341,24.4651-132.6839,23.2779s-79.0541-15.2675-82.1376-17.2921-32.1144-8.3221-33.5007-11.0216S0,213.1588,0,213.1588l3.658-62.8503,1.9952-45.5581,28.3257-13.2108,43.2953,5.1494Z"/></clipPath></defs><path class="cls-3" d="m146.8098,24.3111c-21.1952,0-38.3774,17.1821-38.3774,38.3773s17.1822,38.377,38.3774,38.377,38.3773-17.1818,38.3773-38.377-17.182-38.3773-38.3773-38.3773m0-24.3111c-34.6017,0-62.6917,28.0932-62.6917,62.6729,0,14.4484,5.2553,27.3684,12.9862,38.2196l49.7055,69.6273,49.7096-69.635c7.7267-10.849,12.9752-23.8013,12.9752-38.212.0011-34.5797-28.049-62.6729-62.6848-62.6729Z"/><path class="cls-3" d="m146.8098,44.8949c-9.8271,0-17.7936,7.9664-17.7936,17.7935s7.9665,17.7935,17.7936,17.7935,17.7936-7.9664,17.7936-17.7935-7.9666-17.7935-17.7936-17.7935"/><g class="cls-1"><g><path class="cls-2" d="m112.1822,206.4077c-2.0164-.9089-4.0163-1.8222-6.0009-2.7377.1943,1.5796.41,3.1459.6462,4.697,1.7732-.641,3.5585-1.2942,5.3547-1.9593Z"/><path class="cls-2" d="m236.7183,184.2861c-.4095,11.7331-3.0829,23.0842-7.8105,33.5583,2.1497.5466,4.2585,1.0592,6.33,1.5466,6.0285-13.8417,8.6305-28.791,7.8215-43.5812-4.5712,2.8057-9.3669,5.6366-14.3639,8.4763h8.0228Z"/><path class="cls-2" d="m211.3498,243.574c-8.6546,8.8945-18.814,15.788-30.1983,20.4882-4.7549,1.9627-9.6331,3.506-14.6027,4.6278,5.3394-4.8485,10.3222-11.7287,14.6512-20.6463,1.9306-3.9768,3.6466-8.2096,5.1644-12.6288-2.0175-.6652-4.0505-1.3479-6.0944-2.0439-1.4408,4.1844-3.0599,8.1625-4.8628,11.8759-7.0972,14.6189-16.2835,23.6429-25.6151,25.3565v-47.9051c.4314.0023.8552.0078,1.2834.0099-.2576-.0988-.5162-.1997-.7739-.3008-2.324.9715-4.6399,1.9276-6.9458,2.866v45.342c-3.5679-.6389-7.1175-2.3402-10.588-5.0878-5.1545-4.0801-9.8753-10.226-14.0315-18.2632-1.7391-3.3633-3.323-6.9659-4.7516-10.766-2.0358.7256-4.0567,1.4325-6.0615,2.124,1.5173,4.0625,3.2108,7.9428,5.0929,11.5827,4.0785,7.8901,8.6772,14.0503,13.567,18.4926-15.7343-3.5323-30.2649-11.2413-42.1925-22.5485-2.41.7058-4.7829,1.3776-7.1164,2.0175.6708.6871,1.3493,1.3677,2.0456,2.0384,18.7617,18.1074,43.0059,27.1193,67.2225,27.1193h.0154c.0054,0,.0104-.001.0159-.001,25.2376-.0077,50.442-9.7979,69.3948-29.2796.9532-.9791,1.8755-1.9768,2.7769-2.9856-2.3004-.6016-4.6382-1.236-7.0047-1.8957-.131.1371-.2587.2755-.3908.4116Z"/><path class="cls-2" d="m106.8274,208.367c-.2361-1.551-.4518-3.1174-.6462-4.697-2.2971-1.0593-4.5722-2.1218-6.8242-3.1887.3467,3.394.7804,6.7573,1.312,10.0734,2.0362-.7113,4.089-1.4401,6.1584-2.1877Z"/><path class="cls-2" d="m65.8787,221.3142c-5.734-11.3895-8.9838-23.9558-9.4444-37.0281h11.014c-6.0807-3.3216-11.8599-6.6301-17.2709-9.9-1.1523,16.5431,1.9637,33.3124,9.3316,48.5307,1.569-.3766,3.197-.7794,4.903-1.2196.4849-.1241.9763-.2547,1.4667-.3831Z"/><path class="cls-2" d="m62.6334,148.1229c1.4486-3.6563,3.132-7.2205,5.0615-10.6672,5.5497,1.652,16.6518,4.3676,34.4443,6.2688-1.655,7.8474-2.7605,16.0361-3.329,24.34,2.0588,1.033,4.143,2.0649,6.254,3.0933.4937-9.3292,1.6725-18.3488,3.5008-26.8108,9.7993.855,21.3466,1.4467,34.7908,1.5279v31.993h-24.1154c4.7044,2.1625,9.499,4.304,14.3651,6.4182h9.7503v4.1558c.923.3852,1.847.7705,2.7749,1.1547,1.2207.5049,2.4407,1.0044,3.6614,1.5016v-6.8121h15.414c4.5799-2.1175,9.0938-4.259,13.5317-6.4182h-28.9457v-31.993c13.4547-.0811,25.0075-.674,34.8123-1.5301,1.9504,9.0548,3.1557,18.7715,3.5718,28.8438,2.1154-1.0691,4.2089-2.1405,6.2771-3.2129-.5151-8.9669-1.6511-17.8142-3.4275-26.2532,17.8079-1.9044,28.9115-4.6235,34.4514-6.2722,2.1287,3.8078,3.9701,7.7628,5.5122,11.8352,1.8865-1.1811,3.7215-2.3556,5.5112-3.5213-4.8915-12.383-12.4532-23.9492-22.6731-33.813-18.7644-18.1074-43.0134-27.1226-67.2301-27.1226h-.0237c-25.2408.0065-50.4432,9.7968-69.3952,29.2806-8.8506,9.0965-15.5329,19.4883-20.066,30.5397,1.3131.8463,2.6824,1.7157,4.1253,2.6136.4601.2865.9285.5731,1.3957.8605Zm146.7176-31.5582c4.8143,4.6454,9.0409,9.7342,12.6457,15.1765-5.7533,1.5785-16.3309,3.9539-32.4547,5.6531-2.3512-9.2184-5.4803-17.8417-9.412-25.4431-4.0781-7.8891-8.6768-14.0514-13.567-18.4948,15.9951,3.5927,30.752,11.4916,42.7879,23.1084Zm-59.559-25.025c3.5673.6399,7.1159,2.3402,10.5852,5.0867,5.1556,4.0822,9.8775,10.2271,14.0337,18.2665,3.5321,6.832,6.4312,14.6364,8.6646,23.1193-9.4274.8057-20.4859,1.3622-33.2835,1.4435v-47.916Zm-6.4363.011v47.905c-12.7943-.0813-23.8506-.6367-33.2769-1.4435,2.0159-7.6443,4.5778-14.7528,7.6624-21.1073,7.0961-14.62,16.2818-23.6451,25.6145-25.3542Zm-61.5573,27.0271c8.6525-8.8956,18.8113-15.7891,30.1923-20.4872,4.7577-1.9638,9.6343-3.5082,14.6066-4.6289-5.3378,4.8474-10.3205,11.7287-14.6496,20.6473-3.4352,7.0768-6.2149,14.9405-8.3459,23.2851-16.0969-1.6981-26.6646-4.0658-32.4238-5.6453,3.0884-4.6619,6.6326-9.0735,10.6204-13.1711Z"/><path class="cls-2" d="m188.0175,205.4823c1.661.5708,3.312,1.1295,4.9553,1.6805.2048-1.4467.3919-2.899.5614-4.3589-1.8261.8957-3.6631,1.7881-5.5167,2.6783Z"/><path class="cls-2" d="m30.2073,249.9472c8.6497,0,19.8827-1.6937,34.0088-5.0549,22.1909-5.2788,49.1399-14.3028,77.505-25.8855-2.2245-.8968-4.4533-1.8068-6.6866-2.7299-4.8925-2.0251-9.7262-4.0801-14.491-6.1613-19.6698,7.518-38.3318,13.6266-54.5223,17.7967-18.5377,4.7738-29.5044,5.9516-35.8113,5.9516-3.1287,0-5.1099-.2898-6.3003-.574,1.4958-2.7255,8.6321-11.1195,24.4065-22.4696-2.2416-5.1591-3.5359-11.0229-4.1138-16.7209-27.8363,19.1698-40.8277,34.9425-35.8707,46.0839,2.9058,6.5312,9.9259,9.7638,21.8755,9.7638Z"/><path class="cls-2" d="m158.2551,194.4912c7.1357,2.8112,14.2098,5.4741,21.1639,7.9691,29.3332-13.789,55.6901-28.4112,75.4539-41.9237,28.5243-19.5025,39.0105-33.2214,34.0012-44.4814-2.9069-6.5323-9.9281-9.765-21.8771-9.765-8.6503,0-22.3692,2.4677-36.4954,5.8276-2.0704.4929-4.1837,1.0197-6.3355,1.5773,2.755,2.8606,8.1516,13.6288,8.6304,14.3785,16.0865-3.9198,28.3833-5.6969,34.2104-5.6969,3.1215,0,5.1006.2886,6.2892.5719-1.7732,3.2271-8.3343,11.812-32.2577,27.5276-21.7902,14.3105-51.1234,29.903-82.7833,44.0148Z"/><path class="cls-2" d="m257.5839,193.0785c-1.1435-.741-5.6267-4.0022-6.8121-4.7508-.8399,5.5059-2.6493,10.8814-4.8035,15.9899,20.0215,13.024,29.2451,22.9502,30.9545,25.8899-1.3439.3545-3.7082.741-7.6222.741-6.4819,0-17.2146-1.0615-34.6098-5.0922-25.9409-6.012-58.2691-16.7825-91.0264-30.3312-32.7574-13.5487-63.2408-28.7548-85.8345-42.8173-24.3019-15.1271-31.0717-23.5496-32.922-26.7339,1.3974-.3689,3.7633-.8024,7.8078-.8024,5.0554,0,16.2311.8638,27.9264,3.1887.5416-1.0066,5.548-11.4038,8.8809-14.5354-.3687-.0802-4.2398-.3546-4.6047-.4325-13.2836-2.8199-24.0054-4.2437-32.4113-4.2437-13.0007-.0011-20.4678,3.4039-23.3422,10.315-4.7323,11.3796,6.0868,24.8383,35.0815,43.6383,23.8166,15.4454,56.9356,32.2247,93.2536,47.2453,36.3198,15.0218,71.6241,26.5431,99.4108,32.441,13.2841,2.8199,24.0048,4.2436,32.4107,4.2436,13.0012,0,20.4705-3.404,23.3432-10.3138,4.7329-11.3786-6.0868-24.8372-35.0809-43.6394Z"/></g></g></svg>