<?xml version="1.0" encoding="UTF-8"?><svg id="Layer_1" xmlns="http://www.w3.org/2000/svg" viewBox="0 0 284.4594 284.4594"><defs><style>.cls-1{fill:#4a9cd5;}</style></defs><g><polygon class="cls-1" points="209.4454 80.4325 203.5481 74.5353 222.6788 55.4047 262.6313 55.4047 262.6313 63.7443 226.1328 63.7443 209.4454 80.4325"/><path class="cls-1" d="m271.1333,72.9006c-7.3479,0-13.3261-5.9783-13.3261-13.3261s5.9783-13.3261,13.3261-13.3261,13.3261,5.9783,13.3261,13.3261-5.9783,13.3261-13.3261,13.3261Zm0-18.3126c-2.7495,0-4.9865,2.2369-4.9865,4.9865s2.2369,4.9865,4.9865,4.9865,4.9865-2.2369,4.9865-4.9865-2.2369-4.9865-4.9865-4.9865Z"/><polygon class="cls-1" points="75.014 80.4325 58.3266 63.7443 21.8281 63.7443 21.8281 55.4047 61.7806 55.4047 80.9113 74.5353 75.014 80.4325"/><path class="cls-1" d="m13.3261,72.9006c-7.3479,0-13.3261-5.9783-13.3261-13.3261s5.9783-13.3261,13.3261-13.3261,13.3261,5.9783,13.3261,13.3261-5.9783,13.3261-13.3261,13.3261Zm0-18.3126c-2.7495,0-4.9865,2.2369-4.9865,4.9865s2.2369,4.9865,4.9865,4.9865,4.9865-2.2369,4.9865-4.9865-2.2369-4.9865-4.9865-4.9865Z"/><polygon class="cls-1" points="262.6313 229.0547 222.6788 229.0547 203.5481 209.9246 209.4454 204.0273 226.1328 220.7151 262.6313 220.7151 262.6313 229.0547"/><path class="cls-1" d="m271.1333,238.211c-7.3479,0-13.3261-5.9783-13.3261-13.3261s5.9783-13.3261,13.3261-13.3261,13.3261,5.9783,13.3261,13.3261-5.9783,13.3261-13.3261,13.3261Zm0-18.3126c-2.7495,0-4.9865,2.2369-4.9865,4.9865s2.2369,4.9865,4.9865,4.9865,4.9865-2.2369,4.9865-4.9865-2.2369-4.9865-4.9865-4.9865Z"/><polygon class="cls-1" points="61.7806 229.0547 21.8281 229.0547 21.8281 220.7151 58.3266 220.7151 75.014 204.0273 80.9113 209.9246 61.7806 229.0547"/><path class="cls-1" d="m13.3261,238.211c-7.3479,0-13.3261-5.9783-13.3261-13.3261s5.9783-13.3261,13.3261-13.3261,13.3261,5.9783,13.3261,13.3261-5.9783,13.3261-13.3261,13.3261Zm0-18.3126c-2.7495,0-4.9865,2.2369-4.9865,4.9865s2.2369,4.9865,4.9865,4.9865,4.9865-2.2369,4.9865-4.9865-2.2369-4.9865-4.9865-4.9865Z"/><path class="cls-1" d="m271.1333,155.556c-7.3479,0-13.3261-5.9783-13.3261-13.3265s5.9783-13.326,13.3261-13.326,13.3261,5.9783,13.3261,13.326-5.9783,13.3265-13.3261,13.3265Zm0-18.313c-2.7495,0-4.9865,2.2369-4.9865,4.9865s2.2369,4.9869,4.9865,4.9869,4.9865-2.2369,4.9865-4.9869-2.2369-4.9865-4.9865-4.9865Z"/><rect class="cls-1" x="233.2028" y="138.0597" width="28.7743" height="8.3396"/><path class="cls-1" d="m142.2295,26.6526c-7.3478,0-13.326-5.9783-13.326-13.326s5.9783-13.3266,13.326-13.3266,13.3261,5.9783,13.3261,13.3266-5.9783,13.326-13.3261,13.326Zm0-18.313c-2.7495,0-4.9865,2.2369-4.9865,4.9869s2.2369,4.9865,4.9865,4.9865,4.9865-2.2369,4.9865-4.9865-2.237-4.9869-4.9865-4.9869Z"/><rect class="cls-1" x="138.0597" y="22.4829" width="8.3396" height="28.7742"/><path class="cls-1" d="m13.3261,155.556c-7.3479,0-13.3261-5.9783-13.3261-13.326s5.9783-13.3261,13.3261-13.3261,13.3261,5.9783,13.3261,13.3261-5.9783,13.326-13.3261,13.326Zm0-18.3126c-2.7495,0-4.9865,2.237-4.9865,4.9865s2.2369,4.9865,4.9865,4.9865,4.9865-2.2369,4.9865-4.9865-2.2369-4.9865-4.9865-4.9865Z"/><rect class="cls-1" x="22.4824" y="138.0601" width="28.7743" height="8.3396"/><path class="cls-1" d="m142.2299,284.4594c-7.3479,0-13.3261-5.9783-13.3261-13.3261s5.9783-13.3261,13.3261-13.3261,13.326,5.9783,13.326,13.3261-5.9783,13.3261-13.326,13.3261Zm0-18.3126c-2.7495,0-4.9865,2.2369-4.9865,4.9865s2.237,4.9865,4.9865,4.9865,4.9865-2.2369,4.9865-4.9865-2.2369-4.9865-4.9865-4.9865Z"/><rect class="cls-1" x="138.0601" y="233.2028" width="8.3396" height="28.7743"/></g><g><ellipse class="cls-1" cx="142.2297" cy="102.8448" rx="62.6819" ry="17.1155"/><path class="cls-1" d="m187.8893,119.8432c-12.2623,3.3481-28.478,5.1921-45.6597,5.1921s-33.3975-1.844-45.6597-5.1921c-7.6558-2.0905-13.3367-4.6495-17.0221-7.6526v17.1019c0,9.4527,28.0636,17.1156,62.6819,17.1156s62.6819-7.663,62.6819-17.1156v-17.1021c-3.6854,3.0032-9.3664,5.5624-17.0223,7.6528Zm-59.6173,20.2328c-2.0209,0-3.659-1.6382-3.659-3.659s1.6382-3.659,3.659-3.659,3.659,1.6382,3.659,3.659-1.6382,3.659-3.659,3.659Zm13.9577,0c-2.0208,0-3.659-1.6382-3.659-3.659s1.6382-3.659,3.659-3.659,3.659,1.6382,3.659,3.659-1.6382,3.659-3.659,3.659Zm13.9577,0c-2.0208,0-3.659-1.6382-3.659-3.659s1.6382-3.659,3.659-3.659,3.659,1.6382,3.659,3.659-1.6382,3.659-3.659,3.659Z"/><path class="cls-1" d="m187.8893,146.0043c-12.2623,3.3481-28.478,5.192-45.6597,5.192s-33.3975-1.8439-45.6597-5.192c-7.6558-2.0905-13.3367-4.6495-17.0221-7.6527v17.1019c0,9.4527,28.0636,17.1156,62.6819,17.1156s62.6819-7.6629,62.6819-17.1156v-17.1021c-3.6854,3.0032-9.3664,5.5624-17.0223,7.6529Zm-59.6173,19.8281c-2.0209,0-3.659-1.6382-3.659-3.659s1.6382-3.659,3.659-3.659,3.659,1.6382,3.659,3.659-1.6382,3.659-3.659,3.659Zm13.9577,0c-2.0208,0-3.659-1.6382-3.659-3.659s1.6382-3.659,3.659-3.659,3.659,1.6382,3.659,3.659-1.6382,3.659-3.659,3.659Zm13.9577,0c-2.0208,0-3.659-1.6382-3.659-3.659s1.6382-3.659,3.659-3.659,3.659,1.6382,3.659,3.659-1.6382,3.659-3.659,3.659Z"/><path class="cls-1" d="m187.8893,172.1653c-12.2623,3.3481-28.478,5.1921-45.6597,5.1921s-33.3975-1.844-45.6597-5.1921c-7.6558-2.0905-13.3367-4.6495-17.0221-7.6526v17.1019c0,9.4527,28.0636,17.1156,62.6819,17.1156s62.6819-7.663,62.6819-17.1156v-17.1021c-3.6854,3.0032-9.3664,5.5624-17.0223,7.6528Zm-59.6173,19.4235c-2.0209,0-3.659-1.6382-3.659-3.659s1.6382-3.659,3.659-3.659,3.659,1.6382,3.659,3.659-1.6382,3.659-3.659,3.659Zm13.9577,0c-2.0208,0-3.659-1.6382-3.659-3.659s1.6382-3.659,3.659-3.659,3.659,1.6382,3.659,3.659-1.6382,3.659-3.659,3.659Zm13.9577,0c-2.0208,0-3.659-1.6382-3.659-3.659s1.6382-3.659,3.659-3.659,3.659,1.6382,3.659,3.659-1.6382,3.659-3.659,3.659Z"/></g><polygon class="cls-1" points="153.7913 49.624 142.2299 61.1853 130.6686 49.624 153.7913 49.624"/><polygon class="cls-1" points="84.9229 68.5723 84.9229 84.9226 68.5726 84.9226 84.9229 68.5723"/><polygon class="cls-1" points="49.624 130.6681 61.1853 142.2295 49.624 153.7908 49.624 130.6681"/><polygon class="cls-1" points="68.5723 199.5365 84.9225 199.5365 84.9225 215.8868 68.5723 199.5365"/><polygon class="cls-1" points="130.6681 234.8354 142.2295 223.2741 153.7908 234.8354 130.6681 234.8354"/><polygon class="cls-1" points="199.5365 215.8871 199.5365 199.5368 215.8868 199.5368 199.5365 215.8871"/><polygon class="cls-1" points="234.8354 153.7913 223.2741 142.2299 234.8354 130.6686 234.8354 153.7913"/><polygon class="cls-1" points="215.8871 84.9229 199.5368 84.9229 199.5368 68.5726 215.8871 84.9229"/></svg>