<?xml version="1.0" encoding="UTF-8"?><svg id="Layer_1" xmlns="http://www.w3.org/2000/svg" viewBox="0 0 239.833 285.355"><defs><style>.cls-1{fill:none;stroke:#fff;stroke-width:7px;}.cls-2,.cls-3{fill:#4a9cd5;}.cls-4{fill:#4f9dd6;}.cls-3{fill-rule:evenodd;}</style></defs><path class="cls-2" d="m120.6189,230.1901c-9.7883,5.6827-20.8926,10.6967-33.6635,14.7378V39.746c5.7757,2.8002,25.0148,11.9313,35.5434,16.7736l10.2523-6.7774c-5.6863-2.4962-6.993-3.0868-12.1321-5.4293v-20.9892l-7.3779,3.6871c-.1824.093-5.7077,2.8467-14.5519,7.0667-5.9867,2.8575-13.4862,6.3837-21.9298,10.2353-21.2717,9.6989-48.3835,21.3969-71.5649,29.2826l-2.8253.9584-.5471,2.9326c-.2361,1.2589-19.7876,113.579,74.9373,164.3587v16.6369l6.4731-1.8096c5.4073-1.5163,10.5393-3.2043,15.4567-5.0175,7.9143-2.9218,15.2135-6.2084,21.9297-9.8097,11.7231-6.2835,21.683-13.5148,30.1588-21.3576h-15.6641c-4.4632,3.4046-9.2626,6.6626-14.4947,9.7025Z"/><path class="cls-3" d="m125.4521,140.3979l-12.0082,2.1925c-.6577-4.3413-.7553-8.7989-.2474-13.2744l.0191-.1714.025-.2067.0212-.1824.025-.1964.026-.191c.7347-5.5958,2.4092-11.1324,5.0726-16.3659l.0179-.0356.1636-.3168.0198-.0367c2.7312-5.2868,6.308-9.93,10.4977-13.8243l.1687-.1567.0856-.0791.0828-.0763.1697-.1546.0291-.025c.787-.7101,1.5872-1.3956,2.4075-2.0485l-2.0495-2.4133-7.8976-9.2983c4.0993-3.3118,8.572-6.1139,13.3082-8.3585,12.6215-5.9774,27.1237-7.9858,41.4754-5.0629l.0174.0027.4689.0969.0455.0092.0386.0089c7.7597,1.632,14.9748,4.6044,21.4249,8.6446l.2132.1334.0168.0093.6381.4096c7.412,4.7913,13.6543,10.9404,18.5065,17.9846l.1379.2026.1397.2029.0972.1423.0404.0616.1375.204.1369.2054.1136.1718.0219.0332.1348.2063.1335.206.131.2033.0024.0024c1.2413,1.9345,2.3894,3.9365,3.4256,5.9928l-.0082.0037c.2361.4699.4671.9445.6916,1.4185l-11.0196,5.2198c-.8911-1.8819-1.8903-3.7113-2.9947-5.4822l-.0243-.0407-.2095-.3324-.1006-.1571-.0051-.0086-.1065-.1643-.1061-.1642-.1078-.1647-.015-.0239-.0928-.1406-.1084-.1632-.1102-.1623-.036-.0551-.0739-.1089-.1105-.1621-.1109-.1609-.1108-.1608-.1123-.1612-.1123-.1612c-.9427-1.3381-1.9472-2.6343-3.0008-3.8738-3.2353-3.8096-6.9989-7.1731-11.1862-9.9714l-.4147-.2762-.1109-.0715-.4326-.2772c-2.9128-1.8531-6.0431-3.4457-9.3724-4.7458l.0045-.012c-.9811-.3823-1.9766-.7379-2.9858-1.0647l-.0039.0103c-1.5064-.4891-3.0173-.9092-4.5343-1.2607l-.0191-.0034-.3905-.0893-.2392-.0517-.2169-.0472-.2177-.0455c-1.667-.3464-3.3625-.617-5.0887-.8076l.001-.0116c-8.6183-.9623-17.1844.1923-25.0327,3.1586l1.1183,2.9658,4.3058,11.4115c-.9825.3712-1.9486.7816-2.8988,1.2315-2.5662,1.2159-5.0021,2.7155-7.2532,4.4714l-.0047-.0052c-.8265.6458-1.6286,1.3268-2.4071,2.0468l.0006.0021-.054.0479-.1335.1239-.0209.0212-.2063.1958-.0345.0311-.1307.1252-.0408.039-.0899.0873-.114.1108-.0157.0164-.1298.127-.0567.0554-.0712.0722-.1283.1291-.0021.0011-.1266.1283c-1.5252,1.5605-2.9434,3.2654-4.2286,5.1252-.7947,1.1501-1.5194,2.3271-2.1738,3.5272l-.0267.0509-.113.2087-.0273.0528-.1096.208-.0276.0541-.1085.2087-.0276.0541-.1065.2091-.0278.0541-.1039.2104-.0278.0541-.1026.2125c-.6051,1.2464-1.1464,2.5406-1.6224,3.8736-.7474,2.0926-1.3053,4.2058-1.6776,6.3227l-.0017.0147-.0465.2662-.0028.0222-.0438.2591-.0041.0304-.039.2501-.0058.0401-.0356.2413-.0072.0478-.0328.2341-.0082.0561-.0297.2249-.0097.064-.0256.2179-.0014-.0006c-.4236,3.3965-.377,6.7908.0901,10.0911Z"/><path class="cls-3" d="m187.1648,165.7605l7.7904,9.3984c-3.4638,2.6987-7.3031,4.9662-11.4545,6.7142l-.1591.0671-.1923.0793-.1694.0709-.1835.0746-.1793.0705c-5.2396,2.0988-10.8871,3.3489-16.755,3.5884l-.0401.0021-.3563.0123-.0416.0007c-5.9474.2063-11.7475-.64-17.1944-2.387l-.2194-.0705-.1106-.0359-.1071-.0346-.218-.0722-.0362-.0133c-1.0044-.3389-1.9938-.7009-2.9646-1.0968l-1.1012,2.9686-4.242,11.4391c-4.8953-1.9537-9.5282-4.4823-13.8045-7.5137-11.3908-8.0802-20.2418-19.7435-24.7189-33.6896l-.0058-.0168-.1455-.4559-.0136-.0444-.0112-.0384c-2.3757-7.5652-3.3157-15.3122-2.9499-22.9147l.012-.2516-.0004-.0192.0452-.7569c.5497-8.8088,2.8559-17.2625,6.6235-24.9424l.1088-.2194.1089-.221.0767-.1546.0338-.0651.1106-.2201.1119-.22.0944-.1831.0182-.0353.114-.2186.1138-.2173.1134-.2139.001-.0034c1.0794-2.0293,2.2631-4.0103,3.5491-5.9206l.0072.0054c.2943-.4359.5951-.8699.8983-1.2977l9.9464,7.0541c-1.2046,1.6987-2.311,3.4655-3.3147,5.2957l-.0235.0407-.1872.3456-.0879.1643-.0048.0088-.091.1732-.0914.1731-.0907.1746-.0134.0246-.0776.1498-.0893.1746-.0873.1755-.0304.0582-.0586.1177-.0875.1755-.086.1757-.0858.1752-.086.1772-.0855.177c-.7054,1.4766-1.3439,2.9874-1.9093,4.5127-1.7381,4.6866-2.8291,9.6151-3.2191,14.6364l-.0377.4969-.0082.1317-.0302.5131c-.1899,3.4474-.0461,6.9567.4497,10.4963l-.0123.0021c.1468,1.0423.324,2.0847.5331,3.1247l.011-.0017c.3107,1.5532.684,3.0764,1.1201,4.5716l.0065.0181.1136.3843.0718.2337.0651.2122.0666.2121c.514,1.6235,1.1081,3.2346,1.7867,4.8331l-.0103.0048c3.3793,7.9865,8.5799,14.8912,15.0087,20.2832l2.0389-2.4273,7.8435-9.3411c.8045.6752,1.6357,1.3169,2.493,1.925,2.3168,1.6429,4.817,3.0327,7.4499,4.1364l-.0021.0068c.9675.4045,1.9544.7703,2.9633,1.0971l.0013-.0017.0685.0237.1735.0558.0284.0078.2718.0841.0445.0147.1728.0528.0541.0164.1205.0359.1522.0449.022.0058.1741.0506.0763.0226.0975.0268.1757.0489.0021.0013.1735.0476c2.1076.5661,4.2885.9681,6.54,1.1786,1.3917.1297,2.7729.1858,4.1396.1687l.0576-.0017.2375-.0034.0592-.0021.2352-.0062.0608-.0024.2348-.0078.0608-.0024.2348-.0093.0606-.0024.234-.0123.061-.0023.2354-.0144c1.3833-.0826,2.777-.2441,4.1722-.4816,2.1905-.3727,4.3064-.9205,6.335-1.6323l.0134-.0054.255-.0901.0211-.0086.2468-.0886.0287-.0113.2375-.0886.0377-.0144.2279-.0869.0452-.0174.2204-.0856.0526-.0202.2109-.0843.0601-.0232.2029-.0843v.0014c3.1693-1.293,6.1065-2.9954,8.7559-5.0185Z"/><path class="cls-3" d="m177.1017,98.7449l3.7507-11.6164c4.1355,1.4749,8.1091,3.4981,11.8114,6.0633l.142.0979.1701.1198.1505.105.1615.1151.1557.1132c4.5822,3.2952,8.6675,7.3897,12.0178,12.2125l.0229.0328.2019.294.0229.0349c3.365,4.9077,5.7629,10.2558,7.2115,15.7893l.0581.2227.0291.1126.0281.1091.0561.2229.0082.0375c.2532,1.0294.4784,2.0585.6652,3.0902l3.0957-.6639,11.9284-2.5577c.9784,5.1787,1.3301,10.4446,1.0666,15.6795-.7062,13.9472-5.7991,27.6736-15.1647,38.934l-.0106.014-.307.3672-.0301.0353-.0261.0301c-5.1092,6.064-11.142,11.0137-17.7531,14.7843l-.2188.1248-.0161.0103-.6629.3682c-7.7281,4.2627-16.0986,6.8524-24.6005,7.7939l-.2436.0257-.2447.027-.1714.0181-.0733.0065-.245.0246-.2457.0233-.2054.0188-.0394.0037-.2458.0212-.2442.0202-.2413.0192-.0034.001c-2.2915.1779-4.5983.2423-6.9.1817l.0004-.0088c-.5256-.0141-1.0531-.0353-1.5769-.0617l.6156-12.1775c2.0796.105,4.1644.0903,6.2471-.0445l.0472-.0021.3918-.0274.1859-.014.0103-.0007.1947-.0161.195-.0157.1962-.0171.028-.0021.168-.0151.1951-.0181.195-.0205.0654-.0054.131-.0138.1951-.0202.194-.0219.1941-.0216.1953-.0226.1955-.0226c1.6245-.1975,3.2417-.4691,4.8324-.8107,4.887-1.0479,9.6312-2.7716,14.0776-5.1366l.4393-.2348.1154-.0636.4493-.2501c3.0107-1.6892,5.8949-3.6932,8.6155-6.011l.0085.0095c.8009-.6833,1.5852-1.3921,2.3507-2.1264l-.0076-.0082c1.144-1.0958,2.2288-2.2281,3.2565-3.3982l.012-.0151.2632-.3022.1588-.1862.1444-.1687.1431-.1701c1.0941-1.3049,2.1348-2.6707,3.1193-4.1008l.0099.0062c4.9258-7.1367,7.9619-15.2298,9.0624-23.5476l-3.1421-.4182-12.0907-1.6066c.1379-1.041.2334-2.0865.2864-3.1364.1434-2.8362-.025-5.6917-.5068-8.5053l.0069-.0021c-.1776-1.0335-.3984-2.0626-.6639-3.0891h-.0024l-.0168-.0705-.0459-.1763-.0089-.0285-.0746-.2744-.0112-.0452-.0483-.1742-.0153-.0547-.0343-.1208-.0438-.1522-.0068-.022-.0507-.1742-.0219-.0763-.0298-.0968-.053-.1742v-.0024l-.0531-.1722c-.6532-2.082-1.4838-4.1383-2.5142-6.1506-.6375-1.2442-1.3312-2.4396-2.0789-3.5839l-.0326-.0476-.13-.1985-.0336-.0487-.1313-.1953-.0345-.05-.1328-.194-.0345-.05-.1339-.193-.0345-.05-.1362-.1909-.0346-.05-.1382-.191c-.8118-1.1227-1.6959-2.2124-2.645-3.2623-1.49-1.6487-3.0874-3.1398-4.7762-4.4696l-.012-.0086-.2128-.1666-.0182-.0134-.2073-.1608-.025-.0181-.2023-.1527-.0321-.0243-.1957-.1455-.0391-.0291-.1905-.1396-.0453-.0339-.1841-.1328-.052-.0383-.18-.1259.0014-.0011c-2.7918-1.9804-5.804-3.5453-8.9328-4.6955Z"/><path class="cls-3" d="m140.0196,135.0584c0-13.0927,10.6785-23.7711,23.7711-23.7711s23.7711,10.6784,23.7711,23.7711-10.6785,23.7711-23.7711,23.7711-23.7711-10.6785-23.7711-23.7711Zm31.8558-1.1628c3.8106,0,6.9183-3.1079,6.9183-6.9181s-3.1078-6.9181-6.9183-6.9181-6.9181,3.1078-6.9181,6.9181,3.1078,6.9181,6.9181,6.9181Z"/><path class="cls-2" d="m237.7233,200.6699h-8.441c-1.1668,0-2.1098.9435-2.1098,2.1103v18.6018c0,4.5748-3.8673,8.4405-8.441,8.4405h-18.9516c-1.1658,0-2.1098.9455-2.1098,2.1103v8.4405c0,1.1648.944,2.1103,2.1098,2.1103h18.9516c11.6057,0,21.1016-9.4959,21.1016-21.1016v-18.6018c0-1.1668-.944-2.1103-2.1098-2.1103Z"/><path class="cls-2" d="m218.7314,31.4674h-18.9516c-1.1658,0-2.1098.9455-2.1098,2.1103v8.4405c0,1.1641.944,2.1103,2.1098,2.1103h18.9516c4.5738,0,8.441,3.8658,8.441,8.4405v19.6361c0,1.1665.943,2.1103,2.1098,2.1103h8.441c1.1658,0,2.1098-.9437,2.1098-2.1103v-19.6361c0-11.6059-9.4959-21.1016-21.1016-21.1016Z"/><path class="cls-4" d="m161.9422.5403c4.9881.0002,9.9763-.0188,14.9643.0061,4.055.0203,7.0541,2.5656,7.7162,6.504.0802.4772.0839.9711.0841,1.4573.0041,9.8661.0063,19.7321.0006,29.5982-.0027,4.7204-3.2471,7.9932-7.9547,7.9989-9.8949.0119-19.7898.013-29.6847-.0006-4.6602-.0064-7.9194-3.2873-7.9224-7.9473-.0064-9.8932-.0059-19.7863-.0002-29.6795.0027-4.6858,3.2188-7.9167,7.9139-7.9333,4.9609-.0176,9.922-.0039,14.883-.0038Zm-16.4465,22.7258c0,4.455-.0032,8.9101.0014,13.3651.0021,2.0356,1.0902,3.1266,3.1306,3.1276,8.8501.0044,17.7003.0039,26.5504.0005,2.1012-.0008,3.1774-1.077,3.1781-3.1746.003-8.8486.0027-17.6972.0001-26.5458-.0006-2.081-1.0285-3.15-3.0858-3.1522-8.9116-.0098-17.8232-.0104-26.7348.001-1.9999.0026-3.0367,1.0848-3.0388,3.1055-.0045,4.4243-.0014,8.8486-.0014,13.273Z"/><g><path class="cls-1" d="m165.7074,21.7517c-2.2925-2.2954-4.5866-4.5892-6.8808-6.8829-.9691-.9689-2.2764-.9846-3.2541-.0226-.9909.975-1.9758,1.9564-2.9481,2.9498-.972.993-.9749,2.2682.0124,3.259,3.9039,3.9175,7.814,7.8289,11.7325,11.732.9982.9943,2.3021,1.007,3.297.0141,7.4818-7.4672,14.9558-14.9422,22.4235-22.4234.8564-.858.9266-2.0897.1071-2.9887-1.0311-1.1311-2.1175-2.2187-3.2497-3.2484-1.0044-.9134-2.1541-.8283-3.1022.1186-4.3363,4.3309-8.6687,8.6657-13.0018,12.9997-1.5954,1.5958-3.1891,3.1933-4.8417,4.8482-.1222-.1486-.1995-.2605-.2941-.3552Z"/><path class="cls-4" d="m165.7074,21.7517c-2.2925-2.2954-4.5866-4.5892-6.8808-6.8829-.9691-.9689-2.2764-.9846-3.2541-.0226-.9909.975-1.9758,1.9564-2.9481,2.9498-.972.993-.9749,2.2682.0124,3.259,3.9039,3.9175,7.814,7.8289,11.7325,11.732.9982.9943,2.3021,1.007,3.297.0141,7.4818-7.4672,14.9558-14.9422,22.4235-22.4234.8564-.858.9266-2.0897.1071-2.9887-1.0311-1.1311-2.1175-2.2187-3.2497-3.2484-1.0044-.9134-2.1541-.8283-3.1022.1186-4.3363,4.3309-8.6687,8.6657-13.0018,12.9997-1.5954,1.5958-3.1891,3.1933-4.8417,4.8482-.1222-.1486-.1995-.2605-.2941-.3552Z"/></g><path class="cls-4" d="m161.9422,239.7813c4.9881.0002,9.9763-.0188,14.9643.0061,4.055.0203,7.0541,2.5656,7.7162,6.504.0802.4772.0839.9711.0841,1.4573.0041,9.8661.0063,19.7321.0006,29.5982-.0027,4.7204-3.2471,7.9932-7.9547,7.9989-9.8949.0119-19.7898.013-29.6847-.0006-4.6602-.0064-7.9194-3.2873-7.9224-7.9473-.0064-9.8932-.0059-19.7863-.0002-29.6795.0027-4.6858,3.2188-7.9167,7.9139-7.9333,4.9609-.0176,9.922-.0039,14.883-.0038Zm-16.4465,22.7258c0,4.455-.0032,8.9101.0014,13.3651.0021,2.0356,1.0902,3.1266,3.1306,3.1276,8.8501.0044,17.7003.0039,26.5504.0005,2.1012-.0008,3.1774-1.077,3.1781-3.1746.003-8.8486.0027-17.6972.0001-26.5458-.0006-2.081-1.0285-3.15-3.0858-3.1522-8.9116-.0098-17.8232-.0104-26.7348.001-1.9999.0026-3.0367,1.0848-3.0388,3.1055-.0045,4.4243-.0014,8.8486-.0014,13.273Z"/><g><path class="cls-1" d="m165.7074,260.9928c-2.2925-2.2954-4.5866-4.5892-6.8808-6.8829-.9691-.9689-2.2764-.9846-3.2541-.0226-.9909.975-1.9758,1.9564-2.9481,2.9498-.972.993-.9749,2.2682.0124,3.259,3.9039,3.9175,7.814,7.8289,11.7325,11.732.9982.9943,2.3021,1.007,3.297.0141,7.4818-7.4672,14.9558-14.9422,22.4235-22.4234.8564-.858.9266-2.0897.1071-2.9887-1.0311-1.1311-2.1175-2.2187-3.2497-3.2484-1.0044-.9134-2.1541-.8283-3.1022.1186-4.3363,4.3309-8.6687,8.6657-13.0018,12.9997-1.5954,1.5958-3.1891,3.1933-4.8417,4.8482-.1222-.1486-.1995-.2605-.2941-.3552Z"/><path class="cls-4" d="m165.7074,260.9928c-2.2925-2.2954-4.5866-4.5892-6.8808-6.8829-.9691-.9689-2.2764-.9846-3.2541-.0226-.9909.975-1.9758,1.9564-2.9481,2.9498-.972.993-.9749,2.2682.0124,3.259,3.9039,3.9175,7.814,7.8289,11.7325,11.732.9982.9943,2.3021,1.007,3.297.0141,7.4818-7.4672,14.9558-14.9422,22.4235-22.4234.8564-.858.9266-2.0897.1071-2.9887-1.0311-1.1311-2.1175-2.2187-3.2497-3.2484-1.0044-.9134-2.1541-.8283-3.1022.1186-4.3363,4.3309-8.6687,8.6657-13.0018,12.9997-1.5954,1.5958-3.1891,3.1933-4.8417,4.8482-.1222-.1486-.1995-.2605-.2941-.3552Z"/></g></svg>