<?xml version="1.0" encoding="UTF-8"?><svg id="Layer_1" xmlns="http://www.w3.org/2000/svg" viewBox="0 0 241.878 276.0889"><defs><style>.cls-1{fill:none;stroke:#fff;stroke-width:16px;}.cls-2{fill:#fff;}.cls-3{fill:#4a9cd5;}</style></defs><path class="cls-3" d="m241.878,219.6756H0c4.0749-5.5999,5.5239-12.168,11.5355-16.2613,16.5449-11.2653,32.725-23.0655,49.1111-34.5662,1.6388-1.1502,1.8022-2.1172,1.1573-3.8794-5.0716-13.8584-10.0492-27.7513-15.0508-41.6353-.3021-.8387-.5628-1.6923-1.0661-3.2146,7.0638,4.7716,13.555,9.1564,20.0461,13.5412-8.6296-17.2067-11.6246-35.1976-9.4238-54.322,43.1897,9.063,86.1158,9.0677,129.2972.0272,1.4774,9.2883,1.0695,18.5472-.5476,27.7734-1.6146,9.212-4.6564,17.9625-8.7294,26.5258,6.501-4.3974,13.0019-8.7948,20.149-13.6292-1.3901,3.8963-2.5196,7.0914-3.6693,10.2791-4.1581,11.5294-8.2785,23.0728-12.5293,34.5679-.7008,1.8951-.4557,2.8599,1.2591,4.0621,17.2115,12.0664,34.3566,24.2276,51.4819,36.4163,1.0379.7387,1.9327,1.83,2.5778,2.9409,2.1184,3.6485,4.0908,7.3817,6.2793,11.3743ZM64.6864,91.6453c1.3345,6.1521,2.2843,11.8383,3.8524,17.3486,1.2741,4.4771,4.5821,7.236,9.2956,8.0653,2.2955.4039,4.5821.8715,6.8885,1.199,9.8917,1.4045,19.7528,3.19,29.6931,4.0511,16.8067,1.456,33.1615-2.4486,49.5847-5.1936,5.3868-.9004,9.0397-4.6691,10.1333-10.012.5178-2.53,1.0303-5.0611,1.5519-7.5903.5125-2.4852,1.0335-4.9686,1.6347-7.8562-37.6707,4.4645-74.9006,4.5123-112.6341-.0118Z"/><path class="cls-3" d="m124.2692,79.2199c-24.6722-.2612-45.8973-1.5439-66.5953-7.0969-5.7544-1.5439-11.2622-4.0658-16.7886-6.3662-1.7194-.7157-3.2611-2.0353-4.653-3.3275-4.0472-3.7573-4.0665-7.8682-.008-11.6552,4.7067-4.3917,10.6663-6.4457,16.6359-8.3394,3.8091-1.2083,7.7103-2.1529,11.6124-3.0279,1.5209-.341,2.0597-.9401,2.033-2.4867-.0806-4.6714-.0494-9.3452-.0231-14.0179.0946-16.8199,16.9227-27.6672,32.3077-20.8214,4.1904,1.8646,8.3449,3.8096,12.5309,5.6843,6.4552,2.8911,12.9322,2.8865,19.3885.01,4.1895-1.8666,8.3427-3.8148,12.5325-5.6806,15.394-6.8551,32.2353,3.9687,32.3347,20.7786.0276,4.6726.0524,9.3463-.0206,14.0179-.0237,1.5146.4962,2.0816,1.9958,2.5215,6.8673,2.0145,13.7807,3.953,20.4594,6.4927,3.0932,1.1763,5.9807,3.3485,8.4377,5.6326,3.396,3.157,3.3882,7.2447-.1175,10.2841-2.8471,2.4685-6.184,4.5671-9.6239,6.1204-10.2007,4.6062-21.1497,6.5894-32.1333,8.224-6.0999.9078-12.2493,1.5914-18.4013,2.0142-8.4026.5773-16.8289.8099-21.9039,1.0392Z"/><path class="cls-3" d="m100.765,116.9029c-9.5801.0108-17.2062-5.0298-19.7169-12.2956-.2705-.7828-.4821-1.6008-.5974-2.4199-.4658-3.3055.9861-4.8445,4.2665-4.2561,5.4126.9708,10.7942,2.115,16.187,3.1958,3.8401.7696,7.6843,1.5211,11.5132,2.3433,3.4405.7387,4.3761,2.8919,2.3751,5.8348-3.6183,5.3216-8.9015,7.4964-14.0275,7.5978Zm4.3443-7.6737c.0638-2.5141-1.8207-4.5767-4.2208-4.6196-2.3471-.042-4.4197,1.8769-4.4751,4.1431-.0587,2.3989,1.9158,4.4037,4.4017,4.4694,2.1534.0569,4.2407-1.8839,4.2942-3.9929Z"/><path class="cls-3" d="m142.4939,117.0076c-6.8369-.4501-12.2852-2.6129-15.636-8.4854-1.3193-2.3122-.412-4.4031,2.1771-4.9376,9.4499-1.9507,18.9107-3.8516,28.3861-5.6747,3.0516-.5871,4.5936,1.0369,4.2239,4.1249-.7625,6.3688-7.3259,12.9361-14.3681,14.307-1.7057.332-3.4465.4839-4.7829.6658Zm-1.3623-12.351c-2.2722.0228-4.2617,2.0578-4.232,4.3287.0289,2.2087,2.1467,4.2572,4.3842,4.2409,2.2998-.0168,4.3136-1.9943,4.3608-4.2823.0508-2.4622-1.8981-4.3136-4.513-4.2873Z"/><g><g><path class="cls-1" d="m72.1391,207.9859c6.8729-27.6517,34.6886-44.3427,62.3995-37.4435,27.4844,6.8428,44.2408,34.7907,37.3221,62.367-7.0207,27.9824-35.3624,44.5189-63.07,37.1681-27.0456-7.1751-43.507-34.7089-36.6516-62.0916Zm40.6535,49.3348c19.9537,5.1176,40.8954-7.2097,45.9695-27.0597,5.2537-20.5526-6.7823-41.4282-26.8734-46.6101-20.7825-5.3603-41.3768,6.6863-46.6695,27.2994-5.2795,20.5612,6.9174,41.0728,27.5734,46.3705Z"/><path class="cls-1" d="m69.4333,239.2803c2.516,7.0557,6.3039,13.2443,11.3039,18.8078-.3882.2996-.6427.5386-.9349.7153-8.5448,5.1671-17.0701,10.367-25.6491,15.4767-6.0874,3.6258-13.1847,1.627-16.1899-4.4439-2.3864-4.8207-1.038-11.016,3.5093-13.8701,9.0229-5.6632,18.2201-11.0487,27.3488-16.5432.1206-.0726.2866-.0698.612-.1426Z"/></g><g><path class="cls-2" d="m72.1391,207.9859c6.8729-27.6517,34.6886-44.3427,62.3995-37.4435,27.4844,6.8428,44.2408,34.7907,37.3221,62.367-7.0207,27.9824-35.3624,44.5189-63.07,37.1681-27.0456-7.1751-43.507-34.7089-36.6516-62.0916Zm40.6535,49.3348c19.9537,5.1176,40.8954-7.2097,45.9695-27.0597,5.2537-20.5526-6.7823-41.4282-26.8734-46.6101-20.7825-5.3603-41.3768,6.6863-46.6695,27.2994-5.2795,20.5612,6.9174,41.0728,27.5734,46.3705Z"/><path class="cls-2" d="m69.4333,239.2803c2.516,7.0557,6.3039,13.2443,11.3039,18.8078-.3882.2996-.6427.5386-.9349.7153-8.5448,5.1671-17.0701,10.367-25.6491,15.4767-6.0874,3.6258-13.1847,1.627-16.1899-4.4439-2.3864-4.8207-1.038-11.016,3.5093-13.8701,9.0229-5.6632,18.2201-11.0487,27.3488-16.5432.1206-.0726.2866-.0698.612-.1426Z"/></g><g><path class="cls-3" d="m72.1391,207.9859c6.8729-27.6517,34.6886-44.3427,62.3995-37.4435,27.4844,6.8428,44.2408,34.7907,37.3221,62.367-7.0207,27.9824-35.3624,44.5189-63.07,37.1681-27.0456-7.1751-43.507-34.7089-36.6516-62.0916Zm40.6535,49.3348c19.9537,5.1176,40.8954-7.2097,45.9695-27.0597,5.2537-20.5526-6.7823-41.4282-26.8734-46.6101-20.7825-5.3603-41.3768,6.6863-46.6695,27.2994-5.2795,20.5612,6.9174,41.0728,27.5734,46.3705Z"/><path class="cls-3" d="m69.4333,239.2803c2.516,7.0557,6.3039,13.2443,11.3039,18.8078-.3882.2996-.6427.5386-.9349.7153-8.5448,5.1671-17.0701,10.367-25.6491,15.4767-6.0874,3.6258-13.1847,1.627-16.1899-4.4439-2.3864-4.8207-1.038-11.016,3.5093-13.8701,9.0229-5.6632,18.2201-11.0487,27.3488-16.5432.1206-.0726.2866-.0698.612-.1426Z"/></g></g><circle class="cls-2" cx="122.0022" cy="220.4047" r="31.4251"/></svg>