<?xml version="1.0" encoding="UTF-8"?><svg id="Layer_1" xmlns="http://www.w3.org/2000/svg" viewBox="0 0 244.9915 285.5205"><defs><style>.cls-1,.cls-2,.cls-3{fill:#4a9cd5;}.cls-2{opacity:.2;}.cls-4{fill:none;stroke:#fff;stroke-width:11px;}.cls-3{opacity:.5;}</style></defs><path class="cls-1" d="m244.9915,113.1602c-.4082,1.3423-.7094,2.7291-1.2465,4.0177-1.1687,2.8039-2.9406,5.1162-5.8182,6.3922-7.2601,3.2193-14.4687,6.5611-21.7898,9.6352-25.8009,10.8338-51.6486,21.556-77.4575,32.3707-4.6376,1.9433-9.365,3.0932-14.4271,2.9087-4.1541-.1514-8.3862.3587-12.4089-.9141-3.4404-1.0885-6.7747-2.5335-10.1089-3.9329-28.9082-12.1332-57.8087-24.285-86.7019-36.4539-2.643-1.1131-5.2193-2.3844-7.8274-3.5804-7.8964-3.6211-10.0669-16.6635-2.0531-23.1417,1.9589-1.5835,4.4847-2.5262,6.8448-3.5434,14.5487-6.2703,29.0995-12.537,43.6979-18.6904,17.2803-7.2839,34.5966-14.4829,51.926-21.6495,4.5912-1.8987,9.4495-2.39,14.4157-2.5194,10.0688-.2625,18.9676,3.4624,27.7235,7.7163,3.0743,1.4936,4.1528,5.5642,2.7684,9.2017-1.2927,3.3965-4.353,5.1925-7.8562,4.3189-2.4487-.6106-4.8374-1.5095-7.1944-2.4294-3.8838-1.5157-7.7834-2.9314-11.9534-3.4372-4.9259-.5975-9.5705.3742-14.1205,2.2673-28.4465,11.8357-56.9126,23.624-85.3704,35.4324-.883.3664-1.7283.8291-2.6231,1.1607-1.4467.5362-1.8772,1.6485-1.8859,3.0484-.009,1.4459.4437,2.5243,1.9207,3.1488,11.8718,5.0191,23.6847,10.1796,35.5928,15.1106,17.7863,7.365,35.6384,14.5711,53.4567,21.8591,6.6826,2.7333,13.3567,2.7586,20.0314.0181,23.6545-9.7124,47.3139-19.4128,70.952-29.1649,5.996-2.4737,11.9259-5.1087,17.8735-7.6986,1.9125-.8328,2.3625-1.7193,2.183-3.8214-.0963-1.128-.5578-1.976-1.6306-2.4537-2.8863-1.2851-5.7756-2.5642-8.6454-3.8855-1.6598-.7643-3.3582-1.4848-4.9101-2.4358-4.1583-2.548-4.3777-8.767-.4697-11.6905.5633-.4214,1.1783-.7836,1.801-1.1136,1.5039-.797,3.001-.9575,4.6555-.2609,6.3602,2.6779,12.7365,5.3199,19.1426,7.8859,5.8817,2.356,10.4056,5.8841,11.5136,12.5756v3.7488Z"/><path class="cls-1" d="m244.9915,171.0791c-.2494.9559-.4421,1.931-.7585,2.8642-1.1516,3.3965-3.0544,6.1835-6.467,7.6835-9.325,4.0986-18.5971,8.3233-27.9885,12.2637-24.0008,10.0702-48.0921,19.9256-72.0632,30.0654-6.3612,2.6908-12.8623,2.6415-19.4906,2.502-4.5647-.0961-8.7185-1.6252-12.8353-3.35-29.6433-12.4201-59.2903-24.8314-88.9168-37.2916-3.2151-1.3522-6.2698-3.0812-9.463-4.4904-7.2343-3.1928-9.3015-14.4577-3.9106-20.6015,1.4802-1.6869,3.253-3.3601,5.2402-4.311,4.8266-2.3096,9.7693-4.4524,14.832-6.1715,5.0586-1.7177,10.1986,3.1441,9.0988,8.3712-.6336,3.0115-2.8893,4.7533-5.5601,5.9908-1.0924.5061-2.2274.9279-3.2914,1.4863-1.554.8156-2.0574,2.1902-1.8708,3.885.1431,1.2993.8564,2.0601,2.0461,2.5659,6.5052,2.7654,12.9651,5.6386,19.4907,8.3544,18.9626,7.8917,37.9429,15.7412,56.9305,23.5724,4.7265,1.9494,9.4668,3.8792,14.2738,5.6158,5.3778,1.9427,10.9718,2.1519,16.2697.0607,16.4736-6.5023,32.8776-13.1848,49.2461-19.9485,13.5255-5.589,26.9624-11.3925,40.4379-17.1023.4211-.1784.8185-.4455,1.2558-.5477,2.7385-.6403,2.6712-5.1596.5042-6.2544-1.2208-.6168-2.4763-1.1667-3.7277-1.7207-2.7306-1.2087-4.7536-3.0241-5.3878-6.0915-.8389-4.0574,3.148-10.3525,9.1935-8.3204,5.7661,1.9382,11.3286,4.3833,16.6208,7.3877,3.5429,2.0114,5.2219,5.3469,6.0293,9.2038.0759.3623.174.72.2617,1.0798v3.249Z"/><path class="cls-1" d="m244.9915,230.0211c-.33,1.1917-.5703,2.4174-1.0072,3.5685-1.1749,3.0955-3.0271,5.6316-6.1748,7.013-9.1373,4.0102-18.2216,8.1461-27.4186,12.0144-23.7623,9.9945-47.6206,19.7623-71.3373,29.863-7.016,2.9881-14.1669,3.2447-21.5318,2.9447-4.8776-.1987-9.2105-2.1142-13.5769-3.9397-29.2314-12.2212-58.4569-24.4564-87.6622-36.7399-3.2909-1.3842-6.503-2.9871-9.6455-4.685-4.6192-2.4958-7.2951-8.2758-6.4975-13.5157.7266-4.7735,3.1756-8.5566,7.3928-10.6807,5.032-2.5343,10.3082-4.6237,15.5915-6.6052,3.3381-1.2519,6.3332.1809,8.1507,3.2833,1.8495,3.1568,1.5296,6.2269-1.1601,8.7141-1.1328,1.0475-2.5886,1.7624-3.9456,2.5453-1.0029.5786-2.123.956-3.1191,1.5445-1.0844.6407-1.5409,1.6845-1.532,2.9554.0106,1.5079.5196,2.5861,2.0258,3.2234,6.3566,2.6897,12.6491,5.5329,19.0269,8.1705,22.5923,9.3433,45.2185,18.6045,67.8103,27.9489,4.2811,1.7708,8.6069,3.0027,13.3033,2.8318,4.004-.1456,7.6528-1.4572,11.2734-2.9611,28.4519-11.8177,56.9032-23.6368,85.3539-35.4574.4607-.1914.9157-.3979,1.3662-.6123,2.2268-1.0598,2.6799-4.2433.7309-5.7979-.8899-.7098-2.0509-1.0694-3.0457-1.6606-1.5916-.946-3.3852-1.7134-4.6651-2.9868-2.2203-2.2089-2.5004-4.9943-1.1633-7.8464,1.2921-2.756,3.4245-4.3881,6.5487-4.3679.9281.006,1.91.2714,2.7711.6414,4.9248,2.1162,9.8584,4.2191,14.7151,6.4848,4.271,1.9925,6.4228,5.6185,7.1999,10.1566.0411.2403.1466.4695.2221.7039v3.249Z"/><path class="cls-1" d="m172.2644,73.1545c4.3138.0185,7.7188,3.3265,7.7126,7.4931-.0063,4.2407-3.5317,7.7809-7.6893,7.7216-4.0666-.0581-7.543-3.6728-7.5061-7.805.0371-4.1601,3.3366-7.4273,7.4828-7.4096Z"/><g><g><path class="cls-4" d="m182.5093,98.1211c-.0139,4.2789.2237,8.5826-.1895,12.8228-.1385,1.4216-1.6918,3.5054-3.0101,3.8955-35.8265,10.6045-71.6645,10.3936-107.4951-.1595-2.5951-.7644-3.2939-2.04-3.2439-4.5462.151-7.568.2584-15.1431.0973-22.7095-.2972-13.9671,11.3993-23.4818,24.5979-23.3905,7.0295.0486,14.1583,2.2883,21.0322,4.2683,9.6184,2.7705,18.6239,1.7085,27.8881-1.7244,13.3695-4.9543,29.5659-3.4892,37.2556,9.571,1.7423,2.9591,2.5512,6.6712,2.9935,10.1383.4955,3.8845.0866,7.8845.0739,11.8342Z"/><path class="cls-4" d="m95.7658,33.5431c.1186-18.105,12.1381-32.2966,27.5479-33.46,18.8505-1.4232,34.6592,15.64,32.4999,35.3695-1.463,13.3671-7.4469,23.7448-20.8023,28.4764-17.6665,6.2592-36.6745-6.6651-38.9838-26.4099-.1904-1.628-.2175-3.2751-.2616-3.976Z"/></g><g><path class="cls-1" d="m182.5093,98.1211c-.0139,4.2789.2237,8.5826-.1895,12.8228-.1385,1.4216-1.6918,3.5054-3.0101,3.8955-35.8265,10.6045-71.6645,10.3936-107.4951-.1595-2.5951-.7644-3.2939-2.04-3.2439-4.5462.151-7.568.2584-15.1431.0973-22.7095-.2972-13.9671,11.3993-23.4818,24.5979-23.3905,7.0295.0486,14.1583,2.2883,21.0322,4.2683,9.6184,2.7705,18.6239,1.7085,27.8881-1.7244,13.3695-4.9543,29.5659-3.4892,37.2556,9.571,1.7423,2.9591,2.5512,6.6712,2.9935,10.1383.4955,3.8845.0866,7.8845.0739,11.8342Z"/><path class="cls-1" d="m95.7658,33.5431c.1186-18.105,12.1381-32.2966,27.5479-33.46,18.8505-1.4232,34.6592,15.64,32.4999,35.3695-1.463,13.3671-7.4469,23.7448-20.8023,28.4764-17.6665,6.2592-36.6745-6.6651-38.9838-26.4099-.1904-1.628-.2175-3.2751-.2616-3.976Z"/></g></g><path class="cls-3" d="m176.3135,138.4389c1.7423,2.9591,2.5512,6.6712,2.9935,10.1383.4955,3.8845.0866,7.8845.0739,11.8342-.0139,4.2789.2237,8.5826-.1895,12.8228-.1385,1.4216-1.6918,3.5054-3.0101,3.8955-35.8265,10.6045-71.6645,10.3936-107.4951-.1595-2.5951-.7644-3.2939-2.04-3.2439-4.5462.151-7.568.2584-15.1431.0973-22.7095v-4.1868l33.3913,9.5257,32.4327,3.402,22.907-9.7525,22.0428-10.2641Z"/><path class="cls-2" d="m176.3135,199.5778c1.7423,2.9591,2.5512,6.6712,2.9935,10.1383.4955,3.8845.0866,7.8845.0739,11.8342-.0139,4.2789.2237,8.5826-.1895,12.8228-.1385,1.4216-1.6918,3.5054-3.0101,3.8955-35.8265,10.6045-71.6645,10.3936-107.4951-.1595-2.5951-.7644-3.2939-2.04-3.2439-4.5462.151-7.568.2584-15.1431.0973-22.7095v-4.1868l33.3913,9.5257,32.4327,3.402,22.907-9.7525,22.0428-10.2641Z"/></svg>