<?xml version="1.0" encoding="UTF-8"?><svg id="Layer_1" xmlns="http://www.w3.org/2000/svg" viewBox="0 0 249.2777 285.7728"><defs><style>.cls-1{stroke-width:6px;}.cls-1,.cls-2{fill:none;stroke:#4a9cd5;stroke-miterlimit:10;}.cls-3{fill:#fff;}.cls-4,.cls-5{fill:#4a9cd5;}.cls-2{stroke-width:4px;}.cls-6{opacity:.2;}.cls-5{opacity:.3;}</style></defs><path class="cls-4" d="m203.1474,144.5165c-1.6353,7.8151-4.5449,15.1868-8.4509,22.1251-3.7997,6.7496-7.8227,13.3742-11.7883,20.0294-2.3703,3.9778-4.7892,7.9274-7.2509,11.8492-.6963,1.1094-1.6201,2.076-2.5705,3.273.298,2.8073,1.0116,5.7449,1.7206,8.6772,3.1795,13.1502,6.4483,26.2792,9.5653,39.4442,1.5785,6.6672,2.9308,13.3887,4.3242,20.0984.3769,1.8149.6782,3.6616.706,5.6985-.8.3013-1.5166.6222-2.2626.8444-7.0036,2.0858-14.1177,3.7076-21.3069,5.0014-7.9806,1.4362-16.027,2.3769-24.0975,3.1183-2.3056.2118-4.6168.3988-6.9296.4892-9.1656.3583-18.3286.8967-27.5086.42-3.0242-.1571-6.0537-.2094-9.0805-.3194-1.3247-.0481-2.6434-.1549-4.2125-.527.4083-.49.6073-.874.9225-1.0821,1.411-.9317,2.8206-1.8745,4.2935-2.7016,4.5809-2.5722,9.1917-5.091,13.7875-7.6367.8496-.4706,1.683-.9704,2.4468-1.4122,1.161-11.2972-2.2061-34.9724-5.7321-44.2867-1.6066.2158-3.2686.3998-4.917.6672-7.1266,1.1562-14.2977,1.9209-21.5001,2.354-3.6439.2191-7.2914.2132-10.9339-.297-3.6511-.5115-6.4949-2.3709-8.8422-5.047-1.6134-1.8393-2.2332-4.0531-1.546-6.4775.5087-1.7948,1.0561-3.5862,1.7269-5.3249.5187-1.3444.449-2.5864-.0496-3.8886-.3629-.9476-.8907-1.6612-1.7924-2.2171-2.1379-1.3181-2.5671-2.9557-1.4057-5.2113,1.3538-2.6293,3.5654-4.4012,6.1053-5.8003.6913-.3808,1.4122-.7078,2.3774-1.1876-.8955-.3428-1.527-.5931-2.1646-.8271-2.5167-.9235-4.9481-2.0123-7.1196-3.6164-1.3732-1.0144-2.606-2.1644-3.4787-3.6496-.9925-1.6891-.9367-2.3243.2747-3.8487.0553-.0697.1149-.1363.1759-.2011,2.124-2.2572,2.0019-4.1342-.5126-6.3918-.922-.8277-2.0035-1.4761-2.9986-2.2245-1.137-.855-2.3493-1.6358-3.3694-2.6149-2.7314-2.6214-3.2145-5.4189-1.3506-8.6864.9604-1.6837,2.2345-3.211,3.5064-4.6889,1.7418-2.0239,3.6684-3.8884,5.4173-5.9066,1.3975-1.6126,2.7184-3.3029,3.9481-5.047,2.1112-2.9943,3.1586-6.3193,3.0364-10.037-.1536-4.6724-.8016-9.233-2.7436-13.5166-.6316-1.393-.6602-2.7666-.3985-4.169.326-1.7474.3957-2.2998.8898-4.0069,1.2106-4.1833-.2113-1.8801,1.8179-5.7096l139.2718,34.4696Z"/><path class="cls-5" d="m195.0125,4.3537c3.1498-.9677,6.3118-1.9173,9.6071-2.2761,1.3255-.1443,2.6556-.309,3.986-.3333,4.259-.0781,8.0413,1.228,11.3543,3.9477,3.9242,3.2213,6.7994,7.2519,9.2322,11.6464,2.2469,4.0587,4.0081,8.3424,5.8612,12.5838,2.0317,4.6501,4.1042,9.2827,6.085,13.9543,1.6333,3.852,3.2945,7.7011,4.7054,11.6367,3.6933,10.3019,4.3829,20.8479,2.1875,31.5745-2.2318,10.9043-5.9324,21.2675-11.5635,30.8921-3.6741,6.2797-8.2046,11.8589-13.989,16.3439-5.9398,4.6054-12.5842,7.6675-19.9637,9.1618"/><circle class="cls-4" cx="228.6374" cy="106.3809" r="9.3757"/><circle class="cls-4" cx="241.1383" cy="43.8765" r="6.2504"/><circle class="cls-4" cx="178.6339" cy="18.8748" r="6.2504"/><circle class="cls-4" cx="12.5009" cy="100.007" r="12.5009"/><g class="cls-6"><rect class="cls-4" x="101.3576" y="24.5972" width="15.6289" height="36.5506" transform="translate(30.0919 129.4919) rotate(-69.0454)"/></g><line class="cls-2" x1="168.1111" y1="65.4446" x2="92.1058" y2="36.3379"/><line class="cls-1" x1="25.6843" y1="80.2322" x2="42.3855" y2="55.1804"/><line class="cls-2" x1="228.6374" y1="38.8762" x2="191.1348" y2="23.8751"/><line class="cls-1" x1="165.805" y1="85.4044" x2="31.2519" y2="98.2209"/><path class="cls-4" d="m87.393,22.6647c-.0566-.59-.5485-1.0429-1.141-1.0429h-2.518c-2.0145,0-3.8531-1.212-4.5838-3.0896-.0609-.1572-.1247-.3135-.1903-.4685-.7735-1.8323-.3216-3.9531,1.0848-5.3594l1.8514-1.8517c.4169-.4166.4444-1.0788.0744-1.5379-1.0623-1.316-2.2552-2.5217-3.5593-3.5984-.4578-.3785-1.1273-.3538-1.547.0666l-1.7908,1.7908c-1.4232,1.4229-3.5756,1.8654-5.4194,1.0594-.1816-.0797-.3647-.1559-.5494-.23-1.8498-.736-3.0283-2.5689-3.0283-4.56V1.271c-.0003-.591-.4507-1.0804-1.0388-1.1404-.8329-.0853-1.6776-.1306-2.5327-.1306-.8557,0-1.7004.0453-2.5333.1306-.5882.06-1.0388.5494-1.0388,1.1404v2.5721c0,1.9911-1.1782,3.824-3.0283,4.5603-.1847.0738-.3678.15-.5494.2294-1.8436.8063-3.9962.3638-5.4191-1.0591l-1.7908-1.7908c-.42-.4203-1.0891-.445-1.5473-.0666-1.3042,1.0766-2.497,2.2823-3.559,3.5984-.3703.4588-.3425,1.1213.0744,1.5379l1.8517,1.8517c1.406,1.4063,1.8576,3.5271,1.0841,5.3594-.0656.155-.1288.3113-.1903.4685-.7301,1.8776-2.5689,3.0896-4.5838,3.0896h-2.5174c-.5929,0-1.0851.4528-1.1413,1.0429-.0738.7694-.1134,1.5485-.1134,2.337,0,.9219.0506,1.8323.1481,2.7283.0638.586.55,1.0351,1.1395,1.0351h2.6361c1.9826,0,3.7993,1.1723,4.5503,3.0071.0488.1194.0988.2381.1503.3563.806,1.8533.3797,4.0115-1.0491,5.4404l-1.7926,1.7926c-.42.4197-.4447,1.0891-.0663,1.547,1.0763,1.3042,2.2823,2.497,3.5984,3.5593.4588.37,1.1213.3425,1.5382-.0744l1.8492-1.8492c1.4113-1.4113,3.5327-1.8361,5.3788-1.0766l.18.0738c1.9176.7888,3.169,2.6571,3.169,4.7303v2.4608c0,.5913.4507,1.0804,1.0388,1.1404.8329.0853,1.6776.1306,2.533.1306s1.7001-.0453,2.533-.1306c.5882-.06,1.0388-.5491,1.0385-1.1404l.0003-2.5746c0-2.0045,1.2101-3.8109,3.064-4.5731l.1688-.0697c1.9167-.7882,4.119-.3472,5.5841,1.1182l1.7601,1.7601c.4172.4169,1.0798.4444,1.5379.0744,1.3163-1.0623,2.5224-2.2552,3.599-3.5593.3782-.4578.3535-1.1273-.0666-1.5473l-1.7926-1.7923c-1.4288-1.4288-1.8551-3.5871-1.0488-5.4404.0513-.1181.1016-.2369.1503-.3563.751-1.8348,2.5677-3.0074,4.5497-3.0071h2.6364c.5897,0,1.076-.4491,1.1398-1.0351.0975-.896.1478-1.8064.1478-2.728,0-.7891-.0397-1.5679-.1131-2.3374Zm-24.8886,11.713c-5.1782,0-9.3757-4.1978-9.3753-9.376-.0003-5.1782,4.1972-9.3757,9.3753-9.3757s9.376,4.1975,9.376,9.376-4.1978,9.3757-9.376,9.3757Z"/><path class="cls-4" d="m81.467,99.9914c-1.2488,1.4757-2.4472,2.996-3.6134,4.5434l107.0307-10.3949-.3914-4.1547-103.0259,10.0062Z"/><g><circle class="cls-4" cx="168.1111" cy="78.7068" r="45"/><path class="cls-3" d="m205.4447,74.4755c-.083-.8661-.8051-1.5308-1.6749-1.5308h-3.6961c-2.957,0-5.6558-1.779-6.7283-4.5351-.0895-.2307-.183-.4601-.2794-.6877-1.1354-2.6896-.472-5.8026,1.5923-7.8669l2.7176-2.718c.612-.6115.6523-1.5836.1092-2.2575-1.5593-1.9318-3.3103-3.7016-5.2246-5.2819-.6721-.5555-1.6547-.5193-2.2708.0977l-2.6286,2.6286c-2.0891,2.0886-5.2484,2.7382-7.955,1.5551-.2665-.117-.5353-.2289-.8065-.3376-2.7153-1.0803-4.4452-3.7708-4.4452-6.6935v-3.7754c-.0005-.8675-.6615-1.5859-1.5249-1.6739-1.2225-.1252-2.4625-.1918-3.7176-.1918-1.256,0-2.496.0665-3.7185.1918-.8633.0881-1.5249.8065-1.5249,1.6739v3.7754c0,2.9226-1.7294,5.6131-4.4452,6.6939-.2711.1083-.5399.2202-.8065.3367-2.7061,1.1835-5.8659.534-7.9545-1.5547l-2.6286-2.6286c-.6165-.617-1.5987-.6532-2.2712-.0977-1.9143,1.5804-3.6653,3.3502-5.2241,5.2819-.5436.6734-.5028,1.646.1092,2.2575l2.718,2.718c2.0639,2.0643,2.7267,5.1773,1.5914,7.8669-.0963.2275-.189.4569-.2794.6877-1.0716,2.7561-3.7708,4.5351-6.7283,4.5351h-3.6951c-.8702,0-1.5927.6647-1.6753,1.5308-.1083,1.1294-.1665,2.2731-.1665,3.4305,0,1.3533.0743,2.6896.2174,4.0048.0936.8601.8074,1.5193,1.6726,1.5193h3.8695c2.9102,0,5.5769,1.7207,6.6793,4.414.0716.1752.145.3496.2207.523,1.1831,2.7203.5574,5.8884-1.54,7.9857l-2.6313,2.6313c-.6165.6161-.6528,1.5987-.0973,2.2708,1.5799,1.9143,3.3502,3.6653,5.2819,5.2246.6734.5431,1.646.5028,2.2579-.1092l2.7144-2.7144c2.0717-2.0717,5.1856-2.6951,7.8954-1.5804l.2642.1083c2.8148,1.1579,4.6516,3.9002,4.6516,6.9435v3.6121c0,.8679.6615,1.5859,1.5249,1.6739,1.2225.1252,2.4625.1918,3.7181.1918s2.4955-.0665,3.7181-.1918c.8633-.0881,1.5249-.806,1.5244-1.6739l.0005-3.7791c0-2.9424,1.7762-5.5939,4.4975-6.7127l.2477-.1023c2.8135-1.1569,6.0462-.5097,8.1968,1.6414l2.5836,2.5836c.6124.612,1.5849.6523,2.2575.1092,1.9322-1.5593,3.7025-3.3103,5.2828-5.2246.5551-.6721.5188-1.6547-.0977-2.2712l-2.6313-2.6309c-2.0974-2.0974-2.7231-5.2654-1.5395-7.9857.0752-.1734.1491-.3477.2207-.523,1.1024-2.6933,3.769-4.4145,6.6783-4.414h3.8699c.8656,0,1.5794-.6592,1.673-1.5193.1431-1.3152.217-2.6515.217-4.0043,0-1.1583-.0583-2.3015-.1661-3.4309Zm-36.5331,17.1931c-7.6009,0-13.7622-6.1618-13.7617-13.7627-.0005-7.6009,6.1609-13.7622,13.7617-13.7622s13.7627,6.1613,13.7627,13.7627-6.1618,13.7622-13.7627,13.7622Z"/></g><line class="cls-2" x1="240.8964" y1="56.2079" x2="232.707" y2="91.8127"/></svg>