<?xml version="1.0" encoding="UTF-8"?><svg id="Layer_1" xmlns="http://www.w3.org/2000/svg" xmlns:xlink="http://www.w3.org/1999/xlink" viewBox="0 0 279.652 279.5407"><defs><style>.cls-1{fill:none;}.cls-2{clip-path:url(#clippath);}.cls-3{fill:#4a9cd5;}</style><clipPath id="clippath"><path class="cls-1" d="m159.01,59.0815c-.388,1.7181-1.7181,9.5328,3.27,14.521s10.6967,5.9857,10.6967,5.9857c0,0-.6097,5.1544-4.8218,11.3064s-5.7086,7.8701-9.034,10.863-4.9881,4.1568-4.9881,4.1568l-12.0269-12.3594-17.1813-7.5376-25.7165-1.6627s-18.1789,8.9786-18.6223,9.0895-15.8511,14.4812-15.6294,14.8336-5.2098,20.3049-5.2098,20.7483.7759,21.5043.8868,21.9477,7.4267,16.5162,7.4267,16.5162c0,0,16.7379,15.962,17.0704,15.962s21.9477,4.5447,21.9477,4.5447l21.1718-2.2169,18.844-11.1955,8.8678-8.8678.3325-.2771s4.8218,6.3598,6.2351,8.2304,4.4477,5.5701,6.5677,9.1449,2.9929,6.2767,3.367,7.5237.7898,2.6188.7898,2.6188c0,0-7.69,2.2031-10.8076,6.2351s-2.9097,4.9881-3.2423,7.3575-.2494,3.5332.1663,5.9857-34.3349,29.3329-34.3349,29.3329h-42.5653l-53.2066-13.0799-14.1884-43.2303L1.5519,133.6815l5.9438-50.5462,24.65-31.7022,42.1219-22.8345,43.2303-5.693,35.6927,10.4534,5.8195,25.7225Z"/></clipPath></defs><path class="cls-3" d="m5.9095,45.811c.5225,0,1.0683-.063,1.6365-.1888,2.9298-.6497,4.3653-3.0449,4.3886-7.3231.0168-3.0733.0172-6.1471.0181-9.2204l.0017-12.7024-.0004-4.3421,7.7736.0043c6.4195.0047,12.7007.0108,18.9806-.0151,4.4421-.0181,6.9951-2.1792,7.0041-5.9289.0086-3.7234-2.5978-5.957-6.9726-5.9742-2.6517-.0112-5.347.0164-7.9538.0423-5.1892.0517-10.5551.1047-15.8154-.1341C7.3981-.3182,2.6431,2.4969.0246,8.8846l-.0246.0604v32.4486l.0345.1475c1.411,2.8397,3.3824,4.2701,5.8751,4.2701Z"/><path class="cls-3" d="m37.9318,267.5941c-1.1381-.0039-2.2771-.0035-3.4161-.0022l-22.4125.0009c-.0181-.3574-.0371-.6924-.0552-1.0118-.0461-.8139-.0858-1.5175-.0875-2.2193l-.0168-5.256c-.0207-5.7302-.0422-11.6553.0246-17.4808.0358-3.1376-.4341-6.2199-4.0851-7.5214-3.0466-1.0859-5.3892.0966-7.8318,3.9541l-.0513.081v32.4797l.0246.1255c1.6912,4.1287,4.6434,7.08,8.7747,8.7725l32.596.0246.0711-.0362c3.4747-1.7804,4.8107-4.2313,4.0847-7.4925-.6764-3.0358-3.0259-4.3985-7.6193-4.4179Z"/><path class="cls-3" d="m272.9821,264.5686c-.2375-5.2267-.1849-10.5585-.1341-15.7154.0259-2.6392.0526-5.3681.0405-8.0525-.0202-4.3615-2.2534-6.9627-5.9738-6.9627h-.0207c-3.7389.0099-5.8927,2.5633-5.9091,7.005-.0207,5.5164-.0168,11.0328-.0125,16.5496l.003,10.2007-7.696-.0017c-6.3264-.0026-12.461-.0043-18.5956.0065-4.2726.0078-6.667,1.4463-7.3201,4.3981-.732,3.3048.6044,5.7612,4.0847,7.5094l32.606.0353.0608-.025c6.3928-2.6474,9.2101-7.3968,8.8669-14.9472Z"/><path class="cls-3" d="m233.9015,12.0454h.0517c6.3622-.0267,12.7248-.0233,19.3013-.0168l7.7047.0039v3.5906c.0017,2.2922,0,4.5843-.0017,6.8765-.0043,5.5422-.0082,11.2729.0388,16.91.0323,3.8484,2.3327,6.3518,5.8608,6.3782h.0556c3.5333,0,5.9242-2.5137,5.9548-6.2721.0733-9.0096.1323-18.5995-.022-28.0863-.1013-6.1932-4.9297-11.1362-10.9922-11.2535-10.5667-.2035-20.9175-.1143-28.7554-.0125-1.9714.0259-3.7299.8734-4.8253,2.3262-1.0691,1.4183-1.4002,3.2699-.9075,5.0801.8083,2.9703,3.007,4.4761,6.5364,4.4757Z"/><g><path class="cls-3" d="m148.0785,120.3826c21.7366-8.6576,36.9471-30.0787,35.7108-50.593-2.5272,0-5.1219.1633-7.6893-.0319-6.6172-.503-9.6214-6.1821-5.8857-11.6276,6.5378-9.5301,13.3026-18.9103,20.1836-28.1967,3.2686-4.4113,8.4519-4.4781,11.7583-.0614,6.9265,9.2525,13.7139,18.6212,20.2136,28.1767,3.8826,5.708.6623,11.4666-6.2019,11.7674-2.4499.1073-4.9085.0172-6.8063.0172-1.9462,8.573-3.035,16.8321-5.7159,24.5373-8.4418,24.2629-25.1529,40.6546-49.3647,49.2275-2.9782,1.0545-4.3413,2.6516-5.3646,5.5428-7.014,19.817-26.0475,28.7846-41.8143,26.5214-21.169-3.0386-34.8988-18.1133-35.5379-37.5481-.6658-20.2467,11.9635-36.6845,31.5639-41.0824,16.5218-3.7071,34.4916,4.5037,42.9519,19.6314.6347,1.135,1.2323,2.2908,1.9986,3.7193Zm-52.7554,15.5147c-.0514,9.0141,7.3229,16.3447,16.3723,16.2754,8.0748-.0618,15.383-7.3949,15.5499-15.6028.1834-9.0154-7.0924-16.392-16.1987-16.423-8.5474-.0292-15.6743,7.1099-15.7236,15.7505Z"/><path class="cls-3" d="m184.0508,146.7039c15.288,14.8951,23.185,33.3596,24.1783,55.4942,2.8771,0,5.4641-.13,8.0339.0251,6.8656.4144,9.9728,6.2288,6.0962,11.8395-6.4732,9.3689-13.1202,18.6246-19.9364,27.7469-3.6058,4.8258-8.8342,4.6791-12.4119-.1927-6.6459-9.0498-13.2835-18.118-19.5003-27.4608-1.3381-2.011-1.9921-5.8435-.9475-7.71,1.1706-2.0917,4.4995-3.3143,7.1323-4.1411,2.0765-.652,4.5212-.131,7.2857-.131.47-9.0691-1.8874-17.1623-6.2188-24.3103-4.2171-6.9596-9.7677-13.1111-14.8561-19.7789,6.467-3.4809,13.642-7.3428,21.1443-11.3809Z"/><path class="cls-3" d="m236.5442,148.114c-8.8681,0-16.9533-.1517-25.0284.0691-3.6091.0986-6.2101-.6722-8.3101-3.9134-1.9473-3.0055-4.6702-5.5085-7.0572-8.2392,2.6306-3.0966,4.9708-6.3433,7.8358-9.0305,1.5957-1.4967,4.0357-2.8319,6.1457-2.9121,8.5509-.325,17.1213-.135,26.4249-.135,0-3.0052-.0971-5.5858.0191-8.1568.2919-6.4616,6.2254-9.645,11.5799-5.9539,9.3701,6.4592,18.6032,13.1245,27.75,19.8975,4.9029,3.6306,5.0154,8.8382.2214,12.3948-9.2728,6.8794-18.6532,13.624-28.172,20.1578-5.3317,3.6597-11.1296.3795-11.3931-6.1601-.0983-2.4378-.0159-4.883-.0159-8.0182Z"/></g><g class="cls-2"><path class="cls-3" d="m191.7214,75.9884c-1.7666,3.5705-3.2411,6.8088-4.936,9.9273-4.8496,8.9229-4.2416,18.1408,2.2546,26.0099,1.417,1.7164,3.812,2.8418,5.9738,3.6758,3.3463,1.2909,6.8839,2.0823,10.3324,3.112,4.5938,1.3717,6.978,4.4473,6.9986,9.2684.0225,5.2581.063,10.5172-.011,15.7744-.0724,5.1419-2.1987,7.9403-7.2198,9.5492-3.5698,1.1439-7.4352,1.6626-10.7036,3.3577-2.7116,1.4063-4.7459,4.1207-7.0718,6.2648-.0985.0908-.0888.289-.1675.4131-5.8569,9.2326-4.7212,17.7908,1.5799,26.5418,3.8842,5.3943,2.8847,9.3179-1.7627,14.0436-3.2647,3.3197-6.5341,6.6374-9.8852,9.869-3.8617,3.724-7.4374,4.1759-12.2828,1.7253-.4018-.2032-.8423-.3654-1.1854-.6445-8.4555-6.8773-17.387-7.4224-26.4077-1.4536-2.6805,1.7736-5.1865,4.3826-6.7062,7.1869-1.6734,3.0881-2.0552,6.8617-3.1142,10.3013-1.6449,5.3422-4.6112,7.5451-10.2736,7.6192-4.9552.0649-9.9133.0831-14.8675-.0115-5.0645-.0966-8.1169-2.4326-9.7005-7.1949-.1891-.5685-.2832-1.168-.4508-1.7445-5.1189-17.6018-2.8494-13.104-18.2407-19.6901-2.5062-1.0725-6.1749-.5365-8.936.3765-3.5006,1.1575-6.5908,3.5218-9.9158,5.2548-4.8066,2.5053-8.4148,2.003-12.2696-1.7326-3.559-3.4489-7.0624-6.9577-10.5136-10.5146-3.6583-3.7703-4.2214-7.7022-1.9084-12.3211.2686-.5365.5961-1.0431.8868-1.5689,7.1001-12.8406,7.2897-12.9273,1.145-26.4007-1.2065-2.6456-4.2104-4.9107-6.9215-6.3166-3.2683-1.6948-7.1304-2.2186-10.6963-3.3704-5.0354-1.6263-7.1355-4.3971-7.2098-9.555-.0757-5.2571-.0179-10.5162-.017-15.7744.0008-4.6248,2.2674-7.6246,6.5749-9.1514.7066-.2505,1.4112-.6079,2.14-.6794,10.8973-1.0693,17.1142-7.1583,19.901-17.6142.9495-3.5625,1.4469-6.6334-.4491-9.8904-1.812-3.1128-3.5613-6.2653-5.2379-9.453-2.4587-4.6747-1.962-8.5701,1.652-12.3273,3.5396-3.6798,7.1473-7.2981,10.8248-10.8398,3.6853-3.5492,7.2955-3.9976,11.9194-1.6995.5373.267,1.0541.575,1.5817.8617,12.7729,6.9392,12.8564,7.1303,26.4116,1.2085,2.6692-1.1661,5.0343-4.1176,6.4356-6.8189,1.6924-3.2624,2.1418-7.156,3.2502-10.7389,1.5069-4.8711,4.5217-7.2572,9.5446-7.3801,5.2532-.1286,10.5128-.0906,15.7681-.0173,4.7661.0665,7.9291,2.5036,9.3981,6.9944,1.0723,3.2781,2.0662,6.5942,2.8553,9.9497,1.019,4.3336,3.8505,6.4923,7.6543,8.6577,9.2303,5.2545,17.3006,4.2242,25.8073-1.7352,5.987-4.1942,9.4778-3.2181,14.7016,1.9766,3.195,3.1772,6.5548,6.217,9.4754,9.6311,1.6581,1.9384,2.5796,4.5073,3.995,7.0879Zm-137.6583,60.6232c.469,31.1183,25.8332,55.7246,56.9584,55.2565,30.456-.458,55.282-26.0695,54.7986-56.5325-.4938-31.1224-25.8585-55.7196-56.9773-55.2532-30.4577.4565-55.2395,26.0296-54.7798,56.5292Z"/></g></svg>