<?xml version="1.0" encoding="UTF-8"?><svg id="Layer_1" xmlns="http://www.w3.org/2000/svg" viewBox="0 0 283.325 278.0111"><defs><style>.cls-1{fill:#fff;}.cls-2{fill:#4a9cd5;}.cls-3{fill:none;stroke:#fff;stroke-width:5px;}</style></defs><g><g><path class="cls-3" d="m193.6326,145.5383c-.0125,3.8333.2004,7.6887-.1698,11.4873-.1241,1.2736-1.5156,3.1403-2.6966,3.4898-32.0952,9.5001-64.2007,9.3111-96.2995-.1429-2.3249-.6848-2.9508-1.8276-2.906-4.0727.1352-6.7798.2315-13.566.0872-20.3443-.2663-12.5125,10.212-21.0361,22.036-20.9544,6.2973.0435,12.6837,2.05,18.8417,3.8237,8.6166,2.482,16.6842,1.5306,24.9835-1.5448,11.9771-4.4383,26.4866-3.1258,33.3755,8.5741,1.5609,2.6509,2.2855,5.9764,2.6818,9.0824.4439,3.48.0775,7.0633.0662,10.6017Z"/><path class="cls-3" d="m115.9234,87.6861c.1062-16.2194,10.8739-28.9329,24.6788-29.9752,16.8872-1.275,31.0495,14.0111,29.115,31.6858-1.3107,11.975-6.6713,21.2718-18.6358,25.5106-15.8266,5.6073-32.8549-5.9709-34.9237-23.6593-.1706-1.4584-.1949-2.934-.2344-3.5619Z"/></g><g><path class="cls-2" d="m193.6326,145.5383c-.0125,3.8333.2004,7.6887-.1698,11.4873-.1241,1.2736-1.5156,3.1403-2.6966,3.4898-32.0952,9.5001-64.2007,9.3111-96.2995-.1429-2.3249-.6848-2.9508-1.8276-2.906-4.0727.1352-6.7798.2315-13.566.0872-20.3443-.2663-12.5125,10.212-21.0361,22.036-20.9544,6.2973.0435,12.6837,2.05,18.8417,3.8237,8.6166,2.482,16.6842,1.5306,24.9835-1.5448,11.9771-4.4383,26.4866-3.1258,33.3755,8.5741,1.5609,2.6509,2.2855,5.9764,2.6818,9.0824.4439,3.48.0775,7.0633.0662,10.6017Z"/><path class="cls-2" d="m115.9234,87.6861c.1062-16.2194,10.8739-28.9329,24.6788-29.9752,16.8872-1.275,31.0495,14.0111,29.115,31.6858-1.3107,11.975-6.6713,21.2718-18.6358,25.5106-15.8266,5.6073-32.8549-5.9709-34.9237-23.6593-.1706-1.4584-.1949-2.934-.2344-3.5619Z"/></g></g><path class="cls-2" d="m212.3486,131.4314c7.4782,0,14.7716.2392,22.0223-.2101,1.3824-.0857,2.9754-2.7087,3.8242-4.4724,4.4342-9.2133,13.3846-14.7564,23.215-14.1024,9.6681.6433,17.8475,7.1084,20.8145,16.4519,3.6852,11.6054-2.1686,24.2288-13.3431,28.7736-11.6721,4.7472-25.0282.0206-29.9473-11.5211-1.9974-4.6865-4.433-5.7962-8.9234-5.5551-5.56.2985-11.1482.0715-17.6623.0715,0,8.1232-.3821,15.9002.1254,23.6187.3808,5.7909-1.6996,9.2038-6.8677,11.5027-3.6273,1.6135-6.9393,3.9359-11.3653,6.507,10.75,10.6546,20.6524,20.696,30.9106,30.3596,1.3363,1.2588,4.7729,1.3542,6.7801.6629,13.7354-4.7307,27.8315,2.0598,31.5669,15.5239,3.7957,13.6815-4.411,26.8269-18.74,29.5574-8.6446,1.6472-15.9688-1.4118-21.6237-7.9176-5.9118-6.8014-7.4758-14.8923-4.1038-23.2088,1.7343-4.2775,1.0783-6.6626-2.1455-9.7223-9.0978-8.6343-17.9469-17.5428-26.6226-26.6032-2.9396-3.07-5.1888-3.8291-9.0728-1.4599-9.9268,6.0552-20.077,11.7566-30.2814,17.3371-3.3218,1.8166-5.1558,3.8609-4.597,7.8192.3101,2.1968.2012,4.4847.0272,6.7117-.4554,5.8279.1712,9.9441,7.035,12.7618,9.4778,3.8908,13.6853,15.742,11.0556,25.6005-2.8886,10.8296-12.2903,18.2254-22.9977,18.0911-10.785-.1352-19.9586-7.636-22.6778-18.5425-2.4473-9.8158,2.1277-21.3922,11.5909-25.4383,5.9874-2.56,6.3267-6.1256,6.8535-11.5743.9154-9.4667-2.0133-15.0844-10.9873-19.0896-9.9321-4.4328-19.0649-10.6566-28.9046-16.3065-11.1773,11.1789-22.1833,22.0007-32.8568,33.1411-1.1,1.1481-.7869,4.3813-.156,6.3322,3.01,9.3083,1.9697,17.8246-4.8728,24.9738-6.5463,6.8399-14.6364,9.2659-23.8888,6.3468-9.4751-2.9894-14.7976-9.7433-16.5059-19.3261-3.0191-16.9363,14.7744-31.2554,31.4048-24.9641,4.3672,1.6521,6.6654.8907,9.686-2.2321,9.3057-9.6205,18.9516-18.9119,28.9016-28.763-1.84-1.1755-2.8253-2.1306-3.9958-2.5025-12.3141-3.9127-16.1145-12.4551-14.1559-24.692.6978-4.3596.1118-8.9247.1118-14.475-7.502,0-14.7983-.2398-22.0517.2112-1.3777.0857-2.9543,2.7286-3.8095,4.4962-4.4571,9.2129-13.4124,14.7424-23.2314,14.076-9.6671-.6561-17.8372-7.131-20.789-16.4756-3.6759-11.6368,2.1638-24.207,13.3584-28.7544,11.6775-4.7435,25.0249-.0154,29.9409,11.5338,1.9989,4.696,4.4452,5.7851,8.9285,5.5468,5.5595-.2955,11.1466-.0708,17.6538-.0708l10.0829-.7991c-.0364,10.576.0321,21.1526.2061,31.726.0353,2.1443,1.7489,5.158,3.5849,6.2366,17.9361,10.5366,36.0137,20.8373,54.2124,30.9138,1.8578,1.0287,5.2655,1.051,7.1141.0259,18.1908-10.0873,36.2583-20.4025,54.1842-30.9532,1.8328-1.0787,3.4569-4.0696,3.5619-6.2509.409-8.4945.1668-17.0203.1681-25.5345,0-1.9041.0123-3.8088.027-5.7136l8.2282.3203Zm-189.0555,18.8479c7.8456.0749,14.1003-5.8632,14.3342-13.6086.2451-8.1161-5.9028-14.549-13.9736-14.6211-8.0395-.0719-14.4985,6.3206-14.4145,14.2658.0814,7.6953,6.316,13.89,14.0539,13.9639Zm236.3691-.0023c7.8343.0716,14.2325-6.0385,14.419-13.7697.1937-8.0344-6.2653-14.5233-14.3916-14.458-7.8898.0634-13.9937,6.2072-14.0033,14.0948-.0096,7.8732,6.1094,14.061,13.9759,14.1329ZM56.5689,235.4797c.0446-7.7361-6.0977-14.0678-13.8048-14.2306-7.9704-.1684-14.6293,6.261-14.6533,14.1482-.023,7.535,6.3569,14.1055,13.9006,14.316,7.8824.2199,14.5116-6.2618,14.5575-14.2336Zm185.0772-14.2069c-7.7521-.3775-14.3748,5.4658-14.8739,13.1236-.5191,7.9629,5.5679,14.8851,13.458,15.3047,7.7631.4129,14.7617-6.0737,14.9831-13.8869.2158-7.6166-5.8965-14.1678-13.5671-14.5413Zm-85.8668,33.1489c.0246-8.1211-6.2784-14.3576-14.3802-14.2285-7.825.1246-13.8225,6.221-13.8503,14.0786-.0284,8.0207,6.438,14.458,14.377,14.3122,7.6912-.1412,13.8302-6.417,13.8536-14.1623Z"/><path class="cls-1" d="m23.2931,150.2793c-7.7379-.0739-13.9725-6.2686-14.0539-13.9639-.084-7.9452,6.3751-14.3377,14.4145-14.2658,8.0707.0722,14.2186,6.505,13.9736,14.6211-.2339,7.7454-6.4886,13.6836-14.3342,13.6086Z"/><path class="cls-1" d="m56.5689,235.4797c-.0459,7.9718-6.6751,14.4535-14.5575,14.2336-7.5437-.2105-13.9236-6.781-13.9006-14.316.0241-7.8872,6.6829-14.3165,14.6533-14.1482,7.7071.1628,13.8494,6.4945,13.8048,14.2306Z"/><path class="cls-1" d="m241.6461,221.2728c7.6707.3735,13.783,6.9247,13.5671,14.5413-.2214,7.8132-7.22,14.2998-14.9831,13.8869-7.8901-.4196-13.977-7.3418-13.458-15.3047.4992-7.6577,7.1218-13.501,14.8739-13.1236Z"/><path class="cls-1" d="m155.7793,254.4218c-.0234,7.7454-6.1624,14.0211-13.8536,14.1623-7.939.1458-14.4054-6.2915-14.377-14.3122.0279-7.8577,6.0253-13.954,13.8503-14.0786,8.1019-.129,14.4048,6.1074,14.3802,14.2285Z"/><path class="cls-2" d="m97.875,0h-12.97c-7.804,0-14.1894,6.3852-14.1894,14.1894v13.2039c0,.7844.6341,1.419,1.419,1.419h5.6757c.7826,0,1.419-.6346,1.419-1.419v-13.2039c0-3.0762,2.5981-5.6757,5.6757-5.6757h12.97c.7839,0,1.419-.6363,1.419-1.419V1.419c0-.7833-.6351-1.419-1.419-1.419Z"/><path class="cls-2" d="m198.4199,0h-12.7436c-.7839,0-1.4187.6358-1.4187,1.419v5.6757c0,.7827.6348,1.419,1.4187,1.419h12.7436c3.0755,0,5.676,2.5995,5.676,5.6757v13.2039c0,.7844.6341,1.419,1.4187,1.419h5.676c.7839,0,1.4187-.6346,1.4187-1.419v-13.2039c0-7.8042-6.3853-14.1894-14.1894-14.1894Z"/><path class="cls-2" d="m178.2421,27.7854l4.7357,8.6743,9.6448,1.2268-6.5689,6.9468,2.1463,9.594-8.798-4.3823-8.3156,4.7045,1.1299-9.6544-7.2778-6.6875,9.4863-1.581,3.8174-8.8411Z"/><path class="cls-2" d="m106.0291,29.1472l4.736,8.6745,9.6408,1.2215-6.5599,6.9482,2.1373,9.5921-8.794-4.377-8.316,4.705,1.126-9.6603-7.278-6.6867,9.4867-1.5814,3.8211-8.8358Z"/><path class="cls-2" d="m139.8692,14.4061l6.3084,11.548,12.8231,1.6274-8.7328,9.2422,2.8518,12.7675-11.7039-5.8328-11.0657,6.2622,1.4984-12.8524-9.6829-8.892,12.6251-2.1102,5.0785-11.7599Z"/></svg>